<?xml version="1.0" encoding="iso-8859-1"?>
<!-- Generator: Adobe Illustrator 19.0.0, SVG Export Plug-In . SVG Version: 6.00 Build 0)  -->
<svg version="1.1" id="Capa_1" xmlns="http://www.w3.org/2000/svg" xmlns:xlink="http://www.w3.org/1999/xlink" x="0px" y="0px"
	 viewBox="0 0 512.001 512.001" style="enable-background:new 0 0 512.001 512.001;" xml:space="preserve">
<g>
	<polyline style="fill:#A9B1B5;" points="105.135,440.431 76.877,504.39 145.973,472.392 366.08,472.392 435.176,504.39 
		406.918,440.431 	"/>
	<path style="fill:#A9B1B5;" d="M475.196,173.889c38.038-38.038,38.038-99.711,0-137.751s-99.711-38.038-137.751,0L475.196,173.889z
		"/>
	<path style="fill:#A9B1B5;" d="M36.857,173.889c-38.038-38.038-38.038-99.711,0-137.751s99.711-38.038,137.751,0L36.857,173.889z"
		/>
</g>
<g>
	<path style="fill:#8A8F91;" d="M54.794,21.998c-6.377,3.92-12.412,8.617-17.936,14.142c-38.039,38.038-38.039,99.711,0,137.751
		l32.078-32.078C36.421,109.298,31.724,59.528,54.794,21.998z"/>
	<path style="fill:#8A8F91;" d="M489.337,54.076c-3.92-6.377-8.617-12.412-14.142-17.936c-38.038-38.039-99.711-38.039-137.751,0
		l32.078,32.078C402.038,35.703,451.807,31.007,489.337,54.076z"/>
</g>
<circle style="fill:#DF1B17;" cx="256.023" cy="289.538" r="213.397"/>
<path style="fill:#FFFFFF;" d="M435.201,289.501c0,24.778-5.063,48.4-14.094,69.871c-3.775,8.909-8.259,17.452-13.373,25.55
	c-31.739,50.379-87.841,83.782-151.745,83.782c-98.972,0-179.202-80.149-179.202-179.202c0-63.915,33.464-119.965,83.782-151.674
	c12.978-8.188,27.092-14.753,42.038-19.411c16.833-5.226,34.814-8.046,53.382-8.046
	C354.961,110.369,435.201,190.529,435.201,289.501z"/>
<path style="fill:#F2F3F7;" d="M435.201,289.501c0,24.778-5.063,48.4-14.094,69.871c-3.775,8.909-8.259,17.452-13.373,25.55
	c-27.63,17.412-60.353,27.477-95.43,27.477c-98.972,0-179.212-80.159-179.212-179.212c0-35.057,10.066-67.75,27.477-95.359
	c12.978-8.188,27.092-14.753,42.038-19.411c16.833-5.226,34.814-8.046,53.382-8.046
	C354.961,110.369,435.201,190.529,435.201,289.501z"/>
<path style="fill:#AF0E0E;" d="M121.253,440.431c-83.335-83.335-83.335-218.448,0-301.784
	c39.617-39.617,90.937-60.359,142.832-62.308c-57.266-2.151-115.233,18.591-158.951,62.308c-83.335,83.335-83.335,218.449,0,301.784
	c43.719,43.719,101.688,64.461,158.957,62.308C212.195,500.792,160.872,480.05,121.253,440.431z"/>
<circle style="fill:#757C84;" cx="256.023" cy="289.538" r="29.012"/>
<path d="M69.25,289.539c0,102.99,83.788,186.777,186.777,186.777s186.777-83.788,186.777-186.777s-83.788-186.777-186.777-186.777
	S69.25,186.55,69.25,289.539z M400.597,197.263l-13.859,8.002c-3.64,2.101-4.887,6.756-2.785,10.395
	c1.41,2.441,3.967,3.806,6.597,3.806c1.291,0,2.601-0.329,3.798-1.021l13.876-8.011c11.254,21.565,18.056,45.804,19.183,71.493
	h-42.495c-4.204,0-7.61,3.407-7.61,7.61s3.406,7.61,7.61,7.61h42.495c-1.127,25.69-7.929,49.928-19.183,71.493l-13.876-8.012
	c-3.639-2.102-8.296-0.854-10.395,2.785c-2.101,3.64-0.854,8.294,2.785,10.395l13.859,8.003
	c-13.447,20.994-31.338,38.879-52.336,52.32l-7.997-13.85c-2.101-3.641-6.757-4.888-10.395-2.785
	c-3.64,2.101-4.887,6.756-2.785,10.395l8.004,13.863c-21.565,11.246-45.8,18.04-71.487,19.162v-42.46c0-4.203-3.406-7.61-7.61-7.61
	s-7.61,3.407-7.61,7.61v42.457c-25.681-1.132-49.911-7.936-71.469-19.189l7.988-13.834c2.101-3.64,0.854-8.294-2.785-10.395
	c-3.639-2.102-8.295-0.855-10.395,2.785l-7.977,13.817c-20.986-13.443-38.864-31.328-52.303-52.318l13.807-7.971
	c3.64-2.101,4.887-6.756,2.785-10.395c-2.102-3.64-6.758-4.886-10.395-2.785l-13.82,7.979
	c-11.245-21.558-18.04-45.784-19.166-71.462h42.422c4.204,0,7.61-3.407,7.61-7.61s-3.406-7.61-7.61-7.61H84.648
	c1.126-25.677,7.923-49.905,19.166-71.462l13.82,7.979c1.199,0.692,2.507,1.021,3.798,1.021c2.63,0,5.188-1.366,6.597-3.806
	c2.101-3.64,0.854-8.294-2.785-10.395l-13.807-7.971c13.437-20.99,31.317-38.874,52.303-52.318l7.977,13.817
	c1.41,2.441,3.967,3.806,6.597,3.806c1.291,0,2.601-0.329,3.798-1.021c3.64-2.101,4.887-6.756,2.785-10.395l-7.988-13.834
	c21.558-11.253,45.787-18.056,71.469-19.189v42.457c0,4.203,3.406,7.61,7.61,7.61c4.204,0,7.61-3.407,7.61-7.61v-42.456
	c25.687,1.121,49.922,7.915,71.487,19.162l-8.004,13.863c-2.101,3.64-0.854,8.294,2.785,10.395c1.198,0.692,2.507,1.021,3.798,1.021
	c2.63,0,5.188-1.365,6.597-3.806l7.997-13.85C369.258,158.384,387.15,176.27,400.597,197.263z"/>
<path d="M314.943,281.929h-23.095c-2.991-14.096-14.114-25.219-28.211-28.211V190.81c0-4.203-3.406-7.61-7.61-7.61
	c-4.204,0-7.61,3.407-7.61,7.61v62.908c-16.552,3.513-29.012,18.237-29.012,35.821c0,20.193,16.428,36.622,36.622,36.622
	c17.584,0,32.308-12.459,35.821-29.012h23.095c4.204,0,7.61-3.407,7.61-7.61S319.147,281.929,314.943,281.929z M256.027,310.941
	c-11.801,0-21.402-9.601-21.402-21.402s9.601-21.402,21.402-21.402s21.402,9.601,21.402,21.402S267.827,310.941,256.027,310.941z"/>
<path d="M469.815,179.271c1.428,1.428,3.363,2.229,5.382,2.229s3.953-0.802,5.382-2.229c39.259-39.259,40.868-102.12,4.843-143.323
	l10.792-12.478c2.799-3.238,2.387-8.163-0.957-10.884c-3.232-2.63-8.038-1.982-10.764,1.17l-9.907,11.456
	C455.577,8.898,431.633,0,406.322,0c-28.062,0-54.445,10.933-74.282,30.784c-2.96,2.962-2.935,7.776,0.025,10.736l68.861,68.861
	l-6.136,7.096c-8.745-7.047-18.088-13.479-27.982-19.215c-3.737-2.166-8.526-0.821-10.559,2.99l0,0
	c-1.918,3.596-0.677,8.091,2.85,10.134c63.542,36.8,102.712,104.401,102.712,178.153c0,113.644-92.597,206.066-206.305,205.783
	c-112.826-0.281-204.98-92.435-205.262-205.261c-0.283-113.708,92.14-206.305,205.783-206.305c25.327,0,49.96,4.52,73.331,13.447
	c3.81,1.455,8.087-0.401,9.676-4.157l0.001-0.003c1.685-3.985-0.294-8.551-4.337-10.092c-25.083-9.568-51.509-14.413-78.672-14.413
	c-51.111,0-99.565,17.244-138.744,48.962l-6.154-7.117l68.859-68.86c2.961-2.961,2.985-7.775,0.025-10.736
	C160.176,10.933,133.794,0,105.732,0C80.421,0,56.478,8.898,37.47,25.209l-9.906-11.455c-2.725-3.152-7.532-3.8-10.764-1.17
	c-3.344,2.721-3.756,7.647-0.957,10.884l10.789,12.474C9.874,55.079,0.718,79.342,0.718,105.015
	c0,27.998,10.882,54.323,30.647,74.146c0.747,0.749,1.619,1.383,2.602,1.777c2.954,1.184,6.165,0.44,8.273-1.666l26.698-26.699
	c2.971-2.971,2.971-7.789,0-10.76l-0.003-0.003c-2.971-2.971-7.789-2.971-10.76,0l-21.094,21.094
	c-13.686-16.175-21.143-36.459-21.143-57.889c0-23.985,9.34-46.534,26.301-63.494C59.198,24.56,81.748,15.22,105.732,15.22
	c21.431,0,41.714,7.457,57.89,21.143l-81.605,81.605c-2.971,2.971-2.971,7.789,0,10.76l0.003,0.003c2.971,2.971,7.789,2.971,10.76,0
	l7.559-7.559l5.449,6.302c-2.038,1.893-4.057,3.815-6.034,5.792c-41.742,41.742-64.73,97.241-64.73,156.273
	c0,57.283,21.649,111.235,61.07,152.523l-26.179,59.253c-1.281,2.897-0.631,6.284,1.628,8.504c1.454,1.429,3.38,2.182,5.335,2.182
	c1.081,0,2.172-0.23,3.195-0.704l65.413-30.292c33.238,19.263,71.096,29.539,110.539,29.539s77.301-10.277,110.539-29.539
	l65.415,30.291c1.024,0.474,2.114,0.704,3.195,0.704c1.955,0,3.881-0.753,5.335-2.182c2.26-2.22,2.908-5.607,1.628-8.504
	l-26.178-59.252c39.422-41.287,61.071-95.241,61.071-152.523c0-62.48-26.177-120.845-70.726-162.108l5.411-6.259L469.815,179.271z
	 M91.995,489.002l15.729-35.6c7.157,6.492,14.676,12.457,22.5,17.897L91.995,489.002z M381.829,471.299
	c7.824-5.44,15.344-11.404,22.5-17.896l15.728,35.599L381.829,471.299z M406.322,15.22c23.985,0,46.534,9.34,63.493,26.3
	c33.199,33.198,34.917,86.139,5.156,121.381L348.431,36.363C364.606,22.677,384.891,15.22,406.322,15.22z"/>
<g>
</g>
<g>
</g>
<g>
</g>
<g>
</g>
<g>
</g>
<g>
</g>
<g>
</g>
<g>
</g>
<g>
</g>
<g>
</g>
<g>
</g>
<g>
</g>
<g>
</g>
<g>
</g>
<g>
</g>
</svg>
