<?xml version="1.0" encoding="iso-8859-1"?>
<!-- Generator: Adobe Illustrator 19.0.0, SVG Export Plug-In . SVG Version: 6.00 Build 0)  -->
<svg version="1.1" id="Capa_1" xmlns="http://www.w3.org/2000/svg" xmlns:xlink="http://www.w3.org/1999/xlink" x="0px" y="0px"
	 viewBox="0 0 512.001 512.001" style="enable-background:new 0 0 512.001 512.001;" xml:space="preserve">
<path style="fill:#92A4CC;" d="M428.108,79.181C273.642-75.27,12.173,37.232,12.616,251.574
	c0.2,6.922,6.806,164.712,208.971,245.993c20.441,8.219,44.169,9.699,65.044,1.504C492.5,418.25,499.187,258.539,499.388,251.574
	C499.526,184.572,472.366,123.441,428.108,79.181z"/>
<path style="fill:#859BC1;" d="M271.428,497.569C69.263,416.286,62.657,258.496,62.457,251.574
	C62.176,115.774,167.03,20.857,283.194,8.806C149.046-5.24,12.296,96.514,12.616,251.574c0.2,6.922,6.806,164.712,208.971,245.993
	c18.721,7.527,40.193,9.377,59.71,3.344C277.945,499.965,274.642,498.861,271.428,497.569z"/>
<ellipse transform="matrix(0.5 -0.866 0.866 0.5 -67.2212 431.225)" style="fill:#656566;" cx="339.847" cy="273.829" rx="69.117" ry="47.784"/>
<path style="fill:#4F4F51;" d="M385.858,224.805c-2.99-4.451-6.804-8.151-11.45-10.833c-22.855-13.196-56.856,2.908-75.943,35.968
	c-24.974,43.256-10.807,88.534,24.822,88.345C297.331,299.654,338.259,225.056,385.858,224.805z"/>
<ellipse transform="matrix(0.5 0.866 -0.866 0.5 323.2246 -12.1754)" style="fill:#656566;" cx="172.157" cy="273.837" rx="69.117" ry="47.784"/>
<path style="fill:#4F4F51;" d="M160.44,284.142c-15.745-27.271-16.41-57.549-3.335-74.728c-6.948-0.292-13.603,1.146-19.511,4.558
	c-22.855,13.196-25.909,50.693-6.822,83.753c22.688,39.296,65.749,53.685,86.101,26.943
	C196.943,323.833,174.593,308.657,160.44,284.142z"/>
<path d="M347.882,339.834c52.648-24.935,72.922-107.737,30.276-132.359c-42.967-24.809-104.19,34.674-99.488,92.4
	C281.781,338.07,313.654,356.043,347.882,339.834z M304.96,253.69c26.239-45.449,77.368-50.608,81.112-4.684
	c2.413,29.629-17.749,64.547-44.61,77.268c-24.898,11.792-45.596-0.114-47.838-27.617
	C292.457,284.342,296.483,268.373,304.96,253.69z"/>
<path d="M291.4,398.608c2.869-2.988,2.771-7.737-0.216-10.605c-2.987-2.869-7.737-2.771-10.605,0.216
	c-16.475,17.162-33.629,16.17-49.152,0c-2.869-2.989-7.617-3.085-10.605-0.216c-2.987,2.868-3.085,7.617-0.216,10.605
	C242.484,421.399,269.479,421.441,291.4,398.608z"/>
<path d="M409.71,414.273c-2.99,2.866-3.09,7.615-0.223,10.605c1.473,1.536,3.441,2.31,5.415,2.31c1.866,0,3.736-0.692,5.19-2.087
	c34.564-33.141,59.586-71.55,74.374-114.159c11.354-32.714,12.344-56.542,12.42-59.152c1.706-58.013-22.313-126.75-73.476-177.915
	C334.454-25.074,188.308-19.794,92.734,60.971c-3.164,2.674-3.562,7.406-0.888,10.57c2.673,3.164,7.406,3.56,10.57,0.888
	C193.409-4.461,330.595-7.717,422.803,84.483c44.655,44.657,69.188,103.95,69.084,166.968
	C491.733,256.169,487.878,339.32,409.71,414.273z"/>
<path d="M77.494,85.535c-3.098-2.747-7.838-2.466-10.589,0.633C23.9,134.634,3.509,197.057,5.119,251.79
	c0.134,4.646,2.101,46.868,29.63,98.429C73.738,423.251,141.068,473.28,218.79,504.528c22.242,8.942,48.093,10.355,70.582,1.526
	c39.208-15.394,74.048-34.766,103.552-57.581c3.276-2.533,3.879-7.245,1.346-10.522c-2.534-3.275-7.244-3.881-10.522-1.346
	c-28.377,21.944-61.975,40.611-99.859,55.485c-17.947,7.048-39.636,6.507-59.503-1.481
	C27.839,411.585,20.364,259.213,20.117,251.453c-0.097-58.738,19.961-112.45,58.009-155.329
	C80.875,93.026,80.592,88.286,77.494,85.535z"/>
<path d="M184.749,228.087c3.313,2.485,8.015,1.815,10.501-1.498s1.815-8.015-1.498-10.501
	c-38.781-29.098-79.27-11.312-82.774,31.703c-1.411,17.322,3.311,36.388,13.298,53.685c35.503,61.495,104.274,57.094,109.055-1.6
	c1.568-19.263-4.521-39.273-14.365-55.463c-2.138-3.547-6.749-4.69-10.296-2.551c-3.548,2.139-4.69,6.748-2.551,10.296
	c27.399,45.026,7.017,94.298-35.577,74.118c-26.866-12.724-47.024-47.646-44.61-77.269
	C128.59,216.361,156.733,207.069,184.749,228.087z"/>
<g>
</g>
<g>
</g>
<g>
</g>
<g>
</g>
<g>
</g>
<g>
</g>
<g>
</g>
<g>
</g>
<g>
</g>
<g>
</g>
<g>
</g>
<g>
</g>
<g>
</g>
<g>
</g>
<g>
</g>
</svg>
