<?xml version="1.0" encoding="iso-8859-1"?>
<!-- Generator: Adobe Illustrator 19.0.0, SVG Export Plug-In . SVG Version: 6.00 Build 0)  -->
<svg version="1.1" id="Layer_1" xmlns="http://www.w3.org/2000/svg" xmlns:xlink="http://www.w3.org/1999/xlink" x="0px" y="0px"
	 viewBox="0 0 512 512" style="enable-background:new 0 0 512 512;" xml:space="preserve">
<circle style="fill:#F7B239;" cx="256.002" cy="272.963" r="230.497"/>
<path style="fill:#E09B2D;" d="M134.9,394.062c-82.917-82.916-89.45-213.289-19.606-303.689
	c-7.737,5.977-15.182,12.511-22.277,19.607c-90.013,90.013-90.013,235.954,0,325.966s235.954,90.013,325.966,0
	c7.095-7.095,13.629-14.541,19.607-22.277C348.19,483.513,217.818,476.979,134.9,394.062z"/>
<path d="M255.999,512C124.195,512,16.963,404.768,16.963,272.963S124.195,33.927,255.999,33.927
	c131.805,0,239.037,107.232,239.037,239.037S387.805,512,255.999,512z M255.999,51.014c-122.383,0-221.949,99.567-221.949,221.951
	s99.567,221.949,221.949,221.949c122.384,0,221.951-99.567,221.951-221.951S378.383,51.014,255.999,51.014z"/>
<path d="M202.458,257.719c-2.908,0-5.743-1.485-7.343-4.162c-7.717-12.917-21.309-20.63-36.357-20.63
	c-15.048,0-28.639,7.713-36.357,20.63c-2.419,4.051-7.663,5.374-11.716,2.953c-4.051-2.421-5.372-7.665-2.953-11.716
	c10.832-18.13,29.906-28.953,51.025-28.953s40.193,10.824,51.025,28.953c2.421,4.051,1.098,9.296-2.953,11.716
	C205.459,257.329,203.949,257.719,202.458,257.719z"/>
<path d="M396.939,257.719c-2.908,0-5.742-1.485-7.342-4.162c-7.717-12.917-21.309-20.63-36.358-20.63
	c-15.048,0-28.638,7.713-36.356,20.63c-2.418,4.051-7.665,5.374-11.716,2.953c-4.051-2.421-5.372-7.665-2.953-11.716
	c10.832-18.129,29.906-28.953,51.024-28.953c21.119,0,40.193,10.824,51.026,28.953c2.419,4.051,1.098,9.296-2.953,11.716
	C399.941,257.329,398.43,257.719,396.939,257.719z"/>
<path d="M255.999,383.411c-48.337,0-93.781-18.824-127.96-53.004c-3.336-3.336-3.336-8.746,0-12.081
	c3.336-3.336,8.746-3.338,12.081,0c30.952,30.952,72.105,47.998,115.879,47.998s84.927-17.047,115.879-47.998
	c3.339-3.338,8.747-3.336,12.082,0c3.335,3.336,3.336,8.746,0,12.081C349.781,364.588,304.336,383.411,255.999,383.411z"/>
<path style="fill:#E09B2D;" d="M256.001,416.469c-13.776,0-27.553-1.877-40.945-5.632c-4.544-1.274-7.193-5.989-5.92-10.532
	c1.274-4.544,5.989-7.193,10.532-5.92c23.77,6.665,48.895,6.664,72.666,0c4.546-1.27,9.259,1.377,10.532,5.92
	c1.274,4.543-1.377,9.259-5.92,10.532C283.551,414.592,269.776,416.469,256.001,416.469z"/>
<path style="fill:#2197D8;" d="M261.13,108.215c-48.61,0-94.411-4.833-128.963-13.608c-39.142-9.941-58.988-23.567-58.988-40.5
	s19.847-30.559,58.988-40.5C166.72,4.833,212.52,0,261.13,0c48.611,0,94.411,4.833,128.963,13.608
	c39.142,9.941,58.988,23.567,58.988,40.5s-19.847,30.559-58.988,40.5C355.541,103.381,309.74,108.215,261.13,108.215z
	 M261.13,17.087c-47.233,0-91.539,4.646-124.758,13.083c-36.471,9.262-46.107,19.709-46.107,23.938s9.636,14.676,46.107,23.938
	c33.218,8.436,77.525,13.083,124.758,13.083s91.539-4.646,124.758-13.083c36.471-9.262,46.107-19.709,46.107-23.938
	c0-4.229-9.637-14.676-46.107-23.938C352.67,21.733,308.363,17.087,261.13,17.087z"/>
<g>
</g>
<g>
</g>
<g>
</g>
<g>
</g>
<g>
</g>
<g>
</g>
<g>
</g>
<g>
</g>
<g>
</g>
<g>
</g>
<g>
</g>
<g>
</g>
<g>
</g>
<g>
</g>
<g>
</g>
</svg>
