<?xml version="1.0" encoding="iso-8859-1"?>
<!-- Generator: Adobe Illustrator 19.0.0, SVG Export Plug-In . SVG Version: 6.00 Build 0)  -->
<svg version="1.1" id="Capa_1" xmlns="http://www.w3.org/2000/svg" xmlns:xlink="http://www.w3.org/1999/xlink" x="0px" y="0px"
	 viewBox="0 0 512 512" style="enable-background:new 0 0 512 512;" xml:space="preserve">
<g>
	<path style="fill:#ED694A;" d="M11.457,397.348c-9.992,7.611,0.994,20.426,13.828,16.117
		c78.241-26.272,133.017-86.875,133.017-157.464S103.527,124.812,25.285,98.538c-12.834-4.309-23.82,8.505-13.828,16.117
		C113.366,192.289,113.238,319.813,11.457,397.348z"/>
	<path style="fill:#ED694A;" d="M500.548,397.348c9.992,7.611-0.994,20.426-13.828,16.117
		c-78.241-26.272-133.017-86.875-133.017-157.464S408.479,124.812,486.72,98.538c12.834-4.309,23.82,8.505,13.828,16.117
		C398.639,192.289,398.767,319.813,500.548,397.348z"/>
</g>
<g>
	<path style="fill:#D8553A;" d="M504.422,107.426c0.004,0.112,0,0.224,0,0.335C504.422,107.65,504.426,107.538,504.422,107.426z"/>
	<path style="fill:#D8553A;" d="M491.025,413.466c-59.216-26.272-100.672-86.875-100.672-157.464
		c0-70.588,41.456-131.191,100.672-157.464c0.884-0.392,1.755-0.639,2.603-0.764c-2.154-0.251-4.498-0.046-6.908,0.764
		c-78.242,26.272-133.017,86.874-133.017,157.464c0,70.588,54.776,131.191,133.017,157.464c2.409,0.809,4.753,1.014,6.905,0.764
		C492.778,414.104,491.907,413.858,491.025,413.466z"/>
	<path style="fill:#D8553A;" d="M504.422,404.572c0.004-0.105,0-0.212,0-0.318C504.422,404.361,504.424,404.467,504.422,404.572z"/>
	<path style="fill:#D8553A;" d="M7.584,107.426c-0.004,0.112,0,0.224,0,0.335C7.584,107.65,7.579,107.538,7.584,107.426z"/>
	<path style="fill:#D8553A;" d="M20.98,413.466c59.217-26.272,100.672-86.875,100.672-157.464
		c0-70.588-41.456-131.191-100.672-157.464c-0.884-0.392-1.755-0.639-2.603-0.764c2.154-0.251,4.498-0.046,6.908,0.764
		c78.242,26.272,133.017,86.874,133.017,157.464c0,70.588-54.776,131.191-133.017,157.464c-2.409,0.809-4.753,1.014-6.905,0.764
		C19.227,414.104,20.098,413.858,20.98,413.466z"/>
	<path style="fill:#D8553A;" d="M7.584,404.572c-0.004-0.105,0-0.212,0-0.318C7.584,404.361,7.581,404.467,7.584,404.572z"/>
</g>
<g>
	<path style="fill:#ED694A;" d="M397.349,500.548c7.611,9.992,20.426-0.994,16.117-13.828
		c-26.272-78.241-86.875-133.017-157.464-133.017S124.812,408.479,98.539,486.72c-4.309,12.834,8.505,23.82,16.117,13.828
		C192.29,398.638,319.813,398.767,397.349,500.548z"/>
	<path style="fill:#ED694A;" d="M397.349,11.456c7.611-9.992,20.426,0.994,16.117,13.828
		c-26.272,78.241-86.875,133.017-157.464,133.017S124.812,103.525,98.539,25.284c-4.309-12.834,8.505-23.82,16.117-13.828
		C192.29,113.366,319.813,113.238,397.349,11.456z"/>
</g>
<g>
	<path style="fill:#D8553A;" d="M107.427,7.584c0.112-0.004,0.224,0,0.335,0C107.651,7.584,107.539,7.579,107.427,7.584z"/>
	<path style="fill:#D8553A;" d="M413.466,20.98c-26.272,59.216-86.875,100.672-157.464,100.672
		c-70.588,0-131.191-41.456-157.464-100.672c-0.392-0.884-0.639-1.755-0.764-2.603c-0.251,2.154-0.046,4.498,0.764,6.908
		c26.272,78.242,86.874,133.017,157.464,133.017c70.588,0,131.191-54.776,157.464-133.017c0.809-2.409,1.014-4.753,0.764-6.905
		C414.104,19.227,413.858,20.097,413.466,20.98z"/>
	<path style="fill:#D8553A;" d="M404.573,7.584c-0.105-0.004-0.212,0-0.318,0C404.361,7.584,404.467,7.58,404.573,7.584z"/>
	<path style="fill:#D8553A;" d="M107.427,504.42c0.112,0.004,0.224,0,0.335,0C107.651,504.421,107.539,504.425,107.427,504.42z"/>
	<path style="fill:#D8553A;" d="M413.466,491.024c-26.272-59.216-86.875-100.672-157.464-100.672
		c-70.588,0-131.191,41.456-157.464,100.672c-0.392,0.884-0.639,1.755-0.764,2.603c-0.251-2.154-0.046-4.498,0.764-6.908
		c26.272-78.242,86.874-133.017,157.464-133.017c70.588,0,131.191,54.776,157.464,133.017c0.809,2.409,1.014,4.753,0.764,6.905
		C414.104,492.777,413.858,491.907,413.466,491.024z"/>
	<path style="fill:#D8553A;" d="M404.573,504.42c-0.105,0.004-0.212,0-0.318,0C404.361,504.42,404.467,504.424,404.573,504.42z"/>
</g>
<path d="M165.801,256.002c0-71.797-54.218-136.395-138.128-164.57C6.498,84.324-9.8,107.89,6.913,120.621
	c97.989,74.646,97.988,196.117,0,270.763c-16.806,12.801-0.271,36.253,20.759,29.189
	C111.582,392.398,165.801,327.799,165.801,256.002z M22.898,406.358c-4.431,1.486-7.653-0.979-7.83-2.05
	c0.587-1.985,80.272-53.207,80.272-148.319c0-94.54-78.943-145.923-80.267-148.24c0.091-1.007,3.239-3.646,7.825-2.103
	c77.701,26.09,127.906,85.108,127.906,150.354C150.804,321.249,100.598,380.267,22.898,406.358z"/>
<path d="M256.002,346.205c-71.797,0-136.395,54.219-164.57,138.129c-7.11,21.173,16.456,37.477,29.188,20.759
	c36.072-47.351,84.147-73.43,135.37-73.43c51.237,0,99.322,26.077,135.394,73.429h-0.001c12.774,16.762,36.278,0.348,29.19-20.759
	C392.399,400.423,327.8,346.205,256.002,346.205z M404.31,496.938c-2.428-0.719-52.719-80.272-148.32-80.272
	c-94.481,0-146.201,79.102-148.24,80.267c-1-0.09-3.647-3.226-2.103-7.825c26.09-77.701,85.108-127.907,150.354-127.907
	c65.247,0,124.265,50.206,150.355,127.906C407.853,493.562,405.362,496.763,404.31,496.938z"/>
<path d="M363.497,98.602c-2.745,3.1-2.459,7.839,0.641,10.586c3.113,2.757,7.851,2.445,10.586-0.641
	c19.695-22.231,35.55-50.198,45.852-80.877c7.022-20.919-16.355-37.605-29.19-20.759c-49.361,64.798-121.86,89.088-189.205,63.382
	c-3.868-1.477-8.202,0.461-9.68,4.331c-1.478,3.869,0.463,8.203,4.331,9.68c35.556,13.571,73.397,14.649,109.432,3.122
	c63.982-20.47,94.885-70.536,97.99-72.354c1.06,0.095,3.611,3.338,2.104,7.825C396.691,51.686,381.87,77.864,363.497,98.602z"/>
<path d="M107.696,15.066c1.701,0.503,19.786,29.371,56.417,52.714c3.492,2.226,8.128,1.199,10.353-2.294
	c2.225-3.492,1.198-8.127-2.294-10.353c-19.107-12.175-36.451-28.399-51.55-48.22C107.849-9.851,84.346,6.564,91.431,27.671
	c42.874,127.681,164.434,176.179,256.598,105.811c3.291-2.513,3.922-7.218,1.409-10.511c-2.514-3.29-7.218-3.925-10.511-1.409
	c-85.117,64.988-194.243,17.591-233.28-98.666C104.152,18.442,106.645,15.241,107.696,15.066z"/>
<path d="M505.093,391.384c-97.988-74.644-97.99-196.117,0-270.763c16.761-12.767,0.346-36.265-20.759-29.189
	c-127.116,42.683-176.281,163.79-106.086,256.23c2.502,3.296,7.205,3.942,10.507,1.437c3.298-2.504,3.941-7.208,1.437-10.507
	c-64.816-85.355-16.854-194.07,98.918-232.943c4.451-1.502,7.655,0.999,7.83,2.048c-0.591,1.997-80.272,53.174-80.272,148.294
	c-0.003,94.447,79.129,146.274,80.267,148.265c-0.095,1.06-3.339,3.611-7.826,2.104c-28.96-9.726-55.26-24.652-76.055-43.169
	c-3.093-2.752-7.833-2.478-10.587,0.614c-2.753,3.093-2.478,7.832,0.614,10.587c22.294,19.85,50.391,35.82,81.254,46.185
	c9.112,3.056,20.773,0.353,25.742-9.017C513.833,404.471,511.877,396.553,505.093,391.384z"/>
<g>
</g>
<g>
</g>
<g>
</g>
<g>
</g>
<g>
</g>
<g>
</g>
<g>
</g>
<g>
</g>
<g>
</g>
<g>
</g>
<g>
</g>
<g>
</g>
<g>
</g>
<g>
</g>
<g>
</g>
</svg>
