<?xml version="1.0" encoding="iso-8859-1"?>
<!-- Generator: Adobe Illustrator 19.0.0, SVG Export Plug-In . SVG Version: 6.00 Build 0)  -->
<svg version="1.1" id="Capa_1" xmlns="http://www.w3.org/2000/svg" xmlns:xlink="http://www.w3.org/1999/xlink" x="0px" y="0px"
	 viewBox="0 0 512.001 512.001" style="enable-background:new 0 0 512.001 512.001;" xml:space="preserve">
<path style="fill:#F4D44E;" d="M448.969,99.099c-0.008,0.009-0.017,0.016-0.025,0.025c-30.797-37.913-71.293-64.87-115.729-79.323
	c0.014-0.016,0.026-0.033,0.04-0.048C126.408-47.853-62.232,167.358,32.47,363.698C87.08,477.434,217.093,530.176,333.256,492.21
	c-0.014-0.016-0.026-0.033-0.04-0.048c44.436-14.453,84.932-41.41,115.729-79.323c0.008,0.009,0.017,0.016,0.025,0.025
	C523.666,321.096,522.615,189.577,448.969,99.099z"/>
<path style="fill:#E8C842;" d="M80.464,350.283C19.82,239.476,53.1,102.301,153.103,30.288c-6.213,2.798-12.211,5.786-18.015,8.935
	C59.863,82.257,8.438,163.597,7.341,253.086c-0.001,0.109-0.003,0.217-0.004,0.326c-0.01,0.899-0.006,1.8-0.005,2.701
	c0.002,0.972,0.004,1.944,0.018,2.915c0.003,0.222,0.008,0.444,0.011,0.666c0.023,1.384,0.054,2.768,0.1,4.151
	c0.003,0.095,0.007,0.19,0.01,0.285c0.044,1.316,0.101,2.631,0.166,3.945c0.033,0.66,0.07,1.319,0.109,1.98
	c0.034,0.603,0.07,1.207,0.108,1.81c2.021,30.311,9.891,61.301,24.619,91.834c42.5,88.515,130.671,140.078,222.44,140.702
	c50.729-0.054,101.643-15.635,144.91-46.787C283.267,510.108,143.082,465.132,80.464,350.283z"/>
<path style="fill:#EAE9E8;" d="M425.946,401.894c-3.456-16.08-23.548-21.754-34.911-10.018c-2.033,2.099-5.483,1.795-7.16-0.598
	l-60.433-86.211c-1.962-2.799-6.325-0.633-5.281,2.623l28.874,101.787c0.907,2.826-0.968,5.79-3.912,6.159
	c-16.175,2.029-23.75,21.384-13.029,33.857c-6.667,10.439-7.737,24.08-1.514,35.906c11.118,21.129,40.168,25.81,57.231,8.23
	c17.014,7.34,36.496-2.497,40.669-20.569c24.254-2.299,38.888-27.655,29.467-49.6C450.479,410.721,438.653,402.92,425.946,401.894z"
	/>
<path style="fill:#DBDBDB;" d="M363.362,482.33c-8.428-10.725-9.869-24.617-5.101-36.327c-13.064-10.545-9.028-31.375,6.837-36.394
	c2.889-0.914,4.224-4.235,2.793-6.905l-47.758-96.865c-0.325-0.607-0.425-1.208-0.367-1.766c-1.252,0.576-2.137,1.952-1.602,3.617
	l28.874,101.787c0.907,2.826-0.968,5.79-3.912,6.159c-16.175,2.029-23.749,21.384-13.029,33.857
	c-6.667,10.439-7.737,24.08-1.514,35.906c10.748,20.427,38.253,25.477,55.488,9.907C376.192,493.571,368.799,489.25,363.362,482.33z
	"/>
<path style="fill:#EAE9E8;" d="M56.673,423.461c-9.422,21.944,5.212,47.301,29.467,49.6c4.173,18.072,23.655,27.907,40.669,20.569
	c17.063,17.58,46.114,12.9,57.231-8.23c6.223-11.826,5.153-25.467-1.514-35.906c10.721-12.473,3.146-31.83-13.029-33.857
	c-2.945-0.369-4.819-3.333-3.912-6.159L194.46,307.69c1.045-3.255-3.318-5.422-5.281-2.623l-60.433,86.211
	c-1.677,2.393-5.127,2.697-7.16,0.598c-11.363-11.736-31.455-6.062-34.911,10.018C73.97,402.92,62.143,410.721,56.673,423.461z"/>
<path style="fill:#DBDBDB;" d="M79.024,445.027c3.553-13.669,14.265-23.338,26.901-26.322c1.013-16.722,20.373-25.519,33.616-15.445
	c2.369,1.802,5.796,0.966,7.118-1.701l47.623-96.084c0.007-0.015,0.017-0.026,0.024-0.04c-0.921-1.791-3.677-2.439-5.127-0.37
	l-60.433,86.211c-1.677,2.393-5.127,2.697-7.16,0.598c-11.363-11.736-31.455-6.062-34.911,10.018
	c-12.707,1.027-24.533,8.827-30.003,21.567c-9.001,20.965,3.962,45.03,26.288,49.142C78.24,464.64,76.468,454.86,79.024,445.027z"/>
<path d="M311.425,248.077c6.501,9.698,15.841,15.26,25.627,15.26s19.126-5.562,25.627-15.26c2.307-3.439,1.388-8.098-2.054-10.403
	c-3.439-2.307-8.099-1.389-10.403,2.054c-7.66,11.424-18.609,11.529-26.34,0c-2.308-3.441-6.966-4.36-10.403-2.054
	C310.038,239.981,309.119,244.638,311.425,248.077z"/>
<path d="M188.042,239.877c-7.66,11.424-18.609,11.529-26.34,0c-2.308-3.441-6.967-4.36-10.403-2.054
	c-3.44,2.307-4.359,6.964-2.054,10.403c13.586,20.268,37.574,20.408,51.253,0c2.307-3.439,1.388-8.098-2.054-10.403
	C195.004,235.517,190.347,236.435,188.042,239.877z"/>
<path d="M317.649,220.419c2.222,0,4.421-0.982,5.9-2.865c10.225-13.008,25.552-21.351,43.157-23.496
	c4.11-0.501,7.037-4.239,6.537-8.352c-0.501-4.111-4.228-7.03-8.352-6.537c-21.569,2.628-40.439,12.968-53.134,29.116
	C307.857,213.249,311.486,220.419,317.649,220.419z"/>
<path d="M147.033,179.17c-4.125-0.5-7.851,2.426-8.352,6.537c-0.5,4.111,2.427,7.851,6.537,8.352
	c17.605,2.145,32.932,10.488,43.156,23.496c2.559,3.255,7.274,3.82,10.529,1.262c3.256-2.56,3.82-7.273,1.262-10.529
	C187.472,192.138,168.603,181.797,147.033,179.17z"/>
<path d="M110.524,45.432c-3.409,2.351-4.269,7.02-1.918,10.43c2.351,3.408,7.018,4.27,10.43,1.918
	C235.504-22.49,394.439,14.032,464.59,135.538c49.543,85.812,40.768,190.783-17.035,266.565c-4.996-3.5-10.761-5.868-16.279-6.972
	c-7.295-16.975-29.006-22.427-43.448-10.781l-7.837-11.18c-2.378-3.39-7.052-4.212-10.444-1.837
	c-3.392,2.378-4.213,7.054-1.837,10.444l9.677,13.806c4.407,6.289,13.42,6.949,18.687,1.51c7.197-7.432,19.993-3.858,22.191,6.378
	c0.695,3.234,3.429,5.632,6.728,5.898c3.209,0.259,6.342,1.08,9.15,2.319c26.878,11.858,19.716,51.213-8.719,53.908
	c-3.213,0.305-5.872,2.633-6.599,5.778c-3.119,13.508-17.676,20.856-30.392,15.37c-2.859-1.233-6.183-0.572-8.352,1.663
	c-11.889,12.247-31.055,10.751-41.387-0.944c-9.244-11.286-8.682-24.458-2.63-33.932c1.781-2.789,1.523-6.416-0.634-8.924
	c-6.816-7.929-2.006-20.241,8.274-21.529c7.546-0.945,12.396-8.481,10.167-15.741l-21.581-76.08c0.07,0.1,3.362,4.796,3.292,4.696
	l12.027,17.156c2.379,3.392,7.055,4.214,10.444,1.837c3.392-2.378,4.213-7.054,1.837-10.444l-30.659-43.737
	c-5.677-8.091-18.178-4.503-19.024,5.057c-0.095,1.072-0.025,2.2,0.246,3.35c0.177,0.747-0.498-1.721,7.842,27.706
	c-38.492-23.611-86.318-23.39-124.679,0.024c8.388-29.596,7.857-27.513,8.021-28.629c0.652-4.427-1.542-8.813-5.707-10.881
	c-4.677-2.323-10.247-0.905-13.243,3.371l-58.593,83.586c-14.441-11.661-36.147-6.208-43.448,10.781
	c-5.648,1.13-11.37,3.539-16.25,6.952C-11.681,302.085,2.291,162.115,92.507,78.97c3.045-2.807,3.238-7.551,0.432-10.596
	c-2.807-3.045-7.552-3.238-10.596-0.432c-96.119,88.584-111.047,238.3-28.613,344.857c-4.46,6.404-6.92,13.478-7.596,20.604
	c-0.391,4.123,2.636,7.783,6.758,8.174c4.151,0.392,7.783-2.636,8.174-6.758c1.013-10.695,8.141-20.028,18.325-23.788l0,0
	c2.353-0.869,4.98-1.455,7.541-1.662c3.426-0.277,6.077-2.868,6.728-5.898c2.192-10.206,14.975-13.829,22.192-6.376
	c5.31,5.479,14.316,4.726,18.686-1.512l45.093-64.328c-0.029,0.102-21.759,76.63-21.904,77.382
	c-1.325,6.913,3.466,13.561,10.49,14.441c10.287,1.291,15.083,13.609,8.274,21.529c-2.157,2.51-2.415,6.136-0.634,8.924
	c10.936,17.123,0.795,40.137-19.818,43.107c-9.033,1.294-17.857-1.699-24.199-8.231c-2.168-2.235-5.491-2.896-8.352-1.663
	c-12.759,5.503-27.282-1.903-30.392-15.37c-0.727-3.145-3.385-5.474-6.6-5.778c-5.202-0.492-10.118-2.386-14.217-5.474
	c-3.309-2.492-8.009-1.83-10.502,1.477c-2.492,3.308-1.831,8.01,1.477,10.502c4.957,3.734,10.674,6.333,16.755,7.644
	c6.855,17.87,26.244,27.62,44.687,22.447c16.98,13.995,41.042,12.421,56.446-1.499c50.794,15.545,102.325,14.59,149.679,0.041
	c15.547,14.01,39.579,15.32,56.403,1.458c18.429,5.168,37.822-4.562,44.685-22.441c29.519-6.298,44.196-41.186,26.304-66.922
	c61.831-79.727,72.92-192.029,19.363-284.789C403.11-0.943,234.315-39.895,110.524,45.432z M320.919,449.956
	c-5.762,11.969-5.695,26.095,0.203,38.006c-42.7,12.065-87.355,12.047-130.294-0.051c5.764-11.675,6.033-25.79,0.179-37.955
	c9.261-16.064,0.25-36.793-17.774-41.182l13.727-48.391c38.83-34.263,97.889-35.378,138.014,0.024l13.721,48.367
	C320.674,413.163,311.655,433.886,320.919,449.956z"/>
<g>
</g>
<g>
</g>
<g>
</g>
<g>
</g>
<g>
</g>
<g>
</g>
<g>
</g>
<g>
</g>
<g>
</g>
<g>
</g>
<g>
</g>
<g>
</g>
<g>
</g>
<g>
</g>
<g>
</g>
</svg>
