<?xml version="1.0" encoding="iso-8859-1"?>
<!-- Generator: Adobe Illustrator 19.0.0, SVG Export Plug-In . SVG Version: 6.00 Build 0)  -->
<svg version="1.1" id="Layer_1" xmlns="http://www.w3.org/2000/svg" xmlns:xlink="http://www.w3.org/1999/xlink" x="0px" y="0px"
	 viewBox="0 0 512 512" style="enable-background:new 0 0 512 512;" xml:space="preserve">
<path style="fill:#F7B239;" d="M474.851,306.967v0.011c-9.183,39.68-29.229,77.357-60.149,108.278
	c-2.426,2.426-4.886,4.786-7.402,7.079c-88.376,80.807-225.582,78.448-311.109-7.079c-87.964-87.953-87.964-230.557,0-318.511
	c87.953-87.953,230.557-87.953,318.511,0C471.734,153.777,491.78,233.784,474.851,306.967z"/>
<g>
	<path style="fill:#E09B2D;" d="M474.851,306.967v0.011c-9.183,39.68-29.229,77.357-60.149,108.278
		c-2.426,2.426-4.886,4.786-7.402,7.079c-11.72-3.495-21.037-11.331-26.669-21.259c-4.664,0.902-9.606,0.801-14.514-0.479
		c-17.542-4.575-28.06-22.506-23.485-40.048c2.95-11.32,11.453-19.69,21.816-23.007l-29.974-107.955l93.363,73.984
		c7.925-7.057,19.111-10.151,30.153-7.279C464.843,298.084,470.632,301.913,474.851,306.967z"/>
	<path style="fill:#E09B2D;" d="M137.112,374.331c-81.021-81.021-87.406-208.412-19.159-296.744
		c-7.56,5.84-14.834,12.225-21.768,19.159c-87.954,87.954-87.954,230.557,0,318.512s230.557,87.954,318.512,0
		c6.933-6.933,13.318-14.208,19.159-21.768C345.524,461.735,218.133,455.351,137.112,374.331z"/>
	<path style="fill:#E09B2D;" d="M217.683,293.184c-3.649,0-7-2.411-8.034-6.097c-1.244-4.439,1.346-9.047,5.785-10.291
		c26.174-7.338,53.844-7.337,80.016,0c4.439,1.244,7.029,5.852,5.785,10.292c-1.246,4.438-5.855,7.03-10.291,5.785
		c-23.223-6.511-47.775-6.511-71.003,0C219.188,293.082,218.428,293.184,217.683,293.184z"/>
</g>
<g>
	<path style="fill:#E6E6E6;" d="M121.288,326.488l56.244-96.901L68.519,277.627c-5.886-8.829-15.93-14.648-27.337-14.648
		c-18.134,0-32.835,14.701-32.835,32.835c0,10.952,5.367,20.645,13.609,26.611c-6.786,7.978-10.89,18.31-10.89,29.606
		c0,25.257,20.475,45.732,45.732,45.732c12.87,0,24.492-5.325,32.802-13.882c4.287,2.052,9.089,3.203,14.159,3.203
		c18.134,0,32.835-14.701,32.835-32.835C136.596,342.561,130.485,332.307,121.288,326.488z"/>
	<path style="fill:#E6E6E6;" d="M390.712,326.488l-56.244-96.901l109.012,48.039c5.886-8.829,15.93-14.648,27.337-14.648
		c18.134,0,32.835,14.701,32.835,32.835c0,10.952-5.367,20.645-13.609,26.611c6.786,7.978,10.89,18.31,10.89,29.606
		c0,25.257-20.475,45.732-45.732,45.732c-12.87,0-24.492-5.325-32.802-13.882c-4.287,2.052-9.089,3.203-14.159,3.203
		c-18.134,0-32.835-14.701-32.835-32.835C375.404,342.561,381.516,332.307,390.712,326.488z"/>
</g>
<path d="M350.46,187.904c20.635,0,39.273-10.576,49.857-28.29c2.364-3.958,1.073-9.084-2.885-11.448
	c-3.957-2.365-9.084-1.073-11.448,2.885c-7.541,12.622-20.821,20.157-35.524,20.158c-14.705,0-27.985-7.536-35.526-20.158
	c-2.364-3.958-7.49-5.248-11.448-2.885c-3.958,2.365-5.249,7.49-2.885,11.448C311.186,177.327,329.824,187.904,350.46,187.904z"/>
<path d="M160.425,187.904C160.426,187.904,160.424,187.904,160.425,187.904c20.635,0,39.275-10.577,49.859-28.29
	c2.364-3.958,1.073-9.084-2.885-11.448c-3.954-2.364-9.082-1.074-11.448,2.885c-7.541,12.622-20.822,20.158-35.526,20.158
	c-14.703,0-27.983-7.536-35.524-20.158c-2.364-3.958-7.49-5.248-11.448-2.885c-3.958,2.365-5.249,7.49-2.885,11.448
	C121.152,177.326,139.79,187.902,160.425,187.904z"/>
<path d="M512,295.814c0-16.19-9.395-30.224-23.017-36.948c0.012-0.962,0.027-1.929,0.027-2.866
	c0-128.793-104.776-233.574-233.563-233.574C126.654,22.426,21.874,127.207,21.874,256c0,1.143,0.017,2.29,0.032,3.436
	C8.888,266.361,0,280.066,0,295.814c0,10.342,3.937,20.26,10.805,27.786c-5.254,8.497-8.086,18.346-8.086,28.43
	c0,29.82,24.261,54.08,54.081,54.08c6.004,0,11.844-0.979,17.358-2.843c20.78,25.529,47.062,46.703,76.361,61.463
	c32.727,16.485,68.03,24.844,104.928,24.844c36.99,0,72.372-8.398,105.162-24.961c29.322-14.811,55.606-36.044,76.371-61.637
	c5.764,2.058,11.903,3.134,18.221,3.134c29.82,0,54.08-24.26,54.08-54.08c0-10.084-2.832-19.932-8.086-28.43
	C508.063,316.072,512,306.155,512,295.814z M255.447,39.121c119.135,0,216.129,96.571,216.85,215.547
	c-0.492-0.018-0.984-0.038-1.48-0.038c-11.391,0-22.113,4.678-29.82,12.778l-103.163-45.461c-3.306-1.457-7.176-0.621-9.587,2.073
	c-2.41,2.694-2.813,6.632-0.998,9.758l15.77,27.17c-25.981-14.833-55.482-22.891-85.974-23.166
	c-30.959-0.277-61.012,7.477-87.525,22.239l15.232-26.245c1.814-3.125,1.411-7.063-0.998-9.757c-2.41-2.694-6.28-3.527-9.587-2.072
	L71.005,267.407c-7.708-8.101-18.429-12.778-29.821-12.778c-0.873,0-1.737,0.037-2.597,0.09
	C39.278,135.722,136.289,39.121,255.447,39.121z M19.415,352.03c0-6.664,1.791-13.18,5.124-18.872
	c4.225,1.704,10.043,3.297,17.062,3.297c0.898,0,1.819-0.026,2.756-0.081c4.602-0.272,8.113-4.223,7.841-8.825
	c-0.272-4.602-4.197-8.109-8.826-7.841c-9.638,0.57-16.071-3.734-16.525-4.049c-6.357-4.604-10.151-12.021-10.151-19.843
	c0-13.502,10.985-24.487,24.487-24.487c8.207,0,15.83,4.086,20.39,10.929c2.251,3.377,6.603,4.643,10.314,3.01l85.561-37.705
	l-43.379,74.737c-2.252,3.88-1.035,8.847,2.756,11.245c7.154,4.526,11.424,12.267,11.424,20.706
	c0,13.502-10.985,24.487-24.487,24.487c-3.698,0-7.249-0.803-10.554-2.385c-3.233-1.548-7.096-0.858-9.593,1.714
	c-7.109,7.318-16.631,11.35-26.813,11.35C36.186,389.414,19.415,372.643,19.415,352.03z M353.083,449.71
	c-30.435,15.373-63.284,23.167-97.636,23.167c-34.265,0-67.041-7.758-97.416-23.059c-26.221-13.209-49.827-31.965-68.782-54.529
	c0.741-0.559,1.474-1.132,2.189-1.732c3.964,1.246,8.089,1.874,12.324,1.874c22.708,0,41.183-18.474,41.183-41.183
	c0-11.458-4.674-22.145-12.796-29.842l17.321-29.844c29.27-25.891,66.794-40.093,105.962-40.093c0.488,0,0.974,0.002,1.461,0.007
	c39.768,0.358,77.668,15.342,106.867,42.207l16.091,27.723c-8.122,7.696-12.796,18.383-12.796,29.842
	c0,22.708,18.474,41.183,41.183,41.183c4.235,0,8.361-0.629,12.324-1.874c0.499,0.417,1.006,0.819,1.517,1.217
	C403.104,417.508,379.421,436.407,353.083,449.71z M455.201,389.414c-10.182,0-19.705-4.03-26.812-11.35
	c-1.609-1.656-3.783-2.532-5.992-2.532c-1.221,0-2.451,0.267-3.602,0.818c-3.307,1.583-6.858,2.385-10.555,2.385
	c-13.502,0-24.487-10.985-24.487-24.487c0-8.44,4.271-16.18,11.423-20.706c3.791-2.399,5.009-7.365,2.757-11.245l-43.38-74.737
	l85.561,37.705c3.71,1.634,8.063,0.367,10.312-3.009c4.564-6.844,12.186-10.93,20.391-10.93c13.502,0,24.487,10.985,24.487,24.487
	c0,7.826-3.797,15.245-10.155,19.848c-0.008,0.006-0.013,0.011-0.021,0.017c-0.007,0.004-0.014,0.009-0.022,0.014
	c-0.065,0.046-6.75,4.587-16.478,4.014c-4.654-0.288-8.555,3.24-8.827,7.841c-0.272,4.602,3.239,8.554,7.841,8.825
	c0.938,0.056,1.857,0.081,2.756,0.081c7.018,0,12.836-1.592,17.062-3.297c3.332,5.693,5.123,12.208,5.123,18.873
	C492.585,372.643,475.814,389.414,455.201,389.414z"/>
<g>
</g>
<g>
</g>
<g>
</g>
<g>
</g>
<g>
</g>
<g>
</g>
<g>
</g>
<g>
</g>
<g>
</g>
<g>
</g>
<g>
</g>
<g>
</g>
<g>
</g>
<g>
</g>
<g>
</g>
</svg>
