<?xml version="1.0" encoding="iso-8859-1"?>
<!-- Generator: Adobe Illustrator 19.0.0, SVG Export Plug-In . SVG Version: 6.00 Build 0)  -->
<svg version="1.1" id="Capa_1" xmlns="http://www.w3.org/2000/svg" xmlns:xlink="http://www.w3.org/1999/xlink" x="0px" y="0px"
	 viewBox="0 0 512 512" style="enable-background:new 0 0 512 512;" xml:space="preserve">
<g>
	<rect x="112.528" y="472.693" style="fill:#21262C;" width="71.477" height="31.703"/>
	<rect x="327.994" y="472.693" style="fill:#21262C;" width="71.477" height="31.703"/>
</g>
<path style="fill:#747F85;" d="M404.549,7.604H107.451c-17.063,0-30.895,13.832-30.895,30.895v403.296
	c0,17.063,13.832,30.895,30.895,30.895h297.098c17.063,0,30.895-13.832,30.895-30.895V38.499
	C435.444,21.436,421.612,7.604,404.549,7.604z"/>
<g>
	<path style="fill:#99A7B1;" d="M393.876,216.857V51.476c0-1.27-1.033-2.303-2.303-2.303H120.427c-1.27,0-2.303,1.034-2.303,2.303
		v165.381H393.876z"/>
	<path style="fill:#99A7B1;" d="M118.124,263.438v165.381c0,1.27,1.033,2.303,2.303,2.303h271.145c1.27,0,2.303-1.034,2.303-2.303
		V263.438H118.124z"/>
</g>
<g>
	<rect x="207.335" y="79.588" style="fill:#FAC900;" width="97.331" height="45.622"/>
	<rect x="207.335" y="293.858" style="fill:#FAC900;" width="97.331" height="45.622"/>
</g>
<path d="M404.549,0H107.451C86.188,0,68.952,17.237,68.952,38.499v58.763c0,4.199,3.405,7.604,7.604,7.604l0,0
	c4.199,0,7.604-3.405,7.604-7.604V38.499c0-12.864,10.428-23.291,23.291-23.291h297.098c12.863,0,23.291,10.428,23.291,23.291
	v403.296c0,12.864-10.428,23.291-23.291,23.291H107.451c-12.864,0-23.291-10.428-23.291-23.291V132.75
	c0-4.199-3.405-7.604-7.604-7.604l0,0c-4.199,0-7.604,3.405-7.604,7.604v309.045c0,20.381,15.921,37.103,35.977,38.408v24.193
	c0,4.199,3.405,7.604,7.604,7.604h71.474c4.199,0,7.604-3.405,7.604-7.604v-24.102h128.779v24.102c0,4.199,3.405,7.604,7.604,7.604
	h71.474c4.199,0,7.604-3.405,7.604-7.604v-24.193c20.056-1.305,35.977-18.027,35.977-38.408V38.499
	C443.048,17.237,425.812,0,404.549,0z M176.403,496.792h-56.266v-16.498h56.266V496.792z M391.864,496.792h-56.266v-16.498h56.266
	V496.792z"/>
<path d="M118.124,224.461h275.752c4.199,0,7.604-3.405,7.604-7.604V51.476c0-5.464-4.445-9.907-9.907-9.907H120.427
	c-5.463,0-9.907,4.445-9.907,9.907v165.381C110.52,221.056,113.925,224.461,118.124,224.461z M125.728,56.776h260.544v152.477
	H125.728V56.776z"/>
<path d="M110.52,428.819c0,5.472,4.436,9.907,9.907,9.907h187.275c4.199,0,7.604-3.405,7.604-7.604l0,0
	c0-4.199-3.405-7.604-7.604-7.604H125.728V271.042h260.544v152.477H343.19c-4.199,0-7.604,3.405-7.604,7.604l0,0
	c0,4.199,3.405,7.604,7.604,7.604h48.382c5.472,0,9.907-4.436,9.907-9.907V263.438c0-4.199-3.405-7.604-7.604-7.604H118.124
	c-4.199,0-7.604,3.405-7.604,7.604V428.819z"/>
<path d="M304.663,71.986h-97.327c-4.199,0-7.604,3.405-7.604,7.604v45.622c0,4.199,3.405,7.604,7.604,7.604h97.327
	c4.199,0,7.604-3.405,7.604-7.604V79.59C312.267,75.391,308.863,71.986,304.663,71.986z M297.059,117.608h-82.119V87.194h82.119
	V117.608z"/>
<path d="M312.267,293.856c0-4.199-3.405-7.604-7.604-7.604h-97.327c-4.199,0-7.604,3.405-7.604,7.604v45.622
	c0,4.199,3.405,7.604,7.604,7.604h97.327c4.199,0,7.604-3.405,7.604-7.604V293.856z M297.059,331.872h-82.119v-30.414h82.119
	V331.872z"/>
<path d="M304.663,150.492h-97.327c-4.199,0-7.604,3.405-7.604,7.604s3.405,7.604,7.604,7.604h97.327
	c4.199,0,7.604-3.405,7.604-7.604S308.863,150.492,304.663,150.492z"/>
<path d="M304.663,364.912h-97.327c-4.199,0-7.604,3.405-7.604,7.604c0,4.199,3.405,7.604,7.604,7.604h97.327
	c4.199,0,7.604-3.405,7.604-7.604C312.267,368.317,308.863,364.912,304.663,364.912z"/>
<g>
</g>
<g>
</g>
<g>
</g>
<g>
</g>
<g>
</g>
<g>
</g>
<g>
</g>
<g>
</g>
<g>
</g>
<g>
</g>
<g>
</g>
<g>
</g>
<g>
</g>
<g>
</g>
<g>
</g>
</svg>
