<?xml version="1.0" encoding="iso-8859-1"?>
<!-- Generator: Adobe Illustrator 19.0.0, SVG Export Plug-In . SVG Version: 6.00 Build 0)  -->
<svg version="1.1" id="Capa_1" xmlns="http://www.w3.org/2000/svg" xmlns:xlink="http://www.w3.org/1999/xlink" x="0px" y="0px"
	 viewBox="0 0 511.998 511.998" style="enable-background:new 0 0 511.998 511.998;" xml:space="preserve">
<path style="fill:#CC9D72;" d="M246.452,420.893c0.663,11.2-1.986,18.544,3.904,26.718c5.556,7.711,16.898,21.727,33.088,33.291
	c6.924,4.946,16.283,4.946,23.206,0c16.192-11.566,27.534-25.583,33.09-33.295c5.884-8.167,3.234-15.433,3.901-26.714
	c0,0,37.214,7.14,75.215,23.139c26.78-58.94,43.091-129.781,43.091-180.986c0-109.602-74.724-189.266-166.9-189.266
	s-166.9,79.664-166.9,189.266c0,51.205,16.312,122.047,43.091,180.986C209.237,428.034,246.448,420.894,246.452,420.893z"/>
<g>
	<path style="fill:#C19067;" d="M429.809,417.638c-0.003,0.046-0.003,0.09-0.006,0.136c0.016-0.043,0.033-0.085,0.049-0.128
		C429.84,417.644,429.809,417.638,429.809,417.638z"/>
	<path style="fill:#C19067;" d="M229.014,424.912l0.206-0.051c1.869-0.475,3.623-0.909,5.232-1.297l24.02-5.926
		c-21.485-56.967-44.158-118.3-44.158-165.912c0-80.584,36.569-145.762,90.093-177.663c-3.099-0.183-6.219-0.284-9.36-0.284
		c-92.177,0-166.9,79.664-166.9,189.266c0,51.205,16.312,122.047,43.091,180.986c21.823-9.187,43.371-15.448,57.777-19.119
		L229.014,424.912z"/>
</g>
<path style="fill:#E8C842;" d="M170.237,59.967c-0.005-0.001-0.01-0.002-0.014-0.003c-0.739-0.18-1.157-0.96-0.956-1.694
	c6.898-25.198-1.256-44.099-27.256-49.942c-20.495-4.606-41.304,11.428-48.652,48.56l0,0l-4.218,24.059
	c-1.651,9.417,0.612,18.611,5.608,25.928l56.881,10.525c0.057-0.105,3.568-12.567,16.111-22.802
	c4.816-4.272,6.844-17.061,8.022-23.39C176.601,66.699,174.78,60.614,170.237,59.967z"/>
<path style="fill:#DBBC3B;" d="M116.671,62.312c5.564-28.113,18.08-45.32,32.694-51.804c-2.273-0.854-4.718-1.588-7.355-2.181
	c-20.495-4.606-41.304,11.428-48.652,48.56l-4.218,24.059c-1.651,9.417,0.612,18.611,5.608,25.928l19.548,3.617
	C107.786,94.555,114.103,83.421,116.671,62.312z"/>
<path style="fill:#E8C842;" d="M247.836,396.299v36.944c0,4.301,1.364,8.482,3.878,11.972c5.521,7.662,16.789,21.588,32.875,33.079
	c6.88,4.914,16.178,4.914,23.057,0c16.089-11.492,27.358-25.421,32.878-33.082c2.513-3.488,3.876-7.667,3.876-11.965v-36.947
	C313.866,409.063,278.522,409.126,247.836,396.299z"/>
<path style="fill:#DBBC3B;" d="M276.713,445.214c-2.514-3.49-3.878-7.671-3.878-11.972v-29.505
	c-8.539-1.594-16.931-4.067-24.999-7.439v36.944c0,4.301,1.364,8.482,3.878,11.972c5.521,7.662,16.789,21.588,32.875,33.078
	c6.879,4.914,16.178,4.914,23.057,0c0.33-0.236,0.645-0.478,0.971-0.716C293.055,466.227,282.12,452.718,276.713,445.214z"/>
<path style="fill:#F96989;" d="M466.031,483.842c-0.308-0.609-3.895-20.684-24.727-31.73c-43.89-23.278-96.905-33.445-96.905-33.445
	c-0.658,11.127,1.974,18.423-3.876,26.543c-5.519,7.661-16.786,21.585-32.87,33.075c-6.945,4.962-16.303,4.854-23.24-0.12
	c-16.089-11.535-27.335-25.486-32.799-33.09c-5.698-7.929-3.139-15.158-3.78-26.409c-0.002,0.001-13.35,2.904-30.342,7.498
	c-18.588,5.026-38.123-3.914-46.494-21.254l-35.352-84.429c-4.201-10.033-5.733-20.984-4.445-31.785L151.68,116.97l-56.889-10.09
	c-3.226-0.572-6.324,1.519-6.999,4.726L47.052,305.133c-3.173,15.07-1.831,30.74,3.857,45.051
	c49.895,125.509,46.649,117.44,47.346,119.043c4.113,9.451,11.111,17.144,19.739,22.321l-0.001,0.001
	c27.589,15.567,42.315,12.949,88.234,12.949h244.079C461.085,504.497,468.9,494.232,466.031,483.842z"/>
<path style="fill:#ED5A81;" d="M143.14,501.868c-9.734-9.276-9.863-9.687-66.314-151.685c-5.688-14.311-7.03-29.981-3.857-45.051
	c43.475-206.217,40.608-193.589,41.175-194.818l-19.352-3.433c-3.226-0.572-6.324,1.52-6.999,4.726L47.052,305.133
	c-3.173,15.07-1.831,30.741,3.857,45.051c49.895,125.509,46.649,117.44,47.346,119.043c4.113,9.451,11.111,17.144,19.739,22.321
	l-0.001,0.001C127.272,496.783,135.097,499.955,143.14,501.868z"/>
<path style="fill:#F4D44E;" d="M417.062,242.087c-0.001-7.262-5.007-13.564-12.074-15.23
	c-57.207-13.483-100.796-27.798-140.589-71.359l-0.039-0.042c-0.947-1.021-2.612-0.831-3.295,0.383
	c-6.102,10.852-32.925,53.226-83.664,61.201c-2.601,1.126-2.219,3.592-2.219,6.407c-0.004,18.216-0.011,70.46-0.011,70.561
	c0,62.856,52.817,115.784,120.949,115.885c67.769-0.101,120.949-52.59,120.949-116.017
	C417.068,291.694,417.065,263.971,417.062,242.087z"/>
<path style="fill:#E8C842;" d="M224.073,294.008c0-0.074,0.004-58.707,0.008-96.633c-12.392,9.039-27.892,16.713-46.68,19.666
	c-2.601,1.126-2.219,3.592-2.219,6.407c-0.004,18.216-0.011,70.46-0.011,70.561c0,62.856,52.817,115.784,120.949,115.886
	c8.397-0.013,16.571-0.832,24.448-2.375C264.658,396.573,224.073,349.105,224.073,294.008z"/>
<circle style="fill:#656566;" cx="239.615" cy="280.81" r="15.545"/>
<path style="fill:#545456;" d="M239.613,280.811c-2.875-4.98-2.669-10.883,0.007-15.533c-2.645-0.004-5.325,0.653-7.78,2.071
	c-7.436,4.293-9.982,13.8-5.69,21.236c4.293,7.436,13.8,9.982,21.236,5.69c2.455-1.418,4.364-3.41,5.683-5.702
	C247.704,288.564,242.489,285.791,239.613,280.811z"/>
<circle style="fill:#656566;" cx="352.628" cy="280.81" r="15.545"/>
<path style="fill:#545456;" d="M352.632,265.278c-11.853-0.017-19.489,12.882-13.47,23.307c4.293,7.436,13.8,9.982,21.236,5.69
	c2.455-1.418,4.364-3.41,5.683-5.702C354.123,288.554,346.657,275.661,352.632,265.278z"/>
<path style="fill:#E8C842;" d="M281.918,299.228v1.97c0,7.645,5.875,14.222,13.51,14.581c8.152,0.384,14.882-6.113,14.882-14.18
	v-2.565c0-3.073-2.491-5.564-5.564-5.564h-17.071C284.496,293.471,281.918,296.048,281.918,299.228z"/>
<path style="fill:#DBBC3B;" d="M296.114,301.198v-1.969c0-3.181,2.578-5.759,5.759-5.759h-14.196c-3.18,0-5.759,2.578-5.759,5.759
	v1.969c0,7.645,5.875,14.222,13.51,14.581c2.862,0.135,5.54-0.593,7.822-1.924C298.956,311.303,296.114,306.511,296.114,301.198z"/>
<path style="fill:#656566;" d="M268.061,348.848c11.609,22.341,43.324,22.925,55.913,1.502c1.48-2.519-0.328-5.693-3.249-5.693
	H270.61C268.458,344.657,267.069,346.938,268.061,348.848z"/>
<path style="fill:#545456;" d="M291.475,348.848c-0.992-1.91,0.397-4.192,2.549-4.192h-23.415c-2.152,0-3.541,2.282-2.548,4.192
	c8.053,15.498,25.777,20.516,40.086,14.99C301.34,361.216,295.308,356.226,291.475,348.848z"/>
<path d="M296.118,323.295c11.963,0,21.696-9.732,21.696-21.696v-8.129c0-4.143-3.357-7.5-7.5-7.5s-7.5,3.357-7.5,7.5v8.129
	c0,3.693-3.004,6.697-6.697,6.697c-3.693,0-6.697-3.004-6.697-6.697v-8.129c0-4.143-3.357-7.5-7.5-7.5s-7.5,3.357-7.5,7.5v8.129
	C274.423,313.562,284.155,323.295,296.118,323.295z"/>
<path d="M352.625,257.764c-12.708,0-23.048,10.339-23.048,23.048c0,12.708,10.339,23.048,23.048,23.048s23.048-10.339,23.048-23.048
	C375.673,268.103,365.333,257.764,352.625,257.764z M352.625,288.86c-4.438,0-8.049-3.61-8.049-8.049
	c0-4.439,3.61-8.049,8.049-8.049s8.049,3.61,8.049,8.049C360.674,285.25,357.064,288.86,352.625,288.86z"/>
<path d="M239.613,257.764c-12.709,0-23.049,10.339-23.049,23.048c0,12.708,10.339,23.048,23.049,23.048
	c12.708,0,23.048-10.339,23.048-23.048C262.66,268.103,252.321,257.764,239.613,257.764z M239.613,288.86
	c-4.438,0-8.05-3.61-8.05-8.049c0-4.439,3.611-8.049,8.05-8.049s8.049,3.61,8.049,8.049
	C247.661,285.25,244.051,288.86,239.613,288.86z"/>
<path d="M381.195,244.421c-16.499-13.808-40.603-13.841-57.142,0c-3.177,2.659-3.597,7.389-0.938,10.564
	c2.661,3.177,7.391,3.597,10.564,0.938c10.956-9.171,26.946-9.159,37.889,0c1.404,1.175,3.111,1.748,4.81,1.748
	C383.387,257.673,386.527,248.884,381.195,244.421z"/>
<path d="M258.558,255.925c1.404,1.175,3.111,1.748,4.81,1.748c7.009,0,10.148-8.788,4.817-13.251
	c-7.993-6.689-18.14-10.373-28.57-10.373s-20.578,3.685-28.57,10.373c-3.177,2.659-3.597,7.389-0.938,10.564
	c2.66,3.177,7.391,3.597,10.564,0.938C231.625,246.753,247.615,246.765,258.558,255.925z"/>
<path d="M320.725,337.158H270.61c-7.786,0-12.786,8.252-9.203,15.149l0.001,0.001c14.056,27.053,53.241,28.721,69.033,1.842
	C334.845,346.65,329.439,337.158,320.725,337.158z M279.918,352.157h33.048C303.499,360.826,289.116,360.504,279.918,352.157z"/>
<path d="M369.354,496.998H165.086c-15.484,0-26.887-3.669-40.225-10.255c-9.505-4.724-16.496-12.301-20.363-22.034l-46.62-117.295
	c-5.16-12.98-6.366-27.066-3.488-40.737l21.069-100.078c0.854-4.053-1.74-8.03-5.794-8.883c-4.046-0.855-8.031,1.74-8.883,5.794
	L39.713,303.587c-3.488,16.565-2.026,33.637,4.227,49.367c30.843,77.582,46.779,117.749,47.439,119.265
	c5.118,11.76,14.285,21.711,26.688,27.895c14.398,7.773,30.652,11.881,47.017,11.881h204.268c4.143,0,7.5-3.357,7.5-7.5
	S373.496,496.998,369.354,496.998z"/>
<path d="M472.824,480.265c-4.098-14.837-14.305-27.512-28.005-34.777c-5.178-2.746-10.464-5.308-15.768-7.698
	c25.004-57.467,40.396-123.497,40.396-174.079c0-51.093-16.29-98.86-45.869-134.504c-2.645-3.187-7.372-3.626-10.561-0.981
	c-3.188,2.646-3.627,7.374-0.981,10.561c27.35,32.956,42.413,77.321,42.413,124.925c0,48.699-14.937,112.532-39.206,168.241
	c-26.871-10.66-52.088-16.87-63.342-19.37v-7.349c42.368-19.662,72.669-61.517,72.669-111.226l-0.007-55.145
	c6.767,1.273,7.469,1.376,8.306,1.376c3.589,0,6.762-2.585,7.385-6.242c0.695-4.083-2.051-7.957-6.135-8.651
	c-5.079-0.864-8.01-1.384-15.421-3.038c-60.03-13.416-107.138-26.304-148.758-71.864c-0.029-0.032-0.057-0.063-0.079-0.086
	c-2.071-2.234-5.12-3.353-8.134-2.995c-3.019,0.357-5.709,2.153-7.197,4.802c-6.536,11.621-31.495,50.113-78.292,57.469
	c-0.626,0.099-1.236,0.275-1.816,0.527c-4.074,1.764-6.724,5.798-6.724,10.24c-0.028,3.851-0.002-3.861-0.026,73.608
	c0,49.666,30.289,91.558,72.666,111.225v7.45c-5.565,1.298-14.518,3.464-24.8,6.243c-15.032,4.062-30.853-3.127-37.701-17.104
	l-35.271-84.233c-3.694-8.822-5.048-18.505-3.914-28.001l11.803-98.986c0.074-0.161,0.161-0.312,0.224-0.48
	c40.379-107.793,158.96-136.894,237.471-74.737c3.248,2.571,7.966,2.024,10.534-1.225c2.571-3.247,2.023-7.965-1.225-10.534
	c-74.24-58.778-184.942-44.648-241.799,43.311l3.347-28.062c0.268-0.479,3.557-10.371,13.474-18.462
	c6.94-5.67,8.964-19.429,10.653-27.827c1.123-6.031-0.635-13.226-5.467-17.208c5.829-28.409-6.508-48.184-34.014-54.364
	c-30.54-6.864-51.789,22.168-57.682,54.579c-2.172,18.474-8.633,30.579-1.707,47.521c-5.22,5.085-2.885,6.367-16.232,65.955
	c-0.854,4.053,1.74,8.031,5.794,8.883c4.041,0.858,8.031-1.739,8.883-5.794l12.137-57.651l48.549,8.61l-19.639,164.69
	c-1.439,12.062,0.28,24.363,4.973,35.57c37.012,88.382,35.343,84.431,35.517,84.793c9.937,20.582,33.16,31.191,55.205,25.232
	c8.195-2.216,15.517-4.03,20.886-5.312c0,0.186,0,5.488,0,5.173c0,9.741,4.146,17.605,20.471,34.35
	c6.203,6.369,12.711,11.969,19.424,16.78c9.503,6.787,22.271,6.786,31.774-0.001c17.085-12.203,29.014-27.041,34.603-34.8
	c6.898-9.575,4.956-18.527,5.291-21.607c16.735,3.924,54.035,13.854,85.892,30.75c10.071,5.341,17.57,14.642,20.574,25.518
	c0.063,0.704,2.209,4.991-1.046,9.267c-1.682,2.209-4.238,3.476-7.014,3.476h-45.955c-4.143,0-7.5,3.357-7.5,7.5s3.357,7.5,7.5,7.5
	h45.955c7.499,0,14.404-3.422,18.947-9.389C477.445,491.85,472.858,480.831,472.824,480.265z M99.384,100.08
	c-2.922-5.448-3.936-11.677-2.855-17.838c2.623-9.567,3.73-48.907,25.603-63.149c5.718-3.723,11.854-4.883,18.235-3.448
	c19.774,4.443,27.086,16.843,22.355,37.899c-0.629,2.799-1.995,5.847,0.227,9.616c1.151,1.955,3.039,3.404,5.213,4.015
	c0.689,1.849,0.014,3.399-0.039,4.12c-1.844,10.101-3.622,16.03-5.286,17.628c-6.527,5.365-11.873,12.09-15.637,19.639
	C129.644,105.448,109.451,101.866,99.384,100.08z M336.9,418.667c-0.52,12.166,1.447,16.736-2.463,22.16
	c-9.208,12.785-21.308,24.554-31.301,31.461c-4.076,2.815-9.701,3.15-14.811-0.557c-11.596-8.4-22.366-19.572-30.543-30.926
	c-3.082-4.301-2.447-5.68-2.447-29.714c26.055,8.357,55.193,8.457,81.565,0L336.9,418.667L336.9,418.667z M321.335,399.706
	c-72.013,15.61-138.666-37.314-138.666-105.698l0.012-70.283c44.212-8.63,70.359-41.213,81.127-57.933
	c41.652,42.632,86.857,56.31,145.753,69.825l0.008,58.391C409.569,345.175,371.958,388.669,321.335,399.706z"/>
<g>
</g>
<g>
</g>
<g>
</g>
<g>
</g>
<g>
</g>
<g>
</g>
<g>
</g>
<g>
</g>
<g>
</g>
<g>
</g>
<g>
</g>
<g>
</g>
<g>
</g>
<g>
</g>
<g>
</g>
</svg>
