<?xml version="1.0" encoding="iso-8859-1"?>
<!-- Generator: Adobe Illustrator 19.0.0, SVG Export Plug-In . SVG Version: 6.00 Build 0)  -->
<svg version="1.1" id="Capa_1" xmlns="http://www.w3.org/2000/svg" xmlns:xlink="http://www.w3.org/1999/xlink" x="0px" y="0px"
	 viewBox="0 0 511.999 511.999" style="enable-background:new 0 0 511.999 511.999;" xml:space="preserve">
<path style="fill:#CC9D72;" d="M204.163,377.679c0.706,11.772-2.1,19.359,4.13,27.892c5.879,8.049,17.88,22.682,35.012,34.754
	c7.326,5.163,17.229,5.163,24.555,0c17.133-12.074,29.136-26.708,35.014-34.758c6.226-8.525,3.422-16.117,4.128-27.889
	c0,0,39.378,7.453,79.587,24.155c28.337-61.529,45.597-135.483,45.597-188.938c0-119.356-79.068-197.581-176.603-197.581
	S78.979,98.477,78.979,212.894c0,53.455,17.26,127.408,45.597,188.938C164.783,385.133,204.159,377.68,204.163,377.679z"/>
<path style="fill:#C19067;" d="M216.334,373.397c-22.049-59.055-35.113-124.618-35.113-173.784
	c0-82.328,33.619-149.341,87.747-183.769c-4.419-0.349-8.882-0.529-13.385-0.529c-97.535,0-176.603,78.225-176.603,197.581
	c0,53.455,17.26,127.409,45.597,188.937c31.684-13.16,62.845-20.577,74.638-23.131L216.334,373.397z"/>
<path style="fill:#E8C842;" d="M127.545,94.54l14.859-32.671c1.334-3.563,6.853-9.549,10.296-11.169l34.802-16.361
	c6.708-3.154,9.936-10.876,7.468-17.865l0,0c-2.367-6.705-9.549-10.404-16.383-8.438l-45.178,12.999
	c-6.149,1.77-11.695,5.188-16.038,9.886C88.686,61.932,82.974,67.476,79.522,77.96C129.663,95.224,126.59,94.061,127.545,94.54z"/>
<path style="fill:#DBBC3B;" d="M130.226,38.728c4.343-4.698,9.889-8.116,16.038-9.886l45.178-12.999
	c1.021-0.294,2.049-0.446,3.068-0.496c-2.738-5.983-9.483-9.164-15.923-7.311l-45.178,12.999c-6.149,1.77-11.695,5.188-16.038,9.886
	C88.686,61.932,82.974,67.476,79.522,77.96c5.067,1.745,9.581,3.298,13.62,4.687C96.742,73.521,103.545,67.571,130.226,38.728z"/>
<path style="fill:#E8C842;" d="M384.455,94.54l-14.859-32.671c-1.334-3.563-6.853-9.549-10.296-11.169l-34.802-16.361
	c-6.708-3.154-9.936-10.876-7.468-17.865l0,0c2.367-6.705,9.549-10.404,16.383-8.438l45.178,12.999
	c6.149,1.77,11.695,5.188,16.038,9.886c28.686,31.012,34.396,36.557,37.848,47.039C382.336,95.224,385.41,94.061,384.455,94.54z"/>
<path style="fill:#DBBC3B;" d="M390.346,55.369c-1.334-3.563-6.854-9.549-10.297-11.168l-45.802-21.362
	c-5.743-2.701-8.923-8.751-8.173-14.822c-4.078,1.146-7.538,4.188-9.045,8.456l0,0c-2.467,6.989,0.76,14.711,7.468,17.865
	L359.298,50.7c3.443,1.619,8.962,7.606,10.297,11.168l14.859,32.671c0.728-0.365-0.877,0.221,20.473-7.108L390.346,55.369z"/>
<path style="fill:#F96989;" d="M502.828,262.122L443.139,80.35c-0.668-3.172-3.732-5.241-6.924-4.675
	c-53.465,18.68-51.52,17.006-53.727,19.308c-1.73,1.805-2.435,4.408-1.763,6.892l38.849,143.987
	c1.274,10.686-0.24,21.52-4.397,31.446c-5.06,8.729-44.046,75.98-48.921,84.391c-7.514,12.664-20.988,23.078-35.287,19.3
	c-22.526-5.792-23.798-5.828-26.786-6.553h-96.368c-28.341,6.88-26.799,6.556-26.823,6.562
	c-15.034,3.742-27.301-6.752-35.535-19.801l-48.635-83.898c-4.156-9.926-5.671-20.76-4.397-31.446
	c40.562-150.381,38.889-144.017,39-144.677c0.387-2.3-0.368-4.589-1.914-6.203c-2.292-2.391-1.26-0.977-53.727-19.308
	c-3.191-0.565-6.256,1.503-6.924,4.675L9.171,262.122c-3.139,14.909-1.811,30.414,3.816,44.572
	c0.07,0.115,94.117,155.564,94.181,155.67l11.345,34.136c2.304,6.932,8.264,7.887,10.599,7.99c12.12,0,245.24,0,240.224,0
	c2.433,0,7.816,0,10.249,0c1.318-0.12,10.777,1.412,13.902-7.99l11.345-34.136c0.064-0.106,94.111-155.555,94.181-155.67
	C504.639,292.536,505.966,277.031,502.828,262.122z"/>
<path style="fill:#ED5A81;" d="M143.514,496.498l-11.345-34.136c-0.064-0.106-94.111-155.555-94.181-155.67
	c-5.627-14.158-6.955-29.663-3.816-44.572L93.39,81.783c-5.076-1.747-10.902-3.765-17.606-6.107
	c-3.191-0.565-6.256,1.503-6.924,4.675L9.171,262.122c-3.139,14.909-1.811,30.414,3.816,44.572
	c0.07,0.115,94.117,155.564,94.181,155.67l11.345,34.136c2.304,6.932,8.264,7.887,10.599,7.99c2.163,0,11.369,0,25.001,0
	C151.777,504.386,145.817,503.431,143.514,496.498z"/>
<path style="fill:#E8C842;" d="M207.815,351.273v37.593c0,4.255,1.35,8.392,3.837,11.844c5.461,7.58,16.61,21.358,32.525,32.726
	c6.806,4.861,16.005,4.861,22.811,0c15.917-11.37,27.067-25.15,32.528-32.73c2.486-3.45,3.835-7.584,3.835-11.837v-37.596
	C273.84,363.61,238.89,364.263,207.815,351.273z"/>
<path style="fill:#DBBC3B;" d="M236.802,400.711c-2.487-3.452-3.837-7.589-3.837-11.844v-30.15
	c-8.538-1.565-16.978-4.028-25.15-7.444v37.593c0,4.255,1.35,8.392,3.837,11.844c5.461,7.58,16.61,21.358,32.525,32.726
	c6.806,4.861,16.006,4.861,22.812,0c0.397-0.284,0.778-0.575,1.169-0.862C252.872,421.379,242.127,408.102,236.802,400.711z"/>
<path style="fill:#F4D44E;" d="M375.238,209.97c-0.001-7.346-4.978-13.721-12.077-15.61
	c-90.534-24.089-139.332-80.585-138.998-80.318c-0.937-1.01-2.584-0.822-3.259,0.379c-6.037,10.736-32.575,52.659-82.773,60.549
	c-2.581,1.118-2.195,3.612-2.196,6.268c0,0.061-0.011,65.748-0.011,69.879c0,63.638,54.32,115.464,120.972,114.648
	c64.677-0.566,118.35-51.001,118.35-114.778C375.244,248.867,375.241,228.979,375.238,209.97z"/>
<path style="fill:#E8C842;" d="M184.307,251.116c0-2.852,0.005-60.28,0.009-95.605c-12.26,8.943-27.596,16.536-46.185,19.458
	c-2.581,1.118-2.195,3.612-2.196,6.268c0,0.061-0.011,65.748-0.011,69.879c0,72.134,69.045,127.01,143.809,112.326
	C225.289,352.743,184.307,306.39,184.307,251.116z"/>
<circle style="fill:#656566;" cx="311.487" cy="238.055" r="15.38"/>
<path style="fill:#545456;" d="M311.488,238.059c-2.845-4.927-2.64-10.767,0.007-15.368c-2.616-0.004-5.268,0.646-7.697,2.048
	c-7.356,4.247-9.876,13.653-5.629,21.009c4.247,7.356,13.653,9.876,21.009,5.629c2.429-1.402,4.318-3.373,5.622-5.641
	C319.493,245.729,314.333,242.987,311.488,238.059z"/>
<circle style="fill:#656566;" cx="199.684" cy="238.055" r="15.38"/>
<path style="fill:#545456;" d="M199.68,238.059c-2.845-4.927-2.64-10.767,0.007-15.368c-2.616-0.004-5.268,0.646-7.697,2.048
	c-7.356,4.247-9.876,13.653-5.629,21.009c4.247,7.356,13.653,9.876,21.01,5.629c2.429-1.402,4.317-3.373,5.622-5.641
	C207.684,245.729,202.524,242.987,199.68,238.059z"/>
<path style="fill:#E8C842;" d="M241.954,256.281v1.948c0,7.563,5.812,14.07,13.366,14.426c8.065,0.38,14.723-6.047,14.723-14.029
	v-2.538c0-3.04-2.464-5.504-5.504-5.504H247.65C244.505,250.584,241.954,253.135,241.954,256.281z"/>
<path style="fill:#DBBC3B;" d="M256,258.23v-1.948c0-3.146,2.551-5.697,5.697-5.697h-14.045c-3.146,0-5.697,2.55-5.697,5.697v1.948
	c0,11.007,11.616,18.059,21.105,12.522C258.811,268.226,256,263.486,256,258.23z"/>
<path style="fill:#656566;" d="M228.248,305.371c11.482,22.098,42.852,22.675,55.303,1.485c1.464-2.491-0.324-5.631-3.214-5.631
	h-49.569C228.641,301.225,227.267,303.482,228.248,305.371z"/>
<path style="fill:#545456;" d="M251.407,305.371c-0.981-1.889,0.392-4.146,2.521-4.146h-23.16c-2.128,0-3.502,2.257-2.521,4.146
	c7.965,15.329,25.497,20.292,39.649,14.827C261.165,317.603,255.2,312.668,251.407,305.371z"/>
<path style="fill:#ED5A81;" d="M405.725,101.875l-1.584-5.976c-0.824-3.11-0.604-6.404,0.626-9.376l0,0
	c-21.282,7.229-20.645,6.755-22.28,8.46c-1.73,1.805-2.435,4.408-1.763,6.892l38.849,143.987c1.274,10.686-0.24,21.52-4.397,31.446
	c-5.06,8.729-44.046,75.98-48.921,84.391c-4.326,7.291-10.629,13.829-17.925,17.349c2.233,0.566,4.76,1.211,7.639,1.951
	c14.298,3.777,27.772-6.636,35.287-19.3c4.876-8.411,43.861-75.661,48.921-84.391c4.156-9.926,5.671-20.76,4.397-31.446
	L405.725,101.875z"/>
<path d="M255.585,280.172c11.88,0,21.545-9.665,21.545-21.546v-8.042c0-4.143-3.357-7.5-7.5-7.5s-7.5,3.357-7.5,7.5v8.042
	c0,3.609-2.936,6.545-6.545,6.545s-6.545-2.936-6.545-6.545v-8.042c0-4.143-3.357-7.5-7.5-7.5c-4.143,0-7.5,3.357-7.5,7.5v8.042
	C234.039,270.507,243.704,280.172,255.585,280.172z"/>
<path d="M311.488,215.177c-12.617,0-22.883,10.265-22.883,22.883c0,12.617,10.265,22.884,22.883,22.884s22.883-10.266,22.883-22.884
	C334.37,225.442,324.105,215.177,311.488,215.177z M311.488,245.942c-4.346,0-7.882-3.536-7.882-7.883
	c0-4.346,3.536-7.882,7.882-7.882s7.882,3.536,7.882,7.882C319.37,242.406,315.834,245.942,311.488,245.942z"/>
<path d="M199.679,215.177c-12.617,0-22.883,10.265-22.883,22.883c0,12.617,10.265,22.884,22.883,22.884
	c12.617,0,22.884-10.266,22.884-22.884C222.563,225.442,212.298,215.177,199.679,215.177z M199.679,245.942
	c-4.346,0-7.882-3.536-7.882-7.883c0-4.346,3.536-7.882,7.882-7.882c4.347,0,7.883,3.536,7.883,7.882
	C207.562,242.406,204.026,245.942,199.679,245.942z"/>
<path d="M339.805,201.996c-16.356-13.685-40.237-13.719-56.634,0c-3.177,2.658-3.598,7.388-0.939,10.564
	c2.658,3.178,7.389,3.598,10.564,0.939c10.796-9.032,26.563-9.053,37.384,0c1.403,1.175,3.11,1.748,4.809,1.748
	C341.993,215.249,345.142,206.463,339.805,201.996z"/>
<path d="M218.371,213.501c3.169,2.651,7.901,2.246,10.565-0.938c2.658-3.177,2.238-7.907-0.938-10.565
	c-16.42-13.74-40.305-13.665-56.635,0c-3.177,2.658-3.597,7.389-0.938,10.565c2.659,3.177,7.389,3.597,10.565,0.938
	C191.801,204.452,207.572,204.462,218.371,213.501z"/>
<path d="M279.927,293.725h-49.581c-7.761,0-12.75,8.228-9.177,15.104c0.001,0.001,0.001,0.003,0.002,0.004
	c14.063,27.01,52.89,28.271,68.439,1.823c2.037-3.469,2.063-7.791,0.064-11.28C287.678,295.89,283.944,293.725,279.927,293.725z
	 M239.764,308.725h32.278C262.678,317.158,248.701,316.691,239.764,308.725z"/>
<path d="M510.168,260.577c-0.167-0.793,2.356,7.08-59.798-182.249c-1.554-6.281-7.242-10.465-13.573-10.225
	c-4.863-9.232-7.993-10.852-36.66-42.274c-5.274-5.703-12.007-9.854-19.471-12.002l-45.18-12.999
	c-11.281-3.243-23.64,3.445-26.294,15.947C274.799,5.03,237.088,4.842,202.673,16.108c-2.927-11.968-14.99-18.496-26.161-15.281
	l-45.178,13c-7.465,2.148-14.198,6.298-19.472,12.002C84.29,56.052,80.073,58.857,75.203,68.101
	c-6.329-0.241-12.019,3.943-13.573,10.226l-14.123,43.007c-1.292,3.936,0.851,8.173,4.786,9.466
	c3.938,1.291,8.174-0.852,9.466-4.786l13.936-42.439c12.014,4.129,35.151,12.079,48.272,16.588
	c-40.856,151.531-38.867,143.78-38.99,144.81c-1.794,15.045,2.188,30.64,5.355,36.097c52.062,88.988,50.101,89.745,61.556,99.216
	c7.191,5.944,15.031,8.981,23.028,8.98c6.32,0,6.083-0.78,25.398-5.392c0.313,2.836-1.556,11.77,5.252,21.219
	c5.531,7.679,17.337,22.364,34.251,34.445c9.446,6.748,22.12,6.724,31.53,0c16.912-12.08,28.721-26.769,34.253-34.447
	c6.836-9.487,4.922-18.406,5.25-21.416c10.946,2.6,17.712,4.459,18.273,4.593c17.581,4.627,34.249-7.009,43.62-22.811
	c52.199-90.089,48.998-84.413,49.35-85.254c4.647-11.1,6.351-23.283,4.926-35.231c-0.123-1.028,2.363,8.565-38.989-144.802
	c1.522-0.523-9.927,3.413,48.272-16.597l59.266,180.484c2.698,13.185,1.557,26.75-3.306,39.297l-25.729,42.47
	c-2.146,3.543-1.014,8.154,2.529,10.301c3.542,2.144,8.154,1.015,10.301-2.529c27.54-45.53,26.19-43.059,26.615-44.135
	C512.174,293.885,513.621,276.98,510.168,260.577z M123.645,84.192L89.912,72.599c1.767-2.77,3.365-4.569,5.351-6.714
	c25.741-26.37,28.098-34.154,40.221-37.643l45.177-12.999c7.434-2.144,10.877,8.91,3.651,12.309l-34.805,16.361
	c-5.126,2.412-11.817,9.605-13.996,14.988L123.645,84.192z M293.43,396.324c-4.994,6.932-15.636,20.178-30.802,31.011
	c-4.215,3.01-9.877,3.01-14.092,0c-15.165-10.833-25.807-24.078-30.8-31.009c-3.977-5.519-1.812-9.574-2.422-29.265
	c25.881,8.276,54.648,8.275,80.535-0.001C295.242,386.734,297.405,390.808,293.43,396.324z M272.117,357.115
	c-9.697,1.366-17.871,1.149-17.77,1.149c-0.1-0.002-1.242-0.026-1.35-0.028l0,0c-0.033-0.001-0.067-0.001-0.101-0.002l0,0
	c-60.586-1.27-109.473-49.104-109.473-107.118l0.012-69.469c43.662-8.55,69.511-40.686,80.195-57.252
	c36.367,37.19,93.578,66.55,144.107,78.868l0.007,47.852C367.744,304.824,325.908,349.56,272.117,357.115z M412.185,247.275
	c0.992,9.058-0.301,18.27-3.748,26.706l-48.632,83.893c-1.194,2.014-12.089,19.567-26.988,15.857
	c-0.769-0.171-8.943-2.44-21.967-5.461v-7.062c42.048-19.533,71.894-61.027,71.894-110.092l-0.006-44.585
	c2.166,0.418,6.999,1.362,8.136,1.362c3.59,0,6.763-2.585,7.385-6.242c0.695-4.084-2.052-7.957-6.135-8.652
	c-47.074-8.014-88.977-26.298-127.873-54.001c-34.304-25.024-33.584-34.124-42.706-33.045c-3.011,0.356-5.695,2.147-7.182,4.791
	c-6.459,11.49-31.132,49.544-77.398,56.815c-4.15,0.654-8.461,4.967-8.517,10.729c-0.028,3.812-0.002-4.171-0.026,72.827
	c0,49.141,29.948,90.605,71.893,110.092v7.256c-11.898,2.776-20.884,5.212-21.135,5.267c-14.882,3.704-25.793-13.845-26.948-15.79
	l-48.672-83.961c-3.447-8.436-4.74-17.646-3.748-26.705C141,94.525,138.607,103.734,138.821,102.431
	c0.619-3.669-0.222-7.428-2.234-10.507c9.954-21.23,12.677-26.986,12.84-27.423c0.696-1.785,4.747-6.179,6.465-7.015
	c31.961-16.083,38.315-15.482,44.013-24.475c35.918-13.858,76.644-13.732,112.991,1.158c5.62,7.718,11.269,7.448,43.207,23.315
	c1.334,0.649,5.118,4.183,6.702,7.569l12.607,26.87c-2.233,3.417-3.059,7.742-1.928,11.905L412.185,247.275z M388.353,84.192
	l-11.865-25.29c-2.179-5.382-8.869-12.576-13.998-14.989l-34.802-16.36c-7.227-3.398-3.78-14.448,3.649-12.309l45.179,12.998
	c4.832,1.391,9.191,4.078,12.604,7.77c14.552,15.87,29.144,30.594,32.967,36.589L388.353,84.192z"/>
<path d="M458.688,373.259c-3.542-2.144-8.154-1.015-10.301,2.529c-51.251,84.606-50.177,82.715-50.674,84.209l-11.345,34.136
	c-0.268,0.806-0.889,2.674-3.678,2.855H201.798c-4.143,0-7.5,3.357-7.5,7.5s3.357,7.5,7.5,7.5h181.089
	c7.562,0,14.904-4.664,17.716-13.125l11.08-33.34c1.421-2.356,2.692-4.52,3.875-6.591l45.659-75.373
	C463.363,380.017,462.231,375.406,458.688,373.259z"/>
<path d="M166.797,496.988H129.31c-2.79-0.182-3.411-2.05-3.679-2.855c-15.113-44.166-8.435-29.072-16.206-42.716
	c-0.096-0.166,3.23,5.33-89.69-148.061c-4.861-12.545-6.003-26.109-3.305-39.296l34.35-104.605c1.292-3.936-0.851-8.173-4.786-9.466
	c-3.938-1.292-8.174,0.852-9.466,4.786C-0.263,266.867,1.997,259.797,1.833,260.577c-3.454,16.404-2.007,33.31,4.185,48.887
	c0.153,0.387,0.339,0.761,0.555,1.116c45.207,74.716,44.712,73.624,93.743,154.943l11.08,33.341
	c2.795,8.41,10.098,13.125,17.716,13.125h37.686c4.143,0,7.5-3.357,7.5-7.5S170.94,496.988,166.797,496.988z"/>
<g>
</g>
<g>
</g>
<g>
</g>
<g>
</g>
<g>
</g>
<g>
</g>
<g>
</g>
<g>
</g>
<g>
</g>
<g>
</g>
<g>
</g>
<g>
</g>
<g>
</g>
<g>
</g>
<g>
</g>
</svg>
