<?xml version="1.0" encoding="iso-8859-1"?>
<!-- Generator: Adobe Illustrator 19.0.0, SVG Export Plug-In . SVG Version: 6.00 Build 0)  -->
<svg version="1.1" id="Layer_1" xmlns="http://www.w3.org/2000/svg" xmlns:xlink="http://www.w3.org/1999/xlink" x="0px" y="0px"
	 viewBox="0 0 512.001 512.001" style="enable-background:new 0 0 512.001 512.001;" xml:space="preserve">
<circle style="fill:#F7B239;" cx="256.004" cy="256.005" r="246.855"/>
<path style="fill:#E09B2D;" d="M126.306,385.694c-88.801-88.802-95.798-228.426-20.998-325.241
	c-8.286,6.401-16.258,13.399-23.858,20.999c-96.401,96.401-96.401,252.698,0,349.099s252.698,96.401,349.099,0
	c7.599-7.599,14.597-15.573,20.999-23.858C354.733,481.492,215.108,474.496,126.306,385.694z"/>
<path d="M256.001,512.001C114.841,512.001,0,397.16,0,256.001S114.841,0.001,256.001,0.001s256.001,114.841,256.001,256.001
	S397.16,512.001,256.001,512.001z M256.001,18.3c-131.069,0-237.702,106.632-237.702,237.702s106.632,237.702,237.702,237.702
	S493.702,387.07,493.702,256.001S387.068,18.3,256.001,18.3z"/>
<path d="M360.142,181.364C360.14,181.364,360.142,181.364,360.142,181.364c-22.618,0-43.046-11.592-54.646-31.007
	c-2.591-4.338-1.176-9.956,3.162-12.547c4.338-2.59,9.956-1.176,12.547,3.162c8.265,13.834,22.82,22.093,38.936,22.094
	c16.117,0,30.673-8.26,38.938-22.094c2.592-4.339,8.214-5.752,12.547-3.162c4.338,2.592,5.753,8.209,3.162,12.547
	C403.188,169.771,382.757,181.364,360.142,181.364z"/>
<path d="M151.859,181.364c-22.618,0-43.046-11.592-54.647-31.007c-2.591-4.338-1.176-9.956,3.162-12.547
	c4.341-2.59,9.957-1.176,12.547,3.162c8.265,13.834,22.821,22.094,38.938,22.094c16.115,0,30.671-8.26,38.936-22.094
	c2.592-4.338,8.209-5.753,12.547-3.162c4.338,2.591,5.753,8.209,3.162,12.547C194.905,169.772,174.477,181.364,151.859,181.364z"/>
<path d="M125.428,294.899c-2.341,0-4.683-0.893-6.471-2.68c-3.573-3.573-3.573-9.367,0-12.939
	c75.564-75.563,198.517-75.565,274.084,0c3.573,3.573,3.573,9.367,0,12.939c-3.574,3.573-9.367,3.573-12.94,0
	c-68.429-68.43-179.774-68.43-248.203,0C130.111,294.006,127.769,294.899,125.428,294.899z"/>
<path style="fill:#E09B2D;" d="M297.386,283.242c-0.817,0-1.649-0.11-2.474-0.342c-25.458-7.138-52.368-7.137-77.821,0
	c-4.861,1.363-9.914-1.475-11.28-6.34c-1.364-4.866,1.475-9.916,6.34-11.281c28.686-8.042,59.012-8.043,87.7,0
	c4.865,1.364,7.704,6.414,6.34,11.28C305.058,280.6,301.385,283.242,297.386,283.242z"/>
<g>
</g>
<g>
</g>
<g>
</g>
<g>
</g>
<g>
</g>
<g>
</g>
<g>
</g>
<g>
</g>
<g>
</g>
<g>
</g>
<g>
</g>
<g>
</g>
<g>
</g>
<g>
</g>
<g>
</g>
</svg>
