<?xml version="1.0" encoding="iso-8859-1"?>
<!-- Generator: Adobe Illustrator 19.0.0, SVG Export Plug-In . SVG Version: 6.00 Build 0)  -->
<svg version="1.1" id="Capa_1" xmlns="http://www.w3.org/2000/svg" xmlns:xlink="http://www.w3.org/1999/xlink" x="0px" y="0px"
	 viewBox="0 0 511.999 511.999" style="enable-background:new 0 0 511.999 511.999;" xml:space="preserve">
<g>
	<path style="fill:#DBBC3B;" d="M56.354,245.431c-26.319,1.95-48.857,22.559-48.857,47.719c0,25.328,22.834,46.034,49.374,47.752
		C49.554,309.697,49.229,276.897,56.354,245.431z"/>
	<path style="fill:#DBBC3B;" d="M455.678,245.002c7.214,29.935,7.699,62.521-0.435,96.328c26.536-1.99,49.264-22.788,49.264-48.179
		C504.506,267.9,482.028,247.185,455.678,245.002z"/>
</g>
<g>
	<path style="fill:#CCAF37;" d="M12.363,273.448c-3.105,6.008-4.867,12.677-4.867,19.702c0,25.328,22.834,46.034,49.374,47.752
		c-3.079-13.136-4.904-26.554-5.472-40.036C34.461,298.064,19.674,287.595,12.363,273.448z"/>
	<path style="fill:#CCAF37;" d="M460.977,301.19c-0.604,13.122-2.459,26.53-5.734,40.14c26.537-1.99,49.264-22.788,49.264-48.179
		c0-7.019-1.741-13.684-4.816-19.702C492.456,287.611,477.816,298.159,460.977,301.19z"/>
</g>
<path style="fill:#F4D44E;" d="M296.879,89.754c0.037,0.026,0.075,0.053,0.112,0.079c-26.119-5.212-54.072-5.488-81.571,0
	c0.037-0.026,0.075-0.053,0.112-0.079C115.913,109.948,47.308,194.68,49.213,298.058c1.668,94.543,66.848,178.162,166.318,198.326
	c-0.037-0.026-0.075-0.053-0.112-0.079c26.171,5.223,54.125,5.477,81.571,0c-0.037,0.026-0.075,0.053-0.112,0.079
	c49.433-10.021,91.579-35.573,121.555-73.687C512.676,306.251,454.001,121.605,296.879,89.754z"/>
<path style="fill:#CC9D72;" d="M321.073,114.356c-19.033-35.593-63.506-48.368-98.443-28.615c-2.717,1.536-5.279,2.628-7.714,4.45
	c3.531-0.604,10.386-2.065,21.193-3.098c15.443-0.927,36.692,10.368,46.622,30c20.317,40.163-14.725,86.369-58.869,77.719
	c-3.316-0.649-6.669,0.904-8.19,3.921l-0.06,0.119c-1.527,3.029-0.595,6.748,2.219,8.642c22.24,14.974,52.073,16.851,76.801,2.091
	C327.27,190.104,338.996,147.873,321.073,114.356z"/>
<path style="fill:#C19067;" d="M299.035,115.066c-16.244-30.38-54.057-41.396-83.982-24.9c3.568-0.617,10.38-2.054,21.056-3.074
	c15.442-0.927,36.692,10.368,46.622,30c20.317,40.163-14.725,86.369-58.869,77.72c-3.187-0.625-6.392,0.802-7.988,3.593
	c18.338,9.722,41.192,9.969,60.444-1.522C304.359,180.144,314.432,143.863,299.035,115.066z"/>
<path style="fill:#656566;" d="M190.656,384.799c27.121,52.194,101.215,53.556,130.625,3.509c3.458-5.884-0.766-13.3-7.591-13.3
	H196.61C191.583,375.008,188.338,380.339,190.656,384.799z"/>
<path style="fill:#4F4F51;" d="M215.516,384.799c-1.88-4.461,0.752-9.792,4.832-9.792h-23.737c-5.027,0-8.272,5.331-5.954,9.793
	c15.085,29.031,44.702,42.327,73.079,39.807C244.4,422.47,225.798,409.183,215.516,384.799z"/>
<path style="fill:#DBBC3B;" d="M241.382,319.474c-3.643,0-6.305,3.586-5.094,7.02c6.529,18.523,32.754,18.83,39.682,0.411
	c1.35-3.589-1.246-7.431-5.081-7.431L241.382,319.474L241.382,319.474z"/>
<path style="fill:#CCAF37;" d="M256.309,326.494c-0.605-3.436,0.726-7.02,2.546-7.02h-17.475c-3.643,0-6.305,3.585-5.094,7.02
	c4.195,11.901,16.516,16.268,26.629,12.996C260.032,337.623,257.508,333.29,256.309,326.494z"/>
<path style="fill:#9CD7F2;" d="M23.837,86.2c0-99.555,464.33-100.004,464.33,0c0,23.677-24.861,42.667-73.894,56.446
	C282.824,179.582,23.837,160.887,23.837,86.2z M105.036,55.751C65.273,66.925,50.841,80.082,50.841,86.2
	s14.433,19.275,54.195,30.448c83.071,23.343,218.846,23.347,301.931,0c39.763-11.173,54.196-24.331,54.196-30.448
	s-14.433-19.275-54.196-30.448C323.896,32.409,188.12,32.406,105.036,55.751z"/>
<g>
	<path style="fill:#71C5DB;" d="M406.967,46.59c-83.072-28.367-218.846-28.372-301.931,0C65.273,60.169,50.841,76.158,50.841,83.592
		c0,0.439,0.062,0.914,0.165,1.411c1.69-6.519,16.691-18.76,54.03-29.252c83.084-23.347,218.859-23.343,301.931,0
		c37.341,10.493,52.341,22.733,54.03,29.253c0.104-0.497,0.166-0.972,0.166-1.412C461.163,76.158,446.729,60.169,406.967,46.59z"/>
	<path style="fill:#71C5DB;" d="M414.273,129.714c-127.554,35.842-375.192,19.3-389.756-49.956c-0.442,2.099-0.679,4.245-0.679,6.44
		c0,74.687,258.986,93.382,390.435,56.446c49.032-13.777,73.894-32.769,73.894-56.446c0-2.171-0.233-4.293-0.661-6.369
		C483.271,100.475,458.689,117.233,414.273,129.714z"/>
</g>
<path style="fill:#656566;" d="M360.252,272.723c-6.384-11.042-20.522-14.825-31.579-8.45s-14.845,20.494-8.461,31.536
	c6.384,11.042,20.522,14.825,31.579,8.45C362.848,297.884,366.635,283.765,360.252,272.723z"/>
<path style="fill:#4F4F51;" d="M340.232,284.266c-4.278-7.399-3.982-16.176,0.002-23.083c-3.93-0.004-7.912,0.987-11.561,3.09
	c-11.057,6.375-14.845,20.494-8.461,31.536c6.384,11.042,20.522,14.825,31.579,8.45c3.648-2.103,6.499-5.053,8.46-8.452
	C352.269,295.798,344.51,291.664,340.232,284.266z"/>
<path style="fill:#656566;" d="M192.196,272.723c-6.384-11.042-20.522-14.825-31.579-8.45s-14.845,20.494-8.461,31.536
	c6.384,11.042,20.522,14.825,31.579,8.45C194.791,297.884,198.58,283.765,192.196,272.723z"/>
<path style="fill:#4F4F51;" d="M172.176,284.266c-4.278-7.399-3.982-16.176,0.002-23.083c-3.93-0.004-7.912,0.987-11.561,3.09
	c-11.057,6.375-14.845,20.494-8.461,31.536c6.384,11.042,20.522,14.825,31.579,8.45c3.648-2.103,6.499-5.053,8.46-8.452
	C184.214,295.798,176.453,291.664,172.176,284.266z"/>
<path d="M183.999,388.258c29.622,57.011,111.011,59.557,143.75,3.851c6.399-10.893-1.432-24.602-14.058-24.602H196.609
	C185.947,367.507,179.091,378.81,183.999,388.258z M314.814,384.507c-26.33,44.803-92.096,43.448-116.881-1.998
	C315.934,382.732,316.669,381.353,314.814,384.507z"/>
<path d="M277.315,311.974c-4.144,0-7.501,3.358-7.501,7.501c0,7.504-6.105,13.609-13.609,13.609c-7.505,0-13.61-6.105-13.61-13.609
	c0-4.144-3.357-7.501-7.501-7.501c-15.533,0-6.302,36.113,21.111,36.113C283.67,348.087,292.781,311.974,277.315,311.974z"/>
<path d="M340.232,314.889c16.886,0,30.622-13.737,30.622-30.623s-13.736-30.622-30.622-30.622
	c-16.886,0-30.623,13.736-30.623,30.622S323.347,314.889,340.232,314.889z M340.232,268.646c8.612,0,15.619,7.007,15.619,15.619
	c0,8.613-7.007,15.62-15.619,15.62c-8.613,0-15.62-7.007-15.62-15.62C324.612,275.653,331.619,268.646,340.232,268.646z"/>
<path d="M172.176,314.889c16.886,0,30.623-13.737,30.623-30.623s-13.737-30.622-30.623-30.622s-30.622,13.736-30.622,30.622
	S155.29,314.889,172.176,314.889z M172.176,268.646c8.613,0,15.62,7.007,15.62,15.619c0,8.613-7.007,15.62-15.62,15.62
	c-8.612,0-15.619-7.007-15.619-15.62C156.556,275.653,163.562,268.646,172.176,268.646z"/>
<path d="M325.463,247.045c8.36-3.499,21.163-3.505,29.536,0c0.946,0.396,1.927,0.583,2.893,0.583
	c8.163,0,10.426-11.273,2.898-14.423c-11.958-5.005-28.913-5.109-41.12,0c-3.822,1.6-5.623,5.994-4.024,9.815
	C317.247,246.842,321.639,248.641,325.463,247.045z"/>
<path d="M157.407,247.045c8.36-3.499,21.163-3.505,29.536,0c3.822,1.597,8.216-0.201,9.815-4.024
	c1.599-3.822-0.202-8.216-4.024-9.815c-11.958-5.005-28.913-5.109-41.12,0c-3.822,1.6-5.623,5.994-4.024,9.815
	C149.191,246.842,153.585,248.641,157.407,247.045z"/>
<path d="M72.561,200.932c-3.762-1.734-8.218-0.088-9.951,3.677c-5.34,11.595-9.542,23.671-12.65,36.031
	c-12.491,2.025-24.124,7.758-33.208,16.452c-34.581,33.093-11.846,84.932,33.737,91.968
	c38.618,149.325,214.336,205.603,333.851,115.433c3.307-2.495,3.965-7.199,1.47-10.506c-2.495-3.309-7.2-3.968-10.506-1.471
	c-99.951,75.409-243.775,41.044-297.108-70.898c-25.658-53.856-26.392-117.682-1.96-170.736
	C77.97,207.121,76.325,202.665,72.561,200.932z M14.997,294.812c0-17.211,13.414-32.692,31.468-38.02
	c-4.283,24.998-4.135,50.954,0.436,76.173C28.604,327.779,14.997,312.236,14.997,294.812z"/>
<path d="M495.668,86.199c0-38.787-53.482-57.525-91.134-66.751c-4.023-0.989-8.085,1.476-9.07,5.5
	c-0.986,4.023,1.476,8.084,5.5,9.07c28.409,6.968,79.702,23.013,79.702,52.181c0,64.387-247.501,86.71-380.906,49.224
	c-56.552-15.89-68.422-35.538-68.422-49.224c0-56.349,195.588-82.02,335.647-59.04c4.09,0.664,7.945-2.101,8.616-6.189
	c0.67-4.088-2.1-7.945-6.189-8.616C247.13-7.707,16.335,6.207,16.335,86.199c0,36.433,47.136,54.941,82.433,64.509
	c-6.512,7.007-12.543,14.44-17.987,22.227c-2.374,3.396-1.546,8.072,1.849,10.446c3.397,2.375,8.072,1.546,10.446-1.849
	c6.647-9.505,14.218-18.464,22.543-26.674c50.272,11.142,107.085,14.724,158.35,13.585c-9.543,15.63-26.878,25.325-48.604,21.428
	c-11.237-2.045-15.964,7.806-16.064,7.903l-0.001,0.002l-0.06,0.117l0,0c-0.027,0.109-2.866,5.099-0.697,11.194
	c1.761,4.954,5.134,7.068,10.35,10.042c46.192,26.285,106.397,0.215,116.221-54.501c19.566-2.062,40.92-5.245,60.187-9.525
	c83.673,82.515,71.264,204.487,5.113,274.891c-2.836,3.02-2.688,7.767,0.33,10.604c3.011,2.828,7.758,2.697,10.604-0.33
	c23.959-25.498,41.305-56.873,50.289-90.825c12.601-2.044,24.337-7.834,33.499-16.612c34.034-32.614,13.291-84.805-33.056-92.573
	c-8.994-33.418-26.237-63.931-49.864-89.268C447.687,141.489,495.668,122.949,495.668,86.199z M298.94,199.384
	c-21.114,18.013-51.519,19.822-74.583,5.547c28.958,4.84,55.916-11.278,66.734-37.053c9.123-0.41,18.568-0.971,28.352-1.781
	C319.163,167.221,310.874,189.197,298.94,199.384z M465.763,256.531c17.941,5.564,31.242,21.122,31.242,38.282
	c0,17.36-13.496,32.99-31.674,38.419C470.236,307.293,470.377,281.622,465.763,256.531z"/>
<path d="M103.006,48.529c-37.361,10.5-59.667,24.581-59.667,37.67s22.306,27.171,59.667,37.67
	c188.336,52.925,496.926-21.68,305.99-75.339C324.607,24.817,187.425,24.809,103.006,48.529z M162.212,120.544
	c16.81-9.077,34.411-15.648,52.466-19.577c2.548,0.193,7.606-1.673,22.166-3.073c15.991-0.888,33.781,13.304,40.282,28.456
	C239.598,127.38,199.404,125.702,162.212,120.544z M292.916,125.749c-5.822-17.879-19.23-31.534-35.094-38.412
	c24.076,0.028,47.057,13.773,57.734,36.941C308.118,124.884,300.547,125.376,292.916,125.749z M331.216,122.812
	c-1.673-4.381-3.918-8.974-6.562-13.252c8.266,3.155,16.333,6.865,24.174,11.118C343.085,121.464,337.207,122.176,331.216,122.812z
	 M453.326,86.199c-2.448,3.49-14.462,13.693-48.388,23.227c-0.001,0-0.001,0-0.001,0c-10.191,2.863-21.278,5.393-33.084,7.573
	c-20.884-13.699-43.551-23.586-67.447-29.416c-25.175-18.471-59.496-21.471-91.473-1.573c-25.646,5.39-50.609,15.73-73.744,30.815
	c-11.449-2.14-22.208-4.612-32.124-7.398c-33.926-9.532-45.94-19.736-48.388-23.227c2.449-3.489,14.463-13.693,48.389-23.227
	c81.754-22.972,216.112-22.973,297.871,0C438.863,72.506,450.877,82.71,453.326,86.199z"/>
<g>
</g>
<g>
</g>
<g>
</g>
<g>
</g>
<g>
</g>
<g>
</g>
<g>
</g>
<g>
</g>
<g>
</g>
<g>
</g>
<g>
</g>
<g>
</g>
<g>
</g>
<g>
</g>
<g>
</g>
</svg>
