<?xml version="1.0" encoding="iso-8859-1"?>
<!-- Generator: Adobe Illustrator 19.0.0, SVG Export Plug-In . SVG Version: 6.00 Build 0)  -->
<svg version="1.1" id="Capa_1" xmlns="http://www.w3.org/2000/svg" xmlns:xlink="http://www.w3.org/1999/xlink" x="0px" y="0px"
	 viewBox="0 0 512 512" style="enable-background:new 0 0 512 512;" xml:space="preserve">
<g>
	<path style="fill:#DBBC3B;" d="M57.964,213.409c-26.106,1.934-48.463,22.377-48.463,47.333c0,25.123,22.65,45.663,48.974,47.367
		C51.219,277.156,50.897,244.621,57.964,213.409z"/>
	<path style="fill:#DBBC3B;" d="M454.064,212.983c7.156,29.693,7.637,62.016-0.431,95.55c26.322-1.974,48.866-22.604,48.866-47.79
		C502.499,235.697,480.201,215.149,454.064,212.983z"/>
</g>
<g>
	<path style="fill:#CCAF37;" d="M13.05,243.912c-2.274,5.232-3.549,10.901-3.549,16.831c0,25.123,22.65,45.663,48.974,47.367
		c-2.637-11.25-4.347-22.711-5.13-34.24C35.357,270.995,19.779,259.391,13.05,243.912z"/>
	<path style="fill:#CCAF37;" d="M458.993,274.198c-0.821,11.262-2.567,22.724-5.361,34.335c26.322-1.974,48.866-22.604,48.866-47.79
		c0-5.925-1.26-11.593-3.512-16.83C492.327,259.408,476.892,271.088,458.993,274.198z"/>
</g>
<path style="fill:#F4D44E;" d="M190.305,65.834c0.045,0.004,0.091,0.009,0.136,0.013c-25.021,8.477-49.171,22.104-70.073,40.456
	c0.019-0.041,0.038-0.083,0.057-0.124c-121.348,107.207-74.263,294.444,60.71,346.297c44.635,17.867,93.512,18.927,140.963,3.012
	c-0.045-0.004-0.091-0.009-0.136-0.013c25.072-8.493,49.212-22.139,70.073-40.456c-0.019,0.041-0.038,0.083-0.057,0.124
	c37.495-33.125,61.027-75.979,67.873-123.587C482.305,149.536,344.788,14.024,190.305,65.834z"/>
<path style="fill:#E8C842;" d="M380.199,424.651c-4.711,1.998-9.47,3.814-14.266,5.439c0.045,0.004,0.091,0.009,0.136,0.013
	c-47.451,15.914-96.329,14.854-140.963-3.012C90.134,375.237,43.049,187.999,164.396,80.793c-0.019,0.041-0.038,0.083-0.057,0.124
	c3.84-3.371,7.792-6.581,11.837-9.631c-19.889,8.436-38.91,20.181-55.807,35.018c0.019-0.041,0.038-0.083,0.057-0.124
	C-0.923,213.385,46.162,400.623,181.134,452.476c44.635,17.866,93.512,18.927,140.963,3.012c-0.045-0.004-0.091-0.009-0.136-0.013
	C342.421,448.546,362.258,438.181,380.199,424.651z"/>
<path style="fill:#CC9D72;" d="M320.546,83.392c-18.879-35.306-62.993-47.977-97.649-28.384c-2.696,1.524-5.236,2.607-7.652,4.414
	c3.501-0.599,10.301-2.049,21.022-3.073c15.318-0.919,36.395,10.283,46.246,29.757c20.153,39.838-14.606,85.672-58.394,77.092
	c-3.289-0.644-6.615,0.896-8.124,3.889l-0.06,0.118c-1.515,3.004-0.59,6.693,2.201,8.573c22.061,14.854,51.653,16.714,76.181,2.074
	C326.693,158.528,338.325,116.639,320.546,83.392z"/>
<path style="fill:#C19067;" d="M299.69,84.004c-14.004-26.188-43.491-38.466-70.852-31.985c-2.004,0.9-3.99,1.886-5.94,2.989
	c-2.696,1.524-5.236,2.607-7.652,4.414c3.501-0.599,10.301-2.048,21.022-3.073c15.318-0.919,36.395,10.283,46.246,29.757
	c20.153,39.838-14.606,85.672-58.394,77.092c-3.289-0.644-6.615,0.896-8.124,3.89l-0.06,0.118c-0.628,1.246-0.831,2.609-0.661,3.913
	c18.687,9.216,41.55,9.125,60.9-2.424C305.201,151.367,315.63,113.811,299.69,84.004z"/>
<path style="fill:#656566;" d="M190.656,350.728c27.154,52.255,101.267,53.464,130.622,3.508c3.457-5.884-0.766-13.3-7.591-13.3
	H196.609C191.583,340.936,188.338,346.267,190.656,350.728z"/>
<path style="fill:#4F4F51;" d="M215.83,350.728c-1.875-4.461,0.75-9.792,4.817-9.792h-24.038c-5.027,0-8.272,5.331-5.954,9.792
	c15.112,29.082,44.769,42.344,73.161,39.784C244.577,388.354,226.073,375.092,215.83,350.728z"/>
<path style="fill:#DBBC3B;" d="M240.307,285.405c-3,0-5.24,2.856-4.425,5.744c5.613,19.896,33.62,20.574,40.294,1.105
	c1.152-3.361-1.419-6.85-4.973-6.85L240.307,285.405L240.307,285.405z"/>
<path style="fill:#CCAF37;" d="M253.615,291.148c-0.458-2.887,0.802-5.744,2.49-5.744h-15.799c-3,0-5.24,2.856-4.425,5.744
	c3.497,12.398,15.689,17.329,25.996,14.579C258.158,303.976,254.879,299.103,253.615,291.148z"/>
<circle style="fill:#656566;" cx="172.172" cy="250.193" r="23.113"/>
<path style="fill:#4F4F51;" d="M172.176,250.196c-4.276-7.406-3.969-16.184,0.01-23.099c-3.933-0.006-7.918,0.971-11.568,3.079
	c-11.056,6.384-14.845,20.522-8.461,31.578s20.522,14.845,31.578,8.461c3.65-2.107,6.489-5.071,8.451-8.479
	C184.208,261.726,176.452,257.602,172.176,250.196z"/>
<circle style="fill:#656566;" cx="340.224" cy="250.193" r="23.113"/>
<path style="fill:#4F4F51;" d="M340.228,250.196c-4.276-7.406-3.969-16.184,0.01-23.099c-3.933-0.006-7.918,0.971-11.568,3.079
	c-11.056,6.384-14.845,20.522-8.461,31.578s20.522,14.845,31.578,8.461c3.65-2.107,6.489-5.071,8.451-8.479
	C352.26,261.726,344.504,257.602,340.228,250.196z"/>
<path d="M50.475,314.986c35.65,137.096,188.129,197.491,307.231,132.594c3.637-1.982,4.98-6.538,2.997-10.176
	c-1.982-3.637-6.539-4.981-10.176-2.997C228.1,501.118,71.992,424.918,59.135,277.205c-5.384-62.365,17.593-123.371,65.979-165.179
	c3.135-2.708,3.479-7.445,0.771-10.579c-2.709-3.135-7.447-3.479-10.579-0.771c-31.409,27.139-54.686,63.512-65.415,105.911
	C22.789,211.013,0,233.218,0,260.743C0,287.287,22.182,310.612,50.475,314.986z M46.462,222.726
	c-4.301,25.002-4.163,50.76,0.442,76.169c-18.296-5.185-31.902-20.728-31.902-38.151C15.002,243.535,28.412,228.055,46.462,222.726z
	"/>
<path d="M327.744,358.036c6.401-10.891-1.432-24.601-14.057-24.601H196.609c-10.661,0-17.52,11.302-12.61,20.75
	C213.423,410.88,294.882,413.962,327.744,358.036z M314.812,350.435c-26.441,44.993-92.221,43.259-116.878-1.998
	C315.931,348.661,316.665,347.281,314.812,350.435z M197.311,347.269c0.001,0.001,0.001,0.002,0.001,0.002
	S197.312,347.27,197.311,347.269L197.311,347.269z"/>
<path d="M277.312,277.904c-4.144,0-7.501,3.357-7.501,7.501c0,7.504-6.105,13.609-13.609,13.609c-7.505,0-13.61-6.105-13.61-13.609
	c0-4.144-3.357-7.501-7.501-7.501s-7.501,3.357-7.501,7.501c0,15.776,12.836,28.611,28.612,28.611
	C283.667,314.015,292.779,277.904,277.312,277.904z"/>
<path d="M370.85,250.196c0-16.885-13.736-30.621-30.621-30.621c-16.885,0-30.622,13.736-30.622,30.621s13.737,30.622,30.622,30.622
	C357.114,280.818,370.85,267.081,370.85,250.196z M324.608,250.196c0-8.612,7.007-15.619,15.62-15.619
	c8.612,0,15.619,7.007,15.619,15.619c0,8.613-7.007,15.62-15.619,15.62C331.615,265.816,324.608,258.809,324.608,250.196z"/>
<path d="M172.175,280.818c16.885,0,30.622-13.737,30.622-30.622s-13.737-30.621-30.622-30.621s-30.621,13.736-30.621,30.621
	S155.291,280.818,172.175,280.818z M172.175,234.577c8.613,0,15.62,7.007,15.62,15.619c0,8.613-7.007,15.62-15.62,15.62
	c-8.612,0-15.619-7.007-15.619-15.62C156.556,241.584,163.563,234.577,172.175,234.577z"/>
<path d="M325.46,212.976c4.045-1.693,9.289-2.625,14.769-2.625c10.908,0,14.375,3.208,17.66,3.208
	c8.163,0,10.425-11.272,2.898-14.423c-12.097-5.062-29.045-5.053-41.119,0c-3.822,1.6-5.623,5.994-4.024,9.815
	C317.245,212.773,321.636,214.575,325.46,212.976z"/>
<path d="M157.408,212.976c8.367-3.503,21.184-3.497,29.536,0c3.821,1.597,8.216-0.201,9.815-4.024
	c1.599-3.822-0.202-8.216-4.024-9.815c-12.097-5.062-29.045-5.053-41.119,0c-3.821,1.6-5.623,5.994-4.024,9.815
	C149.192,212.773,153.584,214.575,157.408,212.976z"/>
<path d="M378.768,415.764c-3.251,2.567-3.806,7.284-1.239,10.535c2.568,3.252,7.285,3.804,10.535,1.239
	c36.366-28.712,61.768-67.469,73.577-112.172C489.142,310.903,512,288.38,512,260.742c0-26.76-21.572-49.838-50.009-54.568
	C441.75,130.259,379.305,71.803,304.407,53.52c-24.85-18.235-59.171-21.679-91.477-1.575c-39.327,8.264-65.433,25.905-68.337,27.379
	c-3.532,2.163-4.645,6.78-2.48,10.314c2.164,3.532,6.783,4.645,10.314,2.48l0.297-0.182c18.673-11.456,39.903-20.235,61.955-25.034
	c2.255,0.166,8.451-1.755,22.165-3.073c15.173-0.839,32.145,12.158,38.976,25.662c16.708,33.028-10.424,73.383-50.535,66.302
	c-1.802-0.318-3.605-0.298-5.338,0.02c-7.923,1.449-10.623,7.914-10.709,8.014l0,0c-0.028,0.104-2.899,5.005-0.697,11.193
	c0.984,2.767,2.824,5.241,5.407,6.979c39.849,26.827,94.727,11.968,115.073-32.089c1.737-3.761,0.097-8.218-3.664-9.954
	c-3.76-1.738-8.218-0.097-9.954,3.664c-16.282,35.254-59.314,46.887-91.048,27.243c61.41,10.312,99.173-69.423,47.028-109.572
	c-4.204-3.234-8.84-5.969-13.56-8.017c33.671,0.039,61.38,26.234,63.41,59.471c0.254,4.134,3.77,7.25,7.945,7.029
	c4.136-0.253,7.282-3.81,7.029-7.945c-1.154-18.855-9.113-32.12-9.073-32.02c-0.797-1.488-2.024-3.569-2.482-4.311
	c69.868,26.653,121.304,90.534,128.527,165.611C459.125,303.234,434.628,371.661,378.768,415.764z M465.735,222.454
	c17.951,5.558,31.263,21.123,31.263,38.289c0,17.362-13.502,32.995-31.686,38.421C470.145,273.528,470.354,247.714,465.735,222.454z
	"/>
<g>
</g>
<g>
</g>
<g>
</g>
<g>
</g>
<g>
</g>
<g>
</g>
<g>
</g>
<g>
</g>
<g>
</g>
<g>
</g>
<g>
</g>
<g>
</g>
<g>
</g>
<g>
</g>
<g>
</g>
</svg>
