<?xml version="1.0" encoding="iso-8859-1"?>
<!-- Generator: Adobe Illustrator 19.0.0, SVG Export Plug-In . SVG Version: 6.00 Build 0)  -->
<svg version="1.1" id="Capa_1" xmlns="http://www.w3.org/2000/svg" xmlns:xlink="http://www.w3.org/1999/xlink" x="0px" y="0px"
	 viewBox="0 0 512 512" style="enable-background:new 0 0 512 512;" xml:space="preserve">
<path style="fill:#CC9D72;" d="M248.766,7.886C139.057,11.55,51.473,97.967,51.473,203.857c0,19.04-0.019,46.048-0.042,61.006
	l409.218-0.661c0.005-26.038,0.01-57.636,0.011-60.345C460.66,92.373,363.98,3.834,248.766,7.886z"/>
<path style="fill:#C19067;" d="M126.959,203.857c0-95.898,71.835-175.821,166.88-192.774c-14.57-2.608-29.653-3.739-45.074-3.198
	C139.057,11.55,51.473,97.967,51.473,203.857c0,19.04-0.019,46.048-0.042,61.006l75.487-0.122
	C126.94,249.761,126.959,222.847,126.959,203.857z"/>
<g>
	<path style="fill:#DBBC3B;" d="M467.532,273.478c0,15.58-15.636,28.209-32.198,28.209v-56.415
		C451.895,245.272,467.532,257.9,467.532,273.478z"/>
	<path style="fill:#DBBC3B;" d="M44.471,273.183c0,15.416,15.471,27.911,31.858,27.911v-55.82
		C59.942,245.274,44.471,257.768,44.471,273.183z"/>
</g>
<g>
	<path style="fill:#CCAF37;" d="M435.334,277.836v23.85c16.562,0,32.198-12.628,32.198-28.209c0-4.263-1.177-8.301-3.218-11.925
		C458.898,271.171,447.363,277.836,435.334,277.836z"/>
	<path style="fill:#CCAF37;" d="M47.722,261.259c-2.062,3.616-3.252,7.658-3.252,11.924c0,15.416,15.471,27.911,31.858,27.911
		v-23.85C64.478,277.244,53.11,270.708,47.722,261.259z"/>
</g>
<path style="fill:#F4D44E;" d="M435.666,245.164l-3.211-3.862c-23.935-28.79-17.984-59.196-18.869-66.005
	c-0.067-30.954,0.388-89.349-17.821-114.684C316.658-10.28,194.346-9.592,116.079,60.847
	C96.201,88.91,98.416,157.104,98.416,189.089c0,19.074-6.676,37.546-18.869,52.213l-3.211,3.862c0,0.559-0.07-8.109-0.089,86.92
	c0,0.075,0,0.14,0,0.195c0,95.22,80.301,171.372,177.786,172.225c0.658,0.008,1.312,0.003,1.969,0.004
	c0.656-0.001,1.311,0.004,1.969-0.004c97.157-0.85,177.786-76.615,177.786-172.42C435.736,237.279,435.666,245.698,435.666,245.164z
	"/>
<path style="fill:#E8C842;" d="M126.523,332.278c0-0.055,0-0.12,0-0.195c0.01-46.621,0.031-68.276,0.051-78.313
	c0-7.839,2.466-11.481,3.101-12.289l0.149-0.179c12.194-14.667,18.869-33.139,18.869-52.213c0-22.677-1.114-70.088,5.323-105.763
	c3.851-21.349,16.069-40.261,34.001-52.469c12.71-8.653,26.226-15.756,40.26-21.306c-40.787,5.344-80.179,22.479-112.198,51.295
	C96.201,88.91,98.416,157.104,98.416,189.089c0,19.074-6.676,37.546-18.869,52.213l-3.211,3.862c0,0.559-0.07-8.109-0.089,86.92
	c0,0.075,0,0.14,0,0.195c0,95.22,80.301,171.372,177.786,172.225c0.658,0.008,1.312,0.003,1.969,0.004
	c0.656-0.001,1.311,0.004,1.969-0.004c7.841-0.069,15.571-0.632,23.162-1.647C194.417,491.258,126.523,419.831,126.523,332.278z"/>
<path style="fill:#656566;" d="M203.049,406.996c21.928,42.142,81.834,43.241,105.612,2.833c2.796-4.751-0.619-10.738-6.137-10.738
	h-94.66C203.798,399.089,201.175,403.394,203.049,406.996z"/>
<path style="fill:#4F4F51;" d="M227.979,406.996c-1.435-3.601,0.574-7.907,3.688-7.907h-23.804c-4.064,0-6.688,4.304-4.814,7.907
	c11.829,22.733,36.305,34.887,60.722,32.05C250.052,436.967,235.801,426.613,227.979,406.996z"/>
<path style="fill:#656566;" d="M192.077,279.173c-6.381-11.037-20.513-14.819-31.565-8.446
	c-11.052,6.372-14.839,20.485-8.458,31.522c6.38,11.037,20.513,14.819,31.565,8.446C194.671,304.323,198.458,290.21,192.077,279.173
	z"/>
<path style="fill:#4F4F51;" d="M172.066,290.711c-4.276-7.396-3.98-16.17,0.002-23.073c-3.928-0.004-7.91,0.987-11.555,3.089
	c-11.052,6.372-14.839,20.485-8.458,31.522c6.381,11.037,20.513,14.819,31.565,8.446c3.646-2.102,6.496-5.05,8.456-8.449
	C184.098,302.238,176.341,298.107,172.066,290.711z"/>
<path style="fill:#DBBC3B;" d="M270.184,313.787h-28.277c-3.828,0-6.96,3.128-6.96,6.951v5.286c0,8.988,5.699,17.139,14.286,19.831
	c14.546,4.561,27.912-6.162,27.912-20.004v-5.114C277.144,316.915,274.012,313.787,270.184,313.787z"/>
<path style="fill:#CCAF37;" d="M256.045,320.738c0-3.823,3.133-6.951,6.96-6.951h-21.098c-3.828,0-6.96,3.128-6.96,6.951v5.286
	c0,16.893,18.098,25.79,31.532,18.14C253.584,336.85,256.4,322.475,256.045,320.738z"/>
<path style="fill:#656566;" d="M360.036,279.173c-6.381-11.037-20.513-14.819-31.565-8.446
	c-11.052,6.372-14.839,20.485-8.458,31.522c6.381,11.037,20.513,14.819,31.565,8.446C362.63,304.323,366.417,290.21,360.036,279.173
	z"/>
<path style="fill:#4F4F51;" d="M340.026,267.637c-17.639-0.018-28.946,19.162-20.013,34.611
	c8.931,15.447,31.218,15.262,40.022-0.003C352.056,302.238,331.15,283.025,340.026,267.637z"/>
<path d="M468.146,253.414l0.01-49.568c0-147.064-157.968-245.83-298.034-186.185c-3.809,1.622-5.583,6.025-3.96,9.835
	c1.621,3.808,6.018,5.582,9.835,3.96C247.803,0.88,332.183,14.253,390.073,65.571c15.47,22.487,16.671,80.651,15.811,101.352
	c-0.073,1.742,0.189-7.209,0.205,22.153c0,35.647,21.599,57.934,22.12,58.83c0.065,5.535,0.019,3.924,0.05,84.359
	c0,37.994-13.827,75.049-38.935,104.339c-2.694,3.144-2.331,7.876,0.813,10.57c3.158,2.707,7.889,2.316,10.57-0.813
	c52.823-61.623,40.901-127.044,42.541-138.612C469.754,302.925,484.565,274.934,468.146,253.414z M439.411,237.93
	c-0.499-0.859-18.328-18.956-18.328-48.852c0.08-31.481,0.853-64.901-5.283-95.772c49.034,64.597,34.925,126.69,37.355,148.261
	C448.924,239.626,444.282,238.356,439.411,237.93z M443.252,292.316v-38.437c9.424,2.846,16.782,10.729,16.782,19.218
	S452.676,289.471,443.252,292.316z"/>
<path d="M234.902,306.179c-4.141,0-7.497,3.356-7.497,7.497v12.082c0,15.767,12.827,28.595,28.595,28.595
	s28.596-12.827,28.596-28.595v-12.082c0-4.141-3.356-7.497-7.497-7.497c-4.141,0-7.497,3.356-7.497,7.497v12.082
	c0,7.5-6.101,13.601-13.602,13.601c-7.5,0-13.601-6.101-13.601-13.601v-12.082C242.399,309.536,239.043,306.179,234.902,306.179z"/>
<path d="M339.981,321.173c16.876,0,30.604-13.728,30.604-30.604c0-16.876-13.728-30.604-30.604-30.604s-30.604,13.728-30.604,30.604
	C309.377,307.445,323.105,321.173,339.981,321.173z M339.981,274.959c8.607,0,15.61,7.003,15.61,15.61s-7.003,15.61-15.61,15.61
	s-15.61-7.003-15.61-15.61S331.372,274.959,339.981,274.959z"/>
<path d="M172.022,259.965c-16.876,0-30.605,13.728-30.605,30.604c0,16.876,13.729,30.604,30.605,30.604s30.604-13.728,30.604-30.604
	C202.626,273.693,188.897,259.965,172.022,259.965z M172.022,306.179c-8.608,0-15.611-7.003-15.611-15.61s7.003-15.61,15.611-15.61
	c8.607,0,15.61,7.003,15.61,15.61S180.63,306.179,172.022,306.179z"/>
<path d="M378.182,242.744c-22.293-9.329-54.075-9.344-76.405,0c-3.819,1.599-5.62,5.99-4.021,9.81
	c1.599,3.818,5.987,5.62,9.81,4.021c8.981-3.759,20.493-5.829,32.414-5.829c21.767,0,32.042,6.412,35.305,6.412
	C378.216,257.158,385.705,245.892,378.182,242.744z"/>
<path d="M211.09,245.644c-22.659-13.137-55.323-13.227-78.136,0c-3.582,2.077-4.803,6.664-2.726,10.246
	c2.071,3.57,6.655,4.808,10.246,2.726c18.11-10.5,45.02-10.48,63.096,0c3.582,2.077,8.17,0.858,10.246-2.726
	C215.893,252.308,214.671,247.72,211.09,245.644z"/>
<path d="M123.384,459.169c69.377,66.767,178.033,69.524,250.955,12.391c3.259-2.553,3.83-7.266,1.276-10.524
	c-2.553-3.259-7.265-3.831-10.524-1.276c-110.787,86.8-281.349,12.706-281.349-127.49c0.042-75.331-0.025-77.768,0.051-84.359
	l1.518-1.825c29.168-35.086,17.387-64.43,21.773-120.707c2.175-27.897,7.198-48.383,14.55-59.401
	c7.626-6.838,15.826-13.124,24.557-18.745c3.482-2.241,4.487-6.881,2.246-10.362c-2.241-3.483-6.881-4.482-10.362-2.246
	c-47.059,30.294-79.471,77.209-90.19,130.173c-0.942,4.649,2.616,8.986,7.355,8.986c3.493,0,6.62-2.455,7.34-6.011
	c5.416-26.755,17.05-52.051,33.586-74.041c-6.121,30.989-5.212,58.194-5.247,95.349c0,17.287-6.086,34.127-17.139,47.42
	l-1.189,1.431c-4.834,0.424-9.441,1.676-13.646,3.591c0.013-11.523,0.023-24.072,0.023-37.674c0-4.141-3.356-7.497-7.497-7.497
	s-7.497,3.356-7.497,7.497c0,18.397-0.018,34.882-0.039,49.467c-16.557,21.542-1.708,49.608,24.818,54.437
	C70.586,318.848,56.482,394.784,123.384,459.169z M68.749,292.316c-9.424-2.847-16.782-10.731-16.782-19.221
	c0-8.487,7.358-16.372,16.782-19.218V292.316z"/>
<path d="M196.396,410.464L196.396,410.464c24.6,47.334,91.843,48.933,118.726,3.179c5.738-9.763-1.285-22.049-12.6-22.049h-94.66
	C198.167,391.594,191.932,401.872,196.396,410.464z M301.873,406.587c-20.589,34.09-70.297,33.441-90.467,0H301.873z"/>
<g>
</g>
<g>
</g>
<g>
</g>
<g>
</g>
<g>
</g>
<g>
</g>
<g>
</g>
<g>
</g>
<g>
</g>
<g>
</g>
<g>
</g>
<g>
</g>
<g>
</g>
<g>
</g>
<g>
</g>
</svg>
