<?xml version="1.0" encoding="iso-8859-1"?>
<!-- Generator: Adobe Illustrator 19.0.0, SVG Export Plug-In . SVG Version: 6.00 Build 0)  -->
<svg version="1.1" id="Capa_1" xmlns="http://www.w3.org/2000/svg" xmlns:xlink="http://www.w3.org/1999/xlink" x="0px" y="0px"
	 viewBox="0 0 511.999 511.999" style="enable-background:new 0 0 511.999 511.999;" xml:space="preserve">
<path style="fill:#EB161C;" d="M94.095,168.744c0-89.037,72.18-161.217,161.217-161.217s161.217,72.18,161.217,161.217
	c0,119.88-72.18,210.823-161.217,210.823S94.095,281.734,94.095,168.744z"/>
<path style="fill:#C60A18;" d="M312.536,357.48c-89.037,0-161.217-97.833-161.217-210.823c0-57.598,30.211-108.132,75.645-136.644
	C151.445,23.411,94.095,89.379,94.095,168.744c0,112.99,72.18,210.823,161.217,210.823c26.941,0,52.333-8.34,74.655-23.274
	C324.24,357.071,318.426,357.48,312.536,357.48z"/>
<path style="fill:#EB161C;" d="M224.723,404.312h59.801c6.834,0,12.372-5.54,12.372-12.372l0,0c0-6.834-5.54-12.372-12.372-12.372
	h-59.801c-6.834,0-12.372,5.54-12.372,12.372l0,0C212.35,398.773,217.889,404.312,224.723,404.312z"/>
<circle style="fill:#F94B58;" cx="332.297" cy="116.856" r="31.121"/>
<path d="M254.019,15.064c86.596-0.699,156.186,71.099,154.954,157.688c-0.809,56.848-18.791,109.778-49.818,146.962
	c-2.575,3.087-2.234,7.66,0.743,10.362l0.005,0.005c3.175,2.882,8.106,2.529,10.856-0.761
	c15.823-18.932,28.446-41.375,37.573-66.828c9.863-27.505,15.131-57.19,15.68-88.315C425.675,79.856,350.756,0.598,256.421,0.004
	c-36.163-0.228-70.394,10.677-99.436,31.582c-3.489,2.511-4.182,7.426-1.515,10.797l0.001,0.001
	c2.485,3.14,7.007,3.805,10.256,1.465C191.564,25.239,221.917,15.323,254.019,15.064z"/>
<path d="M424.789,501.417c-0.728-1.64-18.16-40.276-48.776-49.627c-19.623-5.991-28.98-5.014-43.149-3.539
	c-7.841,0.817-17.598,1.835-32.084,1.835c-14.886,0-25.436-5.041-32.251-15.407c-4.642-7.062-6.801-15.468-7.75-22.839h23.3
	c10.495,0,19.523-7.948,20.293-18.414c0.385-5.245-1.289-10.093-4.28-13.85c15.688-5.399,30.659-13.658,44.506-24.628
	c3.376-2.674,3.848-7.624,1.019-10.87l-0.002-0.003c-2.634-3.023-7.183-3.456-10.324-0.966
	c-23.907,18.949-51.419,28.923-79.978,28.923c-40.356,0-78.709-21.326-107.992-60.051c-29.041-38.404-45.697-90.614-45.697-143.242
	c0-38.209,13.901-74.379,39.294-102.628c2.674-2.976,2.495-7.541-0.356-10.348l0,0c-3.065-3.017-8.027-2.855-10.901,0.344
	c-27.85,31.01-43.096,70.704-43.096,112.633c0,56.66,17.311,110.756,48.744,152.324c21.079,27.876,46.627,47.549,74.436,57.814
	c-3.261,3.735-5.168,8.68-4.897,14.074c0.536,10.671,9.68,18.89,20.364,18.89h20.409c1.043,9.601,3.774,21.145,10.326,31.11
	c9.544,14.52,25.048,22.194,44.834,22.194c15.269,0,25.458-1.063,33.646-1.915c13.212-1.379,20.488-2.137,37.19,2.963
	c24.002,7.331,39.259,40.997,39.408,41.328c1.245,2.809,4,4.479,6.887,4.479c1.02,0,2.056-0.208,3.048-0.649
	C424.758,509.667,426.474,505.219,424.789,501.417z M219.879,391.939c0-2.67,2.173-4.843,4.844-4.843h59.8
	c2.67,0,4.843,2.172,4.843,4.843c0,2.67-2.172,4.843-4.843,4.843h-59.8C222.052,396.782,219.879,394.609,219.879,391.939z"/>
<g>
</g>
<g>
</g>
<g>
</g>
<g>
</g>
<g>
</g>
<g>
</g>
<g>
</g>
<g>
</g>
<g>
</g>
<g>
</g>
<g>
</g>
<g>
</g>
<g>
</g>
<g>
</g>
<g>
</g>
</svg>
