<?xml version="1.0" encoding="iso-8859-1"?>
<!-- Generator: Adobe Illustrator 19.0.0, SVG Export Plug-In . SVG Version: 6.00 Build 0)  -->
<svg version="1.1" id="Capa_1" xmlns="http://www.w3.org/2000/svg" xmlns:xlink="http://www.w3.org/1999/xlink" x="0px" y="0px"
	 viewBox="0 0 512 512" style="enable-background:new 0 0 512 512;" xml:space="preserve">
<rect x="7.604" y="7.604" style="fill:#748789;" width="496.792" height="496.792"/>
<rect x="38.159" y="38.161" style="fill:#E9EEF1;" width="435.687" height="435.687"/>
<polygon style="fill:#DC1100;" points="38.159,417.507 38.159,473.847 52.221,473.847 203.966,218.162 322.324,360.396 
	473.845,87.586 473.845,38.161 454.815,38.161 315.196,288.422 197.335,146.786 "/>
<path d="M504.396,0H7.604C3.405,0,0,3.405,0,7.604v496.792C0,508.595,3.405,512,7.604,512h496.792c4.199,0,7.604-3.405,7.604-7.604
	V7.604C512,3.405,508.596,0,504.396,0z M496.792,496.792H15.208V15.208h481.584V496.792z"/>
<path d="M38.159,481.451h359.39c4.199,0,7.604-3.405,7.604-7.604l0,0c0-4.199-3.405-7.604-7.604-7.604H372.53v-93.721h93.711v93.721
	h-33.207c-4.199,0-7.604,3.405-7.604,7.604l0,0c0,4.199,3.405,7.604,7.604,7.604h40.811c4.199,0,7.604-3.405,7.604-7.604V38.161
	c0-4.199-3.405-7.604-7.604-7.604H38.159c-4.199,0-7.604,3.405-7.604,7.604v435.687C30.555,478.048,33.959,481.451,38.159,481.451z
	 M263.601,68.422V45.765h93.721v93.711h-93.721v-35.567c0-4.199-3.405-7.604-7.604-7.604l0,0c-4.199,0-7.604,3.405-7.604,7.604
	v35.567h-93.711V45.765h93.711v22.657c0,4.199,3.405,7.604,7.604,7.604l0,0C260.196,76.026,263.601,72.622,263.601,68.422z
	 M328.82,248.395H291.78l-28.179-33.863v-59.848h93.721v42.622L328.82,248.395z M320.336,263.603l-6.381,11.438l-9.518-11.438
	H320.336z M213.798,154.684h34.595v41.572L213.798,154.684z M372.53,154.684h8.57l-8.57,15.362V154.684z M389.585,139.476H372.53
	V45.765h69.336L389.585,139.476z M183.871,154.684l-29.189,49.643v-49.643H183.871z M139.474,230.192l-10.703,18.203H45.763v-93.711
	h93.711V230.192z M119.829,263.603L64.73,357.314H45.763v-93.711H119.829z M55.788,372.522l-10.024,17.049v-17.049H55.788z
	 M185.839,263.603h46.049l16.506,19.835v73.876h-93.711v-41.212L185.839,263.603z M194.864,248.395l10.145-17.093l14.223,17.093
	H194.864z M309.866,357.314h-46.266v-55.599L309.866,357.314z M248.393,372.522v93.721h-93.711v-93.721H248.393z M139.474,357.314
	h-9.25l9.25-15.587V357.314z M121.198,372.522h18.276v93.721H65.576L121.198,372.522z M357.322,466.243h-93.721v-93.721h93.721
	V466.243z M332.734,357.314l24.588-44.271v44.271L332.734,357.314L332.734,357.314z M372.53,357.314v-71.652l12.251-22.06h81.46
	v93.711H372.53z M445.277,154.684h20.965v93.711h-73.013L445.277,154.684z M453.724,139.476l12.518-22.537v22.537H453.724z
	 M466.241,85.617L321.068,346.999L209.811,213.298c-1.581-1.899-3.991-2.908-6.446-2.716c-2.463,0.196-4.676,1.576-5.937,3.699
	L47.892,466.243h-2.128v-46.666l152.645-259.612l110.944,133.322c1.603,1.926,4.056,2.938,6.548,2.707
	c2.495-0.232,4.716-1.678,5.937-3.867L459.28,45.765h6.961V85.617z M139.474,45.765v93.711H45.763V45.765H139.474z"/>
<g>
</g>
<g>
</g>
<g>
</g>
<g>
</g>
<g>
</g>
<g>
</g>
<g>
</g>
<g>
</g>
<g>
</g>
<g>
</g>
<g>
</g>
<g>
</g>
<g>
</g>
<g>
</g>
<g>
</g>
</svg>
