<?xml version="1.0" encoding="iso-8859-1"?>
<!-- Generator: Adobe Illustrator 19.0.0, SVG Export Plug-In . SVG Version: 6.00 Build 0)  -->
<svg version="1.1" id="Capa_1" xmlns="http://www.w3.org/2000/svg" xmlns:xlink="http://www.w3.org/1999/xlink" x="0px" y="0px"
	 viewBox="0 0 512 512" style="enable-background:new 0 0 512 512;" xml:space="preserve">
<rect x="7.604" y="7.604" style="fill:#748789;" width="496.792" height="496.792"/>
<rect x="38.155" y="38.161" style="fill:#E9EEF1;" width="435.687" height="435.687"/>
<rect x="112.508" y="201.231" style="fill:#FDB900;" width="69.135" height="272.617"/>
<rect x="221.437" y="302.486" style="fill:#DC1100;" width="69.135" height="171.363"/>
<rect x="330.357" y="103.302" style="fill:#00B6D0;" width="69.135" height="370.536"/>
<path d="M504.396,0H7.604C3.405,0,0,3.405,0,7.604v496.792C0,508.595,3.405,512,7.604,512h496.792c4.199,0,7.604-3.405,7.604-7.604
	V7.604C512,3.405,508.596,0,504.396,0z M496.792,496.792H15.208V15.208h481.584V496.792z"/>
<path d="M38.155,481.451h74.35h69.14h39.79h69.139h39.779h69.14h74.35c4.199,0,7.604-3.405,7.604-7.604V38.161
	c0-4.199-3.405-7.604-7.604-7.604H38.155c-4.199,0-7.604,3.405-7.604,7.604v435.687C30.551,478.047,33.955,481.451,38.155,481.451z
	 M120.108,466.243V429.85c0-4.199-3.405-7.604-7.604-7.604l0,0c-4.199,0-7.604,3.405-7.604,7.604v36.394H45.759v-93.721H104.9
	v21.842c0,4.199,3.405,7.604,7.604,7.604l0,0c4.199,0,7.604-3.405,7.604-7.604V208.837h53.932v257.406L120.108,466.243
	L120.108,466.243z M330.353,95.703c-4.199,0-7.604,3.405-7.604,7.604v36.169h-59.142V45.765h93.711v49.939
	C357.318,95.703,330.353,95.703,330.353,95.703z M248.399,139.476h-93.721V45.765h93.721V139.476z M248.399,154.684v93.711h-59.152
	v-47.162c0-4.199-3.405-7.604-7.604-7.604h-26.966v-38.945H248.399z M298.178,372.522h24.571v93.721h-24.571V372.522z
	 M322.749,357.314h-24.571v-54.829c0-4.199-3.405-7.604-7.604-7.604h-26.966v-31.279h59.142v93.711H322.749z M248.399,294.882
	h-26.966c-4.199,0-7.604,3.405-7.604,7.604v54.829h-24.582v-93.711h59.152V294.882z M189.248,372.522h24.582v93.721h-24.582V372.522
	z M139.47,193.629h-26.967c-4.199,0-7.604,3.405-7.604,7.604v47.162H45.759v-93.711h93.711V193.629z M104.9,263.603v93.711H45.759
	v-93.711H104.9z M229.037,466.243V310.09h53.931v156.154L229.037,466.243L229.037,466.243z M337.957,466.243V201.234
	c0-4.199-3.405-7.604-7.604-7.604l0,0c-4.199,0-7.604,3.405-7.604,7.604v47.162h-59.142v-93.711h59.142v11.063
	c0,4.199,3.405,7.604,7.604,7.604l0,0c4.199,0,7.604-3.405,7.604-7.604v-54.836h53.932v355.332h-53.932V466.243z M407.097,154.684
	h59.142v93.711h-59.142V154.684z M407.097,263.603h59.142v93.711h-59.142V263.603z M407.097,466.243v-93.721h59.142v93.721H407.097z
	 M466.237,139.476h-59.142v-36.168c0-4.199-3.405-7.604-7.604-7.604h-26.966V45.765h93.711L466.237,139.476L466.237,139.476z
	 M139.47,45.765v93.711H45.759V45.765H139.47z"/>
<g>
</g>
<g>
</g>
<g>
</g>
<g>
</g>
<g>
</g>
<g>
</g>
<g>
</g>
<g>
</g>
<g>
</g>
<g>
</g>
<g>
</g>
<g>
</g>
<g>
</g>
<g>
</g>
<g>
</g>
</svg>
