<?xml version="1.0" encoding="iso-8859-1"?>
<!-- Generator: Adobe Illustrator 19.0.0, SVG Export Plug-In . SVG Version: 6.00 Build 0)  -->
<svg version="1.1" id="Capa_1" xmlns="http://www.w3.org/2000/svg" xmlns:xlink="http://www.w3.org/1999/xlink" x="0px" y="0px"
	 viewBox="0 0 512 512" style="enable-background:new 0 0 512 512;" xml:space="preserve">
<rect x="153.235" y="141.938" style="fill:#E6E6E6;" width="205.53" height="322.989"/>
<rect x="270.197" y="164.684" style="fill:#F2F2F2;" width="45.633" height="277.498"/>
<rect x="153.235" y="141.938" style="fill:#CCCCCC;" width="62.203" height="321.894"/>
<path style="fill:#9AA7AD;" d="M350.87,102.472c0-52.395-42.475-94.87-94.87-94.87s-94.87,42.475-94.87,94.87"/>
<path style="fill:#838F93;" d="M275.267,9.562c-6.221-1.284-12.665-1.96-19.267-1.96c-52.395,0-94.87,42.475-94.87,94.87h38.534
	C199.665,56.679,232.111,18.465,275.267,9.562z"/>
<g>
	<path style="fill:#C4C7D0;" d="M354.323,164.684H157.677c-17.179,0-31.106-13.927-31.106-31.106l0,0
		c0-17.179,13.927-31.106,31.106-31.106h196.647c17.179,0,31.106,13.927,31.106,31.106l0,0
		C385.43,150.758,371.503,164.684,354.323,164.684z"/>
	<path style="fill:#C4C7D0;" d="M354.323,504.395H157.677c-17.179,0-31.106-13.927-31.106-31.106l0,0
		c0-17.179,13.927-31.106,31.106-31.106h196.647c17.179,0,31.106,13.927,31.106,31.106l0,0
		C385.43,490.468,371.503,504.395,354.323,504.395z"/>
</g>
<g>
	<path style="fill:#ACAFB7;" d="M214.46,164.684h-56.787c-17.178,0-31.101-13.923-31.101-31.101c0-8.589,3.478-16.377,9.106-22.005
		s13.406-9.106,21.995-9.106h56.787c-8.589,0-16.367,3.478-21.995,9.106c-5.628,5.628-9.106,13.416-9.106,22.005
		C183.359,150.761,197.282,164.684,214.46,164.684z"/>
	<path style="fill:#ACAFB7;" d="M214.46,504.395h-56.787c-17.178,0-31.101-13.923-31.101-31.101c0-8.589,3.478-16.377,9.106-22.005
		c5.628-5.628,13.406-9.106,21.995-9.106h56.787c-8.589,0-16.367,3.478-21.995,9.106c-5.628,5.628-9.106,13.416-9.106,22.005
		C183.359,490.471,197.282,504.395,214.46,504.395z"/>
</g>
<polygon style="fill:#005873;" points="234.005,164.684 153.235,203.34 153.235,164.684 "/>
<polygon style="fill:#0071AB;" points="358.765,284.11 358.765,343.818 315.83,364.364 270.197,386.207 215.438,412.409 
	153.235,442.182 153.235,382.474 215.438,352.702 270.197,326.498 315.83,304.655 "/>
<g>
	<polygon style="fill:#F81629;" points="358.765,164.684 358.765,224.392 315.83,244.938 270.197,266.78 215.438,292.983 
		153.235,322.756 153.235,263.048 215.438,233.276 270.197,207.071 315.83,185.229 	"/>
	<polygon style="fill:#F81629;" points="358.765,403.526 358.765,442.182 277.995,442.182 315.83,424.071 	"/>
</g>
<polygon style="fill:#AC1C3E;" points="215.438,233.276 215.438,292.983 153.235,322.756 153.235,263.048 "/>
<polygon style="fill:#FF7A88;" points="277.995,442.182 315.83,424.071 315.83,442.182 "/>
<polygon style="fill:#005873;" points="215.438,352.702 215.438,412.409 153.235,442.182 153.235,382.474 "/>
<polygon style="fill:#FF7A88;" points="315.83,185.229 315.83,244.938 270.197,266.78 270.197,207.071 "/>
<polygon style="fill:#83BEDA;" points="270.197,326.498 315.83,304.655 315.83,364.364 270.197,386.207 "/>
<circle style="fill:#C4C7D0;" cx="303.701" cy="70.845" r="16.186"/>
<path d="M366.371,436.506V170.36c15.463-5.077,26.665-19.642,26.665-36.782c0-20.037-15.302-36.566-34.834-38.517
	C354.39,42.003,310.01,0,256,0c-18.446,0-36.244,4.859-51.947,14.121c-3.847,2.269-4.984,7.309-2.413,10.963l0.001,0.002
	c2.265,3.22,6.633,4.211,10.021,2.207c13.395-7.924,28.587-12.082,44.339-12.082c45.551,0,83.04,35.091,86.908,79.656H169.081
	c1.461-16.841,7.744-32.818,18.161-46.121c2.464-3.147,2.165-7.637-0.773-10.346l0,0c-3.273-3.02-8.419-2.585-11.166,0.92
	c-12.57,16.035-20.017,35.383-21.48,55.74c-19.543,1.941-34.858,18.474-34.858,38.519c0,17.14,11.201,31.706,26.665,36.782v266.146
	c-15.733,5.166-27.054,20.153-26.655,37.682c0.482,21.147,18.277,37.812,39.43,37.812H279.83c4.199,0,7.603-3.404,7.603-7.603
	v-0.003c0-4.199-3.404-7.603-7.603-7.603H158.255c-12.726,0-23.58-9.876-24.061-22.593c-0.506-13.369,10.224-24.409,23.484-24.409
	h196.07c12.726,0,23.58,9.876,24.061,22.593c0.506,13.369-10.224,24.408-23.484,24.408h-39.003c-4.199,0-7.603,3.404-7.603,7.603
	v0.003c0,4.199,3.404,7.603,7.603,7.603h38.274c21.153,0,38.948-16.665,39.43-37.812
	C393.425,456.66,382.104,441.672,366.371,436.506z M160.84,208.131l74.888-35.842h89.527L160.84,250.977V208.131z M160.84,191.269
	v-18.98h39.657L160.84,191.269z M160.84,267.839l190.319-91.084v42.85L160.84,310.689L160.84,267.839L160.84,267.839z
	 M160.84,327.551l190.319-91.084v42.849L160.84,370.4L160.84,327.551L160.84,327.551z M160.84,387.262l190.319-91.084v42.85
	L160.84,430.112L160.84,387.262L160.84,387.262z M351.16,355.889v42.846l-74.888,35.842h-89.528L351.16,355.889z M134.176,133.578
	c0-12.958,10.542-23.501,23.501-23.501h196.647c12.958,0,23.501,10.542,23.501,23.501s-10.543,23.5-23.501,23.5H157.677
	C144.719,157.078,134.176,146.536,134.176,133.578z M311.503,434.577l39.657-18.98v18.98H311.503z"/>
<g>
</g>
<g>
</g>
<g>
</g>
<g>
</g>
<g>
</g>
<g>
</g>
<g>
</g>
<g>
</g>
<g>
</g>
<g>
</g>
<g>
</g>
<g>
</g>
<g>
</g>
<g>
</g>
<g>
</g>
</svg>
