<?xml version="1.0" encoding="iso-8859-1"?>
<!-- Generator: Adobe Illustrator 19.0.0, SVG Export Plug-In . SVG Version: 6.00 Build 0)  -->
<svg version="1.1" id="Capa_1" xmlns="http://www.w3.org/2000/svg" xmlns:xlink="http://www.w3.org/1999/xlink" x="0px" y="0px"
	 viewBox="0 0 512 512" style="enable-background:new 0 0 512 512;" xml:space="preserve">
<rect x="311.532" y="7.607" style="fill:#6D8188;" width="77.591" height="22.82"/>
<rect x="311.532" y="7.607" style="fill:#4F6166;" width="30.426" height="22.82"/>
<polyline style="fill:#3A4751;" points="416.399,177.12 416.399,64.314 95.608,64.314 95.608,177.12 95.608,357.7 95.608,470.506 
	416.399,470.506 416.399,357.7 "/>
<polygon style="fill:#53626B;" points="385.973,177.12 385.973,64.314 340.433,64.314 340.433,177.12 340.433,357.7 
	340.433,470.506 385.973,470.506 385.973,357.7 "/>
<polyline style="fill:#2C383F;" points="182.216,177.12 182.216,64.314 95.608,64.314 95.608,177.12 95.608,357.7 95.608,470.506 
	182.216,470.506 182.216,357.7 "/>
<g>
	<path style="fill:#2A343E;" d="M425.418,64.314H86.582c-9.358,0-16.943-7.586-16.943-16.943l0,0
		c0-9.358,7.586-16.943,16.943-16.943h338.838c9.358,0,16.943,7.586,16.943,16.943l0,0
		C442.362,56.728,434.776,64.314,425.418,64.314z"/>
	<path style="fill:#2A343E;" d="M425.418,211.007H86.582c-9.358,0-16.943-7.586-16.943-16.943l0,0
		c0-9.358,7.586-16.943,16.943-16.943h338.838c9.358,0,16.943,7.586,16.943,16.943l0,0
		C442.362,203.421,434.776,211.007,425.418,211.007z"/>
	<path style="fill:#2A343E;" d="M425.418,357.7H86.582c-9.358,0-16.943-7.586-16.943-16.943l0,0c0-9.358,7.586-16.943,16.943-16.943
		h338.838c9.358,0,16.943,7.586,16.943,16.943l0,0C442.362,350.114,434.776,357.7,425.418,357.7z"/>
	<path style="fill:#2A343E;" d="M425.418,504.393H86.582c-9.358,0-16.943-7.586-16.943-16.943l0,0
		c0-9.358,7.586-16.943,16.943-16.943h338.838c9.358,0,16.943,7.586,16.943,16.943l0,0
		C442.362,496.807,434.776,504.393,425.418,504.393z"/>
</g>
<g>
	<path style="fill:#13191E;" d="M158.082,64.314H86.587c-9.362,0-16.948-7.587-16.948-16.948c0-4.676,1.897-8.915,4.96-11.978
		c3.073-3.063,7.313-4.96,11.989-4.96h71.496c-4.676,0-8.905,1.897-11.978,4.96c-3.063,3.063-4.96,7.303-4.96,11.978
		C141.144,56.727,148.731,64.314,158.082,64.314z"/>
	<path style="fill:#13191E;" d="M158.082,211.007H86.587c-9.362,0-16.948-7.587-16.948-16.948c0-4.676,1.897-8.905,4.96-11.978
		c3.073-3.063,7.313-4.96,11.989-4.96h71.496c-4.676,0-8.905,1.897-11.978,4.96c-3.063,3.073-4.96,7.303-4.96,11.978
		C141.144,203.42,148.731,211.007,158.082,211.007z"/>
	<path style="fill:#13191E;" d="M158.082,357.7H86.587c-9.362,0-16.948-7.587-16.948-16.948c0-4.676,1.897-8.915,4.96-11.978
		c3.073-3.063,7.313-4.96,11.989-4.96h71.496c-4.676,0-8.905,1.897-11.978,4.96c-3.063,3.063-4.96,7.303-4.96,11.978
		C141.144,350.113,148.731,357.7,158.082,357.7z"/>
	<path style="fill:#13191E;" d="M158.082,504.393H86.587c-9.362,0-16.948-7.587-16.948-16.948c0-4.676,1.897-8.905,4.96-11.978
		c3.073-3.063,7.313-4.96,11.989-4.96h71.496c-4.676,0-8.905,1.897-11.978,4.96c-3.063,3.073-4.96,7.303-4.96,11.978
		C141.144,496.806,148.731,504.393,158.082,504.393z"/>
</g>
<g>
	<path style="fill:#53626B;" d="M345.004,64.314h41.066c9.362,0,16.948-7.587,16.948-16.948c0-4.676-1.897-8.915-4.96-11.978
		c-3.073-3.063-7.313-4.96-11.989-4.96h-41.066c4.676,0,8.905,1.897,11.978,4.96c3.063,3.063,4.96,7.303,4.96,11.978
		C361.943,56.727,354.356,64.314,345.004,64.314z"/>
	<path style="fill:#53626B;" d="M345.004,211.007h41.066c9.362,0,16.948-7.587,16.948-16.948c0-4.676-1.897-8.905-4.96-11.978
		c-3.073-3.063-7.313-4.96-11.989-4.96h-41.066c4.676,0,8.905,1.897,11.978,4.96c3.063,3.073,4.96,7.303,4.96,11.978
		C361.943,203.42,354.356,211.007,345.004,211.007z"/>
	<path style="fill:#53626B;" d="M345.004,357.7h41.066c9.362,0,16.948-7.587,16.948-16.948c0-4.676-1.897-8.915-4.96-11.978
		c-3.073-3.063-7.313-4.96-11.989-4.96h-41.066c4.676,0,8.905,1.897,11.978,4.96c3.063,3.063,4.96,7.303,4.96,11.978
		C361.943,350.113,354.356,357.7,345.004,357.7z"/>
	<path style="fill:#53626B;" d="M345.004,504.393h41.066c9.362,0,16.948-7.587,16.948-16.948c0-4.676-1.897-8.905-4.96-11.978
		c-3.073-3.063-7.313-4.96-11.989-4.96h-41.066c4.676,0,8.905,1.897,11.978,4.96c3.063,3.073,4.96,7.303,4.96,11.978
		C361.943,496.806,354.356,504.393,345.004,504.393z"/>
</g>
<path d="M425.418,218.614c13.396,0,24.321-10.786,24.547-24.129c0.232-13.732-11.371-24.971-25.105-24.971h-0.854V71.921h0.855
	c13.734,0,25.336-11.239,25.104-24.971c-0.226-13.344-11.151-24.129-24.547-24.129h-28.696V7.607c0-4.201-3.406-7.607-7.607-7.607
	h-77.587c-4.201,0-7.607,3.406-7.607,7.607V22.82H87.14c-13.734,0-25.337,11.239-25.105,24.972
	c0.226,13.344,11.151,24.128,24.547,24.128h1.419v97.593H87.14c-13.734,0-25.337,11.239-25.105,24.971
	c0.225,13.344,11.151,24.129,24.547,24.129h1.419v97.593H87.14c-13.734,0-25.337,11.239-25.105,24.971
	c0.225,13.344,11.151,24.129,24.547,24.129h1.419v11.257c0,4.201,3.406,7.607,7.607,7.607l0,0c4.201,0,7.607-3.406,7.607-7.607
	v-11.257h305.577v97.593H103.215v-50.835c0-4.201-3.406-7.607-7.607-7.607l0,0c-4.201,0-7.607,3.406-7.607,7.607v50.835H87.14
	c-13.734,0-25.337,11.239-25.105,24.971C62.26,501.214,73.185,512,86.582,512H424.86c13.734,0,25.337-11.239,25.105-24.971
	c-0.225-13.344-11.151-24.129-24.547-24.129h-1.413v-97.593h0.854c13.734,0,25.337-11.239,25.105-24.971
	c-0.225-13.344-11.151-24.129-24.547-24.129h-1.413v-97.593H425.418z M319.135,15.214h62.373v7.606h-62.373V15.214z M77.245,47.37
	c0-5.148,4.189-9.336,9.336-9.336h224.947h77.587h36.303c5.148,0,9.336,4.188,9.336,9.336s-4.188,9.336-9.336,9.336H86.582
	C81.434,56.707,77.245,52.519,77.245,47.37z M434.755,487.45c0,5.148-4.188,9.336-9.336,9.336H86.582
	c-5.147,0-9.336-4.188-9.336-9.336c0-5.148,4.189-9.336,9.336-9.336h9.017c0.003,0,0.006,0,0.01,0h320.791c0.003,0,0.006,0,0.01,0
	h9.01C430.567,478.113,434.755,482.301,434.755,487.45z M77.267,193.424c0.332-4.957,4.677-8.697,9.645-8.697h208.861
	c4.201,0,7.607-3.406,7.607-7.607l0,0c0-4.201-3.406-7.607-7.607-7.607H103.215V71.921h305.577v97.593h-77.52
	c-4.201,0-7.607,3.406-7.607,7.607l0,0c0,4.201,3.406,7.607,7.607,7.607h93.816c4.968,0,9.312,3.741,9.645,8.697
	c0.364,5.436-3.955,9.976-9.315,9.976H86.582C81.222,203.4,76.903,198.86,77.267,193.424z M434.755,340.757
	c0,5.148-4.188,9.336-9.336,9.336H86.582c-5.147,0-9.336-4.188-9.336-9.336s4.189-9.336,9.336-9.336h338.837
	C430.567,331.42,434.755,335.608,434.755,340.757z M408.791,316.206H103.215v-97.593h305.577V316.206z"/>
<g>
</g>
<g>
</g>
<g>
</g>
<g>
</g>
<g>
</g>
<g>
</g>
<g>
</g>
<g>
</g>
<g>
</g>
<g>
</g>
<g>
</g>
<g>
</g>
<g>
</g>
<g>
</g>
<g>
</g>
</svg>
