<?xml version="1.0" encoding="iso-8859-1"?>
<!-- Generator: Adobe Illustrator 19.0.0, SVG Export Plug-In . SVG Version: 6.00 Build 0)  -->
<svg version="1.1" id="Capa_1" xmlns="http://www.w3.org/2000/svg" xmlns:xlink="http://www.w3.org/1999/xlink" x="0px" y="0px"
	 viewBox="0 0 512 512" style="enable-background:new 0 0 512 512;" xml:space="preserve">
<path style="fill:#DCE4EA;" d="M29.489,267.501v49.957c0,52.525,30.483,97.924,74.736,119.459l34.655,11.286
	c7.597,1.35,15.422,2.062,23.417,2.062h137.462c19.775,0,38.803-3.147,56.636-8.947l36.271-16.399
	c53.779-31.809,89.857-90.399,89.857-157.418"/>
<path style="fill:#C2CBD4;" d="M169.616,436.917c-44.253-21.535-74.736-66.935-74.736-119.459v-49.956H29.489v49.956
	c0,52.525,30.483,97.924,74.736,119.459l34.655,11.286c7.597,1.35,15.422,2.061,23.417,2.061h65.391
	c-7.994,0-15.82-0.711-23.417-2.061L169.616,436.917z"/>
<path style="fill:#BBC2C8;" d="M334.513,92.347V74.75c0-22.612,18.419-41.114,41.114-41.114c22.695,0,41.114,18.501,41.114,41.114
	v148.996h24.668V74.75c0-36.263-29.52-65.782-65.782-65.782s-65.782,29.52-65.782,65.782v17.597"/>
<g>
	<path style="fill:#979FA5;" d="M367.404,33.636c-22.695,0-41.114,18.501-41.114,41.114v17.597h8.222V74.75
		c0-21.209,16.264-38.596,37.003-40.697C370.144,33.914,368.812,33.636,367.404,33.636z"/>
	<path style="fill:#979FA5;" d="M375.627,8.968c-1.388,0-2.745,0.123-4.111,0.208c34.347,2.141,61.671,30.699,61.671,65.574v148.996
		h8.222V74.75C441.409,38.487,411.889,8.968,375.627,8.968z"/>
</g>
<path style="fill:#CFD6DE;" d="M279.256,129.842c1.891-22.037,20.393-39.304,42.923-39.304c22.53,0,41.032,17.268,42.923,39.304"/>
<path style="fill:#BAC1C6;" d="M322.179,90.537c-2.695,0-5.322,0.279-7.88,0.751c18.828,3.479,33.377,19.152,35.043,38.554h15.759
	C363.211,107.805,344.71,90.537,322.179,90.537z"/>
<path style="fill:#BBC2C8;" d="M363.293,158.375h-82.227c-7.948,0-14.39-6.442-14.39-14.39l0,0c0-7.948,6.442-14.39,14.39-14.39
	h82.227c7.948,0,14.39,6.442,14.39,14.39l0,0C377.683,151.932,371.241,158.375,363.293,158.375z"/>
<path style="fill:#A0A9AF;" d="M363.293,129.596h-15.76c7.948,0,14.39,6.443,14.39,14.39s-6.443,14.39-14.39,14.39h15.76
	c7.948,0,14.39-6.443,14.39-14.39S371.24,129.596,363.293,129.596z"/>
<g>
	<path style="fill:#778085;" d="M119.674,388.479c-11.628,0-20.588,10.251-19.034,21.775l3.597,26.663l8.911,66.114h25.732v-54.828
		v-40.517C138.88,397.078,130.281,388.479,119.674,388.479L119.674,388.479z"/>
	<path style="fill:#778085;" d="M356.396,441.318v61.713h25.732l10.539-78.112l1.975-14.667
		c1.552-11.524-7.409-21.773-19.037-21.773l0,0c-10.609,0-19.209,8.601-19.209,19.209V441.318z"/>
</g>
<path style="fill:#E6EBEF;" d="M497.981,230.157c3.967,3.955,6.415,9.429,6.415,15.471c0,12.082-9.803,21.873-21.885,21.873H29.477
	c-6.041,0-11.503-2.447-15.471-6.403c-3.955-3.967-6.403-9.429-6.403-15.471c0-12.082,9.791-21.885,21.873-21.885h453.034
	C488.551,223.742,494.026,226.189,497.981,230.157z"/>
<path style="fill:#D5D8DB;" d="M67.894,245.627c0-12.082,9.791-21.885,21.873-21.885H29.478c-12.082,0-21.873,9.803-21.873,21.885
	c0,6.042,2.447,11.503,6.403,15.47c3.967,3.955,9.429,6.403,15.471,6.403h60.29c-6.042,0-11.503-2.447-15.471-6.403
	C70.343,257.13,67.894,251.669,67.894,245.627z"/>
<path style="fill:#C2CBD4;" d="M29.489,267.501v20.101h451.936c0.724-6.596,1.097-13.312,1.097-20.101H29.489z"/>
<path d="M511.998,245.315c-0.167-16.276-13.884-29.177-30.159-29.177h-32.826V75.686c0-40.402-32.261-73.927-72.661-74.318
	c-40.796-0.395-74.11,32.676-74.11,73.382v12.266c-5.249,2.244-10.127,5.37-14.414,9.317c-7.969,7.339-13.304,16.926-15.368,27.414
	c-8.051,3.437-13.651,11.54-13.378,20.893c0.35,11.982,10.55,21.34,22.538,21.34h81.12c11.987,0,22.188-9.358,22.538-21.34
	c0.273-9.353-5.327-17.456-13.378-20.893c-2.064-10.487-7.398-20.074-15.367-27.414c-4.287-3.948-9.165-7.075-14.414-9.317V75.417
	c0-18.748,15.343-34.492,34.088-34.172c18.211,0.31,32.931,15.221,32.931,33.505v141.389H117.649c-4.199,0-7.604,3.405-7.604,7.604
	l0,0c0,4.199,3.405,7.604,7.604,7.604h299.031c0.02,0,0.039,0.003,0.059,0.003h24.668c0.02,0,0.039-0.003,0.059-0.003h40.648
	c7.681,0,14.288,5.899,14.659,13.571c0.197,4.071-1.302,7.939-4.15,10.796c-2.706,2.698-6.294,4.184-10.102,4.184H29.909
	c-8.027,0-14.875-6.569-14.698-14.594c0.081-3.696,1.557-7.151,4.192-9.778c2.688-2.695,6.27-4.179,10.086-4.179h52.674
	c4.199,0,7.604-3.405,7.604-7.604l0,0c0-4.199-3.405-7.604-7.604-7.604H29.489c-7.888,0-15.294,3.072-20.839,8.634
	C3.072,230.333,0,237.739,0,245.628c0,13.625,9.299,25.117,21.885,28.478v43.352c0,26.838,7.596,52.925,21.967,75.441
	c13.247,20.757,31.649,37.619,53.38,48.993l8.38,62.155c0.508,3.773,3.729,6.588,7.536,6.588h25.732
	c4.199,0,7.604-3.405,7.604-7.604v-46.051c5.247,0.588,10.537,0.888,15.813,0.888h137.462c16.641,0,33.087-2.149,49.032-6.387v51.55
	c0,4.199,3.405,7.604,7.604,7.604h25.732c3.807,0,7.027-2.814,7.536-6.587l10.051-74.519c15.97-9.869,30.3-21.945,42.714-35.996
	c2.872-3.25,2.485-8.234-0.882-10.968l0,0c-3.152-2.561-7.774-2.205-10.462,0.839c-8.612,9.755-18.226,18.474-28.733,26.072
	c0.472-7.07-1.866-14.066-6.561-19.437c-6.263-7.162-15.95-10.569-25.555-8.625c-12.602,2.55-21.443,13.984-21.443,26.842v27.439
	c-15.884,4.618-32.35,6.964-49.032,6.964H162.297c-5.28,0-10.576-0.34-15.813-0.999v-33.41c0-12.858-8.842-24.291-21.445-26.838
	c-9.605-1.942-19.29,1.465-25.551,8.627c-5.092,5.826-7.418,13.563-6.383,21.229l1.556,11.544
	c-15.205-9.769-28.182-22.732-37.988-38.097c-12.808-20.068-19.579-43.326-19.579-67.26v-42.352h437.641
	c-1.229,28.587-9.357,56.276-23.773,80.87c-2.053,3.502-0.949,8.002,2.465,10.198l0.001,0.001c3.653,2.349,8.508,1.157,10.703-2.591
	c15.917-27.181,24.786-57.828,25.877-89.438c5.003-1.306,9.599-3.918,13.371-7.678C509.012,260.815,512.081,253.293,511.998,245.315
	z M363.293,150.771h-82.227c-3.742,0-6.786-3.045-6.786-6.786s3.044-6.786,6.786-6.786h82.227c3.742,0,6.786,3.045,6.786,6.786
	S367.035,150.771,363.293,150.771z M355.697,121.991h-67.035c4.862-13.887,18.228-23.849,33.518-23.849
	C337.469,98.142,350.835,108.104,355.697,121.991z M375.627,26.032c-26.863,0-48.717,21.855-48.717,48.718v8.404
	c-1.565-0.146-3.143-0.22-4.731-0.22c-1.588,0-3.165,0.074-4.731,0.22V74.75c0-32.08,26.099-58.178,58.177-58.178
	c32.08,0,58.178,26.099,58.178,58.178v141.389h-9.46V74.75C424.345,47.886,402.49,26.032,375.627,26.032z M364,407.688
	c0-6.4,5.206-11.605,11.605-11.605c3.397,0,6.5,1.409,8.736,3.966c2.237,2.557,3.218,5.821,2.765,9.189l-11.625,86.189H364V407.688z
	 M110.939,400.049c2.236-2.557,5.338-3.966,8.735-3.966c6.397,0,11.603,5.205,11.603,11.603v87.741h-11.48l-11.621-86.19
	C107.722,405.87,108.702,402.607,110.939,400.049z"/>
<g>
</g>
<g>
</g>
<g>
</g>
<g>
</g>
<g>
</g>
<g>
</g>
<g>
</g>
<g>
</g>
<g>
</g>
<g>
</g>
<g>
</g>
<g>
</g>
<g>
</g>
<g>
</g>
<g>
</g>
</svg>
