<?xml version="1.0" encoding="iso-8859-1"?>
<!-- Generator: Adobe Illustrator 19.0.0, SVG Export Plug-In . SVG Version: 6.00 Build 0)  -->
<svg version="1.1" id="Capa_1" xmlns="http://www.w3.org/2000/svg" xmlns:xlink="http://www.w3.org/1999/xlink" x="0px" y="0px"
	 viewBox="0 0 512 512" style="enable-background:new 0 0 512 512;" xml:space="preserve">
<path style="fill:#F9D78C;" d="M187.74,193.611c0,20.277-11.497,31.095-11.497,31.095l-21.2,7.533l-45.492,16.152l-5.627,1.997
	l-1.561-2.068l-35.86-47.479L55.938,186.86l9.693-14.377l29.503-43.758l12.46-3.883l38.598-12.035
	C146.192,112.806,187.74,173.334,187.74,193.611z"/>
<path style="fill:#E5C27C;" d="M155.043,232.239l-45.492,16.152c-2.413,0-4.826-0.03-7.188-0.071l-35.86-47.479l-0.872-28.358
	l29.503-43.758l12.46-3.883l16.881,18.361c0,0-25.286,48.28,22.031,81.454C150.561,227.494,153.339,230.009,155.043,232.239z"/>
<path style="fill:#495259;" d="M108.699,216.58c-8.222-3.7-19.653-11.346-25.162-26.641c-9.292-25.737,14.883-29.355,14.883-29.355
	c0.576-0.164,1.069-0.411,1.644-0.739c29.273-11.841,45.143-44.814,46.048-46.952c0.082-0.082,0.082-0.082,0.082-0.082
	c-11.307-24.669-42.141-23.64-63.726-16.446c-21.585,7.194-55.504,30.835-55.504,67.837c0,37.002,34.947,71.291,34.947,71.291
	h59.615l-0.777-3.975c-1.296-6.634-5.786-12.18-11.973-14.903C108.751,216.602,108.725,216.591,108.699,216.58z"/>
<path style="fill:#F9D78C;" d="M406.48,224.656H291.356c14.478-26.077,42.836-48.817,61.389-61.815
	c9.216-6.458,21.96-3.306,27.009,6.762C387.329,184.699,398.116,206.528,406.48,224.656z"/>
<path style="fill:#B1E0DF;" d="M267.703,8.057c0,0-24.893,10.84-24.893,50.188c0,33.325,34.931,36.537,34.931,63.036
	c0,19.674-5.621,25.696-5.621,25.696s25.295-20.075,25.295-48.582C297.414,56.639,258.469,78.32,267.703,8.057z"/>
<path style="fill:#E5C27C;" d="M379.755,169.603c0,0-47.375,27.965-43.657,55.053c3.718,27.087-44.742,0-44.742,0
	c14.478-26.077,42.836-48.817,61.389-61.815C361.962,156.382,374.706,159.535,379.755,169.603z"/>
<path style="fill:#DCE4EA;" d="M29.489,268.413v49.957c0,52.525,30.483,97.924,74.736,119.459l34.655,11.286
	c7.597,1.35,15.422,2.062,23.417,2.062h137.461c19.775,0,38.803-3.147,56.636-8.947l36.271-16.399
	c53.779-31.809,89.856-90.399,89.856-157.418"/>
<path style="fill:#C2CBD4;" d="M169.616,437.828c-44.253-21.535-74.736-66.935-74.736-119.459v-49.956H29.489v49.956
	c0,52.525,30.483,97.924,74.736,119.459l34.655,11.286c7.597,1.35,15.422,2.061,23.417,2.061h65.391
	c-7.994,0-15.82-0.711-23.417-2.061L169.616,437.828z"/>
<g>
	<path style="fill:#778085;" d="M119.673,389.391c-11.628,0-20.588,10.251-19.034,21.775l3.597,26.663l8.911,66.114h25.732v-54.828
		v-40.517C138.88,397.991,130.281,389.391,119.673,389.391L119.673,389.391z"/>
	<path style="fill:#778085;" d="M356.396,442.23v61.713h25.732l10.539-78.112l1.975-14.667c1.552-11.524-7.409-21.773-19.037-21.773
		l0,0c-10.609,0-19.209,8.601-19.209,19.209V442.23z"/>
</g>
<path style="fill:#E6EBEF;" d="M497.981,231.069c3.967,3.955,6.415,9.429,6.415,15.471c0,12.082-9.803,21.873-21.885,21.873H29.477
	c-6.041,0-11.503-2.447-15.471-6.403c-3.955-3.967-6.403-9.429-6.403-15.471c0-12.082,9.791-21.885,21.873-21.885h453.034
	C488.551,224.654,494.026,227.101,497.981,231.069z"/>
<path style="fill:#D5D8DB;" d="M67.894,246.539c0-12.082,9.791-21.885,21.873-21.885h-60.29c-12.082,0-21.873,9.803-21.873,21.885
	c0,6.042,2.447,11.503,6.403,15.471c3.967,3.955,9.429,6.403,15.471,6.403h60.29c-6.042,0-11.503-2.447-15.471-6.403
	C70.342,258.042,67.894,252.581,67.894,246.539z"/>
<path style="fill:#C2CBD4;" d="M29.489,268.413v20.101h451.936c0.724-6.596,1.097-13.312,1.097-20.101H29.489z"/>
<path d="M256.557,99.271c8.42,7.937,13.58,13.245,13.58,22.01c0,14.007-3.096,19.641-3.728,20.642
	c-2.972,2.721-3.023,7.06-0.426,10.187c1.44,1.734,3.575,2.585,5.745,2.585c1.811,0,3.646-0.593,5.119-1.762
	c1.15-0.912,28.171-22.725,28.171-54.538c0-20.944-8.871-29.065-16.698-36.229c-9.208-8.428-17.905-16.39-13.078-53.118
	c0.358-2.718-0.776-5.417-2.966-7.066c-2.19-1.65-5.097-1.992-7.61-0.897c-1.203,0.524-29.461,13.333-29.461,57.159
	C235.206,79.142,247.045,90.303,256.557,99.271z M258.721,26.467c-0.176,29.056,10.481,38.816,19.33,46.915
	c6.826,6.248,11.759,10.763,11.759,25.012c0,7.15-1.911,13.758-4.617,19.532c-1.267-13.756-10.228-22.205-18.204-29.722
	c-8.894-8.385-16.576-15.625-16.576-29.96C250.414,43.305,254.323,33.157,258.721,26.467z"/>
<path d="M146.445,156.878c-2.953-1.243-6.465-0.408-8.59,1.971c-2.147,2.403-2.503,5.99-0.935,8.792
	c3.333,5.952,12.54,4.523,14.028-2.075C151.756,161.98,149.813,158.305,146.445,156.878z"/>
<path d="M511.998,246.218c-0.173-16.271-13.888-29.167-30.16-29.167H411.33c-8.059-17.257-17.782-36.91-24.778-50.859
	c-3.384-6.75-9.514-11.68-16.819-13.525c-7.341-1.854-15.124-0.416-21.353,3.948c-19.84,13.902-46.106,35.409-61.379,60.436h-96.675
	c2.721-5.925,5.014-13.775,5.014-23.436c0-21.275-34.827-73.35-42.591-84.692c-13.397-27.968-47.425-28.184-72.684-19.774
	c-13.741,4.583-28.276,13.795-38.881,24.643c-14.279,14.606-21.826,32.038-21.826,50.409c0,12.064,3.396,30.363,18.137,52.852H29.49
	c-7.888,0-15.294,3.072-20.838,8.634C3.072,231.245,0,238.65,0,246.54c0,13.625,9.299,25.116,21.885,28.478v43.352
	c0,26.838,7.596,52.925,21.967,75.441c13.247,20.757,31.649,37.619,53.38,48.993l8.38,62.155c0.508,3.773,3.729,6.588,7.536,6.588
	h25.732c4.199,0,7.604-3.405,7.604-7.604v-46.051c5.247,0.588,10.537,0.888,15.813,0.888h8.034c4.199,0,7.604-3.405,7.604-7.604l0,0
	c0-4.199-3.405-7.604-7.604-7.604h-8.034c-5.28,0-10.576-0.34-15.813-0.999v-33.41c0-12.858-8.842-24.291-21.445-26.838
	c-9.605-1.942-19.29,1.465-25.551,8.627c-5.092,5.826-7.418,13.563-6.383,21.229l1.556,11.544
	c-15.205-9.769-28.182-22.732-37.988-38.097c-12.808-20.068-19.579-43.326-19.579-67.26v-42.352h330.941
	c4.199,0,7.604-3.405,7.604-7.604l0,0c0-4.199-3.405-7.604-7.604-7.604H29.909c-8.024,0-14.872-6.567-14.698-14.588
	c0.08-3.698,1.556-7.156,4.192-9.783c2.687-2.695,6.269-4.179,10.085-4.179h22.748c0.019,0,0.039,0,0.057,0h65.738
	c0.01,0,0.021,0.002,0.031,0.002c0.01,0,0.019-0.002,0.029-0.002h364.021c7.681,0,14.289,5.899,14.66,13.571
	c0.197,4.071-1.303,7.939-4.151,10.796c-2.706,2.698-6.294,4.184-10.102,4.184h-79.002c-4.199,0-7.604,3.405-7.604,7.604l0,0
	c0,4.199,3.405,7.604,7.604,7.604h71.213c-1.229,28.359-9.291,56.037-23.541,80.479c-12.341,21.167-29.051,39.555-48.842,53.888
	c0.471-7.069-1.867-14.063-6.562-19.433c-6.263-7.162-15.95-10.568-25.555-8.625c-12.602,2.55-21.443,13.985-21.443,26.842v27.439
	c-15.884,4.618-32.35,6.964-49.032,6.964h-93.941c-4.199,0-7.604,3.405-7.604,7.604l0,0c0,4.199,3.405,7.604,7.604,7.604h93.941
	c16.641,0,33.087-2.149,49.032-6.387v51.55c0,4.199,3.405,7.604,7.604,7.604h25.732c3.807,0,7.027-2.814,7.536-6.587l10.053-74.533
	c26.571-16.431,48.869-39.264,64.614-66.27c15.765-27.042,24.582-57.714,25.675-89.099c5.003-1.305,9.6-3.917,13.373-7.678
	C509.014,261.725,512.083,254.198,511.998,246.218z M110.938,400.961c2.236-2.557,5.338-3.966,8.735-3.966
	c6.397,0,11.603,5.205,11.603,11.603v87.741h-11.48l-11.621-86.19C107.721,406.782,108.702,403.52,110.938,400.961z
	 M357.107,169.069c2.606-1.825,5.85-2.429,8.902-1.659c3.059,0.773,5.527,2.761,6.949,5.598
	c6.092,12.147,14.264,28.644,21.565,44.042h-89.199C320.58,196.341,343.512,178.595,357.107,169.069z M172.819,217.051h-50.955
	c-2.704-3.129-6.057-5.63-9.884-7.334c-0.053-0.025-0.106-0.051-0.16-0.074c-7.132-3.21-16.587-9.681-21.133-22.282
	c-2.096-5.808-2.228-10.344-0.396-13.481c2.706-4.629,9.251-5.779,9.252-5.78c0.314-0.047,0.625-0.113,0.93-0.199
	c1.198-0.337,2.163-0.793,2.919-1.209c21.183-8.758,35.681-27.272,43.334-39.38c15.026,23.101,33.404,55.042,33.404,66.302
	C180.132,205.626,175.471,213.523,172.819,217.051z M34.566,164.199c0-32.17,30.087-53.881,50.308-60.623
	c4.141-1.38,39.382-12.33,52.742,9.282c-4.377,8.146-18.259,30.974-40.405,39.931c-0.32,0.13-0.633,0.282-0.933,0.454
	c-3.384,0.697-13.465,3.49-19.006,12.778c-4.321,7.243-4.62,16.159-0.888,26.5c4.141,11.477,11.118,19.263,18.192,24.529H56.116
	C47.184,205.234,34.566,184.882,34.566,164.199z M387.105,410.15l-11.625,86.189H364v-87.739c0-6.4,5.206-11.605,11.605-11.605
	c3.397,0,6.5,1.409,8.736,3.966S387.559,406.782,387.105,410.15z"/>
<g>
</g>
<g>
</g>
<g>
</g>
<g>
</g>
<g>
</g>
<g>
</g>
<g>
</g>
<g>
</g>
<g>
</g>
<g>
</g>
<g>
</g>
<g>
</g>
<g>
</g>
<g>
</g>
<g>
</g>
</svg>
