<?xml version="1.0" encoding="iso-8859-1"?>
<!-- Generator: Adobe Illustrator 19.0.0, SVG Export Plug-In . SVG Version: 6.00 Build 0)  -->
<svg version="1.1" id="Capa_1" xmlns="http://www.w3.org/2000/svg" xmlns:xlink="http://www.w3.org/1999/xlink" x="0px" y="0px"
	 viewBox="0 0 512.002 512.002" style="enable-background:new 0 0 512.002 512.002;" xml:space="preserve">
<path style="fill:#826E64;" d="M256.002,504.29h28.411c4.972-77.419-28.411-120.006-28.411-120.006s-33.383,42.587-28.411,120.006
	H256.002z"/>
<path style="fill:#635149;" d="M253.668,504.291h-26.078c-4.975-77.418,28.41-120.012,28.41-120.012
	S251.458,426.873,253.668,504.291z"/>
<g>
	<circle style="fill:#BBD0CE;" cx="331.443" cy="326.673" r="37.404"/>
	<circle style="fill:#BBD0CE;" cx="180.554" cy="65.32" r="37.404"/>
	<circle style="fill:#BBD0CE;" cx="406.888" cy="196.002" r="37.404"/>
	<circle style="fill:#BBD0CE;" cx="105.109" cy="196.002" r="37.404"/>
	<circle style="fill:#BBD0CE;" cx="331.443" cy="65.32" r="37.404"/>
	<circle style="fill:#BBD0CE;" cx="180.554" cy="326.673" r="37.404"/>
</g>
<g>
	<circle style="fill:#EF0021;" cx="255.998" cy="346.88" r="37.404"/>
	<circle style="fill:#EF0021;" cx="255.998" cy="45.108" r="37.404"/>
	<circle style="fill:#EF0021;" cx="386.67" cy="271.436" r="37.404"/>
	<circle style="fill:#EF0021;" cx="125.327" cy="120.557" r="37.404"/>
	<circle style="fill:#EF0021;" cx="386.67" cy="120.557" r="37.404"/>
	<circle style="fill:#EF0021;" cx="125.327" cy="271.436" r="37.404"/>
</g>
<g>
	<path style="fill:#9FB7B4;" d="M165.642,327.895c-6.417-11.114-6.477-24.151-1.315-34.909c-0.832,0.402-1.657,0.825-2.47,1.294
		c-17.888,10.327-24.017,33.201-13.689,51.089c10.328,17.888,33.201,24.017,51.088,13.689c6.774-3.911,11.857-9.622,15.004-16.179
		C196.788,351.32,175.5,344.971,165.642,327.895z"/>
	<path style="fill:#9FB7B4;" d="M90.205,197.216c-6.417-11.114-6.477-24.151-1.315-34.909c-0.832,0.402-1.657,0.825-2.47,1.294
		c-17.888,10.327-24.017,33.201-13.689,51.088c10.328,17.888,33.201,24.017,51.088,13.689c6.774-3.911,11.857-9.622,15.004-16.179
		C121.35,220.64,100.063,214.292,90.205,197.216z"/>
	<path style="fill:#9FB7B4;" d="M165.642,66.55c-6.417-11.114-6.477-24.151-1.315-34.909c-0.832,0.402-1.657,0.825-2.47,1.294
		c-17.888,10.327-24.017,33.201-13.689,51.088c10.328,17.888,33.201,24.017,51.088,13.689c6.774-3.911,11.857-9.622,15.004-16.179
		C196.788,89.974,175.5,83.625,165.642,66.55z"/>
	<path style="fill:#9FB7B4;" d="M316.53,66.55c-6.417-11.114-6.477-24.151-1.315-34.909c-0.832,0.402-1.657,0.825-2.47,1.294
		c-17.888,10.327-24.017,33.201-13.689,51.088s33.201,24.017,51.088,13.689c6.774-3.911,11.857-9.622,15.004-16.179
		C347.675,89.974,326.388,83.625,316.53,66.55z"/>
	<path style="fill:#9FB7B4;" d="M391.979,197.216c-6.417-11.114-6.477-24.151-1.315-34.909c-0.832,0.402-1.657,0.825-2.47,1.294
		c-17.888,10.327-24.017,33.201-13.689,51.088s33.201,24.017,51.088,13.689c6.774-3.911,11.857-9.622,15.004-16.179
		C423.126,220.64,401.838,214.292,391.979,197.216z"/>
	<path style="fill:#9FB7B4;" d="M316.53,327.895c-6.417-11.114-6.477-24.151-1.315-34.909c-0.832,0.402-1.657,0.825-2.47,1.294
		c-17.888,10.327-24.017,33.201-13.689,51.089c10.328,17.888,33.201,24.017,51.088,13.689c6.774-3.911,11.857-9.622,15.004-16.179
		C347.675,351.32,326.388,344.971,316.53,327.895z"/>
</g>
<g>
	<path style="fill:#C60525;" d="M241.092,348.104c-6.417-11.114-6.477-24.152-1.315-34.909c-0.832,0.402-1.657,0.825-2.47,1.294
		c-17.888,10.327-24.017,33.201-13.689,51.088c10.328,17.888,33.201,24.017,51.088,13.689c6.774-3.911,11.857-9.622,15.004-16.179
		C272.238,371.528,250.951,365.179,241.092,348.104z"/>
	<path style="fill:#C60525;" d="M110.413,272.666c-6.417-11.114-6.477-24.151-1.315-34.909c-0.832,0.402-1.657,0.825-2.47,1.294
		c-17.888,10.327-24.017,33.201-13.689,51.088s33.201,24.017,51.088,13.689c6.774-3.911,11.857-9.622,15.004-16.179
		C141.558,296.091,120.271,289.742,110.413,272.666z"/>
	<path style="fill:#C60525;" d="M110.413,121.779c-6.417-11.114-6.477-24.151-1.315-34.909c-0.832,0.402-1.657,0.825-2.47,1.294
		c-17.888,10.327-24.017,33.201-13.689,51.088s33.201,24.017,51.088,13.689c6.774-3.911,11.857-9.622,15.004-16.179
		C141.558,145.203,120.271,138.854,110.413,121.779z"/>
	<path style="fill:#C60525;" d="M241.092,46.328c-6.417-11.114-6.477-24.151-1.315-34.909c-0.832,0.402-1.657,0.825-2.47,1.294
		c-17.888,10.327-24.017,33.201-13.689,51.088s33.201,24.017,51.088,13.689c6.774-3.911,11.857-9.622,15.004-16.179
		C272.238,69.753,250.951,63.404,241.092,46.328z"/>
	<path style="fill:#C60525;" d="M371.759,121.779c-6.417-11.114-6.477-24.151-1.315-34.909c-0.832,0.402-1.657,0.825-2.47,1.294
		c-17.888,10.327-24.017,33.201-13.689,51.088s33.201,24.017,51.088,13.689c6.774-3.911,11.857-9.622,15.004-16.179
		C402.904,145.203,381.617,138.854,371.759,121.779z"/>
	<path style="fill:#C60525;" d="M371.759,272.666c-6.417-11.114-6.477-24.151-1.315-34.909c-0.832,0.402-1.657,0.825-2.47,1.294
		c-17.888,10.327-24.017,33.201-13.689,51.088s33.201,24.017,51.088,13.689c6.774-3.911,11.857-9.622,15.004-16.179
		C402.904,296.091,381.617,289.742,371.759,272.666z"/>
</g>
<path d="M451.998,195.996c0-20.829-14.195-38.398-33.417-43.563c15.271-15.291,18.097-40.283,4.17-58.973
	c-5.001-6.711-11.843-11.913-19.651-14.929c-9.213-3.558-18.954-4.017-28.067-1.567c2.449-9.115,1.991-18.857-1.57-28.072
	c-3.017-7.808-8.22-14.65-14.933-19.651c-18.692-13.924-43.679-11.097-58.968,4.173C294.399,14.195,276.83,0,256.002,0
	c-20.831,0-38.4,14.196-43.564,33.418c-14.084-14.065-36.396-17.575-54.435-7.159c-18.035,10.412-26.153,31.483-21.022,50.708
	c-7.564-2.035-15.56-2.068-23.327,0.013c-11.638,3.12-21.366,10.583-27.391,21.019c-10.414,18.039-6.905,40.352,7.158,54.435
	c-19.222,5.164-33.417,22.733-33.417,43.563c0,20.83,14.195,38.399,33.417,43.564c-14.064,14.084-17.572,36.396-7.159,54.435
	c8.346,14.455,23.539,22.546,39.141,22.546c3.868,0,7.759-0.502,11.58-1.522c-5.136,19.228,2.982,40.302,21.02,50.716
	c7.087,4.091,14.83,6.035,22.478,6.035c11.821,0,23.404-4.655,31.956-13.196c4.055,15.097,15.763,27.085,30.695,31.539
	c-4.992,8.832-11.744,23.084-16.78,42.422c-1.1,4.222,1.554,8.516,5.817,9.451h0.001c4.058,0.89,8.069-1.603,9.119-5.622
	c4.447-17.016,10.342-29.703,14.717-37.635c2.701,4.885,5.974,11.569,9.114,19.94c6.223,16.589,13.113,43.197,11.95,77.914H234.93
	c-0.298-8.867-0.095-17.614,0.608-26.141c0.339-4.112-2.685-7.74-6.782-8.224l0,0c-4.311-0.509-8.227,2.635-8.584,6.962
	c-0.956,11.589-1.048,23.541-0.273,35.635c0.259,4.045,3.638,7.188,7.691,7.188h56.82c4.065,0,7.431-3.158,7.692-7.216
	c3.726-57.986-13.223-97.078-23.21-114.679c14.92-4.459,26.618-16.443,30.672-31.533c8.552,8.541,20.133,13.196,31.956,13.196
	c9.194,0,18.534-2.811,26.692-8.784c6.876-5.034,12.208-11.982,15.271-19.934c3.541-9.195,3.995-18.914,1.554-28.008
	c3.774,1.014,7.656,1.526,11.565,1.526c3.917,0,7.86-0.515,11.746-1.556c11.641-3.118,21.369-10.586,27.388-21.024
	c1.823-3.161,3.242-6.467,4.244-9.89c1.373-4.688-1.947-9.45-6.818-9.821l-0.022-0.002c-3.595-0.274-6.937,1.972-7.944,5.435
	c-0.771,2.651-1.921,5.198-3.441,7.612c-3.33,5.291-8.299,9.442-14.121,11.72c-8.616,3.371-17.951,2.644-25.803-1.89
	c-14.179-8.191-19.056-26.383-10.871-40.556c3.966-6.871,10.37-11.785,18.03-13.837c7.659-2.054,15.66-1,22.534,2.967
	c3.254,1.88,6.088,4.326,8.383,7.216c2.244,2.825,6.19,3.638,9.415,2.02l0,0c4.415-2.215,5.603-7.932,2.501-11.776
	c-1.021-1.265-2.109-2.474-3.259-3.623C437.793,234.407,451.998,216.833,451.998,195.996z M412.387,105.708
	c8.186,14.178,3.311,32.372-10.867,40.558c-14.181,8.187-32.374,3.31-40.559-10.868c-8.185-14.178-3.31-32.372,10.867-40.558
	c4.664-2.693,9.762-3.972,14.796-3.972C396.892,90.867,406.895,96.194,412.387,105.708z M305.732,50.478
	c5.494-9.515,15.493-14.84,25.762-14.84c5.033,0,10.132,1.28,14.796,3.972c14.178,8.186,19.053,26.381,10.868,40.559
	c-3.965,6.869-10.368,11.781-18.029,13.834c-7.663,2.052-15.662,0.998-22.53-2.966C302.422,82.851,297.546,64.656,305.732,50.478z
	 M256.002,15.418c16.372,0,29.691,13.32,29.691,29.692S272.373,74.8,256.002,74.8c-16.372,0-29.692-13.319-29.692-29.691
	S239.63,15.418,256.002,15.418z M165.712,39.61c4.575-2.642,9.653-3.991,14.797-3.991c2.578,0,5.174,0.339,7.732,1.025
	c7.661,2.053,14.063,6.965,18.029,13.834c8.186,14.178,3.311,32.373-10.868,40.559c-6.868,3.966-14.869,5.02-22.53,2.966
	c-7.661-2.053-14.063-6.966-18.029-13.834C146.658,65.991,151.534,47.796,165.712,39.61z M99.616,105.708
	c5.494-9.515,15.494-14.84,25.763-14.84c5.032,0,10.132,1.28,14.796,3.972c6.868,3.965,11.781,10.368,13.834,18.029
	c2.053,7.66,0.999,15.661-2.966,22.53c-8.186,14.178-26.379,19.054-40.559,10.868C96.306,138.08,91.431,119.886,99.616,105.708z
	 M75.422,195.996c0-16.372,13.32-29.691,29.692-29.691s29.691,13.319,29.691,29.691s-13.319,29.692-29.691,29.692
	S75.422,212.367,75.422,195.996z M99.616,286.285c-8.185-14.178-3.31-32.372,10.868-40.558c4.664-2.693,9.762-3.972,14.796-3.972
	c10.268,0,20.271,5.326,25.763,14.84c8.186,14.178,3.311,32.372-10.867,40.558C125.993,305.341,107.799,300.462,99.616,286.285z
	 M206.27,341.515c-3.965,6.869-10.368,11.781-18.029,13.834c-7.661,2.053-15.661,0.998-22.53-2.966
	c-14.178-8.186-19.053-26.381-10.867-40.559c3.965-6.868,10.368-11.781,18.029-13.834c2.558-0.686,5.154-1.025,7.733-1.025
	c5.144,0,10.222,1.35,14.797,3.991C209.581,309.142,214.456,327.337,206.27,341.515z M256.061,376.574
	c-0.021,0-0.041-0.003-0.062-0.003c-0.021,0-0.04,0.003-0.06,0.003c-16.343-0.034-29.629-13.34-29.629-29.69
	c0-16.372,13.32-29.691,29.692-29.691s29.691,13.319,29.691,29.691C285.692,363.236,272.405,376.541,256.061,376.574z
	 M346.29,352.382c-14.177,8.188-32.371,3.312-40.558-10.867c-8.186-14.178-3.311-32.373,10.867-40.559
	c4.575-2.642,9.653-3.991,14.797-3.991c2.578,0,5.174,0.339,7.732,1.025c7.661,2.053,14.063,6.965,18.029,13.834
	C365.344,326.001,360.469,344.197,346.29,352.382z M347.608,248.89c-6.222,10.771-7.478,23.07-4.482,34.232
	c-11.16-2.994-23.461-1.738-34.235,4.482c-10.774,6.221-18.012,16.245-21,27.408c-8.168-8.173-19.449-13.236-31.889-13.236
	c-12.432,0-23.705,5.055-31.873,13.218c-3.118-11.638-10.583-21.366-21.018-27.39c-10.433-6.024-22.589-7.626-34.228-4.507
	c2.985-11.154,1.727-23.444-4.49-34.21c-6.024-10.435-15.752-17.899-27.39-21.018c8.162-8.167,13.218-19.441,13.218-31.873
	s-5.055-23.704-13.218-31.872c11.638-3.118,21.366-10.583,27.39-21.018c6.215-10.767,7.475-23.056,4.49-34.21
	c3.885,1.041,7.829,1.556,11.747,1.556c7.816,0,15.53-2.05,22.48-6.062c10.435-6.024,17.899-15.752,21.018-27.39
	c8.167,8.162,19.441,13.218,31.873,13.218c12.44,0,23.721-5.062,31.889-13.236c2.988,11.162,10.226,21.187,21,27.408
	c7.087,4.091,14.83,6.035,22.478,6.035c3.983,0,7.936-0.534,11.759-1.56c-2.996,11.162-1.741,23.466,4.479,34.242
	c6.222,10.775,16.249,18.008,27.413,20.995c-8.176,8.169-13.241,19.451-13.241,31.894c0,12.432,5.055,23.705,13.218,31.873
	C363.36,230.988,353.631,238.453,347.608,248.89z M406.889,225.687c-16.372,0-29.691-13.32-29.691-29.692
	s13.319-29.691,29.691-29.691s29.692,13.319,29.692,29.691S423.26,225.687,406.889,225.687z"/>
<g>
</g>
<g>
</g>
<g>
</g>
<g>
</g>
<g>
</g>
<g>
</g>
<g>
</g>
<g>
</g>
<g>
</g>
<g>
</g>
<g>
</g>
<g>
</g>
<g>
</g>
<g>
</g>
<g>
</g>
</svg>
