<?xml version="1.0" encoding="iso-8859-1"?>
<!-- Generator: Adobe Illustrator 19.0.0, SVG Export Plug-In . SVG Version: 6.00 Build 0)  -->
<svg version="1.1" id="Capa_1" xmlns="http://www.w3.org/2000/svg" xmlns:xlink="http://www.w3.org/1999/xlink" x="0px" y="0px"
	 viewBox="0 0 512 512" style="enable-background:new 0 0 512 512;" xml:space="preserve">
<path style="fill:#495259;" d="M255.825,233.042l-120.595,18.264L83.56,192.259c-3.045-9.977-4.334-21.242-2.801-33.807
	c7.612-62.417,89.819-47.193,89.819-47.193"/>
<ellipse style="fill:#E9E7EC;" cx="135.226" cy="218.723" rx="88.551" ry="32.589"/>
<path style="fill:#D1D1D1;" d="M159.315,227.225c-47.353,0-86.023-13.679-88.427-30.885c-15.002,5.838-24.204,13.715-24.204,22.384
	c0,17.996,39.643,32.585,88.546,32.585s88.546-14.588,88.546-32.585c0-0.57-0.041-1.138-0.12-1.7
	C207.516,223.305,184.661,227.225,159.315,227.225z"/>
<g>
	<rect x="26.197" y="281.759" style="fill:#886A59;" width="458.404" height="105.043"/>
	<rect x="7.612" y="83.852" style="fill:#886A59;" width="28.924" height="344.287"/>
	<rect x="474.257" y="198.923" style="fill:#886A59;" width="30.129" height="229.217"/>
</g>
<path style="fill:#E41A1E;" d="M474.26,198.926v114.609H170.579V111.259c0,0,94.904-9.053,191.117,23.383
	C401.156,147.926,440.829,168.194,474.26,198.926z"/>
<path style="fill:#C90E20;" d="M361.696,134.642c-47.3-12.438-105.709,14.362-122.484,96.833
	c-5.942,29.216-31.523,50.278-61.337,50.278h-7.297V111.259C170.579,111.259,265.483,102.206,361.696,134.642z"/>
<rect x="36.535" y="251.312" style="fill:#BEC9CD;" width="134.039" height="30.446"/>
<path d="M504.388,191.315h-27.22c-26.519-23.821-58.824-43.253-96.109-57.756c-30.503-11.865-64.382-20.488-100.694-25.626
	c-57.498-8.136-102.047-4.967-109.476-4.342c-7.273-1.178-48.006-6.671-74.881,13.053c-12.987,9.532-20.658,23.288-22.805,40.887
	c-1.231,10.085-0.831,19.977,1.17,29.508c-1.492,0.485-2.962,0.981-4.381,1.503c-13.567,4.994-21.443,10.775-25.847,16.386v-46.849
	c0-4.204-3.408-7.612-7.612-7.612l0,0c-4.204,0-7.612,3.408-7.612,7.612v262.453H15.224V91.469h13.699v31.085
	c0,4.204,3.408,7.612,7.612,7.612l0,0c4.204,0,7.612-3.408,7.612-7.612V83.857c0-4.204-3.408-7.612-7.612-7.612H7.612
	C3.408,76.246,0,79.654,0,83.857v344.285c0,4.204,3.408,7.612,7.612,7.612h28.923c4.204,0,7.612-3.408,7.612-7.612v-33.735h422.501
	v33.735c0,4.204,3.408,7.612,7.612,7.612h30.129c4.204,0,7.612-3.408,7.612-7.612V198.927
	C512,194.723,508.592,191.315,504.388,191.315z M44.146,258.921h118.818v15.221H44.146V258.921z M88.316,159.374
	c1.637-13.432,7.088-23.386,16.663-30.429c18.027-13.261,45.711-12.263,57.987-11.016v62.173
	c-8.932-1.045-18.226-1.575-27.735-1.575c-16.407,0-32.197,1.599-46.112,4.588C87.601,175.459,87.324,167.504,88.316,159.374z
	 M75.251,202.828c15.904-5.854,37.204-9.077,59.978-9.077c9.556,0,18.852,0.576,27.735,1.698v46.548
	c-8.887,1.12-18.182,1.698-27.735,1.698c-22.776,0-44.077-3.222-59.979-9.073C59.787,228.932,54.3,222.504,54.3,218.727
	C54.3,214.951,59.787,208.521,75.251,202.828z M58.271,243.697H44.146v-11.172C47.085,236.267,51.581,240.086,58.271,243.697z
	 M44.152,379.185v-89.817h118.813v24.168c0,4.204,3.408,7.612,7.612,7.612h221.179c4.204,0,7.612-3.408,7.612-7.612l0,0
	c0-4.204-3.408-7.612-7.612-7.612H178.188v-24.168v-30.446V118.363c5.131-0.284,12.958-0.596,22.862-0.629v61.709
	c0,4.168,3.212,7.803,7.378,7.927c4.31,0.129,7.845-3.327,7.845-7.609v-61.86c17.445,0.441,38.879,1.821,62.333,5.158
	c54.193,7.709,130.451,27.724,188.04,79.24v79.453v24.169h-39.368c-4.204,0-7.612,3.408-7.612,7.612l0,0
	c0,4.204,3.408,7.612,7.612,7.612h39.368v58.039H44.152z M496.776,420.531h-14.905v-33.735v-73.262v-31.781v-75.214h14.905V420.531z
	"/>
<g>
</g>
<g>
</g>
<g>
</g>
<g>
</g>
<g>
</g>
<g>
</g>
<g>
</g>
<g>
</g>
<g>
</g>
<g>
</g>
<g>
</g>
<g>
</g>
<g>
</g>
<g>
</g>
<g>
</g>
</svg>
