<?xml version="1.0" encoding="iso-8859-1"?>
<!-- Generator: Adobe Illustrator 19.0.0, SVG Export Plug-In . SVG Version: 6.00 Build 0)  -->
<svg version="1.1" id="Capa_1" xmlns="http://www.w3.org/2000/svg" xmlns:xlink="http://www.w3.org/1999/xlink" x="0px" y="0px"
	 viewBox="0 0 512 512" style="enable-background:new 0 0 512 512;" xml:space="preserve">
<rect x="36.536" y="251.311" style="fill:#E41A1E;" width="437.73" height="47.193"/>
<g>
	<rect x="26.197" y="281.758" style="fill:#886A59;" width="458.404" height="105.043"/>
	<rect x="7.612" y="83.851" style="fill:#886A59;" width="28.924" height="344.287"/>
	<rect x="474.257" y="198.922" style="fill:#886A59;" width="30.129" height="229.217"/>
</g>
<rect x="36.536" y="251.311" style="fill:#BEC9CD;" width="89.525" height="30.446"/>
<ellipse style="fill:#E9E7EC;" cx="135.237" cy="218.722" rx="88.551" ry="32.589"/>
<path style="fill:#D1D1D1;" d="M159.315,227.224c-47.353,0-86.023-13.679-88.427-30.885c-15.002,5.838-24.204,13.715-24.204,22.384
	c0,17.996,39.643,32.585,88.546,32.585s88.546-14.588,88.546-32.585c0-0.57-0.041-1.138-0.12-1.7
	C207.516,223.305,184.661,227.224,159.315,227.224z"/>
<path d="M512,251.445v-52.518c0-4.204-3.408-7.612-7.612-7.612H474.26c-4.204,0-7.612,3.408-7.612,7.612v44.77H212.194
	c15.546-8.391,19.194-17.909,19.194-24.972c0-8.58-5.364-20.781-30.917-30.184c-17.545-6.456-40.714-10.012-65.24-10.012
	s-47.696,3.556-65.24,10.012c-13.564,4.991-21.439,10.771-25.844,16.38V83.857c0-4.204-3.408-7.612-7.612-7.612H7.612
	C3.408,76.246,0,79.654,0,83.857v344.285c0,4.204,3.408,7.612,7.612,7.612h28.924c4.204,0,7.612-3.408,7.612-7.612v-33.74h34.003
	c4.204,0,7.612-3.408,7.612-7.612l0,0c0-4.204-3.408-7.612-7.612-7.612H44.148v-89.813h81.91h340.591v89.813H113.674
	c-4.204,0-7.612,3.408-7.612,7.612l0,0c0,4.204,3.408,7.612,7.612,7.612h352.974v33.739c0,4.204,3.408,7.612,7.612,7.612h30.129
	c4.204,0,7.612-3.408,7.612-7.612V286.968c0-4.204-3.408-7.612-7.612-7.612l0,0c-4.204,0-7.612,3.408-7.612,7.612v133.563h-14.905
	v-33.74V281.754v-30.446v-44.77h14.905v44.907c0,4.204,3.408,7.612,7.612,7.612l0,0C508.592,259.057,512,255.649,512,251.445z
	 M75.248,202.826c15.904-5.853,37.206-9.075,59.983-9.075s44.079,3.223,59.983,9.075c15.464,5.691,20.952,12.12,20.952,15.898
	c0,3.777-5.487,10.207-20.952,15.897c-15.904,5.853-37.206,9.075-59.983,9.075s-44.08-3.223-59.983-9.075
	c-15.464-5.69-20.951-12.119-20.951-15.897C54.298,214.946,59.784,208.518,75.248,202.826z M58.268,243.696h-14.12v-11.168
	C47.086,236.27,51.581,240.086,58.268,243.696z M28.924,420.53h-13.7V91.469h13.7v159.839v30.446v105.037V420.53z M44.148,274.142
	V258.92h74.298v15.223H44.148z M133.67,274.142V258.92h332.979v15.223H133.67z"/>
<g>
</g>
<g>
</g>
<g>
</g>
<g>
</g>
<g>
</g>
<g>
</g>
<g>
</g>
<g>
</g>
<g>
</g>
<g>
</g>
<g>
</g>
<g>
</g>
<g>
</g>
<g>
</g>
<g>
</g>
</svg>
