<?xml version="1.0" encoding="iso-8859-1"?>
<!-- Generator: Adobe Illustrator 19.0.0, SVG Export Plug-In . SVG Version: 6.00 Build 0)  -->
<svg version="1.1" id="Capa_1" xmlns="http://www.w3.org/2000/svg" xmlns:xlink="http://www.w3.org/1999/xlink" x="0px" y="0px"
	 viewBox="0 0 512.001 512.001" style="enable-background:new 0 0 512.001 512.001;" xml:space="preserve">
<polygon style="fill:#886A59;" points="487.082,423.188 24.919,423.188 7.604,504.396 504.396,504.396 "/>
<g>
	<polygon style="fill:#5B4034;" points="24.919,423.188 7.604,504.396 115.074,504.396 132.388,423.188 	"/>
	<rect x="59.311" y="386.687" style="fill:#5B4034;" width="393.378" height="36.498"/>
</g>
<polyline style="fill:#F9C900;" points="278.032,72.393 278.032,141.295 233.959,141.295 233.959,72.393 "/>
<polyline style="fill:#D3AB02;" points="257.014,72.393 257.014,141.295 233.959,141.295 233.959,72.393 "/>
<ellipse style="fill:#F9C900;" cx="256" cy="48.108" rx="55.762" ry="40.506"/>
<path style="fill:#D3AB02;" d="M233.692,48.109c0-18.137,16.411-33.486,39.034-38.648c-5.281-1.204-10.9-1.856-16.729-1.856
	c-30.797,0-55.762,18.135-55.762,40.505c0,22.371,24.965,40.506,55.762,40.506c5.829,0,11.448-0.653,16.729-1.857
	C250.103,81.597,233.692,66.246,233.692,48.109z"/>
<path style="fill:#F9C900;" d="M480.085,338.066L480.085,338.066c-7.232,0-13.196-5.638-13.63-12.857
	C459.811,214.753,368.127,127.227,256,127.227S52.19,214.753,45.546,325.211c-0.434,7.219-6.398,12.857-13.63,12.857l0,0
	c-13.427,0-24.311,10.885-24.311,24.311l0,0c0,13.427,10.885,24.311,24.311,24.311h448.168c13.427,0,24.311-10.885,24.311-24.311
	l0,0C504.396,348.952,493.512,338.066,480.085,338.066z"/>
<path style="fill:#D3AB02;" d="M255.999,127.223c-68.649,0-124.786,87.527-128.852,197.987c-0.264,7.219-3.914,12.856-8.344,12.856
	c-4.116,0-7.827,2.717-10.524,7.117c-2.697,4.401-4.36,10.484-4.36,17.195c0,6.712,1.663,12.795,4.36,17.196
	c2.697,4.4,6.408,7.117,10.524,7.117H31.916c-6.712,0-12.795-2.717-17.195-7.117c-4.4-4.401-7.117-10.484-7.117-17.196
	c0-6.711,2.717-12.794,7.117-17.195c4.4-4.4,10.483-7.117,17.195-7.117c7.229,0,13.19-5.637,13.626-12.856
	C52.193,214.75,143.876,127.223,255.999,127.223z"/>
<circle style="fill:#FFE164;" cx="363.47" cy="217.372" r="24.333"/>
<path d="M494.518,421.602c-0.748-3.509-3.849-6.018-7.437-6.018h-26.788v-21.29h19.158c17.502,0,32.229-13.824,32.544-31.324
	c0.157-8.75-3.173-16.998-9.34-23.166c-6.026-6.025-14.043-9.344-22.573-9.344c-3.191,0-5.843-2.508-6.036-5.709
	c-6.323-105.012-86.702-189.237-188.412-203.112V90.692c5.159-2.06,9.961-4.667,14.26-7.789
	c12.554-9.119,19.467-21.476,19.467-34.794s-6.914-25.674-19.467-34.793C288.075,4.729,272.485,0,255.997,0
	s-32.079,4.729-43.899,13.316c-12.554,9.119-19.467,21.476-19.467,34.793c0,13.319,6.914,25.675,19.467,34.794
	c4.298,3.123,9.099,5.727,14.257,7.787v30.915c-32.252,4.361-62.954,15.842-90.318,33.872c-3.614,2.382-4.565,7.264-2.056,10.791
	l0.001,0.001c2.386,3.352,6.987,4.171,10.421,1.907c33.152-21.843,71.577-33.35,111.597-33.35
	c107.314,0,196.424,83.827,202.868,190.841c0.1,1.662,0.411,3.261,0.869,4.795H52.264c0.457-1.535,0.769-3.134,0.869-4.796
	c1.662-27.609,8.778-54.095,21.152-78.721c10.909-21.71,25.418-41.055,43.184-57.597c3.011-2.803,3.299-7.468,0.604-10.577l0,0
	c-2.83-3.264-7.796-3.506-10.958-0.563c-19.098,17.778-34.693,38.57-46.421,61.909c-13.305,26.479-20.957,54.954-22.743,84.634
	c-0.193,3.202-2.845,5.71-6.037,5.71c-8.902,0-17.243,3.613-23.347,10.147c-5.236,5.602-8.293,13-8.55,20.663
	c-0.3,8.94,3.04,17.393,9.325,23.681c6.025,6.024,14.042,9.344,22.572,9.344h19.792v21.29H24.92c-3.589,0-6.688,2.509-7.437,6.018
	l-17.27,80.994c-0.325,1.527-0.268,3.134,0.311,4.584C1.718,510.167,4.553,512,7.604,512h396.927c4.199,0,7.604-3.405,7.604-7.604
	l0,0c0-4.199-3.405-7.604-7.604-7.604H17.001l14.072-66h449.855l14.071,66h-54.983c-4.199,0-7.604,3.405-7.604,7.604l0,0
	c0,4.199,3.405,7.604,7.604,7.604h64.169c1.421,0,2.846-0.315,4.066-1.044c2.911-1.739,4.245-5.036,3.581-8.145L494.518,421.602z
	 M207.839,48.109c0-18.142,21.604-32.901,48.158-32.901s48.158,14.76,48.158,32.901c0,18.143-21.604,32.902-48.158,32.902
	S207.839,66.252,207.839,48.109z M241.563,120.096V94.971c4.682,0.819,9.517,1.248,14.434,1.248c4.916,0,9.749-0.43,14.43-1.247
	v25.134c-4.772-0.313-9.581-0.486-14.427-0.486C251.163,119.619,246.35,119.786,241.563,120.096z M20.099,374.197
	c-3.154-3.154-4.891-7.353-4.891-11.82s1.737-8.664,4.89-11.818c3.152-3.152,7.348-4.889,11.815-4.89v0.001h448.169v-0.001
	c0.001,0,0.001,0,0.001,0c4.469,0,8.667,1.737,11.82,4.889c3.153,3.154,4.89,7.352,4.89,11.819c0,9.213-7.496,16.708-16.708,16.708
	h-27.395H59.311H31.917C27.449,379.086,23.251,377.349,20.099,374.197z M66.915,415.584v-21.29h378.17v21.29H66.915z"/>
<g>
</g>
<g>
</g>
<g>
</g>
<g>
</g>
<g>
</g>
<g>
</g>
<g>
</g>
<g>
</g>
<g>
</g>
<g>
</g>
<g>
</g>
<g>
</g>
<g>
</g>
<g>
</g>
<g>
</g>
</svg>
