<?xml version="1.0" encoding="iso-8859-1"?>
<!-- Generator: Adobe Illustrator 19.0.0, SVG Export Plug-In . SVG Version: 6.00 Build 0)  -->
<svg version="1.1" id="Capa_1" xmlns="http://www.w3.org/2000/svg" xmlns:xlink="http://www.w3.org/1999/xlink" x="0px" y="0px"
	 viewBox="0 0 512.003 512.003" style="enable-background:new 0 0 512.003 512.003;" xml:space="preserve">
<path style="fill:#ED5A81;" d="M210.434,10.451c-5.823-4.656-14.32-3.709-18.977,2.113c-31.11,38.908-45.335,84.694-51.77,113.949
	c25.633,0.106,25.147-0.241,27.701,0.31c6.337-26.165,19.236-64.975,45.159-97.395C217.205,23.604,216.259,15.108,210.434,10.451z"
	/>
<g>
	<path style="fill:#F96989;" d="M372.243,126.513c-6.435-29.254-20.66-75.04-51.771-113.949c-4.658-5.823-13.153-6.77-18.977-2.113
		c-5.824,4.657-6.77,13.152-2.113,18.977c25.923,32.421,38.822,71.231,45.159,97.395
		C347.078,126.276,346.413,126.62,372.243,126.513z"/>
	<path style="fill:#F96989;" d="M132.432,339.686c-7.647-1.353-12.633,7.833-7.311,13.487
		c18.024,19.152,34.198,39.497,48.126,58.839h0.001l53.487,77.213c14.127,20.393,44.275,20.393,58.403,0
		c36.161-50.568,59.313-91.119,101.68-136.121c5.303-5.632,0.333-14.784-7.284-13.435
		C306.97,352.52,205.116,352.548,132.432,339.686z"/>
</g>
<g>
	<path style="fill:#ED5A81;" d="M387.107,342.421c-1.704-2.059-4.408-3.313-7.572-2.753c-32.848,5.818-71.698,8.999-111.125,9.555
		C309.4,349.801,350.984,347.532,387.107,342.421z"/>
	<path style="fill:#ED5A81;" d="M251.739,489.225l-53.487-77.213h-0.001c-13.929-19.341-30.102-39.686-48.126-58.839
		c-3.116-3.311-2.694-7.831-0.277-10.739c-5.956-0.842-11.781-1.752-17.414-2.748c-7.647-1.353-12.633,7.833-7.312,13.487
		c18.024,19.152,34.198,39.497,48.126,58.839h0.001l53.487,77.213c9.771,14.106,27.205,18.447,41.703,13.04
		C261.975,499.854,256.094,495.512,251.739,489.225z"/>
</g>
<path style="fill:#DD4A78;" d="M272.449,209.68h-32.972c-0.216,1.131-1.335,23.195-16.811,43.801l0.007,0.008l15.065-8.498
	c10.087-5.69,26.418-5.686,36.501,0.013l15.014,8.485l0.011-0.004C273.785,232.879,272.665,210.813,272.449,209.68z"/>
<path style="fill:#F96989;" d="M172.159,147.151c-5.806,3.982-9.448,1.683-35.115,2.364c-2.507,0-4.848-0.696-6.86-1.887
	c-68.946,96.094,27.638,166.416,83.113,118.097c26.374-22.971,27.921-54.683,28.182-56.045
	C215.537,202.128,188.744,170.181,172.159,147.151z"/>
<path style="fill:#ED5A81;" d="M153.909,149.441c-4.257-0.073-9.702-0.115-16.865,0.075c-2.508,0-4.848-0.696-6.86-1.887
	c-58.057,80.919,1.261,143.559,54.57,132.475C141.143,271.209,106.836,216.856,153.909,149.441z"/>
<path style="fill:#F96989;" d="M381.748,147.628c-5.422,3.209-8.054,1.321-34.349,1.888c-2.824,0-5.444-0.87-7.611-2.352
	c-16.577,23.029-43.4,54.965-69.339,62.517c0.26,1.362,1.809,33.075,28.182,56.045C354.142,314.072,450.67,243.687,381.748,147.628z
	"/>
<path style="fill:#ED5A81;" d="M294.794,196.39c-7.972,6.147-16.201,10.921-24.343,13.291c0.26,1.362,1.809,33.075,28.182,56.045
	c25.765,22.44,60.366,19.297,83.158-0.118C338.528,273.018,303.096,238.868,294.794,196.39z"/>
<path style="fill:#F9B2C8;" d="M164.531,151.516h-27.487c-7.457,0-13.502-6.045-13.502-13.502c0-7.457,6.045-13.502,13.502-13.502
	h27.487c7.457,0,13.501,6.045,13.501,13.502C178.032,145.471,171.988,151.516,164.531,151.516z"/>
<path style="fill:#F99DB6;" d="M150.351,138.014c0-7.457,6.045-13.502,13.502-13.502h-26.809c-7.457,0-13.502,6.045-13.502,13.502
	c0,7.457,6.045,13.502,13.502,13.502h26.809C156.396,151.516,150.351,145.471,150.351,138.014z"/>
<path style="fill:#F9B2C8;" d="M374.887,151.516H347.4c-7.457,0-13.501-6.045-13.501-13.502c0-7.457,6.045-13.502,13.501-13.502
	h27.487c7.457,0,13.501,6.045,13.501,13.502C388.389,145.471,382.344,151.516,374.887,151.516z"/>
<path style="fill:#F99DB6;" d="M361.144,138.014c0-7.457,6.045-13.502,13.501-13.502H347.4c-7.457,0-13.501,6.045-13.501,13.502
	c0,7.457,6.045,13.502,13.501,13.502h27.245C367.189,151.516,361.144,145.471,361.144,138.014z"/>
<path d="M378.277,117.312c-4.966-20.77-11.959-40.718-20.835-59.367c-1.78-3.74-6.256-5.33-9.996-3.55
	c-3.74,1.78-5.33,6.256-3.55,9.996c7.886,16.57,14.216,34.233,18.865,52.621h-12.466c-6.858-25.84-20.056-61.002-45.057-92.269
	c-2.065-2.584-1.645-6.368,0.938-8.434c2.585-2.065,6.369-1.645,8.436,0.938c4.463,5.582,8.761,11.524,12.774,17.663
	c2.268,3.467,6.916,4.438,10.383,2.173c3.467-2.268,4.439-6.916,2.173-10.383c-4.273-6.536-8.855-12.868-13.615-18.822
	c-7.232-9.042-20.476-10.518-29.519-3.286c-9.045,7.232-10.52,20.474-3.287,29.519c23.312,29.154,35.706,62.114,42.195,86.461
	c-9.798,6.584-12.159,19.696-5.709,29.203c-4.465,5.923-9.103,11.6-13.848,16.918c-2.757,3.091-2.487,7.833,0.604,10.591
	c3.093,2.758,7.834,2.486,10.591-0.604c5.13-5.75,10.144-11.882,14.954-18.286c1.645,0.41,3.595,0.622,5.09,0.622
	c22.682-0.269,27.208,0.444,31.463-0.383c20.285,30.381,24.925,59.649,13.006,82.869c-9.805,19.102-30.89,32.442-51.277,32.442
	c-32.691,0-56.377-27.434-61.889-59.215c7.105-2.884,14.519-7.248,22.116-13.023c3.297-2.507,3.938-7.213,1.432-10.511
	c-2.507-3.296-7.212-3.939-10.511-1.432c-8.001,6.083-15.55,10.24-22.469,12.415h-26.645c-17.648-5.584-39.992-24.919-60.699-52.415
	c6.504-9.599,3.971-22.684-5.718-29.193c6.49-24.348,18.885-57.308,42.194-86.461c7.25-9.067,5.779-22.269-3.287-29.519
	c-9.042-7.231-22.286-5.757-29.519,3.287c-29.958,37.466-44.724,79.234-51.953,109.432c-15.632,2.559-22.869,20.823-13.302,33.387
	C49.33,257.659,171.779,333.56,229.674,259.275l13.746-7.754c7.752-4.37,17.379-4.367,25.125,0.01l13.705,7.746
	c57.689,74.013,180.6-1.234,109.335-108.581C401.158,138.124,393.896,119.865,378.277,117.312z M376.383,143.818
	c-1.155,0.305,0.435,0.177-28.985,0.197c-3.296,0-6.001-2.681-6.001-6.001c0-4.886,4.893-5.966,4.727-5.86
	c0.921-0.2-1.305-0.141,28.762-0.141c3.309,0,6.001,2.691,6.001,6.001C380.885,140.81,378.954,143.154,376.383,143.818z
	 M197.314,17.249c2.064-2.584,5.85-3.006,8.435-0.94c2.589,2.07,3.011,5.844,0.939,8.435
	c-24.998,31.264-38.197,66.427-45.057,92.269h-12.464C156.33,88.728,170.287,51.05,197.314,17.249z M137.041,132.014
	c25.925-0.11,28.673,0.143,28.777,0.143c6.976,1.535,5.845,11.858-1.29,11.858c-29.719-0.03-28.372,0.397-30.593-0.876
	c-1.732-1.054-2.894-2.953-2.894-5.125C131.04,134.706,133.732,132.014,137.041,132.014z M171.336,273.946
	c-20.386,0-41.471-13.34-51.276-32.442c-11.918-23.222-7.278-52.489,13.006-82.87c4.163,0.808,7.808,0.129,31.462,0.383
	c1.642,0,3.603-0.25,5.117-0.629c12.453,16.53,37.103,45.568,63.578,56.341C227.725,246.415,204.102,273.946,171.336,273.946z
	 M243.069,235.347c2.234-5.865,3.909-11.972,4.963-18.165h15.859c1.052,6.19,2.725,12.291,4.959,18.153
	C260.505,232.563,251.408,232.566,243.069,235.347z"/>
<path d="M378.224,332.282c-48.03,8.506-109.644,11.524-169.042,8.272c-4.109-0.203-7.675,2.942-7.9,7.08
	c-0.225,4.137,2.943,7.674,7.08,7.9c60.498,3.306,123.365,0.217,172.478-8.48c0.219-0.036,0.39-0.07,0.586,0.292
	c0.185,0.343,0.077,0.457-0.072,0.616c-44.167,46.913-69.322,91-102.384,136.992c-11.117,16.045-34.87,16.166-46.07,0
	c-61.028-88.096-52.655-76.041-53.567-77.325c-32.56-45.21-49.586-58.85-48.828-60.25c0.676-1.249,3.116,1.403,42.505,5.413
	c4.131,0.405,7.803-2.582,8.223-6.703c0.419-4.121-2.582-7.803-6.703-8.223c-14.583-1.483-28.307-3.355-40.791-5.565
	c-6.73-1.196-13.179,1.928-16.432,7.946c-3.246,6.009-2.323,13.1,2.351,18.066c42.538,45.201,66.717,87.589,100.91,135.182
	c17.095,24.679,53.643,24.674,70.734,0c33.582-46.739,58.224-89.841,100.976-135.251c4.667-4.957,5.588-12.033,2.347-18.03
	C391.376,334.206,384.931,331.085,378.224,332.282z"/>
<g>
</g>
<g>
</g>
<g>
</g>
<g>
</g>
<g>
</g>
<g>
</g>
<g>
</g>
<g>
</g>
<g>
</g>
<g>
</g>
<g>
</g>
<g>
</g>
<g>
</g>
<g>
</g>
<g>
</g>
</svg>
