<?xml version="1.0" encoding="iso-8859-1"?>
<!-- Generator: Adobe Illustrator 19.0.0, SVG Export Plug-In . SVG Version: 6.00 Build 0)  -->
<svg version="1.1" id="Capa_1" xmlns="http://www.w3.org/2000/svg" xmlns:xlink="http://www.w3.org/1999/xlink" x="0px" y="0px"
	 viewBox="0 0 512.001 512.001" style="enable-background:new 0 0 512.001 512.001;" xml:space="preserve">
<polyline style="fill:#72868C;" points="251.238,158.524 300.543,172.505 314.525,221.81 363.83,235.793 366.567,245.433 
	441.114,348.399 490.426,362.389 504.415,411.701 411.7,504.416 362.388,490.427 348.398,441.115 245.431,366.568 235.792,363.831 
	221.809,314.526 172.504,300.544 158.523,251.239 "/>
<rect x="7.005" y="97.744" transform="matrix(-0.7071 0.7071 -0.7071 -0.7071 387.4818 160.5029)" style="fill:#D9DADB;" width="306.99" height="125.516"/>
<rect x="130.706" y="46.507" transform="matrix(-0.7071 0.7071 -0.7071 -0.7071 438.7263 36.8036)" style="fill:#F4F4F4;" width="162.069" height="125.516"/>
<rect x="196.888" y="287.61" transform="matrix(-0.7071 0.7071 -0.7071 -0.7071 845.8887 350.358)" style="fill:#D9DADB;" width="306.99" height="125.516"/>
<rect x="82.004" y="97.742" transform="matrix(-0.7071 0.7071 -0.7071 -0.7071 387.4832 160.4994)" style="fill:#E7EBEE;" width="156.993" height="125.516"/>
<rect x="320.577" y="236.37" transform="matrix(-0.7071 0.7071 -0.7071 -0.7071 897.1094 226.66)" style="fill:#F4F4F4;" width="162.069" height="125.516"/>
<rect x="271.879" y="287.618" transform="matrix(-0.7071 0.7071 -0.7071 -0.7071 845.8816 350.3752)" style="fill:#E7EBEE;" width="156.993" height="125.516"/>
<path d="M511.711,409.631l-13.99-49.312c-0.718-2.53-2.696-4.508-5.226-5.226l-36.891-10.466l15.543-15.542
	c2.962-2.962,2.962-7.763,0.001-10.724l0,0c-2.962-2.962-7.764-2.963-10.726-0.001l-10.16,10.159l-78.034-78.034l42.303-42.305
	l78.036,78.036l-7.123,7.122c-2.962,2.962-2.962,7.764,0,10.726l0.001,0.001c2.962,2.962,7.764,2.962,10.724,0l12.485-12.485
	c2.962-2.963,2.962-7.764,0-10.726l-88.761-88.761c-2.102-2.1-5.307-2.841-8.252-1.656c-0.98,0.394-1.846,1.03-2.594,1.777
	l-39.106,39.108c-0.984-1.345-2.391-2.357-4.044-2.825l-45.232-12.827l-12.827-45.233c-0.718-2.531-2.697-4.51-5.228-5.228
	l-36.878-10.458l0.015-0.015c0.017-0.017,0.031-0.035,0.048-0.053l52.982-52.982c1.422-1.423,2.221-3.351,2.221-5.363
	c0-2.012-0.799-3.94-2.221-5.363L230.024,2.221c-2.963-2.961-7.764-2.961-10.726,0l-53.004,53.004
	c-0.009,0.009-0.02,0.017-0.029,0.026l-29.102,29.105L2.223,219.295c-1.422,1.423-2.221,3.351-2.221,5.363
	c0,2.012,0.799,3.94,2.221,5.363l88.756,88.756c1.481,1.48,3.423,2.221,5.363,2.221c1.94,0,3.882-0.74,5.363-2.221l53.045-53.045
	l10.459,36.882c0.718,2.531,2.697,4.51,5.228,5.228l45.233,12.827l12.827,45.232c0.469,1.653,1.482,3.062,2.829,4.047
	l-39.224,39.226c-2.962,2.962-2.962,7.763,0,10.724l88.751,88.751c1.481,1.48,3.422,2.221,5.363,2.221
	c1.94,0,3.882-0.74,5.362-2.221l52.986-52.983c0.016-0.015,0.033-0.028,0.05-0.044l0.016-0.016l10.466,36.892
	c0.718,2.53,2.696,4.508,5.226,5.226l49.312,13.99c0.683,0.194,1.378,0.288,2.069,0.288c1.984,0,3.921-0.78,5.364-2.221
	l92.716-92.716C511.722,415.119,512.461,412.275,511.711,409.631z M367.072,479.154l-9.739-34.328l128.404-71.174l9.739,34.327
	L367.072,479.154z M470.664,364.666l-78.749,43.65l34.158-34.158l17.251-17.25L470.664,364.666z M361.505,261.215l78.03,78.03
	l-39.049,39.049l-61.241,61.238l-78.028-78.028l3.246-3.246L361.505,261.215z M177.19,289.272l-9.732-34.32l128.397-71.179
	l9.732,34.317L177.19,289.272z M280.784,174.786l-78.736,43.648l8.194-8.194l43.209-43.206L280.784,174.786z M224.661,18.308
	l78.031,78.03l-42.306,42.307l-78.03-78.031L224.661,18.308z M96.342,302.689L18.31,224.658l42.307-42.307l22.698,22.699
	c2.962,2.962,7.764,2.962,10.726,0l0.001-0.001c2.962-2.962,2.962-7.764,0-10.725L71.346,171.63l64.486-64.493l35.798-35.798
	l78.03,78.031l-60.172,60.172l-40.116,40.112l-30.308-30.309c-2.962-2.962-7.764-2.962-10.725,0l-0.001,0.001
	c-2.962,2.962-2.962,7.764,0,10.725l30.311,30.311L96.342,302.689z M192.256,298.263l123.204-68.304l28.612,8.114l-123.21,68.301
	L192.256,298.263z M241.934,357.691l-11.188-39.452l117.311-65.032l-77.024,77.028l-25.904,25.904
	c-0.004,0.004-0.008,0.009-0.012,0.013l-1.902,1.902L241.934,357.691z M286.213,492.56l-78.025-78.025l42.305-42.306l78.027,78.028
	L286.213,492.56z M409.485,495.905l-27.35-7.76l78.776-43.665L409.485,495.905z"/>
<g>
</g>
<g>
</g>
<g>
</g>
<g>
</g>
<g>
</g>
<g>
</g>
<g>
</g>
<g>
</g>
<g>
</g>
<g>
</g>
<g>
</g>
<g>
</g>
<g>
</g>
<g>
</g>
<g>
</g>
</svg>
