<?xml version="1.0" encoding="iso-8859-1"?>
<!-- Generator: Adobe Illustrator 19.0.0, SVG Export Plug-In . SVG Version: 6.00 Build 0)  -->
<svg version="1.1" id="Capa_1" xmlns="http://www.w3.org/2000/svg" xmlns:xlink="http://www.w3.org/1999/xlink" x="0px" y="0px"
	 viewBox="0 0 512 512" style="enable-background:new 0 0 512 512;" xml:space="preserve">
<path style="fill:#2F2E3C;" d="M416.124,300.33c0,54.839-21.56,104.491-56.718,141.17c-37.126,38.737-89.462,62.891-147.344,62.891
	C99.341,504.392,8,413.052,8,300.33c0-15.208,1.7-30.059,4.831-44.372c20.308-91.34,101.718-159.689,199.231-159.689
	c36.054,0,69.87,9.304,99.213,25.765c0.089,0,0.178,0,0.268,0.089l75.863,73.806C405.657,226.435,416.124,262.131,416.124,300.33z"
	/>
<g>
	<path style="fill:#20202B;" d="M359.406,441.501c-37.126,38.737-89.462,62.891-147.344,62.891C99.34,504.392,8,413.052,8,300.33
		c0-15.208,1.7-30.059,4.831-44.372c33.638,114.421,139.381,197.888,264.717,197.888
		C305.997,453.846,333.551,449.553,359.406,441.501z"/>
	<path style="fill:#20202B;" d="M411.181,172.155l-23.775,23.775l-0.024-0.024c-7.671,7.671-30.673-2.896-51.378-23.601
		s-31.271-43.708-23.601-51.378l-1.127,1.108l24.849-24.849"/>
</g>
<ellipse transform="matrix(0.7071 -0.7071 0.7071 0.7071 14.2245 303.6446)" style="fill:#2F2E3C;" cx="373.644" cy="134.652" rx="19.641" ry="53.014"/>
<path style="fill:#525464;" d="M174.995,134.261c-45.407,7.095,85.186,106.288,159.879,143.726
	c10.42,5.223,22.812-1.743,23.994-13.339c1.303-12.777,0.225-30.774-8.678-52.853C334.498,172.878,245.073,123.078,174.995,134.261z
	"/>
<path d="M416.559,177.531l-0.025-0.025c4.322-4.338,7.881-12.945,0.353-29.332c-4.003-8.713-10.549-18.208-18.735-27.265
	l38.678-38.677c2.97-2.971,2.97-7.784,0-10.754c-2.971-2.969-7.784-2.969-10.754,0l-38.678,38.678
	c-9.056-8.186-18.552-14.733-27.265-18.736c-16.411-7.537-25.019-3.957-29.352,0.373c-0.008,0.008-0.016,0.017-0.024,0.025
	l-0.01-0.01l-20.84,20.841c-22.657-11.916-46.994-19.466-72.529-22.493c-4.291-0.509-8.154,2.625-8.505,6.931l-0.001,0.007
	c-0.334,4.097,2.654,7.683,6.737,8.168c23.497,2.79,45.896,9.708,66.758,20.607c-0.589,6.365,1.682,13.363,4.287,19.032
	c4.825,10.503,13.338,22.145,23.974,32.78c10.635,10.634,22.277,19.15,32.78,23.974c6.927,3.181,12.463,4.382,16.876,4.382
	c1.438,0,2.749-0.134,3.957-0.362c15.902,28.819,24.279,61.397,24.279,94.653c0,16.096-1.933,32.033-5.756,47.479
	c-0.986,3.987,1.309,8.047,5.256,9.184l0.007,0.002c4.161,1.198,8.458-1.321,9.497-5.523c4.118-16.643,6.203-33.809,6.203-51.141
	c0-36.27-9.258-71.799-26.814-103.149L416.559,177.531z M343.04,102.28c4.342,0,16.788,3.499,33.603,18.631l-8.372,8.372
	c-2.97,2.971-2.97,7.784,0,10.754c1.485,1.484,3.432,2.226,5.377,2.226c1.946,0,3.892-0.742,5.377-2.226l8.369-8.369
	c17.737,19.711,19.494,33.419,18.364,35.104c-1.845,1.226-17.983-0.959-40.622-23.6c-22.713-22.712-24.846-38.888-23.617-40.611
	C341.759,102.388,342.273,102.28,343.04,102.28z M341.381,166.927c-22.717-22.716-24.847-38.888-23.601-40.624
	c0.106-0.107,0.211-0.219,0.311-0.331l10.155-10.156c0.587,1.679,1.298,3.451,2.161,5.33c4.825,10.504,13.339,22.146,23.974,32.781
	c10.635,10.634,22.277,19.15,32.78,23.974c1.89,0.868,3.667,1.577,5.355,2.166l-9.962,9.962c-0.184,0.151-0.361,0.314-0.533,0.486
	C380.272,191.777,364.094,189.641,341.381,166.927z"/>
<path d="M433.58,0c-4.2,0-7.604,3.404-7.604,7.604v36.022c0,4.2,3.404,7.604,7.604,7.604s7.604-3.404,7.604-7.604V7.604
	C441.184,3.404,437.781,0,433.58,0z"/>
<path d="M433.58,106.978c-4.2,0-7.604,3.404-7.604,7.604v36.023c0,4.2,3.404,7.604,7.604,7.604s7.604-3.404,7.604-7.604v-36.023
	C441.184,110.381,437.781,106.978,433.58,106.978z"/>
<path d="M404.951,56.814c1.504,1.792,3.658,2.716,5.829,2.716c1.725,0,3.459-0.584,4.884-1.779
	c3.217-2.699,3.637-7.495,0.937-10.712l-23.155-27.595c-2.699-3.216-7.495-3.636-10.712-0.937
	c-3.217,2.699-3.637,7.495-0.937,10.712L404.951,56.814z"/>
<path d="M462.209,101.394c-2.7-3.216-7.495-3.636-10.712-0.937c-3.217,2.699-3.637,7.495-0.937,10.712l23.155,27.595
	c1.504,1.793,3.658,2.716,5.829,2.716c1.725,0,3.459-0.584,4.884-1.779c3.217-2.699,3.637-7.495,0.937-10.712L462.209,101.394z"/>
<path d="M361.845,74.176l35.476,6.255c0.447,0.079,0.891,0.117,1.33,0.117c3.62,0,6.828-2.596,7.479-6.284
	c0.73-4.136-2.032-8.08-6.167-8.808L364.487,59.2c-4.141-0.734-8.079,2.033-8.808,6.167
	C354.949,69.503,357.709,73.447,361.845,74.176z"/>
<path d="M505.316,84.032l-35.476-6.255c-4.142-0.727-8.079,2.033-8.808,6.167c-0.73,4.136,2.032,8.08,6.167,8.808l35.476,6.255
	c0.447,0.079,0.891,0.117,1.33,0.117c3.62,0,6.828-2.596,7.479-6.284C512.213,88.705,509.451,84.761,505.316,84.032z"/>
<path d="M464.312,68.97c1.29,0,2.599-0.328,3.795-1.02l31.197-18.011c3.637-2.1,4.883-6.75,2.783-10.387
	c-2.099-3.638-6.752-4.882-10.387-2.783L460.503,54.78c-3.637,2.1-4.883,6.75-2.783,10.387
	C459.127,67.607,461.684,68.97,464.312,68.97z"/>
<path d="M353.917,436.235c-18.144,18.932-39.488,33.825-63.438,44.268c-24.79,10.809-51.173,16.289-78.416,16.289
	c-52.485,0-101.822-20.433-138.923-57.536s-57.532-86.442-57.532-138.928c0-14.272,1.564-28.653,4.645-42.717
	c9.43-42.401,33.169-81.066,66.846-108.869c32.724-27.017,72.088-42.35,114.254-44.583c4.11-0.218,7.332-3.602,7.264-7.718l0,0
	c-0.071-4.283-3.666-7.699-7.943-7.468c-44.987,2.431-88.488,19.335-123.259,48.043C41.142,166.964,15.569,208.62,5.403,254.334
	c-3.319,15.154-5.003,30.63-5.003,45.994c0,56.548,22.014,109.705,61.987,149.681C102.36,489.984,155.515,512,212.063,512
	c29.346,0,57.774-5.907,84.494-17.556c25.804-11.251,48.797-27.294,68.34-47.686c17.094-17.838,30.758-38.17,40.691-60.53
	c1.739-3.914-0.169-8.491-4.145-10.085l-0.005-0.003c-3.817-1.531-8.126,0.269-9.798,4.026
	C382.425,400.871,369.758,419.705,353.917,436.235z"/>
<g>
</g>
<g>
</g>
<g>
</g>
<g>
</g>
<g>
</g>
<g>
</g>
<g>
</g>
<g>
</g>
<g>
</g>
<g>
</g>
<g>
</g>
<g>
</g>
<g>
</g>
<g>
</g>
<g>
</g>
</svg>
