<?xml version="1.0" encoding="iso-8859-1"?>
<!-- Generator: Adobe Illustrator 19.0.0, SVG Export Plug-In . SVG Version: 6.00 Build 0)  -->
<svg version="1.1" id="Capa_1" xmlns="http://www.w3.org/2000/svg" xmlns:xlink="http://www.w3.org/1999/xlink" x="0px" y="0px"
	 viewBox="0 0 512.001 512.001" style="enable-background:new 0 0 512.001 512.001;" xml:space="preserve">
<path style="fill:#02A0B5;" d="M112.856,504.396h326.39v-80.204h-326.39c-22.148,0-40.102,17.954-40.102,40.102l0,0
	C72.754,486.442,90.709,504.396,112.856,504.396z"/>
<path style="fill:#EFF1EE;" d="M75.976,278.204h332.861v145.99v48.665H112.861c-11.082,0-21.098-4.491-28.358-11.751
	c-3.589-3.589-6.499-7.847-8.527-12.582"/>
<path style="fill:#00B2D8;" d="M439.247,7.607v416.586H112.865c-22.153,0-40.108,17.955-40.108,40.098V47.705
	c0-22.143,17.955-40.098,40.108-40.098C112.865,7.607,439.247,7.607,439.247,7.607z"/>
<path style="fill:#02A0B5;" d="M112.856,7.607v416.586c-22.153,0-40.108,17.955-40.108,40.098V47.705
	C72.748,25.562,90.704,7.607,112.856,7.607z"/>
<path d="M295.129,240.856v-4.435c0-20.308-12.371-28.477-31.279-28.477c-4.901,0-6.769-3.967-6.769-8.17
	c0-3.968,1.868-8.17,6.769-8.17c16.573,0,27.076-5.602,27.076-28.01c0-18.906-8.637-27.31-26.142-27.31
	c-21.941,0-27.31,12.604-27.31,22.408c0,5.134-2.567,8.637-9.337,8.637c-8.402,0-10.269-2.335-10.269-10.036
	c0-14.005,9.569-38.514,47.383-38.514c26.142,0,44.583,10.97,44.583,41.314c0,20.308-7.935,34.079-18.906,39.214
	c13.771,5.602,23.809,16.806,23.809,37.113v4.435c0,36.413-22.876,49.951-50.885,49.951c-34.545,0-49.717-21.941-49.717-39.681
	c0-7.236,2.567-9.103,9.103-9.103c7.936,0,10.036,2.801,10.036,7.702c0,10.037,7.935,23.342,30.577,23.342
	C284.392,273.068,295.129,263.264,295.129,240.856z"/>
<path d="M439.247,0h-60.888c-4.199,0-7.604,3.405-7.604,7.604l0,0c0,4.199,3.405,7.604,7.604,7.604h53.284v401.381H112.856
	c-12.548,0-23.973,4.878-32.498,12.825V47.706c0-17.948,14.55-32.498,32.498-32.498h230.017c4.199,0,7.604-3.405,7.604-7.604l0,0
	c0-4.199-3.405-7.604-7.604-7.604H112.856C86.509,0,65.15,21.359,65.15,47.706v416.589c0,26.347,21.359,47.706,47.706,47.706h65.773
	c4.199,0,7.604-3.405,7.604-7.604l0,0c0-4.199-3.405-7.604-7.604-7.604h-65.773c-16.719,0-30.523-12.692-32.3-28.945
	c8.833,8.145,20.226,12.614,32.304,12.614h295.977c4.199,0,7.604-3.405,7.604-7.604v-41.062h15.202v64.996H214.116
	c-4.199,0-7.604,3.405-7.604,7.604l0,0c0,4.199,3.405,7.604,7.604,7.604h225.131c4.199,0,7.604-3.405,7.604-7.604v-80.204V7.604
	C446.851,3.405,443.446,0,439.247,0z M401.233,440.922H139.666c-4.199,0-7.604,3.404-7.604,7.604s3.405,7.604,7.604,7.604h261.567
	v9.125H112.861c-8.678,0-16.839-3.382-22.981-9.523c-2.155-2.155-3.971-4.567-5.433-7.193c5.555-9.975,16.205-16.742,28.409-16.742
	h288.377v9.126H401.233z"/>
<path d="M268.732,273.068c-22.642,0-30.577-13.305-30.577-23.342c0-4.901-2.101-7.702-10.036-7.702
	c-6.535,0-9.103,1.868-9.103,9.103c0,17.74,15.171,39.68,49.717,39.68c28.01,0,50.885-13.538,50.885-49.951v-4.435
	c0-20.308-10.037-31.512-23.809-37.113c10.971-5.134,18.906-18.905,18.906-39.214c0-30.344-18.44-41.314-44.583-41.314
	c-37.814,0-47.383,24.508-47.383,38.514c0,7.702,1.868,10.036,10.269,10.036c6.77,0,9.337-3.502,9.337-8.637
	c0-9.804,5.369-22.408,27.31-22.408c17.506,0,26.142,8.403,26.142,27.31c0,22.408-10.504,28.01-27.076,28.01
	c-4.901,0-6.769,4.201-6.769,8.17c0,4.202,1.868,8.17,6.769,8.17c18.906,0,31.279,8.17,31.279,28.477v4.435
	C300.009,263.264,289.272,273.068,268.732,273.068z"/>
<g>
</g>
<g>
</g>
<g>
</g>
<g>
</g>
<g>
</g>
<g>
</g>
<g>
</g>
<g>
</g>
<g>
</g>
<g>
</g>
<g>
</g>
<g>
</g>
<g>
</g>
<g>
</g>
<g>
</g>
</svg>
