<?xml version="1.0" encoding="iso-8859-1"?>
<!-- Generator: Adobe Illustrator 19.0.0, SVG Export Plug-In . SVG Version: 6.00 Build 0)  -->
<svg version="1.1" id="Capa_1" xmlns="http://www.w3.org/2000/svg" xmlns:xlink="http://www.w3.org/1999/xlink" x="0px" y="0px"
	 viewBox="0 0 512.001 512.001" style="enable-background:new 0 0 512.001 512.001;" xml:space="preserve">
<path style="fill:#E59900;" d="M112.856,504.396h326.39v-80.204h-326.39c-22.148,0-40.102,17.954-40.102,40.102l0,0
	C72.754,486.442,90.709,504.396,112.856,504.396z"/>
<path style="fill:#EFF1EE;" d="M75.976,278.204h332.861v145.99v48.665H112.861c-11.082,0-21.098-4.491-28.358-11.751
	c-3.589-3.589-6.499-7.847-8.527-12.582"/>
<path style="fill:#FDC600;" d="M439.247,7.607v416.586H112.865c-22.153,0-40.108,17.955-40.108,40.098V47.705
	c0-22.143,17.955-40.098,40.108-40.098C112.865,7.607,439.247,7.607,439.247,7.607z"/>
<path style="fill:#E59900;" d="M112.856,7.607v416.586c-22.153,0-40.108,17.955-40.108,40.098V47.705
	C72.748,25.562,90.704,7.607,112.856,7.607z"/>
<path d="M273.805,250.193h-58.354c-4.435,0-7.236-3.034-7.236-7.703c0-1.4,0.232-3.033,1.167-4.435l57.653-113.673
	c2.101-3.968,5.368-5.602,8.869-5.602c3.735,0,9.57,3.034,9.57,7.702c0,1.167-0.233,2.101-0.934,3.269L233.423,231.52h40.38v-39.214
	c0-4.668,4.902-6.77,9.804-6.77s9.804,2.101,9.804,6.77v39.214h12.37c4.668,0,7.003,4.668,7.003,9.337
	c0,4.669-3.034,9.337-7.003,9.337h-12.37v32.211c0,4.668-4.902,7.002-9.804,7.002s-9.804-2.335-9.804-7.002v-32.212H273.805z"/>
<path d="M446.851,40.456V7.604c0-4.199-3.405-7.604-7.604-7.604h-326.39C86.509,0,65.15,21.359,65.15,47.706v416.589
	c0,26.347,21.359,47.706,47.706,47.706h326.39c4.199,0,7.604-3.405,7.604-7.604v-80.204V75.942c0-4.199-3.405-7.604-7.604-7.604l0,0
	c-4.199,0-7.604,3.405-7.604,7.604v340.645H112.856c-12.548,0-23.973,4.878-32.498,12.825V47.706
	c0-17.948,14.55-32.498,32.498-32.498h318.786v25.248c0,4.199,3.405,7.604,7.604,7.604l0,0
	C443.446,48.06,446.851,44.656,446.851,40.456z M431.643,496.792H112.856c-16.719,0-30.523-12.691-32.3-28.945
	c8.833,8.145,20.226,12.614,32.304,12.614h295.977c4.199,0,7.604-3.404,7.604-7.604v-41.062h15.202V496.792z M112.856,431.796
	h288.377v9.126H206.511c-4.199,0-7.604,3.404-7.604,7.604s3.405,7.604,7.604,7.604h194.722v9.125H112.861
	c-8.678,0-16.839-3.382-22.981-9.523c-2.155-2.155-3.971-4.567-5.433-7.193C90.001,438.562,100.652,431.796,112.856,431.796z"/>
<path d="M139.666,456.13h41.496c4.199,0,7.604-3.404,7.604-7.604s-3.405-7.604-7.604-7.604h-41.496
	c-4.199,0-7.604,3.404-7.604,7.604S135.467,456.13,139.666,456.13z"/>
<path d="M288.489,289.407c4.902,0,9.804-2.335,9.804-7.002v-32.211h12.37c3.968,0,7.003-4.668,7.003-9.337
	c0-4.669-2.335-9.337-7.003-9.337h-12.37v-39.214c0-4.668-4.902-6.77-9.804-6.77s-9.804,2.101-9.804,6.77v39.214h-40.38
	l51.118-101.769c0.7-1.167,0.934-2.101,0.934-3.269c0-4.668-5.836-7.702-9.57-7.702c-3.501,0-6.769,1.633-8.869,5.602
	l-57.653,113.673c-0.935,1.401-1.167,3.034-1.167,4.435c0,4.668,2.801,7.703,7.236,7.703h58.354v32.211
	C278.685,287.072,283.587,289.407,288.489,289.407z"/>
<g>
</g>
<g>
</g>
<g>
</g>
<g>
</g>
<g>
</g>
<g>
</g>
<g>
</g>
<g>
</g>
<g>
</g>
<g>
</g>
<g>
</g>
<g>
</g>
<g>
</g>
<g>
</g>
<g>
</g>
</svg>
