<?xml version="1.0" encoding="iso-8859-1"?>
<!-- Generator: Adobe Illustrator 19.0.0, SVG Export Plug-In . SVG Version: 6.00 Build 0)  -->
<svg version="1.1" id="Capa_1" xmlns="http://www.w3.org/2000/svg" xmlns:xlink="http://www.w3.org/1999/xlink" x="0px" y="0px"
	 viewBox="0 0 512 512" style="enable-background:new 0 0 512 512;" xml:space="preserve">
<path style="fill:#ECF1F5;" d="M170.555,504.361h214.692v-52.756H170.555c-14.568,0-26.378,11.809-26.378,26.378l0,0
	C144.177,492.552,155.987,504.361,170.555,504.361z"/>
<path style="fill:#00AEDA;" d="M385.246,177.587v274.02H170.56c-14.572,0-26.382,11.81-26.382,26.376V203.962
	c0-14.564,11.81-26.376,26.382-26.376h214.685V177.587z"/>
<path style="fill:#028BAA;" d="M170.555,177.587v274.02c-14.572,0-26.382,11.81-26.382,26.376V203.962
	C144.172,189.397,155.984,177.587,170.555,177.587z"/>
<path style="fill:#ECF1F5;" d="M135.927,419.389h214.692v-52.756H135.927c-14.568,0-26.378,11.809-26.378,26.378l0,0
	C109.549,407.579,121.359,419.389,135.927,419.389z"/>
<path style="fill:#F7C800;" d="M350.618,92.614v274.02H135.933c-14.572,0-26.382,11.81-26.382,26.376V118.989
	c0-14.564,11.81-26.376,26.382-26.376h214.685V92.614z"/>
<path style="fill:#D3AB02;" d="M135.927,92.614v274.02c-14.572,0-26.382,11.81-26.382,26.376V118.989
	C109.545,104.425,121.355,92.614,135.927,92.614z"/>
<path style="fill:#ECF1F5;" d="M376.082,334.416H161.391V281.66h214.692c14.568,0,26.378,11.809,26.378,26.378l0,0
	C402.46,322.606,390.65,334.416,376.082,334.416z"/>
<path style="fill:#EA3223;" d="M161.391,7.642v274.02h214.685c14.572,0,26.382,11.81,26.382,26.376V34.017
	c0-14.564-11.81-26.376-26.382-26.376H161.391V7.642z"/>
<path style="fill:#EF524B;" d="M376.082,7.642v274.02c14.572,0,26.382,11.81,26.382,26.376V34.017
	C402.464,19.452,390.654,7.642,376.082,7.642z"/>
<path d="M376.081,0H161.391c-4.219,0-7.639,3.42-7.639,7.639v77.339H135.93c-18.788,0-34.018,15.23-34.018,34.018v273.976
	l-0.001,0.04c-0.474,18.709,14.451,34.017,33.166,34.017h1.464v50.878c0,0.026-0.002,0.052-0.002,0.078
	c0,18.758,15.26,34.017,34.017,34.017h214.692c4.219,0,7.639-3.42,7.639-7.639v-52.756c0-0.006-0.001-0.013-0.001-0.02v-60.093
	c0-4.219-3.42-7.639-7.639-7.639l0,0c-4.219,0-7.639,3.42-7.639,7.639v52.474H170.555c-6.92,0-13.361,2.082-18.737,5.646v-22.585
	h198.801c4.219,0,7.639-3.42,7.639-7.639v-52.756c0-0.01-0.001-0.019-0.001-0.03v-24.549h17.827c0.511,0,1.018-0.016,1.525-0.039
	v13.828c0,4.219,3.42,7.639,7.639,7.639l0,0c4.219,0,7.639-3.42,7.639-7.639v-18.247c10.27-5.861,17.215-16.911,17.215-29.559
	V34.017C410.099,15.229,394.868,0,376.081,0z M170.555,459.244h207.053v11.1H174.499c-4.219,0-7.639,3.42-7.639,7.639
	s3.42,7.639,7.639,7.639h203.108v11.102H170.555c-10.334,0-18.739-8.407-18.739-18.739c0,0,0,0,0-0.001h0.002v-0.039
	C151.838,467.629,160.235,459.244,170.555,459.244z M135.927,411.75c-10.333,0-18.739-8.407-18.739-18.739v-0.001h0.001v-0.018
	c0.011-10.324,8.412-18.72,18.738-18.72h207.053v11.098H139.871c-4.219,0-7.639,3.42-7.639,7.639c0,4.219,3.42,7.639,7.639,7.639
	h203.108v11.103H135.927z M342.978,358.994H135.927c-6.92,0-13.361,2.082-18.738,5.646V118.995c0-10.35,8.39-18.74,18.74-18.74
	h17.823v67.169c0,4.219,3.42,7.639,7.639,7.639l0,0c4.219,0,7.639-3.42,7.639-7.639V15.277h207.053
	c10.349,0,18.739,8.389,18.739,18.739v245.651c-5.378-3.565-11.819-5.647-18.739-5.647H169.029v-70.948
	c0-4.219-3.42-7.639-7.639-7.639l0,0c-4.219,0-7.639,3.42-7.639,7.639v78.587v52.756c0,4.219,3.42,7.639,7.639,7.639h181.588
	V358.994z M376.082,326.777H169.029v-11.1h203.108c4.219,0,7.639-3.42,7.639-7.639c0-4.219-3.42-7.639-7.639-7.639H169.029v-11.101
	h207.053c10.333,0,18.739,8.407,18.739,18.739C394.822,318.371,386.415,326.777,376.082,326.777z"/>
<g>
</g>
<g>
</g>
<g>
</g>
<g>
</g>
<g>
</g>
<g>
</g>
<g>
</g>
<g>
</g>
<g>
</g>
<g>
</g>
<g>
</g>
<g>
</g>
<g>
</g>
<g>
</g>
<g>
</g>
</svg>
