<?xml version="1.0" encoding="iso-8859-1"?>
<!-- Generator: Adobe Illustrator 19.0.0, SVG Export Plug-In . SVG Version: 6.00 Build 0)  -->
<svg version="1.1" id="Capa_1" xmlns="http://www.w3.org/2000/svg" xmlns:xlink="http://www.w3.org/1999/xlink" x="0px" y="0px"
	 viewBox="0 0 512.001 512.001" style="enable-background:new 0 0 512.001 512.001;" xml:space="preserve">
<path style="fill:#C01300;" d="M112.856,504.396h326.39v-80.204h-326.39c-22.148,0-40.102,17.954-40.102,40.102l0,0
	C72.754,486.442,90.708,504.396,112.856,504.396z"/>
<path style="fill:#EFF1EE;" d="M75.975,278.204h332.861v145.99v48.665H112.859c-11.082,0-21.098-4.491-28.358-11.751
	c-3.589-3.589-6.499-7.847-8.527-12.582"/>
<path style="fill:#EA3223;" d="M439.246,7.607v416.586H112.864c-22.153,0-40.108,17.955-40.108,40.098V47.705
	c0-22.143,17.955-40.098,40.108-40.098C112.864,7.607,439.246,7.607,439.246,7.607z"/>
<path style="fill:#C01300;" d="M112.856,7.607v416.586c-22.153,0-40.108,17.955-40.108,40.098V47.705
	C72.748,25.562,90.703,7.607,112.856,7.607z"/>
<path d="M265.411,147.958l-8.637,12.838c-1.634,1.868-3.502,2.567-4.902,2.567c-4.202,0-7.236-3.968-7.236-8.17
	c0-2.801,2.101-6.535,4.201-8.171l21.475-25.442c1.633-1.633,3.269-3.034,6.069-3.034c4.201,0,8.636,2.567,8.636,7.003v156.855
	c0,4.668-4.901,7.002-9.803,7.002c-4.902,0-9.803-2.335-9.803-7.002V147.958z"/>
<path d="M431.642,416.589H112.856c-12.548,0-23.973,4.878-32.498,12.825V47.706c0-17.948,14.55-32.498,32.498-32.498h67.8
	c4.199,0,7.604-3.405,7.604-7.604l0,0c0-4.199-3.405-7.604-7.604-7.604h-67.8C86.508,0,65.15,21.359,65.15,47.706v416.589
	c0,26.347,21.359,47.706,47.706,47.706h326.391c4.199,0,7.604-3.405,7.604-7.604v-80.204v-70.451c0-4.199-3.405-7.604-7.604-7.604
	l0,0c-4.199,0-7.604,3.405-7.604,7.604v62.846H431.642z M112.856,431.796h288.377v9.126H139.667c-4.2,0-7.604,3.404-7.604,7.604
	s3.404,7.604,7.604,7.604h261.566v9.125H112.86c-8.678,0-16.838-3.382-22.98-9.524c-2.155-2.155-3.972-4.566-5.433-7.192
	C90,438.562,100.65,431.796,112.856,431.796z M431.642,496.792H112.856c-16.719,0-30.524-12.691-32.3-28.946
	c8.834,8.145,20.226,12.615,32.304,12.615h295.977c4.2,0,7.604-3.404,7.604-7.604v-41.062h15.203v64.997H431.642z"/>
<path d="M439.246,0H216.143c-4.199,0-7.604,3.405-7.604,7.604l0,0c0,4.199,3.405,7.604,7.604,7.604h215.5v303.046
	c0,4.199,3.405,7.604,7.604,7.604l0,0c4.199,0,7.604-3.405,7.604-7.604V7.604C446.85,3.405,443.446,0,439.246,0z"/>
<path d="M275.214,289.407c4.902,0,9.803-2.335,9.803-7.002V125.549c0-4.436-4.435-7.003-8.636-7.003
	c-2.801,0-4.436,1.401-6.069,3.034l-21.475,25.442c-2.1,1.634-4.201,5.369-4.201,8.171c0,4.201,3.033,8.17,7.236,8.17
	c1.4,0,3.268-0.7,4.902-2.567l8.637-12.838v134.447C265.411,287.072,270.312,289.407,275.214,289.407z"/>
<g>
</g>
<g>
</g>
<g>
</g>
<g>
</g>
<g>
</g>
<g>
</g>
<g>
</g>
<g>
</g>
<g>
</g>
<g>
</g>
<g>
</g>
<g>
</g>
<g>
</g>
<g>
</g>
<g>
</g>
</svg>
