<?xml version="1.0" encoding="iso-8859-1"?>
<!-- Generator: Adobe Illustrator 19.0.0, SVG Export Plug-In . SVG Version: 6.00 Build 0)  -->
<svg version="1.1" id="Capa_1" xmlns="http://www.w3.org/2000/svg" xmlns:xlink="http://www.w3.org/1999/xlink" x="0px" y="0px"
	 viewBox="0 0 512 512" style="enable-background:new 0 0 512 512;" xml:space="preserve">
<path style="fill:#4E9612;" d="M112.855,504.396h326.39v-80.204h-326.39c-22.148,0-40.102,17.954-40.102,40.102l0,0
	C72.753,486.442,90.708,504.396,112.855,504.396z"/>
<path style="fill:#EFF1EE;" d="M75.975,278.204h332.861v145.99v48.665H112.86c-11.082,0-21.098-4.491-28.358-11.751
	c-3.589-3.589-6.499-7.847-8.527-12.582"/>
<path style="fill:#94C825;" d="M439.246,7.607v416.586H112.864c-22.153,0-40.108,17.955-40.108,40.098V47.705
	c0-22.143,17.955-40.098,40.108-40.098C112.864,7.607,439.246,7.607,439.246,7.607z"/>
<path style="fill:#4E9612;" d="M112.855,7.607v416.586c-22.153,0-40.108,17.955-40.108,40.098V47.705
	C72.747,25.562,90.703,7.607,112.855,7.607z"/>
<path d="M270.358,120.808c27.076,0,48.084,19.14,48.084,45.516c0,50.184-77.028,66.29-77.028,95.467v11.904h71.66
	c3.735,0,6.769,3.968,6.769,8.87c0,4.435-3.033,8.869-6.769,8.869h-83.097c-3.735,0-8.869-2.801-8.869-7.002v-22.642
	c0-38.28,77.728-56.253,77.728-94.768c0-13.304-8.87-28.01-28.477-28.01c-14.938,0-26.376,8.17-26.376,25.443
	c0,3.968-3.735,7.703-10.271,7.703c-5.602,0-8.869-2.801-8.869-11.437C224.843,137.146,245.382,120.808,270.358,120.808z"/>
<path d="M431.642,416.589H112.855c-12.548,0-23.973,4.878-32.498,12.825V386.18c0-4.199-3.405-7.604-7.604-7.604l0,0
	c-4.199,0-7.604,3.405-7.604,7.604v78.114c0,26.347,21.359,47.706,47.706,47.706h326.391c4.199,0,7.604-3.405,7.604-7.604v-80.204
	V185.948c0-4.199-3.405-7.604-7.604-7.604l0,0c-4.199,0-7.604,3.405-7.604,7.604v230.64H431.642z M112.855,431.796h288.377v9.126
	H139.666c-4.2,0-7.604,3.404-7.604,7.604s3.404,7.604,7.604,7.604h261.566v9.125H112.86c-8.678,0-16.838-3.382-22.98-9.524
	c-2.155-2.155-3.972-4.566-5.433-7.192C90,438.562,100.65,431.796,112.855,431.796z M431.642,496.792H112.855
	c-16.719,0-30.524-12.691-32.3-28.946c8.834,8.145,20.226,12.615,32.304,12.615h295.977c4.2,0,7.604-3.404,7.604-7.604v-41.062
	h15.203v64.997H431.642z"/>
<path d="M439.246,0h-326.39C86.507,0,65.149,21.359,65.149,47.706v302.987c0,4.199,3.405,7.604,7.604,7.604l0,0
	c4.199,0,7.604-3.405,7.604-7.604V47.706c0-17.948,14.55-32.498,32.498-32.498h318.787v135.254c0,4.199,3.405,7.604,7.604,7.604l0,0
	c4.199,0,7.604-3.405,7.604-7.604V7.604C446.85,3.405,443.445,0,439.246,0z"/>
<path d="M225.987,261.791v22.642c0,4.201,5.134,7.002,8.869,7.002h83.097c3.735,0,6.769-4.435,6.769-8.869
	c0-4.902-3.033-8.87-6.769-8.87h-71.66v-11.904c0-29.177,77.028-45.283,77.028-95.467c0-26.377-21.008-45.516-48.084-45.516
	c-24.975,0-45.516,16.338-45.516,39.914c0,8.637,3.268,11.437,8.869,11.437c6.536,0,10.271-3.735,10.271-7.703
	c0-17.273,11.436-25.443,26.376-25.443c19.607,0,28.477,14.706,28.477,28.01C303.715,205.538,225.987,223.511,225.987,261.791z"/>
<g>
</g>
<g>
</g>
<g>
</g>
<g>
</g>
<g>
</g>
<g>
</g>
<g>
</g>
<g>
</g>
<g>
</g>
<g>
</g>
<g>
</g>
<g>
</g>
<g>
</g>
<g>
</g>
<g>
</g>
</svg>
