<?xml version="1.0" encoding="iso-8859-1"?>
<!-- Generator: Adobe Illustrator 19.0.0, SVG Export Plug-In . SVG Version: 6.00 Build 0)  -->
<svg version="1.1" id="Capa_1" xmlns="http://www.w3.org/2000/svg" xmlns:xlink="http://www.w3.org/1999/xlink" x="0px" y="0px"
	 viewBox="0 0 512.003 512.003" style="enable-background:new 0 0 512.003 512.003;" xml:space="preserve">
<path style="fill:#656566;" d="M421.232,443.644L421.232,443.644c0,34.261-43.896,32.629-43.896,32.629H272.689
	c-26.495,0-51.85-10.259-70.228-28.416l-51.51-50.888c-20.002-19.761-40.006-24.318-53.487-30.921c0,16.551,0,113.943,0,130.41
	c0,4.441,3.785,8.042,8.453,8.042c3.792,0,30.523,0,33.861,0c5.464,0,9.894-4.214,9.894-9.413v-39.442
	c0.042-6.861,8.952-10.125,13.974-5.199l20.822,20.426c21.911,21.495,52.042,33.627,83.516,33.627h110.314
	c15.639,0,30.006-8.578,36.415-22.149C418.519,474.296,421.232,458.343,421.232,443.644L421.232,443.644z"/>
<path style="fill:#545456;" d="M122.888,496.458c0-14.19,0-88.47,0-119.331c-9.627-4.757-18.409-7.643-25.423-11.079
	c0,16.551,0,113.943,0,130.41c0,4.441,3.784,8.042,8.453,8.042c2.62,0,16.184,0,25.423,0
	C126.672,504.5,122.888,500.9,122.888,496.458z"/>
<path style="fill:#F2C29E;" d="M383.662,407.065c-30.083-3.816-61.331-11.051-86.904-51.146l-49.63-75.145
	c-5.738-7.604-8.826-16.729-8.826-26.09l5.895-233.546c0.203-8.043-6.729-14.424-14.729-13.555L105.254,21.078
	c-8.85,0.961-15.276,8.869-14.407,17.728c0.006,0.06-0.584-5.954,22.325,227.687l-0.002-0.003
	c0.387,10.856-0.071,19.541-1.608,25.207C94.1,356.07,98.59,338.57,97.464,366.048c13.481,6.602,33.485,11.16,53.487,30.921
	l51.51,50.888c18.378,18.157,43.732,28.416,70.228,28.416h104.646c0,0,43.896,1.632,43.896-32.629
	C421.232,426.457,403.714,409.609,383.662,407.065z"/>
<path style="fill:#E5AE89;" d="M123.07,377.216c0.011-18.115,0.571-36.468,13.877-85.52c1.537-5.666,1.996-14.352,1.608-25.207
	l0.002,0.003c-22.909-233.64-22.319-235.626-22.325-235.686c-0.41-4.179,0.818-8.135,3.143-11.262l-14.121,1.534
	c-8.85,0.961-15.276,8.869-14.407,17.728v-0.002c0.016,0.166,0.737,7.517,22.325,227.69l-0.002-0.003
	c0.387,10.856-0.071,19.541-1.608,25.207C94.1,356.071,98.59,338.571,97.464,366.049
	C104.523,369.505,113.371,372.405,123.07,377.216z"/>
<path d="M94.218,73.195c4.123-0.404,7.137-4.073,6.732-8.195l-2.64-26.926c-0.465-4.745,3.013-9.024,7.753-9.54l37.191-4.04
	l8.037,133.048c0.24,3.98,3.544,7.048,7.479,7.048c4.332,0,7.754-3.643,7.493-7.952l-8.078-133.766l72.092-7.832
	c3.477-0.375,6.509,2.391,6.419,5.908l-3.886,153.939c-0.106,4.186,3.251,7.689,7.502,7.689c4.054,0,7.391-3.234,7.494-7.311
	l3.886-153.939c0.317-12.568-10.532-22.569-23.036-21.2L104.444,13.621C91.567,15.02,82.12,26.646,83.383,39.537l2.64,26.926
	C86.427,70.584,90.088,73.596,94.218,73.195z"/>
<path d="M384.605,399.623c-38.993-4.945-59.211-14.759-81.59-47.839c-51.94-78.631-49.637-75.178-49.902-75.528
	c-4.765-6.313-7.291-13.74-7.311-21.483l1.124-44.506c0.104-4.141-3.168-7.583-7.309-7.688c-4.136-0.09-7.582,3.167-7.688,7.309
	c-1.468,58.232-1.128,41.757-1.128,44.796c0,10.982,3.523,21.493,10.192,30.414l49.474,74.906
	c27.431,42.968,62.001,50.664,92.25,54.501c16.231,2.06,31.015,15.949,31.015,29.14c0,28.666-38.288,25.13-57.725,25.128
	c-4.143,0-7.5,3.357-7.5,7.5c0,4.143,3.357,7.5,7.5,7.5c19.963,0.012,36.743,1.56,52.909-7.034
	c-4.473,12.316-16.924,20.261-30.618,20.261H267.984c-29.344,0-57.869-11.475-78.264-31.481l-20.82-20.426
	c-9.686-9.501-26.645-3.092-26.728,10.553v39.442c0,1.036-1.096,1.912-2.394,1.912c-31.097-0.339-34.814,0.64-34.814-0.542V377.464
	c15.444,6.304,27.556,11.839,40.714,24.84l51.511,50.89c19.672,19.434,47.191,30.58,75.499,30.58h48.316c4.143,0,7.5-3.357,7.5-7.5
	c0-4.143-3.357-7.5-7.5-7.5h-48.316c-24.394,0-48.07-9.568-64.957-26.25l-51.51-50.889c-18.783-18.559-36.982-24.29-51.102-30.342
	c0.43-19.005-2.09-9.532,11.704-60.353c0.176-6.049,9.265-9.459-0.662-80.807L104.368,99.833c-0.405-4.122-4.069-7.148-8.195-6.732
	c-4.123,0.404-7.137,4.073-6.732,8.195c14.923,152.173,19.11,172.861,14.885,188.437c-13.893,51.185-14.154,51.551-14.139,64.025
	c0.026,20.013-0.183-43.813-0.221,142.701c0,8.57,7.156,15.543,15.954,15.543h33.86c9.592,0,17.395-7.587,17.395-16.913
	l0.001-39.316c0.108-0.074,0.327-0.178,0.612-0.189c0.52-0.048-1.555-1.951,21.429,20.645
	c23.175,22.735,55.529,35.774,88.769,35.774h110.314c18.653,0,35.609-10.382,43.196-26.447c4.329-9.166,7.237-26.007,7.237-41.909
	C428.732,422.819,408.525,402.659,384.605,399.623z"/>
<g>
</g>
<g>
</g>
<g>
</g>
<g>
</g>
<g>
</g>
<g>
</g>
<g>
</g>
<g>
</g>
<g>
</g>
<g>
</g>
<g>
</g>
<g>
</g>
<g>
</g>
<g>
</g>
<g>
</g>
</svg>
