<?xml version="1.0" encoding="iso-8859-1"?>
<!-- Generator: Adobe Illustrator 19.0.0, SVG Export Plug-In . SVG Version: 6.00 Build 0)  -->
<svg version="1.1" id="Layer_1" xmlns="http://www.w3.org/2000/svg" xmlns:xlink="http://www.w3.org/1999/xlink" x="0px" y="0px"
	 viewBox="0 0 512.001 512.001" style="enable-background:new 0 0 512.001 512.001;" xml:space="preserve">
<circle style="fill:#F7B239;" cx="256.005" cy="256.004" r="246.855"/>
<g>
	<path style="fill:#E09B2D;" d="M126.308,385.694c-88.802-88.802-95.799-228.426-20.999-325.241
		c-8.286,6.401-16.258,13.399-23.858,20.999c-96.401,96.401-96.401,252.698,0,349.099s252.698,96.401,349.099,0
		c7.599-7.599,14.597-15.573,20.999-23.858C354.735,481.492,215.109,474.495,126.308,385.694z"/>
	<path style="fill:#E09B2D;" d="M256.001,409.701c-10.488,0-20.976-2.14-31.173-6.422c-4.659-1.957-6.85-7.32-4.893-11.979
		c1.957-4.658,7.317-6.851,11.979-4.893c15.758,6.617,32.417,6.617,48.175,0c4.66-1.958,10.022,0.235,11.979,4.893
		c1.957,4.659-0.234,10.022-4.893,11.979C276.977,407.561,266.489,409.701,256.001,409.701z"/>
</g>
<path style="fill:#A81004;" d="M313.026,287.204c0,15.111-3.179,29.219-8.665,41.151c-10.069,21.914-27.961,36.479-48.352,36.479
	c-20.391,0-38.283-14.565-48.352-36.479c-5.501-11.932-8.68-26.04-8.68-41.151c0-42.866,25.537-77.631,57.032-77.631
	C287.504,209.573,313.026,244.337,313.026,287.204z"/>
<path d="M256,0C114.842,0,0.001,114.841,0.001,256.001S114.842,512.001,256,512.001c141.159,0,256.001-114.841,256.001-256.001
	S397.159,0,256,0z M256,493.701c-131.068,0-237.7-106.631-237.7-237.7S124.932,18.299,256,18.299
	c131.069,0,237.702,106.632,237.702,237.702S387.069,493.701,256,493.701z"/>
<path d="M256.009,200.424c-18.22,0-35.16,9.402-47.701,26.473c-11.918,16.223-18.481,37.64-18.481,60.308
	c0,15.915,3.293,31.47,9.516,44.971c12.03,26.179,33.214,41.809,56.666,41.809s44.636-15.63,56.666-41.807
	c6.216-13.522,9.502-29.074,9.502-44.973c0-22.668-6.561-44.085-18.474-60.306C291.166,209.826,274.227,200.424,256.009,200.424z
	 M256.009,355.684c-12.501,0-24.3-7.038-33.156-19.298c3.165,0.182,6.301,0.634,9.351,1.387c7.783,1.92,15.787,2.879,23.795,2.879
	c8.01,0,16.024-0.961,23.813-2.882c3.051-0.753,6.189-1.204,9.353-1.385C280.311,348.645,268.51,355.684,256.009,355.684z
	 M298.57,318.277c-7.773-0.706-15.637-0.123-23.139,1.726c-12.712,3.134-26.143,3.136-38.845,0.002
	c-7.499-1.849-15.361-2.436-23.146-1.729c-3.471-9.597-5.315-20.199-5.315-31.074c0-37.761,21.481-68.481,47.883-68.481
	c26.395,0,47.868,30.721,47.868,68.481C303.877,298.071,302.034,308.672,298.57,318.277z"/>
<path d="M397.14,156.999c-13.647,8.431-29.762,11.043-45.368,7.357c-15.612-3.687-28.852-13.233-37.284-26.879
	c-2.655-4.298-8.292-5.63-12.593-2.974c-4.298,2.656-5.63,8.294-2.974,12.593c11,17.804,28.276,30.258,48.644,35.07
	c6.029,1.424,12.114,2.128,18.158,2.128c14.372,0,28.504-3.982,41.038-11.726c4.298-2.656,5.63-8.294,2.974-12.593
	C407.077,155.675,401.441,154.344,397.14,156.999z"/>
<path d="M213.081,147.097c2.656-4.299,1.324-9.938-2.974-12.593c-4.299-2.657-9.938-1.324-12.593,2.974
	c-8.431,13.646-21.672,23.192-37.284,26.879c-15.609,3.685-31.722,1.075-45.368-7.357c-4.298-2.655-9.936-1.322-12.593,2.974
	c-2.656,4.299-1.324,9.938,2.974,12.593c12.535,7.745,26.663,11.726,41.038,11.726c6.042,0,12.129-0.704,18.158-2.128
	C184.806,177.355,202.081,164.9,213.081,147.097z"/>
<g>
</g>
<g>
</g>
<g>
</g>
<g>
</g>
<g>
</g>
<g>
</g>
<g>
</g>
<g>
</g>
<g>
</g>
<g>
</g>
<g>
</g>
<g>
</g>
<g>
</g>
<g>
</g>
<g>
</g>
</svg>
