<?xml version="1.0" encoding="iso-8859-1"?>
<!-- Generator: Adobe Illustrator 19.0.0, SVG Export Plug-In . SVG Version: 6.00 Build 0)  -->
<svg version="1.1" id="Capa_1" xmlns="http://www.w3.org/2000/svg" xmlns:xlink="http://www.w3.org/1999/xlink" x="0px" y="0px"
	 viewBox="0 0 512.002 512.002" style="enable-background:new 0 0 512.002 512.002;" xml:space="preserve">
<path style="fill:#EC1518;" d="M408.069,465.503c0,0-41.568-44.336-65.901-49.405l-53.735,49.405L259.67,235.245L256,205.884
	l-3.67,29.361l-28.773,230.258l-53.735-49.405c-24.333,5.069-65.901,49.405-65.901,49.405
	c-15.015-59.564,21.768-147.709,47.408-198.96c12.44-24.87,22.264-41.051,22.264-41.051l18.909-77.56h126.996l18.898,77.56
	c0,0,9.814,16.171,22.264,41.041C386.301,317.774,423.084,405.929,408.069,465.503z"/>
<path style="fill:#AE0000;" d="M360.661,266.533c-18.016-5.302-32.95-11.659-44.225-17.266
	c-17.682-8.78-37.067-13.494-56.766-14.022c-1.217-0.02-2.443-0.041-3.67-0.041c-1.227,0-2.454,0.02-3.67,0.041
	c-9.246,0.253-18.412,1.419-27.374,3.488c-10.139,2.352-20.014,5.87-29.392,10.534c-11.274,5.597-26.208,11.964-44.235,17.276
	c12.44-24.87,22.264-41.051,22.264-41.051l18.909-77.56h126.996l18.898,77.56C338.397,225.493,348.211,241.664,360.661,266.533z"/>
<g>
	<path style="fill:#EC1518;" d="M292.221,96.179C329.998,58.402,382.265,46.5,428.839,46.5s72.449,18.63,72.449,34.155
		s-9.315,20.7-9.315,48.644s12.42,54.854,12.42,74.519s-18.63,46.575-92.113,39.33c-73.484-7.245-120.058-41.399-120.058-41.399
		l-69.101,0.001h-3.346c0,0-46.577,34.157-120.061,41.396c-73.485,7.249-92.109-19.659-92.109-39.328
		c0-19.659,12.42-46.577,12.42-74.519s-9.317-33.123-9.317-48.645s25.874-34.157,72.451-34.157s98.841,11.903,136.618,49.679"/>
	<path style="fill:#EC1518;" d="M279.478,89.969h-23.481h-23.481c-7.038,0-12.743,5.705-12.743,12.743v90.431
		c0,7.038,5.705,12.743,12.743,12.743h46.962c7.038,0,12.743-5.705,12.743-12.743v-90.431
		C292.221,95.674,286.515,89.969,279.478,89.969z"/>
</g>
<g>
	<path style="fill:#AE0000;" d="M246.132,193.144v-90.431c0-7.038,5.705-12.743,12.743-12.743h-2.879h-23.481
		c-7.038,0-12.743,5.705-12.743,12.743v90.431c0,7.038,5.705,12.743,12.743,12.743h26.36
		C251.838,205.887,246.132,200.182,246.132,193.144z"/>
	<path style="fill:#AE0000;" d="M115.816,178.85c42.35,0,76.68-13.844,76.68-30.923s-34.331-30.923-76.68-30.923l0,0
		C139.026,131.087,139.026,164.768,115.816,178.85L115.816,178.85z"/>
	<path style="fill:#AE0000;" d="M396.176,178.85c-42.35,0-76.68-13.844-76.68-30.923s34.331-30.923,76.68-30.923l0,0
		C372.967,131.087,372.967,164.768,396.176,178.85L396.176,178.85z"/>
</g>
<path d="M506.383,171.153c-3.345-13.561-6.803-27.584-6.803-41.855c0-14.69,2.654-22.105,5.22-29.276
	c2.008-5.615,4.087-11.42,4.087-19.369c0-11.042-8.297-21.83-22.764-29.599c-10.332-5.549-28.658-12.162-57.28-12.162
	c-8.142,0-16.221,0.358-24.109,1.067c-4.219,0.379-7.267,4.21-6.758,8.414l0.014,0.122c0.492,4.067,4.137,6.966,8.217,6.602
	c7.399-0.661,14.984-0.995,22.635-0.995c45.258,0,64.836,17.583,64.836,26.553c0,5.309-1.341,9.057-3.198,14.244
	c-2.722,7.606-6.11,17.071-6.11,34.401c0,16.119,3.85,31.727,7.245,45.497c2.661,10.789,5.175,20.978,5.175,29.022
	c0,4.951-1.531,12.238-8.825,18.848c-9.219,8.354-29.707,17.375-74.946,12.913c-60.761-5.986-102.991-31.202-113.655-38.169
	c0.295-1.376,0.457-2.8,0.457-4.263v-90.431c0-1.04-0.103-2.054-0.254-3.054c19.315-18.589,43.788-31.681,72.894-38.959
	c3.92-0.979,6.335-4.92,5.493-8.871l-0.025-0.119c-0.893-4.195-5.096-6.781-9.257-5.739c-30.45,7.623-56.352,21.173-77.173,40.366
	c-3.373-2.484-7.524-3.971-12.025-3.971h-46.962c-4.502,0-8.653,1.487-12.026,3.972C178.12,47.276,122.786,38.892,83.157,38.892
	c-28.627,0-46.955,6.613-57.288,12.162C11.4,58.821,3.102,69.61,3.102,80.652c0,7.95,2.08,13.756,4.092,19.371
	c2.569,7.171,5.225,14.585,5.225,29.274c0,14.272-3.458,28.295-6.803,41.855C2.728,182.863,0,193.924,0,203.816
	c0,11.347,4.908,22.044,13.82,30.121c13.237,11.995,34.26,18.032,62.672,18.031c7.478,0,15.472-0.419,23.967-1.256
	c21.182-2.087,40.139-6.32,56.488-11.345c-6.483,11.862-15.352,28.925-24.481,49.055c-1.737,3.829-0.026,8.341,3.821,10.035
	l0.114,0.05c3.778,1.664,8.197-0.017,9.903-3.776c14.274-31.456,28.182-55.76,32.456-63.044
	c21.663-8.641,36.324-17.631,42.406-21.665c3.244,2.189,7.151,3.469,11.351,3.469h14.868l-29.543,236.428L174.97,410.5
	c-1.804-1.659-4.297-2.347-6.698-1.846c-18.863,3.93-44.923,26.97-59.434,41.057c-3.405-31.207,4.635-72.906,23.608-122.041
	c1.487-3.853-0.385-8.19-4.219-9.728l-0.117-0.047c-3.895-1.563-8.329,0.355-9.844,4.269
	C94.872,382.669,87.551,431.435,96.508,467.2c0.538,2.149,1.931,4.034,3.901,5.049c3.105,1.6,6.774,0.894,9.06-1.544
	c10.413-11.1,39.853-39.513,58.335-46.135l50.608,46.53c1.428,1.312,3.272,2.006,5.147,2.006c1.199,0,2.413-0.284,3.536-0.872
	c2.277-1.193,3.727-3.536,4.045-6.087l24.858-198.939l24.861,198.963c0.319,2.553,1.78,4.891,4.065,6.075
	c1.118,0.58,2.323,0.86,3.514,0.86c1.876,0,3.72-0.694,5.147-2.006l50.608-46.53c18.405,6.594,47.674,34.796,58.202,45.994
	c1.513,1.608,3.624,2.599,5.83,2.544c3.509-0.086,6.401-2.488,7.223-5.747c9.658-38.312,0.636-91.452-26.817-157.946
	c-12.043-29.17-24.93-54.229-33.577-70.048c16.345,5.024,35.299,9.257,56.477,11.342c8.498,0.838,16.486,1.257,23.969,1.256
	c28.412-0.001,49.444-6.039,62.682-18.035c8.912-8.076,13.82-18.772,13.82-30.117C512,193.924,509.272,182.863,506.383,171.153z
	 M98.966,235.577c-45.232,4.462-65.717-4.556-74.933-12.908c-7.294-6.61-8.825-13.901-8.825-18.853
	c0-8.044,2.513-18.233,5.175-29.022c3.396-13.77,7.245-29.378,7.245-45.497c0-17.331-3.391-26.797-6.117-34.403
	c-1.858-5.186-3.201-8.934-3.201-14.242c0-8.97,19.582-26.553,64.847-26.553c37.591,0,90.232,7.984,129.268,45.549
	c-0.152,1.002-0.257,2.02-0.257,3.064v90.431c0,1.464,0.163,2.89,0.458,4.266C201.939,204.391,159.709,229.593,98.966,235.577z
	 M227.377,193.144v-90.431c0-2.834,2.306-5.139,5.139-5.139h46.962c2.834,0,5.139,2.306,5.139,5.139v90.431
	c0,2.834-2.306,5.139-5.139,5.139h-46.962C229.682,198.283,227.377,195.977,227.377,193.144z M403.179,449.734
	c-14.506-14.086-40.583-37.148-59.457-41.08c-2.4-0.501-4.893,0.188-6.698,1.846l-42.872,39.418L264.61,213.49h14.868
	c4.201,0,8.109-1.281,11.354-3.47c6.078,4.033,20.737,13.024,42.4,21.666C343.678,249.524,412.108,370.028,403.179,449.734z"/>
<path d="M396.176,124.609c4.199,0,7.604-3.405,7.604-7.604c0-4.199-3.405-7.604-7.604-7.604c-21.434,0-41.7,3.413-57.065,9.609
	c-17.553,7.079-27.219,17.348-27.219,28.917s9.667,21.84,27.219,28.917c15.365,6.197,35.632,9.609,57.065,9.609
	c4.199,0,7.604-3.405,7.604-7.604s-3.405-7.604-7.604-7.604c-42.168,0-69.076-13.811-69.076-23.319S354.009,124.609,396.176,124.609
	z"/>
<path d="M172.882,119.01c-15.365-6.197-35.632-9.609-57.065-9.609c-4.199,0-7.604,3.405-7.604,7.604
	c0,4.199,3.405,7.604,7.604,7.604c42.168,0,69.076,13.811,69.076,23.319s-26.91,23.319-69.076,23.319
	c-4.199,0-7.604,3.405-7.604,7.604s3.405,7.604,7.604,7.604c21.434,0,41.7-3.413,57.065-9.609
	c17.553-7.079,27.219-17.348,27.219-28.917S190.435,126.089,172.882,119.01z"/>
<g>
</g>
<g>
</g>
<g>
</g>
<g>
</g>
<g>
</g>
<g>
</g>
<g>
</g>
<g>
</g>
<g>
</g>
<g>
</g>
<g>
</g>
<g>
</g>
<g>
</g>
<g>
</g>
<g>
</g>
</svg>
