<?xml version="1.0" encoding="iso-8859-1"?>
<!-- Generator: Adobe Illustrator 19.0.0, SVG Export Plug-In . SVG Version: 6.00 Build 0)  -->
<svg version="1.1" id="Capa_1" xmlns="http://www.w3.org/2000/svg" xmlns:xlink="http://www.w3.org/1999/xlink" x="0px" y="0px"
	 viewBox="0 0 512 512" style="enable-background:new 0 0 512 512;" xml:space="preserve">
<path style="fill:#FFB600;" d="M413.962,57.535H179.121c-63.129,71.276-57.67,176.761-57.67,176.761h234.841
	C356.291,234.295,350.832,128.811,413.962,57.535z"/>
<rect x="223.999" y="234.3" style="fill:#0086CC;" width="280.379" height="220.169"/>
<rect x="7.619" y="234.3" style="fill:#004D88;" width="313.903" height="220.169"/>
<path d="M292.675,111.362l-51.609,45.875l-29.477-24.118c-3.256-2.664-8.057-2.185-10.721,1.072
	c-2.665,3.257-2.184,8.057,1.073,10.721l34.507,28.233c1.406,1.15,3.116,1.722,4.823,1.722c1.812,0,3.622-0.644,5.062-1.925
	l56.465-50.192c3.145-2.796,3.429-7.611,0.633-10.756C300.637,108.851,295.82,108.565,292.675,111.362z"/>
<path d="M512,357.209V234.295c0-4.208-3.411-7.619-7.619-7.619H363.81c0.182-24.559,4.818-106.467,55.854-164.09
	c2.381-2.688,2.609-6.749,0.31-9.736c-1.472-1.911-3.825-2.935-6.237-2.935H179.12c-2.18,0-4.257,0.935-5.703,2.567
	c-33.77,38.129-48.167,85.636-54.297,118.774c-4.546,24.574-5.364,44.807-5.413,55.419H65.02c-4.208,0-7.619,3.411-7.619,7.619l0,0
	c0,4.208,3.411,7.619,7.619,7.619h56.43h192.456v204.932H15.238V241.914h14.225c4.208,0,7.619-3.411,7.619-7.619l0,0
	c0-4.208-3.411-7.619-7.619-7.619H7.619c-4.208,0-7.619,3.411-7.619,7.619v220.17c0,4.208,3.411,7.619,7.619,7.619h313.906h182.856
	c4.208,0,7.619-3.411,7.619-7.619v-61.7c0-4.208-3.411-7.619-7.619-7.619l0,0c-4.208,0-7.619,3.411-7.619,7.619v54.081H329.144
	V241.914h27.148h140.47v115.295c0,4.208,3.411,7.619,7.619,7.619l0,0C508.589,364.828,512,361.417,512,357.209z M321.525,226.676
	H128.968c0.18-24.205,4.681-104.065,53.625-161.523h215.374c-26.497,35.567-38.539,76.55-44.005,106.104
	c-4.546,24.573-5.363,44.807-5.412,55.419L321.525,226.676L321.525,226.676z"/>
<g>
</g>
<g>
</g>
<g>
</g>
<g>
</g>
<g>
</g>
<g>
</g>
<g>
</g>
<g>
</g>
<g>
</g>
<g>
</g>
<g>
</g>
<g>
</g>
<g>
</g>
<g>
</g>
<g>
</g>
</svg>
