<?xml version="1.0" encoding="iso-8859-1"?>
<!-- Generator: Adobe Illustrator 19.0.0, SVG Export Plug-In . SVG Version: 6.00 Build 0)  -->
<svg version="1.1" id="Capa_1" xmlns="http://www.w3.org/2000/svg" xmlns:xlink="http://www.w3.org/1999/xlink" x="0px" y="0px"
	 viewBox="0 0 512 512" style="enable-background:new 0 0 512 512;" xml:space="preserve">
<rect x="7.604" y="75.157" style="fill:#775447;" width="496.792" height="215.466"/>
<rect x="7.604" y="261.708" style="fill:#C99167;" width="496.792" height="221.762"/>
<path style="fill:#CE8402;" d="M175.809,261.712v-58.703v-18.345c0-15.074,12.212-27.286,27.286-27.286h104.092
	c7.861,0,15.347,3.386,20.525,9.319l23.628,26.993c5.179,5.923,12.663,9.319,20.536,9.319H477.11
	c15.064,0,27.286,12.212,27.286,27.286v31.417"/>
<path style="fill:#FFAE00;" d="M96.139,261.712v-58.703v-18.345c0-15.074,12.212-27.286,27.286-27.286h104.092
	c7.861,0,15.347,3.386,20.525,9.319l23.628,26.993c5.179,5.923,12.663,9.319,20.536,9.319h105.235
	c15.064,0,27.286,12.212,27.286,27.286v31.417"/>
<path style="fill:#FACC00;" d="M7.604,261.712v-58.703v-18.345c0-15.074,12.212-27.286,27.286-27.286h104.092
	c7.861,0,15.347,3.386,20.525,9.319l23.628,26.993c5.179,5.923,12.663,9.319,20.536,9.319h105.235
	c15.064,0,27.286,12.212,27.286,27.286v31.417"/>
<rect x="7.604" y="28.519" style="fill:#C6936D;" width="496.792" height="75.553"/>
<rect x="175.905" y="334.067" style="fill:#FBFFFF;" width="160.19" height="77.053"/>
<path d="M504.396,20.921H7.604C3.405,20.921,0,24.325,0,28.524v75.549v80.592v77.047v221.763c0,4.199,3.405,7.604,7.604,7.604
	h78.577c4.199,0,7.604-3.405,7.604-7.604l0,0c0-4.199-3.405-7.604-7.604-7.604H15.208V269.317h481.584v206.555H121.667
	c-4.199,0-7.604,3.405-7.604,7.604l0,0c0,4.199,3.405,7.604,7.604,7.604h382.729c4.199,0,7.604-3.405,7.604-7.604V261.713v-31.417
	V104.072V28.524C512,24.324,508.595,20.921,504.396,20.921z M496.792,36.128v60.34h-92.258c-4.199,0-7.604,3.405-7.604,7.604l0,0
	c0,4.199,3.405,7.604,7.604,7.604h92.258v89.83c-5.607-3.846-12.385-6.101-19.682-6.101h-79.668h-25.567
	c-5.68,0-11.077-2.449-14.814-6.723l-23.621-26.985c-6.614-7.578-16.184-11.923-26.255-11.923h-79.668h-24.424h-64.112h-15.557
	H34.89c-7.298,0-14.075,2.256-19.682,6.1v-44.198h353.84c4.199,0,7.604-3.405,7.604-7.604l0,0c0-4.199-3.405-7.604-7.604-7.604
	H15.208v-60.34H496.792z M417.124,230.296v23.813h-73.329v-23.813c0-7.298-2.256-14.075-6.101-19.683h34.181h25.567
	C408.294,210.613,417.124,219.443,417.124,230.296z M242.322,171.706l20.745,23.699h-59.396c-5.68,0-11.077-2.449-14.814-6.723
	l-20.746-23.699h34.983h24.424C233.196,164.982,238.589,167.431,242.322,171.706z M277.394,188.682l-20.746-23.699h50.538
	c5.679,0,11.071,2.448,14.804,6.724l20.745,23.699h-33.83h-16.699C286.527,195.405,281.13,192.956,277.394,188.682z M15.208,184.664
	c0-10.853,8.83-19.682,19.682-19.682h88.535h15.557c5.679,0,11.071,2.447,14.803,6.724l23.625,26.989
	c6.622,7.574,16.193,11.918,26.26,11.918h88.535h16.699c10.852,0,19.682,8.83,19.682,19.683v23.813H15.208V184.664z
	 M432.332,254.109v-23.813c0-7.298-2.256-14.075-6.101-19.683h50.88c10.852,0,19.682,8.83,19.682,19.683v23.813H432.332z"/>
<path d="M336.095,418.724c4.2,0,7.604-3.405,7.604-7.604v-77.053c0-4.199-3.404-7.604-7.604-7.604h-160.19
	c-4.2,0-7.604,3.405-7.604,7.604v77.053c0,4.199,3.404,7.604,7.604,7.604H336.095z M183.509,341.671h144.982v61.846H183.509V341.671
	z"/>
<g>
</g>
<g>
</g>
<g>
</g>
<g>
</g>
<g>
</g>
<g>
</g>
<g>
</g>
<g>
</g>
<g>
</g>
<g>
</g>
<g>
</g>
<g>
</g>
<g>
</g>
<g>
</g>
<g>
</g>
</svg>
