<?xml version="1.0" encoding="iso-8859-1"?>
<!-- Generator: Adobe Illustrator 19.0.0, SVG Export Plug-In . SVG Version: 6.00 Build 0)  -->
<svg version="1.1" id="Capa_1" xmlns="http://www.w3.org/2000/svg" xmlns:xlink="http://www.w3.org/1999/xlink" x="0px" y="0px"
	 viewBox="0 0 512 512" style="enable-background:new 0 0 512 512;" xml:space="preserve">
<path style="fill:#CC9D72;" d="M248.762,7.661C139.006,11.327,51.384,97.781,51.384,203.717c0,19.048-0.019,50.068-0.042,65.032
	l409.395-0.661c0.005-26.049,0.01-61.661,0.01-64.371C460.747,92.185,364.027,3.608,248.762,7.661z"/>
<path style="fill:#C19067;" d="M148.907,203.717c0-92.205,66.385-169.64,155.962-190.584c-17.934-4.211-36.757-6.152-56.106-5.472
	C139.006,11.327,51.384,97.781,51.384,203.717c0,19.048-0.019,50.068-0.042,65.032l97.523-0.157
	C148.888,253.57,148.907,222.7,148.907,203.717z"/>
<g>
	<path style="fill:#DBBC3B;" d="M467.622,273.482c0,15.651-15.706,28.335-32.343,28.335v-56.669
		C451.916,245.149,467.622,257.833,467.622,273.482z"/>
	<path style="fill:#DBBC3B;" d="M44.378,273.431c0,15.621,15.677,28.282,32.282,28.282V245.15
		C60.055,245.151,44.378,257.812,44.378,273.431z"/>
</g>
<g>
	<path style="fill:#CCAF37;" d="M435.279,278.545v23.272c16.636,0,32.343-12.685,32.343-28.335c0-4.149-1.112-8.085-3.045-11.635
		C459.221,271.691,447.505,278.545,435.279,278.545z"/>
	<path style="fill:#CCAF37;" d="M47.429,261.795c-1.936,3.55-3.051,7.486-3.051,11.635c0,15.621,15.677,28.282,32.282,28.282V278.44
		C64.466,278.441,52.781,271.609,47.429,261.795z"/>
</g>
<path style="fill:#F4D44E;" d="M435.744,245.04l-3.212-3.864c-24.654-29.654-17.674-60.619-18.877-70.721
	c0-10.572-6.843-13.294-17.189-10.401c-81.939,26.889-141.226-1.009-141.226-1.009l7.534,10.388
	c5.712,7.876,3.795,21.922-14.085,23.036c-0.748-0.12-1.209,0.1-6.743-0.228l0,0c-15.301-0.908-55.681-5.942-98.902-32.958
	l-0.004,0.018c-30.859-18.771-44.69,0.249-44.69,15.842v13.802c0,34.25-20.938,54.165-22.09,56.095c0,0.008-0.09-0.23-0.09,87.152
	c0,96.499,82.463,173.496,181.802,172.299c97.199-0.85,177.862-76.648,177.862-172.494
	C435.809,213.689,435.744,253.853,435.744,245.04z"/>
<path style="fill:#E8C842;" d="M126.805,332.192c0-40.527,0.019-62.207,0.04-73.805c0.014-7.924,2.435-15.656,7.001-22.132
	c6.487-9.2,15.138-25.293,15.138-47.31v-13.802c0-3.637,0.763-7.457,2.309-10.944c-2.735-1.552-5.487-3.188-8.25-4.915l-0.004,0.018
	c-30.859-18.771-44.69,0.249-44.69,15.842v13.802c0,34.25-20.938,54.165-22.09,56.095c0,0.008-0.09-0.23-0.09,87.152
	c0,96.499,82.463,173.496,181.802,172.299c7.884-0.069,15.657-0.639,23.29-1.665C194.58,491.131,126.805,419.676,126.805,332.192z"
	/>
<path style="fill:#656566;" d="M202.983,403.935c21.937,42.16,81.869,43.26,105.657,2.834c2.797-4.753-0.62-10.743-6.14-10.743
	h-94.701C203.733,396.025,201.108,400.331,202.983,403.935z"/>
<path style="fill:#4F4F51;" d="M227.923,403.935c-1.436-3.603,0.574-7.91,3.69-7.91h-23.814c-4.066,0-6.691,4.306-4.816,7.91
	c11.834,22.743,36.321,34.902,60.748,32.064C250.006,433.919,235.749,423.56,227.923,403.935z"/>
<path style="fill:#656566;" d="M192.006,279.057c-6.384-11.042-20.522-14.825-31.579-8.45c-11.057,6.375-14.845,20.494-8.462,31.536
	s20.522,14.825,31.579,8.45C194.602,304.218,198.39,290.099,192.006,279.057z"/>
<path style="fill:#4F4F51;" d="M171.986,290.6c-4.278-7.399-3.982-16.177,0.002-23.083c-3.93-0.004-7.913,0.987-11.56,3.09
	c-11.057,6.375-14.845,20.494-8.462,31.536c6.384,11.042,20.522,14.825,31.579,8.45c3.648-2.103,6.499-5.052,8.46-8.453
	C184.024,302.132,176.264,297.999,171.986,290.6z"/>
<path style="fill:#DBBC3B;" d="M270.146,313.686h-28.289c-3.83,0-6.963,3.129-6.963,6.954v5.288c0,8.992,5.701,17.146,14.292,19.84
	c14.552,4.563,27.924-6.165,27.924-20.013v-5.116C277.109,316.815,273.976,313.686,270.146,313.686z"/>
<path style="fill:#CCAF37;" d="M256.001,320.64c0-3.825,3.134-6.954,6.963-6.954h-21.108c-3.83,0-6.963,3.129-6.963,6.954v5.288
	c0,16.9,18.106,25.801,31.546,18.148C253.539,336.759,256.356,322.378,256.001,320.64z"/>
<path style="fill:#656566;" d="M360.037,279.057c-6.384-11.042-20.522-14.825-31.579-8.45s-14.845,20.494-8.462,31.536
	c6.384,11.042,20.522,14.825,31.579,8.45C362.632,304.218,366.421,290.099,360.037,279.057z"/>
<path style="fill:#4F4F51;" d="M340.018,267.516c-17.647-0.018-28.958,19.17-20.022,34.626c8.935,15.454,31.231,15.269,40.039-0.003
	C352.054,302.132,331.139,282.91,340.018,267.516z"/>
<path d="M240.247,441.977c30.332,7.522,60.208-6.443,74.857-31.373c5.739-9.766-1.287-22.058-12.606-22.058h-94.7
	c-9.698,0-15.939,10.283-11.471,18.879C197.133,408.976,221.152,437.24,240.247,441.977z M301.85,403.546
	c-20.834,34.483-70.652,33.09-90.506,0H301.85z"/>
<path d="M234.893,306.094c-4.143,0-7.5,3.357-7.5,7.5v12.087c0,15.774,12.833,28.607,28.607,28.607s28.608-12.833,28.608-28.607
	v-12.087c0-4.143-3.357-7.5-7.5-7.5s-7.5,3.357-7.5,7.5v12.087c0,7.503-6.104,13.607-13.608,13.607
	c-7.503,0-13.607-6.104-13.607-13.607v-12.087C242.393,309.452,239.035,306.094,234.893,306.094z"/>
<path d="M340.016,321.094c16.883,0,30.617-13.734,30.617-30.617s-13.734-30.617-30.617-30.617s-30.618,13.734-30.618,30.617
	S323.133,321.094,340.016,321.094z M340.016,274.86c8.611,0,15.617,7.006,15.617,15.617s-7.006,15.617-15.617,15.617
	c-8.612,0-15.618-7.006-15.618-15.617S331.403,274.86,340.016,274.86z"/>
<path d="M171.984,321.094c16.883,0,30.618-13.734,30.618-30.617s-13.735-30.617-30.618-30.617s-30.617,13.734-30.617,30.617
	S155.102,321.094,171.984,321.094z M171.984,274.86c8.612,0,15.618,7.006,15.618,15.617s-7.006,15.617-15.618,15.617
	c-8.611,0-15.617-7.006-15.617-15.617S163.373,274.86,171.984,274.86z"/>
<path d="M380.152,250.209c-23.18-19.398-57.037-19.446-80.273,0c-3.177,2.659-3.597,7.389-0.938,10.565
	c2.66,3.177,7.389,3.596,10.565,0.938c17.65-14.772,43.393-14.752,61.02,0c1.404,1.175,3.111,1.748,4.81,1.748
	C382.344,263.461,385.484,254.672,380.152,250.209z"/>
<path d="M202.494,261.712c1.404,1.176,3.111,1.749,4.81,1.749c7.007,0,10.149-8.79,4.817-13.251
	c-23.221-19.436-57.084-19.409-80.272,0c-3.177,2.658-3.597,7.389-0.938,10.564c2.659,3.177,7.39,3.598,10.564,0.938
	C159.091,246.969,184.835,246.932,202.494,261.712z"/>
<path d="M406.568,60.139C326.82-16.854,198.77-20.177,114.88,51.656c-3.146,2.694-3.513,7.429-0.819,10.575
	c2.695,3.146,7.43,3.513,10.575,0.819c78.488-67.209,197.94-63.152,271.514,7.881c36.818,35.547,57.096,82.705,57.096,132.786
	l-0.008,37.735c-4.233-1.941-8.876-3.211-13.749-3.638c-0.526-0.906-18.335-18.964-18.335-48.873v-18.485
	c0-15.509-11.494-21.915-26.585-17.658c-1.2,0.32-13.238,4.584-29.866,7.706c-4.071,0.764-6.752,4.684-5.987,8.755
	s4.684,6.756,8.755,5.987c26.281-4.934,34.704-10.618,37.897-8.43c4.183,2.861-8.797,42.838,21.396,79.153l1.52,1.828
	c0.076,6.437,0.009,9.445,0.05,84.394c0,33.979-10.709,66.586-30.97,94.297c-2.444,3.344-1.716,8.036,1.628,10.481
	c3.364,2.458,8.05,1.697,10.481-1.628c42.805-58.548,32.322-114.918,33.855-127.677c26.52-4.828,41.336-32.832,24.908-54.36
	l0.01-49.588C468.246,149.529,446.342,98.538,406.568,60.139z M443.332,292.225v-38.454c9.428,2.847,16.789,10.734,16.789,19.226
	S452.76,289.377,443.332,292.225z"/>
<path d="M101.043,87.109c2.631-3.199,2.17-7.925-1.029-10.557c-3.197-2.63-7.925-2.172-10.557,1.029
	c-29.814,36.252-45.574,79.869-45.574,126.136c0,18.404-0.017,34.897-0.04,49.489c-16.572,21.561-1.688,49.632,24.83,54.459
	c1.833,11.103-12.277,87.072,54.653,151.484c72.147,69.431,188.31,70.341,261.716,3.394c3.061-2.791,3.279-7.534,0.487-10.595
	c-2.792-3.063-7.536-3.276-10.595-0.488C266.953,549.94,83.668,478.881,83.668,332.192c0.044-78.295-0.024-77.928,0.051-84.394
	c0.659-1.134,22.129-22.73,22.129-58.853c0.516-10.811-1.514-17.303,2.906-23.911c2.095-3.131,8.47-12.656,30.386,0.674
	c35.26,21.5,71.218,32.171,102.361,34.021c3.304,0.195,7.275,0.25,7.651,0.226c18.383-1.144,26.595-14.207,23.322-27.21
	c13.788,3.597,33.977,7.109,58.823,6.411c4.14-0.117,7.402-3.568,7.285-7.709s-3.546-7.422-7.709-7.285
	c-34.963,0.997-62.682-7.36-72.443-11.904c-6.99-3.289-13.8,4.935-9.264,11.189l7.532,10.389c2.438,3.36,1.076,6.563,0.413,7.736
	c-3.014,3.915-10.065,3.458-14.725,3.183c-14.766-0.876-53.615-5.732-95.371-31.831c-31.883-20.015-56.169-3.032-56.169,22.219
	c-0.862,6.79,4.75,34.905-17.146,61.242l-1.188,1.429c-4.836,0.423-9.446,1.677-13.653,3.593c0.014-11.528,0.023-24.083,0.023-37.69
	C58.883,160.968,73.461,120.645,101.043,87.109z M68.668,253.771v38.454c-9.428-2.848-16.789-10.736-16.789-19.229
	C51.879,264.505,59.24,256.618,68.668,253.771z"/>
<g>
</g>
<g>
</g>
<g>
</g>
<g>
</g>
<g>
</g>
<g>
</g>
<g>
</g>
<g>
</g>
<g>
</g>
<g>
</g>
<g>
</g>
<g>
</g>
<g>
</g>
<g>
</g>
<g>
</g>
</svg>
