<?xml version="1.0" encoding="iso-8859-1"?>
<!-- Generator: Adobe Illustrator 19.0.0, SVG Export Plug-In . SVG Version: 6.00 Build 0)  -->
<svg version="1.1" id="Capa_1" xmlns="http://www.w3.org/2000/svg" xmlns:xlink="http://www.w3.org/1999/xlink" x="0px" y="0px"
	 viewBox="0 0 512.001 512.001" style="enable-background:new 0 0 512.001 512.001;" xml:space="preserve">
<path style="fill:#CC9D72;" d="M248.768,7.74C139.03,11.404,51.421,97.845,51.421,203.764c0,19.045-0.019,43.061-0.042,58.024
	l409.33-0.662c0.005-26.045,0.01-54.652,0.011-57.362C460.72,92.25,364.015,3.687,248.768,7.74z"/>
<path style="fill:#C19067;" d="M128.23,194.554c0-74.416,32.213-140.527,82.032-182c-91.029,19.931-158.841,98.027-158.841,191.21
	c0,19.045-0.019,43.061-0.042,58.024l76.809-0.124C128.211,244.319,128.23,216.57,128.23,194.554z"/>
<g>
	<path style="fill:#DBBC3B;" d="M44.418,273.195c0,15.47,15.525,28.007,31.968,28.007v-56.011
		C59.943,245.191,44.418,257.728,44.418,273.195z"/>
	<path style="fill:#DBBC3B;" d="M467.594,273.117c0,15.427-15.481,27.929-31.879,27.929v-55.855
		C452.113,245.191,467.594,257.693,467.594,273.117z"/>
</g>
<g>
	<path style="fill:#CCAF37;" d="M47.592,261.394c-10.719,19.107,7.314,39.808,28.794,39.808V277.6
		C64.426,277.6,52.96,270.964,47.592,261.394z"/>
	<path style="fill:#CCAF37;" d="M435.716,277.443v23.602c16.397,0,31.879-12.503,31.879-27.929c0-4.218-1.164-8.216-3.183-11.801
		C459.051,270.841,447.628,277.443,435.716,277.443z"/>
</g>
<path style="fill:#F4D44E;" d="M435.721,245.082c-0.436-0.808-19.425-19.292-21.897-55.526l0.116-0.773
	c-100.651-43.712-215.17-43.701-315.815,0.031v1.612c-2.847,36.063-21.279,53.633-21.833,54.656c0,0.008-0.09-0.152-0.09,87.138
	c0,95.246,80.323,171.419,177.834,172.272c0.658,0.008,1.313,0.003,1.97,0.004c0.656-0.001,1.312,0.004,1.97-0.004
	c97.184-0.85,177.834-76.636,177.834-172.467C435.791,236.948,435.721,245.656,435.721,245.082z"/>
<path style="fill:#E8C842;" d="M126.378,332.22c0-0.055,0-0.12,0-0.195c0.014-69.225,0.055-127.509,0.077-154.246
	c-9.548,3.302-18.998,6.98-28.33,11.034v1.612c-2.847,36.063-21.279,53.633-21.833,54.656c0,0.008-0.09-0.154-0.09,87.138
	c0,95.246,80.323,171.419,177.834,172.272c0.658,0.008,1.313,0.003,1.97,0.004c0.656-0.001,1.312,0.004,1.97-0.004
	c7.823-0.069,15.537-0.629,23.111-1.64C194.321,491.275,126.378,419.817,126.378,332.22z"/>
<path style="fill:#656566;" d="M202.996,403.983c21.934,42.21,81.856,43.312,105.64,2.838c2.797-4.758-0.619-10.756-6.139-10.756
	h-94.686C203.745,396.064,201.122,400.375,202.996,403.983z"/>
<path style="fill:#4F4F51;" d="M227.932,403.983c-1.436-3.607,0.574-7.919,3.689-7.919h-23.81c-4.065,0-6.69,4.311-4.815,7.919
	c11.832,22.77,36.315,34.945,60.738,32.103C250.012,434.004,235.757,423.633,227.932,403.983z"/>
<circle style="fill:#656566;" cx="172.003" cy="290.515" r="23.116"/>
<path style="fill:#4F4F51;" d="M172.006,267.4c-17.644-0.018-28.953,19.193-20.019,34.669c8.934,15.473,31.226,15.288,40.033-0.003
	C174.225,302.047,163.128,282.813,172.006,267.4z"/>
<path style="fill:#7C6359;" d="M460.72,218.08c-0.01-18.878,0.577-35.172-5.605-60.002l0,0c-2.519-10.14-5.947-20.226-10.16-29.888
	v-0.001c-1.372-3.144-3.07-6.736-3.717-8.052h0.012c-8.383-17.02-19.243-32.675-32.111-46.559l0,0
	c-0.95-0.818-19.665-22.625-51.242-39.992C238.856-32.048,88.474,31.75,57.022,158.058c-0.002,0.008-0.004,0.015-0.006,0.023l0,0
	c-6.229,25.026-5.589,42.199-5.599,59.999c0.337-0.223,6.262-4.124,17.736-10.261c116.719-62.427,257.11-62.427,373.83,0
	C454.458,213.955,460.384,217.857,460.72,218.08z"/>
<path style="fill:#6B544D;" d="M131.991,146.645L131.991,146.645c1.253-3.173,12.286-79.261,78.231-134.091
	c-72.298,16.163-134.277,69.51-153.2,145.504c-0.002,0.008-0.004,0.015-0.006,0.023l0,0c-6.229,25.026-5.589,42.199-5.599,59.999
	c13.739-9.09,43.941-24.6,75.629-35.505C127.743,171.903,129.147,160.255,131.991,146.645z"/>
<path style="fill:#77B777;" d="M334.483,120.136h0.005c-3.552-17.02-8.155-32.675-13.609-46.559l0,0
	c-6.884-17.277-16.208-35.393-29.276-48.736c-16.773-17.104-36.926-22.822-57.244-11.065
	c-17.661,10.263-29.435,31.446-29.367,31.333c-28.256,46.652-32.978,111.71-33.346,112.972l0,0
	c-0.426,4.035-0.791,8.124-1.105,12.25c56.276-12.423,114.551-12.455,170.929-0.029
	C340.077,152.038,337.602,135.062,334.483,120.136z"/>
<path style="fill:#6AAA6A;" d="M196.728,158.081L196.728,158.081c0.368-1.262,5.09-66.32,33.346-112.971
	c-1.164,1.924,14.473-27.542,38.48-35.454c-10.94-3.607-22.54-2.624-34.196,4.121c-17.661,10.263-29.435,31.446-29.367,31.333
	c-28.256,46.652-32.978,111.71-33.346,112.972l0,0c-0.426,4.035-0.791,8.124-1.105,12.25c8.452-1.866,16.948-3.446,25.477-4.752
	C196.234,163.064,196.466,160.56,196.728,158.081z"/>
<path style="fill:#DBBC3B;" d="M270.149,313.625h-28.285c-3.829,0-6.962,3.133-6.962,6.962v5.295c0,9.004,5.7,17.167,14.29,19.864
	c14.55,4.569,27.92-6.173,27.92-20.038v-5.122C277.111,316.759,273.978,313.625,270.149,313.625z"/>
<path style="fill:#CCAF37;" d="M256.006,320.588c0-3.829,3.134-6.962,6.962-6.962h-21.105c-3.829,0-6.962,3.133-6.962,6.962v5.295
	c0,16.92,18.103,25.832,31.541,18.17C253.544,336.726,256.361,322.329,256.006,320.588z"/>
<circle style="fill:#F4D44E;" cx="256.01" cy="103.944" r="21.107"/>
<path style="fill:#E8C842;" d="M256.006,103.948c-3.903-6.761-3.623-14.776,0.009-21.088c-16.091-0.023-26.458,17.488-18.286,31.64
	c5.828,10.094,18.735,13.553,28.829,7.725c3.333-1.925,5.924-4.629,7.716-7.741C266.99,114.473,259.909,110.71,256.006,103.948z"/>
<circle style="fill:#656566;" cx="340.007" cy="290.515" r="23.116"/>
<path style="fill:#4F4F51;" d="M340.009,290.512c-4.277-7.408-3.981-16.196,0.002-23.111c-3.929-0.004-7.912,0.988-11.558,3.094
	c-11.055,6.383-14.843,20.519-8.461,31.574c6.383,11.055,20.519,14.843,31.574,8.461c3.647-2.106,6.498-5.058,8.459-8.463
	C352.044,302.058,344.285,297.919,340.009,290.512z"/>
<path d="M468.203,253.345v-1.799c0.007-40.015,2.029-64.2-5.996-95.991c-6.832-26.971-19.415-52.537-37.191-74.959
	c-2.573-3.247-7.29-3.788-10.534-1.218c-3.245,2.573-3.79,7.29-1.218,10.534c8.733,11.015,16.213,23.145,21.24,33.534
	c20.574,41.813,18.478,79.66,18.709,81.426c-31.508-17.698-67.061-31.768-104.726-40.622c-1.828-20.693-5.163-40.945-9.896-59.626
	c-1.019-4.015-5.096-6.441-9.111-5.428c-4.015,1.018-6.444,5.096-5.428,9.111c4.319,17.044,7.28,34.902,9.061,52.604
	c-49.307-9.569-101.678-10.191-154.228,0.026c6.365-64.094,24.853-96.812,25.991-100.305c0.593-0.81,0.611-0.979,2.563-4.69
	c1.249-2.33,1.959-3.537,2.811-5.015c1.018-1.739,1.444-2.409,1.429-2.384c11.254-18.473,28.064-36.066,49.389-33.043
	c4.76,0.694,9.314,2.904,8.901,2.716c5.818,2.659,9.875,6.096,9.366,5.701c15.814,12.477,26.786,32.864,34.166,51.423
	c1.533,3.847,5.896,5.725,9.741,4.191c3.847-1.533,5.724-5.894,4.191-9.741c-13.842-34.694-27.96-46.934-30.961-50.687
	c31.275,6.242,46.702,15.894,50.326,17.005c3.476,2.188,21.669,10.221,43.049,29.122c3.103,2.746,7.843,2.455,10.584-0.648
	c2.745-3.103,2.454-7.841-0.648-10.584c-9.792-8.668-19.974-16.227-33.68-24.371c-56.823-33.17-112.028-29.5-110.491-29.512
	C203.464,0.29,155.256,18.17,117.442,49.584c-1.893,0.787-3.529,2.184-4.751,4.07C38.938,118.7,44.417,201.376,43.916,203.764
	c-0.002,4.044,0.004,20.435-0.039,49.481c-16.561,21.548-1.709,49.621,24.825,54.451c1.336,13.656-7.013,60.5,24.482,113.484
	c1.402,2.359,3.895,3.668,6.453,3.668c5.752,0,9.426-6.307,6.439-11.331c-14.643-24.634-22.382-52.747-22.382-81.298
	c0.053-93.438-0.03-75.104,0.051-84.382c0.837-1.346,18.199-18.68,21.565-48.931c95.186-39.953,203.48-41.1,301.37-0.056
	c3.339,30.274,20.721,47.614,21.576,48.988c0.075,6.356,0.008,8.708,0.05,84.382c0,93.475-80.365,166.021-174.208,164.773
	c-49.005-0.429-95.684-21.055-128.069-56.586c-2.79-3.063-7.534-3.28-10.593-0.491c-3.062,2.79-3.28,7.532-0.491,10.593
	c70.975,77.875,196.543,82.909,273.709,8.647c67.148-64.622,52.769-140.096,54.644-151.46
	C469.812,302.87,484.628,274.87,468.203,253.345z M68.697,292.259c-9.427-2.848-16.786-10.734-16.786-19.226
	c0-8.49,7.36-16.376,16.786-19.223V292.259z M72.542,237.857c-4.835,0.423-9.445,1.677-13.651,3.592
	c0.007-6.112,0.013-12.519,0.017-19.216c7.532-4.57,18.383-10.463,29.934-15.958C84.339,225.188,73.012,237.151,72.542,237.857z
	 M163.509,164.284c-37.51,8.83-73.048,22.866-104.595,40.591c0-87.302,59.323-163.767,156.621-185.773
	C182.146,52.929,167.692,116.842,163.509,164.284z M439.46,237.857c-0.706-1.062-11.716-12.267-16.311-31.646
	c11.657,5.54,22.596,11.483,30.062,16.016c-0.001,5.572-0.002,12.12-0.004,19.268C448.975,239.554,444.333,238.284,439.46,237.857z
	 M443.303,292.259v-38.448c9.427,2.847,16.786,10.732,16.786,19.223C460.089,281.524,452.729,289.412,443.303,292.259z"/>
<path d="M196.335,407.439l0.001,0.002c24.272,46.721,91.48,49.602,118.758,3.178c5.739-9.765-1.286-22.055-12.603-22.055h-94.686
	C198.11,388.565,191.87,398.845,196.335,407.439z M301.843,403.563c-20.778,34.391-70.599,33.154-90.492,0H301.843z"/>
<path d="M234.895,306.127c-4.142,0-7.499,3.356-7.499,7.499v12.084c0,15.772,12.831,28.603,28.603,28.603
	s28.604-12.831,28.604-28.603v-12.084c0-4.142-3.356-7.499-7.499-7.499c-4.142,0-7.499,3.356-7.499,7.499v12.084
	c0,7.502-6.103,13.605-13.606,13.605c-7.502,0-13.605-6.103-13.605-13.605v-12.084C242.394,309.484,239.038,306.127,234.895,306.127
	z"/>
<path d="M340.003,259.899c-16.88,0-30.612,13.732-30.612,30.612c0,16.88,13.732,30.613,30.612,30.613
	c16.88,0,30.612-13.733,30.612-30.613C370.615,273.631,356.882,259.899,340.003,259.899z M340.003,306.127
	c-8.61,0-15.615-7.005-15.615-15.616c0-8.61,7.005-15.615,15.615-15.615c8.61,0,15.615,7.005,15.615,15.615
	C355.617,299.122,348.613,306.127,340.003,306.127z"/>
<path d="M171.998,259.899c-16.88,0-30.613,13.732-30.613,30.612c0,16.88,13.733,30.613,30.613,30.613s30.612-13.733,30.612-30.613
	C202.61,273.631,188.879,259.899,171.998,259.899z M171.998,306.127c-8.611,0-15.616-7.005-15.616-15.616
	c0-8.61,7.005-15.615,15.616-15.615c8.61,0,15.615,7.005,15.615,15.615C187.613,299.122,180.609,306.127,171.998,306.127z"/>
<path d="M380.133,250.25c-23.176-19.395-57.028-19.443-80.26,0c-3.177,2.659-3.596,7.388-0.938,10.563
	c2.661,3.177,7.388,3.595,10.563,0.938c17.647-14.77,43.386-14.75,61.01,0c1.404,1.175,3.111,1.748,4.809,1.748
	C382.324,263.5,385.464,254.712,380.133,250.25z"/>
<path d="M212.129,250.25c-23.269-19.473-57.121-19.367-80.26,0.001c-3.177,2.658-3.596,7.388-0.938,10.562
	c2.658,3.177,7.39,3.597,10.562,0.938c17.646-14.769,43.386-14.749,61.01,0.001c3.169,2.651,7.9,2.246,10.563-0.938
	C215.725,257.638,215.305,252.909,212.129,250.25z"/>
<path d="M256,75.345c-15.772,0-28.603,12.831-28.603,28.603s12.831,28.604,28.603,28.604s28.604-12.832,28.604-28.604
	S271.772,75.345,256,75.345z M256,117.554c-7.502,0-13.605-6.103-13.605-13.606c0-7.502,6.103-13.605,13.605-13.605
	c7.503,0,13.606,6.103,13.606,13.605C269.606,111.451,263.503,117.554,256,117.554z"/>
<g>
</g>
<g>
</g>
<g>
</g>
<g>
</g>
<g>
</g>
<g>
</g>
<g>
</g>
<g>
</g>
<g>
</g>
<g>
</g>
<g>
</g>
<g>
</g>
<g>
</g>
<g>
</g>
<g>
</g>
</svg>
