<?xml version="1.0" encoding="iso-8859-1"?>
<!-- Generator: Adobe Illustrator 19.0.0, SVG Export Plug-In . SVG Version: 6.00 Build 0)  -->
<svg version="1.1" id="Capa_1" xmlns="http://www.w3.org/2000/svg" xmlns:xlink="http://www.w3.org/1999/xlink" x="0px" y="0px"
	 viewBox="0 0 511.999 511.999" style="enable-background:new 0 0 511.999 511.999;" xml:space="preserve">
<path style="fill:#9CD7F2;" d="M383.964,397.302c7.938,3.342,15.908,7.047,23.614,11.134c12.664,6.715,22.052,18.291,25.868,32.107
	l6.656,13.237c19.214-103.861,24.993-211.399-15.966-309.249c5.463,19.657,5.424,40.869,5.424,63.268
	C429.559,261.98,412.3,334.938,383.964,397.302z"/>
<path style="fill:#71C5DB;" d="M78.477,440.543c3.816-13.816,13.205-25.392,25.868-32.107c7.706-4.087,15.676-7.792,23.614-11.134
	C99.623,334.938,82.363,261.98,82.363,207.8c0-22.4-0.039-43.612,5.424-63.268C46.821,242.397,52.613,349.949,71.822,453.78
	L78.477,440.543z"/>
<path style="fill:#CC9D72;" d="M201.698,375.403c0.057-0.012,0.114-0.024,0.17-0.036c0.122-0.026,0.238-0.05,0.352-0.074
	c0.068-0.014,0.135-0.028,0.2-0.042c0.108-0.023,0.212-0.044,0.312-0.065c0.046-0.01,0.089-0.018,0.133-0.027
	c0.181-0.037,0.348-0.072,0.5-0.103c0.201-0.041,0.379-0.077,0.53-0.107c0.005-0.001,0.008-0.002,0.013-0.003
	c0.102-0.02,0.19-0.038,0.268-0.053c0.003-0.001,0.006-0.001,0.01-0.002c0.233-0.046,0.36-0.071,0.36-0.071l0,0h102.835l0,0
	c0,0,0.054,0.01,0.15,0.029c0.009,0.002,0.017,0.003,0.027,0.005c0.051,0.01,0.113,0.022,0.187,0.037c0.001,0,0.002,0,0.004,0.001
	c0.069,0.014,0.147,0.029,0.235,0.047c0.019,0.004,0.036,0.007,0.056,0.011c0.2,0.04,0.442,0.089,0.729,0.148
	c0.067,0.014,0.141,0.029,0.213,0.044c0.075,0.016,0.149,0.031,0.229,0.047c0.094,0.02,0.194,0.04,0.295,0.062
	c0.062,0.013,0.125,0.026,0.189,0.04c0.119,0.025,0.24,0.05,0.367,0.077c0.052,0.011,0.107,0.023,0.161,0.034
	c0.145,0.031,0.291,0.062,0.446,0.095c0.012,0.003,0.025,0.006,0.038,0.008c0.572,0.122,1.214,0.262,1.92,0.417
	c0.001,0,0.002,0,0.004,0.001c0.218,0.048,0.442,0.098,0.672,0.149c0.043,0.01,0.086,0.019,0.129,0.029
	c0.231,0.052,0.467,0.104,0.709,0.159c0.018,0.004,0.036,0.008,0.054,0.012c12.973,2.922,42.635,10.343,72.77,23.03
	c28.336-62.365,45.596-137.322,45.596-191.502c0-115.97-79.065-200.263-176.598-200.263S79.366,91.83,79.366,207.8
	c0,54.181,17.26,129.138,45.596,191.502C158.768,385.068,191.978,377.463,201.698,375.403z"/>
<path style="fill:#C19067;" d="M125.066,399.258c0.899-0.378,1.797-0.75,2.695-1.119c0.204-0.084,0.407-0.168,0.61-0.251
	c0.887-0.362,1.772-0.72,2.656-1.073c0.21-0.084,0.419-0.167,0.629-0.25c0.904-0.359,1.808-0.715,2.708-1.065
	c0.104-0.04,0.208-0.08,0.311-0.12c0.833-0.323,1.663-0.64,2.492-0.955c0.211-0.08,0.422-0.161,0.632-0.24
	c0.859-0.324,1.715-0.644,2.569-0.959c0.235-0.087,0.469-0.173,0.703-0.259c0.861-0.316,1.719-0.63,2.574-0.937
	c0.158-0.057,0.315-0.113,0.473-0.169c0.763-0.273,1.522-0.543,2.28-0.81c0.216-0.076,0.432-0.153,0.648-0.228
	c0.82-0.287,1.635-0.569,2.447-0.848c0.254-0.087,0.507-0.174,0.76-0.26c0.804-0.275,1.606-0.546,2.402-0.813
	c0.216-0.072,0.429-0.143,0.644-0.214c0.673-0.224,1.342-0.445,2.008-0.664c0.233-0.077,0.468-0.154,0.7-0.23
	c0.758-0.247,1.51-0.49,2.259-0.73c0.282-0.09,0.563-0.18,0.843-0.269c0.734-0.234,1.465-0.465,2.189-0.692
	c0.261-0.082,0.52-0.161,0.779-0.242c0.581-0.181,1.158-0.359,1.731-0.535c0.245-0.075,0.492-0.151,0.735-0.226
	c0.699-0.213,1.391-0.422,2.079-0.628c0.292-0.088,0.583-0.175,0.873-0.261c0.664-0.198,1.323-0.393,1.974-0.584
	c0.29-0.085,0.576-0.168,0.863-0.252c0.484-0.141,0.964-0.28,1.44-0.417c0.36-0.104,0.718-0.206,1.073-0.308
	c0.523-0.149,1.041-0.296,1.554-0.441c0.305-0.086,0.609-0.172,0.911-0.256c0.585-0.163,1.164-0.325,1.736-0.482
	c0.306-0.084,0.608-0.167,0.91-0.25c0.393-0.108,0.782-0.214,1.169-0.318c0.418-0.113,0.832-0.225,1.241-0.335
	c0.399-0.107,0.794-0.213,1.186-0.316c0.295-0.078,0.59-0.156,0.881-0.233c0.506-0.133,1.007-0.264,1.5-0.392
	c0.294-0.077,0.584-0.151,0.873-0.226c0.341-0.088,0.678-0.174,1.012-0.26c0.406-0.104,0.806-0.205,1.201-0.305
	c0.302-0.076,0.602-0.152,0.898-0.226c0.29-0.073,0.579-0.145,0.863-0.215c0.417-0.104,0.828-0.205,1.232-0.304
	c0.279-0.068,0.552-0.135,0.823-0.201c0.268-0.065,0.532-0.129,0.793-0.192c0.374-0.09,0.741-0.178,1.101-0.264
	c0.249-0.059,0.496-0.118,0.738-0.176c0.234-0.055,0.467-0.111,0.694-0.164c0.363-0.085,0.717-0.168,1.063-0.248
	c0.218-0.051,0.431-0.1,0.642-0.149c0.263-0.061,0.52-0.12,0.773-0.177c0.241-0.055,0.477-0.109,0.709-0.161
	c0.241-0.054,0.476-0.108,0.706-0.159c0.16-0.036,0.321-0.072,0.475-0.106c0.302-0.067,0.591-0.131,0.873-0.193
	c0.146-0.032,0.288-0.063,0.429-0.094c0.264-0.058,0.521-0.114,0.764-0.166c0.109-0.024,0.212-0.046,0.317-0.068
	c0.229-0.049,0.448-0.096,0.657-0.141c0.039-0.008,0.085-0.018,0.124-0.026c0.057-0.012,0.114-0.024,0.17-0.036
	c0.122-0.026,0.238-0.05,0.352-0.074c0.013-0.003,0.026-0.005,0.039-0.008c0.07-0.015,0.135-0.028,0.201-0.042
	c0.094-0.02,0.186-0.039,0.273-0.057c0.046-0.01,0.089-0.018,0.133-0.027c0.03-0.006,0.054-0.011,0.083-0.017
	c0.125-0.026,0.243-0.05,0.354-0.073c0.02-0.004,0.044-0.009,0.063-0.013c0.017-0.003,0.028-0.006,0.045-0.009
	c0.178-0.036,0.339-0.069,0.476-0.097c0.002-0.001,0.006-0.001,0.009-0.002c0.005-0.001,0.008-0.002,0.013-0.003
	c0.052-0.01,0.091-0.018,0.136-0.027c0.038-0.008,0.073-0.015,0.107-0.021c0.007-0.001,0.018-0.004,0.025-0.005
	c0.003-0.001,0.006-0.001,0.01-0.002c0.024-0.005,0.034-0.007,0.056-0.011c0.088-0.017,0.157-0.031,0.207-0.041
	c0.034-0.007,0.039-0.008,0.055-0.011c0.026-0.005,0.043-0.008,0.043-0.008h17.09c-25.39-61.832-49.604-131.418-49.604-183.236
	c0-81.067,33.803-147.651,84.463-184.041c-0.178-0.001-0.354-0.007-0.532-0.007c-97.532,0-176.598,84.293-176.598,200.263
	c0,3.386,0.067,6.854,0.201,10.394c2,53.107,18.83,122.642,45.395,181.109C124.996,399.287,125.031,399.273,125.066,399.258z"/>
<path style="fill:#EAE9E8;" d="M448.14,482.883l-11.694-42.341c-3.816-13.816-13.204-25.391-25.868-32.107
	c-46.741-24.789-103.198-35.617-103.198-35.617H204.545c-0.006,0.001-56.46,10.829-103.198,35.617
	c-12.663,6.715-22.052,18.291-25.868,32.107l-11.694,42.341c-3.003,10.873,5.177,21.618,16.456,21.618c9.917,0,341.537,0,351.442,0
	C442.963,504.501,451.143,493.757,448.14,482.883z"/>
<path style="fill:#DBDBDB;" d="M88.719,482.883l11.694-54.341c3.593-13.01,12.13-24.029,23.687-30.878
	c-7.653,3.247-15.326,6.832-22.754,10.771c-12.663,6.715-22.052,18.291-25.868,32.107l-11.694,42.341
	C60.781,493.756,68.961,504.5,80.24,504.5c1.521,0,10.611,0,24.935,0C93.896,504.501,85.716,493.757,88.719,482.883z"/>
<path style="fill:#E8C842;" d="M204.545,348.257v53.681c0,6.134,1.453,12.097,4.13,17.074c5.879,10.927,17.879,30.788,35.011,47.177
	c7.326,7.007,17.229,7.007,24.554,0c17.134-16.39,29.135-36.254,35.013-47.181c2.676-4.974,4.128-10.933,4.128-17.065v-53.685
	C274.863,366.463,237.224,366.552,204.545,348.257z"/>
<path style="fill:#DBBC3B;" d="M233.61,419.011c-2.677-4.977-4.13-10.94-4.13-17.074v-43.5c-8.512-2.28-16.875-5.668-24.935-10.181
	v53.681c0,6.134,1.453,12.097,4.13,17.074c5.879,10.927,17.879,30.788,35.011,47.177c7.326,7.007,17.229,7.007,24.554,0
	c0.065-0.062,0.126-0.126,0.19-0.188C251.402,449.648,239.466,429.897,233.61,419.011z"/>
<path style="fill:#F4D44E;" d="M384.761,192.231c-0.001-5.84-3.961-10.939-9.62-12.381c-49.833-12.701-88.341-34.808-114.519-53.89
	c-23.714-16.224-38.811-33.802-38.481-33.446c-1.008-1.088-2.782-0.885-3.509,0.408c-6.498,11.557-35.064,56.683-89.098,65.176
	c-1.415,0.613-2.331,2.002-2.346,3.544c-0.011,1.095-0.017,2.167-0.017,3.279c-0.004,19.21-0.012,75.038-0.012,75.142
	c0,68.501,58.472,124.287,130.215,123.408c69.618-0.609,127.393-54.899,127.393-123.548
	C384.768,237.511,384.764,213.692,384.761,192.231z"/>
<g>
	<path style="fill:#E8C842;" d="M177.159,240.064c0-0.079,0.005-62.807,0.009-101.428c-12.84,8.976-28.66,16.481-47.633,19.463
		c-1.415,0.613-2.331,2.002-2.346,3.544c-0.011,1.095-0.017,2.167-0.017,3.279c-0.004,19.21-0.012,75.038-0.012,75.142
		c0,68.501,58.472,124.287,130.215,123.408c8.022-0.07,15.885-0.862,23.522-2.297C221.784,350.042,177.159,299.906,177.159,240.064z
		"/>
	<path style="fill:#E8C842;" d="M240.845,245.623v2.097c0,8.141,6.256,15.146,14.388,15.528c8.682,0.409,15.849-6.509,15.849-15.101
		v-2.732c0-3.272-2.653-5.925-5.925-5.925h-18.18C243.591,239.492,240.845,242.238,240.845,245.623z"/>
</g>
<path style="fill:#DBBC3B;" d="M255.964,247.721v-2.097c0-3.387,2.746-6.132,6.133-6.132h-15.119c-3.387,0-6.132,2.745-6.132,6.132
	v2.097c0,8.141,6.256,15.146,14.388,15.528c3.048,0.143,5.899-0.631,8.329-2.049C258.989,258.481,255.964,253.379,255.964,247.721z"
	/>
<circle style="fill:#656566;" cx="316.137" cy="226.01" r="16.558"/>
<path style="fill:#545456;" d="M316.139,226.011c-3.063-5.305-2.842-11.592,0.008-16.545c-2.817-0.004-5.672,0.696-8.287,2.205
	c-7.92,4.572-10.633,14.699-6.061,22.619c4.572,7.92,14.699,10.633,22.619,6.061c2.615-1.51,4.648-3.632,6.053-6.074
	C324.757,234.268,319.201,231.315,316.139,226.011z"/>
<circle style="fill:#656566;" cx="195.788" cy="226.01" r="16.558"/>
<path style="fill:#545456;" d="M195.788,226.011c-3.063-5.305-2.842-11.592,0.008-16.545c-2.817-0.004-5.672,0.696-8.287,2.205
	c-7.92,4.572-10.633,14.699-6.061,22.619c4.572,7.92,14.699,10.633,22.619,6.061c2.615-1.51,4.648-3.632,6.053-6.074
	C204.406,234.268,198.85,231.315,195.788,226.011z"/>
<path style="fill:#F9C85D;" d="M407.152,108.404c-2.478,0-4.985-0.682-7.23-2.109c-81.767-51.988-206.03-52.065-287.92,0
	c-6.291,3.999-14.635,2.143-18.635-4.149c-4-6.292-2.143-14.635,4.149-18.636c90.573-57.585,226.149-57.693,316.893,0
	c6.292,4.001,8.149,12.344,4.149,18.636C415.984,106.191,411.616,108.404,407.152,108.404z"/>
<path style="fill:#656566;" d="M226.083,296.86c12.363,23.792,46.138,24.413,59.545,1.599c1.576-2.682-0.349-6.063-3.46-6.063
	h-53.37C226.506,292.396,225.027,294.826,226.083,296.86z"/>
<path style="fill:#545456;" d="M251.018,296.859c-1.057-2.033,0.422-4.464,2.714-4.464h-24.935c-2.292,0-3.771,2.43-2.714,4.464
	c8.576,16.505,27.452,21.848,42.689,15.964C261.524,310.03,255.101,304.716,251.018,296.859z"/>
<path style="fill:#F9BB4B;" d="M220.395,42.201c-44.291,4.788-87.097,18.559-122.879,41.308c-6.292,4.001-8.149,12.344-4.149,18.636
	c4,6.292,12.344,8.148,18.635,4.149c26.123-16.609,56.561-27.902,88.551-33.906C206.405,61.537,213.051,51.443,220.395,42.201z"/>
<path d="M255.963,270.766c12.472,0,22.618-10.146,22.618-22.618v-8.656c0-4.143-3.357-7.5-7.5-7.5s-7.5,3.357-7.5,7.5v8.656
	c0,4.2-3.418,7.618-7.618,7.618s-7.618-3.418-7.618-7.618v-8.656c0-4.143-3.357-7.5-7.5-7.5c-4.143,0-7.5,3.357-7.5,7.5v8.656
	C233.344,260.619,243.491,270.766,255.963,270.766z"/>
<path d="M316.137,201.952c-13.266,0-24.058,10.793-24.058,24.059s10.792,24.058,24.058,24.058c13.266,0,24.059-10.792,24.059-24.058
	S329.403,201.952,316.137,201.952z M316.137,235.069c-4.994,0-9.058-4.063-9.058-9.058c0-4.995,4.063-9.059,9.058-9.059
	s9.059,4.063,9.059,9.059C325.196,231.005,321.132,235.069,316.137,235.069z"/>
<path d="M195.787,201.952c-13.266,0-24.059,10.793-24.059,24.059s10.793,24.058,24.059,24.058c13.266,0,24.058-10.792,24.058-24.058
	S209.052,201.952,195.787,201.952z M195.787,235.069c-4.995,0-9.059-4.063-9.059-9.058c0-4.995,4.063-9.059,9.059-9.059
	c4.994,0,9.058,4.063,9.058,9.059C204.844,231.005,200.781,235.069,195.787,235.069z"/>
<path d="M295.651,199.134c11.846-9.916,29.138-9.905,40.974,0.001c3.169,2.651,7.901,2.246,10.565-0.938
	c2.658-3.177,2.238-7.906-0.938-10.565c-17.421-14.58-42.831-14.562-60.228,0.001c-3.177,2.658-3.597,7.389-0.938,10.564
	C287.746,201.373,292.477,201.794,295.651,199.134z"/>
<path d="M165.673,187.631c-3.177,2.659-3.597,7.389-0.938,10.565c2.668,3.186,7.398,3.589,10.565,0.938
	c11.849-9.917,29.14-9.906,40.974-0.001c3.175,2.66,7.906,2.239,10.564-0.938c2.659-3.176,2.239-7.906-0.938-10.564
	C208.48,173.05,183.071,173.07,165.673,187.631z"/>
<path d="M219.428,300.317c14.899,28.702,56.137,30.067,72.664,1.942c2.09-3.557,2.116-7.988,0.068-11.567
	c-2.045-3.575-5.875-5.796-9.994-5.796h-53.37C220.873,284.896,215.78,293.295,219.428,300.317z M275.116,299.896
	c-10.465,10.509-27.39,10.203-37.624,0H275.116z M232.739,293.401c0.001,0.003,0.003,0.006,0.004,0.009
	c-0.001-0.003-0.002-0.005-0.004-0.007V293.401z"/>
<path d="M454.607,328.953c4.12,0.097,7.571-3.192,7.661-7.335c0.102-4.675,0.149-8.521,0.149-12.104
	c0-60.53-10.749-118.322-31.085-167.196c-2.974-10.63-6.701-20.945-11.181-30.915c11.419-9.013,10.401-26.517-1.721-34.225
	c-9.755-6.202-20.105-11.798-30.94-16.764c-18.236-20.661-39.913-36.416-64.47-46.815c-3.813-1.614-8.215,0.167-9.831,3.981
	c-1.615,3.814,0.167,8.216,3.981,9.831c11.813,5.002,22.906,11.363,33.204,19.026c-60.367-18.195-128.393-18.228-188.859,0.01
	c36.719-27.406,81.346-36.552,123.344-28.755c4.064,0.761,7.988-1.932,8.743-6.005c0.756-4.072-1.933-7.987-6.005-8.743
	c-57.966-10.759-119.379,7.859-163.169,57.471c-10.834,4.965-21.184,10.561-30.938,16.763c-9.771,6.213-12.666,19.218-6.454,28.988
	c1.307,2.056,2.927,3.788,4.743,5.214c-4.485,9.977-8.216,20.301-11.192,30.94c-41.081,98.738-35.61,206.578-16.45,311.105
	l-7.584,27.46c-4.322,15.654,7.435,31.115,23.687,31.115h72.746c4.143,0,7.5-3.357,7.5-7.5s-3.357-7.5-7.5-7.5h-18.329v-36.732
	c0-4.143-3.357-7.5-7.5-7.5c-4.143,0-7.5,3.357-7.5,7.5V497H80.24c-6.326,0-10.914-6.02-9.228-12.122
	c2.849-10.314,8.838-31.998,11.694-42.34c4.882-17.673,16.896-25.3,33.06-32.931c24.859-11.728,54.607-21.269,81.276-27.478
	c0.174,0.922-2.455,38.296,27.227,70.847l20.395,22.365c4.884,5.358,11.4,5.006,11.3,4.984c4.29-0.004,8.406-1.826,11.292-5.001
	l21.03-23.133c17.047-18.748,26.49-42.736,26.592-67.529v-2.535c30.459,7.084,64.787,18.402,92.186,32.932
	c10.843,5.751,18.917,15.766,22.151,27.479l11.694,42.34c1.684,6.097-2.894,12.122-9.227,12.122h-39.417v-36.732
	c0-4.143-3.357-7.5-7.5-7.5s-7.5,3.357-7.5,7.5V497H187.986c-4.143,0-7.5,3.357-7.5,7.5s3.357,7.5,7.5,7.5h243.696
	c16.239,0,28.013-15.451,23.686-31.116l-7.585-27.462c6.137-33.484,10.425-65.914,12.724-96.404
	c0.312-4.131-2.784-7.731-6.914-8.043c-4.138-0.31-7.731,2.784-8.043,6.914c-1.647,21.847-4.331,44.721-8.006,68.284
	c-10.451-17.604-26.141-24.234-40.649-30.743c21.973-50.384,39.725-114.136,42.727-169.885c5.974,31.827,8.383,64.182,7.65,97.744
	C447.181,325.433,450.465,328.864,454.607,328.953z M101.54,89.838c88.647-56.361,221.277-55.672,308.844,0
	c2.792,1.775,3.619,5.49,1.844,8.283c-1.756,2.762-5.464,3.637-8.281,1.844c-84.368-53.639-211.762-53.538-295.968,0
	c-0.757,0.481-1.582,0.764-2.417,0.876c-0.719,0.094-1.458,0.063-2.192-0.111c-1.584-0.386-2.855-1.319-3.675-2.608
	C97.921,95.329,98.748,91.614,101.54,89.838z M74.378,424.176c-10.722-68.714-14.542-134.223-2.077-200.628
	c2.983,55.396,20.555,119.067,42.728,169.888C97.578,401.26,84.322,407.424,74.378,424.176z M221.474,102.744
	c33.071,34.037,91.367,69.752,155.784,85.362l0.008,51.958c0,60.439-49.561,116.046-124.054,115.879v0.001
	c-0.052-0.001-0.104-0.002-0.156-0.003v-0.001c-64.443-1.352-118.397-51.699-118.397-115.875c0.001-9.417,0.01-65.825,0.012-75.249
	C182.282,155.686,210.23,120.369,221.474,102.744z M277.188,442.106l-21.031,23.133c-0.393,0.444,0.566,0.851-20.803-22.366
	c-30.294-33.222-21.97-68.795-23.311-78.787c28.162,9.182,59.622,9.196,87.835-0.001c0,2.894-0.001,17.828-0.001,20.506
	C299.792,405.681,291.734,426.107,277.188,442.106z M314.878,358.206c45.282-20.888,77.387-65.485,77.387-118.141l-0.007-48.686
	c1.248,0.244,8.085,1.587,9.331,1.587c3.589,0,6.763-2.585,7.385-6.242c0.695-4.084-2.052-7.957-6.135-8.652
	c-73.01-12.429-135.95-50.104-172.898-88.229c-2.822-2.904-5.133-6.105-10.544-5.464c-3.061,0.361-5.79,2.181-7.303,4.869
	c-6.986,12.425-33.669,53.575-83.726,61.443c-4.263,0.673-8.628,5.149-8.682,10.912c-0.031,4.246-0.003-6.954-0.028,78.463
	c0,52.6,32.089,97.243,77.385,118.141v8.529c-11.908,2.637-39.218,9.338-68.191,20.865
	c-24.867-56.932-45.558-134.601-41.428-196.245c1.053-15.412,3.59-30.429,7.589-44.816c0.037-0.132,0.061-0.264,0.09-0.396
	c2.931-10.438,6.624-20.549,11.107-30.285c2.033-0.136,4.032-0.58,5.948-1.305c0.035-0.013,0.071-0.025,0.106-0.039
	c0.598-0.23,1.186-0.49,1.766-0.776c0.1-0.049,0.198-0.102,0.298-0.153c0.576-0.296,1.145-0.61,1.698-0.962
	c79.311-50.427,200.429-50.508,279.871,0c4.833,3.073,9.526,3.175,9.813,3.23c13.089,28.427,19.351,60.146,19.351,91.946
	c0,52.052-16.004,120.305-41.986,179.792c-29.06-11.57-56.368-18.247-68.195-20.861L314.878,358.206z"/>
<g>
</g>
<g>
</g>
<g>
</g>
<g>
</g>
<g>
</g>
<g>
</g>
<g>
</g>
<g>
</g>
<g>
</g>
<g>
</g>
<g>
</g>
<g>
</g>
<g>
</g>
<g>
</g>
<g>
</g>
</svg>
