<?xml version="1.0" encoding="iso-8859-1"?>
<!-- Generator: Adobe Illustrator 19.0.0, SVG Export Plug-In . SVG Version: 6.00 Build 0)  -->
<svg version="1.1" id="Capa_1" xmlns="http://www.w3.org/2000/svg" xmlns:xlink="http://www.w3.org/1999/xlink" x="0px" y="0px"
	 viewBox="0 0 512 512" style="enable-background:new 0 0 512 512;" xml:space="preserve">
<g>
	<path style="fill:#967D74;" d="M353.825,31.31H151.241c-30.577,0-55.454,24.876-55.454,55.453v38.444h27V86.763
		c0-15.688,12.764-28.452,28.453-28.452h202.583c15.689,0,28.453,12.764,28.453,28.452v38.444h27V86.763
		C409.278,56.187,384.402,31.31,353.825,31.31z"/>
	<path style="fill:#967D74;" d="M473.474,480.689H38.503c-17.051,0-31.002-13.951-31.002-31.003V151.209
		c0-17.051,13.951-31.002,31.002-31.002h434.972c17.051,0,31.003,13.951,31.003,31.002v298.479
		C504.477,466.739,490.526,480.689,473.474,480.689z"/>
</g>
<path style="fill:#7C6359;" d="M57.501,449.688V151.209c0-17.051,13.951-31.001,31.002-31.001H38.503
	c-17.051,0-31.002,13.951-31.002,31.001v298.479c0,17.051,13.951,31.001,31.002,31.001h50.001
	C71.452,480.689,57.501,466.739,57.501,449.688z"/>
<path style="fill:#A58F88;" d="M473.477,120.207H38.5C21.451,120.209,7.503,134.156,7.5,151.204v149.227
	c44.789,14.671,102.041,25.39,166.238,30.392h3.025h158.449h3.025c64.197-5.002,121.449-15.721,166.238-30.392V151.209
	C504.477,134.159,490.528,120.209,473.477,120.207z"/>
<path style="fill:#967D74;" d="M57.501,151.209c0-17.051,13.951-31.001,31.002-31.001H38.503c-0.308,0-0.612,0.014-0.917,0.023
	c-0.224,0.007-0.45,0.006-0.673,0.017c-0.278,0.014-0.552,0.042-0.829,0.063c-0.247,0.02-0.495,0.032-0.741,0.057
	c-0.253,0.026-0.503,0.064-0.755,0.097c-0.264,0.033-0.529,0.061-0.791,0.101c-0.443,0.068-0.883,0.15-1.32,0.237
	c-0.067,0.013-0.135,0.023-0.202,0.036c-0.872,0.18-1.729,0.403-2.573,0.655c-0.13,0.039-0.263,0.072-0.392,0.112
	c-0.32,0.1-0.635,0.213-0.95,0.323c-0.162,0.057-0.327,0.107-0.488,0.166c-0.443,0.163-0.881,0.338-1.314,0.521
	c-0.03,0.013-0.062,0.023-0.092,0.036c-0.138,0.059-0.271,0.125-0.408,0.185c-9.935,4.393-17.175,13.858-18.376,25.066
	c-0.005,0.048-0.014,0.095-0.019,0.143c-0.038,0.37-0.061,0.744-0.086,1.118c-0.01,0.151-0.027,0.3-0.035,0.452
	c-0.015,0.29-0.016,0.584-0.022,0.876c-0.005,0.239-0.018,0.476-0.018,0.716v149.222c15.287,5.008,32.028,9.554,50.001,13.57
	L57.501,151.209L57.501,151.209z"/>
<path style="fill:#DBDBDB;" d="M290.209,317.324c0.044-0.609,0.074-1.223,0.074-1.844c0-13.894-11.263-25.156-25.156-25.156h-25.188
	c-13.894,0-25.156,11.263-25.156,25.156c0,0.621,0.03,1.234,0.074,1.844v27c-0.044,0.609-0.074,1.223-0.074,1.844
	c0,13.894,11.263,25.156,25.156,25.156h25.188c13.894,0,25.156-11.263,25.156-25.156c0-0.621-0.03-1.234-0.074-1.844V317.324z"/>
<path style="fill:#CECECE;" d="M239.782,346.168c0-0.621,0.03-1.234,0.074-1.844v-27c-0.044-0.609-0.074-1.223-0.074-1.844
	c0-13.894,11.263-25.156,25.156-25.156h-25c-13.894,0-25.156,11.263-25.156,25.156c0,0.621,0.03,1.234,0.074,1.844v27
	c-0.044,0.609-0.074,1.223-0.074,1.844c0,13.894,11.263,25.156,25.156,25.156h25C251.045,371.325,239.782,360.061,239.782,346.168z"
	/>
<path style="fill:#EAE9E8;" d="M321.713,317.324h-40.448h-50.554h-40.448c-7.456,0-13.5,6.044-13.5,13.5l0,0
	c0,7.456,6.044,13.5,13.5,13.5h40.448h50.554h40.448c7.456,0,13.5-6.044,13.5-13.5l0,0
	C335.213,323.368,329.169,317.324,321.713,317.324z"/>
<path style="fill:#DBDBDB;" d="M228.765,330.824c0-7.456,6.044-13.5,13.5-13.5h-11.553h-40.448c-7.456,0-13.5,6.044-13.5,13.5
	c0,7.456,6.044,13.5,13.5,13.5h40.448h11.553C234.809,344.324,228.765,338.28,228.765,330.824z"/>
<path d="M474.637,112.737c-1.555-0.046-3.393-0.012-57.859-0.03V86.763c0-34.713-28.24-62.953-62.954-62.953H200.612
	c-4.143,0-7.5,3.357-7.5,7.5s3.357,7.5,7.5,7.5h153.211c26.441,0,47.954,21.512,47.954,47.953v25.943h-12V86.763
	c0-19.824-16.129-35.953-35.954-35.953H151.24c-19.824,0-35.954,16.128-35.954,35.953v25.943h-12V86.763
	c0-26.44,21.512-47.953,47.954-47.953h14.371c4.143,0,7.5-3.357,7.5-7.5s-3.357-7.5-7.5-7.5H151.24
	c-34.714,0-62.954,28.24-62.954,62.953v25.943c-45.996,0.294-49.979-0.624-56.874,0.666C13.406,116.74,0,132.584,0,151.204
	c0,10.164,0,138.188,0,149.227v149.255c0,21.23,17.271,38.503,38.503,38.503h353.275c4.143,0,7.5-3.357,7.5-7.5s-3.357-7.5-7.5-7.5
	H38.503C25.543,473.189,15,462.646,15,449.687V310.653c18.766,5.689,39.394,10.707,61.487,14.943
	c4.061,0.773,7.998-1.887,8.778-5.954c0.779-4.067-1.886-7.998-5.954-8.778C56.003,306.395,34.399,301.052,15,294.96V151.209
	c0-10.569,7.009-19.507,16.604-22.466c5.13-1.578-23.169-1.035,441.869-1.035c12.149,0,22.175,9.266,23.38,21.102
	c0.231,2.265,0.078-6.59,0.122,146.15c-43.4,13.631-97.038,23.313-155.749,28.102c-1.301-3.256-3.518-6.267-6.247-8.499
	c-7.904-6.461-14.098-4.494-37.698-4.739c-2.688-15.319-16.079-27-32.156-27h-25.188c-16.077,0-29.468,11.681-32.156,27
	c-15.665,0.501-26.886-2.913-35.059,9.483c-0.8,1.213-1.543,2.672-1.974,3.754c-19.571-1.598-38.814-3.767-57.252-6.454
	c-4.093-0.591-7.906,2.241-8.504,6.34c-0.597,4.1,2.241,7.906,6.34,8.504c19.081,2.781,39.005,5.008,59.253,6.64
	c2.966,8.003,10.655,13.733,19.677,13.733h17.518c2.688,15.319,16.079,27,32.156,27h25.188c16.077,0,29.468-11.681,32.156-27h24.43
	c9.021,0,16.709-5.729,19.676-13.73c58.215-4.687,111.69-14.128,155.587-27.44v139.032c0,12.959-10.543,23.502-23.502,23.502
	h-46.696c-4.143,0-7.5,3.357-7.5,7.5s3.357,7.5,7.5,7.5h46.696c21.23,0,38.503-17.271,38.503-38.503V300.431
	c-0.115-156.959,0.277-149.298-0.307-153.996C509.348,127.76,493.697,113.302,474.637,112.737z M374.777,112.708h-244.49V86.763
	c0-11.553,9.399-20.952,20.953-20.952h202.583c11.554,0,20.953,9.399,20.953,20.952V112.708z M239.939,297.824h25.188
	c7.758,0,14.364,5.03,16.728,12h-58.644C225.574,302.854,232.181,297.824,239.939,297.824z M265.126,363.825h-25.188
	c-7.758,0-14.364-5.03-16.728-12h58.644C279.49,358.794,272.884,363.825,265.126,363.825z M321.713,336.824
	c-12.127,0-117.804,0-131.449,0c-3.309,0-6-2.691-6-6c0-3.309,2.691-6,6-6c22.273,0,118.554,0,131.449,0c3.309,0,6,2.691,6,6
	C327.713,334.133,325.022,336.824,321.713,336.824z"/>
<g>
</g>
<g>
</g>
<g>
</g>
<g>
</g>
<g>
</g>
<g>
</g>
<g>
</g>
<g>
</g>
<g>
</g>
<g>
</g>
<g>
</g>
<g>
</g>
<g>
</g>
<g>
</g>
<g>
</g>
</svg>
