<?xml version="1.0" encoding="iso-8859-1"?>
<!-- Generator: Adobe Illustrator 19.0.0, SVG Export Plug-In . SVG Version: 6.00 Build 0)  -->
<svg version="1.1" id="Capa_1" xmlns="http://www.w3.org/2000/svg" xmlns:xlink="http://www.w3.org/1999/xlink" x="0px" y="0px"
	 viewBox="0 0 512 512" style="enable-background:new 0 0 512 512;" xml:space="preserve">
<g>
	<path style="fill:#ED694A;" d="M403.153,49.602c-49.235-9.712-99.484,11.348-128.332,52.411l-38.479,54.773
		c-1.671,2.379-0.775,5.691,1.867,6.904l79.195,36.324c9.155,4.197,10.096,16.874,1.654,22.374
		c-64.167,41.893,58.703-37.341-60.588,39.489l0,0l-16.431,10.71c-2.192,1.429-2.182,4.642,0.018,6.057
		c60.658,39.851,62.153,37.939,64.749,44.398c2.08,5.178,0.615,10.863-3.32,14.387l-19.196,17.189l6.464,61.247l11.346,20.03
		c1.719,1.933,4.726,1.965,6.479,0.062c44.577-48.414,155.461-168.837,162.296-176.262
		C538.379,186.382,498.465,68.402,403.153,49.602z"/>
	<path style="fill:#ED694A;" d="M255.424,365.929l-17.069,25.279c-1.048,1.551-0.643,3.659,0.905,4.711l28.615,19.466
		L255.424,365.929z"/>
	<path style="fill:#ED694A;" d="M200.901,389.252c-4.688-5.274-4.23-13.347,1.028-18.055l42.759-38.287
		c1.88-1.684,1.641-4.695-0.482-6.061l-62.526-40.214c-8.296-5.334-7.942-16.694-0.313-21.664l72.879-47.501
		c2.569-1.674,2.284-5.523-0.503-6.801l-32.649-14.975l0,0c-42.233-19.371-41.102-18.329-43.554-22.239
		c-2.829-4.511-2.57-10.088,0.339-14.23l28.83-41.037c1.76-2.505,2.392-5.633,1.743-8.625l-8.842-40.768
		c-0.607-2.799-2.413-5.197-4.946-6.534C147.329,37.287,87.163,43.003,46.597,81.881c-49.824,47.751-52.481,126.813-5.52,177.814
		c7.337,7.968,173.308,188.221,180.308,195.823c9.7,10.534,25.103,12.385,36.815,5.563c2.236-1.302,2.724-4.328,1.005-6.261
		L200.901,389.252z"/>
</g>
<path style="fill:#D8553A;" d="M258.095,455.518c-1.908-2.247-16.631-19.587-36.598-43.103L200.9,389.251
	c-1.041-1.171-1.813-2.484-2.35-3.863C152.461,331.107,95.882,264.47,91.827,259.696c-43.303-51.002-40.853-130.064,5.09-177.814
	c17.035-17.704,37.82-28.509,59.525-32.693c-38.555-6.809-79.635,3.739-109.846,32.693c-49.824,47.751-52.481,126.813-5.521,177.814
	c7.337,7.968,173.308,188.221,180.308,195.823c9.7,10.534,25.103,12.385,36.815,5.563c1.262-0.735,1.944-2.021,2.01-3.349
	C259.48,457.038,258.768,456.311,258.095,455.518z"/>
<path style="fill:#ED694A;" d="M246.278,94.512l5.986-21.261c0.578-2.054-0.411-4.225-2.337-5.143
	c-8.54-4.074-17.35-7.129-26.274-9.214c-2.226-0.52-3.962,1.936-2.764,3.882l19.988,32.489
	C242.237,97.475,245.575,97.009,246.278,94.512z"/>
<path d="M275.173,413.554l-12.45-49.457c-1.58-6.274-9.869-7.732-13.49-2.366l-17.069,25.279c-3.351,4.962-2.05,11.74,2.901,15.111
	c29.354,19.434,28.76,20.764,32.834,20.764C269.402,422.886,276.364,418.289,275.173,413.554z M246.882,392.018l5.39-7.981
	l3.538,14.056L246.882,392.018z"/>
<path d="M225.385,51.592c-3.964-0.932-8.065,0.611-10.447,3.918c-2.393,3.32-2.555,7.715-0.413,11.197l19.988,32.49
	c4.788,7.78,16.545,6.094,19.009-2.65v-0.001l5.985-21.261c1.572-5.581-1.088-11.447-6.326-13.946
	C244.31,57.104,234.958,53.825,225.385,51.592z M241.881,82.543l-7.932-12.894c3.528,1.216,7.002,2.593,10.401,4.125L241.881,82.543
	z"/>
<path d="M279.116,453.304c-1.448,7.127,7.355,12.067,12.651,6.771c3.242-3.151,2.914-8.834-1.14-11.541
	C289.848,448.007,280.125,448.084,279.116,453.304z"/>
<path d="M272.996,39.832c-1.881,0.36-3.637,1.493-4.77,3.189c-3.32,4.931,0.255,11.661,6.24,11.661c2.071,0,4.048-0.908,5.3-2.2
	C282.992,49.258,280.59,38.266,272.996,39.832z"/>
<path d="M226.926,450.438L77.884,288.571c-2.805-3.048-7.55-3.244-10.599-0.438c-3.047,2.806-3.243,7.551-0.438,10.599
	l149.042,161.868c11.779,12.791,31.176,15.658,46.108,6.964c6.345-3.696,7.693-12.265,2.835-17.727l-58.303-65.569
	c-1.938-2.18-1.747-5.538,0.425-7.483l42.758-38.286c5.575-4.988,4.87-13.909-1.427-17.958
	c-63.545-41.461-64.14-39.89-65.043-43.489c-0.56-2.229,0.34-4.558,2.242-5.796l72.878-47.5c7.505-4.892,6.673-16.167-1.472-19.903
	c-72.941-33.78-71.516-32.053-72.976-34.38c-1.159-1.85-1.111-4.179,0.122-5.935l28.83-41.037c2.956-4.207,4.025-9.503,2.935-14.526
	l-8.841-40.767c-1.08-4.985-4.278-9.206-8.775-11.581C108.533,8.323,3.222,70.288,0.072,169.331
	c-2.048,64.317,40.476,99.667,43.03,103.611c2.806,3.048,7.55,3.243,10.599,0.438c3.047-2.806,3.243-7.551,0.438-10.599
	c-2.677-4.107-40.929-34.68-39.073-92.974c2.802-88.062,96.358-143.001,176.12-100.916c0.57,0.301,0.978,0.844,1.118,1.491
	c8.786,42.413,9.884,41.227,8.292,43.491l-28.83,41.037c-7.072,10.068-3.831,24.641,8.41,30.255l64.518,29.592l-67.397,43.927
	c-12.122,7.895-12.58,25.945,0.35,34.257l58.464,37.601l-39.162,35.066c-8.312,7.444-9.042,20.286-1.628,28.626l55.254,62.14
	C242.372,459.2,232.959,456.991,226.926,450.438z"/>
<path d="M363.232,387.702c3.707-4.026,108.001-117.296,113.187-122.927c24.028-26.097,36.641-59.993,35.512-95.444
	c-1.931-60.655-42.023-93.335-42.338-93.769c-6.902-6.478-18.128,3.334-9.403,11.734c46.742,44.796,49.55,119.145,5.194,167.318
	C446.9,274.687,362.126,366.756,352.196,377.541c-2.806,3.047-2.609,7.792,0.438,10.599
	C355.672,390.938,360.417,390.758,363.232,387.702z"/>
<path d="M432.43,67.558c3.69,1.881,8.208,0.414,10.088-3.278c1.881-3.69,0.412-8.207-3.278-10.088
	c-59.72-30.422-132.053-11.265-170.531,43.508l-38.479,54.773c-4.368,6.217-2.023,14.868,4.877,18.034l79.197,36.325
	c1.757,0.805,2.937,2.503,3.079,4.433c0.374,5.064,1.123,2.548-79.415,55.037c-6.762,4.41-6.699,14.307,0.057,18.648
	c60.756,39.465,60.715,38.073,61.846,40.887c0.857,2.136,0.322,4.492-1.363,6.003l-19.196,17.189
	c-1.795,1.606-2.709,3.979-2.456,6.374c6.986,64.147,5.952,61.606,7.397,64.156L295.6,439.59c3.183,5.654,12.834,7.625,18.522,1.446
	l25.172-27.34c2.806-3.048,2.609-7.792-0.438-10.599c-3.047-2.806-7.792-2.608-10.599,0.438l-22.19,24.101l-7.993-14.112
	l-5.897-55.879l16.339-14.631c9.619-8.616,9.189-24.657-2.81-32.371l-54.51-35.058c78.174-50.454,62.945-40.625,64.949-41.918
	c9.69-6.263,17.049-12.033,16.199-23.51c-0.545-7.38-5.062-13.881-11.787-16.963l-76.087-34.898l36.513-51.974
	C315.297,57.479,379.543,40.616,432.43,67.558z"/>
<g>
</g>
<g>
</g>
<g>
</g>
<g>
</g>
<g>
</g>
<g>
</g>
<g>
</g>
<g>
</g>
<g>
</g>
<g>
</g>
<g>
</g>
<g>
</g>
<g>
</g>
<g>
</g>
<g>
</g>
</svg>
