<?xml version="1.0" encoding="iso-8859-1"?>
<!-- Generator: Adobe Illustrator 19.0.0, SVG Export Plug-In . SVG Version: 6.00 Build 0)  -->
<svg version="1.1" id="Capa_1" xmlns="http://www.w3.org/2000/svg" xmlns:xlink="http://www.w3.org/1999/xlink" x="0px" y="0px"
	 viewBox="0 0 512 512" style="enable-background:new 0 0 512 512;" xml:space="preserve">
<path style="fill:#E7EBEE;" d="M43.569,17.513v486.863h424.862V17.513H43.569z M337.995,50.312
	c13.468,0,24.394,10.926,24.394,24.394S351.462,99.1,337.995,99.1c-13.478,0-24.394-10.926-24.394-24.394
	S324.517,50.312,337.995,50.312z M174.006,50.312c13.478,0,24.394,10.926,24.394,24.394S187.484,99.1,174.006,99.1
	c-13.468,0-24.394-10.926-24.394-24.394S160.538,50.312,174.006,50.312z"/>
<path style="fill:#F71B29;" d="M43.569,17.513V141.79h424.862V17.513H43.569z M174.006,99.1c-13.468,0-24.394-10.926-24.394-24.394
	s10.926-24.394,24.394-24.394c13.478,0,24.394,10.926,24.394,24.394S187.484,99.1,174.006,99.1z M337.995,99.1
	c-13.478,0-24.394-10.926-24.394-24.394s10.916-24.394,24.394-24.394c13.468,0,24.394,10.926,24.394,24.394
	S351.462,99.1,337.995,99.1z"/>
<g>
	<path style="fill:#2A2C3C;" d="M129.386,296.441c17.707,0,32.062-14.355,32.062-32.062h44.495v204.804h-44.495V325.232h-33.371
		L129.386,296.441z"/>
	<path style="fill:#2A2C3C;" d="M242.588,265.033v42.531h87.679c-41.876,35.988-73.938,122.359-73.938,161.618h48.42
		c0-66.086,44.495-126.939,79.174-161.618v-42.531H242.588z"/>
</g>
<path style="fill:#FFFFFF;" d="M468.431,420.527c-46.177-24.248-70.537-8.817-70.537-8.817c0,41.882-23.601,92.668-79.355,92.668
	C318.539,504.377,428.757,499.882,468.431,420.527z"/>
<path d="M129.386,288.818c-4.076,0-7.43,3.206-7.615,7.277l-1.309,28.79c-0.095,2.08,0.666,4.108,2.104,5.613
	s3.429,2.356,5.511,2.356h25.748v136.329c0,4.21,3.413,7.623,7.623,7.623h44.495c4.21,0,7.623-3.413,7.623-7.623V264.379
	c0-4.21-3.413-7.623-7.623-7.623h-44.495c-4.21,0-7.623,3.413-7.623,7.623C153.825,277.854,142.862,288.818,129.386,288.818z
	 M168.337,272.002h29.983V461.56h-29.249V325.232c0-4.21-3.413-7.623-7.623-7.623h-25.393l0.646-14.22
	C152.627,300.409,165.234,287.883,168.337,272.002z"/>
<path d="M234.964,265.033v42.531c0,4.21,3.413,7.623,7.623,7.623h69.305c-19.778,22.622-33.957,51.765-41.308,68.963
	c-13.495,31.573-21.878,64.155-21.878,85.032c0,4.21,3.413,7.623,7.623,7.623h48.42c4.21,0,7.623-3.413,7.623-7.623
	c0-23.839,7.497-86.784,76.941-156.228c1.43-1.429,2.233-3.368,2.233-5.39v-42.531c0-4.21-3.413-7.623-7.623-7.623H242.588
	C238.378,257.41,234.964,260.823,234.964,265.033z M250.211,272.657h126.089v31.772c-14.802,15.092-35.046,38.628-51.631,68.464
	c-16.784,30.194-25.969,59.98-27.358,88.667h-32.979c1.736-18.84,9.308-45.767,20.272-71.417
	c14.501-33.927,32.483-61.201,50.632-76.797c2.418-2.078,3.287-5.442,2.179-8.43c-1.108-2.989-3.96-4.974-7.147-4.974h-80.056
	v-27.285H250.211z"/>
<path d="M460.808,408.453c-42.466-18.157-65.937-3.853-66.994-3.183c-2.207,1.398-3.544,3.828-3.544,6.44
	c0,21.248-6.32,42.24-17.34,57.595c-9.562,13.324-22.382,21.987-37.631,25.571c-9.632,1.465-15.987,1.831-16.941,1.879H51.192
	V218.347c0-4.21-3.413-7.623-7.623-7.623l0,0c-4.21,0-7.623,3.413-7.623,7.623v286.03c0,4.21,3.413,7.623,7.623,7.623h424.862
	c4.21,0,7.623-3.413,7.623-7.623V360.642c0-4.21-3.413-7.623-7.623-7.623l0,0c-4.21,0-7.623,3.413-7.623,7.623V408.453z
	 M385.317,478.194c11.965-16.671,19.175-38.857,20.099-61.524c7.061-2.439,24.601-5.669,52.543,7.19
	c-15.408,26.306-41.06,46.193-76.406,59.222C382.849,481.514,384.104,479.884,385.317,478.194z M388.486,496.754
	c30.647-11.615,55.172-28.705,72.322-50.253v50.253H388.486z"/>
<path d="M468.431,9.891H345.616V7.943c0-4.174-3.216-7.814-7.388-7.939c-4.317-0.13-7.858,3.332-7.858,7.62v2.268H181.631V7.943
	c0-4.174-3.216-7.814-7.388-7.939c-4.317-0.13-7.858,3.332-7.858,7.62v2.268H43.569c-4.21,0-7.623,3.413-7.623,7.623v165.257
	c0,4.21,3.413,7.623,7.623,7.623l0,0c4.21,0,7.623-3.413,7.623-7.623v-33.358h409.616v175.652c0,4.21,3.413,7.623,7.623,7.623l0,0
	c4.21,0,7.623-3.413,7.623-7.623V17.514C476.055,13.304,472.642,9.891,468.431,9.891z M51.192,134.168V25.138h115.193v18.476
	c-13.985,3.429-24.394,16.065-24.394,31.093c0,17.654,14.363,32.017,32.017,32.017s32.017-14.363,32.017-32.017
	c0-15.028-10.409-27.663-24.394-31.093V25.138H330.37v18.476c-13.985,3.429-24.394,16.065-24.394,31.093
	c0,17.654,14.363,32.017,32.017,32.017s32.017-14.363,32.017-32.017c0-15.028-10.409-27.663-24.394-31.093V25.138h115.193v109.03
	H51.192z M174.008,82.33c4.21,0,7.623-3.413,7.623-7.623v-14.92c5.422,2.782,9.148,8.418,9.148,14.919
	c0,9.247-7.524,16.771-16.771,16.771s-16.771-7.524-16.771-16.771c0-6.501,3.726-12.138,9.148-14.919v14.92
	C166.385,78.917,169.798,82.33,174.008,82.33z M337.993,82.33c4.21,0,7.623-3.413,7.623-7.623v-14.92
	c5.422,2.782,9.148,8.418,9.148,14.919c0,9.247-7.524,16.771-16.771,16.771c-9.247,0-16.771-7.524-16.771-16.771
	c0-6.501,3.726-12.138,9.148-14.919v14.92C330.369,78.917,333.783,82.33,337.993,82.33z"/>
<path d="M184.645,235.8c16.461,0,29.852-13.391,29.852-29.852v-28.255c0-4.21-3.413-7.623-7.623-7.623
	c-4.21,0-7.623,3.413-7.623,7.623v28.255c0,8.053-6.552,14.606-14.606,14.606s-14.606-6.552-14.606-14.606
	c0-4.21-3.413-7.623-7.623-7.623c-4.21,0-7.623,3.413-7.623,7.623C154.793,222.409,168.184,235.8,184.645,235.8z"/>
<path d="M233.771,170.07c-4.21,0-7.623,3.413-7.623,7.623v28.255c0,16.46,13.391,29.852,29.852,29.852
	c16.46,0,29.852-13.391,29.852-29.852v-28.255c0-4.21-3.413-7.623-7.623-7.623c-4.21,0-7.623,3.413-7.623,7.623v28.255
	c0,8.053-6.552,14.606-14.606,14.606c-8.053,0-14.606-6.552-14.606-14.606v-28.255C241.394,173.483,237.981,170.07,233.771,170.07z"
	/>
<path d="M305.127,170.07c-4.21,0-7.623,3.413-7.623,7.623v50.484c0,4.21,3.413,7.623,7.623,7.623h44.458
	c4.21,0,7.623-3.413,7.623-7.623c0-4.21-3.413-7.623-7.623-7.623H312.75v-42.861C312.75,173.483,309.337,170.07,305.127,170.07z"/>
<g>
</g>
<g>
</g>
<g>
</g>
<g>
</g>
<g>
</g>
<g>
</g>
<g>
</g>
<g>
</g>
<g>
</g>
<g>
</g>
<g>
</g>
<g>
</g>
<g>
</g>
<g>
</g>
<g>
</g>
</svg>
