<?xml version="1.0" encoding="iso-8859-1"?>
<!-- Generator: Adobe Illustrator 19.0.0, SVG Export Plug-In . SVG Version: 6.00 Build 0)  -->
<svg version="1.1" id="Capa_1" xmlns="http://www.w3.org/2000/svg" xmlns:xlink="http://www.w3.org/1999/xlink" x="0px" y="0px"
	 viewBox="0 0 512 512" style="enable-background:new 0 0 512 512;" xml:space="preserve">
<rect x="7.604" y="55.246" style="fill:#E9EEF1;" width="496.792" height="431.885"/>
<path style="fill:#FFFFFF;" d="M504.396,358.624c0,29.233-31.279,128.501-110.45,128.501c0,0,20.098-16.443,20.098-63.337
	C414.043,423.788,490.608,423.788,504.396,358.624z"/>
<path d="M504.396,47.638h-38.84v-1.594c0-15.546-12.338-28.636-27.883-28.77c-7.611-0.066-14.775,2.866-20.139,8.232
	c-5.318,5.302-8.247,12.371-8.247,19.902v2.23h-16.299v-1.594c0-15.546-12.338-28.636-27.883-28.77
	c-7.611-0.066-14.775,2.866-20.139,8.232c-5.318,5.302-8.247,12.371-8.247,19.902v2.23h-16.3v-1.594
	c0-15.546-12.338-28.636-27.883-28.77c-7.611-0.066-14.775,2.866-20.139,8.232c-5.318,5.302-8.247,12.371-8.247,19.902v2.23h-16.299
	v-1.594c0-15.546-12.338-28.636-27.883-28.77c-7.611-0.066-14.775,2.866-20.139,8.232c-5.318,5.302-8.247,12.371-8.247,19.902v2.23
	h-16.3v-1.594c0-15.546-12.338-28.636-27.883-28.77c-7.611-0.066-14.775,2.866-20.139,8.232c-5.318,5.302-8.247,12.371-8.247,19.902
	v2.23h-16.3v-1.594c0-15.545-12.335-28.633-27.878-28.771c-7.611-0.067-14.777,2.865-20.143,8.232
	c-5.319,5.304-8.248,12.372-8.248,19.902v2.23H7.604C3.405,47.637,0,51.041,0,55.241v431.884c0,4.199,3.405,7.604,7.604,7.604
	h108.049c4.199,0,7.604-3.405,7.604-7.604l0,0c0-4.199-3.405-7.604-7.604-7.604H15.208V62.846h72.296v8.028
	c0,3.371-1.151,6.695-3.445,9.165c-2.421,2.607-5.718,4.074-9.247,4.137c-3.701,0.065-7.031,2.515-7.704,6.154
	c-0.894,4.837,2.794,9.056,7.469,9.056c7.851,0,15.211-3.193,20.596-8.964c4.971-5.327,7.539-12.464,7.539-19.751v-7.825h57.361
	v8.028c0,3.371-1.151,6.695-3.445,9.165c-2.421,2.607-5.718,4.074-9.247,4.137c-3.701,0.065-7.031,2.515-7.704,6.154
	c-0.894,4.837,2.794,9.056,7.469,9.056c7.851,0,15.211-3.193,20.596-8.964c4.971-5.327,7.539-12.464,7.539-19.751v-7.825h57.361
	v8.026c0,3.371-1.15,6.696-3.444,9.166c-2.421,2.608-5.719,4.076-9.248,4.139c-3.701,0.066-7.031,2.514-7.704,6.154
	c-0.894,4.837,2.794,9.056,7.469,9.056c7.851,0,15.211-3.194,20.597-8.966c4.97-5.328,7.538-12.465,7.538-19.751v-7.822h57.36v8.028
	c0,3.371-1.151,6.695-3.445,9.165c-2.421,2.607-5.718,4.074-9.247,4.137c-3.701,0.065-7.031,2.515-7.704,6.154
	c-0.894,4.837,2.794,9.056,7.469,9.056c7.851,0,15.211-3.193,20.596-8.964c4.971-5.327,7.539-12.464,7.539-19.751v-7.825h57.361
	v8.026c0,3.371-1.15,6.696-3.444,9.166c-2.421,2.608-5.719,4.076-9.248,4.139c-3.701,0.066-7.031,2.514-7.704,6.154
	c-0.894,4.837,2.794,9.056,7.469,9.056c7.851,0,15.211-3.194,20.597-8.966c4.97-5.328,7.538-12.465,7.538-19.751V62.85h57.36v8.028
	c0,3.371-1.151,6.695-3.445,9.165c-2.421,2.607-5.718,4.074-9.247,4.137c-3.701,0.065-7.031,2.515-7.704,6.154
	c-0.894,4.837,2.794,9.056,7.469,9.056c7.851,0,15.211-3.193,20.596-8.964c4.971-5.327,7.539-12.464,7.539-19.751V62.85h31.242
	v117.604c0,4.199,3.405,7.604,7.604,7.604l0,0c4.199,0,7.604-3.405,7.604-7.604V55.242C512,51.042,508.595,47.638,504.396,47.638z
	 M61.651,47.638v-2.23c0-3.46,1.341-6.705,3.786-9.142c2.44-2.441,5.687-3.785,9.141-3.785c7.127,0,12.927,5.799,12.927,12.927v2.23
	C87.504,47.638,61.651,47.638,61.651,47.638z M134.22,47.638v-2.23c0-3.461,1.341-6.705,3.785-9.142
	c2.44-2.441,5.687-3.785,9.142-3.785c7.127,0,12.927,5.799,12.927,12.927v2.23C160.074,47.638,134.22,47.638,134.22,47.638z
	 M206.789,47.638v-2.23c0-3.461,1.341-6.705,3.785-9.142c2.44-2.441,5.687-3.785,9.142-3.785c7.127,0,12.927,5.799,12.927,12.927
	v2.23C232.643,47.638,206.789,47.638,206.789,47.638z M279.357,47.638v-2.23c0-3.461,1.341-6.705,3.785-9.142
	c2.44-2.441,5.687-3.785,9.142-3.785c7.127,0,12.927,5.799,12.927,12.927v2.23C305.211,47.638,279.357,47.638,279.357,47.638z
	 M351.926,47.638v-2.23c0-3.461,1.341-6.705,3.785-9.142c2.44-2.441,5.687-3.785,9.142-3.785c7.127,0,12.927,5.799,12.927,12.927
	v2.23C377.78,47.638,351.926,47.638,351.926,47.638z M424.495,47.638v-2.23c0-3.461,1.341-6.705,3.785-9.142
	c2.44-2.441,5.687-3.785,9.142-3.785c7.127,0,12.927,5.799,12.927,12.927v2.23C450.348,47.638,424.495,47.638,424.495,47.638z"/>
<path d="M496.792,357.775c-3.473,15.701-11.238,28.448-23.181,38.107H38.096c-4.164,0-7.795,3.208-7.919,7.37
	c-0.13,4.306,3.322,7.838,7.601,7.838H444c-16.188,4.983-29.811,5.094-29.957,5.095c-4.2,0-7.604,3.405-7.604,7.604
	c0,32.764-10.443,49.29-15.105,55.036L151.119,479.5c-4.199,0.012-7.595,3.426-7.583,7.625l0,0c0.012,4.199,3.426,7.594,7.625,7.582
	l239.646-0.673c0.967,0.44,2.028,0.695,3.137,0.695c3.76,0,7.764-0.222,11.944-0.737l98.527-0.277
	c4.191-0.012,7.583-3.413,7.583-7.604V215.935c0-4.199-3.405-7.604-7.604-7.604l0,0c-4.199,0-7.604,3.405-7.604,7.604v141.84
	H496.792z M410.785,476.463c6.358-12.617,9.95-27.894,10.709-45.491c7.922-0.732,21.216-2.74,35.32-8.247
	c10.589-4.135,19.817-9.528,27.593-16.08c-3.298,7.711-7.288,15.593-12.004,23.173c-12.08,19.412-32.189,42.017-62.381,48.118
	C410.277,477.458,410.532,476.967,410.785,476.463z M496.792,478.528l-49.654,0.14c13.114-8.666,26.255-21.653,38.178-40.814
	c4.33-6.96,8.164-14.288,11.476-21.642V478.528z"/>
<path d="M37.777,146.484h436.446c4.2,0,7.604-3.405,7.604-7.604c0-4.199-3.404-7.604-7.604-7.604H37.777
	c-4.2,0-7.604,3.405-7.604,7.604C30.174,143.08,33.577,146.484,37.777,146.484z"/>
<path d="M37.777,278.787h436.446c4.2,0,7.604-3.405,7.604-7.604s-3.404-7.604-7.604-7.604H37.777c-4.2,0-7.604,3.405-7.604,7.604
	S33.577,278.787,37.777,278.787z"/>
<path d="M37.777,212.637h436.446c4.2,0,7.604-3.405,7.604-7.604s-3.404-7.604-7.604-7.604H37.777c-4.2,0-7.604,3.405-7.604,7.604
	S33.577,212.637,37.777,212.637z"/>
<path d="M37.777,344.938h436.446c4.2,0,7.604-3.405,7.604-7.604s-3.404-7.604-7.604-7.604H37.777c-4.2,0-7.604,3.405-7.604,7.604
	S33.577,344.938,37.777,344.938z"/>
<g>
</g>
<g>
</g>
<g>
</g>
<g>
</g>
<g>
</g>
<g>
</g>
<g>
</g>
<g>
</g>
<g>
</g>
<g>
</g>
<g>
</g>
<g>
</g>
<g>
</g>
<g>
</g>
<g>
</g>
</svg>
