<?xml version="1.0" encoding="iso-8859-1"?>
<!-- Generator: Adobe Illustrator 19.0.0, SVG Export Plug-In . SVG Version: 6.00 Build 0)  -->
<svg version="1.1" id="Capa_1" xmlns="http://www.w3.org/2000/svg" xmlns:xlink="http://www.w3.org/1999/xlink" x="0px" y="0px"
	 viewBox="0 0 512 512" style="enable-background:new 0 0 512 512;" xml:space="preserve">
<rect x="7.604" y="39.003" style="fill:#E9EEF1;" width="496.792" height="464.359"/>
<rect x="7.604" y="39.003" style="fill:#FFB600;" width="496.792" height="77.388"/>
<g>
	<rect x="220.515" y="116.401" style="fill:#748789;" width="141.941" height="309.572"/>
	<rect x="7.604" y="194.154" style="fill:#748789;" width="283.881" height="309.207"/>
</g>
<rect x="362.455" y="116.401" style="fill:#E51923;" width="140.876" height="309.572"/>
<path d="M504.396,31.399h-38.84v-2.23c0-15.513-12.621-28.135-28.135-28.135c-7.516,0-14.582,2.926-19.888,8.232
	c-5.318,5.304-8.247,12.372-8.247,19.903v2.23h-16.3v-2.23c0-15.513-12.621-28.135-28.135-28.135
	c-7.516,0-14.581,2.926-19.887,8.232c-5.319,5.305-8.248,12.373-8.248,19.903v2.23h-16.299v-2.23
	c0-15.513-12.621-28.135-28.135-28.135c-7.516,0-14.582,2.926-19.888,8.232c-5.318,5.304-8.247,12.372-8.247,19.903v2.23h-16.3
	v-2.23c0-15.513-12.621-28.135-28.135-28.135c-7.516,0-14.581,2.926-19.887,8.232c-5.319,5.305-8.248,12.373-8.248,19.903v2.23
	h-16.299v-2.23c0-15.513-12.621-28.135-28.135-28.135c-7.516,0-14.582,2.926-19.888,8.232c-5.318,5.304-8.247,12.372-8.247,19.903
	v2.23h-16.3v-2.23c0-15.513-12.621-28.135-28.135-28.135c-7.516,0-14.581,2.926-19.887,8.232
	c-5.319,5.305-8.248,12.373-8.248,19.903v2.23H7.604c-4.2,0-7.604,3.405-7.604,7.604v77.393v386.966
	c0,4.199,3.404,7.604,7.604,7.604h496.792c4.2,0,7.604-3.405,7.604-7.604V116.396V39.003C512,34.804,508.596,31.399,504.396,31.399z
	 M424.495,29.169c0-3.461,1.341-6.706,3.784-9.142c2.441-2.441,5.688-3.785,9.143-3.785c7.127,0,12.927,5.799,12.927,12.927v2.23
	h-25.853V29.169z M351.926,29.169c0-3.46,1.341-6.705,3.785-9.142c2.441-2.441,5.688-3.785,9.142-3.785
	c7.127,0,12.927,5.799,12.927,12.927v2.23h-25.853V29.169z M279.357,29.169c0-3.461,1.341-6.706,3.784-9.142
	c2.441-2.441,5.688-3.785,9.143-3.785c7.127,0,12.927,5.799,12.927,12.927v2.23h-25.853V29.169z M206.788,29.169
	c0-3.46,1.341-6.705,3.785-9.142c2.441-2.441,5.688-3.785,9.142-3.785c7.127,0,12.927,5.799,12.927,12.927v2.23h-25.853V29.169z
	 M134.22,29.169c0-3.461,1.341-6.706,3.784-9.142c2.441-2.441,5.688-3.785,9.143-3.785c7.127,0,12.927,5.799,12.927,12.927v2.23
	H134.22V29.169z M61.651,29.169c0-3.46,1.341-6.705,3.785-9.142c2.441-2.441,5.688-3.785,9.142-3.785
	c7.127,0,12.927,5.799,12.927,12.927v2.23H61.651V29.169z M87.504,46.607v8.031c0,3.371-1.151,6.694-3.444,9.163
	c-2.421,2.607-5.718,4.074-9.247,4.136c-3.701,0.065-7.031,2.515-7.704,6.154c-0.894,4.837,2.794,9.056,7.469,9.056
	c7.851,0,15.211-3.193,20.596-8.964c4.971-5.327,7.539-12.463,7.539-19.749v-7.827h57.361v8.036c0,3.372-1.153,6.696-3.45,9.164
	c-2.421,2.602-5.715,4.067-9.24,4.129c-3.701,0.066-7.033,2.514-7.705,6.154c-0.894,4.837,2.794,9.056,7.469,9.056
	c7.516,0,14.581-2.926,19.896-8.24c5.313-5.315,8.239-12.376,8.239-19.885v-8.415h57.36v8.031c0,3.371-1.151,6.694-3.444,9.163
	c-2.421,2.607-5.718,4.074-9.247,4.136c-3.701,0.065-7.031,2.515-7.704,6.154c-0.894,4.837,2.794,9.056,7.469,9.056
	c7.851,0,15.211-3.193,20.596-8.964c4.971-5.327,7.539-12.463,7.539-19.749v-7.827h57.361v8.031c0,3.371-1.151,6.694-3.444,9.163
	c-2.421,2.607-5.718,4.074-9.247,4.136c-3.701,0.065-7.031,2.515-7.704,6.154c-0.894,4.837,2.794,9.056,7.469,9.056
	c7.517,0,14.582-2.926,19.896-8.24c5.313-5.315,8.239-12.376,8.239-19.885v-8.415h57.36v8.031c0,3.371-1.151,6.694-3.444,9.163
	c-2.421,2.607-5.718,4.074-9.247,4.136c-3.701,0.065-7.031,2.515-7.704,6.154c-0.894,4.837,2.794,9.056,7.469,9.056
	c7.851,0,15.211-3.193,20.596-8.964c4.971-5.327,7.539-12.463,7.539-19.749v-7.827h57.361v8.031c0,3.371-1.151,6.694-3.444,9.163
	c-2.421,2.607-5.718,4.074-9.247,4.136c-3.701,0.065-7.031,2.515-7.704,6.154c-0.894,4.837,2.794,9.056,7.469,9.056
	c7.517,0,14.582-2.926,19.896-8.24c5.313-5.315,8.239-12.376,8.239-19.885v-8.415h31.236v62.185H130.331
	c-4.199,0-7.604,3.405-7.604,7.604l0,0c0,4.199,3.405,7.604,7.604,7.604h11.61v62.185H86.178V124h8.666
	c4.199,0,7.604-3.405,7.604-7.604l0,0c0-4.199-3.405-7.604-7.604-7.604H15.208V46.607H87.504z M354.852,482.04v13.718h-55.762
	v-62.185h55.762v12.981c0,4.199,3.405,7.604,7.604,7.604l0,0c4.199,0,7.604-3.405,7.604-7.604v-12.981h55.762v62.185h-55.762V482.04
	c0-4.199-3.405-7.604-7.604-7.604l0,0C358.256,474.436,354.852,477.841,354.852,482.04z M15.208,124H70.97v62.185H15.208V124z
	 M15.208,201.393H70.97v62.185H15.208V201.393z M212.911,124v62.185h-55.762V124H212.911z M157.149,278.787h55.762v62.185h-55.762
	V278.787z M141.941,340.972H86.178v-62.185h55.762V340.972z M299.089,263.579v-62.185h55.762v62.185H299.089z M354.852,278.787
	v62.185h-55.762v-62.185H354.852z M283.881,263.579h-55.762v-62.185h55.762V263.579z M283.881,278.787v62.185h-55.762v-62.185
	H283.881z M212.911,356.18v62.185h-55.762V356.18H212.911z M228.119,356.18h55.762v62.185h-55.762V356.18z M299.089,356.18h55.762
	v62.185h-55.762V356.18z M370.059,356.18h55.762v62.185h-55.762V356.18z M370.059,340.972v-62.185h55.762v62.185H370.059z
	 M370.059,263.579v-62.185h55.762v62.185H370.059z M370.059,186.186V124h55.762v62.185H370.059z M354.852,186.186h-55.762V124
	h55.762V186.186z M283.881,186.186h-55.762V124h55.762V186.186z M212.911,201.393v62.185h-55.762v-62.185H212.911z M141.941,263.579
	H86.178v-62.185h55.762V263.579z M15.208,278.787H70.97v62.185H15.208V278.787z M15.208,356.18H70.97v62.185H15.208V356.18z
	 M86.178,356.18h55.762v62.185H86.178V356.18z M141.941,433.573v62.185H86.178v-62.185H141.941z M157.149,433.573h55.762v62.185
	h-55.762V433.573z M228.119,433.573h55.762v62.185h-55.762V433.573z M441.03,433.573h55.762v62.185H441.03V433.573z
	 M496.792,418.365H441.03V356.18h55.762V418.365z M496.792,340.972H441.03v-62.185h55.762V340.972z M496.792,263.579H441.03v-62.185
	h55.762V263.579z M496.792,186.186H441.03V124h55.762V186.186z M15.208,433.573H70.97v62.185H15.208V433.573z"/>
<path d="M460.803,149.291h17.236c4.2,0,7.604-3.405,7.604-7.604c0-4.199-3.404-7.604-7.604-7.604h-17.236
	c-4.2,0-7.604,3.405-7.604,7.604C453.199,145.887,456.603,149.291,460.803,149.291z"/>
<path d="M246.878,149.291h17.236c4.2,0,7.604-3.405,7.604-7.604c0-4.199-3.404-7.604-7.604-7.604h-17.236
	c-4.2,0-7.604,3.405-7.604,7.604C239.274,145.887,242.678,149.291,246.878,149.291z"/>
<path d="M318.186,149.291h17.236c4.2,0,7.604-3.405,7.604-7.604c0-4.199-3.404-7.604-7.604-7.604h-17.236
	c-4.2,0-7.604,3.405-7.604,7.604C310.582,145.887,313.986,149.291,318.186,149.291z"/>
<path d="M406.731,134.083h-17.236c-4.2,0-7.604,3.405-7.604,7.604c0,4.199,3.404,7.604,7.604,7.604h17.236
	c4.2,0,7.604-3.405,7.604-7.604C414.335,137.488,410.931,134.083,406.731,134.083z"/>
<path d="M50.189,289.71H32.954c-4.2,0-7.604,3.405-7.604,7.604c0,4.199,3.404,7.604,7.604,7.604h17.236
	c4.2,0,7.604-3.405,7.604-7.604C57.793,293.114,54.39,289.71,50.189,289.71z"/>
<path d="M460.803,304.918h17.236c4.2,0,7.604-3.405,7.604-7.604c0-4.199-3.404-7.604-7.604-7.604h-17.236
	c-4.2,0-7.604,3.405-7.604,7.604C453.199,301.513,456.603,304.918,460.803,304.918z"/>
<path d="M246.878,304.918h17.236c4.2,0,7.604-3.405,7.604-7.604c0-4.199-3.404-7.604-7.604-7.604h-17.236
	c-4.2,0-7.604,3.405-7.604,7.604C239.274,301.513,242.678,304.918,246.878,304.918z"/>
<path d="M104.261,304.918h17.236c4.2,0,7.604-3.405,7.604-7.604c0-4.199-3.404-7.604-7.604-7.604h-17.236
	c-4.2,0-7.604,3.405-7.604,7.604C96.657,301.513,100.061,304.918,104.261,304.918z"/>
<path d="M318.186,304.918h17.236c4.2,0,7.604-3.405,7.604-7.604c0-4.199-3.404-7.604-7.604-7.604h-17.236
	c-4.2,0-7.604,3.405-7.604,7.604C310.582,301.513,313.986,304.918,318.186,304.918z"/>
<path d="M192.806,289.71H175.57c-4.2,0-7.604,3.405-7.604,7.604c0,4.199,3.404,7.604,7.604,7.604h17.236
	c4.2,0,7.604-3.405,7.604-7.604C200.41,293.114,197.006,289.71,192.806,289.71z"/>
<path d="M406.731,289.71h-17.236c-4.2,0-7.604,3.405-7.604,7.604c0,4.199,3.404,7.604,7.604,7.604h17.236
	c4.2,0,7.604-3.405,7.604-7.604C414.335,293.114,410.931,289.71,406.731,289.71z"/>
<path d="M50.189,445.338H32.954c-4.2,0-7.604,3.405-7.604,7.604s3.404,7.604,7.604,7.604h17.236c4.2,0,7.604-3.405,7.604-7.604
	S54.39,445.338,50.189,445.338z"/>
<path d="M264.114,445.338h-17.236c-4.2,0-7.604,3.405-7.604,7.604s3.404,7.604,7.604,7.604h17.236c4.2,0,7.604-3.405,7.604-7.604
	S268.314,445.338,264.114,445.338z"/>
<path d="M104.261,460.546h17.236c4.2,0,7.604-3.405,7.604-7.604s-3.404-7.604-7.604-7.604h-17.236c-4.2,0-7.604,3.405-7.604,7.604
	S100.061,460.546,104.261,460.546z"/>
<path d="M192.806,445.338H175.57c-4.2,0-7.604,3.405-7.604,7.604s3.404,7.604,7.604,7.604h17.236c4.2,0,7.604-3.405,7.604-7.604
	S197.006,445.338,192.806,445.338z"/>
<path d="M50.189,211.897H32.954c-4.2,0-7.604,3.405-7.604,7.604s3.404,7.604,7.604,7.604h17.236c4.2,0,7.604-3.405,7.604-7.604
	S54.39,211.897,50.189,211.897z"/>
<path d="M460.803,227.105h17.236c4.2,0,7.604-3.405,7.604-7.604s-3.404-7.604-7.604-7.604h-17.236c-4.2,0-7.604,3.405-7.604,7.604
	S456.603,227.105,460.803,227.105z"/>
<path d="M246.878,227.105h17.236c4.2,0,7.604-3.405,7.604-7.604s-3.404-7.604-7.604-7.604h-17.236c-4.2,0-7.604,3.405-7.604,7.604
	S242.678,227.105,246.878,227.105z"/>
<path d="M104.261,227.105h17.236c4.2,0,7.604-3.405,7.604-7.604s-3.404-7.604-7.604-7.604h-17.236c-4.2,0-7.604,3.405-7.604,7.604
	S100.061,227.105,104.261,227.105z"/>
<path d="M335.422,211.897h-17.236c-4.2,0-7.604,3.405-7.604,7.604s3.404,7.604,7.604,7.604h17.236c4.2,0,7.604-3.405,7.604-7.604
	S339.622,211.897,335.422,211.897z"/>
<path d="M175.57,227.105h17.236c4.2,0,7.604-3.405,7.604-7.604s-3.404-7.604-7.604-7.604H175.57c-4.2,0-7.604,3.405-7.604,7.604
	S171.37,227.105,175.57,227.105z"/>
<path d="M406.731,211.897h-17.236c-4.2,0-7.604,3.405-7.604,7.604s3.404,7.604,7.604,7.604h17.236c4.2,0,7.604-3.405,7.604-7.604
	S410.931,211.897,406.731,211.897z"/>
<path d="M50.189,367.524H32.954c-4.2,0-7.604,3.405-7.604,7.604c0,4.199,3.404,7.604,7.604,7.604h17.236
	c4.2,0,7.604-3.405,7.604-7.604C57.793,370.928,54.39,367.524,50.189,367.524z"/>
<path d="M460.803,382.732h17.236c4.2,0,7.604-3.405,7.604-7.604c0-4.199-3.404-7.604-7.604-7.604h-17.236
	c-4.2,0-7.604,3.405-7.604,7.604C453.199,379.327,456.603,382.732,460.803,382.732z"/>
<path d="M264.114,367.524h-17.236c-4.2,0-7.604,3.405-7.604,7.604c0,4.199,3.404,7.604,7.604,7.604h17.236
	c4.2,0,7.604-3.405,7.604-7.604C271.718,370.928,268.314,367.524,264.114,367.524z"/>
<path d="M121.497,367.524h-17.236c-4.2,0-7.604,3.405-7.604,7.604c0,4.199,3.404,7.604,7.604,7.604h17.236
	c4.2,0,7.604-3.405,7.604-7.604C129.101,370.928,125.698,367.524,121.497,367.524z"/>
<path d="M335.422,367.524h-17.236c-4.2,0-7.604,3.405-7.604,7.604c0,4.199,3.404,7.604,7.604,7.604h17.236
	c4.2,0,7.604-3.405,7.604-7.604C343.026,370.928,339.622,367.524,335.422,367.524z"/>
<path d="M175.57,382.732h17.236c4.2,0,7.604-3.405,7.604-7.604c0-4.199-3.404-7.604-7.604-7.604H175.57
	c-4.2,0-7.604,3.405-7.604,7.604C167.966,379.327,171.37,382.732,175.57,382.732z"/>
<path d="M406.731,367.524h-17.236c-4.2,0-7.604,3.405-7.604,7.604c0,4.199,3.404,7.604,7.604,7.604h17.236
	c4.2,0,7.604-3.405,7.604-7.604C414.335,370.928,410.931,367.524,406.731,367.524z"/>
<g>
</g>
<g>
</g>
<g>
</g>
<g>
</g>
<g>
</g>
<g>
</g>
<g>
</g>
<g>
</g>
<g>
</g>
<g>
</g>
<g>
</g>
<g>
</g>
<g>
</g>
<g>
</g>
<g>
</g>
</svg>
