<?xml version="1.0" encoding="iso-8859-1"?>
<!-- Generator: Adobe Illustrator 19.0.0, SVG Export Plug-In . SVG Version: 6.00 Build 0)  -->
<svg version="1.1" id="Capa_1" xmlns="http://www.w3.org/2000/svg" xmlns:xlink="http://www.w3.org/1999/xlink" x="0px" y="0px"
	 viewBox="0 0 512 512" style="enable-background:new 0 0 512 512;" xml:space="preserve">
<path style="fill:#E7EBEE;" d="M44.103,7.604v496.792h423.794V7.604H44.103z M337.788,51.474c13.434,0,24.333,10.899,24.333,24.333
	s-10.899,24.333-24.333,24.333c-13.444,0-24.333-10.899-24.333-24.333S324.344,51.474,337.788,51.474z M174.212,51.474
	c13.444,0,24.333,10.899,24.333,24.333s-10.889,24.333-24.333,24.333c-13.434,0-24.333-10.899-24.333-24.333
	S160.778,51.474,174.212,51.474z"/>
<path style="fill:#F71B29;" d="M349.953,7.604v47.132c7.271,4.208,12.167,12.065,12.167,21.07c0,13.439-10.894,24.333-24.333,24.333
	s-24.333-10.894-24.333-24.333c0-9.005,4.896-16.862,12.167-21.07V7.604H186.38v47.132c7.271,4.208,12.167,12.065,12.167,21.07
	c0,13.439-10.894,24.333-24.333,24.333s-24.333-10.894-24.333-24.333c0-9.005,4.896-16.862,12.167-21.07V7.604H44.103v135.117
	h423.794V7.604H349.953z"/>
<g>
	<path style="fill:#2A2C3C;" d="M129.705,296.983c17.662,0,31.981-14.319,31.981-31.981h44.383v204.289h-44.383v-143.59h-33.287
		L129.705,296.983z"/>
	<path style="fill:#2A2C3C;" d="M242.622,265.654v42.424h87.459c-41.771,35.898-73.752,122.052-73.752,161.212h48.298
		c0-65.92,44.383-126.62,78.975-161.212v-42.424H242.622z"/>
</g>
<path d="M206.068,257.398h-44.382c-4.189,0-7.609,3.387-7.604,7.577c0.015,13.504-11.006,24.485-24.525,24.405
	c-4.008-0.024-7.265,3.254-7.448,7.259l-1.302,28.645c-0.045,0.976,0.062,1.963,0.388,2.884c1.133,3.198,4.066,5.138,7.204,5.138
	h25.683v29.096c0,4.199,3.405,7.604,7.604,7.604l0,0c4.199,0,7.604-3.405,7.604-7.604v-36.7c0-4.199-3.405-7.604-7.604-7.604
	h-25.329l0.645-14.185c15.884-2.973,28.46-15.465,31.555-31.307h29.907v189.081h-29.174v-63.8c0-4.199-3.405-7.604-7.604-7.604l0,0
	c-4.199,0-7.604,3.405-7.604,7.604v71.404c0,4.199,3.405,7.604,7.604,7.604h44.382c4.199,0,7.604-3.405,7.604-7.604V265.002
	C213.672,260.803,210.268,257.398,206.068,257.398z"/>
<path d="M383.601,258.05H242.622c-4.199,0-7.604,3.405-7.604,7.604v42.424c0,4.199,3.405,7.604,7.604,7.604h69.131
	c-19.729,22.565-33.872,51.635-41.204,68.789c-13.461,31.494-21.823,63.994-21.823,84.819c0,4.199,3.405,7.604,7.604,7.604h48.298
	c4.199,0,7.604-3.405,7.604-7.604c0-23.779,7.478-86.565,76.747-155.836c1.427-1.426,2.227-3.36,2.227-5.377v-42.424
	C391.204,261.455,387.801,258.05,383.601,258.05z M375.997,304.951c-14.765,15.054-34.958,38.531-51.501,68.292
	c-16.742,30.119-25.904,59.83-27.289,88.444h-32.896c1.732-18.793,9.285-45.652,20.221-71.237
	c14.465-33.842,32.401-61.047,50.504-76.604c2.412-2.072,3.279-5.428,2.174-8.409c-1.105-2.982-3.95-4.962-7.129-4.962h-79.855
	v-27.216h125.772v31.692H375.997z"/>
<path d="M467.897,0H349.955c-4.199,0-7.604,3.405-7.604,7.604v47.134c0,2.714,1.446,5.221,3.795,6.581
	c5.164,2.989,8.371,8.54,8.371,14.487c0,9.224-7.505,16.729-16.729,16.729c-9.224,0-16.729-7.505-16.729-16.729
	c0-5.947,3.208-11.498,8.371-14.487c2.349-1.36,3.795-3.867,3.795-6.581V7.604c0-4.199-3.405-7.604-7.604-7.604H186.378
	c-4.199,0-7.604,3.405-7.604,7.604v47.134c0,2.714,1.446,5.221,3.795,6.581c5.164,2.989,8.371,8.54,8.371,14.487
	c0,9.224-7.505,16.729-16.729,16.729s-16.729-7.505-16.729-16.729c0-5.947,3.208-11.498,8.371-14.487
	c2.349-1.36,3.795-3.867,3.795-6.581V7.604c0-4.199-3.405-7.604-7.604-7.604H44.103c-4.199,0-7.604,3.405-7.604,7.604v496.792
	c0,4.199,3.405,7.604,7.604,7.604h423.794c4.199,0,7.604-3.405,7.604-7.604V7.604C475.501,3.405,472.096,0,467.897,0z
	 M51.707,496.792V150.325h296.668c4.199,0,7.604-3.405,7.604-7.604l0,0c0-4.199-3.405-7.604-7.604-7.604H51.707V15.208h102.735
	v35.529c-7.597,6.008-12.166,15.255-12.166,25.07c0,17.61,14.327,31.937,31.937,31.937s31.937-14.327,31.937-31.937
	c0-9.815-4.569-19.062-12.166-25.07V15.208h124.036v35.529c-7.597,6.007-12.166,15.254-12.166,25.07
	c0,17.61,14.327,31.937,31.937,31.937c17.61,0,31.937-14.327,31.937-31.937c0-9.815-4.569-19.062-12.166-25.07V15.208h102.735
	v119.909h-76.432c-4.199,0-7.604,3.405-7.604,7.604l0,0c0,4.199,3.405,7.604,7.604,7.604h76.432v346.467H51.707z"/>
<path d="M206.997,170.93c-4.199,0-7.604,3.405-7.604,7.604v28.184c0,8.034-6.535,14.569-14.569,14.569
	c-8.034,0-14.569-6.535-14.569-14.569c0-4.199-3.405-7.604-7.604-7.604c-4.199,0-7.604,3.405-7.604,7.604
	c0,16.419,13.358,29.777,29.777,29.777s29.777-13.358,29.777-29.777v-28.184C214.601,174.334,211.197,170.93,206.997,170.93z"/>
<path d="M285.777,206.718v-28.184c0-4.199-3.405-7.604-7.604-7.604s-7.604,3.405-7.604,7.604v28.184
	c0,8.034-6.535,14.569-14.569,14.569c-8.033,0-14.569-6.535-14.569-14.569v-28.184c0-4.199-3.405-7.604-7.604-7.604
	c-4.199,0-7.604,3.405-7.604,7.604v28.184c0,16.419,13.358,29.777,29.777,29.777C272.419,236.495,285.777,223.138,285.777,206.718z"
	/>
<path d="M305.003,236.495h44.346c4.199,0,7.604-3.405,7.604-7.604s-3.405-7.604-7.604-7.604h-36.742v-42.754
	c0-4.199-3.405-7.604-7.604-7.604c-4.199,0-7.604,3.405-7.604,7.604v50.357C297.399,233.091,300.804,236.495,305.003,236.495z"/>
<g>
</g>
<g>
</g>
<g>
</g>
<g>
</g>
<g>
</g>
<g>
</g>
<g>
</g>
<g>
</g>
<g>
</g>
<g>
</g>
<g>
</g>
<g>
</g>
<g>
</g>
<g>
</g>
<g>
</g>
</svg>
