<?xml version="1.0" encoding="iso-8859-1"?>
<!-- Generator: Adobe Illustrator 19.0.0, SVG Export Plug-In . SVG Version: 6.00 Build 0)  -->
<svg version="1.1" id="Capa_1" xmlns="http://www.w3.org/2000/svg" xmlns:xlink="http://www.w3.org/1999/xlink" x="0px" y="0px"
	 viewBox="0 0 512.001 512.001" style="enable-background:new 0 0 512.001 512.001;" xml:space="preserve">
<rect x="7.672" y="439.689" style="fill:#3A424C;" width="77.752" height="45.756"/>
<rect x="7.672" y="439.689" style="fill:#242B35;" width="26.596" height="45.756"/>
<rect x="426.575" y="439.689" style="fill:#3A424C;" width="77.752" height="45.756"/>
<rect x="426.575" y="439.689" style="fill:#242B35;" width="26.596" height="45.756"/>
<g>
	<polyline style="fill:#C4CAD9;" points="29.156,263.665 29.156,439.686 63.935,439.686 63.935,263.665 	"/>
	<polyline style="fill:#C4CAD9;" points="448.065,263.665 448.065,439.686 482.844,439.686 482.844,263.665 	"/>
</g>
<g>
	<polyline style="fill:#B0B6C1;" points="448.065,263.665 448.065,439.686 462.872,439.686 462.872,263.665 	"/>
	<polyline style="fill:#B0B6C1;" points="29.156,263.665 29.156,439.686 43.963,439.686 43.963,263.665 	"/>
	<polyline style="fill:#B0B6C1;" points="29.156,263.665 29.156,323.074 63.935,323.074 63.935,263.665 	"/>
	<polyline style="fill:#B0B6C1;" points="448.065,263.665 448.065,323.074 482.844,323.074 482.844,263.665 	"/>
</g>
<rect x="95.786" y="26.557" style="fill:#E7EBEE;" width="320.428" height="153.468"/>
<rect x="123.261" y="55.071" style="fill:#FACC00;" width="77.741" height="96.154"/>
<rect x="95.786" y="257.447" style="fill:#E7EBEE;" width="320.428" height="153.468"/>
<rect x="95.786" y="243.126" style="fill:#D5D8DB;" width="320.428" height="41.08"/>
<g>
	<rect x="7.672" y="151.228" style="fill:#3A424C;" width="56.26" height="135.025"/>
	<rect x="448.067" y="151.228" style="fill:#3A424C;" width="56.26" height="135.025"/>
</g>
<g>
	<rect x="7.672" y="244.313" style="fill:#242B35;" width="56.26" height="41.939"/>
	<rect x="448.067" y="244.313" style="fill:#242B35;" width="56.26" height="41.939"/>
</g>
<rect x="63.932" y="180.023" style="fill:#505A64;" width="384.125" height="77.424"/>
<rect x="63.932" y="232.038" style="fill:#3F4951;" width="384.125" height="25.413"/>
<g>
	<circle style="fill:#E7EBEE;" cx="162.132" cy="93.944" r="18.412"/>
	<path style="fill:#E7EBEE;" d="M180.547,130.766c0-10.169-8.244-18.412-18.412-18.412c-10.169,0-18.412,8.244-18.412,18.412"/>
</g>
<path d="M504.328,293.922c4.237,0,7.672-3.435,7.672-7.672V151.226c0-4.237-3.435-7.672-7.672-7.672h-56.264
	c-4.237,0-7.672,3.435-7.672,7.672v21.129h-16.505V26.558c0-4.237-3.435-7.672-7.672-7.672H95.784c-4.237,0-7.672,3.435-7.672,7.672
	v23.911c0,4.237,3.435,7.672,7.672,7.672l0,0c4.237,0,7.672-3.435,7.672-7.672V34.23h305.089v138.125h-41.02H144.475h-41.02V86.272
	c0-4.237-3.435-7.672-7.672-7.672l0,0c-4.237,0-7.672,3.435-7.672,7.672v86.083H71.607v-21.129c0-4.237-3.435-7.672-7.672-7.672
	H7.672c-4.237,0-7.672,3.435-7.672,7.672V286.25c0,4.237,3.435,7.672,7.672,7.672h13.812v138.093H7.672
	c-4.237,0-7.672,3.435-7.672,7.672v45.756c0,4.237,3.435,7.672,7.672,7.672h77.748c4.237,0,7.672-3.435,7.672-7.672v-45.756
	c0-4.237-3.435-7.672-7.672-7.672H71.607V286.25v-21.129h16.505v145.797c0,4.237,3.435,7.672,7.672,7.672h218.253
	c4.237,0,7.672-3.435,7.672-7.672l0,0c0-4.237-3.435-7.672-7.672-7.672H103.455V265.12h41.02h223.049h41.02v138.125H349.84
	c-4.237,0-7.672,3.435-7.672,7.672l0,0c0,4.237,3.435,7.672,7.672,7.672h66.377c4.237,0,7.672-3.435,7.672-7.672V265.12h16.505
	v21.129v145.765h-13.812c-4.237,0-7.672,3.435-7.672,7.672v45.756c0,4.237,3.435,7.672,7.672,7.672h77.749
	c4.237,0,7.672-3.435,7.672-7.672v-45.756c0-4.237-3.435-7.672-7.672-7.672h-13.813V293.921h13.812V293.922z M455.736,158.897
	h40.921v119.681h-40.921V158.897z M15.344,158.897h40.92v119.681h-40.92V158.897z M77.748,477.771H15.344v-30.412h13.812h34.779
	h13.812V477.771z M36.828,432.015V293.922h19.435v138.093H36.828z M95.784,249.776H71.607v-62.079h24.177h41.02v62.079H95.784z
	 M152.147,249.776v-62.079h207.706v62.079H152.147z M375.197,249.776v-62.079h65.195v62.079H375.197z M496.656,477.771h-62.405
	v-30.412h13.812h34.779h13.813V477.771z M475.171,432.015h-19.435V293.922h19.435V432.015z"/>
<path d="M201.006,158.897c4.237,0,7.672-3.435,7.672-7.672V55.072c0-4.237-3.435-7.672-7.672-7.672h-77.741
	c-4.237,0-7.672,3.435-7.672,7.672v96.154c0,4.237,3.435,7.672,7.672,7.672H201.006z M130.936,62.744h62.398v80.81h-62.398V62.744z"
	/>
<path d="M235.785,62.744h138.093c4.238,0,7.672-3.435,7.672-7.672s-3.434-7.672-7.672-7.672H235.785
	c-4.237,0-7.672,3.435-7.672,7.672S231.548,62.744,235.785,62.744z"/>
<path d="M235.785,94.794h138.093c4.238,0,7.672-3.435,7.672-7.672s-3.434-7.672-7.672-7.672H235.785
	c-4.237,0-7.672,3.435-7.672,7.672S231.548,94.794,235.785,94.794z"/>
<path d="M235.785,126.845h138.093c4.238,0,7.672-3.435,7.672-7.672c0-4.237-3.434-7.672-7.672-7.672H235.785
	c-4.237,0-7.672,3.435-7.672,7.672C228.113,123.41,231.548,126.845,235.785,126.845z"/>
<path d="M235.785,158.897h46.031c4.238,0,7.672-3.435,7.672-7.672s-3.434-7.672-7.672-7.672h-46.031
	c-4.237,0-7.672,3.435-7.672,7.672S231.548,158.897,235.785,158.897z"/>
<path d="M162.135,67.858c-14.383,0-26.084,11.701-26.084,26.084c0,7.18,2.916,13.691,7.627,18.412
	c-4.709,4.722-7.627,11.233-7.627,18.412c0,4.237,3.435,7.672,7.672,7.672s7.672-3.435,7.672-7.672
	c0-5.923,4.818-10.741,10.741-10.741c5.923,0,10.741,4.818,10.741,10.741c0,4.237,3.435,7.672,7.672,7.672s7.672-3.435,7.672-7.672
	c0-7.18-2.916-13.691-7.627-18.412c4.709-4.722,7.627-11.233,7.627-18.412C188.219,79.559,176.517,67.858,162.135,67.858z
	 M162.135,83.202c5.923,0,10.741,4.818,10.741,10.741s-4.818,10.741-10.741,10.741c-5.923,0-10.741-4.818-10.741-10.741
	S156.212,83.202,162.135,83.202z"/>
<g>
</g>
<g>
</g>
<g>
</g>
<g>
</g>
<g>
</g>
<g>
</g>
<g>
</g>
<g>
</g>
<g>
</g>
<g>
</g>
<g>
</g>
<g>
</g>
<g>
</g>
<g>
</g>
<g>
</g>
</svg>
