<?xml version="1.0" encoding="iso-8859-1"?>
<!-- Generator: Adobe Illustrator 19.0.0, SVG Export Plug-In . SVG Version: 6.00 Build 0)  -->
<svg version="1.1" id="Capa_1" xmlns="http://www.w3.org/2000/svg" xmlns:xlink="http://www.w3.org/1999/xlink" x="0px" y="0px"
	 viewBox="0 0 512 512" style="enable-background:new 0 0 512 512;" xml:space="preserve">
<path style="fill:#CFD9DB;" d="M415.674,479.06v16.587c0,4.836-3.913,8.75-8.739,8.75H105.067c-4.826,0-8.74-3.914-8.74-8.75V479.06
	c0-2.413,0.983-4.603,2.565-6.185s3.761-2.555,6.174-2.555c4.836,0,8.75-3.913,8.75-8.75V214.837l235.662,36.55l48.706,7.553V461.57
	c0,2.423,0.973,4.603,2.565,6.185c1.582,1.592,3.761,2.565,6.185,2.565C411.76,470.32,415.674,474.234,415.674,479.06z"/>
<g>
	<path style="fill:#B7C2C4;" d="M158.677,495.646V479.06c0-2.413,0.983-4.603,2.565-6.185c1.582-1.582,3.761-2.555,6.174-2.555
		c4.836,0,8.75-3.913,8.75-8.75V224.507l-62.35-9.67V461.57c0,4.836-3.914,8.75-8.75,8.75c-2.413,0-4.593,0.973-6.174,2.555
		s-2.565,3.772-2.565,6.185v16.587c0,4.836,3.914,8.75,8.74,8.75h62.35C162.59,504.396,158.677,500.483,158.677,495.646z"/>
	<path style="fill:#B7C2C4;" d="M349.479,251.386l-7.574,10.605c-5.363,0-9.956,0.182-13.211,1.703
		c-3.244,1.531-5.15,4.4-5.15,9.774c0,10.737-18.026-26.695-28.763-26.695l-9.875,50.926c-10.737,0,8.162,25.58,8.162,36.327v40.747
		c0,7.421-3.011,14.154-7.878,19.02c-4.867,4.867-11.588,7.878-19.02,7.878c-14.853,0-26.898-12.045-26.898-26.898v-40.747
		c0-10.747-8.709-19.456-19.456-19.456h-14.894c-10.737,0-19.446-8.709-19.446-19.446v-1.582c0-7.421-3.011-14.154-7.878-19.02
		c-4.867-4.867-11.588-7.878-19.02-7.878c-14.863,0-26.908,12.045-26.908,26.898v23.755c0,7.432-3.011,14.164-7.878,19.03
		c-2.788,2.788-6.185,4.968-9.976,6.316V214.837L349.479,251.386z"/>
</g>
<path style="fill:#E8E9EA;" d="M131.468,105.449c-20.36,0-36.865,16.506-36.865,36.865v69.584v7.723v80.953
	c0,14.856,12.044,26.9,26.9,26.9l0,0c14.856,0,26.9-12.044,26.9-26.9v-23.757c0-14.856,12.044-26.9,26.9-26.9l0,0
	c14.856,0,26.9,12.044,26.9,26.9v1.576c0,10.743,8.709,19.452,19.452,19.452h14.896c10.743,0,19.452,8.709,19.452,19.452v40.751
	c0,14.856,12.044,26.9,26.9,26.9l0,0c14.856,0,26.9-12.044,26.9-26.9v-40.751c0-10.743,8.709-19.452,19.452-19.452h14.896
	c10.743,0,19.452-8.709,19.452-19.452l0,0c0-10.743,8.709-19.452,19.452-19.452h14.896c10.743,0,19.452-8.709,19.452-19.452v-19.867
	v-54.229v-23.079c0-20.36-16.506-36.865-36.865-36.865L131.468,105.449L131.468,105.449z"/>
<path style="fill:#CECECE;" d="M150.366,142.315c0-20.358,16.506-36.864,36.874-36.864h-55.764
	c-20.369,0-36.874,16.506-36.874,36.864v158.254c0,14.863,12.045,26.908,26.908,26.908c7.421,0,14.154-3.011,19.02-7.878
	c4.867-4.867,7.878-11.599,7.878-19.03v-23.755c0-3.556,0.705-6.944,1.958-10.051V142.315z"/>
<path style="fill:#DCE1E2;" d="M366.252,421.657L366.252,421.657c-5.879,0-10.645-4.766-10.645-10.645v-71.473
	c0-5.879,4.766-10.645,10.645-10.645l0,0c5.879,0,10.645,4.766,10.645,10.645v71.473
	C376.898,416.892,372.132,421.657,366.252,421.657z"/>
<path style="fill:#FFD300;" d="M235.959,67.726L235.959,67.726c-11.068-11.068-11.068-29.014,0-40.082l20.041-20.04l20.041,20.041
	c11.068,11.068,11.068,29.014,0,40.081l0,0C264.972,78.794,247.028,78.794,235.959,67.726z"/>
<path d="M405.789,359.179v-93.799c11.106-3.37,19.214-13.7,19.214-25.893v-97.174c0-24.56-19.909-44.469-44.469-44.469h-50.359
	c-4.199,0-7.604,3.405-7.604,7.604l0,0c0,4.199,3.405,7.604,7.604,7.604h50.359c16.161,0,29.261,13.101,29.261,29.261v97.174
	c0,6.543-5.305,11.848-11.848,11.848h-14.896c-14.987,0-27.166,12.248-27.055,27.262c0.049,6.463-5.386,11.642-11.849,11.642
	h-14.896c-14.942,0-27.056,12.114-27.056,27.056v40.278c0,10.449-8.109,19.36-18.551,19.755
	c-10.977,0.416-20.041-8.395-20.041-19.282v-40.751c0-14.942-12.114-27.056-27.056-27.056h-14.896
	c-6.543,0-11.848-5.305-11.848-11.848v-0.888c0-19.305-15.798-35.515-35.1-35.186c-18.751,0.319-33.908,15.672-33.908,34.499v23.283
	c0,10.45-8.11,19.361-18.552,19.755c-10.977,0.415-20.04-8.395-20.04-19.282V142.314c0-16.161,13.101-29.261,29.261-29.261h163.22
	c4.199,0,7.604-3.405,7.604-7.604l0,0c0-4.199-3.405-7.604-7.604-7.604h-31.081V82.82c8.306-1.78,15.776-6.461,21.167-13.565
	c3.765-4.962,6.154-10.881,6.901-17.065c1.36-11.251-2.413-22.08-10.255-29.922l-20.041-20.04C259.951,0.801,258.017,0,256.001,0
	s-3.95,0.801-5.378,2.227l-20.04,20.041c-7.835,7.835-11.608,18.649-10.259,29.889c0.742,6.187,3.127,12.11,6.89,17.077
	c5.392,7.117,12.869,11.806,21.184,13.588v15.023h-116.93c-24.56,0-44.47,19.91-44.47,44.47v158.259
	c0,13.537,7.84,25.272,19.215,30.92v130.082c0,0.622-0.497,1.142-1.119,1.142c-9.024-0.012-16.371,7.327-16.371,16.349v16.586
	c0,9.029,7.32,16.349,16.349,16.349h301.858c9.029,0,16.35-7.32,16.35-16.35v-16.586c0-9.022-7.346-16.361-16.371-16.349
	c-0.621,0.001-1.119-0.519-1.119-1.142v-66.909c0-4.199-3.405-7.604-7.604-7.604l0,0c-4.199,0-7.604,3.405-7.604,7.604v66.909
	c0,9.022,7.345,16.362,16.371,16.349c0.621-0.001,1.119,0.519,1.119,1.142v16.586c0,0.631-0.511,1.142-1.142,1.142H105.071
	c-0.63,0-1.141-0.511-1.141-1.141v-16.587c0-0.621,0.497-1.142,1.119-1.142c9.024,0.012,16.371-7.327,16.371-16.349v-126.5
	c0.027,0,0.054,0.002,0.082,0.002c19.025,0,34.504-15.479,34.504-34.504V277.29c0-10.45,8.11-19.361,18.552-19.755
	c10.977-0.415,20.04,8.395,20.04,19.282v1.576c0,14.942,12.114,27.056,27.056,27.056h14.896c6.543,0,11.848,5.305,11.848,11.848
	v40.064c0,19.305,15.797,35.515,35.099,35.186c18.751-0.318,33.908-15.672,33.908-34.499v-40.751
	c0-6.543,5.305-11.848,11.848-11.848h14.896c14.988,0,27.168-12.25,27.056-27.263c-0.049-6.463,5.386-11.641,11.848-11.641h7.53
	v92.636c0,4.199,3.405,7.604,7.604,7.604l0,0C402.384,366.783,405.789,363.379,405.789,359.179z M235.262,47.686
	c0-5.54,2.156-10.747,6.074-14.664l14.665-14.665l14.665,14.664c3.917,3.917,6.073,9.125,6.073,14.664s-2.156,10.747-6.074,14.664
	c-8.086,8.086-21.241,8.086-29.327,0C237.419,58.433,235.262,53.225,235.262,47.686z"/>
<g>
</g>
<g>
</g>
<g>
</g>
<g>
</g>
<g>
</g>
<g>
</g>
<g>
</g>
<g>
</g>
<g>
</g>
<g>
</g>
<g>
</g>
<g>
</g>
<g>
</g>
<g>
</g>
<g>
</g>
</svg>
