<?xml version="1.0" encoding="iso-8859-1"?>
<!-- Generator: Adobe Illustrator 19.0.0, SVG Export Plug-In . SVG Version: 6.00 Build 0)  -->
<svg version="1.1" id="Capa_1" xmlns="http://www.w3.org/2000/svg" xmlns:xlink="http://www.w3.org/1999/xlink" x="0px" y="0px"
	 viewBox="0 0 512.002 512.002" style="enable-background:new 0 0 512.002 512.002;" xml:space="preserve">
<path style="fill:#DBBC3B;" d="M407.476,166.262c19.278-54.362,19.416-102.05,16.63-127.404
	c-1.234-11.232-11.625-18.611-21.794-15.554c-51.398,15.453-82.29,44.393-95.525,59.593
	C349.17,96.532,384.886,126.633,407.476,166.262z"/>
<path style="fill:#CCAF36;" d="M421.319,30.794c-3.745-5.478-8.528-7.903-13.589-8.16c-3.077-0.144-5.521,0.702-5.419,0.671
	c-40.342,12.186-73.864,34.709-95.525,59.593c12.252,3.941,23.942,9.267,34.924,15.793c12.255-19.037,33.664-44.679,68.415-65.784
	C413.64,30.771,417.577,30.149,421.319,30.794z"/>
<path style="fill:#DBBC3B;" d="M204.271,82.893c-13.237-15.201-44.128-44.137-95.52-59.588
	c-10.171-3.057-20.561,4.322-21.794,15.554c-2.786,25.353-2.648,73.039,16.629,127.401
	C126.175,126.632,161.889,96.527,204.271,82.893z"/>
<path style="fill:#CCAF36;" d="M108.752,23.306c-4.187-1.138-8.14-0.882-12.015,1.073c-4.503,2.273-6.403,5.72-6.993,6.415
	c3.741-0.645,7.678-0.022,11.193,2.112c34.749,21.104,56.157,46.743,68.412,65.78c10.982-6.526,22.671-11.852,34.922-15.793
	C195.889,75.192,168.741,41.456,108.752,23.306z"/>
<path style="fill:#F4D44E;" d="M439.575,229.069c-7.296-6.959-12.416-16.104-15.56-26.01
	C400.168,127.93,333.766,73.862,255.53,73.862c-76.704,0-142.032,51.971-167.033,124.809c-4.233,12.335-10.695,23.753-19.516,32.89
	c-30.3,31.379-33.724,81.962-8.198,117.621c0.016,0.03,38.062,73.857,124.61,122.022c43.896,24.43,96.361,24.438,140.258,0.012
	c86.485-48.122,124.545-121.872,124.627-122.031C476.69,312.292,471.908,259.91,439.575,229.069z"/>
<path style="fill:#E8C842;" d="M236.649,485.59c-86.547-49.909-124.594-126.41-124.61-126.441
	c-25.526-36.95-22.101-89.364,8.198-121.879c8.822-9.467,15.283-21.299,19.516-34.08c22.19-66.987,76.149-116.936,141.632-127.324
	c-8.44-1.316-17.073-2.003-25.856-2.003c-76.704,0-142.032,51.972-167.033,124.809c-4.233,12.334-10.695,23.753-19.516,32.89
	c-30.3,31.379-33.723,81.962-8.198,117.621c0.016,0.03,38.062,73.857,124.61,122.022c18.102,10.074,37.661,15.984,57.475,17.751
	C240.779,487.883,238.701,486.773,236.649,485.59z"/>
<path style="fill:#DBBC3B;" d="M256.861,286.556c-19.011-1.138-29.962,21.896-17.336,33.058l11.223,9.921
	c2.739,2.421,6.853,2.421,9.593,0l11.108-9.819C283.655,308.925,274.113,287.589,256.861,286.556z"/>
<path style="fill:#CCAF36;" d="M255.898,326.925l-4.279-13.746c-3.416-10.974,3.814-22.264,12.972-24.638
	c-2.334-1.106-4.928-1.816-7.729-1.984c-19.011-1.138-29.962,21.896-17.335,33.058l11.223,9.921
	c2.221,1.963,5.335,2.306,7.898,1.086C257.423,329.891,256.424,328.61,255.898,326.925z"/>
<path style="fill:#656566;" d="M358.001,355.388c-3.505,1.151-7.08,2.089-10.713,2.879c-0.268,0.058-0.542,0.104-0.811,0.16
	l-14.365,31.514c-1.306,2.706-4.982,3.137-6.878,0.805c-2.383-2.929-6.118-4.398-9.862-3.9c-8.869,1.182-28.028,3.073-59.827,3.073
	c-63.124,0-63.323-6.995-68.918-0.118c-2.254,2.771-6.624,2.259-8.176-0.958l-13.395-29.439c-0.287-0.073-0.576-0.14-0.863-0.215
	c-3.637-0.948-7.219-2.042-10.734-3.325c-8.519-3.111-16.088,7.005-11.561,15.57c50.991,96.459,178.876,93.262,227.363-0.611
	C373.576,362.474,366.336,352.65,358.001,355.388z"/>
<path style="fill:#4F4F51;" d="M181.394,391.373c-1.223-0.378-2.314-1.228-2.942-2.529l-2.038-4.479
	c-2.717-4.09-5.28-8.4-7.674-12.928c-1.176-2.225-1.53-4.553-1.269-6.728l-2.412-5.302c-0.287-0.073-0.576-0.14-0.863-0.215
	c-3.637-0.948-7.219-2.042-10.734-3.325c-8.519-3.111-16.088,7.005-11.561,15.57c27.826,52.637,78.549,75.594,126.773,70.337
	C235.926,438.228,204.196,421.583,181.394,391.373z"/>
<path style="fill:#EAE9E8;" d="M264.877,362.664c-36.468,1.507-71.014,4.449-101.36-3.646l14.936,32.826
	c1.553,3.217,5.922,3.729,8.176,0.958c5.595-6.877,5.794,0.118,68.918,0.118c31.798,0,50.958-1.891,59.826-3.073
	c3.743-0.498,7.478,0.971,9.862,3.9c1.896,2.332,5.572,1.9,6.878-0.805l15.87-34.816
	C322.801,363.764,294.666,361.433,264.877,362.664z"/>
<path style="fill:#DBDBDB;" d="M191.238,363.601c-9.563-0.79-18.824-2.209-27.722-4.583l14.936,32.826
	c1.552,3.217,5.922,3.729,8.176,0.958c3.187-3.917,4.629-3.333,16.938-2.106L191.238,363.601z"/>
<path d="M255.526,338.846c8.655,0,11.884-6.524,20.871-13.51c17.148-15.162,4.991-44.823-19.106-46.267
	c-26.002-1.589-40.802,30.208-22.752,46.165C243.629,332.305,246.858,338.846,255.526,338.846z M256.395,294.043
	c10.458,0.626,17.234,13.719,10.068,20.054l-10.938,9.668l-11.051-9.77C237.54,307.865,244.082,293.305,256.395,294.043z"/>
<path d="M504.5,298.226h-29.713c0.342-15.096-2.547-29.376-8.117-42.373l18.522-6.735c3.893-1.416,5.9-5.719,4.485-9.613
	c-1.416-3.893-5.717-5.903-9.613-4.485l-20.424,7.427c-11.765-18.764-18.486-17.76-25.878-34.32
	c-1.688-3.783-6.127-5.483-9.905-3.793c-3.783,1.688-5.481,6.122-3.794,9.905c8.391,18.801,14.964,18.619,25.083,33.479
	l-42.087,15.304c-3.893,1.416-5.9,5.719-4.485,9.613c1.417,3.894,5.72,5.9,9.613,4.485l44.304-16.11
	c5.111,11.668,7.553,24.451,7.219,37.216h-45.087c-4.143,0-7.5,3.357-7.5,7.5s3.357,7.5,7.5,7.5h43.397
	c-3.938,19.532-12.755,30.01-14.848,33.827l-34.986-12.722c-3.895-1.414-8.197,0.595-9.613,4.485
	c-1.415,3.894,0.593,8.197,4.485,9.613l32.133,11.685c-15.329,23.279-51.984,70.99-113.191,105.047
	c-41.626,23.162-91.333,23.158-132.964-0.012c-26.667-14.841-51.365-33.706-73.409-56.07c-2.908-2.952-7.657-2.983-10.607-0.077
	c-2.95,2.908-2.984,7.656-0.077,10.607c23.046,23.381,48.885,43.114,76.799,58.65c46.182,25.7,101.338,25.727,147.553,0.012
	c67.262-37.426,105.575-89.394,120.441-112.867c31.941,11.446,30.537,11.482,32.891,11.482c8.355,0,10.419-11.695,2.564-14.552
	l-27.617-10.043c8.009-11.723,13.366-25.053,15.782-39.064h31.144c4.143,0,7.5-3.357,7.5-7.5S508.642,298.226,504.5,298.226z"/>
<path d="M431.558,37.54c-1.885-17.165-18.916-26.516-31.409-21.918c-39.118,11.76-72.319,32.863-95.752,58.213
	c-31.996-9.313-65.968-9.276-97.764-0.029c-25.608-27.688-60.156-47.503-95.725-58.183C95.933,11.096,81.2,22.054,79.5,37.54
	c-2.049,18.651-4.5,67.941,15.888,127.452c-16.492,30.177-13.934,43.352-31.805,61.86c-4.568,4.73-8.552,9.878-11.986,15.318
	l-19.659-7.148c-3.896-1.414-8.195,0.595-9.613,4.485c-1.415,3.894,0.593,8.196,4.485,9.613l17.705,6.438
	c-5.804,13.439-8.564,28.064-8.229,42.67H7.5c-4.143,0-7.5,3.357-7.5,7.5s3.357,7.5,7.5,7.5h30.232
	c2.387,13.876,7.677,27.342,15.935,39.34l-26.858,9.767c-3.893,1.416-5.9,5.719-4.485,9.613c1.417,3.894,5.72,5.9,9.613,4.485
	l29.608-10.767c4.457,6.979,10.948,16.419,19.564,27.165c1.481,1.848,3.659,2.809,5.856,2.809c6.208,0,9.81-7.25,5.847-12.192
	c-7.16-8.931-12.732-16.832-16.812-23.038l32.94-11.979c3.893-1.416,5.9-5.719,4.485-9.613c-1.416-3.893-5.716-5.905-9.613-4.485
	l-35.777,13.009c-2.776-5.062-11.109-14.71-15.074-34.115h44.415c4.143,0,7.5-3.357,7.5-7.5s-3.357-7.5-7.5-7.5h-46.14
	c-0.354-12.87,2.135-25.76,7.391-37.537l45.186,16.431c3.902,1.418,8.199-0.602,9.613-4.485c1.415-3.894-0.593-8.197-4.485-9.613
	l-42.864-15.587c8.734-12.638,20.236-18.801,29.51-45.83c8.905-25.941,23.159-49.382,42.039-68.874
	c82.857-85.094,218.2-59.345,269.744,49.038c1.78,3.741,6.258,5.329,9.995,3.552c3.741-1.779,5.331-6.254,3.553-9.995
	c-1.658-3.487-3.427-6.903-5.27-10.269C436.06,105.519,433.608,56.198,431.558,37.54z M105.72,148.122
	C90.482,96.948,92.61,55.558,94.41,39.178c0.051-0.464,0.133-0.917,0.234-1.362c4.663,1.168,39.427,23.057,64.123,58.099
	C137.956,109.518,119.811,127.517,105.72,148.122z M171.687,88.206c-11.307-16.235-29.275-36.898-56.169-55.313
	c29.888,10.422,55.851,26.951,75.433,46.295C184.614,81.703,177.978,84.801,171.687,88.206z M339.368,88.21
	c-6.379-3.453-13.024-6.528-19.276-9.007c19.425-19.195,45.342-35.813,75.45-46.312C368.643,51.308,350.675,71.974,339.368,88.21z
	 M405.323,148.176c-14.034-20.548-31.954-38.478-53.035-52.259c24.111-34.214,59.132-56.852,64.126-58.102
	c0.101,0.445,0.183,0.898,0.234,1.362C418.448,55.565,420.577,96.978,405.323,148.176z"/>
<path d="M312.775,289.633l10.452-15.591c1.919-2.863,3.52-2.865,5.44,0l10.453,15.592c2.307,3.439,6.965,4.358,10.407,2.053
	c3.44-2.307,4.359-6.966,2.053-10.407l-10.453-15.591c-6.359-9.489-15.076-8.803-15.18-8.832c-5.885,0-11.418,3.219-15.181,8.832
	l-10.452,15.592c-2.307,3.44-1.388,8.1,2.054,10.406C305.811,293.993,310.468,293.074,312.775,289.633z"/>
<path d="M174.461,289.483l10.452-15.591c1.919-2.863,3.52-2.865,5.44,0l10.453,15.592c2.306,3.439,6.964,4.358,10.407,2.053
	c3.44-2.307,4.359-6.966,2.053-10.407l-10.453-15.591c-6.359-9.489-15.076-8.803-15.18-8.832c-5.885,0-11.418,3.219-15.181,8.832
	L162,281.131c-2.307,3.44-1.388,8.1,2.054,10.406C167.496,293.843,172.154,292.925,174.461,289.483z"/>
<path d="M135.452,374.941c53.912,101.982,189.47,98.421,240.659-0.675c7.393-14.314-5.515-30.845-20.268-26.005
	c-19.568,6.425-42.918,6.345-63.788,6.44c-55.089,0.255-98.914,7.608-135.835-5.882
	C141.212,343.339,127.715,360.305,135.452,374.941z M171.881,395.104c3.609,7.477,14.075,10.121,20.969,2.166
	c1.918-0.045,6.548,0.567,13.497,1.21c4.124,0.385,7.776-2.656,8.157-6.78c0.38-4.124-2.655-7.776-6.78-8.158
	c-12.463-1.149-18.483-2.699-23.881,1.635l-7.178-15.774c34.16,5.442,65.726,0.529,115.458,0.301
	c15.047-0.068,29.476-0.134,43.355-1.825l-8.029,17.616c-10.067-6.993-9.449-0.076-71.717-0.076c-8.846,0-12.898-0.118-13.695-0.118
	c-4.079,0-7.423,3.27-7.496,7.366c-0.074,4.141,3.224,7.559,7.365,7.633c69.56,1.244,74.632-5.584,77.693-1.823
	c5.546,6.823,16.192,5.107,19.523-2.426l14.356-31.495c7.772-1.988,7.612-2.855,8.877-1.369c0.745,0.875,1.305,2.499,0.428,4.196
	c-46.091,89.234-166.241,91.021-214.067,0.548c-1.448-2.739,0.648-5.64,2.357-5.02c2.335,0.853,4.76,1.642,7.239,2.376
	C176.744,405.795,170.518,392.327,171.881,395.104z"/>
<g>
</g>
<g>
</g>
<g>
</g>
<g>
</g>
<g>
</g>
<g>
</g>
<g>
</g>
<g>
</g>
<g>
</g>
<g>
</g>
<g>
</g>
<g>
</g>
<g>
</g>
<g>
</g>
<g>
</g>
</svg>
