<?xml version="1.0" encoding="iso-8859-1"?>
<!-- Generator: Adobe Illustrator 19.0.0, SVG Export Plug-In . SVG Version: 6.00 Build 0)  -->
<svg version="1.1" id="Capa_1" xmlns="http://www.w3.org/2000/svg" xmlns:xlink="http://www.w3.org/1999/xlink" x="0px" y="0px"
	 viewBox="0 0 512 512" style="enable-background:new 0 0 512 512;" xml:space="preserve">
<path style="fill:#DBBC3B;" d="M346.156,131.959c4.452-22.044,8.05-54.579,4.222-91.625c-1.049-10.153-8.775-14.517-16.251-9.111
	c-14.934,10.798-40.014,33.412-65.524,70.811C296.843,106.16,323.146,116.599,346.156,131.959z"/>
<path style="fill:#CCAF36;" d="M334.128,31.222c-14.934,10.798-40.014,33.412-65.524,70.811c14.839,2.168,29.136,6.096,42.71,11.549
	c7.579-50.93,39.065-73.249,39.065-73.249C349.33,30.179,341.604,25.815,334.128,31.222z"/>
<path style="fill:#F4D44E;" d="M465.358,350.179c-0.696-4.7-4.342-11.137-7.844-14.349c-6.927-6.354-21.713-18.709-21.713-27.139
	c-0.474-5.436,3.424-47.253-18.094-94.508c-27.991-61.468-84.864-106.215-151.666-115.519l-117.774,23.693
	C88.49,157.163,46.391,224.21,46.391,300.797c0,112.528,87.289,203.75,194.966,203.75c75.074,0,144.831-52.482,177.941-118.416
	c3.288-6.546,10.193-10.553,17.483-9.824C454.251,378.057,467.643,365.605,465.358,350.179z"/>
<path style="fill:#E8C842;" d="M302.235,482.546c-114.783,0-207.834-97.243-207.834-217.198c0-53.871,19.543-103.312,51.143-141.374
	c-58.329,35.237-99.153,101.404-99.153,176.824c0,112.528,87.289,203.75,194.966,203.75c31.039,0,61.165-8.978,88.172-24.161
	C320.54,481.798,311.426,482.546,302.235,482.546z"/>
<path style="fill:#DBBC3B;" d="M155.925,150.832l103.676-19.865c5.679-1.088,9.559-6.342,8.969-12.095
	c-2.902-28.278-8.986-61.518-20.767-97.319c-4.795-14.569-17.471-18.585-26.77-8.482c-0.141,0.153-0.285,0.304-0.436,0.448
	c-3.681,3.495-54.797,52.899-77.369,123.008C140.643,144.556,147.641,152.419,155.925,150.832"/>
<path style="fill:#CCAF36;" d="M220.798,13.314c-34.16,34.875-62.614,76.76-77.569,123.214c-2.585,8.029,4.414,15.891,12.698,14.304
	l33.667-6.45c1.219-80.498,31.215-131.06,31.215-131.06L220.798,13.314z"/>
<ellipse style="fill:#656566;" cx="363.787" cy="280.429" rx="15.514" ry="21.114"/>
<path style="fill:#4F4F51;" d="M360.784,273.094c0-5.249,1.415-10.04,3.744-13.734c-0.248-0.016-0.492-0.051-0.743-0.051
	c-8.569,0-15.514,9.454-15.514,21.117c0,11.662,6.946,21.117,15.514,21.117c4.712,0,8.926-2.87,11.771-7.384
	C367.335,293.629,360.784,284.416,360.784,273.094z"/>
<path d="M288.067,320.756c0-4.144-3.358-7.502-7.502-7.502h-89.89c-4.144,0-7.502,3.358-7.502,7.502
	c0,4.144,3.358,7.502,7.502,7.502h89.89C284.708,328.258,288.067,324.9,288.067,320.756z"/>
<path d="M215.115,391.472l77.016-28.006c3.894-1.416,5.901-5.72,4.486-9.614c-1.416-3.895-5.716-5.902-9.614-4.486l-77.016,28.006
	c-3.894,1.416-5.901,5.72-4.486,9.614C206.917,390.881,211.222,392.887,215.115,391.472z"/>
<path d="M292.131,278.045l-77.016-28.006c-3.897-1.416-8.197,0.595-9.614,4.486c-1.415,3.895,0.593,8.198,4.486,9.614
	c80.856,29.228,77.079,28.459,79.579,28.459C297.922,292.6,299.986,280.903,292.131,278.045z"/>
<path d="M363.786,309.044c22.831,0,30.836-35.531,14.065-51.418l-23.96-27.104c-2.744-3.105-7.485-3.395-10.589-0.651
	c-3.104,2.744-3.396,7.485-0.651,10.589l12.024,13.601C332.238,265.779,338.246,309.044,363.786,309.044z M363.786,266.809
	c3.782,0,8.013,5.822,8.013,13.615s-4.23,13.616-8.013,13.616c-3.783,0-8.014-5.823-8.014-13.616S360.003,266.809,363.786,266.809z"
	/>
<path d="M350.325,476.239c31.693-21.866,58.569-52.671,75.677-86.74c1.925-3.834,5.959-6.131,10.031-5.727
	c22.827,2.271,39.683-14.848,36.746-34.694c-1.952-13.174-13.469-21.623-13.982-22.254c-1.896-2.011-15.223-13.323-15.493-18.134
	c-0.69-7.683,6.045-71.951-41.459-136.128c-2.468-3.331-7.165-4.03-10.493-1.565c-3.33,2.466-4.03,7.163-1.565,10.493
	c43.434,58.666,37.498,115.742,38.515,127.2c0,11.746,13.684,23.067,24.145,32.667c2.35,2.154,5.07,7.068,5.493,9.919
	c1.64,11.076-8.461,18.763-20.41,17.567c-10.203-1.026-20.237,4.57-24.933,13.923c-4.435,8.831-9.594,17.415-15.336,25.664
	c-20.528-3.073-39.207,0.663-55.541,11.155c-3.485,2.239-4.496,6.88-2.257,10.366c2.247,3.497,6.89,4.489,10.366,2.257
	c10.948-7.033,23.304-10.284,36.837-9.741c-75.822,92.34-195.006,97.35-272.406,22.567c-2.98-2.882-7.729-2.799-10.606,0.183
	c-2.879,2.98-2.798,7.729,0.183,10.606C166.444,516.32,264.941,535.153,350.325,476.239z"/>
<path d="M135.185,139.877c-0.061,11.306,10.303,20.594,22.153,18.321c11.533-2.209,92.342-17.693,103.676-19.864
	c9.558-1.831,16.014-10.527,15.02-20.228c-0.321-3.13-0.685-6.256-1.069-9.381c42.169,8.013,65.243,27.348,69.171,28.447
	c8.164,5.664,15.96,12.017,23.323,19.036c2.998,2.859,7.746,2.747,10.606-0.252c2.859-2.999,2.746-7.747-0.252-10.606
	c-7.374-7.03-15.156-13.438-23.284-19.212c3.838-21.072,7.077-52.159,3.314-88.579c-0.824-7.981-4.758-14.107-10.792-16.81
	c-5.811-2.602-12.134-1.357-17.316,2.391c-9.476,6.851-32.791,25.607-58.574,60.367c-3.892-21.761-9.313-43.281-16.229-64.3
	c-6.187-18.795-24.325-26.284-39.576-11.055c-27.241,25.921-56.524,67.43-73.125,109.068
	C34.527,181.761,6.261,327.059,80.011,428.416c1.468,2.017,3.754,3.089,6.071,3.089c6.039,0,9.697-6.918,6.06-11.917
	C27.953,331.372,46.049,205.032,135.185,139.877z M340.829,117.211c-6.796-4.049-13.796-7.679-20.973-10.872
	c4.954-24.791,15.93-41.684,24.261-51.472C345.356,79.485,343.423,100.882,340.829,117.211z M338.524,35.3L338.524,35.3
	c1.816-1.312,2.563-1.209,3.393,0.269c-8.607,7.631-28.199,28.418-36.221,65.113c-7.702-2.736-15.572-4.994-23.584-6.753
	C307.068,59.904,329.499,41.826,338.524,35.3z M154.903,126.009c9.971-25.824,24.407-50.62,41.558-73.328
	c-3.091,9.937-6.098,21.451-8.566,34.388c-0.776,4.07,1.894,7.999,5.964,8.774c4.057,0.781,7.997-1.893,8.773-5.964
	c7.897-41.412,21.83-67.711,24.255-72.074c5.85-5.978,11.221-1.712,13.791,6.093c10.228,31.082,17.102,63.292,20.43,95.739
	c0.195,1.901-1.059,3.605-2.918,3.961l-60.816,11.652c0.169-3.835,0.398-7.673,0.702-11.48c0.329-4.13-2.753-7.745-6.882-8.074
	c-4.138-0.316-7.745,2.753-8.074,6.882c-0.411,5.163-0.705,10.379-0.879,15.571c-29.661,5.683-29.175,6.366-31.138,4.146
	C150.596,141.723,153.874,128.68,154.903,126.009z"/>
<g>
</g>
<g>
</g>
<g>
</g>
<g>
</g>
<g>
</g>
<g>
</g>
<g>
</g>
<g>
</g>
<g>
</g>
<g>
</g>
<g>
</g>
<g>
</g>
<g>
</g>
<g>
</g>
<g>
</g>
</svg>
