<?xml version="1.0" encoding="iso-8859-1"?>
<!-- Generator: Adobe Illustrator 19.0.0, SVG Export Plug-In . SVG Version: 6.00 Build 0)  -->
<svg version="1.1" id="Capa_1" xmlns="http://www.w3.org/2000/svg" xmlns:xlink="http://www.w3.org/1999/xlink" x="0px" y="0px"
	 viewBox="0 0 512 512" style="enable-background:new 0 0 512 512;" xml:space="preserve">
<path style="fill:#DBBC3B;" d="M408.237,166.61c19.278-54.362,19.416-102.05,16.63-127.404
	c-1.234-11.232-11.625-18.611-21.794-15.554c-51.398,15.453-82.29,44.393-95.525,59.593
	C349.931,96.879,385.648,126.98,408.237,166.61z"/>
<path style="fill:#CCAF36;" d="M422.08,31.142c-3.745-5.478-8.528-7.903-13.589-8.16c-3.077-0.144-5.521,0.702-5.419,0.671
	c-40.342,12.186-73.865,34.709-95.525,59.593c12.252,3.941,23.942,9.267,34.924,15.793c12.255-19.037,33.664-44.679,68.415-65.784
	C414.401,31.119,418.339,30.497,422.08,31.142z"/>
<path style="fill:#DBBC3B;" d="M205.033,83.24c-13.237-15.201-44.128-44.137-95.52-59.588c-10.171-3.057-20.561,4.322-21.794,15.554
	c-2.786,25.353-2.648,73.039,16.629,127.401C126.936,126.979,162.651,96.875,205.033,83.24z"/>
<path style="fill:#CCAF36;" d="M109.513,23.652c-4.187-1.138-8.14-0.882-12.015,1.073c-4.503,2.273-6.403,5.72-6.993,6.415
	c3.741-0.645,7.678-0.022,11.193,2.112c34.749,21.104,56.157,46.743,68.412,65.78c10.982-6.526,22.671-11.852,34.922-15.793
	C196.65,75.539,169.502,41.802,109.513,23.652z"/>
<path style="fill:#F4D44E;" d="M440.336,229.417c-7.296-6.959-12.416-16.104-15.56-26.01
	c-23.846-75.13-90.248-129.198-168.484-129.198c-76.704,0-142.032,51.971-167.033,124.809c-4.233,12.334-10.695,23.753-19.516,32.89
	c-30.3,31.379-33.724,81.962-8.198,117.621c0.016,0.03,38.062,73.857,124.61,122.023c43.896,24.43,96.361,24.438,140.258,0.012
	c86.485-48.122,124.545-121.872,124.627-122.031C477.451,312.64,472.669,260.258,440.336,229.417z"/>
<path style="fill:#E8C842;" d="M237.41,485.937c-86.547-49.909-124.594-126.41-124.61-126.441
	c-25.526-36.95-22.101-89.364,8.198-121.879c8.822-9.467,15.283-21.299,19.516-34.08c22.189-66.987,76.149-116.936,141.631-127.324
	c-85.561-13.34-164.574,40.316-192.889,122.805c-4.233,12.334-10.695,23.753-19.516,32.89c-30.3,31.379-33.723,81.962-8.198,117.621
	c0.016,0.03,38.062,73.857,124.61,122.022c18.102,10.074,37.661,15.984,57.475,17.751C241.54,488.23,239.462,487.12,237.41,485.937z
	"/>
<path style="fill:#DBBC3B;" d="M257.623,286.903c-19.011-1.138-29.962,21.896-17.336,33.058l11.223,9.921
	c2.739,2.421,6.853,2.421,9.593,0l11.108-9.819C284.416,309.272,274.875,287.936,257.623,286.903z"/>
<path style="fill:#CCAF36;" d="M252.38,313.526c-3.416-10.974,3.814-22.264,12.972-24.638
	c-21.269-10.079-40.256,17.645-25.065,31.074l11.223,9.921c2.221,1.963,5.335,2.306,7.898,1.086
	C256.142,329.022,256.477,325.321,252.38,313.526z"/>
<path style="fill:#656566;" d="M358.762,355.735c-3.505,1.151-7.08,2.089-10.713,2.879c-0.268,0.058-0.542,0.104-0.811,0.16
	l-14.365,31.514c-1.306,2.706-4.982,3.137-6.878,0.805c-2.383-2.929-6.118-4.398-9.862-3.9c-8.869,1.182-28.028,3.073-59.827,3.073
	c-63.124,0-63.323-6.995-68.918-0.118c-2.254,2.771-6.624,2.259-8.176-0.958l-13.395-29.439c-0.287-0.073-0.576-0.14-0.863-0.215
	c-3.637-0.948-7.219-2.042-10.734-3.325c-8.519-3.111-16.088,7.005-11.561,15.57c50.991,96.459,178.876,93.262,227.363-0.611
	C374.338,362.822,367.097,352.998,358.762,355.735z"/>
<path style="fill:#4F4F51;" d="M182.156,391.72c-3.212-0.992-3.312-4.064-4.98-7.009c-2.717-4.09-5.28-8.399-7.674-12.928
	c-1.176-2.225-1.53-4.553-1.269-6.728l-2.412-5.302c-0.287-0.073-0.576-0.14-0.863-0.215c-3.637-0.948-7.219-2.042-10.734-3.325
	c-8.519-3.111-16.088,7.005-11.561,15.57c27.826,52.637,78.549,75.594,126.773,70.337
	C236.687,438.575,204.957,421.93,182.156,391.72z"/>
<path style="fill:#EAE9E8;" d="M265.638,363.011c-36.468,1.507-71.014,4.449-101.36-3.646l14.936,32.826
	c1.553,3.217,5.922,3.729,8.176,0.958c5.595-6.877,5.794,0.118,68.918,0.118c31.798,0,50.958-1.891,59.826-3.073
	c3.743-0.498,7.477,0.971,9.862,3.9c1.896,2.332,5.572,1.9,6.878-0.805l15.87-34.815
	C323.563,364.112,295.427,361.781,265.638,363.011z"/>
<path style="fill:#DBDBDB;" d="M192,363.949c-9.563-0.79-18.824-2.209-27.722-4.583l14.936,32.826
	c1.552,3.217,5.922,3.729,8.176,0.958c3.187-3.917,4.629-3.333,16.938-2.106L192,363.949z"/>
<path style="fill:#9CD7F2;" d="M407.808,353.303l-49.166-34.917c-4.515-3.207-10.771-0.001-10.805,5.537l-0.381,61.835
	c1.571,26.596,29.941,42.819,53.659,30.684l0,0C425.479,403.978,429.017,370.597,407.808,353.303z"/>
<path style="fill:#71C5DB;" d="M372.513,382.422l-19.682-58.621c-0.84-2.501-0.162-4.95,1.341-6.668
	c-3.329,0.263-6.311,2.971-6.334,6.789l-0.38,61.836c1.571,26.596,29.94,42.818,53.659,30.684l0,0
	c5.822-2.979,10.441-7.16,13.832-12.024C398.233,408.221,379.745,400.061,372.513,382.422z"/>
<path style="fill:#9CD7F2;" d="M102.828,353.303l49.166-34.917c4.515-3.207,10.771-0.001,10.805,5.537l0.381,61.835
	c-1.571,26.596-29.941,42.819-53.659,30.684l0,0C85.157,403.978,81.619,370.597,102.828,353.303z"/>
<path style="fill:#71C5DB;" d="M120.85,370.434l36.831-47.749c1.065-1.381,2.482-2.202,3.974-2.517
	c-2.017-3.008-6.314-4.159-9.662-1.782l-49.166,34.917c-21.209,17.294-17.671,50.675,6.692,63.14l0,0
	c5.975,3.057,12.245,4.31,18.306,4.055C113.862,408.63,109.551,387.292,120.85,370.434z"/>
<path style="fill:#DBBC3B;" d="M257.844,286.483c-19.011-1.138-29.962,21.896-17.336,33.058l11.223,9.921
	c2.739,2.421,6.853,2.421,9.593,0l11.108-9.819C284.637,308.852,275.095,287.515,257.844,286.483z"/>
<path style="fill:#CCAF36;" d="M252.601,313.105c-3.416-10.974,3.814-22.264,12.972-24.638
	c-21.269-10.079-40.256,17.645-25.065,31.074l11.223,9.921c2.221,1.963,5.335,2.306,7.898,1.086
	C256.363,328.601,256.697,324.901,252.601,313.105z"/>
<path d="M255.525,338.772c8.655,0,11.885-6.524,20.872-13.51c7.429-6.568,9.935-16.772,6.535-26.628
	c-8.792-25.496-44.021-26.33-54.234-1.616c-4.225,10.225-1.933,21.271,5.84,28.143C243.668,332.263,246.857,338.772,255.525,338.772
	z M256.395,293.971c10.458,0.626,17.234,13.719,10.068,20.054l-10.938,9.668l-11.051-9.77
	C237.462,307.723,244.187,293.239,256.395,293.971z"/>
<path d="M504.5,298.154h-29.713c0.342-15.095-2.548-29.377-8.118-42.373l18.522-6.735c3.893-1.416,5.9-5.719,4.485-9.613
	c-1.416-3.893-5.715-5.904-9.613-4.485l-20.424,7.427c-12.583-20.069-21.495-19.153-28.478-41.155
	c-4.067-12.813-9.283-24.952-15.491-36.312c5.508-16.085,9.778-32.688,12.672-49.418c0.705-4.082-2.031-7.963-6.112-8.67
	c-4.079-0.7-7.962,2.031-8.67,6.112c-2.044,11.818-4.799,23.573-8.226,35.109c-14.576-21.327-32.796-38.963-53.046-52.196
	c24.111-34.214,59.133-56.851,64.126-58.102c1.015,4.474,2.057,23.307,1.048,41.268c-0.232,4.136,2.932,7.677,7.067,7.909
	c4.15,0.217,7.677-2.933,7.909-7.067c1.057-18.81,0.104-33.432-0.88-42.386c-1.137-10.357-7.99-18.803-17.527-21.847
	c-8.072-2.522-13.697-0.223-21.223,2.279c-45.205,15.201-73.75,40-88.419,55.869c-31.309-9.119-65.174-9.486-97.75-0.031
	c-26.166-28.295-59.188-46.69-95.738-58.192c-14.848-4.457-29.683,6.267-31.403,21.919c-2.05,18.654-4.501,67.962,15.9,127.489
	c-1.569,2.871-3.079,5.792-4.524,8.767c-1.811,3.726-0.258,8.214,3.468,10.024c3.724,1.81,8.213,0.257,10.025-3.469
	c28.951-59.582,86.497-98.487,151.161-98.487c74.367,0,138.288,51.356,161.336,123.967c7.645,24.088,18.385,27.357,28.283,41.889
	l-42.087,15.304c-7.852,2.856-5.792,14.552,2.564,14.552c2.417,0,0.2,0.234,46.866-16.564c5.111,11.668,7.553,24.45,7.22,37.216
	h-45.087c-4.143,0-7.5,3.357-7.5,7.5c0,4.143,3.357,7.5,7.5,7.5h43.397c-3.947,19.579-12.866,30.199-14.846,33.827l-34.987-12.723
	c-3.577-1.298-7.49,0.294-9.204,3.575l-35.997-25.565c-9.456-6.711-22.577,0.007-22.648,11.607l-0.172,28.049
	c-23.607,4.008-42.897,1.631-89.07,3.771c-28.926,1.346-56.35,2.616-80.615-2.769l-0.179-29.051
	c-0.072-11.595-13.188-18.324-22.648-11.607l-35.037,24.884c-1.873-2.814-5.483-4.101-8.8-2.894l-35.773,13.009
	c-2.46-4.459-11.109-14.687-15.078-34.113H97.38c4.142,0,7.5-3.357,7.5-7.5c0-4.143-3.358-7.5-7.5-7.5H51.237
	c-0.354-12.87,2.135-25.76,7.39-37.537c47.059,16.942,45.361,16.884,47.749,16.884c8.359,0,10.412-11.697,2.563-14.552
	l-42.864-15.587c8.283-11.988,15.817-15.27,25.015-34.786c1.766-3.747,0.159-8.216-3.588-9.982
	c-3.746-1.766-8.216-0.161-9.982,3.587c-9.075,19.259-15.339,19.144-25.926,35.915l-19.66-7.149
	c-3.893-1.414-8.195,0.594-9.612,4.485c-1.416,3.894,0.592,8.196,4.485,9.613l17.705,6.438c-5.803,13.438-8.563,28.064-8.228,42.669
	H7.5c-4.142,0-7.5,3.357-7.5,7.5c0,4.143,3.358,7.5,7.5,7.5h30.234c2.386,13.876,7.677,27.342,15.933,39.34l-26.858,9.767
	c-7.849,2.855-5.794,14.552,2.563,14.552c2.353,0,0.987-0.049,32.168-11.219c4.793,7.504,11.95,17.866,21.621,29.697
	c3.992,13.812,14.203,24.766,27.377,29.796c21.615,20.971,45.564,38.831,71.203,53.1c45.602,25.378,101.245,27.318,154.261-3.838
	c3.571-2.098,4.765-6.694,2.667-10.267c-2.099-3.57-6.695-4.766-10.268-2.667c-48.433,28.48-98.488,26.414-139.366,3.663
	c-19.086-10.622-37.193-23.34-54.042-37.927c10.44-2.085,19.866-7.868,26.476-16.407c53.196,53.398,136.324,51.091,187.748,0.067
	c6.698,8.62,16.238,14.386,26.759,16.405c-5.931,5.127-12.03,10.047-18.26,14.704c-3.317,2.479-3.997,7.18-1.517,10.498
	c2.471,3.307,7.173,4.004,10.498,1.517c11.903-8.897,23.362-18.683,34.082-29.104c11.818-4.755,22.157-14.726,26.464-28.744
	c10.103-12.284,17.539-23.067,22.446-30.773l30.375,11.046c3.902,1.418,8.199-0.602,9.613-4.485
	c1.415-3.894-0.593-8.197-4.485-9.613l-27.617-10.043c8.009-11.724,13.367-25.054,15.782-39.064H504.5c4.143,0,7.5-3.357,7.5-7.5
	C512,301.509,508.642,298.154,504.5,298.154z M105.727,148.075C90.481,96.89,92.61,55.488,94.41,39.106
	c0.051-0.464,0.133-0.917,0.234-1.363c4.951,1.239,39.683,23.441,64.092,58.054C138.237,109.188,120.184,126.865,105.727,148.075z
	 M171.662,88.099c-11.309-16.23-29.268-36.875-56.144-55.278c29.707,10.354,55.727,26.831,75.424,46.287
	C184.347,81.716,177.911,84.719,171.662,88.099z M339.367,88.138c-6.238-3.377-12.671-6.389-19.276-9.007
	c19.62-19.389,45.634-35.922,75.45-46.312C368.643,51.236,350.675,71.902,339.367,88.138z M83.025,370.5
	c-2.689-3.731-5.022-7.147-7.008-10.17l14.832-5.393C87.244,359.593,84.588,364.873,83.025,370.5z M117.026,411.482
	c-22.432-7.64-27.992-37.018-9.641-52.216l47.921-34.033l0.371,60.315C154.381,405.045,135.079,417.523,117.026,411.482z
	 M251.79,370.683c42.663-1.989,60.363-0.065,83.469-2.884l-8.042,17.644c-10.507-7.222-9.307-0.097-71.707-0.097
	c-62.952,0-63.344-7.099-71.887-0.241l-7.177-15.775C200.029,373.087,225.306,371.911,251.79,370.683z M168.768,396.681
	c0.523-1.703,0.949-3.443,1.266-5.216c0.626,1.374,1.521,3.346,1.625,3.567c3.645,7.549,14.175,10.068,20.97,2.166
	c5.153-0.078,20.148,3.148,62.88,3.148c59.656,0,60.971-5.498,63.868-1.94c5.539,6.812,16.188,5.112,19.522-2.428l1.804-3.957
	c0.313,1.625,0.714,3.222,1.2,4.787C295.856,446.137,217.28,449.186,168.768,396.681z M400.915,407.861
	c-19.253,13.034-44.47,0.057-45.957-22.315c0.009-1.418,0.171-27.816,0.169-27.391l0.203-32.922l47.921,34.033
	C419.097,372.39,417.375,396.809,400.915,407.861z M427.725,370.93c-1.622-6.071-4.507-11.751-8.488-16.689l15.988,5.813
	C433.127,363.256,430.63,366.913,427.725,370.93z"/>
<path d="M297.887,277.417c-2.307,3.44-1.387,8.1,2.054,10.406c3.439,2.308,8.1,1.387,10.406-2.054
	c7.634-11.388,18.556-11.513,26.274,0c2.307,3.44,6.966,4.359,10.406,2.054c3.441-2.307,4.36-6.965,2.054-10.406
	c-6.493-9.688-15.823-15.242-25.598-15.241C313.708,262.176,304.379,267.73,297.887,277.417z"/>
<path d="M159.826,277.266c-2.307,3.44-1.387,8.1,2.053,10.407c3.441,2.307,8.101,1.389,10.407-2.053
	c7.635-11.389,18.556-11.513,26.274,0c1.447,2.158,3.819,3.324,6.236,3.324c5.907,0,9.592-6.653,6.223-11.678
	c-6.492-9.687-15.822-15.241-25.597-15.241C185.178,262.098,170.761,260.957,159.826,277.266z"/>
<path d="M317.146,228.818c15.979-4.165,33.2-1.554,48.492,7.368c3.591,2.098,8.18,0.863,10.258-2.698
	c2.088-3.577,0.88-8.17-2.698-10.258c-18.741-10.937-39.994-14.107-59.839-8.928c-4.008,1.046-6.409,5.143-5.363,9.151
	S313.14,229.866,317.146,228.818z"/>
<path d="M197.693,214.304c-19.845-5.177-41.096-2.008-59.839,8.928c-6.593,3.846-3.849,13.98,3.787,13.98
	c1.284,0,2.584-0.329,3.773-1.023c15.292-8.921,32.512-11.536,48.491-7.368c4.007,1.051,8.104-1.354,9.151-5.363
	C204.102,219.446,201.701,215.349,197.693,214.304z"/>
<g>
</g>
<g>
</g>
<g>
</g>
<g>
</g>
<g>
</g>
<g>
</g>
<g>
</g>
<g>
</g>
<g>
</g>
<g>
</g>
<g>
</g>
<g>
</g>
<g>
</g>
<g>
</g>
<g>
</g>
</svg>
