<?xml version="1.0" encoding="iso-8859-1"?>
<!-- Generator: Adobe Illustrator 19.0.0, SVG Export Plug-In . SVG Version: 6.00 Build 0)  -->
<svg version="1.1" id="Capa_1" xmlns="http://www.w3.org/2000/svg" xmlns:xlink="http://www.w3.org/1999/xlink" x="0px" y="0px"
	 viewBox="0 0 512.002 512.002" style="enable-background:new 0 0 512.002 512.002;" xml:space="preserve">
<path style="fill:#DBBC3B;" d="M408.371,166.18c19.278-54.362,19.416-102.05,16.63-127.404
	c-1.234-11.232-11.625-18.611-21.794-15.554c-51.398,15.453-82.29,44.393-95.525,59.593
	C350.064,96.45,385.781,126.55,408.371,166.18z"/>
<path style="fill:#CCAF36;" d="M422.214,30.712c-3.745-5.478-8.528-7.903-13.589-8.16c-3.077-0.144-5.521,0.702-5.419,0.671
	c-40.342,12.186-73.864,34.709-95.525,59.593c12.252,3.941,23.942,9.267,34.924,15.793c12.255-19.037,33.664-44.679,68.415-65.784
	C414.534,30.689,418.472,30.067,422.214,30.712z"/>
<path style="fill:#DBBC3B;" d="M205.166,82.811c-13.237-15.201-44.128-44.137-95.52-59.588
	c-10.171-3.057-20.561,4.322-21.794,15.554c-2.786,25.353-2.648,73.039,16.629,127.401
	C127.069,126.549,162.784,96.445,205.166,82.811z"/>
<path style="fill:#CCAF36;" d="M109.647,23.223c-4.187-1.138-8.14-0.882-12.015,1.073c-4.503,2.273-6.403,5.72-6.993,6.415
	c3.741-0.645,7.678-0.022,11.193,2.112c34.749,21.104,56.157,46.743,68.412,65.78c10.982-6.526,22.671-11.852,34.922-15.793
	C196.783,75.109,169.635,41.373,109.647,23.223z"/>
<path style="fill:#F4D44E;" d="M440.469,228.987c-7.296-6.959-12.416-16.104-15.56-26.01
	c-23.846-75.13-90.248-129.198-168.484-129.198c-76.704,0-142.032,51.972-167.033,124.809c-4.234,12.334-10.695,23.753-19.516,32.89
	c-30.3,31.379-33.723,81.962-8.198,117.621c0.016,0.03,38.062,73.857,124.61,122.023c43.896,24.43,96.361,24.438,140.258,0.012
	c86.485-48.122,124.545-121.872,124.627-122.031C477.585,312.211,472.802,259.827,440.469,228.987z"/>
<path style="fill:#E8C842;" d="M237.543,485.507c-86.547-49.909-124.594-126.41-124.61-126.441
	c-25.526-36.95-22.101-89.364,8.198-121.879c8.822-9.467,15.283-21.299,19.516-34.08c22.189-66.987,76.149-116.936,141.631-127.324
	c-8.441-1.316-17.073-2.003-25.856-2.003c-76.704,0-142.032,51.972-167.033,124.809c-4.233,12.334-10.695,23.753-19.516,32.89
	c-30.3,31.379-33.723,81.962-8.198,117.621c0.016,0.03,38.062,73.857,124.61,122.022c18.102,10.074,37.661,15.984,57.475,17.751
	C241.673,487.8,239.597,486.69,237.543,485.507z"/>
<path style="fill:#DBBC3B;" d="M257.756,286.474c-19.011-1.138-29.962,21.896-17.336,33.058l11.223,9.921
	c2.739,2.421,6.853,2.421,9.593,0l11.108-9.819C284.55,308.842,275.008,287.506,257.756,286.474z"/>
<path style="fill:#CCAF36;" d="M256.794,326.842l-4.279-13.746c-3.416-10.974,3.814-22.264,12.972-24.638
	c-2.334-1.106-4.928-1.816-7.729-1.984c-19.011-1.138-29.962,21.896-17.335,33.058l11.223,9.921
	c2.221,1.963,5.335,2.306,7.898,1.086C258.317,329.81,257.318,328.528,256.794,326.842z"/>
<path style="fill:#9CD7F2;" d="M188.968,357.873l-26.964-53.938c-2.476-4.953-9.505-5.067-12.14-0.196l-29.421,54.389
	c-11.123,24.209,6.281,51.869,32.92,52.317l0,0C180.727,410.905,199.55,383.111,188.968,357.873z"/>
<path style="fill:#71C5DB;" d="M145.254,368.227l11.721-60.716c0.47-2.437,2.086-4.176,4.069-5.004
	c-2.993-3.482-8.829-3.113-11.179,1.23l-29.421,54.389c-11.123,24.209,6.281,51.869,32.92,52.317l0,0
	c5.602,0.094,10.837-1.011,15.544-3.021C153.762,401.69,142.989,386.183,145.254,368.227z"/>
<ellipse style="fill:#656566;" cx="180.581" cy="265.324" rx="15.512" ry="21.111"/>
<path style="fill:#4F4F51;" d="M177.586,257.988c0-5.248,1.415-10.039,3.743-13.732c-0.248-0.016-0.492-0.051-0.743-0.051
	c-8.568,0-15.512,9.453-15.512,21.114c0,11.661,6.945,21.114,15.512,21.114c4.711,0,8.925-2.869,11.769-7.382
	C184.135,278.52,177.586,269.308,177.586,257.988z"/>
<ellipse style="fill:#656566;" cx="330.44" cy="265.324" rx="15.512" ry="21.111"/>
<path style="fill:#4F4F51;" d="M327.435,257.988c0-5.248,1.415-10.039,3.743-13.732c-0.248-0.016-0.492-0.051-0.743-0.051
	c-8.568,0-15.512,9.453-15.512,21.114c0,11.661,6.945,21.114,15.512,21.114c4.711,0,8.925-2.869,11.769-7.382
	C333.984,278.52,327.435,269.308,327.435,257.988z"/>
<path d="M376.793,224.073c2.088-3.577,0.88-8.171-2.698-10.258c-18.742-10.937-39.993-14.106-59.838-8.928
	c-4.008,1.046-6.409,5.143-5.363,9.151s5.143,6.414,9.151,5.363c15.978-4.17,33.199-1.554,48.491,7.368
	C370.126,228.871,374.716,227.635,376.793,224.073z"/>
<path d="M198.59,204.889c-19.841-5.178-41.096-2.008-59.838,8.928c-6.593,3.845-3.849,13.98,3.786,13.98
	c1.284,0,2.584-0.329,3.772-1.023c15.291-8.923,32.512-11.539,48.491-7.368c4.009,1.049,8.105-1.355,9.151-5.363
	C204.999,210.031,202.598,205.935,198.59,204.889z"/>
<path d="M307.422,265.32c0,16.046,10.109,28.615,23.013,28.615c12.905,0,23.013-12.569,23.013-28.615
	c0-16.045-10.109-28.614-23.013-28.614C317.53,236.706,307.422,249.275,307.422,265.32z M338.448,265.32
	c0,7.791-4.229,13.614-8.012,13.614c-3.783,0-8.012-5.822-8.012-13.614c0-7.791,4.229-13.613,8.012-13.613
	C334.218,251.707,338.448,257.528,338.448,265.32z"/>
<path d="M245.762,335.074c5.566,4.918,13.963,4.918,19.528-0.001l11.107-9.819c17.149-15.161,4.992-44.823-19.106-46.267
	c-25.99-1.591-40.811,30.198-22.752,46.165L245.762,335.074z M256.395,293.961c10.46,0.626,17.234,13.719,10.067,20.054
	l-10.937,9.668l-11.051-9.77C237.52,307.765,244.109,293.224,256.395,293.961z"/>
<path d="M504.5,298.145h-29.712c0.341-15.096-2.547-29.376-8.118-42.372l18.522-6.735c3.893-1.416,5.9-5.719,4.485-9.613
	c-1.416-3.893-5.714-5.903-9.613-4.485l-20.425,7.427c-12.586-20.074-21.49-19.149-28.479-41.156
	c-4.067-12.814-9.283-24.953-15.492-36.314c5.831-17.028,10.269-34.61,13.164-52.33c0.669-4.088-2.104-7.943-6.191-8.612
	c-4.099-0.676-7.944,2.104-8.612,6.191c-2.085,12.758-4.999,25.447-8.696,37.887c-14.481-21.189-32.636-38.855-53.046-52.196
	c24.11-34.213,59.133-56.853,64.127-58.102c1.03,4.54,1.912,22.554,1.195,38.277c-0.188,4.138,3.013,7.646,7.15,7.834
	c4.112,0.172,7.645-3.013,7.834-7.15c0.794-17.413-0.125-30.948-1.035-39.236c-1.764-16.055-16.859-26.272-31.41-21.918
	c-49.484,14.878-80.311,41.507-95.76,58.222c-32.266-9.397-66.219-9.209-97.756-0.038c-23.199-25.084-55.914-46.103-95.4-58.083
	C96.278,11.018,81.247,21.566,79.5,37.46c-2.049,18.651-4.5,67.942,15.888,127.453c-16.506,30.203-13.913,43.329-31.805,61.859
	c-4.567,4.73-8.552,9.878-11.986,15.318l-19.659-7.148c-3.896-1.414-8.195,0.595-9.613,4.485c-1.415,3.894,0.593,8.196,4.485,9.613
	l17.705,6.438c-5.804,13.439-8.564,28.064-8.228,42.67H7.5c-4.143,0-7.5,3.357-7.5,7.5s3.357,7.5,7.5,7.5h30.232
	c2.387,13.876,7.677,27.342,15.934,39.34l-26.858,9.767c-7.852,2.856-5.792,14.552,2.564,14.552c2.352,0,0.994-0.051,32.152-11.213
	c15.057,23.619,53.487,75.451,120.214,112.587c46.178,25.698,101.338,25.727,147.553,0.012c12.15-6.761,24.075-14.433,35.444-22.802
	c3.336-2.456,4.049-7.15,1.594-10.487c-2.457-3.337-7.151-4.05-10.487-1.594c-10.86,7.994-22.247,15.321-33.845,21.774
	c-41.627,23.161-91.332,23.156-132.964-0.012c-61.628-34.296-97.822-81.399-113.078-104.726l32.983-11.994
	c3.893-1.416,5.9-5.719,4.485-9.613c-1.416-3.893-5.717-5.905-9.613-4.485l-35.78,13.011c-2.568-4.716-11.113-14.742-15.071-34.116
	h44.415c4.143,0,7.5-3.357,7.5-7.5s-3.357-7.5-7.5-7.5H51.237c-0.354-12.87,2.135-25.76,7.391-37.537l45.186,16.431
	c3.902,1.418,8.199-0.602,9.613-4.485c1.415-3.894-0.593-8.197-4.485-9.613l-42.864-15.587c2.469-3.573,5.223-6.981,8.296-10.164
	c26.832-27.788,18.537-55.432,59.185-100.204c88.557-97.295,242.295-60.445,283.305,68.762c7.665,24.141,18.266,27.18,28.283,41.889
	l-42.087,15.304c-3.893,1.416-5.9,5.719-4.485,9.613c1.417,3.894,5.72,5.9,9.613,4.485l44.304-16.11
	c5.111,11.668,7.553,24.451,7.22,37.216h-45.087c-4.143,0-7.5,3.357-7.5,7.5s3.357,7.5,7.5,7.5h43.397
	c-3.973,19.704-12.997,30.367-14.841,33.829l-34.992-12.725c-3.897-1.414-8.195,0.595-9.613,4.485
	c-1.415,3.894,0.593,8.197,4.485,9.613l32.22,11.717c-10.446,15.873-28.411,39.159-52.816,61.406
	c-3.061,2.791-3.28,7.534-0.49,10.597c2.792,3.061,7.533,3.28,10.597,0.49c28.977-26.414,47.691-52.502,57.104-67.258l30.392,11.052
	c3.902,1.418,8.199-0.602,9.613-4.485c1.415-3.894-0.593-8.197-4.485-9.613l-27.617-10.043
	c8.009-11.724,13.367-25.054,15.781-39.064h31.143c4.143,0,7.5-3.357,7.5-7.5S508.642,298.145,504.5,298.145z M105.72,148.042
	C90.483,96.868,92.61,55.476,94.41,39.096c0.051-0.464,0.133-0.917,0.234-1.363c5.256,1.314,39.961,23.814,64.124,58.098
	C138.804,108.882,120.386,126.596,105.72,148.042z M171.687,88.125c-11.307-16.235-29.273-36.898-56.168-55.314
	c30.184,10.534,56.051,27.149,75.432,46.296C184.155,81.804,177.965,84.727,171.687,88.125z M339.368,88.129
	c-6.239-3.377-12.671-6.389-19.276-9.007c19.912-19.676,46.021-36.054,75.452-46.314C368.641,51.227,350.676,71.892,339.368,88.129z
	"/>
<path d="M180.585,236.705c-12.904,0-23.013,12.569-23.013,28.614c0,16.046,10.109,28.615,23.013,28.615
	c12.905,0,23.012-12.569,23.012-28.615C203.597,249.275,193.49,236.705,180.585,236.705z M180.585,278.934
	c-3.782,0-8.012-5.822-8.012-13.614c0-7.791,4.229-13.613,8.012-13.613c3.781,0,8.011,5.821,8.011,13.613
	C188.596,273.111,184.366,278.934,180.585,278.934z"/>
<path d="M211.319,383.93c3.661,1.938,8.199,0.54,10.138-3.121c3.123-5.901,17.057-12.007,34.968-12.007s31.845,6.104,34.968,12.007
	c1.346,2.543,3.945,3.994,6.636,3.994c5.555,0,9.294-5.963,6.622-11.011c-6.327-11.958-25.709-19.991-48.227-19.991
	C216.663,353.801,198.872,377.344,211.319,383.93z"/>
<path d="M155.861,308.418l11.363,22.729c1.851,3.705,6.356,5.206,10.063,3.354c3.706-1.852,5.207-6.356,3.354-10.063l-11.927-23.859
	c-5.225-10.456-19.983-10.506-25.446-0.411l-29.421,54.39c-14.035,26.116,5.704,63.392,40.158,63.392
	c31.647-0.002,53.48-31.59,42.617-61.057c-1.433-3.885-5.745-5.874-9.633-4.442c-3.886,1.433-5.875,5.745-4.442,9.633
	c3.511,9.522,2.138,19.755-3.766,28.074c-12.272,17.29-38.264,17.2-49.69-0.956c-5.348-8.499-6.046-18.594-1.928-27.732
	L155.861,308.418z"/>
<g>
</g>
<g>
</g>
<g>
</g>
<g>
</g>
<g>
</g>
<g>
</g>
<g>
</g>
<g>
</g>
<g>
</g>
<g>
</g>
<g>
</g>
<g>
</g>
<g>
</g>
<g>
</g>
<g>
</g>
</svg>
