<?xml version="1.0" encoding="iso-8859-1"?>
<!-- Generator: Adobe Illustrator 19.0.0, SVG Export Plug-In . SVG Version: 6.00 Build 0)  -->
<svg version="1.1" id="Capa_1" xmlns="http://www.w3.org/2000/svg" xmlns:xlink="http://www.w3.org/1999/xlink" x="0px" y="0px"
	 viewBox="0 0 511.999 511.999" style="enable-background:new 0 0 511.999 511.999;" xml:space="preserve">
<path style="fill:#DBBC3B;" d="M407.562,152.514c19.229-54.224,19.366-101.79,16.587-127.079
	c-1.231-11.204-11.595-18.564-21.739-15.515c-51.267,15.413-82.081,44.28-95.282,59.441
	C349.403,82.961,385.029,112.986,407.562,152.514z"/>
<path style="fill:#CCAF36;" d="M421.368,17.39c-3.736-5.464-8.506-7.883-13.554-8.139c-3.069-0.144-5.507,0.701-5.405,0.67
	c-40.239,12.155-73.676,34.621-95.282,59.441c12.221,3.931,23.881,9.244,34.835,15.752c12.224-18.989,33.578-44.565,68.241-65.617
	C413.709,17.368,417.637,16.747,421.368,17.39z"/>
<path style="fill:#DBBC3B;" d="M204.873,69.357c-13.202-15.163-44.016-44.025-95.277-59.437
	c-10.145-3.049-20.508,4.311-21.739,15.515c-2.779,25.289-2.641,72.853,16.586,127.077
	C126.976,112.985,162.599,82.956,204.873,69.357z"/>
<path style="fill:#CCAF36;" d="M109.597,9.92c-4.176-1.135-8.119-0.88-11.984,1.071c-4.491,2.267-6.387,5.706-6.975,6.399
	c3.731-0.643,7.659-0.022,11.165,2.106c34.66,21.05,56.014,46.624,68.238,65.613c10.954-6.509,22.613-11.822,34.834-15.753
	C196.512,61.676,169.433,28.024,109.597,9.92z"/>
<path style="fill:#F4D44E;" d="M439.578,215.162c-7.277-6.941-12.385-16.063-15.521-25.944
	C400.271,114.28,334.038,60.349,256.001,60.349c-76.509,0-141.671,51.839-166.608,124.492
	c-4.223,12.303-10.668,23.693-19.467,32.806c-30.223,31.299-33.638,81.754-8.177,117.321c0.016,0.03,37.965,73.669,124.293,121.712
	c43.785,24.366,96.116,24.374,139.901,0.011c86.265-48,124.228-121.562,124.31-121.721
	C476.599,298.173,471.829,245.924,439.578,215.162z"/>
<path style="fill:#E8C842;" d="M237.168,471.029c-86.327-49.782-124.277-126.089-124.293-126.119
	c-25.461-36.856-22.045-89.136,8.177-121.569c8.8-9.443,15.244-21.245,19.467-33.994c22.133-66.816,75.955-116.638,141.271-127.001
	c-8.42-1.313-17.029-1.998-25.79-1.998c-76.509,0-141.671,51.839-166.609,124.492c-4.223,12.303-10.667,23.693-19.466,32.806
	c-30.223,31.299-33.638,81.754-8.177,117.322c0.016,0.029,37.965,73.669,124.293,121.712c18.056,10.049,37.565,15.943,57.329,17.706
	C241.288,473.316,239.216,472.209,237.168,471.029z"/>
<path style="fill:#DBBC3B;" d="M256.737,250.345c-18.963-1.135-29.886,21.84-17.291,32.974l11.194,9.896
	c2.732,2.415,6.836,2.415,9.569,0l11.079-9.794C283.462,272.656,273.945,251.375,256.737,250.345z"/>
<path style="fill:#CCAF36;" d="M255.776,290.61l-4.268-13.711c-3.408-10.946,3.805-22.208,12.939-24.576
	c-2.329-1.103-4.915-1.812-7.71-1.979c-18.963-1.135-29.886,21.84-17.291,32.974l11.194,9.896c2.215,1.958,5.322,2.3,7.878,1.083
	C257.296,293.57,256.3,292.291,255.776,290.61z"/>
<path style="fill:#656566;" d="M246.682,362.502c5.499,2.23,11.621,2.229,17.12,0c5.975-2.423,12.373-4.018,19.049-4.658v-2.223
	c0-15.25-12.363-27.613-27.612-27.613c-15.25,0-27.613,12.363-27.613,27.613v2.223C234.305,358.482,240.705,360.079,246.682,362.502
	z"/>
<path style="fill:#4F4F51;" d="M252.239,357.842v-2.196v-0.027c0-10.827,6.234-20.192,15.306-24.717
	c-3.706-1.849-7.883-2.894-12.306-2.894c-15.25,0-27.613,12.363-27.613,27.613v2.223c6.678,0.64,13.078,2.236,19.055,4.659
	c1.799,0.729,3.668,1.196,5.557,1.448L252.239,357.842L252.239,357.842z"/>
<path style="fill:#EAE9E8;" d="M351.812,261.384c-13.779,10.943-33.819,8.645-44.763-5.134l-10.321-12.995
	c-10.943-13.779-8.645-33.819,5.134-44.763c13.779-10.944,33.819-8.645,44.763,5.134l10.321,12.995
	C367.889,230.4,365.591,250.44,351.812,261.384z"/>
<path style="fill:#DBDBDB;" d="M329.891,238.109l-10.321-12.995c-7.552-9.509-8.486-22.244-3.549-33.031
	c-5.015,0.9-9.888,3.017-14.157,6.408c-13.779,10.943-16.077,30.984-5.134,44.763l10.321,12.995
	c10.943,13.779,30.984,16.077,44.763,5.134c4.27-3.391,7.434-7.656,9.448-12.339C349.635,251.411,337.442,247.618,329.891,238.109z"
	/>
<path style="fill:#EAE9E8;" d="M158.666,261.384c13.779,10.943,33.819,8.645,44.763-5.134l10.321-12.995
	c10.943-13.779,8.645-33.819-5.134-44.763c-13.779-10.943-33.819-8.645-44.763,5.134l-10.321,12.995
	C142.589,230.4,144.888,250.44,158.666,261.384z"/>
<path style="fill:#DBDBDB;" d="M208.615,198.492c-3.918-3.112-8.342-5.149-12.921-6.16c4.667,10.313,3.331,23.149-4.5,33.01
	l-10.321,12.995c-7.831,9.861-20.032,14.068-31.133,11.857c2.021,4.229,5.007,8.078,8.926,11.19
	c13.779,10.943,33.819,8.645,44.763-5.134l10.321-12.995C224.692,229.476,222.393,209.434,208.615,198.492z"/>
<path style="fill:#E8C842;" d="M361.691,502.802h31.392c16.007,0,28.547-13.083,27.913-29.077
	c-0.923-23.286-0.402-55.617,25.799-99.797c11.749-19.811-12.379-41.367-30.726-27.442c-36.354,27.593-68.135,70.029-75.301,132.745
	C339.334,491.778,349.063,502.802,361.691,502.802z"/>
<path style="fill:#DBBC3B;" d="M365.769,479.231c7.164-62.716,38.946-105.152,75.301-132.745c0.06-0.045,0.121-0.081,0.181-0.125
	c-6.844-5.145-16.639-6.359-25.183,0.125c-36.354,27.593-68.135,70.03-75.301,132.745c-1.433,12.546,8.296,23.57,20.923,23.57
	h25.001C374.065,502.802,364.335,491.778,365.769,479.231z"/>
<path style="fill:#E8C842;" d="M144.788,502.802h-31.392c-16.007,0-28.547-13.083-27.913-29.077
	c0.923-23.286,0.402-55.617-25.799-99.797c-11.749-19.811,12.379-41.367,30.726-27.442c36.354,27.593,68.135,70.029,75.301,132.745
	C167.144,491.778,157.416,502.802,144.788,502.802z"/>
<path style="fill:#DBBC3B;" d="M110.818,473.724c0.923-23.286,0.402-55.617-25.799-99.797c-6.234-10.514-2.365-21.516,5.38-27.45
	c-18.346-13.909-42.462,7.641-30.715,27.45c26.2,44.18,26.721,76.511,25.799,99.797c-0.634,15.994,11.906,29.077,27.913,29.077
	h25.335C122.723,502.802,110.184,489.718,110.818,473.724z"/>
<path style="fill:#ED694A;" d="M282.851,400.748v-45.101c-6.945,0.419-13.584,1.968-19.739,4.463
	c-12.487,5.063-16.254-3.306-35.485-4.463v45.102c0,15.25,12.363,27.613,27.613,27.613S282.851,415.998,282.851,400.748z"/>
<path style="fill:#D8553A;" d="M252.239,400.748v-39.361c-6.099-1.161-12.064-4.984-24.611-5.74v45.102
	c0,15.25,12.363,27.613,27.613,27.613c4.423,0,8.6-1.045,12.306-2.894C258.474,420.94,252.239,411.575,252.239,400.748z"/>
<path d="M255.509,320.752c-19.361,0-35.112,15.752-35.112,35.113v0.027v45.102c0,19.361,15.751,35.112,35.112,35.112
	s35.113-15.751,35.113-35.112v-45.102v-0.027C290.623,336.504,274.871,320.752,255.509,320.752z M255.509,335.753
	c8.82,0,16.314,5.713,19.02,13.628c-14.212,2.539-16.285,7.181-24.067,4.025c-4.514-1.831-9.19-3.173-13.97-4.026
	C239.198,341.466,246.691,335.753,255.509,335.753z M275.622,400.994c0,11.09-9.022,20.111-20.112,20.111
	c-11.09,0-20.111-9.022-20.111-20.111v-36.555c3.218,0.671,6.368,1.629,9.427,2.868c6.895,2.795,14.486,2.794,21.377-0.001
	c3.055-1.238,6.204-2.195,9.421-2.866v36.554H275.622z"/>
<path d="M301.447,261.159c21.72,27.349,65.93,14.858,69.925-19.992c2.562-22.328-13.403-33.683-18.602-41.959
	c-13.529-17.035-38.263-19.873-55.3-6.343c-16.995,13.498-19.84,38.305-6.343,55.3L301.447,261.159z M324.724,199.486
	c14.633,1.678,18.693,13.668,26.62,22.045c13.565,17.077-0.518,41.801-21.85,39.35c-14.633-1.68-18.693-13.668-26.62-22.045
	C289.403,221.873,303.288,197.026,324.724,199.486z"/>
<path d="M213.55,192.864c-16.996-13.498-41.805-10.652-55.3,6.343c-5.348,8.512-21.17,19.577-18.603,41.959
	c4.009,34.942,48.293,47.231,69.925,19.993l10.321-12.995C233.39,231.17,230.545,206.362,213.55,192.864z M208.147,238.835
	l-10.321,12.995c-8.359,10.523-23.658,12.318-34.225,3.926c-10.542-8.374-12.298-23.681-3.925-34.225l10.321-12.995
	c8.354-10.517,23.706-12.277,34.225-3.925C214.739,212.965,216.499,228.318,208.147,238.835z"/>
<path d="M228.7,259.799c-4.225,10.226-1.933,21.272,5.839,28.145l11.224,9.922c5.566,4.918,13.963,4.918,19.528-0.001l11.107-9.819
	c7.43-6.568,9.935-16.772,6.535-26.629C274.137,235.906,238.912,235.086,228.7,259.799z M266.461,276.806l-10.937,9.668
	l-11.051-9.77c-6.835-6.042-0.604-19.98,11.003-19.98c6.332,0,11.437,4.253,13.274,9.583
	C269.425,268.259,270.55,273.19,266.461,276.806z"/>
<path d="M504.5,285.097h-29.712c0.342-15.154-2.57-29.427-8.117-42.372l18.522-6.735c3.893-1.416,5.9-5.719,4.485-9.613
	c-1.416-3.894-5.715-5.901-9.613-4.485l-20.424,7.427c-4.188-6.679-9.164-12.843-14.891-18.306
	c-14.957-14.269-11.438-26.888-29.081-59.169c6.192-18.083,10.807-36.747,13.682-55.547c0.626-4.095-2.186-7.922-6.28-8.549
	c-4.091-0.619-7.921,2.187-8.548,6.28c-2.108,13.789-5.187,27.51-9.186,40.955c-14.329-20.967-32.368-38.675-53.047-52.197
	c24.11-34.213,59.133-56.853,64.127-58.102c1.031,4.544,1.788,21.764,1.314,35.314c-0.146,4.14,3.094,7.612,7.233,7.757
	c4.124,0.189,7.613-3.093,7.757-7.233c0.561-16.018-0.321-28.48-1.16-36.112c-1.531-13.911-13.284-23.754-26.258-22.863
	c-8.305,0.632-62.045,17.114-100.914,59.166c-31.493-9.172-65.366-9.439-97.737-0.016C181.044,33,147.19,13.537,110.985,2.518
	c-14.091-4.462-29.69,5.55-31.486,21.893c-2.05,18.657-4.501,67.974,15.909,127.512c-2.413,4.409-4.688,8.916-6.785,13.533
	c-1.712,3.771-0.043,8.217,3.729,9.931c3.776,1.714,8.218,0.042,9.931-3.729c2.486-5.475,5.227-10.793,8.189-15.947
	C186.153,24.143,370.595,46.927,416.864,192.7c7.663,24.139,18.267,27.183,28.283,41.89l-42.087,15.304
	c-7.852,2.856-5.792,14.552,2.564,14.552c2.417,0,0.2,0.234,46.866-16.564c5.111,11.668,7.553,24.449,7.22,37.215h-45.087
	c-4.143,0-7.5,3.357-7.5,7.5s3.357,7.5,7.5,7.5h43.397c-3.958,19.632-12.913,30.278-14.846,33.827l-34.987-12.723
	c-3.896-1.413-8.195,0.595-9.613,4.485c-1.415,3.894,0.593,8.197,4.485,9.613l12.184,4.43c-2.225,1.503-7.244,5.571-9.308,7.291
	c-29.759,24.79-50.569,55.684-61.888,91.517c-7.211,4.825-14.616,9.358-22.048,13.493c-41.626,23.161-91.331,23.157-132.964-0.012
	c-7.446-4.144-14.861-8.684-22.074-13.513c-11.904-37.691-34.165-69.617-66.169-94.975c-1.887-1.493-3.408-2.681-4.685-3.566
	l12.834-4.667c3.893-1.416,5.9-5.719,4.485-9.613c-1.416-3.893-5.717-5.903-9.613-4.485l-35.776,13.01
	c-2.69-4.888-11.125-14.775-15.076-34.114h44.415c4.143,0,7.5-3.357,7.5-7.5s-3.357-7.5-7.5-7.5h-46.14
	c-0.354-12.869,2.135-25.759,7.39-37.536l45.186,16.431c3.902,1.418,8.199-0.602,9.613-4.485c1.415-3.894-0.593-8.196-4.485-9.613
	l-42.864-15.587c8.18-11.839,13.427-13.033,22.484-29.791c1.97-3.644,0.612-8.195-3.031-10.165
	c-3.646-1.972-8.195-0.612-10.165,3.031c-8.449,15.632-14.095,16.33-23.77,31.658l-19.659-7.148
	c-3.895-1.414-8.196,0.595-9.613,4.485c-1.415,3.894,0.593,8.197,4.485,9.613l17.704,6.438c-5.804,13.439-8.564,28.064-8.229,42.669
	H7.5c-4.143,0-7.5,3.357-7.5,7.5s3.357,7.5,7.5,7.5h30.231c2.386,13.876,7.677,27.342,15.935,39.34l-26.858,9.767
	c-3.893,1.416-5.9,5.719-4.485,9.613c1.417,3.894,5.72,5.9,9.613,4.485l20.451-7.437c-2.027,7.187-1.081,15.055,3.115,22.132
	c26.76,45.123,25.456,78.008,24.756,95.675c-0.803,20.243,15.103,36.874,35.407,36.874h31.393c17.145,0,30.311-14.981,28.375-31.922
	c-0.734-6.422-1.746-12.722-3.003-18.908c25.528,15.34,50.991,24.699,83.102,24.697c31.97-0.001,57.409-9.273,83.052-24.672
	c-1.254,6.177-2.265,12.469-2.998,18.882c-1.942,16.996,11.291,31.922,28.375,31.922h31.393c9.791,0,18.878-3.845,25.589-10.827
	c12.123-12.615,9.608-26.047,9.592-36.124c-0.012-7.24-8.188-7.79-7.512-7.488c-4.143,0.007-7.495,3.37-7.488,7.512
	c0.005,3.272,0.081,6.655,0.238,10.648c0.467,11.771-8.686,21.278-20.417,21.278H363.96c-8.059,0-14.408-7.017-13.472-15.218
	c6.184-54.135,33.019-98.677,72.604-127.776c11.767-8.644,27.058,5.083,19.519,17.795c-11.465,19.332-19.066,37.856-23.242,56.629
	c-0.899,4.043,1.649,8.05,5.693,8.95c4.042,0.9,8.05-1.65,8.95-5.693c3.825-17.2,10.859-34.287,21.502-52.234
	c4.274-7.208,5.176-15.239,2.998-22.532l21.55,7.836c3.902,1.418,8.199-0.602,9.613-4.485c1.415-3.894-0.593-8.197-4.485-9.613
	l-27.617-10.043c8.009-11.724,13.367-25.053,15.782-39.064h31.143c4.143,0,7.5-3.357,7.5-7.5S508.642,285.097,504.5,285.097z
	 M105.735,135.046C90.481,83.848,92.61,42.434,94.41,26.049c0.051-0.464,0.133-0.917,0.234-1.362
	c5.256,1.314,39.961,23.814,64.124,58.098C137.243,96.856,119.455,114.96,105.735,135.046z M171.687,75.078
	c-11.307-16.235-29.273-36.898-56.168-55.314c30.033,10.481,55.657,26.756,75.444,46.308
	C184.358,68.689,177.926,71.701,171.687,75.078z M339.368,75.082c-6.239-3.377-12.672-6.389-19.276-9.007
	c21.173-20.923,47.806-36.672,75.449-46.312C368.64,38.181,350.675,58.845,339.368,75.082z M147.059,495.547h-31.393
	c-11.756,0-20.884-9.532-20.418-21.279c1.132-28.558-1.337-60.912-26.842-103.92c-7.515-12.67,7.255-25.398,18.437-18.527
	c1.983,1.234,7.837,6.042,9.627,7.554c37.061,31.226,58.537,72.611,64.061,120.954C161.464,488.515,155.136,495.547,147.059,495.547
	z"/>
<g>
</g>
<g>
</g>
<g>
</g>
<g>
</g>
<g>
</g>
<g>
</g>
<g>
</g>
<g>
</g>
<g>
</g>
<g>
</g>
<g>
</g>
<g>
</g>
<g>
</g>
<g>
</g>
<g>
</g>
</svg>
