<?xml version="1.0" encoding="iso-8859-1"?>
<!-- Generator: Adobe Illustrator 19.0.0, SVG Export Plug-In . SVG Version: 6.00 Build 0)  -->
<svg version="1.1" id="Capa_1" xmlns="http://www.w3.org/2000/svg" xmlns:xlink="http://www.w3.org/1999/xlink" x="0px" y="0px"
	 viewBox="0 0 512.001 512.001" style="enable-background:new 0 0 512.001 512.001;" xml:space="preserve">
<path style="fill:#DBBC3B;" d="M407.948,166.19c19.278-54.362,19.416-102.05,16.63-127.404
	c-1.234-11.232-11.625-18.611-21.794-15.554c-51.398,15.453-82.29,44.393-95.525,59.593
	C349.641,96.458,385.358,126.56,407.948,166.19z"/>
<path style="fill:#CCAF36;" d="M421.791,30.722c-3.745-5.478-8.528-7.903-13.589-8.16c-3.077-0.144-5.521,0.702-5.419,0.671
	c-40.342,12.186-73.864,34.709-95.525,59.593c12.252,3.941,23.942,9.267,34.924,15.793c12.255-19.037,33.664-44.679,68.415-65.784
	C414.111,30.699,418.049,30.076,421.791,30.722z"/>
<path style="fill:#DBBC3B;" d="M204.743,82.82c-13.237-15.201-44.128-44.137-95.52-59.588c-10.171-3.057-20.561,4.322-21.794,15.554
	c-2.786,25.353-2.648,73.039,16.629,127.401C126.647,126.559,162.361,96.454,204.743,82.82z"/>
<path style="fill:#CCAF36;" d="M109.224,23.232c-4.187-1.138-8.14-0.882-12.015,1.073c-4.503,2.273-6.403,5.72-6.993,6.415
	c3.741-0.645,7.678-0.022,11.193,2.112c34.749,21.104,56.157,46.743,68.412,65.78c10.982-6.526,22.671-11.852,34.922-15.793
	C196.36,75.119,169.213,41.382,109.224,23.232z"/>
<path style="fill:#F4D44E;" d="M440.046,228.997c-7.296-6.959-12.416-16.104-15.56-26.01
	c-23.846-75.13-90.248-129.198-168.484-129.198c-76.704,0-142.032,51.971-167.033,124.809c-4.234,12.334-10.695,23.753-19.516,32.89
	c-30.3,31.379-33.724,81.962-8.199,117.621c0.016,0.03,38.062,73.857,124.61,122.023c43.896,24.43,96.361,24.438,140.258,0.011
	c86.485-48.122,124.545-121.872,124.627-122.031C477.162,312.22,472.38,259.837,440.046,228.997z"/>
<path style="fill:#E8C842;" d="M237.12,485.517c-86.547-49.909-124.594-126.41-124.61-126.441
	c-25.526-36.95-22.101-89.364,8.198-121.879c8.822-9.467,15.283-21.299,19.516-34.08c22.189-66.987,76.149-116.936,141.631-127.324
	c-8.44-1.316-17.073-2.003-25.856-2.003c-76.704,0-142.032,51.972-167.033,124.809c-4.233,12.334-10.695,23.753-19.516,32.89
	c-30.299,31.378-33.723,81.961-8.197,117.62c0.016,0.03,38.062,73.857,124.61,122.022c18.102,10.074,37.661,15.984,57.475,17.751
	C241.251,487.809,239.173,486.7,237.12,485.517z"/>
<path style="fill:#DBBC3B;" d="M257.333,286.483c-19.011-1.138-29.962,21.896-17.336,33.058l11.223,9.921
	c2.739,2.421,6.853,2.421,9.593,0l11.108-9.819C284.127,308.851,274.585,287.516,257.333,286.483z"/>
<path style="fill:#CCAF36;" d="M256.371,326.851l-4.279-13.746c-3.416-10.974,3.814-22.264,12.972-24.638
	c-2.334-1.106-4.928-1.816-7.729-1.984c-19.011-1.138-29.962,21.896-17.335,33.058l11.223,9.921
	c2.221,1.963,5.335,2.306,7.898,1.086C257.894,329.819,256.896,328.538,256.371,326.851z"/>
<path d="M276.398,325.263c7.43-6.568,9.935-16.772,6.536-26.627c-8.801-25.522-44.024-26.331-54.234-1.618
	c-4.225,10.226-1.933,21.272,5.839,28.144c9.09,7.07,12.318,13.61,20.986,13.61C264.186,338.772,267.421,332.24,276.398,325.263z
	 M244.475,313.923c-4.438-3.923-2.585-9.546-1.911-11.176c5.003-12.108,21.918-11.607,26.19,0.779
	c0.673,1.952,1.797,6.884-2.291,10.498l-10.937,9.668L244.475,313.923z"/>
<path d="M504.5,298.154h-29.713c0.342-15.048-2.53-29.337-8.117-42.373l18.522-6.735c3.893-1.416,5.9-5.719,4.485-9.613
	c-1.416-3.893-5.716-5.903-9.613-4.485l-20.424,7.427c-4.188-6.679-9.163-12.843-14.89-18.306
	c-14.953-14.262-11.457-26.915-29.076-59.158c20.384-59.503,17.935-108.793,15.886-127.445
	c-1.633-14.857-14.674-24.415-27.412-22.75c-5.969,0.717-30.868,9.06-53.535,22.354c-3.573,2.096-4.771,6.691-2.676,10.265
	c2.096,3.573,6.692,4.771,10.265,2.676c11.705-6.865,24.221-12.605,37.295-17.162c-26.875,18.41-44.825,39.06-56.126,55.289
	c-6.243-3.379-12.68-6.393-19.291-9.012c2.955-2.93,6.47-6.201,10.541-9.643c3.163-2.675,3.559-7.407,0.885-10.571
	c-2.673-3.16-7.404-3.559-10.571-0.885c-7.031,5.945-12.56,11.45-16.54,15.741c-32.266-9.398-66.221-9.21-97.758-0.039
	c-33.428-36.138-88.453-59.827-103.6-59.167c-11.401,0.368-22.079,9.659-23.535,22.9c-0.768,6.981-1.21,14.558-1.314,22.516
	c-0.055,4.142,3.259,7.544,7.4,7.598c4.138,0.082,7.544-3.258,7.598-7.4c0.066-5.024,0.626-18.757,1.461-22.437
	c3.932,0.983,38.869,22.266,64.123,58.098c-20.007,13.079-38.407,30.803-53.045,52.207c-5.241-17.622-8.886-35.647-10.863-53.776
	c-0.449-4.118-4.149-7.105-8.271-6.644c-4.117,0.449-7.092,4.151-6.643,8.269c2.549,23.375,7.742,46.58,15.436,69.031
	C78.896,195.1,81.45,208.273,63.583,226.777c-4.568,4.73-8.552,9.878-11.986,15.318l-19.659-7.148
	c-3.897-1.414-8.195,0.595-9.613,4.485c-1.415,3.894,0.593,8.196,4.485,9.613l17.705,6.438c-5.804,13.439-8.564,28.064-8.228,42.67
	H7.5c-4.143,0-7.5,3.357-7.5,7.5s3.357,7.5,7.5,7.5h30.232c2.386,13.876,7.677,27.342,15.934,39.34l-26.858,9.767
	c-7.852,2.856-5.792,14.552,2.564,14.552c2.352,0,0.994-0.051,32.152-11.213c15.057,23.619,53.487,75.451,120.214,112.587
	c46.178,25.698,101.338,25.727,147.553,0.012c20.956-11.661,40.901-25.81,59.28-42.052c3.104-2.743,3.396-7.483,0.653-10.588
	s-7.483-3.397-10.588-0.653c-17.569,15.528-36.626,29.049-56.639,40.184c-41.628,23.161-91.333,23.156-132.964-0.012
	c-61.628-34.296-97.823-81.399-113.078-104.726l32.983-11.994c3.893-1.416,5.9-5.719,4.485-9.613
	c-1.417-3.893-5.714-5.905-9.613-4.485l-35.78,13.011c-2.568-4.716-11.114-14.742-15.072-34.116h44.415c4.143,0,7.5-3.357,7.5-7.5
	s-3.357-7.5-7.5-7.5H51.237c-0.354-12.87,2.135-25.76,7.391-37.537l45.186,16.431c3.902,1.418,8.199-0.602,9.613-4.485
	c1.415-3.894-0.593-8.197-4.485-9.613l-42.864-15.587c2.469-3.573,5.223-6.981,8.296-10.164
	c21.039-21.788,18.043-36.747,35.726-67.797c75.319-132.135,260.458-109.536,306.764,36.355
	c7.649,24.092,18.384,27.354,28.284,41.889l-42.087,15.304c-7.852,2.856-5.792,14.552,2.564,14.552c2.417,0,0.2,0.234,46.866-16.564
	c5.111,11.668,7.553,24.451,7.22,37.216h-45.087c-4.143,0-7.5,3.357-7.5,7.5s3.357,7.5,7.5,7.5h43.397
	c-3.95,19.591-12.91,30.285-14.848,33.827l-34.986-12.722c-3.895-1.414-8.197,0.595-9.613,4.485
	c-1.415,3.894,0.593,8.197,4.485,9.613l32.158,11.694c-6.628,10.107-17.245,24.793-32.106,40.898
	c-2.81,3.044-2.618,7.789,0.426,10.599c3.045,2.81,7.79,2.619,10.599-0.426c17.038-18.464,28.742-35.111,35.555-45.808
	l30.374,11.045c3.902,1.418,8.199-0.602,9.613-4.485c1.415-3.894-0.593-8.197-4.485-9.613l-27.618-10.043
	c8.009-11.724,13.367-25.053,15.782-39.064h31.144c4.143,0,7.5-3.357,7.5-7.5S508.642,298.154,504.5,298.154z M171.686,88.134
	c-11.307-16.235-29.274-36.898-56.17-55.314c30.068,10.487,55.993,27.092,75.435,46.297
	C184.174,81.806,177.96,84.738,171.686,88.134z M352.287,95.844c24.11-34.213,59.133-56.853,64.127-58.102
	c0.101,0.446,0.183,0.899,0.234,1.363c1.799,16.381,3.926,57.772-11.31,108.943C390.447,126.255,372.093,108.789,352.287,95.844z"/>
<path d="M292.589,361.207c-5.568-5.882-13.838-8.056-21.652-5.648l-19.505,6.228c-3.946,1.26-6.123,5.479-4.863,9.427
	c1.26,3.945,5.479,6.124,9.427,4.863l19.431-6.204c7.442-2.277,10.567,8.642,7.167,12.102c-2.786,2.833-6.064,1.493-11.234,1.836
	c-4.143,0-7.5,3.357-7.5,7.5s3.357,7.5,7.5,7.5c5.173,0.344,8.448-0.997,11.233,1.836c3.387,3.445,0.278,14.393-7.092,12.125
	l-19.505-6.227c-3.947-1.258-8.166,0.918-9.427,4.863c-1.26,3.946,0.918,8.166,4.863,9.427c17.683,5.357,20.271,7.201,25.861,7.201
	c19.386,0,27.415-24.17,17.049-36.725C301.537,382.596,299.55,368.561,292.589,361.207z"/>
<path d="M310.347,285.769c7.634-11.387,18.556-11.513,26.274,0c1.447,2.159,3.819,3.325,6.236,3.325
	c5.908,0,9.592-6.653,6.223-11.678c-13.569-20.242-37.531-20.382-51.193,0c-2.307,3.44-1.388,8.099,2.054,10.406
	C303.381,290.129,308.041,289.21,310.347,285.769z"/>
<path d="M161.879,287.673c3.443,2.307,8.102,1.389,10.407-2.053c7.634-11.388,18.556-11.514,26.274-0.001
	c2.309,3.447,6.971,4.357,10.406,2.054c3.441-2.307,4.36-6.965,2.054-10.406c-13.569-20.243-37.531-20.382-51.193-0.001
	C157.52,280.707,158.439,285.366,161.879,287.673z"/>
<path d="M375.896,233.488c2.088-3.577,0.88-8.17-2.698-10.258c-18.741-10.937-39.995-14.106-59.839-8.928
	c-4.008,1.046-6.409,5.143-5.363,9.151c1.046,4.007,5.146,6.411,9.151,5.363c15.979-4.167,33.2-1.553,48.492,7.368
	C369.229,238.284,373.819,237.05,375.896,233.488z"/>
<path d="M193.907,228.818c4.004,1.05,8.104-1.355,9.151-5.363c1.046-4.008-1.355-8.104-5.363-9.151
	c-19.842-5.18-41.097-2.01-59.839,8.928c-6.593,3.845-3.849,13.98,3.786,13.98c1.284,0,2.584-0.329,3.772-1.023
	C160.707,227.266,177.931,224.65,193.907,228.818z"/>
<g>
</g>
<g>
</g>
<g>
</g>
<g>
</g>
<g>
</g>
<g>
</g>
<g>
</g>
<g>
</g>
<g>
</g>
<g>
</g>
<g>
</g>
<g>
</g>
<g>
</g>
<g>
</g>
<g>
</g>
</svg>
