<?xml version="1.0" encoding="iso-8859-1"?>
<!-- Generator: Adobe Illustrator 19.0.0, SVG Export Plug-In . SVG Version: 6.00 Build 0)  -->
<svg version="1.1" id="Capa_1" xmlns="http://www.w3.org/2000/svg" xmlns:xlink="http://www.w3.org/1999/xlink" x="0px" y="0px"
	 viewBox="0 0 511.998 511.998" style="enable-background:new 0 0 511.998 511.998;" xml:space="preserve">
<path style="fill:#DBBC3B;" d="M408.102,166.184c19.278-54.362,19.416-102.05,16.63-127.404
	c-1.234-11.232-11.625-18.611-21.794-15.554c-51.398,15.453-82.29,44.393-95.525,59.593
	C349.795,96.453,385.512,126.555,408.102,166.184z"/>
<path style="fill:#CCAF36;" d="M421.944,30.715c-3.745-5.478-8.528-7.903-13.589-8.16c-3.077-0.144-5.521,0.702-5.419,0.671
	c-40.342,12.186-73.865,34.709-95.525,59.593c12.252,3.941,23.942,9.267,34.924,15.793c12.255-19.037,33.664-44.679,68.415-65.784
	C414.265,30.693,418.203,30.071,421.944,30.715z"/>
<path style="fill:#DBBC3B;" d="M204.897,82.814c-13.237-15.201-44.128-44.137-95.52-59.588
	c-10.171-3.057-20.561,4.322-21.794,15.554c-2.786,25.353-2.648,73.039,16.629,127.401C126.8,126.554,162.515,96.449,204.897,82.814
	z"/>
<path style="fill:#CCAF36;" d="M109.377,23.226c-4.187-1.138-8.14-0.882-12.015,1.073c-4.503,2.273-6.403,5.72-6.993,6.415
	c3.741-0.645,7.678-0.022,11.193,2.112c34.749,21.104,56.157,46.743,68.412,65.78c10.982-6.526,22.671-11.852,34.922-15.793
	C196.514,75.114,169.366,41.376,109.377,23.226z"/>
<path style="fill:#F4D44E;" d="M440.2,228.991c-7.296-6.959-12.416-16.104-15.56-26.01
	c-23.846-75.13-90.248-129.198-168.484-129.198c-76.704,0-142.032,51.971-167.033,124.809c-4.233,12.334-10.695,23.753-19.516,32.89
	c-30.3,31.379-33.724,81.962-8.198,117.621c0.016,0.03,38.062,73.857,124.61,122.023c43.896,24.43,96.361,24.438,140.258,0.012
	c86.485-48.122,124.545-121.872,124.627-122.031C477.315,312.214,472.533,259.832,440.2,228.991z"/>
<path style="fill:#E8C842;" d="M237.274,485.511c-86.547-49.909-124.594-126.411-124.609-126.441
	c-25.526-36.95-22.101-89.364,8.198-121.879c8.822-9.467,15.283-21.299,19.516-34.08c22.189-66.987,76.149-116.936,141.631-127.324
	c-8.441-1.316-17.073-2.003-25.856-2.003c-76.704,0-142.032,51.972-167.033,124.809c-4.233,12.334-10.695,23.753-19.516,32.89
	c-30.3,31.379-33.723,81.962-8.198,117.621c0.016,0.03,38.062,73.857,124.61,122.022c18.102,10.074,37.661,15.984,57.475,17.751
	C241.404,487.803,239.327,486.694,237.274,485.511z"/>
<path style="fill:#DBBC3B;" d="M257.487,286.477c-19.011-1.138-29.962,21.896-17.336,33.058l11.223,9.921
	c2.739,2.421,6.853,2.421,9.593,0l11.108-9.819C284.281,308.846,274.739,287.51,257.487,286.477z"/>
<path style="fill:#CCAF36;" d="M256.524,326.846l-4.279-13.746c-3.416-10.974,3.814-22.264,12.972-24.638
	c-2.334-1.106-4.928-1.816-7.729-1.984c-19.011-1.138-29.962,21.896-17.335,33.058l11.223,9.921
	c2.221,1.963,5.335,2.306,7.898,1.086C258.048,329.813,257.049,328.532,256.524,326.846z"/>
<path style="fill:#656566;" d="M358.626,355.308c-3.505,1.151-7.08,2.089-10.713,2.879c-0.268,0.058-0.542,0.104-0.811,0.16
	l-14.365,31.514c-1.306,2.706-4.982,3.137-6.878,0.805c-2.383-2.929-6.118-4.398-9.862-3.9c-8.869,1.182-28.028,3.073-59.827,3.073
	c-63.124,0-63.323-6.995-68.918-0.118c-2.254,2.771-6.624,2.259-8.176-0.958l-13.395-29.439c-0.287-0.073-0.576-0.14-0.863-0.215
	c-3.637-0.948-7.219-2.042-10.734-3.325c-8.519-3.111-16.088,7.005-11.561,15.57c50.991,96.459,178.876,93.262,227.363-0.611
	C374.202,362.396,366.962,352.572,358.626,355.308z"/>
<path style="fill:#4F4F51;" d="M182.02,391.294c-1.223-0.378-2.314-1.228-2.942-2.529l-2.038-4.479
	c-2.717-4.09-5.28-8.4-7.674-12.928c-1.176-2.225-1.53-4.553-1.269-6.728l-2.412-5.302c-0.287-0.073-0.576-0.14-0.863-0.215
	c-3.637-0.948-7.219-2.042-10.734-3.325c-8.519-3.111-16.088,7.005-11.561,15.57c27.826,52.637,78.549,75.594,126.773,70.337
	C236.551,438.15,204.822,421.505,182.02,391.294z"/>
<path style="fill:#EAE9E8;" d="M265.502,362.585c-36.468,1.507-71.014,4.449-101.36-3.646l14.936,32.826
	c1.553,3.217,5.922,3.729,8.176,0.958c5.595-6.877,5.794,0.118,68.918,0.118c31.798,0,50.958-1.891,59.826-3.073
	c3.743-0.498,7.478,0.971,9.862,3.9c1.896,2.332,5.572,1.9,6.878-0.805l15.87-34.815
	C323.427,363.686,295.291,361.355,265.502,362.585z"/>
<path style="fill:#DBDBDB;" d="M191.864,363.523c-9.563-0.79-18.824-2.209-27.722-4.583l14.936,32.826
	c1.552,3.217,5.922,3.729,8.176,0.958c3.187-3.917,4.629-3.333,16.938-2.106L191.864,363.523z"/>
<path style="fill:#ED694A;" d="M383.181,238.808c-6.804-12.375-22.512-16.72-35.058-10.236l-3.977,2.056
	c-1.277,0.66-2.846,0.171-3.523-1.097l-2.108-3.95c-6.648-12.459-22.047-17.797-34.673-11.471
	c-13.058,6.542-18.083,22.512-11.25,35.318c5.952,11.154,24.651,46.193,23.463,43.967c2.317,4.343,7.694,6.016,12.068,3.757
	c9.293-4.802,35.029-18.103,44.274-22.88C385.291,267.607,390.218,251.606,383.181,238.808z"/>
<path style="fill:#D8553A;" d="M342.766,289.199c1.188,2.225-17.511-32.813-23.463-43.968c-5.802-10.873-3.051-24.023,5.902-31.752
	c-6.689-2.794-14.442-2.838-21.364,0.63c-13.058,6.542-18.084,22.512-11.25,35.318c5.952,11.154,24.651,46.193,23.463,43.968
	c2.318,4.342,7.695,6.016,12.068,3.756c3.331-1.721,8.779-4.537,14.819-7.658C342.885,289.395,342.821,289.301,342.766,289.199z"/>
<path style="fill:#ED694A;" d="M127.731,240.168c6.658-12.454,22.314-16.983,34.935-10.648l4.001,2.009
	c1.284,0.645,2.848,0.138,3.51-1.138l2.061-3.975c6.502-12.536,21.836-18.055,34.536-11.878
	c13.134,6.388,18.347,22.298,11.664,35.183c-5.909,11.394-24.084,46.436-22.945,44.24c-2.266,4.369-7.623,6.106-12.023,3.898
	c-9.348-4.692-35.241-17.691-44.54-22.358C125.959,268.989,120.844,253.047,127.731,240.168z"/>
<g>
	<path style="fill:#D8553A;" d="M195.494,293.962L195.494,293.962C195.431,294.083,195.426,294.093,195.494,293.962z"/>
	<path style="fill:#D8553A;" d="M199.98,276.941c-9.348-4.692-35.242-17.691-44.54-22.358c-10.03-5.034-15.355-15.706-14.076-26.242
		c-5.658,2.099-10.588,6.131-13.633,11.827c-6.886,12.88-1.772,28.822,11.201,35.334c9.298,4.667,35.191,17.666,44.539,22.358
		c4.399,2.208,9.757,0.471,12.023-3.898c0.445-0.858,4.028-7.766,8.339-16.076C202.531,277.861,201.218,277.563,199.98,276.941z"/>
</g>
<path d="M257.291,278.991c-26.058-1.593-40.76,30.244-22.752,46.165c9.09,7.07,12.318,13.61,20.986,13.61
	c8.661,0,11.896-6.532,20.872-13.509c7.43-6.568,9.935-16.772,6.536-26.627C279.062,287.4,268.996,279.692,257.291,278.991z
	 M266.461,314.018l-10.937,9.668l-11.051-9.77c-6.821-6.03-0.639-19.98,11.003-19.98
	C266.72,293.937,273.724,307.599,266.461,314.018z"/>
<path d="M504.5,298.148h-29.712c0.341-15.125-2.558-29.402-8.117-42.373l18.522-6.735c3.893-1.416,5.9-5.719,4.485-9.613
	c-1.416-3.893-5.717-5.903-9.613-4.485l-20.424,7.427c-12.586-20.074-21.491-19.149-28.479-41.156
	c-4.065-12.807-9.278-24.942-15.483-36.298c3.671-10.722,6.811-21.738,9.336-32.803c0.921-4.038-1.606-8.059-5.645-8.981
	c-4.04-0.919-8.06,1.605-8.981,5.645c-1.472,6.455-3.163,12.893-5.053,19.259c-14.887-21.784-33.244-39.254-53.046-52.196
	c24.11-34.213,59.133-56.855,64.127-58.102c1.095,4.814,2.785,29.665-0.306,57.324c-0.461,4.116,2.504,7.826,6.62,8.287
	c4.099,0.471,7.826-2.503,8.286-6.62c2.941-26.311,1.919-46.752,0.544-59.267c-1.754-15.956-16.838-26.303-31.41-21.918
	c-49.484,14.878-80.31,41.507-95.76,58.222c-32.265-9.397-66.218-9.209-97.756-0.037c-23.149-25.03-55.836-46.077-95.4-58.083
	c-3.141-0.972-6.267-1.34-9.764-0.95c-10.978,1.235-20.589,10.201-21.971,22.766c-2.049,18.651-4.5,67.942,15.888,127.453
	c-16.506,30.203-13.913,43.329-31.805,61.859c-4.568,4.73-8.552,9.878-11.986,15.318l-19.659-7.148
	c-3.896-1.414-8.195,0.595-9.613,4.485c-1.415,3.894,0.593,8.196,4.485,9.613l17.705,6.438c-5.804,13.439-8.564,28.064-8.229,42.67
	H7.5c-4.143,0-7.5,3.357-7.5,7.5s3.357,7.5,7.5,7.5h30.232c2.386,13.876,7.677,27.342,15.935,39.34l-26.858,9.767
	c-3.893,1.416-5.9,5.719-4.485,9.613c1.108,3.047,3.984,4.938,7.05,4.938c0.851,0,1.716-0.146,2.563-0.453l29.614-10.769
	c8.42,13.173,24.123,35.155,47.844,58.38c2.96,2.896,7.708,2.848,10.607-0.112c2.897-2.96,2.848-7.708-0.112-10.607
	c-21.224-20.78-35.624-40.326-43.893-52.914l32.945-11.98c3.893-1.416,5.9-5.719,4.485-9.613c-1.416-3.893-5.715-5.905-9.613-4.485
	l-35.777,13.01c-2.768-5.045-11.11-14.71-15.074-34.115h44.415c4.143,0,7.5-3.357,7.5-7.5s-3.357-7.5-7.5-7.5H51.237
	c-0.354-12.87,2.135-25.76,7.391-37.537c47.031,16.932,45.357,16.884,47.748,16.884c8.356,0,10.419-11.695,2.564-14.552
	l-42.864-15.587c8.7-12.589,20.233-18.799,29.511-45.83c17.41-50.718,55.662-92.293,105.948-110.352
	c89.541-32.076,185.37,20.2,215.326,114.576c7.649,24.092,18.384,27.354,28.284,41.889l-42.087,15.304
	c-7.852,2.856-5.792,14.552,2.564,14.552c2.417,0,0.2,0.234,46.866-16.564c5.111,11.668,7.553,24.451,7.22,37.216h-45.087
	c-4.143,0-7.5,3.357-7.5,7.5s3.357,7.5,7.5,7.5h43.397c-3.938,19.532-12.758,30.014-14.849,33.826l-34.985-12.722
	c-3.894-1.414-8.197,0.595-9.613,4.485c-1.415,3.894,0.593,8.197,4.485,9.613l32.132,11.685
	c-15.329,23.279-51.983,70.99-113.192,105.047c-41.626,23.16-91.331,23.158-132.964-0.012c-15.09-8.398-29.722-18.208-43.49-29.16
	c-3.241-2.58-7.96-2.041-10.539,1.2c-2.579,3.242-2.041,7.96,1.2,10.539c37.396,29.747,73.919,49.815,119.324,49.815
	c25.333,0,50.67-6.425,73.761-19.273c67.262-37.425,105.576-89.394,120.442-112.867l30.329,11.029
	c3.902,1.418,8.199-0.602,9.613-4.485c1.415-3.894-0.593-8.197-4.485-9.613l-27.618-10.043c8.01-11.724,13.368-25.054,15.782-39.064
	h31.143c4.143,0,7.5-3.357,7.5-7.5S508.642,298.148,504.5,298.148z M105.72,148.045C90.459,96.791,92.281,48.159,94.645,37.736
	c4.664,1.166,39.426,23.056,64.124,58.098C137.957,109.44,119.812,127.439,105.72,148.045z M171.687,88.128
	c-11.307-16.235-29.273-36.898-56.168-55.314c30.184,10.534,56.051,27.148,75.432,46.296
	C184.076,81.839,177.852,84.789,171.687,88.128z M339.367,88.132c-6.238-3.377-12.671-6.389-19.276-9.007
	c19.677-19.444,45.67-35.923,75.452-46.314C368.641,51.23,350.676,71.895,339.367,88.132z"/>
<path d="M389.754,235.195c-8.586-15.613-28.616-21.594-44.779-13.437c-14.227-26.05-52.435-22.681-61.359,5.369
	c-2.752,8.65-1.914,17.824,2.358,25.832c30.556,57.255,21.865,40.947,23.463,43.967v0.001c0.004,0.007,0.008,0.014,0.008,0.014
	l0.044,0.083h0.001c2.97,5.479,8.682,8.619,14.562,8.619c6.979,0,6.958-2.216,51.788-24.707
	C383.903,276.769,398.816,251.677,389.754,235.195z M368.953,267.608L324.68,290.49c-0.725,0.373-1.623,0.093-2.006-0.623
	c-0.001,0-0.001-0.001-0.001-0.001v-0.001c-30.394-56.951-21.919-41.071-23.464-43.968c-4.82-9.032-1.357-20.396,7.993-25.081
	c8.818-4.419,19.897-0.697,24.694,8.296l2.108,3.952c2.597,4.862,8.689,6.76,13.584,4.228l3.978-2.056
	c9.059-4.68,20.29-1.455,25.042,7.186C381.634,251.56,378.077,262.895,368.953,267.608z"/>
<path d="M165.735,222.67c-26.582-13.027-55.927,11.69-47.005,39.802c2.745,8.653,8.726,15.66,16.836,19.732
	c45.212,22.054,45.083,24.098,51.882,24.098c5.948,0,11.715-3.216,14.652-8.791l22.997-44.338c4.179-8.057,4.908-17.24,2.055-25.858
	C217.88,199.327,179.623,196.515,165.735,222.67z M211.781,246.269c-17.345,33.442-22.744,43.851-22.944,44.24l-0.001,0.001
	c-0.374,0.721-1.269,1.012-1.999,0.647l-44.539-22.358c-9.15-4.591-12.882-15.872-7.95-25.095c4.628-8.66,15.804-12.073,24.955-7.48
	l4.002,2.01c4.925,2.474,10.997,0.504,13.533-4.388l2.062-3.975c7.584-14.624,28.838-13.467,34.015,2.163
	C214.483,236.778,214.081,241.833,211.781,246.269z"/>
<path d="M355.845,348.182c-26.184,8.599-57.706,5.527-91.094,6.909c-35.927,1.479-76.625,5.306-108.532-6.35
	c-15.008-5.481-28.505,11.485-20.767,26.121c53.859,101.884,189.426,98.509,240.66-0.675c3.528-6.831,2.61-14.999-2.338-20.808
	C369.223,348.04,362.354,346.05,355.845,348.182z M362.783,367.303c-46.037,89.131-166.232,91.037-214.068,0.549
	c-0.943-1.784-0.354-3.477,0.438-4.384c1.309-1.501,1.168-0.625,9.161,1.741l13.497,29.663c3.401,7.51,14.169,10.356,21.041,2.32
	c4.013-0.081,28.988,4.094,79.356,2.97c4.141-0.093,7.423-3.524,7.33-7.666c-0.092-4.084-3.431-7.332-7.495-7.332
	c-0.541,0-6.567,0.177-16.311,0.177c-62.95,0-63.344-7.098-71.887-0.241l-7.178-15.774c34.195,5.448,66.325,0.527,115.458,0.301
	c15.048-0.068,29.476-0.134,43.355-1.825l-8.039,17.637c-7.05-4.845-12.773-2.978-21.124-2.165c-4.122,0.401-7.14,4.068-6.738,8.191
	c0.402,4.123,4.068,7.13,8.192,6.738c8.539-0.83,10.2-1.81,11.831,0.196c5.477,6.738,16.076,5.219,19.523-2.426l14.356-31.495
	c7.783-1.991,7.611-2.855,8.878-1.369C363.1,363.983,363.66,365.607,362.783,367.303z"/>
<g>
</g>
<g>
</g>
<g>
</g>
<g>
</g>
<g>
</g>
<g>
</g>
<g>
</g>
<g>
</g>
<g>
</g>
<g>
</g>
<g>
</g>
<g>
</g>
<g>
</g>
<g>
</g>
<g>
</g>
</svg>
