<?xml version="1.0" encoding="iso-8859-1"?>
<!-- Generator: Adobe Illustrator 19.0.0, SVG Export Plug-In . SVG Version: 6.00 Build 0)  -->
<svg version="1.1" id="Capa_1" xmlns="http://www.w3.org/2000/svg" xmlns:xlink="http://www.w3.org/1999/xlink" x="0px" y="0px"
	 viewBox="0 0 512 512" style="enable-background:new 0 0 512 512;" xml:space="preserve">
<path style="fill:#DBBC3B;" d="M407.255,166.187c19.278-54.362,19.416-102.05,16.63-127.404
	c-1.234-11.232-11.625-18.611-21.794-15.554c-51.398,15.453-82.29,44.393-95.525,59.593
	C348.949,96.455,384.666,126.557,407.255,166.187z"/>
<path style="fill:#CCAF36;" d="M421.098,30.717c-3.745-5.478-8.528-7.903-13.589-8.16c-3.077-0.144-5.521,0.702-5.419,0.671
	c-40.342,12.186-73.865,34.709-95.525,59.593c12.252,3.941,23.942,9.267,34.924,15.793c12.255-19.037,33.664-44.679,68.415-65.784
	C413.419,30.695,417.356,30.073,421.098,30.717z"/>
<path style="fill:#DBBC3B;" d="M204.051,82.817c-13.237-15.201-44.128-44.137-95.52-59.588
	c-10.171-3.057-20.561,4.322-21.794,15.554c-2.786,25.353-2.648,73.039,16.629,127.401
	C125.954,126.555,161.669,96.45,204.051,82.817z"/>
<path style="fill:#CCAF36;" d="M108.531,23.229c-4.187-1.138-8.14-0.882-12.015,1.073c-4.503,2.273-6.403,5.72-6.993,6.415
	c3.741-0.645,7.678-0.022,11.193,2.112c34.749,21.104,56.157,46.743,68.412,65.78c10.982-6.526,22.671-11.852,34.922-15.793
	C195.668,75.116,168.52,41.379,108.531,23.229z"/>
<path style="fill:#F4D44E;" d="M439.354,228.993c-7.296-6.959-12.416-16.104-15.56-26.01
	c-23.846-75.13-90.248-129.198-168.484-129.198c-76.704,0-142.032,51.971-167.033,124.809c-4.234,12.335-10.695,23.753-19.516,32.89
	c-30.3,31.379-33.723,81.962-8.198,117.621c0.016,0.03,38.062,73.857,124.61,122.022c43.896,24.43,96.361,24.438,140.258,0.012
	c86.485-48.122,124.545-121.872,124.627-122.031C476.469,312.217,471.687,259.834,439.354,228.993z"/>
<path style="fill:#E8C842;" d="M236.428,485.513c-86.547-49.909-124.594-126.41-124.61-126.441
	c-25.526-36.95-22.101-89.364,8.198-121.879c8.822-9.467,15.283-21.299,19.516-34.08c22.189-66.987,76.149-116.936,141.631-127.324
	c-8.441-1.316-17.073-2.003-25.856-2.003c-76.704,0-142.032,51.972-167.033,124.809c-4.233,12.334-10.695,23.753-19.516,32.89
	c-30.3,31.379-33.723,81.962-8.198,117.621c0.016,0.03,38.062,73.857,124.61,122.022c18.102,10.074,37.661,15.984,57.475,17.751
	C240.558,487.806,238.48,486.697,236.428,485.513z"/>
<g>
	<ellipse style="fill:#656566;" cx="330.23" cy="265.325" rx="15.512" ry="21.111"/>
	<ellipse style="fill:#656566;" cx="180.381" cy="265.325" rx="15.512" ry="21.111"/>
</g>
<g>
	<path style="fill:#4F4F51;" d="M327.233,257.994c0-5.248,1.415-10.039,3.743-13.732c-0.248-0.016-0.492-0.051-0.743-0.051
		c-8.568,0-15.512,9.453-15.512,21.114c0,11.661,6.945,21.114,15.512,21.114c4.711,0,8.925-2.869,11.769-7.382
		C333.782,278.525,327.233,269.314,327.233,257.994z"/>
	<path style="fill:#4F4F51;" d="M177.383,257.994c0-5.248,1.415-10.039,3.743-13.732c-0.248-0.016-0.492-0.051-0.743-0.051
		c-8.568,0-15.512,9.453-15.512,21.114c0,11.661,6.945,21.114,15.512,21.114c4.711,0,8.924-2.869,11.769-7.382
		C183.931,278.525,177.383,269.314,177.383,257.994z"/>
</g>
<path style="fill:#DBBC3B;" d="M256.641,286.48c-19.011-1.138-29.962,21.896-17.336,33.058l11.223,9.921
	c2.739,2.421,6.853,2.421,9.593,0l11.108-9.819C283.434,308.848,273.892,287.513,256.641,286.48z"/>
<path style="fill:#CCAF36;" d="M255.677,326.848l-4.279-13.746c-3.416-10.974,3.814-22.264,12.972-24.638
	c-2.334-1.106-4.928-1.816-7.729-1.984c-19.011-1.138-29.962,21.896-17.335,33.058l11.223,9.921
	c2.221,1.963,5.335,2.306,7.898,1.086C257.202,329.816,256.203,328.535,255.677,326.848z"/>
<path style="fill:#656566;" d="M357.78,355.311c-3.505,1.151-7.08,2.089-10.713,2.879c-0.268,0.058-0.542,0.104-0.811,0.16
	l-14.365,31.514c-1.306,2.706-4.982,3.137-6.878,0.805c-2.383-2.929-6.118-4.398-9.862-3.9c-8.869,1.182-28.028,3.073-59.827,3.073
	c-63.124,0-63.323-6.995-68.918-0.118c-2.254,2.771-6.624,2.259-8.176-0.958l-13.395-29.439c-0.287-0.073-0.576-0.14-0.863-0.215
	c-3.637-0.948-7.219-2.042-10.734-3.325c-8.519-3.111-16.088,7.005-11.561,15.57c50.991,96.459,178.876,93.262,227.363-0.611
	C373.356,362.399,366.115,352.575,357.78,355.311z"/>
<path style="fill:#4F4F51;" d="M181.174,391.296c-1.223-0.378-2.314-1.228-2.942-2.529l-2.038-4.479
	c-2.717-4.09-5.28-8.4-7.674-12.928c-1.176-2.225-1.53-4.553-1.269-6.728l-2.412-5.302c-0.287-0.073-0.576-0.14-0.863-0.215
	c-3.637-0.948-7.219-2.042-10.734-3.325c-8.519-3.111-16.088,7.005-11.561,15.57c27.826,52.637,78.549,75.594,126.773,70.337
	C235.705,438.152,203.975,421.507,181.174,391.296z"/>
<path style="fill:#EAE9E8;" d="M264.656,362.588c-36.468,1.507-71.014,4.449-101.361-3.646l14.936,32.826
	c1.552,3.217,5.922,3.729,8.176,0.958c5.595-6.877,5.794,0.118,68.918,0.118c31.798,0,50.958-1.891,59.826-3.073
	c3.743-0.498,7.478,0.971,9.862,3.9c1.896,2.332,5.572,1.9,6.878-0.805l15.87-34.816
	C322.58,363.689,294.445,361.357,264.656,362.588z"/>
<path style="fill:#DBDBDB;" d="M191.018,363.525c-9.563-0.79-18.824-2.209-27.722-4.583l14.936,32.826
	c1.552,3.217,5.922,3.729,8.176,0.958c3.187-3.917,4.629-3.333,16.938-2.106L191.018,363.525z"/>
<path d="M353.447,265.325c0-16.045-10.108-28.614-23.012-28.614c-12.905,0-23.013,12.569-23.013,28.614
	c0,16.046,10.109,28.615,23.013,28.615C343.34,293.939,353.447,281.371,353.447,265.325z M322.423,265.325
	c0-7.791,4.229-13.613,8.012-13.613c3.781,0,8.011,5.821,8.011,13.613c0,7.791-4.229,13.614-8.011,13.614
	C326.653,278.94,322.423,273.116,322.423,265.325z"/>
<path d="M180.584,293.94c12.904,0,23.013-12.569,23.013-28.615c0-16.045-10.109-28.614-23.013-28.614
	c-12.905,0-23.012,12.569-23.012,28.614C157.573,281.371,167.68,293.94,180.584,293.94z M180.584,251.712
	c3.782,0,8.012,5.821,8.012,13.613c0,7.791-4.229,13.614-8.012,13.614c-3.781,0-8.011-5.822-8.011-13.614
	C172.572,257.533,176.803,251.712,180.584,251.712z"/>
<path d="M135.25,374.865c53.859,101.884,189.425,98.509,240.659-0.675c7.391-14.311-5.516-30.848-20.268-26.005
	c-26.184,8.598-57.701,5.526-91.093,6.908c-37.651,1.55-76.956,5.175-108.532-6.349C141.006,343.251,127.519,360.238,135.25,374.865
	z M171.678,395.027c3.583,7.426,14.039,10.167,20.97,2.168c3.963-0.086,28.336,4.025,78.129,2.995
	c4.141-0.085,7.429-3.512,7.343-7.653c-0.084-4.106-3.465-7.42-7.653-7.343c-72.636,1.49-77.911-7.244-86.825-0.092l-7.178-15.774
	c27.708,4.414,58.027,2.025,88.704,0.755c24.406-1.007,48.078,0.405,70.108-2.279l-8.039,17.637
	c-7.171-4.93-12.816-2.939-22.309-2.053c-4.125,0.386-7.155,4.041-6.771,8.166c0.385,4.125,4.053,7.152,8.165,6.771
	c10.427-0.974,11.462-1.903,13.075,0.08c5.439,6.689,15.975,5.283,19.522-2.427l14.358-31.496c7.78-1.99,7.609-2.854,8.877-1.369
	c0.745,0.875,1.305,2.499,0.428,4.195c-46.097,89.247-166.248,91.006-214.067,0.549c-1.442-2.727,0.642-5.646,2.356-5.02
	c2.336,0.853,4.761,1.643,7.24,2.376C175.978,404.476,170.593,392.77,171.678,395.027z"/>
<path d="M255.526,338.769c8.655,0,11.884-6.524,20.871-13.51c17.148-15.162,4.991-44.823-19.106-46.267
	c-25.994-1.589-40.81,30.202-22.752,46.165C234.538,325.158,246.858,338.769,255.526,338.769z M255.477,293.939
	c11.357,0,18.171,13.728,10.985,20.081l-10.938,9.668l-11.051-9.77C237.625,307.863,243.892,293.939,255.477,293.939z"/>
<path d="M504.5,298.151h-29.713c0.342-15.105-2.552-29.387-8.118-42.373l18.522-6.735c3.893-1.416,5.9-5.719,4.485-9.613
	c-1.417-3.893-5.715-5.903-9.613-4.485l-20.424,7.427c-4.188-6.679-9.163-12.843-14.89-18.306
	c-14.96-14.269-11.465-26.931-29.075-59.158c20.385-59.507,17.934-108.795,15.885-127.444c-0.671-6.114-3.362-11.66-7.546-15.802
	c-4.767-4.718-10.684-7.162-17.961-7.104c-14.615,0.61-66.86,21.558-101.66,59.209c-32.266-9.397-66.219-9.209-97.756-0.038
	c-23.056-24.929-55.743-46.095-95.757-58.193c0,0,0,0-0.001,0c-14.838-4.429-29.656,6.259-31.377,21.927
	c-1.252,11.393-2.269,30.003-0.005,53.965c0.39,4.124,4.048,7.147,8.173,6.761c4.123-0.39,7.15-4.049,6.761-8.172
	c-2.146-22.701-1.194-40.218-0.019-50.916c0.051-0.464,0.133-0.917,0.234-1.362c5.255,1.317,39.961,23.815,64.123,58.098
	c-20.672,13.514-38.858,31.464-53.042,52.203c-2.375-7.993-4.431-16.101-6.144-24.237c-0.854-4.054-4.838-6.649-8.885-5.794
	c-4.054,0.854-6.647,4.831-5.794,8.885c2.704,12.846,6.232,25.618,10.483,38.026c-16.504,30.199-13.913,43.328-31.803,61.856
	c-4.568,4.73-8.552,9.878-11.986,15.318l-19.659-7.148c-3.896-1.414-8.196,0.595-9.613,4.485c-1.415,3.894,0.593,8.197,4.485,9.613
	l17.705,6.438c-5.804,13.439-8.564,28.064-8.229,42.67H7.5c-4.143,0-7.5,3.357-7.5,7.5s3.357,7.5,7.5,7.5h30.232
	c2.386,13.876,7.677,27.342,15.934,39.34l-26.857,9.767c-3.893,1.416-5.9,5.719-4.485,9.613c1.417,3.894,5.72,5.9,9.613,4.485
	l29.6-10.764c6.307,9.878,16.715,24.707,31.592,41.355c2.762,3.089,7.501,3.355,10.591,0.596c3.089-2.761,3.355-7.502,0.596-10.591
	c-12.843-14.372-22.212-27.372-28.298-36.626l32.924-11.972c3.893-1.416,5.9-5.719,4.485-9.613
	c-1.416-3.893-5.716-5.905-9.613-4.485l-35.775,13.009c-2.388-4.33-11.108-14.688-15.077-34.114h44.416c4.143,0,7.5-3.357,7.5-7.5
	s-3.357-7.5-7.5-7.5H51.237c-0.354-12.87,2.135-25.76,7.391-37.537l45.186,16.431c3.902,1.418,8.199-0.602,9.613-4.485
	c1.415-3.894-0.593-8.197-4.485-9.613l-42.864-15.587c2.469-3.573,5.223-6.981,8.296-10.164
	c21.001-21.749,18.074-36.802,35.726-67.797c30.743-53.936,85.314-87.611,145.428-87.611c74.917,0,138.487,51.981,161.336,123.965
	c7.645,24.092,18.384,27.355,28.283,41.89l-42.088,15.304c-9.227,3.356-4.298,17.523,5.127,14.099l44.304-16.11
	c5.111,11.668,7.553,24.451,7.22,37.216h-45.087c-4.143,0-7.5,3.357-7.5,7.5s3.357,7.5,7.5,7.5h43.398
	c-3.938,19.532-12.762,30.025-14.848,33.827l-34.986-12.722c-3.896-1.414-8.195,0.595-9.613,4.485
	c-1.415,3.894,0.593,8.197,4.485,9.613l32.133,11.685c-15.329,23.279-51.984,70.99-113.191,105.047
	c-41.628,23.161-91.334,23.156-132.964-0.012c-21.544-11.99-41.932-26.706-60.596-43.739c-3.06-2.791-7.803-2.574-10.597,0.484
	c-2.792,3.06-2.575,7.804,0.484,10.597c19.521,17.814,40.856,33.212,63.412,45.767c46.177,25.699,101.34,25.726,147.553,0.012
	c67.262-37.426,105.575-89.394,120.441-112.867l30.328,11.029c0.847,0.308,1.712,0.453,2.563,0.453c3.064,0,5.941-1.893,7.05-4.938
	c1.415-3.894-0.593-8.197-4.485-9.613l-27.617-10.043c8.009-11.723,13.367-25.054,15.782-39.064H504.5c4.143,0,7.5-3.357,7.5-7.5
	S508.642,298.151,504.5,298.151z M171.686,88.13c-11.308-16.235-29.277-36.899-56.171-55.315
	c30.225,10.543,56.1,27.196,75.437,46.297C184.628,81.622,177.952,84.738,171.686,88.13z M339.368,88.135
	c-6.238-3.377-12.671-6.389-19.276-9.007c19.39-19.16,45.338-35.814,75.45-46.312C368.643,51.232,350.675,71.898,339.368,88.135z
	 M352.287,95.841c24.111-34.214,59.132-56.852,64.126-58.102c0.101,0.445,0.183,0.898,0.234,1.362
	c1.8,16.38,3.927,57.769-11.309,108.943C390.86,126.856,372.705,109.186,352.287,95.841z"/>
<g>
</g>
<g>
</g>
<g>
</g>
<g>
</g>
<g>
</g>
<g>
</g>
<g>
</g>
<g>
</g>
<g>
</g>
<g>
</g>
<g>
</g>
<g>
</g>
<g>
</g>
<g>
</g>
<g>
</g>
</svg>
