<?xml version="1.0" encoding="iso-8859-1"?>
<!-- Generator: Adobe Illustrator 19.0.0, SVG Export Plug-In . SVG Version: 6.00 Build 0)  -->
<svg version="1.1" id="Capa_1" xmlns="http://www.w3.org/2000/svg" xmlns:xlink="http://www.w3.org/1999/xlink" x="0px" y="0px"
	 viewBox="0 0 512 512" style="enable-background:new 0 0 512 512;" xml:space="preserve">
<g>
	<path style="fill:#CCD6D8;" d="M69.687,7.581v42.547c0,39.795,32.26,72.056,72.056,72.056c39.795,0,72.056-32.261,72.056-72.056
		V7.581 M180.857,7.581v42.548c0,21.568-17.548,39.116-39.116,39.116s-39.116-17.548-39.116-39.116V7.581"/>
	<path style="fill:#CCD6D8;" d="M141.742,144.143c-39.795,0-72.056,32.26-72.056,72.056v75.487
		c0,39.796,32.261,72.056,72.056,72.056c39.796,0,72.056-32.26,72.056-72.056v-75.487
		C213.798,176.404,181.538,144.143,141.742,144.143z M180.86,291.687c0,21.568-17.548,39.116-39.116,39.116
		s-39.116-17.548-39.116-39.116v-75.487c0-21.568,17.548-39.116,39.116-39.116s39.116,17.548,39.116,39.116V291.687z"/>
	<path style="fill:#CCD6D8;" d="M213.798,504.422v-42.547c0-39.795-32.26-72.056-72.056-72.056
		c-39.795,0-72.056,32.26-72.056,72.056v42.547 M102.627,504.422v-42.548c0-21.568,17.548-39.116,39.116-39.116
		s39.116,17.548,39.116,39.116v42.548"/>
</g>
<g>
	<path style="fill:#AFBBBC;" d="M141.742,447.464L141.742,447.464c-8.717,0-15.783-7.066-15.783-15.783V325.998
		c0-8.717,7.066-15.783,15.783-15.783l0,0c8.717,0,15.783,7.066,15.783,15.783V431.68
		C157.526,440.397,150.459,447.464,141.742,447.464z"/>
	<path style="fill:#AFBBBC;" d="M141.742,201.788L141.742,201.788c-8.717,0-15.783-7.066-15.783-15.783V80.322
		c0-8.717,7.066-15.783,15.783-15.783l0,0c8.717,0,15.783,7.066,15.783,15.783v105.682
		C157.526,194.721,150.459,201.788,141.742,201.788z"/>
</g>
<path style="fill:#CCD6D8;" d="M370.262,268.353c-39.795,0-72.056,32.26-72.056,72.056v75.487c0,39.796,32.26,72.056,72.056,72.056
	s72.056-32.26,72.056-72.056v-75.487C442.318,300.615,410.057,268.353,370.262,268.353z M409.379,415.897
	c0,21.568-17.548,39.116-39.116,39.116c-21.568,0-39.116-17.548-39.116-39.116v-75.487c0-21.568,17.548-39.116,39.116-39.116
	c21.568,0,39.116,17.548,39.116,39.116V415.897z"/>
<path style="fill:#AFBBBC;" d="M354.478,504.394v-54.186c0-8.717,7.066-15.783,15.783-15.783l0,0
	c8.717,0,15.783,7.066,15.783,15.783v54.186"/>
<path style="fill:#CCD6D8;" d="M370.289,246.394c39.795,0,72.056-32.26,72.056-72.056V98.851c0-39.796-32.26-72.056-72.056-72.056
	s-72.056,32.26-72.056,72.056v75.487C298.234,214.134,330.494,246.394,370.289,246.394z M331.172,98.851
	c0-21.568,17.548-39.116,39.116-39.116c21.568,0,39.116,17.548,39.116,39.116v75.487c0,21.568-17.548,39.116-39.116,39.116
	c-21.568,0-39.116-17.548-39.116-39.116V98.851z"/>
<g>
	<path style="fill:#AFBBBC;" d="M370.262,325.998L370.262,325.998c-8.717,0-15.783-7.066-15.783-15.783V204.532
		c0-8.717,7.066-15.783,15.783-15.783l0,0c8.717,0,15.783,7.066,15.783,15.783v105.682
		C386.046,318.932,378.979,325.998,370.262,325.998z"/>
	<path style="fill:#AFBBBC;" d="M386.073,7.608v56.931c0,8.717-7.066,15.783-15.783,15.783l0,0c-8.717,0-15.783-7.066-15.783-15.783
		V7.608"/>
</g>
<path d="M165.13,385.813v-18.038c15.01-4.585,28.523-13.649,38.519-25.962c11.466-14.122,17.78-31.924,17.78-50.125v-75.51
	c0-18.202-6.314-36.005-17.779-50.128c-9.998-12.317-23.511-21.379-38.519-25.961v-13.889c15.016-4.578,28.52-13.632,38.498-25.933
	c11.444-14.108,17.746-31.924,17.746-50.166V7.608c0-4.201-3.405-7.605-7.605-7.605s-7.605,3.404-7.605,7.605V50.1
	c0,14.764-5.096,29.176-14.349,40.584c-7.074,8.722-16.339,15.414-26.686,19.428V90.568c14.304-8.299,23.305-23.681,23.305-40.468
	V7.608c0-4.201-3.405-7.605-7.605-7.605s-7.605,3.404-7.605,7.605V50.1c0,8.602-3.503,16.658-9.415,22.49
	c-3.2-9.106-11.882-15.656-22.068-15.656c-10.186,0-18.868,6.548-22.069,15.655c-5.946-5.838-9.47-13.894-9.47-22.489V7.608
	c0-4.201-3.405-7.605-7.605-7.605s-7.605,3.404-7.605,7.605V50.1c0,16.762,9.021,32.137,23.36,40.454V110.1
	c-24.286-9.437-41.091-33.299-41.091-60V7.608c0-4.201-3.405-7.605-7.605-7.605s-7.605,3.404-7.605,7.605V50.1
	c0,18.237,6.319,36.055,17.792,50.171c9.99,12.29,23.497,21.338,38.507,25.92v13.884c-15.009,4.578-28.515,13.642-38.502,25.965
	c-11.444,14.121-17.746,31.927-17.746,50.137v75.51c0,18.21,6.303,36.014,17.746,50.132c9.987,12.321,23.492,21.387,38.502,25.968
	v18.018c-15.016,4.579-28.521,13.632-38.498,25.933c-11.444,14.108-17.746,31.924-17.746,50.166v42.492
	c0,4.201,3.405,7.605,7.605,7.605c4.2,0,7.605-3.404,7.605-7.605v-42.492c0-14.764,5.096-29.176,14.349-40.584
	c7.074-8.721,16.338-15.414,26.686-19.428v19.543c-14.304,8.299-23.305,23.681-23.305,40.468v42.492
	c0,4.201,3.405,7.605,7.605,7.605s7.605-3.404,7.605-7.605v-42.492c0-8.602,3.503-16.658,9.415-22.49
	c3.2,9.106,11.882,15.655,22.069,15.655c10.186,0,18.868-6.548,22.068-15.654c5.946,5.838,9.47,13.894,9.47,22.489v42.492
	c0,4.201,3.405,7.605,7.605,7.605s7.605-3.404,7.605-7.605v-42.492c0-16.762-9.021-32.137-23.361-40.454v-19.546
	c24.286,9.439,41.09,33.301,41.09,60v42.492c0,4.201,3.405,7.605,7.605,7.605s7.605-3.404,7.605-7.605v-42.492
	c0-18.237-6.319-36.055-17.792-50.171C193.649,399.441,180.142,390.394,165.13,385.813z M206.22,216.177v75.51
	c0,26.693-16.804,50.557-41.089,59.998v-19.541c14.334-8.323,23.356-23.702,23.356-40.457v-75.51
	c0-16.755-9.021-32.134-23.356-40.457v-19.545C189.415,165.61,206.22,189.474,206.22,216.177z M141.743,72.144
	c4.51,0,8.179,3.669,8.179,8.179v105.682c0,4.51-3.669,8.179-8.179,8.179s-8.179-3.669-8.179-8.179V80.323
	C133.563,75.813,137.233,72.144,141.743,72.144z M77.315,291.687v-75.51c0-26.722,16.779-50.605,41.035-60.029v19.558
	c-14.303,8.3-23.301,23.682-23.301,40.47v10.829c0,4.2,3.405,7.605,7.605,7.605l0,0c4.2,0,7.605-3.405,7.605-7.605v-10.829
	c0-8.597,3.498-16.648,9.401-22.48c3.189,9.128,11.881,15.696,22.082,15.696c10.198,0,18.888-6.564,22.079-15.688
	c5.935,5.84,9.454,13.888,9.454,22.471v75.51c0,9.178-4.029,17.74-10.73,23.648c-3.884-7.547-11.749-12.724-20.805-12.724
	c-9.059,0-16.925,5.18-20.808,12.73c-6.667-5.897-10.676-14.459-10.676-23.655v-29.192c0-4.2-3.405-7.605-7.605-7.605l0,0
	c-4.2,0-7.605,3.405-7.605,7.605v29.192c0,16.788,9.001,32.172,23.305,40.47v19.541C94.099,342.266,77.315,318.398,77.315,291.687z
	 M141.743,439.859L141.743,439.859c-4.51,0-8.179-3.669-8.179-8.178V325.999c0-4.51,3.67-8.179,8.179-8.179s8.179,3.669,8.179,8.179
	v105.682C149.921,436.19,146.252,439.859,141.743,439.859z"/>
<path d="M432.181,290.267c-9.998-12.31-23.504-21.374-38.5-25.968v-13.841c15.007-4.573,28.513-13.638,38.5-25.957
	c11.437-14.124,17.744-31.93,17.744-50.14v-18.332c0-4.2-3.405-7.605-7.605-7.605l0,0c-4.2,0-7.605,3.405-7.605,7.605v18.332
	c0,26.718-16.781,50.587-41.035,60.016v-19.539c14.297-8.304,23.301-23.686,23.301-40.477v-75.51
	c0-16.791-9.004-32.173-23.301-40.467V38.845c24.254,9.43,41.035,33.288,41.035,60.006v21.689c0,4.2,3.405,7.605,7.605,7.605l0,0
	c4.2,0,7.605-3.405,7.605-7.605V98.851c0-18.211-6.307-36.016-17.744-50.13c-9.988-12.32-23.494-21.384-38.5-25.968V7.92
	c0-4.17-3.221-7.802-7.39-7.917c-4.306-0.119-7.82,3.333-7.82,7.602V64.25c0,4.354-3.278,8.162-7.623,8.452
	c-4.765,0.318-8.742-3.467-8.742-8.163V7.861c0-3.866-2.777-7.313-6.613-7.798c-4.64-0.588-8.596,3.018-8.596,7.542v15.159
	c-32.964,10.059-56.295,41.106-56.295,76.088v75.51c0,34.982,23.331,66.029,56.295,76.088v13.83
	c-15.017,4.573-28.533,13.638-38.52,25.968c-11.448,14.124-17.744,31.93-17.744,50.14v75.51c0,18.211,6.297,36.016,17.744,50.13
	c9.977,12.32,23.483,21.384,38.5,25.968v12.144c0,3.866,2.777,7.313,6.613,7.798c4.64,0.588,8.596-3.018,8.596-7.542v-53.909
	c0-4.351,3.278-8.154,7.619-8.441c4.762-0.315,8.736,3.469,8.736,8.164v53.93c0,3.866,2.777,7.313,6.613,7.798
	c4.64,0.588,8.596-3.018,8.596-7.542v-12.411c15.007-4.593,28.523-13.648,38.52-25.968c11.458-14.114,17.775-31.918,17.775-50.12
	v-75.51C449.946,322.197,443.639,304.392,432.181,290.267z M349.482,75.206c3.883,7.544,11.752,12.725,20.806,12.725
	c9.055,0,16.923-5.181,20.806-12.735c6.672,5.901,10.677,14.459,10.677,23.656v75.51c0,8.598-3.498,16.649-9.399,22.48
	c-3.194-9.126-11.884-15.696-22.084-15.696c-10.2,0-18.89,6.57-22.084,15.696c-5.932-5.84-9.45-13.891-9.45-22.48v-75.51
	C338.755,89.665,342.78,81.107,349.482,75.206z M378.472,204.537v105.675c0,4.512-3.671,8.183-8.183,8.183s-8.183-3.671-8.183-8.183
	V204.537c0-4.512,3.671-8.183,8.183-8.183S378.472,200.024,378.472,204.537z M305.811,174.361v-75.51
	c0-26.698,16.801-50.566,41.086-59.996v19.539c-14.337,8.325-23.352,23.696-23.352,40.457v75.51
	c0,16.771,9.014,32.143,23.352,40.457v19.549C322.612,224.927,305.811,201.069,305.811,174.361z M346.877,475.913
	c-24.254-9.43-41.035-33.309-41.035-60.016v-75.51c0-26.728,16.781-50.607,41.035-60.027v19.559
	c-14.307,8.294-23.311,23.676-23.311,40.467v75.51c0,16.791,9.004,32.173,23.311,40.467V475.913z M391.065,439.542
	c-3.883-7.544-11.742-12.725-20.806-12.725c-9.055,0-16.923,5.181-20.806,12.735c-6.662-5.901-10.677-14.459-10.677-23.656v-75.51
	c0-8.609,3.508-16.67,9.43-22.5c3.184,9.136,11.873,15.716,22.084,15.716c10.19,0,18.88-6.56,22.074-15.676
	c5.932,5.84,9.44,13.881,9.44,22.459v75.51C401.803,425.073,397.767,433.641,391.065,439.542z M434.736,415.897
	c0,26.698-16.801,50.556-41.086,60.006v-19.549c14.337-8.325,23.362-23.706,23.362-40.457v-75.51
	c0-16.751-9.014-32.122-23.331-40.437v-19.559c24.264,9.45,41.055,33.309,41.055,59.996V415.897z"/>
<g>
</g>
<g>
</g>
<g>
</g>
<g>
</g>
<g>
</g>
<g>
</g>
<g>
</g>
<g>
</g>
<g>
</g>
<g>
</g>
<g>
</g>
<g>
</g>
<g>
</g>
<g>
</g>
<g>
</g>
</svg>
