<?xml version="1.0" encoding="iso-8859-1"?>
<!-- Generator: Adobe Illustrator 19.0.0, SVG Export Plug-In . SVG Version: 6.00 Build 0)  -->
<svg version="1.1" id="Capa_1" xmlns="http://www.w3.org/2000/svg" xmlns:xlink="http://www.w3.org/1999/xlink" x="0px" y="0px"
	 viewBox="0 0 512 512" style="enable-background:new 0 0 512 512;" xml:space="preserve">
<path style="fill:#EAE9E8;" d="M255.998,33.708c-137.244,0-248.502,94.274-248.502,210.567c0,56.138,25.932,107.141,68.192,144.888
	c5.944,5.309,8.31,13.704,8.31,21.669v54.226c0,4.387,2.021,8.483,5.384,10.91c0.104,0.039,5.392,4.249,12.025,1.285
	c63.769-28.497,70.945-34.231,85.588-30.649C345.614,485.405,504.5,384.473,504.5,244.276
	C504.5,127.983,393.242,33.708,255.998,33.708z"/>
<path style="fill:#DBDBDB;" d="M376.713,424.962C217.24,463.972,57.499,362.496,57.499,221.544
	c0-71.019,41.276-133.866,104.605-172.268C71.411,80.662,7.496,156.138,7.496,244.277c0,56.138,25.932,107.141,68.192,144.888
	c5.943,5.31,8.31,13.705,8.31,21.669v54.226c0,9.614,9.233,15.85,17.41,12.195c63.769-28.497,70.945-34.231,85.588-30.649
	c70.75,17.307,141.552,6.813,198.285-22.566C382.376,423.887,379.699,424.232,376.713,424.962z"/>
<g>
	<circle style="fill:#656566;" cx="154.531" cy="255.308" r="23.162"/>
	<circle style="fill:#656566;" cx="255.999" cy="255.308" r="23.162"/>
	<circle style="fill:#656566;" cx="357.466" cy="255.308" r="23.162"/>
</g>
<g>
	<path style="fill:#545456;" d="M154.531,255.31c-4.286-7.425-3.99-16.233,0.002-23.164c-3.938-0.004-7.93,0.99-11.585,3.101
		c-11.081,6.397-14.877,20.566-8.48,31.646c6.397,11.081,20.565,14.877,31.646,8.48c3.655-2.11,6.512-5.069,8.478-8.483
		C166.594,266.883,158.818,262.735,154.531,255.31z"/>
	<path style="fill:#545456;" d="M255.998,255.31c-4.286-7.425-3.99-16.233,0.002-23.164c-3.938-0.004-7.93,0.99-11.585,3.101
		c-11.081,6.397-14.877,20.566-8.48,31.646c8.955,15.51,31.299,15.32,40.124-0.003C268.06,266.883,260.285,262.735,255.998,255.31z"
		/>
	<path style="fill:#545456;" d="M357.466,232.147c-17.687-0.018-29.019,19.238-20.064,34.748
		c6.397,11.081,20.565,14.877,31.646,8.48c3.655-2.11,6.512-5.07,8.479-8.483C359.689,266.873,348.568,247.594,357.466,232.147z"/>
</g>
<path d="M123.864,255.311c0,16.91,13.757,30.667,30.667,30.667s30.667-13.757,30.667-30.667s-13.757-30.667-30.667-30.667
	S123.864,238.4,123.864,255.311z M170.197,255.311c0,8.639-7.027,15.666-15.666,15.666s-15.666-7.027-15.666-15.666
	s7.027-15.666,15.666-15.666S170.197,246.673,170.197,255.311z"/>
<path d="M225.33,255.311c0,16.91,13.757,30.667,30.667,30.667s30.667-13.757,30.667-30.667s-13.757-30.667-30.667-30.667
	S225.33,238.4,225.33,255.311z M271.664,255.311c0,8.639-7.028,15.666-15.666,15.666s-15.666-7.027-15.666-15.666
	s7.027-15.666,15.666-15.666C264.636,239.645,271.664,246.673,271.664,255.311z"/>
<path d="M357.465,285.979c16.91,0,30.667-13.757,30.667-30.667s-13.757-30.667-30.667-30.667s-30.667,13.757-30.667,30.667
	S340.555,285.979,357.465,285.979z M357.465,239.645c8.639,0,15.666,7.027,15.666,15.666s-7.028,15.666-15.666,15.666
	c-8.639,0-15.666-7.027-15.666-15.666S348.826,239.645,357.465,239.645z"/>
<path d="M367.026,55.745c1.51-3.857-0.395-8.209-4.252-9.718C249.784,1.825,114.231,33.209,43.569,122.517
	c-2.57,3.248-2.021,7.966,1.229,10.536c3.233,2.559,7.956,2.033,10.536-1.229c67.002-84.683,195.83-113.354,301.975-71.827
	C361.167,61.508,365.518,59.603,367.026,55.745z"/>
<path d="M395.437,61.361c-3.625-2.007-8.189-0.697-10.196,2.926c-2.007,3.623-0.697,8.189,2.926,10.196
	c109.913,60.893,138.578,180.659,76.78,270.999c-2.339,3.419-1.463,8.087,1.956,10.426c3.404,2.328,8.076,1.478,10.426-1.956
	C544.509,255.742,512.399,126.16,395.437,61.361z"/>
<path d="M443.601,371.699c-46.057,48.072-114.436,75.644-187.604,75.644c-64.768,0-67.838-17.079-96.533-4.249l-61.118,27.313
	c-3.221,1.444-6.848-1.174-6.848-5.348v-54.226c0-10.206-3.262-20.517-10.814-27.263C11.33,321.624-2.732,232.71,36.68,160.036
	c1.975-3.641,0.624-8.194-3.018-10.169c-3.642-1.976-8.194-0.625-10.169,3.018c-41.934,77.324-28.635,174.14,47.197,241.872
	c8.325,7.439,5.317,18.991,5.806,70.301c0,15.027,14.788,24.932,27.97,19.044c60.4-26.01,67.653-33.416,80.747-30.212
	c94.152,23.03,201.395-1.019,269.22-71.814c2.865-2.991,2.764-7.739-0.228-10.605C451.216,368.607,446.468,368.708,443.601,371.699z
	"/>
<g>
</g>
<g>
</g>
<g>
</g>
<g>
</g>
<g>
</g>
<g>
</g>
<g>
</g>
<g>
</g>
<g>
</g>
<g>
</g>
<g>
</g>
<g>
</g>
<g>
</g>
<g>
</g>
<g>
</g>
</svg>
