<?xml version="1.0" encoding="iso-8859-1"?>
<!-- Generator: Adobe Illustrator 19.0.0, SVG Export Plug-In . SVG Version: 6.00 Build 0)  -->
<svg version="1.1" id="Capa_1" xmlns="http://www.w3.org/2000/svg" xmlns:xlink="http://www.w3.org/1999/xlink" x="0px" y="0px"
	 viewBox="0 0 512.001 512.001" style="enable-background:new 0 0 512.001 512.001;" xml:space="preserve">
<rect x="7.594" y="343.715" style="fill:#E4E9ED;" width="496.156" height="92.65"/>
<path style="fill:#C7D9E5;" d="M454.345,75.639c0,0-41.942,18.266-41.942,84.562c0,56.15,58.855,61.561,58.855,106.21
	c0,33.148-9.471,43.296-9.471,43.296s42.62-33.825,42.62-81.857C504.406,157.495,438.786,194.026,454.345,75.639z"/>
<rect x="7.594" y="343.715" style="fill:#F49F00;" width="165.625" height="92.65"/>
<rect x="156.512" y="343.715" style="fill:#BABECB;" width="33.413" height="92.65"/>
<rect x="7.594" y="402.95" style="fill:#D7D9DB;" width="496.156" height="33.413"/>
<rect x="458.752" y="343.715" style="fill:#A5A7B7;" width="44.998" height="92.65"/>
<rect x="458.752" y="402.95" style="fill:#9396A3;" width="44.998" height="33.413"/>
<rect x="7.594" y="402.95" style="fill:#C67B02;" width="165.625" height="33.413"/>
<rect x="156.512" y="402.95" style="fill:#9EA3B2;" width="33.413" height="33.413"/>
<path d="M439.144,225.529c13.156,12.402,24.519,23.113,24.519,40.882c0,27.245-6.75,37.162-7.515,38.198
	c-2.867,2.8-2.901,7.199-0.264,10.24c1.458,1.683,3.551,2.522,5.669,2.522c1.749,0,3.515-0.572,4.954-1.715
	c1.858-1.474,45.493-36.693,45.493-87.806c0-32.992-13.441-45.296-26.44-57.195c-15.817-14.479-32.173-29.449-23.686-94.027
	c0.356-2.715-0.776-5.41-2.962-7.057c-2.188-1.647-5.092-1.991-7.6-0.896c-1.9,0.826-46.505,21.062-46.505,91.526
	C404.808,193.16,423.05,210.355,439.144,225.529z M445.05,91.474c-4.445,58.627,13.906,75.42,30.254,90.385
	c12.016,10.999,21.507,19.687,21.507,45.992c0,20.984-9.086,39.256-18.569,52.611c0.386-4.21,0.61-8.881,0.61-14.05
	c0-24.324-14.89-38.361-29.289-51.934c-15.205-14.333-29.566-27.871-29.566-54.275C419.996,122.503,434.141,101.82,445.05,91.474z"
	/>
<path d="M503.751,336.124H189.927h-33.414H99.234c-4.194,0-7.594,3.4-7.594,7.594l0,0c0,4.194,3.4,7.594,7.594,7.594h49.684v77.456
	H15.188v-77.456h48.605c4.194,0,7.594-3.4,7.594-7.594l0,0c0-4.194-3.4-7.594-7.594-7.594H7.594c-4.194,0-7.594,3.4-7.594,7.594
	v92.645c0,4.194,3.4,7.594,7.594,7.594h148.919h33.414h165.486c4.194,0,7.594-3.4,7.594-7.594l0,0c0-4.194-3.4-7.594-7.594-7.594
	H197.521v-77.456h253.633v77.456h-60.301c-4.194,0-7.594,3.4-7.594,7.594l0,0c0,4.194,3.4,7.594,7.594,7.594h112.898
	c4.194,0,7.594-3.4,7.594-7.594v-92.645C511.345,339.524,507.945,336.124,503.751,336.124z M182.332,428.77h-18.225v-77.456h18.225
	V428.77z M496.156,428.77h-29.813v-77.456h29.813V428.77z"/>
<g>
</g>
<g>
</g>
<g>
</g>
<g>
</g>
<g>
</g>
<g>
</g>
<g>
</g>
<g>
</g>
<g>
</g>
<g>
</g>
<g>
</g>
<g>
</g>
<g>
</g>
<g>
</g>
<g>
</g>
</svg>
