<?xml version="1.0" encoding="iso-8859-1"?>
<!-- Generator: Adobe Illustrator 19.0.0, SVG Export Plug-In . SVG Version: 6.00 Build 0)  -->
<svg version="1.1" id="Capa_1" xmlns="http://www.w3.org/2000/svg" xmlns:xlink="http://www.w3.org/1999/xlink" x="0px" y="0px"
	 viewBox="0 0 512 512" style="enable-background:new 0 0 512 512;" xml:space="preserve">
<path style="fill:#F28400;" d="M403.155,504.396h-294.31c-18.254,0-33.05-14.797-33.05-33.05V40.654
	c0-18.254,14.797-33.05,33.05-33.05h294.31c18.254,0,33.05,14.797,33.05,33.05v430.691
	C436.205,489.599,421.407,504.396,403.155,504.396z"/>
<path style="fill:#AD5C00;" d="M316.318,74.962h75.28v360.983c0,4.722-3.827,8.549-8.549,8.549H103.601
	c-4.722,0-8.549-3.827-8.549-8.549V66.946c0-5.931,4.808-10.739,10.739-10.739h9.539"/>
<polyline style="fill:#FBFFFF;" points="336.596,56.207 396.667,56.207 396.667,425.74 115.331,425.74 115.331,56.207 
	175.402,56.207 "/>
<path style="fill:#282B30;" d="M323.559,88.139H188.441c-7.201,0-13.039-5.838-13.039-13.039V47.954
	c0-7.201,5.838-13.039,13.039-13.039H323.56c7.201,0,13.039,5.838,13.039,13.039v27.147
	C336.598,82.301,330.76,88.139,323.559,88.139z"/>
<path d="M174.64,187.479c2.069,0,4.129-0.84,5.629-2.489l31.31-34.442c2.825-3.107,2.595-7.916-0.512-10.742
	c-3.107-2.825-7.917-2.595-10.741,0.512l-26.277,28.905l-20.475-18.017c-3.152-2.774-7.958-2.468-10.732,0.685
	c-2.774,3.153-2.468,7.958,0.685,10.732l26.092,22.961C171.062,186.854,172.853,187.479,174.64,187.479z"/>
<path d="M403.155,0h-294.31C86.429,0,68.191,18.237,68.191,40.655v430.691c0,22.416,18.237,40.654,40.654,40.654h294.31
	c22.416,0,40.654-18.237,40.654-40.654V40.655C443.809,18.237,425.571,0,403.155,0z M428.601,471.346
	c0,14.031-11.415,25.446-25.446,25.446h-294.31c-14.031,0-25.446-11.415-25.446-25.446V40.655c0-14.032,11.415-25.447,25.446-25.447
	h294.31c14.031,0,25.446,11.415,25.446,25.447V471.346z"/>
<path d="M389.063,418.136H164.505c-4.199,0-7.604,3.405-7.604,7.604l0,0c0,4.199,3.405,7.604,7.604,7.604h232.162
	c4.199,0,7.604-3.405,7.604-7.604V132.75c0-4.199-3.405-7.604-7.604-7.604l0,0c-4.199,0-7.604,3.405-7.604,7.604L389.063,418.136
	L389.063,418.136z"/>
<path d="M396.667,48.604h-52.465v-0.65c0-11.401-9.242-20.643-20.643-20.643H188.441c-11.401,0-20.642,9.242-20.642,20.642v0.651
	h-52.467c-4.199,0-7.604,3.405-7.604,7.604V425.74c0,4.199,3.405,7.604,7.604,7.604h13.687c4.199,0,7.604-3.405,7.604-7.604l0,0
	c0-4.199-3.405-7.604-7.604-7.604h-6.083V63.811h44.863v11.289c0,11.401,9.242,20.643,20.643,20.643h135.118
	c11.401,0,20.642-9.242,20.642-20.642v-11.29h44.861v33.451c0,4.199,3.405,7.604,7.604,7.604l0,0c4.199,0,7.604-3.405,7.604-7.604
	V56.207C404.271,52.008,400.867,48.604,396.667,48.604z M328.994,75.101c0,2.997-2.438,5.435-5.434,5.435H188.441
	c-2.997,0-5.434-2.438-5.434-5.435V47.954c0-2.997,2.438-5.435,5.434-5.435H323.56c2.997,0,5.434,2.438,5.434,5.435L328.994,75.101
	L328.994,75.101z"/>
<path d="M244.09,170.259h115.571c4.199,0,7.604-3.405,7.604-7.604s-3.405-7.604-7.604-7.604H244.09
	c-4.199,0-7.604,3.405-7.604,7.604S239.891,170.259,244.09,170.259z"/>
<path d="M244.09,257.371h115.571c4.199,0,7.604-3.405,7.604-7.604c0-4.199-3.405-7.604-7.604-7.604H244.09
	c-4.199,0-7.604,3.405-7.604,7.604C236.486,253.966,239.891,257.371,244.09,257.371z"/>
<path d="M244.09,344.482h115.571c4.199,0,7.604-3.405,7.604-7.604c0-4.199-3.405-7.604-7.604-7.604H244.09
	c-4.199,0-7.604,3.405-7.604,7.604C236.486,341.077,239.891,344.482,244.09,344.482z"/>
<path d="M153.352,220.214c-4.199,0-7.604,3.405-7.604,7.604v43.897c0,4.199,3.405,7.604,7.604,7.604h43.897
	c4.199,0,7.604-3.405,7.604-7.604v-43.897c0-4.199-3.405-7.604-7.604-7.604H153.352z M189.645,264.111h-28.689v-28.689h28.689
	V264.111z"/>
<path d="M204.853,358.827V314.93c0-4.199-3.405-7.604-7.604-7.604h-43.897c-4.199,0-7.604,3.405-7.604,7.604v43.897
	c0,4.199,3.405,7.604,7.604,7.604h43.897C201.448,366.431,204.853,363.026,204.853,358.827z M189.645,351.223h-28.689v-28.689
	h28.689V351.223z"/>
<g>
</g>
<g>
</g>
<g>
</g>
<g>
</g>
<g>
</g>
<g>
</g>
<g>
</g>
<g>
</g>
<g>
</g>
<g>
</g>
<g>
</g>
<g>
</g>
<g>
</g>
<g>
</g>
<g>
</g>
</svg>
