<?xml version="1.0" encoding="iso-8859-1"?>
<!-- Generator: Adobe Illustrator 19.0.0, SVG Export Plug-In . SVG Version: 6.00 Build 0)  -->
<svg version="1.1" id="Capa_1" xmlns="http://www.w3.org/2000/svg" xmlns:xlink="http://www.w3.org/1999/xlink" x="0px" y="0px"
	 viewBox="0 0 512 512" style="enable-background:new 0 0 512 512;" xml:space="preserve">
<rect x="27.526" y="340.759" style="fill:#8C4C29;" width="456.947" height="77.53"/>
<rect x="27.526" y="340.759" style="fill:#68341A;" width="456.947" height="31.764"/>
<g>
	<path style="fill:#8C4C29;" d="M504.396,452.297H7.604v-42.478c0-10.517,8.526-19.042,19.042-19.042h458.708
		c10.517,0,19.042,8.526,19.042,19.042v42.478H504.396z"/>
	<path style="fill:#8C4C29;" d="M402.709,247.335v-40.922c0-81.025-65.684-146.709-146.709-146.709l0,0
		c-81.025,0-146.709,65.684-146.709,146.709v40.922c0,32.553-26.39,58.942-58.942,58.942h-25.6c-7.063,0-12.788,5.725-12.788,12.788
		v21.27c0,7.063,5.725,12.788,12.788,12.788h84.541h293.418h84.542c7.063,0,12.788-5.725,12.788-12.788v-21.27
		c0-7.063-5.725-12.788-12.788-12.788h-25.6C429.098,306.277,402.709,279.888,402.709,247.335z"/>
</g>
<circle style="fill:#68341A;" cx="256" cy="206.412" r="127.584"/>
<circle style="fill:#E5E6E8;" cx="256" cy="206.412" r="112.356"/>
<path d="M256,326.374c66.146,0,119.961-53.815,119.961-119.961S322.146,86.451,256,86.451s-119.961,53.815-119.961,119.961
	S189.854,326.374,256,326.374z M256,101.659c57.762,0,104.753,46.992,104.753,104.753S313.762,311.166,256,311.166
	s-104.753-46.992-104.753-104.753S198.238,101.659,256,101.659z"/>
<path d="M492.081,384.035v-23.912c8.916-2.178,15.562-10.213,15.562-19.79v-21.27c0-11.244-9.147-20.391-20.391-20.391h-25.6
	c-28.308,0-51.338-23.03-51.338-51.339v-40.922c0-85.088-69.224-154.313-154.314-154.313c-85.088,0-154.313,69.224-154.313,154.313
	v40.922c0,28.308-23.03,51.339-51.338,51.339h-25.6c-11.245,0-20.392,9.147-20.392,20.391v21.27c0,9.58,6.649,17.616,15.568,19.792
	v23.909C8.476,387.02,0,397.448,0,409.82v42.477c0,4.199,3.404,7.604,7.604,7.604h94.29c4.2,0,7.604-3.405,7.604-7.604
	c0-4.199-3.404-7.604-7.604-7.604H15.208V409.82c0-6.307,5.131-11.438,11.437-11.438h0.815c0.023,0,0.046,0.003,0.069,0.003
	s0.046-0.003,0.069-0.003h457.755c6.307,0,11.438,5.131,11.438,11.438v34.873h-364.48c-4.2,0-7.604,3.405-7.604,7.604
	c0,4.199,3.404,7.604,7.604,7.604h372.084c4.2,0,7.604-3.405,7.604-7.604V409.82C512,397.45,503.527,387.023,492.081,384.035z
	 M19.565,319.064c0-2.862,2.321-5.183,5.183-5.183h25.6c36.752,0,66.546-29.793,66.546-66.546v-39.576
	c0-76.892,61.819-140.237,138.711-140.452c76.883-0.214,139.499,62.27,139.499,139.105v40.923c0,36.752,29.793,66.546,66.546,66.546
	h25.6c2.862,0,5.183,2.321,5.183,5.183v21.272c0,2.862-2.32,5.182-5.182,5.182h-2.684c-0.031,0-0.061-0.005-0.091-0.005h-44.456
	c-4.199,0-7.604,3.405-7.604,7.604l0,0c0,4.199,3.405,7.604,7.604,7.604h7.601l29.251,0.004v22.449H35.133v-22.448h370.11
	c4.199,0,7.604-3.405,7.604-7.604l0,0c0-4.199-3.405-7.604-7.604-7.604H256.098c-0.032,0-0.065-0.005-0.098-0.005H27.529
	c-0.033,0-0.065,0.004-0.098,0.005h-2.683c-2.863,0-5.184-2.321-5.184-5.184v-21.27H19.565z"/>
<path d="M256,138.363c4.2,0,7.604-3.405,7.604-7.604v-6.877c0-4.199-3.404-7.604-7.604-7.604c-4.2,0-7.604,3.405-7.604,7.604v6.877
	C248.396,134.958,251.8,138.363,256,138.363z"/>
<path d="M256,296.548c4.2,0,7.604-3.405,7.604-7.604v-6.878c0-4.199-3.404-7.604-7.604-7.604c-4.2,0-7.604,3.405-7.604,7.604v6.878
	C248.396,293.144,251.8,296.548,256,296.548z"/>
<path d="M290.025,147.479c1.198,0.691,2.505,1.02,3.795,1.02c2.628,0,5.184-1.365,6.592-3.803l3.439-5.956
	c2.1-3.637,0.854-8.287-2.783-10.387c-3.639-2.102-8.288-0.854-10.387,2.783l-3.439,5.956
	C285.141,140.729,286.388,145.38,290.025,147.479z"/>
<path d="M210.932,284.472c1.198,0.691,2.505,1.02,3.795,1.02c2.628,0,5.184-1.365,6.592-3.803l3.439-5.956
	c2.1-3.637,0.854-8.287-2.783-10.387c-3.639-2.101-8.288-0.854-10.387,2.783l-3.439,5.956
	C206.048,277.722,207.295,282.373,210.932,284.472z"/>
<path d="M321.525,176.191c1.29,0,2.599-0.329,3.795-1.02l5.956-3.439c3.637-2.1,4.883-6.75,2.783-10.387
	c-2.101-3.637-6.751-4.882-10.387-2.783l-5.956,3.439c-3.637,2.1-4.883,6.75-2.783,10.387
	C316.342,174.827,318.897,176.191,321.525,176.191z"/>
<path d="M188.328,254.263l5.955-3.439c3.637-2.1,4.883-6.75,2.783-10.387c-2.1-3.637-6.751-4.882-10.387-2.783l-5.955,3.439
	c-3.637,2.1-4.883,6.75-2.783,10.387c1.409,2.439,3.964,3.803,6.592,3.803C185.823,255.283,187.13,254.955,188.328,254.263z"/>
<path d="M324.049,206.412c0,4.199,3.404,7.604,7.604,7.604h6.877c4.2,0,7.604-3.405,7.604-7.604c0-4.199-3.404-7.604-7.604-7.604
	h-6.877C327.454,198.808,324.049,202.213,324.049,206.412z"/>
<path d="M187.95,206.412c0-4.199-3.404-7.604-7.604-7.604h-6.877c-4.2,0-7.604,3.405-7.604,7.604c0,4.199,3.404,7.604,7.604,7.604
	h6.877C184.545,214.016,187.95,210.611,187.95,206.412z"/>
<path d="M317.716,250.825l5.956,3.439c1.198,0.691,2.505,1.02,3.795,1.02c2.628,0,5.184-1.365,6.592-3.804
	c2.1-3.637,0.854-8.287-2.783-10.387l-5.956-3.439c-3.64-2.101-8.288-0.854-10.387,2.784
	C312.833,244.075,314.079,248.726,317.716,250.825z"/>
<path d="M180.723,171.731l5.955,3.439c1.198,0.692,2.506,1.021,3.796,1.021c2.628,0,5.183-1.364,6.592-3.803
	c2.1-3.637,0.855-8.287-2.782-10.387l-5.955-3.439c-3.639-2.103-8.288-0.855-10.388,2.782
	C175.841,164.981,177.086,169.631,180.723,171.731z"/>
<path d="M300.412,268.129c-2.099-3.638-6.752-4.884-10.387-2.783c-3.637,2.1-4.883,6.75-2.783,10.387l3.439,5.956
	c1.408,2.439,3.964,3.803,6.592,3.803c1.29,0,2.599-0.328,3.795-1.02c3.637-2.1,4.883-6.75,2.783-10.387L300.412,268.129z"/>
<path d="M211.587,144.696c1.408,2.439,3.964,3.803,6.592,3.803c1.29,0,2.599-0.329,3.795-1.02c3.637-2.1,4.883-6.75,2.783-10.387
	l-3.439-5.956c-2.099-3.638-6.752-4.884-10.387-2.783c-3.637,2.1-4.883,6.75-2.783,10.387L211.587,144.696z"/>
<path d="M256,214.016h25.687c4.2,0,7.604-3.405,7.604-7.604c0-4.199-3.404-7.604-7.604-7.604h-18.083v-43.921
	c0-4.199-3.404-7.604-7.604-7.604c-4.2,0-7.604,3.405-7.604,7.604v51.525C248.396,210.611,251.8,214.016,256,214.016z"/>
<g>
</g>
<g>
</g>
<g>
</g>
<g>
</g>
<g>
</g>
<g>
</g>
<g>
</g>
<g>
</g>
<g>
</g>
<g>
</g>
<g>
</g>
<g>
</g>
<g>
</g>
<g>
</g>
<g>
</g>
</svg>
