<?xml version="1.0" encoding="iso-8859-1"?>
<!-- Generator: Adobe Illustrator 19.0.0, SVG Export Plug-In . SVG Version: 6.00 Build 0)  -->
<svg version="1.1" id="Capa_1" xmlns="http://www.w3.org/2000/svg" xmlns:xlink="http://www.w3.org/1999/xlink" x="0px" y="0px"
	 viewBox="0 0 512.002 512.002" style="enable-background:new 0 0 512.002 512.002;" xml:space="preserve">
<path style="fill:#F2C29E;" d="M462.263,152.629c-2.923-17.262-11.016-32.528-22.517-44.346c-11.602-5.868-24.57-9.118-37.936-9.118
	H110.191c-13.366,0-26.334,3.25-37.936,9.119c-11.5,11.818-19.594,27.084-22.516,44.346L14.154,363.82
	c-6.751,39.878,23.98,76.249,64.426,76.249h354.841c40.445,0,71.177-36.371,64.426-76.249L462.263,152.629z"/>
<path style="fill:#E5AE89;" d="M75.354,363.82l35.584-211.191c5.825-34.405,32.514-53.33,60.052-53.464
	c0.134-0.001,0.267-0.001,0.401-0.001h-61.2c-13.366,0-26.334,3.25-37.936,9.119c-11.5,11.818-19.594,27.084-22.516,44.346
	L14.154,363.82c-6.751,39.878,23.98,76.249,64.426,76.249h61.2C99.334,440.069,68.603,403.698,75.354,363.82z"/>
<path style="fill:#F9D4BB;" d="M477.65,147.537c-14.051-28.778-43.82-47.373-75.84-47.373H110.191
	c-32.019,0-61.788,18.595-75.84,47.373c-3.425,7.013-11.888,9.926-18.9,6.499c-7.014-3.425-9.923-11.886-6.499-18.899
	c18.839-38.585,58.074-63.238,101.239-63.238H401.81c43.196,0,82.414,24.682,101.239,63.237c3.424,7.013,0.515,15.475-6.499,18.899
	C489.521,157.467,481.067,154.536,477.65,147.537z"/>
<path style="fill:#F2C29E;" d="M152.997,86.72c0-6.025,2.842-11.376,7.247-14.821h-50.053c-43.165,0-82.399,24.653-101.239,63.237
	c-3.424,7.013-0.515,15.475,6.499,18.899c7.012,3.427,15.475,0.514,18.9-6.499c14.051-28.778,43.82-47.373,75.84-47.373h48.468
	C155.169,96.747,152.997,91.99,152.997,86.72z"/>
<path d="M401.81,64.399H155.088c-4.143,0-7.5,3.357-7.5,7.5s3.357,7.5,7.5,7.5H401.81c40.327,0,76.93,23.046,94.5,59.028
	c1.604,3.285,0.235,7.265-3.051,8.869c-3.251,1.588-7.233,0.304-8.87-3.051c-15.279-31.292-47.74-51.581-82.579-51.581
	c-308.973,0.022-294.421-0.34-302.719,0.7c-31.159,3.86-58.115,23.51-71.479,50.881c-0.777,1.592-2.129,2.787-3.805,3.363
	c-5.568,1.916-10.692-3.905-8.116-9.182c8.558-17.525,21.813-32.313,38.333-42.767c31.488-19.923,60.886-15.67,66.064-16.262
	c4.143,0,7.5-3.357,7.5-7.5s-3.357-7.5-7.5-7.5h-9.897c-46.083,0-87.902,26.332-107.979,67.447
	c-7.032,14.401,3.579,31.135,19.42,31.135c7.923,0,15.668-4.39,19.458-12.153c0.802-1.642,1.659-3.247,2.57-4.813
	c-1.485,6.114,0.688-4.96-36.901,216.555c-7.516,44.398,26.69,85,71.82,85h314.509c4.143,0,7.5-3.357,7.5-7.5s-3.357-7.5-7.5-7.5
	H78.58c-35.756,0-63.012-32.161-57.031-67.496l35.585-210.191c2.519-14.877,9.297-28.494,19.629-39.462
	c10.583-5.139,22.167-7.755,33.429-7.755H401.81c10.843,0,22.493,2.445,33.429,7.754c10.332,10.969,17.11,24.586,19.63,39.463
	l6.736,39.791c0.691,4.083,4.56,6.839,8.646,6.143c4.084-0.691,6.834-4.563,6.143-8.646c-6.928-40.467-6.671-40.464-8.052-46.154
	c0.91,1.566,1.768,3.171,2.569,4.812c3.657,7.492,11.109,12.146,19.449,12.146c15.88,0,26.453-16.74,19.429-31.127
	C489.749,90.808,447.977,64.399,401.81,64.399z"/>
<path d="M482.243,226.716c-0.69-4.083-4.555-6.835-8.646-6.143c-4.084,0.691-6.834,4.563-6.143,8.646l22.999,135.853
	c2.848,16.825-1.835,33.95-12.849,46.985c-20.166,23.867-47.649,20.148-49.516,20.511c-4.143,0-7.5,3.357-7.5,7.5s3.357,7.5,7.5,7.5
	c1.789-0.358,35.79,3.974,60.974-25.83c13.87-16.415,19.767-37.981,16.18-59.17L482.243,226.716z"/>
<g>
</g>
<g>
</g>
<g>
</g>
<g>
</g>
<g>
</g>
<g>
</g>
<g>
</g>
<g>
</g>
<g>
</g>
<g>
</g>
<g>
</g>
<g>
</g>
<g>
</g>
<g>
</g>
<g>
</g>
</svg>
