<?xml version="1.0" encoding="iso-8859-1"?>
<!-- Generator: Adobe Illustrator 19.0.0, SVG Export Plug-In . SVG Version: 6.00 Build 0)  -->
<svg version="1.1" id="Capa_1" xmlns="http://www.w3.org/2000/svg" xmlns:xlink="http://www.w3.org/1999/xlink" x="0px" y="0px"
	 viewBox="0 0 512.001 512.001" style="enable-background:new 0 0 512.001 512.001;" xml:space="preserve">
<polygon style="fill:#9F6C46;" points="322.929,7.597 189.07,7.597 122.14,127.619 189.07,504.398 322.929,504.398 389.859,127.619 
	"/>
<g>
	<polygon style="fill:#C69777;" points="322.927,7.601 389.859,127.619 351.683,134.041 301.514,44.065 	"/>
	<polygon style="fill:#C69777;" points="389.859,127.619 322.927,504.407 292.378,467.943 351.683,134.041 	"/>
</g>
<polygon style="fill:#75482A;" points="160.316,134.037 210.485,44.061 189.072,7.597 122.14,127.615 189.072,504.403 
	219.631,467.939 "/>
<path d="M396.494,123.915L329.562,3.897C328.221,1.491,325.683,0,322.928,0H189.073c-2.755,0-5.293,1.491-6.634,3.897
	l-66.932,120.018c-0.853,1.529-1.152,3.306-0.846,5.029l50.056,281.804c0.733,4.131,4.678,6.885,8.808,6.151l0,0
	c4.132-0.733,6.886-4.678,6.151-8.808l-48.171-271.194l22.267,3.741l57.755,325.136l-17.822,21.267l-7.826-44.066
	c-0.733-4.131-4.678-6.886-8.808-6.151l0,0c-4.131,0.733-6.886,4.678-6.151,8.808l10.674,60.101c0.644,3.626,3.796,6.269,7.48,6.269
	h133.855c3.683,0,6.835-2.642,7.48-6.268l53.347-300.331c0.733-4.132-2.021-8.075-6.151-8.808l0,0
	c-4.131-0.733-8.075,2.021-8.808,6.151l-50.499,284.299l-17.825-21.271l57.755-325.136l22.27-3.742l-5.499,30.955
	c-0.734,4.132,2.021,8.075,6.151,8.809l0,0c4.131,0.733,8.075-2.021,8.808-6.151l7.383-41.564
	C397.646,127.221,397.347,125.444,396.494,123.915z M377.982,121.911l-22.273,3.742l-45.444-81.495l12.492-21.27L377.982,121.911z
	 M214.833,36.464L202.34,15.193h107.318l-12.493,21.271H214.833z M189.242,22.892l12.491,21.268l-45.444,81.495l-22.27-3.742
	L189.242,22.892z M288.825,475.532l17.83,21.276H205.342l17.83-21.276H288.825z M286.004,460.338h-60.011L168.267,135.37
	l46.68-83.712h82.104l46.68,83.712L286.004,460.338z"/>
<g>
</g>
<g>
</g>
<g>
</g>
<g>
</g>
<g>
</g>
<g>
</g>
<g>
</g>
<g>
</g>
<g>
</g>
<g>
</g>
<g>
</g>
<g>
</g>
<g>
</g>
<g>
</g>
<g>
</g>
</svg>
