<?xml version="1.0" encoding="iso-8859-1"?>
<!-- Generator: Adobe Illustrator 19.0.0, SVG Export Plug-In . SVG Version: 6.00 Build 0)  -->
<svg version="1.1" id="Capa_1" xmlns="http://www.w3.org/2000/svg" xmlns:xlink="http://www.w3.org/1999/xlink" x="0px" y="0px"
	 viewBox="0 0 512 512" style="enable-background:new 0 0 512 512;" xml:space="preserve">
<path style="fill:#BFC3CE;" d="M480.282,149.071c-11.844-24.851-28.056-48.146-48.634-68.724
	c-24.02-24.019-51.746-42.095-81.337-54.219C260.435-10.706,153.336,7.37,80.36,80.347c-72.081,72.08-90.593,177.437-55.561,266.617
	c12.117,30.846,30.638,59.748,55.561,84.671c21.481,21.481,45.924,38.209,72.009,50.168c91.705,42.074,203.75,25.346,279.272-50.175
	C508.066,355.202,524.285,241.371,480.282,149.071z M214.36,297.635c-23.001-23.001-23.001-60.286,0-83.287
	c22.994-22.994,60.286-23.001,83.287,0c22.994,22.994,22.987,60.286-0.007,83.28C274.638,320.629,237.355,320.629,214.36,297.635z"
	/>
<path style="fill:#E6E6E6;" d="M480.282,149.071c-11.844-24.851-28.056-48.146-48.634-68.724
	c-24.02-24.019-51.746-42.095-81.337-54.219C258.564,149.825,150.053,256.773,24.8,346.964
	c12.117,30.846,30.638,59.748,55.561,84.671c21.481,21.481,45.924,38.209,72.009,50.168
	C244.166,353.381,353.473,242.468,480.282,149.071z M214.36,297.635c-23.001-23.001-23.001-60.286,0-83.287
	c22.994-22.994,60.286-23.001,83.287,0c22.994,22.994,22.987,60.286-0.007,83.28C274.638,320.629,237.355,320.629,214.36,297.635z"
	/>
<path style="fill:#818E96;" d="M333.691,178.299c-42.89-42.89-112.49-42.891-155.38,0s-42.89,112.49,0,155.38
	s112.49,42.891,155.38,0S376.581,221.189,333.691,178.299z M214.36,297.629c-23.022-23.022-23.022-60.261,0-83.282
	s60.261-23.022,83.282,0s23.022,60.261,0,83.282C274.62,320.651,237.381,320.651,214.36,297.629z"/>
<path d="M339.085,339.078c22.195-22.195,34.418-51.704,34.418-83.089c0-31.386-12.224-60.891-34.418-83.081
	c-22.191-22.196-51.697-34.42-83.085-34.42c-31.388,0-60.895,12.224-83.085,34.419c-22.196,22.19-34.419,51.695-34.419,83.082
	c0,31.385,12.224,60.893,34.418,83.089c22.263,22.263,52.464,34.382,83.302,34.379c7.291,0,14.619-0.678,21.885-2.059
	c4.318-0.82,7.019-5.159,5.9-9.409l0,0c-1.019-3.871-4.861-6.269-8.794-5.522c-33.063,6.271-67.586-4.191-91.537-28.143
	c-19.324-19.323-29.965-45.011-29.965-72.333s10.641-53.008,29.965-72.327c19.318-19.323,45.005-29.964,72.329-29.964
	s53.011,10.642,72.33,29.965c19.323,19.318,29.964,45.003,29.964,72.326S347.652,309,328.328,328.323
	c-6.635,6.636-14.056,12.273-22.128,16.82c-3.501,1.972-4.922,6.281-3.201,9.912l0,0c1.877,3.961,6.725,5.554,10.547,3.407
	C322.87,353.226,331.434,346.727,339.085,339.078z"/>
<path d="M303.02,208.971c-25.926-25.926-68.112-25.926-94.038,0c-25.925,25.926-25.925,68.111,0,94.037
	c12.963,12.963,29.991,19.444,47.019,19.444c17.028,0,34.056-6.481,47.019-19.444c12.559-12.559,19.476-29.258,19.476-47.019
	S315.579,221.529,303.02,208.971z M292.263,292.252c-19.995,19.995-52.532,19.995-72.526,0c-19.996-19.996-19.996-52.532,0-72.527
	c9.997-9.997,23.131-14.997,36.263-14.997s26.266,4.999,36.263,14.997c9.688,9.687,15.021,22.564,15.021,36.263
	C307.286,269.688,301.951,282.567,292.263,292.252z"/>
<path d="M437.016,74.966c-26.502-26.501-57.515-46.379-92.279-59.164c-4.01-1.474-8.447,0.694-9.8,4.745v0.001
	c-1.308,3.915,0.755,8.131,4.629,9.558c32.653,12.022,61.789,30.708,86.695,55.614c45.482,45.482,70.529,105.95,70.529,170.267
	s-25.047,124.784-70.529,170.266c-45.477,45.482-105.942,70.529-170.261,70.529S131.216,471.734,85.74,426.253
	c-45.484-45.481-70.53-105.948-70.53-170.265S40.257,131.203,85.739,85.721c29.844-29.844,67.034-51.371,107.552-62.254
	c36.94-9.923,75.968-10.903,113.346-2.903c4.028,0.862,8.015-1.603,9-5.602l0.002-0.007c1.022-4.146-1.564-8.352-5.739-9.247
	c-39.752-8.521-81.265-7.483-120.555,3.07c-43.09,11.575-82.635,34.462-114.362,66.188C26.63,123.32,0,187.608,0,255.988
	s26.63,132.667,74.983,181.021c48.35,48.354,112.635,74.984,181.017,74.984s132.667-26.63,181.017-74.984
	C485.372,388.655,512,324.367,512,255.988S485.371,123.32,437.016,74.966z"/>
<g>
</g>
<g>
</g>
<g>
</g>
<g>
</g>
<g>
</g>
<g>
</g>
<g>
</g>
<g>
</g>
<g>
</g>
<g>
</g>
<g>
</g>
<g>
</g>
<g>
</g>
<g>
</g>
<g>
</g>
</svg>
