<?xml version="1.0" encoding="iso-8859-1"?>
<!-- Generator: Adobe Illustrator 19.0.0, SVG Export Plug-In . SVG Version: 6.00 Build 0)  -->
<svg version="1.1" id="Capa_1" xmlns="http://www.w3.org/2000/svg" xmlns:xlink="http://www.w3.org/1999/xlink" x="0px" y="0px"
	 viewBox="0 0 512 512" style="enable-background:new 0 0 512 512;" xml:space="preserve">
<path style="fill:#F9C900;" d="M480.285,149.091c-11.843-24.849-28.054-48.142-48.63-68.718
	c-24.017-24.017-51.741-42.091-81.329-54.214C260.459-10.671,153.37,7.402,80.401,80.372
	c-72.074,72.074-90.585,177.42-55.556,266.592c12.116,30.843,30.635,59.742,55.555,84.663
	c21.479,21.479,45.919,38.206,72.002,50.164c91.696,42.07,203.731,25.343,279.246-50.171
	C508.066,355.202,524.283,241.382,480.285,149.091z M214.388,297.639c-22.999-22.999-22.999-60.28,0-83.28
	c22.992-22.992,60.28-22.999,83.28,0c22.992,22.992,22.985,60.28-0.007,83.272C274.662,320.631,237.381,320.631,214.388,297.639z"/>
<path style="fill:#F6F09D;" d="M480.285,149.091c-11.843-24.849-28.054-48.142-48.63-68.718
	c-24.017-24.017-51.741-42.091-81.329-54.214c-91.739,123.684-200.24,230.622-325.481,320.805
	c12.116,30.843,30.635,59.742,55.555,84.663c21.479,21.479,45.919,38.206,72.002,50.164
	C244.191,353.381,353.488,242.478,480.285,149.091z M214.388,297.639c-22.999-22.999-22.999-60.28,0-83.28
	c22.992-22.992,60.28-22.999,83.28,0c22.992,22.992,22.985,60.28-0.007,83.272C274.662,320.631,237.381,320.631,214.388,297.639z"/>
<path style="fill:#D38F07;" d="M333.708,178.315c-42.886-42.886-112.48-42.887-155.366,0s-42.886,112.48,0,155.366
	s112.48,42.887,155.366,0S376.594,221.201,333.708,178.315z M214.388,297.635c-23.02-23.02-23.02-60.255,0-83.274
	s60.255-23.02,83.274,0c23.02,23.02,23.02,60.255,0,83.274C274.642,320.654,237.407,320.654,214.388,297.635z"/>
<path d="M339.104,339.076c45.81-45.81,45.81-120.348,0-166.157c-45.812-45.81-120.347-45.81-166.159,0
	c-45.81,45.81-45.81,120.348,0,166.157c22.906,22.905,52.992,34.358,83.079,34.358S316.198,361.981,339.104,339.076z
	 M183.701,183.673c19.939-19.94,46.132-29.91,72.324-29.91s52.385,9.97,72.324,29.91c39.881,39.88,39.881,104.769,0,144.65
	c-39.879,39.88-104.77,39.88-144.649,0C143.82,288.442,143.82,223.553,183.701,183.673z"/>
<path d="M313.591,265.85h-0.003c-3.794-0.65-7.432,1.652-8.567,5.33c-2.449,7.93-6.782,15.125-12.739,21.081
	c-19.993,19.992-52.524,19.992-72.516,0c-19.993-19.993-19.993-52.525-0.001-72.518c19.994-19.992,52.526-19.993,72.517,0
	c5.942,5.942,10.268,13.11,12.714,20.997c1.141,3.675,4.776,5.975,8.569,5.323h0.002c4.55-0.781,7.328-5.394,5.964-9.804
	c-3.171-10.249-8.782-19.557-16.495-27.27c-25.923-25.922-68.102-25.922-94.026,0c-25.921,25.922-25.921,68.102,0.001,94.026
	c12.961,12.962,29.987,19.441,47.012,19.441s34.051-6.481,47.011-19.441c7.729-7.729,13.351-17.069,16.523-27.364
	C320.919,271.239,318.141,266.629,313.591,265.85z"/>
<path d="M437.023,74.992c-48.345-48.345-112.625-74.97-180.999-74.97S123.37,26.647,75.025,74.992
	c-12.565,12.563-23.778,26.36-33.408,41.095c-2.34,3.58-1.22,8.393,2.431,10.621l0,0c3.519,2.147,8.086,1.084,10.343-2.366
	c9.048-13.834,19.582-26.791,31.388-38.595c45.472-45.472,105.932-70.515,170.245-70.515s124.772,25.042,170.245,70.514
	c45.477,45.477,70.523,105.94,70.523,170.251s-25.044,124.773-70.523,170.251c-45.472,45.477-105.932,70.523-170.245,70.523
	S131.251,471.724,85.78,426.246C49.249,389.716,25.824,343.502,18.038,292.6c-7.256-47.436-0.476-95.039,19.61-138.156
	c1.741-3.738,0.23-8.179-3.453-10.034l0,0c-3.819-1.922-8.496-0.33-10.303,3.547C2.509,193.82-4.714,244.452,3.003,294.9
	c8.281,54.126,33.185,103.264,72.021,142.101c48.346,48.35,112.625,74.977,181,74.977s132.654-26.627,181-74.977
	C485.374,388.651,512,324.37,512,255.997C512,187.623,485.373,123.342,437.023,74.992z"/>
<g>
</g>
<g>
</g>
<g>
</g>
<g>
</g>
<g>
</g>
<g>
</g>
<g>
</g>
<g>
</g>
<g>
</g>
<g>
</g>
<g>
</g>
<g>
</g>
<g>
</g>
<g>
</g>
<g>
</g>
</svg>
