<?xml version="1.0" encoding="iso-8859-1"?>
<!-- Generator: Adobe Illustrator 19.0.0, SVG Export Plug-In . SVG Version: 6.00 Build 0)  -->
<svg version="1.1" id="Capa_1" xmlns="http://www.w3.org/2000/svg" xmlns:xlink="http://www.w3.org/1999/xlink" x="0px" y="0px"
	 viewBox="0 0 512.001 512.001" style="enable-background:new 0 0 512.001 512.001;" xml:space="preserve">
<path style="fill:#525263;" d="M213.027,484.245c22.62,26.864,63.307,26.864,85.929,0c59.608-70.79,93.976-177.407,80.494-298.747
	c-9.522-85.699-49.34-135.595-81.216-162.433c-24.426-20.566-60.057-20.566-84.484,0c-31.877,26.838-71.694,76.734-81.216,162.433
	C119.051,306.839,153.419,413.455,213.027,484.245z"/>
<path style="fill:#3B3B49;" d="M255.991,504.403c-15.835,0-31.65-6.721-42.964-20.154c-59.61-70.792-93.977-177.411-80.494-298.751
	c9.519-85.695,49.341-135.593,81.214-162.428c11.973-10.087,26.622-15.227,41.342-15.42c-9.347,0.314-18.643,5.454-26.257,15.409
	c-20.488,26.845-46.076,76.743-52.2,162.438c-8.668,121.339,13.422,227.958,51.743,298.751
	C235.645,497.682,245.813,504.403,255.991,504.403z"/>
<path style="fill:#F30E16;" d="M328.667,121.054c0,15.391-4.774,29.713-13.005,41.483c-7.901,11.358-18.93,20.411-31.935,25.679
	c-8.559,3.539-17.86,5.514-27.737,5.514c-40.165,0-72.758-32.511-72.758-72.676c0-5.926,0.74-11.77,2.058-17.284
	c4.28-17.449,14.732-32.346,29.054-42.305c11.77-8.313,26.173-13.169,41.647-13.169C296.156,48.296,328.667,80.888,328.667,121.054z
	"/>
<path style="fill:#DD0318;" d="M281.918,121.028c0,5.496-1.705,10.61-4.644,14.813c-4.673,6.73-12.462,11.139-21.309,11.139
	c-14.343,0-25.982-11.61-25.982-25.953c0-8.818,4.38-16.606,11.11-21.279c4.203-2.968,9.346-4.703,14.872-4.703
	C270.308,95.045,281.918,106.684,281.918,121.028z"/>
<ellipse style="fill:#ADB8BC;" cx="183.647" cy="288.289" rx="26.612" ry="60.066"/>
<ellipse style="fill:#CFD8DD;" cx="328.333" cy="288.289" rx="26.612" ry="60.066"/>
<path d="M255.99,512.001c-0.003,0-0.004,0-0.008,0c-18.767-0.002-36.543-8.332-48.768-22.856
	c-65.164-77.388-95.138-188.369-82.235-304.488c9.804-88.252,51.022-139.746,83.874-167.404
	c27.311-23.004,66.96-23.005,94.273,0.001c32.846,27.646,74.067,79.133,83.882,167.402c8.325,74.908-1.043,148.04-27.096,212.057
	c-1.607,3.948-6.149,5.804-10.062,4.116h-0.001c-3.798-1.637-5.585-6.007-4.026-9.837c25.104-61.677,34.118-132.258,26.071-204.657
	c-9.262-83.278-47.835-131.588-78.563-157.45c-21.639-18.226-53.047-18.226-74.684-0.002
	c-30.732,25.874-69.306,74.191-78.556,157.452c-12.444,111.997,16.26,218.797,78.754,293.014
	c9.331,11.084,22.867,17.441,37.138,17.443c0.002,0,0.004,0,0.006,0c14.274,0,27.815-6.357,37.152-17.444
	c14.366-17.051,27.149-36.166,38.064-56.906c1.926-3.66,6.415-5.117,10.117-3.27l0.001,0.001c3.814,1.903,5.326,6.575,3.341,10.347
	c-11.425,21.71-24.823,41.739-39.893,59.626C292.541,503.67,274.759,512,255.99,512.001z"/>
<path d="M257.241,201.323c-14.657,0.221-28.787-3.452-41.274-10.658c-3.889-2.245-4.95-7.387-2.317-11.026v-0.001
	c2.261-3.123,6.528-4.106,9.866-2.177c10.044,5.804,21.404,8.785,33.197,8.66c33.901-0.363,62.177-27.183,64.251-61.022
	c2.432-39.681-30.915-72.403-70.794-68.918c-34.012,2.972-60.082,32.333-59.26,66.465c0.286,11.88,3.704,23.174,9.981,33.084
	c2.063,3.258,1.249,7.564-1.783,9.947l0,0c-3.53,2.774-8.707,1.917-11.108-1.878c-7.783-12.303-11.998-26.329-12.299-41.076
	c-0.887-43.451,33.458-80.124,76.88-81.933c46.253-1.927,84.42,35.507,83.706,81.502
	C335.615,165.43,300.379,200.674,257.241,201.323z"/>
<path d="M183.651,355.958c-19.505,0-34.214-29.09-34.214-67.667s14.709-67.667,34.214-67.667s34.214,29.09,34.214,67.667
	S203.156,355.958,183.651,355.958z M183.651,235.831c-7.75,0-19.007,20.436-19.007,52.46s11.257,52.46,19.007,52.46
	s19.007-20.436,19.007-52.46S191.401,235.831,183.651,235.831z"/>
<path d="M328.332,355.958c-19.505,0-34.214-29.09-34.214-67.667s14.709-67.667,34.214-67.667c19.504,0,34.213,29.09,34.213,67.667
	S347.837,355.958,328.332,355.958z M328.332,235.831c-7.75,0-19.007,20.436-19.007,52.46s11.257,52.46,19.007,52.46
	c7.75,0,19.006-20.436,19.006-52.46S336.082,235.831,328.332,235.831z"/>
<g>
</g>
<g>
</g>
<g>
</g>
<g>
</g>
<g>
</g>
<g>
</g>
<g>
</g>
<g>
</g>
<g>
</g>
<g>
</g>
<g>
</g>
<g>
</g>
<g>
</g>
<g>
</g>
<g>
</g>
</svg>
