<?xml version="1.0" encoding="iso-8859-1"?>
<!-- Generator: Adobe Illustrator 19.0.0, SVG Export Plug-In . SVG Version: 6.00 Build 0)  -->
<svg version="1.1" id="Layer_1" xmlns="http://www.w3.org/2000/svg" xmlns:xlink="http://www.w3.org/1999/xlink" x="0px" y="0px"
	 viewBox="0 0 512.001 512.001" style="enable-background:new 0 0 512.001 512.001;" xml:space="preserve">
<circle style="fill:#F7B239;" cx="256.005" cy="256.004" r="246.855"/>
<g>
	<path style="fill:#E09B2D;" d="M126.308,385.694c-88.802-88.802-95.799-228.426-20.999-325.241
		c-8.286,6.401-16.258,13.399-23.858,20.999c-96.401,96.401-96.401,252.698,0,349.099s252.698,96.401,349.099,0
		c7.599-7.599,14.597-15.573,20.999-23.858C354.735,481.492,215.109,474.495,126.308,385.694z"/>
	<path style="fill:#E09B2D;" d="M288.481,410.188c-22.929,0-46.676-3.133-64.375-6.186c-4.98-0.859-8.32-5.592-7.461-10.572
		c0.859-4.98,5.592-8.321,10.572-7.461c22.138,3.818,54.09,7.786,80.584,4.983c5.018-0.533,9.529,3.112,10.061,8.137
		s-3.112,9.529-8.137,10.061C302.869,409.875,295.714,410.188,288.481,410.188z"/>
</g>
<path d="M256,0C114.842,0,0.001,114.841,0.001,256.001S114.842,512.001,256,512.001c141.159,0,256.001-114.841,256.001-256.001
	S397.159,0,256,0z M256,493.701c-131.068,0-237.7-106.631-237.7-237.7S124.932,18.299,256,18.299
	c131.069,0,237.702,106.632,237.702,237.702S387.069,493.701,256,493.701z"/>
<path d="M112.923,177.426c8.265-13.834,22.821-22.094,38.937-22.094s30.672,8.26,38.937,22.094c1.713,2.868,4.749,4.458,7.864,4.458
	c1.597,0,3.213-0.418,4.683-1.297c4.338-2.592,5.753-8.209,3.162-12.547c-11.6-19.417-32.028-31.007-54.646-31.007
	s-43.046,11.592-54.646,31.007c-2.592,4.338-1.176,9.956,3.162,12.547C104.717,183.181,110.332,181.764,112.923,177.426z"/>
<path d="M360.143,137.033c-22.618,0-43.046,11.592-54.646,31.007c-2.592,4.338-1.176,9.956,3.162,12.547
	c4.341,2.594,9.957,1.176,12.547-3.162c8.265-13.834,22.821-22.094,38.937-22.094s30.672,8.26,38.937,22.094
	c1.713,2.868,4.749,4.458,7.864,4.458c1.597,0,3.213-0.418,4.683-1.297c4.338-2.592,5.753-8.209,3.162-12.547
	C403.188,148.625,382.759,137.033,360.143,137.033z"/>
<path d="M190.337,263.692c0-18.666-15.186-33.852-33.852-33.852h-43.396c-5.053,0-9.15,4.097-9.15,9.15
	c0,5.053,4.097,9.15,9.15,9.15h13.342c-2.422,4.661-3.8,9.947-3.8,15.553c0,18.666,15.186,33.852,33.852,33.852
	S190.337,282.359,190.337,263.692z"/>
<path d="M375.036,229.84h-43.394c-5.053,0-9.15,4.097-9.15,9.15c0,5.053,4.097,9.15,9.15,9.15h13.342
	c-2.422,4.661-3.8,9.947-3.8,15.553c0,18.666,15.186,33.852,33.852,33.852s33.852-15.186,33.852-33.852
	C408.888,245.026,393.702,229.84,375.036,229.84z"/>
<path d="M359.967,311.924c-5.048,0.245-8.941,4.535-8.696,9.581c0.507,10.443-2.731,18.328-9.899,24.111
	c-30.749,24.805-122.373,7.505-155.082-1.254c-4.887-1.309-9.899,1.59-11.205,6.471c-1.308,4.88,1.587,9.896,6.467,11.205
	c1.272,0.342,31.584,8.405,67.505,12.469c13.323,1.507,25.575,2.259,36.748,2.259c30.62,0,53.1-5.652,67.05-16.901
	c11.876-9.578,17.493-22.781,16.694-39.245C369.304,315.571,365.002,311.682,359.967,311.924z"/>
<g>
	<circle style="fill:#FFFFFF;" cx="165.864" cy="259.664" r="9.15"/>
	<circle style="fill:#FFFFFF;" cx="384.233" cy="259.664" r="9.15"/>
</g>
<g>
</g>
<g>
</g>
<g>
</g>
<g>
</g>
<g>
</g>
<g>
</g>
<g>
</g>
<g>
</g>
<g>
</g>
<g>
</g>
<g>
</g>
<g>
</g>
<g>
</g>
<g>
</g>
<g>
</g>
</svg>
