<?xml version="1.0" encoding="iso-8859-1"?>
<!-- Generator: Adobe Illustrator 19.0.0, SVG Export Plug-In . SVG Version: 6.00 Build 0)  -->
<svg version="1.1" id="Capa_1" xmlns="http://www.w3.org/2000/svg" xmlns:xlink="http://www.w3.org/1999/xlink" x="0px" y="0px"
	 viewBox="0 0 511.999 511.999" style="enable-background:new 0 0 511.999 511.999;" xml:space="preserve">
<path style="fill:#E8C842;" d="M277.662,297.777c-1.48-2.792-2.451-5.823-3-8.938c-1.322-7.506-13.358-38.334-36.277-67.695
	l-21.007,21.346c2.493,3.188,23.827,30.523,34.158,55.262c1.702,4.076,2.337,8.502,1.994,12.908
	c-0.473,6.076,0.213,15.484,8.201,18.801C275.442,335.155,289.086,319.336,277.662,297.777z"/>
<path style="fill:#DBBC3B;" d="M274.468,326.843c-8.812-3.659-9.569-14.037-9.047-20.74c0.378-4.861-0.323-9.744-2.2-14.24
	c-10.253-24.553-30.322-51.412-36.251-59.118l-9.591,9.746c2.494,3.188,23.827,30.523,34.158,55.262
	c1.702,4.076,2.337,8.502,1.994,12.908c-0.473,6.076,0.213,15.484,8.201,18.801c5.254,2.181,10.492,1.195,14.32-2.054
	C275.525,327.246,274.996,327.063,274.468,326.843z"/>
<path style="fill:#967D74;" d="M162.389,487.483c9.116-15.576,31.074-17.302,42.262-2.545l-5.533-172.385
	c-26.995,0-83.516,0-99.268,0l-5.533,172.385c11.183-14.751,33.143-13.036,42.262,2.545h0.011l5.286-139.599
	c0.167-2.967,2.61-5.286,5.567-5.286c0.101,0,4.22,0,4.081,0c2.958,0,5.4,2.32,5.567,5.286l5.286,139.599L162.389,487.483
	L162.389,487.483z"/>
<g>
	<path style="fill:#7C6359;" d="M122.038,312.553c-9.669,0-17.634,0-22.187,0l-5.533,172.385
		c5.732-7.561,14.295-10.785,22.51-10.044L122.038,312.553z"/>
	<path style="fill:#7C6359;" d="M164.129,343.401c-0.304-0.062-0.608-0.119-0.912-0.173l0,0l0,0
		c-5.98-1.061-11.692-0.63-11.692-0.63c2.958,0,5.4,2.32,5.567,5.286l3.376,89.174l0.125-0.08l-0.016,2.974l1.8,47.532h0.011
		c4.812-8.221,13.201-12.58,21.695-12.697l-6.755-109.83C176.271,347.75,167.082,344.125,164.129,343.401z"/>
</g>
<g>
	<path style="fill:#656566;" d="M113.786,472.788c-13.943,0.384-24.879,12.23-24.879,26.244v1.867c0,1.988,1.604,3.599,3.582,3.599
		h43.288c2.389,0,4.326-1.946,4.326-4.346v-1.655C140.104,484.053,128.252,472.39,113.786,472.788z"/>
	<path style="fill:#656566;" d="M185.183,472.788c13.943,0.384,24.879,12.23,24.879,26.244v1.867c0,1.988-1.604,3.599-3.582,3.599
		h-43.288c-2.389,0-4.326-1.946-4.326-4.346v-1.655C158.866,484.053,170.718,472.39,185.183,472.788z"/>
</g>
<g>
	<path style="fill:#545456;" d="M112.158,500.9v-1.867c0-10.084,5.663-19.045,14.033-23.421c-3.702-1.912-7.927-2.946-12.405-2.823
		c-13.943,0.384-24.879,12.23-24.879,26.244v1.867c0,1.988,1.604,3.599,3.582,3.599h23.25
		C113.761,504.499,112.158,502.888,112.158,500.9z"/>
	<path style="fill:#545456;" d="M182.116,500.152v-1.655c0-9.974,5.652-18.62,13.913-22.886c-3.262-1.706-6.935-2.715-10.845-2.823
		c-14.466-0.399-26.317,11.265-26.317,25.709v1.655c0,2.4,1.937,4.346,4.326,4.346h23.25
		C184.053,504.499,182.116,502.553,182.116,500.152z"/>
</g>
<path style="fill:#E8C842;" d="M22.316,297.777c1.48-2.792,2.451-5.823,3-8.938c1.322-7.506,13.358-38.334,36.277-67.695
	L82.6,242.49c-2.493,3.188-23.827,30.523-34.158,55.262c-1.702,4.076-2.337,8.502-1.994,12.908
	c0.473,6.076-0.213,15.484-8.201,18.801C24.536,335.155,10.892,319.336,22.316,297.777z"/>
<path style="fill:#DBBC3B;" d="M25.51,326.843c8.812-3.659,9.569-14.037,9.047-20.74c-0.378-4.861,0.323-9.744,2.2-14.24
	c10.253-24.553,30.322-51.412,36.251-59.118l9.591,9.746c-2.494,3.188-23.827,30.523-34.158,55.262
	c-1.702,4.076-2.337,8.502-1.994,12.908c0.473,6.076-0.213,15.484-8.201,18.801c-5.254,2.181-10.492,1.195-14.319-2.054
	C24.453,327.246,24.982,327.063,25.51,326.843z"/>
<path style="fill:#CC9D72;" d="M146.777,7.577c-41.032,1.37-73.79,33.691-73.79,73.295c0,7.121-0.007,15.464-0.016,21.059
	l153.051-0.247c0.002-9.738,0.004-19.798,0.004-20.812C226.027,39.176,189.868,6.062,146.777,7.577z"/>
<path style="fill:#C19067;" d="M120.085,80.871c0-32.616,22.226-60.274,52.986-69.792c-8.265-2.566-17.12-3.826-26.295-3.504
	c-41.032,1.37-73.79,33.691-73.79,73.295c0,7.121-0.007,15.464-0.016,21.059l47.098-0.076
	C120.078,96.26,120.085,87.961,120.085,80.871z"/>
<g>
	<path style="fill:#E8C842;" d="M228.157,103.187c0,9.011-9.19,16.315-18.925,16.315V86.873
		C218.966,86.873,228.157,94.177,228.157,103.187z"/>
	<path style="fill:#E8C842;" d="M70.813,103.187c0,9.011,9.187,16.315,18.918,16.315V86.873
		C79.999,86.873,70.813,94.177,70.813,103.187z"/>
</g>
<g>
	<path style="fill:#DBBC3B;" d="M209.231,106.531v12.97c9.735,0,18.925-7.303,18.925-16.315c0-2.306-0.609-4.496-1.668-6.485
		C223.41,102.484,216.474,106.531,209.231,106.531z"/>
	<path style="fill:#DBBC3B;" d="M72.479,96.702c-1.058,1.988-1.667,4.179-1.667,6.485c0,9.011,9.187,16.315,18.917,16.315v-12.97
		C82.49,106.531,75.557,102.484,72.479,96.702z"/>
</g>
<path style="fill:#57ADDD;" d="M241.89,212.435l-31.066-22.075c-11.117-7.899-19.73-6.46-43.783-11.935h-35.081l-32.612,6.366
	c-8.527,2.009-10.698,5.87-42.267,27.645c-1.679,1.688-1.675,4.424-0.006,6.121l25.346,25.752c2.128,2.162,5.612,2.132,7.703-0.065
	l0.998-1.048c1.108-1.164,3.067-0.378,3.067,1.236v64.432c0,3.143,2.535,5.69,5.663,5.69c26.995,0,83.516,0,99.269,0
	c3.127,0,5.663-2.547,5.663-5.69v-64.433c0-1.614,1.958-2.401,3.067-1.236l0.998,1.048c2.091,2.198,5.575,2.227,7.703,0.065
	l25.346-25.752C243.566,216.859,243.569,214.123,241.89,212.435z"/>
<path style="fill:#42A2CC;" d="M119.467,308.863v-38.309c0-12.505-8.551-23.388-20.701-26.347l-5.494-1.338l-0.002,0.017
	c0.525,0.292,0.919,0.83,0.919,1.546v64.432c0,3.143,2.535,5.69,5.663,5.69c6.891,0,15.708,0,25.278,0
	C122.002,314.553,119.467,312.006,119.467,308.863z"/>
<path style="fill:#E8C842;" d="M131.959,165.982v23.509c0,9.688,7.853,17.541,17.54,17.541c9.688,0,17.54-7.853,17.54-17.541
	v-23.518C155.63,169.314,143.335,169.307,131.959,165.982z"/>
<path style="fill:#DBBC3B;" d="M149.264,189.491v-21.018c-5.847-0.021-11.688-0.85-17.305-2.492v23.509
	c0,9.688,7.853,17.541,17.54,17.541c3.15,0,6.098-0.841,8.653-2.294C152.848,201.721,149.264,196.029,149.264,189.491z"/>
<path style="fill:#F4D44E;" d="M209.504,86.837l-1.073-1.29c-8.302-9.986-5.908-20.293-6.304-23.615c0-3.53-2.313-4.45-5.721-3.478
	c-0.006,0.002-0.012,0.003-0.018,0.005c-27.361,8.979-47.158-0.337-47.158-0.337l2.516,3.469c2.025,2.792,1.089,7.331-4.703,7.692
	c-0.351-0.056-0.163,0.048-2.251-0.076l0,0c-5.109-0.303-18.593-1.984-33.025-11.005l-0.001,0.006
	c-7.889-4.799-11.746-2.144-13.529,0.522c-0.94,1.405-1.394,3.078-1.394,4.768v4.609c0,11.251-7.087,18.247-7.376,18.731
	c-0.008,7.259-0.03,27.464-0.03,29.037c0,31.945,26.877,57.315,59.392,57.599c33.002,0.398,60.707-25.129,60.707-57.599
	C209.528,87.108,209.538,89.047,209.504,86.837z"/>
<g>
	<path style="fill:#E8C842;" d="M114.731,115.874c0-1.251,0.014-14.297,0.024-23.234c0.004-3.429,1.051-6.752,2.904-9.637
		c2.067-3.219,4.479-8.334,4.479-14.898v-4.489c0-0.001,0-0.003,0-0.004c-3.326-1.42-6.819-3.192-10.372-5.412l-0.001,0.006
		c-7.889-4.799-11.746-2.144-13.529,0.522c-0.94,1.405-1.393,3.078-1.393,4.768v4.609c0,11.251-7.087,18.247-7.376,18.731
		c-0.008,7.259-0.03,27.464-0.03,29.037c0,31.945,26.877,57.315,59.392,57.599c4.546,0.055,8.985-0.399,13.271-1.278
		C135.239,166.662,114.731,143.779,114.731,115.874z"/>
	<path style="fill:#E8C842;" d="M489.69,297.777c-1.48-2.792-2.451-5.823-3-8.938c-1.322-7.506-13.358-38.334-36.277-67.695
		l-21.007,21.346c2.493,3.188,23.827,30.523,34.158,55.262c1.702,4.076,2.337,8.502,1.994,12.908
		c-0.473,6.076,0.213,15.484,8.201,18.801C487.47,335.155,501.114,319.336,489.69,297.777z"/>
</g>
<path style="fill:#DBBC3B;" d="M486.495,326.843c-8.812-3.659-9.569-14.037-9.047-20.74c0.378-4.861-0.323-9.744-2.2-14.24
	c-10.253-24.553-30.322-51.412-36.251-59.118l-9.591,9.746c2.494,3.188,23.827,30.523,34.158,55.262
	c1.702,4.076,2.337,8.502,1.994,12.908c-0.473,6.076,0.213,15.484,8.201,18.801c5.254,2.181,10.492,1.195,14.319-2.054
	C487.552,327.246,487.024,327.063,486.495,326.843z"/>
<path style="fill:#5085BA;" d="M374.417,487.483c9.116-15.576,31.074-17.302,42.262-2.545l-5.533-172.385
	c-26.995,0-83.516,0-99.268,0l-5.533,172.385c11.183-14.751,33.143-13.036,42.262,2.545h0.011l5.286-139.599
	c0.167-2.967,2.61-5.286,5.567-5.286c0.101,0,4.22,0,4.081,0c2.958,0,5.4,2.32,5.567,5.286l5.286,139.599L374.417,487.483
	L374.417,487.483z"/>
<g>
	<path style="fill:#3A77AA;" d="M334.065,312.553c-9.669,0-17.634,0-22.187,0l-5.533,172.385
		c5.732-7.561,14.295-10.785,22.51-10.044L334.065,312.553z"/>
	<path style="fill:#3A77AA;" d="M376.157,343.401c-0.304-0.062-0.608-0.119-0.912-0.173l0,0l0,0
		c-5.98-1.061-11.692-0.63-11.692-0.63c2.958,0,5.4,2.32,5.567,5.286l3.376,89.174l0.125-0.08l-0.016,2.974l1.8,47.532h0.011
		c4.812-8.221,13.201-12.58,21.695-12.697l-6.755-109.83C388.299,347.75,379.109,344.125,376.157,343.401z"/>
</g>
<g>
	<path style="fill:#656566;" d="M325.813,472.788c-13.943,0.384-24.879,12.23-24.879,26.244v1.867c0,1.988,1.604,3.599,3.582,3.599
		h43.288c2.389,0,4.326-1.946,4.326-4.346v-1.655C352.13,484.053,340.279,472.39,325.813,472.788z"/>
	<path style="fill:#656566;" d="M397.211,472.788c13.943,0.384,24.879,12.23,24.879,26.244v1.867c0,1.988-1.604,3.599-3.582,3.599
		H375.22c-2.389,0-4.326-1.946-4.326-4.346v-1.655C370.894,484.053,382.745,472.39,397.211,472.788z"/>
</g>
<g>
	<path style="fill:#545456;" d="M324.184,500.9v-1.867c0-10.084,5.663-19.045,14.033-23.421c-3.702-1.912-7.927-2.946-12.405-2.823
		c-13.943,0.384-24.879,12.23-24.879,26.244v1.867c0,1.988,1.604,3.599,3.582,3.599h23.25
		C325.788,504.499,324.184,502.888,324.184,500.9z"/>
	<path style="fill:#545456;" d="M394.144,500.152v-1.655c0-9.974,5.652-18.62,13.913-22.886c-3.262-1.706-6.935-2.715-10.845-2.823
		c-14.466-0.399-26.317,11.265-26.317,25.709v1.655c0,2.4,1.937,4.346,4.326,4.346h23.25
		C396.08,504.499,394.144,502.553,394.144,500.152z"/>
</g>
<path style="fill:#E8C842;" d="M234.344,297.777c1.48-2.792,2.451-5.823,3-8.938c1.322-7.506,13.358-38.334,36.277-67.695
	l21.007,21.346c-2.493,3.188-23.827,30.523-34.158,55.262c-1.702,4.076-2.337,8.502-1.994,12.908
	c0.473,6.076-0.213,15.484-8.201,18.801C236.564,335.155,222.919,319.336,234.344,297.777z"/>
<path style="fill:#DBBC3B;" d="M237.538,326.843c8.812-3.659,9.569-14.037,9.047-20.74c-0.378-4.861,0.323-9.744,2.2-14.24
	c10.253-24.553,30.322-51.412,36.251-59.118l9.591,9.746c-2.494,3.188-23.827,30.523-34.158,55.262
	c-1.702,4.076-2.337,8.502-1.994,12.908c0.473,6.076-0.213,15.484-8.201,18.801c-5.254,2.181-10.492,1.195-14.319-2.054
	C236.481,327.246,237.009,327.063,237.538,326.843z"/>
<path style="fill:#CC9D72;" d="M358.805,7.577c-41.032,1.37-73.79,33.691-73.79,73.295c0,7.121-0.007,15.464-0.016,21.059
	l153.051-0.247c0.002-9.738,0.004-19.798,0.004-20.812C438.054,39.176,401.895,6.062,358.805,7.577z"/>
<path style="fill:#C19067;" d="M332.112,80.871c0-32.616,22.226-60.274,52.986-69.792c-8.265-2.566-17.12-3.826-26.295-3.504
	c-41.032,1.37-73.79,33.691-73.79,73.295c0,7.121-0.007,15.464-0.016,21.059l47.098-0.076
	C332.105,96.26,332.112,87.961,332.112,80.871z"/>
<g>
	<path style="fill:#E8C842;" d="M440.184,103.187c0,9.011-9.19,16.315-18.925,16.315V86.873
		C430.993,86.873,440.184,94.177,440.184,103.187z"/>
	<path style="fill:#E8C842;" d="M282.84,103.187c0,9.011,9.187,16.315,18.918,16.315V86.873
		C292.027,86.873,282.84,94.177,282.84,103.187z"/>
</g>
<g>
	<path style="fill:#DBBC3B;" d="M421.259,106.531v12.97c9.735,0,18.925-7.303,18.925-16.315c0-2.306-0.609-4.496-1.668-6.485
		C435.438,102.484,428.502,106.531,421.259,106.531z"/>
	<path style="fill:#DBBC3B;" d="M284.507,96.702c-1.058,1.988-1.667,4.179-1.667,6.485c0,9.011,9.187,16.315,18.917,16.315v-12.97
		C294.517,106.531,287.585,102.484,284.507,96.702z"/>
</g>
<path style="fill:#F4A32C;" d="M453.917,212.435l-31.066-22.075c-11.117-7.899-19.73-6.46-43.783-11.935h-35.081l-32.612,6.366
	c-8.527,2.009-10.698,5.87-42.267,27.645c-1.679,1.688-1.675,4.424-0.006,6.121l25.346,25.752c2.128,2.162,5.612,2.132,7.703-0.065
	l0.998-1.048c1.108-1.164,3.067-0.378,3.067,1.236v64.432c0,3.143,2.535,5.69,5.663,5.69c26.995,0,83.516,0,99.269,0
	c3.127,0,5.663-2.547,5.663-5.69v-64.433c0-1.614,1.958-2.401,3.067-1.236l0.998,1.048c2.091,2.198,5.575,2.227,7.703,0.065
	l25.346-25.752C455.592,216.859,455.596,214.123,453.917,212.435z"/>
<path style="fill:#ED9015;" d="M331.493,308.863v-38.309c0-12.505-8.551-23.388-20.701-26.347l-5.494-1.338l-0.002,0.017
	c1.775,0.988,0.517-1.135,0.919,65.978c0,3.143,2.535,5.69,5.663,5.69c6.891,0,15.708,0,25.278,0
	C334.029,314.553,331.493,312.006,331.493,308.863z"/>
<path style="fill:#E8C842;" d="M343.986,165.982v23.509c0,9.688,7.853,17.541,17.54,17.541c9.688,0,17.54-7.853,17.54-17.541
	v-23.518C367.657,169.314,355.363,169.307,343.986,165.982z"/>
<path style="fill:#DBBC3B;" d="M361.292,189.491v-21.018c-5.847-0.021-11.688-0.85-17.305-2.492v23.509
	c0,9.688,7.853,17.541,17.54,17.541c3.15,0,6.098-0.841,8.653-2.294C364.876,201.721,361.292,196.029,361.292,189.491z"/>
<path style="fill:#F4D44E;" d="M421.532,86.837l-1.073-1.29c-8.302-9.986-5.908-20.293-6.304-23.615c0-3.53-2.313-4.45-5.721-3.478
	c-0.006,0.002-0.012,0.003-0.018,0.005c-27.361,8.979-47.158-0.337-47.158-0.337l2.516,3.469c2.025,2.792,1.089,7.331-4.703,7.692
	c-0.351-0.056-0.163,0.048-2.251-0.076l0,0c-5.109-0.303-18.593-1.984-33.025-11.005l-0.001,0.006
	c-7.889-4.799-11.746-2.144-13.529,0.522c-0.94,1.405-1.394,3.078-1.394,4.768v4.609c0,11.251-7.087,18.247-7.376,18.731
	c-0.008,7.259-0.03,27.464-0.03,29.037c0,31.945,26.877,57.315,59.392,57.599c33.002,0.398,60.707-25.129,60.707-57.599
	C421.556,87.108,421.566,89.047,421.532,86.837z"/>
<path style="fill:#E8C842;" d="M326.758,115.874c0-1.251,0.014-14.297,0.024-23.234c0.004-3.429,1.051-6.752,2.904-9.637
	c2.067-3.219,4.479-8.334,4.479-14.898v-4.489c0-0.001,0-0.003,0-0.004c-3.326-1.42-6.819-3.192-10.372-5.412l-0.001,0.006
	c-7.889-4.799-11.746-2.144-13.529,0.522c-0.94,1.405-1.393,3.078-1.393,4.768v4.609c0,11.251-7.087,18.247-7.376,18.731
	c-0.008,7.259-0.03,27.464-0.03,29.037c0,31.945,26.877,57.315,59.392,57.599c4.546,0.055,8.985-0.399,13.271-1.278
	C347.266,166.662,326.758,143.779,326.758,115.874z"/>
<path d="M168.137,133.723c0.995-1.693-0.22-3.827-2.184-3.827h-33.689c-1.446,0-2.38,1.534-1.713,2.818
	C138.356,147.729,159.674,148.125,168.137,133.723z"/>
<circle cx="173.121" cy="99.18" r="8.967"/>
<circle cx="125.701" cy="99.18" r="8.967"/>
<path d="M496.422,294.28c-1.05-1.981-1.804-4.246-2.241-6.729c-1.316-7.47-11.468-35.782-32.848-64.863
	c4.131-5.42,2.606-13.114-1.973-16.364l-31.067-22.076c-12.231-8.687-22.546-7.874-34.235-10.787
	c18.408-9.398,31.827-26.771,35.241-47.275c14.588-3.634,23.932-18.526,17.338-32.272c0.022-0.718,0.007-4.956,0.015-13.04
	c0-21.544-8.698-41.806-24.492-57.055c-52.647-50.827-143.548-14.94-143.548,57.054c0,4.995-0.003,6.649-0.009,9.129l-0.007,3.884
	c-6.591,13.69,2.644,28.637,17.314,32.297c3.404,20.517,16.856,37.915,35.301,47.31c-15.014,3.559-22.871,2.647-32.325,9.363
	c-34.782,24.761-33.167,23.455-33.999,24.292c-4.202,4.224-4.532,10.906-1.001,15.539c-2.82,3.835-5.444,7.656-7.878,11.419
	c-2.531-3.909-5.169-7.715-7.889-11.415c4.136-5.42,2.612-13.119-1.971-16.367c-27.399-18.539-34.37-26.917-47.535-29.448
	l-17.765-3.416c18.408-9.398,31.825-26.77,35.24-47.274c14.588-3.634,23.932-18.526,17.338-32.272
	c0.022-0.715,0.007-4.989,0.015-13.04c0-72.54-92.155-108.01-144.312-56.312C59.554,53.875,66.294,88.048,65.384,93.884
	c-6.586,13.679,2.632,28.634,17.314,32.297c3.404,20.517,16.855,37.915,35.3,47.309c-14.979,3.551-22.87,2.646-32.324,9.364
	c-34.782,24.761-33.166,23.453-34,24.292c-4.202,4.225-4.531,10.908-1,15.539c-21.379,29.08-31.532,57.393-32.848,64.863
	c-0.438,2.484-1.192,4.749-2.241,6.729c-15.016,28.334,5.541,50.387,25.437,42.128c9.143-3.796,13.81-13.386,12.805-26.312
	c-0.258-3.306,0.24-6.568,1.438-9.438c7.754-18.567,21.522-38.288,28.325-47.5c0.996,0.2,1.991,0.279,3.011,0.245v55.46
	c0,4.404,2.174,8.301,5.494,10.698l-5.29,160.991c-6.354,9.792-5.388,19.628-5.485,20.348c0,6.12,4.971,11.099,11.082,11.099h43.288
	c6.521,0,11.826-5.314,11.826-11.847c-0.094-0.939,0.674-8.14-3.439-16.433l5.133-133.621h0.375l5.133,133.622
	c-4.085,8.238-3.349,15.533-3.439,16.432c0,6.532,5.305,11.847,11.826,11.847h43.289c6.111,0,11.082-4.979,11.082-11.099
	c-0.128-0.95,0.99-10.371-5.485-20.349l-0.991-30.158c-0.136-4.14-3.601-7.417-7.742-7.25c-4.14,0.136-7.386,3.603-7.25,7.742
	l0.55,16.755c-9.151-3.704-19.257-2.893-27.394,1.344c-4.585-119.36-4.661-121.374-4.669-121.523
	c-0.392-6.933-6.126-12.363-13.056-12.363h-4.081c-7.025,0-12.753,5.565-13.062,12.498l-4.663,121.381
	c-8.509-4.442-18.637-4.881-27.395-1.336l4.784-145.588c3.649,0,4.002,0,10.145,0c4.142,0,7.5-3.357,7.5-7.5
	c0-4.143-3.358-7.5-7.5-7.5c-5.494,0-10.127,0-15.566,0v-62.62c0-8.012-9.506-12.255-15.452-6.938
	c-9.863-10.021-15.176-15.42-21.183-21.522l29.396-20.889c5.69-4.042,9.539-3.059,30.009-7.551v1.961
	c0,13.807,11.233,25.04,25.041,25.04s25.041-11.233,25.041-25.04v-1.987l21.166,4.069c9.776,2.353,12.932,7.118,38.21,24.397
	l-21.182,21.522c-1.946-1.742-4.503-2.574-7.12-2.305c-4.75,0.495-8.333,4.468-8.333,9.242v62.622c-14.442,0-29.42,0-45.027,0
	c-4.142,0-7.5,3.357-7.5,7.5c0,4.143,3.358,7.5,7.5,7.5c3.068,0,29.644,0,39.606,0l3.083,93.833
	c0.133,4.057,3.463,7.254,7.492,7.254c4.247,0,7.639-3.512,7.5-7.746l-3.149-95.832c3.321-2.397,5.494-6.294,5.494-10.698v-55.46
	c0.928,0.036,1.978-0.038,3.006-0.244c4.269,5.787,11.342,15.797,17.898,26.998c-2.841,8.467-1.878,9.546-4.302,14.122
	c-15.542,29.328,7.222,51.961,27.209,41.284c19.783,10.558,42.847-11.764,27.204-41.283c-1.05-1.981-1.804-4.246-2.241-6.73
	c-0.001,0-0.001,0-0.001-0.001c-0.328-1.864-1.037-4.441-2.036-7.44c6.561-11.209,13.59-21.157,17.869-26.95
	c0.833,0.167,1.69,0.253,2.561,0.253c0.153-0.001,0.302-0.003,0.451-0.008v55.459c0,4.405,2.174,8.302,5.494,10.699l-5.29,160.99
	c-6.354,9.793-5.387,19.627-5.484,20.348c0,6.12,4.971,11.099,11.081,11.099h43.289c6.521,0,11.825-5.314,11.825-11.847
	c-0.097-0.964,0.685-8.117-3.439-16.433l5.134-133.622h0.373l5.134,133.62c-4.086,8.238-3.35,15.535-3.44,16.434
	c0,6.532,5.306,11.847,11.826,11.847h43.288c6.11,0,11.082-4.979,11.082-11.099v-1.868c0-6.782-2.023-13.146-5.485-18.481
	l-5.289-160.989c3.32-2.397,5.493-6.294,5.493-10.699v-14.975c0-4.143-3.357-7.5-7.5-7.5s-7.5,3.357-7.5,7.5v13.164h-95.594v-62.62
	c0-8.044-9.533-12.241-15.452-6.939c-1.228-1.247-18.208-18.5-21.183-21.522l29.396-20.889c5.691-4.041,9.539-3.058,30.009-7.551
	v1.96c0,13.807,11.233,25.04,25.041,25.04c13.807,0,25.04-11.233,25.04-25.04v-1.986c16.371,3.797,23.147,2.722,31.938,8.969
	l27.438,19.497c-13.969,14.193-7.937,8.064-21.184,21.522c-5.931-5.308-15.452-1.094-15.452,6.938v14.456c0,4.143,3.357,7.5,7.5,7.5
	s7.5-3.357,7.5-7.5v-5.484c0.984,0.034,2.051-0.076,2.996-0.267c6.796,9.2,20.575,28.93,28.339,47.52
	c1.198,2.87,1.695,6.134,1.438,9.438c-2.225,28.616,24.362,34.863,36.907,21.08C501.469,324.165,505.171,310.79,496.422,294.28z
	 M166.338,496.999c0.715-8.939,7.919-16.127,16.977-16.679c9.964-0.583,18.04,7.194,19.052,16.679L166.338,496.999L166.338,496.999z
	 M96.427,496.999c1.161-10.886,11.412-18.995,22.498-16.144c7.263,1.891,12.9,8.256,13.531,16.144H96.427z M41.422,294.878
	c-2.11,5.053-2.992,10.718-2.551,16.382c0.276,3.545,0.175,9.727-3.601,11.294c-7.534,3.126-14.021-6.929-6.431-21.252
	c1.784-3.368,3.049-7.119,3.759-11.148c1.077-6.114,10.115-30.696,28.676-56.548c1.384,1.406,8.693,8.833,10.347,10.513
	C64.445,253.838,49.791,274.841,41.422,294.878z M216.947,109.451V96.923C221.749,100.56,221.768,105.8,216.947,109.451z
	 M99.688,35.213C142.163-6.89,218.438,21.069,218.438,80.871v0.017c-1.657-0.574-3.387-0.996-5.171-1.247
	c-2.406-3.351-3.727-7.392-3.727-11.537v-6.172c0-8.94-7.733-13.215-15.578-10.6c-23.926,7.851-40.955,0.31-41.626,0.003
	c-6.439-3.029-13.072,3.804-9.902,10.14c-5.678-0.673-15.881-2.821-26.78-9.634c-14.818-9.239-26.4,0.16-26.4,11.655
	c-0.265,2.566,1.236,9.231-3.727,16.145c-1.768,0.248-3.483,0.664-5.127,1.23C80.498,80.393,78.79,55.927,99.688,35.213z
	 M81.847,96.922v12.529C77.043,105.814,77.024,100.575,81.847,96.922z M96.847,115.876c0.003-15.751,0.002-10.563,0.005-26.321
	c9.568-12.22,6.93-24.61,7.453-26.472c1.322,0.235,2.886,1.206,3.66,1.642c14.144,8.769,31.033,12.581,39.458,12.044
	c5.332-0.334,10.038-2.991,11.902-8.021c8.625,1.494,20.884,2.027,35.215-1.925v1.282c0,7.77,2.622,15.347,7.401,21.449v0.035v0.001
	l0.005,26.35c0,24.972-19.379,45.658-44.266,49.417c-4.341,0.657-8.074,0.619-8.033,0.618c-0.101,0-0.944-0.002-0.843-0.002
	C120.4,165.728,96.847,143.475,96.847,115.876z M159.452,189.491c0,5.536-4.504,10.04-10.041,10.04s-10.041-4.504-10.041-10.04
	v-9.225c6.296,0.909,13.25,0.982,20.081-0.005v9.23H159.452z M237.519,233.606c3.443,4.8,6.729,9.795,9.826,14.942
	c-2.902,5.252-5.309,10.071-7.27,14.289c-4.958-7.749-9.657-14.339-12.899-18.724L237.519,233.606z M309.64,496.999
	c1.85-17.361,24.139-23.244,33.663-7.621c1.336,2.316,2.147,4.903,2.364,7.621H309.64z M360.568,335.098
	c-6.93,0-12.664,5.431-13.055,12.364c-0.069,1.595,0.555-14.448-4.669,121.518c-8.566-4.468-18.708-4.855-27.395-1.339
	l4.784-145.587h84.753l4.783,145.587c-9.134-3.697-19.281-2.886-27.394,1.342l-4.663-121.386
	c-0.145-6.534-5.781-12.498-13.062-12.498h-4.081V335.098z M379.55,496.999c0.875-10.953,11.343-18.732,21.939-16.276
	c7.456,1.723,13.24,8.305,14.09,16.276H379.55z M242.051,301.303c1.784-3.367,3.049-7.118,3.759-11.149
	c1.221-6.932,11.036-31.979,28.675-56.548l10.347,10.513c-10.93,14.802-23.136,33.849-30.197,50.757
	c-3.658,8.754-2.505,16.997-2.552,16.387c0.302,3.888,0.023,9.786-3.601,11.291C240.961,325.674,234.448,315.649,242.051,301.303z
	 M269.955,301.303c7.063,13.328,1.885,22.276-4.106,21.829c3.275-10.727-1.093-13.842,3.17-23.737
	C269.313,300.043,269.625,300.68,269.955,301.303z M430.158,109.451V96.922C434.981,100.576,434.962,105.813,430.158,109.451z
	 M411.739,34.608c12.84,12.396,19.911,28.825,19.911,46.263v0.017c-1.657-0.574-3.387-0.996-5.171-1.247
	c-5.131-7.146-3.382-13.958-3.727-17.709c0-8.728-7.473-13.236-15.579-10.6c-23.923,7.849-40.955,0.31-41.626,0.003
	c-6.468-3.037-13.06,3.832-9.902,10.14c-5.678-0.673-15.881-2.821-26.78-9.634c-10.321-6.483-19.237-4.014-23.739,2.718
	c-5.633,8.417,0.663,15.264-6.388,25.082c-1.767,0.248-3.483,0.664-5.126,1.23V80.87C293.611,21.648,368.804-6.844,411.739,34.608z
	 M295.059,96.922v12.529C290.254,105.812,290.237,100.575,295.059,96.922z M310.059,115.879c0.001-1.573,0.004-15.979,0.006-26.325
	c0,0,0,0,0-0.001c9.54-12.184,6.935-24.598,7.452-26.47c3.339,0.595,22.756,14.911,43.117,13.686
	c5.323-0.333,10.035-2.982,11.903-8.023c8.62,1.493,20.88,2.024,35.215-1.925c0.076,0.484-0.88,12.156,7.4,22.734
	c0.003,15.448,0.002,11.057,0.005,26.385c0,27.581-23.579,49.784-51.991,50.034l-0.308,0.001l-0.843-0.002
	C333.872,165.73,310.059,143.709,310.059,115.879z M372.664,189.491c0,5.536-4.504,10.04-10.04,10.04
	c-5.537,0-10.041-4.504-10.041-10.04v-9.225c6.668,0.962,13.621,0.929,20.081-0.005V189.491z M476.735,322.554
	c-3.776-1.567-3.878-7.749-3.602-11.294c0.44-5.665-0.442-11.33-2.552-16.383c-8.372-20.047-23.022-41.041-30.197-50.758
	l10.347-10.513c18.562,25.853,27.599,50.434,28.675,56.546c0.71,4.03,1.975,7.781,3.759,11.149c0.001,0,0.001,0.001,0.001,0.001
	C490.897,315.889,484.099,325.611,476.735,322.554z"/>
<path d="M381.349,133.723c0.995-1.693-0.22-3.827-2.184-3.827h-33.689c-1.446,0-2.38,1.534-1.713,2.818
	C351.568,147.729,372.886,148.125,381.349,133.723z"/>
<circle cx="386.333" cy="99.18" r="8.967"/>
<circle cx="338.912" cy="99.18" r="8.967"/>
<g>
</g>
<g>
</g>
<g>
</g>
<g>
</g>
<g>
</g>
<g>
</g>
<g>
</g>
<g>
</g>
<g>
</g>
<g>
</g>
<g>
</g>
<g>
</g>
<g>
</g>
<g>
</g>
<g>
</g>
</svg>
