<?xml version="1.0" encoding="iso-8859-1"?>
<!-- Generator: Adobe Illustrator 19.0.0, SVG Export Plug-In . SVG Version: 6.00 Build 0)  -->
<svg version="1.1" id="Capa_1" xmlns="http://www.w3.org/2000/svg" xmlns:xlink="http://www.w3.org/1999/xlink" x="0px" y="0px"
	 viewBox="0 0 512 512" style="enable-background:new 0 0 512 512;" xml:space="preserve">
<path style="fill:#CC9D72;" d="M220.404,173.859c0,0-13.297-90.728-74.033-132.348C107.603,12.07,60.243,2.036,15.526,10.461
	c-4.653,0.876-8.016,4.955-8.016,9.688v394.865c6.507,7.546,15.383,16.472,26.391,24.336c7.325,5.232,17.227,5.232,24.552,0
	c17.131-12.237,29.132-27.067,35.01-35.226c6.226-8.643,3.42-16.298,4.128-28.265c0,0,39.373,7.554,79.577,24.481
	C205.633,337.693,230.213,243.755,220.404,173.859z"/>
<path style="fill:#C19067;" d="M7.51,98.299c0.517-0.868,0.97-1.651,1.342-2.312c0.728-1.294,2.5-1.497,3.509-0.408
	c6.144,6.684,13.15,13.372,20.893,19.934l-0.721-3.622c0,0-3.337-78.352,52.985-99.534c-23.001-5.658-46.848-6.256-69.99-1.896
	c-4.653,0.876-8.016,4.955-8.016,9.688L7.51,98.299L7.51,98.299L7.51,98.299z"/>
<path style="fill:#CC9D72;" d="M493.826,10.152C402.993-6.63,318.241,59.962,318.241,149.04c0,13.732-0.013,35.001-0.03,45.788
	l186.22-0.301V22.905C504.43,16.654,499.972,11.287,493.826,10.152z"/>
<path style="fill:#C19067;" d="M400.091,149.04c0-63.749,43.409-115.974,101.386-134.373c-1.886-2.294-4.553-3.944-7.651-4.516
	C402.993-6.63,318.241,59.962,318.241,149.04c0,13.732-0.013,35.001-0.03,45.788l81.85-0.132
	C400.077,183.869,400.091,162.718,400.091,149.04z"/>
<path style="fill:#E8C842;" d="M313.191,199.137c0,11.174,11.214,20.231,23.092,20.231v-40.46
	C324.405,178.908,313.191,187.966,313.191,199.137z"/>
<path style="fill:#DBBC3B;" d="M315.197,191.139c-1.277,2.454-2.006,5.158-2.006,7.999c0,11.174,11.214,20.231,23.092,20.231
	v-15.998C327.426,203.37,318.942,198.334,315.197,191.139z"/>
<path style="fill:#F96989;" d="M238.338,482.913l-11.693-42.337c-3.816-13.815-13.203-25.389-25.865-32.103
	C154.044,383.686,97.59,372.86,97.59,372.86c-0.702,11.871,2.098,19.623-4.128,28.264c-5.877,8.158-17.877,22.989-35.009,35.226
	c-7.411,5.294-17.387,5.144-24.787-0.167c-10.9-7.822-19.696-16.675-26.158-24.169v75.074c0,9.632,7.808,17.44,17.44,17.44h196.932
	C233.162,504.53,241.341,493.786,238.338,482.913z"/>
<path style="fill:#ED5A81;" d="M33.094,487.088v-51.334c-10.629-7.717-19.238-16.381-25.584-23.74v75.074
	c0,9.632,7.808,17.44,17.44,17.44h25.584C40.902,504.53,33.094,496.72,33.094,487.088z"/>
<path style="fill:#E8C842;" d="M52.984,358.35c-0.927,0.045-1.855,0.083-2.787,0.109c-0.495,0.015-0.99,0.021-1.485,0.03
	c-0.375,0.007-0.748,0.021-1.123,0.023c-0.225,0.003-0.449,0.002-0.674,0.002c-0.258,0.001-0.516,0.002-0.774,0.001
	c-0.458,0-0.915,0.003-1.374-0.003c-0.466-0.004-0.929-0.02-1.394-0.028c-0.086-0.003-0.173-0.004-0.259-0.006
	c-12.353-0.259-24.303-2.212-35.606-5.618v59.154c6.507,7.546,15.383,16.473,26.391,24.337c7.325,5.231,17.227,5.231,24.552,0
	c17.132-12.238,29.132-27.068,35.01-35.227c2.677-3.713,4.129-8.162,4.129-12.741V348.3c-13.781,5.76-28.785,9.264-44.488,10.044
	C53.064,358.346,53.024,358.347,52.984,358.35z"/>
<path style="fill:#DBBC3B;" d="M44.354,424.383c-7.575-7.102-11.846-17.036-11.846-27.421v-39.143
	c-8.599-0.866-16.964-2.537-24.998-4.958v59.154c6.507,7.546,15.383,16.473,26.391,24.337c7.325,5.231,17.227,5.231,24.552,0
	c0.076-0.054,0.148-0.11,0.224-0.165C53.403,432.403,48.617,428.379,44.354,424.383z"/>
<path style="fill:#57ADDD;" d="M478.025,436.349c-7.335,5.239-17.155,5.279-24.494,0.044c-17.203-12.274-29.24-27.17-35.11-35.326
	c-6.146-8.54-3.402-16.352-4.087-28.208c-0.006,0.001-56.454,10.828-103.189,35.614c-12.662,6.714-22.049,18.288-25.865,32.103
	l-11.693,42.337c-3.003,10.873,5.177,21.616,16.454,21.616h201.506c7.114,0,12.883-5.767,12.883-12.883v-79.649
	C497.921,419.548,489.041,428.481,478.025,436.349z"/>
<path style="fill:#42A2CC;" d="M298.417,482.913l11.693-55.336c3.107-11.247,9.907-21.007,19.159-27.87
	c-6.107,2.702-12.194,5.621-18.124,8.766c-12.662,6.714-22.049,18.288-25.865,32.103l-11.693,42.337
	c-3.003,10.873,5.177,21.616,16.454,21.616h24.83C303.593,504.53,295.414,493.786,298.417,482.913z"/>
<path style="fill:#E8C842;" d="M504.431,355.254c-29.161,8.735-61.489,7.34-90.095-4.525v37.649c0,4.58,1.453,9.032,4.13,12.748
	c5.878,8.158,17.877,22.988,35.008,35.225c7.325,5.231,17.227,5.231,24.552,0c11.017-7.87,19.898-16.803,26.406-24.354
	L504.431,355.254L504.431,355.254z"/>
<path style="fill:#DBBC3B;" d="M443.634,401.127c-2.677-3.716-4.13-8.168-4.13-12.748v-30.058
	c-8.585-1.689-17.028-4.215-25.17-7.591v37.649c0,4.58,1.453,9.032,4.13,12.748c5.878,8.158,17.877,22.988,35.008,35.225
	c7.325,5.231,17.227,5.231,24.552,0c0.105-0.075,0.203-0.153,0.308-0.229C461.37,423.931,449.476,409.235,443.634,401.127z"/>
<path style="fill:#F4D44E;" d="M12.36,92.579c-1.009-1.088-2.781-0.886-3.509,0.408c-0.372,0.661-0.825,1.444-1.342,2.312v262.572
	c11.806,3.56,24.32,5.528,37.258,5.641c0.471,0.006,0.94,0.003,1.411,0.003c0.47,0,0.94,0.002,1.411-0.003
	c69.612-0.608,127.383-54.893,127.383-123.536c0-2.506-0.004-28.101-0.008-50.163c-0.001-4.433-3.041-8.269-7.344-9.334
	C103.139,164.527,45.376,128.491,12.36,92.579z"/>
<path style="fill:#E8C842;" d="M32.531,111.891c-7.454-6.363-14.221-12.839-20.172-19.311c-1.009-1.088-2.781-0.886-3.509,0.408
	c-0.372,0.661-0.825,1.444-1.342,2.312v262.572c8.04,2.424,16.414,4.09,25.022,4.954L32.531,111.891L32.531,111.891z"/>
<path style="fill:#F4D44E;" d="M504.431,125.598c-24.343-1.757-39.232-8.76-39.232-8.76l5.431,7.489
	c4.117,5.675,2.744,15.803-10.154,16.606c-0.545-0.087-0.942,0.067-4.861-0.165l0,0c-11.03-0.655-40.14-4.285-71.298-23.76
	l-0.003,0.013c-17.031-10.36-25.359-4.629-29.208,1.126c-4.385,6.555-2.591,12.904-3.009,20.244c0,13.756-4.816,27.078-13.61,37.655
	l-2.314,2.783c0,0.007,0,0.015,0,0.022c-0.015,0.867-0.027,1.75-0.036,2.645c-0.001,0.109-0.002,0.216-0.003,0.326
	c-0.009,0.941-0.014,1.896-0.014,2.872c0,0.026,0,0.05,0,0.076c-0.018,87.442-0.012,44.579-0.012,56.887
	c0,85.714,87.22,142.888,168.322,118.6L504.431,125.598L504.431,125.598z"/>
<path style="fill:#E8C842;" d="M385.847,241.657c0-1.887,0-2.474,0-2.436c0,1.73-0.001,2.368-0.001,2.43c0-0.132,0-2.359,0.001-2.43
	c0.001-4.98,0.005-19.013,0.012-54.451c0-0.025,0-0.05,0-0.076c0-0.976,0.005-1.931,0.014-2.872c0-0.109,0.002-0.217,0.003-0.326
	c0.009-0.895,0.021-1.778,0.036-2.645c0-0.007,0-0.015,0-0.022l2.314-2.783c8.795-10.577,13.61-23.9,13.61-37.655
	c0.239-4.188-0.24-8.052,0.117-11.817c-5.728-2.665-11.644-5.82-17.637-9.566l-0.003,0.013c-17.031-10.36-25.359-4.629-29.208,1.126
	c-4.385,6.555-2.591,12.904-3.009,20.244c0,13.756-4.816,27.078-13.61,37.655l-2.314,2.783c0,0.007,0,0.015,0,0.022
	c-0.015,0.867-0.027,1.75-0.036,2.645c-0.001,0.109-0.002,0.216-0.003,0.326c-0.009,0.941-0.014,1.896-0.014,2.872
	c0,0.026,0,0.05,0,0.076c-0.007,35.451-0.01,49.481-0.012,54.457c0,0.077,0,0.72,0,2.431c0,80.976,77.845,136.467,154.835,121.876
	C433.409,352.671,385.847,304.95,385.847,241.657z"/>
<path style="fill:#F96989;" d="M338.562,23.445c-23.494-22.516-61.402-20.662-83.444,3.277l-3.374,3.664
	c-1.563,1.698-4.243,1.698-5.805,0l-3.374-3.664c-22.042-23.939-59.95-25.793-83.444-3.277
	c-22.731,21.785-23.943,57.854-2.519,81.123c3.492,3.793,85.737,93.114,82.26,89.338c5.372,5.835,14.584,5.835,19.957,0
	c3.836-4.166,78.451-85.202,82.26-89.338C362.505,81.299,361.293,45.23,338.562,23.445z"/>
<path style="fill:#ED5A81;" d="M206.599,93.497c-21.424-23.268-20.212-59.338,2.519-81.123c1.159-1.111,2.363-2.145,3.588-3.138
	c-18.561-4.423-38.891,0.127-53.583,14.208c-22.731,21.785-23.943,57.854-2.519,81.123c3.352,3.64,79.235,86.053,82.26,89.338
	c5.372,5.835,14.584,5.835,19.957,0c1.203-1.306,9.363-10.168,20.116-21.847C257.568,148.851,209.258,96.385,206.599,93.497z"/>
<path style="fill:#E8C842;" d="M450.73,234.439v2.097c0,8.14,6.255,15.145,14.387,15.526c8.681,0.409,15.847-6.508,15.847-15.1
	v-2.732c0-3.272-2.653-5.924-5.924-5.924h-18.178C453.475,228.308,450.73,231.053,450.73,234.439z"/>
<path style="fill:#DBBC3B;" d="M465.846,236.537v-2.097c0-3.387,2.746-6.131,6.132-6.131h-15.117c-3.387,0-6.131,2.745-6.131,6.131
	v2.097c0,8.14,6.255,15.145,14.387,15.526c3.048,0.143,5.898-0.631,8.328-2.049C468.872,247.296,465.846,242.194,465.846,236.537z"
	/>
<path style="fill:#E8C842;" d="M31.058,245.675v2.097c0,8.14,6.255,15.145,14.387,15.526c8.681,0.409,15.847-6.508,15.847-15.1
	v-2.732c0-3.272-2.653-5.924-5.924-5.924H37.189C33.804,239.544,31.058,242.289,31.058,245.675z"/>
<path style="fill:#DBBC3B;" d="M46.175,247.773v-2.097c0-3.387,2.746-6.131,6.132-6.131H37.19c-3.387,0-6.131,2.745-6.131,6.131
	v2.097c0,8.14,6.255,15.145,14.387,15.526c3.048,0.143,5.898-0.631,8.328-2.049C49.201,258.532,46.175,253.43,46.175,247.773z"/>
<circle style="fill:#656566;" cx="405.18" cy="214.589" r="16.662"/>
<path style="fill:#545456;" d="M405.181,214.585c-3.082-5.338-2.861-11.666,0.008-16.649c-2.835-0.004-5.707,0.7-8.339,2.22
	c-7.969,4.602-10.7,14.792-6.098,22.762c4.602,7.969,14.792,10.7,22.762,6.099c2.632-1.519,4.678-3.655,6.091-6.111
	C413.855,222.895,408.263,219.923,405.181,214.585z"/>
<circle style="fill:#656566;" cx="106.35" cy="226.068" r="16.662"/>
<path style="fill:#545456;" d="M106.349,226.064c-3.082-5.338-2.861-11.666,0.008-16.649c-2.835-0.004-5.707,0.7-8.339,2.22
	c-7.969,4.602-10.7,14.792-6.098,22.762c4.602,7.969,14.792,10.7,22.762,6.099c2.632-1.519,4.678-3.655,6.091-6.111
	C115.022,234.373,109.431,231.401,106.349,226.064z"/>
<path style="fill:#656566;" d="M7.955,293.41c15.845,30.494,59.135,31.291,76.319,2.05c2.02-3.438-0.448-7.77-4.435-7.77H11.434
	C8.497,287.69,6.601,290.805,7.955,293.41z"/>
<path style="fill:#545456;" d="M39.914,293.41c-1.354-2.607,0.541-5.72,3.479-5.72H11.434c-2.937,0-4.833,3.115-3.479,5.72
	c10.992,21.154,35.186,28.002,54.715,20.461C53.381,310.291,45.148,303.48,39.914,293.41z"/>
<path style="fill:#656566;" d="M427.451,293.378c15.845,30.494,59.135,31.291,76.319,2.05c2.02-3.438-0.448-7.77-4.435-7.77h-68.404
	C427.992,287.657,426.096,290.772,427.451,293.378z"/>
<path style="fill:#545456;" d="M459.41,293.378c-1.354-2.607,0.541-5.72,3.479-5.72H430.93c-2.937,0-4.833,3.115-3.479,5.72
	c10.992,21.154,35.186,28.002,54.715,20.461C472.876,310.259,464.644,303.448,459.41,293.378z"/>
<path d="M46.208,270.787c12.471,0,22.616-10.145,22.616-22.617v-8.655c0-4.143-3.357-7.499-7.499-7.499s-7.499,3.357-7.499,7.499
	v8.655c0,4.201-3.418,7.618-7.617,7.618c-4.201,0-7.618-3.418-7.618-7.618v-8.655c0-4.143-3.357-7.499-7.499-7.499
	s-7.499,3.357-7.499,7.499v8.655C23.592,260.642,33.738,270.787,46.208,270.787z"/>
<path d="M106.379,201.98c-13.265,0-24.056,10.791-24.056,24.056s10.791,24.056,24.056,24.056s24.056-10.791,24.056-24.056
	S119.643,201.98,106.379,201.98z M106.379,235.092c-4.994,0-9.057-4.063-9.057-9.057s4.063-9.057,9.057-9.057
	s9.057,4.063,9.057,9.057S111.372,235.092,106.379,235.092z"/>
<path d="M85.895,199.161c11.851-9.918,29.133-9.903,40.971,0c3.175,2.657,7.904,2.239,10.563-0.939
	c2.658-3.176,2.237-7.905-0.938-10.563c-17.421-14.577-42.823-14.562-60.222,0c-3.177,2.658-3.597,7.388-0.938,10.564
	C77.991,201.404,82.722,201.816,85.895,199.161z"/>
<path d="M465.777,259.652c12.525,0,22.716-10.19,22.716-22.717v-8.712c0-4.143-3.357-7.499-7.499-7.499
	c-4.143,0-7.499,3.357-7.499,7.499v8.712c0,4.256-3.462,7.718-7.717,7.718c-4.256,0-7.717-3.463-7.717-7.718v-8.712
	c0-4.143-3.357-7.499-7.499-7.499s-7.499,3.357-7.499,7.499v8.712C443.062,249.461,453.252,259.652,465.777,259.652z"/>
<path d="M429.375,214.557c0-13.325-10.84-24.165-24.164-24.165c-13.325,0-24.165,10.84-24.165,24.165
	c0,13.325,10.84,24.165,24.165,24.165C418.536,238.722,429.375,227.882,429.375,214.557z M396.045,214.557
	c0-5.055,4.112-9.166,9.166-9.166c5.053,0,9.165,4.112,9.165,9.166c0,5.054-4.112,9.166-9.165,9.166
	C400.158,223.723,396.045,219.611,396.045,214.557z"/>
<path d="M425.862,191.425c1.404,1.176,3.111,1.749,4.81,1.749c7.006,0,10.148-8.789,4.816-13.25
	c-17.513-14.661-43.062-14.643-60.554,0c-3.177,2.658-3.597,7.387-0.938,10.563c2.659,3.176,7.39,3.598,10.563,0.938
	C396.465,181.464,413.885,181.404,425.862,191.425z"/>
<path d="M495.218,2.75c-11.449-2.115-23.198-2.978-34.909-2.567c-38.241,1.277-73.67,15.626-101.099,40.686
	c-2.86-7.125-6.965-13.75-12.221-19.543c-2.782-3.068-7.524-3.298-10.593-0.516s-3.299,7.524-0.516,10.593
	c17.439,19.225,17.453,48.791-0.286,68.056c-89.33,97.017-82.643,91.296-86.722,91.296c-2.874,0-4.368-1.892-4.468-1.963
	c-88.618-96.24-94-97.119-95.499-120.29c-3.051-48.659,56.233-71.416,88.172-36.728l3.374,3.664
	c3.652,3.968,8.519,3.715,8.419,3.693c6.89,0,9.703-5.569,11.794-7.356c12.282-13.341,30.934-19.32,48.678-15.599
	c4.05,0.846,8.027-1.749,8.878-5.802c0.85-4.054-1.748-8.028-5.802-8.878c-39.747-8.323-63.391,20.845-63.548,20.944l-0.759-0.824
	C219.392-9.578,167.456-7.05,143.836,30.395C104.568,3.481,57.961-5.19,14.168,3.063C5.982,4.605,0.04,11.78,0.04,20.121l0,0
	c0,31.739,0,314.865,0,337.711c0,15.709,0,113.493,0,129.228c0,13.752,11.188,24.939,24.94,24.939h3.73
	c4.143,0,7.499-3.357,7.499-7.499c0-4.143-3.357-7.499-7.499-7.499h-3.73c-5.481,0-9.941-4.46-9.941-9.94v-56.503
	c12.802,11.865,24.608,21.245,40.721,15.536c13.56-4.803,35.41-28.943,43.819-40.614c7.324-10.169,5.152-19.619,5.541-23.336
	c17.543,4.085,57.822,14.707,92.177,32.927c10.843,5.749,18.915,15.763,22.149,27.474l11.693,42.338
	c1.684,6.095-2.896,12.119-9.227,12.119h-39.412v-36.727c0-4.143-3.357-7.499-7.499-7.499c-4.143,0-7.499,3.357-7.499,7.499v36.727
	H63.707c-4.143,0-7.499,3.357-7.499,7.499c0,4.143,3.357,7.499,7.499,7.499c16.899,0,136.54,0,158.206,0
	c16.238,0,28.009-15.448,23.685-31.111l-11.693-42.337c-4.328-15.67-15.109-29.058-29.58-36.731
	c-5.645-2.995-11.415-5.783-17.199-8.379c25.106-57.551,45.928-135.728,42.85-198.179c6.546,7.11,0.691,0.75,3.502,3.804
	l0.001-0.001c8.862,9.265,22.875,8.599,30.891-0.107l46.412-50.406c-0.014,4.463-0.015,21.546-0.036,35.469
	c-11.835,16.245-1.481,36.982,17.898,41.628c-0.001,3.437-0.001,6.153-0.003,15.982c0,53.397,32.776,98.219,78.225,119.028v6.094
	c-9.534,2.12-29.212,6.905-51.689,14.729c-3.912,1.361-5.978,5.636-4.618,9.547c1.361,3.912,5.635,5.981,9.547,4.618
	c19.533-6.798,36.806-11.211,46.76-13.517c0,1.106,0,6.331,0,6.222c0,10.28,5.594,17.232,5.544,17.132
	c9.797,13.593,22.872,27.061,36.767,36.965c8.348,6.023,19.728,7.1,29.36,2.307c5.12-2.56,14.219-10.327,18.423-14.213v61.075
	c0,2.968-2.415,5.382-5.383,5.382H344.485v-36.727c0-4.143-3.357-7.499-7.499-7.499c-4.143,0-7.499,3.357-7.499,7.499v36.727
	h-39.415c-6.326,0-10.911-6.016-9.226-12.12l11.692-42.337c3.234-11.711,11.309-21.725,22.15-27.474
	c4.255-2.257,8.802-4.501,13.516-6.67c3.763-1.731,5.408-6.185,3.677-9.947c-1.73-3.762-6.183-5.406-9.947-3.678
	c-4.967,2.287-9.77,4.657-14.271,7.044c-14.471,7.673-25.253,21.061-29.581,36.731l-11.692,42.337
	C262.065,496.539,273.82,512,290.073,512c11.771,0,190.089,0,201.505,0c11.238,0,20.382-9.143,20.382-20.381
	c0-24.143,0-447.609,0-468.742C511.959,13.005,504.918,4.539,495.218,2.75z M167.494,188.133l0.008,51.955
	c0,76.67-76.105,131.391-152.463,112.028v-38.804c24.124,18.836,59.752,12.837,75.578-14.097c2.294-3.903,2.323-8.768,0.075-12.695
	c-2.244-3.923-6.446-6.358-10.967-6.358H15.038V106.124C47.414,138.097,103.55,172.676,167.494,188.133z M90.121,372.832
	c-0.566,12.927,1.573,17.931-2.713,23.882c-5.395,7.488-16.894,21.8-33.283,33.507c-4.723,3.375-11.136,3.326-15.984-0.109
	c-7.878-5.646-15.666-12.64-23.103-20.969v-41.578c23.773,5.347,50.287,4.616,75.083-3.468V372.832z M17.965,295.16h57.34
	C60.699,314.316,32.055,313.611,17.965,295.16z M173.314,387.604c-29.059-11.57-56.367-18.248-68.193-20.862v-8.524
	c45.278-20.886,77.38-65.48,77.38-118.13l-0.007-48.678c1.226,0.239,8.091,1.583,9.33,1.583c3.589,0,6.761-2.585,7.384-6.241
	c0.695-4.083-2.052-7.956-6.134-8.651C127.86,166.999,62.173,133.66,17.89,87.452c-0.82-0.884-1.791-1.59-2.85-2.108V20.121
	c0-1.136,0.802-2.111,1.906-2.319c40.933-7.711,84.205,0.76,120.352,26.305c-4.781,14.059-3.292,26.429-3.353,25.506
	c1.999,30.069,16.765,39.564,79.375,107.561C221.849,242.826,199.748,327.079,173.314,387.604z M354.207,99.609
	c8.045-12.98,10.97-27.852,9.279-42.03c34.41-35.271,83.5-48.485,129.007-40.081c2.588,0.479,4.467,2.74,4.467,5.378v94.4
	c-17.712-2.312-28.436-7.204-28.542-7.253c-6.984-3.287-13.801,4.933-9.262,11.189l5.431,7.488
	c7.527,10.375-41.307,3.772-76.266-18.079c-14.203-8.843-30.119-10.577-39.419,3.328c-6.037,9.025-3.772,17.532-4.275,24.415
	c0,19.919-12.06,33.008-12.192,33.24c-2.308,0.267-4.547,0.773-6.679,1.5c0.026-24.449-0.33-30.765,1.289-42.218
	C347.417,108.714,349.797,106.746,354.207,99.609z M328.638,209.777c-10.511-5.139-10.504-16.505,0-21.641V209.777z
	 M343.637,241.629c0,0.1-0.001-0.571,0.027-60.072c0.239-0.415,15.961-17.137,15.961-43.193c0.336-8.01-0.956-12.043,1.743-16.074
	c4.54-6.798,12.672-2.326,19.378,1.285c26.351,16.375,56.137,24.5,79.177,24.808c6.107,0.463,14.242-3.065,17.562-8.427
	c1.987-3.233,2.867-6.898,2.659-10.507c4.784,1.131,10.427,2.195,16.814,2.943c0,17.379,0,134.632,0,147.771h-65.932
	c-8.563,0-14.07,9.078-10.127,16.666c0,0.001,0.001,0.002,0.002,0.003c14.511,27.904,51.068,36.074,76.057,17.2V354.5
	C419.985,373.893,343.637,318.613,343.637,241.629z M494.878,295.16c-14.61,19.16-43.254,18.447-57.34,0H494.878z M496.96,369.935
	v39.19c-7.552,8.47-15.543,15.578-23.266,21.095c-4.657,3.325-11.02,3.419-15.802,0.024c-16.177-11.549-33.323-31.224-35.344-37.526
	c-1.167-3.623-0.492-5.94-0.686-19.886v-6.333C445.996,374.311,472.394,375.425,496.96,369.935z"/>
<g>
</g>
<g>
</g>
<g>
</g>
<g>
</g>
<g>
</g>
<g>
</g>
<g>
</g>
<g>
</g>
<g>
</g>
<g>
</g>
<g>
</g>
<g>
</g>
<g>
</g>
<g>
</g>
<g>
</g>
</svg>
