<?xml version="1.0" encoding="iso-8859-1"?>
<!-- Generator: Adobe Illustrator 19.0.0, SVG Export Plug-In . SVG Version: 6.00 Build 0)  -->
<svg version="1.1" id="Capa_1" xmlns="http://www.w3.org/2000/svg" xmlns:xlink="http://www.w3.org/1999/xlink" x="0px" y="0px"
	 viewBox="0 0 512.002 512.002" style="enable-background:new 0 0 512.002 512.002;" xml:space="preserve">
<path style="fill:#E8C842;" d="M488.46,298.103c-1.48-2.792-2.451-5.824-3-8.939c-1.322-7.507-13.359-38.338-36.281-67.701
	l-21.009,21.348c2.493,3.188,23.83,30.526,34.162,55.268c1.702,4.076,2.337,8.503,1.994,12.909
	c-0.473,6.077,0.213,15.486,8.202,18.803C486.24,335.485,499.885,319.664,488.46,298.103z"/>
<path style="fill:#DBBC3B;" d="M485.265,327.173c-8.813-3.659-9.57-14.039-9.048-20.742c0.378-4.862-0.323-9.745-2.2-14.242
	c-10.254-24.556-30.325-51.418-36.255-59.124l-9.592,9.747c2.494,3.188,23.83,30.526,34.162,55.268
	c1.702,4.076,2.337,8.503,1.994,12.909c-0.473,6.077,0.213,15.486,8.202,18.803c5.255,2.181,10.493,1.195,14.321-2.054
	C486.322,327.576,485.794,327.392,485.265,327.173z"/>
<path style="fill:#E8C842;" d="M23.471,297.784c1.451-2.792,2.403-5.824,2.941-8.939c1.296-7.507,13.096-38.338,35.569-67.701
	l20.596,21.348c-2.445,3.188-23.362,30.526-33.492,55.268c-1.668,4.076-2.291,8.503-1.955,12.909
	c0.464,6.077-0.208,15.486-8.041,18.803C25.648,335.165,12.27,319.344,23.471,297.784z"/>
<path style="fill:#DBBC3B;" d="M26.603,326.853c8.64-3.659,9.382-14.038,8.87-20.742c-0.371-4.862,0.316-9.745,2.157-14.242
	c10.053-24.556,29.73-51.418,35.543-59.124l9.404,9.747c-2.445,3.188-23.362,30.526-33.492,55.268
	c-1.668,4.076-2.291,8.503-1.955,12.909c0.464,6.077-0.208,15.486-8.041,18.803c-5.151,2.181-10.287,1.195-14.04-2.054
	C25.566,327.256,26.084,327.072,26.603,326.853z"/>
<path style="fill:#E8C842;" d="M272.812,297.784c-1.451-2.792-2.403-5.824-2.941-8.939c-1.296-7.507-13.096-38.338-35.569-67.701
	l-20.596,21.348c2.445,3.188,23.362,30.526,33.492,55.268c1.668,4.076,2.291,8.503,1.955,12.909
	c-0.464,6.077,0.208,15.486,8.041,18.803C270.635,335.165,284.012,319.344,272.812,297.784z"/>
<path style="fill:#DBBC3B;" d="M269.68,326.853c-8.64-3.659-9.382-14.038-8.87-20.742c0.371-4.862-0.316-9.745-2.157-14.242
	c-10.053-24.556-29.73-51.418-35.543-59.124l-9.404,9.747c2.445,3.188,23.362,30.526,33.492,55.268
	c1.668,4.076,2.291,8.503,1.955,12.909c-0.464,6.077,0.208,15.486,8.041,18.803c5.151,2.181,10.287,1.195,14.039-2.054
	C270.716,327.256,270.198,327.072,269.68,326.853z"/>
<path style="fill:#ED694A;" d="M238.892,212.431l-31.294-20.698c-8.251-5.458-13.442-4.528-40.387-10.697h-37.794
	c-27.049,6.193-32.139,5.243-40.386,10.697l-31.294,20.698c-1.645,1.688-1.642,4.424-0.006,6.121l24.846,25.752
	c1.303,1.351,3.126,1.846,4.811,1.491c2.228-0.47,3.087-2.047,3.718-2.604c1.086-1.165,3.005-0.38,3.005,1.236v42.75h108.408v-42.75
	c0-0.974,0.714-1.69,1.577-1.783c1.878-0.201,2.374,3.229,6.169,3.262c3.994,0.035,3.274-1.899,28.634-27.354
	C240.534,216.855,240.537,214.118,238.892,212.431z"/>
<path style="fill:#DB4E33;" d="M119.113,287.176H94.111v-43.559h10.914c7.781,0,14.089,6.308,14.089,14.089V287.176z"/>
<path style="fill:#CC9D72;" d="M205.365,138.169l17.325,10.859c4.66,2.921,6.588,8.832,4.204,12.89l0,0
	c-2.627,4.473-6.419,8.032-11.049,10.371c-4.2,2.122-9.978-0.176-12.598-5.012l-5.818-10.736
	C201.121,151.004,203.842,144.809,205.365,138.169z"/>
<path style="fill:#C19067;" d="M216.504,160.198c2.729,2.638,3.888,6.4,3.303,9.621c-1.241,0.925-2.558,1.76-3.962,2.47
	c-4.2,2.122-9.978-0.176-12.598-5.012l-5.818-10.736c2.042-3.064,3.776-6.337,5.186-9.768L216.504,160.198z"/>
<path style="fill:#CC9D72;" d="M90.917,138.169l-17.325,10.859c-4.66,2.921-6.588,8.832-4.204,12.89l0,0
	c2.627,4.473,6.419,8.032,11.049,10.371c4.2,2.122,9.978-0.176,12.598-5.012l5.818-10.736
	C95.162,151.004,92.439,144.809,90.917,138.169z"/>
<path style="fill:#C19067;" d="M79.778,160.198c-2.729,2.638-3.888,6.4-3.303,9.621c1.241,0.925,2.558,1.76,3.962,2.47
	c4.2,2.122,9.978-0.176,12.598-5.012l5.818-10.736c-2.042-3.064-3.776-6.337-5.186-9.768L79.778,160.198z"/>
<path style="fill:#CC9D72;" d="M145.687,18.302C105.885,19.631,74.11,50.984,74.11,89.4c0,6.908-0.007,17.972-0.015,23.399
	l148.464-0.24c0.002-9.447,0.004-22.175,0.004-23.158C222.562,48.953,187.488,16.832,145.687,18.302z"/>
<path style="fill:#C19067;" d="M113.525,89.4c0-32.744,23.09-60.339,54.553-68.603c-7.112-1.879-14.634-2.767-22.389-2.495
	c-39.802,1.329-71.578,32.682-71.578,71.098c0,6.908-0.007,17.972-0.015,23.399l39.415-0.064
	C113.518,107.287,113.525,96.282,113.525,89.4z"/>
<path style="fill:#E8C842;" d="M97.505,372.768L94.238,487.84c11.035-14.849,32.549-12.929,41.426,2.544h0.011l3.855-112.901
	C124.334,377.032,110.084,375.373,97.505,372.768z"/>
<path style="fill:#DBBC3B;" d="M118.201,376.001c-7.275-0.804-14.212-1.89-20.696-3.233L94.238,487.84
	c5.414-7.284,13.347-10.524,21.075-10.117L118.201,376.001z"/>
<path style="fill:#E8C842;" d="M157.096,377.464l3.856,112.921h0.011c8.884-15.485,30.397-17.385,41.426-2.544l-3.272-115.22
	C186.562,375.269,172.313,376.973,157.096,377.464z"/>
<path style="fill:#DBBC3B;" d="M177.244,376.047c-6.473,0.704-13.202,1.192-20.147,1.416l3.856,112.921h0.011
	c4.412-7.691,11.941-12.026,19.753-12.628L177.244,376.047z"/>
<g>
	<path style="fill:#E8C842;" d="M226.283,113.102c0,8.883-8.989,16.082-18.51,16.082V97.021
		C217.294,97.021,226.283,104.22,226.283,113.102z"/>
	<path style="fill:#E8C842;" d="M70.345,113.102c0,8.883,9.037,16.082,18.608,16.082V97.021
		C79.382,97.021,70.345,104.22,70.345,113.102z"/>
</g>
<g>
	<path style="fill:#DBBC3B;" d="M207.773,115.572v13.611c9.521,0,18.51-7.2,18.51-16.083c0-2.436-0.695-4.737-1.872-6.806
		C221.293,111.772,214.683,115.572,207.773,115.572z"/>
	<path style="fill:#DBBC3B;" d="M72.228,106.296c-1.184,2.069-1.882,4.369-1.882,6.806c0,8.883,9.037,16.082,18.608,16.082v-13.611
		C82.007,115.572,75.362,111.772,72.228,106.296z"/>
</g>
<path style="fill:#E8C842;" d="M131.154,176.669v16.02c0,9.477,7.683,17.16,17.16,17.16c9.478,0,17.16-7.683,17.16-17.16v-16.02
	C154.311,179.882,142.325,179.884,131.154,176.669z"/>
<path style="fill:#DBBC3B;" d="M148.314,192.689V179.08c-5.788,0-11.576-0.803-17.16-2.411v16.02c0,9.477,7.683,17.16,17.16,17.16
	c3.129,0,6.054-0.851,8.58-2.314C151.77,204.566,148.314,199.036,148.314,192.689z"/>
<path style="fill:#656566;" d="M113.321,472.734c-13.667,0.384-24.387,12.23-24.387,26.244v1.867c0,1.987,1.572,3.598,3.511,3.598
	h42.433c2.342,0,4.24-1.946,4.24-4.346v-1.655C139.119,483.998,127.501,472.335,113.321,472.734z"/>
<path style="fill:#545456;" d="M108.769,500.845v-1.867c0-10.674,6.223-20.084,15.226-24.136c-3.258-1.448-6.873-2.215-10.674-2.108
	c-13.667,0.384-24.387,12.23-24.387,26.244v1.867c0,1.987,1.572,3.598,3.511,3.598h19.835
	C110.341,504.443,108.769,502.832,108.769,500.845z"/>
<rect x="94.112" y="260.009" style="fill:#DB4E33;" width="108.412" height="27.163"/>
<rect x="94.112" y="260.009" style="fill:#CC402E;" width="25.003" height="27.163"/>
<path style="fill:#ED694A;" d="M202.517,287.176H94.111L70.42,353.722c-2.276,6.394,0.996,13.494,7.289,15.666
	c39.809,13.734,102.447,13.57,141.705-0.419c5.617-2.001,8.565-8.306,6.526-14.032L202.517,287.176z"/>
<path style="fill:#DB4E33;" d="M102.251,375.073c-6.293-2.321-9.565-9.914-7.289-16.749l23.691-71.148H94.111L70.42,353.723
	c-2.276,6.394,0.996,13.494,7.289,15.666c8.391,2.895,17.804,5.165,27.791,6.826C104.404,375.842,103.315,375.466,102.251,375.073z"
	/>
<path style="fill:#F4D44E;" d="M207.897,96.995c0.019,0.017-4.334-8.098-7.392-13.795c-1.67-3.111-5.081-4.886-8.584-4.437
	c-10.343,1.322-32.283,1.536-43.607-17.579l0,0l0,0l0,0l0,0c-11.323,19.114-33.264,18.901-43.607,17.579
	c-3.502-0.448-6.914,1.326-8.584,4.437c-3.058,5.698-7.411,13.812-7.392,13.795c0.062-0.054-0.03-2.153-0.03,28.879
	c0,31.988,27.335,57.511,60.264,57.115c32.22-0.282,58.958-25.408,58.958-57.179C207.92,94.344,207.797,96.908,207.897,96.995z"/>
<g>
	<path style="fill:#E8C842;" d="M88.737,96.984c0,0.001-0.006,0.011-0.006,0.011C88.734,96.993,88.736,96.989,88.737,96.984z"/>
	<path style="fill:#E8C842;" d="M113.957,125.876c0-22.535,0.048-39.192,0.051-46.609c-3.572,0.072-6.782-0.181-9.3-0.503
		c-3.502-0.448-6.914,1.326-8.584,4.437c-2.98,5.553-7.178,13.377-7.373,13.758c0.016,0.169-0.048,2.887-0.048,28.916
		c0,31.988,27.335,57.511,60.264,57.115c4.103-0.036,8.116-0.479,11.997-1.283C134.27,176.199,113.957,153.447,113.957,125.876z"/>
	<path style="fill:#E8C842;" d="M88.737,96.984c0.001-0.002,0.01-0.019,0.013-0.026C88.748,96.933,88.744,96.965,88.737,96.984z"/>
</g>
<path style="fill:#656566;" d="M181.897,472.734c-13.667,0.384-24.387,12.23-24.387,26.244v1.867c0,1.987,1.572,3.598,3.511,3.598
	h42.433c2.342,0,4.24-1.946,4.24-4.346v-1.655C207.694,483.998,196.077,472.335,181.897,472.734z"/>
<path style="fill:#545456;" d="M177.346,500.845v-1.867c0-10.674,6.223-20.084,15.226-24.136c-3.258-1.448-6.873-2.215-10.674-2.108
	c-13.667,0.384-24.387,12.23-24.387,26.244v1.867c0,1.987,1.572,3.598,3.511,3.598h19.835
	C178.918,504.443,177.346,502.832,177.346,500.845z"/>
<path style="fill:#967D74;" d="M373.176,487.829c9.117-15.578,31.077-17.304,42.267-2.545l-5.534-172.403
	c-26.998,0-83.524,0-99.278,0l-5.534,172.403c11.184-14.753,33.147-13.037,42.267,2.545h0.011l5.287-139.613
	c0.167-2.967,2.61-5.287,5.568-5.287c0.101,0,4.22,0,4.081,0c2.957,0,5.401,2.32,5.568,5.287l5.287,139.613H373.176z"/>
<g>
	<path style="fill:#7C6359;" d="M332.82,312.881c-9.67,0-17.636,0-22.189,0l-5.534,172.403c5.733-7.562,14.297-10.786,22.512-10.045
		L332.82,312.881z"/>
	<path style="fill:#7C6359;" d="M374.916,343.733c-0.304-0.062-0.608-0.119-0.912-0.173l0,0l0,0
		c-5.981-1.061-11.693-0.63-11.693-0.63c2.958,0,5.401,2.32,5.568,5.287l3.376,89.183l0.125-0.08l-0.016,2.974l1.8,47.537h0.011
		c4.813-8.222,13.202-12.581,21.697-12.698l-6.756-109.841C387.059,348.082,377.868,344.456,374.916,343.733z"/>
</g>
<g>
	<path style="fill:#656566;" d="M324.567,473.133c-13.944,0.384-24.882,12.231-24.882,26.247v1.867c0,1.988,1.604,3.599,3.582,3.599
		h43.293c2.389,0,4.326-1.946,4.326-4.346v-1.655C350.887,484.398,339.035,472.734,324.567,473.133z"/>
	<path style="fill:#656566;" d="M395.972,473.133c13.944,0.384,24.882,12.231,24.882,26.247v1.867c0,1.988-1.604,3.599-3.582,3.599
		h-43.293c-2.389,0-4.326-1.946-4.326-4.346v-1.655C369.652,484.398,381.505,472.734,395.972,473.133z"/>
</g>
<g>
	<path style="fill:#545456;" d="M322.938,501.247v-1.867c0-10.085,5.664-19.047,14.034-23.424
		c-3.702-1.912-7.928-2.946-12.406-2.823c-13.944,0.384-24.882,12.231-24.882,26.247v1.867c0,1.988,1.604,3.599,3.582,3.599h23.253
		C324.542,504.846,322.938,503.235,322.938,501.247z"/>
	<path style="fill:#545456;" d="M392.905,500.5v-1.655c0-9.975,5.653-18.622,13.914-22.888c-3.262-1.706-6.936-2.715-10.846-2.823
		c-14.468-0.399-26.32,11.266-26.32,25.712v1.655c0,2.4,1.937,4.346,4.326,4.346h23.252
		C394.842,504.846,392.905,502.9,392.905,500.5z"/>
</g>
<path style="fill:#E8C842;" d="M233.089,298.103c1.48-2.792,2.451-5.824,3-8.939c1.322-7.507,13.359-38.338,36.281-67.701
	l21.009,21.348c-2.493,3.188-23.83,30.526-34.162,55.268c-1.702,4.076-2.337,8.503-1.994,12.909
	c0.473,6.077-0.213,15.486-8.202,18.803C235.309,335.485,221.663,319.664,233.089,298.103z"/>
<path style="fill:#DBBC3B;" d="M236.283,327.173c8.813-3.659,9.57-14.039,9.048-20.742c-0.378-4.862,0.323-9.745,2.2-14.242
	c10.254-24.556,30.325-51.418,36.255-59.124l9.592,9.747c-2.494,3.188-23.83,30.526-34.162,55.268
	c-1.702,4.076-2.337,8.503-1.994,12.909c0.473,6.077-0.213,15.486-8.202,18.803c-5.255,2.181-10.493,1.195-14.321-2.054
	C235.226,327.576,235.754,327.392,236.283,327.173z"/>
<path style="fill:#CC9D72;" d="M357.562,7.874c-41.036,1.37-73.797,33.695-73.797,73.302c0,7.122-0.007,15.466-0.016,21.061
	l153.066-0.247c0.002-9.739,0.004-19.8,0.004-20.814C436.819,39.476,400.658,6.359,357.562,7.874z"/>
<path style="fill:#C19067;" d="M330.867,81.177c0-32.62,22.228-60.28,52.992-69.799c-8.266-2.566-17.122-3.826-26.298-3.504
	c-41.036,1.37-73.797,33.695-73.797,73.302c0,7.122-0.007,15.466-0.016,21.061l47.103-0.076
	C330.86,96.567,330.867,88.267,330.867,81.177z"/>
<g>
	<path style="fill:#E8C842;" d="M438.95,103.494c0,9.012-9.191,16.317-18.927,16.317V87.179
		C429.758,87.179,438.95,94.483,438.95,103.494z"/>
	<path style="fill:#E8C842;" d="M281.59,103.494c0,9.012,9.188,16.317,18.92,16.317V87.179
		C290.778,87.179,281.59,94.483,281.59,103.494z"/>
</g>
<g>
	<path style="fill:#DBBC3B;" d="M420.023,106.839v12.971c9.736,0,18.927-7.304,18.927-16.317c0-2.306-0.609-4.496-1.668-6.486
		C434.203,102.791,427.266,106.839,420.023,106.839z"/>
	<path style="fill:#DBBC3B;" d="M283.257,97.008c-1.058,1.988-1.667,4.179-1.667,6.486c0,9.012,9.188,16.317,18.919,16.317V106.84
		C293.268,106.839,286.335,102.791,283.257,97.008z"/>
</g>
<path style="fill:#57ADDD;" d="M452.684,212.754l-31.069-22.077c-11.118-7.9-19.732-6.461-43.788-11.936h-35.085l-32.616,6.367
	c-8.528,2.009-10.699,5.871-42.272,27.648c-1.679,1.688-1.675,4.424-0.006,6.122l25.349,25.755c2.128,2.162,5.613,2.132,7.704-0.065
	l0.998-1.048c1.108-1.164,3.067-0.378,3.067,1.236v64.438c0,3.143,2.535,5.691,5.664,5.691c26.998,0,83.524,0,99.279,0
	c3.127,0,5.664-2.547,5.664-5.691v-64.438c0-1.614,1.958-2.401,3.067-1.236l0.998,1.048c2.091,2.198,5.576,2.227,7.704,0.065
	l25.349-25.755C454.359,217.178,454.363,214.441,452.684,212.754z"/>
<path style="fill:#42A2CC;" d="M330.248,309.191v-38.313c0-12.506-8.552-23.391-20.703-26.35l-5.495-1.338l-0.002,0.017
	c0.525,0.292,0.919,0.83,0.919,1.546v64.438c0,3.143,2.535,5.691,5.664,5.691c6.892,0,15.71,0,25.281,0
	C332.784,314.881,330.248,312.334,330.248,309.191z"/>
<path style="fill:#E8C842;" d="M342.742,166.295v23.512c0,9.689,7.854,17.543,17.542,17.543c9.689,0,17.542-7.854,17.542-17.543
	v-23.521C366.416,169.628,354.12,169.62,342.742,166.295z"/>
<path style="fill:#DBBC3B;" d="M360.049,189.806v-21.02c-5.848-0.021-11.689-0.85-17.307-2.492v23.512
	c0,9.689,7.854,17.543,17.542,17.543c3.15,0,6.099-0.841,8.654-2.294C363.634,202.038,360.049,196.345,360.049,189.806z"/>
<path style="fill:#F4D44E;" d="M420.296,87.143l-1.073-1.29c-8.303-9.987-5.909-20.295-6.305-23.618c0-3.53-2.313-4.45-5.722-3.478
	c-0.006,0.002-0.012,0.003-0.018,0.005c-27.364,8.98-47.163-0.337-47.163-0.337l2.516,3.469c2.025,2.792,1.089,7.332-4.703,7.693
	c-0.351-0.056-0.163,0.048-2.251-0.076l0,0c-5.11-0.303-18.595-1.984-33.029-11.006l-0.001,0.006
	c-7.89-4.8-11.747-2.144-13.53,0.522c-0.94,1.405-1.394,3.078-1.394,4.769v4.609c0,11.252-7.088,18.249-7.377,18.733
	c-0.008,7.26-0.03,27.467-0.03,29.04c0,31.948,26.88,57.321,59.398,57.605c33.006,0.398,60.714-25.132,60.714-57.605
	C420.32,87.414,420.33,89.354,420.296,87.143z"/>
<path style="fill:#E8C842;" d="M325.513,116.183c0-1.251,0.014-14.299,0.024-23.236c0.004-3.429,1.051-6.753,2.904-9.638
	c2.067-3.219,4.479-8.335,4.479-14.9v-4.489c0-0.001,0-0.003,0-0.004c-3.326-1.42-6.82-3.192-10.373-5.413l-0.001,0.006
	c-7.89-4.8-11.747-2.144-13.53,0.522c-0.94,1.405-1.393,3.078-1.393,4.769v4.609c0,11.252-7.088,18.249-7.377,18.733
	c-0.008,7.26-0.03,27.467-0.03,29.04c0,31.948,26.88,57.321,59.398,57.605c4.546,0.055,8.986-0.399,13.272-1.278
	C346.023,166.976,325.513,144.09,325.513,116.183z"/>
<path d="M130.19,144.276c7.656,14.714,28.507,15.06,36.775,0.988c0.974-1.656-0.215-3.744-2.137-3.744h-32.962
	C130.451,141.518,129.537,143.019,130.19,144.276z"/>
<circle cx="171.84" cy="111.473" r="8.774"/>
<circle cx="125.445" cy="111.473" r="8.774"/>
<path d="M379.514,133.686c0.995-1.693-0.22-3.827-2.184-3.827h-33.693c-1.446,0-2.38,1.534-1.713,2.818
	C349.697,147.654,371.027,148.128,379.514,133.686z"/>
<circle cx="384.503" cy="99.142" r="8.968"/>
<circle cx="337.068" cy="99.142" r="8.969"/>
<path d="M494.597,294.258c-2.829-5.338-0.995-5.796-6.021-19.045c-1.471-3.874-5.804-5.82-9.674-4.353
	c-3.873,1.47-5.822,5.801-4.353,9.674c4.608,12.145,2.698,13.029,6.792,20.749c7.731,14.589,0.932,24.311-6.432,21.253
	c-3.776-1.567-3.878-7.75-3.602-11.294c0.441-5.662-0.44-11.327-2.551-16.386c-8.374-20.049-23.025-41.045-30.201-50.763
	l10.347-10.513c3.799,5.297,7.411,10.835,10.784,16.545c2.107,3.565,6.71,4.752,10.273,2.642c3.566-2.107,4.75-6.707,2.642-10.273
	c-4.063-6.876-8.462-13.514-13.103-19.826c4.139-5.422,2.615-13.121-1.967-16.375c-27.302-18.473-34.385-26.922-47.54-29.451
	l-17.769-3.415c18.41-9.399,31.83-26.773,35.245-47.28c14.62-3.641,23.926-18.55,17.339-32.274c0.022-0.696,0.008-5.24,0.016-13.042
	c0-73.221-92.488-107.7-144.327-56.318c-29.576,29.319-22.835,63.495-23.746,69.332c-6.591,13.691,2.645,28.639,17.316,32.299
	c3.404,20.519,16.857,37.919,35.305,47.315c-15.016,3.56-22.873,2.647-32.328,9.364c-34.786,24.764-33.171,23.458-34.003,24.295
	c-4.202,4.224-4.533,10.908-1.001,15.542c-2.99,4.066-5.766,8.118-8.323,12.099c-2.615-4.147-5.349-8.184-8.175-12.101
	c4.194-5.553,2.466-13.436-2.173-16.512c-29.492-18.677-32.986-23.9-44.953-26.387l-9.846-2.046c3.262-2.34,6.293-4.962,9.065-7.822
	c0.127,0.134,4.76,10.701,16.267,10.701c8.217,0,16.784-7.763,20.964-14.875c4.461-7.598,1.46-17.935-6.689-23.043l-11.667-7.314
	c15.096-4.808,22.648-21.12,13.887-34.29c-0.876-5.426,5.657-38.758-23.826-67.222C154.961-15.98,66.931,19.867,66.931,89.359
	c0,4.886-0.003,6.73-0.012,11.665c-8.878,13.279-1.102,29.571,13.859,34.336l-11.667,7.313c-8.151,5.11-11.151,15.448-6.689,23.043
	c4.167,7.096,12.732,14.875,20.964,14.875c11.494,0,16.139-10.562,16.261-10.693c2.77,2.857,5.8,5.477,9.06,7.816
	c-7.214,1.856-14.527,1.801-23.493,7.73c-32.685,21.688-31.498,20.66-32.532,21.724c-4.103,4.212-4.412,10.883-0.939,15.484
	c-20.98,29.092-30.942,57.422-32.233,64.894c-0.431,2.496-1.173,4.772-2.205,6.759c-8.677,16.701-4.878,30.106,1.571,37.082
	c12.352,13.363,38.414,7.365,36.226-21.306c-0.254-3.327,0.236-6.613,1.417-9.499c7.582-18.517,21.022-38.18,27.712-47.429
	c0.883,0.17,1.788,0.25,2.702,0.227v32.479l-23.259,65.333c-3.7,10.396,1.726,21.76,11.909,25.274
	c4.55,1.57,9.432,2.969,14.56,4.207l-3.016,99.873c-6.231,9.788-5.271,19.542-5.371,20.298c0,6.121,4.94,11.1,11.012,11.1h42.438
	c6.475,0,11.741-5.315,11.741-11.848c-0.094-0.953,0.669-8.134-3.375-16.423l3.514-96.62c0.403,0.002,2.476-0.002,3.112-0.006
	l3.514,96.628c-4.004,8.212-3.285,15.524-3.374,16.421c0,6.533,5.268,11.848,11.741,11.848h42.438c6.072,0,11.012-4.98,11.012-11.1
	v-1.867c0-6.761-1.981-13.106-5.371-18.431l-3.022-100.037c5.348-1.314,10.42-2.808,15.132-4.487
	c9.533-3.396,14.502-13.99,11.075-23.614l-23.02-64.661c0.036-0.468,0.029-34.268,0.029-34.368c0.872,0.018,1.738-0.051,2.689-0.236
	c4.285,5.93,11.411,16.233,17.955,27.744c-2.396,7.314-1.795,9.114-4.051,13.373c-15.454,29.161,6.824,51.42,26.69,41.546
	c19.495,9.817,41.529-12.271,26.347-41.5c-2.23-4.293-1.701-6.176-3.743-12.756c6.796-11.801,14.254-22.37,18.718-28.415
	c0.954,0.191,1.948,0.28,3.011,0.245v55.465c0,4.405,2.174,8.303,5.495,10.7l-5.291,161.007c-6.355,9.794-5.388,19.629-5.485,20.35
	c0,6.121,4.972,11.1,11.082,11.1h43.294c6.522,0,11.826-5.315,11.826-11.848c-0.097-0.964,0.685-8.118-3.438-16.435l5.135-133.635
	h0.373l5.134,133.635c-4.086,8.239-3.349,15.535-3.439,16.435c0,6.533,5.307,11.848,11.827,11.848h43.293
	c6.111,0,11.083-4.98,11.083-11.1c-0.128-0.95,0.99-10.372-5.486-20.351l-1.504-45.784c-0.137-4.141-3.633-7.391-7.743-7.251
	c-4.14,0.136-7.387,3.603-7.251,7.743l1.063,32.378c-9.059-3.664-19.197-2.926-27.399,1.345
	c-5.224-135.98-4.6-119.939-4.669-121.534c-0.391-6.935-6.126-12.366-13.057-12.366h-4.081c-7.224,0-12.915,5.912-13.062,12.5
	l-4.663,121.395c-8.345-4.352-18.488-4.947-27.399-1.339l4.787-145.603h84.76l2.57,78.218c0.137,4.141,3.612,7.373,7.743,7.251
	c4.14-0.136,7.387-3.603,7.251-7.743l-2.636-80.218c3.32-2.397,5.495-6.295,5.495-10.7v-55.465c1.01,0.033,2.004-0.043,3.012-0.246
	c6.802,9.21,20.567,28.925,28.326,47.503c1.199,2.872,1.696,6.137,1.438,9.44c-2.212,28.461,24.354,34.879,36.911,21.082
	C499.645,324.148,503.348,310.771,494.597,294.258z M235.007,233.71c3.524,5.023,6.879,10.258,10.027,15.651
	c-2.81,5.133-5.142,9.836-7.048,13.966c-4.994-7.996-9.737-14.784-12.98-19.253C236.753,231.901,234.668,234.062,235.007,233.71z
	 M158.305,189.796v2.86c0,5.327-4.334,9.661-9.661,9.661c-5.327,0-9.66-4.334-9.66-9.661v-2.859
	c5.663,0.79,10.662,0.661,10.379,0.661C152.351,190.432,155.683,190.162,158.305,189.796z M96.527,125.773
	c0.007-31.081,0.003-26.305,0.008-26.904c6.932-12.959,6.607-12.819,7.545-12.708c9.248,1.182,30.132,1.855,44.565-12.775
	c14.432,14.632,35.314,13.958,44.561,12.775c0.975-0.116,0.681-0.126,7.549,12.709c0.003,0.654,0.002,0.706,0.002,0.807
	c0-0.145,0.004,21.201,0.005,26.198c-0.025,32.892-33.259,56.728-66.475,47.664C112.539,167.583,96.527,148.387,96.527,125.773z
	 M221.929,158.118c-1.887,3.212-4.641,5.797-7.913,7.455c-0.426,0.1-1.891-0.428-2.672-1.869l-3.753-6.926
	c1.311-2.31,2.469-4.689,3.473-7.127l9.145,5.732C221.596,156.254,222.032,157.75,221.929,158.118z M215.762,119.026v-11.924
	C220.217,110.607,220.228,115.511,215.762,119.026z M196.151,44.639c21.385,20.647,19.089,45.023,19.247,45.801
	c-0.798-0.217-1.611-0.399-2.436-0.544l-5.514-10.285c-3.122-5.818-9.613-9.166-16.147-8.331
	c-9.698,1.237-27.296,1.076-36.206-13.963c-2.894-4.889-10-4.907-12.906,0.001c-8.909,15.041-26.512,15.203-36.207,13.962
	c-6.525-0.835-13.021,2.513-16.144,8.332l-5.513,10.284c-0.811,0.142-1.609,0.32-2.393,0.533
	C81.932,31.597,154.72,4.644,196.151,44.639z M81.524,107.102v11.924C77.069,115.52,77.057,110.616,81.524,107.102z M85.942,163.705
	c-0.778,1.438-2.248,1.959-2.621,1.889c-3.323-1.679-6.077-4.263-7.939-7.425c-0.127-0.42,0.31-1.915,1.697-2.785l9.146-5.732
	c1.002,2.438,2.16,4.817,3.471,7.127L85.942,163.705z M93.491,197.957c6.283-4.154,10.146-3.436,30.49-8.096v2.796
	c0,13.599,11.063,24.663,24.662,24.663c13.599,0,24.663-11.064,24.663-24.663v-2.796l22.057,4.584
	c7.6,1.579,9.137,4.543,35.817,21.624l-20.543,21.293c-5.901-5.14-15.286-0.98-15.286,7.037v8.083h-46.367
	c-4.143,0-7.501,3.357-7.501,7.501c0,4.143,3.357,7.501,7.501,7.501h46.367v12.169h-93.415v-12.169h12.044
	c4.143,0,7.501-3.357,7.501-7.501c0-4.143-3.357-7.501-7.501-7.501h-12.045c-0.107-7.395,0.276-8.655-0.43-10.897
	c-1.996-6.344-9.85-8.58-14.855-4.221L66.106,216.07L93.491,197.957z M42.635,294.899c-2.061,5.036-2.922,10.68-2.492,16.324
	c0.22,2.868,0.317,9.714-3.487,11.325c-7.119,3.012-13.522-6.922-6.038-21.328c1.744-3.36,2.98-7.102,3.675-11.12
	c1.055-6.105,9.878-30.599,27.986-56.39l10.004,10.369C65.266,253.771,50.855,274.823,42.635,294.899z M96.864,496.942
	c0.87-8.39,7.191-15.604,15.51-16.598c9.705-1.171,18.72,6.323,19.515,16.598H96.864z M132.093,386.603l-2.991,82.202
	c-8.326-4.311-18.111-4.711-26.571-1.295l2.531-83.829C106.259,383.82,116.45,385.733,132.093,386.603z M165.398,496.942
	c0.838-10.82,10.884-18.753,21.34-16.274c7.242,1.728,12.857,8.306,13.684,16.274H165.398z M194.756,467.509
	c-8.655-3.494-18.442-2.91-26.572,1.298l-2.991-82.245c8.839-0.519,18.31-1.535,27.027-2.995L194.756,467.509z M217.233,361.891
	c-37.776,13.459-98.713,13.519-136.755,0.394c-2.229-0.769-3.589-3.475-2.67-6.062l21.918-61.569h97.134l22.351,62.783
	C219.853,359.242,218.946,361.28,217.233,361.891z M377.714,496.999c0.68-8.506,7.175-15.204,15.193-16.491
	c10.763-1.692,19.765,6.423,20.839,16.491H377.714z M370.828,180.229v9.23c0,5.538-4.504,10.042-10.041,10.042
	c-5.538,0-10.042-4.504-10.042-10.042v-9.227c5.388,0.778,10.132,0.71,10.017,0.71C363.973,180.876,366.675,180.83,370.828,180.229z
	 M428.329,109.413V96.883C433.143,100.53,433.141,105.768,428.329,109.413z M311.058,35.167
	C353.743-7.144,429.821,21.448,429.821,80.83v0.018c-1.656-0.574-3.387-0.996-5.171-1.247c-8.016-11.164,0.855-20.882-8.342-27.183
	c-3.212-2.201-7.353-2.305-10.967-1.13c-23.925,7.849-40.959,0.31-41.63,0.003c-6.442-3.025-13.074,3.806-9.903,10.141
	c-5.679-0.673-15.884-2.821-26.784-9.635c-10.333-6.459-19.222-4.04-23.741,2.718c-5.789,8.65,0.835,15.027-6.39,25.086
	c-1.767,0.248-3.482,0.664-5.126,1.23C291.866,80.353,290.158,55.883,311.058,35.167z M293.215,96.883v12.529
	C288.401,105.766,288.403,100.528,293.215,96.883z M308.217,115.841c0.001-1.573,0.004-15.981,0.006-26.328c0,0,0,0,0-0.001
	c9.583-12.238,6.926-24.565,7.453-26.473c3.941,0.709,19.875,13.598,42.245,13.69c4.899,0.246,10.745-2.533,12.781-8.028
	c8.621,1.493,20.882,2.024,35.219-1.925c0.076,0.484-0.88,12.157,7.401,22.736c0.003,15.45,0.002,11.058,0.005,26.388
	c0,33.47-33.779,56.999-66.745,48.185C324.505,158.174,308.217,138.744,308.217,115.841z M264.015,323.063
	c2.976-9.782-0.572-14.415,2.505-22.134c0.05,0.098,0.099,0.195,0.15,0.292C273.352,314.085,268.806,322.376,264.015,323.063z
	 M253.932,292.206c-7.284,16.416-1.017,23.082-5.416,28.835c-1.73,2.315-6.221,3.226-9.142,0.02
	c-2.814-3.092-4.287-10.128,0.828-19.779c4.907-9.262,1.014-13.342,20.045-48.411c3.526-6.157,7.646-12.681,12.392-19.291
	l10.349,10.514C272.515,258.278,261.082,276.049,253.932,292.206z M307.798,496.999c0.98-9.188,8.494-16.469,17.479-16.716
	c9.671-0.265,17.789,7.157,18.553,16.716H307.798z M408.573,244.406v62.628H312.97v-62.627c0-8.057-9.543-12.237-15.454-6.939
	l-21.185-21.526c29.42-20.418,29.833-22.38,35.889-23.852l23.524-4.591v1.96c0,13.809,11.234,25.044,25.044,25.044
	c13.809,0,25.043-11.234,25.043-25.044v-1.986l21.169,4.068c9.771,2.35,12.95,7.131,38.214,24.4
	c-24.118,24.504,3.72-3.779-21.186,21.524C418.123,232.183,408.573,236.325,408.573,244.406z"/>
<g>
</g>
<g>
</g>
<g>
</g>
<g>
</g>
<g>
</g>
<g>
</g>
<g>
</g>
<g>
</g>
<g>
</g>
<g>
</g>
<g>
</g>
<g>
</g>
<g>
</g>
<g>
</g>
<g>
</g>
</svg>
