<?xml version="1.0" encoding="iso-8859-1"?>
<!-- Generator: Adobe Illustrator 19.0.0, SVG Export Plug-In . SVG Version: 6.00 Build 0)  -->
<svg version="1.1" id="Capa_1" xmlns="http://www.w3.org/2000/svg" xmlns:xlink="http://www.w3.org/1999/xlink" x="0px" y="0px"
	 viewBox="0 0 512 512" style="enable-background:new 0 0 512 512;" xml:space="preserve">
<path style="fill:#E8C842;" d="M22.006,293.252c1.483-2.854,2.456-5.953,3.006-9.137c1.325-7.674,13.388-39.188,36.361-69.202
	l21.055,21.822c-2.499,3.258-23.883,31.203-34.238,56.494c-1.706,4.166-2.342,8.691-1.999,13.195
	c0.474,6.212-0.213,15.829-8.22,19.22C24.231,331.463,10.556,315.291,22.006,293.252z"/>
<path style="fill:#DBBC3B;" d="M25.207,322.966c8.833-3.74,9.591-14.351,9.068-21.202c-0.379-4.97,0.323-9.961,2.205-14.558
	c10.277-25.1,30.392-52.558,36.335-60.435l9.613,9.963c-2.499,3.258-23.883,31.203-34.238,56.494
	c-1.705,4.166-2.342,8.691-1.999,13.195c0.474,6.212-0.213,15.829-8.22,19.22c-5.266,2.23-10.516,1.221-14.353-2.1
	C24.148,323.378,24.677,323.191,25.207,322.966z"/>
<path style="fill:#E8C842;" d="M276.901,293.252c-1.483-2.854-2.456-5.953-3.006-9.137c-1.325-7.674-13.388-39.188-36.361-69.202
	l-21.055,21.822c2.499,3.258,23.883,31.203,34.238,56.494c1.706,4.166,2.342,8.691,1.999,13.195
	c-0.474,6.212,0.213,15.829,8.22,19.22C274.676,331.463,288.351,315.291,276.901,293.252z"/>
<path style="fill:#DBBC3B;" d="M273.7,322.966c-8.833-3.74-9.591-14.351-9.068-21.202c0.379-4.97-0.323-9.961-2.205-14.558
	c-10.277-25.1-30.392-52.558-36.335-60.435l-9.613,9.963c2.499,3.258,23.883,31.203,34.238,56.494
	c1.705,4.166,2.342,8.691,1.999,13.195c-0.474,6.212,0.213,15.829,8.22,19.22c5.266,2.23,10.516,1.221,14.353-2.1
	C274.759,323.378,274.229,323.191,273.7,322.966z"/>
<path style="fill:#ED694A;" d="M242.225,206.007l-31.991-21.157c-8.435-5.579-13.742-4.63-41.286-10.934h-38.636
	c-27.651,6.33-32.856,5.359-41.286,10.934l-31.991,21.157c-1.682,1.725-1.679,4.522-0.006,6.257l25.399,26.323
	c1.333,1.381,3.196,1.887,4.918,1.524c2.278-0.48,3.156-2.092,3.801-2.662c1.11-1.19,3.072-0.388,3.072,1.264v43.698H205.04v-43.698
	c0-0.995,0.73-1.728,1.612-1.822c1.92-0.205,2.426,3.3,6.307,3.334c4.083,0.036,3.347-1.941,29.272-27.961
	C243.905,210.529,243.908,207.732,242.225,206.007z"/>
<path style="fill:#DB4E33;" d="M119.778,282.41h-25.56v-44.525h11.157c7.954,0,14.403,6.448,14.403,14.402V282.41z"/>
<path style="fill:#CC9D72;" d="M146.945,7.572c-40.689,1.359-73.173,33.406-73.173,72.675c0,7.061-0.007,18.37-0.016,23.917
	l151.771-0.245c0.002-9.656,0.004-22.667,0.004-23.672C225.533,38.904,189.676,6.07,146.945,7.572z"/>
<path style="fill:#C19067;" d="M114.066,80.247c0-33.47,23.605-61.678,55.768-70.125c-7.27-1.92-14.96-2.829-22.888-2.55
	c-40.689,1.359-73.173,33.406-73.173,72.675c0,7.061-0.007,18.37-0.016,23.917l40.293-0.065
	C114.059,98.53,114.066,87.282,114.066,80.247z"/>
<path style="fill:#E8C842;" d="M97.689,369.899L94.35,487.524c11.281-15.179,33.274-13.216,42.35,2.601h0.011l3.941-115.405
	C125.116,374.258,110.548,372.564,97.689,369.899z"/>
<path style="fill:#DBBC3B;" d="M118.846,373.205c-7.437-0.822-14.528-1.932-21.158-3.305l-3.339,117.625
	c5.534-7.446,13.645-10.757,21.545-10.341L118.846,373.205z"/>
<path style="fill:#E8C842;" d="M158.608,374.7l3.942,115.425h0.011c9.082-15.828,31.075-17.771,42.35-2.601l-3.344-117.776
	C188.73,372.457,174.163,374.198,158.608,374.7z"/>
<path style="fill:#DBBC3B;" d="M179.205,373.252c-6.617,0.719-13.496,1.218-20.596,1.447l3.942,115.425h0.011
	c4.51-7.862,12.207-12.293,20.194-12.908L179.205,373.252z"/>
<g>
	<path style="fill:#E8C842;" d="M229.335,104.476c0,9.08-9.189,16.439-18.922,16.439V88.038
		C220.146,88.038,229.335,95.397,229.335,104.476z"/>
	<path style="fill:#E8C842;" d="M69.924,104.476c0,9.08,9.238,16.439,19.023,16.439V88.038
		C79.162,88.038,69.924,95.397,69.924,104.476z"/>
</g>
<g>
	<path style="fill:#DBBC3B;" d="M210.413,107.001v13.913c9.733,0,18.922-7.359,18.922-16.439c0-2.49-0.71-4.842-1.914-6.957
		C224.236,103.116,217.477,107.001,210.413,107.001z"/>
	<path style="fill:#DBBC3B;" d="M71.849,97.519c-1.21,2.115-1.924,4.466-1.924,6.957c0,9.08,9.238,16.439,19.023,16.439v-13.913
		C81.846,107.001,75.051,103.116,71.849,97.519z"/>
</g>
<path style="fill:#E8C842;" d="M132.088,169.452v16.375c0,9.688,7.854,17.541,17.543,17.541s17.542-7.853,17.542-17.541v-16.375
	C155.761,172.736,143.507,172.739,132.088,169.452z"/>
<path style="fill:#DBBC3B;" d="M149.63,185.827v-13.91c-5.917,0-11.833-0.821-17.543-2.464v16.375
	c0,9.687,7.854,17.541,17.543,17.541c3.199,0,6.189-0.87,8.771-2.365C153.163,197.967,149.63,192.315,149.63,185.827z"/>
<path style="fill:#656566;" d="M113.858,472.082c-13.972,0.393-24.931,12.501-24.931,26.826v1.908c0,2.031,1.607,3.678,3.589,3.678
	h43.379c2.394,0,4.334-1.989,4.334-4.442v-1.691C140.229,483.597,128.353,471.674,113.858,472.082z"/>
<path style="fill:#545456;" d="M109.204,500.816v-1.908c0-10.911,6.361-20.529,15.565-24.671c-3.331-1.48-7.026-2.264-10.912-2.155
	c-13.972,0.393-24.931,12.501-24.931,26.826v1.908c0,2.031,1.607,3.678,3.589,3.678h20.277
	C110.811,504.495,109.204,502.849,109.204,500.816z"/>
<rect x="94.221" y="254.644" style="fill:#DB4E33;" width="110.822" height="27.771"/>
<rect x="94.221" y="254.644" style="fill:#CC402E;" width="25.56" height="27.77"/>
<path style="fill:#ED694A;" d="M205.041,282.41H94.219L70,350.432c-2.326,6.535,1.018,13.794,7.452,16.014
	c40.696,14.038,104.73,13.871,144.863-0.429c5.743-2.046,8.755-8.49,6.672-14.343L205.041,282.41z"/>
<path style="fill:#DB4E33;" d="M102.54,372.257c-6.434-2.372-9.778-10.134-7.451-17.121l24.219-72.726h-25.09L70,350.432
	c-2.326,6.535,1.018,13.794,7.452,16.014c8.578,2.959,18.201,5.28,28.41,6.977C104.742,373.043,103.629,372.658,102.54,372.257z"/>
<path style="fill:#F4D44E;" d="M210.54,88.011c0.02,0.017-4.43-8.277-7.557-14.102c-1.707-3.18-5.195-4.994-8.775-4.535
	c-10.573,1.352-33.003,1.57-44.578-17.968l0,0l0,0l0,0l0,0c-11.576,19.538-34.006,19.32-44.579,17.968
	c-3.58-0.458-7.068,1.355-8.775,4.535c-3.126,5.824-7.576,14.119-7.557,14.102c0.063-0.055-0.03-2.2-0.03,29.52
	c0,32.698,27.944,58.787,61.608,58.381c32.938-0.288,60.272-25.971,60.272-58.447C210.563,85.301,210.438,87.922,210.54,88.011z"/>
<g>
	<path style="fill:#E8C842;" d="M88.726,88c0,0.001-0.006,0.011-0.006,0.011C88.723,88.01,88.724,88.005,88.726,88z"/>
	<path style="fill:#E8C842;" d="M114.507,117.531c0-23.035,0.049-40.062,0.052-47.643c-3.652,0.074-6.933-0.185-9.507-0.514
		c-3.58-0.458-7.068,1.355-8.775,4.535c-3.046,5.676-7.338,13.674-7.537,14.064c0.016,0.173-0.05,2.951-0.05,29.557
		c0,32.698,27.944,58.787,61.608,58.381c4.194-0.037,8.297-0.49,12.264-1.312C135.274,168.971,114.507,145.714,114.507,117.531z"/>
	<path style="fill:#E8C842;" d="M88.726,88c0.001-0.002,0.01-0.019,0.014-0.026C88.737,87.948,88.733,87.981,88.726,88z"/>
</g>
<path style="fill:#656566;" d="M183.961,472.082c-13.972,0.393-24.931,12.501-24.931,26.826v1.908c0,2.031,1.607,3.678,3.589,3.678
	h43.378c2.394,0,4.334-1.989,4.334-4.442v-1.691C210.333,483.597,198.457,471.674,183.961,472.082z"/>
<path style="fill:#545456;" d="M179.308,500.816v-1.908c0-10.911,6.361-20.529,15.565-24.671c-3.331-1.48-7.026-2.264-10.912-2.155
	c-13.972,0.393-24.931,12.501-24.931,26.826v1.908c0,2.031,1.607,3.678,3.589,3.678h20.277
	C180.915,504.495,179.308,502.849,179.308,500.816z"/>
<path style="fill:#E8C842;" d="M235.1,293.252c1.483-2.854,2.456-5.953,3.006-9.137c1.325-7.674,13.388-39.188,36.361-69.202
	l21.055,21.822c-2.499,3.258-23.883,31.203-34.238,56.494c-1.706,4.166-2.342,8.691-1.999,13.195
	c0.474,6.212-0.213,15.829-8.22,19.22C237.325,331.463,223.649,315.291,235.1,293.252z"/>
<path style="fill:#DBBC3B;" d="M238.301,322.966c8.833-3.74,9.591-14.351,9.068-21.202c-0.379-4.97,0.323-9.961,2.205-14.558
	c10.277-25.1,30.392-52.558,36.335-60.435l9.613,9.963c-2.499,3.258-23.883,31.203-34.238,56.494
	c-1.705,4.166-2.342,8.691-1.999,13.195c0.474,6.212-0.213,15.829-8.22,19.22c-5.266,2.23-10.516,1.221-14.353-2.1
	C237.242,323.378,237.771,323.191,238.301,322.966z"/>
<path style="fill:#E8C842;" d="M489.995,293.252c-1.483-2.854-2.456-5.953-3.006-9.137c-1.325-7.674-13.388-39.188-36.361-69.202
	l-21.055,21.822c2.499,3.258,23.883,31.203,34.238,56.494c1.706,4.166,2.342,8.691,1.999,13.195
	c-0.474,6.212,0.213,15.829,8.22,19.22C487.77,331.463,501.445,315.291,489.995,293.252z"/>
<path style="fill:#DBBC3B;" d="M486.794,322.966c-8.833-3.74-9.591-14.351-9.068-21.202c0.379-4.97-0.323-9.961-2.205-14.558
	c-10.277-25.1-30.392-52.558-36.335-60.435l-9.613,9.963c2.499,3.258,23.883,31.203,34.238,56.494
	c1.705,4.166,2.342,8.691,1.999,13.195c-0.474,6.212,0.213,15.829,8.22,19.22c5.266,2.23,10.516,1.221,14.353-2.1
	C487.853,323.378,487.323,323.191,486.794,322.966z"/>
<path style="fill:#F96989;" d="M455.319,206.007l-31.991-21.157c-8.435-5.579-13.742-4.63-41.286-10.934h-38.636
	c-27.651,6.33-32.855,5.359-41.286,10.934l-31.991,21.157c-1.682,1.725-1.679,4.522-0.006,6.257l25.399,26.323
	c1.333,1.381,3.196,1.887,4.918,1.524c2.278-0.48,3.156-2.092,3.801-2.662c1.11-1.19,3.072-0.388,3.072,1.264v43.698h110.822
	v-43.698c0-0.995,0.73-1.728,1.612-1.822c1.92-0.205,2.426,3.3,6.307,3.334c4.083,0.036,3.347-1.941,29.272-27.961
	C456.999,210.529,457.001,207.732,455.319,206.007z"/>
<path style="fill:#ED5A81;" d="M332.872,282.41h-25.56v-44.525h11.157c7.954,0,14.403,6.448,14.403,14.402V282.41z"/>
<path style="fill:#CC9D72;" d="M421.046,130.098l17.711,11.1c4.764,2.985,6.735,9.028,4.298,13.175l0,0
	c-2.686,4.572-6.562,8.21-11.295,10.601c-4.294,2.169-10.2-0.18-12.878-5.123l-5.947-10.974
	C416.707,143.218,419.489,136.885,421.046,130.098z"/>
<path style="fill:#C19067;" d="M432.433,152.615c2.79,2.696,3.975,6.542,3.377,9.835c-1.269,0.946-2.615,1.799-4.051,2.524
	c-4.294,2.169-10.2-0.18-12.878-5.123l-5.947-10.974c2.088-3.132,3.86-6.477,5.302-9.984L432.433,152.615z"/>
<path style="fill:#CC9D72;" d="M304.048,130.098l-17.711,11.1c-4.764,2.985-6.735,9.028-4.298,13.175l0,0
	c2.686,4.572,6.562,8.21,11.295,10.601c4.294,2.169,10.2-0.18,12.878-5.123l5.947-10.974
	C308.388,143.218,305.605,136.885,304.048,130.098z"/>
<path style="fill:#C19067;" d="M292.661,152.615c-2.79,2.696-3.975,6.542-3.377,9.835c1.269,0.946,2.615,1.799,4.051,2.524
	c4.294,2.169,10.2-0.18,12.878-5.123l5.947-10.974c-2.088-3.132-3.86-6.477-5.302-9.984L292.661,152.615z"/>
<path style="fill:#CC9D72;" d="M360.039,7.572c-40.689,1.359-73.173,33.406-73.173,72.675c0,7.061-0.007,18.37-0.016,23.917
	l151.771-0.245c0.002-9.656,0.004-22.667,0.004-23.672C438.627,38.904,402.77,6.07,360.039,7.572z"/>
<path style="fill:#C19067;" d="M327.16,80.247c0-33.47,23.605-61.678,55.768-70.125c-7.27-1.92-14.96-2.829-22.888-2.55
	c-40.689,1.359-73.173,33.406-73.173,72.675c0,7.061-0.007,18.37-0.016,23.917l40.293-0.065
	C327.153,98.53,327.16,87.282,327.16,80.247z"/>
<path style="fill:#E8C842;" d="M310.783,369.899l-3.339,117.625c11.281-15.179,33.274-13.216,42.35,2.601h0.011l3.941-115.405
	C338.21,374.258,323.642,372.564,310.783,369.899z"/>
<path style="fill:#DBBC3B;" d="M331.94,373.205c-7.437-0.822-14.528-1.932-21.158-3.305l-3.339,117.625
	c5.534-7.446,13.645-10.757,21.545-10.341L331.94,373.205z"/>
<path style="fill:#E8C842;" d="M371.702,374.7l3.942,115.425h0.011c9.082-15.828,31.075-17.771,42.35-2.601l-3.344-117.776
	C401.823,372.457,387.257,374.198,371.702,374.7z"/>
<path style="fill:#DBBC3B;" d="M392.299,373.252c-6.617,0.719-13.496,1.218-20.596,1.447l3.942,115.425h0.011
	c4.51-7.862,12.207-12.293,20.193-12.908L392.299,373.252z"/>
<g>
	<path style="fill:#E8C842;" d="M442.429,104.476c0,9.08-9.189,16.439-18.922,16.439V88.038
		C433.24,88.038,442.429,95.397,442.429,104.476z"/>
	<path style="fill:#E8C842;" d="M283.018,104.476c0,9.08,9.238,16.439,19.023,16.439V88.038
		C292.256,88.038,283.018,95.397,283.018,104.476z"/>
</g>
<g>
	<path style="fill:#DBBC3B;" d="M423.507,107.001v13.913c9.733,0,18.922-7.359,18.922-16.439c0-2.49-0.71-4.842-1.914-6.957
		C437.328,103.116,430.571,107.001,423.507,107.001z"/>
	<path style="fill:#DBBC3B;" d="M284.942,97.519c-1.21,2.115-1.924,4.466-1.924,6.957c0,9.08,9.238,16.439,19.023,16.439v-13.913
		C294.94,107.001,288.145,103.116,284.942,97.519z"/>
</g>
<path style="fill:#E8C842;" d="M345.182,169.452v16.375c0,9.688,7.854,17.541,17.543,17.541c9.689,0,17.542-7.853,17.542-17.541
	v-16.375C368.855,172.736,356.601,172.739,345.182,169.452z"/>
<path style="fill:#DBBC3B;" d="M362.723,185.827v-13.91c-5.917,0-11.833-0.821-17.543-2.464v16.375
	c0,9.687,7.854,17.541,17.543,17.541c3.199,0,6.189-0.87,8.771-2.365C366.257,197.967,362.723,192.315,362.723,185.827z"/>
<path style="fill:#656566;" d="M326.952,472.082c-13.972,0.393-24.931,12.501-24.931,26.826v1.908c0,2.031,1.607,3.678,3.589,3.678
	h43.379c2.394,0,4.334-1.989,4.334-4.442v-1.691C353.323,483.597,341.447,471.674,326.952,472.082z"/>
<path style="fill:#545456;" d="M322.298,500.816v-1.908c0-10.911,6.361-20.529,15.565-24.671c-3.331-1.48-7.026-2.264-10.912-2.155
	c-13.972,0.393-24.931,12.501-24.931,26.826v1.908c0,2.031,1.607,3.678,3.589,3.678h20.277
	C323.905,504.495,322.298,502.849,322.298,500.816z"/>
<rect x="307.313" y="254.644" style="fill:#ED5A81;" width="110.822" height="27.771"/>
<rect x="307.313" y="254.644" style="fill:#DD4A78;" width="25.56" height="27.77"/>
<path style="fill:#F96989;" d="M418.135,282.41H307.313l-24.219,68.022c-2.327,6.535,1.018,13.794,7.452,16.014
	c40.696,14.038,104.73,13.871,144.863-0.429c5.742-2.046,8.755-8.49,6.672-14.343L418.135,282.41z"/>
<path style="fill:#ED5A81;" d="M315.634,372.257c-6.434-2.372-9.778-10.134-7.451-17.121l24.219-72.726h-25.089l-24.219,68.022
	c-2.326,6.535,1.018,13.794,7.452,16.014c8.578,2.959,18.201,5.28,28.41,6.977C317.836,373.043,316.722,372.658,315.634,372.257z"/>
<path style="fill:#F4D44E;" d="M423.634,88.011c0.02,0.017-4.43-8.277-7.557-14.102c-1.707-3.18-5.195-4.994-8.775-4.535
	c-10.573,1.352-33.003,1.57-44.578-17.968l0,0l0,0l0,0l0,0c-11.576,19.538-34.006,19.32-44.579,17.968
	c-3.58-0.458-7.068,1.355-8.775,4.535c-3.126,5.824-7.576,14.119-7.557,14.102c0.063-0.055-0.03-2.2-0.03,29.52
	c0,32.698,27.944,58.787,61.608,58.381c32.938-0.288,60.272-25.971,60.272-58.447C423.657,85.301,423.531,87.922,423.634,88.011z"/>
<g>
	<path style="fill:#E8C842;" d="M301.82,88c0,0.001-0.006,0.011-0.006,0.011C301.816,88.01,301.818,88.005,301.82,88z"/>
	<path style="fill:#E8C842;" d="M327.601,117.531c0-23.035,0.049-40.062,0.052-47.643c-3.652,0.074-6.933-0.185-9.507-0.514
		c-3.58-0.458-7.068,1.355-8.775,4.535c-3.046,5.676-7.338,13.674-7.537,14.064c0.016,0.173-0.05,2.951-0.05,29.557
		c0,32.698,27.944,58.787,61.608,58.381c4.194-0.037,8.297-0.49,12.264-1.312C348.367,168.971,327.601,145.714,327.601,117.531z"/>
	<path style="fill:#E8C842;" d="M301.82,88c0.001-0.002,0.01-0.019,0.014-0.026C301.831,87.948,301.827,87.981,301.82,88z"/>
</g>
<path style="fill:#656566;" d="M397.055,472.082c-13.971,0.393-24.931,12.501-24.931,26.826v1.908c0,2.031,1.607,3.678,3.589,3.678
	h43.378c2.394,0,4.334-1.989,4.334-4.442v-1.691C423.427,483.597,411.551,471.674,397.055,472.082z"/>
<path style="fill:#545456;" d="M392.402,500.816v-1.908c0-10.911,6.361-20.529,15.565-24.671c-3.331-1.48-7.026-2.264-10.912-2.155
	c-13.971,0.393-24.931,12.501-24.931,26.826v1.908c0,2.031,1.607,3.678,3.589,3.678h20.277
	C394.009,504.495,392.402,502.849,392.402,500.816z"/>
<path d="M130.661,136.339c7.806,15.018,29.126,15.414,37.59,1.009c0.995-1.693-0.22-3.827-2.184-3.827h-33.693
	C130.927,133.522,129.994,135.056,130.661,136.339z"/>
<circle cx="173.239" cy="102.808" r="8.968"/>
<circle cx="125.814" cy="102.808" r="8.968"/>
<path d="M496.581,289.774c-1.063-2.045-1.827-4.386-2.271-6.957c-1.318-7.634-11.512-36.611-32.989-66.36
	c4.28-5.545,2.635-13.592-2.11-16.736c-30.065-19.044-33.701-24.415-45.892-26.948l-10.442-2.17
	c3.507-2.486,6.761-5.286,9.717-8.356c0.123,0.131,4.906,11.049,16.588,11.049c8.337,0,17.045-7.904,21.285-15.122
	c4.517-7.689,1.476-18.155-6.781-23.331l-12.23-7.666c15.427-4.693,23.493-21.38,14.422-34.954l0.003-12.017
	c0-72.163-91.537-107.11-143.213-55.886c-29.099,28.846-22.676,62.289-23.56,67.858c-9.079,13.52-1.133,30.277,14.394,35
	l-12.231,7.666c-8.257,5.176-11.298,15.642-6.781,23.331c4.249,7.235,12.961,15.122,21.285,15.122
	c11.768,0,16.435-10.882,16.583-11.04c2.955,3.068,6.207,5.866,9.712,8.35c-7.746,1.986-15.14,1.877-24.334,7.957
	c-33.335,22.117-32.166,21.096-33.225,22.179c-4.17,4.277-4.464,11.073-0.878,15.717c-2.723,3.772-5.264,7.53-7.629,11.235
	c-2.456-3.844-5.009-7.591-7.637-11.232c4.303-5.57,2.612-13.612-2.108-16.739l-31.991-21.158
	c-9.271-6.134-16.907-6.054-24.344-7.96c14.289-10.128,24.392-25.464,27.228-43.051c16.214-4.045,25.137-21.316,15.772-35.33
	l0.003-12.017c0-72.516-91.706-106.942-143.212-55.886C60.613,53.165,67.037,86.608,66.153,92.177
	c-9.358,13.935-0.596,31.291,15.734,35.372c2.824,17.58,12.931,32.922,27.228,43.056c-7.746,1.986-15.14,1.877-24.334,7.957
	c-33.537,22.252-32.2,21.13-33.222,22.178c-4.172,4.276-4.466,11.072-0.88,15.717c-21.477,29.749-31.67,58.727-32.989,66.361
	c-0.443,2.568-1.208,4.91-2.271,6.957C6.59,306.77,10.447,320.4,17,327.49c12.539,13.563,38.955,7.376,36.741-21.653
	c-0.262-3.427,0.243-6.812,1.46-9.784c7.781-19.003,21.597-39.191,28.417-48.612c0.978,0.197,1.98,0.292,2.993,0.255v33.4
	l-23.784,66.809c-3.752,10.537,1.749,22.059,12.07,25.621c4.687,1.616,9.715,3.057,15,4.328l-3.09,102.265
	c-6.366,9.971-5.392,19.97-5.489,20.7c0,6.165,4.976,11.18,11.09,11.18h43.378c6.526,0,11.836-5.358,11.836-11.943
	c-0.097-0.987,0.69-8.287-3.451-16.75l3.599-98.969c0.465,0.002,2.797-0.002,3.5-0.006l3.601,98.976
	c-4.101,8.384-3.36,15.833-3.451,16.75c0,6.586,5.31,11.943,11.835,11.943h43.379c6.115,0,11.09-5.016,11.09-11.18
	c-0.128-0.962,0.998-10.542-5.49-20.702l-3.094-102.43c5.51-1.349,10.732-2.886,15.582-4.615
	c9.658-3.441,14.692-14.176,11.22-23.927l-9.452-26.549c6.151,11.458,19.185,14.776,29.513,8.909
	c9.406,5.345,21.151,3.096,27.821-6.205l-8.046,22.602c-3.756,10.547,1.758,22.063,12.07,25.622
	c4.685,1.616,9.714,3.057,14.999,4.328l-0.662,21.926c-0.124,4.141,3.131,7.6,7.272,7.724c4.157,0.125,7.599-3.131,7.724-7.271
	l0.585-19.369c8.148,1.345,17.752,2.451,27.963,3.023l-3.072,84.453c-8.258-4.366-18.436-5.086-27.492-1.344l0.959-31.759
	c0.125-4.141-3.131-7.599-7.272-7.725c-4.182-0.096-7.6,3.131-7.724,7.272l-1.37,45.333c-6.367,9.971-5.392,19.968-5.49,20.702
	c0,6.165,4.976,11.18,11.09,11.18h43.379c6.526,0,11.835-5.358,11.835-11.943c-0.096-0.973,0.682-8.302-3.45-16.749l3.599-98.971
	c0.465,0.002,2.797-0.002,3.5-0.006l3.6,98.978c-4.093,8.367-3.363,15.862-3.45,16.748c0,6.586,5.31,11.943,11.835,11.943h43.379
	c6.115,0,11.09-5.016,11.09-11.18c-0.128-0.962,0.998-10.542-5.49-20.702l-3.094-102.431c5.51-1.349,10.732-2.886,15.582-4.615
	c9.657-3.44,14.69-14.174,11.22-23.926l-5.844-16.413c-1.389-3.901-5.677-5.939-9.582-4.55c-3.902,1.389-5.94,5.68-4.55,9.582
	l5.843,16.412c0.687,1.928-0.285,4.108-2.122,4.765c-38.311,13.652-100.643,13.948-139.898,0.403
	c-1.536-0.53-2.303-1.725-2.622-2.39c-1.765-3.672-0.45-1.716,22.233-67.063h99.524l5.276,14.819c1.389,3.903,5.684,5.94,9.582,4.55
	c3.902-1.389,5.94-5.68,4.55-9.582l-5.932-16.661c0.049-0.587,0.032,2.146,0.032-35.325c0.936,0.039,1.965-0.039,2.995-0.249
	c6.82,9.421,20.631,29.601,28.413,48.608c1.218,2.974,1.723,6.358,1.461,9.785c-2.214,29.033,24.181,35.241,36.741,21.653
	C501.553,320.399,505.41,306.769,496.581,289.774z M309.365,496.995c1.313-13.898,15.683-21.703,27.067-14.934
	c5.166,3.067,8.668,8.624,9.097,14.934H309.365z M379.425,496.995c0.6-8.814,7.159-15.999,15.567-17.231
	c10.796-1.546,19.625,6.946,20.597,17.231H379.425z M409.786,466.994c-8.781-3.628-18.95-3.173-27.492,1.345l-3.073-84.493
	c8.876-0.506,18.84-1.564,27.959-3.099L409.786,466.994z M372.518,182.678v3.116c0,5.538-4.504,10.042-10.042,10.042
	c-5.537,0-10.041-4.504-10.041-10.042v-3.115C359.168,183.64,366.118,183.591,372.518,182.678z M309.039,117.426
	c0.001-2.826-0.003,10.218,0.009-27.544c7.021-13.125,6.752-13.255,7.9-13.111c9.447,1.207,30.824,1.895,45.53-13.132
	c14.704,15.028,36.081,14.342,45.53,13.132c1.158-0.142,0.901,0.041,7.9,13.113c0.006,0.801,0.002,0.674,0.008,27.608
	c0,23.939-17.449,43.667-39.953,49.247C342.766,175.005,309.039,151.306,309.039,117.426z M437.531,150.575
	c-1.944,3.31-4.783,5.975-8.189,7.696c-0.403,0.124-2.04-0.367-2.921-1.992l-3.88-7.161c1.388-2.437,2.609-4.95,3.66-7.529
	l9.516,5.965C437.284,148.536,437.672,150.198,437.531,150.575z M430.918,110.861v-12.85
	C435.918,101.728,435.919,107.145,430.918,110.861z M313.228,34.973c42.227-41.86,117.651-13.707,117.651,45.232v1.322
	c-0.904-0.253-1.826-0.46-2.765-0.622l-5.674-10.583c-3.158-5.89-9.722-9.28-16.336-8.432c-9.952,1.273-28.02,1.1-37.175-14.354
	c-2.898-4.895-10.003-4.9-12.906,0.001c-9.153,15.452-27.22,15.627-37.172,14.353c-6.607-0.848-13.178,2.541-16.336,8.43
	l-5.675,10.585c-0.923,0.159-1.831,0.362-2.72,0.61C294.123,62.648,301.023,47.073,313.228,34.973z M294.037,98.011v12.85
	C289.035,107.145,289.035,101.729,294.037,98.011z M298.533,156.278c-0.881,1.624-2.508,2.121-2.901,2.001
	c-3.425-1.73-6.264-4.394-8.198-7.686c-0.15-0.396,0.237-2.059,1.804-3.041l9.516-5.965c1.052,2.579,2.272,5.093,3.66,7.529
	L298.533,156.278z M314.688,187.46l22.745-4.728v3.062c0,13.809,11.234,25.044,25.043,25.044c13.809,0,25.044-11.234,25.044-25.044
	v-3.062c20.978,4.805,24.961,4.065,31.423,8.342l28.158,18.624l-21.248,22.023c-5.928-5.34-15.467-1.111-15.467,6.963v8.429h-95.821
	c-0.112-8.023,0.278-8.99-0.433-11.258c-2.015-6.402-10.012-8.654-15.033-4.133c-1.045-1.083-22.05-22.853-21.249-22.023
	C277.851,209.698,306.861,189.086,314.688,187.46z M237.822,227.498c3.337,4.749,6.53,9.689,9.549,14.778
	c-2.946,5.395-5.394,10.355-7.387,14.693c-4.875-7.729-9.465-14.282-12.62-18.63L237.822,227.498z M159.566,182.678v3.115
	c0,5.538-4.504,10.042-10.041,10.042c-5.538,0-10.042-4.504-10.042-10.042v-3.115c5.5,0.786,10.324,0.703,10.214,0.703
	c0.101,0,0.662-0.001,0.562-0.001C150.371,183.375,154.712,183.37,159.566,182.678z M217.965,110.861v-12.85
	C222.964,101.727,222.966,107.143,217.965,110.861z M198.2,34.373c12.72,12.28,19.725,28.557,19.725,45.831v1.322
	c-0.903-0.253-1.826-0.46-2.764-0.622l-5.674-10.585c-3.159-5.888-9.731-9.269-16.336-8.43c-9.954,1.273-28.02,1.1-37.173-14.353
	c-2.9-4.894-10.004-4.903-12.906-0.001c-9.155,15.455-27.221,15.626-37.174,14.354c-6.605-0.849-13.176,2.542-16.336,8.43
	l-5.675,10.586c-0.923,0.159-1.831,0.362-2.72,0.61C81.176,21.068,155.735-6.622,198.2,34.373z M81.083,98.011v12.85
	C76.082,107.145,76.082,101.729,81.083,98.011z M96.085,117.426c0.006-25.528,0.005-26.739,0.008-27.542
	c7.067-13.205,6.755-13.258,7.902-13.113c9.447,1.207,30.824,1.895,45.529-13.132c14.704,15.028,36.08,14.342,45.53,13.132
	c1.116-0.138,0.858-0.043,7.9,13.111c0.007,0.917,0.004,20.285,0.009,27.61c0,29.902-26.866,52.763-57.183,50.762
	C118.418,166.478,96.085,144.555,96.085,117.426z M101.734,187.46l22.745-4.728v3.062c0,13.809,11.234,25.044,25.044,25.044
	c13.809,0,25.043-11.234,25.043-25.044v-3.062c20.978,4.805,24.961,4.065,31.423,8.342l28.159,18.624L212.9,231.721
	c-5.015-4.515-13.013-2.283-15.038,4.145c-0.284,0.908-0.429,1.856-0.429,2.817v8.429h-95.821v-8.429
	c0-0.959-0.145-1.907-0.431-2.82c-1.107-3.531-4.202-6.067-7.894-6.461c-2.624-0.276-5.189,0.56-7.143,2.319l-21.248-22.024
	C92.373,192.108,93.908,189.086,101.734,187.46z M41.319,290.367c-2.097,5.124-2.973,10.866-2.535,16.608
	c0.281,3.687,0.179,10.116-3.666,11.744c-7.376,3.127-14.152-7.081-6.385-22.03c1.775-3.42,3.034-7.229,3.74-11.319
	c1.081-6.263,10.144-31.423,28.751-57.873l10.462,10.846C64.549,248.191,49.746,269.786,41.319,290.367z M96.412,496.995
	c1.125-11.904,12.399-20.436,23.871-16.427c6.722,2.364,11.767,8.707,12.293,16.427H96.412z M129.706,468.337
	c-8.975-4.746-19.151-4.79-27.492-1.343l2.602-86.132c8.421,1.39,17.928,2.461,27.962,3.023L129.706,468.337z M166.472,496.995
	c0.233-3.426,1.335-6.571,3.175-9.31c9.261-13.849,31.252-9.059,32.989,9.31H166.472z M196.833,466.994
	c-8.87-3.665-19.04-3.125-27.491,1.344l-3.074-84.493c9.476-0.541,19.521-1.679,27.96-3.099L196.833,466.994z M219.69,358.938
	c-38.629,13.765-100.977,13.832-139.898,0.403c-2.378-0.821-3.799-3.688-2.831-6.409l22.443-63.044h15.075
	c4.143,0,7.501-3.357,7.501-7.501c0-4.143-3.357-7.501-7.501-7.501h-12.865v-12.772h95.821v12.772h-47.951
	c-4.143,0-7.501,3.357-7.501,7.501c0,4.143,3.357,7.501,7.501,7.501h49.443l22.886,64.286
	C222.498,356.102,221.527,358.282,219.69,358.938z M228.373,289.774c-5.061,9.74-5.949,18.372-4.555,25.304l-11.413-32.059
	c0.05-0.594,0.019-5.344,0.032-35.328c0.936,0.039,1.967-0.039,2.998-0.249c4.237,5.85,11.063,15.708,17.56,26.961
	C229.969,283.357,230.764,285.168,228.373,289.774z M241.686,296.689c1.775-3.42,3.034-7.229,3.74-11.319
	c1.959-11.349,15.88-39.577,28.75-57.873l10.463,10.846c-10.971,15.141-23.281,34.719-30.366,52.024
	c-5.06,12.357-0.514,20.112-3.825,26.087c-0.525,0.978-1.352,1.833-2.377,2.268C240.695,321.847,233.919,311.639,241.686,296.689z
	 M265.513,319.202c3.775-12.419-1.714-13.07,3.526-25.249c0.39,0.937,0.816,1.849,1.277,2.736
	C277.694,310.895,271.9,320.396,265.513,319.202z M288.658,311.73c0.539-6.291-0.755-13.727-5.03-21.955
	c-2.481-4.778-1.549-6.343-4.602-15.416c6.473-11.2,13.337-21.109,17.545-26.92c0.981,0.198,1.983,0.293,2.992,0.254
	c0,12.938,0,12.997,0,33.4L288.658,311.73z M314.566,274.887v-12.772h95.821v12.772H314.566z M476.884,318.72
	c-3.845-1.628-3.947-8.058-3.666-11.744c0.438-5.742-0.438-11.484-2.536-16.609c-8.429-20.587-23.229-42.176-30.367-52.025
	l10.463-10.845c18.607,26.45,27.67,51.611,28.751,57.872c0.707,4.094,1.966,7.903,3.741,11.32v-0.001
	C491.04,311.649,484.268,321.853,476.884,318.72z"/>
<path d="M343.614,136.339c7.767,14.943,29.074,15.501,37.59,1.009c0.995-1.693-0.22-3.827-2.184-3.827h-33.693
	C343.881,133.522,342.947,135.056,343.614,136.339z"/>
<circle cx="386.192" cy="102.808" r="8.968"/>
<circle cx="338.767" cy="102.808" r="8.968"/>
<g>
</g>
<g>
</g>
<g>
</g>
<g>
</g>
<g>
</g>
<g>
</g>
<g>
</g>
<g>
</g>
<g>
</g>
<g>
</g>
<g>
</g>
<g>
</g>
<g>
</g>
<g>
</g>
<g>
</g>
</svg>
