<?xml version="1.0" encoding="iso-8859-1"?>
<!-- Generator: Adobe Illustrator 19.0.0, SVG Export Plug-In . SVG Version: 6.00 Build 0)  -->
<svg version="1.1" id="Capa_1" xmlns="http://www.w3.org/2000/svg" xmlns:xlink="http://www.w3.org/1999/xlink" x="0px" y="0px"
	 viewBox="0 0 512 512" style="enable-background:new 0 0 512 512;" xml:space="preserve">
<path style="fill:#FCCA00;" d="M478.845,421.123H33.156c-14.112,0-25.552-11.44-25.552-25.552V116.43
	c0-14.112,11.44-25.552,25.552-25.552h445.688c14.112,0,25.552,11.44,25.552,25.552v279.141
	C504.396,409.682,492.957,421.123,478.845,421.123z"/>
<rect x="7.607" y="150.427" style="fill:#241122;" width="496.792" height="65.394"/>
<g>
	<polygon style="fill:#2C2A38;" points="356.882,150.432 312.982,215.826 219.707,215.826 263.607,150.432 	"/>
	<polygon style="fill:#2C2A38;" points="445.007,150.432 401.107,215.826 345.426,215.826 389.326,150.432 	"/>
</g>
<rect x="86.411" y="277.068" style="fill:#FEFFFF;" width="339.177" height="94.989"/>
<path d="M478.845,83.273h-94.473c-4.199,0-7.604,3.405-7.604,7.604l0,0c0,4.199,3.405,7.604,7.604,7.604h94.473
	c9.913,0,17.947,8.036,17.947,17.947v26.402H15.208v-26.402c0-9.913,8.036-17.947,17.947-17.947h315.73
	c4.199,0,7.604-3.405,7.604-7.604l0,0c0-4.199-3.405-7.604-7.604-7.604H33.156C14.844,83.273,0,98.118,0,116.43v34.006v65.391
	v179.744c0,18.311,14.844,33.155,33.155,33.155h445.689c18.311,0,33.155-14.844,33.155-33.155V215.826v-65.391v-34.006
	C512,98.118,497.156,83.273,478.845,83.273z M496.792,158.039v50.183H15.208v-50.183L496.792,158.039L496.792,158.039z
	 M478.845,413.519H33.156c-9.896,0-17.948-8.051-17.948-17.947V223.43h481.584v172.14
	C496.792,405.466,488.741,413.519,478.845,413.519z"/>
<path d="M425.587,269.461H86.413c-4.199,0-7.604,3.405-7.604,7.604v94.986c0,4.199,3.405,7.604,7.604,7.604h18.648
	c4.199,0,7.604-3.405,7.604-7.604l0,0c0-4.199-3.405-7.604-7.604-7.604H94.017v-79.778h323.965v79.778H140.548
	c-4.199,0-7.604,3.405-7.604,7.604l0,0c0,4.199,3.405,7.604,7.604,7.604h285.039c4.199,0,7.604-3.405,7.604-7.604v-94.986
	C433.191,272.866,429.786,269.461,425.587,269.461z"/>
<path d="M235.149,315.436c-1.717-11.322-10.235-22.021-19.811-24.886c-12.374-3.702-25.787-0.313-34.17,8.634
	c-7.516,8.02-9.54,18.777-5.554,29.51c1.462,3.937,5.839,5.94,9.776,4.481c3.937-1.462,5.943-5.839,4.481-9.777
	c-2.476-6.666-0.065-11.193,2.394-13.817c4.405-4.701,11.927-6.492,18.714-4.462c3.159,0.945,8.163,6.195,9.134,12.597
	c0.92,6.062-2.056,11.45-8.846,16.014c-3.202,2.152-5.366,5.318-6.095,8.912l-0.045,0.221c-0.798,3.941,0.181,8.045,2.689,11.261
	c2.709,3.476,6.879,5.591,11.442,5.805c1.751,0.081,3.47,0.123,5.16,0.123c21.267-0.001,37.587-6.456,47.13-18.34l4.642,10.228
	c1.014,2.233,3.042,3.84,5.447,4.317c2.407,0.477,4.893-0.235,6.68-1.915l12.428-11.662l0.272,1.302
	c0.422,2.019,1.645,3.78,3.389,4.879c1.743,1.099,3.859,1.441,5.862,0.953l18.233-4.464l6.372,6.148
	c2.023,1.952,4.957,2.629,7.63,1.76l40.554-13.18c3.994-1.298,6.179-5.588,4.881-9.582c-1.299-3.993-5.586-6.177-9.582-4.881
	l-36.21,11.768l-6.101-5.887c-1.878-1.812-4.553-2.535-7.088-1.915l-14.662,3.59l-1.434-6.86c-0.562-2.692-2.534-4.871-5.155-5.697
	c-2.623-0.829-5.487-0.175-7.491,1.707l-14.564,13.667l-6.766-14.905c-1.327-2.925-4.353-4.705-7.548-4.436
	c-3.201,0.264-5.891,2.509-6.721,5.61c-5.407,20.18-28.248,22.934-42.699,22.55C235.665,334.436,236.156,322.071,235.149,315.436z"
	/>
<g>
</g>
<g>
</g>
<g>
</g>
<g>
</g>
<g>
</g>
<g>
</g>
<g>
</g>
<g>
</g>
<g>
</g>
<g>
</g>
<g>
</g>
<g>
</g>
<g>
</g>
<g>
</g>
<g>
</g>
</svg>
