<?xml version="1.0" encoding="iso-8859-1"?>
<!-- Generator: Adobe Illustrator 19.0.0, SVG Export Plug-In . SVG Version: 6.00 Build 0)  -->
<svg version="1.1" id="Capa_1" xmlns="http://www.w3.org/2000/svg" xmlns:xlink="http://www.w3.org/1999/xlink" x="0px" y="0px"
	 viewBox="0 0 512 512" style="enable-background:new 0 0 512 512;" xml:space="preserve">
<path style="fill:#F9BB4B;" d="M112.236,125.999c2.684,1.921,3.606,5.486,2.044,8.395c-15.165,28.231-32.974,56.378-50.102,74.779
	c10.423,15.38,22.438,30.437,35.814,42.737c11.462,10.54,28.951,11.905,42.161,2.193c13.943-10.251,33.139-26.244,52.712-48.411
	c-16.19-17.878-32.8-44.982-47.057-71.587c-1.665-3.107-0.985-7.028,1.749-9.254c21.938-17.848,9.989-52.908-17.448-54.614
	C101.177,68.311,87.238,108.098,112.236,125.999z"/>
<path style="fill:#F2AA36;" d="M142.285,186.324c6.437-8.777,12.842-18.208,19.129-28.053c-4.704-7.927-9.271-16.08-13.615-24.189
	c-1.665-3.108-0.975-7.008,1.76-9.234c21.937-17.848,9.988-52.907-17.448-54.614c-30.933-1.924-44.872,37.862-19.874,55.763
	c2.684,1.921,3.606,5.486,2.044,8.395c-15.165,28.231-32.974,56.378-50.102,74.779c10.423,15.38,22.438,30.437,35.814,42.737
	c11.462,10.54,28.951,11.905,42.161,2.193c1.448-1.065,2.965-2.206,4.521-3.396c-0.823-0.966-1.641-1.938-2.454-2.915
	C129.531,230.15,128.707,204.835,142.285,186.324z"/>
<path style="fill:#F9BB4B;" d="M360.163,123.325c3.619,3.423,4.589,8.784,2.2,13.155c-13.885,25.402-29.88,51.618-45.5,68.907
	c19.667,22.328,38.977,38.416,52.984,48.714c13.165,9.68,30.661,8.382,42.161-2.193c13.278-12.21,25.216-27.138,35.586-42.401
	c-16.919-18.127-34.523-45.889-49.603-73.609c-1.939-3.564-1.084-8.083,2.127-10.564c22.603-17.455,11.09-53.36-16.833-55.097
	c-17.895-1.114-32.756,13.07-32.756,30.725C350.529,109.771,354.23,117.714,360.163,123.325z"/>
<path style="fill:#F2AA36;" d="M401.699,178.433c3.669-5.509,7.298-11.282,10.856-17.186c-5.032-8.266-9.92-16.81-14.566-25.353
	c-1.976-3.632-0.983-8.131,2.276-10.676c22.406-17.496,10.882-53.25-16.98-54.983c-17.895-1.114-32.756,13.07-32.756,30.725
	c0,8.834,3.721,16.797,9.681,22.409c3.578,3.37,4.583,8.661,2.226,12.974c-13.902,25.445-29.927,51.723-45.574,69.043
	c19.667,22.328,38.977,38.416,52.984,48.714c13.165,9.68,30.661,8.382,42.161-2.193c2.922-2.687,5.775-5.512,8.566-8.439
	c-3.804-3.131-7.807-6.569-11.952-10.319C393.104,219.109,390.1,195.852,401.699,178.433z"/>
<path style="fill:#F9C85D;" d="M11.319,137.492c13.084,26.47,6.656,48.356,8.302,140.864c0,20.364,0,115.693,0,138.843h472.76
	c0-74.291,0-167.467,0-240.07c0-17.234,3.221-28.328,8.448-39.977c7.998-17.811,1.722-49.158-14.873-49.158
	c-14.179,0-21.275,23.184-17.475,41.053c1.772,8.303,8.665,18.932,2.845,35.631c-13.881,26.422-34.238,59.166-59.317,82.228
	c-11.465,10.542-28.956,11.902-42.161,2.193c-24.97-18.357-66.788-55.106-97.446-112.819c-1.98-3.727-0.836-8.277,2.52-10.837
	c23.354-17.805,10.775-55.455-18.847-55.271c-0.025,0-0.05-0.001-0.074-0.001c-0.025,0-0.05,0.001-0.074,0.001
	c-29.638-0.185-42.343,37.707-18.615,55.446c3.245,2.426,4.322,6.823,2.424,10.405c-30.67,57.86-72.575,94.691-97.581,113.075
	c-13.168,9.681-30.663,8.381-42.161-2.193c-25.079-23.061-45.436-55.806-59.317-82.227c-3.25-9.327-2.874-19.6,0.85-28.947
	c7.974-19.966-0.469-47.739-15.481-47.739C9.483,87.995,2.632,119.877,11.319,137.492z"/>
<path style="fill:#F9BB4B;" d="M70.071,212.604c-11.652-16.07-21.557-33.004-29.396-47.923c-3.25-9.327-2.874-19.6,0.85-28.947
	c7.974-19.966-0.469-47.739-15.481-47.739c-16.563,0-23.413,31.882-14.727,49.497c13.084,26.47,6.656,48.356,8.302,140.864
	c0,20.364,0,115.693,0,138.843h50.503c0-23.15,0-118.479,0-138.843C69.634,250.856,69.858,229.597,70.071,212.604z"/>
<circle style="fill:#F96989;" cx="381.313" cy="322.892" r="22.538"/>
<path style="fill:#ED5A81;" d="M381.316,322.897c-4.17-7.223-3.882-15.793,0.002-22.535c-3.831-0.004-7.714,0.963-11.271,3.017
	c-10.78,6.223-14.473,20.008-8.249,30.788c6.223,10.78,20.008,14.474,30.788,8.249c3.556-2.053,6.336-4.932,8.248-8.253
	C393.053,334.155,385.486,330.12,381.316,322.897z"/>
<ellipse style="fill:#F96989;" cx="256.005" cy="323.312" rx="34.342" ry="40.955"/>
<path style="fill:#ED5A81;" d="M279.002,352.599c-18.967,0-34.344-18.336-34.344-40.955c0-11.465,3.955-21.822,10.321-29.257
	c-18.493,0.646-33.322,18.714-33.322,40.924c0,22.618,15.376,40.954,34.344,40.954c9.354,0,17.829-4.465,24.023-11.699
	C279.683,352.581,279.344,352.599,279.002,352.599z"/>
<path style="fill:#F4A32C;" d="M490.999,412.199c-53.053,0-417.985,0-469.997,0c-7.456,0-13.501,6.634-13.501,14.818
	c0,8.184,6.044,14.818,13.501,14.818c53.053,0,417.985,0,469.997,0c7.456,0,13.501-6.634,13.501-14.818
	S498.455,412.199,490.999,412.199z"/>
<path style="fill:#ED9015;" d="M57.503,427.017c0-8.184,6.044-14.819,13.501-14.819c-23.562,0-41.234,0-50.003,0
	c-7.456,0-13.501,6.634-13.501,14.819s6.044,14.818,13.501,14.818c8.889,0,26.543,0,50.003,0
	C63.548,441.836,57.503,435.202,57.503,427.017z"/>
<circle style="fill:#F96989;" cx="128.258" cy="322.892" r="22.538"/>
<path style="fill:#ED5A81;" d="M128.255,322.897c-4.17-7.223-3.882-15.793,0.002-22.535c-3.831-0.004-7.714,0.963-11.271,3.017
	c-10.78,6.223-14.473,20.008-8.25,30.788c6.223,10.78,20.008,14.474,30.788,8.249c3.556-2.053,6.336-4.932,8.248-8.253
	C139.99,334.155,132.425,330.12,128.255,322.897z"/>
<path d="M351.277,322.897c0,16.564,13.476,30.039,30.039,30.039c16.563,0,30.039-13.476,30.039-30.039
	c0-16.563-13.476-30.039-30.039-30.039C364.753,292.858,351.277,306.334,351.277,322.897z M396.354,322.897
	c0,8.292-6.746,15.038-15.038,15.038c-8.292,0-15.038-6.746-15.038-15.038c0-8.291,6.746-15.038,15.038-15.038
	C389.608,307.859,396.354,314.605,396.354,322.897z"/>
<path d="M214.156,323.311c0,26.719,18.772,48.456,41.845,48.456c23.072,0,41.845-21.737,41.845-48.456S279.073,274.856,256,274.856
	C232.928,274.856,214.156,296.592,214.156,323.311z M282.843,323.311c0,18.447-12.042,33.455-26.844,33.455
	c-14.802,0-26.844-15.008-26.844-33.455c0-18.446,12.042-33.454,26.844-33.454C270.801,289.857,282.843,304.865,282.843,323.311z"/>
<path d="M128.255,292.858c-16.564,0-30.039,13.476-30.039,30.039c0,16.563,13.476,30.039,30.039,30.039s30.039-13.476,30.039-30.039
	C158.294,306.334,144.819,292.858,128.255,292.858z M128.255,337.935c-8.292,0-15.038-6.746-15.038-15.038
	c0-8.291,6.746-15.038,15.038-15.038s15.038,6.746,15.038,15.038C143.293,331.188,136.546,337.935,128.255,337.935z"/>
<path d="M493.986,134.078c-5.531,12.445-9.107,24.352-9.107,43.053v46.555c0,4.143,3.357,7.5,7.5,7.5s7.5-3.357,7.5-7.5v-46.555
	c0-34.247,12.12-33.611,12.12-58.349c0-21.47-11.44-38.287-26.045-38.287c-19.652,0-28.285,26.527-25.477,46.399
	c1.731,12.462,8.815,20.009,3.933,34.815c-4.852,9.208-10.828,19.775-17.757,30.592c-16.357-18.552-30.491-38.691-42.076-59.989
	c-0.193-0.355-0.137-0.842,0.123-1.043c28.076-21.679,13.758-66.36-20.951-68.52c-35.769-2.218-54.55,41.615-28.742,66.025
	c1.189,1.125,1.5,2.775,0.772,4.107c-10.812,19.779-23.852,38.592-38.82,56.034c-13.187-15.746-26.399-34.436-37.935-56.154
	c-0.253-0.475,0.032-1.04,0.442-1.353c18.682-14.243,20.119-41.383,3.792-57.607c-14.577-14.488-39.231-15.193-54.52-0.001
	c-16.673,16.57-14.533,43.912,4.079,57.825c0.263,0.197,0.453,0.575,0.288,0.886c-10.672,20.132-23.504,39.116-38.309,56.755
	c-15.665-18.204-29.225-37.905-40.364-58.717c26.915-22.11,12.516-65.665-21.857-67.803c-37.601-2.332-55.881,46.059-25.333,68.891
	c-11.583,21.414-25.732,41.658-42.126,60.306c-6.832-10.693-12.73-21.129-17.529-30.236c-2.437-7.39-2.12-15.605,0.896-23.175
	c9.523-23.805-0.74-58.04-22.439-58.04c-20.114,0-28.888,28.102-25.237,47.886l0.096,0.547
	c2.704,15.668,11.216,19.062,11.216,47.968v229.905C4.968,410.362,0,418.083,0,427.017c0,12.307,9.422,22.318,21.001,22.318h43.178
	c4.143,0,7.5-3.357,7.5-7.5c0-4.143-3.357-7.5-7.5-7.5H21.001c-3.309,0-6-3.282-6-7.317s2.691-7.317,6-7.317h469.997
	c3.309,0,6,3.282,6,7.317s-2.691,7.317-6,7.317H99.181c-4.143,0-7.5,3.357-7.5,7.5c0,4.143,3.357,7.5,7.5,7.5h391.818
	c11.58,0,21.001-10.013,21.001-22.318c0-8.935-4.967-16.655-12.12-20.218V258.687c0-4.143-3.357-7.5-7.5-7.5s-7.5,3.357-7.5,7.5
	v146.012H27.121V176.895c0-35.595-12.12-39.13-12.12-58.113c0-14.215,6.541-23.286,11.045-23.286c6.69,0,15.513,18.563,8.513,37.462
	c-4.43,11.12-4.772,23.262-0.964,34.19c1.282,3.682,18.742,33.754,24.592,41.524c10.537,15.502,22.904,31.045,36.729,43.758
	c13.846,12.73,35.302,14.756,51.68,2.714c1.759-1.293,3.621-2.695,5.534-4.168c3.282-2.525,3.896-7.234,1.369-10.519
	c-2.523-3.281-7.232-3.897-10.519-1.369c-6.361,4.895-11.068,8.753-19.91,9.089c-7.088,0.088-13.317-2.482-18.001-6.789
	c-11.557-10.628-22.091-23.469-31.322-36.569c18.479-20.546,34.324-43.017,47.141-66.877c3.311-6.166,1.468-13.922-4.285-18.04
	c-18.887-13.525-8.419-43.63,15.042-42.181c20.803,1.295,29.74,27.835,13.182,41.311c-5.489,4.464-7.016,12.294-3.628,18.615
	c11.977,22.349,26.634,43.511,43.607,62.997c-5.088,5.533-10.369,10.928-15.863,16.159c-3,2.856-3.116,7.604-0.26,10.605
	c2.855,3,7.604,3.116,10.605,0.26c26.51-25.241,49.482-54.935,67.076-88.127c3.631-6.853,1.714-15.232-4.56-19.924
	c-18.327-13.702-7.781-42.364,14.282-41.94c21.842-0.615,32.264,28.104,14.288,41.807c-6.346,4.839-8.279,13.385-4.595,20.319
	c24.449,46.026,60.231,86.382,99.625,115.342c9.357,6.879,21.376,9.792,33.472,6.944c11.603-2.73,18.245-8.96,28.314-19.7
	c22.825-24.331,48.522-67.496,51.218-75.24c6.309-18.105-0.621-32.124-2.16-37.858c-4.689-17.709,3.512-33.794,9.709-33.794
	C493.938,95.495,501.364,117.747,493.986,134.078z M422.222,225.482c-16.054,18.627-22.701,22.817-33.292,22.695
	c-8.874-0.337-13.799-4.411-19.111-8.475c-11.512-8.814-26.849-21.901-42.872-39.388c16.236-18.689,30.348-38.925,41.997-60.238
	c3.981-7.285,2.489-16.415-3.628-22.2c-15.702-14.85-4.267-41.517,17.503-40.154c20.977,1.305,29.915,28.394,12.716,41.676
	c-6.046,4.667-7.822,13.303-4.133,20.085c12.735,23.411,28.399,45.48,46.611,65.676
	C432.967,212.299,427.748,219.063,422.222,225.482z"/>
<g>
</g>
<g>
</g>
<g>
</g>
<g>
</g>
<g>
</g>
<g>
</g>
<g>
</g>
<g>
</g>
<g>
</g>
<g>
</g>
<g>
</g>
<g>
</g>
<g>
</g>
<g>
</g>
<g>
</g>
</svg>
