<?xml version="1.0" encoding="iso-8859-1"?>
<!-- Generator: Adobe Illustrator 19.0.0, SVG Export Plug-In . SVG Version: 6.00 Build 0)  -->
<svg version="1.1" id="Layer_1" xmlns="http://www.w3.org/2000/svg" xmlns:xlink="http://www.w3.org/1999/xlink" x="0px" y="0px"
	 viewBox="0 0 512.001 512.001" style="enable-background:new 0 0 512.001 512.001;" xml:space="preserve">
<circle style="fill:#F7B239;" cx="256.005" cy="256.004" r="246.855"/>
<g>
	<path style="fill:#E09B2D;" d="M126.307,385.694c-88.801-88.802-95.798-228.426-20.998-325.241
		c-8.286,6.401-16.258,13.399-23.858,20.999c-96.401,96.401-96.401,252.698,0,349.099s252.698,96.401,349.099,0
		c7.599-7.599,14.597-15.573,20.999-23.858C354.733,481.492,215.109,474.495,126.307,385.694z"/>
	<path style="fill:#E09B2D;" d="M297.386,406.892c-0.817,0-1.649-0.11-2.474-0.342c-25.456-7.137-52.365-7.138-77.822,0
		c-4.865,1.364-9.914-1.475-11.28-6.34c-1.364-4.865,1.474-9.916,6.34-11.28c28.687-8.043,59.013-8.043,87.7,0
		c4.865,1.364,7.704,6.414,6.34,11.28C305.059,404.25,301.385,406.892,297.386,406.892z"/>
</g>
<path style="fill:#A81004;" d="M407.253,326.073c-0.159,0.488-0.329,0.988-0.5,1.476c-0.122,0.342-0.244,0.683-0.366,1.025
	c-5.124,14.249-15.749,25.143-28.73,30.913l-0.085-0.183c-0.525-0.976-1.086-1.94-1.647-2.891
	c-14.334-24.155-40.673-40.331-70.818-40.331c-18.409,0-35.39,6.039-49.103,16.262c-13.712-10.223-30.718-16.262-49.139-16.262
	c-30.108,0-56.471,16.176-70.793,40.331c-0.561,0.952-1.122,1.915-1.647,2.891l-0.085,0.183c-12.98-5.77-23.606-16.664-28.73-30.913
	c-0.122-0.342-0.244-0.683-0.366-1.025c-0.171-0.488-0.342-0.976-0.5-1.464c5.624-17.165,19.775-31.206,38.928-35.61
	c73.916-16.969,150.736-16.969,224.652,0C387.466,294.879,401.629,308.908,407.253,326.073z"/>
<path style="fill:#FFFFFF;" d="M368.325,257c30.852,7.076,48.749,39.209,38.928,69.073c-5.624-17.165-19.787-31.194-38.928-35.598
	c-73.916-16.969-150.736-16.969-224.652,0c-19.153,4.404-33.304,18.445-38.928,35.61c-9.808-29.876,8.064-61.997,38.928-69.085
	C217.589,240.03,294.409,240.03,368.325,257z"/>
<path style="fill:#F95428;" d="M375.925,356.413c0.561,0.952,1.122,1.915,1.647,2.891l0.085,0.183v0.012
	c-10.26,4.563-22.008,5.941-33.683,3.269c-57.886-13.273-118.054-13.273-175.952,0c-11.675,2.672-23.423,1.293-33.683-3.269v-0.012
	l0.085-0.183c0.525-0.976,1.086-1.94,1.647-2.891c14.322-24.155,40.685-40.331,70.793-40.331c18.421,0,35.427,6.039,49.139,16.262
	c13.712-10.223,30.694-16.262,49.103-16.262C335.252,316.081,361.591,332.258,375.925,356.413z"/>
<path d="M256,0C114.842,0,0.001,114.841,0.001,256.001S114.842,512.001,256,512.001c141.159,0,256.001-114.841,256.001-256.001
	S397.16,0,256,0z M256,493.701c-131.068,0-237.7-106.631-237.7-237.7S124.932,18.299,256,18.299
	c131.069,0,237.702,106.632,237.702,237.702S387.069,493.701,256,493.701z"/>
<path d="M200.828,199.025c1.235-3.755-0.083-7.878-3.265-10.222c-1.519-1.119-37.803-27.4-91.428-27.4
	c-5.053,0-9.15,4.097-9.15,9.15c0,5.053,4.097,9.15,9.15,9.15c21.322,0,39.709,4.781,53.513,10.062
	c-43.987,6.912-84.384,24.556-86.483,25.482c-4.624,2.04-6.717,7.442-4.677,12.064c1.51,3.422,4.861,5.459,8.376,5.459
	c1.233,0,2.487-0.251,3.688-0.781c0.605-0.267,61.034-26.669,111.585-26.669C196.088,205.318,199.594,202.78,200.828,199.025z"/>
<path d="M438.837,215.245c-2.1-0.926-42.553-18.594-86.575-25.497c13.773-5.274,32.161-10.047,53.604-10.047
	c5.054,0,9.15-4.097,9.15-9.15c0-5.053-4.095-9.15-9.15-9.15c-53.624,0-89.91,26.281-91.428,27.4
	c-3.182,2.345-4.499,6.468-3.265,10.222c1.235,3.755,4.739,6.294,8.692,6.294c50.402,0,110.841,26.342,111.585,26.669
	c1.2,0.531,2.454,0.781,3.688,0.781c3.515,0,6.866-2.036,8.376-5.459C445.555,222.687,443.461,217.285,438.837,215.245z"/>
<path d="M370.372,248.082c-74.821-17.177-153.922-17.178-228.746,0c-17.134,3.934-31.921,14.978-40.57,30.298
	c-8.68,15.376-10.504,33.803-5.013,50.53c0.177,0.545,0.367,1.091,0.583,1.707l0.376,1.052
	c5.719,15.906,17.795,28.993,33.175,35.976c0.146,0.074,0.295,0.146,0.446,0.213c12.485,5.552,26.124,6.874,39.444,3.827
	c56.223-12.889,115.651-12.889,171.866,0c4.669,1.069,9.378,1.601,14.062,1.601c8.676,0,17.271-1.823,25.378-5.428
	c0.151-0.067,0.3-0.138,0.447-0.213c15.379-6.984,27.456-20.072,33.185-36.004l0.386-1.081c0.189-0.543,0.381-1.099,0.556-1.643
	c5.501-16.739,3.679-35.156-4.999-50.53C402.298,263.058,387.507,252.011,370.372,248.082z M145.72,265.918
	c72.145-16.563,148.413-16.563,220.559,0c12.312,2.823,22.516,10.446,28.736,21.465c1.651,2.924,2.939,6.006,3.884,9.175
	c-7.867-7.266-17.609-12.489-28.527-15c-74.823-17.177-153.922-17.178-228.748,0.001c-10.912,2.509-20.652,7.73-28.519,14.997
	c0.945-3.171,2.235-6.253,3.886-9.178C123.206,276.366,133.41,268.744,145.72,265.918z M346.019,353.849
	c-29.447-6.751-59.726-10.127-90.017-10.127c-30.284,0-60.577,3.377-90.022,10.125c-5.825,1.332-11.738,1.483-17.491,0.477
	c13.712-18.117,35.404-29.096,58.375-29.096c15.892,0,30.993,4.996,43.67,14.448c3.245,2.419,7.693,2.419,10.937,0
	c12.679-9.452,27.767-14.448,43.635-14.448c22.98,0,44.688,10.986,58.4,29.098C357.755,355.334,351.843,355.183,346.019,353.849z
	 M380.913,347.218c-16.902-24.973-45.468-40.286-75.806-40.286c-17.606,0-34.447,4.922-49.103,14.295
	c-14.656-9.372-31.512-14.295-49.139-14.295c-30.329,0-58.879,15.305-75.781,40.286c-7.517-5.138-13.382-12.52-16.617-21.103
	c5.435-13.538,16.925-23.428,31.252-26.722c72.146-16.564,148.414-16.563,220.553-0.001c14.334,3.299,25.826,13.185,31.258,26.715
	C394.292,334.698,388.429,342.081,380.913,347.218z"/>
<g>
</g>
<g>
</g>
<g>
</g>
<g>
</g>
<g>
</g>
<g>
</g>
<g>
</g>
<g>
</g>
<g>
</g>
<g>
</g>
<g>
</g>
<g>
</g>
<g>
</g>
<g>
</g>
<g>
</g>
</svg>
