<?xml version="1.0" encoding="iso-8859-1"?>
<!-- Generator: Adobe Illustrator 19.0.0, SVG Export Plug-In . SVG Version: 6.00 Build 0)  -->
<svg version="1.1" id="Layer_1" xmlns="http://www.w3.org/2000/svg" xmlns:xlink="http://www.w3.org/1999/xlink" x="0px" y="0px"
	 viewBox="0 0 512.001 512.001" style="enable-background:new 0 0 512.001 512.001;" xml:space="preserve">
<circle style="fill:#F7B239;" cx="256.005" cy="256.004" r="246.855"/>
<g>
	<path style="fill:#E09B2D;" d="M126.307,385.694c-88.801-88.802-95.798-228.426-20.998-325.241
		c-8.286,6.401-16.258,13.399-23.858,20.999c-96.401,96.401-96.401,252.698,0,349.099s252.698,96.401,349.099,0
		c7.599-7.599,14.597-15.573,20.999-23.858C354.733,481.492,215.109,474.495,126.307,385.694z"/>
	<path style="fill:#E09B2D;" d="M231.898,360.393c-3.406,0-6.676-1.91-8.252-5.185c-2.191-4.553-0.276-10.021,4.277-12.212
		c18.369-8.838,37.786-8.838,56.151,0c4.553,2.191,6.469,7.659,4.277,12.213c-2.191,4.553-7.661,6.467-12.212,4.277
		c-13.177-6.341-27.107-6.34-40.284,0C234.58,360.102,233.229,360.393,231.898,360.393z"/>
</g>
<path style="fill:#2BA5F7;" d="M77.509,413.974L77.509,413.974c-22.743-22.743-22.743-59.616,0-82.358l41.179-41.179l41.179,41.179
	c22.742,22.742,22.742,59.616,0,82.358l0,0C137.125,436.716,100.253,436.716,77.509,413.974z"/>
<path style="fill:#2197D8;" d="M106.787,413.974L106.787,413.974c-22.742-22.742-22.742-59.616,0-82.358l26.541-26.541
	l-14.639-14.639l-41.179,41.179c-22.742,22.743-22.742,59.616,0,82.358l0,0c15.127,15.127,36.503,20.179,55.818,15.182
	C123.605,426.641,114.402,421.589,106.787,413.974z"/>
<path d="M256,0C114.842,0,0.001,114.841,0.001,256.001S114.842,512.001,256,512.001c141.159,0,256.001-114.841,256.001-256.001
	S397.16,0,256,0z M83.979,338.085l34.71-34.71l34.71,34.71c19.138,19.138,19.138,50.28,0,69.419
	c-19.138,19.138-50.28,19.14-69.419,0C64.84,388.365,64.84,357.224,83.979,338.085z M256,493.701
	c-57.82,0-110.877-20.761-152.129-55.207c4.875,1.092,9.845,1.655,14.817,1.655c17.256,0,34.512-6.568,47.65-19.706
	c26.274-26.274,26.274-69.024,0-95.298l-41.179-41.179c-1.715-1.716-4.043-2.68-6.469-2.68c-2.426,0-4.754,0.964-6.469,2.68
	l-41.179,41.179C56.836,339.351,50.328,358.371,51.482,377c-21.065-35.467-33.182-76.843-33.182-121
	C18.3,124.932,124.932,18.299,256,18.299c131.069,0,237.702,106.632,237.702,237.702S387.069,493.701,256,493.701z"/>
<path d="M174.858,149.552c-31.233,1.474-58.686,18.813-73.44,46.381c-2.384,4.455-0.705,10,3.75,12.385
	c1.375,0.736,2.852,1.085,4.31,1.085c3.266,0,6.427-1.754,8.075-4.833c11.686-21.836,33.43-35.569,58.168-36.736
	c5.048-0.238,8.946-4.524,8.708-9.57C184.191,153.216,179.899,149.296,174.858,149.552z"/>
<path d="M337.142,149.552c-5.053-0.245-9.331,3.66-9.57,8.708c-0.239,5.048,3.66,9.333,8.708,9.57
	c24.738,1.167,46.485,14.9,58.169,36.736c1.649,3.082,4.808,4.835,8.075,4.835c1.455,0,2.934-0.349,4.309-1.085
	c4.454-2.385,6.134-7.93,3.749-12.384C395.831,168.365,368.376,151.026,337.142,149.552z"/>
<path d="M314.46,318.618c-32.779-19.764-84.136-19.764-116.918,0c-4.327,2.609-5.72,8.232-3.111,12.559
	c2.609,4.327,8.233,5.72,12.559,3.111c26.565-16.017,71.453-16.017,98.022,0c1.477,0.891,3.106,1.315,4.715,1.315
	c3.101,0,6.125-1.577,7.844-4.426C320.18,326.85,318.787,321.227,314.46,318.618z"/>
<path d="M146.724,203.59c-18.666,0-33.852,15.186-33.852,33.852s15.186,33.852,33.852,33.852s33.852-15.186,33.852-33.852
	S165.39,203.59,146.724,203.59z"/>
<path d="M365.276,203.59c-18.666,0-33.852,15.186-33.852,33.852s15.186,33.852,33.852,33.852s33.852-15.186,33.852-33.852
	S383.942,203.59,365.276,203.59z"/>
<g>
	<circle style="fill:#FFFFFF;" cx="158.812" cy="230.105" r="9.15"/>
	<circle style="fill:#FFFFFF;" cx="377.181" cy="230.105" r="9.15"/>
</g>
<g>
</g>
<g>
</g>
<g>
</g>
<g>
</g>
<g>
</g>
<g>
</g>
<g>
</g>
<g>
</g>
<g>
</g>
<g>
</g>
<g>
</g>
<g>
</g>
<g>
</g>
<g>
</g>
<g>
</g>
</svg>
