<?xml version="1.0" encoding="iso-8859-1"?>
<!-- Generator: Adobe Illustrator 19.0.0, SVG Export Plug-In . SVG Version: 6.00 Build 0)  -->
<svg version="1.1" id="Capa_1" xmlns="http://www.w3.org/2000/svg" xmlns:xlink="http://www.w3.org/1999/xlink" x="0px" y="0px"
	 viewBox="0 0 511.999 511.999" style="enable-background:new 0 0 511.999 511.999;" xml:space="preserve">
<path style="fill:#EAE9E8;" d="M83.142,74.488l-12.357,6.423c-0.086,0.102-0.451,0.534-0.365,0.432l-4.495,13.981l37.806,34.564
	c6.564-6.319,13.902-11.909,21.942-16.583L83.142,74.488z"/>
<path style="fill:#F96989;" d="M443.616,110.144c-19.936-10.938-42.499-15.633-64.833-14.151
	c-57.079,3.782-84.739,43.695-88.111,46.264c-3.194,3.467-8.668,3.467-11.861,0c-3.095-2.263-34.17-46.882-96.828-46.528
	C79.88,96.304,26.958,218.497,96.3,293.809l23.646,25.68l0,0c8.416,9.141,137.875,149.741,144.409,156.837
	c10.976,11.919,29.796,11.919,40.772,0c17.228-18.711,153.01-166.176,168.055-182.516
	C525.294,237.21,510.244,146.697,443.616,110.144z"/>
<path style="fill:#ED5A81;" d="M314.778,441.82c-6.533-7.096-135.992-147.696-144.409-156.837l0,0l-23.646-25.68
	c-44.115-47.912-38.733-114.793-2.695-157.267C67.974,128.003,36.182,228.517,96.3,293.809l23.646,25.68l0,0
	c8.416,9.141,137.875,149.741,144.409,156.837c10.976,11.919,29.796,11.919,40.772,0c3.597-3.906,12.373-13.438,24.128-26.205
	C323.891,448.955,318.806,446.193,314.778,441.82z"/>
<g>
	<path style="fill:#9CD7F2;" d="M470.133,329.069l-40.255-15.993c-10.936-4.344-23.002-4.946-34.315-1.71l-39.008,11.167
		c105.881,94.969,92.498,82.965,93.657,84.004c1.328,1.19,2.356,2.588,3.097,4.096l25.773-21.589
		C499.441,371.987,494.586,339.44,470.133,329.069z"/>
	<path style="fill:#9CD7F2;" d="M434.187,424.642l-93.369-83.705l-6.899,39.105c-2.048,11.586-0.202,23.526,5.25,33.953
		l20.071,38.387c12.844,23.249,45.719,24.713,60.579,2.697l18.681-27.677l-0.342-0.303
		C436.739,426.528,435.39,425.721,434.187,424.642z"/>
</g>
<g>
	<path style="fill:#71C5DB;" d="M479.081,389.044c16.342-13.689,16.427-37.348,3.186-51.522
		c-16.029,1.386-21.726,4.848-84.251,22.222l52.195,46.792c1.328,1.19,2.356,2.588,3.097,4.096L479.081,389.044z"/>
	<path style="fill:#71C5DB;" d="M438.501,427.403l-0.342-0.303c-1.418-0.571-2.767-1.379-3.97-2.458l-52.168-46.768
		c-10.594,63.329-13.558,68.879-13.003,85.787c15.467,11.606,38.905,9.046,50.803-8.58L438.501,427.403z"/>
</g>
<path style="fill:#9CD7F2;" d="M101.917,36.406C1.812,24.959,19.865,27.023,17.69,26.774C11.478,26.06,6.105,32.425,7.849,38.43
	c0.609,2.101-4.45-15.349,23.604,81.423c4.159,14.429,24.493,14.738,29.089,0.443l11.879-36.952
	c0.086-0.102,0.451-0.534,0.365-0.432l34.44-17.902C120.551,58.083,116.839,38.089,101.917,36.406z"/>
<path style="fill:#71C5DB;" d="M7.849,38.43c0.609,2.101-4.45-15.349,23.604,81.423c4.159,14.429,24.493,14.738,29.089,0.442
	l11.879-36.951c0.086-0.102,0.451-0.534,0.365-0.432L9.842,30.143C7.875,32.251,6.943,35.314,7.849,38.43z"/>
<path style="fill:#EAE9E8;" d="M433.187,425.642L275.624,284.387c-5.552-4.977-6.018-13.513-1.04-19.065
	c4.977-5.551,13.513-6.018,19.065-1.04l157.563,141.254c5.552,4.977,6.017,13.513,1.04,19.065
	C447.269,430.159,438.732,430.614,433.187,425.642z"/>
<path d="M101.817,288.728c-44.327-48.141-36.809-120.842,10.96-160.655c42.959-35.561,112.068-35.47,158.18,16.766
	c1.22,1.382,1.978,2.24,2.719,2.899c6.31,6.38,16.248,5.952,22.138-0.008c4.882-4.336,30.202-40.725,83.467-44.254
	c19.778-1.313,39.446,2.571,56.867,11.232c3.706,1.844,8.211,0.332,10.055-3.377s0.332-8.211-3.377-10.055
	c-38.554-19.168-87.485-17.822-126.626,8.014c-21.366,14.102-29.973,28.066-31.458,28.066c-0.473,0-2.014-1.852-2.538-2.445
	c-46.17-52.302-111.29-56.697-157.433-32.723L98.182,78.163l12.502-6.499c9.064-4.711,13.718-14.246,11.853-24.292
	c-1.864-10.044-9.628-17.274-19.78-18.42l-13.163-1.484c-4.12-0.463-7.829,2.496-8.294,6.612c-0.464,4.116,2.497,7.829,6.612,8.294
	l13.163,1.484c7.572,0.853,9.457,10.977,2.69,14.495L73.768,73.948L27.903,35.497l24.817,2.85c4.118,0.465,7.834-2.48,8.307-6.596
	c0.473-4.116-2.48-7.834-6.596-8.307l-35.883-4.121C7.628,18.062-2.073,28.462,0.385,39.5c0.182,0.818-1.59-5.366,23.861,82.431
	c2.829,9.816,11.258,16.261,21.474,16.416c0.126,0.002,0.251,0.003,0.376,0.003c10.05-0.001,18.499-6.151,21.587-15.758l3.83-11.913
	l19.393,17.533c-42.872,46.871-46.468,120.344-0.122,170.679c121.794,130.878,115.905,129.133,122.193,129.133
	c6.45,0,9.973-7.739,5.516-12.58C194.047,388.893,130.514,319.893,101.817,288.728z M53.401,118
	c-1.621,5.041-6.135,5.336-7.454,5.347c-1.339-0.021-5.821-0.483-7.287-5.572C13.771,31.899,18.791,49.222,18.106,46.859
	l45.816,38.409C52.21,121.708,53.603,117.371,53.401,118z M76.549,95.009c0.066-0.204,2.302-7.161,2.162-6.725l5.269-2.738
	l27.376,24.738c-2.557,1.787-6.33,4.639-9.643,7.474L76.549,95.009z"/>
<path d="M473.391,122.712c-2.995-2.86-7.742-2.753-10.604,0.241c-2.861,2.995-2.753,7.743,0.241,10.604
	c42.292,40.406,46.53,109.67,4.637,155.17l-20.152,21.886c-8.153-2.259-26.638-15.003-53.015-7.459l-35.057,10.036l-60.785-54.493
	c-8.617-7.728-21.889-7.045-29.655,1.617c-7.73,8.622-7.005,21.926,1.617,29.656l61.091,54.768l-6.175,34.997
	c-4.752,26.893,9.494,43.724,12.03,50.288l-37.955,41.221c-7.986,8.671-21.693,8.737-29.739-0.002l-27.54-29.91
	c-2.806-3.048-7.55-3.243-10.598-0.438c-3.047,2.806-3.243,7.551-0.438,10.598l27.542,29.912
	c11.21,12.173,26.004,11.381,25.904,11.359c9.813,0,19.256-4.14,25.903-11.358l34.305-37.257c4.13,5.418,6.777,20.13,23.006,29.421
	c19.067,10.903,44.121,5.908,57.082-13.293l16.026-23.745c13.444,0.717,23.999-11.053,21.857-24.328
	c20.715-17.614,27.05-21.083,32.395-31.216c9.06-17.013,5.063-37.778-6.711-49.722c-9.449-10.004-18.855-11.266-26.162-14.719
	l16.258-17.657C526.34,247.146,521.352,168.539,473.391,122.712z M361.895,444.183l-17.079-32.664
	c-4.659-8.909-6.261-19.271-4.511-29.175l4.555-25.815l28.05,25.147C370.191,397.097,362.291,441.794,361.895,444.183z
	 M410.492,454.629c-8.786,10.199-23.539,12.432-35.022,5.948c0.119-12.507,2.05-16.778,10.592-67.11
	c8.096,7.258,32.146,28.819,41.1,36.846C411.674,453.222,412.179,452.686,410.492,454.629z M439.714,421.02
	c-1.513-0.688,8.041,7.609-159.082-142.216c-2.464-2.209-2.671-6.011-0.463-8.474c2.218-2.473,6.009-2.673,8.473-0.463
	c167.778,150.413,159.349,141.72,159.549,145.397C448.279,416.863,443.853,422.909,439.714,421.02z M480.038,344.413
	c7.965,11.1,6.961,26.906-3.51,36.752c-1.23,1.161-0.127,0.149-21.293,17.906l-41.106-36.853
	C464.658,348.048,468.537,345.899,480.038,344.413z M462.587,332.744l-61.65,17.65l-28.306-25.376l25.993-7.441
	c18.801-5.376,30.843,2.328,48.263,8.931L462.587,332.744z"/>
<g>
</g>
<g>
</g>
<g>
</g>
<g>
</g>
<g>
</g>
<g>
</g>
<g>
</g>
<g>
</g>
<g>
</g>
<g>
</g>
<g>
</g>
<g>
</g>
<g>
</g>
<g>
</g>
<g>
</g>
</svg>
