<?xml version="1.0" encoding="iso-8859-1"?>
<!-- Generator: Adobe Illustrator 19.0.0, SVG Export Plug-In . SVG Version: 6.00 Build 0)  -->
<svg version="1.1" id="Layer_1" xmlns="http://www.w3.org/2000/svg" xmlns:xlink="http://www.w3.org/1999/xlink" x="0px" y="0px"
	 viewBox="0 0 512.001 512.001" style="enable-background:new 0 0 512.001 512.001;" xml:space="preserve">
<circle style="fill:#F7B239;" cx="256.005" cy="256.004" r="246.855"/>
<path style="fill:#E09B2D;" d="M126.307,385.694c-88.801-88.802-95.798-228.426-20.998-325.241
	c-8.286,6.401-16.258,13.399-23.858,20.999c-96.401,96.401-96.401,252.698,0,349.099s252.698,96.401,349.099,0
	c7.599-7.599,14.597-15.573,20.999-23.858C354.733,481.492,215.109,474.495,126.307,385.694z"/>
<g>
	<circle style="fill:#F95428;" cx="100.572" cy="337.948" r="24.119"/>
	<circle style="fill:#F95428;" cx="411.425" cy="337.948" r="24.119"/>
</g>
<path d="M256,0C114.842,0,0.001,114.841,0.001,256.001S114.842,512.001,256,512.001c141.159,0,256.001-114.841,256.001-256.001
	S397.16,0,256,0z M256,493.701c-131.068,0-237.7-106.631-237.7-237.7S124.932,18.299,256,18.299
	c131.069,0,237.702,106.632,237.702,237.702S387.069,493.701,256,493.701z"/>
<path d="M363.356,207.453c-29.99,0-54.387,24.399-54.387,54.387s24.398,54.387,54.387,54.387s54.387-24.399,54.387-54.387
	S393.346,207.453,363.356,207.453z"/>
<path d="M148.647,207.453c-29.99,0-54.389,24.399-54.389,54.387s24.399,54.387,54.389,54.387s54.387-24.399,54.387-54.387
	S178.635,207.453,148.647,207.453z"/>
<path d="M312.911,318.973c-5.054,0-9.15,4.097-9.15,9.15c0,10.645-8.662,19.307-19.306,19.307s-19.306-8.662-19.306-19.307
	c0-5.053-4.095-9.15-9.15-9.15c-5.053,0-9.15,4.097-9.15,9.15c0,10.645-8.662,19.307-19.307,19.307s-19.307-8.662-19.307-19.307
	c0-5.053-4.097-9.15-9.15-9.15c-5.053,0-9.15,4.097-9.15,9.15c0,20.737,16.869,37.606,37.606,37.606
	c11.358,0,21.555-5.06,28.456-13.046c6.901,7.986,17.099,13.046,28.455,13.046c20.735,0,37.605-16.869,37.605-37.606
	C322.061,323.069,317.966,318.973,312.911,318.973z"/>
<g>
	<circle style="fill:#FFFFFF;" cx="182.406" cy="273.413" r="9.15"/>
	<circle style="fill:#FFFFFF;" cx="400.775" cy="273.413" r="9.15"/>
	<circle style="fill:#FFFFFF;" cx="127.094" cy="290.492" r="9.15"/>
	<circle style="fill:#FFFFFF;" cx="345.463" cy="290.492" r="9.15"/>
	<circle style="fill:#FFFFFF;" cx="378.414" cy="244.439" r="19.325"/>
	<circle style="fill:#FFFFFF;" cx="163.704" cy="244.439" r="19.325"/>
</g>
<g>
</g>
<g>
</g>
<g>
</g>
<g>
</g>
<g>
</g>
<g>
</g>
<g>
</g>
<g>
</g>
<g>
</g>
<g>
</g>
<g>
</g>
<g>
</g>
<g>
</g>
<g>
</g>
<g>
</g>
</svg>
