<?xml version="1.0" encoding="iso-8859-1"?>
<!-- Generator: Adobe Illustrator 19.0.0, SVG Export Plug-In . SVG Version: 6.00 Build 0)  -->
<svg version="1.1" id="Capa_1" xmlns="http://www.w3.org/2000/svg" xmlns:xlink="http://www.w3.org/1999/xlink" x="0px" y="0px"
	 viewBox="0 0 512.001 512.001" style="enable-background:new 0 0 512.001 512.001;" xml:space="preserve">
<path style="fill:#967D74;" d="M182.962,78.298c24.937-25.158,35.476-60.562,23.64-68.94c-9.273-6.564-28.737,6.146-43.476,28.388
	c-4.36,6.58-8.799,14.248-11.266,20.558C163.77,61.948,174.428,68.849,182.962,78.298z"/>
<path style="fill:#7C6359;" d="M179.123,48.147c10.107-15.253,22.437-26.021,32.179-29.166c-0.453-4.33-1.978-7.696-4.698-9.623
	c-9.273-6.564-28.738,6.146-43.476,28.388c-4.36,6.58-8.799,14.248-11.266,20.558c6.033,1.846,11.742,4.53,17.02,7.956
	C171.441,60.48,175.313,53.897,179.123,48.147z"/>
<path style="fill:#967D74;" d="M83.467,78.297c8.533-9.448,19.191-16.349,31.099-19.993c-2.467-6.31-6.903-13.978-11.263-20.558
	C88.565,15.505,69.1,2.795,59.826,9.359C47.88,17.814,58.711,53.322,83.467,78.297z"/>
<path style="fill:#7C6359;" d="M71.534,8.724c-4.632-1.585-8.706-1.491-11.708,0.635c-11.947,8.455-1.116,43.964,23.64,68.939
	c3.837-4.249,8.108-7.977,12.725-11.132C78.028,47.162,68.442,21.888,71.534,8.724z"/>
<path style="fill:#E8C842;" d="M239.414,276.73c-4.997-11.144-28.005-31.81-35.682-38.457
	c-18.986,19.943-17.858,18.652-18.824,19.817c2.647,4.399,14.854,22.953,26.998,26.29c0,0-24.75,14.557-34.911,26.76h-0.855
	c0.791,6.762,2.524,13.719,5.729,20.407c29.759-8.69,49.023-27.764,54.079-33.612C238.528,294.948,245.266,289.781,239.414,276.73z"
	/>
<path style="fill:#DBBC3B;" d="M222.307,291.349c4.703-3.047,4.725-9.837,0.127-13.04c-11.567-8.06-22.034-21.705-27.935-30.348
	c-9.37,9.82-8.821,9.199-9.591,10.128c2.647,4.399,14.854,22.953,26.998,26.29c0,0-24.749,14.557-34.91,26.76h-0.855
	c0.547,4.673,1.559,9.439,3.18,14.145C190.482,312.898,209.865,299.413,222.307,291.349z"/>
<path style="fill:#E8C842;" d="M89.07,311.111c-10.174-12.197-34.886-26.731-34.886-26.731
	c12.458-3.422,24.925-22.803,27.181-26.596l-19.77-18.847c-8.276,7.21-30.078,27-34.919,37.795
	c-4.748,10.59-0.841,16.513,1.096,18.597c0.8,0.861,1.597,1.712,2.371,2.606c5.097,5.898,24.615,25.243,54.811,33.831l4.117,0.739
	C89.07,332.505,89.07,311.111,89.07,311.111z"/>
<path style="fill:#DBBC3B;" d="M54.184,284.38c12.458-3.422,24.925-22.803,27.181-26.596l-10.357-9.873
	c-6.063,8.729-16.128,21.592-27.25,29.476c-4.846,3.435-4.8,10.612,0.18,13.848c13.388,8.699,34.278,23.323,45.132,36.335v-16.458
	C78.895,298.914,54.184,284.38,54.184,284.38z"/>
<path style="fill:#CC9D72;" d="M133.214,54.36c-39.742,0-71.959,34.347-71.959,81.601c0,20.51,6.07,47.623,16.189,71.743
	c1.395,3.325,4.668,5.474,8.273,5.474h94.991c3.606,0,6.879-2.149,8.273-5.474c10.119-24.121,16.189-51.234,16.189-71.743
	C205.172,88.707,172.955,54.36,133.214,54.36z"/>
<path style="fill:#C19067;" d="M121.435,207.49c-10.119-25.066-20.188-53.241-20.188-74.555c0-36.155,17.474-65.017,42.547-77.738
	c-3.454-0.547-6.985-0.837-10.58-0.837c-39.742,0-71.959,34.347-71.959,81.601c0,20.51,6.07,47.623,16.189,71.743
	c1.395,3.325,4.668,5.474,8.273,5.474h43.991C126.103,213.178,122.831,210.945,121.435,207.49z"/>
<path style="fill:#E8C842;" d="M122.36,479.851c5.375,0,10.149,2.653,13.115,6.703l0.286-112.628l-44.217-28.809l13.587,142.515
	C110.992,478.133,121.27,480.088,122.36,479.851z"/>
<path style="fill:#DBBC3B;" d="M113.128,359.179l-21.584-14.063l13.587,142.515c3.612-5.853,8.899-7.355,12.681-7.702
	L113.128,359.179z"/>
<path style="fill:#E8C842;" d="M267.036,454.672c-12.403-16.759-11.973-16.454-14.02-18.113c-10.011-8.113-6.137-6.64-71.398-98.025
	c-0.841,1.429,2.015-1.525-35.45,34.071l74.539,75.412c1.538,1.801,3.995,3.183,5.814,7.96c1.861,4.886,4.388,5.89,16.657,19.288
	c5.955,6.268,15.902,6.608,22.277,0.594C271.316,470.328,271.83,461.151,267.036,454.672z"/>
<path style="fill:#DBBC3B;" d="M255.154,466.778c-12.365-14.424-14.972-15.56-16.75-20.731c-1.738-5.056-4.259-6.585-5.804-8.519
	l-72.417-78.23c-3.899,3.698-8.521,8.084-14.017,13.306l74.539,75.412c1.538,1.801,3.994,3.183,5.813,7.96
	c1.861,4.886,4.388,5.89,16.657,19.288c5.955,6.268,15.902,6.608,22.277,0.594c1.134-1.07,2.063-2.279,2.796-3.575
	C263.437,472.506,258.583,470.633,255.154,466.778z"/>
<path style="fill:#967D74;" d="M115.677,204.182c-16.799,4.464-24.201,4.234-33.811,10.623l-21.023,13.976
	c-3.572,2.486-3.948,7.63-0.799,10.632l24.142,23.015c2.48,2.364,3.882,5.64,3.882,9.065v69.212c0,2.586,1.307,4.998,3.474,6.411
	l44.218,28.809c3.025,1.972,6.995,1.683,9.703-0.705l35.112-33.339c3.051-2.406,4.086-6.619,2.392-10.115
	c-12.464-25.728-3.08-55.563-1.658-62.684c0.821-4.107,2.587-7.964,5.479-10.995l20.116-21.093c2.463-2.581,2.069-6.763-0.844-8.822
	l-21.014-13.923c-2.481-1.644-5.225-2.85-8.113-3.567l-26.182-6.499"/>
<path style="fill:#7C6359;" d="M116.339,337.635c-2.298-1.497-3.683-4.053-3.683-6.796v-73.374c0-3.631-1.488-7.105-4.116-9.61
	l-25.593-24.4c-2.343-2.234-2.838-5.581-1.622-8.291L60.843,228.78c-3.572,2.486-3.948,7.63-0.798,10.632l24.142,23.015
	c2.48,2.364,3.882,5.64,3.882,9.065v69.212c0,2.586,1.307,4.998,3.474,6.411l44.217,28.81c3.025,1.972,6.995,1.683,9.703-0.705
	l11.623-11.037L116.339,337.635z"/>
<path style="fill:#656566;" d="M120.665,477.852L120.665,477.852c-9.879,0-17.962,8.083-17.962,17.962v1.893
	c0,3.752,3.042,6.795,6.795,6.795h21.844c4.024,0,7.287-3.262,7.287-7.287v-1.402C138.627,485.935,130.544,477.852,120.665,477.852z
	"/>
<path style="fill:#545456;" d="M117.867,497.707v-1.893c0-7.171,4.268-13.376,10.38-16.251c-2.31-1.086-4.873-1.712-7.583-1.712l0,0
	c-9.879,0-17.962,8.083-17.962,17.962v1.893c0,3.752,3.041,6.795,6.795,6.795h15.164
	C120.909,504.501,117.867,501.459,117.867,497.707z"/>
<path style="fill:#656566;" d="M229.801,461.186l13.375,14.079c5.955,6.268,15.902,6.608,22.277,0.594
	c5.862-5.531,6.376-14.708,1.582-21.186l-11.297-15.264l-1.958,4.763C247.108,460.407,230.814,460.769,229.801,461.186z"/>
<path style="fill:#545456;" d="M255.154,466.778c-4.496-5.244-7.697-8.727-10.042-11.291c-6.958,5.152-14.623,5.417-15.31,5.699
	c0.004,0.004,0.008,0.009,0.012,0.014l3.332,3.507c2.329,2.385,5.52,5.632,10.031,10.559c5.955,6.268,15.902,6.608,22.277,0.594
	c0,0,0.002-0.002,0.003-0.003c0.327-0.308,0.631-0.632,0.925-0.962c0.109-0.123,0.211-0.25,0.316-0.375
	c0.174-0.209,0.342-0.421,0.503-0.637c0.119-0.16,0.237-0.32,0.348-0.484c0.132-0.192,0.254-0.388,0.376-0.584
	c0.109-0.176,0.224-0.35,0.326-0.53l0,0C263.437,472.506,258.583,470.633,255.154,466.778z"/>
<path style="fill:#E8C842;" d="M115.677,192.512v19.914c0,9.686,7.851,17.538,17.538,17.538s17.537-7.851,17.537-17.538v-19.914
	C139.645,196.289,127.19,196.427,115.677,192.512z"/>
<path style="fill:#DBBC3B;" d="M133.215,212.427v-17.033c-5.892,0.001-11.83-0.941-17.538-2.882v19.914
	c0,9.686,7.851,17.538,17.538,17.538c3.198,0,6.187-0.87,8.768-2.366C136.746,224.566,133.215,218.915,133.215,212.427z"/>
<path style="fill:#F4D44E;" d="M185.697,137.728c-0.001-6.929-4.464-13.112-11.074-15.189
	c-35.432-11.131-55.294-33.638-55.189-33.553c-0.411-0.444-1.133-0.361-1.43,0.166c-2.647,4.709-14.287,23.096-36.305,26.557
	c-1.364,0.591-0.968-0.97-0.968,33.398c0,27.912,23.825,50.643,53.059,50.285c28.367-0.248,51.909-22.37,51.909-50.342
	C185.698,148.373,185.698,143.536,185.697,137.728z"/>
<path style="fill:#E8C842;" d="M105.726,149.109c0-18.327-0.113-34.111-0.011-44.945c-5.88,5.155-13.836,9.946-24.016,11.547
	c-1.365,0.591-0.968-0.97-0.968,33.398c0,27.912,23.825,50.643,53.059,50.285c4.079-0.036,8.053-0.537,11.877-1.43
	C122.747,192.587,105.726,172.7,105.726,149.109z"/>
<path style="fill:#967D74;" d="M400.294,78.298c24.937-25.158,35.476-60.562,23.64-68.94c-9.273-6.564-28.737,6.146-43.476,28.388
	c-4.36,6.58-8.799,14.248-11.266,20.558C381.102,61.948,391.76,68.849,400.294,78.298z"/>
<path style="fill:#7C6359;" d="M428.634,18.981c-2.241-21.424-28.426-11.037-48.176,18.765c-4.36,6.58-8.799,14.248-11.266,20.558
	c6.033,1.846,11.742,4.53,17.02,7.956C393.583,49.628,411.385,24.551,428.634,18.981z"/>
<path style="fill:#967D74;" d="M300.799,78.297c8.533-9.448,19.191-16.349,31.099-19.993c-2.467-6.31-6.903-13.978-11.263-20.558
	c-14.738-22.242-34.203-34.951-43.476-28.388C265.212,17.814,276.043,53.322,300.799,78.297z"/>
<path style="fill:#7C6359;" d="M288.866,8.724c-4.632-1.585-8.706-1.491-11.708,0.635c-11.947,8.455-1.116,43.964,23.64,68.939
	c3.837-4.249,8.108-7.977,12.725-11.132C295.36,47.162,285.774,21.888,288.866,8.724z"/>
<path style="fill:#E8C842;" d="M456.746,276.73c-4.997-11.144-28.005-31.81-35.682-38.457
	c-18.986,19.943-17.858,18.652-18.824,19.817c2.647,4.399,14.854,22.953,26.998,26.29c0,0-24.749,14.557-34.911,26.76h-0.855
	c0.791,6.762,2.523,13.719,5.729,20.407c29.759-8.69,49.023-27.764,54.079-33.612C455.86,294.948,462.598,289.781,456.746,276.73z"
	/>
<path style="fill:#DBBC3B;" d="M439.639,291.349c4.703-3.047,4.725-9.837,0.127-13.04c-11.567-8.06-22.034-21.705-27.936-30.348
	c-9.37,9.82-8.821,9.199-9.591,10.128c2.647,4.399,14.854,22.953,26.998,26.29c0,0-24.749,14.557-34.91,26.76h-0.855
	c0.547,4.673,1.559,9.439,3.18,14.145C407.814,312.898,427.197,299.413,439.639,291.349z"/>
<path style="fill:#E8C842;" d="M306.402,311.111c-10.174-12.197-34.886-26.731-34.886-26.731
	c12.458-3.422,24.925-22.803,27.181-26.596l-19.77-18.847c-8.276,7.21-30.078,27-34.919,37.795
	c-4.748,10.59-0.841,16.513,1.096,18.597c0.8,0.861,1.597,1.712,2.371,2.606c5.097,5.898,24.615,25.243,54.811,33.831l4.117,0.739
	L306.402,311.111L306.402,311.111z"/>
<path style="fill:#DBBC3B;" d="M271.516,284.38c12.458-3.422,24.925-22.803,27.181-26.596l-10.357-9.873
	c-6.063,8.729-16.128,21.592-27.25,29.476c-4.846,3.435-4.8,10.612,0.18,13.848c13.388,8.699,34.278,23.323,45.132,36.335v-16.458
	C296.227,298.914,271.516,284.38,271.516,284.38z"/>
<path style="fill:#CC9D72;" d="M350.546,54.36c-39.742,0-71.959,34.347-71.959,81.601c0,20.51,6.07,47.623,16.189,71.743
	c1.395,3.325,4.668,5.474,8.273,5.474h94.991c3.606,0,6.879-2.149,8.273-5.474c10.119-24.121,16.189-51.234,16.189-71.743
	C422.504,88.707,390.287,54.36,350.546,54.36z"/>
<path style="fill:#C19067;" d="M338.767,207.49c-10.119-25.066-20.188-53.241-20.188-74.555c0-36.155,17.474-65.017,42.547-77.738
	c-42.874-6.783-82.539,27.939-82.539,80.765c0,20.51,6.07,47.623,16.189,71.743c1.395,3.325,4.668,5.474,8.273,5.474h43.991
	C343.435,213.178,340.163,210.945,338.767,207.49z"/>
<path style="fill:#E8C842;" d="M339.692,479.851c5.375,0,10.149,2.653,13.115,6.703l0.286-112.628l-44.217-28.809l13.587,142.515
	C328.324,478.133,338.602,480.088,339.692,479.851z"/>
<path style="fill:#DBBC3B;" d="M330.46,359.179l-21.584-14.063l13.587,142.515c3.612-5.853,8.899-7.355,12.681-7.702L330.46,359.179
	z"/>
<path style="fill:#E8C842;" d="M484.368,454.672c-12.403-16.759-11.973-16.454-14.02-18.113c-10.011-8.113-6.137-6.64-71.398-98.025
	c-0.841,1.429,2.015-1.525-35.45,34.071l74.539,75.412c1.538,1.801,3.994,3.183,5.814,7.96c1.861,4.886,4.388,5.89,16.657,19.288
	c5.955,6.268,15.902,6.608,22.277,0.594C488.648,470.328,489.162,461.151,484.368,454.672z"/>
<path style="fill:#DBBC3B;" d="M472.486,466.778c-12.365-14.424-14.972-15.56-16.75-20.731c-1.738-5.056-4.259-6.585-5.804-8.519
	l-72.417-78.229c-3.899,3.698-8.521,8.084-14.017,13.306l74.539,75.412c1.538,1.801,3.994,3.183,5.813,7.96
	c1.861,4.886,4.388,5.89,16.657,19.288c5.955,6.268,15.902,6.608,22.277,0.594c1.134-1.07,2.063-2.279,2.796-3.575
	C480.769,472.506,475.915,470.633,472.486,466.778z"/>
<path style="fill:#967D74;" d="M333.01,204.182c-16.799,4.464-24.201,4.234-33.811,10.623l-21.023,13.976
	c-3.572,2.486-3.948,7.63-0.799,10.632l24.142,23.015c2.48,2.364,3.882,5.64,3.882,9.065v69.212c0,2.586,1.307,4.998,3.474,6.411
	l44.218,28.809c3.025,1.972,6.995,1.683,9.703-0.705l35.112-33.339c3.051-2.406,4.086-6.619,2.392-10.115
	c-12.464-25.728-3.08-55.563-1.658-62.684c0.821-4.107,2.588-7.964,5.478-10.995l20.116-21.093c2.463-2.581,2.069-6.763-0.844-8.822
	l-21.014-13.923c-2.48-1.644-5.225-2.85-8.113-3.567l-26.182-6.499"/>
<path style="fill:#7C6359;" d="M333.671,337.635c-2.298-1.497-3.683-4.053-3.683-6.796v-73.374c0-3.631-1.488-7.105-4.116-9.61
	l-25.593-24.4c-2.343-2.234-2.838-5.581-1.622-8.291l-20.482,13.615c-3.572,2.486-3.948,7.63-0.798,10.632l24.142,23.015
	c2.48,2.364,3.882,5.64,3.882,9.065v69.212c0,2.586,1.307,4.998,3.474,6.411l44.217,28.81c3.025,1.972,6.995,1.683,9.703-0.705
	l11.623-11.037L333.671,337.635z"/>
<path style="fill:#656566;" d="M337.998,477.852L337.998,477.852c-9.879,0-17.962,8.083-17.962,17.962v1.893
	c0,3.752,3.042,6.795,6.795,6.795h21.844c4.024,0,7.287-3.262,7.287-7.287v-1.402C355.959,485.935,347.877,477.852,337.998,477.852z
	"/>
<path style="fill:#545456;" d="M335.199,497.707v-1.893c0-7.171,4.268-13.376,10.38-16.251c-2.31-1.086-4.873-1.712-7.583-1.712l0,0
	c-9.879,0-17.962,8.083-17.962,17.962v1.893c0,3.752,3.041,6.795,6.795,6.795h15.164
	C338.242,504.501,335.199,501.459,335.199,497.707z"/>
<path style="fill:#656566;" d="M447.133,461.186l13.375,14.079c5.955,6.268,15.902,6.608,22.277,0.594
	c5.862-5.531,6.376-14.708,1.582-21.186l-11.297-15.264l-1.958,4.763C464.441,460.407,448.146,460.769,447.133,461.186z"/>
<path style="fill:#545456;" d="M472.486,466.778c-4.496-5.244-7.697-8.727-10.042-11.291c-6.958,5.152-14.623,5.417-15.31,5.699
	c0.004,0.004,0.008,0.009,0.012,0.014l3.332,3.507c2.329,2.385,5.52,5.632,10.031,10.559c5.955,6.268,15.902,6.608,22.277,0.594
	l0.003-0.003c0.327-0.308,0.631-0.632,0.925-0.962c0.109-0.123,0.211-0.25,0.316-0.375c0.174-0.209,0.342-0.421,0.503-0.637
	c0.119-0.16,0.237-0.32,0.348-0.484c0.132-0.192,0.254-0.388,0.376-0.584c0.109-0.176,0.224-0.35,0.326-0.53l0,0
	C480.769,472.506,475.915,470.633,472.486,466.778z"/>
<path style="fill:#E8C842;" d="M333.01,192.512v19.914c0,9.686,7.851,17.538,17.538,17.538s17.537-7.851,17.537-17.538v-19.914
	C356.977,196.289,344.522,196.427,333.01,192.512z"/>
<path style="fill:#DBBC3B;" d="M350.547,212.427v-17.033c-5.892,0.001-11.83-0.941-17.538-2.882v19.914
	c0,9.686,7.851,17.538,17.538,17.538c3.198,0,6.187-0.87,8.768-2.366C354.078,224.566,350.547,218.915,350.547,212.427z"/>
<path style="fill:#F4D44E;" d="M403.029,137.728c-0.001-6.929-4.464-13.112-11.074-15.189
	c-35.432-11.131-55.294-33.638-55.189-33.553c-0.411-0.444-1.133-0.361-1.43,0.166c-2.647,4.709-14.287,23.096-36.305,26.557
	c-1.364,0.591-0.968-0.97-0.968,33.398c0,27.912,23.825,50.643,53.059,50.285c28.367-0.248,51.909-22.37,51.909-50.342
	C403.03,148.373,403.03,143.536,403.029,137.728z"/>
<path style="fill:#E8C842;" d="M323.059,149.109c0-18.327-0.113-34.111-0.011-44.945c-5.88,5.155-13.836,9.946-24.016,11.547
	c-1.365,0.591-0.968-0.97-0.968,33.398c0,27.912,23.825,50.643,53.059,50.285c4.079-0.036,8.053-0.537,11.877-1.43
	C340.079,192.587,323.059,172.7,323.059,149.109z"/>
<path d="M365.066,161.591h-29.549c-1.269,0-2.088,1.346-1.503,2.472c0.224,0.431,0.466,0.857,0.727,1.276
	c7.469,12.017,25.13,11.71,32.241-0.391C367.855,163.463,366.788,161.591,365.066,161.591z"/>
<circle cx="371.357" cy="137.653" r="7.865"/>
<circle cx="329.755" cy="137.653" r="7.865"/>
<path d="M147.712,161.591h-29.549c-1.269,0-2.088,1.346-1.503,2.472c0.224,0.431,0.466,0.857,0.727,1.276
	c7.468,12.016,25.128,11.712,32.241-0.391C150.501,163.463,149.434,161.591,147.712,161.591z"/>
<circle cx="154" cy="137.653" r="7.865"/>
<circle cx="112.408" cy="137.653" r="7.865"/>
<path d="M483.554,440.953c-3.744-4.836-4.977-7.387-8.476-10.219c-7.927-6.426-6.939-7.827-31.182-41.59
	c-2.377-3.389-7.052-4.212-10.445-1.836c-3.391,2.378-4.212,7.055-1.836,10.445c23.737,33.034,23.731,35.869,32.618,43.461
	c-0.073,0.1-3.19,9.194-13.535,11.696c-3.266-8.182-1.503-3.34-75.476-79.135c3.604-3.422,17.519-16.635,23.766-22.567
	l12.143,17.322c2.379,3.389,7.052,4.213,10.445,1.836c3.391-2.378,4.212-7.055,1.836-10.445l-15.12-21.568
	c0.106-0.534,0.181-1.074,0.232-1.617c28.139-9.962,45.543-28.228,50.445-33.9c0.68-0.786,1.427-1.586,2.188-2.404
	c9.043-9.731,4.158-22.949,2.446-26.769c-4.573-10.198-19.895-25.147-31.346-35.414c2.645-6.113,0.329-13.022-4.709-16.328
	l-14.919-9.886c10.774-25.172,17.388-53.919,17.388-76.074c0-22.017-6.635-42.478-18.767-58.386
	c1.968-2.269,3.885-4.647,5.721-7.147c2.453-3.337,1.736-8.03-1.602-10.482c-3.336-2.453-8.029-1.736-10.482,1.602
	c-1.246,1.695-2.527,3.329-3.837,4.897c-6.268-5.667-13.262-10.163-20.757-13.419c7.773-15.735,24.051-35.448,36.34-37.745
	c0.641-0.122,2.22-0.344,2.982,0.198c1.534,1.086,2.883,6.684-0.023,17.081c-1.115,3.988,1.214,8.126,5.202,9.24
	c3.989,1.119,8.125-1.215,9.24-5.202c11.99-42.892-26.856-52.731-59.813-2.991c-3.22,4.861-6.012,9.828-8.354,14.831
	c-10.113-2.1-20.503-2.1-30.617,0c-2.344-5.008-5.133-9.976-8.35-14.832c-32.615-49.218-68.051-39.012-61.15-2.649
	c3.086,16.272,13.116,33.953,24.117,46.626c-12.131,15.907-18.763,36.366-18.763,58.38c0,22.359,6.741,51.428,17.69,76.765
	c-19.799,13.164-13.7,9.063-14.887,9.9c-3.552,2.472-5.779,6.365-6.112,10.684c-0.135,1.752,0.063,3.477,0.537,5.115
	c-8.72,7.837-19.904,18.598-26.615,27.774c-6.717-9.199-17.928-19.982-26.815-27.949c2.64-6.104,0.345-12.984-4.708-16.328
	l-14.92-9.886c10.774-25.171,17.388-53.918,17.388-76.074c0-22.015-6.633-42.473-18.763-58.38
	c10.956-12.62,21.023-30.313,24.117-46.626c2.449-12.903-0.069-22.748-7.091-27.718c-18.403-13.018-48.714,15.937-62.413,45.199
	c-10.113-2.1-20.503-2.101-30.618,0C104.924,20.714,74.455-10.184,55.483,3.237c-7.021,4.97-9.54,14.813-7.092,27.718
	C51.48,47.227,61.508,64.907,72.509,77.58c-12.131,15.908-18.764,36.367-18.764,58.381c0,22.36,6.741,51.429,17.692,76.765
	c-19.838,13.188-13.702,9.064-14.886,9.899c-5.032,3.499-7.315,9.794-5.576,15.8c-11.248,10.109-26.602,25.087-31.154,35.238
	c-7.938,17.702,2.616,26.801,2.652,26.993c2.722,2.924,2.845,3.289,5.724,6.242c2.89,2.967,7.638,3.029,10.603,0.139
	c2.966-2.89,3.028-7.637,0.139-10.603c-1.272-1.306-5.599-6.109-5.687-6.209c-0.896-0.965-2.667-3.913,0.253-10.425
	c2.573-5.741,12.685-16.86,26.891-29.68l10.307,9.826c-5.541,8.038-12.682,15.6-18.517,17.203c-6.316,1.736-7.519,10.2-1.933,13.624
	c5.866,3.596,21.906,14.282,30.307,23.187v8.88c-5.271-1.825-10.442-4.096-15.434-6.78c-3.645-1.962-8.193-0.596-10.155,3.051
	c-1.963,3.646-0.597,8.193,3.051,10.155c7.232,3.891,14.809,7.014,22.538,9.313c0.145,0.991-0.923,6.821,3.793,12.151
	l13.079,133.334c-3.107,6.625-2.01,11.847-2.239,15.337c0,6.947,5.651,12.6,12.599,12.6h25.232c7.219,0,13.091-5.872,13.091-13.09
	c-0.252-2.872,1.095-9.2-3.146-16.586l0.258-97.93c1.057-0.213,2.092-0.54,3.091-0.971c75.073,76.371,71.814,71.626,73.184,75.222
	c2.643,6.944,6.598,8.949,18.227,21.785c14.336,15.088,40.249,5.063,40.052-16.163c-0.046-4.892-1.603-9.829-4.73-14.056
	c-0.074-0.1-11.381-15.377-11.305-15.274c-3.355-4.533-7.201-5.847-11.407-11.851l-59.404-84.735
	c0.105-0.535,0.181-1.074,0.232-1.617c19.971-7.071,38.337-19.955,50.542-34.009c13.803,15.797,34.173,29.299,56.205,35.854
	c0.145,0.991-0.923,6.82,3.792,12.15l13.079,133.334c-3.107,6.625-2.01,11.846-2.239,15.337c0,6.947,5.652,12.6,12.599,12.6h25.232
	c7.219,0,13.09-5.872,13.09-13.09c-0.252-2.877,1.095-9.198-3.145-16.585l0.258-97.931c1.057-0.213,2.092-0.54,3.09-0.971
	c75.074,76.371,71.814,71.626,73.185,75.222c2.65,6.961,6.679,9.035,18.227,21.785c14.32,15.072,40.249,5.045,40.052-16.163
	C495.032,453.101,487.794,447.671,483.554,440.953z M182.188,204.47c-3.054-1.118-3.938-1.122-19.535-5.057
	c18.194-9.957,30.534-28.833,30.534-50.368l-0.002-14.713c1.666-0.143,3.206-0.844,4.406-1.938
	C198.447,154.986,191.098,183.157,182.188,204.47z M118.719,189.616c-17.696-5.756-30.5-21.795-30.5-40.564l0.004-27.064
	c15.504-4.11,25.813-14.421,31.572-22.005c13.265,12.236,34.736,25.041,58.391,31.403l0.003,17.723
	C178.189,178.167,147.994,199.099,118.719,189.616z M143.242,206.089v6.338c0,5.536-4.503,10.039-10.038,10.039
	c-5.536,0-10.039-4.503-10.039-10.039v-6.337c0.003,0,0.006,0.001,0.008,0.001c5.744,0.935,10.793,0.801,10.671,0.801
	c2.742-0.025,6.175-0.287,9.265-0.784C143.154,206.101,143.198,206.096,143.242,206.089z M199.276,15.28
	c0.643-0.122,2.219-0.344,2.983,0.199c4.925,3.485,0.193,28.535-18.565,50.966c-6.269-5.667-13.264-10.163-20.759-13.42
	C171.229,36.237,187.496,17.481,199.276,15.28z M67.132,15.28c6.749,1.262,18.987,10.126,29.909,26.609
	c2.429,3.664,4.578,7.39,6.428,11.136c-7.494,3.257-14.488,7.753-20.757,13.419C64.711,44.927,56.059,13.197,67.132,15.28z
	 M68.743,135.961c0-31.222,16.166-61.741,47.068-71.509c35.394-10.777,72.971,12.426,80.524,55.949
	c-0.943-0.555-43.532-6.567-71.415-36.514c-3.862-4.163-10.67-3.366-13.465,1.591c-1.85,3.29-12.033,19.853-30.932,22.824
	c-3.772,0.594-7.166,4.118-7.288,8.696c-0.002,0.1-0.004,0.214-0.005,0.241l-0.01,31.869c0,21.428,12.267,40.24,30.357,50.216
	l-9.988,2.352c-3.188,0.751-6.266,1.821-9.216,3.176C74.673,181.776,68.743,155.851,68.743,135.961z M80.56,293.81
	c-4.166-3.35-8.442-6.462-12.134-9.021c3.648-2.922,7.801-7.039,12.134-12.812V293.81z M100.519,361.922l27.722,18.061l-0.24,91.055
	c-4.24-1.039-11.62-1.16-16.721,0.584L100.519,361.922z M131.118,497.003H110.19v-2.884c0-4.933,4.123-8.769,8.769-8.769
	c3.238,0.017,4.483-0.181,6.485,0.575C132.581,488.665,130.906,496.086,131.118,497.003z M139.845,369.643
	c-0.1-0.065-44.287-28.813-44.287-28.937c0-14.361,0-55.253,0-69.212c0-5.449-2.263-10.732-6.207-14.493
	c-5.962-5.684-13.117-12.506-23.592-22.491c18.228-11.546,21.785-16.005,31.269-18.236l11.171-2.629
	c0.637,13.241,11.609,23.818,25.005,23.818c13.356,0,24.303-10.515,24.999-23.702c15.667,4.167,18.314,3.839,22.691,6.738
	l19.223,12.738c-0.096,0.101-0.918,0.962-0.822,0.861c-22.694,23.831-22.51,21.706-25.995,36.334
	c-5.42,22.716-6.748,43.21,2.796,64.358c0.448,0.937-0.104,1.092-0.694,1.655C138.519,371.189,140.538,370.093,139.845,369.643z
	 M197.577,284.832c-4.029,2.796-8.746,6.243-13.255,9.939c0.636-8.233,2.259-15.368,3.371-20.05
	C190.534,278.226,193.873,281.813,197.577,284.832z M257.025,453.765l3.973,5.367c2.592,3.504,2.285,8.455-0.7,11.272
	c-3.317,3.128-8.562,2.992-11.695-0.305l-4.821-5.074C249.084,462.475,253.637,458.609,257.025,453.765z M246.879,441.214
	c-0.075,0.104-3.21,9.2-13.536,11.697c-3.264-8.183-1.503-3.342-75.477-79.136c4.736-4.497,22.63-21.487,23.766-22.567
	C240.827,434.678,237.545,433.24,246.879,441.214z M230.264,293.031c-4.21,4.871-19.023,20.424-43.083,29.208
	c-0.837-2.53-1.507-5.177-2.005-7.93c9.946-10.787,30.421-23.404,30.638-23.537c5.581-3.424,4.382-11.888-1.935-13.623
	c-5.788-1.59-12.957-9.181-18.508-17.208l9.798-10.274c14.304,12.868,24.811,24.377,27.391,30.13c0,0,0,0,0,0.001
	C236.385,288.326,232.691,290.22,230.264,293.031z M449.914,279.798c3.824,8.527,0.131,10.425-2.298,13.232
	c-4.209,4.871-19.022,20.424-43.082,29.208c-0.837-2.529-1.507-5.177-2.006-7.93c9.946-10.787,30.421-23.404,30.638-23.537
	c5.581-3.424,4.382-11.888-1.935-13.623c-5.791-1.591-12.959-9.182-18.508-17.208l9.798-10.273
	C436.829,262.536,447.335,274.044,449.914,279.798z M401.675,294.772c0.636-8.232,2.259-15.367,3.371-20.05
	c2.84,3.504,6.179,7.092,9.883,10.111C410.901,287.629,406.184,291.076,401.675,294.772z M399.542,204.47
	c-3.04-1.113-3.593-1.035-19.535-5.057c18.194-9.956,30.533-28.831,30.533-50.361l-0.002-14.72c1.666-0.143,3.206-0.844,4.406-1.938
	C415.8,154.981,408.454,183.151,399.542,204.47z M305.572,149.057l0.004-27.069c15.5-4.109,25.809-14.418,31.572-22.006
	c14.165,13.065,35.719,25.315,58.391,31.404l0.003,17.723c0,18.93-13.139,35.268-31.38,40.787
	C335.674,198.537,305.572,178.425,305.572,149.057z M360.596,206.089v6.338c0,5.536-4.503,10.039-10.039,10.039
	c-5.535,0-10.038-4.503-10.038-10.039v-6.337C347.469,207.106,353.522,207.23,360.596,206.089z M284.485,15.28
	c6.749,1.262,18.987,10.126,29.91,26.608c2.43,3.666,4.578,7.392,6.428,11.137c-7.495,3.257-14.489,7.753-20.757,13.419
	C282.85,45.848,272.969,13.114,284.485,15.28z M286.098,135.961c0-69.285,71.2-96.551,109.763-53.509
	c9.186,10.223,15.295,23.354,17.827,37.95c-2.955-1.738-41.214-5.105-71.415-36.514c-3.827-4.13-10.66-3.4-13.463,1.59
	c-1.851,3.29-12.038,19.855-30.932,22.825c-3.813,0.601-7.293,4.217-7.293,8.918c-0.009,0.981-0.004,0.333-0.011,31.889
	c0,21.428,12.268,40.241,30.358,50.216c-7.942,2.039-12.413,2.407-19.204,5.528C292.029,181.775,286.098,155.851,286.098,135.961z
	 M297.914,322.843c-25.025-8.65-40.426-24.801-44.759-29.814c-0.838-0.969-1.692-1.883-2.549-2.806
	c-0.897-0.965-2.667-3.912,0.253-10.424c2.576-5.744,12.686-16.863,26.891-29.68l10.307,9.825
	c-5.543,8.04-12.685,15.601-18.517,17.204c-6.316,1.735-7.518,10.2-1.933,13.624c5.866,3.596,21.906,14.282,30.307,23.187v8.884
	H297.914z M297.914,293.81c-4.137-3.326-8.381-6.417-12.056-8.966c4.697-3.821,8.796-8.555,12.056-12.906V293.81z M317.874,361.922
	l27.723,18.061l-0.24,91.055c-4.195-1.028-11.578-1.169-16.722,0.584L317.874,361.922z M348.471,497.003h-20.928
	c0.151-2.28-0.532-4.438,1.312-7.435c1.429-2.318,3.779-3.837,6.42-4.152C350.811,483.556,348.269,496.815,348.471,497.003z
	 M357.198,369.643c-46.317-30.21-44.286-28.779-44.286-28.936c0-14.996,0-54.266,0-69.212c0-5.449-2.263-10.731-6.208-14.493
	c-4.968-4.736-16.077-15.327-23.592-22.491l20.249-13.461c7.553-5.02,13.554-5.035,22.193-7.405
	c0.637,13.241,11.609,23.818,25.004,23.818c13.357,0,24.304-10.515,25-23.702c15.514,4.126,18.315,3.838,22.691,6.738l19.222,12.738
	c-21.946,23.01-23.173,21.903-26.817,37.195c-4.95,20.747-6.793,42.034,1.65,61.82c1.624,3.799,1.709,3.003,0.454,4.192
	C355.943,371.121,357.904,370.101,357.198,369.643z M479.385,467.948c-2.291,5.135-9.38,6.412-13.428,2.153l-4.821-5.074
	c5.302-2.552,9.856-6.417,13.242-11.26C475.925,456.606,482.303,461.403,479.385,467.948z"/>
<g>
</g>
<g>
</g>
<g>
</g>
<g>
</g>
<g>
</g>
<g>
</g>
<g>
</g>
<g>
</g>
<g>
</g>
<g>
</g>
<g>
</g>
<g>
</g>
<g>
</g>
<g>
</g>
<g>
</g>
</svg>
