<?xml version="1.0" encoding="iso-8859-1"?>
<!-- Generator: Adobe Illustrator 19.0.0, SVG Export Plug-In . SVG Version: 6.00 Build 0)  -->
<svg version="1.1" id="Capa_1" xmlns="http://www.w3.org/2000/svg" xmlns:xlink="http://www.w3.org/1999/xlink" x="0px" y="0px"
	 viewBox="0 0 512.001 512.001" style="enable-background:new 0 0 512.001 512.001;" xml:space="preserve">
<path style="fill:#CC9D72;" d="M155.995,146.098l17.101-9.453c3.466-4.628,1.969-7.249,2.551-21.018
	c-6.151-4.769-8.312-9.177-9.347-10.619c-2.362-27.017,7.753-24.398,26.203-50.489c3.605-5.099,10.637-6.345,15.795-2.824
	c6.744,4.601,14.653,12.637,17.752,22.078c0.993-3.646,4.943-19.831,1.13-33.332c-6.016-21.306-47.249-34.3-73.371-8.948l0,0
	c-8.583,8.414-14.662,21.317-14.662,39.876C139.148,95.284,147.01,125.215,155.995,146.098z"/>
<path style="fill:#C19067;" d="M166.301,105.009c-1.574-18.015,2.405-22.859,10.697-31.819
	c-1.284-18.183,1.089-35.974,14.324-48.949l0,0c2.208-2.143,4.571-4.042,7.053-5.696c-15.642-3.243-32.437,1.179-44.564,12.948l0,0
	c-8.583,8.414-14.662,21.317-14.662,39.876c0,23.915,7.862,53.846,16.847,74.729l17.101-9.453c3.466-4.628,1.969-7.249,2.551-21.018
	C169.496,110.859,167.335,106.452,166.301,105.009z"/>
<path style="fill:#ED694A;" d="M249.143,449.673c-14.451,15.818-20.107,6.534-41.843,13.72
	c2.868,16.793,20.004,28.355,33.965,35.253c4.449,2.199,9.624-1.175,9.382-6.133l-0.978-20.001L249.143,449.673z"/>
<path style="fill:#DB4E33;" d="M229.46,459.887c-5.605,0.378-12.188,0.21-22.159,3.507c2.868,16.793,20.004,28.355,33.965,35.253
	c4.449,2.199,9.624-1.175,9.382-6.133l-0.721-14.753C242.215,473.172,234.528,467.242,229.46,459.887z"/>
<path style="fill:#F4D44E;" d="M317.315,110.713c-7.007-38.805-30.362-68.987-30.362-68.987
	c-9.989-17.645,3.413-34.224-19.763-34.224c-19.402,0-18.594,14.821-15.629,24.523c2.026,6.629,10.31,20.2,15.304,26.279
	c10.389,12.647,15.155,38.631,16.831,50.228c0.459,3.178-1.723,6.128-4.897,6.605c-21.176,3.186-47.651,9.316-58.929,12.022
	c-3.021,0.725-6.041-1.18-6.695-4.217l-1.413-10.558c-10.95,11.235-26.415,9.402-38.26,0.13l0.946,13.744
	c0.498,5.097-2.276,9.956-6.928,12.096c-12.656,5.823-38.077,18.844-55.908,36.675c0,0-13.115,8.443-13.115,19.763
	c0,10.391,14.082,37.135,34.323,51.874l0.5,0.597c3.165,3.773,1.835,9.527-2.667,11.526c-0.1,0.041-8.223,3.364-7.705,3.152
	c-7.637,3.096-6.209,13.595,1.35,15.03l6.376,1.21c10.225,1.942,20.62-2.424,26.392-11.083l0,0c5.266-7.9,3.47-15.411,3.598-17.261
	c-0.309-6.428-2.141-12.691-5.37-18.258c-4.689-8.087-12.035-20.067-18.883-28.347c-1.903-2.3-1.133-5.774,1.551-7.077
	l30.451-14.788c4.277-2.078,9.423-0.14,11.267,4.243l5.662,13.456l0.978-0.806c0,0,11.865-14.56,11.865-24.261
	c0-9.393,27.962-25.561,46.922-15.801c-0.367-0.991-0.747-1.979-1.159-2.954C243.949,155.246,324.321,149.519,317.315,110.713z"/>
<g>
	<path style="fill:#E8C842;" d="M266.866,58.304c10.389,12.647,15.155,38.631,16.831,50.228c0.369,2.553-0.969,4.955-3.154,6.051
		c4.976-0.923,9.915-1.771,14.594-2.475c3.175-0.477,5.357-3.427,4.897-6.605c-1.675-11.598-6.442-37.582-16.831-50.228
		c-4.994-6.08-13.279-19.651-15.304-26.279c-2.106-6.892-3.115-16.364,3.43-21.274c-16.99-1.949-25.114,6.804-19.768,24.304
		C253.586,38.654,261.871,52.224,266.866,58.304z"/>
	<path style="fill:#E8C842;" d="M192.033,132.271l-0.813-12.251c-6.145-0.595-12.309-3.272-17.719-7.506l0.946,13.744
		c0.498,5.097-2.276,9.956-6.929,12.096c-12.656,5.823-38.077,18.844-55.908,36.675c0,0-13.115,8.443-13.115,19.763
		c0,10.391,14.082,37.135,34.323,51.874l0.5,0.597c-0.057-0.383,0.254-5.518-3.292-10.546c-9.04-12.821-14.52-26.15-14.52-32.891
		c0-11.817,13.214-20.633,13.214-20.633c17.966-18.617,43.58-32.213,56.332-38.292C189.741,142.666,192.535,137.594,192.033,132.271
		z"/>
</g>
<path style="fill:#ED694A;" d="M354.035,457.957c0,0-3.034,19.438,6.667,32.187c10.465,13.752,30.815,14.847,46.528,14.219
	c4.959-0.198,7.888-5.636,5.303-9.873l-10.428-17.095"/>
<path style="fill:#DB4E33;" d="M380.121,468.506l-26.086-10.549c0,0-3.035,19.438,6.667,32.187
	c8.503,11.175,23.536,13.993,37.302,14.319C384.216,497.489,379.581,484.077,380.121,468.506z"/>
<path style="fill:#F4D44E;" d="M387.18,451.501l-47.723-85.098c-11.122,11.681-21.084-4.013-31.643,23.694l46.221,67.861
	c11.436,16.164,28.359,19.438,48.071,19.438L387.18,451.501z"/>
<path style="fill:#E8C842;" d="M322.175,372.526c-4.774,1.267-9.505,4.827-14.361,17.571l46.221,67.861
	c6.889,9.736,15.769,14.791,26.049,17.276C314.206,358.392,322.986,373.964,322.175,372.526z"/>
<path style="fill:#ED694A;" d="M338.334,246.666c-16.823,0-25.219,16.62-29.118,33.071c-0.626,2.644-3.552,4.029-6.04,2.935
	c-0.591-0.538-28.672-8.821-53.276-56.537c-3.08-5.974-4.122-12.785-3.005-19.411c3.2-18.986,4.544-33.733-2.947-51.479
	c-18.931-11.879-48.764,5.052-48.764,14.754c0,9.702-11.865,24.261-11.865,24.261c8.248,20.831,11.847,24.925,12.161,34.209
	c0.876,25.923,0.213,129.345-61.946,184.627c-13.106,11.655-13.744,31.942-1.753,44.741c8.707,9.295,19.849,17.217,32.525,17.217
	c30.664,0,36.881-14.013,63.955-14.013s29.229-38.805,56.178-38.805c26.949,0,17.247-49.585,44.195-49.585
	s20.481-59.286,50.662-67.909C409.478,296.117,366.361,246.666,338.334,246.666z"/>
<path style="fill:#DB4E33;" d="M158.604,460.012c-11.991-12.8-11.353-33.085,1.753-44.741
	c62.159-55.282,62.823-158.704,61.946-184.627c-0.233-6.885-2.273-10.916-6.677-21.039c-3.231-7.426-2.844-15.982,1.235-22.978
	c2.683-4.601,5.146-10.031,5.146-14.452c0-5.567,9.826-13.505,21.775-17.024c-18.939-11.681-48.598,5.174-48.598,14.848
	c0,9.702-11.865,24.261-11.865,24.261c8.248,20.831,11.847,24.925,12.16,34.209c0.875,25.923,0.213,129.345-61.946,184.627
	c-13.106,11.655-13.744,31.942-1.752,44.741c15.656,16.711,28.223,18.959,45.499,16.261
	C170.27,470.945,163.973,465.743,158.604,460.012z"/>
<path style="fill:#F4D44E;" d="M207.299,49.694c-5.158-3.52-12.19-2.275-15.795,2.824c-4.072,5.759-10.321,13.774-18.631,22.084
	c-8.262,8.262-9.393,20.019-8.572,29.405l0.006,0.008c8.141,14.592,31.473,26.368,47.102,10.739
	c15.63-15.629,14.643-40.983,14.643-40.983C223.797,62.946,214.698,54.743,207.299,49.694z"/>
<path style="fill:#E8C842;" d="M180.717,95.935c-5.194-7.285-5.163-17.07-3.499-25.86c-5.212,5.618-14.781,12.619-12.918,33.935
	l0.006,0.008c8.085,14.491,31.145,26.191,46.771,11.047C199.287,112.586,188.065,105.13,180.717,95.935z"/>
<path d="M418.938,490.584c-48.353-82.342,30.252,53.03-43.109-73.441c-2.087-3.579-6.681-4.788-10.26-2.701
	c-3.579,2.087-4.788,6.681-2.701,10.26c1.696,2.92-7.638-13.146,25.782,44.372c-11.326-1.432-20.924-4.755-28.492-15.451
	l-43.606-61.631c6.462-15.878,10.547-9.991,19.646-13.025l9.032,15.487c1.394,2.391,3.906,3.724,6.487,3.724
	c5.734,0,9.403-6.26,6.474-11.282l-9.974-17.103c12.988-17.337,14.64-52.554,33.14-57.837c11.237-3.211,17.026-11.702,15.483-22.714
	c-4.369-31.195-74.219-86.628-93.974-14.931c-28.015-13.533-45.89-50.188-49.823-58.912c0.449-6.645,7.743-30.129,1.093-53.741
	c33.91-4.66,76.638-18.627,70.562-52.277c-0.821-4.552-1.919-9.268-3.259-14.013c-1.127-3.985-5.264-6.305-9.261-5.179
	c-3.986,1.127-6.306,5.272-5.179,9.261c1.21,4.28,2.197,8.519,2.933,12.598c4.174,23.105-39.302,32.807-62.238,35.319
	c-3.557-4.804-9.992-10.492-15.972-15.276c14.676-3.363,36.884-8.129,53.681-10.305c4.025-0.521,6.905-4.149,6.501-8.189
	c-1.778-17.414-7.793-46.117-19.24-60.053c-4.41-5.371-12.275-18.305-13.927-23.71c-1.65-5.403-1.689-10.092-0.102-12.236
	c2.769-3.742,14.381-2.713,15.238-1.426c1.995,2.761-0.751,16.351,6.553,29.251c0.651,1.154,6.574,8.405,13.951,22.589
	c1.913,3.677,6.444,5.105,10.117,3.193c3.676-1.912,5.105-6.441,3.193-10.117c-14.134-27.175-16.69-20.207-17.798-38.745
	C289.359,13.445,288.557,0,267.191,0c-20.467,0-28.846,14.437-22.805,34.217c2.354,7.699,11.149,22.113,16.683,28.85
	c8.191,9.972,12.96,31.728,14.977,44.902c-20.1,3.119-44.012,8.577-55.962,11.423l-0.528-2.449
	c13.217-15.797,14.023-37.148,14.012-42.324c1.011-4.365,4.34-21.08,0.066-36.216c-7.559-26.775-55.748-41.474-85.843-12.266
	c-11.064,10.848-16.912,26.488-16.912,45.234c0,28.307,9.61,57.395,14.321,69.957c-12.45,7.003-26.795,16.451-38.368,27.879
	c-3.439,2.381-15.836,11.907-15.836,25.588c0,13.977,15.841,41.724,36.438,57.219l-7.55,3.078c-6.908,2.8-10.766,10.116-9.173,17.4
	c2.812,12.845,16.341,12.159,18.565,13.065c13.215,2.512,26.573-3.102,34.034-14.292c6.793-10.189,4.713-20.07,4.849-21.781
	c-0.365-7.614-2.569-15.105-6.372-21.66c-4.481-7.73-10.922-18.226-17.299-26.489l27.956-13.577
	c3.05,7.247,10.559,25.093,15.337,36.448c0.476,8.352,2.579,60.014-14.211,110.625c-1.616,4.869,2.031,9.866,7.121,9.866
	c3.145,0,6.075-1.994,7.119-5.142c17.704-53.364,16.436-114.902,14.292-120.001l-10.169-24.165
	c9.629-13.121,10.664-22.406,10.748-24.998c2.725-6.152,22.612-15.683,35.291-9.843c10.055,26.685-2.55,51.512,0.355,58.638
	c0.851,2.09,21.262,51.334,58.633,68.946c-1.396,1.737-3.021,3.301-4.845,4.636c-12.046,8.815-18.413,20.412-18.413,33.533
	c0,4.144,3.358,7.502,7.502,7.502s7.502-3.358,7.502-7.502c0-8.258,4.128-15.466,12.27-21.425c7.815-5.72,13.34-14.054,15.555-23.47
	c5.294-22.511,14.778-27.237,21.803-27.237c16.594,0,41.716,23.37,43.646,37.154c0.357,2.551,0.247,4.778-4.745,6.205
	c-33.993,9.712-29.988,67.621-48.602,67.621c-32.672,0-25.543,49.585-44.195,49.585c-28.673,0-34.532,33.472-51.387,38.176
	c-2.96,0.824-4.675,0.538-8.768,0.734c-26.283,1.275-32.175,13.909-59.976,13.909c-8.721,0-17.822-4.994-27.05-14.844
	c-4.493-4.795-6.804-11.048-6.505-17.606c0.898-19.693,18.455-16.038,42.738-61.762c1.943-3.659,0.552-8.201-3.107-10.145
	c-3.658-1.943-8.199-0.552-10.145,3.107c-8.683,16.353-19.345,30.209-31.69,41.188c-16.251,14.454-17.155,39.557-2.242,55.477
	c22.916,24.46,44.956,23.664,76.162,11.226c6.707,15.383,22.985,25.01,35.473,31.181c9.611,4.744,20.717-2.58,20.197-13.226
	l-0.973-19.907l-0.454-18.845c9.571-11.325,15.188-23.66,27.726-23.66c14.501,0,21.384-10.251,25.784-20.715l36.056,50.962
	c-0.517,6.758-0.598,22.809,8.452,34.704c11.145,14.647,30.462,17.313,46.202,17.312c7.346,0,14.23,0.254,18.396-7.526
	C421.695,500.056,421.549,494.864,418.938,490.584z M171.659,101.691c-0.383-6.96,0.577-15.842,6.519-21.783
	c8.882-8.882,15.479-17.442,19.45-23.058c1.227-1.737,3.669-2.169,5.442-0.958c6.021,4.108,13.507,10.678,15.488,18.828
	c-0.123,18.078-9.353,42.248-27.352,39.746C185.798,113.714,176.538,109.224,171.659,101.691z M145.881,71.369
	c0-57.959,66.331-53.627,73.312-28.89c0.766,2.712,1.202,5.543,1.411,8.33c-3.013-2.892-6.175-5.332-9.076-7.312
	c-8.493-5.795-20.224-3.692-26.151,4.689c-3.635,5.141-9.675,12.977-17.81,21.11c-9.208,9.208-12.037,22.67-10.724,35.493
	c0.431,4.103,6.425,10.674,9.264,13.269l0.872,8.928c0.188,1.922-0.856,3.751-2.599,4.552c-1.742,0.802-3.682,1.718-5.774,2.743
	C154.091,121.847,145.881,95.882,145.881,71.369z M183.201,174.635c-1.672-3.973-6.334-5.712-10.192-3.838l-38.324,18.611
	c-7.066,3.431-9.045,12.569-4.027,18.642c6.431,7.782,13.418,19.138,18.148,27.295c5.054,8.714,4.272,16.552,4.539,18.483
	c0.516,10.796-10.437,19.037-21.274,16.984c-9.709-1.992-8.716-0.578,1.626-5.167c9.059-4.024,11.748-15.597,5.371-23.201
	c-0.359-0.397-0.819-1.103-1.834-1.843c-18.511-13.481-31.238-38.139-31.238-45.81c0-7.22,10.288-13.829,10.918-14.457
	c13.753-13.753,33.254-25.428,50.679-33.731c4.561,2.277,14.016,7.937,21.061,18.428c-2.258,5.777,0.892,4.329-3.861,13.391
	L183.201,174.635z M198.802,153.446c-6.178-8.091-13.329-13.616-18.952-17.123c1.363-2.665,2.118-5.646,2.144-8.732
	c8.051,2.773,16.518,2.9,24.405-0.485c1.852,8.476,0.953,4.675,16.191,16.931C213.892,145.16,205.222,148.902,198.802,153.446z
	 M216.893,469.595c10.442-2.036,15.609,0.398,25.103-4.063c0.202,8.377-0.029,3.554,1.072,25.629
	C233.546,486.345,221.907,479.313,216.893,469.595z M362.303,475.967c10.682,6.744,22.973,8.442,35.543,8.852l7.386,12.108
	C385.613,497.52,366.926,494.757,362.303,475.967z"/>
<g>
</g>
<g>
</g>
<g>
</g>
<g>
</g>
<g>
</g>
<g>
</g>
<g>
</g>
<g>
</g>
<g>
</g>
<g>
</g>
<g>
</g>
<g>
</g>
<g>
</g>
<g>
</g>
<g>
</g>
</svg>
