<?xml version="1.0" encoding="iso-8859-1"?>
<!-- Generator: Adobe Illustrator 19.0.0, SVG Export Plug-In . SVG Version: 6.00 Build 0)  -->
<svg version="1.1" id="Capa_1" xmlns="http://www.w3.org/2000/svg" xmlns:xlink="http://www.w3.org/1999/xlink" x="0px" y="0px"
	 viewBox="0 0 512.002 512.002" style="enable-background:new 0 0 512.002 512.002;" xml:space="preserve">
<path style="fill:#776AB7;" d="M375.214,64.182c14.505-13.128,28.114-30.061,38.13-49.138c6.151-11.718,23.57-9.248,26.085,3.744
	c4.72,24.383,6.163,58.519-5.203,93.989C417.756,93.96,398.002,77.46,375.214,64.182z"/>
<path style="fill:#6B63AA;" d="M375.214,64.182c14.505-13.128,28.114-30.061,38.13-49.138c2.396-4.564,6.502-6.966,10.771-7.442
	c3,2.803,4.807,6.952,4.189,11.847c-2.409,19.063-8.507,43.061-21.262,66.915C397.209,78.242,386.589,70.811,375.214,64.182z"/>
<path style="fill:#776AB7;" d="M136.807,64.182c-14.505-13.128-28.114-30.061-38.13-49.138c-6.151-11.718-23.57-9.248-26.085,3.744
	c-4.72,24.383-6.163,58.519,5.203,93.989C94.265,93.96,114.019,77.46,136.807,64.182z"/>
<path style="fill:#6B63AA;" d="M136.807,64.182c-14.505-13.128-28.114-30.061-38.13-49.138c-2.396-4.564-6.502-6.966-10.771-7.442
	c-3,2.803-4.807,6.952-4.189,11.847c2.409,19.063,8.507,43.061,21.262,66.915C114.812,78.242,125.431,70.811,136.807,64.182z"/>
<circle style="fill:#9F91CE;" cx="256.003" cy="267.714" r="236.742"/>
<path style="fill:#8880BA;" d="M181.399,447.47C68.168,382.096,29.372,237.308,94.746,124.076
	c17.02-29.478,39.429-53.899,65.255-72.762c-44.273,19.597-82.962,52.892-109.024,98.032
	c-65.374,113.232-26.578,258.021,86.653,323.395c83.753,48.355,184.763,39.705,258.14-13.891
	C328.987,488.41,249.49,486.783,181.399,447.47z"/>
<circle style="fill:#656566;" cx="328.216" cy="235.773" r="21.674"/>
<path style="fill:#4F4F51;" d="M328.215,235.772c-4.01-6.946-3.733-15.187,0.002-21.671c-3.684-0.004-7.418,0.927-10.839,2.901
	c-10.367,5.985-13.918,19.24-7.933,29.606c5.985,10.367,19.241,13.919,29.606,7.933c3.42-1.974,6.093-4.743,7.931-7.935
	C339.501,246.599,332.225,242.718,328.215,235.772z"/>
<circle style="fill:#656566;" cx="183.789" cy="235.773" r="21.674"/>
<path style="fill:#4F4F51;" d="M183.787,235.772c-4.01-6.946-3.733-15.187,0.001-21.671c-3.684-0.004-7.418,0.927-10.839,2.901
	c-10.367,5.985-13.919,19.241-7.933,29.606c5.985,10.367,19.241,13.919,29.606,7.933c3.42-1.974,6.093-4.743,7.931-7.935
	C195.073,246.599,187.797,242.719,183.787,235.772z"/>
<path d="M368.378,209.984c0.887-4.046-1.675-8.045-5.721-8.932c-17.019-3.732-34.807-0.13-48.836,9.867
	c-25.086,15.457-13.961,54.028,15.258,54.028c26.399,0,39.068-32.285,20.064-50.323c3.432-0.016,6.887,0.333,10.303,1.081
	C363.495,216.59,367.49,214.028,368.378,209.984z M329.078,249.946c-7.814,0-14.174-6.357-14.174-14.173s6.358-14.174,14.174-14.174
	c7.815,0,14.174,6.358,14.174,14.174S336.894,249.946,329.078,249.946z"/>
<path d="M184.65,264.946c29.16,0,40.39-38.515,15.277-54.016c-14.034-10.008-31.834-13.611-48.855-9.879
	c-4.046,0.887-6.607,4.886-5.721,8.932c0.886,4.046,4.879,6.605,8.932,5.721c3.417-0.75,6.873-1.099,10.305-1.083
	C145.595,232.646,158.224,264.946,184.65,264.946z M184.65,221.599c7.814,0,14.174,6.358,14.174,14.174s-6.358,14.173-14.174,14.173
	c-7.815,0-14.174-6.357-14.174-14.173S176.836,221.599,184.65,221.599z"/>
<path d="M314.593,318.177c1.708-3.773,0.032-8.217-3.742-9.924c-3.775-1.71-8.218-0.031-9.924,3.742
	c-4.183,9.245-11.054,16.823-19.869,21.913c-24.732,14.281-56.406,4.18-68.258-21.926c-1.714-3.77-6.156-5.438-9.932-3.725
	c-3.771,1.715-5.438,6.161-3.725,9.932C221.626,367.649,292.195,367.698,314.593,318.177z"/>
<path d="M104.976,459.734c76.334,60,184.252,70.825,273.145,19.502c105.26-60.772,148.641-188.675,105.788-299.407
	c-1.493-3.863-5.834-5.783-9.701-4.287c-3.863,1.494-5.782,5.838-4.287,9.701c19.518,50.433,20.43,106.497,2.569,157.866
	c-51.354,147.69-233.901,202.562-358.245,104.83c-3.257-2.561-7.973-1.996-10.532,1.262
	C101.155,452.459,101.72,457.175,104.976,459.734z"/>
<path d="M81.726,118.62c4.8-2.15,19.598-25.579,59.72-48.956c0.719-0.419,1.346-0.953,1.878-1.566
	c52.591-29.703,113.578-37.467,172.008-21.81c100.493,26.927,139.301,107.427,140.005,108.251c2.046,3.603,6.626,4.862,10.227,2.817
	c3.602-2.046,4.863-6.624,2.817-10.226c-6.302-11.317-15.208-24.436-25.152-36.352c11.271-37.513,8.677-71.367,4.409-93.416
	c-3.854-19.911-30.624-23.833-40.09-5.806c-7.937,15.117-18.969,29.43-32.815,42.611c-70.518-39.044-159.37-42.828-236.293-0.531
	c-13.585-13.033-24.429-27.163-32.259-42.078c-9.445-17.992-36.229-14.146-40.09,5.805c-1.537,7.94-2.603,16.103-3.168,24.257
	c-0.286,4.133,2.832,7.715,6.964,8.001c4.11,0.259,7.714-2.832,8.001-6.964c0.522-7.548,1.509-15.101,2.93-22.444
	c1.168-6.032,9.225-7.125,12.081-1.683c7.997,15.235,18.799,29.666,32.17,43.017c-15.74,9.973-30.124,21.554-42.966,34.524
	c-1.522-6.509-2.685-13.126-3.459-19.794c-0.478-4.115-4.204-7.066-8.314-6.586c-4.114,0.478-7.063,4.199-6.586,8.314
	c1.227,10.575,3.343,21.042,6.291,31.19c-79.423,93.038-78.698,233.77,8.243,326.121c2.846,3.021,7.592,3.153,10.604,0.319
	c3.016-2.84,3.158-7.586,0.319-10.604c-12.144-12.897-22.817-27.261-31.729-42.694C6.553,294.14,21.628,188.763,81.726,118.62z
	 M420.83,18.53c2.862-5.448,10.914-4.344,12.081,1.683c3.575,18.475,5.887,45.901-1.456,76.643
	c-12.982-13.292-27.411-25.017-43.088-35.012C401.875,48.411,412.772,33.877,420.83,18.53z"/>
<g>
</g>
<g>
</g>
<g>
</g>
<g>
</g>
<g>
</g>
<g>
</g>
<g>
</g>
<g>
</g>
<g>
</g>
<g>
</g>
<g>
</g>
<g>
</g>
<g>
</g>
<g>
</g>
<g>
</g>
</svg>
