<?xml version="1.0" encoding="iso-8859-1"?>
<!-- Generator: Adobe Illustrator 19.0.0, SVG Export Plug-In . SVG Version: 6.00 Build 0)  -->
<svg version="1.1" id="Capa_1" xmlns="http://www.w3.org/2000/svg" xmlns:xlink="http://www.w3.org/1999/xlink" x="0px" y="0px"
	 viewBox="0 0 512 512" style="enable-background:new 0 0 512 512;" xml:space="preserve">
<path style="fill:#776AB7;" d="M375.231,64.177c14.504-13.127,28.112-30.059,38.127-49.134c6.151-11.717,23.568-9.248,26.083,3.744
	c4.72,24.381,6.163,58.514-5.203,93.981C417.771,93.952,398.018,77.454,375.231,64.177z"/>
<path style="fill:#6B63AA;" d="M375.231,64.177c14.504-13.127,28.112-30.059,38.127-49.134c2.396-4.564,6.502-6.966,10.77-7.442
	c3,2.803,4.807,6.952,4.189,11.846c-2.409,19.061-8.507,43.058-21.26,66.91C397.225,78.236,386.607,70.805,375.231,64.177z"/>
<path style="fill:#776AB7;" d="M136.845,64.177c-14.504-13.127-28.112-30.059-38.127-49.134
	c-6.152-11.717-23.569-9.248-26.084,3.744c-4.72,24.381-6.163,58.514,5.203,93.981C94.306,93.952,114.058,77.454,136.845,64.177z"/>
<path style="fill:#6B63AA;" d="M136.845,64.177c-14.504-13.127-28.112-30.059-38.127-49.134c-2.396-4.564-6.502-6.966-10.77-7.442
	c-3,2.803-4.807,6.952-4.189,11.846c2.409,19.061,8.507,43.058,21.26,66.91C114.851,78.236,125.469,70.805,136.845,64.177z"/>
<circle style="fill:#9F91CE;" cx="256.031" cy="267.692" r="236.722"/>
<path style="fill:#8880BA;" d="M181.434,447.434C68.211,382.065,29.418,237.288,94.788,124.065
	c17.018-29.476,39.426-53.894,65.25-72.756c-44.27,19.595-82.956,52.887-109.015,98.024
	c-65.369,113.222-26.576,257.999,86.646,323.368c83.746,48.351,184.748,39.702,258.118-13.89
	C329.009,488.37,249.519,486.743,181.434,447.434z"/>
<g>
	<circle style="fill:#656566;" cx="328.239" cy="235.233" r="21.672"/>
	<circle style="fill:#656566;" cx="183.824" cy="235.233" r="21.672"/>
</g>
<g>
	<path style="fill:#4F4F51;" d="M328.237,235.235c-4.01-6.946-3.733-15.185,0.002-21.669c-3.684-0.004-7.418,0.926-10.838,2.901
		c-10.366,5.985-13.917,19.239-7.933,29.604c5.985,10.366,19.239,13.918,29.604,7.933c3.42-1.974,6.093-4.743,7.931-7.936
		C339.521,246.06,332.247,242.18,328.237,235.235z"/>
	<path style="fill:#4F4F51;" d="M183.821,235.235c-4.01-6.946-3.733-15.185,0.002-21.669c-3.684-0.004-7.418,0.926-10.838,2.901
		c-10.366,5.985-13.918,19.239-7.933,29.604c5.985,10.366,19.239,13.918,29.604,7.933c3.42-1.974,6.092-4.743,7.931-7.935
		C195.105,246.06,187.83,242.18,183.821,235.235z"/>
</g>
<path d="M328.237,264.407c29.325,0,40.429-38.886,14.99-54.186l12.618-7.281c3.588-2.07,4.818-6.657,2.748-10.244
	c-2.07-3.589-6.657-4.821-10.244-2.748c-8.408,4.855-34.118,19.673-34.685,20.032C287.789,224.969,298.641,264.407,328.237,264.407z
	 M328.237,221.062c7.814,0,14.173,6.358,14.173,14.173s-6.358,14.173-14.173,14.173c-7.815,0-14.173-6.358-14.173-14.173
	S320.423,221.062,328.237,221.062z"/>
<path d="M163.708,189.947c-3.588-2.07-8.175-0.841-10.244,2.748c-2.07,3.587-0.84,8.174,2.748,10.244l12.619,7.281
	c-25.421,15.291-14.348,54.186,14.99,54.186c16.085,0,29.172-13.087,29.172-29.172c0-10.783-5.886-20.211-14.608-25.26
	C197.773,209.588,201.091,211.532,163.708,189.947z M183.821,249.407c-7.814,0-14.173-6.358-14.173-14.173
	s6.358-14.173,14.173-14.173s14.173,6.359,14.173,14.173S191.635,249.407,183.821,249.407z"/>
<path d="M207.807,335.438c-1.938,3.661-0.54,8.199,3.121,10.137c3.662,1.938,8.199,0.54,10.137-3.121
	c3.123-5.901,17.056-12.005,34.966-12.005c17.908,0,31.841,6.104,34.964,12.005c1.346,2.543,3.945,3.994,6.636,3.994
	c5.555,0,9.293-5.963,6.622-11.01C290.189,308.867,221.903,308.8,207.807,335.438z"/>
<path d="M432.059,20.212c1.42,7.337,2.406,14.889,2.93,22.443c0.287,4.132,3.873,7.226,8.002,6.963
	c4.132-0.287,7.249-3.869,6.963-8.002c-0.566-8.161-1.633-16.321-3.168-24.254c-3.853-19.906-30.616-23.836-40.087-5.806
	c-7.879,15.009-18.809,29.222-32.515,42.323c-49.53-27.391-108.256-37.399-166.499-25.634c-4.06,0.82-6.687,4.776-5.866,8.837
	c0.82,4.06,4.779,6.693,8.837,5.866c96.189-19.434,194.44,24.491,243.885,110.135c64.545,111.793,24.499,255.944-91.545,317.327
	c-3.662,1.937-5.061,6.475-3.124,10.136c1.936,3.662,6.473,5.061,10.136,3.124c138.587-73.286,172.791-254.811,72.584-373.619
	c3.082-10.42,5.282-21.18,6.543-32.053c0.477-4.115-2.472-7.837-6.586-8.314c-4.111-0.478-7.836,2.472-8.314,6.586
	c-0.804,6.932-2.021,13.814-3.633,20.574c-12.51-12.797-26.936-24.702-43.072-35.017c13.502-13.427,24.395-27.958,32.45-43.299
	C422.839,13.085,430.892,14.181,432.059,20.212z"/>
<path d="M172.905,38.015c-11.994,4.357-23.736,9.708-34.976,15.918c-13.73-13.115-24.68-27.347-32.572-42.378
	C95.914-6.433,69.134-2.586,65.271,17.361c-4.236,21.881-6.821,55.395,4.161,92.577C6.142,184.698-9.427,296.355,44.527,389.805
	c58.917,102.048,182.012,147.231,292.396,108.351c3.907-1.376,5.959-5.659,4.583-9.565c-1.376-3.906-5.665-5.959-9.565-4.583
	c-103.691,36.522-219.195-6.042-274.425-101.704c-71.323-123.536-13.733-281.44,120.51-330.191c3.894-1.414,5.903-5.717,4.489-9.61
	C181.102,38.613,176.805,36.604,172.905,38.015z M81.437,96.775c-7.322-30.71-5.012-58.108-1.44-76.562
	c1.154-5.964,9.18-7.211,12.08-1.684c8.065,15.361,18.974,29.907,32.498,43.348C121.598,64.019,102.599,75.226,81.437,96.775z"/>
<g>
</g>
<g>
</g>
<g>
</g>
<g>
</g>
<g>
</g>
<g>
</g>
<g>
</g>
<g>
</g>
<g>
</g>
<g>
</g>
<g>
</g>
<g>
</g>
<g>
</g>
<g>
</g>
<g>
</g>
</svg>
