<?xml version="1.0" encoding="iso-8859-1"?>
<!-- Generator: Adobe Illustrator 19.0.0, SVG Export Plug-In . SVG Version: 6.00 Build 0)  -->
<svg version="1.1" id="Capa_1" xmlns="http://www.w3.org/2000/svg" xmlns:xlink="http://www.w3.org/1999/xlink" x="0px" y="0px"
	 viewBox="0 0 512.002 512.002" style="enable-background:new 0 0 512.002 512.002;" xml:space="preserve">
<polygon style="fill:#70BBEF;" points="149.331,211.313 249.524,475.583 261.437,475.583 361.631,211.313 "/>
<path style="fill:#9CD7F2;" d="M233.723,466.771c4.184,4.715,9.813,7.649,15.801,8.812l-100.194-264.27L9.287,167.202
	C9.924,171.935-5.212,149.54,233.723,466.771z"/>
<path style="fill:#71C5DB;" d="M58.859,182.816L9.287,167.202c0.639,4.733-14.498-17.662,224.438,299.569
	c3.098,3.492,6.992,6.001,11.233,7.543L58.859,182.816z"/>
<g>
	<path style="fill:#9CD7F2;" d="M92.033,58.264l57.298,153.05l106.15-121.096L93.969,57.303
		C93.267,57.608,92.618,57.931,92.033,58.264z"/>
	<path style="fill:#9CD7F2;" d="M361.631,211.313l-100.194,264.27c5.988-1.162,11.617-4.097,15.801-8.812
		c62.136-82.301,225.172-297.964,225.663-299.955L361.631,211.313z"/>
	<path style="fill:#9CD7F2;" d="M361.631,211.313l57.279-153c-0.676-0.384-1.347-0.71-2.001-0.994L255.481,90.217L361.631,211.313z"
		/>
</g>
<polygon style="fill:#57ADDD;" points="149.331,211.313 361.631,211.313 255.481,90.217 "/>
<path style="fill:#70BBEF;" d="M92.033,58.264c-3.778,2.149-4.362,3.419-10.301,11.038C4.399,168.467,8.445,160.969,9.287,167.202
	l140.044,44.112L92.033,58.264z"/>
<path style="fill:#57ADDD;" d="M58.858,182.816L92.987,60.813l-0.954-2.55c-3.778,2.149-4.362,3.419-10.301,11.038
	C4.399,168.468,8.445,160.969,9.287,167.202L58.858,182.816L58.858,182.816z"/>
<path style="fill:#70BBEF;" d="M361.631,211.313l141.27-44.498c0.399-2.074-0.202-3.301-1.207-4.59
	C431.637,72.29,421.921,59.046,418.91,58.312L361.631,211.313z"/>
<path style="fill:#57ADDD;" d="M255.481,90.217L416.91,57.319c-3.398-1.474-6.106-1.687-6.207-1.706l0,0L280.6,38.09
	c-40.932-5.513-58.573,2.82-180.682,17.57c-0.188,0.041-2.813,0.277-5.95,1.642L255.481,90.217z"/>
<path d="M420.849,49.405L282.114,30.719c-34.972-4.711-58.727,1.412-70.857,2.509c-4.071,0.548-6.926,4.293-6.379,8.364
	c0.548,4.071,4.298,6.932,8.364,6.379c12.302-1.128,34.364-6.887,66.886-2.509l95.27,12.832
	c-7.13,1.453-112.264,22.877-119.398,24.331L136.603,58.294l41.27-5.559c4.071-0.548,6.926-4.293,6.379-8.364
	c-0.548-4.072-4.301-6.928-8.364-6.379l-84.73,11.412c-0.012,0.001-0.024,0.003-0.036,0.005l-0.112,0.015
	c-0.114,0.016-0.225,0.041-0.338,0.061c-0.073,0.014-0.148,0.024-0.22,0.04c-0.061,0.013-0.122,0.026-0.182,0.04
	c-0.085,0.021-0.169,0.046-0.253,0.069c-0.13,0.036-0.26,0.071-0.388,0.114c-0.053,0.018-0.103,0.04-0.156,0.059
	c-0.023,0.008-0.046,0.017-0.068,0.026c-0.074,0.028-0.151,0.054-0.224,0.083c-0.134,0.055-0.264,0.116-0.394,0.179
	c-0.057,0.027-0.113,0.052-0.169,0.08c-0.062,0.032-0.124,0.063-0.185,0.096c-0.059,0.032-0.115,0.068-0.174,0.103
	c-3.23,1.882-1.653,2.015-86.686,110.287c-1.768,2.268-2.072,5.351-0.778,7.92c2.994,5.94-4.969-5.785,159.18,212.102
	c2.474,3.28,7.137,3.932,10.418,1.458c3.279-2.474,3.931-7.138,1.458-10.418L27.672,180.628l116.502,36.696
	c2.794,7.369,88.129,232.446,89.712,236.622l-41.053-54.411c-2.474-3.28-7.137-3.932-10.418-1.458
	c-3.28,2.474-3.931,7.138-1.458,10.418c42.987,56.963,47.416,62.866,47.722,63.211c5.431,6.121,12.942,9.992,20.126,11.204
	c1.063,0.181,13.526,0.178,14.569-0.026c9.058-1.759,16.709-6.876,20.321-11.633l145.194-192.443
	c2.473-3.28,1.821-7.944-1.458-10.418c-3.282-2.472-7.943-1.82-10.418,1.458l-138.9,184.102
	c4.437-11.703,86.453-228.025,89.714-236.625l116.503-36.696l-46.408,61.508c-2.473,3.28-1.822,7.944,1.458,10.418
	c3.281,2.474,7.944,1.822,10.418-1.458c62.302-82.654,58.945-77.644,61.404-82.503c1.299-2.571,0.999-5.66-0.773-7.931
	C421.801,47.023,425.582,49.87,420.849,49.405z M345.739,203.876H166.262L256,101.5L345.739,203.876z M19.13,162.341l70.565-90.492
	l47.841,127.789L19.13,162.341z M103.678,66.766c14.728,3.001,120.334,24.523,138.285,28.181l-89.508,102.111L103.678,66.766z
	 M256.822,468.145h-1.642L160.625,218.75h190.752L256.822,468.145z M359.545,197.057L270.037,94.947
	c11.907-2.427,119.976-24.449,138.285-28.181L359.545,197.057z M374.464,199.637l47.841-127.789l70.566,90.491L374.464,199.637z"/>
<g>
</g>
<g>
</g>
<g>
</g>
<g>
</g>
<g>
</g>
<g>
</g>
<g>
</g>
<g>
</g>
<g>
</g>
<g>
</g>
<g>
</g>
<g>
</g>
<g>
</g>
<g>
</g>
<g>
</g>
</svg>
