<?xml version="1.0" encoding="iso-8859-1"?>
<!-- Generator: Adobe Illustrator 19.0.0, SVG Export Plug-In . SVG Version: 6.00 Build 0)  -->
<svg version="1.1" id="Capa_1" xmlns="http://www.w3.org/2000/svg" xmlns:xlink="http://www.w3.org/1999/xlink" x="0px" y="0px"
	 viewBox="0 0 512 512" style="enable-background:new 0 0 512 512;" xml:space="preserve">
<path style="fill:#F4D44E;" d="M504.495,205.089c-0.527,19.216-16.777,34.287-35.999,34.287h-11.271
	c19.814,0,35.812,16.334,35.265,36.27c-0.527,19.216-16.777,34.287-35.999,34.287c-13.551,0-85.125,0-100.232,0
	c39.064,54.925,40.906,118.126,39.948,135.839c-2.097,38.829-44.688,53.439-63.374,19.169
	c-16.439-30.15-1.528-82.232-50.439-110.305c-8.545-4.905-16.538-8.013-23.824-9.859c-16.383-4.15-33.304-12.482-48.058-23.524
	c-8.469-6.339-15.169-14.747-19.709-24.303l0,0c-6.596-13.886-20.597-22.736-35.97-22.736H34.832
	c-26.543,0-27.309-28.326-27.309-28.326V96.274c0-16.577,13.437-30.014,30.014-30.014c14.828,0,111.829,0,126.66,0
	c13.842,0,27.317-4.455,38.429-12.708c23.121-17.172,51.416-25.851,75.625-25.851h97.645v0.002c23.204,0,50.212,0,73.924,0
	c19.223,0,35.472,15.072,35.999,34.287c0.547,19.937-15.452,36.27-35.265,36.27h6.67c19.484,0,35.279,15.795,35.279,35.279l0,0
	c0,19.484-15.795,35.279-35.279,35.279h12.005C489.043,168.819,505.042,185.152,504.495,205.089z"/>
<path style="fill:#E8C842;" d="M32.524,96.274v149.614c0,0,0.766,28.326,27.309,28.326H34.832
	c-26.543,0-27.309-28.326-27.309-28.326V96.274c0-16.577,13.437-30.014,30.014-30.014c3.818,0,13.09,0,25.001,0
	C45.961,66.26,32.524,79.698,32.524,96.274z"/>
<g>
	<path style="fill:#F4D44E;" d="M457.224,239.376c-26.341,0-79.063,0-106.558,0c-19.484,0-35.279,15.795-35.279,35.279l0,0
		c0,19.484,15.795,35.279,35.279,35.279c12.207,0,94.068,0,106.558,0c19.484,0,35.279-15.795,35.279-35.279l0,0
		C492.503,255.171,476.709,239.376,457.224,239.376z"/>
	<path style="fill:#F4D44E;" d="M469.23,168.819c-39.423,0-79.005,0-118.563,0c-19.484,0-35.279,15.795-35.279,35.279l0,0
		c0,19.484,15.795,35.279,35.279,35.279c16.872,0,102.099,0,118.563,0c19.484,0,35.279-15.795,35.279-35.279l0,0
		C504.509,184.613,488.713,168.819,469.23,168.819z"/>
	<path style="fill:#F4D44E;" d="M457.224,98.26c-26.341,0-79.063,0-106.558,0c-19.484,0-35.279,15.795-35.279,35.279l0,0
		c0,19.484,15.795,35.279,35.279,35.279c12.207,0,94.068,0,106.558,0c19.484,0,35.279-15.795,35.279-35.279l0,0
		C492.503,114.056,476.709,98.26,457.224,98.26z"/>
	<path style="fill:#F4D44E;" d="M315.387,62.982L315.387,62.982c0-19.484,15.795-35.279,35.279-35.279c0.279,0,57.239,0,56.098,0
		c12.726,0,30.441,0,43.789,0c19.484,0,35.279,15.795,35.279,35.279l0,0c0,19.484-15.795,35.279-35.279,35.279
		c-2.362,0-50.66,0-48.299,0c-14.481,0-35.449,0-51.589,0C331.183,98.26,315.387,82.466,315.387,62.982z"/>
</g>
<g>
	<path style="fill:#DBBC3B;" d="M457.224,278.248c-12.489,0-94.35,0-106.558,0c-13.784,0-25.715-7.911-31.519-19.436
		c-11.554,22.941,4.809,51.122,31.519,51.122c12.207,0,94.068,0,106.558,0c19.484,0,35.279-15.795,35.279-35.279
		c-0.101-0.823,0.328-7.726-3.76-15.843C482.939,270.337,471.01,278.248,457.224,278.248z"/>
	<path style="fill:#DBBC3B;" d="M469.23,207.69c-16.464,0-101.691,0-118.563,0c-13.784,0-25.715-7.911-31.519-19.436
		c-11.554,22.941,4.809,51.122,31.519,51.122c16.872,0,102.099,0,118.563,0c19.484,0,35.279-15.795,35.279-35.279
		c-0.103-0.838,0.328-7.726-3.76-15.843C494.944,199.78,483.014,207.69,469.23,207.69z"/>
	<path style="fill:#DBBC3B;" d="M457.224,137.133c-12.489,0-94.35,0-106.558,0c-13.784,0-25.715-7.911-31.519-19.436
		c-11.703,23.237,5.123,51.122,31.519,51.122c12.207,0,94.068,0,106.558,0c19.484,0,35.279-15.795,35.279-35.279l0,0
		c0-5.699-1.36-11.077-3.76-15.843C482.939,129.221,471.01,137.133,457.224,137.133z"/>
	<path style="fill:#DBBC3B;" d="M350.667,66.575h49.429c0.569,0,1.644,0,2.16,0c2.153,0,46.051,0,48.299,0
		c13.784,0,25.715-7.911,31.519-19.436c11.554,22.941-4.809,51.122-31.519,51.122c-33.223,0-66.531,0-99.888,0
		c-26.707,0-43.074-28.179-31.519-51.122C324.952,58.664,336.882,66.575,350.667,66.575z"/>
</g>
<path d="M486.339,164.918c21.513-20.005,16.857-54.859-8.59-68.844c30.843-25.495,12.809-75.811-27.194-75.811
	c-184.977-0.002-172.983-0.056-175.413,0.121c-27.94,1.141-54.558,10.547-76.986,27.207c-16.355,12.146-34.014,11.169-34.387,11.229
	c-4.143,0-7.5,3.358-7.5,7.5s3.357,7.5,7.5,7.5c0.343-0.056,22.879,1.002,43.33-14.187c45.327-33.666,89.527-22.124,111.076-24.371
	c-16.521,19.295-12.711,48.603,8.331,63.059c-24.842,17.067-24.789,53.528,0,70.558c-24.842,17.066-24.789,53.527,0,70.557
	c-34.705,23.842-17.602,78.058,24.16,78.058h1.669c38.969,57.198,36.77,120.755,36.382,127.934
	c-1.078,20.015-14.026,31.268-27.622,31.268c-8.854,0-16.147-5.143-21.678-15.286c-15.214-27.903-0.798-83.091-53.291-113.219
	c-8.509-4.883-17.161-8.458-25.715-10.625c-15.273-3.869-31.397-11.773-45.406-22.259c-13.194-9.874-16.404-20.675-20.446-26.902
	c-7.318-11.861-11.517-25.204-13.34-38.455c-0.564-4.104-4.366-6.969-8.451-6.409c-4.104,0.564-6.973,4.348-6.408,8.452
	c0.877,6.377,2.176,12.165,3.655,17.314c-13.014-4.444-11.676-1.694-135.184-2.533c-18.303,0-19.706-18.537-19.81-20.96v-24.156
	c0-4.142-3.357-7.5-7.5-7.5s-7.5,3.358-7.5,7.5c0.001,32.639-0.054,22.51,0.003,24.494c0.45,16.469,11.316,35.623,34.807,35.623
	h120.002c12.41,0,23.87,7.243,29.195,18.454c5.128,10.794,12.73,20.162,21.988,27.09c15.556,11.642,33.564,20.446,50.711,24.79
	c7.229,1.831,14.607,4.891,21.932,9.094c45.171,25.926,30.059,75.237,47.588,107.391c22.348,40.983,74.958,23.841,77.449-22.355
	c0.397-7.351,2.568-69.788-33.505-128.743c9.525,0,77.717,0,87.033,0c38.591,0,57.583-47.638,29.098-74.131
	C520.874,228.241,520.238,179.709,486.339,164.918z M322.888,63.042c0-15.317,12.461-27.778,27.778-27.778h99.154
	c16.285,0,30.172,13.834,28.344,30.815c-1.528,13.925-13.339,24.742-27.61,24.742h-99.888
	C335.349,90.821,322.888,78.36,322.888,63.042z M456.491,302.494c-11.568,0-89.529,0-105.825,0
	c-15.316,0-27.778-12.461-27.778-27.778c0-15.317,12.461-27.779,27.778-27.779c14.826,0,91.478,0,106.559,0
	c15.184,0,27.626,12.263,27.772,27.51C485.006,275.429,472.02,302.494,456.491,302.494z M468.496,231.937
	c-12.11,0-99.142,0-117.828,0c-15.317,0-27.779-12.461-27.779-27.779c0-15.317,12.461-27.778,27.779-27.778h48.299
	c4.143,0,7.5-3.358,7.5-7.5s-3.357-7.5-7.5-7.5c-0.104,0-48.401,0-48.3,0c-15.316,0-27.778-12.461-27.778-27.778
	c0-15.318,12.461-27.779,27.778-27.779c9.606,0,90.763,0,106.559,0c15.316,0,27.778,12.461,27.778,27.779
	c0,15.316-12.461,27.778-27.778,27.778c-0.393,0-21.497,0-21.613,0c-4.143,0-7.5,3.358-7.5,7.5s3.357,7.5,7.5,7.5
	c11.765,0,22.085,0,33.618,0c14.953,0,27.607,12.026,27.771,27.475C497.167,219.387,484.056,231.937,468.496,231.937z"/>
<path d="M7.523,194.157c4.143,0,7.5-3.358,7.5-7.5V96.335c0-12.414,10.1-22.514,22.514-22.514h91.231c4.143,0,7.5-3.358,7.5-7.5
	s-3.357-7.5-7.5-7.5H37.537c-20.686,0-37.514,16.829-37.514,37.514v90.322C0.023,190.799,3.38,194.157,7.523,194.157z"/>
<g>
</g>
<g>
</g>
<g>
</g>
<g>
</g>
<g>
</g>
<g>
</g>
<g>
</g>
<g>
</g>
<g>
</g>
<g>
</g>
<g>
</g>
<g>
</g>
<g>
</g>
<g>
</g>
<g>
</g>
</svg>
