<?xml version="1.0" encoding="iso-8859-1"?>
<!-- Generator: Adobe Illustrator 19.0.0, SVG Export Plug-In . SVG Version: 6.00 Build 0)  -->
<svg version="1.1" id="Capa_1" xmlns="http://www.w3.org/2000/svg" xmlns:xlink="http://www.w3.org/1999/xlink" x="0px" y="0px"
	 viewBox="0 0 512 512" style="enable-background:new 0 0 512 512;" xml:space="preserve">
<circle style="fill:#F4D44E;" cx="256.047" cy="255.987" r="248.395"/>
<path style="fill:#E8C842;" d="M175.222,446.06C18.546,355.603,9.032,134.092,153.938,29.546
	C108.064,50.185,68.005,84.898,40.932,131.79c-68.592,118.805-27.886,270.72,90.918,339.311
	c87.43,50.477,192.788,41.758,269.677-13.715C331.174,489.039,247.134,487.579,175.222,446.06z"/>
<path style="fill:#656566;" d="M287.871,317.429h-63.648c-0.961,5.151-0.388,6.292-0.559,34.049
	c22.565,1.358,26.969,11.174,41.616,5.235c7.219-2.927,15.004-4.744,23.15-5.235C288.258,323.471,288.83,322.573,287.871,317.429z"
	/>
<path style="fill:#4F4F51;" d="M249.044,357.334c-0.042-0.676-0.071-1.355-0.071-2.042v-5.818c0.004,0,0.007,0.001,0.011,0.001
	c0.132-25.802-0.39-27.023,0.548-32.047h-25.308c-0.961,5.151-0.388,6.292-0.559,34.049
	C236.01,352.222,242.918,355.493,249.044,357.334z"/>
<path style="fill:#ED694A;" d="M288.43,355.293v-5.816c-8.145,0.491-15.931,2.308-23.15,5.235
	c-14.644,5.938-19.062-3.877-41.616-5.235v5.818c0,17.884,14.499,32.383,32.383,32.383
	C273.931,387.677,288.43,373.177,288.43,355.293z"/>
<path style="fill:#D8553A;" d="M248.973,355.31c-6.111-1.845-13.014-5.094-25.309-5.835v5.818c0,17.884,14.499,32.383,32.383,32.383
	c4.49,0,8.766-0.915,12.655-2.567C257.111,380.183,248.98,368.697,248.973,355.31z"/>
<path style="fill:#EAE9E8;" d="M223.915,319.433h64.265c-1.958-16.011-15.592-28.414-32.132-28.414
	C239.507,291.018,225.873,303.421,223.915,319.433z"/>
<path style="fill:#DBDBDB;" d="M249.531,317.429h0.009c2.008-10.767,9.337-19.659,19.156-23.838
	c-3.886-1.653-8.159-2.572-12.65-2.572c-16.54,0-30.174,12.403-32.132,28.414h25.299
	C249.294,318.786,249.397,318.146,249.531,317.429z"/>
<path d="M390.675,189.509c2.868-2.998,2.762-7.754-0.236-10.621c-15.706-15.021-35.615-23.072-56.207-22.643
	c-4.148,0.084-7.442,3.516-7.357,7.663c0.083,4.12,3.478,7.434,7.663,7.357c16.49-0.32,32.702,6.227,45.515,18.48
	C383.05,192.611,387.806,192.51,390.675,189.509z"/>
<path d="M177.555,171.265c0.053,0.001,0.104,0.002,0.156,0.002c4.078,0,7.424-3.263,7.507-7.359
	c0.085-4.149-3.209-7.579-7.357-7.663c-20.569-0.425-40.501,7.622-56.207,22.643c-2.998,2.867-3.105,7.622-0.236,10.621
	c2.864,2.997,7.62,3.106,10.621,0.236c12.499-11.954,28.189-18.492,44.301-18.492C176.747,171.253,177.151,171.257,177.555,171.265z
	"/>
<path d="M238.612,288.854c-11.586,5.646-19.647,16.449-21.845,28.941c-0.877,4.975-0.627,37.213-0.616,38.826
	c0,21.998,17.897,39.895,39.895,39.895c21.998,0,39.895-17.897,39.895-39.895c0.001-0.101,0.131-33.344-0.307-36.772
	C292.308,292.626,262.997,276.937,238.612,288.854z M278.098,313.249h-44.103C243.103,295.79,268.679,295.194,278.098,313.249z
	 M233.288,366.634c-1.028-2.332-1.692-4.793-1.966-7.339c4.335,0.805,8.577,2.044,12.675,3.706c7.772,3.151,16.333,3.151,24.105,0
	c4.098-1.662,8.337-2.9,12.669-3.704C278.097,384.288,243.622,389.984,233.288,366.634z M280.918,344.051
	c-18.453,2.74-21.2,9.111-31.275,5.027c-5.946-2.411-12.134-4.089-18.467-5.029v-15.776h49.741v15.778H280.918z"/>
<path d="M365.542,211.678c-2.935-2.933-7.691-2.933-10.624,0l-14.184,14.184l-14.184-14.184c-2.934-2.932-7.69-2.934-10.624,0
	c-2.934,2.935-2.934,7.691,0,10.624l14.184,14.184l-14.184,14.184c-2.934,2.935-2.934,7.691,0,10.624
	c2.936,2.934,7.691,2.933,10.624,0l14.184-14.184c13.268,12.369,14.227,16.384,19.496,16.384c6.635,0,10.057-8.078,5.313-12.825
	l-14.184-14.184l14.184-14.184C368.475,219.368,368.475,214.613,365.542,211.678z"/>
<path d="M196.168,211.678c-2.935-2.933-7.691-2.933-10.624,0l-14.184,14.184l-14.184-14.184c-2.934-2.932-7.69-2.934-10.624,0
	c-2.934,2.935-2.934,7.691,0,10.624l14.184,14.184l-14.184,14.184c-2.934,2.935-2.934,7.691,0,10.624
	c2.936,2.934,7.691,2.933,10.624,0l14.184-14.184c13.268,12.369,14.227,16.384,19.496,16.384c6.635,0,10.057-8.078,5.313-12.825
	l-14.184-14.184l14.184-14.184C199.102,219.368,199.102,214.613,196.168,211.678z"/>
<path d="M105.327,49.16c-3.356,2.44-4.099,7.138-1.659,10.494c2.441,3.355,7.139,4.098,10.494,1.659
	c57.469-41.783,131.377-57.52,204.229-38.001c187.406,50.217,240.053,289.824,95.323,414.819c-3.14,2.711-3.487,7.455-0.774,10.595
	c2.709,3.138,7.455,3.489,10.595,0.774c92.692-80.052,115.458-215.248,54.131-321.467C401.879-3.236,228.961-40.721,105.327,49.16z"
	/>
<path d="M88.147,83.196c2.978-2.89,3.05-7.645,0.16-10.622c-2.889-2.977-7.644-3.05-10.622-0.16
	c-40.164,38.968-66.759,91.095-74.889,146.779C-19.72,373.407,100.018,512,256.464,512c49.817-0.001,97.322-14.651,138.079-40.831
	c3.49-2.242,4.502-6.89,2.261-10.381c-2.242-3.49-6.888-4.502-10.381-2.261c-38.292,24.6-82.998,38.443-129.983,38.441
	C109.853,496.961-3.633,367.223,17.661,221.363C25.316,168.939,50.348,119.87,88.147,83.196z"/>
<g>
</g>
<g>
</g>
<g>
</g>
<g>
</g>
<g>
</g>
<g>
</g>
<g>
</g>
<g>
</g>
<g>
</g>
<g>
</g>
<g>
</g>
<g>
</g>
<g>
</g>
<g>
</g>
<g>
</g>
</svg>
