<?xml version="1.0" encoding="iso-8859-1"?>
<!-- Generator: Adobe Illustrator 19.0.0, SVG Export Plug-In . SVG Version: 6.00 Build 0)  -->
<svg version="1.1" id="Capa_1" xmlns="http://www.w3.org/2000/svg" xmlns:xlink="http://www.w3.org/1999/xlink" x="0px" y="0px"
	 viewBox="0 0 511.999 511.999" style="enable-background:new 0 0 511.999 511.999;" xml:space="preserve">
<circle style="fill:#F4D44E;" cx="255.99" cy="255.98" r="248.387"/>
<path style="fill:#E8C842;" d="M175.171,446.052C18.5,355.598,8.986,134.094,153.888,29.551
	c-45.873,20.64-85.93,55.351-113.003,102.241c-68.59,118.801-27.886,270.711,90.915,339.3
	c87.427,50.477,192.782,41.757,269.668-13.715C331.117,489.03,247.081,487.569,175.171,446.052z"/>
<path style="fill:#656566;" d="M241.072,334.879c9.589,3.888,20.261,3.887,29.851-0.001c9.345-3.789,19.285-6.404,29.633-7.713
	v-0.402c0-24.612-19.952-44.564-44.564-44.564c-24.612,0-44.564,19.952-44.564,44.564v0.401
	C221.78,328.473,231.724,331.088,241.072,334.879z"/>
<path style="fill:#4F4F51;" d="M236.469,327.164L236.469,327.164v-0.401v-0.005v-2.349c0.021,0.001,0.041,0.004,0.062,0.005
	c0.999-19.225,14.182-35.219,31.972-40.423c-3.97-1.16-8.165-1.793-12.51-1.793c-24.612,0-44.564,19.952-44.564,44.564v0.401
	c8.672,1.096,17.051,3.122,25.04,5.975V327.164z"/>
<path style="fill:#ED694A;" d="M300.557,344.434V324.41c-11.209,0.676-21.924,3.176-31.858,7.203
	c-8.161,3.309-17.244,3.309-25.404,0.001c-9.937-4.029-20.654-6.529-31.867-7.204v20.025c0,24.612,19.952,44.564,44.564,44.564
	S300.557,369.047,300.557,344.434z"/>
<path style="fill:#D8553A;" d="M236.469,344.434v-15.291c-7.963-2.578-16.35-4.21-25.04-4.733v20.025
	c0,24.612,19.952,44.564,44.564,44.564c4.349,0,8.547-0.634,12.52-1.796C249.998,381.791,236.469,364.698,236.469,344.434z"/>
<path d="M390.616,189.508c2.868-2.998,2.761-7.753-0.236-10.621c-16.355-15.642-36.568-23.057-56.205-22.642
	c-4.148,0.084-7.442,3.516-7.357,7.663c0.083,4.096,3.43,7.359,7.507,7.359c18.05,0,33.29,6.638,45.671,18.478
	C381.451,191.137,387.748,192.509,390.616,189.508z"/>
<path d="M177.503,171.265c4.193,0.089,7.579-3.208,7.663-7.357c0.085-4.149-3.209-7.579-7.357-7.663
	c-20.571-0.425-40.5,7.622-56.205,22.642c-4.923,4.708-1.509,12.941,5.193,12.941c1.866,0,3.735-0.691,5.191-2.083
	c12.499-11.954,28.188-18.492,44.3-18.492C176.695,171.253,177.1,171.257,177.503,171.265z"/>
<path d="M255.993,274.687c-27.403,0-49.914,21.28-51.915,48.179c-0.272,1.296-0.18,17.326-0.161,21.567
	c0,28.715,23.361,52.076,52.076,52.076s52.076-23.361,52.076-52.076c0-21.738,0.065-20.493-0.161-21.567
	C305.906,295.967,283.395,274.687,255.993,274.687z M255.993,289.711c17.314,0,31.887,11.938,35.932,28.014
	c-8.941,1.219-17.673,3.532-26.05,6.928c-6.371,2.584-13.388,2.584-19.759,0.001c-8.378-3.397-17.113-5.711-26.058-6.929
	C224.106,301.648,238.679,289.711,255.993,289.711z M293.045,344.434c0,20.431-16.622,37.052-37.052,37.052
	s-37.052-16.622-37.052-37.052v-11.707c7.387,1.081,14.601,3.038,21.531,5.848c10.01,4.06,21.038,4.06,31.05-0.001
	c6.928-2.808,14.139-4.766,21.523-5.846V344.434z"/>
<path d="M365.484,211.678c-2.935-2.933-7.69-2.933-10.624,0l-14.184,14.184l-14.184-14.184c-2.934-2.932-7.689-2.934-10.624,0
	c-2.934,2.935-2.934,7.69,0,10.624l14.184,14.184l-14.184,14.184c-4.748,4.749-1.32,12.825,5.312,12.825
	c5.267,0,6.177-3.966,19.495-16.383l14.184,14.184c2.936,2.934,7.69,2.933,10.624,0c2.934-2.935,2.934-7.69,0-10.624L351.3,236.487
	l14.184-14.184C368.418,219.368,368.418,214.613,365.484,211.678z"/>
<path d="M196.116,211.678c-2.935-2.933-7.69-2.933-10.624,0l-14.184,14.184l-14.184-14.184c-2.934-2.932-7.689-2.934-10.624,0
	c-2.934,2.935-2.934,7.69,0,10.624l14.184,14.184l-14.184,14.184c-4.748,4.749-1.32,12.825,5.313,12.825
	c5.267,0,6.177-3.966,19.495-16.383c13.267,12.369,14.227,16.383,19.495,16.383c6.635,0,10.057-8.078,5.313-12.825l-14.184-14.184
	l14.184-14.184C199.05,219.368,199.05,214.613,196.116,211.678z"/>
<path d="M434.445,72.493c-2.974-2.893-7.729-2.83-10.622,0.143c-2.895,2.973-2.83,7.728,0.143,10.622
	c15.82,15.401,29.489,32.992,40.629,52.287c32.169,55.719,40.715,120.631,24.064,182.778
	c-42.502,158.618-228.31,229.419-365.77,138.457c-3.46-2.29-8.12-1.341-10.411,2.119c-2.289,3.46-1.34,8.12,2.119,10.411
	c145.585,96.337,343.279,21.94,388.572-147.098c17.691-66.025,8.613-134.985-25.564-194.18
	C465.775,107.543,451.254,88.856,434.445,72.493z"/>
<path d="M408.476,59.702c2.443-3.353,1.706-8.052-1.648-10.496C261.971-56.342,55.364,16.025,8.814,189.75
	c-26.125,97.498,7.654,195.736,77.11,257.512c1.432,1.273,3.214,1.899,4.989,1.899c6.861,0,10.162-8.529,4.995-13.125
	C30.63,377.983-1.3,285.545,23.325,193.64C67.16,30.053,261.682-37.964,397.98,61.349C401.333,63.793,406.032,63.055,408.476,59.702
	z"/>
<g>
</g>
<g>
</g>
<g>
</g>
<g>
</g>
<g>
</g>
<g>
</g>
<g>
</g>
<g>
</g>
<g>
</g>
<g>
</g>
<g>
</g>
<g>
</g>
<g>
</g>
<g>
</g>
<g>
</g>
</svg>
