<?xml version="1.0" encoding="iso-8859-1"?>
<!-- Generator: Adobe Illustrator 19.0.0, SVG Export Plug-In . SVG Version: 6.00 Build 0)  -->
<svg version="1.1" id="Capa_1" xmlns="http://www.w3.org/2000/svg" xmlns:xlink="http://www.w3.org/1999/xlink" x="0px" y="0px"
	 viewBox="0 0 512 512" style="enable-background:new 0 0 512 512;" xml:space="preserve">
<path style="fill:#F4D44E;" d="M435.688,236.12l-0.718-0.864c-39.215,0-296.39,0-357.946,0l-0.718,0.864c0,0-0.09-4.52-0.09,96.124
	c0,96.319,82.302,173.466,181.749,172.249c97.171-0.85,177.811-76.626,177.811-172.444
	C435.756,227.551,435.688,236.706,435.688,236.12z"/>
<path style="fill:#E8C842;" d="M126.643,332.244c0-100.644,0.09-96.124,0.09-96.124l0.718-0.864c-21.608,0-39.245,0-50.424,0
	l-0.718,0.864c0,0-0.089-4.52-0.089,96.124c0,96.319,82.303,173.466,181.749,172.249c7.844-0.069,15.578-0.633,23.173-1.65
	C194.348,491.19,126.643,419.604,126.643,332.244z"/>
<g>
	<path style="fill:#DBBC3B;" d="M435.778,245.226v55.682c16.347,0,31.78-12.464,31.78-27.842
		C467.558,257.689,452.125,245.226,435.778,245.226z"/>
	<path style="fill:#DBBC3B;" d="M44.439,273.066c0,15.379,15.433,27.842,31.78,27.842v-55.682
		C59.871,245.226,44.439,257.689,44.439,273.066z"/>
</g>
<g>
	<path style="fill:#CCAF37;" d="M435.778,279.959v20.95c16.347,0,31.78-12.464,31.78-27.842c0-3.706-0.904-7.24-2.494-10.474
		C460.058,272.776,448.185,279.959,435.778,279.959z"/>
	<path style="fill:#CCAF37;" d="M46.932,262.592c-1.59,3.234-2.494,6.768-2.494,10.474c0,15.379,15.433,27.842,31.78,27.842v-20.949
		C63.811,279.959,51.938,272.776,46.932,262.592z"/>
</g>
<path style="fill:#A9DBA9;" d="M256.724,7.683C144.711,8.663,52.261,98.32,50.46,207.298h417.097
	C465.757,98.32,373.308,8.663,261.294,7.683c-0.764-0.009-1.524-0.004-2.285-0.005C258.247,7.679,257.487,7.673,256.724,7.683z"/>
<path style="fill:#9BCE9B;" d="M296.663,10.995c-11.505-2.07-23.323-3.207-35.369-3.313c-0.764-0.009-1.524-0.004-2.285-0.005
	c-0.762,0.001-1.522-0.004-2.285,0.005C144.711,8.663,52.261,98.32,50.46,207.298h75.308
	C127.376,110.04,201.184,28.176,296.663,10.995z"/>
<path style="fill:#77B777;" d="M465.547,204.298c-23.915,0-397.718,0-419.097,0c-11.034,0-19.978,8.944-19.978,19.978
	c0,11.034,8.944,19.977,19.978,19.977c100.743,0,325.036,0,419.097,0c11.034,0,19.978-8.944,19.978-19.977
	C485.525,213.244,476.58,204.298,465.547,204.298z"/>
<path style="fill:#6AAA6A;" d="M110.314,224.277c0-11.034,8.944-19.978,19.978-19.978c-45.012,0-77.925,0-83.842,0
	c-11.034,0-19.977,8.944-19.977,19.978c0,11.034,8.944,19.977,19.977,19.977c22.656,0,51.574,0,83.842,0
	C119.258,244.254,110.314,235.309,110.314,224.277z"/>
<path style="fill:#77B777;" d="M297.154,102.31h-22.619c-2.332,0-4.223-1.89-4.223-4.223V75.468c0-2.332-1.89-4.223-4.223-4.223
	h-20.655c-2.332,0-4.223,1.89-4.223,4.223v22.619c0,2.332-1.89,4.223-4.223,4.223h-22.619c-2.332,0-4.223,1.89-4.223,4.223v20.655
	c0,2.332,1.89,4.223,4.223,4.223h22.619c2.332,0,4.223,1.89,4.223,4.223v22.619c0,2.332,1.89,4.223,4.223,4.223h20.655
	c2.332,0,4.223-1.89,4.223-4.223v-22.619c0-2.332,1.89-4.223,4.223-4.223h22.619c2.332,0,4.223-1.89,4.223-4.223v-20.655
	C301.377,104.2,299.487,102.31,297.154,102.31z"/>
<g>
	<path style="fill:#6AAA6A;" d="M256.709,98.087V75.468c0-2.332,1.89-4.223,4.223-4.223h-15.496c-2.332,0-4.223,1.89-4.223,4.223
		v22.619c0,2.332-1.89,4.223-4.223,4.223h15.496C254.819,102.309,256.709,100.419,256.709,98.087z"/>
	<path style="fill:#6AAA6A;" d="M225.644,127.187v-20.655c0-2.332,1.89-4.223,4.223-4.223h-15.496c-2.332,0-4.223,1.89-4.223,4.223
		v20.655c0,2.332,1.89,4.223,4.223,4.223h15.496C227.535,131.409,225.644,129.519,225.644,127.187z"/>
	<path style="fill:#6AAA6A;" d="M256.709,158.251v-22.619c0-2.332-1.89-4.223-4.223-4.223h-15.496c2.332,0,4.223,1.89,4.223,4.223
		v22.619c0,2.332,1.89,4.223,4.223,4.223h15.496C258.6,162.473,256.709,160.583,256.709,158.251z"/>
</g>
<path style="fill:#DBBC3B;" d="M269.903,318.666h-28.281c-3.829,0-6.961,3.128-6.961,6.952v5.286
	c0,8.989,5.699,17.141,14.288,19.834c14.548,4.562,27.916-6.163,27.916-20.007v-5.115
	C276.865,321.795,273.732,318.666,269.903,318.666z"/>
<path style="fill:#CCAF37;" d="M255.763,325.618c0-3.824,3.133-6.952,6.961-6.952h-21.102c-3.829,0-6.961,3.128-6.961,6.952v5.286
	c0,16.895,18.101,25.794,31.537,18.143C253.301,341.734,256.118,327.357,255.763,325.618z"/>
<path d="M234.895,311.153c-4.142,0-7.498,3.356-7.498,7.498v12.083c0,15.769,12.83,28.6,28.6,28.6s28.599-12.83,28.599-28.6V318.65
	c0-4.142-3.356-7.498-7.498-7.498c-4.142,0-7.498,3.356-7.498,7.498v12.083c0,7.502-6.102,13.604-13.603,13.604
	c-7.502,0-13.604-6.102-13.604-13.604V318.65C242.393,314.509,239.037,311.153,234.895,311.153z"/>
<path d="M245.435,169.971h20.654c6.463,0,11.722-5.257,11.722-11.721v-19.344h19.344c6.463,0,11.721-5.257,11.721-11.721v-20.655
	c0-6.463-5.257-11.721-11.721-11.721h-19.344V75.468c0-6.463-5.258-11.721-11.722-11.721h-20.654
	c-6.463,0-11.721,5.257-11.721,11.721v19.344H214.37c-6.463,0-11.721,5.257-11.721,11.721v20.655
	c0,6.463,5.257,11.721,11.721,11.721h19.344v19.344C233.716,164.714,238.973,169.971,245.435,169.971z M217.647,123.912v-14.104
	h19.344c6.463,0,11.721-5.257,11.721-11.721V78.743h14.104v19.344c0,6.463,5.257,11.721,11.721,11.721h19.344v14.104h-19.344
	c-6.463,0-11.721,5.257-11.721,11.721v19.344h-14.104v-19.344c0-6.463-5.257-11.721-11.721-11.721H217.647z"/>
<path d="M222.406,406.421c13.637,22.022,53.816,21.645,67.19-0.009c2.176-3.523,1.084-8.144-2.438-10.319
	c-3.524-2.177-8.144-1.086-10.319,2.438c-7.464,12.089-33.837,12.632-41.685-0.009c-2.181-3.521-6.805-4.606-10.322-2.424
	C221.31,398.279,220.226,402.901,222.406,406.421z"/>
<path d="M359.94,287.26c2.306-3.439,1.388-8.097-2.053-10.402c-3.441-2.305-8.099-1.389-10.402,2.053
	c-7.659,11.423-18.607,11.528-26.336,0c-2.307-3.441-6.966-4.36-10.402-2.053c-3.44,2.306-4.359,6.963-2.053,10.402
	C322.277,307.527,346.262,307.666,359.94,287.26z"/>
<path d="M201.68,287.41c2.306-3.439,1.387-8.098-2.053-10.402c-3.439-2.309-8.098-1.387-10.402,2.053
	c-7.657,11.423-18.608,11.528-26.335,0c-2.305-3.441-6.963-4.36-10.402-2.053c-3.439,2.305-4.359,6.963-2.053,10.402
	C164.018,307.677,188.004,307.814,201.68,287.41z"/>
<path d="M375.144,43.307c2.174-3.524,1.081-8.144-2.442-10.319C233.585-52.865,48.036,38.3,40.185,197.53
	c-12.14,2.844-21.21,13.752-21.21,26.746c0,14.723,11.642,26.775,26.203,27.443c-18.331,21.331-4.061,50.979,23.548,56.005
	c1.805,11.207-11.921,85.259,52.467,149.301c2.936,2.921,7.684,2.908,10.603-0.028c2.92-2.936,2.907-7.684-0.028-10.603
	c-30.986-30.82-48.051-71.359-48.051-114.15c0-0.746,0.015-79.337,0.02-80.493h344.525c0.005,1.15,0.019,79.768,0.02,80.493
	c0,134.323-158.235,210.012-270.485,135.385c-3.448-2.29-8.102-1.356-10.395,2.093c-2.292,3.448-1.355,8.102,2.093,10.395
	c72.219,48.011,173.302,42.407,239.14-20.954c67.14-64.611,52.762-140.077,54.637-151.439c27.601-5.025,41.887-34.665,23.548-56.005
	c14.562-0.668,26.203-12.72,26.203-27.443c0-12.993-9.069-23.901-21.208-26.745c-2.61-53.24-26.525-104.839-69.967-142.991
	c-3.114-2.732-7.85-2.424-10.582,0.687c-2.731,3.111-2.425,7.85,0.687,10.582c40,35.127,62.055,82.401,64.819,130.992
	c-10.806,0-283.727,0-301.684,0c-4.142,0-7.498,3.356-7.498,7.498s3.356,7.498,7.498,7.498c10.925,0,297.867,0,310.458,0
	c6.882,0,12.48,5.598,12.48,12.479c0,6.881-5.599,12.479-12.48,12.479c-17.502,0-407.305,0-419.096,0
	c-6.882,0-12.48-5.598-12.48-12.479c0-6.881,5.599-12.479,12.48-12.479c15.659,0,58.225,0,73.639,0c4.142,0,7.498-3.356,7.498-7.498
	s-3.356-7.498-7.498-7.498c-6.514,0-58.532,0-64.862,0C63.644,49.801,235.884-33.829,364.824,45.748
	C368.35,47.923,372.968,46.829,375.144,43.307z M443.276,253.845c9.425,2.846,16.784,10.731,16.784,19.22
	s-7.359,16.376-16.784,19.223V253.845z M68.721,253.845v38.443c-9.425-2.847-16.784-10.733-16.784-19.223
	C51.936,264.577,59.295,256.691,68.721,253.845z"/>
<g>
</g>
<g>
</g>
<g>
</g>
<g>
</g>
<g>
</g>
<g>
</g>
<g>
</g>
<g>
</g>
<g>
</g>
<g>
</g>
<g>
</g>
<g>
</g>
<g>
</g>
<g>
</g>
<g>
</g>
</svg>
