<?xml version="1.0" encoding="iso-8859-1"?>
<!-- Generator: Adobe Illustrator 19.0.0, SVG Export Plug-In . SVG Version: 6.00 Build 0)  -->
<svg version="1.1" id="Capa_1" xmlns="http://www.w3.org/2000/svg" xmlns:xlink="http://www.w3.org/1999/xlink" x="0px" y="0px"
	 viewBox="0 0 512 512" style="enable-background:new 0 0 512 512;" xml:space="preserve">
<g>
	<rect x="377.907" y="78.838" style="fill:#495259;" width="48.663" height="76.036"/>
	<rect x="377.907" y="357.133" style="fill:#495259;" width="48.663" height="76.036"/>
</g>
<polygon style="fill:#B57D50;" points="85.428,442.458 85.428,504.396 400.72,504.396 400.72,7.604 85.428,7.604 85.428,427.249 "/>
<g>
	<rect x="123.955" y="46.131" style="fill:#855737;" width="238.237" height="199.498"/>
	<rect x="123.955" y="317.095" style="fill:#855737;" width="238.237" height="148.774"/>
</g>
<circle style="fill:#F5C04D;" cx="139.152" cy="281.113" r="15.207"/>
<path d="M362.193,38.527H123.955c-4.199,0-7.604,3.405-7.604,7.604v85.573c0,4.199,3.405,7.604,7.604,7.604l0,0
	c4.199,0,7.604-3.405,7.604-7.604V53.735h223.03v184.289h-223.03v-70.832c0-4.199-3.405-7.604-7.604-7.604l0,0
	c-4.199,0-7.604,3.405-7.604,7.604v78.436c0,4.199,3.405,7.604,7.604,7.604h238.238c4.199,0,7.604-3.405,7.604-7.604V46.131
	C369.797,41.931,366.393,38.527,362.193,38.527z"/>
<path d="M362.193,309.496H123.955c-4.199,0-7.604,3.405-7.604,7.604v148.769c0,4.199,3.405,7.604,7.604,7.604h190.957
	c4.199,0,7.604-3.405,7.604-7.604l0,0c0-4.199-3.405-7.604-7.604-7.604H131.559V324.704h223.03v133.561h-4.191
	c-4.199,0-7.604,3.405-7.604,7.604l0,0c0,4.199,3.405,7.604,7.604,7.604h11.795c4.199,0,7.604-3.405,7.604-7.604V317.1
	C369.797,312.9,366.393,309.496,362.193,309.496z"/>
<path d="M139.157,303.921c9.913,0,18.364-6.358,21.503-15.207h37.805c4.199,0,7.604-3.404,7.604-7.604s-3.405-7.604-7.604-7.604
	H160.66c-3.139-8.85-11.59-15.208-21.503-15.208c-12.578,0-22.811,10.234-22.811,22.812S126.579,303.921,139.157,303.921z
	 M139.157,273.506c4.192,0,7.604,3.411,7.604,7.604c0,4.192-3.411,7.603-7.604,7.603c-4.192,0-7.603-3.411-7.603-7.603
	C131.554,276.917,134.964,273.506,139.157,273.506z"/>
<path d="M426.572,162.476c4.199,0,7.604-3.404,7.604-7.604V78.837c0-4.2-3.405-7.604-7.604-7.604h-18.249V7.604
	c0-4.2-3.405-7.604-7.604-7.604H85.428c-4.199,0-7.604,3.404-7.604,7.604v496.792c0,4.2,3.405,7.604,7.604,7.604H400.72
	c4.199,0,7.604-3.404,7.604-7.604v-63.629h18.249c4.199,0,7.604-3.404,7.604-7.604v-76.036c0-4.2-3.405-7.604-7.604-7.604h-18.249
	V162.476L426.572,162.476L426.572,162.476z M418.968,86.441v60.828h-10.645V86.441H418.968z M393.116,496.792H93.032V15.208h300.084
	v63.629v76.036v202.255v76.036V496.792z M418.968,364.732v60.828h-10.645v-60.828H418.968z"/>
<g>
</g>
<g>
</g>
<g>
</g>
<g>
</g>
<g>
</g>
<g>
</g>
<g>
</g>
<g>
</g>
<g>
</g>
<g>
</g>
<g>
</g>
<g>
</g>
<g>
</g>
<g>
</g>
<g>
</g>
</svg>
