<?xml version="1.0" encoding="iso-8859-1"?>
<!-- Generator: Adobe Illustrator 19.0.0, SVG Export Plug-In . SVG Version: 6.00 Build 0)  -->
<svg version="1.1" id="Capa_1" xmlns="http://www.w3.org/2000/svg" xmlns:xlink="http://www.w3.org/1999/xlink" x="0px" y="0px"
	 viewBox="0 0 512.001 512.001" style="enable-background:new 0 0 512.001 512.001;" xml:space="preserve">
<path style="fill:#77B777;" d="M193.468,119.233c0,0,2.648,23.463,3.435,42.768c3.106,0.348,6.116,1.725,8.474,4.123
	c3.473,2.907,16.547,5.348,18.955,5.848c1.623,0.22,8.508,1.568,20.625,2.194c27.471,1.373,55.19-2.972,61.672-8.043
	c2.357-2.396,5.366-3.774,8.473-4.123c0.787-19.306,3.435-42.767,3.435-42.767c4.677-12.308,6.313-27.342,6.575-40.511h0.041
	c0-60.294,1.63-62.402-5.13-67.982c-7.241-5.975-18.272-3.32-21.956,5.391c-1.884,4.456-0.79,6.694-1.108,27.592
	c0,10.293-5.706,13.586-7.43,14.347c-25.1,9.306-23.258,28.473-34.621,26.961c-9.155-1.219-8.955-18.256-32.434-26.961
	c-1.724-0.76-7.43-4.053-7.43-14.347c-0.326-21.379,0.769-23.154-1.108-27.592c-4.843-11.45-21.127-11.468-25.978,0
	c-1.527,3.611-1.108,0.801-1.108,62.591h0.041C187.151,91.88,188.816,106.992,193.468,119.233z"/>
<path style="fill:#6AAA6A;" d="M224.103,127.672c-0.34-5.011-1.297-9.945-2.666-14.777c-3.083-10.887-4.275-23.208-4.49-34.173
	h-0.041c0-10.509-0.012-19.145-0.025-26.267c-1.062-2.114-1.837-4.947-1.837-8.733c-0.326-21.379,0.769-23.154-1.108-27.592
	c-4.843-11.45-21.127-11.468-25.978,0c-1.527,3.611-1.108,0.801-1.108,62.591h0.041c0.258,13.159,1.922,28.271,6.574,40.511
	c0,0,2.648,23.463,3.435,42.768c3.106,0.348,6.116,1.725,8.474,4.123c3.473,2.907,16.547,5.348,18.955,5.848
	c0.437,0.059,1.267,0.202,2.465,0.388C226.157,158.665,224.858,138.829,224.103,127.672z"/>
<path style="fill:#77B777;" d="M446.533,419.965L325.871,180.712c-1.729,1.739-3.924,3.342-6.631,4.712
	c-25.367,15.206-110.658,16.158-133.105-4.714L65.471,419.965c-3.876,7.524-1.698,16.723,5.085,21.786
	c44.443,33.173,87.912,6.354,117.179,34.937c38.096,37.196,99.322,37.209,137.418-0.872c27.015-27.016,72.199-1.149,116.296-34.064
	C448.231,436.688,450.409,427.49,446.533,419.965z"/>
<g>
	<path style="fill:#6AAA6A;" d="M97.223,451.969c-7.048-5.261-9.311-14.82-5.284-22.638l119.644-237.234
		c-10.984-2.601-20.043-6.359-25.45-11.386L65.471,419.965c-3.876,7.524-1.698,16.723,5.085,21.786
		c11.92,8.897,23.769,13.477,35.293,15.969C102.98,456.026,100.103,454.119,97.223,451.969z"/>
	<path style="fill:#6AAA6A;" d="M255.715,199.634c-19.558,0-56.942-2.733-70.537-16.843c-5.404-5.605-5.24-14.529,0.364-19.932
		c5.574-5.372,14.421-5.241,19.835,0.265c3.473,2.907,16.547,5.348,18.955,5.848c1.623,0.219,8.508,1.568,20.625,2.194
		c27.472,1.373,55.19-2.972,61.672-8.042c5.399-5.492,14.227-5.637,19.803-0.294c7.213,6.911,5.924,18.954-7.191,25.595
		C299.909,200.012,255.325,199.634,255.715,199.634z"/>
</g>
<g>
	<path style="fill:#60A060;" d="M220.843,193.124c-5.404-5.605-5.24-14.529,0.364-19.932c1.983-1.911,4.383-3.112,6.892-3.636
		c-1.923-0.282-3.188-0.506-3.768-0.585c-2.409-0.5-15.482-2.941-18.955-5.848c-5.415-5.505-14.262-5.636-19.835-0.264
		c-5.604,5.403-5.767,14.327-0.364,19.932c8.244,8.556,25.235,12.925,41.693,15.041
		C224.554,196.424,222.517,194.861,220.843,193.124z"/>
	<path style="fill:#60A060;" d="M320.023,10.74c-9.044-7.463-23.063-1.17-23.063,10.877c-0.511,18.827,1.215,24.798-1.85,30.868
		h30.043C324.8,21.5,327.082,16.567,320.023,10.74z"/>
	<path style="fill:#60A060;" d="M187.96,16.13c-1.927,4.555-0.759,5.717-1.108,36.354h30.043c-3.063-6.064-1.338-12.017-1.85-30.868
		C215.045,6.302,193.919,2.04,187.96,16.13z"/>
</g>
<path d="M165.055,224.984c3.685,1.882,8.206,0.421,10.091-3.269l13.742-26.907c29.719,16.601,103.815,16.252,134.251,0.042
	l85.594,167.591c1.326,2.597,3.957,4.091,6.686,4.091c5.526,0,9.243-5.882,6.674-10.913l-87.342-171.014
	c8.051-12.662,1.58-28.213-11.797-32.231c0.63-10.318,1.643-20.204,2.262-25.754c0.459-4.116-2.506-7.826-6.623-8.285
	c-4.111-0.46-7.826,2.506-8.285,6.623c-0.813,7.298-1.839,17.703-2.436,28.335c-1.954,0.873-4.345,2.412-6.114,4.102
	c-6.125,4.063-42.38,9.842-76.697,4.072c-19.889-3.999-12.82-4.553-20.927-8.174c-0.285-5.068-2.413-33.452-3.654-36.722
	c-6.835-17.957-6.094-39.386-6.127-56.586h18.585c2.257,2.621,5.077,4.434,6.93,5.116c15.99,5.928,19.469,16.968,24.674,22.548
	c3.494,3.748,8.94,5.794,14.58,4.652v-0.001c6.347-1.307,9.053-5.144,12.249-9.845c13.136-19.33,20.099-13.642,27.7-22.471h18.584
	c-0.018,12.114,0.267,19.075-0.651,30.16c-0.355,4.127,2.701,7.762,6.827,8.118c4.118,0.35,7.762-2.7,8.118-6.827
	c0.552-6.731,0.706-12.601,0.706-12.714c0-62.747,0.571-60.144-1.7-65.515c-8.712-20.596-39.199-15.744-41.384,6.244
	c-0.274,2.753,0.055,22.832-0.166,25.678c-0.167,2.151-0.9,5.012-2.786,6.022c-23.009,8.668-28.274,26.624-30.737,26.442
	c-2.732-1.128-8.197-18.043-30.49-26.441c-1.803-0.969-2.567-3.687-2.763-5.742c-0.159-1.647-0.04-1.982-0.081-23.793
	c0-18.206-21.163-28.171-35.208-16.761c-5.013,4.071-7.983,10.171-7.983,16.761c0,47.914-2.003,75.433,6.782,99.416
	c0.427,3.453,2.045,17.05,2.917,31.337c-13.745,4.13-19.617,20.359-11.859,32.355l-15.407,30.168
	C159.902,218.581,161.365,223.099,165.055,224.984z M304.46,21.617c0-3.677,2.974-6.596,6.596-6.596
	c3.664,0,6.597,2.969,6.597,6.596v23.368h-13.216C304.478,43.868,304.452,44.808,304.46,21.617z M194.867,19.051
	c2.771-6.547,12.678-4.658,12.678,2.565c0.008,23.099-0.019,22.245,0.023,23.368h-13.216
	C194.519,20.753,193.966,21.182,194.867,19.051z M190.747,168.258c2.43-2.343,6.241-2.44,8.788-0.33
	c18.42,15.372,99.257,13.442,112.363,0.522c4.836-4.788,12.154-0.375,11.33,5.167c-3.176,21.327-111.237,26.189-132.651,3.969
	C188.053,174.967,188.129,170.783,190.747,168.258z"/>
<path d="M438.013,386.793c-1.885-3.689-6.405-5.154-10.091-3.268c-3.689,1.884-5.152,6.401-3.268,10.09l15.212,29.784
	c2.193,4.259,0.972,9.448-2.904,12.342c-32.697,24.407-66.179,13.752-94.419,21.732L302.79,254.559
	c-0.796-4.064-4.726-6.707-8.803-5.918c-4.064,0.797-6.714,4.737-5.918,8.803l40.392,206.174c-2.994,1.885-5.871,4.152-8.613,6.893
	c-34.632,34.62-91.156,35.684-126.875,0.811c-3.214-3.139-6.586-5.686-10.076-7.773l40.378-206.105
	c0.796-4.065-1.854-8.006-5.918-8.803c-4.072-0.789-8.006,1.854-8.803,5.918l-39.766,202.977
	c-28.973-8.263-61.078,2.59-93.75-21.796c-3.876-2.894-5.097-8.083-2.892-12.364l87.061-170.462
	c1.884-3.688,0.421-8.206-3.269-10.091c-3.685-1.881-8.206-0.421-10.091,3.269L58.8,416.53c-5.563,10.801-2.508,23.935,7.266,31.23
	c46.611,34.79,90.053,8.535,116.426,34.292c40.978,40.011,106.85,40.16,147.961-0.934c23.814-23.816,69.617,0.874,115.478-33.358
	c9.773-7.295,12.83-20.429,7.278-31.207L438.013,386.793z"/>
<g>
</g>
<g>
</g>
<g>
</g>
<g>
</g>
<g>
</g>
<g>
</g>
<g>
</g>
<g>
</g>
<g>
</g>
<g>
</g>
<g>
</g>
<g>
</g>
<g>
</g>
<g>
</g>
<g>
</g>
</svg>
