<?xml version="1.0" encoding="iso-8859-1"?>
<!-- Generator: Adobe Illustrator 19.0.0, SVG Export Plug-In . SVG Version: 6.00 Build 0)  -->
<svg version="1.1" id="Capa_1" xmlns="http://www.w3.org/2000/svg" xmlns:xlink="http://www.w3.org/1999/xlink" x="0px" y="0px"
	 viewBox="0 0 512 512" style="enable-background:new 0 0 512 512;" xml:space="preserve">
<path style="fill:#9CD7F2;" d="M371.834,39.26L190.899,79.652c-11.927,2.663-13.567,18.562-2.6,23.932l34.108,16.703
	c73.253,35.874,117.272,91.586,117.168,91.485c47.671,56.556,141.561,38.62,161.597-41.536
	C520.857,93.637,451.494,21.476,371.834,39.26z"/>
<path style="fill:#71C5DB;" d="M374.226,139.8c0.134,0.055-61.377-35.409-142.706-41.625l-37.868-2.895
	c-5.894-0.45-9.948-4.288-11.427-8.907c-2.834,5.853-1.022,13.735,6.075,17.211l34.108,16.703
	c73.253,35.874,117.272,91.586,117.168,91.486c47.671,56.556,141.561,38.62,161.597-41.536c5.863-22.816,3.824-45.236-4.033-65.005
	C473.166,146.323,419.926,164.254,374.226,139.8z"/>
<path style="fill:#9CD7F2;" d="M421.219,333.664l-109.995-59.759c-9.535-5.18-20.084,4.057-16.501,14.347l6.438,18.493
	c19.447,55.858,19.738,104.007,19.637,101.819c2.438,52.927,61.694,85.41,107.274,55.425
	C475.85,432.121,471.699,361.09,421.219,333.664z"/>
<path style="fill:#71C5DB;" d="M361.656,396.951c0.642,2.094-11.627-44.465-44.371-93.723l-10.84-16.307
	c-3.293-4.954-2.422-10.648,0.754-14.372c-8.188-1.206-15.556,6.854-12.477,15.703l6.438,18.493
	c19.447,55.859,19.738,104.007,19.637,101.819c2.438,52.927,61.694,85.411,107.274,55.426c8.574-5.718,15.465-12.703,20.727-20.465
	C413.922,454.236,373.436,435.354,361.656,396.951z"/>
<path style="fill:#9CD7F2;" d="M189.452,288.409c-42.066-35.649-89.053-71.729-130.627-147.722l0,0
	c-8.132-11.869-26.365-7.656-28.024,6.64L8.279,341.521c-9.964,85.921,75.138,150.616,153.839,120.962
	C235.205,434.953,249.976,337.766,189.452,288.409z"/>
<path style="fill:#71C5DB;" d="M71.629,336.673L44.957,143.005c-0.477-3.463,0.148-6.589,1.513-9.21
	c-7.355-0.233-14.648,4.737-15.668,13.531L8.279,341.52c-9.964,85.921,75.139,150.616,153.839,120.962
	c16.392-6.174,29.841-15.859,40.175-27.717C142.815,443.392,80.834,403.506,71.629,336.673z"/>
<path d="M472.303,57.688c-3.122-2.723-7.86-2.398-10.584,0.725c-2.723,3.123-2.397,7.861,0.725,10.584
	c67.274,58.655,28.914,168.481-52.619,168.133c-24.939-0.134-48.453-11.138-64.514-30.193
	c-64.335-76.327-134.174-98.624-153.712-110.089c-2.857-1.399-4.103-5.002-2.429-7.584c2.387-3.685-5.35,0.519,184.298-42.684
	c20.858-4.653,42.055-2.869,61.301,5.171c3.823,1.593,8.217-0.208,9.814-4.031c1.596-3.823-0.208-8.217-4.031-9.814
	c-22.124-9.241-46.454-11.307-70.352-5.968L189.266,72.33c-18.805,4.196-21.568,29.516-4.266,37.991
	c19.129,11.204,87.026,32.953,148.84,106.287c19.012,22.556,46.902,35.527,76.44,35.527
	C505.063,252.131,550.13,125.545,472.303,57.688z"/>
<path d="M194.192,282.595c-5.557-4.532-11.187-9.305-16.733-14.183c-10.811-9.575-33.91-26.725-61.607-58.726
	c-2.713-3.134-7.451-3.475-10.581-0.763c-3.133,2.712-3.475,7.449-0.763,10.581c14.626,16.898,32.556,35.854,80.203,74.717
	c26.626,21.713,39.204,54.991,33.645,89.019c-12.488,76.444-104.11,102.735-163.432,54.901
	c-28.801-23.223-43.451-59.02-39.191-95.757L38.254,148.19c0.512-4.427,4.357-7.556,8.82-6.81
	c8.269,1.368,4.449,8.061,35.252,50.242c2.442,3.348,7.137,4.079,10.481,1.634c3.347-2.443,4.078-7.136,1.634-10.481
	c-18.231-24.967-28.592-45.112-29.428-46.327c-11.85-17.301-39.17-11.495-41.663,10.015L0.829,340.656
	c-4.857,41.883,11.844,82.693,44.677,109.166c68.428,55.176,173.362,23.324,187.656-64.16
	C239.597,346.272,225.029,307.742,194.192,282.595z"/>
<path d="M424.799,327.073l-109.994-59.758c-15.59-8.468-32.979,6.718-27.167,23.404c3.295,11.51,22.703,53.875,25.665,118.19
	c0.627,13.62,4.78,26.794,12.011,38.099c2.232,3.491,6.872,4.51,10.361,2.277c3.49-2.232,4.51-6.871,2.277-10.361
	c-5.898-9.222-9.149-19.552-9.663-30.704c-3.078-66.82-23.238-111.073-26.484-122.434c-1.309-3.756,2.255-7.227,5.835-5.288
	l109.995,59.758c47.147,25.616,48.433,91.634,4.527,118.603c-18.782,11.568-41.677,12.098-61.246,1.421
	c-3.638-1.982-8.193-0.645-10.178,2.993c-1.983,3.637-0.645,8.193,2.993,10.178c24.276,13.246,53.74,13.086,78.502-3.221
	C484.514,435.358,480.453,357.307,424.799,327.073z"/>
<g>
</g>
<g>
</g>
<g>
</g>
<g>
</g>
<g>
</g>
<g>
</g>
<g>
</g>
<g>
</g>
<g>
</g>
<g>
</g>
<g>
</g>
<g>
</g>
<g>
</g>
<g>
</g>
<g>
</g>
</svg>
