<?xml version="1.0" encoding="iso-8859-1"?>
<!-- Generator: Adobe Illustrator 19.0.0, SVG Export Plug-In . SVG Version: 6.00 Build 0)  -->
<svg version="1.1" id="Capa_1" xmlns="http://www.w3.org/2000/svg" xmlns:xlink="http://www.w3.org/1999/xlink" x="0px" y="0px"
	 viewBox="0 0 511.999 511.999" style="enable-background:new 0 0 511.999 511.999;" xml:space="preserve">
<path style="fill:#9CD7F2;" d="M403.123,255.547L403.123,255.547L270.169,15.871c-6.183-11.146-22.212-11.146-28.395,0
	L108.82,255.547l0,0c-50.47,101.687-4.345,207.333,90.183,239.434c16.029,5.744,33.255,9.102,51.334,9.477
	c1.25,0.026,2.504,0.039,3.762,0.039h0.001c0.627,0,1.246-0.023,1.871-0.028c0.625,0.006,1.244,0.028,1.871,0.028l0,0
	c1.259,0,2.512-0.013,3.762-0.039c18.079-0.375,35.305-3.733,51.334-9.477C408.281,462.604,453.342,356.727,403.123,255.547z"/>
<path style="fill:#71C5DB;" d="M191.337,283.51l62.145-266.945c0.859-3.688,2.827-6.661,5.4-8.792
	c-6.438-1.15-13.473,1.545-17.109,8.097L108.82,255.547c-50.47,101.687-4.345,207.333,90.183,239.434
	c16.029,5.744,33.255,9.102,51.334,9.477c1.25,0.026,2.504,0.039,3.762,0.039l0,0c0.627,0,1.246-0.022,1.871-0.028
	c0.625,0.006,1.243,0.028,1.871,0.028h0.001c1.258,0,2.512-0.013,3.762-0.039c18.079-0.375,35.305-3.733,51.334-9.477
	c6.097-2.071,11.985-4.446,17.66-7.097C237.683,476.139,171.599,390.183,191.337,283.51z"/>
<path d="M326.27,101.516c-2.01-3.623-6.574-4.933-10.196-2.921c-3.623,2.01-4.93,6.574-2.921,10.196l83.343,150.242
	c47.651,96.205,6.254,196.573-86.071,228.888c-59.417,21.296-133.241,5.312-177.494-45.874c-2.709-3.134-7.445-3.476-10.579-0.769
	c-3.133,2.709-3.478,7.445-0.769,10.579c32.308,37.368,81.743,61.281,140.193,60.099c123.287-2.556,212.794-129.354,148.08-259.744
	C409.698,251.895,413.483,258.74,326.27,101.516z"/>
<path d="M248.347,19.509c3.33-6.003,11.947-6.003,15.278,0l32.544,58.666c2.009,3.621,6.573,4.93,10.196,2.921
	c3.623-2.01,4.93-6.574,2.921-10.196l-32.544-58.668c-9.048-16.308-32.463-16.312-41.514,0.001
	C97.022,261.387,102.265,251.914,102.117,252.213c-27.414,55.233-29.714,116.662-1.376,169.389
	c1.976,3.673,6.533,5.004,10.157,3.056c3.648-1.961,5.017-6.509,3.056-10.157c-26.489-49.282-23.103-105.75,1.523-155.466
	L248.347,19.509z"/>
<g>
</g>
<g>
</g>
<g>
</g>
<g>
</g>
<g>
</g>
<g>
</g>
<g>
</g>
<g>
</g>
<g>
</g>
<g>
</g>
<g>
</g>
<g>
</g>
<g>
</g>
<g>
</g>
<g>
</g>
</svg>
