<?xml version="1.0" encoding="iso-8859-1"?>
<!-- Generator: Adobe Illustrator 19.0.0, SVG Export Plug-In . SVG Version: 6.00 Build 0)  -->
<svg version="1.1" id="Capa_1" xmlns="http://www.w3.org/2000/svg" xmlns:xlink="http://www.w3.org/1999/xlink" x="0px" y="0px"
	 viewBox="0 0 511.997 511.997" style="enable-background:new 0 0 511.997 511.997;" xml:space="preserve">
<path style="fill:#F4D44E;" d="M445.195,195.147C445.195,91.546,360.52,7.56,256.07,7.56c-125.503,0-216.806,119.48-181.56,239.807
	l-0.082-0.023c0.032,0.103,56.573,178.283,53.489,168.565l0.033-0.011c18.361,52.103,60.238,88.551,109.031,88.551
	c60.028,0,109.528-55.157,117.677-126.784l0.134-0.025c0,0,0.199-21.965,23.069-39.294l0,0
	C418.979,303.972,445.195,252.667,445.195,195.147z"/>
<g>
	<path style="fill:#E8C842;" d="M128.035,416.28C128.04,416.295,128.04,416.293,128.035,416.28L128.035,416.28z"/>
	<path style="fill:#E8C842;" d="M127.918,415.908L127.918,415.908C128.071,416.392,128.078,416.415,127.918,415.908z"/>
	<path style="fill:#E8C842;" d="M153.152,414.862l-0.033,0.011c0.159,0.501,0.163,0.516,0,0l0,0
		c-2.798-8.821-53.458-168.467-53.489-168.564l0.082,0.023C66.414,132.655,146.07,19.754,260.798,7.62
		c-1.572-0.038-3.148-0.059-4.729-0.059C130.567,7.56,39.264,127.04,74.51,247.367l-0.082-0.023
		c0.031,0.098,50.69,159.744,53.489,168.564l0.033-0.011c19.777,56.121,68.742,96.984,125.63,87.126
		C208.508,499.025,170.425,463.874,153.152,414.862z"/>
	<path style="fill:#E8C842;" d="M403.982,225.6c-0.087-26.114-4.28-55.321-15.81-86.026
		C347.335,30.819,167.91,12.558,116.498,154.191c0,0-10.081,30.074-2.689,75.101s34.61,47.715,49.059,38.979
		c14.449-8.737,35.307-47.043,67.204-47.043s60.819,23.185,46.959,71.068c0,0-8.485,21.505-23.437,36.459
		c-14.953,14.953-19.406,26.882-7.729,53.092c9.463,21.239,0.059,44.464-22.087,48.218c-6.626,1.123-8.834,9.482-3.616,13.717
		c10.464,8.494,26.113,16.641,44.52,11.654c33.912-9.189,53.471-41.89,65.188-81.989c8.426-28.837,24.783-49.534,37.616-62.21
		c16.697-16.492,28.494-37.342,33.33-60.306C403.906,236.259,403.981,225.691,403.982,225.6z"/>
</g>
<g>
	<path style="fill:#DBBC3B;" d="M139.012,229.292c-7.392-45.027,2.689-75.101,2.689-75.101
		c23.608-65.038,74.211-96.356,125.991-100.681C207.85,48.555,143.94,78.595,116.499,154.191c0,0-10.081,30.074-2.689,75.101
		c7.131,43.437,32.712,47.471,47.481,39.858C151.601,264.056,142.759,252.115,139.012,229.292z"/>
	<path style="fill:#DBBC3B;" d="M245.366,443.779c-5.218-4.236-3.009-12.594,3.616-13.717c22.145-3.754,31.549-26.979,22.087-48.218
		c-11.678-26.21-7.225-38.138,7.729-53.092c14.953-14.953,23.437-36.459,23.437-36.459c16.775-57.95-30.02-77.45-58.103-69.485
		c25.572,5.957,44.676,28.806,32.901,69.485c0,0-8.485,21.505-23.437,36.459c-14.953,14.953-19.406,26.882-7.729,53.092
		c9.463,21.239,0.059,44.464-22.087,48.218c-6.626,1.123-8.834,9.482-3.616,13.717c13.533,10.985,28.962,16.179,45.769,11.284
		C257.869,452.654,250.893,448.266,245.366,443.779z"/>
</g>
<path d="M103.497,195.265c-0.603,35.544,7.88,84.587,43.453,84.587c44.68,0,45.641-59.341,93.708-50.353
	c40.097,7.494,45.988,56.586,4.097,96.784c-15.586,14.957-18.116,39.02-6.016,57.22c4.867,7.321,6.356,13.975,4.425,19.781
	c-6.687,20.11-37.218,31.495-53.151-0.948c-1.842-3.749-6.374-5.293-10.12-3.453c-3.748,1.841-5.293,6.371-3.453,10.119
	c9.071,18.465,23.643,28.842,40.297,28.84c18.541,0,35.2-13.019,40.775-29.788c3.474-10.451,1.394-21.527-6.182-32.923
	c-8.043-12.099-6.406-28.053,3.894-37.938c52.386-50.27,39.382-112.993-11.788-122.558c-56.697-10.592-63.242,50.096-96.487,50.096
	c-23.889,0-28.616-44.522-28.364-67.886c0.003-0.081,0.105-4.439,0.092-4.644c2.321-73.129,63.042-131.914,137.36-131.914
	c55.37,0,105.08,32.673,126.643,83.24c1.639,3.841,6.081,5.629,9.92,3.989c3.842-1.638,5.627-6.08,3.99-9.92
	c-23.944-56.149-79.114-92.429-140.553-92.429C172.347,45.165,104.19,112.383,103.497,195.265z"/>
<path d="M398.959,277.253c3.381,0,6.461-2.286,7.326-5.715c13.462-53.405,0.468-97.656-0.093-99.513
	c-1.203-3.994-5.408-6.256-9.409-5.056c-3.996,1.199-6.264,5.411-5.071,9.408c0.124,0.417,12.307,42.282-0.09,91.465
	C390.414,272.635,394.05,277.253,398.959,277.253z"/>
<path d="M255.964,464.221c0.076,0.001,0.174,0.002,0.295,0.002c4.795,0,44.354-1.482,62.401-49.215
	c1.477-3.905-0.493-8.269-4.398-9.746c-3.902-1.475-8.268,0.492-9.746,4.398c-12.173,32.198-38.882,44.103-61.913,37.714
	c-4.023-1.118-8.191,1.239-9.306,5.263c-1.116,4.024,1.24,8.191,5.264,9.306C243.982,463.45,249.837,464.215,255.964,464.221z"/>
<path d="M372.325,56.897c86.636,71.723,87.139,203.206,0.789,275.537c-21.8,16.6-25.262,37.2-25.81,43.355
	c-0.717,2.818-3.45,49.817-37.627,87.013c-20.198,21.982-46.025,34.087-72.727,34.087c-44.025,0-84.024-32.777-101.9-83.504
	c-0.053-0.15-0.111-0.299-0.172-0.444c-0.006-0.019-0.013-0.037-0.019-0.056c-0.297-0.848-0.56-1.712-0.826-2.577
	c-0.162-0.526-0.324-1.053-0.488-1.568l-15.387-48.487c-1.263-3.98-5.514-6.181-9.493-4.919c-3.98,1.263-6.182,5.513-4.919,9.493
	l15.39,48.495c0.15,0.474,0.296,0.948,0.442,1.423c0.31,1.009,0.621,2.016,0.965,3.006l0.124,0.399
	c0.101,0.325,0.224,0.641,0.367,0.946c34.593,96.888,136.057,123.282,199.778,53.934c22.203-24.164,36.788-57.164,41.157-93.056
	c0.65-2.04,0.04-20.156,20.428-35.605c0.097-0.073,0.191-0.147,0.283-0.226c94.016-78.599,92.962-221.346-0.712-298.898
	c-3.216-2.662-7.983-2.214-10.646,1.003C368.659,49.468,369.108,54.234,372.325,56.897z"/>
<path d="M93.067,331.179c1.021,3.219,3.997,5.275,7.204,5.275c5.116,0,8.753-4.981,7.208-9.85
	c-23.562-74.219-33.011-95.068-33.011-131.458C74.468,95.88,155.921,15.121,256.038,15.121c30.785,0,61.207,7.788,87.978,22.522
	c3.66,2.014,8.256,0.68,10.269-2.979c2.013-3.658,0.68-8.255-2.978-10.269C322.309,8.435,289.365,0,256.038,0
	C126.468,0,31.015,123.301,66.916,248.432C67.051,249.365,65.37,243.94,93.067,331.179z"/>
<g>
</g>
<g>
</g>
<g>
</g>
<g>
</g>
<g>
</g>
<g>
</g>
<g>
</g>
<g>
</g>
<g>
</g>
<g>
</g>
<g>
</g>
<g>
</g>
<g>
</g>
<g>
</g>
<g>
</g>
</svg>
