<?xml version="1.0" encoding="iso-8859-1"?>
<!-- Generator: Adobe Illustrator 19.0.0, SVG Export Plug-In . SVG Version: 6.00 Build 0)  -->
<svg version="1.1" id="Capa_1" xmlns="http://www.w3.org/2000/svg" xmlns:xlink="http://www.w3.org/1999/xlink" x="0px" y="0px"
	 viewBox="0 0 511.999 511.999" style="enable-background:new 0 0 511.999 511.999;" xml:space="preserve">
<path style="fill:#EAE9E8;" d="M47.253,71.421c-21.91,0-39.734,17.824-39.734,39.734v289.696c0,21.91,17.824,39.734,39.734,39.734
	h417.391c21.91,0,39.735-17.824,39.735-39.734V111.155c0-21.91-17.825-39.734-39.735-39.734H47.253z"/>
<path style="fill:#DBDBDB;" d="M57.508,400.851V111.155c0-21.91,17.824-39.734,39.734-39.734H47.253
	c-21.91,0-39.734,17.824-39.734,39.734v289.696c0,21.91,17.824,39.734,39.734,39.734h49.989
	C75.332,440.586,57.508,422.761,57.508,400.851z"/>
<path id="SVGCleanerId_0" style="fill:#FC8B75;" d="M239.516,344.205L239.516,344.205c-12.753-13.851-52.296-56.796-60.849-66.085
	c-33.689-36.588-6.761-95.737,42.949-94.237c12.875,0.402,25.327,5.21,35.119,13.4c21.977-18.385,54.654-18.065,75.616,2.022
	c10.693,10.249,16.842,24.053,17.313,38.868c0.473,14.838-4.806,29.024-14.862,39.946l-60.768,65.997
	C264.788,354.16,248.872,354.261,239.516,344.205z"/>
<g>
	<path id="SVGCleanerId_0_1_" style="fill:#FC8B75;" d="M239.516,344.205L239.516,344.205
		c-12.753-13.851-52.296-56.796-60.849-66.085c-33.689-36.588-6.761-95.737,42.949-94.237c12.875,0.402,25.327,5.21,35.119,13.4
		c21.977-18.385,54.654-18.065,75.616,2.022c10.693,10.249,16.842,24.053,17.313,38.868c0.473,14.838-4.806,29.024-14.862,39.946
		l-60.768,65.997C264.788,354.16,248.872,354.261,239.516,344.205z"/>
</g>
<path style="fill:#EA7363;" d="M264.511,331.207c-12.753-13.851-52.296-56.796-60.849-66.085
	c-22.966-24.943-17.755-60.365,3.633-79.915c-40.205,8.902-58.914,60.019-28.628,92.912c8.553,9.289,48.094,52.234,60.849,66.085
	c9.356,10.057,25.271,9.956,34.519-0.088l5.12-5.561C273.763,337.968,268.532,335.528,264.511,331.207z"/>
<path style="fill:#ED694A;" d="M198.526,259.836l51.463,55.891c3.633,3.946,9.862,3.946,13.495,0l51.463-55.891
	c10.74-11.664,10.17-30.075-1.271-41.04l0,0c-11.961-11.462-31.286-10.225-42.375,1.818c-1.219,0.977-5.417,8.002-14.565,8.002
	c-9.156,0-13.227-6.931-14.565-8.003c-5.471-5.941-13.269-9.494-21.395-9.748C194.706,210.072,181.212,241.031,198.526,259.836z"/>
<path style="fill:#D8553A;" d="M220.98,241.506c-8.219-8.926-9.486-20.587-5.772-30.293c-22.322,3.396-32.715,31.211-16.682,48.623
	l51.463,55.891c3.633,3.946,9.862,3.946,13.495,0l14.267-15.495C271.995,299.322,275.16,299.253,220.98,241.506z"/>
<path style="fill:#DBDBDB;" d="M256.737,197.283c32.526-27.21,82.191-10.969,91.541,30.063L504.171,107.07
	c-2.052-19.998-18.995-35.649-39.526-35.649H47.253c-20.532,0-37.474,15.652-39.525,35.65l157.253,121.325
	C173.743,186.258,224.128,170.008,256.737,197.283z"/>
<path style="fill:#CECECE;" d="M7.728,107.071l49.78,38.407v-34.322c0-21.91,17.824-39.734,39.734-39.734H47.253
	C26.993,71.421,9.894,86.732,7.728,107.071z"/>
<path style="fill:#DBDBDB;" d="M332.297,280.843l-58.261,63.274c-9.444,10.257-25.544,9.961-34.63-0.033
	c-2.574-2.794-48.432-52.599-58.885-63.951L9.21,412.305c4.93,16.342,20.116,28.281,38.044,28.281h417.391
	c17.928,0,33.115-11.938,38.045-28.28L332.297,280.843z"/>
<path style="fill:#CECECE;" d="M57.508,400.851v-25.81L9.209,412.304c5.051,16.708,20.495,28.281,38.045,28.281h49.982
	C75.328,440.582,57.508,422.759,57.508,400.851z"/>
<path d="M292.463,203.37c-18.73,0.585-28.088,14.043-29.171,14.871c-3.526,3.831-9.586,3.832-13.114-0.001
	c-1.124-0.859-10.393-14.284-29.177-14.87c-32.681-1.055-49.763,37.899-27.992,61.545c61.116,65.091,57.763,65.638,63.726,65.638
	c6.018,0,2.92-0.878,63.726-65.638C342.214,241.29,325.255,202.39,292.463,203.37z M309.43,254.756l-52.694,57.227l-52.693-57.227
	c-12.752-13.85-3.107-36.96,16.497-36.397c11.904,0.372,17.357,9.054,18.604,10.038c9.46,10.279,25.723,10.28,35.181,0.001
	c1.229-0.97,6.721-9.668,18.594-10.038c5.911-0.176,11.447,1.9,15.567,5.85C317.001,232.37,317.425,246.073,309.43,254.756z"/>
<path d="M511.264,103.585c-0.105-0.651-0.227-1.356-0.361-1.998c-4.049-19.804-20.446-35.29-41.518-37.427
	c-3.652-0.361-1.441-0.216-57.574-0.238c-4.142,0-7.498,3.356-7.498,7.498s3.356,7.498,7.498,7.498
	c56.466,0.016,53.772-0.059,55.978,0.156c13.846,1.344,25.168,11.497,28.254,24.797l-143.94,111.053
	c-15.34-36.04-60.779-50.866-95.367-27.048c-33.777-23.257-80.233-9.983-95.744,27.973L15.857,103.872
	C18.96,90.495,30.355,80.4,44.108,79.075c2.469-0.241-19.861-0.156,332.709-0.156c4.142,0,7.498-3.356,7.498-7.498
	s-3.356-7.498-7.498-7.498c-352.029,0-330.743-0.15-334.724,0.287C20.215,66.565,2.665,83.803,0.292,106.127
	c-0.514,4.832-0.171-13.142-0.271,294.724c0,4.728,0.707,9.293,2.006,13.603c0.002,0.005,0.002,0.011,0.004,0.017
	c0.003,0.009,0.006,0.018,0.009,0.027c0.188,0.622,0.579,1.777,0.651,1.982c0.221,0.629,0.489,1.333,0.705,1.869
	c0.223,0.557,0.439,1.074,0.685,1.624c6.513,14.647,20.367,25.659,37.607,27.774c3.992,0.472,1.531,0.339,65.191,0.339
	c4.142,0,7.498-3.356,7.498-7.498c0-4.142-3.356-7.498-7.498-7.498c-65.146,0-60.119,0.047-62.151-0.108
	c-11.395-0.916-21.554-7.945-26.507-18.153l161.442-124.558c35.756,38.831,51.578,56.056,54.367,59.044
	c12.263,13.18,33.254,13.21,45.526-0.116l53.606-58.217l72.904,56.249c3.276,2.527,7.986,1.923,10.518-1.357
	c2.529-3.278,1.923-7.987-1.357-10.518L343.221,279.8c11.014-13.75,15.919-31.362,13.257-49.306l140.405-108.326v276.189
	l-53.78-41.495c-3.275-2.528-7.986-1.924-10.518,1.357c-2.529,3.278-1.923,7.987,1.357,10.518l59.738,46.09
	c-5.372,11.071-16.778,18.262-29.037,18.262c-11.13,0-305.491,0-322.775,0c-4.142,0-7.498,3.356-7.498,7.498
	c0,4.142,3.356,7.498,7.498,7.498c346.665,0,323.104,0.03,324.94-0.055c19.487-0.908,36.39-13.743,42.586-32.097
	c4.364-12.91,1.756,3.206,2.483-304.778c0-1.702-0.095-3.381-0.272-5.036C511.426,104.427,511.28,103.688,511.264,103.585z
	 M15.018,398.353V122.166l141.811,109.413c-2.228,17.013,2.327,33.954,12.825,47.468L15.018,398.353z M329.288,273.042
	l-60.768,65.997c-3.023,3.284-7.319,5.168-11.784,5.168c-7.591,0-11.629-5.041-11.733-5.114
	c-0.137-0.151-58.834-63.896-58.966-64.039c-0.644-1.011-15.466-13.701-14.736-36.64c1.301-40.861,49.146-61.71,80.625-35.377
	c2.784,2.329,6.839,2.329,9.623,0c31.676-26.501,79.33-5.24,80.624,35.377C342.581,251.274,338.006,263.573,329.288,273.042z"/>
<g>
</g>
<g>
</g>
<g>
</g>
<g>
</g>
<g>
</g>
<g>
</g>
<g>
</g>
<g>
</g>
<g>
</g>
<g>
</g>
<g>
</g>
<g>
</g>
<g>
</g>
<g>
</g>
<g>
</g>
</svg>
