<?xml version="1.0" encoding="iso-8859-1"?>
<!-- Generator: Adobe Illustrator 19.0.0, SVG Export Plug-In . SVG Version: 6.00 Build 0)  -->
<svg version="1.1" id="Capa_1" xmlns="http://www.w3.org/2000/svg" xmlns:xlink="http://www.w3.org/1999/xlink" x="0px" y="0px"
	 viewBox="0 0 512 512" style="enable-background:new 0 0 512 512;" xml:space="preserve">
<polygon style="fill:#C0C2D0;" points="329.677,329.195 337.109,329.195 352.317,329.195 504.335,329.195 504.396,329.195 
	504.396,7.72 7.604,7.72 7.604,329.195 7.655,329.195 182.292,329.195 "/>
<polygon style="fill:#D0D7DD;" points="327.24,168.475 504.366,329.223 7.628,329.223 184.754,168.475 "/>
<polygon style="fill:#E6EBEF;" points="255.997,233.169 7.601,7.719 504.393,7.719 "/>
<polygon style="fill:#008EE2;" points="291.467,261.357 329.679,261.357 329.679,378.724 386.998,378.724 255.984,504.28 
	124.969,378.724 182.287,378.724 182.287,261.357 220.501,261.357 "/>
<path d="M504.396,0.116H7.604C3.405,0.116,0,3.52,0,7.72v321.475c0,4.199,3.405,7.604,7.604,7.604h75.534
	c4.199,0,7.604-3.405,7.604-7.604l0,0c0-4.199-3.405-7.604-7.604-7.604H27.353L184.736,178.76l66.15,60.04
	c1.45,1.316,3.28,1.973,5.111,1.973c1.831,0,3.661-0.658,5.111-1.973l66.15-60.04l157.384,142.832H337.283v-60.235
	c0-4.199-3.405-7.604-7.604-7.604H182.288c-4.199,0-7.604,3.405-7.604,7.604v60.235h-56.06c-4.199,0-7.604,3.405-7.604,7.604l0,0
	c0,4.199,3.405,7.604,7.604,7.604h56.06v34.321h-49.498c-2.515,0-4.96,1.125-6.409,3.181c-2.237,3.174-1.738,7.356,0.93,9.913
	l131.015,125.556c1.47,1.409,3.366,2.114,5.261,2.114s3.791-0.705,5.261-2.114L392.26,384.215c2.667-2.557,3.166-6.738,0.93-9.913
	c-1.449-2.057-3.893-3.181-6.409-3.181h-49.497V336.8h167.112c4.199,0,7.604-3.405,7.604-7.604V7.72
	C512,3.52,508.595,0.116,504.396,0.116z M368.073,386.328l-112.09,107.421L143.893,386.328h38.395c4.2,0,7.604-3.405,7.604-7.604
	V268.961h132.183v109.764c0,4.199,3.404,7.604,7.604,7.604h38.394V386.328z M15.208,312.077V24.892l158.214,143.599L15.208,312.077z
	 M415.78,77.877L255.997,222.899L27.295,15.324H484.7l-43.265,39.269c-3.109,2.823-3.343,7.631-0.52,10.741l0,0
	c2.823,3.11,7.631,3.342,10.741,0.52l45.136-40.967v287.194l-158.22-143.59l87.429-79.353c3.109-2.823,3.343-7.631,0.52-10.741
	v-0.001C423.698,75.286,418.889,75.054,415.78,77.877z"/>
<g>
</g>
<g>
</g>
<g>
</g>
<g>
</g>
<g>
</g>
<g>
</g>
<g>
</g>
<g>
</g>
<g>
</g>
<g>
</g>
<g>
</g>
<g>
</g>
<g>
</g>
<g>
</g>
<g>
</g>
</svg>
