<?xml version="1.0" encoding="iso-8859-1"?>
<!-- Generator: Adobe Illustrator 19.0.0, SVG Export Plug-In . SVG Version: 6.00 Build 0)  -->
<svg version="1.1" id="Layer_1" xmlns="http://www.w3.org/2000/svg" xmlns:xlink="http://www.w3.org/1999/xlink" x="0px" y="0px"
	 viewBox="0 0 512 512" style="enable-background:new 0 0 512 512;" xml:space="preserve">
<circle style="fill:#F7B239;" cx="262.297" cy="256.003" r="240.784"/>
<g>
	<path style="fill:#E09B2D;" d="M135.789,382.504c-86.618-86.617-93.443-222.807-20.482-317.242
		c-8.082,6.244-15.858,13.069-23.272,20.482c-94.03,94.03-94.03,246.483,0,340.513s246.483,94.03,340.513,0
		c7.412-7.412,14.238-15.19,20.482-23.272C358.598,475.948,222.406,469.122,135.789,382.504z"/>
	<path style="fill:#E09B2D;" d="M283.866,412.041c-1.298,0-2.615-0.284-3.864-0.885c-12.854-6.184-26.439-6.184-39.293,0
		c-4.441,2.137-9.774,0.269-11.911-4.172c-2.137-4.441-0.269-9.774,4.172-11.911c17.916-8.621,36.856-8.621,54.77,0
		c4.441,2.137,6.309,7.47,4.172,11.911C290.377,410.177,287.187,412.041,283.866,412.041z"/>
</g>
<path style="fill:#2BA5F7;" d="M25.527,204.255L25.527,204.255c-22.184-22.184-22.184-58.15,0-80.333l40.166-40.166l40.166,40.166
	c22.183,22.183,22.183,58.15,0,80.333l0,0C83.677,226.438,47.71,226.438,25.527,204.255z"/>
<path style="fill:#2197D8;" d="M54.085,204.255L54.085,204.255c-22.183-22.183-22.183-58.15,0-80.333l25.888-25.888L65.694,83.755
	l-40.166,40.166c-22.183,22.184-22.183,58.15,0,80.333l0,0c14.755,14.755,35.605,19.683,54.446,14.809
	C70.488,216.611,61.512,211.683,54.085,204.255z"/>
<path d="M262.291,6.292c-69.255,0-135.154,28.731-182.32,79.121l-7.968-7.968c-3.485-3.485-9.136-3.485-12.62,0l-40.166,40.166
	c-24.914,24.914-25.6,65.01-2.076,90.77c-3.014,15.625-4.557,31.618-4.557,47.619c0,137.69,112.018,249.708,249.708,249.708
	S512,393.69,512,256S399.981,6.292,262.291,6.292z M31.838,130.232l33.856-33.856l33.856,33.856
	c18.668,18.668,18.668,49.044,0,67.712c-18.668,18.667-49.043,18.668-67.712,0l0,0c-9.044-9.044-14.023-21.067-14.023-33.856
	C17.814,151.3,22.795,139.277,31.838,130.232z M262.291,487.859C134.445,487.859,30.432,383.848,30.432,256
	c0-11.684,0.891-23.36,2.625-34.868c10.074,5.759,21.351,8.653,32.636,8.653c16.832,0,33.663-6.407,46.478-19.221
	c12.415-12.415,19.252-28.92,19.252-46.477s-6.837-34.062-19.252-46.478L92.598,98.038c43.823-47.057,105.192-73.897,169.693-73.897
	c127.848,0,231.859,104.011,231.859,231.859S390.139,487.859,262.291,487.859z"/>
<path d="M336.549,298.56c-4.716,1.433-7.379,6.417-5.946,11.133c1.433,4.717,6.422,7.378,11.133,5.946
	c23.115-7.022,47.589-1.517,65.471,14.724c1.71,1.553,3.857,2.318,5.997,2.318c2.429,0,4.848-0.985,6.61-2.925
	c3.314-3.648,3.041-9.293-0.607-12.607C396.632,296.646,365.729,289.699,336.549,298.56z"/>
<path d="M193.981,309.693c1.433-4.716-1.229-9.7-5.946-11.133c-29.18-8.864-60.082-1.916-82.659,18.589
	c-3.648,3.314-3.92,8.958-0.607,12.607c1.761,1.94,4.181,2.925,6.61,2.925c2.139,0,4.289-0.766,5.997-2.318
	c17.881-16.24,42.356-21.745,65.472-14.724C187.562,317.071,192.548,314.41,193.981,309.693z"/>
<path d="M262.293,352.354C262.291,352.354,262.294,352.354,262.293,352.354c-29.167,0-56.509,13.17-76.982,37.081
	c-3.206,3.744-2.77,9.378,0.975,12.584c3.744,3.206,9.377,2.77,12.584-0.975c17.029-19.887,39.553-30.841,63.425-30.841
	c23.87,0,46.394,10.953,63.424,30.841c1.765,2.061,4.266,3.12,6.783,3.12c2.054,0,4.118-0.704,5.801-2.145
	c3.744-3.206,4.18-8.839,0.975-12.584C318.799,365.523,291.46,352.354,262.293,352.354z"/>
<g>
</g>
<g>
</g>
<g>
</g>
<g>
</g>
<g>
</g>
<g>
</g>
<g>
</g>
<g>
</g>
<g>
</g>
<g>
</g>
<g>
</g>
<g>
</g>
<g>
</g>
<g>
</g>
<g>
</g>
</svg>
