<?xml version="1.0" encoding="iso-8859-1"?>
<!-- Generator: Adobe Illustrator 19.0.0, SVG Export Plug-In . SVG Version: 6.00 Build 0)  -->
<svg version="1.1" id="Layer_1" xmlns="http://www.w3.org/2000/svg" xmlns:xlink="http://www.w3.org/1999/xlink" x="0px" y="0px"
	 viewBox="0 0 512 512" style="enable-background:new 0 0 512 512;" xml:space="preserve">
<circle style="fill:#F7B239;" cx="256.004" cy="256.004" r="246.855"/>
<path style="fill:#E09B2D;" d="M126.306,385.694c-88.801-88.802-95.798-228.426-20.998-325.241
	c-8.286,6.401-16.258,13.399-23.858,20.999c-96.401,96.401-96.401,252.698,0,349.099s252.698,96.401,349.099,0
	c7.599-7.599,14.597-15.573,20.999-23.858C354.733,481.492,215.108,474.495,126.306,385.694z"/>
<path style="fill:#FFFFFF;" d="M332.852,355.557H179.148c-31.833,0-57.64-25.805-57.64-57.64l0,0c0-31.833,25.805-57.64,57.64-57.64
	h153.705c31.833,0,57.64,25.805,57.64,57.64l0,0C390.492,329.751,364.685,355.557,332.852,355.557z"/>
<path style="fill:#CCCCCC;" d="M332.852,240.279H179.148c-31.833,0-57.64,25.805-57.64,57.64l0,0c0,5.392,0.756,10.604,2.141,15.553
	c6.79-24.274,29.057-42.085,55.499-42.085h153.705c26.442,0,48.709,17.811,55.499,42.085c1.385-4.949,2.141-10.162,2.141-15.553l0,0
	C390.492,266.085,364.686,240.279,332.852,240.279z"/>
<g>
	<circle style="fill:#FFFFFF;" cx="146.21" cy="183.137" r="23.536"/>
	<circle style="fill:#FFFFFF;" cx="365.384" cy="183.137" r="23.536"/>
</g>
<path d="M255.999,0C114.841,0,0,114.841,0,256.001S114.841,512,255.999,512C397.159,512,512,397.159,512,256.001
	C512,114.841,397.16,0,255.999,0z M255.999,493.701c-131.068,0-237.7-106.631-237.7-237.7s106.632-237.702,237.7-237.702
	c131.069,0,237.702,106.632,237.702,237.702S387.068,493.701,255.999,493.701z"/>
<path d="M332.853,231.13H179.148c-36.828,0-66.789,29.962-66.789,66.789s29.962,66.789,66.789,66.789h153.705
	c36.828,0,66.788-29.962,66.788-66.789S369.679,231.13,332.853,231.13z M380.464,288.768h-20.837l0.134-31.165
	C370.341,264.688,377.981,275.821,380.464,288.768z M341.494,250.214l-0.166,38.554h-23.739l0.17-39.341h15.094
	C335.803,249.429,338.688,249.708,341.494,250.214z M246.89,307.067l0.17,39.341h-33.603l-0.17-39.341L246.89,307.067
	L246.89,307.067z M213.208,288.768l-0.17-39.341h33.603l0.17,39.341H213.208z M265.189,307.067h34.022l-0.17,39.341H265.36
	L265.189,307.067z M265.11,288.768l-0.17-39.341h34.518l-0.17,39.341H265.11z M194.739,249.429l0.17,39.341H171.17l-0.167-38.643
	c2.65-0.45,5.369-0.698,8.146-0.698H194.739z M152.734,257.285l0.135,31.483h-21.334
	C134.057,275.622,141.901,264.351,152.734,257.285z M131.535,307.067h21.414l0.137,31.709
	C142.072,331.726,134.085,320.356,131.535,307.067z M171.415,345.784l-0.167-38.717h23.739l0.17,39.341h-16.008
	C176.515,346.408,173.935,346.19,171.415,345.784z M317.34,346.408l0.17-39.341h23.739l-0.167,38.628
	c-2.677,0.46-5.424,0.712-8.23,0.712H317.34z M359.412,338.456l0.135-31.389h20.916C377.954,320.155,370.17,331.384,359.412,338.456
	z"/>
<path d="M146.723,218.235c18.666,0,33.852-15.186,33.852-33.852s-15.186-33.852-33.852-33.852s-33.852,15.186-33.852,33.852
	S128.058,218.235,146.723,218.235z M146.723,168.83c8.576,0,15.553,6.977,15.553,15.553s-6.977,15.553-15.553,15.553
	s-15.553-6.977-15.553-15.553S138.148,168.83,146.723,168.83z"/>
<path d="M365.275,218.235c18.666,0,33.852-15.186,33.852-33.852s-15.186-33.852-33.852-33.852s-33.852,15.186-33.852,33.852
	S346.609,218.235,365.275,218.235z M365.275,168.83c8.576,0,15.553,6.977,15.553,15.553s-6.977,15.553-15.553,15.553
	s-15.553-6.977-15.553-15.553S356.699,168.83,365.275,168.83z"/>
<g>
</g>
<g>
</g>
<g>
</g>
<g>
</g>
<g>
</g>
<g>
</g>
<g>
</g>
<g>
</g>
<g>
</g>
<g>
</g>
<g>
</g>
<g>
</g>
<g>
</g>
<g>
</g>
<g>
</g>
</svg>
