<?xml version="1.0" encoding="iso-8859-1"?>
<!-- Generator: Adobe Illustrator 19.0.0, SVG Export Plug-In . SVG Version: 6.00 Build 0)  -->
<svg version="1.1" id="Capa_1" xmlns="http://www.w3.org/2000/svg" xmlns:xlink="http://www.w3.org/1999/xlink" x="0px" y="0px"
	 viewBox="0 0 511.999 511.999" style="enable-background:new 0 0 511.999 511.999;" xml:space="preserve">
<circle style="fill:#70BBEF;" cx="256.494" cy="75.284" r="67.786"/>
<path style="fill:#57ADDD;" d="M213.712,75.286c0-33.164,23.823-60.748,55.285-66.616c-41.947-7.824-80.287,24.368-80.287,66.616
	c0,42.242,38.33,74.44,80.287,66.617C237.535,136.035,213.712,108.451,213.712,75.286z"/>
<path style="fill:#EAE9E8;" d="M431.259,295.525c-11.995-66.896-61.577-120.918-126.038-139.338
	c-0.032,0.008-0.067,0.011-0.099,0.018c-31.662-9.028-65.58-9.03-97.249,0c-0.033-0.008-0.067-0.01-0.099-0.018
	C120.162,181.223,65.509,269.163,81.735,358.406c11.994,66.898,61.577,120.922,126.039,139.342c0.032-0.008,0.067-0.011,0.099-0.019
	c31.664,9.028,65.58,9.03,97.249,0c0.032,0.008,0.067,0.011,0.099,0.019C390.366,473.419,447.486,387.789,431.259,295.525z
	 M256.56,470.015c-78.882,0-143.057-64.169-143.071-143.047c0.013-78.879,64.19-143.047,143.071-143.047
	c78.881,0,143.057,64.169,143.07,143.047C399.617,405.846,335.44,470.015,256.56,470.015z"/>
<g>
	<path style="fill:#DBDBDB;" d="M313.701,490.399c-65.085,16.084-134.971-6.12-178.651-58.189
		c-58.466-69.349-54.795-172.824,8.757-238.121c0.032-0.009,0.063-0.024,0.095-0.034c9.387-9.633,19.862-18.124,31.133-25.363
		c-17.294,8.789-33.155,20.366-46.749,34.318c-0.032,0.01-0.063,0.024-0.095,0.033c-63.552,65.297-67.223,168.772-8.757,238.121
		c43.681,52.069,113.567,74.274,178.651,58.189c0.024-0.023,0.052-0.042,0.077-0.065c18.906-4.684,36.91-12.522,53.232-23.008
		c-11.942,6.069-24.562,10.821-37.616,14.055C313.754,490.357,313.725,490.376,313.701,490.399z"/>
	<path style="fill:#DBDBDB;" d="M256.497,133.573V44.234l-6.214,12.897c-12.334,25.598-44.812,33.818-67.839,17.172l0,0
		c-2.876-2.079-6.613,1.087-5.035,4.266l25.328,55.003h53.76V133.573z"/>
</g>
<path style="fill:#CECECE;" d="M182.444,74.303L182.444,74.303c-2.876-2.079-6.613,1.087-5.035,4.266l25.328,55.003h35.335
	l-23.464-50.956C203.692,83.939,192.218,81.369,182.444,74.303z"/>
<path style="fill:#EAE9E8;" d="M256.497,133.573V44.234l6.214,12.897c12.334,25.598,44.812,33.818,67.839,17.172l0,0
	c2.876-2.079,6.613,1.087,5.035,4.266l-25.328,55.003h-53.76V133.573z"/>
<path style="fill:#CECECE;" d="M302.063,156.574h-91.13c-7.456,0-13.501-6.044-13.501-13.501s6.044-13.501,13.501-13.501h91.13
	c7.456,0,13.501,6.044,13.501,13.501S309.519,156.574,302.063,156.574z"/>
<path style="fill:#C1BEBC;" d="M224.218,143.073c0-7.456,6.044-13.501,13.501-13.501h-26.787c-7.456,0-13.501,6.044-13.501,13.501
	s6.044,13.501,13.501,13.501h26.787C230.262,156.574,224.218,150.53,224.218,143.073z"/>
<path d="M316.371,464.884c3.793-1.665,5.518-6.089,3.853-9.883c-1.665-3.794-6.091-5.517-9.883-3.853
	c-88.93,39.042-189.873-26.31-189.873-124.205c0-74.753,60.817-135.571,135.571-135.571s135.571,60.817,135.571,135.571
	c0,42.21-19.229,81.304-52.757,107.254c-3.275,2.535-3.875,7.246-1.34,10.522c2.535,3.275,7.245,3.875,10.522,1.34
	c37.226-28.813,58.575-72.229,58.575-119.116c0-83.026-67.546-150.572-150.572-150.572s-150.572,67.546-150.572,150.572
	C105.468,435.461,217.414,508.332,316.371,464.884z"/>
<path d="M207.648,163.885c1.74,0.237,94.693,0.269,96.657-0.001c32.696,9.702,61.456,28.857,83.262,55.478
	c2.625,3.204,7.35,3.675,10.556,1.049c3.204-2.625,3.674-7.35,1.049-10.556c-21.169-25.844-48.376-45.219-79.281-56.592
	c4.103-7.36,3.449-16.548-1.972-23.303l23.865-48.055c3.813-7.68-2.335-16.518-10.816-15.692C326.47,28.966,294.687,0,256.247,0
	c-38.462,0-70.259,28.998-74.728,66.276c-8.624-1.272-15.287,7.695-11.348,15.629l23.864,48.054
	c-5.376,6.701-6.115,15.889-1.96,23.323c-69.992,25.934-121.154,93.222-121.154,173.661c0,28.834,6.492,56.492,19.297,82.21
	c1.312,2.635,3.964,4.159,6.72,4.159c5.503,0,9.208-5.824,6.708-10.846C56.854,308.491,106.295,194.005,207.648,163.885z
	 M302.945,148.895c-1.246,0.3-92.914,0.246-93.938,0c-6.903-1.691-5.635-11.822,1.403-11.822c11.029,0,80.029,0,91.13,0
	C308.586,137.072,309.84,147.223,302.945,148.895z M305.087,122.071c-4.957,0-32.788,0-41.609,0V72.527
	c14.264,16.2,37.886,22.594,59.106,14.313L305.087,122.071z M256.247,15.001c32.511,0,59.092,25.869,60.247,58.102
	c-18.119,6.696-38.905-1.289-47.546-19.229l-6.214-12.897c-2.369-4.931-9.106-5.741-12.579-1.466
	c-5.172,6.316-7.777,29.63-34.236,35.242c-6.72,1.308-13.582,0.77-19.923-1.467C197.053,40.968,223.675,15.001,256.247,15.001z
	 M189.37,86.84c21.516,8.4,45.031,1.666,59.106-14.318v49.549c-5.725,0-31.956,0-41.609,0L189.37,86.84z"/>
<path d="M409.282,237.145c-3.656,1.947-5.041,6.489-3.095,10.147c59.46,111.66-21.207,249.708-150.21,249.708
	c-52.927,0-101.95-24.103-134.5-66.13c-2.538-3.275-7.249-3.872-10.523-1.337c-3.274,2.536-3.873,7.247-1.337,10.523
	c35.413,45.722,88.759,71.944,146.361,71.944c140.558,0,228.068-150.412,163.452-271.76
	C417.481,236.583,412.94,235.196,409.282,237.145z"/>
<g>
</g>
<g>
</g>
<g>
</g>
<g>
</g>
<g>
</g>
<g>
</g>
<g>
</g>
<g>
</g>
<g>
</g>
<g>
</g>
<g>
</g>
<g>
</g>
<g>
</g>
<g>
</g>
<g>
</g>
</svg>
