<?xml version="1.0" encoding="iso-8859-1"?>
<!-- Generator: Adobe Illustrator 19.0.0, SVG Export Plug-In . SVG Version: 6.00 Build 0)  -->
<svg version="1.1" id="Capa_1" xmlns="http://www.w3.org/2000/svg" xmlns:xlink="http://www.w3.org/1999/xlink" x="0px" y="0px"
	 viewBox="0 0 512 512" style="enable-background:new 0 0 512 512;" xml:space="preserve">
<ellipse style="fill:#DBDBDB;" cx="120.766" cy="256.003" rx="113.096" ry="170.019"/>
<path style="fill:#CECECE;" d="M133.267,383.844c-76.887,0-129.121-111.126-108.633-217.421
	c-47.671,115.379,9.356,259.596,96.132,259.596c51.517,0,94.982-51.788,108.634-122.62
	C209.449,351.686,173.859,383.844,133.267,383.844z"/>
<ellipse style="fill:#EAE9E8;" cx="105.205" cy="256.003" rx="97.535" ry="146.627"/>
<path style="fill:#DBDBDB;" d="M105.204,402.624c19.154,0,37.016-8.307,52.087-22.647C75.488,406.59,5.614,296.508,22.742,177.687
	C-17.776,273.913,28.019,402.624,105.204,402.624z"/>
<path style="fill:#656566;" d="M85.473,300.915c-33.04,19.076-73.962-3.064-77.532-39.832l0,0
	c-4.272-44.03,45.221-73.362,81.802-47.228l0,0C119.698,235.256,118.7,281.731,85.473,300.915z"/>
<path style="fill:#4F4F51;" d="M29.593,248.581L29.593,248.581c-1.571-16.19,4.587-31.837,15.595-42.41
	c-24.37,7.016-39.628,30.373-37.247,54.911l0,0c4.082,42.071,55.711,62.866,87.697,32.223
	C73.251,299.797,32.701,280.616,29.593,248.581z"/>
<ellipse style="fill:#DBDBDB;" cx="391.58" cy="256.003" rx="113.096" ry="170.019"/>
<path style="fill:#CECECE;" d="M404.076,383.844c-76.887,0-129.121-111.126-108.633-217.421
	c-47.671,115.379,9.356,259.596,96.132,259.596c51.517,0,94.982-51.788,108.634-122.62
	C480.258,351.686,444.667,383.844,404.076,383.844z"/>
<ellipse style="fill:#EAE9E8;" cx="376.009" cy="256.003" rx="97.535" ry="146.627"/>
<path style="fill:#DBDBDB;" d="M376.012,402.624c19.154,0,37.016-8.307,52.086-22.647c-82.492,26.838-151.546-84.375-134.549-202.29
	C252.441,275.319,299.629,402.624,376.012,402.624z"/>
<path style="fill:#656566;" d="M356.282,300.915c-32.975,19.038-73.955-2.988-77.532-39.832l0,0
	c-4.272-44.03,45.221-73.362,81.802-47.228l0,0C390.507,235.256,389.509,281.731,356.282,300.915z"/>
<path style="fill:#4F4F51;" d="M300.402,248.581L300.402,248.581c-1.571-16.19,4.587-31.837,15.595-42.41
	c-24.37,7.016-39.628,30.373-37.247,54.911l0,0c4.089,42.142,55.77,62.809,87.697,32.223
	C344.06,299.797,303.51,280.616,300.402,248.581z"/>
<path d="M34.386,380.377c47.09,70.794,125.16,71.06,172.428,0c49.754-74.801,44.788-196.726-10.166-262.373
	c-2.658-3.176-7.389-3.595-10.566-0.937c-3.176,2.659-3.596,7.389-0.937,10.566c26.085,31.161,41.046,77.949,41.046,128.368
	c0,114.997-76.807,195.7-146.978,149.511C147.72,430.545,210.068,354.285,210.068,256c0-97.972-62.168-174.61-130.854-149.511
	c25.651-16.884,55.094-17.532,81.379-0.822c3.492,2.222,8.13,1.191,10.354-2.305c2.223-3.496,1.19-8.131-2.306-10.354
	C90.523,43.339-2.141,126.219,0.038,259.802C0.679,305.259,12.816,347.949,34.386,380.377z M105.037,116.875
	c23.459,0,45.733,14.064,62.719,39.599c58.434,87.845,16.521,238.649-62.719,238.649c-45.591,0-75.593-49.866-85.399-95.024
	c30.564,27.543,78.614,15.766,93.757-19.509c0.014-0.276,15.046-28.832-5.14-58.244v-0.001
	c-20.175-29.357-61.938-34.462-88.62-10.433C29.538,166.292,59.71,116.875,105.037,116.875z M22.706,231.028
	c0.105-0.088,13.885-21.626,39.931-19.258c28.9,2.064,47.822,30.958,38.848,58.162c-9.62,27.395-39.71,37.672-63.039,25.187
	C15.258,282.714,7.864,252.825,22.706,231.028z"/>
<path d="M305.195,131.622c-45.8,68.854-45.879,179.78,0,248.754c36.117,54.296,87.583,64.374,128.449,42.038
	c3.635-1.986,4.971-6.543,2.984-10.179c-1.985-3.635-6.541-4.971-10.179-2.984c-25.364,13.863-52.767,11.833-76.429-3.742
	c68.506,25.035,130.855-51.226,130.855-149.511c0-98.12-62.31-174.558-130.854-149.511C420.365,60.187,497,141.176,497,255.999
	c0,52.627-16.822,102.296-44.999,132.868c-2.808,3.046-2.614,7.791,0.432,10.599c3.045,2.809,7.791,2.615,10.599-0.432
	c58.982-63.994,65.707-190.563,14.591-267.411C430.533,60.831,352.463,60.563,305.195,131.622z M465.875,256
	c0,37.703-9.698,73.048-27.311,99.525c-16.985,25.535-39.26,39.599-62.719,39.599c-45.678,0-75.633-50.015-85.406-95.056
	c37.841,34.175,99.147,7.54,99.147-44.068c0-4.142-3.357-7.5-7.5-7.5c-4.143,0-7.5,3.358-7.5,7.5
	c0,24.473-19.911,44.384-44.385,44.384c-29.701,0-52.851-29.417-41.307-60.586c10.803-27.403,38.662-28.066,38.763-28.105
	c13.809-0.778,27.16,4.854,36.289,15.546c2.689,3.149,7.423,3.525,10.574,0.834c3.15-2.689,3.524-7.423,0.835-10.575
	c-21.689-25.408-60.023-28.058-84.922-5.529c4.494-20.734,12.185-39.694,22.695-55.495C370.907,69.609,465.875,135.4,465.875,256z"
	/>
<g>
</g>
<g>
</g>
<g>
</g>
<g>
</g>
<g>
</g>
<g>
</g>
<g>
</g>
<g>
</g>
<g>
</g>
<g>
</g>
<g>
</g>
<g>
</g>
<g>
</g>
<g>
</g>
<g>
</g>
</svg>
