<?xml version="1.0" encoding="iso-8859-1"?>
<!-- Generator: Adobe Illustrator 19.0.0, SVG Export Plug-In . SVG Version: 6.00 Build 0)  -->
<svg version="1.1" id="Capa_1" xmlns="http://www.w3.org/2000/svg" xmlns:xlink="http://www.w3.org/1999/xlink" x="0px" y="0px"
	 viewBox="0 0 512 512" style="enable-background:new 0 0 512 512;" xml:space="preserve">
<path style="fill:#57ADDD;" d="M240.513,482.582l-6.043-149.004c0,0-0.816-23.817-15.332-30.905
	c-28.143-13.743-62.168-20.972-62.168-20.972v0.003c-0.002,0-0.012-0.003-0.012-0.003c-0.408,7.046,1.219,11.582-2.405,16.587
	c-3.469,4.792-10.598,13.565-20.792,20.8c-2.119,1.504-3.591,2.274-6.072,2.317c-2.827,0.041-3.255-0.743-5.473-2.317
	c-10.195-7.235-17.324-16.008-20.792-20.8c-3.624-5.005-1.998-9.534-2.405-16.587c0,0-0.01,0.002-0.012,0.003v-0.003
	c0,0-35.025,7.229-63.168,20.972c-14.516,7.088-15.332,30.905-15.332,30.905l-6.043,149.004c-0.485,11.95,9.136,21.9,21.175,21.9
	c24.574,0,167.331,0,183.702,0C231.377,504.481,240.997,494.532,240.513,482.582z"/>
<path style="fill:#42A2CC;" d="M39.462,482.582l6.043-160.004c0,0,0.709-20.44,12.361-29.081c-7.331,2.634-14.9,5.695-22.028,9.176
	c-14.516,7.088-15.332,30.905-15.332,30.905l-6.043,149.004c-0.485,11.95,9.136,21.9,21.175,21.9c4.651,0,13.54,0,25,0
	C48.598,504.481,38.977,494.532,39.462,482.582z"/>
<path style="fill:#E8C842;" d="M97.961,266.592c0.65,22.468-1.596,26.165,2.432,31.757c3.462,4.804,10.528,13.537,20.615,20.743
	c4.313,3.081,10.145,3.081,14.458,0c10.089-7.207,17.156-15.94,20.617-20.745c4.035-5.6,1.792-9.658,2.43-31.769
	C139.121,273.475,117.365,273.482,97.961,266.592z"/>
<path style="fill:#DBBC3B;" d="M125.393,298.347c-3.708-5.147-2.101-8.702-2.329-26.756c-8.548-0.479-17.03-2.134-25.103-5.001
	c0.65,22.468-1.596,26.165,2.432,31.757c3.462,4.804,10.528,13.537,20.615,20.743c4.313,3.081,10.145,3.081,14.458,0
	c1.862-1.33,3.619-2.712,5.271-4.112C133.437,308.794,128.216,302.265,125.393,298.347z"/>
<path style="fill:#F96989;" d="M503.216,482.582l-6.043-149.004c0,0-0.816-23.817-15.332-30.905
	c-28.143-13.743-62.168-20.972-62.168-20.972v0.003c-0.002,0-0.012-0.003-0.012-0.003c-0.408,7.046,1.219,11.582-2.405,16.587
	c-3.469,4.792-10.598,13.565-20.792,20.8c-2.119,1.504-3.591,2.274-6.072,2.317c-2.827,0.041-3.255-0.743-5.473-2.317
	c-10.195-7.235-17.324-16.008-20.792-20.8c-3.624-5.005-1.998-9.534-2.405-16.587c0,0-0.01,0.002-0.012,0.003v-0.003
	c0,0-35.025,7.229-63.168,20.972c-14.516,7.088-15.332,30.905-15.332,30.905l-6.043,149.004c-0.485,11.95,9.136,21.9,21.175,21.9
	c24.574,0,167.331,0,183.702,0C494.08,504.481,503.7,494.532,503.216,482.582z"/>
<path style="fill:#ED5A81;" d="M303.164,482.582l6.043-162.004c0,0,0.579-16.756,9.333-26.341c-6.692,2.463-13.527,5.275-20,8.436
	c-14.516,7.088-15.332,30.905-15.332,30.905l-6.043,149.004c-0.485,11.95,9.136,21.9,21.175,21.9c4.784,0,14.061,0,26,0
	C312.3,504.481,302.679,494.532,303.164,482.582z"/>
<path style="fill:#E8C842;" d="M360.665,266.592c0.65,22.468-1.596,26.165,2.432,31.757c3.462,4.804,10.528,13.537,20.615,20.743
	c4.313,3.081,10.145,3.081,14.458,0c10.089-7.207,17.156-15.94,20.617-20.745c4.035-5.6,1.792-9.658,2.43-31.769
	C401.823,273.475,380.067,273.482,360.665,266.592z"/>
<path style="fill:#DBBC3B;" d="M388.096,298.347c-3.708-5.147-2.101-8.702-2.329-26.756c-8.548-0.479-17.03-2.134-25.103-5.001
	c0.65,22.468-1.596,26.165,2.432,31.757c3.462,4.804,10.528,13.537,20.615,20.743c4.313,3.081,10.145,3.081,14.458,0
	c1.862-1.33,3.619-2.712,5.271-4.112C396.14,308.794,390.918,302.265,388.096,298.347z"/>
<path style="fill:#CC9D72;" d="M253.287,247.274c-40.897,1.366-73.548,33.581-73.548,73.055c0,7.098-0.007,19.44-0.016,25.016
	l152.551-0.246c0.002-9.707,0.004-23.76,0.004-24.77C332.278,278.77,296.237,245.764,253.287,247.274z"/>
<path style="fill:#C19067;" d="M224.775,320.33c0-34.762,20.616-63.881,48.274-71.275c-6.338-1.388-12.963-2.02-19.763-1.781
	c-40.897,1.366-73.548,33.581-73.548,73.055c0,7.098-0.007,19.44-0.016,25.016l45.039-0.073
	C224.769,339.665,224.775,327.399,224.775,320.33z"/>
<path style="fill:#F4D44E;" d="M318.496,329.826l-1.117-1.344c-8.574-10.314-6.147-21.086-6.565-24.595
	c0-3.677-2.409-4.634-5.959-3.622c-0.007,0.002-0.013,0.003-0.019,0.005c-28.497,9.351-49.115-0.351-49.115-0.351l2.62,3.613
	c2.109,2.908,1.135,7.636-4.899,8.012c-0.365-0.059-0.169,0.05-2.345-0.079l0,0c-5.321-0.316-19.365-2.067-34.396-11.462
	l-0.001,0.006c-8.216-4.998-12.234-2.233-14.091,0.543c-0.979,1.463-1.451,3.206-1.451,4.966
	c-0.308,2.369,1.767,12.945-6.566,22.966l-1.116,1.343c-0.037,2.42-0.031,1.516-0.031,30.31c0,32.88,27.679,59.864,62.541,59.923
	c34.355-0.058,62.541-26.538,62.541-59.991C318.521,331.778,318.535,332.437,318.496,329.826z"/>
<path style="fill:#E8C842;" d="M218.156,360.135c0-21.38-0.003-26.386,0.01-28.538c0.007-1.139,0.409-2.238,1.137-3.115l0,0
	c8.903-10.707,5.925-22.046,6.667-23.334c-0.026-0.099-0.032-0.122-0.059-0.221c-2.982-1.352-6.071-2.964-9.21-4.926l-0.001,0.006
	c-8.216-4.998-12.234-2.233-14.091,0.543c-0.979,1.463-1.451,3.206-1.451,4.966c-0.308,2.369,1.767,12.945-6.566,22.966
	l-1.116,1.343c-0.037,2.42-0.031,1.516-0.031,30.31c0,32.88,27.679,59.864,62.541,59.923c4.221-0.007,8.348-0.418,12.343-1.187
	C239.51,413.338,218.156,389.013,218.156,360.135z"/>
<path style="fill:#CC9D72;" d="M503.42,129.888c-4.249-29.887-21.206-55.866-45.123-72.728
	c-74.749-52.887-180.883-1.527-180.883,87.584c0,35.338-0.1,75.52,12.006,113.125c2.471,7.677,10.255,12.338,18.18,10.845
	c11.403-2.112,17.629-2.878,29.447-4.196c7.853-0.808,102.203-0.538,103.81-0.388c2.503,0.234,4.013,0.391,3.98,0.388
	c9.98,1.047,19.331,2.295,29.406,4.188c8.17,1.513,15.797-3.31,18.22-10.837c8.35-25.939,12.034-61.404,12.001-88.377
	C504.462,168.167,504.793,139.547,503.42,129.888z"/>
<path style="fill:#C19067;" d="M343.457,257.039c-12.106-40.413-16.006-83.596-16.006-121.571c0-43.871,22.282-79.217,53.609-99.189
	c-54.773,4.925-103.647,47.995-103.647,108.465c0,35.338-0.1,75.52,12.006,113.125c2.471,7.677,10.255,12.338,18.18,10.845
	c11.403-2.112,17.629-2.878,29.447-4.196c1.332-0.137,5.157-0.243,10.591-0.324C345.767,262.27,344.299,259.849,343.457,257.039z"/>
<path style="fill:#F4D44E;" d="M478.055,156.631c-0.001-5.533-3.736-10.35-9.082-11.78C402.49,127.069,367.88,86.313,368.037,86.438
	c-0.683-0.736-1.88-0.601-2.373,0.274c-4.394,7.815-23.72,38.349-60.279,44.095c-2.304,0.998-1.607-2.383-1.607,62.452
	c0,46.344,39.558,84.084,88.095,83.49c47.099-0.412,86.186-37.14,86.186-83.585C478.059,191.612,478.057,172.252,478.055,156.631z"
	/>
<path style="fill:#E8C842;" d="M395.161,276.656c0.654-0.03,1.307-0.065,1.958-0.109c0.222-0.015,0.443-0.03,0.665-0.046
	c0.781-0.058,1.56-0.124,2.336-0.202c0.063-0.006,0.127-0.011,0.19-0.018c0.907-0.093,1.811-0.199,2.711-0.318l0,0
	c-42.343-5.631-74.965-40.618-74.965-82.703c0-31.511-0.164-54.442-0.069-69.831l0,0c-0.793,0.405-1.599,0.798-2.418,1.181
	c-0.071,0.033-0.143,0.067-0.214,0.1c-0.76,0.353-1.531,0.695-2.314,1.027c-0.151,0.064-0.303,0.127-0.455,0.191
	c-0.721,0.3-1.448,0.593-2.188,0.874c-0.239,0.091-0.481,0.179-0.722,0.268c-0.674,0.249-1.352,0.493-2.041,0.725
	c-0.334,0.113-0.674,0.218-1.011,0.326c-0.62,0.199-1.239,0.398-1.871,0.582c-0.446,0.131-0.902,0.249-1.354,0.373
	c-0.547,0.149-1.091,0.302-1.647,0.44c-0.603,0.15-1.22,0.282-1.834,0.418c-0.43,0.095-0.854,0.199-1.289,0.287
	c-1.066,0.216-2.146,0.413-3.243,0.586c-2.304,0.998-1.607-2.383-1.607,62.452c0,46.344,39.558,84.084,88.095,83.49
	c0.863-0.008,1.723-0.031,2.58-0.063C394.69,276.679,394.925,276.666,395.161,276.656z"/>
<path style="fill:#CC9D72;" d="M122.659,7.592c-59.46,1.986-106.93,48.822-106.93,106.213c0,10.32-0.01,28.54-0.023,36.646
	l221.789-0.358c0.003-14.112,0.005-34.821,0.006-36.288C237.501,53.383,185.103,5.396,122.659,7.592z"/>
<path style="fill:#C19067;" d="M68.224,113.805c0-53.618,32.157-98.019,74.015-105.245c-6.379-0.861-12.921-1.203-19.58-0.968
	c-59.46,1.986-106.93,48.822-106.93,106.213c0,10.32-0.01,28.54-0.023,36.646l52.499-0.085
	C68.216,142.219,68.224,124.09,68.224,113.805z"/>
<circle style="fill:#656566;" cx="431.625" cy="182.888" r="11.202"/>
<path style="fill:#545456;" d="M431.63,182.889c-2.072-3.589-1.923-7.843,0.005-11.193c-1.906-0.003-3.837,0.471-5.606,1.492
	c-5.358,3.093-7.194,9.944-4.1,15.302c3.093,5.358,9.945,7.194,15.302,4.1c1.769-1.021,3.145-2.457,4.095-4.109
	C437.46,188.476,433.702,186.478,431.63,182.889z"/>
<path style="fill:#9CD7F2;" d="M183.334,438.076c-11.833,5.657-12.155,24.663-12.155,24.663l-1.682,41.742h172.977l-1.682-41.742
	c0,0-0.647-19.006-12.155-24.663c-22.311-10.967-48.491-16.736-48.491-16.736c-0.33,5.575,0.985,9.224-1.94,13.282
	c-2.765,3.838-8.413,10.818-16.478,16.572c-3.447,2.459-8.068,2.442-11.514-0.019c-8.082-5.773-13.733-12.775-16.483-16.599
	c-1.246-1.732-1.907-3.81-1.907-5.944v-7.293C231.825,421.341,205.763,427.356,183.334,438.076z"/>
<path style="fill:#71C5DB;" d="M204.471,429.462c-6.799,2.388-14.145,5.273-21.137,8.615c-11.833,5.657-12.155,24.663-12.155,24.663
	l-1.682,41.742h24.712l1.682-52.742C195.891,451.739,196.151,436.787,204.471,429.462z"/>
<g>
	<path style="fill:#E8C842;" d="M337.922,346.854c0,9.385-9.419,16.992-19.395,16.992v-33.982
		C328.503,329.864,337.922,337.47,337.922,346.854z"/>
	<path style="fill:#E8C842;" d="M174.049,346.854c0,9.385,9.419,16.992,19.395,16.992v-33.982
		C183.468,329.864,174.049,337.47,174.049,346.854z"/>
</g>
<g>
	<path style="fill:#DBBC3B;" d="M318.527,350.337v13.509c9.976,0,19.395-7.607,19.395-16.992c0-2.401-0.624-4.683-1.709-6.754
		C333.057,346.122,325.95,350.337,318.527,350.337z"/>
	<path style="fill:#DBBC3B;" d="M175.758,340.1c-1.085,2.071-1.709,4.353-1.709,6.754c0,9.385,9.419,16.992,19.395,16.992v-13.509
		C186.021,350.337,178.914,346.122,175.758,340.1z"/>
</g>
<path style="fill:#E8C842;" d="M231.825,415.42c0.438,11.208-1.174,14.882,1.94,19.206c2.763,3.834,8.401,10.803,16.451,16.553
	c3.442,2.458,8.096,2.458,11.538,0c8.051-5.751,13.69-12.721,16.452-16.555c1.257-1.745,1.939-3.836,1.939-5.987V415.42
	C264.773,421.602,247.227,421.614,231.825,415.42z"/>
<path style="fill:#DBBC3B;" d="M258.282,434.624c-2.637-3.661-1.888-6.875-1.862-14.574c-8.374,0.055-16.762-1.481-24.595-4.631
	c0.438,11.208-1.174,14.882,1.94,19.206c2.763,3.834,8.401,10.803,16.451,16.553c3.442,2.458,8.096,2.458,11.538,0
	c2.38-1.7,4.543-3.506,6.489-5.307C263.607,441.581,260.228,437.325,258.282,434.624z"/>
<g>
	<path style="fill:#E8C842;" d="M245.834,155.512c0,10.64-10.677,19.263-21.987,19.263v-38.523
		C235.157,136.251,245.834,144.874,245.834,155.512z"/>
	<path style="fill:#E8C842;" d="M7.504,155.449c0,10.605,10.643,19.2,21.916,19.2v-38.398
		C18.147,136.251,7.504,144.846,7.504,155.449z"/>
</g>
<g>
	<path style="fill:#DBBC3B;" d="M223.848,158.774v16c14.789,0,27.082-14.18,19.868-27.262
		C240.052,154.156,232.122,158.774,223.848,158.774z"/>
	<path style="fill:#DBBC3B;" d="M9.63,147.45c-1.349,2.436-2.126,5.144-2.126,8c0,10.605,10.643,19.2,21.916,19.2v-16
		C21.183,158.649,13.288,154.058,9.63,147.45z"/>
</g>
<path style="fill:#F4D44E;" d="M223.955,136.198l-1.74-2.099c-13.928-16.753-9.282-34.287-10.342-40.135
	c0,0,2.287-33.587-27.255-26.363c-25.034,6.121-57.053,6.863-58.039,6.885c-0.986-0.022-33.006-0.764-58.039-6.885
	c-16.124-3.943-27.369,3.06-27.369,28.186c0,3.02,0,6.988,0,10.015c0,18.285-11.474,29.565-11.967,30.392
	c-0.04,37.54-0.048-37.885-0.048,47.214c0,51.231,43.123,93.245,97.424,93.345c54.564-0.102,97.424-42.336,97.424-93.451
	C223.994,136.506,224.009,139.757,223.955,136.198z"/>
<path style="fill:#E8C842;" d="M54.429,183.407c0-77.49,0.007-21.88,0.038-39.657c0.008-4.524,1.424-8.923,3.976-12.659
	c3.487-5.106,8.002-13.819,8.002-25.289c0-3.026,0-6.995,0-10.015c0-14.211,3.599-22.621,9.641-26.536
	c-2.558-0.502-5.086-1.05-7.545-1.651c-16.124-3.943-27.369,3.06-27.369,28.186c0,3.02,0,6.988,0,10.015
	c0,18.285-11.474,29.565-11.967,30.392c-0.04,37.54-0.048-37.885-0.048,47.214c0,51.231,43.123,93.245,97.424,93.346
	c4.294-0.008,8.515-0.278,12.648-0.791C91.018,269.965,54.429,230.596,54.429,183.407z"/>
<path style="fill:#656566;" d="M97.881,222.084c11.885,22.872,44.352,23.469,57.239,1.537c1.515-2.578-0.336-5.828-3.326-5.828
	H100.49C98.287,217.793,96.865,220.129,97.881,222.084z"/>
<path style="fill:#545456;" d="M118.881,222.084c-1.016-1.955,0.406-4.291,2.609-4.291h-21c-2.203,0-3.625,2.336-2.609,4.291
	c7.966,15.33,25.174,20.637,39.539,15.876C129.854,235.452,123.08,230.166,118.881,222.084z"/>
<path style="fill:#E8C842;" d="M380.663,195.332v1.242c0,4.823,4.238,8.973,9.747,9.199c5.882,0.242,10.737-3.856,10.737-8.946
	v-1.618c0-1.938-1.797-3.51-4.014-3.51h-12.316C382.523,191.699,380.663,193.326,380.663,195.332z"/>
<path style="fill:#DBBC3B;" d="M390.905,196.575v-1.242c0-2.006,1.86-3.633,4.155-3.633h-10.242c-2.294,0-4.154,1.626-4.154,3.633
	v1.242c0,4.823,4.238,8.973,9.747,9.199c2.065,0.085,3.997-0.374,5.643-1.214C392.955,202.949,390.905,199.926,390.905,196.575z"/>
<path style="fill:#E8C842;" d="M115.145,177.97v1.586c0,6.158,4.732,11.456,10.883,11.745c6.567,0.309,11.988-4.924,11.988-11.422
	v-2.066c0-2.475-2.006-4.481-4.481-4.481h-13.751C117.222,173.331,115.145,175.408,115.145,177.97z"/>
<path style="fill:#DBBC3B;" d="M126.58,179.556v-1.586c0-2.562,2.077-4.638,4.639-4.638h-11.435c-2.562,0-4.638,2.077-4.638,4.638
	v1.586c0,6.158,4.732,11.456,10.883,11.745c2.305,0.108,4.462-0.477,6.3-1.55C128.869,187.695,126.58,183.836,126.58,179.556z"/>
<path style="fill:#656566;" d="M365.883,230.124c10.339,19.896,38.582,20.416,49.793,1.337c1.318-2.243-0.292-5.07-2.894-5.07
	h-44.63C366.236,226.391,364.999,228.424,365.883,230.124z"/>
<path style="fill:#545456;" d="M384.151,230.124c-0.884-1.701,0.353-3.733,2.27-3.733h-18.268c-1.916,0-3.153,2.032-2.27,3.733
	c6.93,13.336,21.899,17.952,34.397,13.811C393.696,241.753,387.804,237.154,384.151,230.124z"/>
<circle style="fill:#656566;" cx="350.206" cy="182.888" r="11.202"/>
<path style="fill:#545456;" d="M350.208,182.889c-2.072-3.589-1.923-7.843,0.005-11.193c-1.906-0.003-3.837,0.471-5.606,1.492
	c-5.358,3.093-7.194,9.944-4.1,15.302c3.093,5.358,9.945,7.194,15.302,4.1c1.769-1.021,3.145-2.457,4.095-4.109
	C356.039,188.476,352.28,186.478,350.208,182.889z"/>
<circle style="fill:#656566;" cx="172.098" cy="160.808" r="12.522"/>
<path style="fill:#545456;" d="M172.095,160.807c-2.316-4.012-2.149-8.767,0.006-12.512c-2.13-0.003-4.289,0.526-6.267,1.668
	c-5.989,3.458-8.041,11.116-4.583,17.105s11.116,8.041,17.105,4.583c1.978-1.142,3.515-2.747,4.578-4.593
	C178.613,167.052,174.411,164.819,172.095,160.807z"/>
<circle style="fill:#656566;" cx="81.059" cy="160.808" r="12.522"/>
<path style="fill:#545456;" d="M81.065,160.807c-2.316-4.012-2.149-8.767,0.006-12.512c-2.13-0.003-4.289,0.526-6.267,1.668
	c-5.989,3.458-8.041,11.116-4.583,17.105c3.458,5.989,11.116,8.041,17.105,4.583c1.978-1.142,3.515-2.747,4.578-4.593
	C87.582,167.052,83.381,164.819,81.065,160.807z"/>
<path d="M107.628,179.88c0,10.441,8.494,18.936,18.936,18.936c10.44,0,18.935-8.494,18.935-18.936v-6.548c0-4.143-3.357-7.5-7.5-7.5
	s-7.5,3.357-7.5,7.5v6.548c0,2.17-1.765,3.936-3.935,3.936s-3.936-1.766-3.936-3.936v-6.548c0-4.143-3.357-7.5-7.5-7.5
	c-4.143,0-7.5,3.357-7.5,7.5C107.628,173.332,107.628,179.88,107.628,179.88z"/>
<path d="M172.078,140.784c-11.041,0-20.024,8.982-20.024,20.023s8.983,20.024,20.024,20.024s20.023-8.983,20.023-20.024
	S183.119,140.784,172.078,140.784z M172.078,165.832c-2.771,0-5.024-2.254-5.024-5.024c0-2.77,2.254-5.023,5.024-5.023
	c2.77,0,5.023,2.254,5.023,5.023C177.102,163.578,174.848,165.832,172.078,165.832z"/>
<path d="M101.071,160.807c0-11.041-8.983-20.023-20.024-20.023s-20.023,8.982-20.023,20.023s8.982,20.024,20.023,20.024
	S101.071,171.848,101.071,160.807z M81.047,165.832c-2.77,0-5.023-2.254-5.023-5.024c0-2.77,2.254-5.023,5.023-5.023
	c2.771,0,5.024,2.254,5.024,5.023C86.071,163.578,83.817,165.832,81.047,165.832z"/>
<path d="M157.755,143.629c8.272-6.921,20.355-6.937,28.646,0c1.404,1.176,3.111,1.749,4.81,1.749c7.007,0,10.149-8.79,4.817-13.251
	c-13.83-11.576-34.036-11.605-47.899,0c-3.177,2.658-3.597,7.389-0.938,10.564C149.849,145.868,154.58,146.289,157.755,143.629z"/>
<path d="M66.725,143.629c8.272-6.921,20.355-6.937,28.646,0c3.168,2.652,7.9,2.247,10.564-0.938
	c2.659-3.176,2.239-7.906-0.938-10.564c-13.83-11.576-34.036-11.605-47.899,0c-3.177,2.658-3.597,7.389-0.938,10.564
	C58.818,145.868,63.55,146.289,66.725,143.629z"/>
<path d="M161.568,227.423c2.062-3.508,2.088-7.88,0.068-11.411c-2.018-3.526-5.796-5.718-9.86-5.718h-51.304
	c-7.835,0-12.871,8.305-9.265,15.248c0,0.001,0,0.001,0,0.001C105.502,253.07,145.443,254.862,161.568,227.423z M144.285,225.294
	c-9.852,9.348-25.155,9.022-34.737,0H144.285z"/>
<path d="M373.173,195.556c0,9.775,7.953,17.728,17.729,17.728c9.776,0,17.729-7.952,17.729-17.728V191.7c0-4.143-3.357-7.5-7.5-7.5
	s-7.5,3.357-7.5,7.5v3.856c0,3.61-5.457,3.605-5.457,0V191.7c0-4.143-3.357-7.5-7.5-7.5s-7.5,3.357-7.5,7.5v3.856H373.173z"/>
<path d="M431.613,164.187c-10.313,0-18.702,8.39-18.702,18.702s8.39,18.702,18.702,18.702s18.702-8.39,18.702-18.702
	S441.925,164.187,431.613,164.187z M431.613,186.592c-2.041,0-3.702-1.661-3.702-3.702s1.661-3.702,3.702-3.702
	s3.702,1.661,3.702,3.702S433.654,186.592,431.613,186.592z"/>
<path d="M350.191,201.592c10.313,0,18.702-8.39,18.702-18.702s-8.39-18.702-18.702-18.702c-10.312,0-18.702,8.39-18.702,18.702
	S339.879,201.592,350.191,201.592z M350.191,179.187c2.041,0,3.702,1.661,3.702,3.702s-1.661,3.702-3.702,3.702
	s-3.702-1.661-3.702-3.702S348.15,179.187,350.191,179.187z"/>
<path d="M419.31,165.465c7.101-5.944,17.487-5.959,24.606,0c1.404,1.175,3.111,1.748,4.81,1.748c7.009,0,10.149-8.789,4.817-13.252
	c-12.669-10.6-31.166-10.622-43.859,0c-3.177,2.659-3.597,7.389-0.938,10.565C411.403,167.702,416.133,168.123,419.31,165.465z"/>
<path d="M337.888,165.465c7.101-5.944,17.487-5.959,24.606,0c1.404,1.175,3.111,1.748,4.81,1.748c7.009,0,10.149-8.789,4.817-13.252
	c-6.136-5.134-13.924-7.962-21.93-7.962c-8.007,0-15.795,2.828-21.931,7.962c-3.177,2.659-3.597,7.389-0.938,10.565
	C329.98,167.702,334.711,168.123,337.888,165.465z"/>
<path d="M412.815,218.891h-44.629c-3.543,0-6.757,1.808-8.596,4.836c-2.727,4.491-1.347,8.429,1.054,12.283
	c14.004,22.533,47.743,22.726,61.531-0.749c1.971-3.353,1.995-7.531,0.064-10.905C420.311,220.985,416.699,218.891,412.815,218.891z
	 M378.785,233.891h24.831C396.06,239.452,385.979,239.11,378.785,233.891z"/>
<circle cx="280.677" cy="342.686" r="9.34"/>
<circle cx="231.287" cy="342.686" r="9.34"/>
<path d="M498.783,91.944c-1.942-3.657-6.481-5.048-10.142-3.104c-3.658,1.943-5.048,6.484-3.104,10.142
	c7.572,14.253,11.412,29.649,11.412,45.763c-0.336,8.374,2.918,65.594-11.646,110.827c-1.313,4.08-5.466,6.563-9.65,5.772
	c-5.163-0.904-9.144-1.709-18.779-2.97c17.663-16.577,28.668-39.712,28.668-65.209l-0.005-36.934
	c0.876,0.159,1.737,0.334,2.622,0.484c4.114,0.698,7.963-2.08,8.652-6.135c0.695-4.084-2.052-7.957-6.135-8.652
	c-41.493-7.064-86.171-28.412-117.164-60.598c-4.133-4.446-11.423-3.593-14.403,1.708c-4.592,8.165-22.122,35.208-54.905,40.36
	c-0.624,0.099-1.233,0.274-1.813,0.525c-6.389,2.764-6.08,9.348-6.111,9.448c-0.014,1.56-0.008,10.69-0.018,59.888
	c0,25.446,11.003,48.555,28.66,65.12c-1.269,0.166-3.421,0.459-5.029,0.692l0,0c-0.1,0.016-8.522,1.336-7.985,1.252
	c-5.112-4.408-11.091-8.421-17.379-11.561c-10.674-38.727-9.632-79.835-9.632-104.02c0-90.004,114.179-135.172,180.773-71.832
	c3.001,2.852,7.748,2.732,10.604-0.27c2.854-3.003,2.732-7.75-0.27-10.604c-5.641-5.362-12.949-11.188-21.503-16.272l-0.001,0.001
	c-79.556-46.933-184.603,6.776-184.603,98.978c0.344,10.256-2.433,52.646,7.631,97.726c-37.24-9.572-76.017,6.443-94.702,38.592
	c-6.23-1.957-11.699-3.486-15.874-4.587c37.823-15.267,64.534-51.335,64.534-93.069v-2.333
	c20.817-5.197,29.619-28.924,13.492-44.077l0.006-23.192c0-65.889-57.239-116.012-122.592-113.709
	C59.028,2.213,8.211,52.186,8.211,113.805c0,9.694-0.009,15.771-0.021,23.225c-15.849,15.017-7.258,38.52,13.449,43.724v2.653
	c0,41.773,26.763,77.871,64.636,93.113c-11.746,3.174-33.959,9.813-53.987,19.388c-18.405,8.798-19.44,35.247-19.494,37.437
	l-5.84,144.95c-0.739,18.376,13.914,33.687,32.357,33.687h24.237c4.143,0,7.5-3.357,7.5-7.5c0-4.143-3.357-7.5-7.5-7.5H39.311
	c-9.905,0-17.766-8.227-17.369-18.083c0.004-0.102,5.841-145.01,5.848-145.174c0.118-5.354,2.321-20.152,10.967-24.285
	c18.292-8.744,38.574-14.925,50.037-18.066c0.171,6.669,3.158,10.8,7.436,16.033c9.394,11.518,18.374,17.464,18.747,17.787l0,0
	c6.728,4.775,15.892,5.319,23.925-0.553c8.85-6.473,16.95-15.246,21.783-22.198c2.399-3.442,3.562-7.359,3.65-11.139
	c3.386,0.906,7.546,2.078,12.184,3.506c-4.57,13.213-4.448,22.93-4.312,37.211c-12.389,14.533-3.12,34.276,14.563,38.538
	c3.109,19.008,14.806,36.154,31.767,46.548c-15.939,4.592-28.99,9.679-38.451,14.202c-15.379,7.352-16.356,28.36-16.418,31.204
	l-1.389,34.468h-63.73c-4.143,0-7.5,3.357-7.5,7.5c0,4.143,3.357,7.5,7.5,7.5c18.994,0,347.284,0,383.617,0
	c16.205,0,29.183-13.447,28.529-29.701l-4.08-101.237c-0.168-4.139-3.664-7.352-7.796-7.192c-4.139,0.167-7.359,3.657-7.192,7.796
	l4.08,101.237c0.309,7.701-5.835,14.098-13.541,14.098H349.661c-1.47-36.488-1.37-34.73-1.497-36.222
	c-0.482-5.791-3.018-22.917-16.235-29.414c-9.455-4.648-22.491-9.795-38.391-14.294c17.017-10.379,28.558-27.252,31.645-46.504
	c17.899-4.283,26.806-24.102,14.576-38.497c-0.457-6.638,1.593-18.953-3.703-35.536c6.64-2.17,12.563-3.893,17.1-5.139
	c0.158,6.348,2.869,10.31,6.623,15.021c5.289,6.658,15.977,17.408,22.527,20.54c6.461,3.103,14.203,2.539,20.173-1.72
	c10.229-7.3,20.197-18.511,23.507-24.263c1.752-3.035,2.632-6.382,2.709-9.65c11.472,3.073,31.872,9.206,49.962,18.099
	c12.632,6.209,11.166,33.071,11.56,37.243c0.168,4.139,3.672,7.359,7.796,7.192c4.139-0.167,7.358-3.657,7.192-7.796l-0.512-12.721
	c-0.099-2.897-1.481-28.565-19.419-37.38c-20.826-10.237-43.887-16.878-55.294-19.822c3.271-1.437,6.443-3.05,9.504-4.823
	c1.461,0.519,11.867,1.184,26.069,3.503l1.94,0.322v-0.001c4.701,0.84,6.981,1.368,9.717,1.368
	c10.018-0.001,19.204-6.471,22.374-16.322c8.6-26.713,12.373-62.726,12.362-90.674C510.733,152.775,516.791,125.838,498.783,91.944z
	 M147.104,295.606c-4.919,6.474-11.059,12.658-17.684,17.389c-1.59,1.128-3.676,1.195-5.337,0.227
	c-2.175-1.267-6.868-5.356-9.338-7.757c-13.816-13.491-10.63-13.114-10.958-23.587c14.631,3.12,30.437,3.219,45.551,0v8.964
	C149.338,292.843,148.379,293.927,147.104,295.606z M231.486,165.049v-19.347C240.541,150.619,240.55,160.126,231.486,165.049z
	 M23.211,113.805c0-53.226,44.087-96.86,99.694-98.719c57.247-2.022,107.079,41.699,107.079,98.719l-0.004,15.535
	c-0.747-0.147-1.504-0.263-2.269-0.355c-11.174-13.75-7.478-27.936-8.328-35.37c0.839-23.07-12.756-39.115-36.563-33.3
	c-23.521,5.751-53.491,6.601-56.257,6.668c-2.757-0.066-32.732-0.915-56.26-6.668c-23.738-5.809-37.4,10.16-36.561,33.295
	c-0.846,7.469,2.921,21.532-8.329,35.376c-0.745,0.091-1.484,0.203-2.212,0.346C23.208,124.772,23.211,120.036,23.211,113.805z
	 M21.639,164.711c-8.828-4.865-8.819-14.124,0-18.983V164.711z M36.639,183.407c0.009-36.925,0.004-43.178,0.016-44.464l0.041-0.049
	c15.354-18.471,11.333-38.119,11.959-43.106c0-15.711,3.424-24.484,18.088-20.901c20.452,5.001,51.913,7.244,59.984,7.098
	c53.239-1.174,64.484-12.388,72.382-5.795c6.083,5.08,5.172,17.953,5.356,19.046c0.201,9.33-2.18,26.643,11.961,43.653l0.046,0.055
	c0.014,1.592,0.004-1.276,0.016,44.464c0,43.599-34.396,79.69-78.191,85.127C84.435,275.234,36.639,235.087,36.639,183.407z
	 M311.261,193.169l0.009-55.836c29.791-6.461,48.148-27.612,56.679-40.144c21.909,21.702,59.962,45.106,102.589,55.818l0.005,40.253
	c0,37.154-28.445,68.843-66.358,74.939C356.572,275.806,311.261,241.505,311.261,193.169z M397.778,309.915
	c-3.752,3.096-5.807,4.861-8.796,3.58c-4.312-1.851-20.835-17.955-20.835-22.654c0-1.741,0-9.438,0-9.224
	c14.691,3.491,30.627,3.544,45.551-0.01c0,0.191,0,9.386,0,9.235C413.698,295.264,401.454,306.887,397.778,309.915z
	 M324.677,317.064c0.124,2.422,0.071,3.911,0.083,6.004c-0.801-0.181-1.614-0.331-2.438-0.443
	c-5.107-7.017-3.853-13.089-4.041-19.686c-0.253-8.197-8.064-12.321-15.802-9.796c-25.291,8.299-43.682-0.022-43.582-0.012
	c-6.676-3.136-13.453,4.296-9.618,10.656c-5.806-0.622-16.825-2.774-28.619-10.146c-10.664-6.675-19.739-4.082-24.303,2.739
	c-5.886,8.8,0.821,15.855-6.742,26.244c-0.81,0.11-1.607,0.256-2.394,0.433c0.009-14.476,2.177-20.136,6.236-30.081
	C223.565,230.403,321.287,249.605,324.677,317.064z M326.01,353.972v-14.239C332.417,344.131,331.264,350.366,326.01,353.972z
	 M272.104,430.24c-3.886,5.395-9.078,10.802-14.731,14.838c-0.862,0.613-2.045,0.551-2.814-0.003
	c-6.908-4.936-15.25-14.207-15.25-16.44v-2.988c10.931,2.579,22.69,2.505,33.321-0.001
	C272.519,428.148,272.933,429.092,272.104,430.24z M201.557,368.006c-0.786-6.544-0.625-0.336-0.625-35.458
	c10.415-13.221,6.908-26.172,7.875-27.798c3.355,0.308,24.211,15.614,45.084,14.278c5.52-0.344,10.383-3.123,12.212-8.395
	c9.033,1.599,22,2.2,37.193-2.063c0.124,0.805-1.177,12.699,7.708,23.978c0,0.9,0.005,25.609,0.006,27.588
	C311.01,422.918,211.992,433.126,201.557,368.006z M185.927,339.732v14.239C180.102,349.975,180.104,343.731,185.927,339.732z
	 M181.28,451.075c2.238-5.074,4.517-5.906,7.611-7.325c11.02-5.054,23.857-9.455,35.576-12.741
	c0.695,5.174,3.298,8.447,6.881,12.721c4.21,5.014,11.588,12.183,16.499,14.774c5.928,3.134,12.898,2.666,18.742-1.587
	c7.258-5.286,19.746-17.018,20.892-25.972c12.471,3.432,26.278,8.18,37.831,13.861c5.35,2.63,7.737,12.56,7.97,18.233l1.368,33.941
	H177.288C178.628,463.694,178.21,457.386,181.28,451.075z M324.251,273.607c15.09-2.02,16.29-1.671,18.079-2.296
	c3.092,1.79,6.296,3.416,9.602,4.863c-5.237,1.394-12.986,3.587-21.828,6.511C328.377,279.546,326.414,276.519,324.251,273.607z"/>
<path d="M235.097,376.047c0.283,0.544,0.589,1.082,0.918,1.613c6.771,10.895,21.123,14.45,32.207,7.993
	c3.654-2.128,6.53-5.082,8.532-8.487c1.103-1.876-0.244-4.241-2.421-4.241h-37.337C235.393,372.925,234.358,374.625,235.097,376.047
	z"/>
<g>
</g>
<g>
</g>
<g>
</g>
<g>
</g>
<g>
</g>
<g>
</g>
<g>
</g>
<g>
</g>
<g>
</g>
<g>
</g>
<g>
</g>
<g>
</g>
<g>
</g>
<g>
</g>
<g>
</g>
</svg>
