<?xml version="1.0" encoding="iso-8859-1"?>
<!-- Generator: Adobe Illustrator 19.0.0, SVG Export Plug-In . SVG Version: 6.00 Build 0)  -->
<svg version="1.1" id="Capa_1" xmlns="http://www.w3.org/2000/svg" xmlns:xlink="http://www.w3.org/1999/xlink" x="0px" y="0px"
	 viewBox="0 0 512.001 512.001" style="enable-background:new 0 0 512.001 512.001;" xml:space="preserve">
<path style="fill:#DBDBDB;" d="M504.986,256.038c0-63.729-49.989-115.778-112.894-119.084c-2.162-0.113-4.125-1.299-5.273-3.135
	c-0.807-1.293-1.245-2.775-1.323-4.297c-2.501-48.557-42.258-91.436-91.069-91.436c-56.084,0-99.083,50.216-90.151,105.775
	c1.484,9.23-3.178,18.332-11.342,22.886c-22.167,12.369-47.257,20.675-73.651,24.271l-83.202,10.111
	c-7.507,1.023-12.398,8.366-10.526,15.709c4.088,16.035,8.438,44.647,0.081,77.613c-1.969,7.766,3.261,15.518,11.2,16.599
	l82.448,10.007c29.472,4.016,57.316,13.904,81.283,28.763c4.035,2.501,6.054,7.302,4.97,11.924
	c-13.475,57.401,30.121,112.247,88.891,112.247c46.587,0,85.013-41.2,90.596-87.237c0.845-6.966,6.861-11.455,13.329-12.135
	C458.281,368.314,504.986,317.636,504.986,256.038z"/>
<path style="fill:#C9C6C5;" d="M253.808,372.674c0.009-0.078,0.015-0.147,0.025-0.228c1.231-10.497-0.576-17.061-1.906-20.265
	l-1.2-2.361l-4.721-6.525c-37.923-52.407-39.085-122.919-2.91-176.548c0,0,5.007-8.826,8.37-15.564
	c0.779-1.68,2.428-6.024,2.323-12.265c-0.16-1.505-0.28-3.005-0.366-4.5c-0.008-0.057-0.012-0.11-0.021-0.167l-0.127-3.356
	c-0.775-41.462,26.803-77.779,65.573-89.136c-7.77-2.383-15.959-3.674-24.42-3.674c-53.742,0-95.461,46.111-90.993,98.848
	c0.004,0.045,0.008,0.091,0.012,0.136c0.06,0.698,0.126,1.397,0.202,2.098c0.024,0.221,0.053,0.442,0.078,0.664
	c0.063,0.543,0.125,1.086,0.198,1.631c0.106,0.797,0.222,1.597,0.351,2.397c1.469,9.137-2.95,18.186-11.023,22.71
	c-22.245,12.468-47.449,20.835-73.97,24.449l-83.202,10.111c-7.507,1.023-12.398,8.366-10.526,15.709
	c4.088,16.035,8.438,44.647,0.081,77.613c-1.969,7.766,3.261,15.518,11.2,16.599l82.448,10.007
	c29.472,4.016,57.316,13.904,81.283,28.763c0.397,0.246,0.768,0.52,1.125,0.808c0.056,0.045,0.113,0.088,0.168,0.134
	c0.336,0.282,0.651,0.583,0.947,0.898c0.053,0.057,0.105,0.114,0.157,0.171c0.295,0.328,0.574,0.669,0.826,1.027
	c0.024,0.033,0.045,0.068,0.068,0.103c0.26,0.377,0.5,0.769,0.711,1.174l0.009,0.016c0.213,0.411,0.396,0.835,0.555,1.269
	c0.015,0.041,0.031,0.082,0.046,0.123c0.153,0.43,0.28,0.869,0.379,1.316c0.007,0.033,0.014,0.067,0.021,0.1
	c0.199,0.94,0.28,1.911,0.226,2.889c-0.035,0.631-0.12,1.265-0.268,1.896c-13.475,57.401,30.121,112.247,88.891,112.247
	c8.339,0,16.415-1.327,24.09-3.758C277.059,457.933,248.832,417.102,253.808,372.674z"/>
<path d="M7.507,185.285c2.912,0-2.299,1.404,102.023-43.154c3.806-1.635,5.566-6.045,3.932-9.853
	c-1.636-3.806-6.044-5.563-9.853-3.932L4.543,170.891C-2.918,174.096-0.617,185.285,7.507,185.285z"/>
<path d="M109.53,370.287l-99.067-42.544c-3.812-1.634-8.216,0.126-9.853,3.932c-1.635,3.807,0.126,8.217,3.932,9.853
	c104.322,44.559,99.106,43.154,102.023,43.154c2.908,0,5.675-1.701,6.896-4.542C115.096,376.332,113.335,371.922,109.53,370.287z"/>
<path d="M182.34,227.344c-0.405-4.123-4.084-7.139-8.196-6.731L41.636,233.613c-4.122,0.404-7.136,4.074-6.731,8.196
	c0.402,4.096,4.046,7.138,8.196,6.731l132.508-13.001C179.731,235.136,182.745,231.466,182.34,227.344z"/>
<path d="M175.609,280.241L43.101,267.24c-4.113-0.402-7.791,2.61-8.196,6.731c-0.404,4.122,2.609,7.792,6.731,8.197l132.508,13.001
	c4.144,0.406,7.794-2.629,8.196-6.731C182.745,284.316,179.731,280.646,175.609,280.241z"/>
<path d="M338.25,60.365c3.366,2.413,8.053,1.639,10.467-1.728c2.412-3.367,1.639-8.053-1.728-10.467
	C274.76-3.583,175.854,66.219,198.202,153.923c-23.914,16.822-52.835,27.932-83.647,32.129l-85.7,11.678
	c-4.104,0.56-6.978,4.34-6.419,8.444c0.562,4.122,4.358,6.976,8.444,6.419l85.7-11.678c31.656-4.313,61.503-15.454,86.646-32.269
	c7.614,17.619,20.335,32.884,37.04,43.71c1.261,0.816,2.674,1.207,4.072,1.207c7.425,0,10.357-9.731,4.086-13.796
	c-23.975-15.54-38.289-41.85-38.289-70.38C210.136,63.711,284.316,21.713,338.25,60.365z"/>
<path d="M430.443,358.27c-14.272,6.317-29.479,9.522-45.198,9.522c-4.143,0-7.5,3.357-7.5,7.5c0,22.654-9.046,45.707-24.818,63.243
	c-53.244,59.203-142.789,16.62-142.789-55.85c0-27.885,13.814-53.864,36.953-69.496c3.433-2.319,4.335-6.981,2.017-10.414
	c-2.318-3.433-6.982-4.335-10.414-2.017c-15.898,10.741-28.053,25.631-35.434,42.691c-25.148-16.828-55.009-27.977-86.679-32.292
	l-85.7-11.677c-4.092-0.558-7.884,2.314-8.444,6.419c-0.559,4.104,2.314,7.885,6.419,8.444l85.7,11.677
	c30.821,4.2,59.749,15.314,83.669,32.144c-24.863,97.177,96.28,167.762,165.855,90.401c16.536-18.386,26.669-42.086,28.4-65.982
	c15.259-0.852,30.042-4.403,44.036-10.6c3.788-1.677,5.499-6.106,3.821-9.895C438.662,358.302,434.229,356.589,430.443,358.27z"/>
<path d="M392.468,129.493c-1.377-18.939-8.046-37.941-19.147-54.208c-2.336-3.421-7.002-4.3-10.424-1.968
	c-3.422,2.335-4.302,7.002-1.968,10.424c18.204,26.676,16.629,51.896,16.875,53.946c-0.726,11.065-3.354,21.888-7.682,31.631
	c-5.219-3.315-11.033-5.725-17.255-7.076c-4.045-0.875-8.041,1.689-8.921,5.737c-0.879,4.048,1.689,8.042,5.737,8.922
	c20.605,4.476,33.66,24.773,29.184,45.381c-4.467,20.557-24.822,33.65-45.383,29.184c-4.045-0.871-8.041,1.689-8.921,5.737
	c-0.879,4.047,1.689,8.041,5.737,8.922c49.621,10.787,84.788-47.978,51.516-86.679c2.14-3.017,8.412-18.093,10.417-34.937
	c58.378,3.62,104.767,52.255,104.767,111.529c0,32.538-14.148,63.4-38.816,84.671c-3.137,2.704-3.487,7.44-0.782,10.578
	c2.709,3.142,7.447,3.483,10.578,0.782c27.978-24.122,44.022-59.124,44.022-96.03C512.001,188.57,459.013,133.25,392.468,129.493z"
	/>
<g>
</g>
<g>
</g>
<g>
</g>
<g>
</g>
<g>
</g>
<g>
</g>
<g>
</g>
<g>
</g>
<g>
</g>
<g>
</g>
<g>
</g>
<g>
</g>
<g>
</g>
<g>
</g>
<g>
</g>
</svg>
