<?xml version="1.0" encoding="iso-8859-1"?>
<!-- Generator: Adobe Illustrator 19.0.0, SVG Export Plug-In . SVG Version: 6.00 Build 0)  -->
<svg version="1.1" id="Capa_1" xmlns="http://www.w3.org/2000/svg" xmlns:xlink="http://www.w3.org/1999/xlink" x="0px" y="0px"
	 viewBox="0 0 512 512" style="enable-background:new 0 0 512 512;" xml:space="preserve">
<path style="fill:#9BA8B0;" d="M351.56,135.925v57.488h-70.885v-57.488c0-31.676-25.772-57.447-57.447-57.447
	s-57.437,25.772-57.437,57.447v368.482H94.905V135.925c0-64.102,47.24-117.376,108.728-126.845c2.866-0.435,5.762-0.78,8.678-1.033
	c3.595-0.304,7.24-0.456,10.916-0.456C293.991,7.592,351.56,65.161,351.56,135.925z"/>
<g>
	<path style="fill:#849096;" d="M233.863,8.038c-3.508-0.29-7.052-0.444-10.633-0.444C152.469,7.595,94.9,65.164,94.9,135.925
		v368.481h21.266V135.925C116.166,68.744,168.059,13.462,233.863,8.038z"/>
	<path style="fill:#849096;" d="M244.496,78.48c-3.633,0-7.185,0.354-10.633,1.003c26.61,5.002,46.813,28.401,46.813,56.442v57.484
		h21.266v-57.484C301.941,104.25,276.172,78.48,244.496,78.48z"/>
</g>
<rect x="264.3" y="193.405" style="fill:#9BA8B0;" width="103.634" height="42.473"/>
<rect x="264.3" y="193.405" style="fill:#849096;" width="42.473" height="42.473"/>
<rect x="330.74" y="193.405" style="fill:#CCD7DB;" width="21.237" height="42.473"/>
<polygon style="fill:#CEEAF2;" points="235.404,504.405 396.135,504.405 417.1,329.697 214.439,329.697 "/>
<rect x="283.277" y="235.886" style="fill:#0088D5;" width="65.69" height="174.884"/>
<rect x="318.052" y="235.886" style="fill:#58CCFC;" width="15.723" height="174.884"/>
<g>
	<polygon style="fill:#0088D5;" points="407.397,410.767 396.157,504.437 235.399,504.437 235.399,504.406 224.169,410.767 	"/>
</g>
<polygon style="fill:#E5F5F9;" points="397.565,338.079 391.327,410.767 365.413,410.767 365.413,338.079 "/>
<polygon style="fill:#0275A8;" points="261.88,504.406 235.399,504.406 224.169,410.767 259.166,410.767 "/>
<path style="fill:#58CCFC;" d="M365.414,410.762v65.499c0,4.722,3.828,8.549,8.549,8.549h3.146c4.437,0,8.137-3.395,8.517-7.816
	l5.7-66.232H365.414z"/>
<path style="fill:#CCD7DB;" d="M314.913,118.854c0.746,5.588,1.144,11.283,1.144,17.07v57.488h17.215v-57.488
	c0-5.787-0.387-11.485-1.132-17.07H314.913z"/>
<path d="M420.736,323.024c-1.167-0.646-2.504-0.922-3.839-0.922h-60.34v-78.626h11.379c4.194,0,7.595-3.4,7.595-7.595v-42.473
	c0-4.194-3.4-7.595-7.595-7.595h-8.782v-49.889c0-35.629-14.144-69.911-39.058-95.265c-3.062-3.116-8.124-3.002-11.055,0.239l0,0
	c-2.697,2.983-2.592,7.544,0.226,10.412c22.132,22.525,34.697,52.975,34.697,84.614v49.889H288.27v-48.902
	c0-35.692-28.342-65.475-64.03-66.019c-36.324-0.554-66.05,28.833-66.05,65.032v257.524c0,4.194,3.4,7.594,7.594,7.594h0.002
	c4.194,0,7.594-3.4,7.594-7.594V136.761c0-27.297,21.596-50.16,48.888-50.677c27.927-0.53,50.813,22.033,50.813,49.841v49.889
	h-8.782c-4.194,0-7.595,3.4-7.595,7.595v42.473c0,4.194,3.4,7.595,7.595,7.595h11.379v78.626h-61.038
	c-1.334,0-2.671,0.275-3.839,0.922c-2.81,1.555-4.264,4.574-3.904,7.579l20.967,174.707c0.458,3.818,3.695,6.69,7.54,6.69h160.731
	c3.845,0,7.082-2.873,7.54-6.69l20.965-174.708C425,327.598,423.546,324.579,420.736,323.024z M271.894,201.003h8.782h70.885h8.782
	v27.284h-11.379h-65.689h-11.379v-27.284H271.894z M290.868,243.478h50.5v78.626h-50.5V243.478z M290.868,403.172v-65.88h50.5v65.88
	H290.868z M275.678,337.292v65.88h-44.774L223,337.292H275.678z M389.396,496.81H242.141l-9.414-78.45h50.507
	c0.013,0,0.026,0.002,0.039,0.002h65.689c0.013,0,0.026-0.002,0.039-0.002h49.807L389.396,496.81z M400.633,403.172h-44.074v-65.88
	h51.98L400.633,403.172z"/>
<path d="M158.191,504.405h15.19v-75.514c0-4.194-3.4-7.594-7.594-7.594h-0.002c-4.194,0-7.594,3.4-7.594,7.594L158.191,504.405
	L158.191,504.405z"/>
<path d="M290.683,27.065L290.683,27.065c2.308-3.71,1.024-8.609-2.816-10.691C268.075,5.639,245.893,0,223.23,0
	C148.282,0,87.306,60.975,87.306,135.925v368.481h15.19V135.925c0-66.574,54.161-120.736,120.735-120.736
	c20.119,0,39.81,5.004,57.379,14.529C284.146,31.636,288.559,30.481,290.683,27.065z"/>
<g>
</g>
<g>
</g>
<g>
</g>
<g>
</g>
<g>
</g>
<g>
</g>
<g>
</g>
<g>
</g>
<g>
</g>
<g>
</g>
<g>
</g>
<g>
</g>
<g>
</g>
<g>
</g>
<g>
</g>
</svg>
