<?xml version="1.0" encoding="iso-8859-1"?>
<!-- Generator: Adobe Illustrator 19.0.0, SVG Export Plug-In . SVG Version: 6.00 Build 0)  -->
<svg version="1.1" id="Capa_1" xmlns="http://www.w3.org/2000/svg" xmlns:xlink="http://www.w3.org/1999/xlink" x="0px" y="0px"
	 viewBox="0 0 512 512" style="enable-background:new 0 0 512 512;" xml:space="preserve">
<rect x="61.575" y="180.62" style="fill:#30303A;" width="362.466" height="285.8"/>
<polyline style="fill:#62686D;" points="442.558,119.715 472.178,119.715 472.178,226.721 442.558,226.721 208.188,226.721 
	178.567,226.721 178.567,119.715 208.188,119.715 "/>
<rect x="208.192" y="45.581" style="fill:#E8E8EA;" width="234.365" height="200.544"/>
<rect x="208.192" y="196.128" style="fill:#B3B3B3;" width="234.365" height="49.997"/>
<path style="fill:#777E84;" d="M61.575,466.419L61.575,466.419c-29.812,0-53.978-24.167-53.978-53.979V214.338
	c0-29.812,24.167-53.978,53.978-53.978l0,0c29.812,0,53.978,24.167,53.978,53.978v198.103
	C115.554,442.253,91.387,466.419,61.575,466.419z"/>
<path style="fill:#62686D;" d="M27.347,412.441V214.338c0-26.437,19.01-48.42,44.104-53.061c-3.203-0.593-6.501-0.918-9.876-0.918
	l0,0c-29.812,0-53.978,24.167-53.978,53.978v198.103c0,29.812,24.167,53.979,53.978,53.979l0,0c3.375,0,6.672-0.325,9.876-0.918
	C46.357,460.861,27.347,438.878,27.347,412.441z"/>
<path style="fill:#777E84;" d="M477.546,226.724H173.204c-14.833,0-26.857,12.024-26.857,26.857v185.981
	c0,14.833,12.024,26.857,26.857,26.857h304.342c14.833,0,26.857-12.024,26.857-26.857v-185.98
	C504.403,238.749,492.379,226.724,477.546,226.724z"/>
<path style="fill:#62686D;" d="M170.148,439.562V253.582c0-14.833,12.024-26.857,26.857-26.857h-23.801
	c-14.833,0-26.857,12.024-26.857,26.857v185.981c0,14.833,12.024,26.857,26.857,26.857h23.801
	C182.172,466.419,170.148,454.395,170.148,439.562z"/>
<rect x="340" y="259.394" style="fill:#A1EA13;" width="131.92" height="59.68"/>
<polygon style="fill:#E4FC9A;" points="471.924,259.393 471.924,319.073 403.421,319.073 422.433,259.393 "/>
<path d="M479.775,219.207v-99.492c0-4.195-3.401-7.597-7.597-7.597h-22.02V45.581c0-4.195-3.401-7.597-7.597-7.597h-234.37
	c-4.195,0-7.597,3.401-7.597,7.597v66.537h-22.027c-4.195,0-7.597,3.401-7.597,7.597v53.31h-63.777
	c-11.274-12.437-27.549-20.262-45.618-20.262C27.623,152.763,0,180.385,0,214.338v198.103c0,33.953,27.623,61.575,61.575,61.575
	h415.971c18.998,0,34.454-15.456,34.454-34.455v-185.98C512,235.332,497.737,220.36,479.775,219.207z M464.581,127.311v91.812
	h-14.424v-91.812H464.581z M186.164,127.311h14.43v91.812h-14.43V127.311z M107.957,373.951v37.712
	c0,25.397-20.093,46.67-45.486,47.152c-25.983,0.492-47.277-20.5-47.277-46.374V215.117c0-25.397,20.093-46.67,45.486-47.152
	c25.983-0.492,47.277,20.5,47.277,46.374v124.159c0,4.195,3.401,7.597,7.597,7.597l0,0c4.195,0,7.597-3.401,7.597-7.597v-124.16
	c0-9.335-2.098-18.185-5.831-26.12h53.651v30.989c-17.96,1.156-32.22,16.126-32.22,34.374v185.981c0,7.129,2.177,13.759,5.9,19.261
	h-42.642c12.942-11.297,21.143-27.894,21.143-46.382v-38.49c0-4.195-3.401-7.597-7.597-7.597l0,0
	C111.358,366.354,107.957,369.755,107.957,373.951z M496.806,439.562c0,10.638-8.624,19.261-19.261,19.261H173.204
	c-10.637,0-19.26-8.623-19.26-19.26V253.582c0-10.637,8.623-19.26,19.26-19.26h152.171v-0.003h43.323
	c4.195,0,7.597-3.401,7.597-7.597l0,0c0-4.195-3.401-7.597-7.597-7.597H215.787V53.177h219.177v165.947h-30.812
	c-4.195,0-7.597,3.401-7.597,7.597l0,0c0,4.195,3.401,7.597,7.597,7.597h19.888v0.003h53.507c10.637,0,19.26,8.623,19.26,19.26
	L496.806,439.562L496.806,439.562z"/>
<path d="M244.971,89.103h160.808c4.195,0,7.597-3.401,7.597-7.597s-3.401-7.597-7.597-7.597H244.971
	c-4.195,0-7.597,3.401-7.597,7.597S240.776,89.103,244.971,89.103z"/>
<path d="M244.971,165.515h160.808c4.195,0,7.597-3.401,7.597-7.597s-3.401-7.597-7.597-7.597H244.971
	c-4.195,0-7.597,3.401-7.597,7.597S240.776,165.515,244.971,165.515z"/>
<path d="M413.376,196.124c0-4.195-3.401-7.597-7.597-7.597H244.971c-4.195,0-7.597,3.401-7.597,7.597s3.401,7.597,7.597,7.597
	h160.808C409.975,203.721,413.376,200.32,413.376,196.124z"/>
<path d="M244.971,127.309h160.808c4.195,0,7.597-3.401,7.597-7.597s-3.401-7.597-7.597-7.597H244.971
	c-4.195,0-7.597,3.401-7.597,7.597S240.776,127.309,244.971,127.309z"/>
<path d="M471.918,251.795H340.002c-4.195,0-7.597,3.401-7.597,7.597v59.686c0,4.195,3.401,7.597,7.597,7.597h131.916
	c4.195,0,7.597-3.401,7.597-7.597v-59.686C479.515,255.196,476.114,251.795,471.918,251.795z M464.322,311.481H347.599v-44.493
	h116.723V311.481z"/>
<path d="M363.574,340.563h-23.571c-4.195,0-7.597,3.401-7.597,7.597s3.401,7.597,7.597,7.597h23.571
	c4.195,0,7.597-3.401,7.597-7.597S367.769,340.563,363.574,340.563z"/>
<path d="M471.918,340.609h-23.571c-4.195,0-7.597,3.401-7.597,7.597s3.401,7.597,7.597,7.597h23.571
	c4.195,0,7.597-3.401,7.597-7.597S476.114,340.609,471.918,340.609z"/>
<path d="M417.747,340.516h-23.571c-4.195,0-7.597,3.401-7.597,7.597s3.401,7.597,7.597,7.597h23.571
	c4.195,0,7.597-3.401,7.597-7.597S421.942,340.516,417.747,340.516z"/>
<path d="M363.574,369.078h-23.571c-4.195,0-7.597,3.401-7.597,7.597s3.401,7.597,7.597,7.597h23.571
	c4.195,0,7.597-3.401,7.597-7.597S367.769,369.078,363.574,369.078z"/>
<path d="M471.918,369.125h-23.571c-4.195,0-7.597,3.401-7.597,7.597s3.401,7.597,7.597,7.597h23.571
	c4.195,0,7.597-3.401,7.597-7.597S476.114,369.125,471.918,369.125z"/>
<path d="M417.747,369.032h-23.571c-4.195,0-7.597,3.401-7.597,7.597s3.401,7.597,7.597,7.597h23.571
	c4.195,0,7.597-3.401,7.597-7.597S421.942,369.032,417.747,369.032z"/>
<path d="M363.574,397.594h-23.571c-4.195,0-7.597,3.401-7.597,7.597s3.401,7.597,7.597,7.597h23.571
	c4.195,0,7.597-3.401,7.597-7.597S367.769,397.594,363.574,397.594z"/>
<path d="M471.918,397.64h-23.571c-4.195,0-7.597,3.401-7.597,7.597s3.401,7.597,7.597,7.597h23.571c4.195,0,7.597-3.401,7.597-7.597
	S476.114,397.64,471.918,397.64z"/>
<path d="M417.747,397.546h-23.571c-4.195,0-7.597,3.401-7.597,7.597c0,4.195,3.401,7.597,7.597,7.597h23.571
	c4.195,0,7.597-3.401,7.597-7.597C425.343,400.948,421.942,397.546,417.747,397.546z"/>
<path d="M363.574,426.109h-23.571c-4.195,0-7.597,3.401-7.597,7.597s3.401,7.597,7.597,7.597h23.571
	c4.195,0,7.597-3.401,7.597-7.597S367.769,426.109,363.574,426.109z"/>
<path d="M471.918,426.156h-23.571c-4.195,0-7.597,3.401-7.597,7.597s3.401,7.597,7.597,7.597h23.571
	c4.195,0,7.597-3.401,7.597-7.597S476.114,426.156,471.918,426.156z"/>
<path d="M417.747,426.062h-23.571c-4.195,0-7.597,3.401-7.597,7.597c0,4.195,3.401,7.597,7.597,7.597h23.571
	c4.195,0,7.597-3.401,7.597-7.597C425.343,429.464,421.942,426.062,417.747,426.062z"/>
<g>
</g>
<g>
</g>
<g>
</g>
<g>
</g>
<g>
</g>
<g>
</g>
<g>
</g>
<g>
</g>
<g>
</g>
<g>
</g>
<g>
</g>
<g>
</g>
<g>
</g>
<g>
</g>
<g>
</g>
</svg>
