<?xml version="1.0" encoding="iso-8859-1"?>
<!-- Generator: Adobe Illustrator 19.0.0, SVG Export Plug-In . SVG Version: 6.00 Build 0)  -->
<svg version="1.1" id="Capa_1" xmlns="http://www.w3.org/2000/svg" xmlns:xlink="http://www.w3.org/1999/xlink" x="0px" y="0px"
	 viewBox="0 0 512 512" style="enable-background:new 0 0 512 512;" xml:space="preserve">
<rect x="407.132" y="257.25" style="fill:#E8313F;" width="84.882" height="65.333"/>
<polyline style="fill:#DADDE0;" points="346.572,65.8 426.684,65.8 426.684,156.993 426.684,222.326 426.684,429.133 
	426.684,504.403 368.877,504.403 350.969,504.403 77.714,504.403 77.714,446.211 "/>
<rect x="317.499" y="156.992" style="fill:#FFB600;" width="150.408" height="65.333"/>
<polygon style="fill:#E5EAF0;" points="368.951,370.932 368.951,446.209 19.981,446.209 19.981,7.597 288.325,7.597 368.951,88.151 
	368.951,194.369 "/>
<polyline style="fill:#F2F3F4;" points="368.951,88.151 288.325,88.151 288.325,7.597 "/>
<path d="M253.415,98.895c4.197,0,7.597-3.401,7.597-7.597c0-4.195-3.4-7.597-7.597-7.597H135.518c-4.197,0-7.597,3.401-7.597,7.597
	c0,4.196,3.4,7.597,7.597,7.597H253.415z"/>
<path d="M332.914,148.147H56.018c-4.197,0-7.597,3.401-7.597,7.597c0,4.196,3.4,7.597,7.597,7.597h276.896
	c4.197,0,7.597-3.401,7.597-7.597C340.511,151.549,337.111,148.147,332.914,148.147z"/>
<path d="M332.914,199.838H56.018c-4.197,0-7.597,3.401-7.597,7.597c0,4.196,3.4,7.597,7.597,7.597h276.896
	c4.197,0,7.597-3.401,7.597-7.597C340.511,203.24,337.111,199.838,332.914,199.838z"/>
<path d="M332.914,251.528H56.018c-4.197,0-7.597,3.401-7.597,7.597c0,4.195,3.4,7.597,7.597,7.597h276.896
	c4.197,0,7.597-3.401,7.597-7.597S337.111,251.528,332.914,251.528z"/>
<path d="M332.914,303.22H56.018c-4.197,0-7.597,3.401-7.597,7.597s3.4,7.597,7.597,7.597h276.896c4.197,0,7.597-3.401,7.597-7.597
	S337.111,303.22,332.914,303.22z"/>
<path d="M332.914,354.911H56.018c-4.197,0-7.597,3.401-7.597,7.597s3.4,7.597,7.597,7.597h276.896c4.197,0,7.597-3.401,7.597-7.597
	S337.111,354.911,332.914,354.911z"/>
<path d="M492.018,249.654H434.28v-19.732h33.626c4.195,0,7.597-3.401,7.597-7.597v-65.33c0-4.195-3.401-7.597-7.597-7.597H434.28
	V65.8c0-4.195-3.401-7.597-7.597-7.597h-76.959L293.693,2.222C292.269,0.799,290.338,0,288.324,0H19.982
	c-4.196,0-7.597,3.401-7.597,7.597v438.612c0,4.196,3.401,7.597,7.597,7.597h50.135v50.597c0,4.195,3.401,7.597,7.597,7.597h35.643
	c4.196,0,7.597-3.401,7.597-7.597l0,0c0-4.195-3.401-7.597-7.597-7.597H85.311v-43h283.64c4.196,0,7.597-3.401,7.597-7.597V284.377
	c0-4.195-3.401-7.597-7.597-7.597l0,0c-4.195,0-7.597,3.401-7.597,7.597v154.235H27.579V15.194h253.149v72.957
	c0,4.196,3.401,7.597,7.597,7.597h73.03v61.247v65.33v26.599c0,4.196,3.401,7.597,7.597,7.597l0,0c4.195,0,7.597-3.401,7.597-7.597
	v-19.002h42.538v266.884H148.811c-4.196,0-7.597,3.401-7.597,7.597l0,0c0,4.195,3.401,7.597,7.597,7.597h277.872
	c4.195,0,7.597-3.401,7.597-7.597V330.177h57.738c4.195,0,7.597-3.401,7.597-7.597v-65.33
	C499.615,253.055,496.214,249.654,492.018,249.654z M419.086,73.397v76.001h-42.538V88.151c0-2.016-0.801-3.949-2.227-5.375
	l-9.389-9.38H419.086z M295.921,25.926l54.678,54.629h-54.678V25.926z M376.548,164.592h83.761v50.136h-83.761V164.592z
	 M484.421,314.984h-50.136v-50.136h50.136V314.984z"/>
<g>
</g>
<g>
</g>
<g>
</g>
<g>
</g>
<g>
</g>
<g>
</g>
<g>
</g>
<g>
</g>
<g>
</g>
<g>
</g>
<g>
</g>
<g>
</g>
<g>
</g>
<g>
</g>
<g>
</g>
</svg>
