<?xml version="1.0" encoding="iso-8859-1"?>
<!-- Generator: Adobe Illustrator 19.0.0, SVG Export Plug-In . SVG Version: 6.00 Build 0)  -->
<svg version="1.1" id="Capa_1" xmlns="http://www.w3.org/2000/svg" xmlns:xlink="http://www.w3.org/1999/xlink" x="0px" y="0px"
	 viewBox="0 0 512 512" style="enable-background:new 0 0 512 512;" xml:space="preserve">
<polygon style="fill:#EFF1EE;" points="402.864,419.131 402.864,504.393 7.605,504.393 7.605,7.601 311.542,7.601 402.864,98.839 
	402.864,219.147 "/>
<polyline style="fill:#DBDBDB;" points="402.864,98.839 311.543,98.839 311.543,7.601 "/>
<path style="fill:#F01519;" d="M473.661,233.648l-66.762-66.762l19.249-19.249c15.314-15.314,40.144-15.314,55.459,0l11.304,11.304
	c15.314,15.314,15.314,40.144,0,55.459L473.661,233.648z"/>
<path style="fill:#C60E17;" d="M496.226,162.815c-1.103-1.462-2.312-2.869-3.644-4.201l-10.651-10.651
	c-15.495-15.495-40.617-15.495-56.112,0l-18.923,18.923l18.495,18.495l18.923-18.923
	C458.478,152.295,480.681,151.087,496.226,162.815z"/>
<rect x="301.714" y="197.429" transform="matrix(-0.7071 -0.7071 0.7071 -0.7071 389.4379 744.5417)" style="fill:#F8C300;" width="94.41" height="188.374"/>
<rect x="309.832" y="177.839" transform="matrix(-0.7071 -0.7071 0.7071 -0.7071 369.8424 697.2463)" style="fill:#D8A505;" width="38.987" height="188.374"/>
<rect x="329.43" y="197.434" transform="matrix(-0.7071 -0.7071 0.7071 -0.7071 389.4429 744.5538)" style="fill:#FCD351;" width="38.987" height="188.374"/>
<path style="fill:#D0DBDD;" d="M449.844,259.342l-68.639-68.639c-3.003-3.003-3.003-7.873,0-10.876l13.879-13.879
	c3.003-3.003,7.873-3.003,10.876,0l68.639,68.639c3.003,3.003,3.003,7.873,0,10.876l-13.879,13.879
	C457.717,262.345,452.847,262.345,449.844,259.342z"/>
<path style="fill:#FFCEB5;" d="M315.701,391.606l-34.565,12.581l-50.793,18.487c-4.489,1.631-8.895-0.194-11.269-3.526
	c-1.74-2.429-2.396-5.666-1.202-8.944l18.487-50.793l12.581-34.565L315.701,391.606z"/>
<path style="fill:#DBA189;" d="M219.074,419.147c-1.74-2.429-2.396-5.666-1.202-8.944l18.487-50.793l12.581-34.565l19.6,19.596
	L219.074,419.147z"/>
<path style="fill:#3E3D4C;" d="M281.137,404.186l-50.793,18.487c-4.821,1.753-9.55-0.48-11.769-4.288
	c-1.358-2.325-1.774-5.238-0.702-8.184l18.487-50.793L281.137,404.186z"/>
<path style="fill:#909899;" d="M403.215,201.708l13.751-13.751c3.039-3.039,7.965-3.039,11.003,0l-21.945-21.945
	c-3.039-3.039-7.965-3.039-11.003,0l-13.751,13.751c-3.039,3.039-3.039,7.965,0,11.003l21.945,21.945
	C400.176,209.673,400.175,204.746,403.215,201.708z"/>
<path style="fill:#2C3033;" d="M218.574,418.385c-1.358-2.325-1.774-5.238-0.702-8.184l18.487-50.793l13.398,13.398L218.574,418.385
	z"/>
<path d="M7.605,72.423L7.605,72.423c-4.199,0-7.604,3.405-7.604,7.604v424.366c0,4.199,3.405,7.604,7.604,7.604h303.507
	c4.199,0,7.604-3.405,7.604-7.604l0,0c0-4.199-3.405-7.604-7.604-7.604H15.209V80.027C15.209,75.827,11.804,72.423,7.605,72.423z"/>
<path d="M511.999,186.67c0-12.506-4.87-24.264-13.712-33.107l-11.304-11.302c-8.864-8.865-20.658-13.738-33.2-13.713
	c-12.627,0.024-24.665,5.366-33.594,14.294l-9.724,9.723V98.841c0-2.018-0.802-3.953-2.229-5.38L316.917,2.224
	C315.49,0.8,313.558,0,311.542,0H7.607C3.408,0,0.003,3.405,0.003,7.604V44.54c0,4.199,3.405,7.604,7.604,7.604l0,0
	c4.199,0,7.604-3.405,7.604-7.604V15.208h288.727v83.631c0,4.199,3.405,7.604,7.604,7.604h83.715v50.601
	c-2.025,0.739-3.928,1.904-5.55,3.526l-13.879,13.879c-4.381,4.381-5.531,10.775-3.475,16.228l-71.832,71.832H82.812
	c-4.199,0-7.604,3.405-7.604,7.604l0,0c0,4.199,3.405,7.604,7.604,7.604h202.502l-41.749,41.749
	c-0.812,0.813-1.394,1.765-1.762,2.779l-0.006-0.002l-31.153,85.591c-2.314,6.358-0.78,13.281,4.006,18.065
	c3.311,3.311,7.645,5.065,12.108,5.065c1.986,0,3.999-0.348,5.956-1.06l85.591-31.153l-0.003-0.008
	c1.034-0.376,1.986-0.967,2.779-1.76l74.177-74.176v173.986h-48.655c-4.199,0-7.604,3.405-7.604,7.604l0,0
	c0,4.199,3.405,7.604,7.604,7.604h56.259c4.199,0,7.604-3.405,7.604-7.604V307.598l39.405-39.405
	c1.741,0.656,3.575,0.997,5.412,0.997c3.917,0,7.833-1.49,10.815-4.472l13.878-13.878c2.89-2.889,4.48-6.73,4.48-10.815
	c0-1.883-0.353-3.708-1-5.417l14.831-14.831C507.129,210.934,511.999,199.176,511.999,186.67z M319.146,25.951l65.343,65.286
	h-65.343L319.146,25.951L319.146,25.951z M252.005,338.66l49.882,49.882l-18.799,6.843l-37.926-37.924L252.005,338.66z
	 M227.513,415.612c-0.995,0.359-1.696-0.055-2.11-0.467c-0.414-0.414-0.83-1.115-0.467-2.11l14.488-39.807l27.895,27.895
	L227.513,415.612z M315.703,380.852l-56.009-56.009l122.448-122.448l56.009,56.01l-115.92,115.918L315.703,380.852z
	 M469.222,240.086l-13.878,13.878c-0.034,0.033-0.088,0.033-0.123,0l-68.639-68.639c-0.033-0.032-0.033-0.088,0-0.121l13.879-13.879
	c0.034-0.033,0.088-0.033,0.122,0C400.583,171.324,469.251,240.056,469.222,240.086z M487.533,209.022l-13.873,13.874
	l-56.009-56.009l13.872-13.872c5.971-5.972,13.909-9.26,22.353-9.26c8.443,0,16.382,3.288,22.353,9.26l11.304,11.302
	c5.971,5.972,9.259,13.91,9.259,22.354C496.79,195.114,493.503,203.051,487.533,209.022z"/>
<path d="M327.652,133.252H82.817c-4.199,0-7.604,3.405-7.604,7.604l0,0c0,4.199,3.405,7.604,7.604,7.604h244.834
	c4.199,0,7.604-3.405,7.604-7.604l0,0C335.256,136.656,331.851,133.252,327.652,133.252z"/>
<path d="M82.817,213.09h244.834c4.199,0,7.604-3.405,7.604-7.604l0,0c0-4.199-3.405-7.604-7.604-7.604H82.817
	c-4.199,0-7.604,3.405-7.604,7.604l0,0C75.213,209.686,78.618,213.09,82.817,213.09z"/>
<g>
</g>
<g>
</g>
<g>
</g>
<g>
</g>
<g>
</g>
<g>
</g>
<g>
</g>
<g>
</g>
<g>
</g>
<g>
</g>
<g>
</g>
<g>
</g>
<g>
</g>
<g>
</g>
<g>
</g>
</svg>
