<?xml version="1.0" encoding="iso-8859-1"?>
<!-- Generator: Adobe Illustrator 19.0.0, SVG Export Plug-In . SVG Version: 6.00 Build 0)  -->
<svg version="1.1" id="Capa_1" xmlns="http://www.w3.org/2000/svg" xmlns:xlink="http://www.w3.org/1999/xlink" x="0px" y="0px"
	 viewBox="0 0 512 512" style="enable-background:new 0 0 512 512;" xml:space="preserve">
<path style="fill:#E5EAF0;" d="M424.304,7.603v429.441l-179.869,36.448L91.94,504.395c-18.564,0-35.384-7.574-47.54-19.73
	c-4.785-4.755-8.861-10.24-12.024-16.262c-4.938-9.348-7.705-20.014-7.705-31.359V7.603H424.304z"/>
<path style="fill:#D7DDE2;" d="M244.435,468.403v5.09L91.94,504.395c-18.564,0-35.384-7.574-47.54-19.73
	c-4.785-4.755-8.861-10.24-12.024-16.262H244.435z"/>
<path style="fill:#BBC1D0;" d="M424.303,437.041h63.026c0,37.216-30.139,67.355-67.355,67.355c-41.462,0-328.031,0-328.031,0
	c37.216,0,67.355-30.139,67.355-67.355H424.303z"/>
<path d="M487.329,429.437h-55.422V149.558c0-4.199-3.405-7.604-7.604-7.604l0,0c-4.199,0-7.604,3.405-7.604,7.604v279.88h-257.42
	c-4.232,0-7.579,3.461-7.585,7.693c-0.049,32.905-26.835,59.661-59.751,59.661c-15.901,0-30.875-6.216-42.181-17.523
	c-11.276-11.199-17.486-26.196-17.486-42.227v-65.967c0-4.199-3.405-7.604-7.604-7.604l0,0c-4.199,0-7.604,3.405-7.604,7.604v65.967
	c0,20.113,7.805,38.942,21.959,53C53.187,504.201,71.979,512,91.943,512h328.031c41.311,0,74.923-33.591,74.959-74.894
	C494.936,432.889,491.545,429.437,487.329,429.437z M419.974,496.792H137.157c16.157-12.257,27.212-30.906,29.36-52.147h257.784
	h54.94C475.496,474.015,450.344,496.792,419.974,496.792z"/>
<path d="M32.275,15.208h384.423v98.864c0,4.199,3.405,7.604,7.604,7.604l0,0c4.199,0,7.604-3.405,7.604-7.604V7.604
	c0-4.199-3.405-7.604-7.604-7.604H24.671c-4.199,0-7.604,3.405-7.604,7.604v327.984c0,4.199,3.405,7.604,7.604,7.604l0,0
	c4.199,0,7.604-3.405,7.604-7.604V15.208z"/>
<path d="M341.763,80.617c4.2,0,7.604-3.405,7.604-7.604s-3.404-7.604-7.604-7.604h-234.55c-4.199,0-7.604,3.405-7.604,7.604
	s3.405,7.604,7.604,7.604H341.763z"/>
<path d="M381.301,138.403H67.674c-4.199,0-7.604,3.405-7.604,7.604c0,4.199,3.405,7.604,7.604,7.604H381.3
	c4.2,0,7.604-3.405,7.604-7.604C388.904,141.808,385.501,138.403,381.301,138.403z"/>
<path d="M381.301,196.951H67.674c-4.199,0-7.604,3.405-7.604,7.604c0,4.199,3.405,7.604,7.604,7.604H381.3
	c4.2,0,7.604-3.405,7.604-7.604C388.904,200.355,385.501,196.951,381.301,196.951z"/>
<path d="M381.301,255.498H67.674c-4.199,0-7.604,3.405-7.604,7.604s3.405,7.604,7.604,7.604H381.3c4.2,0,7.604-3.405,7.604-7.604
	S385.501,255.498,381.301,255.498z"/>
<path d="M381.301,314.046H67.674c-4.199,0-7.604,3.405-7.604,7.604c0,4.199,3.405,7.604,7.604,7.604H381.3
	c4.2,0,7.604-3.405,7.604-7.604C388.904,317.45,385.501,314.046,381.301,314.046z"/>
<path d="M381.301,372.594H67.674c-4.199,0-7.604,3.405-7.604,7.604s3.405,7.604,7.604,7.604H381.3c4.2,0,7.604-3.405,7.604-7.604
	S385.501,372.594,381.301,372.594z"/>
<g>
</g>
<g>
</g>
<g>
</g>
<g>
</g>
<g>
</g>
<g>
</g>
<g>
</g>
<g>
</g>
<g>
</g>
<g>
</g>
<g>
</g>
<g>
</g>
<g>
</g>
<g>
</g>
<g>
</g>
</svg>
