<?xml version="1.0" encoding="iso-8859-1"?>
<!-- Generator: Adobe Illustrator 19.0.0, SVG Export Plug-In . SVG Version: 6.00 Build 0)  -->
<svg version="1.1" id="Capa_1" xmlns="http://www.w3.org/2000/svg" xmlns:xlink="http://www.w3.org/1999/xlink" x="0px" y="0px"
	 viewBox="0 0 512 512" style="enable-background:new 0 0 512 512;" xml:space="preserve">
<polygon style="fill:#E5EAF0;" points="453.63,419.134 453.63,504.396 58.371,504.396 58.371,7.604 362.309,7.604 453.63,98.843 
	453.63,219.15 "/>
<polyline style="fill:#F2F3F4;" points="453.629,98.843 362.309,98.843 362.309,7.604 "/>
<path d="M459.005,93.464L367.682,2.224C366.257,0.8,364.324,0,362.308,0H58.371c-4.199,0-7.604,3.405-7.604,7.604v59.858
	c0,4.199,3.405,7.604,7.604,7.604l0,0c4.199,0,7.604-3.405,7.604-7.604V15.208h288.729v83.635c0,4.199,3.405,7.604,7.604,7.604
	h83.718v390.345h-50.264c-4.199,0-7.604,3.405-7.604,7.604l0,0c0,4.199,3.405,7.604,7.604,7.604h57.868
	c4.199,0,7.604-3.405,7.604-7.604V98.843C461.234,96.825,460.432,94.89,459.005,93.464z M369.912,25.95l65.348,65.29h-65.348V25.95z
	"/>
<path d="M58.371,95.345L58.371,95.345c-4.199,0-7.604,3.405-7.604,7.604v401.448c0,4.199,3.405,7.604,7.604,7.604h301.906
	c4.199,0,7.604-3.405,7.604-7.604l0,0c0-4.199-3.405-7.604-7.604-7.604H65.974V102.949C65.974,98.748,62.57,95.345,58.371,95.345z"
	/>
<path d="M322.767,110.012c4.2,0,7.604-3.405,7.604-7.604c0-4.199-3.404-7.604-7.604-7.604H189.234c-4.2,0-7.604,3.405-7.604,7.604
	c0,4.199,3.404,7.604,7.604,7.604H322.767z"/>
<path d="M91.584,175.402c0,4.199,3.404,7.604,7.604,7.604h313.626c4.2,0,7.604-3.405,7.604-7.604c0-4.199-3.404-7.604-7.604-7.604
	H99.188C94.987,167.798,91.584,171.203,91.584,175.402z"/>
<path d="M99.188,241.553h313.626c4.2,0,7.604-3.405,7.604-7.604c0-4.199-3.404-7.604-7.604-7.604H99.188
	c-4.2,0-7.604,3.405-7.604,7.604C91.584,238.149,94.987,241.553,99.188,241.553z"/>
<path d="M99.188,300.102h313.626c4.2,0,7.604-3.405,7.604-7.604c0-4.199-3.404-7.604-7.604-7.604H99.188
	c-4.2,0-7.604,3.405-7.604,7.604C91.584,296.697,94.987,300.102,99.188,300.102z"/>
<path d="M99.188,358.649h313.626c4.2,0,7.604-3.405,7.604-7.604c0-4.199-3.404-7.604-7.604-7.604H99.188
	c-4.2,0-7.604,3.405-7.604,7.604C91.584,355.245,94.987,358.649,99.188,358.649z"/>
<path d="M99.188,417.197h313.626c4.2,0,7.604-3.405,7.604-7.604s-3.404-7.604-7.604-7.604H99.188c-4.2,0-7.604,3.405-7.604,7.604
	S94.987,417.197,99.188,417.197z"/>
<g>
</g>
<g>
</g>
<g>
</g>
<g>
</g>
<g>
</g>
<g>
</g>
<g>
</g>
<g>
</g>
<g>
</g>
<g>
</g>
<g>
</g>
<g>
</g>
<g>
</g>
<g>
</g>
<g>
</g>
</svg>
