<?xml version="1.0" encoding="iso-8859-1"?>
<!-- Generator: Adobe Illustrator 19.0.0, SVG Export Plug-In . SVG Version: 6.00 Build 0)  -->
<svg version="1.1" id="Capa_1" xmlns="http://www.w3.org/2000/svg" xmlns:xlink="http://www.w3.org/1999/xlink" x="0px" y="0px"
	 viewBox="0 0 512 512" style="enable-background:new 0 0 512 512;" xml:space="preserve">
<rect x="7.604" y="56.72" style="fill:#1E2128;" width="496.788" height="398.56"/>
<g>
	<rect x="32.939" y="82.114" style="fill:#E6EBEE;" width="32.445" height="32.445"/>
	<rect x="198.413" y="82.114" style="fill:#E6EBEE;" width="32.445" height="32.445"/>
	<rect x="363.884" y="82.114" style="fill:#E6EBEE;" width="32.445" height="32.445"/>
	<rect x="115.678" y="82.114" style="fill:#E6EBEE;" width="32.445" height="32.445"/>
	<rect x="281.149" y="82.114" style="fill:#E6EBEE;" width="32.445" height="32.445"/>
	<rect x="446.62" y="82.114" style="fill:#E6EBEE;" width="32.445" height="32.445"/>
	<rect x="32.939" y="397.445" style="fill:#E6EBEE;" width="32.445" height="32.445"/>
	<rect x="198.413" y="397.445" style="fill:#E6EBEE;" width="32.445" height="32.445"/>
	<rect x="363.884" y="397.445" style="fill:#E6EBEE;" width="32.445" height="32.445"/>
	<rect x="115.678" y="397.445" style="fill:#E6EBEE;" width="32.445" height="32.445"/>
	<rect x="281.149" y="397.445" style="fill:#E6EBEE;" width="32.445" height="32.445"/>
	<rect x="446.62" y="397.445" style="fill:#E6EBEE;" width="32.445" height="32.445"/>
</g>
<g>
	<path style="fill:#E4E9EF;" d="M389.84,162.89v186.221c0,11.143-9.033,20.175-20.175,20.175h-227.33
		c-11.143,0-20.175-9.033-20.175-20.175V162.89c0-11.143,9.033-20.175,20.175-20.175h227.329
		C380.807,142.715,389.84,151.747,389.84,162.89z"/>
	<path style="fill:#E4E9EF;" d="M7.604,369.285H58.9c11.143,0,20.175-9.033,20.175-20.175V162.89
		c0-11.143-9.033-20.175-20.175-20.175H7.604"/>
	<path style="fill:#E4E9EF;" d="M504.393,369.285h-51.286c-11.143,0-20.175-9.033-20.175-20.175V162.89
		c0-11.143,9.033-20.175,20.175-20.175h51.286"/>
</g>
<path d="M504.396,49.115H7.604c-4.2,0-7.604,3.405-7.604,7.604v398.562c0,4.2,3.405,7.604,7.604,7.604h496.791
	c4.2,0,7.604-3.405,7.604-7.604V56.719C512,52.519,508.595,49.115,504.396,49.115z M15.209,150.319h43.691
	c6.931,0,12.571,5.639,12.571,12.571v186.22c0,6.931-5.639,12.571-12.571,12.571H15.209V150.319z M15.209,447.678v-70.789h43.691
	c15.343,0,27.779-12.438,27.779-27.779V162.89c0-15.343-12.438-27.779-27.779-27.779H15.209V64.323h481.583v70.787h-43.685
	c-15.343,0-27.779,12.438-27.779,27.779v139.423c0,4.2,3.405,7.604,7.604,7.604l0,0c4.2,0,7.604-3.405,7.604-7.604V162.89
	c0-6.942,5.628-12.571,12.571-12.571h43.685V361.68h-43.685c-6.942,0-12.571-5.628-12.571-12.571v-11.308
	c0-4.2-3.405-7.604-7.604-7.604l0,0c-4.2,0-7.604,3.405-7.604,7.604v11.308c0,15.343,12.438,27.779,27.779,27.779h43.685v70.789
	L15.209,447.678L15.209,447.678z"/>
<path d="M114.555,217.146v131.966c0,15.343,12.438,27.779,27.779,27.779h227.329c15.343,0,27.779-12.438,27.779-27.779V162.89
	c0-15.343-12.438-27.779-27.779-27.779H142.336c-15.343,0-27.779,12.438-27.779,27.779v18.767c0,4.2,3.405,7.604,7.604,7.604l0,0
	c4.2,0,7.604-3.405,7.604-7.604V162.89c0-6.942,5.628-12.571,12.571-12.571h227.329c6.942,0,12.571,5.628,12.571,12.571v186.222
	c0,6.942-5.628,12.571-12.571,12.571H142.336c-6.942,0-12.571-5.628-12.571-12.571V217.146c0-4.2-3.405-7.604-7.604-7.604l0,0
	C117.96,209.541,114.555,212.945,114.555,217.146z"/>
<path d="M65.384,74.51H32.939c-4.2,0-7.604,3.405-7.604,7.604v32.445c0,4.2,3.405,7.604,7.604,7.604h32.445
	c4.2,0,7.604-3.405,7.604-7.604V82.114C72.989,77.915,69.584,74.51,65.384,74.51z M57.78,106.955H40.543V89.719H57.78V106.955z"/>
<path d="M198.41,122.164h32.445c4.2,0,7.604-3.405,7.604-7.604V82.114c0-4.2-3.405-7.604-7.604-7.604H198.41
	c-4.2,0-7.604,3.405-7.604,7.604v32.445C190.806,118.759,194.209,122.164,198.41,122.164z M206.014,89.719h17.237v17.237h-17.237
	V89.719z"/>
<path d="M396.326,74.51h-32.445c-4.2,0-7.604,3.405-7.604,7.604v32.445c0,4.2,3.405,7.604,7.604,7.604h32.445
	c4.2,0,7.604-3.405,7.604-7.604V82.114C403.931,77.915,400.526,74.51,396.326,74.51z M388.722,106.955h-17.237V89.719h17.237
	V106.955z"/>
<path d="M115.674,122.164h32.445c4.2,0,7.604-3.405,7.604-7.604V82.114c0-4.2-3.405-7.604-7.604-7.604h-32.445
	c-4.2,0-7.604,3.405-7.604,7.604v32.445C108.069,118.759,111.474,122.164,115.674,122.164z M123.278,89.719h17.237v17.237h-17.237
	V89.719z"/>
<path d="M281.146,122.164h32.445c4.2,0,7.604-3.405,7.604-7.604V82.114c0-4.2-3.405-7.604-7.604-7.604h-32.445
	c-4.2,0-7.604,3.405-7.604,7.604v32.445C273.541,118.759,276.946,122.164,281.146,122.164z M288.75,89.719h17.237v17.237H288.75
	V89.719z"/>
<path d="M446.617,122.164h32.445c4.2,0,7.604-3.405,7.604-7.604V82.114c0-4.2-3.405-7.604-7.604-7.604h-32.445
	c-4.2,0-7.604,3.405-7.604,7.604v32.445C439.012,118.759,442.417,122.164,446.617,122.164z M454.221,89.719h17.237v17.237h-17.237
	V89.719z"/>
<path d="M65.384,389.838H32.939c-4.2,0-7.604,3.405-7.604,7.604v32.445c0,4.2,3.405,7.604,7.604,7.604h32.445
	c4.2,0,7.604-3.405,7.604-7.604v-32.445C72.989,393.243,69.584,389.838,65.384,389.838z M57.78,422.283H40.543v-17.237H57.78
	V422.283z"/>
<path d="M230.855,389.838H198.41c-4.2,0-7.604,3.405-7.604,7.604v32.445c0,4.2,3.405,7.604,7.604,7.604h32.445
	c4.2,0,7.604-3.405,7.604-7.604v-32.445C238.46,393.243,235.055,389.838,230.855,389.838z M223.251,422.283h-17.237v-17.237h17.237
	V422.283z"/>
<path d="M396.326,389.838h-32.445c-4.2,0-7.604,3.405-7.604,7.604v32.445c0,4.2,3.405,7.604,7.604,7.604h32.445
	c4.2,0,7.604-3.405,7.604-7.604v-32.445C403.931,393.243,400.526,389.838,396.326,389.838z M388.722,422.283h-17.237v-17.237h17.237
	V422.283z"/>
<path d="M148.119,389.838h-32.445c-4.2,0-7.604,3.405-7.604,7.604v32.445c0,4.2,3.405,7.604,7.604,7.604h32.445
	c4.2,0,7.604-3.405,7.604-7.604v-32.445C155.723,393.243,152.32,389.838,148.119,389.838z M140.515,422.283h-17.237v-17.237h17.237
	V422.283z"/>
<path d="M313.591,389.838h-32.445c-4.2,0-7.604,3.405-7.604,7.604v32.445c0,4.2,3.405,7.604,7.604,7.604h32.445
	c4.2,0,7.604-3.405,7.604-7.604v-32.445C321.195,393.243,317.791,389.838,313.591,389.838z M305.987,422.283H288.75v-17.237h17.237
	V422.283z"/>
<path d="M479.062,389.838h-32.445c-4.2,0-7.604,3.405-7.604,7.604v32.445c0,4.2,3.405,7.604,7.604,7.604h32.445
	c4.2,0,7.604-3.405,7.604-7.604v-32.445C486.666,393.243,483.262,389.838,479.062,389.838z M471.458,422.283h-17.237v-17.237h17.237
	V422.283z"/>
<g>
</g>
<g>
</g>
<g>
</g>
<g>
</g>
<g>
</g>
<g>
</g>
<g>
</g>
<g>
</g>
<g>
</g>
<g>
</g>
<g>
</g>
<g>
</g>
<g>
</g>
<g>
</g>
<g>
</g>
</svg>
