<?xml version="1.0" encoding="iso-8859-1"?>
<!-- Generator: Adobe Illustrator 19.0.0, SVG Export Plug-In . SVG Version: 6.00 Build 0)  -->
<svg version="1.1" id="Capa_1" xmlns="http://www.w3.org/2000/svg" xmlns:xlink="http://www.w3.org/1999/xlink" x="0px" y="0px"
	 viewBox="0 0 512.001 512.001" style="enable-background:new 0 0 512.001 512.001;" xml:space="preserve">
<path style="fill:#F4D44E;" d="M391.393,150.114c-0.082-17.606-0.138-13.856-0.104-88.831c0-21.331-16.183-39.644-37.458-41.175
	c-23.693-1.704-43.443,17.012-43.443,40.342c0-7.396,0-5.191,0-12.568c0-22.276-18.226-40.502-40.503-40.502
	c-22.276,0-40.502,18.226-40.502,40.502v10.184c0-22.276-18.227-40.502-40.503-40.502h-0.001c-22.276,0-40.503,18.226-40.503,40.502
	c0,0.177,0,8.189,0,7.854c-0.292-1.188-1.07-13.379-11.903-23.977c-25.938-25.447-68.79-6.284-68.79,28.909
	c0,37.868,0,153.264,0,201.23c0.767,5.238-5.804,53.537,29.987,101.339c9.393,12.545,14.222,27.924,14.222,43.595
	c0,17.052,0,37.571,0,53.077c0,19.006,15.407,34.413,34.413,34.413h190.141c18.865,0,34.158-15.293,34.158-34.158v-75.353
	c3.529-3.121,28.184-18.343,46.16-49.205c9.438-16.204,12.514-27.393,15.146-40.588c10.414-52.187,11.944-83.838,12.248-86.502
	C446.671,185.564,423.728,156.156,391.393,150.114z"/>
<path style="fill:#E8C842;" d="M152.425,470.094c0-15.506,0-36.025,0-53.077c0-15.672-4.829-31.05-14.222-43.595
	c-35.791-47.802-29.22-96.101-29.987-101.339c0-47.966,0-163.362,0-201.23c0-14.917,8.173-27.993,20.234-35.02
	c-27.054-15.798-60.769,4.185-60.769,35.02c0,37.868,0,153.264,0,201.23c0.767,5.238-5.804,53.537,29.987,101.339
	c9.393,12.545,14.222,27.924,14.222,43.595c0,17.052,0,37.571,0,53.077c0,19.006,15.407,34.413,34.413,34.413h40.533
	C167.832,504.508,152.425,489.1,152.425,470.094z"/>
<path style="fill:#F4D44E;" d="M188.878,17.563L188.878,17.563c-22.277,0-40.503,18.226-40.503,40.502v129.102
	c0,22.276,18.226,40.502,40.502,40.502h0.001c22.276,0,40.502-18.226,40.502-40.502V58.067
	C229.381,35.79,211.154,17.563,188.878,17.563z"/>
<path style="fill:#DBBC3B;" d="M188.878,187.167V58.067c0-14.91,8.172-27.997,20.251-35.027
	c-26.693-15.535-60.755,3.809-60.755,35.027v129.101c0,31.005,33.855,50.682,60.755,35.027
	C197.05,215.164,188.878,202.078,188.878,187.167z"/>
<path style="fill:#F4D44E;" d="M108.186,30.35L108.186,30.35c-22.277,0-40.502,18.226-40.502,40.502v116.315
	c0,22.276,18.226,40.502,40.502,40.502l0,0c22.277,0,40.502-18.226,40.502-40.502V70.853
	C148.688,48.576,130.462,30.35,108.186,30.35z"/>
<path style="fill:#DBBC3B;" d="M107.872,187.167V70.853c0-14.974,8.242-28.109,20.408-35.118
	c-26.964-15.533-60.598,4.253-60.598,35.118v116.314c0,30.872,33.643,50.644,60.598,35.118
	C116.114,215.277,107.872,202.143,107.872,187.167z"/>
<path style="fill:#F4D44E;" d="M277.817,206.676c-25.958-14.235-41.28-38.656-28.086-66.185
	c11.638-24.281,24.727-22.529,60.656-9.956V47.883c0-22.276-18.226-40.502-40.502-40.502c-22.276,0-40.502,18.226-40.502,40.502
	v139.285c0,35.402,42.844,53.978,68.599,29.091C286.235,211.217,279.037,207.346,277.817,206.676z"/>
<path style="fill:#DBBC3B;" d="M269.352,201.389c-20.62-14.589-31.303-36.521-19.621-60.898
	c4.907-10.24,10.081-15.836,17.108-17.956V47.883c0-15.529,8.861-29.081,21.774-35.871c-26.767-14.077-59.232,5.54-59.232,35.871
	v139.285c0,31.428,33.764,49.591,59.364,35.862C280.069,218.555,272.94,211.044,269.352,201.389z"/>
<path style="fill:#F4D44E;" d="M391.289,150.098c0-0.197,0-7.421,0-6.96c0-17.222,0-64.668,0-81.855
	c0-21.331-16.183-39.644-37.458-41.175c-23.692-1.704-43.442,17.011-43.443,40.34v70.087c-12.064-4.221,32.353,12.831,77.848,19.067
	C389.262,149.744,390.279,149.911,391.289,150.098z"/>
<path style="fill:#DBBC3B;" d="M349.834,61.283c0-15.235,8.258-28.926,20.727-36.067c-26.242-15.029-60.173,3.92-60.175,35.232
	v70.087c-8.521-2.981,11.137,4.649,39.448,11.587C349.834,124.135,349.834,78.149,349.834,61.283z"/>
<path style="fill:#E8C842;" d="M350.199,246.09c0.077-6.929-4.459-13.076-11.105-15.036c-35.394-10.439-58.973-23.112-61.277-24.376
	c-25.958-14.235-41.28-38.656-28.086-66.185c4.979-10.39,10.377-15.803,17.108-17.882c0,0-10.564,25.939,12.414,37.427
	c22.978,11.489,70.58,21.812,85.749,50.95c10.428,20.03,3.834,41.012-5.406,55.589c-2.81,4.433-9.654,2.445-9.596-2.803
	L350.199,246.09z"/>
<path d="M146.289,512.001h146.599c4.139,0,7.493-3.354,7.493-7.493s-3.354-7.493-7.493-7.493H146.289
	c-14.843,0-26.921-12.077-26.921-26.921v-53.078c0-17.472-5.582-34.549-15.717-48.086c-17.077-22.809-26.864-49.919-28.3-78.399
	c-0.209-4.132-3.701-7.315-7.86-7.105c-4.133,0.208-7.314,3.727-7.105,7.86c1.587,31.467,12.4,61.422,31.27,86.625
	c8.208,10.962,12.728,24.85,12.728,39.105v53.078C104.383,493.202,123.183,512.001,146.289,512.001z"/>
<path d="M67.667,263.436c4.139,0,7.493-3.354,7.493-7.493v-33.984c21.727,20.625,56.906,16.644,73.356-8.845
	c19.03,29.489,61.998,29.357,80.85-0.245c15.217,23.896,47.62,29.616,69.968,12.11c20.585,8.513,47.547,16.691,50.987,16.691
	c8.742-0.001,10.349-12.538,1.886-14.745c-28.521-7.439-56.174-18.801-70.8-26.818c0,0-0.002,0-0.002-0.001
	c-28.424-15.597-33.786-37.883-24.932-56.377c9.143-19.076,15.337-17.56,49.308-6.867c30.883,10.847,63.012,18.085,84.219,20.617
	c28.822,5.385,48.886,31.461,46.672,60.656c-0.369,3.368-1.79,33.817-12.124,85.599c-2.26,11.337-4.572,21.631-14.274,38.287
	c-6.992,12.004-15.862,22.958-26.463,32.694c-2.147,1.939-13.775,11.699-35.256,16.893c-4.022,0.973-6.495,5.021-5.522,9.044
	c0.964,3.987,4.982,6.501,9.044,5.522c3.957-0.957,7.622-2.054,11.018-3.229v67.405c0,14.704-11.962,26.665-26.664,26.665h-8.577
	c-4.139,0-7.493,3.354-7.493,7.493s3.354,7.493,7.493,7.493h8.577c22.966,0,41.649-18.685,41.649-41.65v-71.63
	c1.436-1.918,48.846-30.47,61.162-92.05c10.388-52.049,12.134-85.23,12.372-87.402c2.635-34.763-19.762-66.021-52.848-75.133
	v-32.617c0-4.138-3.354-7.493-7.493-7.493c-4.139,0-7.493,3.355-7.493,7.493v29.862c-27.394-4.24-52.106-11.615-65.916-16.21V60.45
	c0-19.126,16.158-34.248,35.412-32.869c17.104,1.23,30.503,16.033,30.503,33.701v15.269c0,4.138,3.354,7.493,7.493,7.493
	c4.139,0,7.493-3.355,7.493-7.493V61.283c0-45.386-55.778-65.923-84.558-31.777c-16.127-38.672-70.57-39.473-87.998-1.554
	c-23.055-28.564-67.881-21.434-81.653,11.658C115.653,5.994,60.175,26.368,60.175,70.853c0,7.9,0,178.007,0,185.09
	C60.175,260.082,63.529,263.436,67.667,263.436z M236.859,47.883c0-18.202,14.808-33.01,33.01-33.01s33.011,14.809,33.011,33.01
	c0,22.664,0,49.515,0,72.374c-27.15-8.355-45.012-11.479-58.557,14.286c-15.019,28.543-7.044,61.146,38.372,83.022
	c-21.536,9.18-45.835-6.707-45.835-30.397C236.859,166.378,236.859,64.338,236.859,47.883z M155.853,58.067
	c0-18.202,14.809-33.01,33.01-33.01c18.222,0,33.01,14.827,33.01,33.01v129.102c0,18.202-14.809,33.01-33.011,33.01
	c-17.044,0-31.112-12.985-32.833-29.581C156.264,187.307,156.254,74.17,155.853,58.067z M75.832,64.209
	c3.192-15.557,17.599-28,36.294-26.117c14.858,1.776,26.757,13.579,28.741,28.373c0.058,127.82-0.126,120.439,0.136,124.132
	c-1.721,16.597-15.789,29.581-32.833,29.581c-18.202,0-33.01-14.809-33.01-33.01C75.392,66.153,74.617,70.132,75.832,64.209z"/>
<g>
</g>
<g>
</g>
<g>
</g>
<g>
</g>
<g>
</g>
<g>
</g>
<g>
</g>
<g>
</g>
<g>
</g>
<g>
</g>
<g>
</g>
<g>
</g>
<g>
</g>
<g>
</g>
<g>
</g>
</svg>
