<?xml version="1.0" encoding="iso-8859-1"?>
<!-- Generator: Adobe Illustrator 19.0.0, SVG Export Plug-In . SVG Version: 6.00 Build 0)  -->
<svg version="1.1" id="Capa_1" xmlns="http://www.w3.org/2000/svg" xmlns:xlink="http://www.w3.org/1999/xlink" x="0px" y="0px"
	 viewBox="0 0 512.001 512.001" style="enable-background:new 0 0 512.001 512.001;" xml:space="preserve">
<path style="fill:#46464F;" d="M340.439,279.032L124.572,494.9c-12.587,12.587-32.994,12.587-45.582,0l-61.882-61.882
	c-12.587-12.587-12.587-32.994,0-45.582l215.867-215.867L340.439,279.032z"/>
<path style="fill:#30303A;" d="M51.877,467.786L78.99,494.9c12.587,12.587,32.994,12.587,45.581,0l215.867-215.867l-27.113-27.113
	L97.459,467.785C84.871,480.373,64.464,480.373,51.877,467.786z"/>
<rect x="94.866" y="265.156" transform="matrix(-0.7071 0.7071 -0.7071 -0.7071 532.8872 461.5549)" style="fill:#6C848A;" width="151.972" height="151.972"/>
<rect x="135.039" y="362.153" transform="matrix(-0.7071 0.7071 -0.7071 -0.7071 629.8801 501.7455)" style="fill:#495C67;" width="151.972" height="38.344"/>
<path style="fill:#46464F;" d="M504.331,173.292l-94.624,94.624c-22.197,22.197-58.186,22.197-80.383,0l-85.233-85.233
	c-22.197-22.197-22.197-58.186,0-80.383l94.624-94.624L504.331,173.292z"/>
<path style="fill:#30303A;" d="M287.026,225.62l42.297,42.297c22.197,22.197,58.186,22.198,80.384,0l94.624-94.624l-42.297-42.297
	L367.41,225.62C345.212,247.817,309.223,247.817,287.026,225.62z"/>
<rect x="389.42" y="-13.318" transform="matrix(-0.7071 0.7071 -0.7071 -0.7071 770.2721 -111.4771)" style="fill:#FFE40E;" width="37.608" height="234.217"/>
<rect x="451.083" y="135.527" transform="matrix(-0.7071 0.7071 -0.7071 -0.7071 919.1293 -49.842)" style="fill:#D1B409;" width="37.608" height="59.82"/>
<circle style="fill:#CFD9DB;" cx="255.887" cy="256.122" r="17.638"/>
<path d="M509.753,167.87L344.138,2.254c-2.995-2.995-7.851-2.995-10.845,0l-94.625,94.624
	c-19.318,19.319-23.781,47.937-13.423,71.572l-59.786,59.789c-0.009,0.009-0.019,0.016-0.029,0.026L57.967,335.727
	c-0.027,0.027-0.05,0.057-0.077,0.085l-46.203,46.205C4.152,389.547,0,399.565,0,410.224c0,10.658,4.151,20.678,11.687,28.214
	l61.875,61.887c7.779,7.779,17.997,11.669,28.216,11.669c10.218,0,20.437-3.89,28.217-11.67l74.481-74.49
	c2.995-2.995,2.994-7.851-0.001-10.845l0,0c-2.995-2.995-7.851-2.994-10.845,0.001l-22.775,22.778l-96.613-96.613l96.614-96.618
	l96.618,96.61l-48.549,48.549c-2.995,2.995-2.995,7.851,0,10.845l0,0c2.995,2.995,7.851,2.995,10.845,0l113.755-113.755
	c8.085,3.561,16.89,5.45,25.991,5.45c17.231,0,33.431-6.71,45.615-18.895l94.624-94.624
	C512.75,175.721,512.75,170.865,509.753,167.87z M160.009,448.612l-40.861,40.866c-9.578,9.577-25.162,9.577-34.74,0l-61.875-61.887
	c-4.639-4.638-7.195-10.806-7.195-17.367c0-6.56,2.554-12.725,7.195-17.361l40.863-40.864L160.009,448.612z M329.59,279.028
	l-51.27,51.27l-96.618-96.61l51.274-51.276l5.683,5.683c0.003,0.003,0.007,0.007,0.01,0.01l85.234,85.233
	c0.003,0.003,0.007,0.006,0.01,0.009L329.59,279.028z M404.894,261.884c-9.376,9.376-22.017,14.985-35.275,15.012
	c-13.168,0.027-25.552-5.087-34.861-14.392l-85.264-85.263c-19.152-19.173-19.146-50.352,0.019-69.517l11.164-11.163l24.543,24.543
	c2.995,2.995,7.851,2.995,10.845,0l0,0c2.995-2.995,2.995-7.851,0-10.845l-24.543-24.543l40.599-40.599l154.771,154.771
	l-40.599,40.599L321.351,135.541c-2.995-2.995-7.851-2.995-10.845,0l0,0c-2.995,2.995-2.995,7.851,0,10.845l104.943,104.944
	L404.894,261.884z M477.738,189.04L322.967,34.269l15.748-15.747l154.771,154.771L477.738,189.04z"/>
<path d="M273.783,238.224c-9.867-9.867-25.923-9.868-35.79,0c-9.867,9.867-9.867,25.923,0,35.791
	c4.934,4.933,11.415,7.399,17.895,7.399c6.481,0,12.962-2.466,17.895-7.4c4.78-4.779,7.413-11.136,7.413-17.895
	S278.563,243.004,273.783,238.224L273.783,238.224z M262.938,263.169c-3.887,3.887-10.211,3.888-14.098,0
	c-3.887-3.887-3.887-10.211,0-14.099c1.944-1.943,4.496-2.915,7.05-2.915c2.552,0,5.106,0.971,7.05,2.915l0,0
	c1.883,1.883,2.919,4.386,2.919,7.049C265.858,258.781,264.82,261.286,262.938,263.169z"/>
<g>
</g>
<g>
</g>
<g>
</g>
<g>
</g>
<g>
</g>
<g>
</g>
<g>
</g>
<g>
</g>
<g>
</g>
<g>
</g>
<g>
</g>
<g>
</g>
<g>
</g>
<g>
</g>
<g>
</g>
</svg>
