<?xml version="1.0" encoding="iso-8859-1"?>
<!-- Generator: Adobe Illustrator 19.0.0, SVG Export Plug-In . SVG Version: 6.00 Build 0)  -->
<svg version="1.1" id="Capa_1" xmlns="http://www.w3.org/2000/svg" xmlns:xlink="http://www.w3.org/1999/xlink" x="0px" y="0px"
	 viewBox="0 0 512 512" style="enable-background:new 0 0 512 512;" xml:space="preserve">
<path style="fill:#CFECF8;" d="M504.392,152.694c0,0-140.185-80.26-234.989-121.928c-1.791-0.802-3.573-1.61-5.395-2.353
	c-0.468-0.202-0.954-0.42-1.42-0.619l0.047,0.117c-20.5-8.171-42.801-12.795-66.214-12.795c-98.909,0-179.09,80.182-179.09,179.09
	s80.183,179.089,179.091,179.089s179.09-80.182,179.09-179.09c0-18.145-2.749-35.639-7.766-52.145l122.415,30.796L504.392,152.694z"
	/>
<path style="fill:#B5D7E2;" d="M76.72,194.204c0-88.741,64.549-162.394,149.254-176.601c-9.609-1.627-19.477-2.488-29.554-2.488
	c-98.909,0-179.09,80.181-179.09,179.089s80.183,179.09,179.091,179.09c10.117,0,20.035-0.853,29.695-2.465
	C141.342,356.681,76.72,282.995,76.72,194.204z"/>
<path style="fill:#E12DE1;" d="M338.609,188.654c0.089,1.702,0.089,3.405,0.089,5.197c0,78.488-63.793,142.28-142.28,142.28
	c-78.397,0-142.191-63.793-142.191-142.28c0-1.702,0.089-5.197,0.089-5.197h0.448L338.609,188.654L338.609,188.654z"/>
<path style="fill:#C41FC9;" d="M195.297,336.119C117.365,335.57,54.139,271.994,54.139,193.85c0-1.705,0.089-5.194,0.089-5.194
	h60.221c0,0-0.056,3.489-0.056,5.194C114.393,271.726,150.589,335.132,195.297,336.119z"/>
<circle style="fill:#EDF8FC;" cx="287.033" cy="104.904" r="23.756"/>
<path style="fill:#CED5D8;" d="M366.913,265.259H26.015c-10.168,0-18.411,8.243-18.411,18.411l0,0
	c0,10.168,8.243,18.411,18.411,18.411h340.899c10.168,0,18.411-8.243,18.411-18.411l0,0
	C385.324,273.502,377.081,265.259,366.913,265.259z"/>
<path style="fill:#B6BDBF;" d="M88.374,283.67c0-10.168,8.243-18.411,18.411-18.411h-80.77c-10.168,0-18.411,8.243-18.411,18.411
	s8.243,18.411,18.411,18.411h80.771C96.617,302.08,88.374,293.838,88.374,283.67z"/>
<g>
	<polygon style="fill:#CED5D8;" points="111.626,302.08 102.396,327.725 41.546,496.879 11.851,496.879 43.826,327.725 
		48.672,302.08 	"/>
	<polygon style="fill:#CED5D8;" points="381.079,496.879 351.384,496.879 290.532,327.725 281.303,302.08 344.257,302.08 
		349.103,327.725 	"/>
</g>
<g>
	<polygon style="fill:#B6BDBF;" points="48.672,302.08 111.626,302.08 102.396,327.725 43.826,327.725 	"/>
	<polygon style="fill:#B6BDBF;" points="349.103,327.725 290.532,327.725 281.303,302.08 344.257,302.08 	"/>
</g>
<path d="M511.821,151.046c-0.463-2.092-1.787-3.89-3.646-4.955c-1.405-0.805-141.622-80.938-235.688-122.279l-0.977-0.435
	c-1.461-0.652-2.972-1.325-4.53-1.967l-0.151-0.065c-0.417-0.182-0.848-0.37-1.269-0.55c-0.432-0.185-0.875-0.324-1.322-0.425
	C242.409,11.841,219.6,7.516,196.424,7.516C93.476,7.516,9.723,91.264,9.723,194.205c0,22.053,3.79,43.512,11.256,63.944
	C9.036,260.501,0,271.048,0,283.67c0,14.345,11.67,26.016,26.015,26.016h13.477L4.375,495.468c-0.421,2.223,0.172,4.521,1.617,6.264
	c1.445,1.744,3.591,2.753,5.855,2.753h29.695c3.207,0,6.069-2.011,7.155-5.03l52.119-144.873
	c28.847,17.24,61.698,26.311,95.608,26.311c33.934,0,66.808-9.086,95.675-26.351l29.929,83.188c1.421,3.952,5.778,6.003,9.729,4.582
	c3.952-1.421,6.002-5.777,4.581-9.729l-44.215-122.897h45.832l33.949,179.587h-15.174l-8.42-23.402
	c-1.421-3.951-5.778-6.002-9.729-4.581c-3.952,1.421-6.002,5.777-4.581,9.73l10.23,28.431c1.086,3.018,3.948,5.03,7.155,5.03h29.483
	c1.4,0,2.803-0.304,4.011-1.011c2.888-1.691,4.256-4.918,3.673-8.005l-35.12-185.778h13.48c14.345,0,26.016-11.67,26.016-26.016
	c0-12.651-9.078-23.214-21.06-25.536c7.458-20.436,11.244-41.888,11.244-63.93c0-14.021-1.58-27.969-4.705-41.621l109.893,27.649
	c3.049,0.769,6.253-0.42,8.067-2.988l14.242-20.169C511.843,155.328,512.283,153.138,511.821,151.046z M36.196,489.276H21.022
	l33.947-179.591h45.835L36.196,489.276z M196.423,365.685c-32.15,0-63.261-8.872-90.354-25.707l7.639-21.234
	c24.42,16.212,53.199,24.996,82.714,24.996c29.55,0,58.357-8.787,82.793-25.005l7.627,21.201
	C259.729,356.798,228.597,365.685,196.423,365.685z M127.864,309.685h137.177c-20.658,12.253-44.36,18.846-68.618,18.846
	C172.191,328.531,148.509,321.939,127.864,309.685z M377.721,283.67c0,5.959-4.848,10.808-10.808,10.808H26.015
	c-5.958,0-10.807-4.848-10.807-10.808s4.848-10.807,10.807-10.807h340.899C372.873,272.863,377.721,277.71,377.721,283.67z
	 M486.952,164.213l-117.357-29.528c-2.659-0.667-5.472,0.145-7.363,2.131c-1.891,1.985-2.566,4.835-1.768,7.457
	c4.936,16.22,7.439,33.018,7.439,49.931c0,21.958-4.08,43.277-12.123,63.45h-23.768c9.366-19.871,14.289-41.683,14.289-63.807
	c0-1.879,0-3.654-0.09-5.524c-0.196-4.063-3.529-7.27-7.597-7.27H152.471c-4.199,0-7.604,3.405-7.604,7.604l0,0
	c0,4.199,3.405,7.604,7.604,7.604h178.602c-0.385,21.482-5.911,42.572-16.07,61.394H77.927
	c-10.159-18.821-15.684-39.911-16.07-61.394h55.127c4.199,0,7.604-3.405,7.604-7.604l0,0c0-4.199-3.405-7.604-7.604-7.604h-62.67
	c-4.129,0-7.505,3.294-7.602,7.422c0,0-0.085,3.613-0.085,5.372c0,22.123,4.922,43.936,14.289,63.807H37.062
	c-8.049-20.165-12.132-41.484-12.132-63.45c0-94.555,76.931-171.481,171.493-171.481c21.668,0,42.997,4.122,63.392,12.252
	c0.297,0.119,0.599,0.218,0.904,0.297c0.006,0.003,0.013,0.005,0.02,0.008l0.228,0.1c0.049,0.021,0.098,0.043,0.148,0.064
	c1.382,0.569,2.752,1.178,4.202,1.825l1.023,0.455c81.093,35.639,197.039,100.496,227.001,117.436L486.952,164.213z"/>
<path d="M243.075,247.913c3.563,0,6.701-2.554,7.44-6.033c0.658-3.103-0.75-6.395-3.463-8.046c-2.8-1.704-6.449-1.406-8.936,0.726
	C232.878,239.05,236.2,247.913,243.075,247.913z"/>
<path d="M210.371,223.183c3.588,0,6.747-2.603,7.452-6.113c0.613-3.058-0.762-6.248-3.389-7.916
	c-2.774-1.761-6.505-1.494-8.999,0.645C200.192,214.292,203.459,223.183,210.371,223.183z"/>
<path d="M118.288,224.935c-2.296,1.869-3.299,5.059-2.5,7.907c0.914,3.259,3.937,5.571,7.328,5.571c3.8,0,7.063-2.909,7.542-6.668
	C131.509,225.073,123.492,220.704,118.288,224.935z"/>
<g>
</g>
<g>
</g>
<g>
</g>
<g>
</g>
<g>
</g>
<g>
</g>
<g>
</g>
<g>
</g>
<g>
</g>
<g>
</g>
<g>
</g>
<g>
</g>
<g>
</g>
<g>
</g>
<g>
</g>
</svg>
