<?xml version="1.0" encoding="iso-8859-1"?>
<!-- Generator: Adobe Illustrator 19.0.0, SVG Export Plug-In . SVG Version: 6.00 Build 0)  -->
<svg version="1.1" id="Capa_1" xmlns="http://www.w3.org/2000/svg" xmlns:xlink="http://www.w3.org/1999/xlink" x="0px" y="0px"
	 viewBox="0 0 512.001 512.001" style="enable-background:new 0 0 512.001 512.001;" xml:space="preserve">
<circle style="fill:#F4D44E;" cx="256.037" cy="255.997" r="248.427"/>
<path style="fill:#E8C842;" d="M174.888,446.205C18.475,355.899,8.978,134.761,153.64,30.391
	C107.843,50.996,67.852,85.65,40.824,132.463c-68.477,118.605-27.84,270.264,90.765,338.741
	c87.283,50.392,192.464,41.688,269.223-13.692C330.578,489.111,246.68,487.654,174.888,446.205z"/>
<circle style="fill:#656566;" cx="194.71" cy="252.047" r="17.729"/>
<path style="fill:#4F4F51;" d="M194.712,252.05c-3.279-5.68-3.044-12.412,0.008-17.715c-3.016-0.004-6.073,0.745-8.873,2.362
	c-8.48,4.896-11.384,15.738-6.49,24.218c4.896,8.48,15.738,11.384,24.218,6.49c2.8-1.617,4.977-3.889,6.482-6.504
	C203.941,260.892,197.992,257.73,194.712,252.05z"/>
<circle style="fill:#656566;" cx="339.123" cy="252.047" r="17.729"/>
<path style="fill:#4F4F51;" d="M339.126,252.05c-3.279-5.68-3.044-12.412,0.008-17.715c-3.016-0.004-6.073,0.745-8.873,2.362
	c-8.48,4.896-11.384,15.738-6.49,24.218c4.896,8.48,15.738,11.384,24.218,6.49c2.8-1.617,4.977-3.889,6.482-6.504
	C348.353,260.892,342.405,257.73,339.126,252.05z"/>
<path d="M376.597,172.46c2.088-3.578,0.88-8.171-2.697-10.257c-18.77-10.952-40.053-14.127-59.932-8.942
	c-4.008,1.046-6.409,5.143-5.363,9.15c1.045,4.007,5.138,6.412,9.15,5.363c16.013-4.18,33.266-1.556,48.585,7.384
	C369.9,177.236,374.501,176.053,376.597,172.46z"/>
<path d="M194.309,167.774c4.008,1.051,8.105-1.355,9.15-5.363c1.046-4.008-1.355-8.104-5.363-9.15
	c-19.879-5.188-41.162-2.011-59.933,8.942c-3.577,2.087-4.785,6.68-2.697,10.257c2.087,3.577,6.677,4.785,10.257,2.697
	C161.044,166.22,178.296,163.595,194.309,167.774z"/>
<path d="M339.126,277.281c13.912,0,25.231-11.318,25.231-25.231c0-13.912-11.318-25.231-25.231-25.231H300.45
	c-4.143,0-7.5,3.357-7.5,7.5c0,4.143,3.357,7.5,7.5,7.5h15.62C308.633,258.51,320.969,277.281,339.126,277.281z M339.126,241.818
	c5.643,0,10.231,4.59,10.231,10.231c0,5.643-4.59,10.231-10.231,10.231c-5.642,0-10.232-4.59-10.232-10.231
	C328.893,246.408,333.484,241.818,339.126,241.818z"/>
<path d="M194.712,277.281c13.912,0,25.231-11.318,25.231-25.231c0-14.486-12.291-26.203-27.027-25.161
	c-1.048-0.136,1.421-0.04-39.654-0.071c-4.143,0-7.5,3.357-7.5,7.5c0,4.143,3.357,7.5,7.5,7.5h18.394
	c-1.395,3.13-2.176,6.591-2.176,10.231C169.481,265.963,180.8,277.281,194.712,277.281z M194.712,241.818
	c5.643,0,10.231,4.59,10.231,10.231c0,5.643-4.59,10.231-10.231,10.231c-5.642,0-10.231-4.59-10.231-10.231
	C184.481,246.408,189.07,241.818,194.712,241.818z"/>
<path d="M222.898,380.517c0.953,0.22,10.059,2.23,22.775,2.23c20.91,0,51.576-5.438,71.785-33.216
	c2.438-3.35,1.697-8.04-1.652-10.476c-3.349-2.438-8.039-1.698-10.476,1.652c-26.571,36.52-78.395,25.343-79.077,25.19
	c-4.036-0.914-8.053,1.596-8.981,5.629C216.342,375.563,218.862,379.589,222.898,380.517z"/>
<path d="M477.674,128.028C400.382-5.845,222.638-41.61,99.337,53.624c-3.278,2.531-3.884,7.241-1.352,10.519
	c2.532,3.28,7.242,3.884,10.519,1.352c116.017-89.593,283.354-56.106,356.18,70.032c57.292,99.232,36.044,223.241-45.884,298.147
	c-3.058,2.795-3.27,7.539-0.475,10.595c2.788,3.049,7.531,3.277,10.595,0.475C515.96,365.167,538.537,233.446,477.674,128.028z"/>
<path d="M400.527,467.243c3.421-2.335,4.301-7.001,1.966-10.422c-2.335-3.421-7-4.302-10.422-1.966
	c-116.182,79.316-274.578,43.04-344.69-78.396C-8.045,280.459,10.333,162.996,83.152,88.095c2.888-2.971,2.821-7.719-0.148-10.605
	c-2.972-2.888-7.719-2.818-10.605,0.149C-4.754,156.997-24.631,281.732,34.39,383.958
	C108.767,512.781,276.97,551.59,400.527,467.243z"/>
<g>
</g>
<g>
</g>
<g>
</g>
<g>
</g>
<g>
</g>
<g>
</g>
<g>
</g>
<g>
</g>
<g>
</g>
<g>
</g>
<g>
</g>
<g>
</g>
<g>
</g>
<g>
</g>
<g>
</g>
</svg>
