<?xml version="1.0" encoding="iso-8859-1"?>
<!-- Generator: Adobe Illustrator 19.0.0, SVG Export Plug-In . SVG Version: 6.00 Build 0)  -->
<svg version="1.1" id="Capa_1" xmlns="http://www.w3.org/2000/svg" xmlns:xlink="http://www.w3.org/1999/xlink" x="0px" y="0px"
	 viewBox="0 0 512 512" style="enable-background:new 0 0 512 512;" xml:space="preserve">
<path style="fill:#F28400;" d="M32.045,481.694c-6.75,0-12.861-2.731-17.277-7.156c-4.426-4.426-7.156-10.537-7.156-17.277V200.608
	V93.273V67.956c0-20.793,16.856-37.649,37.649-37.649h143.634c10.851,0,21.175,4.68,28.321,12.861l32.604,37.243
	c7.146,8.182,17.47,12.861,28.341,12.861H423.36c20.793,0,37.649,16.856,37.649,37.649v261.886c0,49.09-39.795,88.886-88.886,88.886
	H32.045"/>
<path style="fill:#D87203;" d="M425.922,218.36l-47.973,214.091c-3.461,15.429-17.155,26.402-32.98,26.402l-46.339,16.992
	c-23.316,0.162-47.587,0.305-71.695,0.416c-106.695,0.487-210.041,0.406-212.163-1.726C10.347,470.111,7.616,464,7.616,457.26
	V308.662l19.835-88.495c5.553-24.788,27.549-42.4,52.947-42.4h313.021C414.756,177.767,430.591,197.542,425.922,218.36z"/>
<path style="fill:#F28400;" d="M503.573,241.2L455.6,455.291c-3.461,15.429-17.155,26.402-32.98,26.402H32.046
	c11.44,0,21.347-7.938,23.844-19.094l22.474-100.3l26.737-119.293c5.553-24.788,27.549-42.4,52.947-42.4H471.07
	C492.407,200.607,508.241,220.381,503.573,241.2z"/>
<path d="M502.339,207.524c-7.901-9.376-19.733-14.531-31.994-14.531h-1.724v-62.072c0-24.997-20.264-45.262-45.262-45.262H278.162
	c-8.671,0-16.91-3.738-22.61-10.257l-32.596-37.246c-8.59-9.825-21.003-15.459-34.06-15.459H45.262C20.264,22.696,0,42.96,0,67.956
	v46.712c0,4.204,3.409,7.613,7.613,7.613l0,0c4.204,0,7.613-3.409,7.613-7.613V67.956c0-16.587,13.447-30.035,30.035-30.035h143.634
	c8.663,0,16.898,3.738,22.6,10.257l32.596,37.246c8.589,9.825,21.006,15.46,34.07,15.46H423.36
	c16.587,0,30.035,13.447,30.035,30.035v62.072h-80.147c-4.204,0-7.613,3.409-7.613,7.613l0,0c0,4.204,3.409,7.613,7.613,7.613
	h97.233c7.823,0,15.395,3.286,20.38,9.314c5.1,6.168,7.023,14.214,5.278,22.004L448.165,453.62
	c-2.699,12.044-13.204,20.456-25.547,20.456H59.351c1.808-2.958,3.166-6.254,3.964-9.812l49.209-219.593
	c4.808-21.463,23.53-36.453,45.525-36.453h179.67c4.204,0,7.613-3.409,7.613-7.613l0,0c0-4.204-3.409-7.613-7.613-7.613H158.05
	c-29.174,0-54.004,19.881-60.382,48.349l-49.105,219.13c-1.684,7.514-8.082,13.256-15.775,13.589
	c-9.611,0.415-17.561-7.283-17.561-16.803V150.197c0-4.204-3.409-7.613-7.613-7.613l0,0c-4.204,0-7.613,3.409-7.613,7.613v307.061
	c0,17.698,14.347,32.045,32.045,32.045H422.62c19.52,0,36.136-13.304,40.404-32.353l47.974-214.083
	C513.806,230.334,510.649,217.385,502.339,207.524z"/>
<g>
</g>
<g>
</g>
<g>
</g>
<g>
</g>
<g>
</g>
<g>
</g>
<g>
</g>
<g>
</g>
<g>
</g>
<g>
</g>
<g>
</g>
<g>
</g>
<g>
</g>
<g>
</g>
<g>
</g>
</svg>
