<?xml version="1.0" encoding="iso-8859-1"?>
<!-- Generator: Adobe Illustrator 19.0.0, SVG Export Plug-In . SVG Version: 6.00 Build 0)  -->
<svg version="1.1" id="Capa_1" xmlns="http://www.w3.org/2000/svg" xmlns:xlink="http://www.w3.org/1999/xlink" x="0px" y="0px"
	 viewBox="0 0 512 512" style="enable-background:new 0 0 512 512;" xml:space="preserve">
<path style="fill:#C16202;" d="M32.984,106.472v200.112c0,12.213,9.896,22.119,22.119,22.119h401.793
	c12.223,0,22.119-9.906,22.119-22.119V44.528c0-20.452-16.577-37.039-37.029-37.039h-50.39c-10.675,0-20.841,4.604-27.871,12.652
	L331.65,56.781c-7.03,8.049-17.186,12.652-27.871,12.652H70.012c-15.888,0-29.439,10.006-34.692,24.067
	C33.803,97.525,32.984,101.909,32.984,106.472z"/>
<path style="fill:#D87203;" d="M32.98,156.336h109.712c10.687,0,20.847-4.606,27.878-12.648l32.071-36.645
	c7.031-8.044,17.192-12.648,27.868-12.648h50.981c10.676,0,20.837,4.606,27.868,12.648l32.07,36.645
	c7.031,8.044,17.192,12.648,27.878,12.648h109.712v224.207H32.984L32.98,156.336z"/>
<path style="fill:#F28400;" d="M479.015,282.279v200.112c0,12.213-9.896,22.119-22.119,22.119H55.103
	c-12.223,0-22.119-9.906-22.119-22.119V220.334c0-20.452,16.577-37.039,37.029-37.039h50.39c10.675,0,20.841,4.604,27.871,12.652
	l32.076,36.639c7.03,8.049,17.186,12.652,27.871,12.652h233.766c15.888,0,29.439,10.006,34.692,24.067
	C478.196,273.331,479.015,277.715,479.015,282.279z"/>
<path style="fill:#F21626;" d="M208.221,245.24H32.984v-24.905c0-20.452,16.577-37.039,37.029-37.039h50.39
	c10.675,0,20.841,4.604,27.871,12.652l32.076,36.639C187.38,240.636,197.536,245.24,208.221,245.24z"/>
<path style="fill:#0072B6;" d="M303.778,69.424h175.237V44.518c0-20.452-16.577-37.039-37.029-37.039h-50.39
	c-10.675,0-20.841,4.604-27.871,12.652L331.65,56.771C324.619,64.82,314.463,69.424,303.778,69.424z"/>
<path style="fill:#74B800;" d="M479.02,156.336H369.308c-10.687,0-20.847-4.606-27.878-12.648l-32.07-36.645
	c-7.031-8.044-17.192-12.648-27.868-12.648H230.51c-10.676,0-20.837,4.606-27.868,12.648l-32.071,36.645
	c-7.031,8.044-17.192,12.648-27.878,12.648H32.98"/>
<path d="M486.505,282.055V44.518C486.505,19.931,466.573,0,441.987,0h-50.39c-12.846,0-25.06,5.54-33.507,15.199L326.012,51.85
	c-5.604,6.408-13.709,10.084-22.234,10.084H182.32c-4.136,0-7.49,3.353-7.49,7.49l0,0c0,4.136,3.353,7.49,7.49,7.49h121.459
	l167.746,0.003v71.93h-87.498h-14.719c-8.529,0-16.635-3.677-22.243-10.091l-32.068-36.642
	c-8.449-9.666-20.661-15.209-33.508-15.209h-50.981c-12.844,0-25.057,5.543-33.505,15.206l-32.074,36.649
	c-5.604,6.411-13.71,10.088-22.24,10.088h-22.284H40.473v-42.385c0-3.583,0.624-7.055,1.863-10.343
	c4.288-11.488,15.411-19.206,27.676-19.206h77.355c4.136,0,7.49-3.353,7.49-7.49l0,0c0-4.136-3.353-7.49-7.49-7.49H70.012
	c-18.484,0-35.245,11.633-41.7,28.924c-1.87,4.959-2.818,10.21-2.818,15.604v113.679c0,0.064-0.005,0.128-0.005,0.192v204.647h0.005
	v57.41c0,16.352,13.257,29.609,29.609,29.609h401.793c16.352,0,29.608-13.257,29.608-29.608v-29.947c0-4.136-3.353-7.49-7.49-7.49
	l0,0c-4.136,0-7.49,3.353-7.49,7.49v29.947c0,8.08-6.55,14.63-14.63,14.63H55.103c-8.08,0-14.629-6.55-14.629-14.629V252.729h167.75
	h233.758c12.271,0,23.394,7.714,27.686,19.22c1.21,3.212,1.832,6.611,1.857,10.106l0.005,135.439c0,4.135,3.352,7.488,7.488,7.488
	l0,0c4.135,0,7.488-3.352,7.488-7.488l0.005-135.217C486.51,282.203,486.505,282.129,486.505,282.055z M337.082,61.935
	c0.067-0.075,0.138-0.146,0.204-0.221l32.078-36.651c5.604-6.409,13.708-10.084,22.233-10.084h50.391
	c16.287,0,29.538,13.252,29.538,29.539v17.42L337.082,61.935z M176.205,148.621l32.074-36.648
	c5.605-6.411,13.708-10.089,22.23-10.089h50.981c8.523,0,16.625,3.677,22.233,10.091l32.068,36.642
	c0.069,0.079,0.143,0.151,0.212,0.229H175.996C176.064,148.77,176.137,148.698,176.205,148.621z M40.473,220.142
	c0.104-16.205,13.315-29.355,29.543-29.355h50.39c8.522,0,16.624,3.677,22.233,10.091l32.068,36.642
	c0.069,0.079,0.143,0.152,0.212,0.23H40.473V220.142z M441.983,237.749H208.225c-8.529,0-16.635-3.677-22.242-10.091l-32.068-36.642
	c-8.45-9.666-20.662-15.208-33.508-15.208h-50.39c-11.328,0-21.676,4.259-29.543,11.251v-23.232h79.933h22.284h226.618h14.719
	h87.498v85.185C463.53,241.932,453.068,237.749,441.983,237.749z"/>
<g>
</g>
<g>
</g>
<g>
</g>
<g>
</g>
<g>
</g>
<g>
</g>
<g>
</g>
<g>
</g>
<g>
</g>
<g>
</g>
<g>
</g>
<g>
</g>
<g>
</g>
<g>
</g>
<g>
</g>
</svg>
