<?xml version="1.0" encoding="iso-8859-1"?>
<!-- Generator: Adobe Illustrator 19.0.0, SVG Export Plug-In . SVG Version: 6.00 Build 0)  -->
<svg version="1.1" id="Capa_1" xmlns="http://www.w3.org/2000/svg" xmlns:xlink="http://www.w3.org/1999/xlink" x="0px" y="0px"
	 viewBox="0 0 512 512" style="enable-background:new 0 0 512 512;" xml:space="preserve">
<path style="fill:#ED694A;" d="M390.91,167.915c-75.628-22.168-137.358,45.425-105.557,112.979c0,0,29.393,53.678-4.072,121.962
	c-18.356,40.406,1.431,87.882,41.085,99.506c35.542,10.419,77.505-18.902,85.888-58.87c0.032-0.101,52.593-165.481,52.618-165.582
	C472.379,231.859,441.055,182.613,390.91,167.915z"/>
<path style="fill:#D8553A;" d="M335.121,402.855c33.465-68.283,4.072-121.961,4.072-121.961
	c-23.413-49.737,3.876-99.49,50.081-113.43c-74.877-20.724-135.493,46.364-103.922,113.43c0,0,29.393,53.678-4.072,121.961
	c-26.199,57.671,26.071,122.637,83.763,95.03C333.018,481.396,318.582,439.263,335.121,402.855z"/>
<circle style="fill:#ED694A;" cx="313.749" cy="106.776" r="34.523"/>
<path style="fill:#D8553A;" d="M313.76,72.252c-33.819,0.016-47.499,43.922-19.471,63.041c16.362,11.162,39.13,6.39,49.345-11.262
	C317.348,124.043,300.382,95.368,313.76,72.252z"/>
<circle style="fill:#ED694A;" cx="391.583" cy="116.757" r="24.416"/>
<path style="fill:#D8553A;" d="M390.279,92.373c-23.326,1.261-31.627,31.476-12.461,44.549c11.229,7.66,26.67,4.718,34.215-6.85
	C392.358,131.135,379.286,109.239,390.279,92.373z"/>
<circle style="fill:#ED694A;" cx="447.826" cy="145.129" r="19.626"/>
<path style="fill:#D8553A;" d="M457.662,128.143c-16.688-9.642-35.874,8.13-27.518,25.493c4.867,10.114,17.388,14.285,27.484,8.472
	C444.662,154.617,444.527,135.705,457.662,128.143z"/>
<circle style="fill:#ED694A;" cx="481.618" cy="186.161" r="15.776"/>
<g>
	<path style="fill:#D8553A;" d="M489.518,172.505c-13.417-7.751-28.835,6.537-22.119,20.492c3.778,7.851,13.205,11.153,21.056,7.374
		c0.358-0.172,0.696-0.369,1.035-0.564C479.069,193.786,478.959,178.585,489.518,172.505z"/>
	<circle style="fill:#D8553A;" cx="494.119" cy="229.154" r="10.37"/>
</g>
<path style="fill:#ED694A;" d="M121.082,103.153c75.628-22.168,137.358,45.425,105.557,112.979c0,0-29.393,53.678,4.072,121.962
	c18.356,40.406-1.431,87.882-41.085,99.506c-35.543,10.419-77.505-18.902-85.888-58.87c-0.032-0.101-52.593-165.481-52.618-165.582
	C39.613,167.098,70.936,117.852,121.082,103.153z"/>
<path style="fill:#D8553A;" d="M153.74,364.725c-0.032-0.101-52.593-165.481-52.618-165.582
	c-9.638-38.573,10.777-79.382,47.129-100.258c-8.747,0.174-17.851,1.537-27.169,4.268c-50.146,14.698-81.469,63.944-69.962,109.995
	c0.025,0.101,52.586,165.48,52.618,165.582c8.383,39.967,50.346,69.288,85.888,58.869c9.016-2.642,16.99-7.153,23.736-12.998
	C185.805,419.251,160.103,395.057,153.74,364.725z"/>
<circle style="fill:#ED694A;" cx="198.252" cy="42.013" r="34.523"/>
<path style="fill:#D8553A;" d="M193.727,27.338c-0.541-7.191,1.165-14.032,4.52-19.837c-0.858,0.001-1.72,0.022-2.589,0.088
	c-19.013,1.43-33.266,18.002-31.836,37.015c2.545,33.831,47.403,43.947,64.331,14.659C210.247,59.279,195.092,45.481,193.727,27.338
	z"/>
<circle style="fill:#ED694A;" cx="120.417" cy="51.991" r="24.416"/>
<path style="fill:#D8553A;" d="M120.412,27.581c-0.606,0.001-1.216,0.016-1.83,0.062c-13.448,1.011-23.528,12.732-22.517,26.18
	c1.799,23.91,33.515,31.104,45.499,10.368C122.674,64.208,111.11,43.678,120.412,27.581z"/>
<circle style="fill:#ED694A;" cx="64.164" cy="80.365" r="19.626"/>
<path style="fill:#D8553A;" d="M73.961,63.381c-10.079-5.806-22.61-1.655-27.484,8.472c-8.356,17.366,10.832,35.135,27.518,25.494
	C65.172,92.269,60.995,70.871,73.961,63.381z"/>
<circle style="fill:#ED694A;" cx="30.377" cy="121.397" r="15.776"/>
<g>
	<path style="fill:#D8553A;" d="M38.252,107.743c-8.081-4.658-18.166-1.346-22.091,6.81c-6.717,13.959,8.707,28.242,22.119,20.492
		C27.724,128.968,27.831,113.765,38.252,107.743z"/>
	<circle style="fill:#D8553A;" cx="17.868" cy="164.39" r="10.37"/>
</g>
<path d="M295.523,68.908c-33.588,16.163-30.865,65.198,4.331,77.528c35.358,12.383,67.874-24.394,51.757-57.883
	C341.562,67.671,316.4,58.858,295.523,68.908z M304.812,132.278c-22.618-7.922-24.397-39.452-2.785-49.853
	c13.378-6.436,29.583-0.843,36.067,12.632C348.47,116.616,327.47,140.214,304.812,132.278z"/>
<path d="M420.339,102.912c-12.252-25.459-49.509-23.475-58.884,3.29c-9.311,26.591,18.26,51.681,43.965,39.31h-0.001
	C421.277,137.88,427.97,118.77,420.339,102.912z M398.914,131.996L398.914,131.996c-13.52,6.506-28.263-6.667-23.301-20.835
	c4.927-14.072,24.637-15.398,31.21-1.744C410.867,117.822,407.319,127.951,398.914,131.996z"/>
<path d="M473.432,154.092c7.913-22.6-15.518-43.929-37.365-33.41c-13.509,6.499-19.184,22.695-12.681,36.206
	C433.856,178.648,465.469,176.825,473.432,154.092z M451.838,133.681c10.172,3.561,10.919,17.718,1.25,22.371
	c-6.024,2.898-13.286,0.357-16.186-5.668C432.194,140.597,441.746,130.15,451.838,133.681z"/>
<path d="M502.588,176.062c-8.908-18.512-36.063-17.24-42.941,2.399c-5.341,15.248,6.068,30.982,21.984,30.982
	C498.615,209.444,510.049,191.564,502.588,176.062z M474.158,189.744c-1.982-4.12-0.255-9.06,3.869-11.045
	c4.114-1.979,9.057-0.262,11.045,3.867v0.001c1.979,4.111,0.243,9.066-3.869,11.046
	C481.089,195.591,476.146,193.877,474.158,189.744z"/>
<path d="M486.375,213.051c-8.898,4.281-12.638,14.952-8.353,23.85c4.27,8.874,14.925,12.652,23.85,8.354
	c8.899-4.281,12.639-14.951,8.354-23.851C505.946,212.507,495.275,208.765,486.375,213.051z M495.367,231.738
	c-3.418,1.641-5.91-3.525-2.488-5.171C496.299,224.92,498.788,230.088,495.367,231.738z"/>
<path d="M198.181,84.034c29.124,0,49.258-28.699,39.728-55.91c-12.344-35.247-61.404-37.841-77.528-4.332
	C146.937,51.729,167.48,84.034,198.181,84.034z M173.897,30.295c10.446-21.705,41.955-19.766,49.854,2.786
	c7.939,22.668-15.673,43.641-37.221,33.282C173.104,59.903,167.437,43.722,173.897,30.295z"/>
<path d="M106.571,80.751c25.82,12.424,53.249-12.804,43.965-39.309c-9.392-26.813-46.632-28.753-58.883-3.291
	C84.021,54.007,90.715,73.118,106.571,80.751z M114.821,36.025c14.095-4.934,27.393,9.677,20.835,23.3
	c-4.053,8.421-14.151,11.965-22.578,7.908C99.583,60.74,100.635,40.993,114.821,36.025z"/>
<path d="M39.719,68.601c-3.143,6.529-3.554,13.892-1.159,20.73c7.982,22.788,39.592,24.522,50.046,2.796
	c3.143-6.528,3.554-13.891,1.159-20.73C81.792,48.642,50.127,46.97,39.719,68.601z M58.903,91.291L58.903,91.291
	c-6.038-2.905-8.575-10.146-5.668-16.185c4.676-9.718,18.822-8.889,22.371,1.25C79.163,86.513,68.595,95.954,58.903,91.291z"/>
<path d="M9.403,111.301L9.403,111.301c-7.445,15.476,3.933,33.368,20.937,33.368c8.67,0,17.007-4.86,21.011-13.182
	c5.565-11.564,0.685-25.501-10.88-31.066C28.88,94.843,14.984,99.707,9.403,111.301z M33.965,113.938
	c4.111,1.979,5.847,6.934,3.869,11.045c-1.979,4.113-6.937,5.847-11.047,3.869c-4.11-1.979-5.846-6.933-3.868-11.045
	C24.898,113.695,29.853,111.963,33.965,113.938z"/>
<path d="M25.616,148.288c-8.876-4.271-19.575-0.523-23.849,8.353l-0.001,0.001c-4.271,8.879-0.524,19.578,8.354,23.851
	c8.898,4.282,19.567,0.55,23.852-8.354C38.242,163.26,34.495,152.561,25.616,148.288z M16.624,166.976
	c-3.417-1.646-0.936-6.808,2.488-5.171C22.599,163.485,19.969,168.587,16.624,166.976z"/>
<path d="M223.455,253.239c1.686-12.134,4.812-23.056,9.971-33.912c34.457-73.196-32.414-147.415-114.454-123.371
	c-57.135,16.747-92.117,76.249-72.025,128.826l2.281,7.18c1.254,3.948,5.474,6.134,9.42,4.876c3.947-1.254,6.131-5.471,4.876-9.42
	c-2.567-8.064-2.358-7.452-2.496-7.812c-17.193-44.698,13.454-94.979,62.163-109.255c68.854-20.185,125.86,40.209,96.746,102.408
	c-2.417,4.542-29.947,59.177,3.988,128.534c24.198,53.479-26.208,113.872-79.324,82.068c-17.07-10.22-29.603-27.48-33.523-46.171
	c-0.12-0.575-9.56-30.179-36.949-116.403c-1.253-3.948-5.47-6.128-9.42-4.876c-3.947,1.254-6.131,5.471-4.876,9.42l36.645,115.32
	c4.853,22.565,19.938,43.32,40.418,55.581c65.269,39.074,131.294-33.77,100.644-101.239
	C225.224,307.978,219.249,283.523,223.455,253.239z"/>
<path d="M393.019,160.717c-47.232-13.846-95.638,5.397-115.094,45.756c-1.799,3.731-0.232,8.214,3.499,10.014
	c3.729,1.796,8.214,0.233,10.014-3.499c16.256-33.717,57.195-49.648,97.362-37.874c49.027,14.371,79.252,64.859,62.164,109.255
	c-0.154,0.399,1.836-5.806-40.992,128.954c-1.54,4.846,2.093,9.774,7.149,9.774c3.18,0,6.132-2.038,7.146-5.23
	c47.945-150.156,43.684-137.345,43.882-138.136C480.599,229.898,446.896,176.508,393.019,160.717z"/>
<path d="M408.969,441.865c-3.977-1.168-8.143,1.102-9.314,5.076c-9.969,33.85-45.808,56.828-75.181,48.223
	c-36.197-10.61-52.349-53.886-36.409-89.111c33.937-69.356,6.406-123.989,3.989-128.532c-5.07-10.832-7.639-22.104-7.634-33.509
	c0.002-4.143-3.355-7.501-7.497-7.503h-0.003c-4.141,0-7.498,3.356-7.5,7.497c-0.005,15.128,4.416,31.47,9.355,40.49
	c0.275,0.502,27.161,51.008-4.229,115.058c-9.458,19.202-10.91,46.108-0.214,69.452c18.006,39.301,62.683,56.396,102.927,30.648
	c17.629-11.28,31.038-28.949,36.787-48.476C415.216,447.205,412.943,443.035,408.969,441.865z"/>
<g>
</g>
<g>
</g>
<g>
</g>
<g>
</g>
<g>
</g>
<g>
</g>
<g>
</g>
<g>
</g>
<g>
</g>
<g>
</g>
<g>
</g>
<g>
</g>
<g>
</g>
<g>
</g>
<g>
</g>
</svg>
