<?xml version="1.0" encoding="iso-8859-1"?>
<!-- Generator: Adobe Illustrator 19.0.0, SVG Export Plug-In . SVG Version: 6.00 Build 0)  -->
<svg version="1.1" id="Capa_1" xmlns="http://www.w3.org/2000/svg" xmlns:xlink="http://www.w3.org/1999/xlink" x="0px" y="0px"
	 viewBox="0 0 512 512" style="enable-background:new 0 0 512 512;" xml:space="preserve">
<rect x="7.604" y="7.604" style="fill:#FFCC3E;" width="496.792" height="496.792"/>
<polygon style="fill:#E0AC2B;" points="504.396,7.604 7.604,7.604 504.396,504.396 "/>
<rect x="36.021" y="36.021" style="fill:#FFCC3E;" width="439.955" height="439.955"/>
<polygon style="fill:#E0AC2B;" points="475.979,36.021 36.021,36.021 475.979,475.979 "/>
<rect x="66.765" y="66.765" style="fill:#A0D7E8;" width="378.474" height="378.474"/>
<path style="fill:#FFFCFF;" d="M66.766,181.079c6.945-3.924,14.975-6.164,23.522-6.164c12.876,0,24.556,5.09,33.163,13.353
	c5.769-8.222,15.33-13.606,26.147-13.606c14.691,0,27.06,9.926,30.781,23.44c8.729-9.145,21.017-14.853,34.654-14.853
	c21.707,0,40.027,14.437,45.918,34.238c3.65-1.46,7.645-2.271,11.822-2.271c6.762,0,13.038,2.109,18.199,5.698
	c8.861-24.667,32.454-42.319,60.173-42.319c21.251,0,40.058,10.372,51.687,26.32c4.491-12.187,16.222-20.886,29.97-20.886
	c4.41,0,8.618,0.892,12.43,2.514v179.219L66.765,390.094L66.766,181.079z"/>
<path style="fill:#93CE12;" d="M66.765,262.354c79.784,0,220.94,68.433,378.469,68.433v114.448H66.765V262.354z"/>
<path style="fill:#A0D7E8;" d="M66.766,373.581c19.821,0.862,41.376,1.338,63.904,1.338c97.797,0,177.071-8.861,177.071-19.791
	c0-10.919-79.274-19.78-177.071-19.78c-22.528,0-44.083,0.466-63.904,1.328"/>
<path d="M504.396,0H7.604C3.404,0,0,3.404,0,7.604v496.792c0,4.2,3.404,7.604,7.604,7.604h496.792c4.2,0,7.604-3.404,7.604-7.604
	V7.604C512,3.404,508.596,0,504.396,0z M59.162,69.916v372.168l-15.536,15.536V54.379L59.162,69.916z M437.63,323.122
	c-88.271-1.257-172.622-24.042-240.772-42.456c-31.254-8.444-59.914-16.184-85.266-20.966c9.804-17.642,28.611-28.992,49.259-28.992
	c21.482,0,40.797,11.954,50.409,31.198c1.057,2.115,3.038,3.618,5.359,4.068c2.324,0.451,4.721-0.207,6.489-1.776
	c4.446-3.944,10.168-6.115,16.114-6.115c7.65,0,14.707,3.497,19.365,9.593c1.295,1.696,3.243,2.769,5.369,2.958
	c2.127,0.191,4.234-0.525,5.808-1.965c7.444-6.814,17.103-10.566,27.198-10.566c21.64,0,39.318,16.928,40.246,38.54
	c0.118,2.737,1.699,5.2,4.14,6.445c1.089,0.557,2.275,0.831,3.456,0.831c1.466,0,2.927-0.424,4.192-1.259
	c3.984-2.632,8.618-4.023,13.4-4.023c3.5,0,6.878,0.727,10.04,2.161c2.023,0.917,4.345,0.903,6.358-0.036
	c2.012-0.94,3.513-2.713,4.107-4.852c4.822-17.346,20.779-29.462,38.805-29.462c5.495,0,10.92,1.14,15.922,3.289L437.63,323.122
	L437.63,323.122z M437.63,253.569c-5.142-1.537-10.511-2.33-15.922-2.33c-22.147,0-42.028,13.282-50.781,33.111
	c-6.558-1.446-13.615-1.171-20.055,0.79c-5.933-24.398-27.834-42.246-53.909-42.246c-11.375,0-22.348,3.459-31.578,9.856
	c-7.159-6.346-16.361-9.875-26.162-9.875c-6.58,0-12.991,1.635-18.696,4.703c-13.158-19.98-35.32-32.078-59.675-32.078
	c-28.029,0-53.386,16.473-64.965,41.576c-7.524-1.077-14.704-1.81-21.518-2.133v-69.136c5-2.149,10.424-3.288,15.918-3.288
	c10.444,0,20.351,3.991,27.897,11.234c1.601,1.537,3.786,2.299,6.003,2.083c2.209-0.215,4.213-1.384,5.488-3.201
	c4.555-6.493,12.003-10.37,19.922-10.37c10.913,0,20.555,7.342,23.451,17.855c0.727,2.64,2.818,4.686,5.473,5.354
	c2.656,0.671,5.467-0.143,7.359-2.124c7.693-8.06,18.047-12.499,29.153-12.499c17.7,0,33.585,11.845,38.63,28.803
	c0.609,2.049,2.052,3.745,3.977,4.677c1.924,0.931,4.152,1.006,6.136,0.215c2.864-1.147,5.893-1.728,8.997-1.728
	c4.986,0,9.779,1.499,13.857,4.336c1.289,0.897,2.808,1.362,4.341,1.362c0.777,0,1.556-0.119,2.313-0.36
	c2.254-0.72,4.043-2.446,4.843-4.672c8.01-22.302,29.317-37.286,53.016-37.286c17.926,0,34.952,8.672,45.544,23.196
	c1.651,2.265,4.419,3.443,7.193,3.051c2.777-0.386,5.116-2.27,6.085-4.901c3.508-9.517,12.684-15.911,22.834-15.911
	c1.643,0,3.257,0.159,4.831,0.477v61.457H437.63z M74.37,381.498c18.139,0.68,37.037,1.025,56.3,1.025
	c5.081,0,10.238-0.026,15.403-0.078c4.215-0.043,7.594-3.503,7.531-7.718v-0.003c-0.062-4.181-3.492-7.528-7.674-7.486
	c-5.118,0.052-10.226,0.077-15.261,0.077c-19.276,0-38.176-0.349-56.3-1.035v-22.3c18.007-0.681,36.908-1.027,56.3-1.027
	c43.082,0,84.514,1.753,116.665,4.939c25.093,2.485,38.711,5.234,45.988,7.288c-15.175,4.201-51.082,9.292-112.083,11.311
	c-4.184,0.139-7.477,3.626-7.36,7.811l0,0c0.118,4.215,3.651,7.528,7.865,7.387c34.818-1.165,66.183-3.543,88.972-6.764
	c32.949-4.658,44.628-9.836,44.628-19.794c0-9.879-13.223-13.371-19.578-15.05c-9.277-2.449-22.413-4.634-39.045-6.492
	c-33.72-3.768-78.486-5.843-126.053-5.843c-19.377,0-38.274,0.342-56.3,1.015v-58.59c31.284,1.612,71.968,12.599,118.522,25.178
	c69.036,18.653,154.495,41.736,244.739,42.983v99.301H74.37V381.498z M437.63,176.728c-1.593-0.193-3.203-0.302-4.831-0.302
	c-12.396,0-23.899,5.871-31.268,15.355c-13.306-13.173-31.45-20.789-50.388-20.789c-27.168,0-51.86,15.506-63.893,39.358
	c-4.575-1.804-9.467-2.737-14.479-2.737c-2.425,0-4.821,0.219-7.174,0.653c-8.89-19.526-28.724-32.62-50.565-32.62
	c-11.608,0-22.616,3.516-31.877,10.057c-7.089-11.349-19.693-18.645-33.558-18.645c-10.101,0-19.729,3.878-26.981,10.645
	c-9.378-6.745-20.608-10.391-32.33-10.391c-5.409,0-10.776,0.793-15.918,2.328V74.37H437.63V176.728z M69.916,452.838h372.168
	l15.535,15.535H54.38L69.916,452.838z M442.084,59.162H69.916L54.379,43.624h403.242L442.084,59.162z M472.828,28.417H39.172
	l-13.21-13.209h460.075L472.828,28.417z M28.417,39.172v433.658l-13.209,13.209V25.962L28.417,39.172z M39.173,483.582h433.656
	l13.21,13.21H25.962L39.173,483.582z M483.582,472.827V216.865c0-4.198-3.404-7.602-7.602-7.602h-0.003
	c-4.198,0-7.602,3.404-7.602,7.602v240.756l-15.535-15.535V69.916l15.535-15.535v127.001c0,4.198,3.404,7.602,7.602,7.602h0.003
	c4.198,0,7.602-3.404,7.602-7.602V39.173l13.21-13.211v460.075L483.582,472.827z"/>
<g>
</g>
<g>
</g>
<g>
</g>
<g>
</g>
<g>
</g>
<g>
</g>
<g>
</g>
<g>
</g>
<g>
</g>
<g>
</g>
<g>
</g>
<g>
</g>
<g>
</g>
<g>
</g>
<g>
</g>
</svg>
