<?xml version="1.0" encoding="iso-8859-1"?>
<!-- Generator: Adobe Illustrator 19.0.0, SVG Export Plug-In . SVG Version: 6.00 Build 0)  -->
<svg version="1.1" id="Capa_1" xmlns="http://www.w3.org/2000/svg" xmlns:xlink="http://www.w3.org/1999/xlink" x="0px" y="0px"
	 viewBox="0 0 511.999 511.999" style="enable-background:new 0 0 511.999 511.999;" xml:space="preserve">
<path style="fill:#9CA5AA;" d="M453.307,249.038c-0.299-8.487-1.197-16.821-2.528-24.995l53.553-30.45l-13.219-32.677
	l-13.219-32.687l-59.649,15.337c-12.884-18.546-28.836-34.744-47.113-47.894l16.342-59.397l-32.462-13.755L322.56,8.755
	l-31.324,52.991c-13.657-2.463-27.767-3.561-42.198-3.052c-8.487,0.299-16.821,1.197-24.995,2.527l-30.44-53.553l-65.374,26.439
	l15.337,59.649c-18.546,12.884-34.744,28.836-47.894,47.114l-59.397-16.343L22.519,156.99L8.754,189.443l52.992,31.324
	c-2.464,13.646-3.562,27.756-3.053,42.188c0.299,8.498,1.197,16.831,2.528,25.006L7.668,318.4l26.439,65.374l59.649-15.337
	c12.884,18.546,28.836,34.744,47.113,47.894l-16.343,59.387l32.462,13.764l32.452,13.765l31.324-52.991
	c13.646,2.464,27.756,3.551,42.188,3.042c8.498-0.299,16.831-1.187,25.006-2.518l30.44,53.554l65.374-26.439l-15.337-59.649
	c18.546-12.884,34.744-28.836,47.894-47.114l59.387,16.343l13.765-32.462l13.765-32.453l-52.992-31.324
	C452.718,277.578,453.816,263.469,453.307,249.038z M258.431,325.059c-38.137,1.345-70.143-28.48-71.488-66.628
	c-1.345-38.137,28.48-70.143,66.617-71.488c38.147-1.345,70.153,28.479,71.498,66.616
	C326.403,291.707,296.577,323.713,258.431,325.059z"/>
<path style="fill:#828A8E;" d="M250.948,112.907c-79.021,2.787-140.83,69.115-138.043,148.136
	c2.787,79.031,69.115,140.84,148.136,138.053c79.031-2.787,140.84-69.115,138.053-148.146
	C396.307,171.928,329.979,110.119,250.948,112.907z M258.431,325.059c-38.137,1.345-70.143-28.48-71.488-66.628
	c-1.345-38.137,28.48-70.143,66.617-71.488c38.147-1.345,70.153,28.479,71.498,66.616
	C326.403,291.707,296.577,323.713,258.431,325.059z"/>
<path style="fill:#9CA5AA;" d="M252.121,146.809c-60.29,2.127-107.441,52.725-105.315,113.015
	c2.13,60.374,52.728,107.525,113.018,105.399c60.374-2.13,107.525-52.728,105.396-113.102
	C363.093,191.83,312.495,144.679,252.121,146.809z M258.408,325.057c-38.136,1.345-70.091-28.514-71.436-66.65
	c-1.345-38.136,28.43-70.088,66.566-71.433s70.173,28.427,71.518,66.563C326.399,291.672,296.543,323.712,258.408,325.057z"/>
<path style="fill:#CCD6D8;" d="M252.144,146.795c-60.31,2.127-107.477,52.742-105.35,113.053
	c2.128,60.32,52.743,107.487,113.053,105.36c60.32-2.128,107.487-52.743,105.36-113.063
	C363.079,191.834,312.464,144.668,252.144,146.795z M258.431,325.059c-38.137,1.345-70.143-28.48-71.488-66.628
	c-1.345-38.137,28.48-70.143,66.617-71.488c38.147-1.345,70.153,28.479,71.498,66.616
	C326.403,291.707,296.577,323.713,258.431,325.059z"/>
<path d="M251.879,139.137c-31.216,1.101-60.135,14.291-81.429,37.143s-32.415,52.628-31.314,83.844
	c1.101,31.215,14.291,60.134,37.143,81.429c21.819,20.332,49.948,31.39,79.619,31.389c1.403,0,2.813-0.025,4.224-0.075
	c31.215-1.101,60.134-14.291,81.429-37.144c21.295-22.85,32.416-52.626,31.314-83.843c-1.101-31.216-14.291-60.135-37.143-81.429
	C312.87,149.155,283.093,138.04,251.879,139.137z M325.27,181.665c19.856,18.503,31.317,43.63,32.275,70.754
	c0.957,27.123-8.707,52.995-27.21,72.851c-18.503,19.856-43.63,31.317-70.753,32.274c-27.131,0.943-52.996-8.707-72.852-27.21
	c-19.856-18.502-31.317-43.629-32.274-70.753c-0.957-27.123,8.707-52.995,27.21-72.851c18.502-19.856,43.63-31.317,70.754-32.274
	c1.226-0.043,2.45-0.064,3.672-0.064C281.87,154.391,306.312,163.999,325.27,181.665z"/>
<path d="M250.688,105.249c-40.268,1.416-77.574,18.43-105.044,47.908c-27.471,29.479-41.816,67.89-40.393,108.156
	c1.416,40.268,18.43,77.573,47.908,105.043c28.144,26.228,64.43,40.492,102.703,40.492c1.813,0,3.632-0.032,5.453-0.097
	c83.129-2.935,148.372-72.945,145.438-156.066c-1.9-53.697-31.807-101.733-78.642-127.208c-3.849-2.093-8.67-0.506-10.559,3.447
	l-0.001,0.002c-1.751,3.666-0.342,8.072,3.225,10.013c42.079,22.888,68.949,66.046,70.656,114.288
	c2.636,74.671-55.977,137.568-130.659,140.204c-36.175,1.275-70.684-11.611-97.165-36.29
	c-26.482-24.678-41.767-58.192-43.039-94.369c-1.277-36.176,11.611-70.683,36.289-97.165s58.192-41.767,94.368-43.039
	c12.968-0.455,25.78,0.909,38.184,4.056c3.927,0.996,7.943-1.286,9.149-5.155l0,0c1.307-4.193-1.167-8.637-5.425-9.716
	C279.34,106.256,265.099,104.737,250.688,105.249z"/>
<path d="M507.151,315.959l-48.473-28.648c1.965-12.772,2.735-25.709,2.289-38.541c-0.242-6.713-0.853-13.644-1.823-20.667
	l48.978-27.846c3.34-1.898,4.758-5.977,3.317-9.538L485,125.356c-1.439-3.561-5.292-5.504-9.015-4.55l-54.56,14.031
	c-11.749-16.025-25.677-30.182-41.511-42.195l14.946-54.325c1.019-3.704-0.862-7.589-4.398-9.089L325.546,1.695
	c-3.536-1.501-7.637-0.15-9.591,3.157l-28.648,48.473c-12.773-1.964-25.711-2.735-38.54-2.289
	c-6.716,0.241-13.644,0.853-20.659,1.822l-27.852-48.98c-1.899-3.339-5.977-4.758-9.538-3.315L125.355,27
	c-3.562,1.44-5.506,5.295-4.55,9.015l14.031,54.559c-16.024,11.749-30.182,25.677-42.196,41.512l-54.326-14.946
	c-3.7-1.019-7.589,0.862-9.089,4.398L1.692,186.452c-1.5,3.537-0.15,7.638,3.158,9.592l48.473,28.638
	c-1.964,12.78-2.735,25.719-2.29,38.55c0.242,6.712,0.854,13.64,1.823,20.658L3.877,311.745c-3.34,1.899-4.757,5.978-3.316,9.538
	l26.438,65.363c1.44,3.561,5.295,5.505,9.015,4.55l54.562-14.031c0.886,1.208,1.789,2.41,2.706,3.603
	c2.646,3.446,7.633,3.997,10.976,1.221l0,0c3.159-2.622,3.702-7.279,1.2-10.535c-1.872-2.436-3.678-4.909-5.404-7.393
	c-1.827-2.633-5.099-3.851-8.205-3.053l-53.154,13.668l-21.406-52.925l47.718-27.137c2.785-1.584,4.29-4.731,3.776-7.893
	c-1.333-8.197-2.15-16.286-2.429-24.034c-0.468-13.505,0.52-27.155,2.938-40.572c0.569-3.154-0.885-6.328-3.644-7.958l-47.222-27.9
	l22.291-52.561l52.928,14.562c3.091,0.85,6.385-0.314,8.258-2.917c12.692-17.657,28.182-32.895,46.038-45.291
	c2.633-1.828,3.851-5.101,3.052-8.205l-13.669-53.153l52.926-21.406l27.137,47.718c1.584,2.784,4.731,4.293,7.894,3.775
	c8.19-1.333,16.279-2.15,24.033-2.429c13.504-0.466,27.151,0.521,40.56,2.939c3.156,0.566,6.328-0.884,7.959-3.642l27.91-47.224
	l52.561,22.292l-14.561,52.928c-0.852,3.097,0.319,6.389,2.927,8.264c17.653,12.691,32.887,28.177,45.28,46.03
	c1.827,2.632,5.1,3.848,8.205,3.052l53.154-13.668l21.406,52.924l-47.717,27.128c-2.785,1.583-4.291,4.731-3.777,7.893
	c1.333,8.201,2.15,16.294,2.429,24.043c0.469,13.509-0.52,27.158-2.939,40.567c-0.569,3.153,0.886,6.324,3.644,7.954l47.223,27.91
	l-22.292,52.561l-52.928-14.562c-3.091-0.852-6.386,0.313-8.258,2.917c-12.691,17.656-28.18,32.895-46.037,45.291
	c-2.633,1.828-3.851,5.101-3.052,8.205l13.669,53.153l-52.926,21.406l-27.137-47.718c-1.583-2.784-4.731-4.294-7.892-3.776
	c-8.339,1.355-16.201,2.147-24.04,2.42c-13.489,0.475-27.133-0.509-40.555-2.929c-3.153-0.565-6.328,0.884-7.959,3.642
	l-27.912,47.223l-52.559-22.292l14.562-52.927c0.852-3.099-0.322-6.391-2.932-8.268c-5.772-4.15-11.346-8.657-16.639-13.449
	c-3.038-2.751-7.717-2.579-10.584,0.35l0,0c-3.055,3.121-2.874,8.146,0.365,11.076c4.374,3.957,8.926,7.733,13.615,11.295
	l-14.946,54.326c-1.019,3.704,0.862,7.589,4.398,9.089l64.917,27.532c3.536,1.502,7.637,0.149,9.592-3.158l28.647-48.472
	c12.786,1.967,25.724,2.736,38.531,2.279c6.802-0.236,13.609-0.832,20.669-1.811l27.853,48.978c1.399,2.459,3.98,3.876,6.665,3.876
	c0.96,0,1.935-0.181,2.872-0.561l65.363-26.436c3.562-1.44,5.507-5.295,4.551-9.015l-14.031-54.56
	c16.023-11.749,30.184-25.679,42.196-41.511l54.325,14.946c3.703,1.021,7.59-0.861,9.089-4.398l27.532-64.916
	C511.807,322.014,510.458,317.914,507.151,315.959z"/>
<path d="M199.84,203.667c-13.979,15.001-21.278,34.548-20.556,55.038c1.459,41.387,35.588,74.062,76.681,74.059
	c0.908,0,1.825-0.016,2.74-0.049c42.301-1.492,75.502-37.12,74.01-79.423c-0.723-20.492-9.382-39.475-24.382-53.453
	c-15.001-13.98-34.558-21.287-55.039-20.556C232.803,180.008,213.819,188.667,199.84,203.667z M253.835,194.604
	c0.742-0.026,1.481-0.039,2.22-0.039c15.587,0,30.366,5.81,41.828,16.491c12.005,11.187,18.935,26.38,19.514,42.779
	c1.194,33.854-25.377,62.367-59.23,63.562c-33.841,1.173-62.367-25.378-63.561-59.231c-0.578-16.4,5.264-32.043,16.452-44.047
	C222.243,202.114,237.436,195.183,253.835,194.604z"/>
<g>
</g>
<g>
</g>
<g>
</g>
<g>
</g>
<g>
</g>
<g>
</g>
<g>
</g>
<g>
</g>
<g>
</g>
<g>
</g>
<g>
</g>
<g>
</g>
<g>
</g>
<g>
</g>
<g>
</g>
</svg>
