<?xml version="1.0" encoding="iso-8859-1"?>
<!-- Generator: Adobe Illustrator 19.0.0, SVG Export Plug-In . SVG Version: 6.00 Build 0)  -->
<svg version="1.1" id="Capa_1" xmlns="http://www.w3.org/2000/svg" xmlns:xlink="http://www.w3.org/1999/xlink" x="0px" y="0px"
	 viewBox="0 0 511.999 511.999" style="enable-background:new 0 0 511.999 511.999;" xml:space="preserve">
<path style="fill:#FEBC00;" d="M256,106.274C193.21,11.317,85.433-3.002,60.487,13.493s-25.09,54.758,36.105,75.592
	S256,106.274,256,106.274z"/>
<path style="fill:#F5CC00;" d="M256,106.274C318.789,11.317,426.567-3.002,451.513,13.493c24.946,16.496,25.09,54.758-36.105,75.591
	S256,106.274,256,106.274z"/>
<rect x="58.622" y="205.297" style="fill:#0086D8;" width="394.754" height="299.103"/>
<rect x="58.622" y="205.297" style="fill:#004F8D;" width="394.754" height="53.719"/>
<g>
	<path style="fill:#AC5C00;" d="M256,106.274C216.091,45.92,142.306,28.786,126.159,53.341S182.941,109.477,256,106.274z"/>
	<path style="fill:#AC5C00;" d="M256,106.274c39.908-60.354,113.694-77.488,129.84-52.932
		C401.987,77.897,329.059,109.477,256,106.274z"/>
</g>
<rect x="34.033" y="106.272" style="fill:#008AD8;" width="443.942" height="121.669"/>
<g>
	<path style="fill:#FEBC00;" d="M314.372,106.274c33.446,0,69.933,39.569,69.933,69.975l-42.148-20.618l-17.231,30.407
		c0,0-30.413-70.333-68.926-79.764"/>
	<path style="fill:#FEBC00;" d="M197.627,106.274c-33.446,0-69.933,39.569-69.933,69.975l42.148-20.618l17.231,30.407
		c0,0,30.413-70.333,68.926-79.764"/>
</g>
<rect x="228.639" y="106.272" style="fill:#F5CC00;" width="54.733" height="398.129"/>
<rect x="228.639" y="227.94" style="fill:#DDB303;" width="54.733" height="48.308"/>
<path d="M477.971,98.671h-67.68c2.593-0.772,5.133-1.563,7.566-2.391c45.568-15.513,55.055-38.671,56.654-51.095
	c1.901-14.771-5.13-28.989-18.807-38.032c-16.321-10.792-53.447-9.242-90.29,3.768C322.148,26.201,283.67,55.142,256,92.985
	c-27.671-37.843-66.149-66.784-109.417-82.063c-36.842-13.01-73.97-14.561-90.29-3.768c-13.678,9.043-20.708,23.261-18.806,38.032
	c1.599,12.424,11.086,35.581,56.654,51.095c2.461,0.837,4.987,1.629,7.549,2.391H34.028c-4.198,0-7.602,3.403-7.602,7.602v121.663
	c0,4.199,3.404,7.602,7.602,7.602H51.02v268.857c0,4.199,3.404,7.602,7.602,7.602h169.956c0.02,0,0.04,0.003,0.059,0.003h54.733
	c0.02,0,0.038-0.003,0.059-0.003h169.95c4.199,0,7.602-3.403,7.602-7.602V235.539h16.992c4.199,0,7.602-3.403,7.602-7.602V106.273
	C485.572,102.075,482.17,98.671,477.971,98.671z M276.712,98.671h-5.666c26.18-31.927,62.742-48.538,88.065-48.538
	c0.023,0,0.051,0,0.074,0c9.826,0.012,17.227,2.703,20.304,7.384c1.167,1.774,1.591,3.575-0.126,6.599
	c-3.724,6.558-16.946,16.428-42.888,24.471C317.876,94.352,297.22,97.801,276.712,98.671z M240.952,98.671h-5.66
	c-20.508-0.871-41.169-4.32-59.769-10.084c-25.942-8.043-39.164-17.913-42.887-24.47c-1.718-3.024-1.292-4.827-0.126-6.601
	c3.077-4.68,10.477-7.37,20.304-7.383c0.025,0,0.049,0,0.075,0C178.211,50.134,214.774,66.745,240.952,98.671z M217.836,113.874
	c3.258,0.086,6.368,0.148,9.31,0.191c-8.857,7.768-17.675,18.26-26.39,31.431c-5.891,8.899-10.706,17.489-14.203,24.202
	l-10.095-17.815c-1.983-3.498-6.345-4.847-9.954-3.081l-28.705,14.042c3.235-9.295,9.458-19.127,17.774-27.689
	c12.944-13.324,28.667-21.28,42.056-21.28C197.627,113.874,217.836,113.874,217.836,113.874z M236.238,126.391
	c6.327-5.741,12.992-10.145,19.76-12.227c6.768,2.084,13.436,6.496,19.769,12.249v93.922h-39.529V126.391z M284.82,114.038
	c2.526-0.039,5.178-0.092,7.944-0.162h21.607c13.389,0,29.111,7.955,42.056,21.28c8.316,8.562,14.539,18.393,17.773,27.689
	l-28.704-14.042c-3.611-1.765-7.973-0.416-9.954,3.081l-10.095,17.815c-3.497-6.713-8.313-15.303-14.204-24.202
	C302.516,132.31,293.688,121.809,284.82,114.038z M370.478,25.257c38.238-13.503,67.953-11.299,76.842-5.424
	c8.729,5.771,13.257,14.523,12.113,23.41c-0.924,7.176-7.303,25.308-46.476,38.644c-13.67,4.653-29.344,8.047-45.371,10.525
	c11.857-6.131,20.698-13.215,24.998-20.787c4.297-7.566,4.158-15.543-0.392-22.461c-6.023-9.16-17.738-14.214-32.988-14.235
	c-0.032,0-0.062,0-0.094,0c-4.483,0-9.166,0.427-13.974,1.238C353.343,31.972,361.808,28.318,370.478,25.257z M52.567,43.244
	c-1.144-8.887,3.384-17.638,12.113-23.41c4.064-2.687,12.486-4.607,24.086-4.607c13.765,0,32.005,2.702,52.755,10.03
	c8.671,3.062,17.135,6.715,25.341,10.911c-4.807-0.811-9.49-1.238-13.973-1.238c-0.031,0-0.063,0-0.094,0
	c-15.249,0.02-26.965,5.075-32.987,14.234c-4.549,6.919-4.688,14.895-0.391,22.462c4.3,7.571,13.138,14.654,24.992,20.785
	c-16.021-2.475-31.692-5.868-45.366-10.523C59.868,68.552,53.49,50.42,52.567,43.244z M41.629,113.874h115.182
	c-4.195,3.13-8.269,6.697-12.144,10.686c-15.387,15.839-24.574,35.161-24.574,51.687c0,2.623,1.352,5.06,3.577,6.448
	c2.224,1.388,5.009,1.531,7.365,0.38l35.722-17.474l13.703,24.182c1.354,2.39,3.886,3.855,6.613,3.855
	c0.136,0,0.273-0.004,0.409-0.011c2.881-0.154,5.425-1.926,6.569-4.574c4.346-10.052,14.27-29.214,26.984-45.811v77.093H41.629
	V113.874z M66.224,235.539h154.811v181.086c0,4.198,3.404,7.602,7.602,7.602l0,0c4.198,0,7.602-3.404,7.602-7.602V235.539h39.529
	v261.255h-39.529v-44.693c0-4.198-3.404-7.602-7.602-7.602l0,0c-4.198,0-7.602,3.404-7.602,7.602v44.693H66.224V235.539z
	 M470.369,220.335h-97.298c-4.198,0-7.602,3.404-7.602,7.602l0,0c0,4.198,3.404,7.602,7.602,7.602h72.704v261.255H290.971V235.539
	h46.624c4.198,0,7.602-3.404,7.602-7.602l0,0c0-4.198-3.404-7.602-7.602-7.602h-46.624v-77.054
	c12.701,16.587,22.626,35.73,26.977,45.774c1.144,2.647,3.689,4.419,6.569,4.574c0.137,0.007,0.274,0.011,0.408,0.011
	c2.727,0,5.258-1.464,6.612-3.855l13.703-24.182l35.525,17.378c1.861,0.91,4.022,1.142,5.981,0.468
	c3.149-1.083,5.158-4.004,5.158-7.2c0-16.526-9.186-35.848-24.573-51.687c-3.876-3.989-7.949-7.556-12.145-10.686h115.181v106.459
	H470.369z"/>
<g>
</g>
<g>
</g>
<g>
</g>
<g>
</g>
<g>
</g>
<g>
</g>
<g>
</g>
<g>
</g>
<g>
</g>
<g>
</g>
<g>
</g>
<g>
</g>
<g>
</g>
<g>
</g>
<g>
</g>
</svg>
