<?xml version="1.0" encoding="iso-8859-1"?>
<!-- Generator: Adobe Illustrator 19.0.0, SVG Export Plug-In . SVG Version: 6.00 Build 0)  -->
<svg version="1.1" id="Capa_1" xmlns="http://www.w3.org/2000/svg" xmlns:xlink="http://www.w3.org/1999/xlink" x="0px" y="0px"
	 viewBox="0 0 512 512" style="enable-background:new 0 0 512 512;" xml:space="preserve">
<path style="fill:#CC9D72;" d="M81.392,369.394l-53.265,32.76c-14.056,8.812-19.873,26.644-12.682,38.886l0,0
	c7.927,13.495,19.362,24.228,33.333,31.286c12.672,6.402,30.101-0.532,38.004-15.119l18.549-32.387
	C94.196,408.116,85.986,389.426,81.392,369.394z"/>
<path style="fill:#C19067;" d="M44.473,422.372l44.92-27.628c-3.314-8.161-6.001-16.628-8.001-25.349l-53.265,32.76
	c-14.056,8.811-19.873,26.643-12.682,38.885l0,0c4.314,7.346,9.676,13.865,15.912,19.427
	C24.858,448.259,30.715,430.996,44.473,422.372z"/>
<path style="fill:#CC9D72;" d="M483.943,402.155l-53.263-32.76c-4.592,20.032-12.803,38.723-23.939,55.426l18.549,32.386
	c7.904,14.586,25.332,21.52,38.004,15.119c13.97-7.058,25.405-17.79,33.333-31.286l0,0
	C503.818,428.798,498.001,410.966,483.943,402.155z"/>
<path style="fill:#C19067;" d="M440.064,432.85l-19.276-33.654c-3.944,8.959-8.649,17.528-14.047,25.625l18.549,32.386
	c7.904,14.586,25.332,21.52,38.004,15.119c8.026-4.054,15.209-9.328,21.378-15.636C468.361,459.679,449.421,450.119,440.064,432.85z
	"/>
<path style="fill:#CC9D72;" d="M460.801,203.708c0-111.542-96.729-200.127-212.004-196.074
	C139.031,11.3,51.401,97.762,51.401,203.708c0,11.303-0.007,28.23-0.017,43.254h-0.025c0.021,9.216,0.019,13.547,0,25.785h0.03
	c0.008,10.127,0.012,20.497,0.012,26.682c0,22.426,11.975,41.875,27.779,58.032l353.715,0.461
	c15.803-16.245,27.838-35.795,27.901-58.259C460.787,290.79,460.8,207.664,460.801,203.708z"/>
<path style="fill:#C19067;" d="M183.223,357.461c-15.803-16.159-27.779-35.606-27.779-58.032c0-6.186-0.004-16.556-0.012-26.682
	h-0.03c0.019-12.238,0.021-16.57,0-25.785h0.025c0.01-15.023,0.017-31.95,0.017-43.254c0-91.082,64.767-167.762,152.685-189.815
	c-18.899-4.753-38.82-6.98-59.333-6.259C139.031,11.3,51.401,97.762,51.401,203.708c0,11.303-0.007,28.23-0.017,43.254h-0.025
	c0.021,9.216,0.019,13.547,0,25.785h0.03c0.008,10.127,0.012,20.497,0.012,26.682c0,22.426,11.975,41.875,27.779,58.032
	l104.044,0.461c0.044-0.045-0.044-0.091,0-0.135V357.461z"/>
<g>
	<path style="fill:#DBBC3B;" d="M467.677,273.229c0,15.514-15.569,28.088-32.06,28.088v-56.174
		C452.107,245.143,467.677,257.717,467.677,273.229z"/>
	<path style="fill:#DBBC3B;" d="M44.396,273.521c0,15.675,15.73,28.38,32.393,28.38v-56.757
		C60.126,245.143,44.396,257.848,44.396,273.521z"/>
</g>
<g>
	<path style="fill:#CCAF37;" d="M435.616,277.323v23.993c16.491,0,32.06-12.574,32.06-28.088c0-4.292-1.196-8.358-3.27-11.996
		C458.985,270.744,447.544,277.323,435.616,277.323z"/>
	<path style="fill:#CCAF37;" d="M47.632,261.525c-2.052,3.644-3.236,7.708-3.236,11.996c0,15.675,15.73,28.38,32.393,28.38v-23.993
		C64.686,277.907,53.08,271.201,47.632,261.525z"/>
</g>
<path style="fill:#F4D44E;" d="M435.845,248.735c-0.012-1.242-0.956-4.458-0.049-3.669c0.058,0.051-13.075-24.43-22.301-41.621
	c-5.038-9.387-15.329-14.739-25.897-13.388c-29.516,3.774-90.329,4.544-125.737-44.183c-6.567-8.103-11.218-0.302-11.617-0.038
	l-0.003-0.002c-35.403,48.766-96.242,47.997-125.766,44.223c-10.568-1.351-20.859,4-25.897,13.388
	c-9.226,17.19-22.359,41.671-22.301,41.621c0.906-0.789-0.037,2.427-0.049,3.669c-0.039,4.076-0.04,83.319-0.04,83.461
	c0,95.649,81.643,173.541,181.819,172.315c97.208-0.85,177.878-76.655,177.878-172.51
	C435.867,246.191,435.879,252.196,435.845,248.735z"/>
<path style="fill:#E8C842;" d="M127.381,332.194c0-0.141,0-83.384,0.04-87.461c0.012-1.242,0.956-4.458,0.049-3.669
	c-0.058,0.051,13.075-24.43,22.301-41.621c1.695-3.158,3.995-5.847,6.69-7.99c-12.357,0.526-23.474-0.309-31.985-1.397
	c-10.568-1.351-20.859,4-25.897,13.388c-9.226,17.19-22.359,41.671-22.301,41.621c0.906-0.789-0.037,2.427-0.049,3.669
	c-0.04,4.076-0.04,83.319-0.04,83.461c0,95.649,81.643,173.541,181.819,172.315c7.963-0.07,15.811-0.652,23.516-1.697
	C194.412,490.951,127.381,418.862,127.381,332.194z"/>
<path style="fill:#656566;" d="M203.057,403.747c21.939,42.164,81.877,43.264,105.667,2.834c2.797-4.753-0.62-10.744-6.141-10.744
	h-94.71C203.806,395.836,201.181,400.143,203.057,403.747z"/>
<path style="fill:#4F4F51;" d="M227.999,403.747c-1.436-3.603,0.574-7.911,3.69-7.911h-23.816c-4.066,0-6.692,4.306-4.816,7.911
	c11.835,22.745,36.324,34.905,60.754,32.067C250.084,433.734,235.826,423.374,227.999,403.747z"/>
<path style="fill:#656566;" d="M192.079,278.858c-6.385-11.043-20.524-14.826-31.582-8.451
	c-11.058,6.376-14.846,20.496-8.463,31.539s20.524,14.826,31.582,8.451C194.675,304.021,198.463,289.901,192.079,278.858z"/>
<path style="fill:#4F4F51;" d="M172.057,290.402c-4.278-7.4-3.982-16.178,0.002-23.085c-3.93-0.004-7.914,0.987-11.561,3.09
	c-11.058,6.376-14.846,20.496-8.463,31.539c6.385,11.043,20.524,14.826,31.582,8.451c3.648-2.103,6.5-5.052,8.461-8.454
	C184.095,301.935,176.335,297.801,172.057,290.402z"/>
<path style="fill:#DBBC3B;" d="M270.226,313.49h-28.292c-3.83,0-6.964,3.129-6.964,6.955v5.288c0,8.993,5.702,17.148,14.293,19.842
	c14.553,4.563,27.927-6.166,27.927-20.015v-5.116C277.189,316.619,274.056,313.49,270.226,313.49z"/>
<path style="fill:#CCAF37;" d="M256.079,320.444c0-3.825,3.134-6.955,6.964-6.955h-21.11c-3.83,0-6.964,3.129-6.964,6.955v5.288
	c0,16.902,18.108,25.803,31.549,18.15C253.617,336.565,256.434,322.182,256.079,320.444z"/>
<path style="fill:#656566;" d="M360.125,278.858c-6.385-11.043-20.524-14.826-31.582-8.451s-14.846,20.496-8.463,31.539
	c6.385,11.043,20.524,14.826,31.582,8.451C362.72,304.021,366.51,289.901,360.125,278.858z"/>
<path style="fill:#4F4F51;" d="M340.104,267.315c-17.649-0.018-28.961,19.172-20.024,34.629c8.936,15.455,31.234,15.27,40.043-0.003
	C352.141,301.935,331.224,282.711,340.104,267.315z"/>
<path d="M240.283,441.99c30.33,7.523,60.211-6.441,74.863-31.376c5.74-9.767-1.286-22.06-12.606-22.06h-94.711
	c-9.699,0-15.94,10.283-11.472,18.881C197.163,408.985,221.185,437.252,240.283,441.99z M301.89,403.555
	c-20.788,34.406-70.621,33.154-90.514,0H301.89z"/>
<path d="M234.926,306.094c-4.143,0-7.501,3.357-7.501,7.501v12.088c0,15.775,12.834,28.61,28.61,28.61s28.611-12.834,28.611-28.61
	v-12.088c0-4.143-3.357-7.501-7.501-7.501c-4.143,0-7.501,3.357-7.501,7.501v12.088c0,7.504-6.105,13.608-13.609,13.608
	c-7.504,0-13.608-6.105-13.608-13.608v-12.088C242.427,309.452,239.07,306.094,234.926,306.094z"/>
<path d="M340.059,321.095c16.885,0,30.62-13.735,30.62-30.62c0-16.885-13.735-30.62-30.62-30.62c-16.885,0-30.62,13.735-30.62,30.62
	C309.439,307.36,323.175,321.095,340.059,321.095z M340.059,274.857c8.612,0,15.618,7.007,15.618,15.618
	s-7.007,15.618-15.618,15.618c-8.612,0-15.618-7.007-15.618-15.618S331.447,274.857,340.059,274.857z"/>
<path d="M172.014,321.095c16.885,0,30.62-13.735,30.62-30.62c0-16.885-13.735-30.62-30.62-30.62s-30.621,13.735-30.621,30.62
	C141.393,307.36,155.129,321.095,172.014,321.095z M172.014,274.857c8.612,0,15.618,7.007,15.618,15.618
	s-7.007,15.618-15.618,15.618c-8.613,0-15.619-7.007-15.619-15.618S163.401,274.857,172.014,274.857z"/>
<path d="M380.2,250.204c-23.182-19.4-57.042-19.448-80.28,0c-3.177,2.659-3.597,7.39-0.938,10.566
	c2.66,3.177,7.39,3.596,10.566,0.938c17.652-14.773,43.397-14.753,61.026,0c1.404,1.175,3.111,1.748,4.81,1.748
	C382.392,263.457,385.532,254.667,380.2,250.204z"/>
<path d="M202.525,261.708c1.404,1.176,3.111,1.749,4.81,1.749c7.008,0,10.15-8.791,4.817-13.252
	c-23.223-19.438-57.089-19.411-80.279,0c-3.177,2.658-3.597,7.39-0.938,10.565c2.659,3.177,7.391,3.598,10.565,0.938
	c8.535-7.144,19.371-11.077,30.513-11.077C183.154,250.631,193.99,254.565,202.525,261.708z"/>
<path d="M8.978,444.84c8.624,14.683,21.217,26.502,36.417,34.181c16.55,8.359,38.39-0.54,47.981-18.241l11.831-21.834
	c74.996,97.205,226.35,97.606,301.658,0.001l11.83,21.834c9.63,17.771,31.519,26.556,47.981,18.24
	c15.199-7.679,27.794-19.498,36.418-34.182c9.2-15.661,2.254-38.118-15.167-49.039l-47.805-29.966
	c0.131-0.669,0.264-1.337,0.387-2.007c0.264-0.207,0.521-0.426,0.761-0.673c17.636-18.129,26.723-39.157,27.023-62.525h0.004
	c0-0.148-0.001,0.452,0.004-1.393H468.3c-0.007-0.333-0.004,1.379-0.008-6.549c9.175-12.026,9.184-27.35-0.001-39.388
	c0-1.403,0.01-46.786,0.01-49.593c0-50.32-19.252-98.617-54.21-135.995c-2.829-3.025-7.577-3.185-10.602-0.354
	c-3.025,2.829-3.184,7.576-0.354,10.602c32.35,34.589,50.165,79.247,50.165,125.749c0,2.256-0.004,17.623-0.008,37.739
	c-3.959-1.815-8.279-3.04-12.808-3.541c-0.146-0.273-1.781-3.35-20.38-38.008c-6.477-12.066-19.92-19.014-33.458-17.281
	c-13.924,1.782-35.12,2.873-57.013-2.039c-4.043-0.906-8.055,1.635-8.962,5.677c-0.906,4.042,1.635,8.055,5.677,8.962
	c24.021,5.39,47.084,4.216,62.202,2.281c7.399-0.944,14.78,2.867,18.337,9.495c13.285,24.755,18.94,35.31,21.086,39.329
	c0.554,7.984,0.382-18.581,0.413,85.874c0,43.655-17.814,85.122-50.065,116.159c-78.202,75.261-208.362,61.074-267.75-27.694
	c-12.653-18.981-17.819-33.941-22.94-53.19c-4.328-19.085-4.566-27.177-3.905-118.456c0.079-0.589,0.294-1.502,0.375-2.694
	c2.617-4.901,9.683-18.078,21.086-39.328c3.557-6.627,10.938-10.448,18.337-9.495c50.533,6.465,102.091-5.238,132.518-46.859
	c9.56,13.044,21.467,23.606,35.515,31.484c3.611,2.025,8.184,0.74,10.211-2.874c2.025-3.612,0.739-8.185-2.874-10.211
	c-15.077-8.455-27.326-20.512-36.404-35.836c-2.894-4.888-10-4.906-12.906,0.001c-25.592,43.202-74.203,55.806-124.156,49.416
	c-13.543-1.725-26.981,5.215-33.457,17.281c-18.147,33.815-20.256,37.777-20.38,38.008c-4.493,0.496-8.779,1.704-12.712,3.495
	c0.014-11.529,0.023-24.084,0.023-37.693c0-49.16,19.646-95.706,55.316-131.066C185.652,1.831,299.784-3.496,377.917,55.32
	c3.311,2.49,8.014,1.828,10.504-1.481c2.491-3.31,1.828-8.013-1.481-10.504C302.782-20.014,180.317-14.002,103.655,61.99
	c-38.535,38.198-59.756,88.528-59.756,141.719c0,18.406-0.017,34.899-0.039,49.493c-9.289,12.084-9.287,27.512,0.006,39.596
	c0.022,4.08,0.033-1.972,0.033,6.633c0,23.725,9.057,45.015,26.916,63.277c0.206,0.21,0.422,0.402,0.645,0.582
	c0.153,0.851,0.325,1.697,0.491,2.545l-20.221,12.675c-3.51,2.2-4.571,6.829-2.371,10.339c2.2,3.51,6.829,4.572,10.339,2.371
	l15.995-10.027c4.531,15.464,11.215,30.243,19.904,44.001l-15.41,28.44c-5.929,10.939-19.027,16.544-28.028,11.998
	c-12.625-6.378-23.084-16.194-30.247-28.391c-4.838-8.235-0.972-20.639,8.618-27.649c3.345-2.444,4.073-7.138,1.629-10.481
	c-2.444-3.346-7.141-4.073-10.481-1.629C5.782,409.1,0.204,429.903,8.978,444.84z M443.386,253.766
	c9.429,2.847,16.791,10.735,16.791,19.228c0,8.493-7.362,16.383-16.791,19.231V253.766z M443.381,307.665
	c3.408-0.621,6.673-1.653,9.726-3.035c-0.773,11.119-4.047,21.607-9.769,31.376C443.427,331.869,443.367,332.996,443.381,307.665z
	 M436.379,381.192l43.581,27.318c10.542,6.608,15.309,20.034,10.2,28.731c-7.164,12.196-17.623,22.013-30.248,28.391
	c-9.001,4.546-22.1-1.059-28.028-11.997l-15.409-28.441C425.164,411.436,431.847,396.656,436.379,381.192z M51.896,272.993
	c0-8.492,7.362-16.381,16.791-19.228v38.458C59.258,289.375,51.896,281.487,51.896,272.993z M59.108,304.697
	c3.012,1.35,6.229,2.358,9.584,2.969c0.016,26.364-0.044,23.674,0.038,27.919C63.107,325.975,59.886,315.65,59.108,304.697z"/>
<g>
</g>
<g>
</g>
<g>
</g>
<g>
</g>
<g>
</g>
<g>
</g>
<g>
</g>
<g>
</g>
<g>
</g>
<g>
</g>
<g>
</g>
<g>
</g>
<g>
</g>
<g>
</g>
<g>
</g>
</svg>
