<?xml version="1.0" encoding="iso-8859-1"?>
<!-- Generator: Adobe Illustrator 19.0.0, SVG Export Plug-In . SVG Version: 6.00 Build 0)  -->
<svg version="1.1" id="Capa_1" xmlns="http://www.w3.org/2000/svg" xmlns:xlink="http://www.w3.org/1999/xlink" x="0px" y="0px"
	 viewBox="0 0 512.001 512.001" style="enable-background:new 0 0 512.001 512.001;" xml:space="preserve">
<circle style="fill:#F4D44E;" cx="256.012" cy="256.002" r="248.452"/>
<path style="fill:#FC8B75;" d="M384.825,370.226l-29.048-39.222c-17.584,34.915-51.43,56.86-87.753,60.766l31.07,41.951
	c17.534,23.674,50.938,28.652,74.613,11.119C397.381,427.306,402.358,393.9,384.825,370.226z"/>
<path style="fill:#EA7363;" d="M319.498,415.72l-22.923-30.95c-9.159,3.573-18.764,5.948-28.552,7l31.07,41.951
	c17.534,23.674,50.938,28.652,74.613,11.119c5.071-3.756,9.278-8.244,12.597-13.206C363.547,443.096,335.178,436.891,319.498,415.72
	z"/>
<path style="fill:#E8C842;" d="M174.857,446.228C18.429,355.914,8.932,134.754,153.608,30.373
	C107.806,50.981,67.811,85.638,40.781,132.455c-68.483,118.617-27.842,270.291,90.774,338.774
	c87.291,50.397,192.483,41.691,269.25-13.694C330.563,489.139,246.657,487.681,174.857,446.228z"/>
<path d="M311.994,218.812c16.569-23.734,9.872-23.595,26.345,0c2.305,3.441,6.966,4.358,10.405,2.054
	c3.441-2.307,4.36-6.965,2.054-10.405l-10.452-15.594c-6.366-9.496-15.073-8.8-15.18-8.83c-5.884,0-11.418,3.219-15.181,8.831
	l-10.452,15.592c-2.307,3.44-1.387,8.1,2.054,10.405C305.027,223.173,309.688,222.252,311.994,218.812z"/>
<path d="M163.275,220.716c3.441,2.306,8.1,1.387,10.406-2.053c9.063-12.982,11-17.775,13.173-17.775
	c2.17,0,4.056,4.717,13.173,17.775c1.447,2.158,3.819,3.324,6.236,3.324c5.909,0,9.591-6.654,6.223-11.679l-10.452-15.591
	c-3.762-5.612-9.294-8.831-15.18-8.831s-11.418,3.219-15.18,8.83l-10.452,15.593C158.915,213.75,159.834,218.409,163.275,220.716z"
	/>
<path d="M56.953,416.942c1.482,1.837,3.652,2.791,5.843,2.791c6.196,0,9.836-7.246,5.833-12.21
	C-24.581,291.973,7.525,121.23,135.533,47.325c87.593-50.57,195.374-40.486,271.734,21.042c3.227,2.6,7.947,2.091,10.546-1.134
	c2.599-3.226,2.091-7.947-1.134-10.546C335.656-8.597,221.175-19.439,128.033,34.334C-7.956,112.848-42.034,294.22,56.953,416.942z"
	/>
<path d="M443.215,81.37c-2.822-3.029-7.566-3.199-10.602-0.378c-3.031,2.823-3.2,7.569-0.378,10.602
	c105.509,113.296,78.668,295.473-55.749,373.077c-95.338,55.042-210.475,36.897-284.724-32.298
	c-3.03-2.823-7.775-2.654-10.601,0.374c-2.823,3.03-2.656,7.776,0.374,10.602c79.805,74.366,202.227,92.179,302.452,34.314
	C526.904,395.147,555.206,201.642,443.215,81.37z"/>
<path d="M369.242,438.812c-18.037,13.358-43.629,11.533-59.53-4.246c-2.94-2.917-7.688-2.899-10.606,0.042
	c-2.917,2.939-2.898,7.688,0.042,10.606c11.357,11.269,26.798,17.604,42.825,17.604c49.345,0,78.78-56.685,48.88-97.057
	l-26.359-35.59c4.32-9.519-9.46-15.468-13.529-6.474c-36.646,80.983-152.721,81.8-189.915-0.012
	c-1.713-3.771-6.157-5.438-9.932-3.725c-3.771,1.715-5.438,6.161-3.725,9.932c20.958,46.088,67.949,73.103,117.079,69.685
	l12.557,16.955c2.466,3.328,7.162,4.027,10.491,1.563c3.328-2.466,4.028-7.162,1.563-10.491l-7.706-10.404
	c12.625-2.739,25.033-7.691,36.288-14.489l13.982,18.879c1.472,1.986,3.737,3.036,6.033,3.036c6.074,0,9.713-6.978,6.021-11.965
	l-13.695-18.491c10.507-8.304,19.352-18.091,26.594-29.447l22.195,29.967C393.842,395.003,389.555,423.769,369.242,438.812z"/>
<g>
</g>
<g>
</g>
<g>
</g>
<g>
</g>
<g>
</g>
<g>
</g>
<g>
</g>
<g>
</g>
<g>
</g>
<g>
</g>
<g>
</g>
<g>
</g>
<g>
</g>
<g>
</g>
<g>
</g>
</svg>
