<?xml version="1.0" encoding="iso-8859-1"?>
<!-- Generator: Adobe Illustrator 19.0.0, SVG Export Plug-In . SVG Version: 6.00 Build 0)  -->
<svg version="1.1" id="Layer_1" xmlns="http://www.w3.org/2000/svg" xmlns:xlink="http://www.w3.org/1999/xlink" x="0px" y="0px"
	 viewBox="0 0 512.001 512.001" style="enable-background:new 0 0 512.001 512.001;" xml:space="preserve">
<path style="fill:#FFFFFF;" d="M256.005,48.793c-0.598,0-1.208-0.061-1.793-0.171c-0.586-0.122-1.159-0.293-1.708-0.525
	c-0.549-0.232-1.086-0.512-1.586-0.842c-0.5-0.329-0.964-0.72-1.391-1.135c-1.696-1.708-2.672-4.062-2.672-6.466
	c0-0.598,0.061-1.208,0.183-1.793c0.11-0.586,0.293-1.159,0.512-1.708c0.232-0.561,0.512-1.086,0.842-1.586
	c0.329-0.5,0.72-0.964,1.135-1.391c0.427-0.415,0.891-0.805,1.391-1.135c0.5-0.329,1.037-0.61,1.586-0.842
	c0.549-0.232,1.122-0.403,1.708-0.525c2.977-0.598,6.136,0.378,8.259,2.501c0.427,0.427,0.805,0.891,1.135,1.391
	s0.61,1.025,0.842,1.586c0.232,0.549,0.403,1.122,0.525,1.708c0.122,0.586,0.183,1.196,0.183,1.793c0,0.586-0.061,1.196-0.183,1.781
	c-0.122,0.586-0.293,1.159-0.525,1.708c-0.232,0.561-0.512,1.086-0.842,1.586c-0.329,0.5-0.708,0.964-1.135,1.391
	C260.763,47.816,258.408,48.793,256.005,48.793z"/>
<circle style="fill:#F7B239;" cx="256.005" cy="256.004" r="246.855"/>
<path style="fill:#E09B2D;" d="M126.308,385.694c-88.802-88.802-95.799-228.426-20.999-325.241
	c-8.286,6.401-16.258,13.399-23.858,20.999c-96.401,96.401-96.401,252.698,0,349.099s252.698,96.401,349.099,0
	c7.599-7.599,14.597-15.573,20.999-23.858C354.735,481.492,215.109,474.495,126.308,385.694z"/>
<path style="fill:#FFFFFF;" d="M131.567,308.186h248.868c0,13.968-2.306,27.4-6.551,39.941H138.118
	C133.873,335.586,131.567,322.154,131.567,308.186z"/>
<path style="fill:#A81004;" d="M138.118,348.127h235.765c-8.369,24.716-24.289,45.931-45.016,60.924
	c-8.71-14.676-24.716-24.509-43.027-24.509c-11.187,0-21.508,3.672-29.84,9.882c-8.332-6.209-18.665-9.882-29.852-9.882
	c-18.299,0-34.317,9.833-43.015,24.509C162.407,394.057,146.487,372.843,138.118,348.127z"/>
<path style="fill:#F95428;" d="M285.841,384.542c18.311,0,34.317,9.833,43.027,24.509c-20.483,14.834-45.662,23.569-72.867,23.569
	s-52.384-8.735-72.867-23.569c8.698-14.676,24.716-24.509,43.015-24.509c11.187,0,21.52,3.672,29.852,9.882
	C264.333,388.214,274.654,384.542,285.841,384.542z"/>
<path d="M256,0C114.842,0,0.001,114.841,0.001,256.001S114.842,512.001,256,512.001c141.159,0,256.001-114.841,256.001-256.001
	S397.159,0,256,0z M256,493.701c-131.068,0-237.7-106.631-237.7-237.7S124.932,18.299,256,18.299
	c131.069,0,237.702,106.632,237.702,237.702S387.069,493.701,256,493.701z"/>
<path d="M141.995,231.285c-5.053,0-9.15,4.097-9.15,9.15c0,5.053,4.097,9.15,9.15,9.15h14.116v22.543c0,5.053,4.097,9.15,9.15,9.15
	s9.15-4.097,9.15-9.15v-23.866c13.436-3.957,23.276-16.397,23.276-31.099c0-14.702-9.839-27.141-23.276-31.099V156.5h14.127
	c5.053,0,9.15-4.097,9.15-9.15c0-5.053-4.097-9.15-9.15-9.15H174.41v-22.537c0-5.053-4.097-9.15-9.15-9.15
	c-5.053,0-9.15,4.097-9.15,9.15v23.863c-13.432,3.961-23.265,16.398-23.265,31.096s9.834,27.134,23.265,31.095v29.568h-14.116
	V231.285z M179.388,217.164c0,4.299-1.937,8.149-4.977,10.74v-21.482C177.451,209.016,179.388,212.865,179.388,217.164z
	 M151.145,170.622c0-4.294,1.932-8.139,4.966-10.732v21.462C153.079,178.761,151.145,174.916,151.145,170.622z"/>
<path d="M380.668,156.501c5.053,0,9.15-4.097,9.15-9.15c0-5.053-4.097-9.15-9.15-9.15h-14.127v-22.538c0-5.053-4.097-9.15-9.15-9.15
	c-5.053,0-9.15,4.097-9.15,9.15v23.863c-13.432,3.961-23.265,16.398-23.265,31.096s9.834,27.134,23.265,31.095v29.568h-14.116
	c-5.053,0-9.15,4.097-9.15,9.15c0,5.053,4.097,9.15,9.15,9.15h14.116v22.543c0,5.053,4.097,9.15,9.15,9.15
	c5.053,0,9.15-4.097,9.15-9.15v-23.866c13.436-3.959,23.276-16.397,23.276-31.099c0-14.701-9.839-27.141-23.276-31.099v-29.564
	H380.668z M343.276,170.622c0-4.294,1.932-8.139,4.966-10.732v21.464C345.209,178.763,343.276,174.916,343.276,170.622z
	 M371.518,217.164c0,4.299-1.937,8.148-4.977,10.74v-21.481C369.582,209.016,371.518,212.865,371.518,217.164z"/>
<path d="M380.435,299.036H131.567c-5.053,0-9.15,4.097-9.15,9.15c0,14.662,2.367,29.088,7.034,42.876
	c8.934,26.382,25.643,48.999,48.314,65.4c22.86,16.557,49.914,25.309,78.235,25.309c28.32,0,55.373-8.752,78.23-25.305
	c22.676-16.405,39.386-39.02,48.319-65.402l0,0c4.667-13.788,7.034-28.214,7.034-42.875
	C389.585,303.133,385.488,299.036,380.435,299.036z M370.927,317.336c-0.576,7.339-1.854,14.575-3.809,21.642H144.883
	c-1.954-7.067-3.233-14.303-3.809-21.642H370.927z M196.223,406.774c7.649-8.21,18.5-13.083,29.926-13.083
	c8.87,0,17.302,2.79,24.384,8.069c3.244,2.417,7.692,2.417,10.936,0c7.082-5.279,15.509-8.069,24.372-8.069
	c11.422,0,22.274,4.871,29.932,13.086c-17.972,10.945-38.453,16.692-59.772,16.692C234.68,423.47,214.199,417.723,196.223,406.774z
	 M330.677,396.013c-11.137-12.9-27.534-20.619-44.836-20.619c-10.624,0-20.819,2.77-29.84,8.066
	c-9.021-5.296-19.221-8.066-29.852-8.066c-17.31,0-33.706,7.722-44.829,20.617c-12.623-10.71-22.681-23.855-29.665-38.733h208.694
	C353.362,372.156,343.304,385.301,330.677,396.013z"/>
<g>
</g>
<g>
</g>
<g>
</g>
<g>
</g>
<g>
</g>
<g>
</g>
<g>
</g>
<g>
</g>
<g>
</g>
<g>
</g>
<g>
</g>
<g>
</g>
<g>
</g>
<g>
</g>
<g>
</g>
</svg>
