<?xml version="1.0" encoding="iso-8859-1"?>
<!-- Generator: Adobe Illustrator 19.0.0, SVG Export Plug-In . SVG Version: 6.00 Build 0)  -->
<svg version="1.1" id="Capa_1" xmlns="http://www.w3.org/2000/svg" xmlns:xlink="http://www.w3.org/1999/xlink" x="0px" y="0px"
	 viewBox="0 0 512 512" style="enable-background:new 0 0 512 512;" xml:space="preserve">
<circle style="fill:#F4D44E;" cx="255.995" cy="256.006" r="248.445"/>
<path style="fill:#E8C842;" d="M174.848,446.231C18.423,355.92,8.925,134.765,153.598,30.388
	C107.797,50.994,67.803,85.651,40.774,132.467c-68.481,118.614-27.842,270.284,90.772,338.765
	c87.289,50.396,192.478,41.691,269.243-13.693C330.548,489.142,246.644,487.682,174.848,446.231z"/>
<path style="fill:#EAE9E8;" d="M320.38,345.706H191.564c-16.741,0-30.313-13.571-30.313-30.313l0,0
	c0-16.741,13.571-30.313,30.313-30.313H320.38c16.741,0,30.313,13.571,30.313,30.313l0,0
	C350.692,332.135,337.121,345.706,320.38,345.706z"/>
<g>
	<path style="fill:#DBDBDB;" d="M186.818,315.394L186.818,315.394c0-16.741,13.571-30.313,30.313-30.313h-25.567
		c-16.741,0-30.313,13.571-30.313,30.313l0,0c0,16.741,13.571,30.313,30.313,30.313h25.566
		C200.389,345.706,186.818,332.135,186.818,315.394z"/>
	<path style="fill:#DBDBDB;" d="M191.564,345.706H320.38c16.741,0,30.313-13.571,30.313-30.313l0,0H161.251l0,0
		C161.251,332.135,174.823,345.706,191.564,345.706z"/>
</g>
<path style="fill:#C9C6C5;" d="M186.818,315.394L186.818,315.394h-25.567l0,0c0,16.876,13.719,30.313,30.313,30.313h25.566
	C200.389,345.706,186.818,332.135,186.818,315.394z"/>
<circle style="fill:#656566;" cx="326.637" cy="195.554" r="21.633"/>
<path style="fill:#4F4F51;" d="M326.639,195.556c-4.001-6.93-3.714-15.146,0.01-21.616c-3.68-0.005-7.41,0.909-10.826,2.882
	c-10.347,5.974-13.892,19.204-7.918,29.552c5.974,10.347,19.204,13.892,29.552,7.918c3.417-1.973,6.073-4.745,7.909-7.935
	C337.899,206.345,330.641,202.486,326.639,195.556z"/>
<circle style="fill:#656566;" cx="185.614" cy="195.554" r="21.633"/>
<path style="fill:#4F4F51;" d="M185.614,195.556c-4.001-6.93-3.714-15.146,0.01-21.616c-3.68-0.005-7.41,0.909-10.826,2.882
	c-10.347,5.974-13.892,19.204-7.918,29.552c5.974,10.347,19.204,13.892,29.552,7.918c3.417-1.973,6.073-4.745,7.909-7.935
	C196.874,206.345,189.615,202.486,185.614,195.556z"/>
<path d="M355.812,195.556c0-16.086-13.087-29.174-29.174-29.174s-29.174,13.087-29.174,29.174c0,16.085,13.087,29.173,29.174,29.173
	S355.812,211.642,355.812,195.556z M312.466,195.556c0-7.814,6.358-14.173,14.173-14.173c7.815,0,14.173,6.358,14.173,14.173
	s-6.358,14.172-14.173,14.172C318.825,209.729,312.466,203.371,312.466,195.556z"/>
<path d="M214.528,195.556c0-16.086-13.087-29.174-29.174-29.174s-29.174,13.087-29.174,29.174c0,16.085,13.087,29.173,29.174,29.173
	S214.528,211.642,214.528,195.556z M171.181,195.556c0-7.814,6.358-14.173,14.173-14.173s14.173,6.358,14.173,14.173
	s-6.358,14.172-14.173,14.172S171.181,203.371,171.181,195.556z"/>
<path d="M191.564,353.207H320.38c20.85,0,37.814-16.962,37.814-37.813s-16.963-37.813-37.814-37.813H191.564
	c-20.849,0-37.813,16.962-37.813,37.813S170.714,353.207,191.564,353.207z M276.519,307.894H170.024
	c3.11-8.904,11.588-15.312,21.539-15.312H320.38c9.952,0,18.43,6.408,21.54,15.312h-30.4c-4.143,0-7.5,3.357-7.5,7.5
	s3.357,7.5,7.5,7.5h30.4c-2.764,7.948-9.776,13.742-17.952,15.027c-3.038,0.482-133.561,0.631-137.629-0.326
	c-7.82-1.847-13.826-7.58-16.314-14.701h106.494c4.143,0,7.5-3.357,7.5-7.5S280.662,307.894,276.519,307.894z"/>
<path d="M330.011,11C267.763-7.786,201.449-2.38,143.281,26.223c-3.717,1.828-5.249,6.323-3.421,10.04
	c1.829,3.716,6.322,5.251,10.04,3.421c54.751-26.922,117.178-32.009,175.777-14.323c122.141,36.86,193.094,161.726,165.28,284.011
	C477.53,368.4,442.814,419.79,393.203,454.074c-3.408,2.354-4.262,7.026-1.906,10.434c2.362,3.419,7.037,4.255,10.434,1.906
	c52.709-36.425,89.591-91.015,103.853-153.715C535.169,182.626,459.593,50.105,330.011,11z"/>
<path d="M370.723,484.791c3.701-1.859,5.193-6.368,3.333-10.069c-1.859-3.7-6.365-5.195-10.069-3.333
	C249.188,529.082,110.51,485.912,47.33,376.48c-63.14-109.363-31.059-249.018,73.199-319.735c3.428-2.325,4.322-6.989,1.997-10.417
	c-2.325-3.428-6.989-4.32-10.417-1.997C1.509,119.349-32.842,267.619,34.34,383.979
	C101.716,500.679,249.234,545.849,370.723,484.791z"/>
<g>
</g>
<g>
</g>
<g>
</g>
<g>
</g>
<g>
</g>
<g>
</g>
<g>
</g>
<g>
</g>
<g>
</g>
<g>
</g>
<g>
</g>
<g>
</g>
<g>
</g>
<g>
</g>
<g>
</g>
</svg>
