<?xml version="1.0" encoding="iso-8859-1"?>
<!-- Generator: Adobe Illustrator 19.0.0, SVG Export Plug-In . SVG Version: 6.00 Build 0)  -->
<svg version="1.1" id="Capa_1" xmlns="http://www.w3.org/2000/svg" xmlns:xlink="http://www.w3.org/1999/xlink" x="0px" y="0px"
	 viewBox="0 0 512 512" style="enable-background:new 0 0 512 512;" xml:space="preserve">
<rect x="89.724" y="202.045" style="fill:#CCD6D8;" width="108.986" height="27.373"/>
<rect x="89.724" y="216.239" style="fill:#AFBBBC;" width="108.986" height="13.18"/>
<rect x="7.604" y="171.631" style="fill:#CCD6D8;" width="191.106" height="30.415"/>
<rect x="7.604" y="186.838" style="fill:#AFBBBC;" width="191.106" height="15.207"/>
<rect x="7.604" y="110.801" style="fill:#CCD6D8;" width="191.106" height="60.83"/>
<rect x="7.604" y="148.313" style="fill:#AFBBBC;" width="191.106" height="23.318"/>
<path style="fill:#94A6AE;" d="M28.897,110.803V69.236l0,0c18.717,0,36.559,7.931,49.099,21.827l17.814,19.74"/>
<path style="fill:#8FA3A9;" d="M336.752,309.93c-3.934,0.082-7.621,0.082-11.39,0.082c-1.393,0-2.868,0-4.261,0V125.225
	l15.651-26.632c0,54.657,52.118,107.512,96.941,139.307c84.567,59.902,69.654,204.864,69.654,204.864H350.764v-3.113
	c0-11.063,9.014-20.077,20.159-20.077c0-41.71-8.522-69.08-17.044-86.042C345.274,316.485,336.752,309.93,336.752,309.93z"/>
<g>
	<path style="fill:#94A6AE;" d="M371.912,419.573c-5.572,0-10.571,2.212-14.258,5.9c-3.687,3.605-5.9,8.604-5.9,14.176v3.113
		h152.583v-23.19"/>
	<path style="fill:#94A6AE;" d="M336.752,255.655H197.869c-14.566,0-26.374-11.808-26.374-26.374V98.592h165.257V255.655z"/>
</g>
<path style="fill:#CCD6D8;" d="M277.013,226.052h-78.3v-98.468h78.3c19.467,0,35.249,15.781,35.249,35.249v27.971
	C312.262,210.271,296.481,226.052,277.013,226.052z"/>
<path style="fill:#B3BBBC;" d="M277.013,200.706h-78.3v25.346h78.3c19.467,0,35.249-15.781,35.249-35.249v-25.346
	C312.262,184.925,296.481,200.706,277.013,200.706z"/>
<path style="fill:#B58058;" d="M469.182,367.653c-3.696-23.623-11.431-52.907-27.526-76.824
	c-4.916-7.305-14.098-10.438-22.441-7.622l-26.408,8.917c-11.16,3.768-16.294,16.549-10.968,27.054
	c0.041,0.08,0.081,0.161,0.122,0.241c10.345,20.59,16.782,45.143,19.243,73.227h70.831
	C471.457,384.846,470.555,376.426,469.182,367.653z"/>
<path d="M198.713,119.98c-4.199,0-7.604,3.403-7.604,7.604v98.468c0,4.2,3.404,7.604,7.604,7.604h78.3
	c23.629,0,42.852-19.223,42.852-42.852v-27.971c0-23.629-19.223-42.852-42.852-42.852h-78.3V119.98z M304.658,162.833v27.971
	c0,15.243-12.401,27.645-27.645,27.645h-70.696v-9.214h68.491c4.2,0,7.604-3.403,7.604-7.604c0-4.2-3.403-7.604-7.604-7.604h-68.491
	v-9.606h68.491c4.2,0,7.604-3.403,7.604-7.604c0-4.2-3.403-7.604-7.604-7.604h-68.491v-9.607h68.491c4.2,0,7.604-3.403,7.604-7.604
	s-3.403-7.604-7.604-7.604h-68.491v-9.213h70.696C292.257,135.188,304.658,147.59,304.658,162.833z"/>
<path d="M507.749,361.626c-9.288-59.286-33.365-104.214-69.632-129.929c-47.382-33.599-70.962-65.444-82.614-90.005l3.768-4.942
	c10.413-13.659,26.429-22.673,43.603-22.398c4.557,0.073,8.214-3.863,7.676-8.511c-0.455-3.928-3.987-6.717-7.941-6.694
	c-20.789,0.12-40.705,9.822-53.639,26.068c-3.903-12.301-4.615-21.564-4.615-26.62c0-4.2-3.403-7.604-7.604-7.604H319.36
	c-4.199,0-7.604,3.404-7.604,7.604l0,0c0,4.199,3.404,7.604,7.604,7.604h9.789v141.855H197.868c-10.366,0-18.77-8.404-18.77-18.77
	v-27.233v-30.415v-60.83v-4.607h104.776c4.199,0,7.604-3.404,7.604-7.604l0,0c0-4.199-3.404-7.604-7.604-7.604H171.495
	c-4.199,0-7.604,3.404-7.604,7.604v4.607H99.19L83.641,85.969C69.683,70.502,49.731,61.632,28.899,61.632
	c-4.198,0-7.606,3.405-7.606,7.604v33.963H7.604c-4.199,0-7.604,3.404-7.604,7.604v60.83v30.415c0,4.199,3.404,7.604,7.604,7.604
	h74.519v19.77c0,4.199,3.404,7.604,7.604,7.604h75.065c3.515,15.015,17.006,26.234,33.076,26.234h17.894
	c4.448,15.931,14.474,42.836,32.762,49.927c4.999,1.902,18.398,4.43,76.783,4.43h0.113c5.871,0,11.376,2.853,14.724,7.632
	c18.356,26.2,22.481,63.969,23.068,87.776c-11.575,3.341-20.065,14.031-20.065,26.667v3.073c0,4.199,3.404,7.604,7.604,7.604
	h152.624c3.899,0,7.166-2.949,7.564-6.828C511.094,442.019,514.671,405.817,507.749,361.626z M36.501,77.338
	c13.715,1.804,26.484,8.441,35.85,18.82l6.356,7.042H36.501C36.501,103.199,36.501,77.338,36.501,77.338z M15.207,179.236h77.057
	c4.199,0,7.604-3.404,7.604-7.604l0,0c0-4.199-3.404-7.604-7.604-7.604H15.207v-45.622h148.684v45.622h-36.142
	c-4.199,0-7.604,3.404-7.604,7.604l0,0c0,4.199,3.404,7.604,7.604,7.604h36.142v15.207H89.727H15.207V179.236z M97.33,209.651
	h66.561v12.166H97.33V209.651z M231.627,263.258h58.319c-3.336,7.892-9.099,14.463-17.232,19.599
	c-3.55,2.243-4.611,6.939-2.368,10.489c1.447,2.29,3.912,3.544,6.436,3.544c1.388,0,2.793-0.38,4.053-1.176
	c12.652-7.989,21.274-19.126,25.234-32.457h7.373v39.111c-46.192-0.312-56.993-2.44-59.465-3.381
	C244.955,295.491,236.783,279.742,231.627,263.258z M352.599,316.522c-5.572-7.951-14.359-13.005-23.95-13.941v-39.322h8.103
	c4.2,0,7.604-3.403,7.604-7.604V153.93c4.864,9.102,10.882,18.289,18.057,27.539c21.646,27.902,48.333,49.461,66.91,62.633
	c22.85,16.202,52.389,50.092,63.348,119.53c2.849,18.052,3.843,34.895,4.045,48.309H378.399
	C377.651,382.583,372.261,344.587,352.599,316.522z M359.201,435.16c1.821-4.683,6.376-8.01,11.694-8.01h125.728
	c-0.087,3.11-0.207,5.808-0.327,8.01H359.201z"/>
<path d="M393.631,393.311c0.345,3.927,3.633,6.94,7.575,6.94h70.83c2.115,0,4.133-0.88,5.572-2.429s2.168-3.629,2.01-5.737
	c-0.649-8.733-1.632-17.348-2.924-25.605c-5.035-32.166-14.701-59.045-28.731-79.894c-6.816-10.128-19.64-14.483-31.182-10.581
	l-26.408,8.918c-7.379,2.491-13.3,8.053-16.245,15.26c-2.963,7.251-2.625,15.429,0.927,22.431l0.112,0.222
	C385.041,342.487,391.253,366.198,393.631,393.311z M388.207,305.933c1.293-3.164,3.79-5.51,7.033-6.605l26.408-8.918
	c5.069-1.711,10.701,0.207,13.701,4.665c15.917,23.652,23.1,53.163,26.322,73.753c0.824,5.27,1.518,10.698,2.071,16.214h-55.656
	c-2.96-26.182-9.452-49.379-19.339-69.056l-0.124-0.247C387.065,312.671,386.914,309.097,388.207,305.933z"/>
<path d="M424.36,367.169c2.616,6.171,11.676,6.108,14.11-0.173c1.19-3.073,0.209-6.713-2.41-8.733
	c-2.345-1.808-5.64-2.11-8.257-0.71C424.375,359.386,422.927,363.581,424.36,367.169z"/>
<path d="M373.527,240.441c1.153-2.888,0.489-6.22-1.759-8.387c-2.483-2.394-6.414-2.802-9.329-0.948
	c-5.734,3.647-3.948,12.73,2.758,13.91C368.671,245.627,372.162,243.679,373.527,240.441z"/>
<g>
</g>
<g>
</g>
<g>
</g>
<g>
</g>
<g>
</g>
<g>
</g>
<g>
</g>
<g>
</g>
<g>
</g>
<g>
</g>
<g>
</g>
<g>
</g>
<g>
</g>
<g>
</g>
<g>
</g>
</svg>
