<?xml version="1.0" encoding="iso-8859-1"?>
<!-- Generator: Adobe Illustrator 19.0.0, SVG Export Plug-In . SVG Version: 6.00 Build 0)  -->
<svg version="1.1" id="Capa_1" xmlns="http://www.w3.org/2000/svg" xmlns:xlink="http://www.w3.org/1999/xlink" x="0px" y="0px"
	 viewBox="0 0 512.001 512.001" style="enable-background:new 0 0 512.001 512.001;" xml:space="preserve">
<path style="fill:#DBDBDB;" d="M445.76,208.569c-3.755-5.598-5.761-12.42-5.29-19.724l-29.758,6.613
	c-11.051,2.456-13.093-4.067-27.339-7.602l0,0l0,0l-34.72,2.87l-41.581,12.846l2.419,37.17l74.993-17.999l0,0L445.76,208.569z"/>
<path style="fill:#CECECE;" d="M440.47,188.845l-29.758,6.613c-0.082,0.018-0.159,0.031-0.241,0.049l-29.586,6.843l0,0
	l-72.758,17.463l1.362,20.93l74.993-17.999l0,0l61.277-14.174C442.005,202.97,439.999,196.149,440.47,188.845z"/>
<path style="fill:#CC9D72;" d="M423.752,349.597c-23.033-4.849-41.32-13.158-55.834-23.4l-31.521-32.406
	c-26.827-40.291-23.983-85.883-23.983-85.883c0-185.876-189.119-257.339-295.391-149.883c-6.407,6.478-9.897,15.288-9.897,24.399
	c0,11.055,0,304.303,0,314.001l77.357-23.558c0,5.193,0,16.133,0,21.421c0,0,27.513,51.676,51.399,48.677
	s51.399-45.624,51.399-45.624c0-10.251,0-6.589,0-24.474l79.555,24.474c0,0,93.416,38.356,161.194-34.482
	C432.26,358.313,429.831,350.878,423.752,349.597z"/>
<path style="fill:#C19067;" d="M119.051,8.509c-37.558,3.7-73.318,20.467-102.03,49.517C6.938,68.224,7.237,80.879,7.154,81.169
	l0.001,0.001C7.106,82.516,7.13,206.974,7.124,274.707c0,62.763,0,117.617,0,121.719l50.497-15.378l26.86-8.18
	c1.791-0.598,2.999-2.274,2.999-4.161v-18.393v-9.523c0-1.751-0.593-3.451-1.682-4.822l-6.558-8.256
	c-13.999-17.623-21.618-39.467-21.618-61.973V138.474h-0.091C57.531,138.474,60.524,35.822,119.051,8.509z"/>
<path style="fill:#EAE9E8;" d="M372.447,161.668l2.952-31.108c-6.787,1.088-13.868,0.003-20.158-3.402l-25.379,244.859
	c-0.477,4.605,5.618,6.667,8.034,2.717c24.702-40.389,28.065-43.603,30.104-55.53l18.861-110.37
	c0.474-12.178-3.286-24.144-10.638-33.863C373.343,171.163,371.997,166.417,372.447,161.668z"/>
<path style="fill:#DBDBDB;" d="M372.447,161.668l2.952-31.108c-6.787,1.088-13.868,0.003-20.158-3.402l-25.379,244.859
	c-0.477,4.605,5.618,6.667,8.034,2.717c6.275-10.26,11.168-18.112,15.016-24.327C356.691,313.903,371.876,167.648,372.447,161.668z"
	/>
<path style="fill:#F96989;" d="M327.987,482.892l-11.69-42.325c-3.815-13.811-13.199-25.382-25.858-32.095
	c-46.723-24.78-103.16-35.604-103.16-35.604c-0.702,11.868,2.097,19.618-4.126,28.256c-5.876,8.156-17.872,22.982-34.999,35.216
	c-7.387,5.277-17.341,5.165-24.72-0.123c-17.074-12.237-29.026-27.032-34.867-35.148c-6.146-8.538-3.401-16.348-4.085-28.2
	c-0.005,0.001-37.941,7.279-77.357,23.556v89.113c0,10.473,8.491,18.964,18.964,18.964h285.448
	C322.812,504.502,330.989,493.761,327.987,482.892z"/>
<path style="fill:#ED5A81;" d="M32.115,485.538v-98.425c-8.016,2.696-16.468,5.793-24.991,9.313v89.113
	c0,10.474,8.491,18.964,18.964,18.964h24.991C40.606,504.502,32.115,496.012,32.115,485.538z"/>
<path style="fill:#E8C842;" d="M84.481,348.316v40.069c0,4.579,1.452,9.03,4.128,12.745c5.877,8.156,17.872,22.981,34.998,35.214
	c7.323,5.23,17.223,5.23,24.545,0c17.128-12.234,29.124-27.061,35-35.217c2.675-3.713,4.126-8.161,4.126-12.737v-40.072
	C154.732,361.921,117.101,361.951,84.481,348.316z"/>
<path style="fill:#DBBC3B;" d="M113.191,401.129c-2.676-3.715-4.128-8.166-4.128-12.745v-32.543
	c-8.393-1.701-16.637-4.205-24.581-7.526v40.069c0,4.579,1.452,9.03,4.128,12.745c5.877,8.156,17.872,22.981,34.998,35.214
	c7.323,5.23,17.223,5.23,24.545,0c0.006-0.004,0.012-0.009,0.018-0.013C131.055,424.099,119.065,409.283,113.191,401.129z"/>
<path style="fill:#F4D44E;" d="M264.631,194.679c-0.001-7.21-4.897-13.462-11.871-15.291
	c-48.723-12.781-86.451-34.501-112.222-53.287c-23.705-16.218-38.796-33.789-38.467-33.433c-1.008-1.088-2.781-0.885-3.508,0.408
	c-6.496,11.553-35.051,56.662-89.066,65.153c-1.414,0.613-2.33,2.001-2.345,3.543c-0.001,0.1-0.003,0.231-0.003,0.35
	c-0.009,0.959-0.014,1.951-0.014,2.928c-0.004,19.203-0.012,75.011-0.012,75.115c0,68.476,58.45,124.241,130.167,123.363
	c69.593-0.609,127.346-54.878,127.346-123.503C264.638,237.697,264.635,215.491,264.631,194.679z"/>
<g>
	<path style="fill:#E8C842;" d="M57.523,240.162c0-0.078,0.004-62.099,0.008-101.688c-12.909,9.104-28.858,16.739-48.032,19.753
		c-1.414,0.613-2.33,2.001-2.345,3.543c-0.001,0.101-0.003,0.217-0.003,0.35c-0.01,1.051-0.014,1.974-0.014,2.928
		c-0.004,19.203-0.012,75.011-0.012,75.115c0,68.476,58.449,124.241,130.167,123.363c8.094-0.071,16.025-0.877,23.726-2.337
		C102.028,349.981,57.523,299.914,57.523,240.162z"/>
	<path style="fill:#E8C842;" d="M120.771,245.725v2.096c0,8.138,6.254,15.14,14.383,15.522c8.679,0.409,15.843-6.507,15.843-15.095
		v-2.731c0-3.271-2.652-5.923-5.923-5.923H126.9C123.515,239.595,120.771,242.34,120.771,245.725z"/>
</g>
<path style="fill:#DBBC3B;" d="M135.883,247.822v-2.096c0-3.386,2.745-6.13,6.131-6.13h-15.113c-3.386,0-6.13,2.744-6.13,6.13v2.096
	c0,8.138,6.254,15.14,14.383,15.522c3.047,0.143,5.897-0.631,8.326-2.048C138.908,258.578,135.883,253.478,135.883,247.822z"/>
<circle style="fill:#656566;" cx="196.037" cy="226.115" r="16.552"/>
<path style="fill:#545456;" d="M196.037,226.119c-3.062-5.303-2.841-11.588,0.008-16.539c-2.816-0.004-5.67,0.696-8.284,2.204
	c-7.917,4.57-10.629,14.693-6.059,22.611c4.57,7.917,14.693,10.629,22.611,6.059c2.614-1.509,4.646-3.631,6.051-6.072
	C204.651,234.373,199.098,231.421,196.037,226.119z"/>
<circle style="fill:#656566;" cx="75.732" cy="226.115" r="16.552"/>
<path style="fill:#545456;" d="M75.73,226.119c-3.062-5.303-2.841-11.588,0.008-16.539c-2.816-0.004-5.67,0.696-8.284,2.204
	c-7.917,4.57-10.629,14.693-6.059,22.611c4.57,7.917,14.693,10.629,22.611,6.059c2.614-1.509,4.646-3.631,6.051-6.072
	C84.344,234.373,78.792,231.421,75.73,226.119z"/>
<path style="fill:#656566;" d="M106.014,296.942c12.358,23.783,46.121,24.404,59.523,1.598c1.575-2.681-0.349-6.061-3.459-6.061
	h-53.35C106.436,292.48,104.958,294.91,106.014,296.942z"/>
<path style="fill:#545456;" d="M130.94,296.942c-1.057-2.032,0.422-4.462,2.713-4.462h-24.926c-2.291,0-3.77,2.429-2.713,4.462
	c8.573,16.499,27.442,21.84,42.673,15.958C141.442,310.108,135.021,304.796,130.94,296.942z"/>
<g>
	<path style="fill:#DBDBDB;" d="M370.331,138.463c-21.644,0-39.253-17.608-39.253-39.253s17.609-39.252,39.253-39.252
		s39.253,17.608,39.253,39.253S391.975,138.463,370.331,138.463z M370.331,74.952c-13.376,0-24.259,10.883-24.259,24.259
		s10.882,24.259,24.259,24.259c13.377,0,24.259-10.883,24.259-24.259S383.707,74.952,370.331,74.952z"/>
	<path style="fill:#DBDBDB;" d="M472.151,230.159c-21.644,0-39.253-17.608-39.253-39.253s17.608-39.253,39.253-39.253
		s39.253,17.608,39.253,39.253S493.795,230.159,472.151,230.159z M472.151,166.648c-13.376,0-24.259,10.883-24.259,24.259
		s10.882,24.259,24.259,24.259c13.377,0,24.259-10.883,24.259-24.259S485.527,166.648,472.151,166.648z"/>
</g>
<path d="M136.365,270.853c12.467,0,22.611-10.142,22.611-22.61v-8.653c0-4.141-3.357-7.497-7.497-7.497
	c-4.14,0-7.497,3.356-7.497,7.497v8.653c0,4.198-3.416,7.615-7.616,7.615c-4.199,0-7.615-3.417-7.615-7.615v-8.653
	c0-4.141-3.357-7.497-7.497-7.497s-7.497,3.356-7.497,7.497v8.653C113.755,260.71,123.899,270.853,136.365,270.853z"/>
<path d="M196.518,202.064c-13.261,0-24.049,10.789-24.049,24.05s10.788,24.049,24.049,24.049c13.261,0,24.049-10.788,24.049-24.049
	S209.779,202.064,196.518,202.064z M196.518,235.168c-4.993,0-9.055-4.061-9.055-9.055c0-4.993,4.061-9.056,9.055-9.056
	c4.993,0,9.055,4.061,9.055,9.056C205.574,231.107,201.512,235.168,196.518,235.168z"/>
<path d="M76.212,202.064c-13.261,0-24.049,10.789-24.049,24.05s10.788,24.049,24.049,24.049s24.049-10.788,24.049-24.049
	S89.473,202.064,76.212,202.064z M76.212,235.168c-4.993,0-9.055-4.061-9.055-9.055c0-4.993,4.061-9.056,9.055-9.056
	c4.993,0,9.055,4.061,9.055,9.056C85.267,231.107,81.205,235.168,76.212,235.168z"/>
<path d="M176.04,199.247c11.804-9.877,29.082-9.938,40.959,0c3.16,2.647,7.892,2.252,10.561-0.938
	c2.657-3.175,2.238-7.903-0.938-10.56c-17.413-14.577-42.814-14.558-60.205,0c-3.176,2.657-3.595,7.386-0.938,10.56
	C168.136,201.486,172.865,201.906,176.04,199.247z"/>
<path d="M55.733,199.247c11.826-9.895,29.106-9.918,40.959,0c1.403,1.176,3.11,1.748,4.808,1.748c7.005,0,10.145-8.787,4.815-13.246
	c-17.413-14.577-42.814-14.558-60.205,0c-3.176,2.657-3.595,7.386-0.938,10.56C47.829,201.486,52.557,201.906,55.733,199.247z"/>
<path d="M99.845,300.393c14.788,28.46,55.994,30.273,72.639,1.941c2.089-3.556,2.115-7.985,0.069-11.563
	c-2.045-3.574-5.873-5.794-9.991-5.794h-53.35C101.291,284.977,96.198,293.374,99.845,300.393z M155.512,299.972
	c-10.448,10.492-27.367,10.215-37.61,0H155.512z"/>
<path d="M361.269,200.473c-1.587,1.575-2.412,3.969-1.925,6.357c1.476,7.874,12.574,6.576,13.804,0
	C374.551,199.97,366.034,195.574,361.269,200.473z"/>
<path d="M472.636,151.653c-18.813,0-34.569,13.305-38.372,30.998l-24.694,5.488c-6.806,1.511-8.284-2.721-20.2-6.506
	c-5.284-11.516-9.639-12.236-8.973-19.257l2.449-25.806c15.776-5.092,27.224-19.912,27.224-37.36
	c0-21.644-17.608-39.253-39.253-39.253s-39.253,17.608-39.253,39.253c0,13.048,6.405,24.622,16.23,31.763l-5.609,54.119
	l-22.269,7.192C310.73,42.481,176.315-36.241,63.692,16.284c-3.753,1.75-5.375,6.211-3.625,9.963
	c1.749,3.753,6.211,5.377,9.963,3.626c106.575-49.707,235.245,29.603,235.37,177.826c-0.223,4.219-1.903,49.322,25.108,90.045
	l-7.618,73.498c-1.297,12.519,15.322,18.131,21.887,7.401c14.335-23.437,21.481-34.344,25.594-42.143
	c30.361,18.958,54.607,19.153,52.653,21.252c-26.48,28.456-60.107,42.677-99.884,42.173c-28.02-0.332-49.513-8.187-52.537-9.348
	c-31.64-13.387-62.55-20.971-75.343-23.797v-8.522c45.265-20.88,77.359-65.461,77.359-118.098l-0.008-48.669
	c1.212,0.236,8.08,1.586,9.327,1.586c3.589,0,6.76-2.584,7.382-6.24c0.695-4.082-2.051-7.954-6.133-8.649
	c-70.385-11.981-136.413-49.065-175.133-90.619c-4.439-4.792-12.313-3.915-15.542,1.827c-6.684,11.889-31.424,50.063-77.408,60.21
	V82.425c0-7.187,2.818-14.16,7.73-19.127c5.779-5.844,12.016-11.293,18.538-16.197c3.31-2.488,3.976-7.187,1.486-10.497
	c-2.488-3.312-7.188-3.977-10.498-1.486c-7.104,5.342-13.897,11.276-20.188,17.637C4.395,60.621,0.111,71.159,0.111,82.425
	c0,14.076,0,389.033,0,403.113C0.111,500.13,11.982,512,26.572,512h161.19c4.14,0,7.497-3.356,7.497-7.497s-3.357-7.497-7.497-7.497
	H26.573c-6.323,0-11.467-5.144-11.467-11.468v-84.055c20.424-8.061,41.807-14.527,62.363-19.305
	c0.698,3.847-2.533,12.455,6.698,24.916c9.607,12.974,22.052,25.694,35.568,35.351c9.944,7.102,23.313,7.105,33.261,0
	c18.133-12.952,30.793-28.701,36.725-36.936c7.298-10.128,5.158-19.674,5.541-23.331c29.814,6.932,64.795,18.41,92.15,32.92
	c10.839,5.749,18.91,15.76,22.144,27.468l11.689,42.326c1.684,6.096-2.894,12.116-9.224,12.116H272.62v-36.718
	c0-4.141-3.356-7.497-7.497-7.497s-7.497,3.356-7.497,7.497v36.718H222.75c-4.14,0-7.497,3.356-7.497,7.497s3.357,7.497,7.497,7.497
	h89.272c16.232,0,28.003-15.444,23.677-31.102l-11.689-42.326c-2.505-9.07-7.184-17.365-13.479-24.24
	c48.141,3.97,91.338-11.833,123.472-46.363c8.251-8.868,3.499-23.239-8.222-25.706c-19.132-4.029-35.998-10.83-50.192-20.232
	c0.306-1.593,0.44-2.509,5.792-33.789c0.698-4.081-2.045-7.956-6.127-8.653c-4.078-0.693-7.956,2.045-8.653,6.127
	c-9.782,47.195,1.422,26.746-27.371,73.323l22.961-221.533c1.589,0.356,3.622,0.682,5.425,0.829l-2.147,22.627
	c-0.63,6.634,1.238,13.215,5.259,18.533c6.256,8.27,9.43,18.472,9.143,28.579l-7.289,42.656c-0.698,4.081,2.045,7.956,6.127,8.653
	c4.079,0.699,7.956-2.044,8.653-6.127l4.157-24.331l51.781-11.977c23.911,26.911,68.591,9.972,68.591-26.038
	C511.888,169.263,494.28,151.653,472.636,151.653z M180.265,372.869c-0.566,12.918,1.574,17.925-2.712,23.874
	c-8.726,12.113-20.449,24.337-33.272,33.496c-4.728,3.378-11.152,3.323-16.007-0.126c-5.373-3.855-10.923-8.515-16.202-13.711
	c-23.953-23.558-19.61-22.917-19.61-52.265c28.116,9.168,59.562,9.206,87.803-0.001C180.266,364.241,180.265,372.97,180.265,372.869
	z M15.117,164.94c47.593-9.126,75.532-44.427,86.772-62.048c32.683,33.633,90.797,69.592,155.727,85.331l0.009,51.939
	c0,47.791-30.035,88.384-72.754,106.234c-26.814,11.211-49.787,9.445-51.255,9.601v0.001c-0.052-0.001-0.104-0.002-0.157-0.003
	v-0.001C68.188,354.625,15.105,303.57,15.105,240.162C15.119,152.909,15.117,166.827,15.117,164.94z M77.468,358.26v8.527
	c-21.22,4.729-43.539,11.46-62.363,18.611v-85.416C28.684,325.313,50.833,345.972,77.468,358.26z M340.492,201.395l-2.514,24.26
	l-16.37,4.361c-1.202-9.118-1.455-17.425-1.215-22.129L340.492,201.395z M324.278,244.821l12.047-3.21l-3.113,30.033
	C329.035,262.353,326.199,253.179,324.278,244.821z M370.815,74.952c13.376,0,24.259,10.883,24.259,24.259
	c0,17.274-17.722,29.17-33.794,22.303c-0.285-0.122-0.961-0.433-1.566-0.745c-7.805-4.036-13.156-12.181-13.156-21.558
	C346.557,85.835,357.439,74.952,370.815,74.952z M435.408,203.38l-41.154,9.518c0.04-0.672,1.248-3.805,0.266-12.709
	c4.741,2.366,9.901,4.454,18.301,2.586l21.213-4.714C434.349,199.767,434.946,202.001,435.408,203.38z M472.636,215.164
	c-11.59,0-21.344-8.192-23.709-19.134c-3.261-15.16,8.342-29.383,23.709-29.383c13.376,0,24.259,10.883,24.259,24.259
	S486.012,215.164,472.636,215.164z"/>
<g>
</g>
<g>
</g>
<g>
</g>
<g>
</g>
<g>
</g>
<g>
</g>
<g>
</g>
<g>
</g>
<g>
</g>
<g>
</g>
<g>
</g>
<g>
</g>
<g>
</g>
<g>
</g>
<g>
</g>
</svg>
