<?xml version="1.0" encoding="iso-8859-1"?>
<!-- Generator: Adobe Illustrator 19.0.0, SVG Export Plug-In . SVG Version: 6.00 Build 0)  -->
<svg version="1.1" id="Capa_1" xmlns="http://www.w3.org/2000/svg" xmlns:xlink="http://www.w3.org/1999/xlink" x="0px" y="0px"
	 viewBox="0 0 512 512" style="enable-background:new 0 0 512 512;" xml:space="preserve">
<path style="fill:#B58058;" d="M467.739,114.781L285.397,297.122L85.646,496.873c-10.048,10.048-26.402,10.048-36.511-0.051
	l-14.073-14.083c-10.109-10.099-10.099-26.453-0.061-36.501l155.311-155.301l44.45-44.45L417.104,64.146
	c10.038-10.048,26.392-10.048,36.501,0.051l14.073,14.083C477.786,88.378,477.786,104.733,467.739,114.781z"/>
<g>
	
		<rect x="206.417" y="258.225" transform="matrix(-0.7071 0.7071 -0.7071 -0.7071 613.9417 333.7596)" style="fill:#8E6047;" width="62.861" height="71.612"/>
	
		<rect x="326.567" y="138.074" transform="matrix(-0.7071 0.7071 -0.7071 -0.7071 734.0918 43.6893)" style="fill:#8E6047;" width="62.861" height="71.612"/>
	<path style="fill:#8E6047;" d="M456.759,67.353L38.216,485.896l-3.154-3.154c-10.105-10.105-10.104-26.459-0.058-36.505
		L417.101,64.142c10.046-10.046,26.4-10.047,36.505,0.058L456.759,67.353z"/>
</g>
<path style="fill:#B58058;" d="M109.006,64.142l382.096,382.096c10.046,10.046,10.047,26.4-0.058,36.505l-14.076,14.076
	c-10.105,10.105-26.459,10.104-36.505,0.058L58.368,114.78c-10.046-10.046-10.047-26.4,0.058-36.505l14.076-14.076
	C82.605,54.095,98.96,54.096,109.006,64.142z"/>
<path style="fill:#8E6047;" d="M61.579,75.121l418.543,418.543l-3.154,3.154c-10.105,10.105-26.459,10.104-36.505,0.058
	L58.368,114.78c-10.046-10.046-10.047-26.4,0.058-36.505L61.579,75.121z"/>
<path style="fill:#586473;" d="M196.167,22.769l46.258,46.258c4.614,4.614,6.951,10.69,6.95,16.763
	c-0.059,6.133-2.394,12.207-7.008,16.822L97.811,247.168c-9.286,9.286-24.297,9.228-33.526-0.001l-46.258-46.258
	c-9.285-9.285-9.344-24.296-0.058-33.583L162.526,22.77c4.614-4.614,10.688-6.951,16.821-7.01
	C185.479,15.819,191.553,18.155,196.167,22.769z"/>
<path style="fill:#353B4A;" d="M97.338,214.066l-46.247-46.247c-9.271-9.271-9.271-24.304,0.001-33.576l-33.097,33.097
	c-9.272,9.272-9.272,24.304,0,33.576l46.247,46.247c9.271,9.271,24.303,9.271,33.576,0l33.097-33.097
	C121.643,223.337,106.61,223.337,97.338,214.066z"/>
<path style="fill:#586473;" d="M469.589,288.52L275.432,94.362c-9.272-9.272-9.272-24.304,0-33.577l46.247-46.247
	c9.272-9.272,24.304-9.272,33.577,0l138.018,138.018c5.807,5.807,8.555,13.999,7.426,22.133l-15.062,108.446
	C484.561,290.869,475.109,294.04,469.589,288.52z"/>
<path style="fill:#353B4A;" d="M321.678,14.54l-46.247,46.247c-9.271,9.271-9.272,24.304,0,33.576l20.442,20.442
	c-9.271-9.271-9.271-24.304,0-33.576l46.247-46.247c9.272-9.272,24.305-9.272,33.576-0.001l-20.442-20.442
	C345.982,5.268,330.95,5.269,321.678,14.54z"/>
<path d="M464.217,293.901c3.264,3.265,7.578,5.006,12.014,5.006c1.822,0,3.665-0.294,5.464-0.897
	c6.178-2.071,10.574-7.368,11.471-13.822l15.067-108.452c1.444-10.433-2.14-21.107-9.588-28.554l-26.278-26.278l0.747-0.747
	c6.428-6.428,9.904-15.028,9.75-24.159c-0.15-8.867-3.984-17.274-10.254-23.545l-13.63-13.63
	c-13.045-13.044-34.245-13.071-47.258-0.059l-0.747,0.747l-6.295-6.295c-2.97-2.97-7.785-2.97-10.754,0l-0.001,0.001
	c-2.97,2.97-2.969,7.784,0,10.754l93.966,93.967c4.098,4.098,6.071,9.973,5.277,15.71l-15.067,108.447
	c-0.13,0.936-0.748,1.33-1.244,1.497c-0.494,0.165-1.223,0.222-1.888-0.443L281.157,89.331c-3.025-3.024-4.957-7.053-5.067-11.329
	c-0.115-4.47,1.572-8.688,4.718-11.835l46.24-46.252c6.295-6.288,16.538-6.286,22.829-0.004l18.958,18.966
	c2.969,2.97,7.783,2.971,10.754,0.002l0,0c2.97-2.969,2.972-7.784,0.002-10.754L360.63,9.156
	c-12.222-12.21-32.108-12.209-44.333,0.003l-46.243,46.254c-5.918,5.918-9.178,13.789-9.178,22.162s3.259,16.244,9.178,22.162
	l50.318,50.318l-57.348,57.348l-57.348-57.348l42.081-42.081c12.242-12.242,12.242-32.09,0-44.332l-46.245-46.244
	c-12.223-12.222-32.109-12.223-44.33,0l-42.082,42.082l-0.717-0.717C101.37,45.754,80.17,45.777,67.124,58.823L53.495,72.452
	c-6.27,6.27-10.104,14.678-10.254,23.545c-0.154,9.131,3.322,17.731,9.75,24.159l0.717,0.717l-41.09,41.089
	c-12.222,12.223-12.221,32.11,0,44.331l46.246,46.246c6.111,6.11,14.138,9.166,22.165,9.166s16.054-3.056,22.165-9.166l41.09-41.089
	l57.346,57.346L29.624,440.8c-6.302,6.302-9.756,14.707-9.725,23.666c0.03,8.938,3.528,17.339,9.845,23.65l14.016,14.025
	c6.344,6.339,14.757,9.84,23.689,9.859c0.024,0,0.048,0,0.072,0c8.908,0,17.271-3.461,23.552-9.749l86.636-86.636
	c2.97-2.97,2.97-7.784,0-10.754l-0.001-0.001c-2.97-2.97-7.784-2.97-10.754,0L80.316,491.5c-3.41,3.414-7.952,5.293-12.796,5.293
	c-0.013,0-0.026,0-0.04,0c-4.884-0.011-9.491-1.931-12.968-5.405l-14.016-14.025c-3.459-3.455-5.373-8.053-5.39-12.948
	c-0.017-4.877,1.855-9.443,5.27-12.858L212.384,279.55l39.946,39.946l-60.293,60.284c-2.97,2.97-2.97,7.784-0.001,10.754l0,0
	c2.97,2.97,7.784,2.97,10.754,0.001l60.294-60.285l172.002,172.002c6.496,6.495,15.032,9.742,23.575,9.742
	c8.571,0,17.149-3.268,23.683-9.801l13.631-13.631c6.269-6.269,10.103-14.676,10.253-23.541c0.155-9.132-3.321-17.733-9.75-24.163
	L324.475,268.856l57.348-57.349L464.217,293.901z M422.478,69.519c7.082-7.084,18.635-7.059,25.75,0.059l14.076,14.076
	c3.45,3.449,5.352,8.033,5.359,12.905c0.005,4.861-1.877,9.421-5.3,12.844l-0.748,0.748L421.73,70.267L422.478,69.519z
	 M63.744,109.402c-3.423-3.423-5.305-7.984-5.3-12.844c0.005-4.872,1.908-9.455,5.359-12.905l14.075-14.075
	c7.116-7.118,18.667-7.141,25.749-0.06l0.717,0.717L64.46,110.119L63.744,109.402z M92.44,241.784
	c-3.048,3.049-7.1,4.727-11.411,4.727c-4.311,0-8.364-1.678-11.412-4.727l-46.246-46.246c-6.292-6.291-6.292-16.53,0-22.822
	L167.937,28.153c3.048-3.049,7.1-4.727,11.411-4.727c4.31,0,8.363,1.678,11.411,4.727l46.247,46.246
	c3.048,3.048,4.727,7.1,4.727,11.411c0,4.311-1.679,8.364-4.727,11.412L92.44,241.784z M491.025,464.458
	c-0.005,4.873-1.908,9.455-5.359,12.906l-14.075,14.076c-7.116,7.115-18.667,7.141-25.75,0.058L155.038,200.695l39.884-39.884
	l290.803,290.803C489.147,455.037,491.03,459.599,491.025,464.458z M313.72,258.102l-39.942-39.942l57.348-57.349l39.942,39.942
	L313.72,258.102z"/>
<g>
</g>
<g>
</g>
<g>
</g>
<g>
</g>
<g>
</g>
<g>
</g>
<g>
</g>
<g>
</g>
<g>
</g>
<g>
</g>
<g>
</g>
<g>
</g>
<g>
</g>
<g>
</g>
<g>
</g>
</svg>
