<?xml version="1.0" encoding="iso-8859-1"?>
<!-- Generator: Adobe Illustrator 19.0.0, SVG Export Plug-In . SVG Version: 6.00 Build 0)  -->
<svg version="1.1" id="Capa_1" xmlns="http://www.w3.org/2000/svg" xmlns:xlink="http://www.w3.org/1999/xlink" x="0px" y="0px"
	 viewBox="0 0 511.998 511.998" style="enable-background:new 0 0 511.998 511.998;" xml:space="preserve">
<g>
	<path style="fill:#F4D44E;" d="M244.997,167.862c-12.065-7.064-23.789-0.996-31.268,10.311
		c-1.015,1.535-16.106,24.786-21.687,56.144c-4.556-7.299-76.26-122.178-72.049-115.43c-5.101-8.173-15.623-11.42-24.221-7.074
		c-9.861,4.984-13.126,17.207-7.408,26.368c-0.065-0.104-8.45-13.538-8.387-13.438c-5.319-8.521-16.473-11.643-25.178-6.63
		c-9.138,5.262-12.022,17.001-6.486,25.87c11.518,18.452,4.617,7.396,8.623,13.815c-5.718-9.16-18.132-11.598-26.942-4.928
		c-7.681,5.816-9.385,16.694-4.285,24.867l15.928,25.518c-5.718-9.16-18.13-11.598-26.941-4.928
		c-7.681,5.815-9.386,16.694-4.286,24.866c7.405,11.864,70.232,112.522,78.35,125.528c8.125,13.017,19.879,22.389,33.132,27.625
		c11.315,4.47,15.44,11.96,19.399,18.301c4.609,7.383,14.33,9.633,21.713,5.025l73.864-46.104
		c7.328-4.575,9.561-14.223,4.987-21.551l-8.31-13.314c0.158-0.831,11.728-25.546,2.51-48.554c-1.847-4.612-2.938-9.506-3.138-14.47
		c-1.082-26.941,14.453-59.978,14.77-60.756C253.695,180.22,256.081,174.352,244.997,167.862z"/>
	<path style="fill:#F4D44E;" d="M497.336,198.326c-8.809-6.669-21.223-4.232-26.941,4.928l15.928-25.518
		c5.101-8.172,3.396-19.052-4.285-24.867c-8.809-6.67-21.224-4.233-26.942,4.928c7.989-12.8,7.738-12.398,8.623-13.815
		c5.536-8.868,2.653-20.607-6.485-25.869c-8.704-5.013-19.86-1.891-25.178,6.63c-3.787,6.067-2.103,3.368-8.388,13.438
		c5.718-9.16,2.453-21.383-7.408-26.367c-8.598-4.346-19.121-1.098-24.221,7.074c-9.994,16.012-65.432,104.83-72.049,115.43
		c-5.58-31.358-20.671-54.609-21.687-56.144c-7.479-11.307-19.205-17.375-31.268-10.311c-11.084,6.49-8.698,12.359-2.692,27.061
		c0.318,0.778,15.852,33.814,14.771,60.754c-0.199,4.965-1.291,9.859-3.138,14.472c-9.113,22.75,2.405,47.995,2.51,48.554
		l-8.31,13.314c-4.574,7.328-2.341,16.977,4.987,21.551l73.864,46.104c7.383,4.609,17.104,2.359,21.713-5.025l0.554-0.887
		c1.398-1.71,5.593-12.179,18.846-17.414c25.195-9.954,34.25-30.078,35.825-31.941c25.327-40.578,50.472-80.863,75.656-121.211
		C506.723,215.02,505.017,204.141,497.336,198.326z"/>
</g>
<g>
	<path style="fill:#E8C842;" d="M285.329,337.508c2.411-3.916,7.55-12.131,7.488-12.031c1.592-2.551,1.932-5.682,0.951-8.524
		c-2.908-8.427-8.036-27.622-0.97-45.357c1.897-4.763,3.046-9.805,3.252-14.927c1.109-27.64-14.828-61.534-15.154-62.332
		c-5.81-14.223-9.218-21.287,3.538-28.192c-5.386-2.065-11.349-1.826-17.397,1.715c-11.084,6.49-8.698,12.359-2.692,27.061
		c0.318,0.778,15.852,33.814,14.771,60.755c-0.2,4.993-1.321,9.908-3.17,14.551c-9.055,22.729,2.436,47.916,2.542,48.474
		l-8.31,13.314c-4.574,7.328-2.341,16.977,4.987,21.551l9.034,5.639C284.178,359.104,278.538,348.536,285.329,337.508z"/>
	<path style="fill:#E8C842;" d="M213.728,178.173c-0.762,1.151-9.445,14.525-16.092,34.373c0.002,0.003,0.003,0.005,0.005,0.008
		c-2.214,6.609-4.206,13.927-5.6,21.763c3.671,5.799,12.561,4.01,13.702-2.758l0.8-4.743c3.825-21.49,15.905-51.341,26.322-61.906
		C225.393,165.575,218.644,170.742,213.728,178.173z"/>
	<path style="fill:#E8C842;" d="M147.73,217.225c3.258-2.42,4.127-6.931,1.999-10.387l-46.863-76.159l0,0c0,0-0.033-0.053,0,0
		c-4.138-6.629-3.55-14.849,0.815-20.782c-14.303,0.165-22.911,16.108-15.319,28.279c3.362,5.387,50.661,81.165,47.998,76.899
		C138.794,218.975,144.039,219.967,147.73,217.225L147.73,217.225z"/>
	<path style="fill:#E8C842;" d="M32.599,188.774L32.599,188.774l40.919,65.557c2.463,3.948,7.706,5.072,11.572,2.482l0,0
		c3.729-2.498,4.796-7.509,2.405-11.309l-39.857-63.372l0,0l-7.426-11.898c-4.154-6.655-3.793-15.102,0.63-21.151
		c-14.357,0.281-22.921,16.174-15.132,28.652L32.599,188.774z"/>
	<path style="fill:#E8C842;" d="M55.486,155.474l-0.001-0.002C55.486,155.473,55.486,155.474,55.486,155.474z"/>
	<path style="fill:#E8C842;" d="M62.815,136.48c-4.132-6.619-3.569-14.833,0.777-20.764c-8.695,0.1-16.049,6.35-17.714,14.895
		l-0.006-0.003c-1.86,9.391,3.433,14.682,9.615,24.865c0.064,0.102,47.603,76.266,46.277,74.143
		c2.427,3.889,7.687,4.82,11.302,2.001l0,0c3.227-2.516,4.047-7.056,1.903-10.541C73.873,154.255,70.857,149.365,62.815,136.48z"/>
	<path style="fill:#E8C842;" d="M155.795,387.146c-3.959-6.342-8.084-13.832-19.399-18.301
		c-13.254-5.236-25.007-14.608-33.132-27.625c-8.118-13.006-70.945-113.664-78.35-125.528c-4.154-6.654-3.793-15.101,0.63-21.15
		c-14.325,0.28-22.932,16.153-15.132,28.651c7.405,11.864,70.233,112.522,78.35,125.528c8.125,13.017,19.879,22.389,33.132,27.625
		c11.315,4.47,15.44,11.96,19.399,18.301c4.609,7.383,14.329,9.633,21.713,5.025l8.466-5.285
		C165.461,395.274,159.218,392.63,155.795,387.146z"/>
	<path style="fill:#E8C842;" d="M485.105,155.852c-1.83-2.246-4.048-3.96-6.775-5.166l0,0c-0.269-0.111-0.614-0.274-1.38-0.541
		c-0.278-0.098-0.866-0.284-1.365-0.416c-0.743-0.199-0.892-0.216-1.255-0.286c-7.308-1.416-15.054,1.66-19.232,8.352
		l-45.724,73.255c-2.054,3.292-1.221,7.612,1.91,9.903l0,0c3.514,2.571,8.47,1.639,10.81-2.032l45.102-70.765
		C468.538,166.108,475.291,156.563,485.105,155.852z"/>
	<path style="fill:#E8C842;" d="M441.919,116.816l0.003,0.013c-9.673,3.432-11.267,11.604-18.251,21.35l-48.684,77.999
		c-2.146,3.438-1.223,7.956,2.1,10.277l0,0c3.511,2.452,8.358,1.493,10.671-2.111c24.173-37.68,56.543-88.13,56.693-88.371
		c0.578-0.927,0.015-0.025,1.452-2.326c0,0,7.041-11.031,16.973-10.53C458.171,116.788,449.869,113.983,441.919,116.816z"/>
	<path style="fill:#E8C842;" d="M405.254,126.986c0,0,7.959-12.155,16.536-10.902c-4.942-5.561-12.246-7.359-18.806-5.465
		l0.001,0.011c-4.4,1.266-8.366,4.125-10.944,8.256c-7.077,11.338-36.934,59.173-56.113,89.902l0,0l-15.934,25.529
		c0.955,8.112,11.565,10.539,15.951,3.649C397.06,140.127,264.002,353.29,405.254,126.986L405.254,126.986z"/>
	<path style="fill:#E8C842;" d="M487.975,194.644l-0.007,0.019c-6.797-0.686-13.71,2.404-17.572,8.591l-32.375,51.869
		c-2.239,3.587-1.244,8.304,2.253,10.681c2.731,1.857,6.459,1.072,8.21-1.728l33.837-54.11c0.065-0.104,7.744-12.236,17.983-8.776
		C497.056,197.272,492.519,195.099,487.975,194.644z"/>
</g>
<path d="M81.66,115.138c-19.727-18.142-50.142,1.607-42.585,26.536c-19.713,1.645-30.014,23.58-19.745,40.034l3.449,5.526
	c-19.291,2.359-28.74,23.921-18.747,39.93l48.016,76.929v-0.001c1.637,2.572-8.121-13.012,30.334,48.6
	c8.734,13.993,21.44,24.584,36.739,30.629c10.892,4.304,13.761,12.72,15.792,15.297c6.769,10.843,21.134,14.228,32.048,7.416
	l8.282-5.17c3.514-2.193,4.585-6.82,2.391-10.335c-2.193-3.514-6.822-4.584-10.335-2.391l-8.281,5.17
	c-3.867,2.41-8.968,1.229-11.378-2.631c-1.772-2.185-6.828-14.915-23.007-21.309c-12.293-4.856-22.503-13.37-29.525-24.619
	c-7.87-12.609-70.488-112.932-78.35-125.528c-3.104-4.974-2.027-11.525,2.45-14.915c5.265-3.988,12.628-2.54,16.037,2.9l0.012,0.019
	c0.001,0.001,0.001,0.002,0.002,0.003l36.383,58.29c1.422,2.279,3.868,3.53,6.37,3.53c5.822,0,9.492-6.45,6.356-11.474
	c-4.498-7.206-46.095-73.851-52.313-83.812c-3.104-4.974-2.027-11.526,2.449-14.916c5.272-3.992,12.642-2.54,16.05,2.918v0.001
	c5.832,9.343,44.71,71.632,49.368,79.094c1.422,2.279,3.868,3.53,6.37,3.53c5.822,0,9.492-6.45,6.356-11.474l-49.368-79.094
	c0,0,0,0,0-0.001c-6.385-11.579-11.765-15.126-9.964-22.328c2.395-9.571,15.007-11.228,20.279-2.782
	c5.428,8.697,54.98,88.087,60.902,97.575c1.422,2.278,3.868,3.529,6.37,3.529c5.824,0,9.492-6.45,6.356-11.475
	c-6.579-10.54-45.961-73.635-52.528-84.156c-3.389-5.456-1.454-12.7,4.441-15.681c5.013-2.533,11.371-0.621,14.476,4.353
	l6.312,10.112c2.192,3.514,6.822,4.583,10.334,2.391c3.515-2.193,4.586-6.82,2.392-10.334l-6.312-10.111
	C116.111,98.528,91.833,97.966,81.66,115.138z"/>
<path d="M460.963,111.611c-10.06-5.795-22.36-4.072-30.622,3.525c-10.163-17.155-34.445-16.621-44.681-0.223l-62.569,100.243
	c-6.942-23.137-17.155-39.021-18.546-41.123c-10.668-16.13-26.885-21.093-41.314-12.647c-3.114,1.823-5.48,3.715-7.23,5.681
	c-1.751-1.966-4.116-3.858-7.23-5.68c-14.428-8.447-30.645-3.485-41.314,12.646c-1.391,2.102-11.606,17.986-18.547,41.123
	l-37.723-60.437c-2.193-3.514-6.821-4.584-10.335-2.391c-3.514,2.193-4.585,6.821-2.391,10.335l47.201,75.622
	c3.646,5.847,12.552,4.061,13.748-2.656c5.355-30.085,19.941-52.386,20.56-53.32c8.779-13.274,17.763-10.002,21.222-7.976
	c5.467,3.2,5.479,3.207-0.425,17.659l-0.075,0.167c-3.844,8.533-16.306,38.356-15.283,63.817c0.631,15.688,6.157,16.416,6.63,32.747
	c0.168,5.834-0.577,11.766-2.205,17.706c-0.441,1.429-2.511,7.248-8.588,13.448c-4.657,4.749-1.239,12.752,5.356,12.752
	c3.189,0,4.863-1.929,5.37-2.264l3.507,5.621c2.376,3.809,1.212,8.84-2.596,11.216l-35.886,22.399
	c-6.378,3.982-3.54,13.865,3.98,13.865c3.824,0,2.55-0.73,39.85-23.538c10.825-6.757,14.136-21.061,7.379-31.885l-6.337-10.152
	c7.09-18.776,6.363-37.487,1.137-50.535c-1.567-3.91-2.443-7.94-2.605-11.981c-0.708-17.624,6.753-41.028,13.972-57.055
	c0.139-0.307,0.221-0.497,0.248-0.564c0.473-1.157,0.935-2.293,1.383-3.413c0.448,1.121,0.911,2.258,1.385,3.417
	c0.025,0.063,0.107,0.254,0.246,0.561c8.049,17.87,18.846,50.348,11.366,69.035c-5.333,13.31-5.869,31.989,1.137,50.533
	c-3.416,6.933-12.321,14.366-9.252,27.624c1.394,6.022,5.049,11.142,10.292,14.415l73.865,46.104
	c3.822,2.385,8.073,3.521,12.277,3.521c16.209-0.002,21.179-14.03,22.68-15.599c3.005-4.815,7.461-8.493,12.884-10.636
	c12.683-5.012,23.813-13.356,32.188-24.132c2.542-3.271,1.951-7.983-1.319-10.525c-3.27-2.541-7.982-1.952-10.525,1.319
	c-6.729,8.657-15.669,15.36-25.855,19.386c-16.182,6.395-21.228,19.114-23.007,21.308c-2.411,3.861-7.517,5.044-11.378,2.632
	l-73.865-46.104c-3.818-2.384-4.976-7.4-2.594-11.216l3.507-5.621c0.1,0.066,1.963,2.264,5.37,2.264
	c6.6,0,10.008-8.007,5.356-12.752c-6.065-6.187-8.138-11.989-8.584-13.433c-3.547-12.931-2.527-25.327,0.751-33.51
	c2.203-5.505,3.438-11.21,3.669-16.958c1.021-25.462-11.44-55.282-15.283-63.816l-0.076-0.168
	c-5.901-14.45-5.891-14.458-0.423-17.659c10.374-6.069,18.295,3.555,21.222,7.977c0.618,0.935,15.204,23.235,20.559,53.32
	c1.197,6.726,10.106,8.492,13.748,2.656l72.048-115.43c5.188-8.305,17.552-6.815,20.168,2.542c1.439,5.155-1.227,8.706-1.264,8.807
	l-52.515,84.135c-3.134,5.023,0.531,11.475,6.356,11.475c2.501,0,4.948-1.251,6.37-3.529c20.547-32.918,40.889-65.512,60.903-97.575
	c5.281-8.462,17.89-6.775,20.278,2.783c0.733,2.929,0.257,5.953-1.342,8.513c-8.635,13.835-50.488,80.89-57.99,92.909
	c-3.134,5.021,0.532,11.474,6.356,11.474c2.501,0,4.948-1.251,6.37-3.53c10.402-16.666-18.277,29.282,49.368-79.094v-0.001
	c3.4-5.445,10.762-6.922,16.05-2.918c4.478,3.39,5.554,9.942,2.449,14.915l-15.928,25.518v0.001
	c-30.355,48.633-36.068,57.786-36.385,58.294c-3.134,5.021,0.532,11.474,6.356,11.474c2.501,0,4.948-1.251,6.37-3.53
	c5.493-8.8,30.486-48.842,36.387-58.298c0.102-0.106,2.211-4.052,7.353-5c9.54-1.756,16.339,8.676,11.144,17l-48,76.902
	c-1.482,2.469,5.52-8.842-15.523,24.869c-2.193,3.514-1.123,8.141,2.391,10.335c3.514,2.191,8.141,1.124,10.335-2.391
	c21.113-33.825,13.911-22.563,15.508-24.844l48.016-76.929c9.971-15.975,0.589-37.566-18.747-39.93l3.449-5.527
	c10.214-16.365,0.092-38.382-19.745-40.033C474.273,137.231,471.888,117.903,460.963,111.611z"/>
<g>
</g>
<g>
</g>
<g>
</g>
<g>
</g>
<g>
</g>
<g>
</g>
<g>
</g>
<g>
</g>
<g>
</g>
<g>
</g>
<g>
</g>
<g>
</g>
<g>
</g>
<g>
</g>
<g>
</g>
</svg>
