<?xml version="1.0" encoding="iso-8859-1"?>
<!-- Generator: Adobe Illustrator 19.0.0, SVG Export Plug-In . SVG Version: 6.00 Build 0)  -->
<svg version="1.1" id="Capa_1" xmlns="http://www.w3.org/2000/svg" xmlns:xlink="http://www.w3.org/1999/xlink" x="0px" y="0px"
	 viewBox="0 0 512.002 512.002" style="enable-background:new 0 0 512.002 512.002;" xml:space="preserve">
<path style="fill:#CC9D72;" d="M470.652,439.409c-32.323-195.849-30.148-183.87-31.166-188.35c-82.999,0-286.502,0-366.973,0
	c-1.017,4.48,1.177-7.614-31.166,188.35c-5.764,34.042,20.472,65.092,54.999,65.092c18.199,0,302.8,0,319.307,0
	C450.181,504.502,476.415,473.452,470.652,439.409z"/>
<path style="fill:#C19067;" d="M91.34,439.409c32.342-195.964,30.149-183.87,31.166-188.35c-19.376,0-36.435,0-49.992,0
	c-1.017,4.48,1.177-7.614-31.166,188.35c-5.764,34.042,20.472,65.092,54.999,65.092c4.274,0,23.248,0,49.992,0
	C111.811,504.502,85.576,473.452,91.34,439.409z"/>
<path style="fill:#F2C29E;" d="M439.486,229.062c-19.266,0-353.929,0-366.973,0c-7.455,0-13.498,6.043-13.498,13.498
	s6.043,13.498,13.498,13.498c16.901,0,295.347,0,313.68,0c6.189,0,46.457,0,53.293,0c7.455,0,13.498-6.043,13.498-13.498
	S446.941,229.062,439.486,229.062z"/>
<path style="fill:#E5AE89;" d="M108.525,242.56c0-7.455,6.043-13.498,13.498-13.498c-27.753,0-46.605,0-49.509,0
	c-7.455,0-13.498,6.043-13.498,13.498s6.043,13.498,13.498,13.498c4.023,0,22.877,0,49.509,0
	C114.568,256.058,108.525,250.015,108.525,242.56z"/>
<path style="fill:#F9D4BB;" d="M256,7.614c-71.788,0-130.193,58.404-130.193,130.194c0,48.343,0,180.144,0,227.732
	c0,7.455,6.043,13.498,13.498,13.498s13.498-6.043,13.498-13.498v-15.53c0-8.312,0-202.109,0-212.2
	c0-56.904,46.294-103.198,103.198-103.198s103.198,46.294,103.198,103.198c0,20.015,0,147.423,0,160.719v26.996
	c0,10.088,0,29.796,0,40.017c0,7.455,6.043,13.498,13.498,13.498s13.498-6.043,13.498-13.498c0-21.658,0-87.612,0-109.481V137.808
	C386.193,66.019,327.789,7.614,256,7.614z"/>
<path style="fill:#F2C29E;" d="M154.35,325.521h-30.328c-7.455,0-13.498-6.043-13.498-13.498l0,0
	c0-7.455,6.043-13.498,13.498-13.498h30.328c7.455,0,13.498,6.043,13.498,13.498l0,0
	C167.848,319.478,161.805,325.521,154.35,325.521z"/>
<path style="fill:#E5AE89;" d="M152.685,325.521c-7.455,0-13.498-6.043-13.498-13.498s6.043-13.498,13.498-13.498h1.668h-0.001
	h-30.329c-7.455,0-13.498,6.043-13.498,13.498s6.043,13.498,13.498,13.498h30.329h0.001H152.685z"/>
<path style="fill:#F2C29E;" d="M387.645,325.521h-30.328c-7.455,0-13.498-6.043-13.498-13.498l0,0
	c0-7.455,6.043-13.498,13.498-13.498h30.328c7.455,0,13.498,6.043,13.498,13.498l0,0C401.143,319.478,395.1,325.521,387.645,325.521
	z"/>
<path style="fill:#E5AE89;" d="M372.481,312.024c0-7.455,6.043-13.498,13.498-13.498h-28.662c-7.455,0-13.498,6.043-13.498,13.498
	s6.043,13.498,13.498,13.498h28.662C378.524,325.521,372.481,319.478,372.481,312.024z"/>
<path d="M448.165,261.656c7.254-3.31,12.318-10.615,12.318-19.096c0-11.577-9.419-20.997-20.997-20.997h-45.794v-83.755
	c0-39.572-17.119-77.293-46.969-103.491c-3.111-2.732-7.852-2.424-10.582,0.689c-2.732,3.112-2.424,7.851,0.689,10.582
	c26.605,23.35,41.864,56.964,41.864,92.219c0,18.642,0,140.673,0,153.219h-11.998c0-1.716,0-151.941,0-153.219
	c0-61.039-49.658-110.697-110.697-110.697S145.304,76.769,145.304,137.808c0,32.154,0,121.728,0,153.219h-11.998
	c0-32.634,0-114.156,0-153.219c0-90.568,95.166-149.678,176.017-110.489c3.727,1.808,8.214,0.25,10.019-3.477
	c1.807-3.727,0.25-8.213-3.477-10.019c-90.768-43.997-197.557,22.345-197.557,123.986v83.755H72.514
	c-11.577,0-20.997,9.419-20.997,20.997c0,8.481,5.064,15.785,12.318,19.096L33.954,438.158
	c-6.53,38.569,23.185,73.843,62.392,73.843h258.853c4.142,0,7.499-3.356,7.499-7.499s-3.356-7.499-7.499-7.499H96.347
	c-29.847,0-52.598-26.848-47.605-56.343l29.983-177.103h39.583v28.281c-20.318,5.762-20.308,34.611,0,40.37v33.33
	c0,11.577,9.419,20.997,20.997,20.997s20.997-9.419,20.997-20.997v-33.39c8.687-2.574,15.047-10.615,15.047-20.125
	c0-9.509-6.36-17.551-15.047-20.125v-28.342H351.7v28.256c-20.416,5.685-20.46,34.723,0,40.42v33.305
	c0,11.577,9.419,20.997,20.997,20.997c11.577,0,20.997-9.419,20.997-20.997v-33.415c19.878-5.992,19.872-34.209,0-40.2v-28.366
	h39.585l29.982,177.104c4.981,29.427-17.69,56.343-47.605,56.343h-25.461c-4.142,0-7.499,3.356-7.499,7.499s3.356,7.499,7.499,7.499
	h25.461c39.117,0,68.938-35.185,62.392-73.843L448.165,261.656z M72.514,248.559c-3.308,0-5.999-2.691-5.999-5.999
	s2.691-5.999,5.999-5.999h45.794v11.998H72.514z M145.304,365.539c0,3.308-2.691,5.999-5.999,5.999s-5.999-2.691-5.999-5.999
	v-32.518h11.998V365.539z M160.349,312.024c0,3.308-2.691,5.999-5.999,5.999c-11.255,0-19.071,0-30.328,0
	c-3.308,0-5.999-2.691-5.999-5.999c0-3.308,2.691-5.999,5.999-5.999c11.253,0,19.071,0,30.328,0
	C157.659,306.025,160.349,308.716,160.349,312.024z M160.301,248.56v-11.998h26.577c4.142,0,7.499-3.356,7.499-7.499
	c0-4.142-3.356-7.499-7.499-7.499h-26.577v-83.756c0-52.768,42.931-95.699,95.699-95.699s95.699,42.93,95.699,95.699v83.756H221.872
	c-4.142,0-7.499,3.356-7.499,7.499c0,4.142,3.356,7.499,7.499,7.499H351.7v11.998H160.301z M378.694,365.539
	c0,3.308-2.691,5.999-5.999,5.999c-3.308,0-5.999-2.691-5.999-5.999v-32.518h11.998V365.539z M387.645,318.023
	c-13.879,0-16.335,0-30.328,0c-3.308,0-5.999-2.691-5.999-5.999c0-3.308,2.691-5.999,5.999-5.999c13.931,0,16.396,0,30.328,0
	c3.308,0,5.999,2.691,5.999,5.999C393.644,315.332,390.953,318.023,387.645,318.023z M439.486,248.559h-45.794v-11.998h45.794
	c3.308,0,5.999,2.691,5.999,5.999S442.795,248.559,439.486,248.559z"/>
<g>
</g>
<g>
</g>
<g>
</g>
<g>
</g>
<g>
</g>
<g>
</g>
<g>
</g>
<g>
</g>
<g>
</g>
<g>
</g>
<g>
</g>
<g>
</g>
<g>
</g>
<g>
</g>
<g>
</g>
</svg>
