<?xml version="1.0" encoding="iso-8859-1"?>
<!-- Generator: Adobe Illustrator 19.0.0, SVG Export Plug-In . SVG Version: 6.00 Build 0)  -->
<svg version="1.1" id="Capa_1" xmlns="http://www.w3.org/2000/svg" xmlns:xlink="http://www.w3.org/1999/xlink" x="0px" y="0px"
	 viewBox="0 0 512.001 512.001" style="enable-background:new 0 0 512.001 512.001;" xml:space="preserve">
<path style="fill:#F4D44E;" d="M445.493,247.355c-10.896-20.775-32.98-22.556-53.674-13.105
	c-2.608,1.191-39.106,18.241-72.968,52.419c-2.866,2.893-7.791,0.9-7.791-3.172c0-46.989,0-221.639,0-216.935
	c0-16.392-12.436-30.465-28.785-31.641c-18.207-1.31-33.384,13.074-33.384,31.001c0-2.083,0-27.95,0-26.628
	c0-16.968-13.303-31.337-30.264-31.774c-17.543-0.452-31.905,13.635-31.905,31.074c0,15.3,0,11.956,0,27.328
	c0-17.928-15.179-32.311-33.385-31.001c-16.35,1.177-28.784,15.25-28.784,31.641v50.48c0-17.926-15.176-32.309-33.382-31.001
	c-16.351,1.175-28.787,15.248-28.787,31.64V366c0,26.005,8.571,50.007,23.044,69.336c13.618,18.188,10.493,37.287,10.929,40.965
	v1.755c0,14.606,11.841,26.445,26.445,26.445h146.117c14.497,0,26.249-11.752,26.249-26.249v-26.337
	c0.915-0.99,39.591-26.061,46.769-67.183c1.138-6.519,3.023-12.9,6.021-18.799c20.918-41.159,76.142-76.806,77.327-77.661
	C446.895,272.677,455.507,266.444,445.493,247.355z"/>
<g>
	<path style="fill:#E8C842;" d="M125.332,476.299c-0.435-3.68,2.687-22.777-10.929-40.964
		c-14.473-19.329-23.044-43.332-23.044-69.336c0-11.83,0-238.641,0-248.317c0-11.98,6.647-22.714,16.605-28.086
		c0.215-0.116-6.484-3.611-14.41-3.635c-17.318-0.053-31.174,14.469-31.174,31.786V366c0,26.005,8.571,50.007,23.044,69.336
		C99.04,453.523,95.918,472.62,96.353,476.3c0.001,18.316,13.263,28.202,26.471,28.202h28.953
		C138.55,504.501,125.332,494.599,125.332,476.299z"/>
	<path style="fill:#E8C842;" d="M186.719,38.595c0,38.62,0,141.411,0,180.227c0,18.096,28.979,18.069,28.979,0
		c0-37.078,0-139.29,0-180.227c0-11.882,6.668-22.202,16.466-27.434c0.018-0.01,0.018-0.036,0-0.046
		C212.002,0.297,186.719,14.942,186.719,38.595z"/>
	<path style="fill:#E8C842;" d="M293.184,37.827c-20.088-9.65-44.286,4.977-44.294,28.084c0,19.978,0,139.266,0,158.91
		c0,7.475,6.06,13.537,13.537,13.537h1.906c7.476,0,13.537-6.06,13.537-13.537c0-20.312,0-137.378,0-160.226
		C277.869,53.19,284.023,43.235,293.184,37.827z"/>
	<path style="fill:#E8C842;" d="M428.386,231.318c0-0.024,0-0.025,0.001-0.048c-0.73-0.238-3.649-1.566-8.491-2.183
		c-0.004-0.001-0.009-0.001-0.014-0.002c-17.653-2.243-35.389,7.829-53.921,19.709c-6.569,4.206-13.034,8.745-19.045,13.322l0,0
		c-9.036,6.881-18.651,15.054-28.064,24.555c-2.866,2.893-7.792,0.9-7.792-3.172l0,0l0,0c0,15.194,18.615,22.524,28.975,11.412
		l0.048-0.052C370.099,261.611,411.248,236.747,428.386,231.318z"/>
	<path style="fill:#E8C842;" d="M124.549,86.04v131.77c0,8.034,6.513,14.548,14.548,14.548c7.969,0,14.431-6.46,14.431-14.431
		c0-21.355,0-133.628,0-151.365c0-20.695,16.956-27.935,16.606-28.133c-20.846-11.016-45.585,4.386-45.585,28.133L124.549,86.04
		L124.549,86.04z"/>
</g>
<path d="M241.389,232.358c0,4.143,3.357,7.5,7.5,7.5s7.5-3.357,7.5-7.5V65.922c0-6.621,2.672-12.755,7.522-17.27
	c15.109-14.059,39.647-3.252,39.647,17.91v25.861c0,4.143,3.357,7.5,7.5,7.5s7.5-3.357,7.5-7.5V66.562
	c0-32.528-37.085-50.892-62.351-31.044c-3.131-32.587-42.052-47.248-65.333-24.56c-6.767,6.595-10.796,15.206-11.534,24.516
	c-25.137-19.675-62.294-1.653-62.294,31.088v19.936C91.891,66.966,54.88,85.025,54.88,117.682v201.615c0,4.143,3.357,7.5,7.5,7.5
	c4.143,0,7.5-3.357,7.5-7.5V117.682c0-12.668,9.586-23.279,21.824-24.159c13.89-0.986,25.344,9.926,25.344,23.521v115.315
	c0,4.143,3.357,7.5,7.5,7.5c4.143,0,7.5-3.357,7.5-7.5c0-26.925,0-147.258,0-165.794c0-21.105,24.501-31.997,39.648-17.909
	c4.847,4.512,7.518,10.639,7.521,17.256c0,0.136-0.001,156.261-0.001,156.476c0,4.143,3.357,7.5,7.5,7.5s7.5-3.357,7.5-7.5
	c0-47.542-0.001-136.313,0.001-183.79c0-13.308,10.938-23.898,24.211-23.577c12.66,0.326,22.958,11.217,22.958,24.276l0,0v193.062
	H241.389z"/>
<path d="M266.39,512.001h2.524c18.609,0,33.749-15.141,33.749-33.749v-22.61c1.39-1.264,20.818-13.956,34.9-38.536
	c13.837-24.151,9.756-33.353,17.056-47.734c18.145-35.745,65.112-68.36,74.343-74.535c0.39-0.26,0.628-0.424,0.708-0.481
	c21.382-15.428,35.508-25.619,22.465-50.481c-11.674-22.256-36.572-28.709-63.433-16.444c-1.649,0.754-36.455,16.868-70.144,49.027
	V127.426c0-4.143-3.357-7.5-7.5-7.5s-7.5,3.357-7.5,7.5v167.481c0,6.843,8.47,10.117,13.069,5.024
	c35.044-38.836,76.558-58.06,78.307-58.858c7.342-3.353,32.206-12.562,43.917,9.767c7.434,14.173,2.807,15.847-18.23,31.527
	c-13.733,9.186-60.043,42.121-79.38,80.214c-9.287,18.301-3.49,24.022-16.695,47.066c-5.426,9.472-12.382,18.08-20.735,25.695
	c-2.135,1.857-10.653,8.566-25.99,12.275c-8.584,2.076-7.072,14.793,1.757,14.793c1.718,0,6.457-1.459,8.083-1.974v17.816
	c0,10.338-8.41,18.749-18.749,18.749h-2.524c-4.143,0-7.5,3.357-7.5,7.5S262.247,512.001,266.39,512.001z"/>
<path d="M122.799,512.001h108.59c4.143,0,7.5-3.357,7.5-7.5s-3.357-7.5-7.5-7.5h-108.59c-10.446,0-18.945-8.498-18.945-18.945
	c-0.539-4.462,3.193-26.353-12.426-47.215c-26.526-35.43-20.78-70.595-21.548-76.541c0-4.143-3.357-7.5-7.5-7.5s-7.5,3.357-7.5,7.5
	c0.795,6.004-5.325,45.642,24.54,85.532c12.151,16.227,8.906,33.496,9.433,38.225C88.852,496.774,104.081,512.001,122.799,512.001z"
	/>
<g>
</g>
<g>
</g>
<g>
</g>
<g>
</g>
<g>
</g>
<g>
</g>
<g>
</g>
<g>
</g>
<g>
</g>
<g>
</g>
<g>
</g>
<g>
</g>
<g>
</g>
<g>
</g>
<g>
</g>
</svg>
