<?xml version="1.0" encoding="iso-8859-1"?>
<!-- Generator: Adobe Illustrator 19.0.0, SVG Export Plug-In . SVG Version: 6.00 Build 0)  -->
<svg version="1.1" id="Layer_1" xmlns="http://www.w3.org/2000/svg" xmlns:xlink="http://www.w3.org/1999/xlink" x="0px" y="0px"
	 viewBox="0 0 512 512" style="enable-background:new 0 0 512 512;" xml:space="preserve">
<circle style="fill:#F7B239;" cx="256.004" cy="256.004" r="246.855"/>
<path style="fill:#E09B2D;" d="M126.306,385.694c-88.801-88.802-95.798-228.426-20.998-325.241
	c-8.286,6.401-16.258,13.399-23.858,20.999c-96.401,96.401-96.401,252.698,0,349.099s252.698,96.401,349.099,0
	c7.599-7.599,14.597-15.573,20.999-23.858C354.733,481.492,215.108,474.495,126.306,385.694z"/>
<path d="M255.999,512C114.841,512,0,397.16,0,256.001S114.841,0,255.999,0C397.159,0,512,114.841,512,256.001
	S397.16,512,255.999,512z M255.999,18.299c-131.068,0-237.7,106.632-237.7,237.702s106.632,237.702,237.7,237.702
	c131.069,0,237.702-106.632,237.702-237.702S387.068,18.299,255.999,18.299z"/>
<path d="M255.999,356.703c-70.575,0-136.925-27.483-186.829-77.387c-3.573-3.573-3.573-9.367,0-12.939
	c3.573-3.573,9.367-3.573,12.939,0c95.884,95.884,251.898,95.884,347.78,0c3.574-3.573,9.367-3.573,12.94,0
	c3.573,3.573,3.573,9.367,0,12.939C392.925,329.219,326.574,356.703,255.999,356.703z"/>
<path style="fill:#E09B2D;" d="M255.999,394.029c-20.062,0-40.124-2.734-59.629-8.203c-4.865-1.364-7.704-6.414-6.34-11.281
	c1.364-4.865,6.417-7.703,11.281-6.34c35.777,10.032,73.6,10.032,109.379,0c4.868-1.361,9.916,1.475,11.28,6.34
	c1.364,4.866-1.475,9.916-6.34,11.281C296.123,391.296,276.063,394.029,255.999,394.029z"/>
<path d="M115.493,240.024c-2.662,0-5.299-1.155-7.109-3.382c-3.185-3.922-2.587-9.685,1.336-12.87
	c18.861-15.315,51.455-24.459,87.187-24.459c5.053,0,9.15,4.097,9.15,9.15c0,5.053-4.097,9.15-9.15,9.15
	c-31.666,0-59.948,7.614-75.652,20.366C119.559,239.355,117.519,240.024,115.493,240.024z"/>
<path d="M396.506,240.024c-2.026,0-4.066-0.67-5.762-2.047c-15.706-12.752-43.986-20.366-75.652-20.366
	c-5.054,0-9.15-4.097-9.15-9.15c0-5.053,4.095-9.15,9.15-9.15c35.732,0,68.325,9.143,87.187,24.459
	c3.923,3.185,4.521,8.947,1.336,12.87C401.807,238.869,399.168,240.024,396.506,240.024z"/>
<g>
</g>
<g>
</g>
<g>
</g>
<g>
</g>
<g>
</g>
<g>
</g>
<g>
</g>
<g>
</g>
<g>
</g>
<g>
</g>
<g>
</g>
<g>
</g>
<g>
</g>
<g>
</g>
<g>
</g>
</svg>
