<?xml version="1.0" encoding="iso-8859-1"?>
<!-- Generator: Adobe Illustrator 19.0.0, SVG Export Plug-In . SVG Version: 6.00 Build 0)  -->
<svg version="1.1" id="Layer_1" xmlns="http://www.w3.org/2000/svg" xmlns:xlink="http://www.w3.org/1999/xlink" x="0px" y="0px"
	 viewBox="0 0 512 512" style="enable-background:new 0 0 512 512;" xml:space="preserve">
<circle style="fill:#F7B239;" cx="256.004" cy="256.004" r="246.855"/>
<path style="fill:#E09B2D;" d="M126.308,385.694c-88.802-88.802-95.799-228.426-20.999-325.242
	C97.023,66.853,89.051,73.85,81.45,81.45c-96.401,96.401-96.401,252.698,0,349.099s252.698,96.401,349.099,0
	c7.599-7.599,14.597-15.573,20.999-23.858C354.733,481.492,215.108,474.494,126.308,385.694z"/>
<path style="fill:#FFFFFF;" d="M127.911,273.724h248.868c0,13.968-2.306,27.4-6.551,39.941H134.462
	C130.216,301.124,127.911,287.692,127.911,273.724z"/>
<path style="fill:#A81004;" d="M134.462,313.665h235.765c-8.369,24.716-24.289,45.931-45.016,60.924
	c-8.71-14.676-24.716-24.509-43.027-24.509c-11.187,0-21.508,3.672-29.84,9.882c-8.332-6.209-18.665-9.882-29.852-9.882
	c-18.299,0-34.317,9.833-43.015,24.509C158.751,359.595,142.831,338.381,134.462,313.665z"/>
<path style="fill:#F95428;" d="M282.184,350.08c18.311,0,34.317,9.833,43.027,24.509c-20.483,14.834-45.662,23.569-72.867,23.569
	s-52.384-8.735-72.867-23.569c8.698-14.676,24.716-24.509,43.015-24.509c11.187,0,21.52,3.672,29.852,9.882
	C260.677,353.752,270.997,350.08,282.184,350.08z"/>
<path d="M256.001,0C114.841,0,0,114.841,0,255.999C0,397.159,114.841,512,256.001,512C397.159,512,512,397.159,512,255.999
	C512,114.841,397.159,0,256.001,0z M256.001,493.701c-131.069,0-237.702-106.632-237.702-237.702
	c0-131.068,106.632-237.7,237.702-237.7c131.068,0,237.7,106.632,237.7,237.7C493.701,387.068,387.068,493.701,256.001,493.701z"/>
<path d="M146.725,238.682c18.666,0,33.852-15.186,33.852-33.852s-15.186-33.852-33.852-33.852s-33.852,15.186-33.852,33.852
	S128.058,238.682,146.725,238.682z"/>
<path d="M365.277,170.979c-18.666,0-33.852,15.186-33.852,33.852s15.186,33.852,33.852,33.852s33.852-15.186,33.852-33.852
	S383.942,170.979,365.277,170.979z"/>
<path d="M376.778,264.574H127.911c-5.053,0-9.15,4.097-9.15,9.15c0,14.662,2.367,29.087,7.034,42.876
	c8.934,26.382,25.643,48.999,48.316,65.4c22.86,16.557,49.914,25.309,78.233,25.309c28.32,0,55.373-8.752,78.23-25.305
	c22.677-16.405,39.387-39.021,48.319-65.402l0,0c4.667-13.788,7.034-28.214,7.034-42.875
	C385.928,268.671,381.831,264.574,376.778,264.574z M367.27,282.873c-0.576,7.338-1.854,14.575-3.809,21.642H141.226
	c-1.954-7.067-3.233-14.303-3.809-21.642H367.27z M192.566,372.312c7.649-8.21,18.499-13.083,29.925-13.083
	c8.87,0,17.302,2.79,24.385,8.069c3.244,2.417,7.691,2.418,10.934,0c7.082-5.279,15.51-8.069,24.372-8.069
	c11.421,0,22.274,4.871,29.932,13.085c-17.972,10.947-38.454,16.694-59.772,16.694C231.024,389.008,210.542,383.261,192.566,372.312
	z M327.021,361.551c-11.137-12.9-27.534-20.621-44.838-20.621c-10.623,0-20.819,2.772-29.84,8.066
	c-9.021-5.296-19.221-8.066-29.852-8.066c-17.312,0-33.709,7.723-44.83,20.616c-12.623-10.71-22.68-23.855-29.665-38.732H356.69
	C349.705,337.694,339.647,350.84,327.021,361.551z"/>
<g>
	<circle style="fill:#FFFFFF;" cx="150.48" cy="200.216" r="9.15"/>
	<circle style="fill:#FFFFFF;" cx="368.849" cy="200.216" r="9.15"/>
</g>
<g>
</g>
<g>
</g>
<g>
</g>
<g>
</g>
<g>
</g>
<g>
</g>
<g>
</g>
<g>
</g>
<g>
</g>
<g>
</g>
<g>
</g>
<g>
</g>
<g>
</g>
<g>
</g>
<g>
</g>
</svg>
