<?xml version="1.0" encoding="iso-8859-1"?>
<!-- Generator: Adobe Illustrator 19.0.0, SVG Export Plug-In . SVG Version: 6.00 Build 0)  -->
<svg version="1.1" id="Layer_1" xmlns="http://www.w3.org/2000/svg" xmlns:xlink="http://www.w3.org/1999/xlink" x="0px" y="0px"
	 viewBox="0 0 511.999 511.999" style="enable-background:new 0 0 511.999 511.999;" xml:space="preserve">
<circle style="fill:#F7B239;" cx="252.575" cy="260.544" r="242.474"/>
<path style="fill:#E09B2D;" d="M125.183,387.932c-87.226-87.226-94.099-224.372-20.626-319.47
	c-8.139,6.287-15.97,13.161-23.435,20.626c-94.69,94.69-94.69,248.214,0,342.904s248.214,94.69,342.904,0
	c7.464-7.464,14.338-15.296,20.626-23.435C349.556,482.03,212.409,475.156,125.183,387.932z"/>
<path style="fill:#FFFFFF;" d="M130.349,282.475H374.8c0,13.72-2.265,26.914-6.435,39.232H136.784
	C132.614,309.389,130.349,296.195,130.349,282.475z"/>
<path style="fill:#A81004;" d="M136.784,321.707h231.581c-8.22,24.277-23.858,45.116-44.217,59.843
	c-8.556-14.415-24.277-24.074-42.264-24.074c-10.988,0-21.126,3.607-29.31,9.706c-8.184-6.099-18.334-9.706-29.322-9.706
	c-17.974,0-33.708,9.658-42.252,24.074C160.642,366.823,145.004,345.984,136.784,321.707z"/>
<path style="fill:#F95428;" d="M281.885,357.476c17.986,0,33.708,9.658,42.264,24.074c-20.119,14.571-44.852,23.151-71.574,23.151
	s-51.455-8.58-71.574-23.151c8.544-14.415,24.277-24.074,42.252-24.074c10.988,0,21.138,3.607,29.322,9.706
	C260.759,361.083,270.897,357.476,281.885,357.476z"/>
<path style="fill:#2BA5F7;" d="M404.245,130.332L404.245,130.332c-22.34-22.34-22.34-58.558,0-80.896l40.448-40.448l40.448,40.448
	c22.339,22.339,22.339,58.558,0,80.896l0,0C462.801,152.672,426.583,152.672,404.245,130.332z"/>
<path style="fill:#2197D8;" d="M433.001,130.332L433.001,130.332c-22.339-22.338-22.339-58.558,0-80.896l26.07-26.07L444.693,8.987
	l-40.448,40.448c-22.339,22.34-22.339,58.558,0,80.896l0,0c14.859,14.859,35.855,19.821,54.828,14.913
	C449.521,142.775,440.482,137.813,433.001,130.332z"/>
<path d="M169.774,209.597c0,4.963,4.024,8.987,8.987,8.987c4.963,0,8.987-4.024,8.987-8.987c0-31.389-25.537-56.926-56.926-56.926
	c-31.388,0-56.925,25.537-56.925,56.926c0,4.963,4.024,8.987,8.987,8.987s8.987-4.024,8.987-8.987
	c0-21.478,17.473-38.952,38.95-38.952C152.301,170.646,169.774,188.119,169.774,209.597z"/>
<path d="M374.326,152.672c-31.388,0-56.925,25.537-56.925,56.926c0,4.963,4.024,8.987,8.987,8.987s8.987-4.024,8.987-8.987
	c0-21.478,17.473-38.952,38.95-38.952c21.478,0,38.952,17.473,38.952,38.952c0,4.963,4.024,8.987,8.987,8.987
	c4.963,0,8.987-4.024,8.987-8.987C431.252,178.208,405.715,152.672,374.326,152.672z"/>
<path d="M374.8,273.488H130.349c-4.963,0-8.987,4.024-8.987,8.987c0,14.401,2.325,28.57,6.909,42.114
	c8.775,25.914,25.187,48.129,47.458,64.239c22.456,16.263,49.028,24.86,76.845,24.86s54.389-8.597,76.841-24.856
	c22.275-16.113,38.688-38.328,47.462-64.243l0,0c4.585-13.543,6.909-27.712,6.909-42.114
	C383.787,277.512,379.763,273.488,374.8,273.488z M365.461,291.462c-0.566,7.208-1.821,14.316-3.741,21.258H143.429
	c-1.92-6.942-3.175-14.05-3.741-21.258L365.461,291.462L365.461,291.462z M193.857,379.313c7.513-8.064,18.171-12.85,29.394-12.85
	c8.713,0,16.995,2.74,23.953,7.925c3.186,2.374,7.554,2.374,10.74,0c6.957-5.185,15.236-7.925,23.941-7.925
	c11.218,0,21.877,4.785,29.401,12.854c-17.653,10.752-37.771,16.396-58.711,16.396C231.633,395.713,211.514,390.068,193.857,379.313
	z M325.927,368.743c-10.939-12.671-27.045-20.255-44.042-20.255c-10.435,0-20.45,2.723-29.31,7.924
	c-8.863-5.202-18.881-7.924-29.322-7.924c-17.005,0-33.112,7.588-44.035,20.251c-12.399-10.52-22.277-23.431-29.139-38.046h204.99
	C348.209,345.308,338.329,358.221,325.927,368.743z"/>
<path d="M491.496,136.688c12.502-12.502,19.387-29.123,19.387-46.803s-6.885-34.302-19.387-46.803L451.047,2.633
	C449.362,0.947,447.076,0,444.693,0c-2.383,0-4.67,0.947-6.355,2.633L397.89,43.081c-2.416,2.416-4.616,4.988-6.603,7.689
	C350.131,23.464,302.38,9.077,252.577,9.077C113.921,9.077,1.116,121.882,1.116,260.538s112.805,251.461,251.461,251.461
	c138.649,0,251.449-112.804,251.449-251.461c0-39.295-9.252-78.162-26.797-113.027C482.338,144.629,487.151,141.033,491.496,136.688
	z M444.693,21.697l34.094,34.094c9.107,9.107,14.122,21.215,14.122,34.094s-5.016,24.987-14.122,34.094
	c-18.799,18.799-49.387,18.8-68.187,0c-9.107-9.107-14.122-21.215-14.122-34.094s5.016-24.987,14.122-34.094L444.693,21.697z
	 M486.052,260.539c0,128.745-104.736,233.487-233.475,233.487c-128.745,0-233.487-104.741-233.487-233.487
	S123.832,27.053,252.577,27.053c46.785,0,91.61,13.676,130.115,39.603c-2.743,7.331-4.189,15.167-4.189,23.229
	c0,17.68,6.885,34.302,19.387,46.803c12.906,12.906,29.852,19.357,46.804,19.356c5.298,0,10.595-0.631,15.769-1.892
	C477.223,186.883,486.052,223.506,486.052,260.539z"/>
<g>
</g>
<g>
</g>
<g>
</g>
<g>
</g>
<g>
</g>
<g>
</g>
<g>
</g>
<g>
</g>
<g>
</g>
<g>
</g>
<g>
</g>
<g>
</g>
<g>
</g>
<g>
</g>
<g>
</g>
</svg>
