<?xml version="1.0" encoding="iso-8859-1"?>
<!-- Generator: Adobe Illustrator 19.0.0, SVG Export Plug-In . SVG Version: 6.00 Build 0)  -->
<svg version="1.1" id="Layer_1" xmlns="http://www.w3.org/2000/svg" xmlns:xlink="http://www.w3.org/1999/xlink" x="0px" y="0px"
	 viewBox="0 0 512 512" style="enable-background:new 0 0 512 512;" xml:space="preserve">
<circle style="fill:#F7B239;" cx="256.004" cy="256.004" r="246.855"/>
<path style="fill:#E09B2D;" d="M126.306,385.694c-88.801-88.802-95.798-228.426-20.998-325.242
	C97.023,66.853,89.051,73.85,81.45,81.45c-96.401,96.401-96.401,252.698,0,349.099s252.698,96.401,349.099,0
	c7.599-7.599,14.597-15.573,20.999-23.858C354.733,481.492,215.108,474.494,126.306,385.694z"/>
<g>
	<circle style="fill:#F95428;" cx="100.572" cy="267.069" r="24.119"/>
	<circle style="fill:#F95428;" cx="411.425" cy="267.069" r="24.119"/>
</g>
<path d="M255.999,512C114.841,512,0,397.16,0,256.001S114.841,0,255.999,0C397.159,0,512,114.841,512,255.999
	C512,397.16,397.16,512,255.999,512z M255.999,18.299c-131.068,0-237.7,106.632-237.7,237.702s106.632,237.702,237.7,237.702
	c131.069,0,237.702-106.632,237.702-237.702S387.068,18.299,255.999,18.299z"/>
<path d="M198.659,201.56c-3.115,0-6.151-1.591-7.864-4.459c-8.265-13.834-22.821-22.094-38.937-22.094s-30.672,8.259-38.937,22.094
	c-2.591,4.337-8.207,5.753-12.547,3.162c-4.338-2.592-5.753-8.209-3.162-12.547c11.6-19.417,32.028-31.007,54.646-31.007
	s43.046,11.592,54.646,31.007c2.592,4.338,1.176,9.956-3.162,12.547C201.873,201.141,200.255,201.56,198.659,201.56z"/>
<path d="M406.941,201.56c-3.115,0-6.15-1.591-7.863-4.459c-8.265-13.834-22.821-22.094-38.938-22.094
	c-16.115,0-30.671,8.26-38.936,22.094c-2.59,4.338-8.209,5.753-12.547,3.162s-5.753-8.209-3.162-12.547
	c11.6-19.415,32.028-31.007,54.645-31.007c22.618,0,43.046,11.591,54.647,31.007c2.591,4.338,1.176,9.955-3.162,12.547
	C410.156,201.141,408.538,201.56,406.941,201.56z"/>
<path d="M295.063,332.943c-16.051,0-30.295-7.884-39.064-19.984c-8.768,12.098-23.013,19.984-39.064,19.984
	c-26.585,0-48.213-21.628-48.213-48.212c0-5.053,4.097-9.15,9.15-9.15c5.053,0,9.15,4.097,9.15,9.15
	c0,16.495,13.419,29.913,29.914,29.913s29.914-13.419,29.914-29.913c0-5.053,4.097-9.15,9.15-9.15c5.054,0,9.15,4.097,9.15,9.15
	c0,16.495,13.419,29.913,29.914,29.913c16.495,0,29.913-13.419,29.913-29.913c0-5.053,4.095-9.15,9.15-9.15
	c5.054,0,9.15,4.097,9.15,9.15C343.275,311.316,321.647,332.943,295.063,332.943z"/>
<g>
</g>
<g>
</g>
<g>
</g>
<g>
</g>
<g>
</g>
<g>
</g>
<g>
</g>
<g>
</g>
<g>
</g>
<g>
</g>
<g>
</g>
<g>
</g>
<g>
</g>
<g>
</g>
<g>
</g>
</svg>
