<?xml version="1.0" encoding="iso-8859-1"?>
<!-- Generator: Adobe Illustrator 19.0.0, SVG Export Plug-In . SVG Version: 6.00 Build 0)  -->
<svg version="1.1" id="Layer_1" xmlns="http://www.w3.org/2000/svg" xmlns:xlink="http://www.w3.org/1999/xlink" x="0px" y="0px"
	 viewBox="0 0 512.001 512.001" style="enable-background:new 0 0 512.001 512.001;" xml:space="preserve">
<circle style="fill:#F7B239;" cx="256.004" cy="256.005" r="246.855"/>
<path style="fill:#E09B2D;" d="M126.306,385.694c-88.801-88.802-95.798-228.426-20.998-325.242
	c-8.286,6.401-16.258,13.399-23.858,20.999c-96.401,96.401-96.401,252.698,0,349.099s252.698,96.401,349.099,0
	c7.599-7.599,14.597-15.573,20.999-23.858C354.733,481.492,215.108,474.495,126.306,385.694z"/>
<path d="M256.001,512.001C114.841,512.001,0,397.16,0,256.001S114.841,0.001,256.001,0.001S512.001,114.842,512.001,256
	C512,397.16,397.16,512.001,256.001,512.001z M256.001,18.3c-131.069,0-237.702,106.632-237.702,237.702
	s106.632,237.702,237.702,237.702S493.702,387.07,493.702,256.001C493.701,124.932,387.068,18.3,256.001,18.3z"/>
<path d="M198.659,239.675c-3.115,0-6.15-1.591-7.863-4.459c-8.265-13.834-22.821-22.094-38.937-22.094s-30.672,8.259-38.937,22.094
	c-2.59,4.338-8.208,5.753-12.547,3.162c-4.338-2.592-5.753-8.209-3.162-12.547c11.6-19.417,32.028-31.007,54.646-31.007
	s43.046,11.592,54.646,31.007c2.591,4.338,1.176,9.956-3.162,12.547C201.873,239.258,200.254,239.675,198.659,239.675z"/>
<path d="M406.941,239.675c-3.115,0-6.15-1.591-7.863-4.459c-8.265-13.834-22.821-22.094-38.938-22.094
	c-16.115,0-30.671,8.26-38.936,22.094c-2.591,4.338-8.209,5.753-12.547,3.162c-4.338-2.591-5.753-8.209-3.162-12.547
	c11.6-19.415,32.028-31.007,54.645-31.007c22.618,0,43.046,11.591,54.647,31.007c2.591,4.338,1.176,9.955-3.162,12.547
	C410.156,239.258,408.538,239.675,406.941,239.675z"/>
<path d="M256.001,374.196c-49.637,0-99.254-18.887-137.042-56.673c-3.573-3.573-3.573-9.365,0-12.939
	c3.574-3.573,9.367-3.573,12.94,0c68.425,68.429,179.77,68.43,248.203,0c3.576-3.573,9.368-3.572,12.94,0
	c3.573,3.573,3.573,9.367,0,12.94C355.263,355.301,305.623,374.196,256.001,374.196z"/>
<path style="fill:#E09B2D;" d="M256.001,409.692c-14.756,0-29.505-2.01-43.85-6.033c-4.865-1.364-7.704-6.414-6.34-11.28
	c1.364-4.865,6.411-7.705,11.28-6.34c25.454,7.137,52.365,7.138,77.821,0c4.869-1.364,9.916,1.475,11.28,6.34
	c1.364,4.866-1.475,9.916-6.34,11.28C285.509,407.68,270.751,409.692,256.001,409.692z"/>
<g>
</g>
<g>
</g>
<g>
</g>
<g>
</g>
<g>
</g>
<g>
</g>
<g>
</g>
<g>
</g>
<g>
</g>
<g>
</g>
<g>
</g>
<g>
</g>
<g>
</g>
<g>
</g>
<g>
</g>
</svg>
