<?xml version="1.0" encoding="iso-8859-1"?>
<!-- Generator: Adobe Illustrator 19.0.0, SVG Export Plug-In . SVG Version: 6.00 Build 0)  -->
<svg version="1.1" id="Capa_1" xmlns="http://www.w3.org/2000/svg" xmlns:xlink="http://www.w3.org/1999/xlink" x="0px" y="0px"
	 viewBox="0 0 512 512" style="enable-background:new 0 0 512 512;" xml:space="preserve">
<path style="fill:#525263;" d="M443.765,10.2H68.236C34.75,10.2,7.604,37.346,7.604,70.832V441.17
	c0,33.486,27.145,60.631,60.631,60.631h375.529c33.486,0,60.631-27.145,60.631-60.631V70.832
	C504.396,37.346,477.251,10.2,443.765,10.2z"/>
<path style="fill:#BFC3CE;" d="M449.171,163.912c-10.201-21.405-24.164-41.469-41.889-59.192
	c-20.688-20.688-44.568-36.257-70.055-46.699c-77.409-31.724-169.652-16.155-232.507,46.699
	c-62.082,62.082-78.027,152.824-47.854,229.636c10.437,26.567,26.388,51.461,47.854,72.926c18.502,18.502,39.554,32.909,62.02,43.21
	c78.985,36.237,175.488,21.83,240.536-43.216C473.101,341.452,487.07,243.409,449.171,163.912z M220.135,291.869
	c-19.811-19.811-19.811-51.924,0-71.735c19.805-19.805,51.924-19.811,71.735,0c19.805,19.805,19.799,51.924-0.006,71.729
	C272.052,311.674,239.939,311.674,220.135,291.869z"/>
<path style="fill:#E6E6E6;" d="M449.171,163.912c-10.201-21.405-24.164-41.469-41.889-59.192
	c-20.688-20.688-44.568-36.257-70.055-46.699c-79.02,106.541-172.48,198.654-280.36,276.335
	c10.437,26.567,26.388,51.461,47.854,72.926c18.502,18.502,39.554,32.909,62.02,43.21
	C245.807,339.883,339.952,244.354,449.171,163.912z M220.135,291.869c-19.811-19.811-19.811-51.924,0-71.735
	c19.805-19.805,51.924-19.811,71.735,0c19.805,19.805,19.799,51.924-0.006,71.729C272.052,311.674,239.939,311.674,220.135,291.869z
	"/>
<path style="fill:#818E96;" d="M322.914,189.087c-36.941-36.941-96.887-36.941-133.828,0s-36.94,96.888,0,133.828
	s96.887,36.941,133.828,0S359.854,226.027,322.914,189.087z M220.135,291.865c-19.828-19.828-19.828-51.902,0-71.73
	s51.902-19.828,71.73,0s19.828,51.902,0,71.73S239.963,311.694,220.135,291.865z"/>
<path style="fill:#CEAC05;" d="M504.354,184.09v143.821h-199.13c-26.662,0-48.189-21.527-48.189-48.106v-47.609
	c0-26.578,21.527-48.106,48.189-48.106L504.354,184.09L504.354,184.09z"/>
<path style="fill:#FAD600;" d="M504.354,184.09v121.052h-199.13c-26.662,0-48.189-21.527-48.189-48.106v-24.84
	c0-26.578,21.527-48.106,48.189-48.106h199.13V184.09z"/>
<path d="M443.765,2.596H68.236C30.55,2.596,0,33.147,0,70.832v36.818c0,4.199,3.405,7.604,7.604,7.604l0,0
	c4.199,0,7.604-3.405,7.604-7.604V70.832c0-29.286,23.742-53.028,53.027-53.028h375.529c29.286,0,53.028,23.742,53.028,53.027
	v105.634H462.9c-10.978-28.59-27.939-54.815-50.244-77.12C370.812,57.501,315.177,34.456,256,34.456S141.188,57.501,99.344,99.345
	S34.455,196.823,34.455,256s23.044,114.812,64.889,156.656C141.188,454.5,196.823,477.545,256,477.545
	s114.812-23.044,156.656-64.889c22.305-22.305,39.266-48.529,50.244-77.119h33.892V441.17c0,29.286-23.742,53.027-53.027,53.027
	H68.236c-29.286,0-53.028-23.742-53.028-53.028V143.136c0-4.199-3.405-7.604-7.604-7.604l0,0c-4.199,0-7.604,3.405-7.604,7.604
	v298.033c0,37.685,30.55,68.235,68.235,68.235h375.53c37.685,0,68.235-30.55,68.235-68.235V327.932V184.069V70.832
	C512,33.147,481.45,2.596,443.765,2.596z M401.902,401.902c-38.557,38.557-89.686,59.976-144.145,60.427
	c-54.622,0.453-107.465-20.884-146.409-59.186c-39.763-39.109-61.685-91.44-61.686-147.142c0-54.707,21.709-107.149,60.378-145.847
	c38.421-38.451,89.338-59.874,143.597-60.478c54.683-0.609,107.645,20.615,146.71,58.883c20.097,19.687,35.653,42.745,46.158,67.905
	h-25.749c-4.199,0-7.604,3.405-7.604,7.604l0,0c0,4.199,3.405,7.604,7.604,7.604h31.398c6.698,20.493,10.181,42.142,10.181,64.326
	c0,22.185-3.484,43.834-10.181,64.328H335.492c30.286-37.368,30.286-91.287,0.001-128.655h49.779c4.199,0,7.604-3.405,7.604-7.604
	l0,0c0-4.199-3.405-7.604-7.604-7.604h-64.998c-40.121-32.472-99.286-30.065-136.58,7.228c-20.005,20.003-30.7,46.835-29.91,75.241
	c0.696,25.009,10.643,49.024,27.816,67.218c20.175,21.372,47.288,32.057,74.401,32.057c22.8,0,45.598-7.56,64.272-22.673h126.234
	C436.273,360.044,421.247,382.557,401.902,401.902z M268.592,297.224c-2.532-5.289-3.953-11.207-3.953-17.452v-47.545
	c0-6.244,1.421-12.162,3.953-17.452c6.554,1.99,12.725,5.564,17.896,10.735c16.811,16.812,16.811,44.166,0,60.977
	C281.316,291.66,275.146,295.234,268.592,297.224z M252.838,298.969c-9.964-0.726-19.724-4.879-27.326-12.481
	c-16.812-16.812-16.812-44.166,0-60.977c7.604-7.603,17.36-11.755,27.327-12.481c-2.202,5.988-3.407,12.454-3.407,19.196v47.545
	C249.431,286.515,250.635,292.981,252.838,298.969z M261.263,197.946c-16.637-1.494-33.797,4.105-46.505,16.813
	c-22.741,22.741-22.741,59.743,0,82.484c11.37,11.369,26.306,17.055,41.242,17.055c1.756,0,3.512-0.085,5.263-0.243
	c7.988,10.214,19.442,17.589,32.585,20.318c-32.411,15.616-72.559,10.023-99.402-16.82c-16.442-16.442-25.497-38.302-25.497-61.554
	c0-23.252,9.055-45.112,25.497-61.553c16.97-16.97,39.262-25.455,61.554-25.455c12.968,0,25.928,2.894,37.849,8.637
	C280.705,180.355,269.251,187.732,261.263,197.946z M305.194,320.328c-10.387,0-19.871-3.929-27.053-10.374
	c6.953-2.843,13.465-7.077,19.1-12.712c22.741-22.741,22.741-59.743,0-82.484c-5.635-5.635-12.147-9.87-19.1-12.712
	c7.182-6.444,16.666-10.373,27.052-10.373h9.441c0.988,0.9,1.964,1.819,2.918,2.774c33.941,33.941,33.941,89.166,0,123.106
	c-0.955,0.955-1.931,1.874-2.919,2.775h-9.439V320.328z M468.108,320.328c6.216-20.592,9.437-42.212,9.437-64.328
	c0-22.115-3.221-43.736-9.437-64.326h28.684v128.655H468.108z"/>
<g>
</g>
<g>
</g>
<g>
</g>
<g>
</g>
<g>
</g>
<g>
</g>
<g>
</g>
<g>
</g>
<g>
</g>
<g>
</g>
<g>
</g>
<g>
</g>
<g>
</g>
<g>
</g>
<g>
</g>
</svg>
