<?xml version="1.0" encoding="iso-8859-1"?>
<!-- Generator: Adobe Illustrator 19.0.0, SVG Export Plug-In . SVG Version: 6.00 Build 0)  -->
<svg version="1.1" id="Capa_1" xmlns="http://www.w3.org/2000/svg" xmlns:xlink="http://www.w3.org/1999/xlink" x="0px" y="0px"
	 viewBox="0 0 511.999 511.999" style="enable-background:new 0 0 511.999 511.999;" xml:space="preserve">
<path style="fill:#7C6359;" d="M428.344,307.044L428.344,307.044c-3.572-0.858-7.234-1.692-11.006-2.496
	c-0.022,8.094,0.042,7.348-0.048,8.683l0,0c-0.439,6.552-4.767,12.219-10.964,14.386c-1.616,0.566-7.619,1.786-9.221,2.101l0,0
	c-16.698,3.315-31.388,5.376-48.753,7.293l0,0c-59.638,6.612-132.394,5.797-184.681,0l0,0c-21.056-2.326-34.878-4.54-48.753-7.293
	l0,0c-7.83-1.542-13.533-2.212-17.707-8.87c-3.664-5.822-2.179-10.723-2.525-16.3c-176.035,37.513-66.925,109.125,161.325,109.125
	c115.799,0,213.097-19.756,240.677-46.494c4.324-4.193,7.823-9.419,7.823-15.491C504.512,327.831,451.585,312.513,428.344,307.044z"
	/>
<path style="fill:#705850;" d="M151.094,335.528c-14.38-1.814-25.27-3.645-36.175-5.81l0,0c-7.83-1.542-13.533-2.212-17.707-8.87
	c-3.664-5.822-2.179-10.723-2.525-16.3c-124.024,26.43-106.502,69.784-5.501,93.096C63.416,377.007,79.078,353.132,151.094,335.528z
	"/>
<path style="fill:#967D74;" d="M407.511,204.134l0.004-0.001c-51.288-139.84-251.039-141.659-303.008,0c0,0,0.002,0,0.004,0.001
	c-6.353,17.321-9.823,36.034-9.823,55.557c0.024,56.135-0.049,52.1,0.048,53.539h-0.004c0.326,4.944,2.939,9.645,7.26,12.537
	c3.307,2.215,6.316,2.649,12.924,3.95l0,0c14.536,2.88,28.513,5.065,48.753,7.294l0,0c13.445,1.494,32.435,2.922,45.63,3.528l0,0
	c30.617,1.432,58.525,1.634,93.425,0l0,0c13.194-0.606,32.184-2.034,45.63-3.528l0,0c17.39-1.915,31.97-3.969,48.753-7.294l0,0
	c6.6-1.3,9.532-1.816,12.484-3.657c4.607-2.87,7.401-7.835,7.7-12.831c0,0-0.003,0-0.004,0c0.025-0.367,0.048-0.734,0.048-1.106
	C415.807,272.222,422.115,243.945,407.511,204.134z"/>
<path style="fill:#7C6359;" d="M144.173,323.614c0.001,0,0.003,0,0.003,0c-0.095-1.508-0.022,2.722-0.046-56.128
	c0-20.468,3.469-40.086,9.823-58.246c-0.001,0-0.002,0-0.002,0c22.525-64.374,72.821-100.465,126.754-108.782
	c-70.287-10.59-146.833,23.631-176.198,103.674c0,0,0.002,0,0.004,0.001c-6.353,17.321-9.823,36.034-9.823,55.557
	c0.024,56.135-0.049,52.1,0.048,53.539h-0.004c0.326,4.944,2.939,9.645,7.26,12.537c3.307,2.215,6.316,2.649,12.924,3.95l0,0
	c10.946,2.169,21.577,3.943,34.802,5.639C146.429,332.32,144.453,328.065,144.173,323.614z"/>
<path style="fill:#6AAA6A;" d="M206.544,243.657c-29.21-1.569-59.115-4.369-88.076-9.926c-11.424-2.196-15.909-2.699-20.18-8.034
	c-2.043,9.527-3.252,19.363-3.532,29.434c0.61,6.814,5.29,12.914,13.595,14.736c32.086,7.058,68.717,10.574,101.3,12.173
	C205.692,269.723,204.928,256.098,206.544,243.657z"/>
<path style="fill:#60A060;" d="M146.535,238.269c-9.417-1.264-18.791-2.758-28.068-4.538c-11.424-2.196-15.909-2.699-20.18-8.034
	c-2.081,9.703-3.263,19.631-3.53,29.452c0.617,6.807,5.295,12.897,13.593,14.718c11.476,2.525,23.537,4.589,35.783,6.281
	c-0.001-2.726-0.002-5.603-0.003-8.661C144.129,257.521,144.958,247.761,146.535,238.269z"/>
<path style="fill:#77B777;" d="M365.616,287.114c-5.157-2.373-10.707-4.542-16.709-6.29c-1.944,7.243-7.982,12.824-15.471,14.104
	c12.701,27.397,23.18,70.025,27.75,88.839c0.9,3.707,5.883,4.373,7.728,1.034l10.539-19.084c1.666-3.016,5.064-4.642,8.459-4.046
	l23.398,4.11c3.286,0.577,5.766-2.918,4.146-5.834C395.255,323.579,376.375,298.648,365.616,287.114z"/>
<g>
	<path style="fill:#6AAA6A;" d="M345.365,287.83c-2.913,3.672-7.117,6.275-11.929,7.098c12.701,27.397,23.18,70.025,27.75,88.839
		c0.9,3.707,5.883,4.373,7.728,1.034l10.539-19.084c0.888-1.609,2.276-2.805,3.887-3.496
		C374.897,342.716,360.083,309.818,345.365,287.83z"/>
	<path style="fill:#6AAA6A;" d="M303.259,280.825c-6.034,1.754-11.503,3.832-16.502,6.067
		c-10.722,11.461-29.716,36.453-50.047,73.056c-1.62,2.916,0.86,6.411,4.146,5.834l23.398-4.11c3.394-0.596,6.792,1.029,8.459,4.046
		l10.539,19.084c1.844,3.339,6.827,2.673,7.728-1.034c4.57-18.815,15.049-61.443,27.75-88.839
		C311.241,293.647,305.203,288.068,303.259,280.825z"/>
</g>
<g>
	<path style="fill:#77B777;" d="M304.684,284.531c-13.991,23.543-27.503,56.201-35.934,77.661c1.642,0.686,3.06,1.892,3.962,3.526
		l10.539,19.084c1.844,3.339,6.827,2.673,7.728-1.034c4.569-18.815,15.049-61.443,27.75-88.839
		C312.58,293.876,307.414,289.922,304.684,284.531z"/>
	<path style="fill:#77B777;" d="M419.408,202.564c-20.706,0-57.441,18.777-75.742,37.06c3.491,3.477,5.66,8.281,5.66,13.567
		c-0.202,24.421,0.475,25.361-0.658,29.564c48.405,13.98,60.5,48.656,84.346,19.194
		C460.227,268.327,445.004,202.564,419.408,202.564z"/>
</g>
<path style="fill:#6AAA6A;" d="M442.012,285.462c7.625-32.36-87.434-12.679-92.671-11.572c0.019,3.091,0.126,5.902-0.672,8.863
	c48.405,13.98,60.5,48.656,84.346,19.194c3.964-4.897,7.021-10.48,9.284-16.439L442.012,285.462z"/>
<path style="fill:#77B777;" d="M302.839,253.19c0-5.286,2.169-10.09,5.66-13.567c-18.3-18.283-55.035-37.06-75.742-37.06
	c-25.596,0-40.818,65.763-13.606,99.384c23.846,29.462,35.94-5.214,84.345-19.194C302.36,278.539,303.038,277.337,302.839,253.19z"
	/>
<g>
	<path style="fill:#6AAA6A;" d="M266.952,212.056c-12.548-5.755-24.964-9.493-34.194-9.493c-25.596,0-40.818,65.763-13.606,99.384
		c16.374,20.23,27.209,10.219,48.062-2.567C248.572,273.297,252.845,230.865,266.952,212.056z"/>
	<path style="fill:#6AAA6A;" d="M302.839,273.894c-5.114-1.082-100.315-20.814-92.684,11.569
		c3.98,11.028,13.045,24.982,23.736,27.563c16.306,3.939,32.079-19.44,69.606-30.271
		C303.07,281.171,302.932,276.825,302.839,273.894z"/>
</g>
<path style="fill:#60A060;" d="M254.624,271.726c0.09-1.66,0.398-3.114,0.886-4.395c-24.854-1.521-49.376,1.072-45.356,18.132
	c3.98,11.028,13.045,24.983,23.736,27.563c9.168,2.215,18.168-4.206,30.96-12.178C258.488,293.635,255.206,281.271,254.624,271.726z
	"/>
<path style="fill:#6AAA6A;" d="M330.157,233.276h-8.147c-10.981,0-19.914,8.934-19.914,19.914v24.606
	c0,10.981,8.934,19.914,19.914,19.914h8.147c10.981,0,19.915-8.934,19.915-19.914V253.19
	C350.071,242.209,341.138,233.276,330.157,233.276z"/>
<path style="fill:#60A060;" d="M326.083,277.796V253.19c0-8.166,4.945-15.193,11.994-18.262c-2.43-1.058-5.106-1.652-7.921-1.652
	h-8.147c-10.981,0-19.914,8.934-19.914,19.914v24.606c0,10.981,8.934,19.914,19.914,19.914h8.147c2.815,0,5.49-0.594,7.921-1.652
	C331.028,292.988,326.083,285.963,326.083,277.796z"/>
<path d="M441.734,302.743c26.024-38.042,10.579-107.68-22.336-107.68c-2.267,0-4.667,0.188-7.168,0.542
	c-6.458-15.745-15.245-30.381-26.182-43.579c-2.644-3.188-7.371-3.633-10.561-0.988c-3.189,2.643-3.633,7.371-0.989,10.561
	c9.471,11.428,17.175,24.036,22.967,37.569c-18.5,6.017-39.882,18.113-54.151,30.543c-8.896-5.021-16.318-2.954-21.314-3.436
	c-4.571,0-9.207,1.207-13.177,3.44c-24.293-21.122-80.419-53.327-101.255-16.997c-4.081,7.11-6.699,15.127-8.327,23.062
	c-43.085-2.607-87.712-9.747-92.662-12.656c26.604-108.694,156.496-152.848,243.802-84.903c3.269,2.544,7.981,1.956,10.526-1.313
	c2.544-3.27,1.956-7.981-1.313-10.526C259.45,48.451,109.891,105.379,89.347,232.669c-3.582,22.207-1.675,37.678-2.172,65.849
	C46.061,307.844,0,324.389,0,351.689c0,64.541,262.366,87.07,416.657,54.949c4.056-0.845,6.658-4.816,5.814-8.872
	c-0.844-4.056-4.824-6.655-8.872-5.814c-95.32,19.845-239.637,19.202-331.5-3.711c-21.809-5.439-39.534-11.971-51.261-18.885
	c-10.214-6.024-15.838-12.298-15.838-17.667c0-9.838,19.132-25.318,72.236-37.791c0.704,10.294,8.151,19.192,18.593,21.564
	c45.42,9.989,89.536,12.127,128.491,13.475c-1.022,1.783-2.12,3.661-4.18,7.368c-4.685,8.431,2.489,18.522,12.001,16.864
	c0.1-0.017,25.54-4.481,23.691-4.079c-0.605-1.477,4.302,7.521,10.841,19.339c1.513,2.737,3.995,4.796,7.22,5.647
	c1.479,0.385,3.134,0.389,2.945,0.389c0.5,0,1.345-0.068,1.615-0.104c0.358-0.048,1.046-0.18,1.565-0.323
	c0.489-0.134,1.124-0.349,1.7-0.609c2.412-1.083,4.343-2.945,5.524-5.212c0.14-0.269,0.366-0.765,0.409-0.865
	c1.022-2.426,3.555-15.426,10.718-39.598c17.844-0.991,34.445-2.633,34.597-2.646c3.956,13.124,7.644,26.951,10.917,40.431
	c2.517,10.362,16.473,12.141,21.582,2.89c0.055-0.1,11.364-20.546,10.649-19.205c0.631-0.5-0.34-0.073,23.883,3.946
	c9.528,1.667,16.675-8.45,12.001-16.863c-3.851-6.932-8.339-14.567-12.837-21.726c7.248-2.652,12.562-8.539,14.637-15.512
	c2.207-0.934,4.628-2.418,6.467-3.826c21.124,5.298,38.361,11.594,50.017,18.281c10.778,6.184,16.714,12.636,16.714,18.165
	c0,12.113-25.878,24.389-50.096,31.839c-3.959,1.219-6.182,5.415-4.964,9.375s5.417,6.185,9.375,4.963
	c40.268-12.387,60.687-27.924,60.687-46.177C512,327.755,476.109,312.176,441.734,302.743z M221.299,218.96
	c5.488-8.787,9.776-9.485,16.724-8.477c15.165,2.188,41.705,14.074,60.277,29.958c-4.762,8.816-2.737,15.861-3.218,24.323
	c-20.912-3.748-63.76-9.891-82.35,0.314C211.124,250.177,213.424,231.846,221.299,218.96z M290.619,279.16
	c-25.828,9.876-41.965,25.681-51.882,26.725c-9.146,1.039-18.049-13.526-21.374-22.522c-0.483-2.437,0.296-3.234,0.771-3.72
	C225.421,272.184,258.881,273.518,290.619,279.16z M109.142,320.831c-4.102-0.933-6.966-4.513-6.966-8.707
	c0-12.932,0-22.02,0-36.275c4.28,1.718,21.015,4.616,25.258,5.328c4.087,0.681,7.952-2.07,8.639-6.155s-2.07-7.952-6.155-8.639
	c-8.359-1.403-14.571-2.661-20.772-4.022c-4.197-0.955-6.983-4.732-6.853-8.307c0.204-5.68,0.675-10.684,1.397-15.875
	c4.434,1.456,43.573,9.733,93.69,12.517c-0.402,7.979,0.148,15.945,1.519,23.28c-20.827-1.325-32.23-2.7-34.4-2.89
	c-4.101-0.439-7.82,2.52-8.273,6.637c-0.452,4.117,2.519,7.822,6.637,8.274c0.108,0.01,17.014,1.951,40.417,3.264
	c4.979,12.559,15.882,28.088,28.974,31.081c8.492,1.985,16.187-1.043,23.79-5.311c-4.049,5.695-8.318,12.028-12.733,19.032
	C197.121,332.723,154.712,330.861,109.142,320.831z M285.717,373.77c-6.679-12.058-6.981-13.136-9.258-15.335
	c-3.519-3.408-8.531-5.025-13.515-4.151l-16.015,2.813c12.243-21.222,27.735-44.011,44.251-61.953
	c2.334-1.012,5.306-2.192,7.974-3.132c2.457,3.887,5.711,6.976,9.507,9.149C308.608,301.289,291.464,351.018,285.717,373.77z
	 M313.138,332.444c2.989-9.119,6.48-18.851,10.316-27.733h5.23c3.523,8.156,6.848,17.336,9.656,25.77
	C332.363,331.051,321.541,331.918,313.138,332.444z M341.17,282.29c-1.429,3.528-4.553,6.242-8.376,7.113
	c-2.448,0.558-11.677,0.309-12.975,0.092c-3.845-0.697-7.245-3.331-8.848-7.206c-0.061-0.937-0.701-2.946-0.646-10.538
	c0.029-3.886,0.074-9.756,0.001-18.589c0.014-5.506,3.435-7.926,4.409-9.395c4.192-3.25,7.83-2.474,15.408-2.492
	c2.47,0,5.078,0.801,7.261,2.493c0.957,1.443,4.408,3.924,4.408,9.359C341.519,288.955,342.428,270.908,341.17,282.29z
	 M379.844,355.549c0,0-0.008,0.004-0.012,0.006c-7.077,3.358-7.939,9.542-13.407,18.215c-5.812-23.009-13.821-50.817-22.943-72.608
	c3.707-2.101,7.026-5.208,9.494-9.13c2.694,0.966,5.397,2.057,8.15,3.286c12.477,13.501,28.449,34.665,44.088,61.78
	C388.8,354.23,385.59,352.83,379.844,355.549z M400.499,321.347c-1.498-2.195-2.971-4.308-4.414-6.335
	c3.326,1.863,6.576,3.432,9.832,4.492C404.161,320.69,402.693,320.873,400.499,321.347z M434.546,284.679
	c-3.112,7.453-11.675,21.056-19.723,21.269c-10.152,0.274-25.855-16.283-53.306-26.782c31.746-5.64,65.209-6.978,72.493,0.475
	C435.575,281.247,434.72,283.05,434.546,284.679z M439.424,265.087c-18.595-10.218-61.484-4.063-82.364-0.322
	c-0.483-8.494,1.533-15.53-3.218-24.323c16.979-14.529,48.297-30.377,65.555-30.377c4.694,0,9.855,4.939,13.803,13.215
	C438.561,234.517,441.057,250.08,439.424,265.087z"/>
<g>
</g>
<g>
</g>
<g>
</g>
<g>
</g>
<g>
</g>
<g>
</g>
<g>
</g>
<g>
</g>
<g>
</g>
<g>
</g>
<g>
</g>
<g>
</g>
<g>
</g>
<g>
</g>
<g>
</g>
</svg>
