<?xml version="1.0" encoding="iso-8859-1"?>
<!-- Generator: Adobe Illustrator 19.0.0, SVG Export Plug-In . SVG Version: 6.00 Build 0)  -->
<svg version="1.1" id="Capa_1" xmlns="http://www.w3.org/2000/svg" xmlns:xlink="http://www.w3.org/1999/xlink" x="0px" y="0px"
	 viewBox="0 0 512.001 512.001" style="enable-background:new 0 0 512.001 512.001;" xml:space="preserve">
<path style="fill:#F7E7A1;" d="M222.42,463.68L222.42,463.68C210.653,450.719,56.419,280.804,44.451,267.617
	c-51.299-56.516-48.162-143.801,7.5-196.391c58.16-54.953,149.746-48.181,201.833,9.203l3.239,3.568l3.291-3.523
	c52.909-56.648,144.579-62.096,201.942-6.329l0,0c54.504,52.984,57.184,140.291,4.706,196.478
	c-4.696,5.027-58.417,62.545-106.098,113.594l-74.413,79.671C269.166,482.395,239.673,482.387,222.42,463.68z"/>
<path style="fill:#EDDC96;" d="M246.888,445.92L246.888,445.92C235.03,433.042,79.591,264.229,67.53,251.128
	c-51.548-55.985-49.191-142.939,5.624-195.969c-7.918,4.942-15.467,10.771-22.511,17.522C-4.644,125.665-7.161,212.97,44.539,269.12
	c12.062,13.1,167.501,181.914,179.359,194.792l0.001-0.001c17.385,18.584,46.877,18.382,64.031-0.248l6.124-6.651
	C278.128,462.928,259.382,459.275,246.888,445.92z"/>
<path style="fill:#F4D44E;" d="M244.475,444.511c6.084,6.605,16.525,6.651,22.65-0.003c8.203-8.908,171.918-186.71,179.131-194.544
	c41.526-45.102,39.023-114.801-4.867-156.867l0,0c-46.233-44.307-119.675-38.942-161.521,6.505l-7.347,7.979
	c-8.997,9.77-24.45,9.768-33.445-0.001c-3.376-2.576-31.451-43.197-88.482-44.978C50.402,59.434-0.686,178.252,65.342,249.966
	l69.281,75.242c48.568,52.748,105.486,114.563,109.816,119.264c0.011,0.012,0.022,0.024,0.033,0.036l0,0L244.475,444.511z"/>
<path style="fill:#E8C842;" d="M184.603,309.548l-69.281-75.242C64.855,179.493,82.81,97.166,138.813,62.819
	C46.509,68.892,1.958,181.123,65.343,249.966l69.281,75.242c48.568,52.749,105.486,114.563,109.816,119.264
	c0.011,0.012,0.022,0.024,0.033,0.036l0.002,0.003c6.084,6.605,16.525,6.651,22.65-0.003c1.63-1.77,9.407-10.217,20.872-22.668
	C271.068,403.454,224.956,353.373,184.603,309.548z"/>
<path d="M461.837,264.043L341.62,394.601c-2.805,3.046-2.608,7.789,0.438,10.594c3.038,2.797,7.781,2.617,10.594-0.438
	l120.217-130.559c51.422-55.85,51.857-140.644,3.127-196.875c-2.713-3.129-7.447-3.467-10.576-0.756
	c-3.129,2.712-3.468,7.446-0.756,10.576C508.529,137.759,507.945,213.964,461.837,264.043z"/>
<path d="M218.714,469.034c20.348,21.752,54.908,21.556,75.021-0.292l35.03-38.044c2.805-3.046,2.608-7.789-0.438-10.593
	c-3.046-2.805-7.788-2.61-10.594,0.438l-35.03,38.044c-14.239,15.468-38.686,15.549-52.999,0.252
	c-0.093-0.101-0.365-0.397-0.272-0.296c-0.106-0.122-171.804-186.588-179.089-194.5C-29.377,177.46,34.692,38.119,151.535,41.83
	c36.343,1.136,71.252,17.062,95.775,43.696l3.265,3.545c2.969,3.224,8.062,3.224,11.03,0c1.418-1.043,35.241-45.249,99.041-47.242
	c28.666-0.884,56.035,7.046,79.128,22.986c3.409,2.353,8.079,1.494,10.43-1.912c2.352-3.407,1.495-8.076-1.912-10.429
	c-59.92-41.354-142.018-31.613-192.202,20.504c-27.097-28.14-64.842-44.91-104.086-46.135
	C21.55,22.77-49.072,178.209,39.314,274.198C39.443,274.338,219.806,470.22,218.714,469.034z"/>
<path d="M256.09,441.979c-2.241,0-4.231-0.862-5.76-2.493c-0.142-0.157-106.618-115.79-131.652-142.979
	c-2.805-3.046-7.547-3.242-10.593-0.438c-3.046,2.805-3.242,7.548-0.437,10.594c29.603,32.151,131.506,142.826,131.604,142.927
	c9.045,9.819,24.568,9.893,33.68-0.004l179.13-194.544c70.328-76.382,16.191-203.3-91.002-199.932
	c-60.48,1.888-90.363,44.807-93.762,47.393c-2.877,3.124-6.962,4.915-11.208,4.915c-9.762,0-13.034-7.92-18.553-12.892
	c-22.123-24.026-53.62-38.392-86.413-39.416C45.872,51.733-11.522,177.24,60.119,255.044l23.81,25.858
	c2.804,3.048,7.548,3.243,10.593,0.438c3.046-2.805,3.242-7.548,0.438-10.594l-23.81-25.858
	C8.676,177.039,58.301,67.25,150.652,70.097c53.369,1.666,80.028,40.133,83.201,42.563c11.963,12.991,32.51,12.99,44.475,0.001
	l7.348-7.979c39.394-42.784,107.997-47.205,150.818-6.17c40.982,39.276,43.267,104.315,4.54,146.375
	C251.908,448.936,262.658,441.979,256.09,441.979z"/>
<g>
</g>
<g>
</g>
<g>
</g>
<g>
</g>
<g>
</g>
<g>
</g>
<g>
</g>
<g>
</g>
<g>
</g>
<g>
</g>
<g>
</g>
<g>
</g>
<g>
</g>
<g>
</g>
<g>
</g>
</svg>
