<?xml version="1.0" encoding="iso-8859-1"?>
<!-- Generator: Adobe Illustrator 19.0.0, SVG Export Plug-In . SVG Version: 6.00 Build 0)  -->
<svg version="1.1" id="Capa_1" xmlns="http://www.w3.org/2000/svg" xmlns:xlink="http://www.w3.org/1999/xlink" x="0px" y="0px"
	 viewBox="0 0 512 512" style="enable-background:new 0 0 512 512;" xml:space="preserve">
<path style="fill:#E39CF2;" d="M222.306,463.772L222.306,463.772C210.534,450.805,56.232,280.815,44.259,267.623
	C-7.064,211.082-3.924,123.758,51.761,71.146c58.186-54.977,149.812-48.202,201.923,9.207l3.24,3.57l3.292-3.524
	c52.932-56.673,144.643-62.123,202.032-6.332l0,0c54.528,53.007,57.209,140.353,4.708,196.565
	c-4.698,5.029-58.443,62.572-106.145,113.644l-74.446,79.707C269.073,482.497,239.567,482.488,222.306,463.772z"/>
<path style="fill:#D892E8;" d="M246.786,446.004L246.786,446.004C234.922,433.121,79.415,264.232,67.347,251.126
	c-51.571-56.01-49.213-143.003,5.626-196.056C65.052,60.014,57.499,65.846,50.452,72.6c-55.31,53.008-57.828,140.352-6.105,196.526
	c12.067,13.106,167.575,181.995,179.439,194.879l0.001-0.001c17.392,18.592,46.898,18.39,64.059-0.248l6.127-6.654
	C278.04,463.02,259.285,459.365,246.786,446.004z"/>
<path style="fill:#D978EA;" d="M244.371,444.595c6.087,6.608,16.532,6.654,22.66-0.003c8.206-8.912,171.993-186.793,179.211-194.63
	c41.545-45.122,39.041-114.852-4.869-156.936l0,0c-46.254-44.327-119.728-38.959-161.592,6.508l-7.35,7.982
	c-9.001,9.774-24.46,9.772-33.46-0.001c-3.377-2.577-31.465-43.216-88.521-44.998c-100.238-3.17-151.348,115.7-85.291,187.446
	l69.311,75.275c48.591,52.771,105.534,114.614,109.865,119.317c0.011,0.012,0.022,0.024,0.033,0.036l0,0L244.371,444.595z"/>
<path style="fill:#C76ADB;" d="M184.473,309.571l-69.311-75.275c-50.49-54.837-32.527-137.201,23.501-171.562
	C46.317,68.809,1.747,181.09,65.16,249.963l69.311,75.275c48.59,52.771,105.533,114.614,109.864,119.317
	c0.011,0.012,0.022,0.024,0.033,0.036l0.002,0.003c6.087,6.608,16.532,6.654,22.66-0.003c1.631-1.771,9.411-10.221,20.881-22.678
	C270.976,403.519,224.843,353.417,184.473,309.571z"/>
<path d="M218.598,469.128c20.357,21.761,54.932,21.565,75.055-0.292l26.28-28.541c2.806-3.047,2.609-7.792-0.438-10.598
	s-7.792-2.61-10.598,0.438l-26.28,28.541c-14.262,15.494-38.724,15.533-53.017,0.258c-0.093-0.101-0.388-0.423-0.296-0.322
	c-0.104-0.121-171.803-186.588-179.15-194.566C2.482,212.271,4.458,134.687,49.006,85.174c7.011-4.013,3.433-14.204-3.875-14.282
	c-1.869-0.064-4.042,0.744-5.571,2.388c-52.019,55.858-53.32,143.498-0.44,200.928C39.249,274.348,218.724,469.265,218.598,469.128z
	"/>
<path d="M150.507,70.015c53.392,1.667,80.064,40.151,83.238,42.582c11.965,12.997,32.525,12.996,44.494,0.001
	c3.461-2.651,29.62-40.909,83.242-42.583c23.003-0.74,44.917,5.749,63.263,18.74c3.379,2.393,8.062,1.593,10.455-1.787
	c2.393-3.38,1.594-8.061-1.787-10.455c-21.032-14.894-46.058-22.337-72.403-21.49c-60.507,1.889-90.403,44.827-93.804,47.414
	c-6.032,6.549-16.393,6.551-22.425-0.001c-3.405-2.59-33.272-45.523-93.801-47.413C45.719,51.643-11.773,177.166,59.933,255.043
	C192.878,399.426,239.045,449.559,239.13,449.659c0.247,0.176,6.037,7.402,16.86,7.402c6.478,0,12.462-2.624,16.85-7.39
	l179.211-194.63c39.723-43.142,41.64-107.294,8.119-152.35c-2.474-3.323-7.171-4.013-10.494-1.541
	c-3.323,2.473-4.014,7.171-1.541,10.494c12.726,17.104,19.813,37.51,20.499,59.009c0.877,27.571-8.932,53.932-27.618,74.226
	L261.805,439.512c-2.93,3.182-8.137,3.668-11.692-0.07L70.968,244.883C8.468,177.003,58.113,67.169,150.507,70.015z"/>
<path d="M466.43,67.185C406.57,9.819,311.889,14.848,255.991,72.9C207.198,22.227,127.684,11.286,67.836,49.635
	c-3.488,2.234-4.504,6.873-2.269,10.36c2.234,3.489,6.876,4.502,10.36,2.269c54.327-34.811,127.4-24.468,171.279,23.187l3.266,3.547
	c2.97,3.225,8.065,3.225,11.035,0c1.419-1.043,35.257-45.269,99.085-47.263c117.036-3.727,180.85,135.842,101.235,222.311
	L332.723,404.261c-2.806,3.047-2.609,7.792,0.438,10.598c3.039,2.798,7.784,2.618,10.598-0.438l129.107-140.215
	C527.888,214.445,524.116,122.47,466.43,67.185z"/>
<g>
</g>
<g>
</g>
<g>
</g>
<g>
</g>
<g>
</g>
<g>
</g>
<g>
</g>
<g>
</g>
<g>
</g>
<g>
</g>
<g>
</g>
<g>
</g>
<g>
</g>
<g>
</g>
<g>
</g>
</svg>
