<?xml version="1.0" encoding="iso-8859-1"?>
<!-- Generator: Adobe Illustrator 19.0.0, SVG Export Plug-In . SVG Version: 6.00 Build 0)  -->
<svg version="1.1" id="Capa_1" xmlns="http://www.w3.org/2000/svg" xmlns:xlink="http://www.w3.org/1999/xlink" x="0px" y="0px"
	 viewBox="0 0 512.001 512.001" style="enable-background:new 0 0 512.001 512.001;" xml:space="preserve">
<path style="fill:#FC8B75;" d="M224.096,463.993L224.096,463.993C212.232,451.11,56.734,282.232,44.667,269.126
	c-51.72-56.171-49.202-143.51,6.105-196.515c57.79-55.387,149.456-49.264,201.973,7.77l3.266,3.547l3.267-3.548
	c52.525-57.045,144.189-63.147,201.97-7.769l0,0c54.9,52.615,58.202,139.934,6.106,196.515
	c-4.662,5.063-57.994,62.984-105.327,114.39l-73.873,80.229C270.991,482.383,241.487,482.584,224.096,463.993z"/>
<path style="fill:#EA7363;" d="M247.095,445.993L247.095,445.993C235.231,433.111,79.733,264.232,67.666,251.127
	c-51.568-56.007-49.21-142.995,5.626-196.045c-7.921,4.944-15.473,10.776-22.52,17.528c-55.307,53.006-57.825,140.345-6.105,196.516
	c12.067,13.105,167.566,181.984,179.428,194.868l0.001-0.001c17.391,18.591,46.895,18.389,64.056-0.248l6.127-6.654
	C278.346,463.009,259.593,459.354,247.095,445.993z"/>
<path style="fill:#ED694A;" d="M244.68,444.585c6.087,6.608,16.531,6.654,22.659-0.003c8.206-8.912,171.984-186.782,179.2-194.619
	c41.542-45.119,39.039-114.846-4.869-156.927l0,0c-46.251-44.324-119.722-38.957-161.583,6.508l-7.35,7.982
	c-9.001,9.774-24.459,9.772-33.458-0.001c-3.377-2.577-31.463-43.213-88.516-44.995C50.532,59.359-0.575,178.222,65.479,249.964
	l69.307,75.271c48.587,52.768,105.527,114.608,109.859,119.311c0.011,0.012,0.022,0.024,0.033,0.036l0,0L244.68,444.585z"/>
<path style="fill:#D8553A;" d="M184.784,309.569l-69.307-75.271C64.99,179.463,82.952,97.104,138.978,62.745
	C46.637,68.82,2.069,181.094,65.479,249.964l69.307,75.271c48.587,52.769,105.527,114.608,109.859,119.311
	c0.011,0.012,0.022,0.024,0.033,0.036l0.002,0.003c6.087,6.608,16.531,6.654,22.659-0.003c1.631-1.771,9.411-10.221,20.88-22.677
	C271.284,403.511,225.154,353.412,184.784,309.569z"/>
<path d="M457.994,59.707c-3.201-2.63-7.928-2.165-10.556,1.036c-2.629,3.201-2.165,7.927,1.036,10.556
	c58.894,48.38,65.188,136.458,13.36,192.748l-66.576,72.303c-2.806,3.047-2.609,7.792,0.438,10.598
	c3.039,2.798,7.784,2.618,10.598-0.438l66.576-72.303C530.523,211.589,523.56,113.544,457.994,59.707z"/>
<path d="M256.01,72.909C205.273,20.218,121.456,10.557,61.053,54.295c-3.355,2.429-4.105,7.118-1.676,10.473
	c2.43,3.355,7.118,4.106,10.473,1.676c54.947-39.785,131.924-30.348,177.377,19.017c2.382,2.126,4.031,5.967,8.783,5.967
	c4.728,0,6.506-3.935,8.784-5.968c38.873-42.215,102.126-56.123,155.112-31.981c3.768,1.718,8.218,0.054,9.935-3.716
	c1.717-3.769,0.054-8.217-3.716-9.935C368.247,13.46,299.431,27.816,256.01,72.909z"/>
<path d="M59.962,255.044c1.115,1.211,177.358,192.619,179.202,194.623c9.053,9.824,24.58,9.893,33.693-0.005
	c9.028-9.804,171.642-186.409,179.2-194.619c44.063-47.856,41.917-122.266-5.197-167.422
	c-49.144-47.094-127.428-41.881-172.29,6.843c-5.323,4.796-8.824,12.898-18.562,12.898c-9.766,0-13.04-7.923-18.56-12.897
	c-22.131-24.035-53.642-38.407-86.447-39.432c-32.373-1.039-62.85,10.549-85.845,32.588c-22.709,21.765-35.769,51.086-36.77,82.562
	C27.384,201.702,38.598,231.84,59.962,255.044z M150.532,70.025c28.807,0.899,56.466,13.511,75.885,34.601
	c4.452,3.731,11.823,17.735,29.594,17.735c17.834,0,25.083-13.955,29.597-17.737c39.516-42.918,108.156-47.114,150.876-6.173
	c41.001,39.296,43.279,104.359,4.541,146.433l0.001-0.001c-189.199,204.129-178.443,197.17-185.015,197.17
	c-2.252,0-4.215-0.834-5.876-2.618L70.998,244.884C8.866,177.405,57.781,67.159,150.532,70.025z"/>
<path d="M293.669,468.825l88.919-96.567c2.807-3.047,2.611-7.792-0.436-10.598c-3.047-2.809-7.792-2.61-10.598,0.436l-88.921,96.569
	c-13.072,14.199-36.745,17.018-53.574-0.354L50.185,264.046C4.824,214.783,3.37,139.93,45.601,89.153
	c2.648-3.185,2.214-7.914-0.971-10.563c-3.185-2.646-7.913-2.213-10.563,0.971c-46.932,56.433-45.498,139.713,5.083,194.645
	l178.759,194.142C239.375,491.692,274.039,490.147,293.669,468.825z"/>
<g>
</g>
<g>
</g>
<g>
</g>
<g>
</g>
<g>
</g>
<g>
</g>
<g>
</g>
<g>
</g>
<g>
</g>
<g>
</g>
<g>
</g>
<g>
</g>
<g>
</g>
<g>
</g>
<g>
</g>
</svg>
