<?xml version="1.0" encoding="iso-8859-1"?>
<!-- Generator: Adobe Illustrator 19.0.0, SVG Export Plug-In . SVG Version: 6.00 Build 0)  -->
<svg version="1.1" id="Capa_1" xmlns="http://www.w3.org/2000/svg" xmlns:xlink="http://www.w3.org/1999/xlink" x="0px" y="0px"
	 viewBox="0 0 512 512" style="enable-background:new 0 0 512 512;" xml:space="preserve">
<path style="fill:#9CD7F2;" d="M222.214,463.669L222.214,463.669C210.448,450.708,56.221,280.8,44.253,267.616
	C-7.044,211.102-3.907,123.821,51.752,71.234c58.158-54.95,149.739-48.178,201.824,9.203l3.238,3.568l3.29-3.522
	c52.906-56.645,144.572-62.093,201.933-6.329l0,0c54.501,52.981,57.181,140.284,4.706,196.469
	c-4.696,5.027-58.415,62.542-106.093,113.589l-74.41,79.668C268.957,482.384,239.465,482.376,222.214,463.669z"/>
<path style="fill:#71C5DB;" d="M246.681,445.91L246.681,445.91C234.822,433.033,79.391,264.227,67.33,251.127
	c-51.546-55.983-49.189-142.933,5.623-195.96c-7.917,4.942-15.467,10.771-22.51,17.521c-55.283,52.982-57.8,140.283-6.102,196.431
	c12.061,13.1,167.493,181.906,179.351,194.784l0.001-0.001c17.384,18.583,46.875,18.381,64.028-0.248l6.124-6.651
	C277.919,462.917,259.174,459.264,246.681,445.91z"/>
<path style="fill:#57ADDD;" d="M244.268,444.501c6.084,6.605,16.524,6.651,22.649-0.003c8.202-8.908,171.91-186.702,179.123-194.535
	c41.525-45.1,39.022-114.796-4.867-156.859l0,0c-46.231-44.305-119.67-38.94-161.513,6.505l-7.347,7.978
	c-8.997,9.769-24.449,9.767-33.443-0.001c-3.375-2.576-31.449-43.195-88.478-44.976C50.203,59.441-0.881,178.253,65.144,249.964
	l69.278,75.239c48.566,52.745,105.482,114.558,109.812,119.259c0.011,0.012,0.022,0.024,0.033,0.036l0,0L244.268,444.501z"/>
<path style="fill:#399DC9;" d="M184.398,309.544l-69.278-75.239C64.655,179.494,82.61,97.17,138.611,62.825
	c-92.3,6.073-136.849,118.299-73.467,187.138l69.278,75.239c48.566,52.746,105.482,114.558,109.812,119.259
	c0.011,0.012,0.022,0.024,0.033,0.036l0.002,0.003c6.084,6.605,16.524,6.651,22.649-0.003c1.63-1.77,9.407-10.216,20.871-22.667
	C270.859,403.445,224.749,353.367,184.398,309.544z"/>
<path d="M441.041,286.39L282.496,458.575c-6.83,7.419-16.53,11.673-26.615,11.673c-17.008,0-26.422-11.527-26.591-11.645
	c-0.278-0.309-6.738-7.321-20.921-22.723c-2.804-3.047-7.546-3.242-10.593-0.438c-3.046,2.805-3.241,7.547-0.438,10.593
	c0.092,0.1,22.409,24.338,21.167,22.988c20.347,21.751,54.905,21.555,75.019-0.292L452.07,296.545
	c2.805-3.046,2.608-7.788-0.438-10.593C448.587,283.147,443.845,283.345,441.041,286.39z"/>
<path d="M179.152,422.709c6.447,0,9.968-7.735,5.513-12.574L50.146,264.04C-28.566,178.554,33.38,38.112,151.332,41.838
	c36.342,1.135,71.25,17.061,95.771,43.695c2.381,2.125,4.029,5.964,8.779,5.964c4.726,0,6.503-3.933,8.78-5.965
	c24.523-26.633,59.429-42.558,95.771-43.694C475.621,38.17,539.585,173.535,464.65,260.621c-2.7,3.139-2.345,7.871,0.794,10.572
	c3.139,2.701,7.872,2.343,10.572-0.794c83.558-97.108,11.991-247.602-116.052-243.546c-39.244,1.226-76.986,17.995-104.082,46.133
	c-55.863-58.016-150.49-63.065-210.335-5.711c-57.812,55.406-61.283,147.347-6.431,206.921
	C180.162,425.971,172.862,422.709,179.152,422.709z"/>
<path d="M360.848,55.118c-60.478,1.888-90.359,44.805-93.758,47.391c-2.877,3.124-6.962,4.915-11.208,4.915
	c-9.76,0-13.44-8.284-18.552-12.891C197.211,50.961,129.735,41.837,80.458,75.28c-3.425,2.325-4.318,6.987-1.993,10.413
	c2.325,3.425,6.985,4.316,10.413,1.993c43.332-29.41,102.516-20.908,137.423,17.002c4.445,3.724,11.812,17.729,29.582,17.729
	c17.827,0,25.072-13.949,29.584-17.73c19.408-21.079,47.055-33.684,75.854-34.584c93.471-2.997,141.088,107.889,79.497,174.781
	C251.7,448.926,262.451,441.969,255.883,441.969c-6.568,0,4.09,6.849-184.932-197.083c-35.328-38.369-36.333-95.53-5.859-134.828
	c2.537-3.27,1.941-7.98-1.33-10.517c-3.271-2.538-7.979-1.943-10.517,1.33c-34.713,44.761-33.873,110.129,6.678,154.17
	c25.635,27.84-42.545-46.205,179.125,194.538c9.044,9.818,24.566,9.892,33.678-0.004L451.848,255.04
	C522.387,178.428,467.575,51.767,360.848,55.118z"/>
<g>
</g>
<g>
</g>
<g>
</g>
<g>
</g>
<g>
</g>
<g>
</g>
<g>
</g>
<g>
</g>
<g>
</g>
<g>
</g>
<g>
</g>
<g>
</g>
<g>
</g>
<g>
</g>
<g>
</g>
</svg>
