<?xml version="1.0" encoding="iso-8859-1"?>
<!-- Generator: Adobe Illustrator 19.0.0, SVG Export Plug-In . SVG Version: 6.00 Build 0)  -->
<svg version="1.1" id="Capa_1" xmlns="http://www.w3.org/2000/svg" xmlns:xlink="http://www.w3.org/1999/xlink" x="0px" y="0px"
	 viewBox="0 0 512.001 512.001" style="enable-background:new 0 0 512.001 512.001;" xml:space="preserve">
<path style="fill:#F96989;" d="M463.185,72.379c-54.264-52.005-141.818-47.723-192.73,7.569l-7.792,8.462
	c-3.609,3.92-9.798,3.92-13.409,0l-7.792-8.462c-50.911-55.292-138.466-59.574-192.73-7.569
	c-52.501,50.315-55.301,133.627-5.817,187.368c6.451,7.006,181.477,197.093,189.997,206.345
	c12.409,13.476,33.684,13.476,46.093-0.001c8.859-9.622,181.199-196.79,189.996-206.344
	C518.485,206.006,515.686,122.696,463.185,72.379z"/>
<path style="fill:#ED5A81;" d="M282.907,445.062c0.333,0.361,0.313,0.341-0.002-0.002c-8.52-9.253-183.545-199.339-189.997-206.345
	c-49.482-53.743-46.683-137.053,5.817-187.369c5.046-4.836,10.381-9.184,15.947-13.05C14.085,57.83-28.384,182.312,42.916,259.749
	c6.451,7.006,181.477,197.093,189.997,206.345c12.409,13.476,33.684,13.476,46.093-0.001c1.277-1.387,5.955-6.468,13.046-14.168
	C288.707,450.27,285.599,447.984,282.907,445.062z"/>
<path style="fill:#F4A32C;" d="M223.524,360.089c-42.646-9.121-76.093-42.569-85.214-85.214c-0.562-2.627-4.327-2.626-4.889,0
	c-9.12,42.645-42.568,76.092-85.213,85.214c-1.153,0.246-1.977,1.265-1.977,2.444s0.824,2.198,1.977,2.444
	c42.646,9.121,76.093,42.569,85.213,85.214c0.247,1.153,1.266,1.978,2.445,1.978s2.198-0.824,2.445-1.978
	c9.12-42.645,42.568-76.092,85.214-85.214C226.15,364.416,226.149,360.648,223.524,360.089z"/>
<path style="fill:#E89528;" d="M91.392,340.445c-12.582,9.421-27.24,16.234-43.184,19.644c-1.153,0.246-1.977,1.265-1.977,2.444
	s0.824,2.198,1.977,2.444c42.646,9.121,76.093,42.569,85.213,85.214c0.247,1.153,1.266,1.978,2.445,1.978s2.198-0.824,2.445-1.978
	c3.347-15.655,9.984-30.062,19.141-42.491C146.535,376.599,122.238,351.89,91.392,340.445z"/>
<path style="fill:#F4D44E;" d="M406.322,179.621c-20.755-7.783-37.122-24.149-44.904-44.904c-0.366-0.976-1.299-1.622-2.341-1.622
	s-1.975,0.646-2.341,1.622c-7.782,20.755-24.148,37.121-44.904,44.904c-2.158,0.81-2.157,3.871,0,4.681
	c20.755,7.782,37.121,24.148,44.904,44.903c0.809,2.158,3.872,2.158,4.681,0c7.783-20.756,24.149-37.121,44.904-44.903
	c0.976-0.366,1.623-1.299,1.623-2.341C407.945,180.92,407.298,179.987,406.322,179.621z"/>
<path style="fill:#E8C842;" d="M336.523,164.525c-7.121,6.478-15.468,11.637-24.689,15.096c-2.158,0.81-2.157,3.871,0,4.681
	c20.755,7.782,37.121,24.148,44.904,44.903c0.809,2.158,3.872,2.157,4.681,0c3.456-9.218,8.613-17.561,15.087-24.68
	C368.758,186.583,354.46,172.279,336.523,164.525z"/>
<path d="M440.591,181.961c0-4.142-3.356-7.499-7.499-7.499c-36.691,0-66.543-29.85-66.543-66.544c0-4.142-3.357-7.499-7.499-7.499
	s-7.499,3.356-7.499,7.499c0,36.692-29.85,66.544-66.544,66.544c-4.142,0-7.499,3.356-7.499,7.499c0,4.142,3.356,7.499,7.499,7.499
	c36.692,0,66.544,29.85,66.544,66.543c0,4.142,3.356,7.499,7.499,7.499s7.499-3.356,7.499-7.499
	c0-36.691,29.85-66.543,66.543-66.543C437.234,189.46,440.591,186.103,440.591,181.961z M359.051,221.856
	c-8.132-17.563-22.331-31.763-39.894-39.894c17.563-8.132,31.763-22.331,39.894-39.894c8.132,17.563,22.331,31.763,39.894,39.894
	C381.381,190.092,367.182,204.291,359.051,221.856z"/>
<path d="M155.091,212.46c0.271,0.409,0.59,0.79,0.93,1.14c6.284,6.267,16.537-1.888,11.538-9.469c-0.27-0.41-0.58-0.79-0.93-1.13
	c-0.35-0.351-0.73-0.67-1.14-0.94s-0.841-0.5-1.29-0.69c-0.46-0.189-0.931-0.329-1.41-0.43c-0.96-0.189-1.96-0.189-2.93,0
	c-0.48,0.101-0.95,0.24-1.4,0.43c-0.45,0.19-0.89,0.421-1.3,0.69c-0.41,0.271-0.79,0.59-1.141,0.94c-0.34,0.34-0.659,0.72-0.93,1.13
	c-0.27,0.41-0.5,0.84-0.69,1.3c-0.189,0.45-0.329,0.92-0.43,1.4c-0.09,0.479-0.14,0.979-0.14,1.47s0.05,0.979,0.14,1.46
	c0.101,0.479,0.24,0.95,0.43,1.41C154.591,211.62,154.821,212.05,155.091,212.46z"/>
<path d="M206.32,230.794c-4.142,0-7.499,3.356-7.499,7.499v8.499h-8.499c-4.142,0-7.499,3.356-7.499,7.499
	c0,4.142,3.356,7.499,7.499,7.499h8.499v8.499c0,4.142,3.356,7.499,7.499,7.499c4.142,0,7.499-3.356,7.499-7.499v-8.499h8.499
	c4.142,0,7.499-3.356,7.499-7.499c0-4.142-3.356-7.499-7.499-7.499h-8.499v-8.499C213.819,234.152,210.462,230.794,206.32,230.794z"
	/>
<path d="M366.813,28.377c-70.602,2.207-106.437,52.489-109.695,54.956c-0.636,0.689-1.729,0.7-2.375-0.001
	c-4.156-3.271-34.881-48.023-100.243-54.346c-35.459-3.425-70.359,6.225-98.264,27.185c-3.312,2.488-3.979,7.188-1.493,10.499
	c2.487,3.313,7.188,3.978,10.499,1.493c51.29-38.526,125.892-31.774,170.675,16.864c5.825,5.233,9.413,13.823,20.015,13.821
	c4.63,0,9.084-1.954,12.219-5.359c3.63-2.762,35.172-48.124,99.131-50.123c111.5-3.465,171.735,129.24,96.174,211.302
	l-23.944,26.006c-4.456,4.839-0.935,12.578,5.515,12.578c2.023,0,4.04-0.813,5.519-2.42l23.944-26.006
	C558.606,173.474,491.943,24.465,366.813,28.377z"/>
<path d="M284.494,471.173l142.342-154.589c2.806-3.047,2.609-7.791-0.438-10.596c-3.047-2.805-7.791-2.608-10.596,0.438
	l-142.34,154.588c-4.564,4.958-10.79,7.688-17.53,7.688c-12.884,0-19.098-9.681-17.536-7.695
	c-11.799-12.814-54.78-59.493-59.975-65.135c18.226-16.073,42.138-25.84,68.291-25.84c4.142,0,7.499-3.356,7.499-7.499
	c0-4.142-3.356-7.499-7.499-7.499c-21.661,0-42.398-6.627-59.97-19.165c-3.373-2.405-8.055-1.62-10.46,1.749
	c-2.405,3.371-1.623,8.055,1.749,10.46c8.473,6.045,17.585,10.89,27.148,14.476c-31.937,12.003-57.351,37.428-69.34,69.373
	c-11.995-31.963-37.431-57.398-69.393-69.393c31.941-11.987,57.365-37.399,69.37-69.332c3.797,10.121,9.009,19.737,15.564,28.63
	c2.459,3.335,7.155,4.044,10.485,1.587c3.333-2.458,4.044-7.152,1.587-10.485c-13.159-17.85-20.114-39.036-20.114-61.27
	c0-4.142-3.356-7.499-7.499-7.499c-4.142,0-7.499,3.356-7.499,7.499c0,24.584-8.632,47.187-23.016,64.949
	c-39.124-42.504-51.965-56.563-56.918-61.941C6.005,208.621,4.204,139.334,41.63,91.375c2.548-3.266,1.967-7.978-1.299-10.525
	c-3.267-2.547-7.978-1.966-10.525,1.299c-41.994,53.816-39.74,131.305,7.565,182.68c4.499,4.885,22.432,24.477,57.669,62.756
	c-18.435,17.028-43.058,27.45-70.074,27.45c-4.142,0-7.499,3.356-7.499,7.499c0,4.142,3.356,7.499,7.499,7.499
	c57,0,103.373,46.373,103.373,103.373c0,4.142,3.356,7.499,7.499,7.499c4.142,0,7.499-3.356,7.499-7.499
	c0-25.453,9.253-48.784,24.564-66.815c36.918,40.094,60.978,66.227,59.694,64.83l0.004-0.003
	C244.44,488.74,270.017,486.894,284.494,471.173z"/>
<g>
</g>
<g>
</g>
<g>
</g>
<g>
</g>
<g>
</g>
<g>
</g>
<g>
</g>
<g>
</g>
<g>
</g>
<g>
</g>
<g>
</g>
<g>
</g>
<g>
</g>
<g>
</g>
<g>
</g>
</svg>
