<?xml version="1.0" encoding="iso-8859-1"?>
<!-- Generator: Adobe Illustrator 19.0.0, SVG Export Plug-In . SVG Version: 6.00 Build 0)  -->
<svg version="1.1" id="Capa_1" xmlns="http://www.w3.org/2000/svg" xmlns:xlink="http://www.w3.org/1999/xlink" x="0px" y="0px"
	 viewBox="0 0 512 512" style="enable-background:new 0 0 512 512;" xml:space="preserve">
<path style="fill:#F9B2C8;" d="M186.995,453.128L51.36,305.823C21.74,273.656,6.195,231.873,7.586,188.17
	C11.552,63.512,146.48-12.283,255.989,50.024c107.533-61.179,244.37,11.538,248.404,138.146
	c1.393,43.702-14.154,85.487-43.776,117.656L323.618,454.611C288.737,492.501,226.466,496.295,186.995,453.128z"/>
<path style="fill:#F99DB6;" d="M224.289,424.475L88.692,277.137c-29.612-32.176-45.147-73.962-43.745-117.664
	c1.416-44.164,19.28-82.178,46.614-110.101C44.004,76.2,9.594,126.109,7.606,188.131c-1.403,43.702,14.133,85.489,43.745,117.664
	l135.598,147.338c39.462,43.177,101.733,39.398,136.624,1.516l5.967-6.478C295.605,462.72,253.64,456.587,224.289,424.475z"/>
<path style="fill:#F96989;" d="M85.368,274.512c131.672,142.994,5.491,5.962,137.179,148.979
	c18.03,19.369,48.96,19.472,67.064-0.191l137-148.787c21.368-23.206,32.582-53.347,31.578-84.872
	C455.114,93.086,346.61,42.236,269.224,96.285c-7.95,5.555-18.52,5.553-26.471,0c-19.505-13.624-42.386-21.217-66.168-21.961
	C70.298,70.931,14.47,197.512,85.368,274.512z"/>
<g>
	<path style="fill:#ED5A81;" d="M261.88,397.49c-131.688-143.017-5.506-5.985-137.179-148.979
		c-46.943-50.984-38.315-123.693,3.72-166.029c-73.092,28.913-102.246,127.743-43.055,192.03
		c131.672,142.994,5.491,5.962,137.179,148.979c18.031,19.369,48.96,19.472,67.064-0.191l10.62-11.534
		C286.423,413.239,272.086,408.454,261.88,397.49z"/>
	<path style="fill:#ED5A81;" d="M119.376,243.199c4.71,5.115,95.442,103.655,126.696,137.599c5.341,5.801,14.495,5.797,19.836-0.004
		l126.692-137.595c43.158-46.873,9.993-124.692-55.768-122.67c-20.272,0.634-39.731,9.504-53.388,24.335
		c-3.159,2.582-10.527,15.679-27.457,15.679c-0.224-0.048-12.45,0.617-21.837-9.577c-2.606-2.005-21.066-29.251-59.006-30.438
		C109.095,118.492,76.356,196.473,119.376,243.199z"/>
</g>
<path style="fill:#DD4A78;" d="M284.073,353.797c-31.255-33.944-121.986-132.484-126.696-137.599
	c-25.501-27.698-24.379-66.375-5.483-92.862c-49.834,14.274-70.128,79.012-32.518,119.862
	c4.71,5.115,95.442,103.655,126.696,137.599c5.341,5.801,14.495,5.797,19.836-0.004l22.137-24.042
	C286.595,356.038,285.24,355.065,284.073,353.797z"/>
<path d="M118.954,156.222c2.344-3.416,1.476-8.084-1.939-10.428c-3.419-2.347-8.086-1.476-10.428,1.939
	c-20.759,30.252-18.924,72.091,7.271,100.547l126.697,137.599c8.302,9.017,22.565,9.017,30.872-0.005l126.691-137.594
	c47.554-51.647,11.037-137.531-61.52-135.247c-41.194,1.288-61.924,31.043-64.288,32.853c-8.781,9.534-23.86,9.539-32.643,0.002
	l-5.618-6.102c-25.105-27.264-66.124-34.715-98.616-17.736c-3.671,1.919-5.092,6.45-3.174,10.121
	c1.919,3.673,6.451,5.089,10.121,3.174c9.933-5.19,20.858-7.666,32.529-7.318c34.562,1.081,51.114,26.002,53.723,28.022
	c14.717,15.982,39.994,15.98,54.712-0.001c2.631-2.037,19.17-26.941,53.719-28.022c59.065-1.787,88.734,68.047,50.02,110.094
	C253.69,381.949,260.971,377.647,255.987,377.647c-1.69,0-3.252-0.686-4.397-1.929L124.893,238.119
	C103.274,214.636,102.307,180.48,118.954,156.222z"/>
<path d="M476.736,88.619c-2.51-3.295-7.216-3.936-10.511-1.423c-3.295,2.509-3.933,7.215-1.423,10.511
	c45.476,59.722,43.265,145.515-9.702,203.038L318.101,449.531c-33.282,36.152-91.029,36.598-124.663-0.481
	C193.3,448.898,59.63,303.733,56.878,300.744c-57.982-62.97-55.84-161.514,6.897-221.641
	c52.187-50.003,129.399-56.189,188.504-22.56c2.299,1.309,5.119,1.309,7.418,0c57.725-32.841,131.074-27.156,182.166,16.811
	c3.139,2.704,7.875,2.347,10.576-0.793c2.702-3.14,2.347-7.875-0.792-10.576c-55.445-47.713-133.74-53.776-195.659-20.53
	C141.157-20.206,4.162,59.948,0.09,187.932c-1.455,45.678,14.794,89.351,45.753,122.972c0.467,0.507,134.995,146.614,137.37,149.188
	c39.384,42.308,106.685,42.221,145.924-0.4l136.999-148.785C524.239,247.804,526.424,153.874,476.736,88.619z"/>
<path d="M376.235,340.294l55.893-60.701c22.706-24.66,34.624-56.69,33.557-90.191C462.46,88.162,348.297,31.907,264.928,90.138
	c-5.347,3.735-12.532,3.735-17.879-0.001C197.636,55.625,129.681,59.199,85.383,101.65C35.765,149.2,32.588,228.261,79.849,279.592
	c0.923,1.002,135.33,146.966,137.207,149.009c20.991,22.547,56.991,22.674,78.072-0.221l57.261-62.188
	c2.806-3.047,2.609-7.792-0.438-10.598s-7.792-2.608-10.598,0.438l-57.261,62.188c-14.085,15.296-39.509,17.761-56.795-0.646
	L90.884,269.431c-20.026-21.751-30.539-50.003-29.599-79.553c2.85-89.52,103.729-138.741,177.172-87.445
	c10.486,7.326,24.577,7.326,35.061,0c18.31-12.788,39.782-19.916,62.092-20.613c100.096-3.04,151.712,115.681,85.481,187.612
	l-55.893,60.701c-2.806,3.047-2.609,7.792,0.438,10.598C368.685,343.537,373.429,343.343,376.235,340.294z"/>
<g>
</g>
<g>
</g>
<g>
</g>
<g>
</g>
<g>
</g>
<g>
</g>
<g>
</g>
<g>
</g>
<g>
</g>
<g>
</g>
<g>
</g>
<g>
</g>
<g>
</g>
<g>
</g>
<g>
</g>
</svg>
