<?xml version="1.0" encoding="iso-8859-1"?>
<!-- Generator: Adobe Illustrator 19.0.0, SVG Export Plug-In . SVG Version: 6.00 Build 0)  -->
<svg version="1.1" id="Capa_1" xmlns="http://www.w3.org/2000/svg" xmlns:xlink="http://www.w3.org/1999/xlink" x="0px" y="0px"
	 viewBox="0 0 511.999 511.999" style="enable-background:new 0 0 511.999 511.999;" xml:space="preserve">
<path style="fill:#F96989;" d="M336.927,212.558c-39.23-37.597-102.526-34.5-139.332,5.472l-5.632,6.117
	c-2.61,2.834-7.084,2.834-9.693,0l-5.633-6.117c-36.806-39.973-100.103-43.069-139.332-5.472
	c-37.956,36.376-39.98,96.604-4.206,135.457c5.83,6.332,143.16,155.478,137.356,149.174c8.971,9.743,24.352,9.743,33.323,0
	c6.404-6.955,130.996-142.268,137.356-149.174C376.907,309.161,374.883,248.933,336.927,212.558z"/>
<path style="fill:#ED5A81;" d="M83.101,335.014c-35.773-38.853-33.749-99.081,4.205-135.457c5.501-5.272,11.476-9.744,17.786-13.427
	c-24.413-0.346-48.892,8.318-67.788,26.427c-37.955,36.376-39.979,96.604-4.205,135.457c5.589,6.07,132.024,143.385,137.356,149.175
	c8.971,9.742,24.352,9.742,33.322,0c1.191-1.294,6.476-7.034,14.325-15.558C199.801,461.755,88.341,340.704,83.101,335.014z"/>
<path style="fill:#F96989;" d="M487.383,22.688c-22.525-21.587-58.868-19.81-80.001,3.142l-3.234,3.512
	c-1.498,1.627-4.067,1.627-5.566,0l-3.234-3.512c-21.133-22.951-57.476-24.729-80.001-3.142
	c-21.793,20.886-22.955,55.467-2.415,77.775c3.348,3.636,82.199,89.272,78.866,85.653c5.151,5.594,13.983,5.594,19.133,0
	c3.677-3.994,75.215-81.686,78.866-85.653C510.338,78.156,509.175,43.574,487.383,22.688z"/>
<path style="fill:#ED5A81;" d="M362.933,91.13c-20.54-22.308-19.378-56.889,2.415-77.775c1.325-1.269,2.701-2.451,4.115-3.559
	c-18.511-5.393-39.303-1.305-54.117,12.894c-21.793,20.886-22.955,55.467-2.415,77.775c3.348,3.635,82.199,89.272,78.866,85.653
	c5.151,5.594,13.983,5.594,19.134,0c1.169-1.27,9.203-9.996,19.732-21.43C409.455,141.655,365.418,93.828,362.933,91.13z"/>
<path d="M386.375,191.302L386.375,191.302c8.138,8.714,21.996,8.667,30.072-0.104l78.866-85.653
	c23.412-25.428,21.902-64.65-2.742-88.272c-26.048-24.966-67.22-22.033-90.709,3.477l-0.499,0.542l-0.499-0.542
	C389.241,8.125,372.696,0.576,355.474,0.038c-55.638-1.741-85.768,64.553-48.06,105.507l44.834,48.691
	c2.807,3.048,7.55,3.244,10.598,0.438c3.047-2.806,3.243-7.551,0.438-10.598L318.45,95.384
	c-17.606-19.122-16.671-49.304,2.087-67.28c19.719-18.898,51.227-16.812,69.293,2.806c2.018,1.72,4.75,7.154,11.537,7.154
	c6.754-0.002,9.584-5.492,11.533-7.153c18.062-19.616,49.574-21.708,69.294-2.807c18.757,17.977,19.692,48.158,2.086,67.28
	c-82.186,88.32-78.34,87.429-82.914,87.429c-3.373,0-3.981-1.701-14.307-12.916c-2.806-3.048-7.549-3.244-10.598-0.438
	c-3.047,2.806-3.243,7.551-0.438,10.598C376.549,180.629,384.813,189.606,386.375,191.302z"/>
<path d="M267.215,178.667c-51.845,1.62-77.915,38.03-80.099,39.671c-2.158-1.622-28.23-38.05-80.097-39.67
	C48.016,176.782,1.841,223.032,0.057,279.117c-1.62,50.867,32.057,77.782,34.591,81.651c2.806,3.048,7.55,3.244,10.598,0.438
	c3.047-2.806,3.243-7.55,0.438-10.598l-7.067-7.675C-14.91,284.797,27.94,191.244,106.552,193.66
	c45.286,1.415,67.579,33.569,70.2,35.565c2.66,2.889,6.438,4.545,10.364,4.545c8.797,0,12.112-7.229,15.998-10.662
	c16.527-17.949,40.063-28.683,64.569-29.448c79.404-2.451,120.734,91.924,67.934,149.272c-3.878,4.211-51.73,56.18-89.93,97.667
	c-2.806,3.047-2.609,7.792,0.438,10.598c3.039,2.798,7.784,2.618,10.598-0.438c38.2-41.487,86.049-93.454,89.929-97.666
	c18.624-20.228,28.398-46.499,27.524-73.977C372.388,223.012,326.277,176.853,267.215,178.667z"/>
<path d="M165.123,502.471L165.123,502.471c12.595,13.119,32.627,12.336,44.172-0.203l23.718-25.758
	c2.806-3.047,2.61-7.791-0.438-10.598c-3.047-2.806-7.792-2.611-10.598,0.438l-23.718,25.758c-2.901,3.151-6.858,4.887-11.143,4.887
	c-7.308,0-11.031-4.809-11.15-4.894l-0.005-0.005l0,0L69.458,376.429c-2.807-3.048-7.55-3.244-10.598-0.438
	c-3.047,2.806-3.243,7.551-0.438,10.598C64.421,393.105,159.072,495.899,165.123,502.471z"/>
<g>
</g>
<g>
</g>
<g>
</g>
<g>
</g>
<g>
</g>
<g>
</g>
<g>
</g>
<g>
</g>
<g>
</g>
<g>
</g>
<g>
</g>
<g>
</g>
<g>
</g>
<g>
</g>
<g>
</g>
</svg>
