<?xml version="1.0" encoding="iso-8859-1"?>
<!-- Generator: Adobe Illustrator 19.0.0, SVG Export Plug-In . SVG Version: 6.00 Build 0)  -->
<svg version="1.1" id="Capa_1" xmlns="http://www.w3.org/2000/svg" xmlns:xlink="http://www.w3.org/1999/xlink" x="0px" y="0px"
	 viewBox="0 0 512 512" style="enable-background:new 0 0 512 512;" xml:space="preserve">
<path style="fill:#F96989;" d="M379.039,198.453c-32.219-30.192-84.204-27.706-114.432,4.394l-4.626,4.912
	c-2.143,2.276-5.818,2.276-7.961,0l-4.626-4.912c-30.228-32.1-82.213-34.586-114.432-4.394
	c-31.172,29.211-32.834,77.577-3.454,108.777c4.788,5.085,117.576,124.856,112.809,119.793c7.368,7.824,20,7.824,27.368,0
	c5.26-5.585,107.586-114.247,112.809-119.793C411.873,276.03,410.211,227.664,379.039,198.453z"/>
<path style="fill:#ED5A81;" d="M180.647,296.896c-29.381-31.2-27.718-79.566,3.454-108.777c4.254-3.986,8.861-7.387,13.709-10.242
	c-22.971-2.863-46.957,3.809-64.848,20.575c-31.172,29.211-32.834,77.577-3.454,108.777c4.596,4.88,108.663,115.391,112.809,119.793
	c7.368,7.823,20,7.823,27.368,0c1.213-1.288,7.595-8.065,16.751-17.788C262.209,383.508,184.601,301.095,180.647,296.896z"/>
<path d="M389.53,161.921c17.732,0,32.158,14.426,32.158,32.158c0,4.143,3.357,7.5,7.5,7.5c4.143,0,7.5-3.357,7.5-7.5
	c0-26.004-21.155-47.159-47.159-47.159c-4.143,0-7.5,3.357-7.5,7.5S385.386,161.921,389.53,161.921z"/>
<path d="M389.53,123.065c39.157,0,71.015,31.857,71.015,71.015c0,4.143,3.357,7.5,7.5,7.5s7.5-3.357,7.5-7.5
	c0-47.43-38.586-86.016-86.016-86.016c-4.143,0-7.5,3.357-7.5,7.5S385.386,123.065,389.53,123.065z"/>
<path d="M389.53,71.61c-4.143,0-7.5,3.357-7.5,7.5s3.357,7.5,7.5,7.5c59.259,0,107.469,48.211,107.469,107.469
	c0,4.143,3.357,7.5,7.5,7.5s7.5-3.357,7.5-7.5C512,126.549,457.06,71.61,389.53,71.61z"/>
<path d="M82.813,201.58c4.143,0,7.5-3.357,7.5-7.5c0-17.732,14.426-32.158,32.158-32.158c4.143,0,7.5-3.357,7.5-7.5
	s-3.357-7.5-7.5-7.5c-26.004,0-47.159,21.155-47.159,47.159C75.313,198.222,78.67,201.58,82.813,201.58z"/>
<path d="M129.972,115.564c0-4.143-3.357-7.5-7.5-7.5c-47.43,0-86.017,38.586-86.017,86.016c0,4.143,3.357,7.5,7.5,7.5
	s7.5-3.357,7.5-7.5c0-39.157,31.857-71.015,71.016-71.015C126.614,123.065,129.972,119.706,129.972,115.564z"/>
<path d="M7.5,201.58c4.143,0,7.5-3.357,7.5-7.5c0-59.259,48.211-107.469,107.471-107.469c4.143,0,7.5-3.357,7.5-7.5
	s-3.357-7.5-7.5-7.5C54.941,71.61,0,126.549,0,194.08C0,198.222,3.357,201.58,7.5,201.58z"/>
<path d="M371.763,304.759c-2.806,3.047-2.609,7.792,0.438,10.599c3.039,2.798,7.784,2.618,10.599-0.438l2.401-2.608
	c27.789-30.181,30.147-75.907,5.604-108.727c-2.481-3.316-7.18-3.995-10.499-1.516c-3.317,2.48-3.996,7.181-1.516,10.499
	c20.219,27.039,18.272,64.713-4.623,89.579L371.763,304.759z"/>
<path d="M348.012,330.551l-84.151,91.392c-4.241,4.605-11.486,4.602-15.726-0.002l-16.739-18.18
	c-2.807-3.048-7.55-3.244-10.599-0.438c-3.047,2.806-3.243,7.551-0.438,10.599c12.422,13.491,2.369,2.574,16.861,18.312l0.001-0.001
	c10.786,11.317,27.916,10.471,37.674-0.129l84.151-91.392c2.806-3.047,2.609-7.792-0.438-10.599
	C355.562,327.307,350.818,327.505,348.012,330.551z"/>
<path d="M364.557,188.802c1.86-3.701,0.368-8.209-3.333-10.07c-34.133-17.156-76.211-9.328-102.327,19.035L256,200.913l-2.897-3.147
	c-32.063-34.822-87.74-38.131-122.596-4.728c-33.324,31.937-35.324,84.933-3.705,119.272l69.844,75.856
	c2.796,3.038,7.542,3.251,10.599,0.438c3.047-2.806,3.243-7.551,0.438-10.599l-69.844-75.856
	c-41.441-45.007-9.211-119.397,53.419-117.394c19.286,0.603,37.806,9.048,50.811,23.171c2.996,2.612,6.068,9.04,13.935,9.04
	c7.884,0,10.826-6.33,13.933-9.04c21.605-23.463,56.374-29.957,84.554-15.792C358.188,193.994,362.696,192.503,364.557,188.802z"/>
<g>
</g>
<g>
</g>
<g>
</g>
<g>
</g>
<g>
</g>
<g>
</g>
<g>
</g>
<g>
</g>
<g>
</g>
<g>
</g>
<g>
</g>
<g>
</g>
<g>
</g>
<g>
</g>
<g>
</g>
</svg>
