<?xml version="1.0" encoding="iso-8859-1"?>
<!-- Generator: Adobe Illustrator 19.0.0, SVG Export Plug-In . SVG Version: 6.00 Build 0)  -->
<svg version="1.1" id="Capa_1" xmlns="http://www.w3.org/2000/svg" xmlns:xlink="http://www.w3.org/1999/xlink" x="0px" y="0px"
	 viewBox="0 0 511.999 511.999" style="enable-background:new 0 0 511.999 511.999;" xml:space="preserve">
<path style="fill:#F99DB6;" d="M277.401,42.909C199.1,58.353,113.327,92.85,75.154,127.457c-4.392,3.981-0.126,10.778,5.064,7.914
	c47.695-26.321,111.198-45.227,175.851-53.877C258.666,66.941,265.779,53.498,277.401,42.909z"/>
<g>
	<path style="fill:#F9B2C8;" d="M77.556,132.941c36.329-30.092,112.514-58.307,185.684-72.016
		c3.569-6.583,8.287-12.665,14.16-18.016C199.1,58.353,113.327,92.85,75.154,127.457c-2.987,2.708-1.964,6.712,0.626,8.099
		C76.062,134.624,76.623,133.715,77.556,132.941z"/>
	<path style="fill:#F9B2C8;" d="M488.316,282.229c-48.704,38.407-118.099,68.761-192.174,87.36l-57.417,62.358
		c94.92-23.113,194.169-65.579,260.274-138.031C505.578,286.705,495.98,276.184,488.316,282.229z"/>
</g>
<path style="fill:#F99DB6;" d="M498.243,282.379c-61.663,63.37-149.366,101.873-235.882,123.899l-23.636,25.67
	c94.92-23.113,194.169-65.579,260.275-138.031C502.594,289.975,501.354,285.052,498.243,282.379z"/>
<path style="fill:#F96989;" d="M450.181,25.733c-19.837-5.493-47.832,2.985-61.929,18.296c-4.392,4.744-4.352,4.781-4.997,5.347
	c-3.197,2.803-7.919,3.027-11.354,0.604c-4.106-2.892-8.874-13.04-28.282-20.721c-8.601-3.407-18.279-5.397-27.491-5.192
	c-21.402,0.475-48.34,15.612-59.935,40.958c-7.23,15.801-8.181,33.854-2.694,50.304c5.894,17.665,13.796,23.827,44.651,57.337
	l63.312,68.758c9.775,10.615,9.542,10.587,11.251,11.54c3.644,2.032,8.319,1.378,11.254-1.81l10.298-11.183v-0.002l76.146-82.696
	c14.834-16.445,25.323-24.564,31.129-44.008C512.095,77.926,493.461,37.715,450.181,25.733z"/>
<path style="fill:#ED5A81;" d="M348.137,153.673c-30.854-33.51-38.757-39.674-44.651-57.337C298,79.884,298.95,61.831,306.18,46.031
	c3.867-8.453,9.445-15.762,15.951-21.78c-2.011-0.152-4.019-0.229-6.002-0.185c-21.402,0.475-48.34,15.612-59.935,40.958
	c-7.23,15.801-8.181,33.854-2.694,50.304c5.894,17.665,13.796,23.827,44.651,57.337l63.312,68.758
	c9.775,10.615,9.542,10.587,11.251,11.54c3.644,2.032,8.319,1.378,11.254-1.81l10.298-11.183v-0.002l16.666-18.1L348.137,153.673z"
	/>
<path style="fill:#F96989;" d="M271.112,166.267c-21.243-3.116-50.599,7.757-65.142,23.552l-10.558,11.467
	c-5.352,5.813-14.529,5.813-19.881,0l-10.558-11.467c-14.544-15.794-43.899-26.668-65.142-23.552
	C7.214,179.853-16.787,275.547,32.932,329.546c3.435,3.73,143.598,155.955,141.332,153.493c6.034,6.553,16.379,6.553,22.414,0
	c6.918-7.513,134.417-145.983,141.332-153.493C387.731,275.547,363.729,179.853,271.112,166.267z"/>
<path style="fill:#ED5A81;" d="M82.918,302.904c-35.433-38.483-33.413-98.132,4.187-134.157
	C5.103,188.849-14.427,278.111,32.932,329.546c3.38,3.671,139.189,151.164,141.332,153.494c6.034,6.553,16.379,6.553,22.414,0
	c1.817-1.974,11.964-12.993,26.052-28.294C207.673,438.391,86.115,306.374,82.918,302.904z"/>
<path d="M40.877,349.232c2.806,3.048,7.55,3.243,10.595,0.438c3.046-2.805,3.242-7.549,0.438-10.595l-13.45-14.607
	c-45.937-49.891-23.767-138.132,62.469-150.782c18.632-2.73,45.435,6.982,58.539,21.213l10.558,11.466
	c8.315,9.031,22.6,9.03,30.913,0l10.559-11.466c13.103-14.232,39.913-23.951,58.538-21.213
	c85.502,12.542,108.898,100.356,62.469,150.782C184.163,484.234,191.92,480.456,185.482,480.456
	c-6.419,0-1.279,0.977-109.861-115.629c-2.804-3.047-7.548-3.242-10.595-0.438c-3.047,2.804-3.242,7.549-0.438,10.595
	L168.76,488.118c8.995,9.77,24.449,9.768,33.445,0l45.53-49.448c90.87-22.479,193.211-69.993,256.813-139.701
	c12.774-14-6-34.351-20.864-22.628c-13.119,10.347-27.602,20.224-43.045,29.361c-3.564,2.108-4.745,6.707-2.636,10.27
	c2.109,3.565,6.71,4.745,10.27,2.636c29.436-17.414,43.475-29.898,44.945-30.66c0.205,0.106,0.473,0.432,0.491,0.576
	c-1.154,3.806-75.773,86.068-227.032,129.574c4.579-4.973,34.281-37.23,38.478-41.788c40.087-10.215,77.704-23.933,111.84-40.791
	c3.713-1.833,5.235-6.33,3.402-10.043c-1.833-3.712-6.329-5.234-10.043-3.402c-26.628,13.15-55.47,24.334-86.002,33.386
	l19.184-20.835c18.904-20.53,28.392-47.287,27.263-74.286c6.025,2.502,12.743,1.242,17.411-2.853
	c1.169-1.026,103.503-112.269,103.596-112.369c37.738-40.987,21.489-109.692-39.615-126.611
	c-22.532-6.24-53.403,3.018-69.445,20.443l-4.273,4.64c-3.621,3.905-6.179-11.937-34.337-22.156
	c-9.523-3.456-19.335-5.062-28.164-4.863c-17.004,0.379-35.03,9.038-47.033,19.389c-78.832,15.871-160.349,51.072-198.813,85.944
	c-10.992,9.965,0.802,27.16,13.723,20.032c31.686-17.486,67.652-31.371,106.901-41.268c4.015-1.013,6.449-5.089,5.436-9.103
	c-1.013-4.016-5.09-6.451-9.103-5.436c-29.633,7.473-57.487,17.167-83.155,28.926c37.151-24.187,92.771-46.791,149.18-60.258
	c-3.527,5.933-6.387,12.652-8.266,19.994c-7.639,1.095-15.339,2.355-22.958,3.76c-4.072,0.751-6.765,4.661-6.014,8.732
	c0.751,4.072,4.661,6.76,8.732,6.015c5.956-1.098,11.961-2.095,17.946-3.002c-0.597,13.803,2.568,27.991,9.758,40.703
	c6.537,11.557,13.059,16.594,23.467,28.427c-28.162-4.823-59.978,8.663-75.311,25.317l-10.559,11.466
	c-2.371,2.575-6.45,2.605-8.85,0l-10.558-11.466c-16.289-17.691-48.47-29.299-71.747-25.893
	C1.345,173.141-27.174,275.323,27.428,334.625L40.877,349.232z M262.723,118.372c-14.733-33.244,1.712-73.845,43.494-85.413
	c11.892-3.282,26.777-0.517,38.258,4.821c20.353,9.448,18.17,19.982,31.072,21.286c11.028,1.1,15.761-7.982,18.232-9.958
	c12.19-13.243,37.299-20.889,54.413-16.149c49.424,13.686,63.32,68.619,32.583,102.003
	c-110.718,120.246-102.34,111.157-102.453,111.254c-0.63,0.552-1.517,0.52-2.086,0.114c-0.274-0.194-7.522-8.141-9.31-10.045
	c-8.689-30.518-30.912-56.003-63.702-69.19C273.563,134.381,268.526,131.437,262.723,118.372z"/>
<g>
</g>
<g>
</g>
<g>
</g>
<g>
</g>
<g>
</g>
<g>
</g>
<g>
</g>
<g>
</g>
<g>
</g>
<g>
</g>
<g>
</g>
<g>
</g>
<g>
</g>
<g>
</g>
<g>
</g>
</svg>
