<?xml version="1.0" encoding="iso-8859-1"?>
<!-- Generator: Adobe Illustrator 19.0.0, SVG Export Plug-In . SVG Version: 6.00 Build 0)  -->
<svg version="1.1" id="Capa_1" xmlns="http://www.w3.org/2000/svg" xmlns:xlink="http://www.w3.org/1999/xlink" x="0px" y="0px"
	 viewBox="0 0 512.002 512.002" style="enable-background:new 0 0 512.002 512.002;" xml:space="preserve">
<path style="fill:#A9DBA9;" d="M224.085,463.997L224.085,463.997C212.222,451.114,56.719,282.231,44.652,269.125
	C-7.069,212.953-4.551,125.61,50.757,72.605c57.791-55.388,149.461-49.266,201.978,7.77l3.266,3.547l3.267-3.548
	c52.526-57.046,144.193-63.148,201.976-7.769l0,0c54.901,52.616,58.203,139.938,6.106,196.521
	c-4.662,5.063-57.995,62.985-105.33,114.393l-73.875,80.231C270.983,482.387,241.478,482.589,224.085,463.997z"/>
<path style="fill:#9BCE9B;" d="M247.086,445.997L247.086,445.997C235.222,433.114,79.719,264.231,67.652,251.125
	c-51.569-56.008-49.212-142.999,5.626-196.05c-7.921,4.944-15.474,10.776-22.521,17.529c-55.308,53.006-57.826,140.348-6.105,196.52
	c12.067,13.106,167.57,181.989,179.433,194.873l0.001-0.001c17.392,18.592,46.897,18.39,64.057-0.248l6.127-6.654
	C278.338,463.013,259.584,459.358,247.086,445.997z"/>
<path style="fill:#77B777;" d="M244.671,444.588c6.087,6.608,16.532,6.654,22.66-0.003c8.206-8.912,171.988-186.787,179.205-194.624
	c41.544-45.121,39.04-114.849-4.869-156.931l0,0c-46.253-44.326-119.725-38.958-161.587,6.508l-7.35,7.982
	c-9.001,9.774-24.46,9.772-33.459-0.001c-3.377-2.577-31.464-43.215-88.518-44.997C50.518,59.352-0.591,178.218,65.465,249.962
	l69.309,75.273c48.589,52.769,105.53,114.611,109.862,119.314c0.011,0.012,0.022,0.024,0.033,0.036l0,0L244.671,444.588z"/>
<path style="fill:#6AAA6A;" d="M184.774,309.569l-69.309-75.273C64.976,179.459,82.939,97.099,138.966,62.738
	C46.623,68.814,2.053,181.09,65.465,249.962l69.309,75.273c48.589,52.77,105.53,114.611,109.862,119.314
	c0.011,0.012,0.022,0.024,0.033,0.036l0.002,0.003c6.087,6.608,16.532,6.654,22.66-0.003c1.631-1.771,9.411-10.221,20.881-22.678
	C271.276,403.514,225.143,353.412,184.774,309.569z"/>
<path d="M239.14,449.652c0.247,0.176,6.037,7.402,16.86,7.402c6.478,0,12.462-2.624,16.85-7.39L452.055,255.04
	c64.707-70.276,24.476-183.328-67.29-198.466c-4.084-0.662-7.947,2.093-8.621,6.18s2.093,7.946,6.18,8.621
	c80.123,13.215,115.272,112.061,58.697,173.504L261.814,439.505c-2.93,3.182-8.137,3.668-11.692-0.07L114.638,292.294
	c-2.807-3.047-7.552-3.243-10.598-0.438c-3.047,2.806-3.243,7.551-0.438,10.598C232.452,442.388,239.051,449.547,239.14,449.652z"/>
<path d="M75.523,98.445c42.741-40.962,111.383-36.724,150.884,6.175c4.452,3.731,11.823,17.736,29.595,17.736
	c17.835,0,25.084-13.956,29.598-17.738c16.658-18.092,39.393-30.008,64.015-33.553c4.1-0.591,6.944-4.393,6.354-8.492
	c-0.591-4.102-4.397-6.945-8.493-6.355c-51.997,7.488-76.441,43.137-80.261,46.222c-6.032,6.549-16.393,6.551-22.425-0.001
	c-3.405-2.59-33.271-45.522-93.798-47.412C44.317,51.601-10.672,178.343,59.948,255.042l19.947,21.664
	c2.796,3.038,7.542,3.251,10.598,0.438c3.047-2.806,3.243-7.551,0.438-10.598l-19.947-21.664
	C32.285,202.853,34.471,137.787,75.523,98.445z"/>
<path d="M218.608,469.121c20.357,21.761,54.93,21.565,75.053-0.292l179.206-194.624c55.021-59.759,51.249-151.733-6.435-207.016
	C406.589,9.839,311.914,14.835,256,72.903C200.098,14.847,105.425,9.824,45.567,67.189c-57.838,55.431-61.311,147.415-6.434,207.016
	L180.32,427.54c2.805,3.048,7.55,3.244,10.598,0.438c3.047-2.806,3.243-7.551,0.438-10.598L50.17,264.045
	C0.828,210.457,4.007,127.796,55.947,78.019c54.498-52.229,141.338-46.795,191.27,7.436l3.266,3.547
	c2.97,3.225,8.065,3.225,11.035,0l3.267-3.548c49.791-54.073,136.627-59.806,191.269-7.435
	c51.975,49.812,55.087,132.471,5.778,186.025L282.627,458.669c-6.832,7.422-16.538,11.678-26.627,11.678
	c-17.049,0-26.428-11.525-26.591-11.639c-0.179-0.2-14.252-15.48-14.345-15.58c-2.805-3.048-7.55-3.243-10.598-0.438
	c-3.047,2.806-3.243,7.551-0.438,10.598C207.237,456.771,196.162,444.743,218.608,469.121z"/>
<g>
</g>
<g>
</g>
<g>
</g>
<g>
</g>
<g>
</g>
<g>
</g>
<g>
</g>
<g>
</g>
<g>
</g>
<g>
</g>
<g>
</g>
<g>
</g>
<g>
</g>
<g>
</g>
<g>
</g>
</svg>
