<?xml version="1.0" encoding="iso-8859-1"?>
<!-- Generator: Adobe Illustrator 19.0.0, SVG Export Plug-In . SVG Version: 6.00 Build 0)  -->
<svg version="1.1" id="Capa_1" xmlns="http://www.w3.org/2000/svg" xmlns:xlink="http://www.w3.org/1999/xlink" x="0px" y="0px"
	 viewBox="0 0 512.001 512.001" style="enable-background:new 0 0 512.001 512.001;" xml:space="preserve">
<path style="fill:#656566;" d="M7.5,135.577l39.902,153.93h-0.015c2.823,9.835,4.297,20.065,4.297,30.416l7.132,145.84
	c0.363,7.425,6.489,13.26,13.925,13.26l0,0c8.026,0,14.604-6.372,14.857-14.396l5.381-170.49c0-10.266,11.474-26.804,34.86,0.811
	C83.994,211.14,7.502,135.58,7.5,135.577z"/>
<path style="fill:#545456;" d="M72.839,465.763c-0.519-142.392,4.157-149.82-3.429-176.255h0.015L38.049,168.469
	C20.122,148.046,7.501,135.578,7.5,135.577l39.902,153.93h-0.015c5.145,17.924,3.015,13.547,11.43,176.255
	c0.502,10.282,11.633,16.602,21.062,11.428C75.865,474.904,73.08,470.69,72.839,465.763z"/>
<path style="fill:#ED694A;" d="M501.095,447.816c0,0-43.284-51.967-108.599-88.596c-12.482-7-27.857-6.201-39.708,1.82
	c-15.932,10.784-35.797,15.931-54.321,15.931c-54.96,0-78.668-62.504-78.668-62.504L101.317,51.069
	C88.506,22.588,64.306,36.192,64.279,36.207C40.204,50.649,7.5,80.417,7.5,135.577c0,0,105.83,117.15,141.39,202.82
	c14.286,34.416,26.224,63.868,38.225,86.8l0,0c0,0,27.31,53.827,80.722,53.827H484.41
	C500.437,479.023,509.972,461.163,501.095,447.816z"/>
<path style="fill:#D8553A;" d="M215.499,424.11c-12.001-23.394-23.939-53.441-38.225-88.551
	C151.898,273.192,90.739,194.47,57.789,154.495c-19.329-23.45-22.632-56.326-8.094-83.012c9.194-16.879,21.709-29.16,33.503-37.846
	c-9.918-2.489-18.902,2.561-18.918,2.57C40.204,50.649,7.5,80.417,7.5,135.577c0,0,105.83,117.15,141.39,202.82
	c14.286,34.416,26.224,63.868,38.225,86.8c0,0,27.31,53.827,80.722,53.827h28.385C242.81,479.023,215.499,424.11,215.499,424.11z"/>
<path d="M396.166,352.679c-14.978-8.401-33.209-7.577-47.582,2.149c-13.747,9.305-32.014,14.642-50.117,14.642
	c-20.314,0-38.44-9.481-53.878-28.182c-15.181-18.393-10.115-13.856-107.257-228.438c-1.699-3.777-6.138-5.462-9.918-3.763
	c-3.777,1.699-5.462,6.139-3.763,9.918l89.225,198.358c0.848,2.162,7.131,17.586,19.844,33.108c18.216,22.243,40.95,34,65.746,34
	c21.336,0,42.12-6.115,58.525-17.22c9.641-6.524,21.84-7.094,31.835-1.488c60.62,33.996,102.475,82.131,106.233,86.532
	c5.214,8.353-0.748,19.228-10.651,19.228h-52.123c-4.143,0-7.5,3.357-7.5,7.5c0,4.143,3.357,7.5,7.5,7.5h52.123
	c21.97,0,35.121-24.534,22.932-42.86C504.883,439.968,460.095,388.532,396.166,352.679z"/>
<path d="M397.284,471.523H267.837c-48.044,0-73.784-49.234-74.077-49.805c-11.851-22.644-24.192-53.012-37.942-86.197
	c-33.392-80.445-125.67-185.811-140.787-202.778c1.056-48.579,29.2-75.717,52.95-90.011c0.778-0.399,7.72-3.784,14.495-1.499
	c4.846,1.637,8.884,5.98,12.003,12.911l14.779,32.857c1.699,3.777,6.142,5.462,9.917,3.763c3.778-1.699,5.463-6.139,3.764-9.918
	l-14.779-32.856C103.224,37.023,96.136,29.947,87.09,26.96c-8.951-2.955-20.012-1.219-26.667,2.814
	C22.416,52.574,0,89.067,0,135.578c0,0.2,0.012,0.398,0.028,0.595c0.025,0.311,0.085,0.793,0.213,1.286
	c47.475,183.227,42.912,161.156,43.952,182.83l0.616,12.606c0.203,4.138,3.725,7.302,7.857,7.125
	c4.137-0.202,7.327-3.72,7.125-7.857l-0.607-12.427c-0.039-23.882-4.834-29.834-36.368-154.964
	c20.845,24.77,53.628,65.496,81.09,107.474c-11.15,0.441-18.364,10.817-18.429,21.761L80.101,464.39
	c-0.126,3.999-3.358,7.131-7.359,7.131c-3.439,0-6.265-2.691-6.433-6.126l-4.804-98.232c-0.203-4.137-3.734-7.323-7.857-7.125
	c-4.138,0.202-7.327,3.721-7.125,7.857l4.804,98.232c0.56,11.437,9.967,20.395,21.416,20.395c12.151,0,21.97-9.515,22.353-21.659
	c5.607-177.677,5.385-170.516,5.385-170.727c0-2.915,1.5-6.12,3.147-6.724c1.954-0.716,7.725,1.026,17.051,11.881
	c25.871,44.395,35.456,82.88,59.749,129.296c1.2,2.365,30.054,57.934,87.411,57.934h129.446c4.143,0,7.5-3.357,7.5-7.5
	C404.784,474.879,401.426,471.523,397.284,471.523z"/>
<g>
</g>
<g>
</g>
<g>
</g>
<g>
</g>
<g>
</g>
<g>
</g>
<g>
</g>
<g>
</g>
<g>
</g>
<g>
</g>
<g>
</g>
<g>
</g>
<g>
</g>
<g>
</g>
<g>
</g>
</svg>
