<?xml version="1.0" encoding="iso-8859-1"?>
<!-- Generator: Adobe Illustrator 19.0.0, SVG Export Plug-In . SVG Version: 6.00 Build 0)  -->
<svg version="1.1" id="Capa_1" xmlns="http://www.w3.org/2000/svg" xmlns:xlink="http://www.w3.org/1999/xlink" x="0px" y="0px"
	 viewBox="0 0 512.001 512.001" style="enable-background:new 0 0 512.001 512.001;" xml:space="preserve">
<rect x="212.965" y="-16.307" transform="matrix(0.7071 0.7071 -0.7071 0.7071 245.4843 -131.4456)" style="fill:#FD6B64;" width="136.891" height="493.821"/>
<rect x="227.259" y="-50.835" transform="matrix(0.7071 0.7071 -0.7071 0.7071 210.9595 -117.1513)" style="fill:#E24D4D;" width="39.271" height="493.821"/>
<rect x="50.622" y="375.595" transform="matrix(0.7071 0.7071 -0.7071 0.7071 312.7225 30.8954)" style="fill:#FF0E0D;" width="136.891" height="34.684"/>
<rect x="64.918" y="341.071" transform="matrix(0.7071 0.7071 -0.7071 0.7071 278.2014 45.1883)" style="fill:#DD0707;" width="39.271" height="34.684"/>
<rect x="375.299" y="50.93" transform="matrix(0.7071 0.7071 -0.7071 0.7071 178.2455 -293.778)" style="fill:#FF0E0D;" width="136.891" height="34.684"/>
<rect x="389.584" y="16.414" transform="matrix(0.7071 0.7071 -0.7071 0.7071 143.7267 -279.4752)" style="fill:#DD0707;" width="39.271" height="34.684"/>
<polygon style="fill:#FF0E0D;" points="144.73,443.105 117.347,461.183 51.863,504.399 7.601,460.138 50.817,394.653 68.896,367.27 
	"/>
<polygon style="fill:#DD0707;" points="68.895,367.272 7.605,460.136 25.702,478.233 97.048,395.426 "/>
<polyline style="fill:#443B40;" points="228,380.8 131.2,284.001 107.07,308.131 203.87,404.931 "/>
<polyline style="fill:#2D262A;" points="158.97,311.77 131.2,284.001 107.07,308.131 134.839,335.9 "/>
<polygon style="fill:#DD0707;" points="144.73,443.105 117.347,461.183 50.817,394.653 68.896,367.27 "/>
<polyline style="fill:#443B40;" points="455.739,153.06 358.94,56.262 334.81,80.392 431.608,177.191 "/>
<polyline style="fill:#2D262A;" points="386.709,84.031 358.94,56.262 334.81,80.392 362.579,108.161 "/>
<path d="M509.774,99.026L412.975,2.227c-2.971-2.969-7.785-2.969-10.754,0L301.635,102.813c-2.97,2.97-2.97,7.784,0,10.754l0,0
	c2.97,2.97,7.784,2.97,10.754,0l22.421-22.42l86.045,86.045L228.001,370.045l-10.916-10.916c-2.97-2.97-7.784-2.97-10.754,0l0,0
	c-2.97,2.97-2.97,7.784,0,10.754l10.916,10.916l-13.376,13.376l-86.045-86.045l13.376-13.376l50.034,50.035
	c2.97,2.97,7.784,2.97,10.754,0l0,0c2.97-2.97,2.97-7.784,0-10.754L141.956,284l145.34-145.339c2.97-2.97,2.97-7.784,0-10.754l0,0
	c-2.97-2.97-7.784-2.97-10.754,0L53.035,351.412c-2.97,2.971-2.97,7.785,0,10.754l6.095,6.095L1.258,455.948
	c-1.989,3.014-1.585,7.011,0.969,9.566l44.26,44.26c1.469,1.469,3.417,2.227,5.381,2.227c1.449,0,2.906-0.413,4.185-1.257
	l87.686-57.873l6.095,6.095c1.485,1.484,3.432,2.226,5.378,2.226s3.892-0.742,5.378-2.226L509.774,109.78
	c1.426-1.427,2.226-3.36,2.226-5.378S511.2,100.452,509.774,99.026z M383.07,42.886l86.045,86.045l-13.376,13.376l-86.045-86.045
	L383.07,42.886z M345.564,80.392l13.376-13.376l86.045,86.045l-13.376,13.376L345.564,80.392z M193.114,404.931l-13.376,13.376
	l-86.045-86.045l13.376-13.376L193.114,404.931z M52.855,494.632l-35.485-35.485l52.738-79.907l62.654,62.654L52.855,494.632z
	 M155.211,442.834l-5.097-5.097c-0.003-0.003-0.005-0.006-0.008-0.009l-75.834-75.833l-5.106-5.106l13.772-13.772l86.045,86.045
	L155.211,442.834z M479.87,118.176l-86.045-86.045l13.773-13.773l86.045,86.045L479.87,118.176z"/>
<g>
</g>
<g>
</g>
<g>
</g>
<g>
</g>
<g>
</g>
<g>
</g>
<g>
</g>
<g>
</g>
<g>
</g>
<g>
</g>
<g>
</g>
<g>
</g>
<g>
</g>
<g>
</g>
<g>
</g>
</svg>
