<?xml version="1.0" encoding="iso-8859-1"?>
<!-- Generator: Adobe Illustrator 19.0.0, SVG Export Plug-In . SVG Version: 6.00 Build 0)  -->
<svg version="1.1" id="Capa_1" xmlns="http://www.w3.org/2000/svg" xmlns:xlink="http://www.w3.org/1999/xlink" x="0px" y="0px"
	 viewBox="0 0 512 512" style="enable-background:new 0 0 512 512;" xml:space="preserve">
<path style="fill:#98A7AE;" d="M504.396,256c0,36.54-25.935,69.733-68.223,94.279C390.915,376.568,326.93,392.963,256,392.963
	C118.814,392.963,7.604,331.645,7.604,256c0-75.644,111.21-136.963,248.396-136.963c32.109,0,62.788,3.356,90.964,9.469v0.01
	C439.154,148.521,504.396,198.059,504.396,256z"/>
<path style="fill:#7B888E;" d="M504.396,256c0,36.54-25.935,69.733-68.223,94.279c-17.945-37.351-37.695-82.741-37.695-101.64
	c0-34.633-18.579-111.371-51.514-120.122C439.154,148.521,504.396,198.059,504.396,256z"/>
<path style="fill:#332F41;" d="M485.548,308.427c-37.32,49.629-126.043,84.536-229.548,84.536S63.772,358.055,26.452,308.427
	c37.32-49.639,126.043-84.546,229.548-84.546C359.505,223.881,448.228,258.788,485.548,308.427z"/>
<path d="M435.314,152.494c-48.021-26.478-111.701-41.06-179.314-41.06c-76.512,0-147.373,18.584-196.022,51.196
	c-3.601,2.414-4.509,7.314-1.959,10.82l0.004,0.006c2.39,3.286,6.953,4.135,10.33,1.876c21.107-14.122,47.675-25.882,77.345-34.192
	c34.342-9.619,71.453-14.496,110.301-14.496c65.087,0,126.161,13.911,171.971,39.17c44.38,24.47,68.821,56.498,68.821,90.188
	c0,13.668-4.024,27.063-11.77,39.792c-21.856-24.636-56.223-45.436-98.454-59.505c-4.039-1.345-8.398,0.919-9.651,4.987v0.001
	c-1.219,3.957,0.962,8.146,4.891,9.455c41.234,13.734,74.212,33.984,94.064,57.741c-11.523,13.774-27.624,26.536-47.901,37.717
	c-45.81,25.258-106.884,39.17-171.971,39.17s-126.162-13.911-171.971-39.17c-20.28-11.182-36.382-23.946-47.905-37.723
	c18.035-21.62,46.567-40.151,82.955-53.808c40.393-15.16,87.74-23.173,136.922-23.173c32.069,0,63.127,3.36,92.439,9.993
	c4.039,0.915,8.064-1.562,9.059-5.582l0,0c1.022-4.132-1.543-8.309-5.696-9.248c-30.415-6.884-62.602-10.37-95.802-10.37
	c-97.822,0-186.059,30.929-229.023,79.511c-7.746-12.728-11.77-26.122-11.77-39.789c0-20.552,9.336-40.904,27.084-59.216
	c2.808-2.898,2.851-7.49,0.105-10.448l-0.002-0.002c-2.959-3.187-7.999-3.257-11.027-0.134C10.814,207.404,0,231.397,0,256
	c0,39.48,27.234,76.239,76.686,103.507c48.021,26.477,111.702,41.059,179.314,41.059s131.293-14.582,179.314-41.059
	C484.766,332.239,512,295.48,512,256S484.766,179.761,435.314,152.494z"/>
<g>
</g>
<g>
</g>
<g>
</g>
<g>
</g>
<g>
</g>
<g>
</g>
<g>
</g>
<g>
</g>
<g>
</g>
<g>
</g>
<g>
</g>
<g>
</g>
<g>
</g>
<g>
</g>
<g>
</g>
</svg>
