<?xml version="1.0" encoding="iso-8859-1"?>
<!-- Generator: Adobe Illustrator 19.0.0, SVG Export Plug-In . SVG Version: 6.00 Build 0)  -->
<svg version="1.1" id="Capa_1" xmlns="http://www.w3.org/2000/svg" xmlns:xlink="http://www.w3.org/1999/xlink" x="0px" y="0px"
	 viewBox="0 0 512 512" style="enable-background:new 0 0 512 512;" xml:space="preserve">
<path style="fill:#FDB900;" d="M501.272,60.979c-12.464,25.713-41.074,130.606-53.294,169.251
	c-22.897,72.392-67.581,131.155-67.581,131.155l-45.054,47.292l-26.326,27.626c-15.686,11.535-32.121,21.2-49.387,29.079
	c-55.893,25.514-120.55,32.319-197.121,22.861l-1.245-18.555c0,0,26.643-1.968,65.153-21.218l89.874-26.426l75.758-22.275
	l29.269-37.41l44.062-56.335l7.626-53.493l10.596-74.26c0-56.3-21.634-93.439-32.437-114.584l126.76-2.284L501.272,60.979z"/>
<g>
	<path style="fill:#D39702;" d="M501.272,60.979c-12.464,25.713-41.074,130.606-53.294,169.251
		c-22.897,72.392-67.581,131.155-67.581,131.155l-45.054,47.292l-17.915-30.569c0,0,1.191-5.956,3.889-15.75
		c6.597-23.962,22.247-70.929,51.688-109.828c5.524-7.292,11.526-14.305,18.051-20.83c55.505-55.505,71.083-151.029,71.083-151.029
		l15.785-19.269L501.272,60.979z"/>
	<path style="fill:#D39702;" d="M216.29,422.044l43.339,43.339c-55.893,25.514-120.55,32.319-197.121,22.861l-1.245-18.555
		c0,0,26.643-1.968,65.153-21.218L216.29,422.044z"/>
</g>
<path style="fill:#FDB900;" d="M65.791,126.48c-77.463,77.463-77.462,203.055,0,280.518s203.055,77.463,280.518,0
	c77.462-77.462,77.462-203.055,0-280.518S143.254,49.016,65.791,126.48z M306.284,366.974c-55.358,55.358-145.111,55.358-200.47,0
	s-55.358-145.111,0-200.47s145.111-55.358,200.47,0C361.643,221.862,361.642,311.615,306.284,366.974z"/>
<g>
	<path style="fill:#D39702;" d="M314.078,358.522c2.894-2.464,5.716-5.058,8.451-7.793c55.358-55.358,55.358-145.111,0-200.47
		s-145.111-55.358-200.47,0c-2.735,2.735-5.329,5.557-7.793,8.451c55.695-47.423,139.395-44.829,192.018,7.793
		C358.909,219.127,361.503,302.829,314.078,358.522z"/>
	<path style="fill:#D39702;" d="M82.036,390.753C7.3,316.018,4.679,196.488,74.152,118.597c-2.842,2.535-5.635,5.156-8.362,7.882
		c-77.463,77.463-77.463,203.055,0,280.518s203.055,77.463,280.518,0c2.727-2.727,5.347-5.521,7.882-8.362
		C276.301,468.109,156.771,465.489,82.036,390.753z"/>
</g>
<g>
	<path style="fill:#F44242;" d="M292.544,412.81l-23.428-23.428c-8.226-8.226-8.226-21.563,0-29.789l0,0
		c8.226-8.226,21.563-8.226,29.789,0l52.524,52.524c8.226,8.226,8.226,21.563,0,29.789l0,0c-8.226,8.226-21.563,8.226-29.789,0
		l-12.419-12.419L292.544,412.81z"/>
	<path style="fill:#F44242;" d="M322.333,383.022l-23.428-23.428c-8.226-8.226-8.226-21.563,0-29.789l0,0
		c8.226-8.226,21.563-8.226,29.789,0l52.524,52.524c8.226,8.226,8.226,21.563,0,29.789l0,0c-8.226,8.226-21.563,8.226-29.789,0
		l-12.419-12.419L322.333,383.022z"/>
</g>
<path style="fill:#E21712;" d="M352.12,383.02c-4.116,4.116-9.503,6.164-14.892,6.173c-5.388-0.009-10.785-2.067-14.892-6.173
	c8.222,8.222,8.222,21.561-0.009,29.792c-4.106,4.106-9.503,6.164-14.892,6.173c-5.388-0.009-10.786-2.067-14.892-6.173
	l29.098,29.098c4.106,4.106,9.503,6.164,14.892,6.173c5.388-0.009,10.786-2.067,14.892-6.173c8.231-8.231,8.231-21.57,0.009-29.792
	c4.106,4.106,9.503,6.164,14.892,6.173c5.388-0.009,10.776-2.058,14.892-6.173c8.222-8.222,8.222-21.562,0-29.783l-29.098-29.098
	C360.342,361.458,360.342,374.797,352.12,383.02z"/>
<path style="fill:#D39702;" d="M504.395,52.044c0,17.87-35.505,32.365-79.305,32.374c-1.011,0-2.021,0-3.024-0.027
	c-42.392-0.641-76.272-14.883-76.272-32.356c0-17.87,35.496-32.374,79.305-32.374c21.787,0,41.516,3.591,55.849,9.386
	C495.424,34.914,504.395,43.055,504.395,52.044z"/>
<path style="fill:#AA7602;" d="M504.395,52.044c0,17.87-35.505,32.365-79.305,32.374c-1.011,0-2.021,0-3.024-0.027
	c-14.476-5.866-23.438-13.998-23.438-22.987c-0.009-17.879,35.496-32.374,79.296-32.383c1.011,0,2.021,0,3.024,0.027
	C495.424,34.914,504.395,43.055,504.395,52.044z"/>
<path d="M512,52.039c0-25.966-44.775-39.978-86.905-39.978S338.19,26.073,338.19,52.039c0,6.122,2.491,11.577,6.845,16.344
	c0.622,1.208,1.265,2.449,1.944,3.757c8.442,16.244,21.302,41.002,26.606,74.852c-6.551-9.176-13.864-17.844-21.902-25.881
	c-75.795-75.796-196.277-80.662-277.685-12.455c-3.311,2.773-3.668,7.74-0.77,10.944l0,0c2.757,3.049,7.415,3.324,10.567,0.685
	c75.391-63.131,186.949-58.612,257.135,11.576c31.003,31.003,50.501,72.049,54.9,115.579c4.019,39.765-4.622,80.007-24.383,114.37
	l-30.616-30.617c12.615-26.45,17.245-56.718,13.042-85.872c-4.626-32.093-19.221-61.206-42.208-84.192
	c-28.21-28.211-65.718-43.745-105.613-43.744c-39.894,0.001-77.4,15.537-105.607,43.744c-28.211,28.211-43.747,65.718-43.747,105.61
	s15.537,77.4,43.747,105.61c22.986,22.987,52.098,37.583,84.186,42.213c7.023,1.014,14.104,1.513,21.188,1.513
	c22.319,0,44.597-4.985,64.676-14.561l30.628,30.628c-34.364,19.756-74.61,28.393-114.378,24.375
	c-43.535-4.399-84.581-23.894-115.58-54.892C0.984,331.442-3.532,219.88,59.601,144.479c2.639-3.152,2.364-7.809-0.685-10.567l0,0
	c-3.204-2.897-8.17-2.54-10.944,0.771C-20.235,216.1-15.374,336.586,60.415,412.376c14.341,14.341,30.678,26.393,48.362,35.868
	c-28.727,12.202-47.864,13.841-48.069,13.857c-4.166,0.307-7.305,3.919-7.027,8.088l1.238,18.563
	c0.243,3.644,3.049,6.594,6.674,7.042c22.369,2.761,43.498,4.144,63.598,4.144c26.567,0,51.333-2.416,74.774-7.258
	c41.789-8.633,78.545-24.798,112.328-49.369l3.973,3.973c5.588,5.588,12.93,8.383,20.271,8.383c7.341,0,14.682-2.794,20.271-8.383
	c5.883-5.883,8.666-13.71,8.355-21.434c0.388,0.015,0.775,0.027,1.164,0.027c7.541,0,15.082-2.948,20.722-8.844
	c10.839-11.331,10.218-29.41-0.87-40.497l-3.622-3.622c1.464-2.431,2.876-4.89,4.234-7.376c3.258-4.344,28.02-37.974,49.642-84.866
	c1.774-3.848,0.031-8.406-3.845-10.117l-0.005-0.002c-3.803-1.679-8.236,0.019-9.98,3.793c-4.439,9.613-9.04,18.68-13.559,27.048
	c3.109-18.222,3.797-36.902,1.919-55.484c-2.445-24.191-9.217-47.666-19.769-69.323c-0.303-40.508-11.404-71.349-21.708-93.415
	c15.95,5.828,36.065,8.846,55.613,8.846c21.449,0,43.581-3.634,60.144-10.626c-8.989,26.168-20.386,65.086-30.079,98.184
	c-5.797,19.797-10.804,36.894-14.429,48.363c-1.471,4.644-3.084,9.385-4.818,14.162c-1.417,3.906,0.525,8.228,4.403,9.719
	l0.003,0.001c3.958,1.523,8.416-0.482,9.863-4.469c1.814-4.996,3.503-9.959,5.045-14.826c3.675-11.628,8.702-28.798,14.524-48.678
	c13.086-44.684,29.309-100.076,37.895-118.563C510.446,61.292,512,56.873,512,52.039z M186.802,399.511
	c-28.814-4.157-54.959-17.267-75.605-37.915c-25.339-25.339-39.294-59.027-39.294-94.859c0-35.832,13.955-69.52,39.294-94.859
	c25.336-25.336,59.024-39.289,94.856-39.29c35.835-0.001,69.523,13.952,94.862,39.29c20.647,20.647,33.756,46.793,37.91,75.609
	c3.555,24.661,0.068,50.199-9.802,72.927c-11.066-6.938-25.873-5.605-35.493,4.014c-5.884,5.883-8.666,13.71-8.355,21.434
	c-7.723-0.311-15.55,2.471-21.433,8.355c-9.62,9.619-10.952,24.427-4.013,35.493C236.999,399.582,211.462,403.068,186.802,399.511z
	 M69.669,481.436l-0.347-5.194c10.455-1.815,31.086-6.702,57.41-19.46c18.567,7.758,38.276,12.82,58.485,14.862
	c6.885,0.696,13.78,1.04,20.665,1.04c4.574,0,9.141-0.159,13.694-0.461C176.008,484.942,126.751,487.876,69.669,481.436z
	 M346.053,436.53c-5.249,5.249-13.789,5.249-19.037,0l-52.524-52.524c-5.249-5.249-5.249-13.789,0-19.037
	c2.624-2.624,6.071-3.936,9.518-3.936c3.447,0,6.895,1.312,9.518,3.936l52.524,52.524
	C351.301,422.741,351.301,431.281,346.053,436.53z M375.841,406.741c-5.249,5.249-13.789,5.249-19.037,0l-52.524-52.524
	c-5.249-5.249-5.249-13.789,0-19.037c2.624-2.624,6.071-3.936,9.518-3.936c3.447,0,6.895,1.312,9.518,3.936l52.524,52.524
	C381.089,392.953,381.089,401.493,375.841,406.741z M353.394,52.039c0-10.1,27.932-24.772,71.7-24.772s71.7,14.672,71.7,24.772
	c0,10.101-27.932,24.773-71.7,24.773S353.394,62.14,353.394,52.039z"/>
<g>
</g>
<g>
</g>
<g>
</g>
<g>
</g>
<g>
</g>
<g>
</g>
<g>
</g>
<g>
</g>
<g>
</g>
<g>
</g>
<g>
</g>
<g>
</g>
<g>
</g>
<g>
</g>
<g>
</g>
</svg>
