<?xml version="1.0" encoding="iso-8859-1"?>
<!-- Generator: Adobe Illustrator 19.0.0, SVG Export Plug-In . SVG Version: 6.00 Build 0)  -->
<svg version="1.1" id="Capa_1" xmlns="http://www.w3.org/2000/svg" xmlns:xlink="http://www.w3.org/1999/xlink" x="0px" y="0px"
	 viewBox="0 0 512.002 512.002" style="enable-background:new 0 0 512.002 512.002;" xml:space="preserve">
<path style="fill:#E8EDF1;" d="M132.227,93.731v25.362c0,56.963,38.412,104.814,90.778,119.26
	c6.32,1.724,10.752,7.469,10.752,14.035c0,6.566-4.35,12.229-10.752,14.035c-52.284,14.445-90.778,62.298-90.778,119.177v10.998
	v21.668h247.547v-21.668v-10.996c0-56.963-38.412-104.814-90.778-119.177c-6.32-1.806-10.752-7.469-10.752-14.117
	c0-6.566,4.35-12.229,10.752-14.035c52.284-14.363,90.778-62.216,90.778-119.177V93.731"/>
<g>
	<path style="fill:#D4D9DC;" d="M241.174,252.394c0,6.564-2.905,12.228-7.163,14.027c-34.855,14.451-60.52,62.299-60.52,119.18
		v32.664h-41.263v-32.664c0-56.882,38.493-104.73,90.776-119.18c6.409-1.799,10.76-7.463,10.76-14.027
		c0-6.574-4.435-12.321-10.76-14.037c-52.365-14.451-90.776-62.299-90.776-119.264V93.727h41.263v25.366
		c0,56.965,25.614,104.813,60.52,119.264C238.218,240.072,241.174,245.819,241.174,252.394z"/>
	<path style="fill:#D4D9DC;" d="M278.241,252.311c0,6.646,4.435,12.31,10.76,14.11c52.365,14.367,90.776,62.216,90.776,119.18
		v32.664h-41.274v-32.664c0-56.965-25.604-104.813-60.51-119.18c-4.206-1.799-7.163-7.463-7.163-14.11
		c0-6.574,2.895-12.238,7.163-14.037c34.855-14.368,60.51-62.216,60.51-119.18V93.727h41.274v25.366
		c0,56.965-38.493,104.813-90.776,119.18C282.593,240.072,278.241,245.737,278.241,252.311z"/>
</g>
<g>
	<rect x="117.284" y="43.2" style="fill:#31313D;" width="277.443" height="50.532"/>
	<rect x="117.284" y="418.269" style="fill:#31313D;" width="277.443" height="59.63"/>
</g>
<g>
	<rect x="117.284" y="43.2" style="fill:#1D1D28;" width="62.038" height="50.532"/>
	<rect x="117.284" y="418.269" style="fill:#1D1D28;" width="62.038" height="59.63"/>
</g>
<g>
	<rect x="85.11" y="7.604" style="fill:#515B68;" width="341.783" height="52.995"/>
	<rect x="85.11" y="451.402" style="fill:#515B68;" width="341.783" height="52.995"/>
</g>
<g>
	<rect x="85.11" y="7.604" style="fill:#3E4751;" width="67.848" height="52.995"/>
	<rect x="85.11" y="451.402" style="fill:#3E4751;" width="67.848" height="52.995"/>
</g>
<g>
	<rect x="306.633" y="7.604" style="fill:#7B8391;" width="67.848" height="52.995"/>
	<rect x="306.633" y="451.402" style="fill:#7B8391;" width="67.848" height="52.995"/>
</g>
<g>
	<path style="fill:#CEA94D;" d="M323.265,418.263c-11.329-11.453-25.634-20.095-41.884-24.57
		c-10.781-2.946-19.701-9.819-25.376-18.823c-5.633,8.941-14.471,15.825-25.139,18.833l-0.197,0.052
		c-16.249,4.476-30.565,13.076-41.915,24.508"/>
	<path style="fill:#CEA94D;" d="M255.995,229.246c-5.676-8.998-14.598-15.876-25.375-18.815
		c-39.706-10.954-67.829-46.745-69.384-87.757h189.528c-1.554,41.009-29.668,76.764-69.435,87.689l-0.191,0.053
		C270.469,213.426,261.63,220.305,255.995,229.246z"/>
</g>
<path style="fill:#E1BF5E;" d="M255.998,229.246c-3.236-8.998-8.324-15.876-14.469-18.815
	c-22.642-10.954-38.678-46.745-39.564-87.757h108.074c-0.886,41.009-16.917,76.764-39.594,87.689l-0.108,0.053
	C264.251,213.426,259.211,220.305,255.998,229.246z"/>
<path d="M291.011,245.604c56.74-15.588,96.368-67.611,96.368-126.51v-17.759h7.342c4.199,0,7.604-3.405,7.604-7.604V68.202h24.567
	c4.199,0,7.604-3.405,7.604-7.604V7.604c0-4.199-3.405-7.604-7.604-7.604H85.11c-4.199,0-7.604,3.405-7.604,7.604v52.995
	c0,4.199,3.405,7.604,7.604,7.604h24.567v25.529c0,4.199,3.405,7.604,7.604,7.604h7.342v17.758
	c0,58.883,39.625,110.939,96.382,126.596c3.031,0.826,5.148,3.581,5.148,6.699c0,3.138-2.095,5.838-5.174,6.707
	c-41.534,11.476-75.042,43.082-89.113,83.457c-1.437,4.121,0.949,8.599,5.151,9.775l0,0c3.886,1.088,7.913-1.061,9.244-4.872
	c12.458-35.654,42.071-63.563,78.807-73.714c9.744-2.749,16.292-11.33,16.292-21.354c0-9.957-6.726-18.745-16.333-21.365
	c-50.163-13.838-85.197-59.865-85.197-111.929v-17.757h232.341v17.758c0,52.073-35.031,98.066-85.238,111.859
	c-9.745,2.748-16.293,11.329-16.293,21.354c0,10.037,6.537,18.649,16.345,21.451c50.156,13.757,85.186,59.749,85.186,111.844v25.064
	h-45.802c-12.122-11.503-26.913-19.88-42.985-24.306c-8.02-2.191-14.971-7.069-19.785-13.822V231.584
	c4.82-6.757,11.771-11.633,19.805-13.824c21.027-5.801,39.336-17.982,52.945-35.226c13.533-17.147,21.14-37.669,22.007-59.361
	c0.051-1.259-0.145-2.534-0.677-3.675c-1.292-2.775-4.015-4.43-6.914-4.43h-33.124c-4.199,0-7.603,3.405-7.603,7.603v0.001
	c0,4.199,3.405,7.603,7.603,7.603h24.869c-2.008,15.6-8.189,30.277-18.1,42.836c-11.589,14.684-27.167,25.054-45.031,29.981
	c-8.974,2.447-17.012,7.254-23.368,13.868c-6.293-6.564-14.239-11.369-23.117-13.875l-0.208-0.058
	c-17.91-4.92-33.503-15.276-45.097-29.946c-9.91-12.542-16.091-27.209-18.099-42.807h112.665c4.199,0,7.603-3.405,7.603-7.603
	v-0.001c0-4.199-3.405-7.603-7.603-7.603H161.319c-0.973,0-1.95,0.148-2.852,0.512c-3.133,1.262-4.947,4.255-4.828,7.38
	c0.825,21.774,8.439,42.367,22.02,59.552c13.616,17.231,31.943,29.397,52.982,35.177l0.158,0.044
	c7.924,2.236,14.805,7.109,19.592,13.817V372.56c-4.776,6.699-11.638,11.568-19.538,13.809l-0.203,0.054
	c-16.079,4.429-30.876,12.784-42.993,24.24h-45.827v-25.061c0-2.449,0.077-4.908,0.23-7.357c0.251-4.008-2.655-7.517-6.641-8.013
	l-0.008-0.001c-4.321-0.538-8.251,2.652-8.525,6.998c-0.176,2.788-0.265,5.585-0.265,8.373v25.064h-7.342
	c-4.199,0-7.604,3.405-7.604,7.604V443.8H85.11c-4.199,0-7.604,3.405-7.604,7.604v52.995c0,4.199,3.405,7.604,7.604,7.604h341.783
	c4.199,0,7.604-3.405,7.604-7.604v-52.995c0-4.199-3.405-7.604-7.604-7.604h-24.567v-25.529c0-4.199-3.405-7.604-7.604-7.604h-7.342
	v-25.065c0-58.924-39.629-110.947-96.293-126.488c-3.133-0.895-5.238-3.631-5.238-6.806
	C285.848,249.169,287.943,246.469,291.011,245.604z M92.714,15.208h326.575v37.787h-24.567h-277.44H92.714V15.208z M387.118,68.202
	v17.925H124.885V68.202H387.118z M232.613,401.107l0.197-0.052c0.041-0.01,0.08-0.021,0.12-0.032
	c8.851-2.495,16.79-7.301,23.08-13.865c6.353,6.61,14.388,11.418,23.352,13.868c7.813,2.151,15.269,5.415,22.156,9.64h-90.936
	C217.441,406.479,224.858,403.243,232.613,401.107z M419.288,496.792H92.714v-37.787h24.567h277.44h24.567v37.787H419.288z
	 M124.885,443.798v-17.925h262.232v17.925H124.885z"/>
<g>
</g>
<g>
</g>
<g>
</g>
<g>
</g>
<g>
</g>
<g>
</g>
<g>
</g>
<g>
</g>
<g>
</g>
<g>
</g>
<g>
</g>
<g>
</g>
<g>
</g>
<g>
</g>
<g>
</g>
</svg>
