<?xml version="1.0" encoding="iso-8859-1"?>
<!-- Generator: Adobe Illustrator 19.0.0, SVG Export Plug-In . SVG Version: 6.00 Build 0)  -->
<svg version="1.1" id="Capa_1" xmlns="http://www.w3.org/2000/svg" xmlns:xlink="http://www.w3.org/1999/xlink" x="0px" y="0px"
	 viewBox="0 0 512 512" style="enable-background:new 0 0 512 512;" xml:space="preserve">
<path style="fill:#E8EDF1;" d="M132.226,93.731v25.362c0,56.963,38.412,104.814,90.778,119.26
	c6.32,1.724,10.752,7.469,10.752,14.035c0,6.566-4.35,12.229-10.752,14.035c-52.284,14.445-90.778,62.298-90.778,119.177v10.998
	v21.668h247.547v-21.668v-10.996c0-56.963-38.412-104.814-90.778-119.177c-6.32-1.806-10.752-7.469-10.752-14.117
	c0-6.566,4.35-12.229,10.752-14.035c52.284-14.363,90.778-62.216,90.778-119.177V93.731"/>
<g>
	<path style="fill:#D4D9DC;" d="M241.173,252.394c0,6.564-2.905,12.228-7.163,14.027c-34.855,14.451-60.52,62.299-60.52,119.18
		v32.664h-41.263v-32.664c0-56.882,38.493-104.73,90.776-119.18c6.409-1.799,10.76-7.463,10.76-14.027
		c0-6.574-4.435-12.321-10.76-14.037c-52.365-14.451-90.776-62.299-90.776-119.264V93.727h41.263v25.366
		c0,56.965,25.614,104.813,60.52,119.264C238.217,240.072,241.173,245.819,241.173,252.394z"/>
	<path style="fill:#D4D9DC;" d="M278.24,252.311c0,6.646,4.435,12.31,10.76,14.11c52.365,14.367,90.776,62.216,90.776,119.18v32.664
		h-41.274v-32.664c0-56.965-25.604-104.813-60.51-119.18c-4.207-1.799-7.163-7.463-7.163-14.11c0-6.574,2.895-12.238,7.163-14.037
		c34.855-14.368,60.51-62.216,60.51-119.18V93.727h41.274v25.366c0,56.965-38.493,104.813-90.776,119.18
		C282.592,240.072,278.24,245.737,278.24,252.311z"/>
</g>
<path style="fill:#C6A042;" d="M162.205,427.037c0-45.293,29.16-89.41,93.795-125.319c64.637,35.909,93.795,80.026,93.795,125.319
	l-26.082,15.239l-141.585-1.026L162.205,427.037z"/>
<path style="fill:#E1BF5E;" d="M205.698,427.037c0-45.293,15.638-89.41,50.301-125.319c34.663,35.909,50.301,80.026,50.301,125.319
	l-13.987,15.239l-75.929-1.026L205.698,427.037z"/>
<g>
	<rect x="117.283" y="43.2" style="fill:#31313D;" width="277.443" height="50.532"/>
	<rect x="117.283" y="418.269" style="fill:#31313D;" width="277.443" height="59.63"/>
</g>
<g>
	<rect x="117.283" y="43.2" style="fill:#1D1D28;" width="62.038" height="50.532"/>
	<rect x="117.283" y="418.269" style="fill:#1D1D28;" width="62.038" height="59.63"/>
</g>
<g>
	<rect x="85.109" y="7.604" style="fill:#515B68;" width="341.783" height="52.995"/>
	<rect x="85.109" y="451.402" style="fill:#515B68;" width="341.783" height="52.995"/>
</g>
<g>
	<rect x="85.109" y="7.604" style="fill:#3E4751;" width="67.848" height="52.995"/>
	<rect x="85.109" y="451.402" style="fill:#3E4751;" width="67.848" height="52.995"/>
</g>
<g>
	<rect x="306.632" y="7.604" style="fill:#7B8391;" width="67.848" height="52.995"/>
	<rect x="306.632" y="451.402" style="fill:#7B8391;" width="67.848" height="52.995"/>
</g>
<path d="M291.008,245.6c56.742-15.58,96.372-67.6,96.372-126.502v-17.763h7.341c4.199,0,7.604-3.405,7.604-7.604V68.202h24.567
	c4.199,0,7.604-3.405,7.604-7.604V7.604c0-4.199-3.405-7.604-7.604-7.604H85.109c-4.199,0-7.604,3.405-7.604,7.604v52.995
	c0,4.199,3.405,7.604,7.604,7.604h24.567v25.529c0,4.199,3.405,7.604,7.604,7.604h7.342v17.758
	c0,58.883,39.625,110.939,96.382,126.596c3.031,0.826,5.148,3.581,5.148,6.699c0,3.138-2.095,5.838-5.174,6.707
	c-56.734,15.674-96.357,67.697-96.357,126.507v25.064h-7.342c-4.199,0-7.604,3.405-7.604,7.604v25.529H85.109
	c-4.199,0-7.604,3.405-7.604,7.604v52.995c0,4.199,3.405,7.604,7.604,7.604h341.783c4.199,0,7.604-3.405,7.604-7.604v-52.995
	c0-4.199-3.405-7.604-7.604-7.604h-24.567v-25.529c0-4.199-3.405-7.604-7.604-7.604h-7.341v-25.064
	c0-15.519-2.649-30.606-7.887-44.958c-1.497-4.105-6.172-6.078-10.177-4.332l-0.003,0.001c-3.675,1.602-5.477,5.785-4.103,9.552
	c4.623,12.678,6.962,26.013,6.962,39.736v25.064h-15.998c-6.547-44.224-39.733-84.067-96.478-115.592
	c-2.297-1.276-5.089-1.275-7.386,0c-56.751,31.524-89.941,71.369-96.488,115.593h-15.993v-25.063
	c0-51.995,35.036-97.988,85.239-111.859c9.744-2.749,16.292-11.33,16.292-21.354c0-9.957-6.726-18.745-16.333-21.365
	c-50.163-13.838-85.197-59.865-85.197-111.929v-17.759h232.342v17.762c0,52.075-35.032,98.065-85.252,111.854
	c-9.735,2.761-16.277,11.343-16.277,21.357c0,10.035,6.535,18.646,16.338,21.445c25.091,6.886,47.035,21.988,62.484,42.855
	c2.399,3.24,6.887,4.079,10.267,1.883l0,0c3.664-2.381,4.593-7.366,1.994-10.879c-17.473-23.627-42.306-40.726-70.646-48.503
	c-3.129-0.894-5.232-3.628-5.232-6.801C285.851,249.171,287.948,246.468,291.008,245.6z M419.287,496.792H92.713v-37.787h24.567
	h277.44h24.567v37.787H419.287z M124.884,443.798v-17.925h262.232v17.925H124.884z M256.003,310.45
	c49.189,28.191,78.285,62.639,84.778,100.215H171.216C177.709,373.089,206.809,338.64,256.003,310.45z M204.965,60.6L204.965,60.6
	c0-4.2-3.405-7.604-7.604-7.604H92.713V15.208h326.575v37.787h-186.44c-4.199,0-7.604,3.405-7.604,7.604V60.6
	c0,4.199,3.405,7.604,7.604,7.604h154.269v17.925H124.884V68.202h72.478C201.562,68.202,204.965,64.798,204.965,60.6z"/>
<g>
</g>
<g>
</g>
<g>
</g>
<g>
</g>
<g>
</g>
<g>
</g>
<g>
</g>
<g>
</g>
<g>
</g>
<g>
</g>
<g>
</g>
<g>
</g>
<g>
</g>
<g>
</g>
<g>
</g>
</svg>
