<?xml version="1.0" encoding="iso-8859-1"?>
<!-- Generator: Adobe Illustrator 19.0.0, SVG Export Plug-In . SVG Version: 6.00 Build 0)  -->
<svg version="1.1" id="Capa_1" xmlns="http://www.w3.org/2000/svg" xmlns:xlink="http://www.w3.org/1999/xlink" x="0px" y="0px"
	 viewBox="0 0 512.002 512.002" style="enable-background:new 0 0 512.002 512.002;" xml:space="preserve">
<path style="fill:#15111F;" d="M288.309,478.686L288.309,478.686c0,14.201-11.513,25.714-25.714,25.714h-13.179
	c-14.201,0-25.714-11.512-25.714-25.714l0,0"/>
<path style="fill:#7E90A1;" d="M278.847,478.686h-45.682c-31.154,0-56.409-25.255-56.409-56.409v-35.527h158.501v35.527
	C335.256,453.43,310.001,478.686,278.847,478.686z"/>
<path style="fill:#637482;" d="M216.272,422.277v-35.528h-39.517v35.528c0,31.154,25.255,56.409,56.409,56.409h39.517
	C241.527,478.686,216.272,453.43,216.272,422.277z"/>
<path style="fill:#F8E800;" d="M420.36,147.223c0-90.77-73.584-139.619-164.355-139.619S91.651,56.452,91.651,147.223
	c0,43.801,17.135,83.599,45.066,113.059c18.186,19.181,30.033,43.485,33.197,69.726l6.841,56.743h158.501l6.841-56.743
	c3.164-26.24,15.011-50.545,33.197-69.726C403.225,230.821,420.36,191.024,420.36,147.223z"/>
<g>
	<path style="fill:#FEED97;" d="M91.651,147.223c0,43.801,17.135,83.598,45.066,113.059c18.186,19.181,30.033,43.485,33.197,69.726
		l6.841,56.743h21.587l-4.977-56.743c-2.301-26.24-10.922-50.545-24.154-69.726c-20.324-29.46-32.791-69.258-32.791-113.059
		c0-90.77,53.541-139.619,119.585-139.619C165.235,7.603,91.651,56.452,91.651,147.223z"/>
	<path style="fill:#FEED97;" d="M256.006,7.603c66.046,0,119.585,48.849,119.585,139.619c0,43.801-12.468,83.598-32.791,113.059
		c-13.232,19.181-21.853,43.485-24.154,69.726l-4.977,56.743h21.587l6.841-56.743c3.164-26.24,15.011-50.545,33.197-69.726
		c27.932-29.46,45.066-69.258,45.066-113.059C420.36,56.452,346.776,7.603,256.006,7.603z"/>
	<circle style="fill:#FEED97;" cx="337.696" cy="109.264" r="37.897"/>
</g>
<path d="M376.941,37.414C346.483,13.287,303.536,0,256.009,0c-69.827,0-126.653,28.046-153.883,75.451
	c-2.181,3.796-0.679,8.652,3.249,10.587l0.002,0.001c3.6,1.774,7.946,0.434,9.948-3.045c24.495-42.593,76.454-67.795,140.685-67.795
	c44.115,0,83.711,12.12,111.493,34.13c29.606,23.452,45.254,57.303,45.254,97.893c0,40.297-15.263,78.593-42.975,107.832
	c-19.714,20.78-31.896,46.385-35.228,74.047l-6.033,50.045h-35.585l23.061-125.161h7.948c12.31,0,22.709-9.712,22.914-22.02
	c0.212-12.653-10.126-22.99-22.779-22.779c-12.307,0.206-22.02,10.605-22.02,22.914v6.459c-10.158-0.825-25.347-3.661-33.2-11.36
	c-2.859-2.803-4.515-6.078-5.061-9.928l8.047-8.046c9.329-9.33,8.692-24.913-1.913-33.389c-8.077-6.456-19.779-6.456-27.856,0
	c-10.605,8.476-11.243,24.058-1.912,33.389l8.003,8.002c-0.54,3.875-2.198,7.164-5.069,9.972
	c-7.848,7.68-23.029,10.47-33.149,11.273V232.1c0-12.31-9.712-22.709-22.02-22.914c-12.653-0.212-22.99,10.126-22.779,22.779
	c0.206,12.308,10.605,22.02,22.914,22.02h8.015l23.044,125.161h-35.63l-6.041-50.044c-3.333-27.662-15.515-53.267-35.225-74.044
	c-27.715-29.242-42.978-67.539-42.978-107.835c0-11.656,1.287-22.834,3.83-33.326c0.949-3.915-1.306-7.89-5.16-9.064l0,0
	c-4.176-1.273-8.578,1.22-9.606,5.463c-2.831,11.672-4.263,24.057-4.263,36.928c0,44.203,16.743,86.213,47.148,118.294
	c17.449,18.391,28.224,41.008,31.164,65.405l6.79,56.243v35.113c0,29.548,20.129,54.471,47.391,61.808
	c2.588,15.809,16.339,27.914,32.869,27.914h13.179c16.53,0,30.281-12.105,32.869-27.914c27.262-7.337,47.391-32.26,47.391-61.808
	v-35.049l6.788-56.309c2.939-24.395,13.715-47.012,31.167-65.406c30.401-32.078,47.145-74.088,47.145-118.291
	C427.956,101.823,410.315,63.853,376.941,37.414z M327.656,410.204h-21.153c-4.197,0-7.6,3.403-7.6,7.6v0.001
	c0,4.197,3.403,7.6,7.6,7.6h21.042c-0.326,5.131-1.451,10.048-3.248,14.63H187.713c-1.797-4.583-2.921-9.499-3.248-14.63h86.572
	c4.197,0,7.6-3.403,7.6-7.6v-0.001c0-4.197-3.403-7.6-7.6-7.6h-86.683v-15.855h143.302V410.204z M317.26,231.583
	c0-3.971,3.23-7.202,7.202-7.202c3.971,0,7.202,3.23,7.202,7.202s-3.23,7.201-7.202,7.201h-7.202V231.583z M250.913,188.291
	c1.404-1.403,3.249-2.106,5.093-2.106s3.688,0.702,5.092,2.106c2.808,2.808,2.808,7.377,0,10.185l-5.092,5.092l-5.092-5.092
	C248.105,195.668,248.105,191.099,250.913,188.291z M194.751,238.785h-7.201c-3.971,0-7.202-3.23-7.202-7.201
	s3.23-7.202,7.202-7.202s7.201,3.23,7.201,7.202V238.785z M211.463,253.585c2.821-0.226,6.118-0.593,9.647-1.185
	c14.366-2.407,25.331-7.222,32.592-14.31c0.81-0.79,1.57-1.605,2.281-2.443c0.707,0.834,1.463,1.647,2.269,2.433
	c11.598,11.345,30.921,14.645,42.349,15.59l-23.118,125.476h-42.9L211.463,253.585z M262.596,496.801h-13.179
	c-7.273,0-13.543-4.319-16.423-10.519c0.057,0,0.113,0.004,0.17,0.004h45.682c0.057,0,0.113-0.004,0.17-0.004
	C276.138,492.482,269.869,496.801,262.596,496.801z M278.847,471.086h-45.682c-14.221,0-27.037-6.116-35.966-15.853h117.615
	C305.885,464.97,293.067,471.086,278.847,471.086z"/>
<g>
</g>
<g>
</g>
<g>
</g>
<g>
</g>
<g>
</g>
<g>
</g>
<g>
</g>
<g>
</g>
<g>
</g>
<g>
</g>
<g>
</g>
<g>
</g>
<g>
</g>
<g>
</g>
<g>
</g>
</svg>
