<?xml version="1.0" encoding="iso-8859-1"?>
<!-- Generator: Adobe Illustrator 19.0.0, SVG Export Plug-In . SVG Version: 6.00 Build 0)  -->
<svg version="1.1" id="Layer_1" xmlns="http://www.w3.org/2000/svg" xmlns:xlink="http://www.w3.org/1999/xlink" x="0px" y="0px"
	 viewBox="0 0 512 512" style="enable-background:new 0 0 512 512;" xml:space="preserve">
<circle style="fill:#F7B239;" cx="256.004" cy="256.004" r="246.855"/>
<path style="fill:#E09B2D;" d="M126.306,385.694c-88.801-88.802-95.798-228.426-20.998-325.242
	C97.023,66.853,89.051,73.85,81.45,81.45c-96.401,96.401-96.401,252.698,0,349.099s252.698,96.401,349.099,0
	c7.599-7.599,14.597-15.573,20.999-23.858C354.733,481.492,215.108,474.494,126.306,385.694z"/>
<g>
	<path style="fill:#F95428;" d="M353.569,137.751L353.569,137.751c-14.911-14.911-39.087-14.911-53.998,0l0,0
		c-14.911,14.911-14.911,39.087,0,53.998l0,0l53.998,53.998l53.998-53.998l0,0c14.911-14.911,14.911-39.087,0-53.998l0,0
		C392.656,122.839,368.48,122.839,353.569,137.751L353.569,137.751z"/>
	<path style="fill:#F95428;" d="M158.431,137.751L158.431,137.751c-14.911-14.911-39.087-14.911-53.998,0l0,0
		c-14.911,14.911-14.911,39.087,0,53.998l0,0l53.998,53.998l53.998-53.998l0,0c14.911-14.911,14.911-39.087,0-53.998l0,0
		C197.518,122.839,173.342,122.839,158.431,137.751L158.431,137.751z"/>
</g>
<path style="fill:#FFFFFF;" d="M131.567,281.654h248.868c0,13.968-2.306,27.4-6.551,39.941H138.118
	C133.872,309.053,131.567,295.622,131.567,281.654z"/>
<path style="fill:#A81004;" d="M138.118,321.594h235.765c-8.369,24.716-24.289,45.931-45.016,60.924
	c-8.71-14.676-24.716-24.509-43.027-24.509c-11.187,0-21.508,3.672-29.84,9.882c-8.332-6.21-18.665-9.882-29.852-9.882
	c-18.299,0-34.317,9.833-43.015,24.509C162.407,367.525,146.487,346.31,138.118,321.594z"/>
<path style="fill:#F95428;" d="M285.84,358.009c18.311,0,34.317,9.833,43.027,24.509c-20.483,14.834-45.662,23.569-72.867,23.569
	s-52.384-8.735-72.867-23.569c8.698-14.676,24.716-24.509,43.015-24.509c11.187,0,21.52,3.672,29.852,9.882
	C264.333,361.682,274.653,358.009,285.84,358.009z"/>
<path d="M255.999,512C114.841,512,0,397.159,0,255.999C0,114.841,114.841,0,255.999,0C397.159,0,512,114.841,512,255.999
	C512,397.159,397.159,512,255.999,512z M255.999,18.299c-131.068,0-237.7,106.632-237.7,237.7
	c0,131.069,106.632,237.702,237.7,237.702c131.069,0,237.702-106.632,237.702-237.702
	C493.701,124.932,387.068,18.299,255.999,18.299z"/>
<path d="M353.569,254.897c-2.341,0-4.683-0.893-6.469-2.68l-53.998-53.998c-8.94-8.94-13.863-20.826-13.863-33.469
	s4.924-24.529,13.863-33.469s20.826-13.863,33.469-13.863c9.794,0,19.132,2.953,27,8.441c7.867-5.487,17.206-8.441,26.999-8.441
	c12.643,0,24.529,4.924,33.469,13.863c18.454,18.455,18.454,48.483,0,66.938l-53.998,53.998
	C358.252,254.004,355.911,254.897,353.569,254.897z M326.569,135.717c-7.755,0-15.046,3.021-20.529,8.503
	c-5.484,5.484-8.504,12.774-8.504,20.529s3.021,15.046,8.504,20.529l47.529,47.529l47.529-47.529c11.32-11.32,11.32-29.738,0-41.059
	c-5.484-5.484-12.775-8.503-20.53-8.503s-15.046,3.021-20.529,8.503c-1.715,1.715-4.043,2.68-6.469,2.68
	c-2.426,0-4.753-0.964-6.469-2.68C341.616,138.736,334.324,135.717,326.569,135.717z"/>
<path d="M158.431,254.897c-2.341,0-4.683-0.893-6.469-2.68l-53.998-53.998c-18.454-18.455-18.454-48.483,0-66.938
	c8.94-8.94,20.826-13.863,33.469-13.863c9.792,0,19.132,2.953,26.998,8.441c7.867-5.487,17.206-8.441,27-8.441
	c12.642,0,24.529,4.924,33.469,13.863c18.455,18.454,18.455,48.483,0,66.938L164.9,252.216
	C163.114,254.004,160.772,254.897,158.431,254.897z M131.431,135.717c-7.755,0-15.046,3.021-20.529,8.503
	c-11.32,11.32-11.32,29.738,0,41.059l47.529,47.529l47.529-47.529c11.32-11.32,11.32-29.738,0-41.059
	c-5.484-5.484-12.775-8.503-20.53-8.503c-7.755,0-15.046,3.021-20.529,8.503c-1.715,1.715-4.043,2.68-6.469,2.68
	c-2.426,0-4.754-0.964-6.471-2.68C146.477,138.736,139.187,135.717,131.431,135.717z"/>
<path d="M256.001,415.237c-28.32,0-55.373-8.752-78.235-25.309c-22.673-16.401-39.381-39.017-48.314-65.4
	c-4.667-13.788-7.034-28.214-7.034-42.876c0-5.053,4.097-9.15,9.15-9.15h248.868c5.053,0,9.15,4.097,9.15,9.15
	c0,14.661-2.367,29.086-7.034,42.875c0,0,0,0,0,0.001c-8.934,26.382-25.643,48.998-48.319,65.402
	C311.372,406.486,284.32,415.237,256.001,415.237z M141.074,290.803c0.745,9.506,2.657,18.842,5.709,27.857
	c7.708,22.762,22.131,42.279,41.712,56.444c19.723,14.284,43.064,21.833,67.504,21.833s47.781-7.549,67.5-21.83
	c19.585-14.167,34.008-33.686,41.716-56.448v0.001c3.052-9.017,4.964-18.353,5.711-27.857H141.074V290.803z"/>
<rect x="138.122" y="312.451" width="235.765" height="18.299"/>
<path d="M321.787,388.567c-0.248-0.466-0.516-0.921-0.782-1.368c-7.339-12.364-20.811-20.04-35.166-20.04
	c-8.862,0-17.29,2.79-24.372,8.069c-3.244,2.418-7.691,2.418-10.934,0c-7.083-5.279-15.515-8.069-24.385-8.069
	c-14.357,0-27.824,7.673-35.145,20.024c-0.274,0.462-0.543,0.917-0.791,1.383l-16.161-8.583c0.387-0.73,0.801-1.446,1.219-2.146
	c10.59-17.868,30.09-28.977,50.878-28.977c10.629,0,20.83,2.772,29.852,8.066c9.02-5.296,19.216-8.066,29.84-8.066
	c20.78,0,40.284,11.108,50.896,28.988c0.41,0.689,0.825,1.405,1.213,2.135L321.787,388.567z"/>
<g>
</g>
<g>
</g>
<g>
</g>
<g>
</g>
<g>
</g>
<g>
</g>
<g>
</g>
<g>
</g>
<g>
</g>
<g>
</g>
<g>
</g>
<g>
</g>
<g>
</g>
<g>
</g>
<g>
</g>
</svg>
