<?xml version="1.0" encoding="iso-8859-1"?>
<!-- Generator: Adobe Illustrator 19.0.0, SVG Export Plug-In . SVG Version: 6.00 Build 0)  -->
<svg version="1.1" id="Capa_1" xmlns="http://www.w3.org/2000/svg" xmlns:xlink="http://www.w3.org/1999/xlink" x="0px" y="0px"
	 viewBox="0 0 512 512" style="enable-background:new 0 0 512 512;" xml:space="preserve">
<polygon style="fill:#764F43;" points="504.399,324.778 504.399,488.699 7.607,488.699 7.607,324.778 63.471,271.459 
	448.525,271.459 "/>
<polygon style="fill:#5B392F;" points="504.399,324.778 504.399,471.129 448.525,471.129 448.525,271.459 "/>
<path style="fill:#CA936C;" d="M7.604,324.775h170.109v33.784c0,43.237,35.05,78.287,78.287,78.287l0,0
	c43.237,0,78.287-35.05,78.287-78.287v-33.784h170.109V488.7H7.604V324.775z"/>
<path style="fill:#95C918;" d="M314.74,231.074c-0.001-0.002-41.156-214.431-238.693-207.617
	c30.522,10.374,137.387,71.851,135.636,190.161l-55.299-9.366l96.555,161.628l102.21-127.961L314.74,231.074z"/>
<path d="M509.645,319.282l0.004-0.005l-55.874-53.319c-1.414-1.35-3.295-2.103-5.25-2.103H344.164l16.789-21.018
	c1.334-1.67,2.028-3.808,1.737-5.926c-0.465-3.377-3.047-5.944-6.27-6.49l-35.361-5.99c-2.826-11.902-11.21-42.587-29.29-76.933
	c-1.971-3.744-6.659-5.107-10.355-3.048l-0.07,0.04c-3.602,2.007-4.912,6.519-2.991,10.169
	c21.626,41.085,28.62,76.305,28.922,77.859c0.289,1.488,1.016,2.86,2.089,3.932c1.116,1.116,2.551,1.857,4.107,2.12l27.681,4.689
	l-87.309,109.305l-82.478-138.064l39.049,6.613c3.037,0.516,6.165-0.847,7.839-3.652c0.699-1.172,1.018-2.536,1.036-3.9
	c0.727-52.076-19.273-100.752-57.846-140.778C144.442,55.142,126.3,41.733,110.817,32.28c29.93,3.277,57.379,12.393,81.926,27.248
	c25.144,15.216,47.396,36.485,66.227,63.285c2.36,3.359,6.953,4.248,10.375,1.979l0.073-0.049c3.532-2.342,4.472-7.147,2.036-10.615
	c-20.057-28.563-43.859-51.286-70.839-67.611C164.398,24.6,122.472,14.283,75.997,15.851c-3.288,0.111-6.274,2.23-7.223,5.381
	c-1.209,4.009,0.995,8.123,4.826,9.426c27.258,9.265,126.757,65.364,130.398,173.947l-46.344-7.849
	c-3.511-0.597-7.045,1.324-8.386,4.807c-0.856,2.222-0.522,4.731,0.699,6.775l33.166,55.519H63.472c-1.955,0-3.835,0.753-5.25,2.103
	l-55.864,53.32l0.001,0.001C0.908,320.663,0,322.612,0,324.775V488.7c0,4.199,3.405,7.604,7.604,7.604h120.185
	c4.177,0,7.562-3.386,7.562-7.563v-0.082c0-4.177-3.386-7.562-7.562-7.562H15.208V332.379h154.901v25.085
	c0,47.286,37.758,86.524,85.044,86.982c47.748,0.463,86.739-38.244,86.739-85.887v-26.18h154.901v148.717H163.194
	c-4.177,0-7.562,3.386-7.562,7.562v0.082c0,4.177,3.386,7.563,7.562,7.563h341.202c4.199,0,7.604-3.405,7.604-7.604V324.775
	C512,322.613,511.094,320.666,509.645,319.282z M456.133,289.229l29.28,27.942h-29.28V289.229z M55.867,317.171H26.591
	l29.276-27.943C55.867,289.228,55.867,317.171,55.867,317.171z M334.287,317.171c-4.199,0-7.604,3.405-7.604,7.604v33.784
	c0,38.975-31.708,70.683-70.683,70.683s-70.683-31.708-70.683-70.683v-33.784c0-4.199-3.405-7.604-7.604-7.604H71.075v-38.108
	h121.143l54.193,90.716c1.278,2.14,3.525,3.518,6.013,3.687c0.172,0.011,0.345,0.017,0.516,0.017c2.302,0,4.492-1.045,5.94-2.858
	l73.137-91.563h108.908v38.108H334.287z"/>
<g>
</g>
<g>
</g>
<g>
</g>
<g>
</g>
<g>
</g>
<g>
</g>
<g>
</g>
<g>
</g>
<g>
</g>
<g>
</g>
<g>
</g>
<g>
</g>
<g>
</g>
<g>
</g>
<g>
</g>
</svg>
