<?xml version="1.0" encoding="iso-8859-1"?>
<!-- Generator: Adobe Illustrator 19.0.0, SVG Export Plug-In . SVG Version: 6.00 Build 0)  -->
<svg version="1.1" id="Capa_1" xmlns="http://www.w3.org/2000/svg" xmlns:xlink="http://www.w3.org/1999/xlink" x="0px" y="0px"
	 viewBox="0 0 512 512" style="enable-background:new 0 0 512 512;" xml:space="preserve">
<path style="fill:#CC9D72;" d="M256.062,137.776c-108.587,23.404-177.075,56.691-204.698,71.98
	c-0.003,18.379-0.02,41.534-0.041,54.971l409.431-0.662c0.004-20.05,0.008-43.38,0.01-54.308
	C433.141,194.468,364.652,161.181,256.062,137.776z"/>
<g>
	<path style="fill:#C19067;" d="M126.197,175.721c-35.659,13.575-60.64,26.18-74.832,34.036c-0.003,18.379-0.02,41.534-0.041,54.971
		l74.834-0.121C126.175,242.774,126.191,206.82,126.197,175.721z"/>
	<path style="fill:#C19067;" d="M219.311,264.456l241.443-0.39c0-0.104,0-0.209,0-0.313L219.311,264.456z"/>
</g>
<path style="fill:#F4D44E;" d="M435.76,245.017c-0.436-0.808-19.43-19.297-21.902-55.54l0.189-0.946
	c-34.129-15.448-86.869-35.304-157.983-50.632c-71.114,15.327-123.857,35.179-157.983,50.629v1.819
	c-2.847,36.072-21.284,53.646-21.838,54.67c0,0.008-0.09-0.025-0.09,87.16c0,95.648,81.643,173.541,181.818,172.314
	c97.207-0.85,177.878-76.655,177.878-172.51C435.83,237.283,435.76,245.57,435.76,245.017z"/>
<path style="fill:#E8C842;" d="M126.157,332.177c0-65.852,0.051-128.721,0.076-155.553c-10.476,4.141-19.868,8.153-28.153,11.904
	v1.819c-2.847,36.072-21.284,53.646-21.838,54.67c0,0.008-0.09-0.025-0.09,87.16c0,103.653,95.419,185.197,204.778,170.696
	C193.513,491.274,126.157,419.052,126.157,332.177z"/>
<g>
	<path style="fill:#DBBC3B;" d="M467.64,272.975c0,15.384-15.438,27.853-31.792,27.853v-55.703
		C452.201,245.125,467.64,257.594,467.64,272.975z"/>
	<path style="fill:#DBBC3B;" d="M44.36,272.975c0,15.384,15.438,27.853,31.792,27.853v-55.703
		C59.799,245.125,44.36,257.594,44.36,272.975z"/>
</g>
<g>
	<path style="fill:#CCAF37;" d="M435.849,277.381v23.448c21.39,0,39.288-20.58,28.643-39.577
		C459.156,270.775,447.748,277.381,435.849,277.381z"/>
	<path style="fill:#CCAF37;" d="M47.509,261.252c-10.659,19.022,7.314,39.577,28.643,39.577v-23.448
		C64.253,277.381,52.844,270.775,47.509,261.252z"/>
</g>
<path style="fill:#CECECE;" d="M248.761,7.616C138.995,11.282,51.365,97.744,51.365,203.689c0,4.909-0.001,9.679-0.003,14.318
	c1.623-1.075,133.099-87.647,389.928-97.968C407.388,51.207,333.035,4.652,248.761,7.616z"/>
<path style="fill:#C1BEBC;" d="M233.869,8.635C131.176,19.223,51.365,102.582,51.365,203.689c0,4.909-0.001,9.679-0.003,14.318
	c0.707-0.469,26.087-17.177,75.749-36.734C133.634,106.528,175.098,42.62,233.869,8.635z"/>
<path style="fill:#DBDBDB;" d="M56.961,157.995c51.657-25.774,169.605-73.439,352.21-84.525
	C299.137-45.239,95.23,4.232,56.961,157.995z"/>
<path style="fill:#CECECE;" d="M233.635,8.775c-88.092,9.593-157.06,70.417-176.675,149.22
	c18.782-9.371,46.335-21.636,82.564-33.984C157.039,74.59,190.694,33.686,233.635,8.775z"/>
<path style="fill:#EAE9E8;" d="M86.539,93.699c53.17-22.608,141.715-51.612,264.994-63.605
	C260.782-15.899,145.989,9.664,86.539,93.699z"/>
<g>
	<path style="fill:#DBDBDB;" d="M171.994,63.634c16.923-22.344,37.853-41.059,61.642-54.859
		c-62.55,6.812-114.66,39.05-147.081,84.918C108.832,84.22,137.345,73.629,171.994,63.634z"/>
	<path style="fill:#DBDBDB;" d="M256.062,142.9c134.724,29.038,203.53,74.333,204.702,75.109
		c-0.012-22.517,1.175-55.999-19.488-97.967C369.79,122.914,308.029,131.699,256.062,142.9z"/>
</g>
<path style="fill:#EAE9E8;" d="M374.401,124.625c35.34,12.138,62.288,24.151,80.757,33.367c-3.181-12.809-7.835-25.634-13.895-37.95
	C417.937,120.98,395.653,122.55,374.401,124.625z"/>
<path style="fill:#656566;" d="M202.977,403.957c21.939,42.221,81.876,43.323,105.666,2.838c2.797-4.759-0.619-10.759-6.141-10.759
	h-94.71C203.727,396.036,201.103,400.349,202.977,403.957z"/>
<path style="fill:#4F4F51;" d="M227.92,403.957c-1.436-3.608,0.574-7.921,3.69-7.921h-23.816c-4.066,0-6.692,4.312-4.816,7.921
	c11.835,22.776,36.324,34.953,60.753,32.111C250.005,433.986,235.747,423.611,227.92,403.957z"/>
<circle style="fill:#656566;" cx="171.976" cy="290.456" r="23.122"/>
<path style="fill:#4F4F51;" d="M171.978,290.458c-4.278-7.41-3.982-16.2,0.002-23.117c-3.93-0.004-7.914,0.988-11.561,3.094
	c-11.058,6.385-14.846,20.524-8.463,31.582c6.385,11.058,20.524,14.846,31.582,8.463c3.648-2.106,6.5-5.059,8.461-8.465
	C184.016,302.006,176.255,297.868,171.978,290.458z"/>
<path style="fill:#DBBC3B;" d="M270.146,313.577h-28.292c-3.83,0-6.964,3.134-6.964,6.964v5.296c0,9.006,5.702,17.172,14.293,19.869
	c14.553,4.57,27.927-6.175,27.927-20.043v-5.123C277.11,316.711,273.976,313.577,270.146,313.577z"/>
<path style="fill:#CCAF37;" d="M256,320.542c0-3.83,3.134-6.964,6.964-6.964h-21.11c-3.83,0-6.964,3.134-6.964,6.964v5.296
	c0,16.925,18.108,25.838,31.549,18.175C253.538,336.684,256.355,322.283,256,320.542z"/>
<circle style="fill:#656566;" cx="340.021" cy="290.456" r="23.122"/>
<path style="fill:#4F4F51;" d="M340.025,267.341c-17.649-0.018-28.961,19.198-20.024,34.677
	c8.936,15.476,31.234,15.291,40.043-0.003C352.062,302.006,331.145,282.757,340.025,267.341z"/>
<path d="M431.455,88.944C355.701-17.848,196.899-30.492,103.621,61.971c-68.753,68.152-58.866,148.069-59.758,152.89
	c-0.005,13.97-0.02,26.751-0.037,38.321c-16.565,21.553-1.709,49.633,24.831,54.464c1.88,11.001-12.795,89.717,57.918,154.558
	c1.439,1.32,3.255,1.972,5.066,1.972c6.794,0,10.118-8.402,5.07-13.029c-34.216-31.374-53.06-73.626-53.06-118.971
	c0.021-37.405-0.011-77.314,0.051-84.403c0.844-1.359,18.332-18.832,21.603-49.278c47.758-21.15,99.856-36.814,150.891-47.884
	c27.247,5.927,53.808,12.972,78.964,20.964c3.942,1.254,8.165-0.929,9.419-4.877c1.255-3.947-0.929-8.165-4.877-9.419
	c-15.518-4.93-31.555-9.508-47.95-13.691c25.095-4.485,52.388-8.386,81.802-11.317c27.379,9.469,52.637,19.855,75.16,30.906
	c3.325,14.452,4.475,27.267,4.547,41.62c-14.026-7.886-40.67-21.51-79.89-35.982c-3.883-1.434-8.198,0.555-9.634,4.439
	c-1.434,3.886,0.554,8.2,4.439,9.634c14.62,5.395,27.46,10.682,38.501,15.577c3.254,30.453,20.769,47.94,21.619,49.31
	c0.058,4.913,0.018,1.909,0.05,84.403c0,132.605-152.903,207.305-264.799,139.122c-3.538-2.157-8.154-1.036-10.308,2.502
	c-2.155,3.537-1.035,8.152,2.502,10.308c70.586,43.011,168.066,37.471,232.943-24.964c67.165-64.638,52.782-140.131,54.658-151.498
	c26.521-4.828,41.34-32.834,24.911-54.365c0-1.419,0.01-48.627,0.01-49.592C468.266,162.407,455.53,122.706,431.455,88.944z
	 M321.805,25.831C230.766,37.09,160.367,57.36,111.106,75.819C164.639,20.386,247.21,0.547,321.805,25.831z M68.652,292.205
	c-9.429-2.848-16.791-10.736-16.791-19.23s7.362-16.38,16.791-19.229V292.205z M72.497,237.79
	c-4.836,0.423-9.447,1.677-13.654,3.593c0.007-6.116,0.013-12.526,0.017-19.229c4.817-2.934,14.792-8.7,29.963-16.035
	C84.327,225.09,72.968,237.082,72.497,237.79z M58.866,204.799c0.196-4.679-0.459-19.672,4.548-41.623
	c22.331-10.957,47.387-21.278,74.549-30.696c3.914-1.357,5.987-5.63,4.629-9.544c-1.357-3.913-5.627-5.989-9.544-4.629
	c-22.915,7.946-44.396,16.533-64.072,25.608c5.507-15.804,13.123-30.609,22.491-44.151c52.03-21.914,138.482-50.041,258.478-61.968
	c15.352,7.95,29.478,17.742,42.171,29.306c-80.334,5.959-156.086,19.507-225.397,40.327c-3.968,1.191-6.219,5.373-5.025,9.341
	c1.191,3.969,5.375,6.222,9.341,5.025c71.95-21.612,151.021-35.256,235.052-40.601c9.236,10.324,16.857,21.121,23.015,31.888
	C305.574,119.277,161.017,147.391,58.866,204.799z M408.864,129.311c9.438-0.643,19.465-1.195,27.762-1.563
	c2.381,5.203,4.552,10.539,6.514,16.161C432.241,138.882,420.794,134.007,408.864,129.311z M439.506,237.79
	c-0.707-1.063-11.73-12.28-16.322-31.683c15.154,7.331,25.234,13.13,30.077,16.059c-0.001,5.571-0.002,12.117-0.004,19.263
	C449.023,239.487,444.379,238.217,439.506,237.79z M443.349,292.205v-38.457c9.429,2.848,16.79,10.735,16.79,19.229
	S452.778,289.358,443.349,292.205z"/>
<path d="M196.321,407.415l0.001,0.002c24.446,47.056,91.729,49.223,118.788,3.179c5.742-9.767-1.288-22.06-12.606-22.06h-94.71
	C198.096,388.536,191.855,398.818,196.321,407.415z M301.854,403.537c-20.666,34.204-70.505,33.348-90.514,0H301.854z"/>
<path d="M234.891,306.077c-4.143,0-7.501,3.357-7.501,7.501v12.087c0,15.775,12.834,28.61,28.61,28.61s28.611-12.834,28.611-28.61
	v-12.087c0-4.143-3.357-7.501-7.501-7.501s-7.501,3.357-7.501,7.501v12.087c0,7.504-6.105,13.608-13.609,13.608
	c-7.504,0-13.608-6.105-13.608-13.608v-12.087C242.391,309.435,239.034,306.077,234.891,306.077z"/>
<path d="M340.023,259.837c-16.885,0-30.62,13.735-30.62,30.62c0,16.885,13.735,30.621,30.62,30.621
	c16.884,0,30.62-13.736,30.62-30.621C370.643,273.572,356.908,259.837,340.023,259.837z M340.023,306.077
	c-8.612,0-15.618-7.007-15.618-15.619c0-8.612,7.007-15.618,15.618-15.618c8.612,0,15.618,7.007,15.618,15.618
	C355.642,299.071,348.636,306.077,340.023,306.077z"/>
<path d="M171.978,321.079c16.885,0,30.62-13.736,30.62-30.621c0-16.885-13.735-30.62-30.62-30.62s-30.621,13.735-30.621,30.62
	C141.357,307.342,155.093,321.079,171.978,321.079z M171.978,274.839c8.612,0,15.618,7.007,15.618,15.618
	c0,8.613-7.007,15.619-15.618,15.619c-8.613,0-15.619-7.007-15.619-15.619C156.359,281.845,163.365,274.839,171.978,274.839z"/>
<path d="M380.164,250.186c-23.182-19.4-57.042-19.448-80.28,0c-3.177,2.659-3.597,7.39-0.938,10.566
	c2.66,3.177,7.39,3.596,10.566,0.938c17.652-14.773,43.397-14.753,61.025,0c1.404,1.175,3.111,1.748,4.81,1.748
	C382.356,263.44,385.496,254.65,380.164,250.186z"/>
<path d="M212.119,250.186c-23.275-19.478-57.135-19.372-80.28,0.001c-3.177,2.658-3.597,7.39-0.938,10.565
	c2.658,3.177,7.391,3.598,10.565,0.938c17.651-14.772,43.397-14.752,61.025,0.001c3.169,2.651,7.902,2.246,10.566-0.938
	C215.716,257.575,215.296,252.846,212.119,250.186z"/>
<g>
</g>
<g>
</g>
<g>
</g>
<g>
</g>
<g>
</g>
<g>
</g>
<g>
</g>
<g>
</g>
<g>
</g>
<g>
</g>
<g>
</g>
<g>
</g>
<g>
</g>
<g>
</g>
<g>
</g>
</svg>
