<?xml version="1.0" encoding="iso-8859-1"?>
<!-- Generator: Adobe Illustrator 19.0.0, SVG Export Plug-In . SVG Version: 6.00 Build 0)  -->
<svg version="1.1" id="Capa_1" xmlns="http://www.w3.org/2000/svg" xmlns:xlink="http://www.w3.org/1999/xlink" x="0px" y="0px"
	 viewBox="0 0 511.998 511.998" style="enable-background:new 0 0 511.998 511.998;" xml:space="preserve">
<path style="fill:#5085BA;" d="M395.396,475.631c0.871,0,1.721,0.091,2.551,0.243l-9.671-454.35
	c-0.168-7.846-6.577-14.12-14.426-14.12c-6.703,0-231.041,0-237.712,0c-8.067,0-14.655,6.448-14.828,14.513l-9.678,454.633
	c1.55-0.584,3.22-0.92,4.969-0.92c109.264,0.377,104.614-0.919,109.447,1.03c3.272-70.839,10.991-243.793,10.991-270.381
	c0-14.004,3.059-24.642,6.637-32.295c4.445-9.508,17.792-9.508,22.238,0c3.579,7.654,6.638,18.293,6.638,32.295
	c0,26.742,7.809,201.508,11.048,271.596C290.08,473.726,287.691,476.449,395.396,475.631z"/>
<g>
	<path style="fill:#3A77AA;" d="M146.345,21.918c0.173-8.065,6.76-14.513,14.828-14.513c-14.359,0-23.748,0-25.035,0
		c-8.067,0-14.655,6.447-14.828,14.513l-9.678,454.633c3.248-1.224,3.069-0.907,25.053-0.866L146.345,21.918z"/>
	<path style="fill:#3A77AA;" d="M296.332,191.378c-6.799-32.514-42.571-24.477-42.571-24.477l0.006,0.021
		c4.778-0.396,9.754,1.94,12.149,7.062c5.162,11.04,6.556,21.405,6.643,33.53l0,0c0.216,30.447,7.85,201.267,11.043,270.362
		c3.721-2.383,4.525-2.5,24.928-2.322C294.487,171.134,298.72,204.995,296.332,191.378z"/>
	<path style="fill:#3A77AA;" d="M121.31,21.918l-0.745,34.753h268.463l-0.753-35.147c-0.168-7.846-6.577-14.12-14.426-14.12
		c-6.703,0-231.041,0-237.712,0C128.07,7.405,121.483,13.852,121.31,21.918z"/>
</g>
<g>
	<path style="fill:#2B709E;" d="M145.605,56.671l0.74-34.753c0.173-8.065,6.76-14.513,14.828-14.513c-14.359,0-23.748,0-25.035,0
		c-8.064,0-14.655,6.444-14.828,14.513l-0.74,34.753H145.605z"/>
	<rect x="173.706" y="7.405" style="fill:#2B709E;" width="31.963" height="49.262"/>
	<rect x="303.922" y="7.405" style="fill:#2B709E;" width="31.963" height="49.262"/>
</g>
<g>
	<path style="fill:#9CD7F2;" d="M234.985,486.837v3.551c0,7.813-6.393,14.206-14.207,14.206H116.601
		c-7.813,0-14.206-6.392-14.206-14.206v-3.551c0-7.813,6.392-14.206,14.206-14.206h104.178
		C228.593,472.63,234.985,479.023,234.985,486.837z"/>
	<path style="fill:#9CD7F2;" d="M409.602,486.837v3.551c0,7.813-6.392,14.206-14.206,14.206H291.218
		c-7.813,0-14.206-6.392-14.206-14.206v-3.551c0-7.813,6.392-14.206,14.206-14.206h104.179
		C403.21,472.63,409.602,479.023,409.602,486.837z"/>
</g>
<g>
	<path style="fill:#71C5DB;" d="M121.403,490.388v-3.551c0-7.813,6.392-14.207,14.206-14.207H116.6
		c-7.813,0-14.206,6.393-14.206,14.207v3.551c0,7.813,6.392,14.206,14.206,14.206h19.009
		C127.796,504.594,121.403,498.201,121.403,490.388z"/>
	<path style="fill:#71C5DB;" d="M296.02,490.388v-3.551c0-7.813,6.392-14.207,14.206-14.207h-19.009
		c-7.813,0-14.206,6.393-14.206,14.207v3.551c0,7.813,6.392,14.206,14.206,14.206h19.009
		C302.413,504.594,296.02,498.201,296.02,490.388z"/>
</g>
<path style="fill:#3A77AA;" d="M253.761,56.671v110.231l22.279-21.399c4.228-4.061,6.618-9.671,6.618-15.535V56.671H253.761z"/>
<g>
	<polygon style="fill:#2B709E;" points="335.89,56.671 390.529,126.712 389.028,56.671 	"/>
	<polygon style="fill:#2B709E;" points="173.703,56.671 119.064,126.712 120.565,56.671 	"/>
</g>
<polygon style="fill:#23688E;" points="119.08,126.692 144.817,93.7 145.605,56.671 120.57,56.671 "/>
<path d="M255.832,24.63h-2.07c-4.143,0-7.5,3.357-7.5,7.5s3.357,7.5,7.5,7.5h2.07c4.143,0,7.5-3.357,7.5-7.5
	S259.974,24.63,255.832,24.63z"/>
<path d="M405.277,467.466l-0.775-36.176c-0.089-4.141-3.498-7.459-7.659-7.337c-4.141,0.089-7.426,3.518-7.337,7.658l0.716,33.435
	c-103.885,0.002-99.086-0.006-99.573,0.007c-3.509-76.226-10.602-233.417-10.602-258.75c0-12.189-3.206-34.315-12.472-42.231
	l13.653-13.113c5.669-5.445,8.921-13.078,8.921-20.939V64.254c8.145,0,33.813,0,42.048,0l50.833,65.164l5.726,267.194
	c0.086,4.072,3.432,7.412,7.659,7.337c4.141-0.089,7.426-3.518,7.337-7.659c-1.167-54.477-7.745-361.399-8.032-374.829
	c-0.254-11.86-10.114-21.454-21.919-21.454c-255.03,0-237.849-0.039-239.288,0.07c-11.434,0.863-20.405,10.438-20.649,21.776
	l-2.73,127.425c-0.09,4.204,3.292,7.661,7.501,7.661c4.067,0,7.408-3.253,7.495-7.339l0.433-20.183l50.833-65.164
	c12.643,0,52.836,0,68.864,0v97.066c-4.037,1.932-7.365,5.228-9.372,9.522c-4.871,10.416-7.341,22.347-7.341,35.461
	c0,25.406-7.129,183.333-10.602,258.743h-50.442c-4.143,0-7.5,3.357-7.5,7.5s3.357,7.5,7.5,7.5
	c54.368,0.163,52.482-0.388,54.664,0.442c5.73,2.395,4.039,8.144,4.325,9.808c0,3.694-3.005,6.699-6.699,6.699H116.656
	c-3.694,0-6.699-3.005-6.699-6.699c0.251-1.306-1.327-7.366,4.041-9.697c3.511-1.135,2.848-0.183,19.504-0.553
	c4.143,0,7.5-3.357,7.5-7.5s-3.357-7.5-7.5-7.5h-14.13l6.009-280.446c0.089-4.142-3.196-7.57-7.337-7.659
	c-4.133-0.04-7.57,3.196-7.659,7.337l-6.1,284.655c-11.26,7.844-9.087,20.225-9.328,21.364c0,11.966,9.734,21.7,21.7,21.7h104.138
	c11.966,0,21.7-9.734,21.7-21.7c-0.254-1.257,1.869-13.012-8.73-20.938c3.41-73.951,10.785-236.929,10.785-263.056
	c0-10.9,1.995-20.694,5.929-29.106c1.697-3.63,6.838-3.849,8.639,0c3.935,8.414,5.93,18.207,5.93,29.106
	c0,26.28,7.465,191.126,10.875,265.053c-7.998,7.942-6.16,17.361-6.419,18.942c0,11.967,9.734,21.701,21.701,21.701h104.137
	c11.967,0,21.701-9.734,21.701-21.701C416.801,489.338,419.214,474.677,405.277,467.466z M382.492,104.34L351.22,64.254h30.412
	C382.535,106.334,382.485,104.055,382.492,104.34z M343.358,15.007c31.758,0.048,30.568-0.116,31.81,0.138
	c3.099,0.633,5.484,3.368,5.554,6.637c0.149,6.953,0.448,20.893,0.589,27.47h-37.954L343.358,15.007L343.358,15.007z
	 M127.101,104.34l0.858-40.087h30.412L127.101,104.34z M166.235,49.253h-37.953c0.64-29.878,0.08-28.997,2.316-31.634
	c1.103-1.302,2.623-2.177,4.249-2.482c1.303-0.246,0.08-0.082,31.387-0.129L166.235,49.253L166.235,49.253z M311.407,15.007h16.951
	v34.246h-16.951V15.007z M198.187,49.253h-16.951V15.007h16.951V49.253z M213.187,49.253V15.007h83.219v34.246
	C277.895,49.253,229.471,49.253,213.187,49.253z M261.261,149.337V64.254h13.887v65.768
	C275.148,139.063,267.604,142.251,261.261,149.337z M402.041,490.298c0,3.694-3.006,6.7-6.7,6.7H291.204c-3.694,0-6.7-3.006-6.7-6.7
	c0.265-1.799-1.097-6.316,2.917-9.074c1.149-0.686,2.269-1.176,3.784-1.176c111.257,0.042,104.104-0.107,105.331,0.12
	c3.281,0.602,5.506,3.421,5.506,6.58L402.041,490.298L402.041,490.298z"/>
<g>
</g>
<g>
</g>
<g>
</g>
<g>
</g>
<g>
</g>
<g>
</g>
<g>
</g>
<g>
</g>
<g>
</g>
<g>
</g>
<g>
</g>
<g>
</g>
<g>
</g>
<g>
</g>
<g>
</g>
</svg>
