<?xml version="1.0" encoding="iso-8859-1"?>
<!-- Generator: Adobe Illustrator 19.0.0, SVG Export Plug-In . SVG Version: 6.00 Build 0)  -->
<svg version="1.1" id="Capa_1" xmlns="http://www.w3.org/2000/svg" xmlns:xlink="http://www.w3.org/1999/xlink" x="0px" y="0px"
	 viewBox="0 0 512.002 512.002" style="enable-background:new 0 0 512.002 512.002;" xml:space="preserve">
<path style="fill:#2F2E36;" d="M450.488,153.054c-4.395-4.395-9.19-8.267-14.335-11.563c4.169-2.629,8.061-5.719,11.573-9.23
	c26.647-26.647,26.647-70.012,0-96.657c-26.647-26.647-70.011-26.647-96.657,0c-3.512,3.512-6.603,7.392-9.231,11.573
	c-3.306-5.145-7.167-9.95-11.562-14.335c-33.527-33.527-88.063-33.527-121.589-0.01c-33.516,33.526-33.516,88.073,0,121.589
	c22.088,22.088,53.273,29.542,81.583,22.528l-44.175,44.176l-4.775-4.775c-6.469-6.469-16.964-6.469-23.433,0
	s-6.469,16.964,0,23.433l4.775,4.774L36.369,430.847l16.111,16.111l44.627-44.627l20.516,20.527l-27.879,27.888l53.54,53.55
	l27.889-27.889l-32.356-32.356l25.661-25.651l32.356,32.346l27.879-27.888l-53.54-53.541l-27.889,27.879l-20.527-20.516
	l116.014-116.023l4.775,4.774c6.469,6.469,16.953,6.469,23.422,0c6.469-6.469,6.469-16.953,0-23.422l-4.765-4.775l44.175-44.175
	c-7.013,28.309,0.442,59.495,22.519,81.572c33.527,33.527,88.073,33.527,121.589,0C484.014,241.117,484.014,186.571,450.488,153.054
	z M434.375,258.522c-24.634,24.644-64.722,24.644-89.367,0.01c-24.634-24.644-24.634-64.733,0.01-89.367
	c5.052-5.062,8.081-10.894,8.759-16.892c0.729-6.428-1.355-12.63-5.73-16.994c-7.66-7.671-21.759-9.088-33.886,3.029
	c-24.634,24.644-64.722,24.644-89.367,0c-24.634-24.634-24.634-64.722,0-89.367c24.634-24.633,64.733-24.633,89.367,0
	c9.098,9.098,15.126,20.588,17.436,33.239c1.037,5.648,6.12,9.643,11.86,9.324c5.73-0.339,10.33-4.878,10.71-10.618
	c0.534-7.896,3.214-19.377,13.01-29.173c17.764-17.765,46.67-17.765,64.435,0s17.764,46.67,0,64.435
	c-9.796,9.796-21.266,12.476-29.173,13.01c-5.73,0.37-10.289,4.97-10.618,10.71c-0.329,5.73,3.666,10.813,9.314,11.861
	c12.661,2.321,24.152,8.348,33.239,17.435C459.02,193.8,459.02,233.888,434.375,258.522z"/>
<path d="M455.933,147.609c-2.171-2.17-4.439-4.229-6.791-6.165c1.39-1.197,2.736-2.444,4.029-3.738
	c29.65-29.651,29.65-77.897,0-107.548c-14.343-14.342-33.44-22.241-53.775-22.241c-20.335,0-39.432,7.899-53.775,22.241
	c-1.295,1.295-2.541,2.639-3.738,4.028c-1.946-2.367-4.004-4.636-6.164-6.791c-36.524-36.524-95.954-36.527-132.481-0.009
	c-36.52,36.529-36.519,95.96,0,132.481c17.816,17.815,41.352,27.384,65.83,27.389l-22.99,22.991
	c-9.508-8.8-24.403-8.582-33.64,0.657c-4.584,4.584-7.109,10.678-7.109,17.163c0,6.166,2.284,11.98,6.45,16.478l-30.647,30.647
	c-3.008,3.008-3.008,7.884,0,10.891l0.001,0.001c3.008,3.008,7.884,3.008,10.892,0l36.079-36.08c3.008-3.009,3.008-7.884,0-10.892
	l-4.554-4.554c-1.591-1.591-2.661-3.677-2.8-5.922c-0.16-2.58,0.771-5.033,2.579-6.839c1.808-1.809,4.262-2.74,6.842-2.578
	c2.244,0.14,4.33,1.211,5.92,2.8l4.428,4.428c0.759,0.759,1.639,1.405,2.634,1.806c2.992,1.205,6.248,0.453,8.383-1.681
	l44.175-44.176c2.445-2.446,2.96-6.223,1.26-9.233c-1.7-3.011-5.203-4.516-8.558-3.688c-26.99,6.691-54.762-0.976-74.284-20.499
	c-30.516-30.515-30.516-80.174-0.001-110.698c30.52-30.512,80.181-30.509,110.705,0.016c3.934,3.925,7.461,8.293,10.485,12.986
	c1.433,2.225,3.87,3.598,6.517,3.598h0.038c2.597,0,5.042-1.303,6.42-3.504c2.339-3.737,5.105-7.211,8.219-10.323
	c23.645-23.647,62.12-23.647,85.766,0c23.645,23.644,23.645,62.119,0,85.765c-3.004,3.005-6.366,5.699-9.995,8.01
	c-1.558,0.992-2.837,2.415-3.423,4.167c-1.163,3.486,0.231,7.122,3.137,8.983c4.653,2.982,9.042,6.524,13.044,10.525
	c14.76,14.756,22.888,34.41,22.888,55.343s-8.129,40.587-22.89,55.344c-14.756,14.76-34.411,22.889-55.344,22.889
	s-40.592-8.129-55.352-22.89c-19.517-19.516-27.177-47.282-20.489-74.274c0.832-3.358-0.677-6.857-3.688-8.558
	c-3.013-1.7-6.786-1.186-9.233,1.26l-44.175,44.175c-3.005,3.006-3.008,7.877-0.006,10.886l4.771,4.782
	c1.675,1.674,2.596,3.899,2.596,6.266c0,2.45-0.989,4.75-2.779,6.442c-3.52,3.327-9.129,3.042-12.553-0.383l-4.439-4.439
	c-0.759-0.759-1.638-1.406-2.633-1.808c-2.992-1.209-6.254-0.458-8.389,1.679L117.311,371.238c-2.135,2.135-2.886,5.395-1.679,8.386
	c0.401,0.995,1.048,1.874,1.807,2.632l20.401,20.391c3.007,3.007,7.881,3.005,10.889,0l22.443-22.437l42.65,42.651l-16.99,16.996
	l-26.91-26.901c-3.009-3.007-7.882-3.007-10.89,0l-25.66,25.651c-1.444,1.445-2.256,3.403-2.256,5.446s0.811,4.002,2.255,5.447
	l26.911,26.91l-16.998,16.999l-9.111-9.111c-3.008-3.008-7.884-3.008-10.892,0l-0.001,0.001c-3.008,3.008-3.008,7.884,0,10.891
	l14.557,14.557c1.504,1.503,3.476,2.255,5.446,2.255c1.971,0,3.942-0.752,5.446-2.255l27.889-27.889
	c3.008-3.009,3.008-7.884,0-10.892l-26.91-26.909l14.768-14.763l26.912,26.902c1.445,1.445,3.404,2.255,5.446,2.255
	s4.002-0.812,5.446-2.256l27.878-27.888c3.007-3.009,3.006-7.884-0.001-10.89l-53.54-53.542c-3.009-3.007-7.883-3.006-10.891-0.001
	l-22.444,22.438l-9.635-9.63l105.134-105.147c9.506,8.798,24.396,8.576,33.63-0.658c9.235-9.235,9.454-24.127,0.663-33.625
	l22.995-22.994c0.003,24.478,9.569,48.009,27.379,65.82c17.67,17.669,41.196,27.4,66.245,27.4c25.05,0,48.573-9.731,66.236-27.4
	c17.67-17.664,27.402-41.187,27.402-66.236C483.333,188.796,473.602,165.273,455.933,147.609z"/>
<path d="M123.07,428.305c3.006-3.008,3.006-7.882,0-10.889l-20.516-20.528c-1.444-1.445-3.403-2.256-5.445-2.256h-0.001
	c-2.042,0-4.001,0.811-5.446,2.255L52.48,436.069l-5.221-5.221l119.375-119.373c3.008-3.008,3.008-7.884,0-10.892l-0.001-0.001
	c-3.008-3.008-7.884-3.008-10.891,0L30.923,425.402c-1.444,1.445-2.255,3.403-2.255,5.446s0.811,4.001,2.255,5.446l16.111,16.111
	c3.009,3.007,7.884,3.007,10.892,0l39.179-39.179l9.628,9.634l-22.437,22.443c-3.006,3.008-3.006,7.882,0,10.889l13.583,13.59
	c3.007,3.009,7.883,3.01,10.892,0.003l0,0c3.009-3.007,3.01-7.883,0.003-10.891l-8.141-8.146L123.07,428.305z"/>
<path d="M402.951,136.839c9.224-0.619,22.631-3.766,34.11-15.245c20.767-20.768,20.767-54.56-0.001-75.329
	c-20.768-20.768-54.561-20.765-75.328,0c-11.484,11.485-14.63,24.888-15.247,34.115c-0.122,1.849-1.614,3.323-3.469,3.43
	c-1.868,0.129-3.505-1.192-3.839-3.018c-2.597-14.192-9.363-27.088-19.568-37.29c-13.371-13.372-31.173-20.735-50.13-20.735
	c-18.955,0-36.758,7.364-50.127,20.732c-27.642,27.643-27.643,72.619-0.002,100.26c13.371,13.372,31.174,20.735,50.13,20.735
	c18.956-0.001,36.759-7.365,50.131-20.735c8.943-8.945,18.188-7.842,22.994-3.037c2.704,2.704,3.988,6.601,3.525,10.687
	c-0.483,4.242-2.751,8.497-6.562,12.307c-13.371,13.372-20.735,31.174-20.735,50.13c-0.001,18.956,7.363,36.758,20.732,50.129
	c13.821,13.82,31.974,20.73,50.128,20.73c18.154,0,36.31-6.911,50.131-20.731c13.371-13.371,20.733-31.172,20.733-50.127
	c0-18.957-7.364-36.759-20.734-50.129c-10.193-10.195-23.088-16.96-37.291-19.567c-1.828-0.335-3.127-1.987-3.02-3.838
	C399.62,138.455,401.095,136.962,402.951,136.839z M399.751,159.3c11.118,2.039,21.208,7.333,29.182,15.307
	c10.462,10.462,16.223,24.396,16.223,39.238c0,14.841-5.761,28.774-16.222,39.235c-10.462,10.463-24.397,16.225-39.239,16.225
	c-14.841,0-28.775-5.761-39.238-16.223c-10.462-10.462-16.222-24.395-16.221-39.236c0-14.842,5.762-28.776,16.225-39.239
	c6.299-6.3,10.093-13.72,10.974-21.463c0.994-8.776-1.899-17.274-7.937-23.315c-5.224-5.223-12.467-8.169-20.003-8.169
	c-0.323,0-0.649,0.005-0.973,0.016c-5.954,0.2-14.915,2.304-23.801,11.189c-10.462,10.463-24.398,16.225-39.239,16.225
	c-14.841,0-28.776-5.762-39.238-16.224c-10.462-10.462-16.223-24.396-16.223-39.237c0-14.842,5.762-28.776,16.225-39.24
	c10.461-10.461,24.394-16.221,39.235-16.221c14.842,0,28.776,5.762,39.239,16.224c7.982,7.982,13.276,18.069,15.307,29.173
	c1.733,9.454,10.258,16.191,19.872,15.623c9.603-0.55,17.323-8.198,17.957-17.785c0.44-6.587,2.667-16.142,10.77-24.244
	c14.76-14.764,38.781-14.763,53.545-0.001c14.762,14.763,14.763,38.784,0,53.546c-8.099,8.099-17.656,10.326-24.241,10.768
	c-9.59,0.635-17.238,8.353-17.791,17.956C383.585,149.02,390.298,157.563,399.751,159.3z"/>
<g>
</g>
<g>
</g>
<g>
</g>
<g>
</g>
<g>
</g>
<g>
</g>
<g>
</g>
<g>
</g>
<g>
</g>
<g>
</g>
<g>
</g>
<g>
</g>
<g>
</g>
<g>
</g>
<g>
</g>
</svg>
