<?xml version="1.0" encoding="iso-8859-1"?>
<!-- Generator: Adobe Illustrator 19.0.0, SVG Export Plug-In . SVG Version: 6.00 Build 0)  -->
<svg version="1.1" id="Capa_1" xmlns="http://www.w3.org/2000/svg" xmlns:xlink="http://www.w3.org/1999/xlink" x="0px" y="0px"
	 viewBox="0 0 512.001 512.001" style="enable-background:new 0 0 512.001 512.001;" xml:space="preserve">
<path style="fill:#DBDBDB;" d="M208.705,10.286l47.296,58.826l0,0l0,0l0,0C305.154,9.095,302.733,8.65,307.649,7.585H203.154
	C205.215,7.701,207.232,8.61,208.705,10.286z"/>
<path style="fill:#CECECE;" d="M238.698,7.586h-35.544c2.061,0.115,4.078,1.024,5.551,2.7l47.296,58.826l17.567-21.839
	L238.698,7.586z"/>
<path style="fill:#F4A32C;" d="M456.411,292.922l-23.637-176.099c-3.212-23.93-17.78-45.122-39.506-57.469l-63.942-36.341
	L314.364,9.382c-3.136-2.857-8.004-2.586-10.803,0.6L256,64.118l-47.295-53.831c-2.946-3.353-8.069-3.638-11.368-0.632
	l-14.663,13.358l-63.942,36.342c-21.727,12.347-36.295,33.54-39.506,57.469L55.589,292.922c-2.247,16.734,9.81,32.157,27.265,34.877
	l75.907,11.829c0,44.892,0,107.462,0,152.299c0,6.855,5.879,12.464,13.067,12.464c18.978,0,148.348,0,168.346,0
	c7.186,0,13.067-5.609,13.067-12.464v-88.332c0-7.76,0-56.148,0-63.967l75.907-11.829C446.6,325.08,458.657,309.657,456.411,292.922
	z"/>
<g>
	<path style="fill:#ED9015;" d="M87.552,299.944l23.637-205.067c2.194-16.344,9.688-31.408,21.14-43.252
		c-4.955,4.098-46.824,18.42-53.104,65.198L55.588,292.922c-2.247,16.734,9.811,32.158,27.265,34.878l20.876,3.253
		C92.573,324.921,85.824,312.824,87.552,299.944z"/>
	<path style="fill:#ED9015;" d="M162.404,116.229L162.404,116.229c-2.012,0-3.643,1.631-3.643,3.643v372.066
		c0.005,6.85,5.882,12.455,13.067,12.455c2.574,0,7.192,0,13.279,0V138.932C185.106,126.393,174.942,116.229,162.404,116.229z"/>
</g>
<path style="fill:#F9C85D;" d="M340.173,477.422c-20.465,0-147.836,0-168.347,0c-7.186,0-13.067-5.609-13.067-12.464v26.97
	c0,6.855,5.88,12.464,13.067,12.464c20.465,0,147.836,0,168.347,0c7.186,0,13.067-5.609,13.067-12.464v-26.97
	C353.239,471.813,347.359,477.422,340.173,477.422z"/>
<path style="fill:#F9BB4B;" d="M185.106,491.928v-14.506c-5.963,0-10.565,0-13.279,0c-7.186,0-13.067-5.609-13.067-12.464v26.97
	c0,6.855,5.879,12.464,13.067,12.464c4.453,0,13.972,0,26.346,0C190.986,504.392,185.106,498.783,185.106,491.928z"/>
<path style="fill:#F9C85D;" d="M158.761,312.659L82.854,300.83c-12.156-1.894-21.687-9.953-25.599-20.322l-1.666,12.414
	c-2.247,16.734,9.81,32.157,27.265,34.877l75.907,11.829V312.659z"/>
<path style="fill:#F9BB4B;" d="M57.255,280.508c0.129,6.421-7.574,23.855,7.596,38.451c9.349,8.996,18.392,8.901,38.879,12.094
	c-10.694-5.879-17.316-17.239-16.326-29.514C86.16,301.034,64.967,300.95,57.255,280.508z"/>
<path style="fill:#F9C85D;" d="M454.745,280.508c-3.912,10.37-13.443,18.428-25.599,20.322l-75.907,11.829v26.97l75.907-11.829
	c17.455-2.72,29.511-18.144,27.265-34.878L454.745,280.508z"/>
<path style="fill:#F9BB4B;" d="M256,64.118L256,64.118l-47.295-53.831c-2.946-3.352-8.067-3.637-11.366-0.633
	c-1.718,1.557,5.841-5.292-14.88,13.482l54.773,62.344L256,64.118L256,64.118z"/>
<path style="fill:#F9C85D;" d="M215.37,153.546L329.811,23.288c-0.1-0.057-0.585-0.333-0.485-0.276
	c-0.257-0.235-14.379-13.1-14.961-13.631c-3.136-2.856-8.004-2.585-10.803,0.601C287.664,28.078,271.896,46.025,256,64.118l0,0
	l-78.569,89.428H215.37z"/>
<polygon style="fill:#F9BB4B;" points="185.106,153.546 185.106,144.809 177.431,153.546 "/>
<rect x="158.764" y="178.522" style="fill:#F9C85D;" width="194.475" height="59.906"/>
<rect x="158.764" y="178.522" style="fill:#F9BB4B;" width="26.346" height="59.906"/>
<g>
	<rect x="158.764" y="153.55" style="fill:#656566;" width="194.475" height="26.97"/>
	<rect x="158.764" y="235.948" style="fill:#656566;" width="194.475" height="26.97"/>
</g>
<g>
	<rect x="158.764" y="153.55" style="fill:#545456;" width="26.306" height="26.97"/>
	<rect x="158.764" y="235.948" style="fill:#545456;" width="26.306" height="26.97"/>
</g>
<path d="M458.007,248.499c-0.551-4.099-4.315-6.974-8.423-6.429c-4.099,0.55-6.978,4.321-6.429,8.423l3.891,28.99
	c-3.428,7.345-10.577,12.622-19.056,13.945l-67.262,10.482c0-15.705,0-156.921,0-181.663c0-4.138-3.353-7.492-7.492-7.492
	c-4.138,0-7.492,3.353-7.492,7.492v23.807h-15.936c-4.138,0-7.492,3.353-7.492,7.492c0,4.138,3.353,7.492,7.492,7.492h15.936v11.987
	H166.252v-11.987c15.252,0,109.076,0,128.597,0c4.138,0,7.492-3.353,7.492-7.492c0-4.138-3.353-7.492-7.492-7.492h-62.924
	l99.488-113.238l58.153,33.05c19.821,11.265,32.864,30.202,35.783,51.953l13.145,97.943c0.551,4.1,4.325,6.98,8.423,6.429
	c4.099-0.55,6.978-4.321,6.429-8.423L440.2,115.826c-3.549-26.431-19.305-49.387-43.23-62.986
	c-1.018-0.582,9.32,5.326-63.796-36.457C319.204,3.827,319.331,3.381,316.67,1.872c-4.549-2.581,5.008-1.722-113.515-1.777
	c-10.034,0-12.534,6.679-24.908,16.817L115.03,52.84C91.104,66.438,75.348,89.396,71.8,115.825l-23.637,176.1
	C45.359,312.82,60.11,331.838,81.7,335.201c11.589,1.806,48.658,7.583,69.569,10.842c0,5.867,0,140.001,0,145.885
	c0,11.046,9.263,19.956,20.558,19.956l0,0c174.36-0.561,169.166,1.38,176.341-1.571c7.376-3.034,12.563-10.132,12.563-18.385
	c0-15.51,0-131.728,0-145.884l69.569-10.842c21.612-3.367,36.343-22.376,33.537-43.276
	C462.453,281.622,459.335,258.392,458.007,248.499z M309.187,14.93c0.009-0.002,0.019-0.002,0.028-0.004l0.105-0.005
	c2.52,2.295,7.451,6.788,9.926,9.043L211.98,146.054h-17.995C202.438,136.433,296.198,29.715,309.187,14.93z M289.112,15.078
	L256,52.766l-33.112-37.688C222.888,15.078,289.112,15.078,289.112,15.078z M203.076,15.231l42.95,48.887
	c-0.902,1.027,3.258-3.708-8.795,10.011l-44.253-50.37C202.88,14.734,202.626,14.714,203.076,15.231z M151.268,330.879
	c-66.711-11.31-84.705-7.44-88.203-30.582c5.317,4.07,11.702,6.853,18.635,7.934l69.568,10.842V330.879z M158.76,114.756
	c-4.137,0-7.492,3.353-7.492,7.492V303.91l-67.261-10.482c-8.479-1.322-15.627-6.602-19.057-13.946l21.7-161.663
	c2.92-21.751,15.962-40.687,35.783-51.953l58.423-33.204l46.403,52.818l-53.219,60.574h-7.788v-23.807
	C166.251,118.109,162.898,114.756,158.76,114.756z M345.746,464.958c0,2.695-2.553,4.973-5.574,4.973H220.635
	c-4.137,0-7.492,3.353-7.492,7.492s3.354,7.492,7.492,7.492c124.542-0.262,120.107,0.625,125.111-0.745v7.759
	c0,2.751-2.615,4.973-5.574,4.973c-177.914-0.047-168.387,0.099-169.453-0.103c-2.392-0.448-4.467-2.421-4.467-4.87v-7.759
	c4.427,1.213,6.617,0.557,19.421,0.745c4.137,0,7.492-3.353,7.492-7.492s-3.354-7.492-7.492-7.492h-13.848
	c-3.022,0-5.574-2.277-5.574-4.974c0-35.234,0-172.633,0-194.545h179.494C345.746,292.397,345.746,441.842,345.746,464.958z
	 M345.746,255.43H166.252v-11.987h179.494V255.43z M345.746,228.46H166.252v-40.452h179.494V228.46z M432.238,319.375
	c-3.704,1.211,0.273,0.198-71.508,11.504v-11.805l69.569-10.842c6.931-1.081,13.317-3.865,18.633-7.934
	C447.668,308.747,441.517,316.341,432.238,319.375z"/>
<g>
</g>
<g>
</g>
<g>
</g>
<g>
</g>
<g>
</g>
<g>
</g>
<g>
</g>
<g>
</g>
<g>
</g>
<g>
</g>
<g>
</g>
<g>
</g>
<g>
</g>
<g>
</g>
<g>
</g>
</svg>
