<?xml version="1.0" encoding="iso-8859-1"?>
<!-- Generator: Adobe Illustrator 19.0.0, SVG Export Plug-In . SVG Version: 6.00 Build 0)  -->
<svg version="1.1" id="Layer_1" xmlns="http://www.w3.org/2000/svg" xmlns:xlink="http://www.w3.org/1999/xlink" x="0px" y="0px"
	 viewBox="0 0 512.001 512.001" style="enable-background:new 0 0 512.001 512.001;" xml:space="preserve">
<circle style="fill:#F7B239;" cx="256.004" cy="256.005" r="246.855"/>
<path style="fill:#E09B2D;" d="M126.306,385.694c-88.801-88.802-95.798-228.426-20.998-325.242
	c-8.286,6.401-16.258,13.399-23.858,20.999c-96.401,96.401-96.401,252.698,0,349.099s252.698,96.401,349.099,0
	c7.599-7.599,14.597-15.573,20.999-23.858C354.733,481.492,215.108,474.495,126.306,385.694z"/>
<path d="M256.001,512.001C114.841,512.001,0,397.16,0,256.001S114.841,0.001,256.001,0.001S512.001,114.842,512.001,256
	C512,397.16,397.16,512.001,256.001,512.001z M256.001,18.3c-131.069,0-237.702,106.632-237.702,237.702
	s106.632,237.702,237.702,237.702S493.702,387.07,493.702,256.001C493.701,124.932,387.068,18.3,256.001,18.3z"/>
<path d="M198.659,242.516c-3.115,0-6.15-1.591-7.863-4.458c-8.265-13.834-22.821-22.094-38.937-22.094s-30.672,8.26-38.937,22.094
	c-2.59,4.338-8.208,5.756-12.547,3.162c-4.338-2.592-5.753-8.209-3.162-12.547c11.6-19.417,32.028-31.007,54.646-31.007
	s43.046,11.592,54.646,31.007c2.591,4.338,1.176,9.956-3.162,12.547C201.873,242.098,200.254,242.516,198.659,242.516z"/>
<path d="M406.941,242.516c-3.115,0-6.15-1.591-7.863-4.458c-8.265-13.834-22.821-22.094-38.938-22.094
	c-16.115,0-30.671,8.26-38.936,22.094c-2.591,4.338-8.209,5.756-12.547,3.162c-4.338-2.592-5.753-8.209-3.162-12.547
	c11.6-19.415,32.028-31.007,54.645-31.007c22.618,0,43.046,11.592,54.647,31.007c2.591,4.338,1.176,9.956-3.162,12.547
	C410.156,242.098,408.538,242.516,406.941,242.516z"/>
<path d="M273.096,397.082c-5.054,0-9.15-4.097-9.15-9.15s4.095-9.15,9.15-9.15c10.646,0,19.307-8.66,19.307-19.306
	s-8.662-19.307-19.307-19.307c-5.054,0-9.15-4.097-9.15-9.15c0-5.053,4.095-9.15,9.15-9.15c10.646,0,19.307-8.662,19.307-19.307
	c0-10.645-8.662-19.306-19.307-19.306c-5.054,0-9.15-4.097-9.15-9.15s4.095-9.15,9.15-9.15c20.737,0,37.606,16.869,37.606,37.605
	c0,11.358-5.06,21.555-13.046,28.456c7.986,6.901,13.046,17.099,13.046,28.456C310.703,380.213,293.832,397.082,273.096,397.082z"/>
<g>
	<circle style="fill:#F95428;" cx="100.572" cy="290.493" r="24.119"/>
	<circle style="fill:#F95428;" cx="411.425" cy="290.493" r="24.119"/>
</g>
<g>
</g>
<g>
</g>
<g>
</g>
<g>
</g>
<g>
</g>
<g>
</g>
<g>
</g>
<g>
</g>
<g>
</g>
<g>
</g>
<g>
</g>
<g>
</g>
<g>
</g>
<g>
</g>
<g>
</g>
</svg>
