<?xml version="1.0" encoding="iso-8859-1"?>
<!-- Generator: Adobe Illustrator 19.0.0, SVG Export Plug-In . SVG Version: 6.00 Build 0)  -->
<svg version="1.1" id="Layer_1" xmlns="http://www.w3.org/2000/svg" xmlns:xlink="http://www.w3.org/1999/xlink" x="0px" y="0px"
	 viewBox="0 0 512 512" style="enable-background:new 0 0 512 512;" xml:space="preserve">
<circle style="fill:#F7B239;" cx="256.004" cy="256.004" r="246.855"/>
<path style="fill:#E09B2D;" d="M126.308,385.694c-88.802-88.802-95.799-228.426-20.999-325.241
	c-8.286,6.401-16.258,13.399-23.858,20.999c-96.401,96.401-96.401,252.698,0,349.099s252.698,96.401,349.099,0
	c7.599-7.599,14.597-15.573,20.999-23.858C354.734,481.492,215.108,474.495,126.308,385.694z"/>
<path d="M255.999,512C114.841,512,0,397.16,0,256.001S114.841,0,255.999,0C397.159,0,512,114.841,512,256.001
	S397.159,512,255.999,512z M255.999,18.299c-131.068,0-237.7,106.632-237.7,237.702s106.632,237.702,237.7,237.702
	c131.069,0,237.702-106.632,237.702-237.702S387.068,18.299,255.999,18.299z"/>
<path d="M198.66,242.515c-3.114,0-6.151-1.591-7.864-4.458c-8.265-13.834-22.821-22.094-38.937-22.094s-30.672,8.26-38.937,22.094
	c-2.591,4.338-8.207,5.754-12.547,3.162c-4.338-2.592-5.753-8.209-3.162-12.547c11.6-19.417,32.028-31.007,54.646-31.007
	s43.046,11.592,54.646,31.007c2.592,4.338,1.176,9.956-3.162,12.547C201.873,242.097,200.255,242.515,198.66,242.515z"/>
<path d="M406.941,242.515c-3.115,0-6.151-1.591-7.864-4.458c-8.265-13.834-22.821-22.094-38.937-22.094s-30.672,8.26-38.937,22.094
	c-2.591,4.338-8.208,5.754-12.547,3.162c-4.338-2.592-5.753-8.209-3.162-12.547c11.6-19.417,32.028-31.007,54.646-31.007
	s43.046,11.592,54.646,31.007c2.592,4.338,1.176,9.956-3.162,12.547C410.156,242.097,408.538,242.515,406.941,242.515z"/>
<path d="M273.097,397.082c-5.053,0-9.15-4.097-9.15-9.15s4.097-9.15,9.15-9.15c10.646,0,19.307-8.66,19.307-19.306
	s-8.66-19.307-19.307-19.307c-5.053,0-9.15-4.097-9.15-9.15c0-5.053,4.097-9.15,9.15-9.15c10.646,0,19.307-8.662,19.307-19.307
	c0-10.645-8.66-19.306-19.307-19.306c-5.053,0-9.15-4.097-9.15-9.15s4.097-9.15,9.15-9.15c20.737,0,37.606,16.869,37.606,37.605
	c0,11.358-5.06,21.555-13.046,28.456c7.986,6.901,13.046,17.099,13.046,28.456C310.701,380.212,293.832,397.082,273.097,397.082z"/>
<path style="fill:#F95428;" d="M404.052,287.332L404.052,287.332c-9.761-18.693-32.826-25.935-51.519-16.174l0,0
	c-18.693,9.761-25.935,32.826-16.174,51.519l0,0l35.345,67.693l67.693-35.345l0,0c18.693-9.761,25.935-32.826,16.174-51.519l0,0
	C445.811,284.813,422.746,277.572,404.052,287.332L404.052,287.332z"/>
<path d="M371.705,399.52c-0.921,0-1.846-0.139-2.741-0.42c-2.314-0.727-4.247-2.344-5.37-4.495l-35.345-67.693
	c-12.08-23.134-3.085-51.784,20.05-63.865c20.594-10.751,45.557-4.805,59.315,12.947c21.434-6.707,45.317,2.681,56.07,23.278
	c12.079,23.135,3.085,51.784-20.05,63.865l-67.694,35.345C374.619,399.17,373.165,399.52,371.705,399.52z M370.158,275.976
	c-4.524,0-9.109,1.059-13.39,3.294c-14.19,7.41-19.708,24.983-12.298,39.173l31.11,59.583l59.583-31.111
	c14.19-7.41,19.707-24.983,12.298-39.173c-7.41-14.192-24.983-19.708-39.173-12.298c-4.48,2.339-10.006,0.604-12.346-3.876
	C390.766,281.656,380.633,275.976,370.158,275.976z"/>
<g>
</g>
<g>
</g>
<g>
</g>
<g>
</g>
<g>
</g>
<g>
</g>
<g>
</g>
<g>
</g>
<g>
</g>
<g>
</g>
<g>
</g>
<g>
</g>
<g>
</g>
<g>
</g>
<g>
</g>
</svg>
