<?xml version="1.0" encoding="iso-8859-1"?>
<!-- Generator: Adobe Illustrator 19.0.0, SVG Export Plug-In . SVG Version: 6.00 Build 0)  -->
<svg version="1.1" id="Capa_1" xmlns="http://www.w3.org/2000/svg" xmlns:xlink="http://www.w3.org/1999/xlink" x="0px" y="0px"
	 viewBox="0 0 511.999 511.999" style="enable-background:new 0 0 511.999 511.999;" xml:space="preserve">
<circle style="fill:#F4D44E;" cx="256.436" cy="255.204" r="248.383"/>
<path style="fill:#E8C842;" d="M175.614,445.27C18.945,354.817,9.432,133.316,154.331,28.775
	c-45.873,20.64-85.929,55.35-113.001,102.239c-68.589,118.799-27.885,270.707,90.914,339.295
	c87.425,50.475,192.779,41.755,269.664-13.715C331.558,488.247,247.524,486.787,175.614,445.27z"/>
<g>
	<circle style="fill:#ED694A;" cx="399.953" cy="250.887" r="18.798"/>
	<circle style="fill:#ED694A;" cx="112.919" cy="250.887" r="18.798"/>
</g>
<g>
	<path style="fill:#D8553A;" d="M399.957,232.103c-3.198-0.005-6.438,0.79-9.407,2.504c-8.991,5.191-12.071,16.687-6.881,25.679
		c7.281,12.61,25.406,12.403,32.551-0.015C409.734,260.262,392.734,244.658,399.957,232.103z"/>
	<path style="fill:#D8553A;" d="M112.929,232.103c-14.333-0.019-23.566,15.577-16.288,28.183
		c7.28,12.609,25.404,12.404,32.551-0.015C114.734,260.25,105.703,244.66,112.929,232.103z"/>
</g>
<path d="M291.903,310.698c-6.414-6.776-15.937-9.279-24.928-6.51l-24.074,7.686c-3.951,1.262-6.133,5.488-4.871,9.441
	c1.262,3.953,5.49,6.134,9.441,4.871l24.001-7.663c3.412-1.051,7.062-0.093,9.52,2.503c3.702,3.911,4.278,12.075,1.083,15.326
	c-4.131,4.202-9.091,2.331-15.109,2.788c-4.15,0-7.512,3.363-7.512,7.512c0,4.149,3.362,7.512,7.512,7.512
	c6.014,0.458,10.979-1.412,15.109,2.788c3.195,3.251,2.619,11.415-1.083,15.325c-2.457,2.596-6.107,3.555-9.447,2.526l-24.074-7.686
	c-3.951-1.262-8.179,0.918-9.441,4.871s0.918,8.179,4.871,9.441l24.148,7.71c8.874,2.733,18.41,0.274,24.853-6.533
	c10.141-10.715,8.928-27.702,1.1-35.953C302.477,336.719,300.28,319.55,291.903,310.698z"/>
<path d="M399.512,277.994c14.507,0,26.311-11.803,26.311-26.31c0-14.507-11.803-26.31-26.311-26.31
	c-14.508,0-26.31,11.803-26.31,26.31S385.004,277.994,399.512,277.994z M399.512,240.399c6.224,0,11.287,5.063,11.287,11.286
	s-5.063,11.286-11.287,11.286c-6.223,0-11.286-5.063-11.286-11.286C388.226,245.461,393.289,240.399,399.512,240.399z"/>
<path d="M86.173,251.684c0,14.507,11.802,26.31,26.31,26.31s26.311-11.803,26.311-26.31c0-14.507-11.803-26.31-26.311-26.31
	S86.173,237.176,86.173,251.684z M112.482,240.399c6.224,0,11.287,5.063,11.287,11.286s-5.063,11.286-11.287,11.286
	c-6.223,0-11.286-5.063-11.286-11.286C101.197,245.461,106.26,240.399,112.482,240.399z"/>
<path d="M300.48,226.909c3.446,2.312,8.114,1.389,10.422-2.056c7.647-11.406,18.584-11.53,26.314,0
	c1.449,2.162,3.825,3.33,6.246,3.33c5.918-0.002,9.606-6.664,6.233-11.696c-13.592-20.277-37.592-20.409-51.271,0
	C296.112,219.933,297.032,224.599,300.48,226.909z"/>
<path d="M166.384,228.034c2.421,0,4.798-1.169,6.246-3.33c7.648-11.406,18.584-11.529,26.314,0
	c2.312,3.446,6.979,4.368,10.422,2.056c3.446-2.31,4.367-6.976,2.057-10.423c-13.592-20.274-37.589-20.413-51.271,0
	C157.842,219.784,160.469,228.034,166.384,228.034z"/>
<path d="M376.55,172.493c2.091-3.584,0.881-8.183-2.701-10.274c-18.77-10.952-40.055-14.127-59.931-8.941
	c-4.014,1.047-6.419,5.151-5.372,9.165c1.048,4.013,5.154,6.422,9.165,5.372c16.004-4.176,33.253-1.554,48.565,7.381
	C369.859,177.284,374.459,176.079,376.55,172.493z"/>
<path d="M194.283,167.815c4.012,1.049,8.117-1.357,9.165-5.372s-1.357-8.118-5.372-9.165c-19.878-5.187-41.161-2.01-59.931,8.941
	c-3.583,2.091-4.793,6.691-2.701,10.274c2.1,3.602,6.708,4.784,10.274,2.702C161.031,166.26,178.278,163.639,194.283,167.815z"/>
<path d="M127.3,52.416c58.001-36.584,126.347-46.409,191.038-29.075c184.709,49.493,239.532,284.281,99.551,411.058
	c-3.075,2.785-3.311,7.535-0.525,10.611c2.782,3.074,7.534,3.311,10.61,0.525c42.679-38.652,71.309-91.416,80.616-148.568
	C529.149,170.714,452.298,43.682,322.227,8.83C253.154-9.68,180.541,1.05,119.284,39.71c-3.509,2.214-4.559,6.853-2.345,10.361
	C119.154,53.58,123.791,54.629,127.3,52.416z"/>
<path d="M399.518,467.856c3.436-2.324,4.339-6.993,2.015-10.431c-2.323-3.437-6.991-4.339-10.431-2.016
	c-117.328,79.348-274.578,40.758-343.703-78.973C-11.234,274.879,12.231,146.932,99.882,72.529
	c3.163-2.685,3.551-7.426,0.865-10.588c-2.684-3.162-7.424-3.551-10.588-0.865C-2.944,140.108-27.921,276.027,34.387,383.949
	C107.858,511.202,274.933,552.101,399.518,467.856z"/>
<g>
</g>
<g>
</g>
<g>
</g>
<g>
</g>
<g>
</g>
<g>
</g>
<g>
</g>
<g>
</g>
<g>
</g>
<g>
</g>
<g>
</g>
<g>
</g>
<g>
</g>
<g>
</g>
<g>
</g>
</svg>
