<?xml version="1.0" encoding="iso-8859-1"?>
<!-- Generator: Adobe Illustrator 19.0.0, SVG Export Plug-In . SVG Version: 6.00 Build 0)  -->
<svg version="1.1" id="Capa_1" xmlns="http://www.w3.org/2000/svg" xmlns:xlink="http://www.w3.org/1999/xlink" x="0px" y="0px"
	 viewBox="0 0 512 512" style="enable-background:new 0 0 512 512;" xml:space="preserve">
<path style="fill:#F4D44E;" d="M226.224,8.554C50.479,29.702-50.116,227.088,42.849,382.536
	c89.095,149.593,305.849,164.907,412.969,20.602C586.058,226.993,440.868-17.725,226.224,8.554z"/>
<path style="fill:#E8C842;" d="M175.372,445.312C18.659,354.833,9.143,133.271,154.083,28.7
	C108.198,49.345,68.13,84.066,41.051,130.968C-27.557,249.8,13.158,401.751,131.99,470.357
	c87.45,50.49,192.833,41.768,269.74-13.718C331.361,488.301,247.302,486.84,175.372,445.312z"/>
<circle style="fill:#656566;" cx="185.986" cy="226.722" r="21.673"/>
<path style="fill:#4F4F51;" d="M185.998,205.064c-16.525-0.024-27.171,17.959-18.779,32.494c5.985,10.366,19.24,13.918,29.606,7.933
	c3.423-1.977,6.084-4.754,7.924-7.95C188.077,237.516,177.668,219.54,185.998,205.064z"/>
<g>
	<path style="fill:#ED694A;" d="M391.991,420.394c-0.001-0.002-0.002-0.003-0.003-0.005
		C392.028,420.459,392.036,420.475,391.991,420.394z"/>
	<path style="fill:#ED694A;" d="M488.319,343.922c-9.169-18.555-32.371-25.591-50.74-16.053l-5.784,3.004
		c-1.785,0.928-3.985,0.247-4.936-1.526l-3.08-5.744c-9.78-18.24-32.905-25.526-50.946-15.383
		c-17.453,9.813-23.92,31.835-14.414,49.563c8.01,14.939,32.147,59.954,33.572,62.611c3.318,6.18,10.984,8.549,17.21,5.316
		c13.232-6.871,49.88-25.902,63.043-32.738C490.097,383.702,497.189,361.873,488.319,343.922z"/>
</g>
<path style="fill:#D8553A;" d="M383.468,352.774c-9.227-17.21-3.402-38.466,12.915-48.672
	c-29.841-4.832-52.297,26.943-37.962,53.681c8.01,14.939,32.147,59.954,33.572,62.611c3.318,6.18,10.984,8.549,17.21,5.316
	c2.904-1.509,6.939-3.604,11.605-6.026C417.469,417.264,419.854,420.638,383.468,352.774z"/>
<path d="M272.592,374.823l-24.08-7.688c-3.954-1.262-8.182,0.919-9.444,4.872c-1.262,3.953,0.919,8.181,4.872,9.444
	c22.638,6.88,24.942,8.807,31.39,8.807c6.569,0,12.93-2.672,17.626-7.631c10.144-10.718,8.931-27.71,1.1-35.963
	c9.476-9.935,7.279-27.109-1.101-35.964c-6.417-6.778-15.942-9.282-24.935-6.511l-24.08,7.688c-3.952,1.262-6.134,5.49-4.872,9.444
	c1.261,3.953,5.489,6.135,9.444,4.872l24.007-7.665c3.414-1.051,7.065-0.093,9.524,2.503c3.702,3.913,4.279,12.08,1.083,15.331
	c-4.133,4.203-9.101,2.331-15.114,2.789c-4.151,0-7.514,3.364-7.514,7.514s3.363,7.514,7.514,7.514
	c6.049,0.46,10.981-1.415,15.114,2.789c3.196,3.251,2.619,11.418-1.082,15.33C279.584,374.892,275.931,375.851,272.592,374.823z"/>
<path d="M310.827,224.83c3.722-5.551,8.395-8.608,13.161-8.608s9.44,3.058,13.161,8.609c2.312,3.447,6.981,4.369,10.424,2.057
	c3.447-2.31,4.368-6.978,2.058-10.425c-13.595-20.28-37.599-20.419-51.286,0c-2.311,3.446-1.39,8.114,2.058,10.425
	C303.85,229.199,308.517,228.277,310.827,224.83z"/>
<path d="M156.491,227.51c0,16.094,13.093,29.187,29.187,29.187s29.187-13.093,29.187-29.187s-13.093-29.187-29.187-29.187
	S156.491,211.416,156.491,227.51z M199.836,227.51c0,7.808-6.352,14.159-14.159,14.159c-7.808,0-14.159-6.352-14.159-14.159
	c0-7.808,6.352-14.159,14.159-14.159C193.485,213.351,199.836,219.702,199.836,227.51z"/>
<path d="M313.102,150.61c-0.619,4.104,2.205,7.932,6.309,8.552c21.066,3.18,39.959,14.125,53.199,30.817
	c1.483,1.87,3.677,2.845,5.892,2.845c6.18,0,9.83-7.205,5.882-12.184c-15.611-19.683-37.889-32.589-62.73-36.339
	C317.561,143.685,313.722,146.506,313.102,150.61z"/>
<path d="M184.556,112.066c-24.841,3.75-47.119,16.656-62.73,36.339c-2.579,3.252-2.034,7.978,1.218,10.557
	c3.272,2.596,7.994,2.012,10.556-1.218c13.24-16.693,32.132-27.637,53.199-30.817c4.104-0.619,6.928-4.448,6.309-8.552
	C192.488,114.27,188.644,111.449,184.556,112.066z"/>
<path d="M100.243,459.244c1.363,1.043,2.968,1.547,4.561,1.547c7.177-0.002,10.251-9.137,4.572-13.482
	C-28.06,342.141-12.13,132.53,135.438,47.331C204.218,7.623,284.917,5.475,353.264,35.598c3.796,1.673,8.231-0.047,9.906-3.845
	c1.673-3.798-0.048-8.232-3.846-9.906c-74.706-32.926-160.392-28.526-231.4,12.47C-30.444,125.75-44.129,348.77,100.243,459.244z"/>
<path d="M383.565,51.612c90.813,56.609,136.213,169.73,101.943,277.376c-13.801-12.917-34.755-15.687-51.616-6.977l-2.425,1.253
	c-0.653-0.815-7.543-18.426-28.643-24.612c-37.762-11.07-69.601,29.089-51.329,63.329l5.077,9.515
	c1.952,3.661,6.506,5.044,10.166,3.091c3.661-1.955,5.045-6.506,3.091-10.167l-5.074-9.513c-7.473-14.001-2.29-31.694,11.551-39.44
	c14.553-8.143,32.95-1.904,40.617,12.462l3.069,5.75c2.865,5.371,9.599,7.47,15.013,4.674c2.868-0.982,13.818-9.929,29.309-4.822
	c24.832,8.186,26.779,41.941,4.118,53.652l-63.108,32.615c-2.568,1.326-5.763,0.333-7.122-2.217
	c-4.224-7.392,7.833,14.67-11.765-22.043c-1.954-3.661-6.506-5.046-10.166-3.09c-3.661,1.954-5.045,6.506-3.091,10.167
	c13.194,24.718,11.741,21.97,11.832,22.17h0.001c0.1,0.099,5.194,10.616,17.946,10.616c7.82,0,11.39-3.912,24.481-10.115
	c-75.683,76.664-194.084,94.349-289.648,40.725c-3.619-2.032-8.2-0.743-10.23,2.876c-2.03,3.619-0.742,8.199,2.876,10.229
	c114.462,64.229,256.642,31.289,332.08-71.959l12.815-6.622c20.368-10.526,29.23-35.165,20.745-56.114
	c43.247-117.576-5.075-243.544-104.56-305.56c-3.522-2.195-8.157-1.12-10.351,2.401C378.968,44.782,380.043,49.417,383.565,51.612z"
	/>
<g>
</g>
<g>
</g>
<g>
</g>
<g>
</g>
<g>
</g>
<g>
</g>
<g>
</g>
<g>
</g>
<g>
</g>
<g>
</g>
<g>
</g>
<g>
</g>
<g>
</g>
<g>
</g>
<g>
</g>
</svg>
