<?xml version="1.0" encoding="iso-8859-1"?>
<!-- Generator: Adobe Illustrator 19.0.0, SVG Export Plug-In . SVG Version: 6.00 Build 0)  -->
<svg version="1.1" id="Capa_1" xmlns="http://www.w3.org/2000/svg" xmlns:xlink="http://www.w3.org/1999/xlink" x="0px" y="0px"
	 viewBox="0 0 512.003 512.003" style="enable-background:new 0 0 512.003 512.003;" xml:space="preserve">
<path style="fill:#ED694A;" d="M291.894,380.67c9.836-7.605,21.513-12.292,33.876-13.596
	c98.727-10.417,151.628-94.949,177.654-158.097c3.988-9.675-3.737-20.13-14.156-19.153c-40.161,3.768-92.346,15.012-120.483,46.781
	c-21.66,24.456-41.597,39.602-57.23,48.923c-0.856,0.419-10.684,8.338-46.288,20.633c-16.102,6.351-47.649,14.732-96.432,10.691
	c-41.724-3.457-86.561,23.709-118.129,48.487c-8.243,6.47-6.631,19.396,2.946,23.651
	C116.089,416.732,213.109,441.588,291.894,380.67z"/>
<path style="fill:#D8553A;" d="M312.438,341.075c-12.364,1.304-24.041,5.99-33.876,13.596
	c-73.259,56.644-169.192,49.498-232.49,25.915c1.145,3.552,3.712,6.686,7.581,8.405c62.438,27.743,159.457,52.598,238.243-8.319
	c9.836-7.605,21.513-12.292,33.876-13.596c98.727-10.417,151.628-94.949,177.654-158.097c1.403-3.405,1.351-6.905,0.246-9.971
	C472.685,259.582,403.013,331.518,312.438,341.075z"/>
<path style="fill:#ED694A;" d="M492.821,154.026c9.194-0.796,11.874-13.013,3.829-17.535
	c-77.3-43.442-182.042-74.045-257.946,12.132c-9.051,10.277-22.514,15.68-36.159,14.512
	C88.411,153.365,33.872,247.389,7.971,332.052c-2.697,8.817,7.655,15.807,14.861,10.055c35.752-28.535,82.94-58.47,130.781-66.417
	c23.289-3.869,42.626-6.37,58.319-7.997l-0.002-0.003c61.971-6.282,92.78-38.021,95.99-40.189
	c11.436-8.825,25.525-19.14,42.765-30.902C391.253,168.923,446.926,158.001,492.821,154.026z"/>
<path style="fill:#D8553A;" d="M495.526,145.263c-45.895,3.974-118.568-5.104-159.136,22.575
	c-17.242,11.762-31.329,22.078-42.765,30.902c-3.21,2.168-34.019,33.907-95.99,40.189l0.002,0.003
	c-15.693,1.626-35.03,4.128-58.319,7.997c-47.841,7.947-88.028,61.882-123.781,90.416c-2.133,1.702-4.54,2.281-6.804,2.034
	c2.64,4.592,9.119,6.704,14.099,2.729c35.752-28.535,82.94-58.47,130.781-66.417c23.289-3.869,42.626-6.37,58.319-7.997
	l-0.002-0.003c61.972-6.282,92.78-38.021,95.99-40.189c11.437-8.825,25.525-19.14,42.765-30.902
	c40.568-27.679,96.241-38.6,142.137-42.574c6.193-0.536,9.423-6.253,8.419-11.311C499.809,144.1,497.883,145.059,495.526,145.263z"
	/>
<path d="M212.868,275.135c26.485-2.709,64.941-11.932,98.123-40.443c7.717-6.63,34.568-25.516,43.92-31.895
	c32.179-21.954,80.092-36.234,138.557-41.298c16.405-1.42,21.44-23.349,6.857-31.543c-111.664-62.754-204.075-58.013-267.251,13.713
	c-7.463,8.476-18.637,12.959-29.891,11.997c-60.333-5.165-110.458,17-148.973,65.88c-2.563,3.253-2.005,7.969,1.249,10.532
	c3.253,2.565,7.971,2.005,10.532-1.249c35.195-44.666,80.926-64.934,135.914-60.218c15.961,1.367,31.833-5,42.426-17.028
	c66.89-75.938,160.452-60.115,248.645-10.551c1.623,0.914,1.082,3.36-0.802,3.524c-61.897,5.36-110.924,20.114-145.715,43.851
	c-11.506,7.849-37.585,26.333-45.243,32.909c-26.031,22.369-55.886,32.774-90.236,36.937c-18.063,1.877-37.775,4.582-58.595,8.04
	c-41.133,6.832-86.294,29.694-134.231,67.954c-1.479,1.178-3.555-0.221-3.011-2c8.68-28.368,19.372-53.637,31.78-75.102
	c2.073-3.586,0.847-8.174-2.739-10.247c-3.585-2.074-8.173-0.846-10.247,2.739c-12.978,22.449-24.127,48.766-33.138,78.221
	c-4.898,16.01,13.881,28.351,26.712,18.112c45.266-36.128,89.296-58.563,127.331-64.881
	C189.115,277.398,210.984,275.371,212.868,275.135z"/>
<path d="M488.568,182.358c-73.695,6.915-108.867,30.613-125.396,49.276c-17.88,20.188-36.495,36.128-55.335,47.38
	c-0.351,0.197-0.662,0.406-1.028,0.651c-14.001,9.38-43.214,19.09-44.293,19.52c-11.878,4.686-32.352,10.422-62.437,11.145
	c-4.142,0.1-7.418,3.537-7.318,7.678c0.097,4,3.358,7.388,7.678,7.318c32.161-0.772,54.398-7.007,67.429-12.127
	c40.46-13.984,70.556-30.994,106.534-71.619c26.7-30.146,77.585-40.724,115.569-44.288c4.836-0.44,8.348,4.395,6.521,8.829
	c-10.605,25.733-23.195,48.909-37.418,68.886c-2.402,3.375-1.615,8.058,1.759,10.46c3.377,2.403,8.059,1.614,10.46-1.759
	c14.885-20.905,28.029-45.086,39.067-71.871C516.501,196.931,504.592,180.849,488.568,182.358z M314.854,292.264
	c0.142-0.069,0.28-0.143,0.418-0.221C315.092,292.149,314.95,292.217,314.854,292.264z"/>
<path d="M437.601,301.376c-31.949,34.132-69.839,53.728-112.617,58.24c-13.729,1.449-26.757,6.678-37.677,15.122
	c-41.163,31.828-114.589,58.95-230.61,7.397c-4.411-1.96-5.157-7.916-1.359-10.896c28.447-22.33,70.52-48.607,109.395-47.121
	c4.13,0.169,7.625-3.064,7.785-7.203c0.161-4.139-3.064-7.625-7.203-7.785c-43.442-1.708-88.814,26.43-119.239,50.311
	c-12.693,9.963-10.21,29.856,4.531,36.402c82.905,36.838,174.065,46.284,245.876-9.238c8.718-6.741,19.117-10.915,30.075-12.071
	c46.466-4.903,87.51-26.068,121.994-62.908c2.831-3.023,2.674-7.77-0.351-10.601C445.177,298.192,440.43,298.35,437.601,301.376z"/>
<g>
</g>
<g>
</g>
<g>
</g>
<g>
</g>
<g>
</g>
<g>
</g>
<g>
</g>
<g>
</g>
<g>
</g>
<g>
</g>
<g>
</g>
<g>
</g>
<g>
</g>
<g>
</g>
<g>
</g>
</svg>
