<?xml version="1.0" encoding="iso-8859-1"?>
<!-- Generator: Adobe Illustrator 19.0.0, SVG Export Plug-In . SVG Version: 6.00 Build 0)  -->
<svg version="1.1" id="Capa_1" xmlns="http://www.w3.org/2000/svg" xmlns:xlink="http://www.w3.org/1999/xlink" x="0px" y="0px"
	 viewBox="0 0 512 512" style="enable-background:new 0 0 512 512;" xml:space="preserve">
<path style="fill:#CC9D72;" d="M156.66,75.718c-41.915-16.984-91.148-16.426-134.413,4.854C13.257,84.994,7.506,94.082,7.506,104.1
	v336.975c20.94-6.185,35.947-9.065,35.95-9.066c0.705,11.824-2.109,19.62,4.164,28.317c5.871,8.141,17.797,22.864,34.801,35.053
	c7.382,5.291,17.34,5.403,24.729,0.124c17.133-12.238,29.133-27.069,35.011-35.228c6.227-8.644,3.42-16.3,4.128-28.266
	c0,0,39.376,7.554,79.583,24.482c20.079-44.193,34.587-96.698,41.342-141.078C299.284,126.33,156.66,75.718,156.66,75.718z"/>
<g>
	<path style="fill:#C19067;" d="M32.505,403.077c-8.689-4.721-17.077-10.466-24.999-17.348V439.1
		c9.928-2.91,18.547-5.11,24.999-6.647V403.077z"/>
	<path style="fill:#C19067;" d="M32.533,181.204c0,0-0.417-103.304,81.314-116.374c-30.531-3.523-62.421,1.39-91.6,15.742
		C13.257,84.994,7.506,94.082,7.506,104.1v98.214c4.216-2.453,8.155-5.099,11.835-7.849L32.533,181.204z"/>
</g>
<path style="fill:#CC9D72;" d="M493.304,99.184c-25.648-21.729-59.16-35.005-95.632-35.44
	c-106.272-4.052-143.899,103.51-143.899,103.51c-0.159,0.173-0.331,0.325-0.497,0.485c-3.406,11.926-5.229,24.477-5.229,37.435
	c0,13.733-0.013,35.003-0.03,45.791l256.445-0.415V123.599C504.462,114.227,500.453,105.243,493.304,99.184z"/>
<path style="fill:#C19067;" d="M329.366,205.175c0-12.954,2.071-25.744,5.476-37.667c-0.038,0.039-0.072,0.071,0.003-0.01
	c0,0,27.252-77.532,100.359-98.617c-11.991-3.2-24.572-4.983-37.531-5.137c-106.272-4.052-143.899,103.51-143.899,103.51
	c-0.159,0.173-0.331,0.325-0.497,0.485c-3.406,11.926-5.229,24.477-5.229,37.435c0,13.733-0.013,35.003-0.03,45.791l81.319-0.131
	C329.353,240.007,329.366,218.854,329.366,205.175z"/>
<path style="fill:#E8C842;" d="M242.997,255.25c0,11.161,11.201,20.206,23.063,20.206v-40.411
	C254.198,235.045,242.997,244.091,242.997,255.25z"/>
<path style="fill:#DBBC3B;" d="M245.006,247.251c-1.279,2.453-2.009,5.157-2.009,8c0,11.161,11.2,20.206,23.063,20.206v-16
	C257.22,259.456,248.749,254.431,245.006,247.251z"/>
<path style="fill:#E8C842;" d="M43.456,404.448v40.083c0,4.581,1.453,9.033,4.13,12.75c5.879,8.159,17.879,22.989,35.01,35.226
	c7.326,5.232,17.229,5.232,24.553,0c17.134-12.239,29.134-27.07,35.012-35.229c2.676-3.714,4.128-8.164,4.128-12.742V404.45
	C113.773,418.041,76.135,418.108,43.456,404.448z"/>
<path style="fill:#DBBC3B;" d="M72.586,457.28c-2.677-3.716-4.13-8.169-4.13-12.75v-32.467c-8.535-1.702-16.919-4.238-24.999-7.616
	v40.083c0,4.581,1.453,9.033,4.13,12.75c5.879,8.159,17.879,22.989,35.01,35.226c7.326,5.232,17.229,5.232,24.553,0
	c0.076-0.054,0.147-0.11,0.223-0.164C90.363,480.137,78.439,465.403,72.586,457.28z"/>
<path style="fill:#F96989;" d="M142.162,457.276c-5.878,8.159-17.879,22.99-35.011,35.228c-7.39,5.279-17.348,5.167-24.728-0.123
	c-17.081-12.243-29.036-27.042-34.879-35.161c-6.147-8.541-3.402-16.354-4.087-28.21c-0.003,0-15.009,2.878-35.95,9.063v50.756
	c0,8.655,7.016,15.67,15.67,15.67h191.762c1.49-3.238,3.558-26.877,27.817-39.77c1.479-0.786,2.967-1.557,4.463-2.315
	c-45.837-23.222-100.928-33.404-100.928-33.404C145.587,440.883,148.388,448.635,142.162,457.276z"/>
<path style="fill:#ED5A81;" d="M32.505,488.83v-57.411c-6.311,1.492-14.971,3.693-24.999,6.655v50.756
	c0,8.655,7.016,15.67,15.67,15.67h24.999C39.521,504.499,32.505,497.483,32.505,488.83z"/>
<path style="fill:#57ADDD;" d="M504.462,487.572v-30.836c0-7.069-4.553-13.353-11.286-15.509
	c-26.119-8.365-46.196-12.217-46.196-12.217c-0.683,11.823,2.059,19.671-4.089,28.212c-5.864,8.147-17.88,23.016-35.048,35.281
	c-7.35,5.25-17.209,5.25-24.558,0c-17.172-12.266-29.187-27.137-35.05-35.283c-6.147-8.541-3.402-16.354-4.087-28.21
	c-0.006,0.001-56.513,10.839-103.263,35.651c-12.638,6.707-21.991,18.28-25.8,32.071l-2.145,7.768h274.596
	C496.883,504.499,504.462,496.92,504.462,487.572z"/>
<path style="fill:#42A2CC;" d="M263.128,454.098c-7.485,3.192-14.983,6.708-22.244,10.563c-12.638,6.707-21.991,18.28-25.8,32.071
	l-2.145,7.768h24.999l1.961-7.768C243.043,484.281,252.766,463.043,263.128,454.098z"/>
<path style="fill:#E8C842;" d="M344.147,406.879v37.652c0,4.58,1.453,9.033,4.13,12.749c5.879,8.159,17.879,22.989,35.01,35.227
	c7.326,5.232,17.229,5.232,24.553,0c17.134-12.239,29.134-27.07,35.012-35.229c2.676-3.714,4.128-8.164,4.128-12.742V406.88
	C414.372,420.404,376.766,420.407,344.147,406.879z"/>
<path style="fill:#DBBC3B;" d="M373.406,457.279c-2.677-3.716-4.13-8.169-4.13-12.749v-30.067
	c-8.583-1.691-17.01-4.218-25.128-7.586v37.652c0,4.58,1.453,9.033,4.13,12.749c5.879,8.159,17.879,22.989,35.01,35.227
	c7.326,5.232,17.229,5.232,24.553,0c0.098-0.07,0.19-0.142,0.287-0.212C391.153,480.099,379.25,465.392,373.406,457.279z"/>
<path style="fill:#F4D44E;" d="M99.533,182.155c-23.56-16.12-38.573-33.546-38.48-33.445c-1.01-1.086-2.782-0.885-3.508,0.408
	c-4.7,8.36-20.956,34.277-50.038,51.196v186.623c81.601,72.191,216.17,17.446,216.17-90.681c0-0.04,0-0.086,0-0.14
	c0-2.495-0.004-27.874-0.008-49.869c-0.001-4.608-3.161-8.594-7.633-9.704C165.24,223.93,126.057,201.49,99.533,182.155z"/>
<path style="fill:#E8C842;" d="M94.518,417.416c-36.099-6.779-61.984-38.759-61.984-75.489V181.204
	c-6.927,6.714-15.249,13.421-25.026,19.109v186.623c29.068,25.716,64.856,35.313,98.891,32.138
	C102.429,418.701,98.465,418.157,94.518,417.416z"/>
<path style="fill:#F4D44E;" d="M504.462,173.264c-1.788-0.53-4.229-0.535-7.592,0.424c-0.014,0.004-0.026,0.006-0.04,0.01
	c-59.074,19.385-101.816-0.728-101.816-0.728l5.432,7.49c2.763,3.81,2.522,8.341,0.439,11.73c-2.826,4.02-9.3,5.123-10.784,4.851
	c0,0-1.668,0.04-4.671-0.138l0,0c-11.031-0.654-40.143-4.284-71.303-23.76l-0.003,0.013c-17.271-10.505-25.59-4.466-29.369,1.367
	c-1.93,2.98-2.85,6.504-2.85,10.055v9.95c0,13.757-4.815,27.079-13.611,37.658l-2.315,2.784l0,0
	c-0.015,0.873-0.027,1.764-0.036,2.667c-0.001,0.109-0.003,0.216-0.003,0.326c-0.009,0.94-0.014,1.896-0.014,2.872
	c0,0.026,0,0.05,0,0.076c-0.005,22.257-0.011,53.355-0.012,56.751c0,0.054,0,0.101,0,0.141c0,68.766,58.579,125.039,131.069,124.218
	c36.134-0.316,68.991-14.979,92.399-38.479c9.718-9.756,15.08-23.028,15.08-36.797L504.462,173.264L504.462,173.264z"/>
<path style="fill:#E8C842;" d="M316.06,297.798c0-0.04,0-0.087,0-0.141c0.001-3.396,0.007-34.493,0.012-56.751
	c0-0.025,0-0.05,0-0.076c0-0.976,0.005-1.932,0.014-2.872c0.001-0.109,0.002-0.217,0.003-0.326c0.009-0.903,0.021-1.794,0.036-2.667
	l0,0l2.315-2.784c8.795-10.578,13.611-23.9,13.611-37.658v-9.95c0-0.569,0.033-1.136,0.08-1.701
	c-5.842-2.701-11.881-5.907-18.003-9.734l-0.003,0.013c-17.271-10.505-25.59-4.466-29.369,1.367c-1.931,2.98-2.85,6.504-2.85,10.055
	v9.95c0,13.757-4.815,27.079-13.611,37.658l-2.314,2.784l0,0c-0.015,0.873-0.027,1.764-0.036,2.667
	c-0.001,0.109-0.002,0.216-0.003,0.326c-0.009,0.94-0.014,1.896-0.014,2.872c0,0.026,0,0.05,0,0.076
	c-0.005,22.257-0.011,53.355-0.012,56.751c0,0.054,0,0.101,0,0.141c0,68.766,58.579,125.039,131.069,124.218
	c8.061-0.071,15.957-0.86,23.622-2.297C360.872,408.53,316.06,357.943,316.06,297.798z"/>
<path style="fill:#F96989;" d="M322.662,21.211c-20.279-19.436-53-17.835-72.026,2.829l-2.912,3.162
	c-1.349,1.465-3.662,1.465-5.011,0l-2.912-3.162c-19.027-20.663-51.747-22.263-72.026-2.829
	c-19.621,18.804-20.666,49.938-2.174,70.022c3.014,3.273,74.005,80.373,71.004,77.114c4.638,5.037,12.589,5.037,17.226,0
	c3.311-3.596,67.716-73.543,71.004-77.114C343.328,71.15,342.282,40.016,322.662,21.211z"/>
<path style="fill:#ED5A81;" d="M215.601,83.106c-18.493-20.084-17.447-51.219,2.174-70.022c0.808-0.775,1.643-1.503,2.489-2.211
	c-17.552-6.621-38.134-3.416-52.488,10.34c-19.621,18.804-20.666,49.938-2.174,70.022c2.895,3.144,68.501,74.395,71.01,77.12
	c-0.003-0.003-0.003-0.003-0.006-0.007c4.638,5.037,12.589,5.037,17.227,0c1.139-1.237,9.507-10.325,20.128-21.86
	C254.089,124.906,217.739,85.428,215.601,83.106z"/>
<path style="fill:#E8C842;" d="M367.347,301.7v2.111c0,8.194,6.297,15.245,14.483,15.63c8.739,0.411,15.953-6.552,15.953-15.201
	v-2.75c0-3.294-2.67-5.964-5.964-5.964H373.52C370.111,295.529,367.347,298.291,367.347,301.7z"/>
<path style="fill:#DBBC3B;" d="M382.564,303.811V301.7c0-3.409,2.764-6.173,6.173-6.173H373.52c-3.409,0-6.173,2.764-6.173,6.173
	v2.111c0,8.194,6.297,15.245,14.483,15.63c3.068,0.144,5.938-0.635,8.384-2.062C385.61,314.643,382.564,309.507,382.564,303.811z"/>
<path style="fill:#E8C842;" d="M95.657,301.779v2.111c0,8.194,6.297,15.245,14.483,15.63c8.739,0.411,15.953-6.552,15.953-15.201
	v-2.75c0-3.294-2.67-5.964-5.964-5.964h-18.299C98.42,295.607,95.657,298.37,95.657,301.779z"/>
<path style="fill:#DBBC3B;" d="M110.873,303.89v-2.111c0-3.409,2.764-6.173,6.173-6.173h-15.218c-3.409,0-6.173,2.764-6.173,6.173
	v2.111c0,8.194,6.297,15.245,14.483,15.63c3.068,0.144,5.938-0.635,8.384-2.062C113.919,314.721,110.873,309.585,110.873,303.89z"/>
<circle style="fill:#656566;" cx="443.139" cy="270.723" r="16.664"/>
<path style="fill:#545456;" d="M443.135,270.724c-3.082-5.339-2.861-11.667,0.008-16.651c-2.835-0.004-5.708,0.7-8.34,2.22
	c-7.97,4.602-10.701,14.793-6.099,22.763c4.602,7.97,14.793,10.701,22.763,6.1c2.632-1.519,4.678-3.655,6.092-6.112
	C451.808,279.035,446.217,276.063,443.135,270.724z"/>
<circle style="fill:#656566;" cx="321.992" cy="270.723" r="16.664"/>
<path style="fill:#545456;" d="M321.994,270.724c-3.082-5.339-2.861-11.667,0.008-16.651c-2.835-0.004-5.708,0.7-8.34,2.22
	c-7.97,4.602-10.701,14.793-6.099,22.763c4.602,7.97,14.793,10.701,22.763,6.1c2.632-1.519,4.678-3.655,6.092-6.112
	C330.668,279.035,325.077,276.063,321.994,270.724z"/>
<circle style="fill:#656566;" cx="171.046" cy="282.203" r="16.664"/>
<path style="fill:#545456;" d="M171.049,282.204c-3.082-5.339-2.861-11.667,0.008-16.651c-2.835-0.004-5.708,0.7-8.34,2.22
	c-7.97,4.602-10.701,14.793-6.099,22.763c4.602,7.97,14.793,10.701,22.763,6.1c2.632-1.52,4.678-3.655,6.092-6.112
	C179.722,290.514,174.131,287.542,171.049,282.204z"/>
<circle style="fill:#656566;" cx="50.699" cy="282.203" r="16.664"/>
<path style="fill:#545456;" d="M50.699,282.204c-3.082-5.339-2.861-11.667,0.008-16.651c-2.835-0.004-5.708,0.7-8.34,2.22
	c-7.97,4.602-10.701,14.793-6.099,22.763c4.602,7.97,14.793,10.701,22.763,6.1c2.632-1.52,4.678-3.655,6.092-6.112
	C59.373,290.514,53.782,287.542,50.699,282.204z"/>
<path d="M133.492,304.341v-8.656c0-4.143-3.357-7.5-7.5-7.5s-7.5,3.357-7.5,7.5v8.656c0,4.201-3.418,7.619-7.618,7.619
	s-7.618-3.418-7.618-7.619v-8.656c0-4.143-3.357-7.5-7.5-7.5s-7.5,3.357-7.5,7.5v8.656c0,12.473,10.146,22.618,22.617,22.618
	S133.492,316.813,133.492,304.341z"/>
<path d="M195.106,282.204c0-13.266-10.793-24.058-24.058-24.058s-24.057,10.793-24.057,24.058s10.792,24.057,24.057,24.057
	S195.106,295.469,195.106,282.204z M171.048,291.261c-4.994,0-9.058-4.063-9.058-9.058s4.063-9.059,9.058-9.059
	c4.995,0,9.059,4.063,9.059,9.059C180.106,287.198,176.043,291.261,171.048,291.261z"/>
<path d="M50.7,258.145c-13.266,0-24.058,10.793-24.058,24.058s10.793,24.057,24.058,24.057s24.057-10.792,24.057-24.057
	S63.964,258.145,50.7,258.145z M50.7,291.261c-4.995,0-9.059-4.063-9.059-9.058s4.063-9.059,9.059-9.059
	c4.994,0,9.058,4.063,9.058,9.059C59.757,287.198,55.694,291.261,50.7,291.261z"/>
<path d="M80.812,243.825c-17.422-14.581-42.826-14.561-60.226,0c-3.177,2.658-3.597,7.389-0.938,10.565
	c2.659,3.177,7.389,3.597,10.565,0.938c11.829-9.9,29.115-9.924,40.973,0c1.404,1.175,3.111,1.748,4.81,1.748
	C82.944,257.076,86.208,248.34,80.812,243.825z"/>
<path d="M133.069,342.798c-8.657-9.149-24.506-5.005-21.41,5.05c1.219,3.959,5.418,6.18,9.375,4.961
	c1.534-0.467,2.05,2.239,1.67,3.137c-0.549,0.461-0.84,0.182-5.051,0.265c-4.143,0-7.5,3.357-7.5,7.5c0,4.143,3.357,7.5,7.5,7.5
	c4.213,0.081,4.51-0.195,5.051,0.265c0.414,0.977-0.163,3.606-1.67,3.136c-3.957-1.221-8.156,1.002-9.375,4.961
	c-3.092,10.046,12.764,14.188,21.41,5.051c5.342-5.644,6.19-14.666,2.457-20.912C139.259,357.46,138.41,348.44,133.069,342.798z"/>
<path d="M405.283,304.241v-8.713c0-4.143-3.357-7.5-7.5-7.5c-4.143,0-7.5,3.357-7.5,7.5v8.713c0,4.256-3.463,7.719-7.719,7.719
	c-4.256,0-7.718-3.463-7.718-7.719v-8.713c0-4.143-3.357-7.5-7.5-7.5c-4.143,0-7.5,3.357-7.5,7.5v8.713
	c0,12.527,10.191,22.718,22.717,22.718C395.091,326.96,405.283,316.768,405.283,304.241z"/>
<path d="M443.135,246.558c-13.326,0-24.166,10.841-24.166,24.166s10.841,24.166,24.166,24.166s24.166-10.841,24.166-24.166
	S456.46,246.558,443.135,246.558z M443.135,279.891c-5.055,0-9.167-4.112-9.167-9.167s4.112-9.167,9.167-9.167
	s9.167,4.112,9.167,9.167S448.19,279.891,443.135,279.891z"/>
<path d="M321.995,246.558c-13.326,0-24.166,10.841-24.166,24.166s10.841,24.166,24.166,24.166c13.326,0,24.166-10.841,24.166-24.166
	S335.321,246.558,321.995,246.558z M321.995,279.891c-5.055,0-9.167-4.112-9.167-9.167s4.112-9.167,9.167-9.167
	c5.055,0,9.167,4.112,9.167,9.167S327.049,279.891,321.995,279.891z"/>
<path d="M473.414,236.089c-17.521-14.661-43.062-14.641-60.559,0c-3.177,2.658-3.597,7.389-0.938,10.565
	c2.659,3.177,7.389,3.596,10.565,0.938c11.926-9.981,29.351-10.005,41.306,0c1.404,1.175,3.111,1.748,4.81,1.748
	C475.546,249.341,478.811,240.604,473.414,236.089z"/>
<path d="M353.212,246.654c2.658-3.177,2.238-7.907-0.938-10.565c-17.518-14.659-43.065-14.644-60.559,0.001
	c-5.331,4.461-2.19,13.251,4.817,13.251c1.698,0,3.406-0.573,4.81-1.749c11.927-9.979,29.351-10.004,41.306,0.001
	C345.824,250.25,350.554,249.831,353.212,246.654z"/>
<path d="M373.674,371.21c4.143,0,7.5-3.357,7.5-7.5c0-4.143-3.357-7.5-7.5-7.5c-4.231-0.083-4.502,0.197-5.051-0.265
	c-0.369-0.872,0.099-3.622,1.67-3.137c3.956,1.219,8.156-1.002,9.375-4.961s-1.002-8.156-4.961-9.375
	c-14.936-4.594-26.468,12.577-18.907,25.236c-3.733,6.248-2.885,15.269,2.457,20.911c8.683,9.177,24.494,4.967,21.41-5.051
	c-1.219-3.959-5.419-6.182-9.375-4.961c-1.524,0.47-2.055-2.227-1.67-3.136C369.162,371.014,369.458,371.29,373.674,371.21z"/>
<path d="M498.152,93.463c-43.349-36.728-102.457-46.162-153.72-28.922c4.542-34.611-22.457-65.571-58.206-64.468
	C270.684,0.557,255.75,7.343,245.218,18.7c-16.85-18.175-43.275-23.746-65.826-13.859c-3.793,1.664-5.521,6.087-3.857,9.881
	c1.664,3.793,6.088,5.521,9.881,3.857c16.748-7.345,36.401-3.151,48.905,10.429c1.764,1.493,4.422,6.653,10.899,6.653
	c6.623,0,9.066-5.103,10.897-6.652c15.964-17.339,43.639-18.952,60.829-2.475c15.124,14.495,19.007,40.382,0.367,60.643
	c-74.409,80.795-69.312,75.294-69.758,75.602c-1.065,0.665-2.175,0.888-3.349,0.6c-1.483-0.364-1.201-0.312-10.476-10.385
	c-66.83-72.581-63.785-68.839-66.72-73.482c-7.45-11.804-8.738-26.798-2.692-40.056c1.719-3.769,0.057-8.218-3.712-9.937
	c-3.772-1.719-8.219-0.057-9.937,3.712c-4.487,9.838-6.014,20.451-4.764,30.699c-39.93-12.395-85.719-10.378-126.968,9.91
	C7.26,79.586,0.006,91.18,0.006,104.099c0,10.788,0,375.1,0,384.729c0,12.776,10.394,23.17,23.169,23.17h130.373
	c4.143,0,7.5-3.357,7.5-7.5c0-4.143-3.357-7.5-7.5-7.5h-39.834c16.463-12.253,31.318-29.892,35.812-37.267
	c5.685-9.331,3.932-17.616,4.264-21.412c14.76,3.433,45.622,11.494,75.532,24.842c-18.555,14.047-21.663,33.089-22.093,33.838
	h-18.682c-4.143,0-7.5,3.357-7.5,7.5c0,4.143,3.357,7.5,7.5,7.5c17.079,0,280.277,0,298.987,0c13.47,0,24.427-10.959,24.427-24.428
	v-30.836c0-10.388-6.63-19.49-16.498-22.65c-17.984-5.76-33.025-9.39-40.984-11.158v-6.072
	c14.844-6.796,28.453-16.215,40.216-28.024c21.371-21.454,16.607-47.589,17.267-51.873c0-4.143-3.357-7.5-7.5-7.5
	c-4.143,0-7.5,3.357-7.5,7.5c-0.64,4.503,3.524,24.805-12.894,41.287c-69.488,69.765-194.751,33.816-209.435-63.926
	c-1.79-12.117-1.228-16.135-1.191-76.598c0.252-0.438,15.963-17.136,15.963-43.195c0.321-8.051-0.907-11.987,1.645-15.927
	c4.49-6.931,12.545-2.598,19.479,1.136c27.396,17.026,59.142,25.002,79.183,24.809c6.221,0.453,14.335-3.151,17.563-8.428
	c1.98-3.221,2.862-6.873,2.662-10.469c18.383,4.367,49.412,7.715,87.027-4.116c0,14.62,0,105.754,0,120.427
	c0,4.143,3.357,7.5,7.5,7.5c4.143,0,7.5-3.357,7.5-7.5c0-79.371,0-98.807,0-178.36C511.962,111.882,506.928,100.897,498.152,93.463z
	 M258.415,244.303v21.628C248.114,260.887,247.692,249.545,258.415,244.303z M15.006,104.099c0-7.16,4.043-13.598,10.552-16.799
	c40.134-19.739,85.909-20.893,125.476-5.74c4.982,10.459,2.279,6.255,80.199,90.868v-0.001c0.145,0.084,4.284,5.113,11.821,5.967
	c-3.669,19.396-2.501,35.71-2.526,55.654c-70.077-12.203-137.042-50.425-173.974-90.435c-4.502-4.862-12.36-3.841-15.548,1.829
	c-3.5,6.225-15.352,25.404-36.001,40.897v-82.24H15.006z M15.006,402.35c6.629,4.613,13.641,8.623,20.95,11.994v8.59
	c-6.838,1.522-14.087,3.339-20.95,5.213C15.006,428.146,15.006,402.35,15.006,402.35z M23.175,497c-4.505,0-8.17-3.665-8.17-8.171
	v-45.114c7.435-2.097,14.46-3.898,20.95-5.402c0,3.874,0,6.297,0,6.175c0.793,10.514,2.324,15.611,18.961,33.469
	c6.351,6.819,13.459,13.34,21.113,19.042H23.175V497z M133.771,456.002c-10.014,13.126-22.224,24.46-31.268,30.59
	c-4.641,3.135-10.886,3.12-15.667-0.278c-12.492-8.948-24.22-21.015-33.141-33.388c-3.717-5.167-2.722-7.759-2.738-32.691
	c28.456,9.327,59.903,9.144,87.834,0.039C138.791,449.49,140.121,447.681,133.771,456.002z M143.397,402.529
	c-27.088,11.325-49.805,9.449-51.273,9.605v0.002c-0.052-0.001-0.104-0.002-0.156-0.003v-0.003
	c-28.418-0.597-55.531-10.701-76.962-28.633V204.541c23.239-14.617,38.218-34.495,45.368-45.615
	c27.626,28.436,73.687,58.233,122.63,75.522c-14.964-3.946-30.607-0.215-42.069,9.378c-3.177,2.658-3.597,7.389-0.938,10.565
	c2.662,3.18,7.393,3.593,10.565,0.938c11.852-9.919,29.135-9.904,40.974,0c3.175,2.658,7.906,2.239,10.564-0.939
	c2.658-3.176,2.237-7.906-0.938-10.564c-3.579-2.995-7.57-5.411-11.816-7.208c8.949,2.964,18.156,5.583,26.822,7.684l0.009,51.957
	C216.177,343.698,186.475,384.509,143.397,402.529z M221.986,443.787c-29.065-11.572-56.372-18.251-68.197-20.865v-8.525
	c45.281-20.887,77.387-65.476,77.387-118.139l-0.008-48.685c1.737,0.339,3.487,0.664,5.247,0.979
	c-4.23,15.031,6.648,29.583,22.003,33.264c-0.002,13.605-0.385,22.013,1.211,33.577
	C253.071,357.775,239.783,403.041,221.986,443.787z M454.482,438.317c8.188,1.9,21.314,5.219,36.408,10.053
	c3.633,1.163,6.073,4.525,6.073,8.366v30.836c0,5.199-4.229,9.429-9.428,9.429h-73.13c7.882-5.869,15.925-13.202,23.333-21.468
	C456.548,454.55,453.979,451.383,454.482,438.317z M351.647,422.676c28.642,9.273,60.063,8.988,87.834,0.012
	c-0.275,21.882,1.154,24.82-2.699,30.184c-5.408,7.51-16.906,21.819-33.298,33.529c-4.736,3.383-11.102,3.384-15.84,0
	c-11.462-8.188-32.662-28.868-35.367-37.702C351.435,445.935,351.647,446.591,351.647,422.676z M376.723,497H222.838
	c3.473-10.836,11.179-20.188,21.525-25.694c27.534-14.613,62.262-25.994,92.283-32.983c0,1.106,0,6.318,0,6.209
	c0,2.922,0.444,5.785,1.281,8.528C342.024,466.555,365.605,488.719,376.723,497z M336.648,416.836v6.089
	c-15.079,3.34-54.856,13.196-91.431,31.113c-3.125-1.531-6.271-3.004-9.423-4.418c14.069-32.245,25.382-67.237,32.926-101.528
	C281.738,378.392,306.399,402.987,336.648,416.836z M496.962,165.949c-0.705,0.149-1.828,0.414-2.471,0.624
	c-55.257,18.136-95.899-0.209-96.285-0.388c-6.994-3.284-13.801,4.935-9.265,11.189l5.432,7.489
	c0.932,1.284,0.615,2.469,0.251,3.171c-1.654,1.872-6.257,1.531-8.751,1.382c-10.484-0.621-38.075-4.071-67.771-22.633
	c-14.414-8.975-30.414-10.581-39.644,3.664c-5.735,8.859-3.574,17.235-4.054,24.08c0,19.882-12.068,33.023-12.194,33.242
	c-2.308,0.267-4.547,0.773-6.679,1.5c0.022-20.133-1.189-36.783,4.462-57.698c70.507-76.576,73.096-77.458,78.853-88.878
	c48.038-20.399,106.907-13.963,149.607,22.214c5.406,4.58,8.507,11.393,8.507,18.691v42.351H496.962z"/>
<g>
</g>
<g>
</g>
<g>
</g>
<g>
</g>
<g>
</g>
<g>
</g>
<g>
</g>
<g>
</g>
<g>
</g>
<g>
</g>
<g>
</g>
<g>
</g>
<g>
</g>
<g>
</g>
<g>
</g>
</svg>
