<?xml version="1.0" encoding="iso-8859-1"?>
<!-- Generator: Adobe Illustrator 19.0.0, SVG Export Plug-In . SVG Version: 6.00 Build 0)  -->
<svg version="1.1" id="Capa_1" xmlns="http://www.w3.org/2000/svg" xmlns:xlink="http://www.w3.org/1999/xlink" x="0px" y="0px"
	 viewBox="0 0 512 512" style="enable-background:new 0 0 512 512;" xml:space="preserve">
<path style="fill:#E7EBEE;" d="M471.664,7.623c0,0,66.517,182.359-159.44,408.316L187.786,291.501L471.664,7.623z"/>
<path style="fill:#D9DADB;" d="M451.413,27.875c4.519,68.98-12.484,203.818-167.959,359.293l-95.667-95.667L451.413,27.875z"/>
<path style="fill:#8A9A9E;" d="M54.972,426.168l54.428,54.428c5.443,5.443,5.443,14.267,0,19.708l0,0
	c-5.443,5.443-14.267,5.443-19.708,0l-54.428-54.428c-5.443-5.443-5.443-14.267,0-19.708l0,0
	C40.705,420.725,49.529,420.725,54.972,426.168z"/>
<path style="fill:#72868C;" d="M84.839,475.744L84.839,475.744c-5.443,5.443-14.267,5.442-19.71,0l24.561,24.561
	c5.443,5.443,14.267,5.443,19.71,0l0,0c5.443-5.443,5.443-14.267,0-19.71l-24.561-24.561
	C90.281,461.477,90.281,470.301,84.839,475.744z"/>
<rect x="109.233" y="291.925" transform="matrix(0.7071 0.7071 -0.7071 0.7071 317.0087 7.8391)" style="fill:#7A5345;" width="79.618" height="189.316"/>
<rect x="149.883" y="308.772" transform="matrix(0.7071 0.7071 -0.7071 0.7071 333.8521 0.8705)" style="fill:#56372E;" width="31.984" height="189.316"/>
<path d="M478.823,5.014c-1.165-3.192-4.352-5.323-7.951-4.977c-1.804,0.174-3.468,1.061-4.749,2.343l-97.535,97.535
	c-2.978,2.978-2.978,7.805,0,10.782l0.001,0.001c2.978,2.978,7.805,2.978,10.782,0l88.389-88.389
	c1.115,4.99,2.328,11.449,3.319,19.226c2.341,18.385,3.876,48.125-2.107,85.399c-6.732,41.941-21.415,84.691-43.645,127.061
	c-26.876,51.229-64.919,102.046-113.131,151.134l-62.706-62.706l-50.918-50.917l155.643-155.653
	c2.978-2.978,2.978-7.805-0.001-10.783l0,0c-2.978-2.977-7.804-2.977-10.782,0.001L182.398,286.116L52.665,415.839
	c-2.385-0.891-4.926-1.377-7.548-1.377c-5.933,0-11.5,2.38-15.61,6.687c-3.966,4.155-6.117,9.815-5.94,15.556
	c0.17,5.504,2.393,10.653,6.305,14.564L84.3,505.696C88.504,509.9,94.024,512,99.546,512c5.521,0,11.042-2.101,15.246-6.304
	c4.071-4.072,6.314-9.487,6.314-15.246c0-2.604-0.481-5.129-1.359-7.498l42.772-42.772c2.978-2.978,2.978-7.805,0-10.782
	l-0.001-0.001c-2.978-2.978-7.805-2.978-10.782,0l-41.375,41.375l-45.533-45.532L187.788,302.29l45.526,45.526l-56.496,56.495
	c-2.978,2.978-2.978,7.805,0,10.782l0.001,0.001c2.978,2.978,7.805,2.978,10.782,0l56.495-56.495l62.729,62.729
	c1.489,1.488,3.441,2.232,5.392,2.232s3.903-0.744,5.392-2.232c52.087-52.088,93-106.25,121.604-160.983
	c22.98-43.974,38.118-88.422,44.991-132.111C495.992,53.316,479.529,6.95,478.823,5.014z M104.008,494.912
	c-2.461,2.462-6.466,2.46-8.926,0l-54.428-54.428c-1.192-1.192-1.848-2.776-1.848-4.463c0-1.687,0.657-3.271,1.849-4.464
	c1.23-1.231,2.846-1.846,4.463-1.846c1.616,0,3.233,0.615,4.463,1.846l54.428,54.428
	C106.469,488.448,106.469,492.451,104.008,494.912z"/>
<g>
</g>
<g>
</g>
<g>
</g>
<g>
</g>
<g>
</g>
<g>
</g>
<g>
</g>
<g>
</g>
<g>
</g>
<g>
</g>
<g>
</g>
<g>
</g>
<g>
</g>
<g>
</g>
<g>
</g>
</svg>
