<?xml version="1.0" encoding="iso-8859-1"?>
<!-- Generator: Adobe Illustrator 19.0.0, SVG Export Plug-In . SVG Version: 6.00 Build 0)  -->
<svg version="1.1" id="Capa_1" xmlns="http://www.w3.org/2000/svg" xmlns:xlink="http://www.w3.org/1999/xlink" x="0px" y="0px"
	 viewBox="0 0 512.001 512.001" style="enable-background:new 0 0 512.001 512.001;" xml:space="preserve">
<path style="fill:#FFB400;" d="M51.603,507.701V33.894c0-12.155-9.853-22.007-22.007-22.007l0,0
	c-12.155,0-22.007,9.854-22.007,22.007v473.806"/>
<path style="fill:#CC8E05;" d="M37.691,13.432c-2.506-0.992-5.235-1.543-8.095-1.543l0,0c-12.155,0-22.007,9.853-22.007,22.007
	v473.806h16.19V33.895C23.779,24.599,29.544,16.656,37.691,13.432z"/>
<path style="fill:#0491A8;" d="M504.414,215.953c-10.463,2.348-21.34,3.612-32.511,3.612c-36.285,0-69.515-13.114-95.196-34.869
	c-9.501-8.033-23.404-8.033-32.896,0c-13.883,11.758-29.971,20.996-47.558,26.986c-14.945,5.11-30.973,7.882-47.649,7.882
	c-55.167,0-103.251-30.294-128.537-75.161c11.94-21.168,28.939-39.098,49.379-52.121c22.868-14.591,50.027-23.04,79.158-23.04
	c36.296,0,69.515,13.124,95.206,34.869c9.491,8.033,23.394,8.033,32.896,0c25.681-21.745,58.911-34.859,95.196-34.859
	c11.171,0,22.049,1.255,32.511,3.612c-41.193,9.268-75.87,35.769-96.036,71.538C428.544,180.185,463.221,206.674,504.414,215.953z"
	/>
<path style="fill:#00B5E2;" d="M504.414,215.953c-10.463,2.348-21.34,3.612-32.511,3.612c-36.285,0-69.515-13.114-95.196-34.869
	c-9.501-8.033-23.404-8.033-32.896,0c-13.883,11.758-29.971,20.996-47.558,26.986c-60.783-25.357-107.005-68.139-126.807-119.4
	c22.868-14.591,50.027-23.04,79.158-23.04c36.296,0,69.515,13.124,95.206,34.869c9.491,8.033,23.394,8.033,32.896,0
	c25.681-21.745,58.911-34.859,95.196-34.859c11.171,0,22.049,1.255,32.511,3.612c-41.193,9.268-75.87,35.769-96.036,71.538
	C428.544,180.185,463.221,206.674,504.414,215.953z"/>
<path style="fill:#D83C7F;" d="M408.378,343.18c20.167-35.775,54.839-62.27,96.033-71.543c-10.46-2.354-21.333-3.615-32.504-3.615
	c-36.294,0-69.517,13.118-95.204,34.865c-9.493,8.037-23.402,8.037-32.896,0c-25.686-21.748-58.91-34.866-95.203-34.866
	c-55.167,0-103.25,30.299-128.537,75.159c25.287,44.861,73.37,75.158,128.537,75.158c36.294,0,69.517-13.117,95.203-34.865
	c9.493-8.037,23.402-8.037,32.896,0c25.686,21.748,58.91,34.865,95.204,34.865c11.171,0,22.044-1.262,32.504-3.616
	C463.217,405.45,428.544,378.956,408.378,343.18z"/>
<path style="fill:#F0688E;" d="M504.414,414.724c-10.463,2.348-21.34,3.612-32.511,3.612c-36.285,0-69.515-13.114-95.196-34.869
	c-9.501-8.033-23.404-8.033-32.896,0c-13.883,11.758-29.971,20.996-47.558,26.986c-60.783-25.357-107.005-68.139-126.807-119.4
	c22.868-14.591,50.027-23.04,79.158-23.04c36.296,0,69.515,13.124,95.206,34.869c9.491,8.033,23.394,8.033,32.896,0
	c25.681-21.745,58.911-34.859,95.196-34.859c11.171,0,22.049,1.255,32.511,3.612c-41.193,9.268-75.87,35.769-96.036,71.538
	C428.544,378.954,463.221,405.445,504.414,414.724z"/>
<path d="M0,507.702h15.178V104.376c0-4.191-3.398-7.589-7.589-7.589l0,0c-4.191,0-7.589,3.398-7.589,7.589V507.702z"/>
<path d="M59.192,194.085l58.476-38.96c28.345,44.622,77.778,72.031,130.936,72.031c36.631,0,72.183-13.02,100.108-36.662
	c6.687-5.662,16.398-5.662,23.088,0c27.924,23.642,63.476,36.662,100.108,36.662c11.468,0,22.965-1.279,34.172-3.803
	c3.463-0.779,5.922-3.854,5.922-7.403s-2.461-6.625-5.923-7.404c-37.053-8.34-69.231-31.612-88.911-64.138
	c19.681-32.525,51.858-55.799,88.912-64.139c3.781-0.852,6.367-4.441,5.858-8.396c-0.418-3.25-3.007-5.777-6.206-6.489
	c-11.098-2.47-22.476-3.723-33.824-3.723c-36.63,0-72.183,13.02-100.109,36.662c-6.639,5.621-16.448,5.621-23.087,0
	C320.786,74.681,285.235,61.66,248.604,61.66c-53.158,0-102.589,27.409-130.936,72.032L59.192,94.73V34.525
	c0-16.104-12.603-29.735-28.699-30.212C13.765,3.816,0,17.278,0,33.895V68.96c0,4.191,3.398,7.589,7.589,7.589l0,0
	c4.191,0,7.589-3.398,7.589-7.589V34.313c0-7.754,5.946-14.435,13.691-14.819c8.279-0.409,15.146,6.208,15.146,14.4v473.806h15.178
	V392.856l58.476-38.96c28.345,44.622,77.778,72.031,130.936,72.031c36.633,0,72.184-13.02,100.108-36.662
	c6.687-5.662,16.399-5.662,23.087,0c27.924,23.642,63.476,36.662,100.109,36.662c11.468,0,22.965-1.279,34.172-3.803
	c3.463-0.779,5.922-3.854,5.922-7.403s-2.461-6.625-5.923-7.404c-37.053-8.34-69.231-31.612-88.911-64.138
	c19.681-32.525,51.858-55.799,88.912-64.139c3.781-0.852,6.367-4.441,5.858-8.396c-0.418-3.25-3.007-5.777-6.206-6.489
	c-11.098-2.47-22.476-3.723-33.824-3.723c-36.63,0-72.183,13.02-100.109,36.662c-6.639,5.621-16.448,5.621-23.087,0
	c-27.925-23.642-63.476-36.663-100.108-36.663c-53.158,0-102.59,27.409-130.936,72.033l-58.476-38.961L59.192,194.085
	L59.192,194.085z M338.904,109.906c12.373,10.475,30.333,10.477,42.703,0C406.3,89,437.61,77.301,469.966,76.852
	c-28.454,13.644-52.423,35.841-68.199,63.829c-1.304,2.313-1.304,5.139,0,7.452c15.777,27.988,39.746,50.186,68.199,63.829
	c-32.357-0.449-63.666-12.147-88.359-33.054c-12.374-10.477-30.331-10.477-42.704,0c-25.186,21.323-57.254,33.068-90.299,33.068
	c-8.885,0-17.654-0.86-26.209-2.498c12.413-19.406,18.94-41.674,18.94-65.076c0-23.406-6.527-45.671-18.939-65.068
	c8.556-1.638,17.323-2.498,26.208-2.498C281.648,76.837,313.716,88.581,338.904,109.906z M206.768,83.282
	c12.695,17.912,19.387,38.931,19.387,61.121c0,22.186-6.693,43.208-19.389,61.13c-32.121-10.102-60.057-31.615-77.914-61.125
	C146.71,114.896,174.649,93.385,206.768,83.282z M106.38,144.407l-47.188,31.44v-62.881L106.38,144.407z M206.761,282.056
	c1.095,1.549,2.148,3.126,3.158,4.724c2.138,3.386,6.504,4.574,10.03,2.675l0,0c3.86-2.078,5.172-6.996,2.833-10.706
	c-0.135-0.214-0.269-0.426-0.405-0.638c8.561-1.641,17.335-2.502,26.228-2.502c33.043,0,65.112,11.744,90.299,33.069
	c12.373,10.476,30.333,10.476,42.703,0c24.694-20.906,56.004-32.604,88.36-33.054c-28.454,13.644-52.423,35.841-68.199,63.829
	c-1.304,2.313-1.304,5.139,0,7.452c15.776,27.988,39.745,50.186,68.199,63.829c-32.358-0.449-63.667-12.147-88.359-33.054
	c-12.374-10.477-30.331-10.477-42.704,0c-25.185,21.324-57.253,33.068-90.299,33.068c-8.887,0-17.656-0.86-26.213-2.499
	c12.412-19.395,18.939-41.663,18.939-65.075c0-10.198-1.258-20.264-3.744-30.025c-1.076-4.223-5.548-6.617-9.69-5.262l-0.02,0.007
	c-3.793,1.242-5.962,5.209-4.979,9.078c2.162,8.514,3.255,17.298,3.255,26.202c0,22.195-6.693,43.216-19.387,61.127
	c-32.119-10.102-60.054-31.614-77.909-61.123C146.709,313.671,174.644,292.16,206.761,282.056z M106.38,343.18l-47.188,31.44v-62.88
	L106.38,343.18z"/>
<path d="M180.142,143.574c1.26,2.994,4.316,4.9,7.565,4.663c3.041-0.223,5.68-2.296,6.642-5.183
	c2.189-6.567-5.194-12.387-11.099-8.884C180.076,136.053,178.698,140.166,180.142,143.574z"/>
<path d="M289.763,174.969c-4.192,0-7.589,3.397-7.589,7.589c0,4.192,3.397,7.589,7.589,7.589c20.928,0,37.955-17.026,37.955-37.954
	s-17.027-37.955-37.955-37.955c-4.192,0-7.589,3.397-7.589,7.589c0,4.192,3.397,7.589,7.589,7.589
	c12.559,0,22.777,10.218,22.777,22.777C312.54,164.752,302.323,174.969,289.763,174.969z"/>
<path d="M182.935,345.756c2.824,1.856,6.602,1.636,9.17-0.566c2.285-1.959,3.194-5.195,2.269-8.056
	c-0.96-2.968-3.719-5.118-6.847-5.264c-3.291-0.154-6.358,1.882-7.492,4.968C178.846,340.067,180.049,343.853,182.935,345.756z"/>
<path d="M289.763,373.741c-4.192,0-7.589,3.397-7.589,7.589c0,4.192,3.397,7.589,7.589,7.589c20.928,0,37.955-17.026,37.955-37.954
	c0-20.928-17.027-37.954-37.955-37.954c-4.192,0-7.589,3.397-7.589,7.589c0,4.192,3.397,7.589,7.589,7.589
	c12.559,0,22.777,10.218,22.777,22.776S302.323,373.741,289.763,373.741z"/>
<g>
</g>
<g>
</g>
<g>
</g>
<g>
</g>
<g>
</g>
<g>
</g>
<g>
</g>
<g>
</g>
<g>
</g>
<g>
</g>
<g>
</g>
<g>
</g>
<g>
</g>
<g>
</g>
<g>
</g>
</svg>
