<?xml version="1.0" encoding="iso-8859-1"?>
<!-- Generator: Adobe Illustrator 19.0.0, SVG Export Plug-In . SVG Version: 6.00 Build 0)  -->
<svg version="1.1" id="Capa_1" xmlns="http://www.w3.org/2000/svg" xmlns:xlink="http://www.w3.org/1999/xlink" x="0px" y="0px"
	 viewBox="0 0 511.999 511.999" style="enable-background:new 0 0 511.999 511.999;" xml:space="preserve">
<path style="fill:#302D36;" d="M340.208,459.211v37.874c-22.182,4.929-49.375,7.312-83.141,7.312c-32.78,0-59.398-2.218-81.17-6.901
	v-37.874L173.844,52.79V14.916c22.182-4.929,49.375-7.312,83.141-7.312c32.78,0,59.398,2.218,81.17,6.901v37.874"/>
<path style="fill:#EB0B21;" d="M329.191,459.211H182.808c-65.877,0-119.281-53.403-119.281-119.281V172.07
	c0-65.877,53.403-119.281,119.281-119.281h146.382c65.877,0,119.281,53.403,119.281,119.281V339.93
	C448.471,405.807,395.067,459.211,329.191,459.211z"/>
<g>
	<path style="fill:#B40000;" d="M123.345,339.93V172.07c0-65.877,53.404-119.281,119.281-119.281h-59.818
		c-65.877,0-119.281,53.403-119.281,119.281V339.93c0,65.877,53.404,119.281,119.281,119.281h59.818
		C176.749,459.21,123.345,405.807,123.345,339.93z"/>
	<path style="fill:#B40000;" d="M388.654,339.93V172.07c0-65.877-53.404-119.281-119.281-119.281h59.818
		c65.877,0,119.281,53.403,119.281,119.281V339.93c0,65.877-53.404,119.281-119.281,119.281h-59.818
		C335.249,459.21,388.654,405.807,388.654,339.93z"/>
</g>
<path d="M345.758,46.267V14.505c0-3.583-2.502-6.68-6.005-7.434C317.633,2.313,290.557,0,256.984,0
	c-34.366,0-62.1,2.451-84.79,7.492c-3.48,0.774-5.954,3.859-5.954,7.423v31.352C104.076,54.41,55.924,107.721,55.924,172.07V339.93
	c0,65.055,49.217,118.824,112.37,126.049v31.515c0,3.583,2.502,6.68,6.005,7.434c22.12,4.758,49.194,7.071,82.769,7.071
	c34.366,0,62.102-2.451,84.791-7.492c3.48-0.773,5.954-3.859,5.954-7.422v-31.64c61.167-9.036,108.262-61.876,108.262-125.515
	V172.07C456.074,107.72,407.922,54.41,345.758,46.267z M181.448,21.103c20.49-3.963,45.287-5.895,75.537-5.895
	c29.465,0,53.617,1.812,73.566,5.528v24.468c-0.453-0.005-0.905-0.017-1.36-0.017H182.808c-0.455,0-0.906,0.012-1.361,0.017V21.103z
	 M332.604,490.898c-20.489,3.963-45.287,5.895-75.538,5.895c-29.465,0-53.617-1.812-73.566-5.528v-24.449H329.19
	c1.142,0,2.279-0.017,3.414-0.047v24.129H332.604z M440.866,339.93c0,61.579-50.098,111.677-111.676,111.677H182.808
	c-27.925,0-53.489-10.303-73.091-27.307h267.962c4.2,0,7.604-3.405,7.604-7.604c0-4.199-3.404-7.604-7.604-7.604H95.186
	c-8.893-11.243-15.671-24.228-19.732-38.354h284.986c4.2,0,7.604-3.405,7.604-7.604c0-4.199-3.404-7.604-7.604-7.604H72.226
	c-0.716-5.1-1.095-10.306-1.095-15.599v-22.765h330.88c4.2,0,7.604-3.405,7.604-7.604c0-4.199-3.404-7.604-7.604-7.604H71.132
	v-38.354h330.88c4.2,0,7.604-3.405,7.604-7.604c0-4.199-3.404-7.604-7.604-7.604H71.132v-38.354h24.694
	c4.2,0,7.604-3.405,7.604-7.604c0-4.199-3.404-7.604-7.604-7.604H71.132V172.07c0-5.294,0.379-10.502,1.095-15.601h329.785
	c4.2,0,7.604-3.405,7.604-7.604c0-4.199-3.404-7.604-7.604-7.604H75.456c4.061-14.126,10.839-27.113,19.733-38.354h282.49
	c4.2,0,7.604-3.405,7.604-7.604c0-4.199-3.404-7.604-7.604-7.604H109.72c19.601-17.002,45.164-27.304,73.088-27.304h146.382
	c61.578,0,111.676,50.098,111.676,111.677L440.866,339.93L440.866,339.93z"/>
<path d="M402.011,194.833H121.174c-4.2,0-7.604,3.405-7.604,7.604c0,4.199,3.404,7.604,7.604,7.604h280.838
	c4.2,0,7.604-3.405,7.604-7.604C409.615,198.237,406.212,194.833,402.011,194.833z"/>
<path d="M402.011,355.53h-16.222c-4.2,0-7.604,3.405-7.604,7.604c0,4.199,3.404,7.604,7.604,7.604h16.222
	c4.2,0,7.604-3.405,7.604-7.604C409.615,358.934,406.212,355.53,402.011,355.53z"/>
<g>
</g>
<g>
</g>
<g>
</g>
<g>
</g>
<g>
</g>
<g>
</g>
<g>
</g>
<g>
</g>
<g>
</g>
<g>
</g>
<g>
</g>
<g>
</g>
<g>
</g>
<g>
</g>
<g>
</g>
</svg>
