<?xml version="1.0" encoding="iso-8859-1"?>
<!-- Generator: Adobe Illustrator 19.0.0, SVG Export Plug-In . SVG Version: 6.00 Build 0)  -->
<svg version="1.1" id="Capa_1" xmlns="http://www.w3.org/2000/svg" xmlns:xlink="http://www.w3.org/1999/xlink" x="0px" y="0px"
	 viewBox="0 0 511.999 511.999" style="enable-background:new 0 0 511.999 511.999;" xml:space="preserve">
<path style="fill:#00AACA;" d="M302.02,504.415c-30.358-6.287-61.682-6.287-92.041,0c0-43.062,0-86.125,0-129.187
	c30.358-6.287,61.682-6.287,92.041,0C302.02,418.29,302.02,461.353,302.02,504.415z"/>
<path style="fill:#EC1518;" d="M285.443,61.19h-58.889c-6.722,0-12.17-5.448-12.17-12.17l0,0c0-6.722,5.448-12.17,12.17-12.17
	h58.889c6.722,0,12.17,5.448,12.17,12.17l0,0C297.613,55.742,292.165,61.19,285.443,61.19z"/>
<path style="fill:#C0ECF2;" d="M173.234,309.995h165.53c38.663-22.373,64.039-59.98,64.039-102.606
	c0-68.606-65.726-124.223-146.804-124.223s-146.804,55.617-146.804,124.223C109.195,250.015,134.572,287.622,173.234,309.995z"/>
<g>
	<path style="fill:#DDF0F2;" d="M109.195,207.389c0,42.627,25.377,80.232,64.039,102.606h33.729
		c-22.906-22.373-37.942-59.98-37.942-102.606c0-68.606,38.941-124.223,86.978-124.223
		C174.921,83.166,109.195,138.782,109.195,207.389z"/>
	<circle style="fill:#DDF0F2;" cx="326.803" cy="162.331" r="26.296"/>
</g>
<path d="M263.588,75.741v-6.966h21.37c10.699,0,19.822-8.303,20.227-18.994c0.425-11.24-8.595-20.518-19.741-20.518h-21.856V7.904
	c0-4.154-3.2-7.776-7.352-7.9c-4.295-0.129-7.819,3.315-7.819,7.582v21.678h-21.376c-10.699,0-19.822,8.303-20.227,18.994
	c-0.425,11.239,8.595,20.517,19.741,20.517h21.862v6.965C166.794,79.128,101.61,136.88,101.61,207.388
	c0,43.797,25.371,84.621,67.867,109.195c1.14,0.659,2.442,0.996,3.758,0.996h75.18v45.456c-13.365,0.437-26.718,2.016-39.992,4.766
	c-3.514,0.728-6.029,3.836-6.029,7.424v31.545c0,4.154,3.2,7.776,7.352,7.9c4.295,0.129,7.819-3.315,7.819-7.582v-25.602
	c10.252-1.83,20.547-2.912,30.85-3.272v10.351c0,4.154,3.2,7.776,7.352,7.9c4.295,0.129,7.819-3.315,7.819-7.582v-10.668
	c10.303,0.36,20.598,1.442,30.849,3.272v113.793c-25.545-4.261-51.326-4.261-76.87,0v-57.53c0-4.154-3.2-7.776-7.352-7.9
	c-4.295-0.129-7.819,3.315-7.819,7.582v66.804c0,1.411,0.318,2.824,1.045,4.033c1.733,2.881,4.99,4.21,8.079,3.571
	c29.518-6.113,59.449-6.113,88.964,0c0.511,0.105,1.026,0.158,1.538,0.158c2.61,0,5.143-1.348,6.579-3.797
	c0.701-1.197,1.006-2.585,1.006-3.972V375.226c0-3.587-2.515-6.697-6.029-7.424c-13.274-2.75-26.626-4.329-39.992-4.766v-45.455
	h20.231c4.189,0,7.586-3.396,7.586-7.586l0,0c0-4.189-3.396-7.586-7.586-7.586H175.299c-36.683-21.921-58.519-57.308-58.519-95.02
	c0-64.314,62.453-116.638,139.218-116.638s139.218,52.324,139.218,116.638c0,37.713-21.836,73.099-58.519,95.02h-17.483
	c-4.189,0-7.586,3.396-7.586,7.586l0,0c0,4.189,3.396,7.586,7.586,7.586h19.547c1.317,0,2.618-0.337,3.758-0.996
	c42.495-24.575,67.867-65.398,67.867-109.195C410.389,136.882,345.207,79.131,263.588,75.741z M221.971,49.02
	c0-2.529,2.056-4.585,4.585-4.585h58.889c2.529,0,4.585,2.057,4.585,4.585c0,2.527-2.057,4.585-4.585,4.585h-58.889
	C224.027,53.605,221.971,51.548,221.971,49.02z"/>
<path d="M248.414,107.716v178.007c0,4.189,3.396,7.586,7.586,7.586s7.586-3.396,7.586-7.586V107.716
	c0-4.189-3.396-7.586-7.585-7.586C251.81,100.13,248.414,103.527,248.414,107.716z"/>
<path d="M255.999,413.743c-4.189,0-7.586,3.396-7.586,7.586v16.912l-16.084-5.226c-3.986-1.295-8.263,0.886-9.558,4.87
	c-1.295,3.984,0.886,8.264,4.87,9.559l16.084,5.226l-9.941,13.682c-2.463,3.389-1.711,8.133,1.678,10.595
	c1.346,0.978,2.907,1.449,4.452,1.449c2.345,0,4.659-1.084,6.143-3.127l9.941-13.682l9.94,13.682
	c1.485,2.043,3.798,3.127,6.143,3.127c1.545,0,3.106-0.471,4.452-1.449c3.389-2.463,4.141-7.206,1.679-10.595l-9.941-13.682
	l16.083-5.226c3.984-1.295,6.166-5.574,4.87-9.558c-1.296-3.984-5.577-6.166-9.558-4.87l-16.084,5.226v-16.912
	C263.585,417.139,260.189,413.743,255.999,413.743z"/>
<g>
</g>
<g>
</g>
<g>
</g>
<g>
</g>
<g>
</g>
<g>
</g>
<g>
</g>
<g>
</g>
<g>
</g>
<g>
</g>
<g>
</g>
<g>
</g>
<g>
</g>
<g>
</g>
<g>
</g>
</svg>
