<?xml version="1.0" encoding="iso-8859-1"?>
<!-- Generator: Adobe Illustrator 19.0.0, SVG Export Plug-In . SVG Version: 6.00 Build 0)  -->
<svg version="1.1" id="Capa_1" xmlns="http://www.w3.org/2000/svg" xmlns:xlink="http://www.w3.org/1999/xlink" x="0px" y="0px"
	 viewBox="0 0 512.001 512.001" style="enable-background:new 0 0 512.001 512.001;" xml:space="preserve">
<path style="fill:#525263;" d="M467.963,433.924H44.036c-20.121,0-36.433-16.312-36.433-36.433v-16.793h496.792v16.793
	C504.396,417.613,488.084,433.924,467.963,433.924z"/>
<path style="fill:#302C49;" d="M446.886,78.076H62.715c-12.755,0-23.096,10.34-23.096,23.096v279.527h430.363V101.172
	C469.982,88.417,459.641,78.076,446.886,78.076z"/>
<rect x="68" y="106.466" style="fill:#4C5E66;" width="373.588" height="245.851"/>
<polygon style="fill:#6C8188;" points="441.59,106.462 441.59,352.313 277.791,352.313 213.806,106.462 "/>
<path style="fill:#F2F2F2;" d="M290.474,407.311h-68.949c-10.775,0-19.511-8.735-19.511-19.511v-7.102h107.971v7.102
	C309.985,398.576,301.25,407.311,290.474,407.311z"/>
<path d="M504.396,373.095h-26.81V101.172c0-16.955-13.745-30.7-30.7-30.7H62.714c-16.955,0-30.7,13.745-30.7,30.7v271.923H7.604
	c-4.199,0-7.604,3.405-7.604,7.604v16.793c0,24.321,19.716,44.037,44.037,44.037H330.52c4.199,0,7.604-3.405,7.604-7.604l0,0
	c0-4.199-3.405-7.604-7.604-7.604H44.037c-15.922-0.001-28.829-12.907-28.829-28.829v-9.189h24.411h154.803
	c0.27,14.719,12.319,26.613,27.103,26.613h68.95c14.783,0,26.833-11.894,27.103-26.613h152.406h26.81v9.189
	c0,15.922-12.907,28.829-28.829,28.829H366.007c-4.199,0-7.604,3.405-7.604,7.604l0,0c0,4.199,3.405,7.604,7.604,7.604h101.957
	c24.321,0,44.037-19.716,44.037-44.037v-16.793C512,376.499,508.595,373.095,504.396,373.095z M290.474,399.707h-68.95
	c-6.397,0-11.633-5.071-11.896-11.405h92.742C302.107,394.635,296.872,399.707,290.474,399.707z M47.223,373.095V101.172
	c0-8.543,6.949-15.492,15.492-15.492h384.171c8.543,0,15.492,6.949,15.492,15.492v271.923H47.223z"/>
<path d="M441.594,98.861H147.015c-4.199,0-7.604,3.405-7.604,7.604l0,0c0,4.199,3.405,7.604,7.604,7.604H433.99v230.638H75.611
	V114.069h35.917c4.199,0,7.604-3.405,7.604-7.604l0,0c0-4.199-3.405-7.604-7.604-7.604H68.007c-4.199,0-7.604,3.405-7.604,7.604
	v245.846c0,4.199,3.405,7.604,7.604,7.604h373.587c4.199,0,7.604-3.405,7.604-7.604V106.465
	C449.198,102.265,445.794,98.861,441.594,98.861z"/>
<g>
</g>
<g>
</g>
<g>
</g>
<g>
</g>
<g>
</g>
<g>
</g>
<g>
</g>
<g>
</g>
<g>
</g>
<g>
</g>
<g>
</g>
<g>
</g>
<g>
</g>
<g>
</g>
<g>
</g>
</svg>
