<?xml version="1.0" encoding="iso-8859-1"?>
<!-- Generator: Adobe Illustrator 19.0.0, SVG Export Plug-In . SVG Version: 6.00 Build 0)  -->
<svg version="1.1" id="Layer_1" xmlns="http://www.w3.org/2000/svg" xmlns:xlink="http://www.w3.org/1999/xlink" x="0px" y="0px"
	 viewBox="0 0 512 512" style="enable-background:new 0 0 512 512;" xml:space="preserve">
<circle style="fill:#F7B239;" cx="255.996" cy="256.006" r="218.495"/>
<path style="fill:#E09B2D;" d="M141.207,370.794c-78.6-78.6-84.793-202.183-18.586-287.875c-7.334,5.666-14.39,11.859-21.117,18.586
	c-85.326,85.326-85.326,223.667,0,308.993s223.667,85.326,308.993,0c6.726-6.726,12.92-13.783,18.586-21.117
	C343.39,455.588,219.807,449.394,141.207,370.794z"/>
<path style="fill:#FFFFFF;" d="M359.803,219.989v37.847c-57.326,57.326-150.274,57.326-207.61,0v-37.847
	C209.529,277.326,302.477,277.326,359.803,219.989z"/>
<path style="fill:#F95428;" d="M282.415,327.557c16.845,0,31.487,9.405,38.969,23.248c-17.849,14.502-40.6,23.183-65.381,23.183
	c-24.781,0-47.532-8.681-65.381-23.183c7.472-13.843,22.125-23.248,38.959-23.248c9.902,0,19.047,3.25,26.422,8.746
	C263.378,330.808,272.513,327.557,282.415,327.557z"/>
<path style="fill:#A81004;" d="M359.803,257.836v12.353c0,28.668-11.618,54.616-30.407,73.393c-2.538,2.548-5.215,4.956-8.012,7.224
	c-7.483-13.843-22.125-23.248-38.969-23.248c-9.902,0-19.037,3.25-26.412,8.746c-7.375-5.496-16.521-8.746-26.422-8.746
	c-16.834,0-31.487,9.405-38.959,23.248c-23.453-19.015-38.43-48.072-38.43-80.617v-12.353
	C209.529,315.161,302.477,315.161,359.803,257.836z"/>
<path style="fill:#2BA5F7;" d="M8.098,240.087L8.098,240.087c0-26.232,21.265-47.497,47.497-47.497h47.497v47.497
	c0,26.231-21.265,47.497-47.497,47.497l0,0C29.364,287.584,8.098,266.32,8.098,240.087z"/>
<path style="fill:#2197D8;" d="M30.614,240.087L30.614,240.087c0-26.232,21.265-47.497,47.497-47.497H55.595
	c-26.231,0-47.497,21.265-47.497,47.497l0,0c0,26.232,21.265,47.497,47.497,47.497l0,0c3.881,0,7.648-0.476,11.258-1.354
	C46.057,281.174,30.614,262.439,30.614,240.087z"/>
<path style="fill:#2BA5F7;" d="M503.903,240.087L503.903,240.087c0-26.232-21.265-47.497-47.497-47.497H408.91v47.497
	c0,26.231,21.265,47.497,47.497,47.497l0,0C482.637,287.584,503.903,266.32,503.903,240.087z"/>
<path style="fill:#2197D8;" d="M426.818,240.087v-47.497h-17.909v47.497c0,26.232,21.265,47.497,47.497,47.497l0,0
	c3.062,0,6.053-0.301,8.955-0.855C443.411,282.54,426.818,263.256,426.818,240.087z"/>
<path d="M362.902,212.507c-3.027-1.254-6.51-0.56-8.826,1.756c-26.196,26.201-61.026,40.63-98.075,40.63
	s-71.881-14.429-98.082-40.63c-2.317-2.317-5.8-3.008-8.825-1.756c-3.027,1.254-4.999,4.207-4.999,7.482v50.199
	c0,33.885,15.1,65.561,41.422,86.901c19.84,16.119,44.873,24.996,70.487,24.996c25.615,0,50.647-8.877,70.481-24.991
	c3.045-2.469,5.956-5.094,8.636-7.786c21.139-21.125,32.78-49.224,32.78-79.12v-50.199
	C367.901,216.713,365.929,213.761,362.902,212.507z M256.002,271.09c35.156,0,68.521-11.631,95.702-33.078v16.41
	c-53.449,50.989-137.955,50.99-191.414,0V238.01C187.478,259.456,220.848,271.09,256.002,271.09z M201.61,348.911
	c6.793-8.3,17-13.255,27.971-13.255c7.851,0,15.315,2.469,21.583,7.142c2.871,2.139,6.808,2.139,9.678,0
	c6.269-4.672,13.728-7.142,21.573-7.142c10.97,0,21.179,4.955,27.979,13.258c-15.899,10.984-34.944,16.976-54.391,16.976
	C236.557,365.89,217.513,359.898,201.61,348.911z M323.657,337.868c-0.247,0.248-0.506,0.493-0.758,0.741
	c-9.842-11.997-24.617-19.15-40.484-19.15c-9.403,0-18.428,2.453-26.412,7.14c-7.985-4.686-17.013-7.14-26.422-7.14
	c-15.873,0-30.648,7.154-40.482,19.154c-17.035-16.608-27.212-38.815-28.632-62.648c27.943,21.922,61.737,32.89,95.535,32.89
	c33.791,0,67.576-10.965,95.512-32.877C350.127,299.366,340.377,321.16,323.657,337.868z"/>
<path d="M512,240.087c0-25.321-17.022-46.727-40.219-53.416c-14.152-43.99-42.135-83.437-79.182-111.472
	c-39.588-29.958-86.821-45.793-136.596-45.793c-49.779,0-97.017,15.835-136.606,45.793c-37.047,28.034-65.032,67.482-79.184,111.474
	C17.02,193.364,0,214.768,0,240.087c0,22.231,13.12,41.445,32.019,50.333c7.971,52.248,34.122,100.188,73.988,135.422
	c41.405,36.596,94.676,56.75,149.996,56.75c55.316,0,108.583-20.154,149.987-56.75c39.864-35.235,66.015-83.174,73.987-135.42
	C498.878,281.536,512,262.32,512,240.087z M16.197,240.087c0-21.724,17.674-39.398,39.398-39.398h39.398v39.398
	c0,21.724-17.674,39.398-39.398,39.398S16.197,261.812,16.197,240.087z M395.264,413.707
	c-38.441,33.977-87.898,52.689-139.261,52.689c-51.367,0-100.827-18.713-139.27-52.689c-35.144-31.061-58.801-72.752-67.44-118.392
	c2.07,0.234,4.17,0.367,6.302,0.367c30.655,0,55.595-24.94,55.595-55.595v-47.497c0-19.354,15.745-35.1,35.1-35.1
	s35.1,15.745,35.1,35.1c0,4.472,3.626,8.098,8.098,8.098s8.098-3.626,8.098-8.098c0-28.285-23.011-51.296-51.296-51.296
	c-25.529,0-46.756,18.748-50.651,43.198H58.08c13.773-37.964,38.7-71.864,71.092-96.376c36.753-27.811,80.61-42.512,126.832-42.512
	c46.217,0,90.071,14.7,126.822,42.512c32.392,24.512,57.318,58.413,71.092,96.376h-37.556c-3.895-24.45-25.122-43.198-50.651-43.198
	c-28.284,0-51.295,23.011-51.295,51.296c0,4.472,3.625,8.098,8.098,8.098c4.474,0,8.098-3.626,8.098-8.098
	c0-19.354,15.745-35.1,35.098-35.1c19.354,0,35.1,15.745,35.1,35.1v47.497c0,30.655,24.94,55.595,55.595,55.595
	c2.13,0,4.229-0.133,6.297-0.367C454.064,340.956,430.408,382.646,395.264,413.707z M456.405,279.486
	c-21.724,0-39.398-17.674-39.398-39.398v-39.399h39.398c21.724,0,39.398,17.674,39.398,39.398S478.129,279.486,456.405,279.486z"/>
<g>
</g>
<g>
</g>
<g>
</g>
<g>
</g>
<g>
</g>
<g>
</g>
<g>
</g>
<g>
</g>
<g>
</g>
<g>
</g>
<g>
</g>
<g>
</g>
<g>
</g>
<g>
</g>
<g>
</g>
</svg>
