<?xml version="1.0" encoding="iso-8859-1"?>
<!-- Generator: Adobe Illustrator 19.0.0, SVG Export Plug-In . SVG Version: 6.00 Build 0)  -->
<svg version="1.1" id="Layer_1" xmlns="http://www.w3.org/2000/svg" xmlns:xlink="http://www.w3.org/1999/xlink" x="0px" y="0px"
	 viewBox="0 0 512 512" style="enable-background:new 0 0 512 512;" xml:space="preserve">
<circle style="fill:#F7B239;" cx="256.004" cy="256.004" r="246.855"/>
<path style="fill:#E09B2D;" d="M126.308,385.694c-88.802-88.802-95.799-228.426-20.999-325.242
	C97.023,66.853,89.051,73.85,81.45,81.45c-96.401,96.401-96.401,252.698,0,349.099s252.698,96.401,349.099,0
	c7.599-7.599,14.597-15.573,20.999-23.858C354.733,481.492,215.108,474.494,126.308,385.694z"/>
<path style="fill:#FFFFFF;" d="M131.567,263.964h248.868c0,13.968-2.306,27.4-6.551,39.941H138.118
	C133.872,291.364,131.567,277.933,131.567,263.964z"/>
<path style="fill:#A81004;" d="M138.118,303.905h235.765c-8.369,24.716-24.289,45.931-45.016,60.924
	c-8.71-14.676-24.716-24.509-43.027-24.509c-11.187,0-21.508,3.672-29.84,9.882c-8.332-6.21-18.665-9.882-29.852-9.882
	c-18.299,0-34.317,9.833-43.015,24.509C162.407,349.836,146.487,328.621,138.118,303.905z"/>
<path style="fill:#F95428;" d="M329.868,366.586c-0.317-0.598-0.659-1.183-1-1.757c-8.71-14.676-24.716-24.509-43.027-24.509
	c-11.187,0-21.508,3.672-29.84,9.882c-8.332-6.21-18.665-9.882-29.852-9.882c-18.299,0-34.317,9.833-43.015,24.509
	c-0.342,0.573-0.683,1.159-1,1.757v6.185c0,40.796,33.071,73.867,73.867,73.867l0,0c40.796,0,73.867-33.071,73.867-73.867
	L329.868,366.586L329.868,366.586z"/>
<path style="fill:#E54728;" d="M328.868,364.829c-8.71-14.676-24.716-24.509-43.027-24.509c-11.187,0-21.508,3.672-29.84,9.882
	c-8.332-6.21-18.665-9.882-29.852-9.882c-18.299,0-34.317,9.833-43.015,24.509c-0.342,0.573-0.683,1.159-1,1.757v6.185
	c0,6.882,0.961,13.535,2.722,19.854c8.995-13.168,24.141-21.806,41.294-21.806c11.187,0,21.52,3.672,29.852,9.882
	c8.332-6.21,18.653-9.882,29.84-9.882c17.165,0,32.303,8.64,41.306,21.809c1.76-6.321,2.722-12.974,2.722-19.857v-6.185
	C329.551,365.988,329.209,365.402,328.868,364.829z"/>
<path d="M256.001,0C114.841,0,0,114.841,0,255.999C0,397.159,114.841,512,256.001,512C397.159,512,512,397.159,512,255.999
	C512,114.841,397.159,0,256.001,0z M256.001,493.701c-131.069,0-237.702-106.632-237.702-237.702
	c0-131.068,106.632-237.7,237.702-237.7c131.068,0,237.7,106.632,237.7,237.7C493.701,387.068,387.068,493.701,256.001,493.701z"/>
<path d="M380.438,254.815H131.57c-5.053,0-9.15,4.097-9.15,9.15c0,14.661,2.367,29.087,7.034,42.876
	c8.291,24.485,23.287,45.716,43.529,61.758v4.173c0,45.776,37.241,83.017,83.017,83.017s83.017-37.241,83.017-83.017v-4.167
	c20.245-16.042,35.244-37.276,43.536-61.764c4.667-13.788,7.034-28.214,7.034-42.875
	C389.588,258.911,385.491,254.815,380.438,254.815z M370.93,273.114c-0.576,7.339-1.854,14.575-3.809,21.642H144.886
	c-1.954-7.067-3.233-14.303-3.809-21.642H370.93z M320.718,372.772c0,35.686-29.032,64.718-64.718,64.718
	s-64.718-29.032-64.718-64.718v-3.74c7.381-12.08,20.689-19.562,34.866-19.562c7.384,0,14.451,1.96,20.702,5.653v33.275
	c0,5.053,4.097,9.15,9.15,9.15s9.15-4.097,9.15-9.15v-33.275c6.25-3.693,13.313-5.653,20.69-5.653
	c14.17,0,27.479,7.478,34.878,19.562V372.772z M330.679,351.794c-11.137-12.901-27.534-20.623-44.839-20.623
	c-10.624,0-20.819,2.77-29.84,8.066c-9.021-5.296-19.221-8.066-29.852-8.066c-17.309,0-33.704,7.721-44.828,20.615
	c-12.623-10.71-22.679-23.853-29.663-38.732h208.694C353.365,327.937,343.306,341.084,330.679,351.794z"/>
<path d="M206.972,214.195c0.827-3.622-0.617-7.386-3.657-9.523l-54.287-38.174c-4.133-2.906-9.84-1.912-12.747,2.222
	c-2.906,4.133-1.912,9.84,2.222,12.747l35.988,25.306l-75.524,12.469c-4.986,0.823-8.36,5.532-7.537,10.518
	c0.739,4.481,4.619,7.66,9.017,7.66c0.495,0,0.997-0.04,1.502-0.123l97.595-16.113C203.209,220.578,206.145,217.817,206.972,214.195
	z"/>
<path d="M413.032,219.243l-75.524-12.469l35.988-25.306c4.133-2.907,5.129-8.614,2.222-12.747
	c-2.907-4.134-8.615-5.129-12.747-2.221l-54.287,38.174c-3.04,2.137-4.484,5.9-3.657,9.523c0.827,3.623,3.764,6.384,7.429,6.989
	l97.595,16.113c0.505,0.083,1.006,0.123,1.502,0.123c4.397,0,8.276-3.179,9.017-7.66
	C421.394,224.774,418.018,220.065,413.032,219.243z"/>
<g>
</g>
<g>
</g>
<g>
</g>
<g>
</g>
<g>
</g>
<g>
</g>
<g>
</g>
<g>
</g>
<g>
</g>
<g>
</g>
<g>
</g>
<g>
</g>
<g>
</g>
<g>
</g>
<g>
</g>
</svg>
