<?xml version="1.0" encoding="iso-8859-1"?>
<!-- Generator: Adobe Illustrator 19.0.0, SVG Export Plug-In . SVG Version: 6.00 Build 0)  -->
<svg version="1.1" id="Capa_1" xmlns="http://www.w3.org/2000/svg" xmlns:xlink="http://www.w3.org/1999/xlink" x="0px" y="0px"
	 viewBox="0 0 512 512" style="enable-background:new 0 0 512 512;" xml:space="preserve">
<rect x="7.601" y="178.825" style="fill:#C0C2D0;" width="496.791" height="321.474"/>
<polyline style="fill:#D0D7DD;" points="327.242,339.58 504.368,500.328 7.629,500.328 184.755,339.58 "/>
<polygon style="fill:#E6EBEF;" points="255.998,404.273 7.601,178.821 504.396,178.821 "/>
<polygon style="fill:#E8181C;" points="291.483,11.696 329.699,11.696 329.699,129.069 387.021,129.069 255.998,254.633 
	124.976,129.069 182.298,129.069 182.298,11.696 220.513,11.696 "/>
<path d="M512,331.821V178.82c0-4.2-3.405-7.604-7.604-7.604H354.033l38.09-36.503c1.817-1.741,2.803-4.245,2.427-6.733
	c-0.58-3.84-3.834-6.514-7.529-6.514h-49.718V11.696c0-4.2-3.405-7.604-7.604-7.604H182.298c-4.2,0-7.604,3.405-7.604,7.604v35.213
	c0,4.2,3.405,7.604,7.604,7.604l0,0c4.2,0,7.604-3.405,7.604-7.604V19.3h132.192v109.77c0,4.2,3.405,7.604,7.604,7.604h38.396
	L255.998,244.101L143.901,136.674h38.397c4.2,0,7.604-3.405,7.604-7.604V82.396c0-4.2-3.405-7.604-7.604-7.604l0,0
	c-4.2,0-7.604,3.405-7.604,7.604v39.068h-49.496c-2.517,0-4.962,1.124-6.412,3.182c-2.239,3.174-1.739,7.356,0.929,9.913
	l38.25,36.656H7.604c-4.2,0-7.604,3.405-7.604,7.604v321.484c0,4.2,3.405,7.604,7.604,7.604h496.791c4.2,0,7.604-3.405,7.604-7.604
	V367.308c0-4.2-3.405-7.604-7.604-7.604l0,0c-4.2,0-7.604,3.405-7.604,7.604v115.873L338.555,339.578l158.237-143.58v135.824
	c0,4.2,3.405,7.604,7.604,7.604l0,0C508.595,339.425,512,336.021,512,331.821z M250.737,260.124
	c1.471,1.409,3.366,2.114,5.261,2.114c1.895,0,3.791-0.705,5.261-2.114l76.903-73.699h146.544l-228.735,207.55L27.311,186.425
	h146.522L250.737,260.124z M173.427,339.591L15.209,483.179v-287.2L173.427,339.591z M484.648,492.7h-457.3l157.393-142.839
	l66.119,60.015c1.45,1.316,3.28,1.974,5.111,1.974c1.83,0,3.66-0.658,5.11-1.973l66.158-60.03L484.648,492.7z"/>
<g>
</g>
<g>
</g>
<g>
</g>
<g>
</g>
<g>
</g>
<g>
</g>
<g>
</g>
<g>
</g>
<g>
</g>
<g>
</g>
<g>
</g>
<g>
</g>
<g>
</g>
<g>
</g>
<g>
</g>
</svg>
