<?xml version="1.0" encoding="iso-8859-1"?>
<!-- Generator: Adobe Illustrator 19.0.0, SVG Export Plug-In . SVG Version: 6.00 Build 0)  -->
<svg version="1.1" id="Capa_1" xmlns="http://www.w3.org/2000/svg" xmlns:xlink="http://www.w3.org/1999/xlink" x="0px" y="0px"
	 viewBox="0 0 512 512" style="enable-background:new 0 0 512 512;" xml:space="preserve">
<rect x="7.604" y="95.262" style="fill:#C0C2D0;" width="496.792" height="321.475"/>
<polyline style="fill:#D0D7DD;" points="327.243,256.018 504.369,416.766 7.631,416.766 184.757,256.018 "/>
<polygon style="fill:#E6EBEF;" points="256,320.711 7.604,95.261 504.396,95.261 "/>
<path d="M504.396,87.657h-79.583c-4.199,0-7.604,3.405-7.604,7.604l0,0c0,4.199,3.405,7.604,7.604,7.604h59.891L256,310.442
	L27.296,102.865h362.031c4.199,0,7.604-3.405,7.604-7.604l0,0c0-4.199-3.405-7.604-7.604-7.604H7.604
	C3.405,87.657,0,91.062,0,95.261v321.477c0,4.199,3.405,7.604,7.604,7.604h496.792c4.199,0,7.604-3.405,7.604-7.604V95.261
	C512,91.061,508.595,87.657,504.396,87.657z M338.575,256.032l158.217-143.601v287.189L338.575,256.032z M256,328.315
	c1.831,0,3.661-0.658,5.111-1.974l66.15-60.04l157.385,142.833H27.355l53.268-48.342c3.11-2.823,3.343-7.631,0.52-10.741l0,0
	c-2.823-3.109-7.631-3.343-10.741-0.52l-55.195,50.09V112.431l158.217,143.601L95.45,326.798c-3.11,2.823-3.343,7.631-0.52,10.741
	l0,0c2.823,3.11,7.631,3.343,10.741,0.52l79.068-71.757l66.149,60.039C252.339,327.658,254.169,328.315,256,328.315z"/>
<g>
</g>
<g>
</g>
<g>
</g>
<g>
</g>
<g>
</g>
<g>
</g>
<g>
</g>
<g>
</g>
<g>
</g>
<g>
</g>
<g>
</g>
<g>
</g>
<g>
</g>
<g>
</g>
<g>
</g>
</svg>
