<?xml version="1.0" encoding="iso-8859-1"?>
<!-- Generator: Adobe Illustrator 19.0.0, SVG Export Plug-In . SVG Version: 6.00 Build 0)  -->
<svg version="1.1" id="Capa_1" xmlns="http://www.w3.org/2000/svg" xmlns:xlink="http://www.w3.org/1999/xlink" x="0px" y="0px"
	 viewBox="0 0 511.999 511.999" style="enable-background:new 0 0 511.999 511.999;" xml:space="preserve">
<path style="fill:#748187;" d="M299.108,108.179c43.107,0,137.469,56.006,160.676,30.638c23.206-25.368-4.13-54.661-4.13-54.661
	c15.207,15.207,6.496,43.847-25.271,37.764S350.631,65.072,256,65.072s-142.614,50.764-174.381,56.847S41.14,99.362,56.348,84.155
	c0,0-27.337,29.293-4.13,54.661s117.568-30.638,160.676-30.638"/>
<polyline style="fill:#CFD4D8;" points="271.951,134.112 271.951,478.46 240.045,478.46 240.045,134.112 "/>
<polyline style="fill:#BDBEC0;" points="254.989,148.235 254.989,464.337 240.045,464.337 240.045,148.235 "/>
<path style="fill:#4A5864;" d="M358.473,500.831H153.522l0,0c0-20.156,16.339-36.494,36.494-36.494h131.962
	C342.135,464.337,358.473,480.675,358.473,500.831L358.473,500.831z"/>
<path style="fill:#344049;" d="M228.544,464.337h-38.527c-20.156,0-36.494,16.339-36.494,36.495l0,0h38.527l0,0
	C192.049,480.675,208.388,464.337,228.544,464.337z"/>
<circle style="fill:#4A5864;" cx="256" cy="108.179" r="43.107"/>
<path style="fill:#52666D;" d="M230.369,125.655c0-23.807,19.3-43.108,43.107-43.108c7.391,0,14.242,2.033,20.322,5.311
	C286.518,74.354,272.417,65.07,256,65.07c-23.807,0-43.107,19.3-43.107,43.108c0,16.416,9.283,30.516,22.787,37.797
	C232.402,139.895,230.369,133.046,230.369,125.655z"/>
<circle style="fill:#4A5864;" cx="256" cy="38.119" r="26.951"/>
<path style="fill:#52666D;" d="M246.791,55.862c0-14.886,12.067-26.951,26.951-26.951c2.786,0,5.473,0.423,8.001,1.208
	C278.336,19.14,268.1,11.168,256,11.168c-14.886,0-26.951,12.067-26.951,26.951c0,12.099,7.973,22.335,18.95,25.744
	C247.214,61.335,246.791,58.648,246.791,55.862z"/>
<path style="fill:#CFD4D8;" d="M504.396,304.854c-19.138,31.323-53.544,52.3-92.938,52.3s-73.799-20.977-92.938-52.3H504.396z"/>
<path style="fill:#BDBEC0;" d="M366.309,304.854c17.294,28.305,21.726,48.104,56.37,51.667c-3.694,0.38-7.424,0.633-11.22,0.633
	c-39.394,0-73.799-20.977-92.938-52.3H366.309z"/>
<path style="fill:#CFD4D8;" d="M193.48,304.854c-19.138,31.323-53.544,52.3-92.938,52.3s-73.799-20.977-92.938-52.3H193.48z"/>
<path style="fill:#BDBEC0;" d="M55.393,304.854c17.294,28.305,21.726,48.104,56.37,51.667c-3.693,0.38-7.425,0.633-11.22,0.633
	c-39.394,0-73.799-20.977-92.938-52.3H55.393z"/>
<path d="M509.999,299.709c-1.476-1.621-3.63-2.459-5.823-2.459h-23.443l-44.522-144.39c1.434,0.086,2.844,0.139,4.215,0.139
	c10.455,0,19.051-2.585,24.967-9.051c11.546-12.622,14.362-28.06,8.146-44.644c-2.294-6.121-5.447-11.28-7.993-14.873
	c-1.198-1.899-2.609-3.698-4.222-5.354c-2.716-2.788-7.063-3.356-10.184-1.031c-3.695,2.753-4.087,7.999-1.065,11.28
	c0.027,0.028,1.246,1.364,2.878,3.639c2.785,4.658,3.195,10.278,0.824,14.752c-3.346,6.313-11.353,8.768-21.969,6.734
	c-8.943-1.712-20.586-8.119-34.069-15.537c-27.158-14.944-62.906-34.594-114.162-40.003c5.013-6.633,7.695-15.121,6.807-24.236
	c-1.62-16.619-15.254-29.855-31.91-31.022c-20.168-1.413-37.032,14.596-37.032,34.468c0,7.805,2.605,15.011,6.986,20.803
	c-20.196,2.149-39.757,6.704-59.126,13.771c-4.014,1.465-6.005,5.983-4.423,9.952l0.001,0.003c1.526,3.829,5.821,5.724,9.694,4.312
	c13.975-5.096,28.055-8.802,42.431-11.163c-5.856,7.039-9.839,15.684-11.195,25.166c-17.826,1.824-40.554,9.86-64.454,18.313
	c-32.552,11.514-73.065,25.843-83.53,14.405c-2.551-2.787-4.906-6.288-6.244-10.526c5.684,4.716,15.576,9.267,31.467,6.227
	c11.305-2.166,23.325-8.78,38.543-17.155c6.482-3.567,13.639-7.506,21.384-11.419c3.686-1.863,5.2-6.342,3.414-10.067v-0.001
	c-1.846-3.849-6.499-5.415-10.308-3.49c-7.952,4.02-15.229,8.024-21.823,11.652c-13.483,7.42-25.129,13.829-34.07,15.541
	c-9.785,1.876-17.517-0.129-21.218-5.492c-3.104-4.5-3.077-10.743,0.05-15.963c1.313-1.828,2.339-3.032,2.715-3.461
	c0.051-0.054,0.1-0.106,0.148-0.16c0.031-0.034,0.063-0.069,0.093-0.104c3.213-3.542,2.478-9.333-2.071-11.841
	c-3.022-1.667-6.848-0.919-9.19,1.617c-0.009,0.01-0.019,0.021-0.029,0.031c-1.669,1.706-3.133,3.563-4.356,5.522
	c-3.868,5.486-8.768,14.087-10.459,24.221c-2.162,12.948,1.55,25.097,10.735,35.131c5.916,6.466,14.509,9.052,24.965,9.051
	c1.372,0,2.782-0.054,4.216-0.14L31.267,297.25H7.824c-2.193,0-4.347,0.837-5.823,2.459c-2.337,2.568-2.621,6.272-0.887,9.11
	c21.401,35.027,58.571,55.939,99.426,55.939s78.025-20.912,99.425-55.939c1.735-2.838,1.452-6.541-0.886-9.11
	c-1.476-1.621-3.63-2.459-5.823-2.459h-23.443l-47.847-155.175c7.963-2.63,16.163-5.526,24.458-8.46
	c21.464-7.593,43.55-15.399,59.512-17.357c2.573,15.997,12.653,29.507,26.501,36.806v303.669h-42.424
	c-24.314,0-44.096,19.779-44.098,44.094c0,4.199,3.405,7.608,7.604,7.608h204.95c4.199,0,7.604-3.409,7.604-7.608
	c-0.002-24.313-19.783-44.094-44.098-44.094h-42.424v-35.99c0-4.199-3.405-7.604-7.604-7.604l0,0c-4.199,0-7.604,3.405-7.604,7.604
	v35.99h-16.699V158.189c2.719,0.453,5.506,0.7,8.351,0.7c2.844,0,5.63-0.247,8.347-0.699v227.066c0,4.199,3.405,7.604,7.604,7.604
	l0,0c4.199,0,7.604-3.405,7.604-7.604v-232.19c13.849-7.297,23.931-20.809,26.504-36.806c15.96,1.958,38.046,9.763,59.511,17.356
	c8.295,2.935,16.496,5.831,24.459,8.462l-47.846,155.174h-23.443c-2.193,0-4.347,0.837-5.823,2.459
	c-2.337,2.568-2.621,6.272-0.887,9.11c21.401,35.027,58.571,55.939,99.426,55.939s78.025-20.912,99.425-55.939
	C512.62,305.981,512.336,302.277,509.999,299.709z M100.542,349.549c-30.758,0-59.118-13.646-78.257-37.091h156.512
	C159.659,335.903,131.298,349.549,100.542,349.549z M153.902,297.25H47.181L92.45,150.433c4.81-1.031,9.829-2.339,15-3.834
	L153.902,297.25z M271.951,471.941h50.028c13.299,0,24.528,9.034,27.875,21.286H162.142c3.347-12.253,14.576-21.286,27.875-21.286
	h50.028H271.951z M236.653,38.12c0-10.668,8.68-19.348,19.348-19.348s19.348,8.68,19.348,19.348
	c0,10.667-8.678,19.345-19.344,19.348v-0.003c-0.017,0-0.033,0-0.051,0C245.307,57.439,236.653,48.771,236.653,38.12z M256,143.682
	c-19.578,0-35.504-15.927-35.504-35.503c0-19.578,15.927-35.504,35.504-35.504c19.577,0,35.503,15.927,35.503,35.504
	C291.504,127.755,275.577,143.682,256,143.682z M306.189,100.965c-1.357-9.48-5.337-18.122-11.19-25.16
	c41.582,6.823,71.875,23.481,95.411,36.432c15.215,8.372,27.232,14.985,38.541,17.15c12.77,2.444,23.882,0.153,31.491-6.171
	c-1.162,3.69-3.25,7.168-6.269,10.468c-10.469,11.44-50.98-2.892-83.532-14.406C346.743,110.824,324.014,102.789,306.189,100.965z
	 M404.549,146.601c5.171,1.496,10.19,2.804,15.001,3.834l45.269,146.815H358.098L404.549,146.601z M411.459,349.549
	c-30.758,0-59.118-13.646-78.257-37.091h156.512C470.576,335.903,442.215,349.549,411.459,349.549z"/>
<g>
</g>
<g>
</g>
<g>
</g>
<g>
</g>
<g>
</g>
<g>
</g>
<g>
</g>
<g>
</g>
<g>
</g>
<g>
</g>
<g>
</g>
<g>
</g>
<g>
</g>
<g>
</g>
<g>
</g>
</svg>
