<?xml version="1.0" encoding="iso-8859-1"?>
<!-- Generator: Adobe Illustrator 19.0.0, SVG Export Plug-In . SVG Version: 6.00 Build 0)  -->
<svg version="1.1" id="Capa_1" xmlns="http://www.w3.org/2000/svg" xmlns:xlink="http://www.w3.org/1999/xlink" x="0px" y="0px"
	 viewBox="0 0 512 512" style="enable-background:new 0 0 512 512;" xml:space="preserve">
<path style="fill:#F4D44E;" d="M504.482,306.826c-0.527-19.216-16.777-34.287-35.999-34.287h-11.271
	c19.814,0,35.812-16.334,35.265-36.27c-0.527-19.216-16.777-34.287-35.999-34.287c-13.551,0-85.125,0-100.233,0
	c39.064-54.926,40.906-118.127,39.948-135.839c-2.097-38.829-44.688-53.439-63.374-19.169
	c-16.439,30.15-1.528,82.232-50.439,110.305c-8.545,4.905-16.538,8.013-23.824,9.859c-16.383,4.15-33.304,12.482-48.058,23.524
	c-8.469,6.339-15.17,14.748-19.709,24.303l0,0c-6.596,13.886-20.597,22.736-35.97,22.736H34.819
	c-26.543,0-27.309,28.326-27.309,28.326V415.64c0,16.577,13.437,30.014,30.014,30.014c14.829,0,111.829,0,126.66,0
	c13.842,0,27.317,4.455,38.429,12.708c23.121,17.172,51.416,25.851,75.625,25.851h97.645v-0.002c23.204,0,50.212,0,73.925,0
	c19.223,0,35.472-15.072,35.999-34.287c0.547-19.937-15.452-36.27-35.265-36.27h6.67c19.484,0,35.279-15.795,35.279-35.279l0,0
	c0-19.484-15.795-35.279-35.279-35.279h12.005C489.031,343.096,505.028,326.762,504.482,306.826z"/>
<path style="fill:#E8C842;" d="M32.511,415.641V266.026c0,0,0.766-28.326,27.309-28.326H34.819
	c-26.543,0-27.309,28.326-27.309,28.326V415.64c0,16.577,13.437,30.014,30.014,30.014c3.818,0,13.09,0,25.001,0
	C45.948,445.655,32.511,432.217,32.511,415.641z"/>
<g>
	<path style="fill:#F4D44E;" d="M457.211,201.981c-26.341,0-79.063,0-106.558,0c-19.484,0-35.279,15.795-35.279,35.279l0,0
		c0,19.484,15.795,35.279,35.279,35.279c12.207,0,94.068,0,106.558,0c19.484,0,35.279-15.795,35.279-35.279l0,0
		C492.491,217.776,476.695,201.981,457.211,201.981z"/>
	<path style="fill:#F4D44E;" d="M469.217,272.538c-39.423,0-79.005,0-118.563,0c-19.484,0-35.279,15.795-35.279,35.279l0,0
		c0,19.484,15.795,35.279,35.279,35.279c16.872,0,102.1,0,118.563,0c19.484,0,35.279-15.795,35.279-35.279l0,0
		C504.495,288.333,488.701,272.538,469.217,272.538z"/>
	<path style="fill:#F4D44E;" d="M457.211,343.096c-26.341,0-79.063,0-106.558,0c-19.484,0-35.279,15.795-35.279,35.279l0,0
		c0,19.484,15.795,35.279,35.279,35.279c12.207,0,94.068,0,106.558,0c19.484,0,35.279-15.795,35.279-35.279l0,0
		C492.491,358.891,476.695,343.096,457.211,343.096z"/>
	<path style="fill:#F4D44E;" d="M485.82,448.933L485.82,448.933c0-19.484-15.795-35.279-35.279-35.279c-0.279,0-57.239,0-56.098,0
		c-12.726,0-30.441,0-43.79,0c-19.484,0-35.279,15.795-35.279,35.279l0,0c0,19.484,15.795,35.279,35.279,35.279
		c2.362,0,50.66,0,48.299,0c14.482,0,35.449,0,51.589,0C470.026,484.212,485.82,468.417,485.82,448.933z"/>
</g>
<g>
	<path style="fill:#DBBC3B;" d="M457.211,240.852c-12.489,0-94.35,0-106.558,0c-13.784,0-25.715-7.911-31.519-19.436
		c-11.554,22.941,4.809,51.122,31.519,51.122c12.207,0,94.068,0,106.558,0c19.484,0,35.279-15.795,35.279-35.279l0,0
		c0-5.699-1.36-11.078-3.76-15.843C482.926,232.942,470.996,240.852,457.211,240.852z"/>
	<path style="fill:#DBBC3B;" d="M469.217,311.411c-16.464,0-101.692,0-118.563,0c-13.784,0-25.715-7.911-31.519-19.436
		c-11.554,22.941,4.809,51.122,31.519,51.122c16.872,0,102.1,0,118.563,0c26.418,0,43.214-27.904,31.519-51.122
		C494.932,303.5,483.001,311.411,469.217,311.411z"/>
	<path style="fill:#DBBC3B;" d="M457.211,381.968c-12.489,0-94.35,0-106.558,0c-13.784,0-25.715-7.911-31.519-19.436
		c-11.554,22.941,4.809,51.122,31.519,51.122c12.207,0,94.068,0,106.558,0c26.418,0,43.214-27.902,31.519-51.122
		C482.926,374.057,470.996,381.968,457.211,381.968z"/>
	<path style="fill:#DBBC3B;" d="M450.542,452.526c-6.816,0-93.289,0-99.889,0c-13.784,0-25.715-7.911-31.519-19.436
		c-11.704,23.237,5.123,51.122,31.519,51.122c6.622,0,93.127,0,99.889,0c26.707,0,43.074-28.179,31.519-51.122
		C476.256,444.616,464.327,452.526,450.542,452.526z"/>
</g>
<path d="M37.535,453.155h126.66c12.146,0,24.207,3.988,33.958,11.23c18.176,13.498,39.604,22.408,61.968,25.766
	c4.079,0.613,7.913-2.192,8.53-6.304c0.615-4.096-2.207-7.915-6.304-8.53c-19.938-2.993-39.044-10.938-55.251-22.975
	c-12.318-9.148-27.556-14.188-42.902-14.188H37.535c-12.413,0-22.514-10.1-22.514-22.514V309.856c0-4.143-3.357-7.5-7.5-7.5
	s-7.5,3.357-7.5,7.5v105.785C0.02,436.326,16.849,453.155,37.535,453.155z"/>
<path d="M486.32,268.612c8.998-8.376,13.68-19.666,13.68-31.353c0-24.399-20.735-43.489-43.022-42.766
	c-1.849-0.021-8.416-0.009-12.032-0.012c-4.143,0-7.5,3.358-7.5,7.5c0,4.142,3.357,7.5,7.5,7.5h11.541
	c17.353,0,31.585,15.596,27.948,33.359c-0.001,0.006-0.002,0.011-0.003,0.017c-2.597,12.643-13.811,22.181-27.211,22.181H350.665
	c-15.317,0-27.778-12.461-27.778-27.779c0-15.317,12.461-27.778,27.778-27.778c52.89-0.001,7.26,0,59.282,0
	c4.143,0,7.5-3.358,7.5-7.5c0-4.142-3.357-7.5-7.5-7.5c-10.147,0-29.67,0-39.757,0c32.338-52.849,38.248-120.358,31.026-142.847
	c-13.349-41.585-69.791-45.064-81.357,9.439l-2.036,9.586c-5.94,27.962-4.532,60.236-39.164,80.114
	c-7.321,4.202-14.701,7.262-21.932,9.093c-17.146,4.343-35.153,13.147-50.711,24.79c-9.258,6.929-16.861,16.297-21.988,27.09
	c-5.325,11.21-16.785,18.454-29.195,18.454H34.831c-13.698,0-24.47,6.51-30.328,18.333c-5.075,10.24-4.481,18.043-4.481,26.322
	c0,4.143,3.357,7.5,7.5,7.5s7.5-3.357,7.5-7.5c0.155-5.39-1.004-12.073,3.102-20.017c3.351-6.484,8.815-9.637,16.708-9.637
	c123.371-0.838,122.164,1.913,135.184-2.533c-1.479,5.148-2.778,10.936-3.655,17.314c-0.564,4.104,2.305,7.888,6.408,8.451
	c4.1,0.566,7.887-2.302,8.451-6.408c1.794-13.042,6-26.47,13.353-38.475c4.027-6.211,7.228-17.001,20.432-26.883
	c14.01-10.484,30.135-18.389,45.406-22.258c8.556-2.167,17.208-5.742,25.715-10.625c35.612-20.44,40.484-53.576,43.396-73.373
	c1.783-12.102,3.594-19.248,5.012-26.221c9.18-43.275,52.216-34.2,54.184,2.358c0.388,7.178,2.587,70.736-36.381,127.933h-1.669
	c-41.765,0-58.863,54.217-24.161,78.058c-11.233,7.717-18.619,20.65-18.619,35.279s7.385,27.561,18.619,35.279
	c-24.839,17.065-24.791,53.527,0,70.557c-21.038,14.453-24.856,43.761-8.33,63.059h-21.938c-4.136,0-7.489,3.353-7.489,7.489
	c0,4.136,3.353,7.489,7.489,7.489v0.022c23.05,0,131.341-0.002,154.317-0.002c40.335,0,57.924-50.411,27.194-75.812
	c25.288-13.867,30.234-48.702,8.589-68.843C520.227,332.274,520.885,283.74,486.32,268.612z M478.305,447.873
	c0.613,16.193-12.975,28.839-28.486,28.839h-99.155c-15.317,0-27.778-12.461-27.778-27.779c0-15.317,12.461-27.778,27.778-27.778
	h99.889C465.439,421.155,477.752,432.969,478.305,447.873z M457.223,406.154c-15.795,0-96.953,0-106.559,0
	c-15.317,0-27.778-12.461-27.778-27.778c0-15.318,12.461-27.779,27.778-27.779h106.559c15.317,0,27.778,12.461,27.778,27.779
	C485.001,393.693,472.54,406.154,457.223,406.154z M469.228,335.596c-13.912,0-97.847,0-118.564,0
	c-15.317,0-27.778-12.461-27.778-27.778c0-15.317,12.461-27.778,27.778-27.778c18.687,0,105.692,0,117.829,0
	c15.385,0,28.674,12.362,28.505,28.082C496.979,309.994,484.402,335.596,469.228,335.596z"/>
<g>
</g>
<g>
</g>
<g>
</g>
<g>
</g>
<g>
</g>
<g>
</g>
<g>
</g>
<g>
</g>
<g>
</g>
<g>
</g>
<g>
</g>
<g>
</g>
<g>
</g>
<g>
</g>
<g>
</g>
</svg>
