<?xml version="1.0" encoding="iso-8859-1"?>
<!-- Generator: Adobe Illustrator 19.0.0, SVG Export Plug-In . SVG Version: 6.00 Build 0)  -->
<svg version="1.1" id="Capa_1" xmlns="http://www.w3.org/2000/svg" xmlns:xlink="http://www.w3.org/1999/xlink" x="0px" y="0px"
	 viewBox="0 0 511.999 511.999" style="enable-background:new 0 0 511.999 511.999;" xml:space="preserve">
<path style="fill:#B1BAC3;" d="M280.471,199.279c-7.634-7.634-16.018-14.041-24.929-19.242
	c-14.153-8.262-29.613-13.463-45.408-15.582c-36.78-4.998-75.386,6.62-103.59,34.824l-62.977,62.977
	c-47.953,47.952-47.953,125.974,0,173.927s125.984,47.952,173.937,0l62.967-62.977c2.017-2.017,3.954-4.086,5.789-6.215
	c10.878-12.46,18.806-26.612,23.794-41.545C324.398,282.593,314.534,233.343,280.471,199.279z M187.505,406.195
	c-31.407,31.418-82.533,31.418-113.951,0s-31.418-82.533,0-113.951l62.977-62.977c13.899-13.899,31.661-21.655,49.869-23.246
	c14.406-1.267,29.086,1.318,42.356,7.756c7.857,3.822,15.217,8.982,21.726,15.491c23.855,23.855,29.593,59.054,17.224,88.373
	c-3.913,9.307-9.661,18.015-17.224,25.578L187.505,406.195z"/>
<path style="fill:#D2D7DD;" d="M484.203,95.304c-37.237-56.681-113.646-72.496-170.318-35.26l-74.433,48.905
	c-27.677,18.177-45.611,45.692-52.373,75.69c-3.913,17.305-4.106,35.432-0.324,53.072c3.102,14.416,8.861,28.508,17.437,41.555
	c37.237,56.671,113.646,72.496,170.318,35.26l74.433-48.905C505.624,228.385,521.439,151.975,484.203,95.304z M425.656,230.18
	l-74.433,48.895c-37.135,24.402-87.186,14.041-111.588-23.094c-3.792-5.779-6.742-11.872-8.891-18.127
	c-4.795-14.011-5.525-28.873-2.524-42.934c4.268-20.012,16.099-38.423,34.52-50.528l74.433-48.905
	c37.125-24.392,87.186-14.031,111.578,23.104C473.152,155.726,462.791,205.778,425.656,230.18z"/>
<path style="fill:#909BA5;" d="M230.744,237.854c-11.273-3.508-27.058-5.779-43.989-0.142c-3.781-17.64-3.589-35.767,0.324-53.072
	l41.14,10.28C225.219,208.981,225.949,223.843,230.744,237.854z"/>
<path style="fill:#99A4AD;" d="M267.707,317.64c-3.913,9.307-9.661,18.015-17.224,25.578l-8.678,8.678
	c8.678-8.678,28.893-0.466,44.455,15.095c10.878-12.46,18.806-26.612,23.794-41.545C295.495,326.713,280.825,323.996,267.707,317.64
	z"/>
<path style="fill:#B1BAC3;" d="M237.293,171.329c7.543,15.329,10.584,28.508-10.858,41.373c-13.342-5.961-27.991-8.11-42.275-6.448
	c-15.957-15.957-23.469-28.721,9.803-42.934C208.674,163.37,223.374,166.047,237.293,171.329z"/>
<path d="M490.557,91.129c-19.124-29.11-48.489-49.041-82.685-56.12c-34.193-7.079-69.057-0.445-98.163,18.68l-74.431,48.903
	c-20.13,13.216-36.044,31.54-46.27,53.204c-33.226,1.106-64.259,14.522-87.842,38.104l-50.433,50.433
	c-2.969,2.969-2.969,7.784,0,10.752l0.001,0.001c2.969,2.969,7.783,2.968,10.752,0l50.433-50.433
	c21.765-21.765,50.711-33.733,81.558-33.733c0.151,0,0.306,0,0.457,0.001c13.966,0.049,27.646,2.577,40.661,7.516
	c15.259,5.783,28.883,14.604,40.495,26.217c21.221,21.221,33.294,50.064,33.708,80.006c-9.332,0.218-18.632-1.342-27.387-4.608
	c-1.463-21.241-10.418-41.025-25.556-56.162c-7.655-7.655-16.513-13.756-26.322-18.131c-14.452-6.458-30.448-8.899-46.247-7.059
	c-19.923,2.296-37.951,11.007-52.134,25.191L68.176,286.87c-16.63,16.63-25.79,38.775-25.79,62.351
	c0,23.577,9.16,45.721,25.79,62.351c16.631,16.631,38.777,25.79,62.357,25.79s45.723-9.16,62.348-25.79l62.976-62.977
	c3.928-3.928,7.463-8.213,10.566-12.779c9.204,3.002,18.66,4.973,28.27,5.887c-5.223,9.558-11.787,18.314-19.6,26.128
	l-62.966,62.977c-44.989,44.99-118.194,44.99-163.184,0c-20.584-20.584-32.535-47.976-33.65-77.13
	c-1.018-26.587,7.021-52.398,22.743-73.446c2.41-3.226,1.921-7.76-1.148-10.365l0,0c-3.334-2.831-8.382-2.284-11.001,1.219
	c-17.828,23.84-26.944,53.072-25.791,83.175c1.263,32.995,14.791,63.999,38.092,87.301c25.459,25.459,58.903,38.19,92.346,38.19
	c33.442,0,66.886-12.73,92.346-38.19l62.966-62.977c10.657-10.658,19.258-22.874,25.631-36.365
	c23.948-0.791,47.088-8.116,67.208-21.335l74.433-48.905c29.111-19.124,49.041-48.489,56.12-82.685
	C516.316,155.098,509.681,120.236,490.557,91.129z M264.926,271.361c-7.438-5.237-13.867-11.845-18.936-19.554
	c-5.075-7.727-8.591-16.269-10.439-25.2c3.386,2.39,6.583,5.066,9.554,8.037C255.278,244.816,262.08,257.526,264.926,271.361z
	 M182.129,400.819c-13.754,13.758-32.079,21.335-51.595,21.335c-19.518,0-37.844-7.577-51.602-21.335
	c-13.759-13.759-21.337-32.084-21.337-51.599s7.578-37.84,21.337-51.598l62.977-62.977c9.663-9.665,21.488-16.247,34.571-19.333
	c0.61,24.273,7.905,47.658,21.359,68.133c13.447,20.462,31.994,36.432,54.003,46.628c-2.055,2.735-4.302,5.336-6.737,7.77
	L182.129,400.819z M494.346,186.21c-6.255,30.218-23.862,56.163-49.578,73.057l-74.433,48.905
	c-19.001,12.483-41.026,19.052-63.748,18.915c-13.939-0.076-27.621-2.622-40.663-7.565c-22.814-8.657-41.964-24.021-55.377-44.432
	c-12.172-18.524-18.627-39.747-18.885-61.746c9.35-0.24,18.65,1.3,27.384,4.549c1.03,15.05,5.896,29.566,14.237,42.263
	c9.272,14.103,22.292,25.18,37.65,32.033c11.404,5.093,23.738,7.705,36.163,7.705c3.356,0,6.718-0.191,10.071-0.574
	c13.746-1.577,26.609-6.252,38.231-13.892l42.338-27.811c3.51-2.305,4.486-7.02,2.181-10.528l0,0
	c-2.305-3.51-7.02-4.486-10.529-2.181l-42.341,27.812c-7.167,4.711-14.901,8.057-23.076,9.996
	c-0.903-33.261-14.511-65.203-38.123-88.815c-10.905-10.905-23.386-19.628-37.188-26.027c5.004-6.693,11.116-12.436,18.255-17.129
	l74.433-48.905c16.258-10.682,35.737-14.386,54.848-10.43c19.111,3.957,35.518,15.091,46.201,31.355
	c10.686,16.262,14.393,35.743,10.438,54.852c-3.955,19.11-15.09,35.519-31.355,46.207l-2.578,1.694
	c-3.509,2.306-4.484,7.021-2.178,10.529v0.001c2.306,3.509,7.021,4.484,10.529,2.178l2.576-1.693
	c19.66-12.918,33.117-32.746,37.895-55.833c4.779-23.087,0.297-46.628-12.62-66.285c-12.911-19.657-32.737-33.116-55.827-37.896
	c-23.089-4.78-46.628-0.301-66.281,12.612l-74.434,48.905c-9.808,6.447-18.017,14.541-24.48,24.103
	c-9.189-2.995-18.64-4.954-28.253-5.853c9.012-16.516,21.911-30.554,37.797-40.984l74.433-48.905
	c25.711-16.894,56.513-22.754,86.731-16.499s56.163,23.863,73.057,49.579C494.742,125.192,500.601,155.992,494.346,186.21z"/>
<g>
</g>
<g>
</g>
<g>
</g>
<g>
</g>
<g>
</g>
<g>
</g>
<g>
</g>
<g>
</g>
<g>
</g>
<g>
</g>
<g>
</g>
<g>
</g>
<g>
</g>
<g>
</g>
<g>
</g>
</svg>
