<?xml version="1.0" encoding="iso-8859-1"?>
<!-- Generator: Adobe Illustrator 19.0.0, SVG Export Plug-In . SVG Version: 6.00 Build 0)  -->
<svg version="1.1" id="Capa_1" xmlns="http://www.w3.org/2000/svg" xmlns:xlink="http://www.w3.org/1999/xlink" x="0px" y="0px"
	 viewBox="0 0 512 512" style="enable-background:new 0 0 512 512;" xml:space="preserve">
<path style="fill:#ED694A;" d="M339.979,108.268C341.153,62.892,279.664,3.458,235.73,7.712l-0.014-0.014
	c-62.383,0-63.723,93.432-63.723,93.432c0,7.107,0,206.932,0,209.79h168.014c0-10.684,0-193.221,0-202.626L339.979,108.268z"/>
<path style="fill:#D8553A;" d="M263.819,12.284c-9.639-3.691-19.221-5.43-28.089-4.571l-0.014-0.014
	c-62.383,0-63.723,93.432-63.723,93.432c0,7.107,0,206.932,0,209.79h50.004c0-2.858,0-202.683,0-209.79
	C221.997,101.131,223.011,31.047,263.819,12.284z"/>
<path style="fill:#F4A32C;" d="M351.789,310.921H160.211c-9.139,0-16.615,7.477-16.615,16.615c0,18.446,0,160.448,0,160.348
	c0,9.139,7.477,16.615,16.615,16.615h191.578c9.139,0,16.615-7.477,16.615-16.615c0-30.202,0-160.858,0-160.348
	C368.405,318.397,360.928,310.921,351.789,310.921z"/>
<path style="fill:#E89528;" d="M208.783,487.884c0,0.101,0-141.902,0-160.348c0-9.139,7.477-16.615,16.615-16.615h-65.188
	c-9.139,0-16.615,7.477-16.615,16.615c0,18.446,0,160.448,0,160.348c0,9.139,7.477,16.615,16.615,16.615h65.188
	C216.261,504.499,208.783,497.022,208.783,487.884z"/>
<path style="fill:#FC8B75;" d="M306.413,40.944c31.621,31.486,42.92,71.284,25.238,88.892c-17.683,17.607-57.652,6.356-89.274-25.13
	s-42.92-71.284-25.238-88.892S274.791,9.457,306.413,40.944z"/>
<path d="M351.789,303.42h-4.282v-29.922c0-4.143-3.357-7.501-7.501-7.501s-7.501,3.357-7.501,7.501v29.922H179.494V155.656
	c0-4.143-3.357-7.501-7.501-7.501c-4.143,0-7.501,3.357-7.501,7.501V303.42h-4.281c-13.298,0-24.117,10.818-24.117,24.116v160.347
	c0,13.298,10.819,24.117,24.117,24.117h31.07c4.143,0,7.501-3.357,7.501-7.501s-3.357-7.501-7.501-7.501h-31.07
	c-5.026,0-9.116-4.089-9.116-9.116V327.536c0-5.025,4.089-9.115,9.116-9.115c6.78,0,184.824,0,191.577,0
	c5.025,0,9.115,4.089,9.115,9.115v160.347c0,5.026-4.089,9.116-9.115,9.116H226.285c-4.143,0-7.501,3.357-7.501,7.501
	s3.357,7.501,7.501,7.501h125.504c13.298,0,24.116-10.819,24.116-24.117V327.536C375.906,314.238,365.087,303.42,351.789,303.42z"/>
<path d="M171.994,128.154c4.143,0,7.501-3.357,7.501-7.501v-19.452c0.488-22.26,7.416-53.359,22.419-70.565
	c-9.648,59.039,85.619,139.679,130.593,108.221v99.638c0,4.143,3.357,7.501,7.501,7.501s7.501-3.357,7.501-7.501
	c-0.004-84.115,0.001-88.527,0.001-131.416c0-50.215-64.576-111.002-111.972-106.881c-28.903,0.074-50.396,17.965-62.158,51.75
	c-11.615,33.361-8.418,61.144-8.885,68.705C164.493,124.797,167.851,128.154,171.994,128.154z M236.452,15.178
	c37.359-3.589,93.636,47.561,95.974,89.425c2.145,40.403-49.196,30.195-84.757-5.212C213.882,65.748,203.26,18.396,236.452,15.178z"
	/>
<g>
</g>
<g>
</g>
<g>
</g>
<g>
</g>
<g>
</g>
<g>
</g>
<g>
</g>
<g>
</g>
<g>
</g>
<g>
</g>
<g>
</g>
<g>
</g>
<g>
</g>
<g>
</g>
<g>
</g>
</svg>
