<?xml version="1.0" encoding="iso-8859-1"?>
<!-- Generator: Adobe Illustrator 19.0.0, SVG Export Plug-In . SVG Version: 6.00 Build 0)  -->
<svg version="1.1" id="Capa_1" xmlns="http://www.w3.org/2000/svg" xmlns:xlink="http://www.w3.org/1999/xlink" x="0px" y="0px"
	 viewBox="0 0 512 512" style="enable-background:new 0 0 512 512;" xml:space="preserve">
<rect x="7.604" y="7.604" style="fill:#748789;" width="496.792" height="496.792"/>
<rect x="38.155" y="38.161" style="fill:#E9EEF1;" width="435.687" height="435.687"/>
<polygon style="fill:#077DC2;" points="473.841,417.507 473.841,473.847 459.779,473.847 308.034,218.162 189.676,360.396 
	38.155,87.586 38.155,38.161 57.185,38.161 196.804,288.422 314.665,146.786 "/>
<path d="M504.396,0H7.604C3.405,0,0,3.405,0,7.604v496.792C0,508.595,3.405,512,7.604,512h496.792c4.2,0,7.604-3.405,7.604-7.604
	V7.604C512,3.405,508.596,0,504.396,0z M496.792,496.792H15.208V15.208h481.584V496.792z"/>
<path d="M38.155,481.451h435.687c4.2,0,7.604-3.405,7.604-7.604V38.161c0-4.199-3.404-7.604-7.604-7.604H38.155
	c-4.199,0-7.604,3.405-7.604,7.604v435.687C30.551,478.047,33.955,481.451,38.155,481.451z M45.759,154.684h20.965l52.049,93.711
	H45.759V154.684z M45.759,139.476v-22.537l12.518,22.537H45.759z M45.759,372.522h45.084c4.199,0,7.604-3.405,7.604-7.604l0,0
	c0-4.199-3.405-7.604-7.604-7.604H45.759v-93.711h81.46l12.251,22.06v71.652h-13.141c-4.199,0-7.604,3.405-7.604,7.604l0,0
	c0,4.199,3.405,7.604,7.604,7.604h13.141v93.721H45.759C45.759,466.243,45.759,372.522,45.759,372.522z M280.114,263.603h46.048
	l31.157,52.499v41.212h-93.711v-73.875L280.114,263.603z M292.769,248.395l14.223-17.093l10.144,17.093H292.769z M248.399,372.522
	v93.721h-93.721v-93.721H248.399z M263.607,372.522h93.711v93.721h-93.711V372.522z M372.526,372.522h18.276l55.621,93.721h-73.898
	v-93.721H372.526z M372.526,357.314v-15.587l9.25,15.587H372.526z M248.399,357.314h-46.266l46.266-55.599L248.399,357.314
	L248.399,357.314z M154.678,357.314v-44.271l24.588,44.271L154.678,357.314L154.678,357.314z M220.22,248.395h-37.038
	l-28.503-51.089v-42.622H248.4v59.847L220.22,248.395z M207.565,263.603l-9.518,11.438l-6.381-11.438H207.565z M139.47,139.476
	h-17.055L70.134,45.765h69.336V139.476z M154.678,45.765h93.721v93.711h-93.721V45.765z M139.47,154.684v15.362l-8.57-15.362H139.47
	z M263.607,154.684H298.2l-34.593,41.571V154.684z M328.13,154.684h29.188v49.642L328.13,154.684z M372.526,154.684h93.712v93.711
	h-83.009l-10.703-18.205L372.526,154.684L372.526,154.684z M466.238,263.603v93.711h-18.967l-55.099-93.711H466.238z
	 M466.238,372.522v17.05l-10.025-17.05H466.238z M466.238,139.476h-93.712v-37.089c0-4.199-3.405-7.604-7.604-7.604l0,0
	c-4.199,0-7.604,3.405-7.604,7.604v37.089h-93.711V45.765h93.711V66.9c0,4.199,3.405,7.604,7.604,7.604l0,0
	c4.199,0,7.604-3.405,7.604-7.604V45.765h93.712V139.476z M52.72,45.765l137.443,246.362c1.221,2.189,3.442,3.635,5.937,3.867
	c2.499,0.232,4.945-0.782,6.548-2.707l110.944-133.322l152.647,259.611v46.667h-2.128L314.574,214.282
	c-1.26-2.124-3.474-3.504-5.936-3.7c-2.471-0.192-4.868,0.818-6.446,2.716L190.933,346.999L45.759,85.617V45.765H52.72z"/>
<g>
</g>
<g>
</g>
<g>
</g>
<g>
</g>
<g>
</g>
<g>
</g>
<g>
</g>
<g>
</g>
<g>
</g>
<g>
</g>
<g>
</g>
<g>
</g>
<g>
</g>
<g>
</g>
<g>
</g>
</svg>
