<?xml version="1.0" encoding="iso-8859-1"?>
<!-- Generator: Adobe Illustrator 19.0.0, SVG Export Plug-In . SVG Version: 6.00 Build 0)  -->
<svg version="1.1" id="Capa_1" xmlns="http://www.w3.org/2000/svg" xmlns:xlink="http://www.w3.org/1999/xlink" x="0px" y="0px"
	 viewBox="0 0 512 512" style="enable-background:new 0 0 512 512;" xml:space="preserve">
<polyline style="fill:#E2E9EF;" points="212.851,326.021 158.221,380.651 131.349,353.779 185.979,299.149 "/>
<circle style="fill:#DB1F16;" cx="315.575" cy="196.419" r="188.842"/>
<circle style="fill:#E1F9F8;" cx="315.575" cy="196.419" r="149.73"/>
<path style="fill:#FFFFFF;" d="M246.853,127.699c52.134-52.134,133.149-57.782,191.543-16.948
	c-4.963-7.097-10.611-13.863-16.948-20.199c-58.471-58.471-153.271-58.471-211.742,0c-58.472,58.472-58.472,153.271,0,211.743
	c6.337,6.337,13.102,11.984,20.199,16.948C189.072,260.847,194.719,179.834,246.853,127.699z"/>
<path style="fill:#53575A;" d="M42.072,496.801L15.2,469.929c-10.039-10.039-10.039-26.317,0-36.357l96.501-96.501
	c10.039-10.039,26.317-10.039,36.357,0l26.872,26.872c10.039,10.039,10.039,26.317,0,36.357l-96.502,96.501
	C68.389,506.841,52.111,506.841,42.072,496.801z"/>
<path style="fill:#2C3033;" d="M36.669,455.041l96.501-96.501c10.039-10.039,26.317-10.039,36.357,0l-21.469-21.469
	c-10.039-10.039-26.317-10.039-36.357,0L15.2,433.571c-10.039,10.039-10.039,26.317,0,36.357l21.469,21.469
	C26.63,481.359,26.628,465.081,36.669,455.041z"/>
<circle style="fill:#FFFFFF;" cx="401.888" cy="197.299" r="27.944"/>
<path d="M454.535,57.466c-76.623-76.621-201.293-76.621-277.915,0c-70.224,70.225-76.074,180.806-17.575,257.771l-11.624,11.625
	c-12.866-7.949-29.996-6.36-41.143,4.786l-96.501,96.5c-6.305,6.304-9.776,14.686-9.776,23.602c0,8.915,3.473,17.297,9.776,23.601
	l26.42,26.421c6.256,6.256,14.645,10.078,23.491,10.222c9.124,0.149,17.727-3.336,24.163-9.771l32.586-32.586
	c2.995-2.995,2.995-7.85,0-10.844l-0.001-0.001c-2.995-2.995-7.85-2.995-10.845,0l-32.296,32.296
	c-3.197,3.198-7.416,5.271-11.931,5.541c-5.231,0.313-10.202-1.582-13.871-5.251l-26.582-26.584
	c-3.198-3.198-5.271-7.42-5.54-11.935c-0.311-5.229,1.584-10.197,5.251-13.865l96.501-96.501c7.033-7.033,18.474-7.034,25.509-0.002
	c0.001,0.001,0.001,0.001,0.002,0.002l26.582,26.582c3.197,3.197,5.271,7.416,5.541,11.931c0.313,5.231-1.582,10.201-5.251,13.871
	l-37.733,37.733c-2.995,2.995-2.995,7.85,0,10.844l0.001,0.001c2.995,2.995,7.85,2.995,10.845,0l37.732-37.733
	c6.305-6.304,9.776-14.686,9.776-23.601c0-6.3-1.74-12.329-4.982-17.551l11.616-11.616c34.977,26.586,76.893,39.892,118.814,39.892
	c50.323,0,100.646-19.155,138.958-57.466C531.154,258.759,531.154,134.086,454.535,57.466z M174.93,353.097l-16.027-16.027
	l9.94-9.94c2.501,2.805,5.087,5.561,7.777,8.251c2.69,2.69,5.445,5.275,8.25,7.775L174.93,353.097z M443.688,324.534
	c-70.639,70.641-185.581,70.641-256.222,0c-70.64-70.641-70.64-185.581,0-256.222c35.325-35.326,81.71-52.981,128.112-52.981
	c46.389,0,92.795,17.664,128.111,52.981C514.329,138.953,514.329,253.893,443.688,324.534z"/>
<path d="M461.205,162.415L461.205,162.415c-3.973,0.923-6.531,4.797-5.806,8.809c8.293,45.921-6.152,92.426-39.374,125.647
	c-27.696,27.697-64.066,41.545-100.448,41.542c-36.393-0.004-72.8-13.867-100.495-41.588
	c-26.593-26.617-41.561-62.778-41.561-100.403c0-37.944,14.777-73.617,41.607-100.446c55.388-55.389,145.51-55.389,200.897,0
	c11.718,11.718,21.153,25.12,28.112,39.917c1.732,3.684,6.058,5.351,9.826,3.808l0,0c4.073-1.668,5.902-6.41,4.028-10.392
	c-7.71-16.381-18.153-31.213-31.119-44.179c-61.369-61.367-161.22-61.367-222.589,0c-29.727,29.727-46.099,69.253-46.099,111.294
	c0,42.042,16.372,81.567,46.099,111.295c30.684,30.683,70.989,46.025,111.294,46.025s80.611-15.342,111.295-46.025
	c36.801-36.802,52.805-88.313,43.629-139.175C469.721,164.219,465.485,161.419,461.205,162.415z"/>
<g>
</g>
<g>
</g>
<g>
</g>
<g>
</g>
<g>
</g>
<g>
</g>
<g>
</g>
<g>
</g>
<g>
</g>
<g>
</g>
<g>
</g>
<g>
</g>
<g>
</g>
<g>
</g>
<g>
</g>
</svg>
