<?xml version="1.0" encoding="iso-8859-1"?>
<!-- Generator: Adobe Illustrator 19.0.0, SVG Export Plug-In . SVG Version: 6.00 Build 0)  -->
<svg version="1.1" id="Capa_1" xmlns="http://www.w3.org/2000/svg" xmlns:xlink="http://www.w3.org/1999/xlink" x="0px" y="0px"
	 viewBox="0 0 512.001 512.001" style="enable-background:new 0 0 512.001 512.001;" xml:space="preserve">
<rect x="84.437" y="448.15" style="fill:#393B51;" width="304.729" height="56.247"/>
<rect x="164.432" y="470.945" style="fill:#4A4D60;" width="224.734" height="33.445"/>
<path style="fill:#7902CA;" d="M358.927,384.881c52.268-37.866,86.273-99.408,86.273-168.886
	c0-115.098-93.306-208.393-208.404-208.393S28.403,100.898,28.403,215.995c0,69.478,33.995,131.02,86.273,168.886"/>
<g>
	<path style="fill:#A657F2;" d="M157.53,297.617c47.577,47.577,95.883,91.176,67.435,95.704
		c-33.729,5.367-78.352-9.072-116.209-46.929s-52.297-82.48-46.929-116.209C66.354,201.733,109.952,250.039,157.53,297.617z"/>
	<path style="fill:#A657F2;" d="M198.997,256.149c-73.4-73.4-111.344-177.238-50.035-201.644
		c72.691-28.937,157.48-22.608,215.884,35.795s64.733,143.193,35.795,215.884C376.236,367.493,272.397,329.549,198.997,256.149z"/>
</g>
<path style="fill:#FFD200;" d="M382.804,448.146H90.803c-14.41,0-26.091-11.681-26.091-26.091v-11.085
	c0-14.41,11.681-26.091,26.091-26.091h292.001c14.41,0,26.091,11.681,26.091,26.091v11.085
	C408.895,436.465,397.214,448.146,382.804,448.146z"/>
<path style="fill:#ED9801;" d="M147.723,422.067v-11.109c0-14.403,11.676-26.079,26.079-26.079H90.791
	c-14.403,0-26.079,11.676-26.079,26.079v11.109c0,14.403,11.676,26.079,26.079,26.079h83.011
	C159.398,448.146,147.723,436.47,147.723,422.067z"/>
<polygon style="fill:#FFD200;" points="383.532,148.231 483.602,129.116 383.532,110.001 364.418,9.931 345.303,110.001 
	245.233,129.116 345.303,148.231 364.418,248.302 "/>
<path d="M485.03,121.646l-59.864-11.434c-11.672-20.752-26.59-39.304-44.399-55.223l-8.879-46.484
	c-0.685-3.585-3.821-6.178-7.47-6.178s-6.785,2.594-7.47,6.178l-4.751,24.868C317.69,11.507,278.038,0,236.796,0
	c-44.083,0-86.154,13.059-122.179,37.847c-3.568,2.455-4.426,7.357-1.843,10.834v0.001c2.427,3.267,7.014,4.073,10.366,1.764
	C156.641,27.369,195.78,15.21,236.796,15.21c40.366,0,79.088,11.855,112.314,34.321l-10.308,53.97l-94.996,18.146
	c-3.585,0.685-6.178,3.821-6.178,7.47c0,3.649,2.594,6.785,6.178,7.47l94.996,18.146l18.146,94.996
	c0.685,3.585,3.821,6.178,7.47,6.178s6.785-2.594,7.47-6.178l18.146-94.996l35.72-6.823c7.856,21.778,11.846,44.648,11.846,68.085
	c0,32.28-7.84,64.363-22.675,92.777c-13.99,26.799-34.203,50.427-58.527,68.501h-24.779c-4.2,0-7.605,3.405-7.605,7.605v0.001
	c0,4.2,3.405,7.605,7.605,7.605h51.187c10.21,0,18.486,8.277,18.486,18.486v11.085c0,10.21-8.277,18.486-18.486,18.486H90.804
	c-10.21,0-18.486-8.277-18.486-18.486v-11.085c0-10.21,8.276-18.486,18.486-18.486h205.323c4.2,0,7.605-3.405,7.605-7.605v-0.001
	c0-4.2-3.405-7.605-7.605-7.605H117.205c-24.326-18.073-44.542-41.701-58.531-68.5c-14.832-28.413-22.671-60.497-22.671-92.779
	c0-54.205,22.077-106.256,60.813-143.951c2.916-2.838,3.025-7.491,0.294-10.509l0,0c-2.906-3.212-7.885-3.331-10.987-0.308
	c-41.615,40.542-65.33,96.499-65.33,154.769c0,34.723,8.437,69.239,24.398,99.817c12.072,23.125,28.458,44.049,47.97,61.462h-2.359
	c-18.61,0-33.695,15.086-33.695,33.695v11.086c0,13.6,8.102,25.334,19.728,30.653v51.687c0,4.2,3.405,7.605,7.605,7.605h304.727
	c4.2,0,7.605-3.405,7.605-7.605v-51.687c11.627-5.319,19.728-17.054,19.728-30.653V410.97c0-18.61-15.086-33.696-33.696-33.696
	h-2.364c19.509-17.414,35.896-38.337,47.969-61.461c15.964-30.579,24.401-65.096,24.401-99.817c0-24.392-4.019-48.221-11.94-70.972
	l44.16-8.434c3.585-0.685,6.178-3.821,6.178-7.47S488.614,122.332,485.03,121.646z M381.562,496.79H92.045v-41.039h289.517
	L381.562,496.79L381.562,496.79z M405.056,106.37l-15.024-2.87l-4.219-22.09C392.878,89.217,399.304,97.551,405.056,106.37z
	 M382.105,140.76c-3.063,0.585-5.458,2.98-6.043,6.043l-11.644,60.962l-11.644-60.962c-0.585-3.063-2.98-5.458-6.043-6.043
	l-60.962-11.644l60.962-11.644c3.063-0.585,5.458-2.98,6.043-6.043l11.644-60.963l11.644,60.963c0.585,3.063,2.98,5.458,6.043,6.043
	l60.963,11.644L382.105,140.76z"/>
<g>
</g>
<g>
</g>
<g>
</g>
<g>
</g>
<g>
</g>
<g>
</g>
<g>
</g>
<g>
</g>
<g>
</g>
<g>
</g>
<g>
</g>
<g>
</g>
<g>
</g>
<g>
</g>
<g>
</g>
</svg>
