<?xml version="1.0" encoding="iso-8859-1"?>
<!-- Generator: Adobe Illustrator 19.0.0, SVG Export Plug-In . SVG Version: 6.00 Build 0)  -->
<svg version="1.1" id="Capa_1" xmlns="http://www.w3.org/2000/svg" xmlns:xlink="http://www.w3.org/1999/xlink" x="0px" y="0px"
	 viewBox="0 0 512 512" style="enable-background:new 0 0 512 512;" xml:space="preserve">
<rect x="7.618" y="270.487" style="fill:#FFCA3B;" width="496.769" height="27.425"/>
<rect x="7.618" y="270.487" style="fill:#E5B02C;" width="214.824" height="27.424"/>
<path style="fill:#0086CC;" d="M504.38,131.079v139.403H187.482L161.834,67.848l-5.587-44.186h240.725
	c35.684,0,67.304,17.41,86.827,44.186C496.751,85.593,504.38,107.442,504.38,131.079z"/>
<path style="fill:#027AAF;" d="M156.247,23.666L156.247,23.666c-59.322,0-107.412,48.089-107.412,107.412v139.406h214.823V131.078
	C263.658,71.756,215.568,23.666,156.247,23.666z"/>
<rect x="228.618" y="297.913" style="fill:#95ABB0;" width="86.848" height="190.425"/>
<rect x="228.618" y="297.913" style="fill:#78878C;" width="38.089" height="190.425"/>
<path style="fill:#EB161C;" d="M296.217,134.887v33.518h110.627v68.561h67.63v-78.464c0-13.042-10.573-23.615-23.615-23.615H296.217
	z"/>
<path d="M396.971,16.048H156.247l0,0c-63.427,0-115.029,51.602-115.029,115.03v131.788H7.618c-4.207,0-7.618,3.411-7.618,7.618
	v27.425c0,4.207,3.411,7.618,7.618,7.618h213.379v182.807c0,4.207,3.411,7.618,7.618,7.618h86.844c4.207,0,7.618-3.411,7.618-7.618
	V305.527h181.304c4.207,0,7.618-3.411,7.618-7.618v-27.425V131.078C512,67.65,460.398,16.048,396.971,16.048z M396.971,31.284
	c55.026,0,99.794,44.767,99.794,99.794v131.788H271.277V131.078c0-42.635-23.315-79.925-57.864-99.794
	C213.413,31.284,396.971,31.284,396.971,31.284z M56.454,131.078c0-55.026,44.767-99.794,99.794-99.794s99.794,44.767,99.794,99.794
	v131.788h-68.56H56.454V131.078z M214.827,290.29H15.239v-12.188h33.595h138.644h27.346v12.188H214.827z M307.841,480.716h-33.518
	V461.69c0-4.207-3.411-7.618-7.618-7.618l0,0c-4.207,0-7.618,3.411-7.618,7.618v19.025h-22.854V305.527h22.854v120.611
	c0,4.207,3.411,7.618,7.618,7.618l0,0c4.207,0,7.618-3.411,7.618-7.618V305.527h33.518L307.841,480.716L307.841,480.716z
	 M496.764,290.291H230.063v-12.188h33.595h233.105V290.291z"/>
<path d="M156.247,120.74c18.393,0,33.358-14.964,33.358-33.359s-14.964-33.359-33.358-33.359s-33.359,14.964-33.359,33.359
	S137.853,120.74,156.247,120.74z M156.247,69.259c9.992,0,18.121,8.129,18.121,18.122s-8.129,18.122-18.121,18.122
	c-9.992,0-18.122-8.129-18.122-18.122S146.255,69.259,156.247,69.259z"/>
<path d="M228.874,164.579c0-4.207-3.411-7.618-7.618-7.618H91.238c-4.207,0-7.618,3.411-7.618,7.618s3.411,7.618,7.618,7.618
	h130.018C225.463,172.197,228.874,168.786,228.874,164.579z"/>
<path d="M207.219,205.209c0-4.207-3.411-7.618-7.618-7.618h-86.709c-4.207,0-7.618,3.411-7.618,7.618
	c0,4.207,3.411,7.618,7.618,7.618H199.6C203.809,212.828,207.219,209.417,207.219,205.209z"/>
<path d="M296.217,176.023h37.012c4.207,0,7.618-3.411,7.618-7.618l0,0c0-4.207-3.411-7.618-7.618-7.618h-29.394v-18.283h147.023
	c8.835,0,15.997,7.162,15.997,15.997v70.845h-52.394v-60.943c0-4.207-3.411-7.618-7.618-7.618h-38.062
	c-4.207,0-7.618,3.411-7.618,7.618l0,0c0,4.207,3.411,7.618,7.618,7.618h30.443v60.943c0,4.207,3.411,7.618,7.618,7.618h67.63
	c4.207,0,7.618-3.411,7.618-7.618v-78.464c0-17.25-13.984-31.234-31.234-31.234H296.217c-4.207,0-7.618,3.411-7.618,7.618v33.519
	C288.598,172.613,292.009,176.023,296.217,176.023z"/>
<g>
</g>
<g>
</g>
<g>
</g>
<g>
</g>
<g>
</g>
<g>
</g>
<g>
</g>
<g>
</g>
<g>
</g>
<g>
</g>
<g>
</g>
<g>
</g>
<g>
</g>
<g>
</g>
<g>
</g>
</svg>
