<?xml version="1.0" encoding="iso-8859-1"?>
<!-- Generator: Adobe Illustrator 19.0.0, SVG Export Plug-In . SVG Version: 6.00 Build 0)  -->
<svg version="1.1" id="Capa_1" xmlns="http://www.w3.org/2000/svg" xmlns:xlink="http://www.w3.org/1999/xlink" x="0px" y="0px"
	 viewBox="0 0 512 512" style="enable-background:new 0 0 512 512;" xml:space="preserve">
<rect x="7.618" y="270.487" style="fill:#FFCA3B;" width="496.769" height="27.425"/>
<rect x="7.618" y="270.487" style="fill:#E5B02C;" width="214.824" height="27.424"/>
<path style="fill:#0086CC;" d="M504.38,131.081v139.403H187.482L161.834,67.85l-5.587-44.186h240.725
	c35.684,0,67.304,17.41,86.827,44.186C496.751,85.595,504.38,107.444,504.38,131.081z"/>
<path style="fill:#414551;" d="M156.247,23.668L156.247,23.668c-59.322,0-107.412,48.089-107.412,107.412v139.406h214.823V131.08
	C263.658,71.759,215.568,23.668,156.247,23.668z"/>
<path style="fill:#D5DFE1;" d="M263.654,131.081v139.403H101.681V78.515h148.25C258.667,94.057,263.654,111.985,263.654,131.081z"/>
<path style="fill:#027AAF;" d="M319.039,23.668h-92.937c67.481,23.471,56.783,85.08,55.895,167.935
	c-0.057,5.33,4.261,9.682,9.591,9.682h39.111L319.039,23.668"/>
<path style="fill:#F2F3F4;" d="M213.384,131.081v139.403H101.681V78.515h97.98C208.397,94.057,213.384,111.985,213.384,131.081z"/>
<rect x="228.618" y="297.913" style="fill:#95ABB0;" width="86.848" height="190.425"/>
<rect x="228.618" y="297.913" style="fill:#78878C;" width="38.089" height="190.425"/>
<path style="fill:#EB161C;" d="M296.694,201.921h33.518V91.295h67.036v-67.63h-76.94c-13.042,0-23.615,10.573-23.615,23.615
	L296.694,201.921L296.694,201.921z"/>
<path d="M397.448,16.056c-0.067-0.002-0.132-0.01-0.199-0.01h-76.94c-0.053,0-0.104,0.004-0.156,0.004H156.247l0,0
	c-63.529,0-115.03,51.5-115.03,115.03v131.788H7.618c-4.207,0-7.618,3.411-7.618,7.618v27.425c0,4.207,3.411,7.618,7.618,7.618
	h213.379v40.625c0,4.207,3.411,7.618,7.618,7.618l0,0c4.207,0,7.618-3.411,7.618-7.618v-40.625h22.854v175.189h-22.854v-99.01
	c0-4.207-3.411-7.618-7.618-7.618l0,0c-4.207,0-7.618,3.411-7.618,7.618v106.629c0,4.207,3.411,7.618,7.618,7.618h86.844
	c4.207,0,7.618-3.411,7.618-7.618V305.529h181.304c4.207,0,7.618-3.411,7.618-7.618v-27.425V131.08
	C512,67.812,460.656,16.316,397.448,16.056z M293.494,31.286c-2.802,4.682-4.419,10.152-4.419,15.993v154.642
	c0,4.207,3.411,7.618,7.618,7.618h33.518c4.207,0,7.618-3.411,7.618-7.618V98.913h10.158c4.207,0,7.618-3.411,7.618-7.618l0,0
	c0-4.207-3.411-7.618-7.618-7.618h-17.776c-4.207,0-7.618,3.411-7.618,7.618v103.008h-18.282V47.28
	c0-8.794,7.135-15.951,15.919-15.993h69.4v52.39h-6.091c-4.207,0-7.618,3.411-7.618,7.618l0,0c0,4.207,3.411,7.618,7.618,7.618
	h13.709c4.207,0,7.618-3.411,7.618-7.618V31.598c51.349,4.04,91.896,47.113,91.896,99.481v131.788H271.277V131.08
	c0-42.635-23.315-79.925-57.864-99.794C213.413,31.286,293.494,31.286,293.494,31.286z M214.827,290.292H15.239v-12.188h33.595
	H187.48h27.346L214.827,290.292L214.827,290.292z M256.04,131.08v94.784L119.754,86.134h125.575
	C252.175,99.649,256.04,114.921,256.04,131.08z M201.642,191.913l-92.342,64.02V97.237L201.642,191.913z M126.041,262.866
	l86.39-59.893l43.611,44.713v15.181H126.041z M56.453,131.08c0-55.026,44.768-99.794,99.794-99.794
	c32.44,0,61.31,15.562,79.548,39.611H101.682c-4.207,0-7.618,3.411-7.618,7.618v184.353H56.453V131.08z M307.841,480.718h-33.517
	V305.529h33.517V480.718z M496.764,290.293H230.063v-12.188h266.701V290.293z"/>
<g>
</g>
<g>
</g>
<g>
</g>
<g>
</g>
<g>
</g>
<g>
</g>
<g>
</g>
<g>
</g>
<g>
</g>
<g>
</g>
<g>
</g>
<g>
</g>
<g>
</g>
<g>
</g>
<g>
</g>
</svg>
