<?xml version="1.0" encoding="iso-8859-1"?>
<!-- Generator: Adobe Illustrator 19.0.0, SVG Export Plug-In . SVG Version: 6.00 Build 0)  -->
<svg version="1.1" id="Capa_1" xmlns="http://www.w3.org/2000/svg" xmlns:xlink="http://www.w3.org/1999/xlink" x="0px" y="0px"
	 viewBox="0 0 512 512" style="enable-background:new 0 0 512 512;" xml:space="preserve">
<path style="fill:#EB161C;" d="M348.721,453.526v50.877h41.641v-50.877h72.169v50.877h41.641V85.323
	c0-42.927-34.799-77.726-77.726-77.726l0,0H85.553v445.928"/>
<g>
	<path style="fill:#B40000;" d="M85.553,7.597L85.553,7.597c42.927,0,77.726,34.799,77.726,77.726v419.08h-41.641v-50.877H49.469
		v50.877H7.828V85.323C7.828,42.396,42.627,7.597,85.553,7.597z"/>
	<rect x="348.718" y="459.595" style="fill:#B40000;" width="41.642" height="44.813"/>
</g>
<path style="fill:#B00000;" d="M135.133,7.601c21.464,0,40.893,8.701,54.963,22.761c14.06,14.07,22.761,33.498,22.761,54.963v62.27
	c0,11.628,9.425,21.053,21.053,21.053h200.029c11.628,0,21.053-9.426,21.053-21.053v-62.27c0-21.464-8.701-40.893-22.761-54.963
	c-14.07-14.06-33.498-22.761-54.963-22.761C377.268,7.601,135.133,7.601,135.133,7.601z"/>
<path style="fill:#B40000;" d="M430.844,228.613h-30.387c13.118,0,23.752,10.634,23.752,23.752v106.76
	c0,13.118-10.634,23.752-23.752,23.752h30.387c13.118,0,23.752-10.634,23.752-23.752V252.364
	C454.596,239.246,443.962,228.613,430.844,228.613z"/>
<path d="M426.447,0H85.553C38.507,0,0.231,38.275,0.231,85.323v419.08c0,4.196,3.4,7.597,7.597,7.597h41.64
	c4.197,0,7.597-3.401,7.597-7.597v-43.28h56.975v43.28c0,4.196,3.4,7.597,7.597,7.597h41.64c4.197,0,7.597-3.401,7.597-7.597v-43.28
	h170.247v43.28c0,4.196,3.4,7.597,7.597,7.597h41.641c4.197,0,7.597-3.401,7.597-7.597v-43.28h56.974v43.28
	c0,4.196,3.4,7.597,7.597,7.597h41.641c4.197,0,7.597-3.401,7.597-7.597V85.323C511.771,38.275,473.494,0,426.447,0z
	 M195.465,24.988c-3.641-3.639-7.554-6.908-11.689-9.79h193.493c18.725,0,36.339,7.294,49.588,20.533
	c13.244,13.253,20.538,30.867,20.538,49.593v62.27c0,7.42-6.036,13.456-13.456,13.456H233.91c-7.42,0-13.456-6.036-13.456-13.456
	v-62.27C220.454,62.541,211.58,41.116,195.465,24.988z M382.765,496.806h-26.447v-35.683h26.447V496.806z M496.576,496.806h-26.447
	v-43.28c0-4.196-3.401-7.597-7.597-7.597h-72.169H170.876V284.626c0-4.196-3.401-7.597-7.597-7.597l0,0
	c-4.196,0-7.597,3.401-7.597,7.597v212.179h-26.446v-43.28c0-4.196-3.401-7.597-7.597-7.597h-72.17
	c-4.196,0-7.597,3.401-7.597,7.597v43.28H15.426V86.387c0-38.485,30.561-70.598,69.041-71.185
	c39.166-0.597,71.216,31.088,71.216,70.12v163.85c0,4.196,3.401,7.597,7.597,7.597l0,0c4.196,0,7.597-3.401,7.597-7.597V85.323
	c0-29.032-14.586-54.709-36.804-70.128h0.972c0.029,0,0.059,0.004,0.088,0.004c18.725,0,36.339,7.294,49.588,20.533
	c13.244,13.253,20.538,30.867,20.538,49.593v62.27c0,15.823,12.827,28.65,28.65,28.65h200.029c15.823,0,28.65-12.827,28.65-28.65
	v-62.27c0-22.783-8.873-44.21-24.988-60.336c-3.652-3.65-7.588-6.906-11.739-9.794h0.585c38.731,0,70.128,31.397,70.128,70.128
	v411.483H496.576z"/>
<path d="M430.844,221.015H236.608c-17.313,0-31.349,14.035-31.349,31.349v106.76c0,17.313,14.035,31.349,31.349,31.349h117.681
	c4.196,0,7.597-3.401,7.597-7.597l0,0c0-4.196-3.401-7.597-7.597-7.597H236.608c-8.922,0-16.155-7.232-16.155-16.155v-106.76
	c0-8.922,7.232-16.155,16.155-16.155h194.236c8.922,0,16.155,7.232,16.155,16.155v106.76c0,8.922-7.232,16.155-16.155,16.155
	h-41.101c-4.196,0-7.597,3.401-7.597,7.597l0,0c0,4.196,3.401,7.597,7.597,7.597h41.101c17.313,0,31.349-14.035,31.349-31.349
	v-106.76C462.193,235.051,448.157,221.015,430.844,221.015z"/>
<g>
</g>
<g>
</g>
<g>
</g>
<g>
</g>
<g>
</g>
<g>
</g>
<g>
</g>
<g>
</g>
<g>
</g>
<g>
</g>
<g>
</g>
<g>
</g>
<g>
</g>
<g>
</g>
<g>
</g>
</svg>
