<?xml version="1.0" encoding="iso-8859-1"?>
<!-- Generator: Adobe Illustrator 19.0.0, SVG Export Plug-In . SVG Version: 6.00 Build 0)  -->
<svg version="1.1" id="Capa_1" xmlns="http://www.w3.org/2000/svg" xmlns:xlink="http://www.w3.org/1999/xlink" x="0px" y="0px"
	 viewBox="0 0 511.999 511.999" style="enable-background:new 0 0 511.999 511.999;" xml:space="preserve">
<rect x="7.618" y="270.487" style="fill:#FFCA3B;" width="496.769" height="27.425"/>
<rect x="7.618" y="270.487" style="fill:#E5B02C;" width="214.824" height="27.424"/>
<path style="fill:#0086CC;" d="M504.38,131.079v139.403H187.482L161.834,67.847l-5.587-44.186h240.725
	c35.684,0,67.304,17.41,86.827,44.186C496.751,85.593,504.38,107.442,504.38,131.079z"/>
<path style="fill:#414551;" d="M156.247,23.666L156.247,23.666c-59.322,0-107.412,48.089-107.412,107.412v139.406h214.823V131.078
	C263.657,71.755,215.568,23.666,156.247,23.666z"/>
<rect x="228.618" y="297.912" style="fill:#95ABB0;" width="86.848" height="190.425"/>
<rect x="228.618" y="297.912" style="fill:#78878C;" width="38.089" height="190.425"/>
<path style="fill:#EB161C;" d="M297.176,134.887v33.518h110.627v68.561h67.63v-78.464c0-13.042-10.573-23.615-23.615-23.615H297.176
	z"/>
<path d="M396.97,16.048H156.246c-63.529,0-115.029,51.5-115.029,115.029v44.945c0,4.207,3.411,7.618,7.618,7.618l0,0
	c4.207,0,7.618-3.411,7.618-7.618v-43.673c0-54.941,43.871-100.528,98.809-101.06c55.476-0.537,100.777,44.435,100.777,99.788
	v131.788h-68.56H56.453v-51.29c0-4.207-3.411-7.618-7.618-7.618l0,0c-4.207,0-7.618,3.411-7.618,7.618v51.29H7.618
	c-4.207,0-7.618,3.411-7.618,7.618v27.425c0,4.207,3.411,7.618,7.618,7.618h213.379v182.807c0,4.207,3.411,7.618,7.618,7.618h86.843
	c4.207,0,7.618-3.411,7.618-7.618V305.527h54.847c4.207,0,7.618-3.411,7.618-7.618l0,0c0-4.207-3.411-7.618-7.618-7.618h-147.86
	v-12.188h33.594h233.105v12.188h-83.286c-4.207,0-7.618,3.411-7.618,7.618l0,0c0,4.207,3.411,7.618,7.618,7.618h90.905
	c4.207,0,7.618-3.411,7.618-7.618v-27.425V131.078C512,67.548,460.499,16.048,396.97,16.048z M307.84,480.715h-33.517V305.527
	h33.517V480.715z M259.086,305.527v175.189h-22.853V305.527H259.086z M214.827,290.289H15.239v-12.188h33.595h138.644h27.347
	L214.827,290.289L214.827,290.289z M271.276,262.866V131.077c0-42.635-23.315-79.925-57.864-99.794H396.97
	c55.027,0,99.794,44.767,99.794,99.794v131.788L271.276,262.866L271.276,262.866z"/>
<path d="M451.818,127.267H297.175c-4.208,0-7.618,3.411-7.618,7.618v33.519c0,4.207,3.41,7.618,7.618,7.618h103.008v60.943
	c0,4.207,3.41,7.618,7.618,7.618h67.63c4.208,0,7.618-3.411,7.618-7.618v-78.464C483.052,141.279,469.04,127.267,451.818,127.267z
	 M467.815,229.347h-52.394v-60.943c0-4.207-3.41-7.618-7.618-7.618H304.795v-18.283h147.023c8.821,0,15.997,7.176,15.997,15.997
	V229.347z"/>
<g>
</g>
<g>
</g>
<g>
</g>
<g>
</g>
<g>
</g>
<g>
</g>
<g>
</g>
<g>
</g>
<g>
</g>
<g>
</g>
<g>
</g>
<g>
</g>
<g>
</g>
<g>
</g>
<g>
</g>
</svg>
