<?xml version="1.0" encoding="iso-8859-1"?>
<!-- Generator: Adobe Illustrator 19.0.0, SVG Export Plug-In . SVG Version: 6.00 Build 0)  -->
<svg version="1.1" id="Capa_1" xmlns="http://www.w3.org/2000/svg" xmlns:xlink="http://www.w3.org/1999/xlink" x="0px" y="0px"
	 viewBox="0 0 512 512" style="enable-background:new 0 0 512 512;" xml:space="preserve">
<rect x="7.618" y="270.487" style="fill:#FFCA3B;" width="496.769" height="27.425"/>
<rect x="7.618" y="270.487" style="fill:#E5B02C;" width="214.824" height="27.424"/>
<path style="fill:#0086CC;" d="M504.38,131.081v139.403H187.482L161.834,67.85l-5.587-44.186h240.725
	c35.684,0,67.304,17.41,86.827,44.186C496.751,85.595,504.38,107.444,504.38,131.081z"/>
<g>
	<path style="fill:#027AAF;" d="M156.247,23.668L156.247,23.668c-59.322,0-107.412,48.089-107.412,107.412v139.406h214.823V131.08
		C263.658,71.759,215.568,23.668,156.247,23.668z"/>
	<path style="fill:#027AAF;" d="M319.039,23.668h-92.937c67.481,23.471,56.783,85.08,55.895,167.935
		c-0.057,5.33,4.261,9.682,9.591,9.682h39.111L319.039,23.668"/>
</g>
<rect x="228.618" y="297.913" style="fill:#95ABB0;" width="86.848" height="190.425"/>
<rect x="228.618" y="297.913" style="fill:#78878C;" width="38.089" height="190.425"/>
<path style="fill:#EB161C;" d="M296.694,201.921h33.518V91.295h67.036v-67.63h-76.94c-13.042,0-23.615,10.573-23.615,23.615
	L296.694,201.921L296.694,201.921z"/>
<path d="M397.448,16.056c-0.067-0.002-0.132-0.01-0.199-0.01h-76.94c-0.053,0-0.104,0.004-0.156,0.004H156.247l0,0
	c-63.427,0-115.03,51.602-115.03,115.03v131.788H7.618c-4.207,0-7.618,3.411-7.618,7.618v27.425c0,4.207,3.411,7.618,7.618,7.618
	h213.379v182.807c0,4.207,3.411,7.618,7.618,7.618h86.844c4.207,0,7.618-3.411,7.618-7.618V305.529h181.304
	c4.207,0,7.618-3.411,7.618-7.618v-27.425V131.08C512,67.812,460.656,16.315,397.448,16.056z M304.312,47.28
	c0-8.794,7.135-15.951,15.918-15.993h69.4v52.39h-59.419c-4.207,0-7.618,3.411-7.618,7.618v103.008h-18.281V47.28z M56.453,131.08
	c0-55.026,44.768-99.794,99.794-99.794s99.794,44.767,99.794,99.794v131.788H56.453V131.08z M214.827,290.292H15.239v-12.188h33.595
	h165.992L214.827,290.292L214.827,290.292z M236.234,305.529h22.854v175.189h-22.854V305.529z M307.841,480.718h-33.518V305.529
	h33.518L307.841,480.718L307.841,480.718z M496.764,290.293H230.063v-12.188h33.595h85.371c4.207,0,7.618-3.411,7.618-7.618l0,0
	c0-4.207-3.411-7.618-7.618-7.618h-77.753V131.08c0-42.635-23.315-79.925-57.864-99.794h80.082
	c-2.802,4.682-4.419,10.152-4.419,15.993v154.642c0,4.207,3.411,7.618,7.618,7.618h33.518c4.207,0,7.618-3.411,7.618-7.618V98.913
	h59.419c4.207,0,7.618-3.411,7.618-7.618V31.598c51.349,4.039,91.896,47.113,91.896,99.482v131.788H384.582
	c-4.207,0-7.618,3.411-7.618,7.618l0,0c0,4.207,3.411,7.618,7.618,7.618h112.182L496.764,290.293L496.764,290.293z"/>
<path d="M156.247,120.742c18.393,0,33.358-14.964,33.358-33.359s-14.964-33.359-33.358-33.359s-33.359,14.964-33.359,33.359
	S137.853,120.742,156.247,120.742z M156.247,69.261c9.992,0,18.121,8.129,18.121,18.122s-8.129,18.122-18.121,18.122
	c-9.992,0-18.122-8.129-18.122-18.122S146.255,69.261,156.247,69.261z"/>
<path d="M221.255,156.963H91.238c-4.207,0-7.618,3.411-7.618,7.618c0,4.207,3.411,7.618,7.618,7.618h130.018
	c4.207,0,7.618-3.411,7.618-7.618C228.874,160.374,225.463,156.963,221.255,156.963z"/>
<path d="M199.6,197.593h-86.709c-4.207,0-7.618,3.411-7.618,7.618c0,4.207,3.411,7.618,7.618,7.618H199.6
	c4.207,0,7.618-3.411,7.618-7.618C207.219,201.004,203.809,197.593,199.6,197.593z"/>
<g>
</g>
<g>
</g>
<g>
</g>
<g>
</g>
<g>
</g>
<g>
</g>
<g>
</g>
<g>
</g>
<g>
</g>
<g>
</g>
<g>
</g>
<g>
</g>
<g>
</g>
<g>
</g>
<g>
</g>
</svg>
