<?xml version="1.0" encoding="iso-8859-1"?>
<!-- Generator: Adobe Illustrator 19.0.0, SVG Export Plug-In . SVG Version: 6.00 Build 0)  -->
<svg version="1.1" id="Capa_1" xmlns="http://www.w3.org/2000/svg" xmlns:xlink="http://www.w3.org/1999/xlink" x="0px" y="0px"
	 viewBox="0 0 512 512" style="enable-background:new 0 0 512 512;" xml:space="preserve">
<path style="fill:#CC9D72;" d="M248.762,7.634C138.999,11.299,51.371,97.758,51.371,203.701c0,19.049-0.019,46.071-0.042,61.036
	l409.419-0.661c0.005-26.051,0.01-57.666,0.011-60.375C460.759,92.162,364.033,3.58,248.762,7.634z"/>
<path style="fill:#C19067;" d="M146.943,203.701c0-92.54,66.86-170.208,156.928-190.825c-17.635-4.049-36.118-5.911-55.109-5.243
	C138.999,11.299,51.371,97.758,51.371,203.701c0,19.049-0.019,46.071-0.042,61.036l95.572-0.154
	C146.924,249.587,146.943,222.687,146.943,203.701z"/>
<g>
	<path style="fill:#DBBC3B;" d="M467.634,273.042c0,15.415-15.47,27.909-31.856,27.909v-55.815
		C452.165,245.136,467.634,257.629,467.634,273.042z"/>
	<path style="fill:#DBBC3B;" d="M44.367,273.274c0,15.543,15.598,28.141,32.12,28.141v-56.278
		C59.965,245.136,44.367,257.733,44.367,273.274z"/>
</g>
<g>
	<path style="fill:#CCAF37;" d="M435.779,277.021v23.929c16.386,0,31.856-12.494,31.856-27.909c0-4.282-1.197-8.337-3.273-11.964
		C458.964,270.504,447.612,277.021,435.779,277.021z"/>
	<path style="fill:#CCAF37;" d="M47.614,261.31c-2.059,3.631-3.247,7.684-3.247,11.964c0,15.543,15.598,28.14,32.12,28.14v-23.929
		C64.515,277.485,53.032,270.868,47.614,261.31z"/>
</g>
<path style="fill:#F4D44E;" d="M435.754,245.027c-1.178-1.974-22.091-21.667-22.091-56.102v-13.799v-4.687
	c0-0.723-0.016-1.42-0.038-2.108c-0.017-0.185-0.041-0.382-0.067-0.583c-0.001-0.013-0.004-0.026-0.005-0.039
	c-0.028-0.206-0.062-0.417-0.101-0.636c0,0,4.221-62-50.311-48.666c-46.211,11.3-105.319,12.67-107.139,12.71
	c-1.82-0.04-60.929-1.41-107.139-12.71c-54.532-13.334-50.311,48.666-50.311,48.666c-0.281,1.549-0.211,1.175-0.211,21.852
	c0,34.251-20.939,54.171-22.091,56.102c0,8.163-0.089-28.694-0.089,87.157c0,96.349,82.327,173.526,181.813,172.309
	c97.205-0.85,177.873-76.653,177.873-172.504C435.819,212.488,435.754,255.016,435.754,245.027z"/>
<path style="fill:#E8C842;" d="M126.161,332.184c0-57.57,0.022-77.424,0.044-83.838c0.306-3.783,2.246-5.962,2.246-5.962h-0.001
	c5.625-6.681,19.891-25.179,19.891-53.459c0-20.677-0.069-20.303,0.211-21.852c0,0-2.182-32.055,16.865-45.111
	c-5.62-1.06-11.177-2.239-16.557-3.555c-54.532-13.334-50.311,48.666-50.311,48.666c-0.281,1.549-0.211,1.175-0.211,21.852
	c0,34.252-20.939,54.171-22.091,56.102c0,8.163-0.089-28.694-0.089,87.157c0,96.349,82.327,173.527,181.813,172.309
	c7.776-0.068,15.445-0.621,22.977-1.621C194.01,491.313,126.161,419.651,126.161,332.184z"/>
<path style="fill:#656566;" d="M203.022,406.559c21.938,42.163,81.874,43.263,105.663,2.834c2.797-4.753-0.619-10.744-6.14-10.744
	h-94.707C203.772,398.648,201.148,402.956,203.022,406.559z"/>
<path style="fill:#4F4F51;" d="M227.965,406.559c-1.436-3.603,0.574-7.91,3.69-7.91h-23.815c-4.066,0-6.691,4.306-4.816,7.91
	c11.835,22.744,36.323,34.904,60.752,32.066C250.049,436.546,235.791,426.185,227.965,406.559z"/>
<path style="fill:#656566;" d="M192.045,278.673c-6.384-11.043-20.523-14.826-31.581-8.451
	c-11.058,6.375-14.846,20.495-8.463,31.538s20.523,14.826,31.581,8.451C194.641,303.836,198.43,289.716,192.045,278.673z"/>
<path style="fill:#4F4F51;" d="M172.024,290.217c-4.278-7.399-3.982-16.178,0.002-23.084c-3.93-0.004-7.913,0.987-11.561,3.09
	c-11.058,6.375-14.846,20.495-8.463,31.538c6.384,11.043,20.523,14.826,31.581,8.451c3.648-2.103,6.499-5.052,8.461-8.454
	C184.062,301.749,176.301,297.616,172.024,290.217z"/>
<path style="fill:#DBBC3B;" d="M270.189,313.304h-28.291c-3.83,0-6.963,3.129-6.963,6.954v5.288c0,8.993,5.701,17.147,14.293,19.841
	c14.553,4.563,27.926-6.165,27.926-20.014v-5.116C277.154,316.433,274.019,313.304,270.189,313.304z"/>
<path style="fill:#CCAF37;" d="M256.044,320.259c0-3.825,3.134-6.954,6.963-6.954h-21.109c-3.83,0-6.963,3.129-6.963,6.954v5.288
	c0,16.901,18.107,25.803,31.548,18.149C253.582,336.379,256.399,321.998,256.044,320.259z"/>
<path style="fill:#656566;" d="M360.087,278.673c-6.384-11.043-20.523-14.826-31.581-8.451
	c-11.058,6.375-14.846,20.495-8.463,31.538c6.384,11.043,20.523,14.826,31.581,8.451
	C362.682,303.836,366.47,289.716,360.087,278.673z"/>
<path style="fill:#4F4F51;" d="M340.066,267.132c-17.648-0.018-28.96,19.171-20.023,34.628c8.936,15.455,31.233,15.27,40.041-0.003
	C352.103,301.749,331.187,282.527,340.066,267.132z"/>
<path d="M468.249,253.293c0-1.338,0.01-46.899,0.01-49.592c0-115.383-99.702-207.755-219.748-203.563
	c-59.256,1.98-114.065,27.436-152.538,69.864c-2.783,3.068-2.551,7.812,0.518,10.595c3.069,2.783,7.813,2.552,10.595-0.518
	c35.781-39.458,87.511-63.132,141.941-64.949c109.948-3.88,204.233,80.291,204.233,188.571c0,2.256-0.004,17.623-0.008,37.739
	c-4.233-1.941-8.878-3.212-13.751-3.638l-1.19-1.431c-22.647-27.245-15.947-55.573-17.146-65.931
	c0-51.347-25.383-67.734-59.805-59.317c-1.805,0.441-3.631,0.865-5.471,1.276c-4.043,0.902-6.589,4.911-5.686,8.954
	c0.902,4.043,4.909,6.58,8.954,5.687c8.527-1.906,23.973-6.746,34.857,2.376c14.019,11.751,12.13,35.933,12.149,59.511
	c0,35.661,21.609,57.964,22.13,58.86c0.058,4.861,0.027,3.395,0.05,84.4c0,36.108-11.971,70.377-34.616,99.101
	c-2.564,3.253-2.007,7.969,1.246,10.534c3.245,2.559,7.962,2.013,10.534-1.246c47.549-60.308,36.231-120.49,37.832-132.918
	C469.859,302.828,484.678,274.822,468.249,253.293z M443.344,292.215v-38.456c9.429,2.847,16.79,10.735,16.79,19.227
	C460.134,281.477,452.772,289.367,443.344,292.215z"/>
<path d="M277.111,306.085c-4.143,0-7.5,3.357-7.5,7.5v12.087c0,7.504-6.104,13.609-13.609,13.609
	c-7.503,0-13.609-6.104-13.609-13.609v-12.087c0-4.143-3.358-7.5-7.5-7.5c-4.142,0-7.5,3.357-7.5,7.5v12.087
	c0,15.775,12.834,28.61,28.61,28.61s28.61-12.835,28.61-28.61v-12.087C284.611,309.442,281.253,306.085,277.111,306.085z"/>
<path d="M340.021,321.086c16.884,0,30.619-13.735,30.619-30.619c0-16.884-13.735-30.619-30.619-30.619
	c-16.884,0-30.62,13.735-30.62,30.619C309.402,307.351,323.137,321.086,340.021,321.086z M340.021,274.849
	c8.612,0,15.618,7.006,15.618,15.618s-7.006,15.618-15.618,15.618c-8.613,0-15.619-7.006-15.619-15.618
	S331.409,274.849,340.021,274.849z"/>
<path d="M171.98,321.086c16.884,0,30.62-13.735,30.62-30.619c0-16.884-13.736-30.619-30.62-30.619s-30.62,13.735-30.62,30.619
	C141.36,307.351,155.096,321.086,171.98,321.086z M171.98,274.849c8.613,0,15.619,7.006,15.619,15.618s-7.006,15.618-15.619,15.618
	s-15.619-7.006-15.619-15.618S163.368,274.849,171.98,274.849z"/>
<path d="M380.161,250.196c-23.181-19.399-57.04-19.447-80.278,0c-3.177,2.659-3.597,7.389-0.938,10.566
	c2.661,3.177,7.388,3.596,10.566,0.938c17.651-14.773,43.396-14.753,61.024,0c3.169,2.651,7.901,2.246,10.566-0.938
	C383.757,257.586,383.337,252.856,380.161,250.196z"/>
<path d="M202.492,261.701c1.404,1.175,3.111,1.748,4.81,1.748c7.009,0,10.149-8.79,4.817-13.253
	c-23.272-19.476-57.131-19.373-80.278,0.001c-3.177,2.658-3.597,7.389-0.938,10.565c2.659,3.177,7.389,3.597,10.566,0.938
	c8.536-7.143,19.371-11.077,30.512-11.077C183.121,250.623,193.957,254.557,202.492,261.701z"/>
<path d="M207.838,391.54c-4.553,0-8.685,2.324-11.049,6.217c-3.893,6.408-1.243,11.725,2.191,17.253
	c26.618,42.827,90.168,42.845,116.17-1.411c5.74-9.768-1.286-22.059-12.606-22.059H207.838z M211.385,406.541h90.511
	C281.245,440.73,231.512,439.909,211.385,406.541z"/>
<path d="M380.169,466.833c3.156-2.683,3.54-7.416,0.857-10.573c-2.681-3.154-7.414-3.541-10.573-0.857
	c-109.83,93.351-286.795,19.778-286.795-123.218c0.043-77.789-0.024-77.934,0.051-84.4c0.658-1.132,22.13-22.735,22.13-58.86
	c0.016-30.308-3.176-74.092,41.241-63.233c40.347,9.867,99.219,13.189,109.084,12.923c1.312-0.028,32.531-0.749,67.347-5.387
	c4.105-0.547,6.991-4.319,6.444-8.426c-0.547-4.106-4.325-6.99-8.426-6.444c-33.099,4.409-62.797,5.191-65.529,5.256
	c-4.173-0.099-60.892-1.62-105.358-12.493c-17.589-4.302-31.837-1.999-42.347,6.843c-19.126,16.093-17.102,47.394-17.289,48.807
	c-1.622,12.423,5.904,41.668-17.314,69.596l-1.191,1.432c-4.836,0.424-9.447,1.677-13.654,3.593
	c0.014-11.529,0.023-24.083,0.023-37.693c0-34.055,9.591-67.439,27.734-96.542c2.191-3.515,1.119-8.141-2.396-10.333
	c-3.515-2.191-8.141-1.117-10.333,2.396c-19.63,31.486-30.006,67.614-30.006,104.478c0,18.407-0.017,34.9-0.04,49.493
	c-16.564,21.551-1.709,49.631,24.832,54.462l-0.005,24.53C68.657,488.601,261.01,568.114,380.169,466.833z M68.657,292.215
	c-9.428-2.848-16.79-10.737-16.79-19.23c0-8.492,7.362-16.38,16.79-19.227V292.215z"/>
<g>
</g>
<g>
</g>
<g>
</g>
<g>
</g>
<g>
</g>
<g>
</g>
<g>
</g>
<g>
</g>
<g>
</g>
<g>
</g>
<g>
</g>
<g>
</g>
<g>
</g>
<g>
</g>
<g>
</g>
</svg>
