<?xml version="1.0" encoding="iso-8859-1"?>
<!-- Generator: Adobe Illustrator 19.0.0, SVG Export Plug-In . SVG Version: 6.00 Build 0)  -->
<svg version="1.1" id="Capa_1" xmlns="http://www.w3.org/2000/svg" xmlns:xlink="http://www.w3.org/1999/xlink" x="0px" y="0px"
	 viewBox="0 0 511.999 511.999" style="enable-background:new 0 0 511.999 511.999;" xml:space="preserve">
<path style="fill:#CC9D72;" d="M249.427,7.937C139.733,11.6,52.159,98.007,52.159,203.884c0,19.037-0.019,52.039-0.042,66.995
	l409.166-0.661c0.005-26.034,0.01-63.625,0.01-66.334C461.293,92.414,364.627,3.887,249.427,7.937z"/>
<path style="fill:#C19067;" d="M147.054,203.884c0-92.585,66.968-170.28,157.133-190.778c-17.529-3.997-35.894-5.832-54.76-5.168
	C139.733,11.6,52.159,98.007,52.159,203.884c0,19.037-0.019,52.039-0.042,66.995l94.895-0.153
	C147.036,255.701,147.054,222.858,147.054,203.884z"/>
<g>
	<path style="fill:#DBBC3B;" d="M468.165,273.36c0,15.504-15.559,28.069-32.039,28.069v-56.137
		C452.605,245.293,468.165,257.858,468.165,273.36z"/>
	<path style="fill:#DBBC3B;" d="M45.159,273.585c0,15.628,15.684,28.295,32.297,28.295v-56.587
		C60.843,245.293,45.159,257.959,45.159,273.585z"/>
</g>
<g>
	<path style="fill:#CCAF37;" d="M436.125,275.958v25.472c16.481,0,32.039-12.566,32.039-28.069c0-4.586-1.37-8.912-3.716-12.736
		C458.869,269.723,447.729,275.958,436.125,275.958z"/>
	<path style="fill:#CCAF37;" d="M48.841,260.85c-2.326,3.829-3.683,8.152-3.683,12.736c0,15.628,15.684,28.295,32.297,28.295
		v-25.473C65.714,276.408,54.446,270.078,48.841,260.85z"/>
</g>
<path style="fill:#F4D44E;" d="M436.304,245.184l-3.21-3.862c-25.705-30.919-17.121-63.247-19.078-74.045
	c0,0,4.219-61.961-50.28-48.636c-46.182,11.293-105.254,12.662-107.073,12.702c-1.819-0.04-60.891-1.409-107.073-12.702
	c-54.499-13.326-50.28,48.636-50.28,48.636c-0.296,1.632-0.232,13.149-0.211,21.839c0,34.23-20.926,54.138-22.078,56.068
	c0,0.008-0.089-0.236-0.089,87.103c0,96.289,82.276,173.419,181.701,172.203c97.145-0.85,177.763-76.605,177.763-172.398
	C436.368,212.665,436.304,255.166,436.304,245.184z"/>
<path style="fill:#E8C842;" d="M127.428,332.287c0-41.616,0.02-63.347,0.042-74.695c0.014-7.502,2.43-14.772,6.779-20.884
	c6.505-9.143,15.346-25.342,15.346-47.591c-0.02-8.689-0.084-20.207,0.211-21.839c0,0-2.171-31.909,16.745-45.004
	c-5.758-1.079-11.452-2.284-16.962-3.631c-54.499-13.326-50.28,48.636-50.28,48.636c-0.296,1.632-0.231,13.149-0.211,21.839
	c0,34.231-20.926,54.138-22.078,56.068c0,0.008-0.089-0.236-0.089,87.103c0,96.289,82.277,173.42,181.701,172.203
	c7.856-0.069,15.601-0.635,23.207-1.654C195.087,491.167,127.428,419.605,127.428,332.287z"/>
<path style="fill:#656566;" d="M204.323,406.054c21.925,42.136,81.823,43.236,105.598,2.832c2.795-4.75-0.62-10.737-6.137-10.737
	h-94.648C205.072,398.148,202.449,402.452,204.323,406.054z"/>
<path style="fill:#4F4F51;" d="M229.25,406.054c-1.435-3.601,0.574-7.906,3.688-7.906h-23.801c-4.064,0-6.687,4.304-4.813,7.906
	c11.827,22.73,36.301,34.883,60.714,32.046C251.32,436.021,237.072,425.668,229.25,406.054z"/>
<path style="fill:#656566;" d="M193.353,279.247c-6.38-11.036-20.511-14.817-31.561-8.445c-11.051,6.371-14.837,20.483-8.457,31.518
	c6.38,11.036,20.511,14.817,31.561,8.445C195.947,304.394,199.733,290.282,193.353,279.247z"/>
<path style="fill:#4F4F51;" d="M173.343,290.782c-4.276-7.395-3.98-16.168,0.002-23.07c-3.928-0.004-7.909,0.986-11.554,3.088
	c-11.051,6.371-14.837,20.483-8.457,31.518c6.38,11.036,20.511,14.817,31.561,8.445c3.646-2.102,6.495-5.049,8.455-8.448
	C185.374,302.309,177.619,298.178,173.343,290.782z"/>
<path style="fill:#DBBC3B;" d="M271.448,313.857h-28.273c-3.828,0-6.959,3.127-6.959,6.95v5.285c0,8.987,5.698,17.136,14.284,19.829
	c14.544,4.56,27.908-6.162,27.908-20.002v-5.113C278.409,316.984,275.276,313.857,271.448,313.857z"/>
<path style="fill:#CCAF37;" d="M257.312,320.807c0-3.823,3.132-6.95,6.959-6.95h-21.096c-3.828,0-6.959,3.127-6.959,6.95v5.285
	c0,16.891,18.096,25.787,31.528,18.138C254.851,336.917,257.667,322.544,257.312,320.807z"/>
<path style="fill:#656566;" d="M361.29,279.247c-6.38-11.036-20.511-14.817-31.561-8.445c-11.051,6.371-14.837,20.483-8.457,31.518
	c6.38,11.036,20.511,14.817,31.561,8.445C363.884,304.394,367.67,290.282,361.29,279.247z"/>
<path style="fill:#4F4F51;" d="M341.282,267.712c-17.637-0.018-28.942,19.159-20.011,34.607c8.93,15.445,31.214,15.26,40.017-0.003
	C353.312,302.309,332.407,283.098,341.282,267.712z"/>
<path style="fill:#E2A86A;" d="M346.148,368.365c-19.051,11.834-38.589,1.953-54.732-0.701
	c-16.556-2.721-29.572,8.967-33.219,12.667c-0.368,0.373-0.875,0.579-1.402,0.579l0,0c-0.641,0-1.249-0.249-1.698-0.7
	c-3.804-3.825-16.72-15.238-33.101-12.546c-16.143,2.654-35.681,12.535-54.733,0.701c-2.824-1.755-6.32,0.888-5.261,4.009
	c7.012,20.649,29.51,62.384,92.476,34.271c1.417-0.633,3.036-0.634,4.454-0.001c62.967,28.114,85.465-13.619,92.477-34.27
	C352.469,369.253,348.972,366.611,346.148,368.365z"/>
<g>
	<path style="fill:#C19067;" d="M227.619,367.271c-0.588-0.012-1.182-0.005-1.782,0.017
		C226.435,367.275,227.031,367.264,227.619,367.271z"/>
	<path style="fill:#C19067;" d="M287.56,367.288c-0.607-0.022-1.209-0.029-1.804-0.016
		C286.35,367.264,286.955,367.274,287.56,367.288z"/>
	<path style="fill:#C19067;" d="M351.409,370.371c-7.012,12.565-29.51,37.957-92.477,20.851c-1.417-0.385-3.036-0.385-4.453,0
		c-62.967,17.104-85.464-8.287-92.476-20.852c-0.02-0.035-0.027-0.069-0.043-0.104c-0.198,0.64-0.211,1.358,0.043,2.107
		c7.012,20.65,29.51,62.384,92.476,34.272c1.417-0.633,3.036-0.634,4.453-0.001c62.967,28.114,85.465-13.619,92.477-34.27
		c0.254-0.749,0.241-1.468,0.043-2.108C351.436,370.302,351.429,370.336,351.409,370.371z"/>
</g>
<path d="M468.779,253.45l0.01-49.561c0-163.122-191.227-260.618-331.892-167.978c-3.458,2.277-4.415,6.926-2.138,10.383
	c2.277,3.457,6.927,4.415,10.383,2.138C275.105-37.161,453.798,52.04,453.798,203.89l-0.007,37.715
	c-4.231-1.94-8.871-3.209-13.741-3.637c-0.526-0.906-18.326-18.953-18.326-48.846c-0.08-19.528,0.143-19.643-0.18-22.224
	c0.508-40.464-20.399-65.113-59.588-55.531c-3.467,0.848-7.15,1.671-10.95,2.448c-4.057,0.829-6.672,4.788-5.843,8.845
	c0.829,4.057,4.785,6.674,8.845,5.843c13.303-2.717,29.112-8.467,40.581,1.146c11.004,9.223,12.141,26.794,12.141,40.998v18.475
	c0,35.642,21.596,57.927,22.117,58.822c0.075,6.367,0.008,8.241,0.05,84.348c0,34.681-11.125,67.84-32.172,95.89
	c-3.742,4.985-0.088,11.994,5.99,11.994c2.278,0,4.528-1.034,6.002-2.997c44.353-59.11,33.629-116.906,35.168-129.401
	C461.732,304.53,485.197,274.967,468.779,253.45z M443.889,292.348v-38.433c9.423,2.845,16.78,10.728,16.78,19.215
	C460.669,281.617,453.311,289.501,443.889,292.348z"/>
<path d="M235.565,306.209c-4.141,0-7.496,3.355-7.496,7.496v12.08c0,15.765,12.826,28.591,28.591,28.591
	s28.592-12.826,28.592-28.591v-12.08c0-4.141-3.355-7.496-7.496-7.496c-4.141,0-7.496,3.355-7.496,7.496v12.08
	c0,7.499-6.101,13.599-13.6,13.599c-7.499,0-13.599-6.101-13.599-13.599v-12.08C243.061,309.564,239.706,306.209,235.565,306.209z"
	/>
<path d="M371.231,290.601c0-16.874-13.726-30.6-30.6-30.6s-30.6,13.726-30.6,30.6s13.726,30.6,30.6,30.6
	S371.231,307.473,371.231,290.601z M340.63,306.209c-8.606,0-15.608-7.002-15.608-15.608c0-8.606,7.002-15.608,15.608-15.608
	c8.606,0,15.608,7.002,15.608,15.608C356.238,299.207,349.237,306.209,340.63,306.209z"/>
<path d="M172.694,321.2c16.874,0,30.6-13.726,30.6-30.6s-13.726-30.6-30.6-30.6s-30.601,13.726-30.601,30.6
	S155.82,321.2,172.694,321.2z M172.694,274.991c8.606,0,15.608,7.002,15.608,15.608c0,8.606-7.002,15.608-15.608,15.608
	c-8.607,0-15.609-7.002-15.609-15.608C157.084,281.993,164.086,274.991,172.694,274.991z"/>
<path d="M380.744,250.355c-23.167-19.387-57.005-19.435-80.228,0c-3.175,2.658-3.595,7.385-0.937,10.559
	c2.659,3.175,7.385,3.594,10.559,0.937c17.64-14.764,43.369-14.744,60.986,0c1.403,1.174,3.109,1.747,4.807,1.747
	C382.935,263.6,386.073,254.816,380.744,250.355z"/>
<path d="M203.187,261.853c1.403,1.174,3.109,1.747,4.807,1.747c7.005,0,10.143-8.784,4.814-13.245
	c-23.26-19.465-57.098-19.359-80.228,0.001c-3.175,2.657-3.595,7.385-0.937,10.558c2.657,3.175,7.386,3.596,10.558,0.937
	c8.529-7.139,19.358-11.07,30.493-11.07C183.827,250.782,194.656,254.713,203.187,261.853z"/>
<path d="M205.164,422.675c27.171,32.614,77.428,32.461,104.388-0.229c24.658-4.721,40.917-23.984,48.955-47.656
	c3.318-9.776-7.508-18.259-16.315-12.787h0.001c-15.994,9.931-32.87,1.012-49.561-1.729c-16.081-2.65-29.162,5.651-35.928,11.283
	c-35.019-29.098-58.279,7.348-85.485-9.554c-8.804-5.469-19.636,3.009-16.314,12.786
	C159.051,387.003,179.697,418.373,205.164,422.675z M227.214,422.726c10.018-1.459,20.299-4.824,29.492-8.864
	c9.581,4.211,19.98,7.595,30.395,8.997C268.742,435.382,244.95,434.959,227.214,422.726z M223.211,375.065
	c12.906-2.121,23.601,7.451,26.561,10.427c3.843,3.878,10.05,3.866,13.761,0.106c2.969-3.01,13.675-12.657,26.666-10.533
	c13.457,2.215,31.501,10.437,50.326,4.186c-15.897,32.774-44.813,35.469-78.537,20.552c-7.108-3.176-10.684,0.71-22.027,4.475
	c-29.965,9.942-53.515,2.928-67.074-25.029C191.698,385.504,209.77,377.278,223.211,375.065z"/>
<path d="M124.062,459.177c71.812,69.107,186.468,69.961,259.591,5.166c3.099-2.745,3.385-7.483,0.64-10.581
	c-2.745-3.098-7.483-3.385-10.581-0.64C264.471,549.917,84.426,476.39,84.426,332.291c0.028-84.576-0.008-79.263,0.051-84.347
	c0.653-1.123,22.117-22.723,22.117-58.823v-18.475c0-32.738,9.668-52.433,41.215-44.718c37.433,9.153,95.939,13.259,109.019,12.915
	c1.18-0.026,29.28-0.686,61.612-4.656c4.109-0.505,7.031-4.245,6.526-8.353c-0.505-4.109-4.259-7.035-8.353-6.526
	c-30.686,3.769-57.386,4.483-59.952,4.545c-4.184-0.099-60.856-1.62-105.291-12.485c-17.581-4.301-31.818-1.998-42.32,6.839
	c-17.702,14.894-17.487,43.159-17.265,48.682c-1.763,12.873,5.936,41.678-17.315,69.648l-1.19,1.432
	c-4.833,0.423-9.441,1.676-13.645,3.591c0.014-11.522,0.023-24.069,0.023-37.669c0-51.031,20.965-98.83,59.032-134.592
	c3.018-2.834,3.166-7.578,0.331-10.595c-2.833-3.018-7.579-3.165-10.595-0.331c-41.117,38.624-63.76,90.304-63.76,145.518
	c0,18.395-0.017,34.878-0.039,49.46c-16.556,21.538-1.708,49.601,24.815,54.43C71.271,318.876,57.168,394.801,124.062,459.177z
	 M69.434,292.348c-9.423-2.846-16.78-10.73-16.78-19.218c0-8.486,7.357-16.37,16.78-19.215V292.348z"/>
<g>
</g>
<g>
</g>
<g>
</g>
<g>
</g>
<g>
</g>
<g>
</g>
<g>
</g>
<g>
</g>
<g>
</g>
<g>
</g>
<g>
</g>
<g>
</g>
<g>
</g>
<g>
</g>
<g>
</g>
</svg>
