<?xml version="1.0" encoding="iso-8859-1"?>
<!-- Generator: Adobe Illustrator 19.0.0, SVG Export Plug-In . SVG Version: 6.00 Build 0)  -->
<svg version="1.1" id="Capa_1" xmlns="http://www.w3.org/2000/svg" xmlns:xlink="http://www.w3.org/1999/xlink" x="0px" y="0px"
	 viewBox="0 0 512.001 512.001" style="enable-background:new 0 0 512.001 512.001;" xml:space="preserve">
<path style="fill:#CC9D72;" d="M251.291,7.586c-71.394,2.385-128.393,58.623-128.393,127.533c0,12.391-0.012,31.463-0.027,41.197
	l266.309-0.43c0.003-16.945,0.007-39.003,0.007-40.767C389.186,62.569,326.271,4.95,251.291,7.586z"/>
<path style="fill:#C19067;" d="M178.688,135.119c0-61.281,45.076-112.537,105.267-124.814
	C200.932-6.688,122.898,54.029,122.898,135.119c0,12.391-0.012,31.463-0.027,41.197l55.79-0.09
	C178.676,166.466,178.688,147.474,178.688,135.119z"/>
<g>
	<path style="fill:#E8C842;" d="M393.659,180.269c0,10.053-10.088,18.2-20.773,18.2v-36.398
		C383.57,162.071,393.659,170.218,393.659,180.269z"/>
	<path style="fill:#E8C842;" d="M118.342,180.285c0,10.061,10.097,18.215,20.791,18.215v-36.429
		C128.439,162.071,118.342,170.225,118.342,180.285z"/>
</g>
<g>
	<path style="fill:#DBBC3B;" d="M372.884,184.254v14.214c13.659,0,25.353-12.959,19.017-25.307
		C388.558,179.682,380.889,184.254,372.884,184.254z"/>
	<path style="fill:#DBBC3B;" d="M120.096,173.178c-1.119,2.183-1.754,4.585-1.754,7.106c0,10.061,10.097,18.215,20.791,18.215
		v-14.214C131.119,184.286,123.442,179.707,120.096,173.178z"/>
</g>
<path style="fill:#57ADDD;" d="M474.777,343.672l-42.707-55.859c-7.96-8.467-17.883-14.802-28.874-18.435l-38.028-10.303H146.833
	l-38.029,10.303c-10.991,3.633-20.913,9.969-28.874,18.435l-42.707,55.859c-20.42,21.718-20.873,55.725-0.853,77.82
	c0,0,44.029,44.779,119.815,56.547l99.809-2.848l99.82,2.848c75.786-11.768,119.815-56.547,119.815-56.547
	C495.65,399.398,495.198,365.391,474.777,343.672z"/>
<g>
	<path style="fill:#42A2CC;" d="M166.982,445.117c-69.931-13.829-110.285-54.86-110.285-54.86
		c-14.276-15.755-18.133-37.564-11.773-56.659l-7.701,10.073c-20.42,21.718-20.873,55.725-0.853,77.82
		c0,0,44.029,44.779,119.815,56.547l2-0.057C158.239,473.752,158.987,457.636,166.982,445.117z"/>
	<path style="fill:#42A2CC;" d="M345.019,445.117c69.931-13.829,110.285-54.86,110.285-54.86
		c14.276-15.755,18.133-37.564,11.773-56.659l7.701,10.073c20.42,21.718,20.873,55.725,0.853,77.82
		c0,0-44.029,44.779-119.815,56.547l-2-0.057C353.761,473.752,353.014,457.636,345.019,445.117z"/>
</g>
<path style="fill:#F4D44E;" d="M372.922,162.001l-2.089-2.513c-14.979-18.017-11.946-35.967-12.305-47.374
	c-0.43-4.676-3.698-7.48-11.157-5.395c-53.301,17.491-91.867-0.656-91.867-0.656l4.9,6.757c2.493,3.438,2.276,7.525,0.396,10.584
	c-2.509,3.569-8.287,4.634-9.731,4.377c0,0-1.505,0.036-4.214-0.124l0,0c-9.953-0.591-36.22-3.865-64.335-21.439l-0.003,0.011
	c-15.368-9.349-22.881-4.177-26.356,1.016c-1.83,2.736-2.714,5.996-2.714,9.289c-0.578,4.447,3.304,24.213-12.281,42.957
	l-2.088,2.511c-0.082,64.418-0.058,48.662-0.058,56.692c0,61.967,52.258,111.524,115.698,112.079
	c0.428,0.005,0.854,0.002,1.281,0.003c0.427-0.001,0.853,0.002,1.281-0.003c63.227-0.553,115.698-49.859,115.698-112.206
	C372.971,177.023,372.991,164.531,372.922,162.001z"/>
<g>
	<path style="fill:#E8C842;" d="M164.022,218.692c0-56.635-0.794-55.666,2.146-59.203c0.37-0.649,12.281-13.304,12.281-33.981
		c0-8.246-0.896-13.957,3.651-19.526c-19.185-11.446-28.653-0.108-28.653,10.551c-0.578,4.448,3.301,24.215-12.281,42.956
		L139.079,162c-0.083,64.418-0.058,48.662-0.058,56.692c0,61.967,52.258,111.524,115.698,112.079
		c0.428,0.005,0.854,0.002,1.281,0.003c0.427-0.001,0.853,0.002,1.281-0.003c3.781-0.033,7.522-0.245,11.218-0.62
		C210.234,324.256,164.022,276.963,164.022,218.692z"/>
	<path style="fill:#E8C842;" d="M242.269,248.528v1.666c0,7.393,5.682,13.755,13.067,14.103c7.884,0.371,14.394-5.911,14.394-13.715
		v-2.307c0-3.068-2.487-5.554-5.554-5.554h-16.098C244.87,242.72,242.269,245.321,242.269,248.528z"/>
</g>
<path style="fill:#DBBC3B;" d="M256,250.194v-1.666c0-3.208,2.6-5.808,5.808-5.808h-13.731c-3.208,0-5.808,2.6-5.808,5.808v1.666
	c0,7.393,5.682,13.755,13.067,14.103c2.768,0.13,5.357-0.573,7.564-1.861C258.748,259.967,256,255.333,256,250.194z"/>
<circle style="fill:#656566;" cx="310.65" cy="227.684" r="15.041"/>
<path style="fill:#545456;" d="M310.652,227.682c-2.781-4.817-2.581-10.528,0.007-15.026c-2.558-0.004-5.151,0.632-7.525,2.003
	c-7.192,4.152-9.657,13.35-5.504,20.542c4.152,7.192,13.35,9.657,20.542,5.504c2.375-1.371,4.221-3.299,5.497-5.516
	C318.479,235.181,313.434,232.499,310.652,227.682z"/>
<path style="fill:#E8C842;" d="M244.496,449.766c-16.363-12.649-39.486-20.267-39.486-20.267
	c-50.281-9.561-48.824,48.54-48.824,48.54s16.183,26.461,70.036,26.461C259.742,504.499,263.661,464.581,244.496,449.766z"/>
<path style="fill:#DBBC3B;" d="M239.8,472.86c-52.265,0-71.834-22.962-75.389-27.819c-8.689,14.418-8.227,32.997-8.227,32.997
	s16.183,26.461,70.036,26.461c22.843,0,31.935-18.537,29.347-35.035C251.213,471.611,245.97,472.86,239.8,472.86z"/>
<path style="fill:#E8C842;" d="M267.504,449.766c16.363-12.649,39.486-20.267,39.486-20.267c50.281-9.561,48.824,48.54,48.824,48.54
	s-16.183,26.461-70.036,26.461C252.258,504.499,248.34,464.581,267.504,449.766z"/>
<path style="fill:#DBBC3B;" d="M272.2,472.86c52.265,0,71.834-22.962,75.389-27.819c8.689,14.418,8.227,32.997,8.227,32.997
	s-16.183,26.461-70.036,26.461c-22.843,0-31.935-18.537-29.347-35.035C260.787,471.611,266.031,472.86,272.2,472.86z"/>
<circle style="fill:#656566;" cx="201.353" cy="227.684" r="15.041"/>
<path style="fill:#545456;" d="M201.349,227.682c-2.781-4.817-2.581-10.528,0.007-15.026c-2.558-0.004-5.151,0.632-7.525,2.003
	c-7.192,4.152-9.657,13.35-5.504,20.542c4.152,7.192,13.35,9.657,20.542,5.504c2.375-1.371,4.221-3.299,5.497-5.516
	C209.176,235.181,204.131,232.499,201.349,227.682z"/>
<path d="M256,271.814c11.707,0,21.23-9.525,21.23-21.231v-7.861c0-4.143-3.357-7.5-7.5-7.5c-4.143,0-7.5,3.357-7.5,7.5v7.861
	c0,3.436-2.795,6.23-6.229,6.23c-3.435,0-6.229-2.795-6.229-6.23v-7.861c0-4.143-3.357-7.5-7.5-7.5s-7.5,3.357-7.5,7.5v7.861
	C234.769,262.288,244.293,271.814,256,271.814z"/>
<path d="M310.652,205.144c-12.428,0-22.538,10.111-22.538,22.538s10.111,22.537,22.538,22.537c12.428,0,22.538-10.11,22.538-22.537
	S323.079,205.144,310.652,205.144z M310.652,235.219c-4.156,0-7.537-3.381-7.537-7.536c0-4.156,3.381-7.537,7.537-7.537
	c4.156,0,7.537,3.381,7.537,7.537C318.189,231.838,314.809,235.219,310.652,235.219z"/>
<path d="M201.349,205.144c-12.428,0-22.538,10.111-22.538,22.538s10.111,22.537,22.538,22.537s22.537-10.11,22.537-22.537
	S213.777,205.144,201.349,205.144z M201.349,235.219c-4.156,0-7.537-3.381-7.537-7.536c0-4.156,3.381-7.537,7.537-7.537
	c4.155,0,7.536,3.381,7.536,7.537C208.886,231.838,205.505,235.219,201.349,235.219z"/>
<path d="M292.487,201.837c10.487-8.778,25.815-8.799,36.327,0c1.404,1.175,3.111,1.748,4.81,1.748
	c6.949,0,10.215-8.738,4.817-13.253c-16.08-13.456-39.524-13.438-55.582,0c-3.177,2.658-3.597,7.389-0.938,10.566
	C284.581,204.075,289.309,204.494,292.487,201.837z"/>
<path d="M183.185,201.837c10.487-8.778,25.815-8.799,36.327,0c1.404,1.175,3.111,1.748,4.81,1.748
	c6.949,0,10.215-8.738,4.817-13.253c-16.08-13.456-39.524-13.438-55.582,0c-3.177,2.658-3.597,7.389-0.938,10.566
	C175.278,204.075,180.008,204.494,183.185,201.837z"/>
<path d="M480.511,338.822l-11.011-14.4c-2.516-3.289-7.222-3.918-10.515-1.402c-3.29,2.516-3.918,7.223-1.402,10.515
	c11.761,15.361,11.244,14.761,11.73,15.276c17.678,18.802,18.052,48.419,0.882,67.509c-2.193,2.16-41.653,40.19-107.375,52.887
	c-2.72-24.372-14.892-44.957-39.031-47.913c13.678-14.658,39.979-38.617,76.188-52.532c3.866-1.486,5.796-5.825,4.311-9.692
	c-1.486-3.865-5.824-5.797-9.692-4.311c-52.594,20.211-85.06,59.174-92.219,68.409c-13.658,4.919-37.864,16.03-46.375,27.883
	c-8.506-11.846-32.692-22.954-46.376-27.884c-6.986-9.011-38.079-46.331-88.469-66.921c-3.837-1.569-8.215,0.271-9.78,4.105
	c-1.567,3.834,0.271,8.214,4.105,9.78c34.326,14.028,59.435,36.962,72.708,51.165c-24.143,2.968-36.295,23.569-39.01,47.913
	c-22.933-4.415-45.032-12.317-65.799-23.539c-3.645-1.969-8.196-0.611-10.165,3.033c-1.969,3.644-0.611,8.195,3.033,10.165
	c23.819,12.872,49.294,21.629,75.757,26.08c6.342,7.636,27.1,27.054,74.216,27.054c12.617,0,23.133-4.986,29.778-13.741
	c6.645,8.755,17.161,13.741,29.778,13.741c47.092,0,67.852-19.397,74.206-27.043c75.497-12.688,119.15-56.332,120.994-58.208
	c0.071-0.073,0.142-0.147,0.21-0.223C503.609,401.786,503.283,363.339,480.511,338.822z M226.222,496.999
	c-41.439,0-58.176-16.167-62.493-21.374c0.263-6.322,1.994-24.489,13.045-33.833c6.426-5.434,15.062-7.069,26.377-5.004
	c3.282,1.134,22.832,8.147,36.758,18.911C253.536,466.234,252.346,496.999,226.222,496.999z M285.778,496.999
	c-25.811,0-27.52-30.606-13.687-41.3c13.878-10.728,33.482-17.776,36.761-18.911c11.31-2.063,19.945-0.43,26.373,5.004
	c11.037,9.333,12.777,27.466,13.044,33.801C343.97,480.639,326.839,496.999,285.778,496.999z"/>
<path d="M54.814,427.324c-7.836-5.963-12.324-10.328-13.006-11.002c-17.172-19.09-16.799-48.71,0.879-67.513
	c0.493-0.524-2.312,3.066,42.964-56.13c6.993-7.35,15.737-12.917,25.319-16.119l31.559-8.551
	c44.017,93.395,182.861,93.534,226.944,0l31.559,8.551c9.582,3.202,18.325,8.77,25.319,16.119l9.883,12.926
	c1.477,1.932,3.707,2.945,5.964,2.945c6.128,0,9.752-7.087,5.952-12.056c-10.706-13.982-10.138-13.314-10.615-13.821
	c-21.828-23.218-46.529-22.942-62.532-28.708c3.604-11.28,5.477-23.138,5.477-35.275l-0.003-13.857
	c11.772-3.071,20.681-13.113,20.681-24.649c0-4.967-1.658-9.655-4.478-13.632l0.007-31.435c0-24.436-6.853-48.367-19.818-69.209
	c-2.188-3.517-6.812-4.593-10.331-2.406c-3.517,2.188-4.595,6.813-2.406,10.331c23.007,36.984,16.388,69.861,17.55,82.046
	c-1.607-0.492-3.272-0.852-4.981-1.068c-0.114-0.199-10.647-11.299-10.647-29.304c-0.012-13.398,0.023-11.997-0.028-13.625
	c-0.103-4.032-2.171-8.449-5.863-10.979c-4.433-3.037-10.3-2.9-15.129-1.313c-49.555,16.26-85.993-0.159-86.334-0.316
	c-6.992-3.289-13.802,4.935-9.266,11.19c3.984,6.127,5.978,6.914,5.113,8.763c-3.422,3.325-38.191-0.708-68.049-19.371
	c-24.359-15.142-40.55,0.01-40.55,16.677v8.979c0,17.451-10.574,29.174-10.646,29.301c-1.685,0.212-3.328,0.565-4.914,1.046
	c0.007-6.445,0.011-13.352,0.011-20.739c0-104.371,131.98-160.665,212.649-86.648c3.05,2.8,7.794,2.596,10.598-0.456
	c2.8-3.052,2.597-7.796-0.456-10.598C325.493,12.004,289.207-1.234,251.041,0.091c-75.421,2.518-135.643,61.98-135.643,135.028
	c0,11.626-0.01,22.073-0.024,31.361c-10.662,14.923-1.389,33.78,16.15,38.355c0.441,8.931-1.926,25.973,5.474,49.132
	c-31.921,8.653-30.174,8.165-30.547,8.289c-12.138,4.012-23.197,11.073-31.984,20.419c-0.493,0.524,2.32-3.076-42.978,56.148
	c-22.771,24.518-23.096,62.964-0.677,87.706c2.948,3.243,11.384,10.045,14.917,12.734c3.31,2.517,8.014,1.855,10.512-1.427
	C58.749,434.538,58.11,429.833,54.814,427.324z M380.481,171.697c3.342,2.007,5.677,5.192,5.677,8.488
	c0,3.295-2.335,6.482-5.677,8.49V171.697z M146.544,164.774c0.345-0.601,14.404-15.626,14.404-39.263
	c0.29-7.328-0.811-10.719,1.449-14.097c1.018-1.521,4.111-6.146,16.224,1.221c24.812,15.163,50.705,22.289,72.062,22.648
	c5.006,0.359,12.403-2.089,16.255-7.567c1.601-2.295,2.783-5.757,2.789-9.29c42.733,9.8,77.908-4.357,81.325-4.859
	c0.766,6.134-3.959,29.096,14.012,50.713l0.393,0.473c0.001,0.103,0.014,2.774,0.013,2.608l0.011,51.33
	c0,59.366-51.898,105.187-109.116,104.582c-0.101,0-0.827,0-0.727,0c-57.846,0.407-109.115-45.577-109.115-104.582
	C146.535,167.262,146.52,167.219,146.544,164.774z M131.519,188.675c-7.495-4.501-7.571-12.431,0-16.978V188.675z"/>
<g>
</g>
<g>
</g>
<g>
</g>
<g>
</g>
<g>
</g>
<g>
</g>
<g>
</g>
<g>
</g>
<g>
</g>
<g>
</g>
<g>
</g>
<g>
</g>
<g>
</g>
<g>
</g>
<g>
</g>
</svg>
