<?xml version="1.0" encoding="iso-8859-1"?>
<!-- Generator: Adobe Illustrator 19.0.0, SVG Export Plug-In . SVG Version: 6.00 Build 0)  -->
<svg version="1.1" id="Capa_1" xmlns="http://www.w3.org/2000/svg" xmlns:xlink="http://www.w3.org/1999/xlink" x="0px" y="0px"
	 viewBox="0 0 512 512" style="enable-background:new 0 0 512 512;" xml:space="preserve">
<circle style="fill:#F4D44E;" cx="255.992" cy="255.942" r="248.351"/>
<path style="fill:#E8C842;" d="M175.186,445.989c-156.649-90.441-166.16-311.912-21.28-416.44
	C108.039,50.186,67.988,84.891,40.92,131.774c-68.58,118.784-27.882,270.671,90.902,339.251
	c87.414,50.468,192.754,41.75,269.629-13.713C331.109,488.96,247.086,487.5,175.186,445.989z"/>
<path style="fill:#EAE9E8;" d="M7.909,268.041c0.433,9.019,1.371,18.045,2.804,27.039c13.594,0,107.112,0,123.361,0v-27.039
	C109.718,268.041,32.098,268.041,7.909,268.041z"/>
<path style="fill:#DBDBDB;" d="M59.477,295.081c-2.345-8.914-4.174-17.945-5.526-27.039c-19.228,0-36.645,0-46.031,0
	c0.059,1.18,0.132,2.358,0.207,3.537c0.04,0.64,0.074,1.28,0.119,1.92c0.123,1.715,0.266,3.429,0.426,5.14
	c0.024,0.259,0.045,0.52,0.07,0.779c0.178,1.864,0.377,3.725,0.597,5.584c0.009,0.075,0.018,0.149,0.026,0.224
	c0.394,3.296,0.867,6.58,1.392,9.853C16.605,295.081,36.872,295.081,59.477,295.081z"/>
<path style="fill:#EAE9E8;" d="M29.326,357.442c4.33,9.64,8.973,18.396,14.198,27.039c18.851,0,70.033,0,90.55,0v-27.039
	C111.493,357.442,51.795,357.442,29.326,357.442z"/>
<path style="fill:#DBDBDB;" d="M85.388,357.442c-21.763,0-44.141,0-56.056,0c0.056,0.125,0.11,0.25,0.166,0.375
	c4.281,9.491,8.87,18.134,14.026,26.665c12.239,0,38.099,0,60.353,0C97.062,375.819,90.885,366.79,85.388,357.442z"/>
<g>
	<path style="fill:#EAE9E8;" d="M376.917,268.041v27.039c25.276,0,99.043,0,124.33,0c1.432-8.94,2.386-17.966,2.837-27.039
		C478.451,268.041,402.614,268.041,376.917,268.041z"/>
	<path style="fill:#EAE9E8;" d="M376.917,357.442v27.039c13.438,0,79.223,0,91.627,0c5.274-8.738,9.986-17.771,14.128-27.039
		C462.109,357.442,397.586,357.442,376.917,357.442z"/>
</g>
<path style="fill:#DBDBDB;" d="M370.125,410.353H141.867c-7.04,0-12.801-5.76-12.801-12.801V256.532
	c0-7.04,5.76-12.801,12.801-12.801h228.258c7.04,0,12.801,5.76,12.801,12.801v141.021
	C382.926,404.593,377.165,410.353,370.125,410.353z"/>
<path style="fill:#C9C6C5;" d="M179.139,397.553V256.532c0-7.04,5.76-12.801,12.801-12.801h-50.073
	c-7.04,0-12.801,5.76-12.801,12.801v141.021c0,7.04,5.76,12.801,12.801,12.801h50.073
	C184.9,410.353,179.139,404.593,179.139,397.553z"/>
<path d="M341.056,181.318c16.536-0.335,32.695,6.226,45.507,18.478c2.996,2.865,7.751,2.764,10.619-0.236
	c2.867-2.997,2.761-7.752-0.236-10.619c-16.353-15.64-36.563-23.055-56.197-22.64c-4.147,0.084-7.441,3.515-7.356,7.662
	C333.477,178.082,336.871,181.395,341.056,181.318z"/>
<path d="M125.428,199.797c12.814-12.253,29.016-18.802,45.507-18.479c0.053,0.001,0.104,0.002,0.156,0.002
	c4.077,0,7.423-3.263,7.506-7.358c0.085-4.148-3.209-7.578-7.356-7.662c-20.553-0.441-40.493,7.622-56.197,22.639
	c-4.909,4.696-1.523,12.94,5.193,12.94C122.104,201.879,123.973,201.188,125.428,199.797z"/>
<path d="M98.114,74.043c3.136-2.716,3.476-7.459,0.761-10.595c-2.717-3.136-7.46-3.478-10.595-0.761
	C27.805,115.057-3.255,191.553,0.407,268.401c8.844,184.687,205.987,299.158,370.655,216.064c3.703-1.868,5.191-6.385,3.322-10.089
	c-1.871-3.702-6.385-5.189-10.09-3.322C255.49,525.96,124.42,490.256,57.264,391.993h64.291v5.56c0,11.2,9.112,20.312,20.312,20.312
	h228.258c11.201,0,20.313-9.112,20.313-20.312v-5.56h64.34c-16.307,23.844-36.906,44.73-61.074,61.533
	c-6.035,4.196-3.034,13.679,4.294,13.679c1.479,0,2.974-0.437,4.28-1.345c108.376-75.352,142.095-222.15,75.297-337.844
	C404.631,1.67,240.782-38.666,117.171,41.022c-3.486,2.248-4.49,6.897-2.242,10.383c2.249,3.488,6.899,4.488,10.383,2.242
	c116.103-74.862,270.443-37.309,339.256,81.88c22.149,38.363,33.11,81.495,32.244,125.002H390.438v-3.998
	c0-11.2-9.112-20.312-20.313-20.312h-29.222c-4.149,0-7.511,3.362-7.511,7.511s3.362,7.511,7.511,7.511h29.222
	c2.868,0,5.291,2.423,5.291,5.29c-0.001,16.326-0.001,132.245,0,141.02c0,2.867-2.423,5.29-5.291,5.29H141.867
	c-2.917,0-5.29-2.372-5.29-5.29c0-47.22,0-100.478,0-141.02c0-2.917,2.372-5.29,5.29-5.29h163.984c4.149,0,7.511-3.362,7.511-7.511
	s-3.362-7.511-7.511-7.511H141.867c-11.2,0-20.312,9.112-20.312,20.312v3.998H15.243C13.96,190.982,42.718,122.014,98.114,74.043z
	 M390.438,275.552h105.617c-0.27,3.29-0.772,8.001-1.306,12.017H390.438V275.552z M390.438,302.592h101.825
	c-3.226,16.287-8.045,32.021-14.52,47.34h-87.305V302.592z M390.438,364.953h80.337c-2.122,4.171-4.119,7.886-6.513,12.017h-73.823
	V364.953z M121.556,376.971H47.789c-2.252-3.867-4.541-8.089-6.534-12.017h80.303L121.556,376.971L121.556,376.971z
	 M121.556,349.931H34.262c-6.54-15.417-11.381-31.28-14.541-47.34h101.835V349.931z M121.556,275.552v12.017H17.257
	c-0.527-4-0.941-8.008-1.267-12.017H121.556z"/>
<g>
</g>
<g>
</g>
<g>
</g>
<g>
</g>
<g>
</g>
<g>
</g>
<g>
</g>
<g>
</g>
<g>
</g>
<g>
</g>
<g>
</g>
<g>
</g>
<g>
</g>
<g>
</g>
<g>
</g>
</svg>
