<?xml version="1.0" encoding="iso-8859-1"?>
<!-- Generator: Adobe Illustrator 19.0.0, SVG Export Plug-In . SVG Version: 6.00 Build 0)  -->
<svg version="1.1" id="Capa_1" xmlns="http://www.w3.org/2000/svg" xmlns:xlink="http://www.w3.org/1999/xlink" x="0px" y="0px"
	 viewBox="0 0 512.001 512.001" style="enable-background:new 0 0 512.001 512.001;" xml:space="preserve">
<rect x="136.803" y="35.603" transform="matrix(0.7071 -0.7071 0.7071 0.7071 -2.2322 130.2368)" style="fill:#77818A;" width="38.581" height="64.42"/>
<path style="fill:#35769E;" d="M156.098,40.531l-27.281,27.281c-7.534,7.534-19.748,7.534-27.281,0l0,0
	c-7.534-7.534-7.534-19.748,0-27.281l27.281-27.281c7.534-7.534,19.748-7.534,27.281,0l0,0
	C163.632,20.783,163.632,32.997,156.098,40.531z"/>
<path style="fill:#225975;" d="M123.993,45.355c-7.534-7.534-7.534-19.748,0-27.281l-22.459,22.458
	c-7.534,7.534-7.534,19.748,0,27.281s19.748,7.534,27.281,0l22.457-22.457C143.741,52.888,131.527,52.887,123.993,45.355z"/>
<path style="fill:#41465B;" d="M325.486,196.512l-16.449-16.449L190.082,61.105l-40.693,40.693l25.626,25.616l48.613,48.613
	l44.721,44.724l-0.004,0.004l16.449,16.448c5.312,5.312,13.925,5.312,19.237,0l21.455-21.455
	C330.798,210.436,330.798,201.824,325.486,196.512z"/>
<path style="fill:#262939;" d="M297.993,224.004l-16.449-16.448l0.004-0.004l-44.721-44.724l-48.613-48.613l-25.626-25.616
	l-13.199,13.199l25.626,25.616l48.613,48.613l44.721,44.724l-0.004,0.004l16.449,16.448c5.312,5.312,13.925,5.312,19.237,0
	l13.199-13.199C311.918,229.316,303.305,229.316,297.993,224.004z"/>
<path style="fill:#A1AAB1;" d="M416.099,309.854c0,51.912-30.418,96.738-74.401,117.592l-181.414-22.693
	c-61.964-66.929-52.187-143.158-39.109-185.983c6.396-20.925,13.585-33.871,13.585-33.871l43.648,33.068
	c0,0-4.894,7.554-9.463,20.255c-9.838,27.342-18.164,78.554,27.251,129.562l117.064,12.387
	c24.053-2.447,42.825-22.773,42.825-47.476c0-7.168-1.574-13.96-4.406-20.062c-2.376-5.117-5.625-9.737-9.564-13.677l55.679-55.679
	c6.589,11.036,11.585,23.119,14.671,35.952h0.01C414.84,289.05,416.099,299.305,416.099,309.854z"/>
<path style="fill:#818B91;" d="M412.464,279.232l-60.786,33.403c-2.376-5.117-5.625-9.737-9.564-13.677l55.679-55.679
	C404.382,254.316,409.378,266.399,412.464,279.232z"/>
<path style="fill:#A1AAB1;" d="M302.333,186.767l-27.281,27.281c-7.534,7.534-19.748,7.534-27.281,0l0,0
	c-7.534-7.534-7.534-19.748,0-27.281l27.281-27.281c7.534-7.534,19.748-7.534,27.281,0l0,0
	C309.867,167.019,309.867,179.233,302.333,186.767z"/>
<path style="fill:#818B91;" d="M178.406,217.969c0,0-4.894,7.554-9.463,20.255c-3.168,0.7-6.457,1.066-9.828,1.066
	c-15.879,0-29.85-8.163-37.942-20.519c6.396-20.925,13.585-33.871,13.585-33.871L178.406,217.969z"/>
<path style="fill:#53AAAF;" d="M382.329,212.786l-76.1,76.1c-6.344,6.344-6.344,16.63,0,22.973l0,0
	c6.344,6.344,16.63,6.344,22.973,0l76.1-76.1c6.344-6.344,6.344-16.63,0-22.973l0,0
	C398.959,206.442,388.673,206.442,382.329,212.786z"/>
<path style="fill:#419191;" d="M329.541,288.548L329.541,288.548c-6.345-6.344-6.345-16.63,0-22.973l-23.312,23.312
	c-6.345,6.345-6.345,16.63,0,22.973l0,0c6.344,6.344,16.63,6.344,22.973,0l23.312-23.312
	C346.17,294.893,335.885,294.893,329.541,288.548z"/>
<g>
	<path style="fill:#515F68;" d="M246.432,354.02L246.432,354.02c-54.392,0-98.484,44.093-98.484,98.484v51.878h196.969v-51.878
		C344.916,398.112,300.823,354.02,246.432,354.02z"/>
	<circle style="fill:#515F68;" cx="178.407" cy="172.629" r="45.339"/>
</g>
<g>
	<circle style="fill:#8F9BA8;" cx="178.407" cy="172.629" r="18.902"/>
	<circle style="fill:#8F9BA8;" cx="246.433" cy="429.206" r="34.571"/>
</g>
<path d="M407.262,244.571l3.426-3.426c9.302-9.302,9.302-24.439,0-33.744c-9.304-9.302-24.438-9.302-33.743,0l-76.101,76.101
	c-9.302,9.303-9.302,24.439,0.001,33.743c4.651,4.651,10.762,6.976,16.871,6.976c6.109,0,12.22-2.325,16.871-6.976l7.011-7.011
	c4.466,6.578,6.872,14.333,6.872,22.464c0,19.589-13.91,36.016-32.837,39.446c-18.591-16.032-42.783-25.739-69.2-25.739
	c-17.455,0-33.938,4.239-48.476,11.739c-23.018-27.861-32.487-58.654-28.131-91.616c2.609-19.75,9.696-34.813,13.101-41.149
	c20.706-1.761,38.049-15.476,45.075-34.207l6.641,6.641c-0.742,7.726,1.838,15.716,7.743,21.621
	c5.246,5.245,12.136,7.868,19.026,7.868c0.863,0,1.726-0.042,2.586-0.124l15.41,15.411c4.136,4.135,9.57,6.203,15.003,6.203
	c2.938,0,5.869-0.626,8.603-1.836l5.683,5.683c1.487,1.487,3.436,2.231,5.385,2.231c1.891,0,3.782-0.701,5.251-2.1
	c3.106-2.961,2.936-8.097-0.097-11.131l-4.435-4.435l16.071-16.071c4.006-4.007,6.214-9.336,6.214-15.003
	c0-5.666-2.207-10.995-6.214-15.002l-15.409-15.409c0.741-7.725-1.84-15.713-7.744-21.617c-5.904-5.903-13.889-8.484-21.614-7.744
	l-50.682-50.682c-2.974-2.974-7.796-2.974-10.769,0l0,0c-2.974,2.974-2.974,7.795,0,10.769l46.386,46.387
	c-0.467,0.407-0.927,0.825-1.372,1.269l-27.281,27.281c-0.443,0.444-0.86,0.902-1.266,1.368l-9.768-9.768
	c0.001-0.118,0.009-0.235,0.009-0.352c0-29.199-23.755-52.954-52.954-52.954c-0.118,0-0.235,0.008-0.352,0.009l-17.895-17.887
	l1.272-1.272c0.016-0.016,0.035-0.029,0.052-0.047l27.281-27.281c0.018-0.018,0.034-0.039,0.051-0.057l1.267-1.267l9.486,9.487
	c2.974,2.974,7.795,2.974,10.769,0l0,0c2.974-2.974,2.974-7.795,0-10.769l-14.871-14.871c-2.974-2.973-7.795-2.973-10.768,0
	l-1.321,1.321l-17.291-17.291c5.547-10.204,4.017-23.264-4.603-31.885c-10.49-10.49-27.56-10.49-38.051,0L96.154,35.149
	c-10.491,10.491-10.491,27.56,0,38.052c5.245,5.245,12.135,7.868,19.025,7.868c4.434,0,8.865-1.092,12.86-3.264l17.291,17.291
	l-1.183,1.183c-0.752,0.752-1.395,1.621-1.795,2.607c-1.202,2.961-0.457,6.189,1.657,8.303l15.857,15.85
	c-20.079,7.533-34.411,26.919-34.411,49.596c0,3.878,0.43,7.657,1.226,11.301c-4.281,8.512-16.866,35.982-21.303,72.618
	c-4.77,39.385-0.517,96.85,45.737,149.395c-6.898,14.065-10.779,29.867-10.779,46.561v51.879c0,4.205,3.409,7.615,7.615,7.615
	h196.969c4.205,0,7.615-3.409,7.615-7.615v-51.879c0-7.17-0.719-14.174-2.081-20.949c4.672-2.478,9.202-5.22,13.55-8.207
	c3.602-2.475,4.351-7.493,1.665-10.941l-0.001-0.002c-2.47-3.174-6.983-3.879-10.298-1.603c-2.955,2.029-6.002,3.929-9.128,5.698
	c-4.255-11.758-10.532-22.555-18.409-31.972c21.171-7.885,35.87-28.187,35.87-51.83c0-12.213-3.937-23.813-11.194-33.371
	l43.45-43.45c8.211,16.713,12.529,35.18,12.529,53.977c0,28.889-10.06,56.493-28.467,78.493c-2.587,3.092-2.315,7.661,0.622,10.423
	l0.002,0.002c3.178,2.988,8.234,2.719,11.034-0.625c20.716-24.743,32.038-55.795,32.038-88.292
	C423.714,286.99,418.032,264.55,407.262,244.571z M320.101,201.896c1.131,1.13,1.754,2.634,1.754,4.233
	c0,1.6-0.622,3.104-1.754,4.234l-21.455,21.455c-2.334,2.336-6.133,2.336-8.468,0l-11.114-11.115
	c0.467-0.406,0.928-0.825,1.373-1.27l27.281-27.281c0.444-0.445,0.862-0.904,1.268-1.371L320.101,201.896z M253.156,192.152
	l27.281-27.281c2.275-2.276,5.266-3.414,8.255-3.414c2.99,0,5.981,1.138,8.256,3.414c4.553,4.552,4.553,11.959,0,16.512
	l-27.281,27.281c-4.552,4.554-11.961,4.552-16.512,0C248.602,204.111,248.602,196.704,253.156,192.152z M106.92,62.427
	c-4.553-4.552-4.553-11.959,0-16.512l27.281-27.281c2.276-2.276,5.266-3.414,8.256-3.414s5.98,1.138,8.255,3.413
	c4.553,4.553,4.553,11.96,0,16.513l-27.281,27.281C118.879,66.98,111.473,66.98,106.92,62.427z M139.586,67.812l16.513-16.513
	l16.51,16.51l-16.513,16.513L139.586,67.812z M178.406,134.904c20.802,0,37.725,16.923,37.725,37.725s-16.923,37.725-37.725,37.725
	s-37.725-16.923-37.725-37.725S157.605,134.904,178.406,134.904z M124.83,326.73c-5.719-21.355-7.2-44.17-4.4-67.811
	c2.811-23.736,9.434-43.61,14.498-56.116c7.39,10.616,18.56,18.403,31.546,21.408c-4.082,8.748-9.303,22.543-11.652,39.622
	c-3.539,25.749-0.902,63.816,30.029,102.32c-9.935,7.105-18.593,15.883-25.57,25.914C142.73,372.262,131.149,350.329,124.83,326.73z
	 M337.302,496.767H155.563v-44.264c0-50.106,40.764-90.87,90.87-90.87s90.87,40.763,90.87,90.87V496.767z M323.817,306.475
	c-3.364,3.365-8.839,3.365-12.205,0c-3.365-3.364-3.365-8.839,0-12.204l76.101-76.101c1.682-1.682,3.892-2.524,6.102-2.524
	c2.21,0,4.421,0.842,6.102,2.523c3.365,3.365,3.365,8.841,0,12.205L323.817,306.475z"/>
<path d="M178.406,199.146c14.621,0,26.517-11.895,26.517-26.517c0-14.621-11.895-26.517-26.517-26.517
	c-14.621,0-26.517,11.895-26.517,26.517C151.89,187.25,163.785,199.146,178.406,199.146z M178.406,161.342
	c6.224,0,11.287,5.063,11.287,11.287c0,6.224-5.063,11.287-11.287,11.287c-6.224,0-11.287-5.063-11.287-11.287
	C167.119,166.405,172.183,161.342,178.406,161.342z"/>
<path d="M246.433,387.017c-23.261,0-42.184,18.924-42.184,42.184c0,23.261,18.924,42.185,42.184,42.185s42.184-18.924,42.184-42.185
	C288.616,405.94,269.692,387.017,246.433,387.017z M246.433,456.155c-14.863,0-26.954-12.092-26.954-26.955
	s12.092-26.954,26.954-26.954c14.862,0,26.954,12.091,26.954,26.954S261.295,456.155,246.433,456.155z"/>
<g>
</g>
<g>
</g>
<g>
</g>
<g>
</g>
<g>
</g>
<g>
</g>
<g>
</g>
<g>
</g>
<g>
</g>
<g>
</g>
<g>
</g>
<g>
</g>
<g>
</g>
<g>
</g>
<g>
</g>
</svg>
