<?xml version="1.0" encoding="iso-8859-1"?>
<!-- Generator: Adobe Illustrator 19.0.0, SVG Export Plug-In . SVG Version: 6.00 Build 0)  -->
<svg version="1.1" id="Capa_1" xmlns="http://www.w3.org/2000/svg" xmlns:xlink="http://www.w3.org/1999/xlink" x="0px" y="0px"
	 viewBox="0 0 512.001 512.001" style="enable-background:new 0 0 512.001 512.001;" xml:space="preserve">
<polyline style="fill:#4B606C;" points="319.369,374.197 319.369,458.9 290,458.9 221.99,458.9 192.632,458.9 192.632,374.197 "/>
<polyline style="fill:#647A84;" points="221.99,372.136 221.99,445.544 221.99,512 290,512 290,445.544 290,372.136 "/>
<polyline style="fill:#4B606C;" points="221.99,372.136 221.99,445.544 221.99,512 247.432,512 247.432,445.544 247.432,372.136 "/>
<path style="fill:#A9B1B5;" d="M400.517,66.275V342.52c0,25.968-19.177,47.906-44.897,51.544c-66.083,9.326-133.156,9.326-199.25,0
	c-25.72-3.638-44.887-25.576-44.887-51.544V66.275c0-25.978,19.167-47.916,44.887-51.554c3.153-0.443,6.306-0.866,9.47-1.267
	c13.365-1.711,26.761-3.03,40.178-3.967c9.954-0.711,19.919-1.195,29.883-1.474c13.396-0.381,26.802-0.381,40.188,0
	c9.965,0.278,19.929,0.763,29.883,1.474c13.427,0.938,26.823,2.257,40.188,3.978c3.153,0.392,6.306,0.814,9.46,1.257
	C381.34,18.359,400.517,40.297,400.517,66.275z"/>
<path style="fill:#939EA4;" d="M193.972,394.064c20.568,4.658,41.301,6.997,62.023,6.997c-33.284,0-66.578-2.339-99.625-6.997
	c-25.72-3.638-44.887-25.576-44.887-51.544V66.275c0-25.978,19.167-47.916,44.887-51.554c3.153-0.443,6.306-0.866,9.47-1.267
	c13.365-1.711,26.761-3.03,40.178-3.967c9.954-0.711,19.919-1.195,29.883-1.474c6.698-0.185,13.396-0.289,20.094-0.289
	c-4.173,0-8.336,0.103-12.51,0.289c-6.203,0.278-12.407,0.763-18.6,1.474c-8.357,0.938-16.693,2.257-25.02,3.967
	c-1.968,0.402-3.926,0.824-5.894,1.267c-16.013,3.638-27.946,25.576-27.946,51.554V342.52
	C166.026,368.488,177.959,390.426,193.972,394.064z"/>
<path style="fill:#C9CFD1;" d="M318.019,394.064c-20.568,4.658-41.301,6.997-62.023,6.997c30.089,0,60.185-1.931,90.1-5.74
	c1.977-0.404,3.954-0.811,5.928-1.257c16.013-3.638,27.946-25.576,27.946-51.544V66.275c0-25.978-11.933-47.916-27.946-51.554
	c-1.968-0.443-3.926-0.866-5.894-1.267c-0.011-0.002-0.023-0.004-0.034-0.006c-13.346-1.707-26.725-3.024-40.123-3.961
	c-9.954-0.711-19.919-1.195-29.883-1.474c-6.698-0.185-13.396-0.289-20.094-0.289c4.173,0,8.336,0.103,12.51,0.289
	c6.203,0.278,12.407,0.763,18.6,1.474c8.357,0.938,16.693,2.257,25.02,3.967c1.968,0.402,3.926,0.824,5.894,1.267
	c16.013,3.638,27.946,25.576,27.946,51.554V342.52C345.965,368.488,334.032,390.426,318.019,394.064z"/>
<g>
	<path style="fill:#30303A;" d="M216.584,130.716H111.483V90.53h105.102c11.097,0,20.093,8.996,20.093,20.093l0,0
		C236.677,121.72,227.681,130.716,216.584,130.716z"/>
	<path style="fill:#30303A;" d="M295.41,130.716h105.102V90.53H295.41c-11.097,0-20.093,8.996-20.093,20.093l0,0
		C275.317,121.72,284.313,130.716,295.41,130.716z"/>
	<path style="fill:#30303A;" d="M216.584,200.783H111.483v-40.186h105.102c11.097,0,20.093,8.996,20.093,20.093l0,0
		C236.677,191.787,227.681,200.783,216.584,200.783z"/>
	<path style="fill:#30303A;" d="M295.41,200.783h105.102v-40.186H295.41c-11.097,0-20.093,8.996-20.093,20.093l0,0
		C275.317,191.787,284.313,200.783,295.41,200.783z"/>
	<path style="fill:#30303A;" d="M216.584,270.851H111.483v-40.186h105.102c11.097,0,20.093,8.996,20.093,20.093l0,0
		C236.677,261.855,227.681,270.851,216.584,270.851z"/>
	<path style="fill:#30303A;" d="M295.41,270.851h105.102v-40.186H295.41c-11.097,0-20.093,8.996-20.093,20.093l0,0
		C275.317,261.855,284.313,270.851,295.41,270.851z"/>
	<path style="fill:#30303A;" d="M216.584,340.919H111.483v-40.186h105.102c11.097,0,20.093,8.996,20.093,20.093l0,0
		C236.677,331.923,227.681,340.919,216.584,340.919z"/>
	<path style="fill:#30303A;" d="M295.41,340.919h105.102v-40.186H295.41c-11.097,0-20.093,8.996-20.093,20.093l0,0
		C275.317,331.923,284.313,340.919,295.41,340.919z"/>
	<path style="fill:#30303A;" d="M346.161,13.464v26.833c0,11.098-8.996,20.094-20.094,20.094c-5.554,0-10.573-2.246-14.21-5.884
		c-3.638-3.638-5.884-8.656-5.884-14.21V9.486C319.4,10.424,332.795,11.743,346.161,13.464z"/>
	<path style="fill:#30303A;" d="M276.089,8.013v32.284c0,11.098-8.996,20.094-20.094,20.094c-5.554,0-10.573-2.246-14.21-5.884
		c-3.638-3.638-5.884-8.656-5.884-14.21V8.013C249.297,7.632,262.704,7.632,276.089,8.013z"/>
	<path style="fill:#30303A;" d="M206.018,9.486v30.811c0,11.098-8.996,20.094-20.084,20.094c-5.544,0-10.573-2.246-14.21-5.884
		c-3.638-3.638-5.884-8.656-5.884-14.21V13.454C179.206,11.743,192.602,10.424,206.018,9.486z"/>
</g>
<path d="M356.696,7.068c-3.414-0.48-6.549-0.896-9.548-1.27c-13.335-1.718-27.008-3.07-40.624-4.021
	c-9.853-0.704-20.02-1.206-30.214-1.49c-13.476-0.383-27.145-0.383-40.624,0c-10.201,0.284-20.368,0.786-30.206,1.489
	c-13.569,0.948-27.237,2.297-40.613,4.011c-3.199,0.406-6.386,0.833-9.578,1.282c-29.379,4.155-51.533,29.607-51.533,59.206V342.52
	c0,29.593,22.154,55.041,51.535,59.197c9.852,1.39,19.727,2.55,29.613,3.53v53.654c0,4.268,3.459,7.728,7.728,7.728h21.628v45.371
	h15.457v-103.7c8.758,0.319,17.519,0.488,26.281,0.488c8.759,0,17.518-0.168,26.273-0.487v103.699h15.457V466.63h21.64
	c4.269,0,7.728-3.46,7.728-7.728v-53.654c9.885-0.98,19.757-2.139,29.606-3.529c29.385-4.156,51.544-29.605,51.544-59.197V66.275
	C408.246,36.677,386.087,11.224,356.696,7.068z M313.701,17.834c8.286,0.678,16.55,1.51,24.731,2.478v19.985
	c0,6.819-5.547,12.366-12.366,12.366c-3.306,0-6.412-1.286-8.746-3.62c-2.335-2.335-3.62-5.441-3.62-8.746V17.834z M268.361,15.578
	v24.719c0,6.819-5.547,12.366-12.366,12.366c-3.306,0-6.412-1.286-8.746-3.62c-2.335-2.335-3.62-5.441-3.62-8.746V15.578
	c4.117-0.072,8.24-0.122,12.368-0.122C260.123,15.457,264.245,15.506,268.361,15.578z M173.569,20.306
	c8.189-0.966,16.451-1.795,24.721-2.472v22.463c0,6.819-5.543,12.366-12.355,12.366c-3.305,0-6.41-1.286-8.745-3.621
	c-2.334-2.334-3.62-5.44-3.62-8.744V20.306z M119.212,308.462h97.372c6.818,0,12.364,5.547,12.364,12.364
	c0,6.818-5.547,12.364-12.364,12.364h-97.372V308.462z M119.212,238.394h97.372c6.818,0,12.364,5.547,12.364,12.364
	c0,6.818-5.547,12.364-12.364,12.364h-97.372V238.394z M119.212,168.325h97.372c6.818,0,12.364,5.547,12.364,12.364
	s-5.547,12.364-12.364,12.364h-97.372V168.325z M214.261,451.172h-13.9V406.61c4.631,0.359,9.265,0.676,13.9,0.945V451.172z
	 M311.639,451.172h-13.911v-43.617c4.639-0.269,9.276-0.586,13.911-0.945V451.172z M354.54,386.412
	c-65.386,9.228-131.696,9.228-197.088,0c-19.74-2.792-35.084-18.528-37.809-37.764h96.348c15.138,0,27.951-11.847,28.4-26.978
	c0.467-15.724-12.188-28.664-27.809-28.664h-97.372v-14.425h96.781c15.138,0,27.951-11.847,28.4-26.978
	c0.467-15.724-12.188-28.664-27.809-28.664h-97.372v-14.425h96.781c15.138,0,27.951-11.847,28.4-26.978
	c0.467-15.724-12.188-28.664-27.809-28.664h-97.372v-14.425h96.781c15.138,0,27.951-11.847,28.4-26.978
	c0.467-15.724-12.188-28.664-27.809-28.664h-28.403c-4.268,0-7.728,3.46-7.728,7.728l0,0c0,4.268,3.46,7.728,7.728,7.728h28.041
	c6.434,0,12.068,4.766,12.671,11.172c0.692,7.351-5.097,13.557-12.308,13.557h-97.372V98.258h32.903c4.268,0,7.728-3.46,7.728-7.728
	l0,0c0-4.268-3.46-7.728-7.728-7.728h-32.903V66.275c0-21.945,16.44-40.819,38.234-43.901c0.222-0.031,0.444-0.058,0.666-0.089
	v17.414c0,7.285,2.592,14.42,7.601,19.711c5.452,5.759,12.915,8.873,20.839,8.703c15.218-0.327,27.195-13.186,27.195-28.408V16.723
	c4.761-0.287,9.58-0.526,14.426-0.715v23.694c0,7.285,2.592,14.42,7.602,19.711c5.452,5.758,12.914,8.871,20.84,8.7
	c15.223-0.328,27.204-13.191,27.204-28.418V16.008c4.844,0.191,9.664,0.429,14.426,0.716v22.978c0,7.285,2.592,14.42,7.602,19.711
	c5.452,5.758,12.914,8.871,20.84,8.7c15.223-0.328,27.204-13.191,27.204-28.418V22.284c0.218,0.031,0.429,0.059,0.649,0.09
	c21.807,3.084,38.251,21.957,38.251,43.902v16.526h-96.787c-15.138,0-27.951,11.847-28.4,26.978
	c-0.467,15.724,12.188,28.664,27.809,28.664h97.378v14.425h-96.787c-15.138,0-27.951,11.847-28.4,26.978
	c-0.467,15.724,12.188,28.664,27.809,28.664h97.378v14.425h-96.787c-15.138,0-27.951,11.847-28.4,26.978
	c-0.467,15.724,12.188,28.664,27.809,28.664h22.607c4.268,0,7.728-3.46,7.728-7.728l0,0c0-4.268-3.46-7.728-7.728-7.728h-22.247
	c-6.434,0-12.068-4.766-12.671-11.172c-0.692-7.351,5.097-13.557,12.308-13.557h97.373v24.729h-38.699
	c-4.268,0-7.728,3.46-7.728,7.728l0,0c0,4.268,3.46,7.728,7.728,7.728h38.704v14.425h-96.787c-15.138,0-27.951,11.847-28.4,26.978
	c-0.467,15.724,12.188,28.664,27.809,28.664h96.946C389.631,367.884,374.284,383.619,354.54,386.412z M392.784,98.258v24.729H295.41
	c-6.818,0-12.364-5.547-12.364-12.364s5.547-12.364,12.364-12.364H392.784z M392.784,168.325v24.729H295.41
	c-6.818,0-12.364-5.547-12.364-12.364s5.547-12.364,12.364-12.364L392.784,168.325L392.784,168.325z M392.784,333.191H295.41
	c-6.818,0-12.364-5.547-12.364-12.364c0-6.818,5.547-12.364,12.364-12.364h97.373V333.191z"/>
<g>
</g>
<g>
</g>
<g>
</g>
<g>
</g>
<g>
</g>
<g>
</g>
<g>
</g>
<g>
</g>
<g>
</g>
<g>
</g>
<g>
</g>
<g>
</g>
<g>
</g>
<g>
</g>
<g>
</g>
</svg>
