<?xml version="1.0" encoding="iso-8859-1"?>
<!-- Generator: Adobe Illustrator 19.0.0, SVG Export Plug-In . SVG Version: 6.00 Build 0)  -->
<svg version="1.1" id="Capa_1" xmlns="http://www.w3.org/2000/svg" xmlns:xlink="http://www.w3.org/1999/xlink" x="0px" y="0px"
	 viewBox="0 0 512.001 512.001" style="enable-background:new 0 0 512.001 512.001;" xml:space="preserve">
<path style="fill:#F4D44E;" d="M449.606,222.391h-0.026c-0.577-16.599-14.323-30.001-31.057-30.001l0,0
	c-16.733,0-30.48,13.402-31.057,30.001h-0.028v-11.917c0-17.096-13.988-31.084-31.084-31.084l0,0
	c-17.096,0-31.085,13.988-31.085,31.084V65.924c0,0.002,0,0.005,0,0.007c0-8.834,0-14.815,0-27.328
	c0-17.44-14.362-31.526-31.905-31.074c-16.961,0.437-30.264,14.806-30.264,31.774c0,8.269,0,17.015,0,26.628
	c0-0.004,0-0.008,0-0.011v144.555c0-17.096-13.988-31.084-31.085-31.084l0,0c-17.096,0-31.084,13.988-31.084,31.084
	c0,30.498,0,53.711,0,84.436c-35.807-39.682-77.948-59.372-80.758-60.655c-20.694-9.451-42.776-7.67-53.673,13.104
	c-10.012,19.089-1.401,25.321,20.212,40.915c1.186,0.856,56.448,36.527,77.348,77.704c8.36,16.469,3.223,23.568,16.875,47.399
	c14.213,24.809,32.62,35.633,35.892,38.538v26.337c0,14.496,11.751,26.249,26.249,26.249h146.114
	c14.605,0,26.445-11.84,26.445-26.445c0-0.226,0-9.635,0-9.218c0-12.043,3.711-23.861,10.929-33.501
	c27.524-36.761,22.447-73.798,23.044-77.874C449.606,337.465,449.606,243.544,449.606,222.391z"/>
<g>
	<path style="fill:#E8C842;" d="M247.828,478.252v-23.329c0-6.86-5.212-12.45-11.833-13.453c-9.723-1.472-30.353-5.609-46.92-15.801
		c17.294,22.761,27.753,20.917,27.753,33.49v19.094c0,14.496,11.751,26.249,26.249,26.249h31.001
		C259.579,504.501,247.828,492.749,247.828,478.252z"/>
	<path style="fill:#E8C842;" d="M200.932,210.474c0,22.701,0,67.438,0,84.436h10.636c11.247,0,20.365-9.117,20.365-20.365
		c0-23.405,0-41.181,0-64.072c0-11.46,6.29-21.517,15.584-26.906C226.986,171.661,200.932,186.602,200.932,210.474z"/>
	<path style="fill:#E8C842;" d="M293.626,7.523c-17.064,0.3-30.525,14.712-30.525,31.78v26.628c0-0.004,0-0.008,0-0.011
		c0,46.26,0,209.029,0,203.212c0,8.714,7.064,15.778,15.778,15.778l0,0c8.407,0,15.222-6.815,15.222-15.222
		c0-25.534,0-180.124,0-203.768c0,0.004,0,0.008,0,0.011c0-9.612,0-18.359,0-26.628c0-11.642,6.264-22.061,15.674-27.595
		C305.042,8.958,299.518,7.42,293.626,7.523z"/>
	<path style="fill:#E8C842;" d="M325.27,210.474v58.649c0,8.719,7.068,15.786,15.786,15.786l0,0c8.402,0,15.214-6.811,15.214-15.214
		v-59.222c0-11.46,6.29-21.517,15.584-26.906C348.039,171.22,325.27,188.854,325.27,210.474L325.27,210.474L325.27,210.474z"/>
	<path style="fill:#E8C842;" d="M423.946,192.884c0.002-0.002,0.003-0.005,0.005-0.007c-6.21-1.107-10.678,0.023-10.997,0.025l0,0
		c-14.114,2.583-24.976,14.775-25.487,29.489h-0.028v46.732c0,8.719,7.068,15.786,15.786,15.786l0,0
		c8.402,0,15.213-6.811,15.213-15.214l0.014-47.305l0,0c0.383-11.008,6.574-20.605,15.57-25.824
		C430.955,194.785,427.554,193.528,423.946,192.884z"/>
</g>
<path d="M391.989,195.648c-9.879-23.651-39.323-31.094-59.208-15.693V38.603c0-10.494-4.14-20.31-11.656-27.635
	c-24.635-24.008-65.514-5.925-65.514,28.334v19.323c0,4.143,3.357,7.5,7.5,7.5c4.143,0,7.5-3.357,7.5-7.5V39.303
	c0-21.218,24.962-32.285,40.043-17.591c4.596,4.479,7.126,10.477,7.126,16.892c0,25.85,0,202.943,0,228.739
	c0,4.143,3.357,7.5,7.5,7.5s7.5-3.357,7.5-7.5v-56.87c0-13.004,10.58-23.584,23.585-23.584s23.585,10.579,23.585,23.584
	c0.035,71.816-0.039-51.162,0.027,56.87c0,4.143,3.357,7.5,7.5,7.5s7.5-3.357,7.5-7.5v-44.774
	c0.479-12.512,11.027-22.679,23.557-22.679c11.323,0,22.305,8.146,23.584,23.142c0,6.506,0.001,52.396,0.001,53.6
	c0,4.143,3.357,7.5,7.5,7.5s7.5-3.357,7.5-7.5c0-0.11-0.001-54.347-0.001-54.24C457.119,191.185,417.223,171.556,391.989,195.648z"
	/>
<path d="M457.119,366.001v-54.368c0-4.143-3.357-7.5-7.5-7.5s-7.5,3.357-7.5,7.5v54.368c0,23.591-7.451,46.012-21.548,64.84
	c-15.632,20.879-11.897,42.841-12.426,47.215c0,10.446-8.498,18.945-18.944,18.945H297.05c-4.143,0-7.5,3.357-7.5,7.5
	s3.357,7.5,7.5,7.5h92.151c18.717,0,33.944-15.228,33.944-33.945c0.524-4.712-2.744-21.963,9.434-38.225
	C448.632,418.388,457.119,392.858,457.119,366.001z"/>
<path d="M59.869,243.876c-12.208,23.275-1.061,34.807,23.173,50.962c9.23,6.175,56.198,38.79,74.341,74.534
	c2.435,4.796,4.177,10.294,5.327,16.804c7.555,42.85,46.214,69.003,46.629,69.465v22.61c0,18.608,15.139,33.749,33.748,33.749
	h18.963c4.143,0,7.5-3.357,7.5-7.5s-3.357-7.5-7.5-7.5h-18.963c-10.337,0-18.748-8.41-18.748-18.748v-17.816
	c1.995,0.632,4.097,1.226,6.314,1.763c3.992,0.968,8.071-1.472,9.053-5.527c0.974-4.025-1.501-8.079-5.527-9.053
	c-16.267-3.934-24.932-11.311-26.357-12.604c-17.437-16.034-27.592-35.861-30.341-51.444c-1.411-7.987-3.609-14.852-6.723-20.986
	c-16.424-32.357-50.751-60.126-79.715-80.44c-22.425-16.183-24.655-18.404-17.891-31.301c2.961-5.643,14.873-23.028,43.916-9.766
	c1.75,0.799,43.255,20.012,78.306,58.857c4.604,5.099,13.068,1.813,13.068-5.024v-84.437c0-13.004,10.58-23.584,23.585-23.584
	c13.004,0,23.584,10.579,23.584,23.584v56.87c0,4.143,3.357,7.5,7.5,7.5c4.143,0,7.5-3.357,7.5-7.5c0-9.555,0-159.532,0-173.717
	c0-4.143-3.357-7.5-7.5-7.5c-4.143,0-7.5,3.357-7.5,7.5c0,13.067,0,75.948,0,86.328c-25.153-19.48-62.169-1.565-62.169,30.519
	v65.986c-33.694-32.166-68.494-48.273-70.144-49.026C96.44,215.169,71.542,221.622,59.869,243.876z"/>
<g>
</g>
<g>
</g>
<g>
</g>
<g>
</g>
<g>
</g>
<g>
</g>
<g>
</g>
<g>
</g>
<g>
</g>
<g>
</g>
<g>
</g>
<g>
</g>
<g>
</g>
<g>
</g>
<g>
</g>
</svg>
