<?xml version="1.0" encoding="iso-8859-1"?>
<!-- Generator: Adobe Illustrator 19.0.0, SVG Export Plug-In . SVG Version: 6.00 Build 0)  -->
<svg version="1.1" id="Capa_1" xmlns="http://www.w3.org/2000/svg" xmlns:xlink="http://www.w3.org/1999/xlink" x="0px" y="0px"
	 viewBox="0 0 511.998 511.998" style="enable-background:new 0 0 511.998 511.998;" xml:space="preserve">
<polyline style="fill:#C0D9A8;" points="369.931,196.094 369.931,54.041 142.042,54.041 142.042,196.094 142.042,324.494 
	142.042,457.958 369.931,457.958 369.931,324.494 "/>
<path style="fill:#718A7A;" d="M304.79,297.124c-11.71,13.877-29.233,22.689-48.804,22.689s-37.094-8.813-48.804-22.689
	l5.541-88.034c11.375-10.484,26.57-16.896,43.263-16.896c16.693,0,31.887,6.412,43.263,16.896"/>
<g>
	<path style="fill:#FEFFFF;" d="M332.193,316.845c36.158,15.178,56.571,3.305,56.571,3.305
		c45.306,4.027,65.366-27.791,65.366-27.791c37.613,3.344,50.265-42.057,50.265-42.057
		c-51.556,17.818-116.427-56.875-153.186-60.143s-59.164,26.575-59.164,26.575c-9.708,9.708-21.997,32.605-21.997,32.605
		C300.462,266.88,287.936,298.266,332.193,316.845z"/>
	<path style="fill:#FEFFFF;" d="M179.78,316.845c-36.158,15.178-56.571,3.305-56.571,3.305
		c-45.306,4.027-65.366-27.791-65.366-27.791c-37.613,3.344-50.265-42.057-50.265-42.057
		c51.556,17.818,116.427-56.875,153.186-60.143s59.164,26.575,59.164,26.575c9.708,9.708,21.997,32.605,21.997,32.605
		C211.51,266.88,224.037,298.266,179.78,316.845z"/>
</g>
<path d="M508.139,243.679c-1.901-1.088-4.219-1.256-6.29-0.543c-28.034,9.637-62.78-12.947-93.44-32.872
	c-11.042-7.176-21.315-13.85-30.874-18.863V54.041c0-4.2-3.405-7.604-7.604-7.604H142.042c-4.2,0-7.604,3.405-7.604,7.604V191.4
	c-9.558,5.014-19.832,11.687-30.875,18.864c-30.682,19.941-65.458,42.54-93.501,32.851c-3.2-1.106-6.823,0.025-8.802,2.951
	c-1.283,1.897-1.566,4.3-0.943,6.503c4.831,17.066,21.984,47.569,53.673,47.568c0.049,0,0.1,0,0.149,0
	c6.785,8.411,26.311,27.978,61.129,27.977c2.114,0,4.288-0.072,6.515-0.224c2.45,1.053,6.726,2.558,12.654,3.469v16.586
	c0,4.2,3.405,7.604,7.604,7.604l0,0c4.2,0,7.604-3.405,7.604-7.604v-15.943c4.02-0.238,8.41-0.803,13.153-1.812v58.525
	c0,4.113,3.365,7.62,7.479,7.604c18.448-0.068,33.471,14.954,33.403,33.402c-0.015,4.113,3.491,7.479,7.604,7.479h89.401
	c4.113,0,7.62-3.365,7.604-7.479c-0.068-18.448,14.954-33.471,33.403-33.402c4.113,0.015,7.479-3.491,7.479-7.604v-58.525
	c4.743,1.01,9.133,1.574,13.153,1.812v118.353H149.646v-66.921c0-4.2-3.405-7.604-7.604-7.604l0,0c-4.2,0-7.604,3.405-7.604,7.604
	v74.525c0,4.2,3.405,7.604,7.604,7.604h227.889c4.2,0,7.604-3.405,7.604-7.604V331.357c5.927-0.909,10.204-2.415,12.653-3.469
	c2.231,0.151,4.399,0.224,6.516,0.224c34.813-0.002,54.342-19.565,61.128-27.977c0.049,0,0.1,0,0.149,0
	c31.827-0.002,48.995-30.773,53.737-47.794C512.638,249.046,511.251,245.461,508.139,243.679z M149.646,61.645h212.681v123.164
	c-3.595-1.154-7.077-1.925-10.445-2.225c-0.914-0.081-1.811-0.128-2.708-0.173v-5.297c0-4.2-3.405-7.604-7.604-7.604l0,0
	c-4.2,0-7.604,3.405-7.604,7.604v6.166c-14.827,2.495-26.596,9.404-34.773,15.856c-12.387-9.42-27.491-14.545-43.206-14.545
	s-30.819,5.124-43.207,14.546c-8.178-6.453-19.948-13.363-34.772-15.859v-52.974c20.658-3.269,37.019-19.634,40.287-40.297h75.383
	c3.268,20.662,19.628,37.028,40.287,40.297v11.322c0,4.2,3.405,7.604,7.604,7.604l0,0c4.2,0,7.604-3.405,7.604-7.604v-18.331
	c0-4.113-3.365-7.62-7.479-7.604c-18.449,0.068-33.471-14.959-33.403-33.413c0.015-4.113-3.491-7.479-7.604-7.479h-89.401
	c-4.113,0-7.62,3.365-7.604,7.479c0.069,18.454-14.954,33.481-33.403,33.413c-4.113-0.015-7.479,3.491-7.479,7.604v59.115
	c-0.897,0.046-1.796,0.093-2.709,0.174c-3.368,0.299-6.849,1.072-10.444,2.225L149.646,61.645L149.646,61.645z M266.249,255.926
	c11.385,6.567,15.697,15.442,20.69,25.72c2.34,4.816,4.789,9.848,8.031,14.843c-10.435,10.049-24.344,15.721-38.984,15.721
	c-14.64,0-28.55-5.672-38.984-15.722c3.242-4.993,5.691-10.026,8.031-14.842c4.992-10.277,9.305-19.153,20.69-25.72
	c3.56-2.053,4.844-6.563,2.901-10.183c-0.517-0.964-12.66-23.489-22.968-34.031c-0.331-0.419-0.883-1.096-1.629-1.953
	c9.345-6.466,20.444-9.962,31.959-9.962c11.515,0,22.614,3.495,31.959,9.961c-0.746,0.858-1.299,1.534-1.629,1.953
	c-10.308,10.542-22.451,33.067-22.968,34.031C261.405,249.364,262.689,253.873,266.249,255.926z M72.482,297.372
	c5.676-1.497,11.731-3.57,18.145-6.25c3.875-1.619,5.704-6.072,4.085-9.949c-1.618-3.874-6.071-5.704-9.948-4.085
	c-10.431,4.357-19.973,7.018-27.595,7.696c-19.647,1.75-31.252-12.975-37.192-24.265c1.513,0.108,3.028,0.162,4.547,0.162
	c29.37-0.002,59.85-19.809,87.327-37.666c19.136-12.437,37.209-24.183,49.585-25.283c31.934-2.836,51.602,22.505,52.409,23.566
	c0.215,0.287,0.45,0.558,0.704,0.811c5.555,5.555,12.733,16.977,17.289,24.806c-10.857,8.262-15.741,18.314-20.486,28.083
	c-6.384,13.141-12.413,25.554-34.518,34.832c-15.114,6.345-26.981,7.568-35.341,7.076c1.903-2.001,3.525-4.073,5.086-6.176
	c2.503-3.372,1.799-8.135-1.573-10.639c-3.372-2.503-8.135-1.8-10.639,1.573c-3.462,4.664-6.304,8.011-12.98,10.985
	C97.112,314.479,81.199,305.041,72.482,297.372z M333.965,381.705c-20.658,3.268-37.019,19.628-40.287,40.286h-75.384
	c-3.268-20.658-19.628-37.019-40.287-40.286v-55.988c1.546-0.577,3.115-1.189,4.715-1.861c10.899-4.575,18.709-9.914,24.612-15.589
	c13.153,12.251,30.456,19.152,48.652,19.152c18.197,0,35.499-6.901,48.652-19.151c5.903,5.676,13.712,11.014,24.611,15.589
	c1.601,0.672,3.168,1.285,4.715,1.861v55.987H333.965z M454.804,284.784c-7.623-0.677-17.164-3.339-27.595-7.696
	c-3.875-1.619-8.329,0.21-9.948,4.085c-1.619,3.875,0.211,8.329,4.085,9.949c6.393,2.671,12.428,4.74,18.087,6.234
	c-8.754,7.66-24.694,17.107-48.853,15.294c-6.675-2.974-9.516-6.32-12.978-10.984c-2.503-3.372-7.267-4.077-10.639-1.573
	s-4.077,7.267-1.573,10.639c1.559,2.101,3.181,4.17,5.081,6.171c-8.368,0.495-20.229-0.73-35.336-7.071
	c-22.104-9.278-28.134-21.691-34.518-34.832c-4.746-9.769-9.629-19.822-20.487-28.084c4.552-7.824,11.725-19.241,17.29-24.805
	c0.253-0.253,0.489-0.524,0.704-0.811c0.199-0.265,20.241-26.429,52.409-23.566c12.376,1.1,30.45,12.846,49.585,25.283
	c28.9,18.783,61.117,39.714,91.874,37.504C486.055,271.811,474.451,286.537,454.804,284.784z"/>
<g>
</g>
<g>
</g>
<g>
</g>
<g>
</g>
<g>
</g>
<g>
</g>
<g>
</g>
<g>
</g>
<g>
</g>
<g>
</g>
<g>
</g>
<g>
</g>
<g>
</g>
<g>
</g>
<g>
</g>
</svg>
