<?xml version="1.0" encoding="iso-8859-1"?>
<!-- Generator: Adobe Illustrator 19.0.0, SVG Export Plug-In . SVG Version: 6.00 Build 0)  -->
<svg version="1.1" id="Capa_1" xmlns="http://www.w3.org/2000/svg" xmlns:xlink="http://www.w3.org/1999/xlink" x="0px" y="0px"
	 viewBox="0 0 512 512" style="enable-background:new 0 0 512 512;" xml:space="preserve">
<rect x="7.604" y="70.128" style="fill:#C9E197;" width="496.789" height="298.672"/>
<rect x="7.604" y="368.8" style="fill:#D3D4D9;" width="496.789" height="73.069"/>
<rect x="204.464" y="70.128" style="fill:#429DA8;" width="103.069" height="371.74"/>
<rect x="204.464" y="368.8" style="fill:#358187;" width="103.069" height="73.069"/>
<rect x="35.057" y="96.823" style="fill:#519500;" width="57.787" height="39.538"/>
<rect x="121.734" y="96.823" style="fill:#00A4DF;" width="57.787" height="39.538"/>
<circle style="fill:#72BE00;" cx="442.102" cy="268.661" r="36.497"/>
<rect x="307.533" y="107.469" style="fill:#519500;" width="145.721" height="82.118"/>
<path d="M511.997,368.735V70.127c0-4.199-3.404-7.604-7.604-7.604H7.604c-4.2,0-7.604,3.405-7.604,7.604v298.67
	c0,0.02,0.003,0.04,0.003,0.059v73.017c0,4.199,3.404,7.604,7.604,7.604h496.789c4.2,0,7.604-3.405,7.604-7.604v-73.079
	C512,368.774,511.997,368.754,511.997,368.735z M496.792,400.517v9.632H315.137v-9.632h82.859c4.199,0,7.604-3.405,7.604-7.604l0,0
	c0-4.199-3.405-7.604-7.604-7.604h-82.859v-8.909h181.656v8.909h-63.31c-4.199,0-7.604,3.405-7.604,7.604l0,0
	c0,4.199,3.405,7.604,7.604,7.604H496.792z M315.137,361.19V197.186h51.435V361.19H315.137z M315.137,181.978v-66.91h130.511v66.91
	H315.137z M315.137,99.86V77.731h51.435V99.86C366.572,99.86,315.137,99.86,315.137,99.86z M212.068,376.401h87.861v57.865h-87.861
	L212.068,376.401L212.068,376.401z M196.86,376.401v8.909H15.211v-8.909H196.86z M15.211,400.517H196.86v9.632H15.211V400.517z
	 M496.789,361.19H381.78V197.186h71.471c4.2,0,7.604-3.405,7.604-7.604v-82.118c0-4.199-3.404-7.604-7.604-7.604H381.78V77.731
	h115.009V361.19z M196.86,77.731V290.96c0,4.199,3.405,7.604,7.604,7.604l0,0c4.199,0,7.604-3.405,7.604-7.604V77.731h87.861v29.732
	v82.118v171.612h-87.861v-34.747c0-4.199-3.405-7.604-7.604-7.604l0,0c-4.199,0-7.604,3.405-7.604,7.604v34.744H15.208V77.731
	H196.86z M15.211,425.358H196.86v8.911H15.211V425.358z M315.137,434.269v-8.911h181.656v8.911H315.137z"/>
<path d="M144.134,202.105c4.2,0,7.604-3.405,7.604-7.604s-3.404-7.604-7.604-7.604c-31.32,0-58.103,18.02-68.577,43.289H54.708
	c-4.2,0-7.604,3.405-7.604,7.604s3.404,7.604,7.604,7.604h16.725c-0.378,2.746-0.595,5.535-0.595,8.371s0.217,5.627,0.595,8.371
	H54.708c-4.2,0-7.604,3.405-7.604,7.604c0,4.199,3.404,7.604,7.604,7.604h20.849c10.474,25.268,37.256,43.289,68.577,43.289
	c4.2,0,7.604-3.405,7.604-7.604c0-4.199-3.404-7.604-7.604-7.604c-22.481,0-42.006-11.424-51.659-28.081h51.659
	c4.2,0,7.604-3.405,7.604-7.604c0-4.199-3.404-7.604-7.604-7.604H86.819c-0.502-2.726-0.775-5.52-0.775-8.371
	s0.273-5.645,0.775-8.371h57.314c4.2,0,7.604-3.405,7.604-7.604s-3.404-7.604-7.604-7.604H92.476
	C102.128,213.529,121.652,202.105,144.134,202.105z"/>
<path d="M35.056,143.96h57.788c4.2,0,7.604-3.405,7.604-7.604V96.818c0-4.199-3.404-7.604-7.604-7.604H35.056
	c-4.2,0-7.604,3.405-7.604,7.604v39.538C27.452,140.556,30.857,143.96,35.056,143.96z M42.66,104.422h42.58v24.33H42.66V104.422z"/>
<path d="M121.737,143.96h57.787c4.2,0,7.604-3.405,7.604-7.604V96.818c0-4.199-3.404-7.604-7.604-7.604h-57.787
	c-4.2,0-7.604,3.405-7.604,7.604v39.538C114.133,140.556,117.537,143.96,121.737,143.96z M129.341,104.422h42.579v24.33h-42.579
	C129.341,128.753,129.341,104.422,129.341,104.422z"/>
<path d="M397.998,268.658c0,24.317,19.783,44.101,44.101,44.101s44.102-19.783,44.102-44.101c0-24.317-19.784-44.101-44.102-44.101
	S397.998,244.341,397.998,268.658z M470.993,268.658c0,15.932-12.961,28.893-28.894,28.893c-15.932,0-28.893-12.961-28.893-28.893
	c0-15.932,12.961-28.893,28.893-28.893S470.993,252.727,470.993,268.658z"/>
<g>
</g>
<g>
</g>
<g>
</g>
<g>
</g>
<g>
</g>
<g>
</g>
<g>
</g>
<g>
</g>
<g>
</g>
<g>
</g>
<g>
</g>
<g>
</g>
<g>
</g>
<g>
</g>
<g>
</g>
</svg>
