<?xml version="1.0" encoding="iso-8859-1"?>
<!-- Generator: Adobe Illustrator 19.0.0, SVG Export Plug-In . SVG Version: 6.00 Build 0)  -->
<svg version="1.1" id="Capa_1" xmlns="http://www.w3.org/2000/svg" xmlns:xlink="http://www.w3.org/1999/xlink" x="0px" y="0px"
	 viewBox="0 0 512 512" style="enable-background:new 0 0 512 512;" xml:space="preserve">
<rect x="7.604" y="70.128" style="fill:#718A7A;" width="496.789" height="298.672"/>
<path style="fill:#C0D9A8;" d="M307.491,338.105h136.05c0-15.337,12.533-27.787,27.87-27.787V130.897
	c-15.337,0-27.87-12.451-27.87-27.787h-136.05H204.424H68.373c0,15.337-12.451,27.787-27.787,27.787v125.49v15.209v38.722
	c15.337,0,27.787,12.45,27.787,27.787h136.05"/>
<g>
	<path style="fill:#718A7A;" d="M307.491,288.467c17.316-16.573,28.365-41.393,28.365-69.179c0-27.705-11.049-52.524-28.365-69.097
		l-103.069,0.082c-17.316,16.573-28.281,41.393-28.281,69.014c0,27.705,10.967,52.524,28.281,69.097"/>
	<rect x="7.604" y="368.8" style="fill:#718A7A;" width="496.789" height="73.069"/>
</g>
<path style="fill:#C6DBA3;" d="M330.991,250.208c-4.699,15.007-12.945,28.199-23.499,38.259H204.424
	c-10.554-10.142-18.718-23.252-23.499-38.259c6.761-3.628,14.677-6.927,23.499-9.399h103.069
	C316.315,243.282,324.23,246.58,330.991,250.208z"/>
<rect x="204.464" y="70.128" style="fill:#FDDD00;" width="103.069" height="371.74"/>
<rect x="204.464" y="368.8" style="fill:#CCAE02;" width="103.069" height="73.069"/>
<circle style="fill:#718A7A;" cx="405.451" cy="222.663" r="28.859"/>
<path d="M108.612,268.661c-10.584,0-19.194-8.611-19.194-19.194c0-4.199-3.405-7.604-7.604-7.604s-7.604,3.405-7.604,7.604
	c0,16.355,11.477,30.073,26.798,33.544v4.591c0,4.199,3.405,7.604,7.604,7.604c4.199,0,7.604-3.405,7.604-7.604v-4.591
	c15.32-3.471,26.797-17.189,26.797-33.544c0-18.969-15.433-34.402-34.401-34.402c-10.584,0-19.194-8.611-19.194-19.193
	c0-10.584,8.611-19.194,19.194-19.194c10.583,0,19.193,8.611,19.193,19.194c0,4.199,3.405,7.604,7.604,7.604
	s7.604-3.405,7.604-7.604c0-16.356-11.477-30.073-26.797-33.544v-4.591c0-4.199-3.405-7.604-7.604-7.604
	c-4.199,0-7.604,3.405-7.604,7.604v4.591c-15.321,3.471-26.798,17.189-26.798,33.544c0,18.968,15.433,34.401,34.402,34.401
	c10.583,0,19.193,8.611,19.193,19.194C127.806,260.05,119.195,268.661,108.612,268.661z"/>
<path d="M405.448,259.131c20.106,0,36.463-16.358,36.463-36.463s-16.358-36.462-36.463-36.462
	c-20.106,0-36.462,16.357-36.462,36.462S385.342,259.131,405.448,259.131z M405.448,201.413c11.72,0,21.255,9.535,21.255,21.254
	c0,11.72-9.535,21.255-21.255,21.255c-11.72,0-21.254-9.535-21.254-21.255C384.192,210.949,393.728,201.413,405.448,201.413z"/>
<path d="M511.997,368.725V70.127c0-4.199-3.405-7.604-7.604-7.604h-196.86H204.464H7.604C3.405,62.523,0,65.928,0,70.127v298.67
	c0,0.023,0.003,0.046,0.003,0.069v73.007c0,4.199,3.405,7.604,7.604,7.604h496.789c4.199,0,7.604-3.405,7.604-7.604v-73.079
	C512,368.771,511.997,368.748,511.997,368.725z M183.745,219.288c0-17.239,4.661-33.758,13.115-47.537v63.376
	c-3.822,1.271-7.488,2.663-10.963,4.183C184.497,232.83,183.745,226.12,183.745,219.288z M196.86,251.263v15.637
	c-2.503-4.084-4.679-8.404-6.494-12.92C192.447,253.026,194.613,252.118,196.86,251.263z M315.137,251.295
	c2.24,0.855,4.398,1.759,6.47,2.713c-1.81,4.495-3.977,8.799-6.47,12.87V251.295z M326.087,239.343
	c-3.47-1.521-7.131-2.916-10.951-4.188v-63.381c8.457,13.792,13.115,30.302,13.115,47.515
	C328.252,226.128,327.496,232.85,326.087,239.343z M212.068,376.402h87.861v57.865h-87.861L212.068,376.402L212.068,376.402z
	 M196.86,376.402v9.923H15.211v-9.923H196.86z M15.211,401.531H196.86v7.604H15.211V401.531z M315.137,401.531h181.656v7.604
	H315.137V401.531z M315.137,386.323v-9.923h181.656v9.923H315.137z M496.789,361.19H315.137v-15.482h128.403
	c4.139,0,7.639-3.306,7.607-7.445c-0.087-11.245,9.107-20.413,20.396-20.342c4.156,0.026,7.474-3.491,7.474-7.646V130.938
	c0-4.156-3.317-7.673-7.474-7.647c-11.287,0.071-20.483-9.097-20.396-20.342c0.032-4.139-3.468-7.445-7.607-7.445h-39.4
	c-4.199,0-7.604,3.405-7.604,7.604l0,0c0,4.199,3.405,7.604,7.604,7.604h32.624c2.958,13.429,13.584,24.024,27.046,26.97v165.849
	c-13.461,2.945-24.087,13.541-27.046,26.969H315.137v-8.618h16.576c4.164,0,7.795-3.208,7.919-7.37
	c0.13-4.306-3.323-7.838-7.601-7.838h-16.894V291.58c18.036-18.573,28.323-44.715,28.323-72.292
	c0-27.527-10.287-53.639-28.323-72.209v-36.366h53.515c4.199,0,7.604-3.405,7.604-7.604l0,0c0-4.199-3.405-7.604-7.604-7.604
	h-53.515V77.731h181.652V361.19z M299.929,77.731v283.462h-87.861v-46.855c0-0.02,0.003-0.04,0.003-0.059s-0.003-0.04-0.003-0.059
	V77.731H299.929z M196.86,77.731v17.774H68.382c-4.141,0-7.643,3.308-7.613,7.449c0.085,11.252-9.086,20.422-20.338,20.338
	c-4.141-0.031-7.449,3.471-7.449,7.613v97.6c0,4.199,3.405,7.604,7.604,7.604l0,0c4.199,0,7.604-3.405,7.604-7.604v-90.826
	c13.422-2.95,24.015-13.543,26.966-26.966H196.86v36.363c-18.035,18.528-28.323,44.648-28.323,72.212
	c0,27.614,10.289,53.765,28.323,72.294v15.093h-16.58c-4.164,0-7.795,3.208-7.919,7.37c-0.13,4.306,3.323,7.838,7.601,7.838h16.898
	v8.618H75.155c-2.95-13.422-13.543-24.014-26.966-26.965v-39.545c0-4.199-3.405-7.604-7.604-7.604l0,0
	c-4.199,0-7.604,3.405-7.604,7.604v46.319c0,4.141,3.308,7.643,7.449,7.613c11.252-0.085,20.422,9.086,20.338,20.337
	c-0.031,4.141,3.471,7.449,7.613,7.449H196.86v15.482H15.208V77.731H196.86z M15.211,424.343H196.86v9.926H15.211V424.343z
	 M315.137,434.269v-9.926h181.656v9.926H315.137z"/>
<path d="M372.753,270.179c-4.199,0-7.604,3.405-7.604,7.604c0,4.199,3.405,7.604,7.604,7.604h65.391
	c4.199,0,7.604-3.405,7.604-7.604c0-4.199-3.405-7.604-7.604-7.604H372.753z"/>
<g>
</g>
<g>
</g>
<g>
</g>
<g>
</g>
<g>
</g>
<g>
</g>
<g>
</g>
<g>
</g>
<g>
</g>
<g>
</g>
<g>
</g>
<g>
</g>
<g>
</g>
<g>
</g>
<g>
</g>
</svg>
