<?xml version="1.0" encoding="iso-8859-1"?>
<!-- Generator: Adobe Illustrator 19.0.0, SVG Export Plug-In . SVG Version: 6.00 Build 0)  -->
<svg version="1.1" id="Capa_1" xmlns="http://www.w3.org/2000/svg" xmlns:xlink="http://www.w3.org/1999/xlink" x="0px" y="0px"
	 viewBox="0 0 512 512" style="enable-background:new 0 0 512 512;" xml:space="preserve">
<rect x="211.137" y="400.973" style="fill:#302C49;" width="89.727" height="29.399"/>
<path style="fill:#F2F2F2;" d="M504.399,77.666V365.4c0,19.649-15.928,35.576-35.576,35.576H43.183
	c-19.649,0-35.576-15.928-35.576-35.576V77.666c0-19.649,15.928-35.576,35.576-35.576h425.639
	C488.471,42.09,504.399,58.018,504.399,77.666z"/>
<path style="fill:#525263;" d="M504.399,340.054V365.4c0,19.649-15.928,35.576-35.576,35.576H43.183
	c-19.649,0-35.576-15.928-35.576-35.576v-25.347H504.399z"/>
<rect x="40.818" y="74.023" style="fill:#4C5E66;" width="430.364" height="236.078"/>
<polygon style="fill:#6C8188;" points="471.185,74.027 471.185,310.104 277.629,310.104 216.199,74.027 "/>
<path style="fill:#525263;" d="M345.453,469.914H166.547v-16.587c0-12.676,10.275-22.952,22.952-22.952h133.003
	c12.676,0,22.952,10.276,22.952,22.952v16.587H345.453z"/>
<path d="M468.819,34.483H43.18C19.332,34.483,0,53.815,0,77.663v287.736c0,23.848,19.332,43.18,43.18,43.18h28.806
	c4.199,0,7.604-3.405,7.604-7.604l0,0c0-4.199-3.405-7.604-7.604-7.604H43.18c-15.449,0-27.972-12.524-27.972-27.972v-17.745
	h481.584v17.744c0,15.449-12.524,27.973-27.973,27.973H300.861h-89.723H107.472c-4.199,0-7.604,3.405-7.604,7.604l0,0
	c0,4.199,3.405,7.604,7.604,7.604h96.062v14.191h-14.037c-16.876,0-30.556,13.68-30.556,30.556v16.587
	c0,4.199,3.405,7.604,7.604,7.604h178.906c4.199,0,7.604-3.405,7.604-7.604v-16.587c0-16.876-13.68-30.556-30.556-30.556h-14.036
	V408.58h160.354c23.848,0,43.181-19.333,43.181-43.181V77.664C512,53.816,492.668,34.483,468.819,34.483z M337.849,453.327v8.983
	H174.151v-8.983c0-8.463,6.885-15.348,15.348-15.348h21.641h89.723h21.641C330.964,437.979,337.849,444.865,337.849,453.327z
	 M293.257,422.772h-74.515v-14.191h74.515V422.772z M15.208,332.447V77.663c0-15.425,12.549-27.973,27.972-27.973h425.638
	c15.425,0,27.973,12.549,27.973,27.973v254.783H15.208z"/>
<path d="M471.181,66.419H40.818c-4.199,0-7.604,3.405-7.604,7.604v236.08c0,4.199,3.405,7.604,7.604,7.604h340.397
	c4.199,0,7.604-3.405,7.604-7.604l0,0c0-4.199-3.405-7.604-7.604-7.604H48.422V81.626h415.155v220.872h-46.875
	c-4.199,0-7.604,3.405-7.604,7.604l0,0c0,4.199,3.405,7.604,7.604,7.604h54.479c4.199,0,7.604-3.405,7.604-7.604V74.023
	C478.785,69.823,475.38,66.419,471.181,66.419z"/>
<path d="M249.677,373.267c1.633,2.481,4.709,3.765,7.623,3.265c3.274-0.563,5.827-3.277,6.245-6.561
	c0.851-6.67-7.169-11.036-12.369-6.805C248.173,365.607,247.562,370.056,249.677,373.267z"/>
<g>
</g>
<g>
</g>
<g>
</g>
<g>
</g>
<g>
</g>
<g>
</g>
<g>
</g>
<g>
</g>
<g>
</g>
<g>
</g>
<g>
</g>
<g>
</g>
<g>
</g>
<g>
</g>
<g>
</g>
</svg>
