<?xml version="1.0" encoding="iso-8859-1"?>
<!-- Generator: Adobe Illustrator 19.0.0, SVG Export Plug-In . SVG Version: 6.00 Build 0)  -->
<svg version="1.1" id="Capa_1" xmlns="http://www.w3.org/2000/svg" xmlns:xlink="http://www.w3.org/1999/xlink" x="0px" y="0px"
	 viewBox="0 0 511.999 511.999" style="enable-background:new 0 0 511.999 511.999;" xml:space="preserve">
<path style="fill:#7C6359;" d="M430.094,254.665c-9.357-15.149-10.362-42.162-10.362-42.162c1.087-84.346-2.41-84.788,3.14-93.204
	c-30.788-55.934-95.167-94.197-167.114-94.197c-71.778,0-136.03,38.085-166.893,93.806c2.137,3.078,3.399,6.762,3.399,10.785v82.809
	c0,0-1.003,27.013-10.362,42.162l0.003-0.004l-0.032,139.557c24.635,24.7,59.624,41.793,95.956,49.063h155.856
	c36.569-7.316,71.75-24.587,96.436-49.549l-0.032-139.071L430.094,254.665z"/>
<path style="fill:#705850;" d="M176.411,422.716L176.411,422.716c-17.431-23.348-27.429-51.026-28.645-79.675
	c-1.761-41.543,6.784-83.126,25.191-121.237c-1.094-91.739,60.107-167.51,141.395-187.995c-18.536-5.647-38.263-8.706-58.595-8.706
	c-71.778,0-136.03,38.085-166.893,93.806c2.137,3.078,3.399,6.762,3.399,10.785v82.809c0,0-1.003,27.013-10.362,42.162l0.003-0.004
	l-0.032,139.557c24.635,24.7,59.624,41.793,95.956,49.063h16.699C187.98,436.946,181.911,430.084,176.411,422.716z"/>
<path style="fill:#F2C29E;" d="M328.343,104.07c-14.042,0-26.963,5.555-36.871,14.747l-8.255,7.659
	c-15.485,14.367-39.427,14.367-54.912,0c-5.006-3.642-22.523-27.865-56.264-21.341c-55.767,10.778-80.723,93.911-46.155,148.874
	c4.828,7.686,5.007,17.682,0.356,25.486c-24.963,41.874-21.002,93.658,12.853,132.775c56.721,65.515,169.067,67.535,229.009,4.752
	c38.572-40.379,42.589-94.869,17.176-137.527c-4.651-7.804-4.472-17.8,0.356-25.486C423.703,193.437,389.233,104.07,328.343,104.07z
	"/>
<path style="fill:#EAB794;" d="M188.495,412.271c-33.856-39.117-37.817-90.901-12.853-132.775c4.651-7.804,4.471-17.8-0.356-25.486
	c-31.43-49.974-13.649-123.227,31.755-144.218c-8.827-4.538-20.39-7.48-35.001-4.656c-55.767,10.778-80.723,93.911-46.155,148.874
	c4.828,7.686,5.007,17.682,0.356,25.486c-24.964,41.874-21.002,93.658,12.853,132.775c34.607,39.972,89.919,56.306,141.402,48.71
	C245.384,455.814,212.116,439.553,188.495,412.271z"/>
<path style="fill:#656566;" d="M188.656,345.017c28.092,54.062,104.839,55.473,135.3,3.634c3.581-6.094-0.793-13.776-7.862-13.776
	h-121.27C189.617,334.875,186.255,340.396,188.656,345.017z"/>
<path style="fill:#4F4F51;" d="M213.658,345.017c-2.401-4.62,0.96-10.143,6.167-10.143h-25.001c-5.207,0-8.568,5.522-6.167,10.143
	c16.597,31.941,50.178,45.497,81.162,40.557C247.115,381.959,225.823,368.429,213.658,345.017z"/>
<path style="fill:#ED694A;" d="M263.328,360.367c-12.932,5.323-16.948-5.291-39.153-4.24c-8.343,0.396-16.22,2.623-23.289,6.256
	c29.303,31.725,81.532,32.45,111.976,0.907C296.907,354.416,278.707,354.035,263.328,360.367z"/>
<path style="fill:#D8553A;" d="M220.845,356.39c-7.107,0.761-13.834,2.846-19.952,5.989c17.853,19.142,44.162,27.23,68.904,23.19
	C251.073,382.583,233.317,372.846,220.845,356.39z"/>
<path style="fill:#755E56;" d="M504.424,471.524L491.249,243.02c-14.71,19.898-40.106,22.953-53.483,17.607
	c-3.947-1.577-7.121-4.831-9.675-8.966l0.051,221.302c-0.712,7.512,5.625,13.979,13.7,13.979h47.612
	C498.34,486.94,505.288,479.784,504.424,471.524z"/>
<path style="fill:#68504A;" d="M453.143,472.962l-0.048-210.041c-5.819,0.222-11.159-0.627-15.33-2.294
	c-3.947-1.577-7.12-4.832-9.675-8.966l0.051,221.303c-0.712,7.512,5.625,13.979,13.7,13.979h25.001
	C458.769,486.94,452.431,480.474,453.143,472.962z"/>
<path style="fill:#755E56;" d="M7.575,471.524L20.751,243.02c14.71,19.898,40.106,22.953,53.483,17.607
	c3.947-1.577,7.121-4.831,9.675-8.966l-0.051,221.302c0.712,7.512-5.625,13.979-13.7,13.979H22.545
	C13.659,486.94,6.71,479.784,7.575,471.524z"/>
<path style="fill:#68504A;" d="M34.517,471.524l12.145-210.609c-9.425-2.74-18.886-8.393-25.91-17.895L7.575,471.524
	c-0.864,8.259,6.084,15.416,14.97,15.416h26.942C40.602,486.94,33.652,479.783,34.517,471.524z"/>
<path style="fill:#CC9D72;" d="M417.733,212.502c0,0,1.622,43.766,20.032,51.125c22.333,8.926,78.183-5.544,61.839-82.773
	c-10.456-49.405-33.565-65.063-55.004-70.396c-13.562-3.373-26.868,6.156-26.868,19.235L417.733,212.502z"/>
<path style="fill:#BF8C62;" d="M462.738,263.626c-18.41-7.358-20.032-51.125-20.032-51.125v-82.809c0-7.166,4-13.261,9.844-16.757
	c-2.656-1.01-5.315-1.823-7.948-2.478c-13.562-3.373-26.868,6.156-26.868,19.235v82.809c0,0,1.623,43.766,20.032,51.125
	c6.762,2.703,16.599,3.254,26.572,0.574C463.79,264.02,463.252,263.832,462.738,263.626z"/>
<path style="fill:#CC9D72;" d="M94.267,212.502c0,0-1.622,43.766-20.032,51.125c-22.333,8.926-78.183-5.544-61.839-82.773
	c10.456-49.405,33.565-65.063,55.004-70.396c13.562-3.373,26.868,6.156,26.868,19.235L94.267,212.502z"/>
<path style="fill:#BF8C62;" d="M37.396,177.722c8.115-39.758,23.854-58.431,40.517-67.387c-3.324-0.751-6.909-0.774-10.516,0.123
	c-21.439,5.332-44.547,20.991-55.003,70.396c-15.995,75.58,37.149,91.049,60.359,83.308C49.76,257.802,25.986,233.62,37.396,177.722
	z"/>
<ellipse style="fill:#656566;" cx="305.206" cy="245.242" rx="14.179" ry="17.998"/>
<path style="fill:#4F4F51;" d="M302.467,238.991c0-4.473,1.293-8.556,3.421-11.705c-0.227-0.014-0.45-0.044-0.679-0.044
	c-7.83,0-14.179,8.057-14.179,17.998c0,9.94,6.348,17.998,14.179,17.998c4.306,0,8.156-2.446,10.758-6.293
	C308.454,256.492,302.467,248.639,302.467,238.991z"/>
<ellipse style="fill:#656566;" cx="206.79" cy="245.242" rx="14.179" ry="17.998"/>
<path style="fill:#4F4F51;" d="M204.047,238.991c0-4.473,1.293-8.556,3.421-11.705c-0.227-0.014-0.45-0.044-0.679-0.044
	c-7.83,0-14.179,8.057-14.179,17.998c0,9.94,6.348,17.998,14.179,17.998c4.306,0,8.156-2.446,10.758-6.293
	C210.034,256.492,204.047,248.639,204.047,238.991z"/>
<path d="M182.001,348.475l0.001,0.003c3.235,6.22,7.187,12.01,12.134,17.533c3.274,7.042,28.598,26.966,59.75,28.091
	c32.287,1.4,61.269-15.666,76.538-41.651c6.525-11.103-1.46-25.076-14.329-25.076H194.824
	C183.983,327.374,177.009,338.867,182.001,348.475z M264.309,378.763c-16.215,1.72-34.403-2.838-48.918-13.622
	c9.736-2.545,20.597-2.121,30.756,1.998c6.388,2.591,13.427,2.593,19.818,0c10.665-4.324,22.2-4.595,32.335-1.56
	C295.387,367.729,275.293,377.708,264.309,378.763z M317.502,343.19c0.217,0.379,0.391,0.975-0.013,1.66
	c-1.965,3.344-4.213,6.508-6.703,9.469c-16.276-7.458-34.558-7.529-50.458-1.082c-2.756,1.117-5.79,1.117-8.544,0
	c-15.497-6.284-33.05-6.281-48.61,0.245c-2.983-3.649-5.327-7.19-7.431-11.108C323.589,342.663,316.619,341.646,317.502,343.19z"/>
<path d="M228.229,245.24c0-14.105-9.726-25.578-21.679-25.578c-11.954,0-21.679,11.475-21.679,25.578s9.726,25.578,21.679,25.578
	C218.503,270.818,228.229,259.344,228.229,245.24z M199.871,245.24c0-6.233,3.52-10.578,6.678-10.578s6.678,4.344,6.678,10.578
	c0,6.233-3.52,10.578-6.678,10.578S199.871,251.473,199.871,245.24z"/>
<path d="M326.649,245.24c0-14.105-9.726-25.578-21.679-25.578c-11.954,0-21.679,11.475-21.679,25.578s9.726,25.578,21.679,25.578
	C316.923,270.818,326.649,259.344,326.649,245.24z M298.291,245.24c0-6.233,3.52-10.578,6.678-10.578
	c3.158,0,6.678,4.344,6.678,10.578c0,6.233-3.52,10.578-6.678,10.578C301.811,255.818,298.291,251.473,298.291,245.24z"/>
<path d="M250.319,295.518v-3.136c0-4.143-3.357-7.5-7.5-7.5c-4.143,0-7.5,3.357-7.5,7.5v3.136c0,4.143,3.357,7.5,7.5,7.5
	C246.962,303.018,250.319,299.661,250.319,295.518z"/>
<path d="M276.2,295.518v-3.136c0-4.143-3.357-7.5-7.5-7.5c-4.143,0-7.5,3.357-7.5,7.5v3.136c0,4.143,3.357,7.5,7.5,7.5
	C272.843,303.018,276.2,299.661,276.2,295.518z"/>
<path d="M441.842,494.44h47.612c13.096,0,23.672-10.722,22.449-23.507l-1.657-28.349c-0.242-4.136-3.801-7.286-7.925-7.05
	c-4.135,0.242-7.291,3.79-7.05,7.925c1.711,29.228,1.662,28.559,1.694,28.846c0.409,3.916-3.226,7.135-7.511,7.135
	c-48.107-0.709-49.211,1.591-52.548-2.077c-1.674-1.84-1.264-3.526-1.264-4.402l-0.047-202.131
	c12.005,4.512,32.422,4.01,49.125-7.937l8.505,145.566c0.242,4.136,3.794,7.284,7.925,7.05c4.135-0.241,7.291-3.79,7.05-7.925
	l-9.31-159.343c9.181-13.675,15.18-35.255,8.052-68.938c-9.18-43.373-28.981-68.274-60.531-76.122
	c-8.355-2.078-16.949-0.578-23.914,4.096c-12.7-20.297-29.746-38.377-49.753-52.678c-3.367-2.406-8.054-1.629-10.464,1.74
	c-2.408,3.37-1.63,8.055,1.74,10.464c19.79,14.146,36.422,32.281,48.302,52.624c-1.424,3.357-2.091,6.959-2.091,10.269
	c0.002,91.528-0.298,83.479,0.878,93.177c1.341,11.027,4.098,24.037,9.48,33.813l0.031,133.923
	c-13.469,13.079-29.705,23.961-47.617,32.133c41.143-42.602,46.095-101.118,18.717-147.081c-3.201-5.373-3.098-12.305,0.27-17.665
	c36.291-57.937,11.255-148.17-51.09-160.221c-38.419-7.417-58.44,20.4-62.787,23.207c-12.536,11.633-32.177,11.631-44.708,0.001
	c-4.541-3.051-23.029-28.748-59.216-23.788c-4.104,0.563-6.974,4.348-6.41,8.451c0.564,4.104,4.351,6.971,8.451,6.41
	c28.319-3.888,42.236,16.685,46.971,19.923c18.257,16.939,46.857,16.939,65.114,0c4.543-3.026,19.628-25.292,49.74-19.477
	c47.676,9.217,74.809,83.856,41.228,137.521c-6.329,10.076-6.505,23.152-0.451,33.312c48.269,81.331-23.144,171.973-123.074,171.973
	c-105.921,0-168.316-95.73-123.076-171.969c5.59-9.379,6.455-21.639-0.745-33.808c-25.584-42.338-15.256-98.839,16.141-124.719
	c3.196-2.634,3.651-7.361,1.017-10.559c-2.634-3.196-7.361-3.65-10.559-1.017C99.065,145.768,91.069,212.724,119.533,258
	c3.362,5.354,3.466,12.285,0.263,17.661c-27.601,46.255-22.157,104.762,18.72,147.081c-17.704-8.075-33.772-18.799-47.139-31.667
	c0.003-14.401,0.028-118.646,0.032-134.391c6.409-11.643,9.902-30.667,10.352-43.873c0.002,1.282,0.005-17.895,0.006-83.116
	c0-3.646-0.805-7.42-2.293-10.737c46.645-79.483,151.208-108.045,235.332-69.137c3.762,1.738,8.217,0.1,9.957-3.659
	c1.738-3.76,0.101-8.217-3.659-9.957C251.5-5.236,141.001,24.136,89.174,107.062c-6.905-4.503-15.36-5.929-23.587-3.883
	c-31.552,7.849-51.352,32.749-60.53,76.122c-7.128,33.683-1.13,55.263,8.051,68.938L0.097,470.933
	c-1.225,12.807,9.374,23.507,22.449,23.507h47.611c12.166,0,22.096-9.857,21.201-21.791l0.014-61.509
	c23.457,19.28,52.119,32.732,83.874,39.262c49.316,26.532,111.705,26.534,161.027-0.001c31.509-6.489,60.857-20.367,84.353-39.704
	l0.014,61.952C419.745,484.609,429.704,494.44,441.842,494.44z M70.156,479.439H22.546c-4.044,0-7.769-2.692-7.482-7.478
	l12.216-209.07c16.756,11.984,37.169,12.43,49.126,7.937c-0.002,5.044-0.063,202.321-0.014,202.84
	C76.552,475.365,73.549,479.439,70.156,479.439z M86.723,213.245c-1.368,25.544-9.17,37.379-9.2,37.481
	c-2.953,4.778-5.36,6.275-10.929,7.264c-13.071,2.259-29.699-3.04-39.838-16.46c-7.888-10.68-13.449-28.759-7.022-59.123
	c5.485-25.922,14.63-43.736,28.183-54.422c-6.933,12.72-11.878,29.93-14.928,51.836c-0.627,4.51,2.875,8.535,7.438,8.535
	c3.683,0,6.896-2.715,7.419-6.467c5.033-36.156,14.831-57.06,29.93-63.808c5.196,1.756,8.989,6.248,8.989,11.614
	C86.756,158.138,86.798,211.719,86.723,213.245z M426.339,124.832c1.589-3.3,4.517-5.609,7.892-6.749
	c15.094,6.752,24.889,27.656,29.921,63.804c0.574,4.12,4.378,6.964,8.463,6.395c4.103-0.571,6.965-4.36,6.395-8.463
	c-3.049-21.904-7.993-39.115-14.926-51.834c13.553,10.687,22.696,28.5,28.182,54.421c15.541,73.428-38.368,81.45-52.53,73.871
	c-10.113-5.498-13.969-32.386-14.504-43.938C425.262,125.333,424.719,128.234,426.339,124.832z"/>
<g>
</g>
<g>
</g>
<g>
</g>
<g>
</g>
<g>
</g>
<g>
</g>
<g>
</g>
<g>
</g>
<g>
</g>
<g>
</g>
<g>
</g>
<g>
</g>
<g>
</g>
<g>
</g>
<g>
</g>
</svg>
