<?xml version="1.0" encoding="iso-8859-1"?>
<!-- Generator: Adobe Illustrator 19.0.0, SVG Export Plug-In . SVG Version: 6.00 Build 0)  -->
<svg version="1.1" id="Capa_1" xmlns="http://www.w3.org/2000/svg" xmlns:xlink="http://www.w3.org/1999/xlink" x="0px" y="0px"
	 viewBox="0 0 512.001 512.001" style="enable-background:new 0 0 512.001 512.001;" xml:space="preserve">
<path style="fill:#D8A982;" d="M430.63,146.262c6.65,18.427,9.929,37.762,9.661,57.613c4.591,8.625,8.568,17.446,11.926,26.413
	c20.166-3.772,35.433-21.457,35.433-42.718C487.65,158.011,458.723,137.055,430.63,146.262z"/>
<path style="fill:#CC9D72;" d="M480.971,164.429c4.225,6.702,6.678,14.634,6.678,23.142c0,21.261-15.267,38.945-35.433,42.718
	c-2.716-7.256-5.846-14.415-9.372-21.452C462,201.497,476.58,184.84,480.971,164.429z"/>
<path style="fill:#755E56;" d="M443.11,127.223c-6.386,0-12.547,0.983-18.342,2.8c3.568,7.334,6.597,14.945,9.059,22.783
	c23.406-6.074,46.271,11.688,46.271,35.807c0,17.672-12.46,32.48-29.054,36.122c3.094,7.623,5.736,15.36,7.918,23.182
	c26.19-7.008,45.538-30.934,45.538-59.303C504.501,154.763,476.961,127.223,443.11,127.223z"/>
<path style="fill:#68504A;" d="M480.098,188.614c0-4.772-0.907-9.29-2.524-13.428c3.062-7.291,4.766-15.288,4.766-23.679
	c0-3.707-0.349-7.332-0.981-10.86c14.09,11.259,23.142,28.571,23.142,47.968c0,28.37-19.347,52.296-45.538,59.303
	c-2.182-7.821-4.825-15.559-7.918-23.181C467.639,221.094,480.098,206.286,480.098,188.614z"/>
<path style="fill:#D8A982;" d="M83.165,146.262c-6.65,18.427-9.929,37.762-9.661,57.613c-4.591,8.625-8.568,17.446-11.926,26.413
	c-20.166-3.772-35.433-21.457-35.433-42.718C26.146,158.011,55.073,137.055,83.165,146.262z"/>
<path style="fill:#CC9D72;" d="M32.825,164.429c-4.225,6.702-6.678,14.634-6.678,23.142c0,21.261,15.267,38.945,35.433,42.718
	c2.716-7.256,5.846-14.415,9.372-21.452C51.795,201.497,37.215,184.84,32.825,164.429z"/>
<path style="fill:#755E56;" d="M70.685,127.223c6.386,0,12.547,0.983,18.342,2.8c-3.568,7.334-6.597,14.945-9.059,22.783
	c-23.406-6.074-46.271,11.688-46.271,35.807c0,17.672,12.46,32.48,29.054,36.122c-3.094,7.623-5.736,15.36-7.918,23.182
	c-26.19-7.008-45.538-30.934-45.538-59.303C9.295,154.763,36.834,127.223,70.685,127.223z"/>
<path style="fill:#68504A;" d="M33.697,188.614c0-4.772,0.907-9.29,2.524-13.428c-3.062-7.291-4.766-15.288-4.766-23.679
	c0-3.707,0.349-7.332,0.981-10.86c-14.09,11.259-23.142,28.571-23.142,47.968c0,28.37,19.347,52.296,45.538,59.303
	c2.182-7.821,4.825-15.559,7.918-23.181C46.158,221.094,33.697,206.286,33.697,188.614z"/>
<path style="fill:#7C6359;" d="M255.762,25.083c-102.651,0-186.841,78.257-185.53,175.564
	C51.824,235.231,43.28,272.965,45.04,310.663c0.991,21.224,7.84,41.86,19.806,60.251l382.091-0.396
	c11.807-18.291,18.564-38.783,19.548-59.855c1.761-37.699-6.784-75.433-25.192-110.017
	C442.606,103.154,358.214,25.083,255.762,25.083z"/>
<path style="fill:#705850;" d="M156.338,310.662c-1.761-37.698,6.783-75.432,25.192-110.016
	c-1.064-78.954,54.165-145.363,129.87-167.606c-17.599-5.17-36.296-7.957-55.638-7.957c-102.651,0-186.841,78.257-185.53,175.564
	c-18.408,34.584-26.953,72.318-25.192,110.016c0.991,21.224,7.84,41.86,19.806,60.251l111.225-0.115
	C164.152,352.436,157.328,331.842,156.338,310.662z"/>
<path style="fill:#F2C29E;" d="M399.962,173.427c-13.077-64.282-72.45-87.332-107.697-54.629l-8.255,7.659
	c-15.485,14.367-39.427,14.367-54.912,0l-8.255-7.66c-35.114-32.579-94.593-9.784-107.697,54.629
	c-5.59,27.48-0.99,57.47,13.534,80.564c4.828,7.686,5.007,17.682,0.356,25.486c-2.922,4.901-5.344,9.773-7.414,14.719
	c-20.003,47.847-5.036,102.956,41.656,137.913c44.407,33.239,93.364,30.361,95.277,30.678
	c110.414,0,178.599-100.925,129.519-183.309c-4.651-7.804-4.472-17.8,0.356-25.486C401.15,230.566,405.475,200.526,399.962,173.427z
	"/>
<path style="fill:#EAB794;" d="M176.452,279.477c4.651-7.804,4.471-17.8-0.356-25.486c-31.43-49.974-13.649-123.228,31.755-144.218
	c-8.827-4.538-20.39-7.48-35.001-4.656c-55.767,10.778-80.724,93.911-46.156,148.874c4.828,7.686,5.007,17.682,0.356,25.486
	c-24.964,41.874-21.002,93.658,12.853,132.776c34.607,39.972,89.919,56.306,141.403,48.71
	C184.431,446.71,131.557,354.784,176.452,279.477z"/>
<path style="fill:#755E56;" d="M503.048,470.608L398.186,281.342c-18.7,26.339-43.763,34.704-66.172,29.92l70.431,162.693
	c3.463,7.915,10.858,12.967,18.982,12.967h73.071C502.273,486.922,507.066,477.776,503.048,470.608z"/>
<path style="fill:#68504A;" d="M436.816,472.819l-71.211-164.494c-11.132,4.466-22.675,5.267-33.59,2.937l70.431,162.693
	c3.463,7.916,10.858,12.967,18.982,12.967h36.032C448.624,486.922,440.582,481.428,436.816,472.819z"/>
<path style="fill:#755E56;" d="M8.957,470.608l104.862-189.267c18.754,26.414,43.846,34.686,66.171,29.92l-70.431,162.693
	c-3.463,7.915-10.858,12.967-18.982,12.967H17.505C9.731,486.922,4.938,477.776,8.957,470.608z"/>
<path style="fill:#68504A;" d="M41.958,470.608l93.181-168.185c-7.612-5.004-14.845-11.961-21.321-21.082L8.957,470.608
	c-4.018,7.167,0.774,16.314,8.548,16.314h33.002C42.732,486.922,37.94,477.776,41.958,470.608z"/>
<path style="fill:#CC9D72;" d="M200.143,155.591c10.554-0.056,20.797,5.901,27.703,14.498
	c15.482,19.271,18.755,52.996-0.978,100.143c-23.805,56.876-78.432,57.3-107.675,23.257c-14.451-16.823-30.017-44.471-16.194-76.626
	c6.897-16.045,22.547-24.932,39.207-19.111C142.206,197.752,168.635,155.759,200.143,155.591z"/>
<path style="fill:#BF8C62;" d="M127.973,236.864c6.897-16.045,22.547-24.932,39.207-19.11c0.1-0.067,31.561-49.418,65.008-41.302
	c-8.228-14.196-20.943-20.919-32.045-20.86c-31.51,0.168-57.937,42.161-57.937,42.161c-16.66-5.821-32.31,3.065-39.207,19.11
	c-13.823,32.155,1.744,59.803,16.194,76.626c6.549,7.624,14.374,13.513,22.837,17.433
	C128.257,293.928,114.832,267.436,127.973,236.864z"/>
<path style="fill:#CC9D72;" d="M311.861,155.591c-10.554-0.056-20.797,5.901-27.703,14.498
	c-15.482,19.271-18.755,52.996,0.978,100.143c23.805,56.876,78.432,57.3,107.675,23.257c14.451-16.823,30.017-44.471,16.194-76.626
	c-6.897-16.045-22.547-24.932-39.207-19.111C369.798,197.752,343.371,155.759,311.861,155.591z"/>
<path style="fill:#BF8C62;" d="M310.138,265.431c-19.733-47.148-16.46-80.872-0.978-100.143c2.812-3.5,6.183-6.55,9.898-8.949
	c-30.65-6.137-68.216,31.951-33.92,113.891c18.106,43.26,54.042,53.855,83.078,41.472
	C345.766,310.987,323.264,296.797,310.138,265.431z"/>
<path style="fill:#656566;" d="M188.109,344.999c28.093,54.062,104.839,55.473,135.301,3.633c3.581-6.094-0.793-13.776-7.862-13.776
	H194.275C189.069,334.856,185.708,340.378,188.109,344.999z"/>
<path style="fill:#4F4F51;" d="M213.11,344.999c-2.401-4.62,0.96-10.143,6.167-10.143h-25.001c-5.207,0-8.568,5.522-6.167,10.143
	c16.597,31.941,50.178,45.498,81.163,40.557C246.567,381.941,225.276,368.411,213.11,344.999z"/>
<path style="fill:#ED694A;" d="M262.78,360.349c-12.932,5.323-16.948-5.291-39.153-4.24c-8.343,0.396-16.22,2.623-23.289,6.256
	c29.303,31.725,81.533,32.45,111.976,0.907C296.359,354.397,278.159,354.016,262.78,360.349z"/>
<path style="fill:#D8553A;" d="M220.297,356.371c-7.107,0.761-13.834,2.846-19.952,5.989c17.871,19.161,44.226,27.22,68.904,23.19
	C250.524,382.565,232.768,372.828,220.297,356.371z"/>
<path d="M182.004,348.457c3.304,6.361,7.304,12.143,12.136,17.536c0.343,0.738,0.802,1.426,1.379,2.027
	c38.015,39.666,105.813,33.923,134.908-15.589c6.525-11.101-1.462-25.076-14.329-25.076H194.826
	C183.984,327.356,177.012,338.85,182.004,348.457z M215.391,365.122c9.751-2.546,20.618-2.112,30.758,1.998
	c6.388,2.591,13.428,2.593,19.819,0c10.666-4.324,22.2-4.595,32.335-1.56C272.906,384.295,239.468,383.01,215.391,365.122z
	 M317.506,343.172c0.217,0.379,0.391,0.975-0.012,1.66c-1.967,3.347-4.218,6.513-6.711,9.477
	c-16.287-7.413-34.424-7.589-50.451-1.089c-8.64,3.5-13.194-5.632-35.644-4.605c-7.479,0.349-14.688,1.988-21.513,4.851
	c-2.907-3.556-5.266-7.076-7.429-11.109C323.592,342.646,316.622,341.628,317.506,343.172z"/>
<path d="M242.821,284.863c-4.143,0-7.5,3.357-7.5,7.5v3.136c0,4.143,3.357,7.5,7.5,7.5s7.5-3.357,7.5-7.5v-3.136
	C250.321,288.221,246.964,284.863,242.821,284.863z"/>
<path d="M276.204,295.499v-3.136c0-4.143-3.357-7.5-7.5-7.5c-4.143,0-7.5,3.357-7.5,7.5v3.136c0,4.143,3.357,7.5,7.5,7.5
	C272.847,302.999,276.204,299.642,276.204,295.499z"/>
<path d="M512.001,185.384c0-43.627-40.29-76.501-83.218-67.377c-9.58-18.032-22.449-34.626-38.349-49.133
	c-3.058-2.792-7.803-2.574-10.596,0.485c-2.792,3.059-2.575,7.803,0.485,10.596c37.291,34.026,54.195,78.661,53.468,120.589
	c-0.078,5.61,28.195,45.619,25.199,109.769c-0.72,15.416-4.838,30.751-11.992,44.983l-39.012-69.589
	c15.072-23.422,17.938-48.471,7.907-71.807c-1.838-4.276-4.235-8.159-7.071-11.533c2.895-52.974-31.541-107.503-82.676-105.781
	c-28.703,0.95-43.496,21.136-48.032,24.372c-12.536,11.632-32.175,11.632-44.711,0c-4.32-2.8-24.428-30.611-62.788-23.206
	c-5.493,1.062-10.927,2.847-16.147,5.304c-3.748,1.765-5.355,6.233-3.592,9.981c1.765,3.749,6.234,5.352,9.981,3.592
	c18.183-8.562,38.792-6.526,54.089,7.667l8.254,7.658c18.257,16.94,46.861,16.94,65.116,0c5.443-3.979,20.114-25.197,49.739-19.476
	c33.897,6.553,54.099,43.549,55.786,78.738c-6.818-2.823-13.919-3.429-20.854-2.085c-14.18-19.718-36.752-40.913-61.09-41.042
	c-12.534,0-26.01,6.559-35.567,19.92c-26.731,37.667-4.038,102.352,14.1,127.032c9.485,12.937,21.848,22.436,37.201,26.634
	c2.796,6.391,33.261,76.024,38.026,86.916c-55.009,61.865-163.861,62.447-219.477,0.36c3.518-8.04,34.406-78.636,38.187-87.277
	c25.463-6.953,41.07-27.56,50.971-52.362c7.556-18.966,13.292-40.183,12.701-60.742c-1.492-58.302-57.39-91.244-109.029-19.438
	c-7.135-1.384-14.449-0.687-21.344,2.293c0.895-19.41,7.02-39.091,18.919-54.641c2.518-3.289,1.892-7.996-1.398-10.515
	c-3.289-2.52-7.997-1.892-10.515,1.398c-10.022,13.095-16.478,28.548-19.672,44.263c-3.429,16.858-2.256,30.296-2.276,30.988
	c-13.46,16.547-20.048,49.629,1.288,82.787l-39.264,70.038c-7.294-14.36-11.492-29.851-12.219-45.433
	c-1.726-36.943,7.012-73.625,24.32-106.143c1.097-2.062,0.85-3.539,0.85-5.697c0-132.018,157.975-210.882,275.771-138.685
	c3.529,2.162,8.148,1.057,10.314-2.476c2.164-3.531,1.057-8.149-2.476-10.314c-95.539-58.557-226.182-27.031-278.39,70.95
	C40.025,109.011,0,141.952,0,185.381c0,28.401,17.602,53.763,43.598,64.051c-4.949,20.201-7.018,40.936-6.054,61.577
	c0.975,20.873,7.385,41.56,18.583,60.111l-53.713,95.82c-6.772,12.082,1.487,27.482,15.09,27.482h73.072
	c11.065,0,21.214-6.854,25.854-17.462l3.506-8.012c1.66-3.795-0.07-8.218-3.865-9.879c-3.793-1.656-8.216,0.071-9.878,3.864
	l-3.506,8.014c-2.252,5.146-7.005,8.473-12.111,8.473H17.504c-1.821,0-3.307-2.821-2.005-5.145
	c11.841-21.12,96.738-172.56,98.373-175.476c13.258,15.223,31.409,24.904,53.098,25.221c-4.117,9.41-40.553,92.687-46.647,106.615
	c-1.66,3.794,0.07,8.217,3.865,9.878c3.795,1.66,8.217-0.069,9.878-3.865l5.586-12.769c61.423,62.131,171.72,61.667,232.549-0.339
	l23.372,53.42c4.641,10.607,14.789,17.461,25.854,17.461h73.071c13.63,0,21.849-15.424,15.09-27.483l-53.947-96.228
	c11.043-18.44,17.366-38.984,18.334-59.699c0.96-20.582-1.093-41.255-6.009-61.399C494.223,239.445,512.001,214.013,512.001,185.384
	z M62.704,198.844c-2.261,4.337-4.375,8.732-6.342,13.177c-10.095-4.804-16.954-15.178-16.954-26.638
	c0-15.997,12.808-29.051,28.706-29.468C64.356,170.459,62.598,185.466,62.704,198.844z M47.662,234.9
	c-19.541-8.4-32.657-27.832-32.657-49.516c0-32.412,28.662-57.818,61.165-53.398c-1.259,2.988-2.436,6.016-3.524,9.068
	c-25.965-2.194-48.239,18.363-48.239,44.329c0,17.894,10.476,33.58,26.304,40.612C49.63,228.948,48.613,231.919,47.662,234.9z
	 M121.934,285.009c-15.348-19.475-21.997-42.032-12.045-65.184c6.902-16.053,20.262-16.279,20.363-16.326
	c-3.893,7.283-8.879,17.743-11.832,28.286c-1.338,4.783,2.264,9.525,7.227,9.525c3.279,0,6.291-2.167,7.219-5.479
	c3.13-11.179,10.045-25.126,15.677-34.065c9.585-15.063,28.586-34.836,46.412-38.147l-32.309,59.519
	c-1.976,3.641-0.627,8.193,3.014,10.171c3.655,1.984,8.202,0.609,10.171-3.014l35.056-64.581c5.325,2.622,9.515,6.608,12.957,11.562
	l-31.321,63.808c-2.465,5.023,1.245,10.808,6.727,10.808c2.771,0,5.436-1.542,6.738-4.197l25.542-52.037
	c5.089,23.299-2.962,52.38-12.626,74.093C198.345,315.878,151.229,322.294,121.934,285.009z M334.591,307.93
	c-4.942-2.71-29.222-1.531-47.223-52.791c-6.531-18.664-11.077-40.329-6.893-59.483l25.543,52.038
	c1.303,2.655,3.967,4.197,6.738,4.197c5.481,0,9.192-5.785,6.727-10.808l-31.321-63.808c3.395-4.884,7.578-8.913,12.957-11.562
	l35.056,64.581c1.359,2.504,3.937,3.923,6.599,3.923c5.605,0,9.321-6.04,6.585-11.08l-32.321-59.542
	c18.08,3.309,37.495,23.991,46.411,38.152c5.728,9.099,12.561,22.91,15.689,34.084c0.928,3.313,3.939,5.479,7.219,5.479
	c4.968,0,8.564-4.746,7.227-9.525c-2.952-10.543-7.939-21.002-11.833-28.286c9.258,0.766,16.635,7.654,20.362,16.325
	c10.564,24.574,2.426,48.475-14.994,68.776C362.978,316.71,332.488,307.47,334.591,307.93z M496.505,474.276
	c0.8,1.426,0.505,2.923-0.037,3.849c-1.567,2.675,0.658,0.582-75.039,1.297c-5.105,0-9.859-3.325-12.111-8.472l-64.283-146.928
	c0.454-0.112,29.764,1.576,53.098-25.22C401.505,304.814,490.681,463.888,496.505,474.276z M455.258,212.234
	c-1.993-4.517-4.139-8.984-6.437-13.391c0.106-13.426-1.64-28.456-5.344-42.937c16.09,0.197,29.122,13.342,29.122,29.478
	C472.598,197.043,465.582,207.526,455.258,212.234z M463.922,235.087c-0.951-2.99-1.969-5.971-3.05-8.933
	c15.888-6.976,26.727-22.966,26.727-40.771c0-26.187-22.591-46.726-48.631-44.294c-1.083-3.048-2.251-6.067-3.507-9.053
	C468.043,127.383,497,152.771,497,185.383C497,207.28,483.712,226.794,463.922,235.087z"/>
<g>
</g>
<g>
</g>
<g>
</g>
<g>
</g>
<g>
</g>
<g>
</g>
<g>
</g>
<g>
</g>
<g>
</g>
<g>
</g>
<g>
</g>
<g>
</g>
<g>
</g>
<g>
</g>
<g>
</g>
</svg>
