<?xml version="1.0" encoding="iso-8859-1"?>
<!-- Generator: Adobe Illustrator 19.0.0, SVG Export Plug-In . SVG Version: 6.00 Build 0)  -->
<svg version="1.1" id="Capa_1" xmlns="http://www.w3.org/2000/svg" xmlns:xlink="http://www.w3.org/1999/xlink" x="0px" y="0px"
	 viewBox="0 0 511.999 511.999" style="enable-background:new 0 0 511.999 511.999;" xml:space="preserve">
<path style="fill:#ED694A;" d="M351.611,61.284c2.975,1.293,5.971,2.7,8.982,4.23l12.485-38.882
	c2.641-7.45-1.257-15.628-8.706-18.268c-7.447-2.639-15.626,1.26-18.267,8.706l-12.217,38.073
	C339.914,56.744,345.842,58.775,351.611,61.284z"/>
<path style="fill:#D8553A;" d="M358.25,23.07c2.022-5.701,7.292-9.31,12.992-9.51c-1.646-2.317-3.988-4.174-6.871-5.196
	c-7.447-2.639-15.626,1.26-18.267,8.706l-12.216,38.073c4.308,1.145,8.563,2.519,12.748,4.121L358.25,23.07z"/>
<path style="fill:#ED694A;" d="M151.473,65.518c9.684-4.919,17.915-8.037,26.704-10.372l-12.208-38.075
	c-2.64-7.448-10.821-11.347-18.267-8.706c-7.448,2.641-11.346,10.819-8.706,18.268L151.473,65.518z"/>
<path style="fill:#D8553A;" d="M151.886,23.133c-1.961-5.533-0.311-11.463,3.718-15.233c-2.542-0.572-5.266-0.47-7.901,0.465
	c-7.448,2.641-11.347,10.819-8.706,18.268l12.476,38.885c4.306-2.187,8.318-4.003,12.226-5.567L151.886,23.133z"/>
<path style="fill:#656566;" d="M434.249,160.976l0.003-0.001c-7.086-11.195-20.832-32.915-24.535-38.764
	c-0.547-0.863,0.074-1.99,1.096-1.99h10.756c1.768,0,2.765-2.033,1.691-3.437c-22.555-29.481-47.814-47.134-71.65-57.5
	c-41.98-18.256-80.131-7.181-79.671-7.212c-17.356,3.893-31.909-0.011-31.806,0C180.6,38.718,125.985,68.196,88.813,116.784
	c-1.074,1.404-0.077,3.437,1.691,3.437h10.756c1.022,0,1.643,1.127,1.096,1.99c-7.29,11.516-23.313,36.834-24.535,38.764
	l0.003,0.001c-23.056,37.087-31.398,79.915-25.87,121.73l1.677,12.683c0.181,1.37,1.745,2.065,2.883,1.281l8.671-5.974
	c6.004-4.137-11.351,53.985,35.271,109.63l-0.005,0.004c1.424,1.561,4.845,5.955,11.68,11.82l37.945,32.563
	c1.802,1.546,4.6,0.454,4.879-1.904l0.608-5.161c0.21-1.78,2.233-2.707,3.714-1.698c0,0,45.05,29.951,90.397,66.235
	c3.495,2.796,8.649,3.261,12.393,0.263c45.459-36.401,90.726-66.498,90.726-66.498c1.481-1.009,3.504-0.082,3.714,1.698l0.608,5.161
	c0.279,2.358,3.077,3.45,4.879,1.904c36.087-31.425,40.734-33.825,49.422-44.153c0.086-0.102,0.289-0.332,0.203-0.23l-0.005-0.004
	c23.015-27.469,33.897-60.891,33.897-94.434v-14.474c0-0.706,0.793-1.123,1.374-0.722l8.671,5.974
	c1.138,0.784,2.702,0.089,2.883-1.281l1.677-12.683C465.641,240.945,457.334,198.11,434.249,160.976z"/>
<path style="fill:#4F4F51;" d="M228.155,419.699c-132.921-100-106.928-235.572-106.928-235.572l0,0
	c3.542-18.001,8.525-34.864,15.541-46.15l-0.003-0.001c1.222-1.93,17.245-27.249,24.535-38.764c0.547-0.863-0.074-1.99-1.096-1.99
	h-10.756c-1.769,0-2.766-2.033-1.691-3.437c13.29-17.371,28.808-32.296,45.984-43.698c-41.06,5.737-77.68,31.082-104.927,66.698
	c-1.075,1.405-0.077,3.437,1.691,3.437h10.755c1.022,0,1.643,1.127,1.096,1.99c-7.29,11.516-23.313,36.834-24.534,38.764
	l0.002,0.001c-23.056,37.087-31.398,79.915-25.87,121.73l1.677,12.683c0.181,1.37,1.745,2.064,2.883,1.281l8.671-5.974
	c6.004-4.136-11.352,53.985,35.271,109.63l-0.005,0.004c1.424,1.562,4.845,5.955,11.68,11.82l37.945,32.562
	c1.802,1.546,4.6,0.455,4.879-1.904l0.608-5.161c0.21-1.78,2.233-2.707,3.714-1.698c0,0,45.05,29.951,90.397,66.235
	c3.495,2.796,8.649,3.26,12.393,0.263c13.237-10.6,26.456-20.663,38.546-29.604C270.98,449.576,242.614,429.638,228.155,419.699z"/>
<path style="fill:#ED694A;" d="M397.212,219.854c9.208-63.826-43.304-118.528-108.555-118.528H223.46
	c-65.246,0-117.789,54.697-108.582,118.528c-39.726,92.862,36.761,196.467,141.168,196.467
	C360.693,416.322,436.843,312.496,397.212,219.854z"/>
<path style="fill:#D8553A;" d="M161.299,228.893c2.046-5.918,2.894-12.182,2.573-18.436c-3.061-59.709,47.481-109.13,109.501-109.13
	h-49.914c-65.246,0-117.789,54.697-108.582,118.528c-39.726,92.862,36.761,196.467,141.168,196.467
	c8.53,0,16.866-0.701,24.969-2.019C193.059,399.997,132.677,311.685,161.299,228.893z"/>
<circle style="fill:#EAE9E8;" cx="314.984" cy="201.156" r="31.049"/>
<path style="fill:#DBDBDB;" d="M309.736,204.187c-6.351-11.001-5.2-24.268,1.855-33.895c-4.155,0.454-8.286,1.751-12.139,3.975
	c-14.854,8.576-19.942,27.568-11.367,42.42c8.576,14.853,27.568,19.942,42.42,11.367c3.852-2.224,7.041-5.153,9.512-8.525
	C328.153,220.824,316.087,215.186,309.736,204.187z"/>
<circle style="fill:#EAE9E8;" cx="197.096" cy="201.156" r="31.049"/>
<path style="fill:#DBDBDB;" d="M191.851,204.187c-6.351-11.001-5.2-24.268,1.855-33.895c-4.155,0.454-8.286,1.751-12.139,3.975
	c-14.854,8.576-19.942,27.568-11.367,42.42c8.576,14.853,27.568,19.942,42.42,11.367c3.852-2.224,7.041-5.153,9.512-8.525
	C210.267,220.824,198.202,215.186,191.851,204.187z"/>
<path style="fill:#D8553A;" d="M266.86,239.622c1.72,4.246,3.849,7.63,5.699,10.094c1.985,2.643,5.181,4.151,8.474,3.871
	c11.779-1,23.952,10.978,16.811,22.955c-5.376,9.017-13.749,9.455-18.659,8.774c-2.553-0.354-5.112,0.318-7.214,1.81
	c-6.687,4.744-14.138,5.286-15.76,5.348v0.01c-0.072,0-0.422,0-0.349,0v-0.01c-1.622-0.063-9.073-0.604-15.76-5.348
	c-2.102-1.491-4.661-2.164-7.214-1.81c-4.91,0.681-13.283,0.242-18.659-8.774c-7.141-11.977,5.031-23.955,16.809-22.955
	c3.294,0.28,6.49-1.228,8.475-3.871c1.846-2.459,3.97-5.834,5.688-10.067c3.131-7.714,11.113-7.499,10.849-7.413
	C260.832,232.236,265.065,235.191,266.86,239.622z"/>
<path style="fill:#CC4732;" d="M251.746,258.334c2.542,0.342,5.01-1.5,6.542-4.731c1.425-3.005,3.064-7.13,4.39-12.303
	c0.55-2.145,1.294-3.784,2.113-5.042c-2.168-2.496-5.31-4.022-8.74-4.022c0.264-0.087-7.717-0.302-10.849,7.413
	c-1.718,4.233-3.842,7.609-5.688,10.067c-1.985,2.644-5.182,4.151-8.476,3.871c-11.778-0.999-23.951,10.978-16.81,22.956
	c5.375,9.016,13.748,9.455,18.659,8.774c2.029-0.281,4.057,0.095,5.861,1.005C233.291,271.705,242.67,257.115,251.746,258.334z"/>
<path style="fill:#F99D91;" d="M256.037,322.791c-48.629,0-74.525-15.713-86.544-29.414c-1.862-2.123-5.313-0.133-4.37,2.529
	c21.911,61.832,76.967,69.844,90.873,69.686l0,0l0,0l0,0c13.789,0.172,69.004-7.736,90.954-69.685
	c0.943-2.662-2.508-4.653-4.37-2.53C330.562,307.079,304.665,322.791,256.037,322.791z"/>
<path style="fill:#FC8B75;" d="M225.453,320.415c-29.421-4.898-46.762-16.553-55.96-27.039c-1.863-2.123-5.313-0.133-4.37,2.529
	c21.911,61.832,76.967,69.844,90.873,69.686c3.164,0.04,8.511-0.349,15.133-1.715C258.332,360.184,238.878,349.329,225.453,320.415z
	"/>
<path d="M314.979,162.604c-21.259,0-38.554,17.296-38.554,38.554s17.296,38.554,38.554,38.554s38.554-17.296,38.554-38.554
	S336.238,162.604,314.979,162.604z M314.979,224.713c-12.988,0-23.555-10.566-23.555-23.555c0-12.989,10.566-23.555,23.555-23.555
	c12.989,0,23.555,10.566,23.555,23.555C338.534,214.147,327.967,224.713,314.979,224.713z"/>
<circle cx="314.984" cy="207.845" r="10.03"/>
<path d="M197.094,162.604c-21.259,0-38.554,17.296-38.554,38.554s17.296,38.554,38.554,38.554s38.554-17.296,38.554-38.554
	S218.353,162.604,197.094,162.604z M197.094,224.713c-12.988,0-23.555-10.566-23.555-23.555c0-12.989,10.566-23.555,23.555-23.555
	s23.555,10.566,23.555,23.555C220.649,214.147,210.083,224.713,197.094,224.713z"/>
<circle cx="197.096" cy="207.845" r="10.03"/>
<path d="M238.254,236.827c-1.219,3.001-2.813,5.822-4.736,8.385c-0.461,0.613-1.168,0.977-1.845,0.901
	c-18.195-1.543-34.077,17.171-23.885,34.269c5.596,9.386,15.114,13.892,26.13,12.362c0.61-0.08,1.271,0.092,1.845,0.499
	c7.78,5.52,16.235,6.522,19.317,6.701c4.808,0.481,14.343-1.814,21.232-6.702c0.572-0.407,1.228-0.584,1.842-0.498
	c11.009,1.528,20.536-2.977,26.133-12.362c10.15-17.028-5.607-35.801-23.89-34.268c-0.675,0.049-1.38-0.288-1.841-0.902
	c-1.931-2.57-3.527-5.398-4.745-8.405c0,0,0,0,0-0.001C267.33,220.806,244.826,220.634,238.254,236.827z M255.451,239.713
	c-0.588-0.027-1.23-0.159-1.879-0.397C254.169,239.525,254.799,239.66,255.451,239.713z M281.667,261.059
	c3.705-0.308,7.817,1.735,9.781,4.874c1.374,2.197,1.358,4.411-0.047,6.768c-0.917,1.54-3.703,6.224-11.188,5.187
	c-10.872-1.516-12.959,6.517-24.178,7.087c-10.736-0.546-12.317-7.251-21.799-7.251c-3.264,0-9.35,2.052-13.566-5.022
	c-3.729-6.253,3.716-12.162,9.733-11.641c11.141,0.953,17.555-8.263,21.747-18.592c0.719-1.769,2.208-2.732,3.899-2.732
	c4.609,0,3.12,4.645,10.51,14.482C270.152,259.001,275.784,261.568,281.667,261.059z"/>
<path d="M336.944,288.432c-8.801,10.031-31.013,26.859-80.907,26.859c-49.894,0-72.107-16.829-80.906-26.859
	c-7.293-8.314-20.775-0.457-17.078,9.979c5.452,15.386,13.392,28.826,23.47,39.952l-1.948,3.372
	c-2.072,3.586-0.844,8.174,2.743,10.245c3.566,2.062,8.164,0.862,10.245-2.743l0.125-0.216
	c17.105,14.072,41.567,24.073,63.808,24.073c17.824,0,43.102-7.799,62.889-24.075l0.126,0.218c2.065,3.576,6.65,4.822,10.245,2.743
	c3.587-2.071,4.815-6.659,2.743-10.245l-1.948-3.373c10.078-11.125,18.018-24.564,23.471-39.95
	C357.719,287.98,344.236,280.114,336.944,288.432z M189.427,324.681c-2.96-3.635-5.785-7.66-8.404-12.13
	c3.462,2.134,7.395,4.228,11.836,6.188L189.427,324.681z M306.087,340.445l-1.636-3.794c-1.64-3.804-6.05-5.559-9.856-3.919
	c-3.804,1.64-5.559,6.053-3.919,9.856l2.476,5.745c-11.774,5.896-22.718,8.236-29.616,9.159v-12.006c0-4.143-3.357-7.5-7.5-7.5
	c-4.143,0-7.5,3.357-7.5,7.5v12.002c-6.992-0.939-18.183-3.338-30.186-9.454l2.348-5.447c1.64-3.804-0.115-8.217-3.919-9.856
	c-3.806-1.64-8.217,0.116-9.856,3.919l-1.465,3.398c-1.739-1.292-3.47-2.678-5.183-4.163l6.897-11.94
	c6.588,1.938,13.99,3.545,22.289,4.658l-1.136,5.279c-0.872,4.049,1.704,8.038,5.754,8.91c4.102,0.881,8.049-1.753,8.91-5.754
	l1.518-7.051c7.424,0.392,14.91,0.405,22.369,0.036l1.51,7.014c0.757,3.518,3.867,5.924,7.324,5.924c4.775,0,8.347-4.402,7.34-9.08
	l-1.117-5.189c8.576-1.115,16.201-2.757,22.968-4.748l6.9,11.945C309.913,337.525,308.005,339.041,306.087,340.445z M322.65,324.686
	l-3.435-5.946c4.442-1.961,8.377-4.056,11.839-6.191C328.436,317.023,325.611,321.049,322.65,324.686z"/>
<path d="M256.044,423.821c108.539,0,189.056-107.155,148.872-204.981c8.625-67.232-47.097-125.013-116.262-125.013
	c-63.55,0.328-67.895-0.801-82.138,1.175c-4.103,0.569-6.967,4.356-6.397,8.46c0.57,4.104,4.367,6.971,8.46,6.397
	c12.719-1.764,17.434-0.742,80.075-1.032c59.945,0,108.405,49.502,101.478,107.341c-0.322,2.679-0.827,4.28,0.182,6.638
	c37.487,87.628-34.787,186.017-134.271,186.017c-99.402,0-171.797-98.299-134.272-186.017c0.542-1.267,0.725-2.658,0.527-4.021
	c-6.172-42.814,17.685-81.369,54.764-99.37c3.727-1.81,5.28-6.297,3.472-10.022c-1.808-3.725-6.295-5.278-10.022-3.472
	c-42.389,20.579-69.531,64.709-63.342,112.92C66.875,316.942,147.838,423.821,256.044,423.821z"/>
<path d="M452.216,285.26c-0.331-0.129-4.451-4.024-9.721-1.257c-2.765,1.452-4.481,4.294-4.481,7.416
	c-0.997,7.281,6.869,57.526-32.145,104.091c-8.117,9.688-13.054,12.477-42.718,38.331c-2.479-5.505-9.459-7.574-14.508-4.135
	c-0.456,0.303-46.066,30.698-91.262,66.889c-0.868,0.696-2.156,0.426-3.019-0.265c-45.084-36.072-90.477-66.323-90.861-66.578
	c-5.213-3.548-12.132-1.341-14.577,4.089c-23.028-21.612-40.13-29.156-56.879-58.677c-2.044-3.603-6.622-4.866-10.225-2.822
	c-3.603,2.045-4.866,6.622-2.822,10.225c4.338,7.646,9.455,15.081,15.498,22.322c7.591,9.966,28.608,26.021,50.698,45.518
	c5.389,4.623,13.671,2.633,16.434-3.811c84.413,57.651,81.707,65.403,94.62,65.403c12.325,0,9.736-7.707,94.198-65.402
	c2.765,6.448,11.05,8.429,16.434,3.809c32.191-29.126,43.59-33.585,60.093-57.995c28.767-42.563,25.827-87.113,26.042-88.627
	c5.564,2.332,12.045-1.208,12.863-7.41c0.088-6.603,13.505-58.388-13.78-118.042c-1.723-3.766-6.172-5.429-9.939-3.701
	c-3.768,1.723-5.424,6.173-3.701,9.939c13.739,30.039,18.659,63.635,14.228,97.153L452.216,285.26z"/>
<path d="M44.519,283.689l1.678,12.682c0.817,6.196,7.292,9.748,12.863,7.412c0.101,1.589-0.875,20.748,5.832,44.743
	c1.114,3.984,5.248,6.321,9.242,5.205c3.989-1.115,6.319-5.253,5.205-9.242c-11.138-39.849,0.493-55.1-9.761-60.486
	c-5.171-2.717-9.473,1.16-9.721,1.257l-0.468-3.537c-11.28-85.315,39.265-134.296,49.302-155.498
	c3.583-5.657-0.235-13.137-6.968-13.491c35.271-41.321,83.763-65.231,136.769-53.344c11.478,2.576,23.612,2.574,35.089,0
	c53.182-11.935,101.653,12.21,136.769,53.343c-6.707,0.355-10.563,7.818-6.969,13.489l17.988,28.422
	c2.214,3.501,6.848,4.543,10.348,2.326c3.5-2.215,4.542-6.848,2.326-10.348l-11.971-18.914c7.689-0.392,11.879-9.289,7.146-15.482
	c-17.076-22.319-37.033-39.859-59.482-52.333l10.429-30.81c3.992-11.351-1.948-23.767-13.288-27.788
	c-11.475-4.067-24.02,2.123-27.876,13.37l-10.033,29.624c-19.111-3.988-39.255-3.89-58.671,0.464
	c-9.329,2.094-19.192,2.094-28.522,0c-19.419-4.355-39.565-4.453-58.677-0.463c-13.458-39.767-9.175-27.218-10.06-29.723
	c-1.946-5.491-5.914-9.896-11.174-12.402c-17.391-8.284-36.39,8.605-29.957,26.917l10.424,30.815
	c-22.445,12.474-42.401,30.013-59.477,52.332c-2.243,2.935-2.62,6.815-0.982,10.128c1.561,3.157,4.645,5.174,8.129,5.352
	C82.964,143.25,32.778,194.883,44.519,283.689z M353.188,19.536c1.271-3.512,5.155-5.354,8.678-4.103
	c3.546,1.256,5.401,5.142,4.144,8.691c-1.004,2.704,3.344-9.88-9.813,28.984c-3.971-1.777-8.267-3.471-12.707-4.933L353.188,19.536z
	 M152.487,15.039c2.732,0,5.38,1.681,6.398,4.495l9.693,28.645c-4.2,1.386-8.404,3.014-12.708,4.934
	c-12.886-38.096-9.071-26.848-9.805-28.985C144.498,19.705,147.792,15.039,152.487,15.039z"/>
<g>
</g>
<g>
</g>
<g>
</g>
<g>
</g>
<g>
</g>
<g>
</g>
<g>
</g>
<g>
</g>
<g>
</g>
<g>
</g>
<g>
</g>
<g>
</g>
<g>
</g>
<g>
</g>
<g>
</g>
</svg>
