<?xml version="1.0" encoding="iso-8859-1"?>
<!-- Generator: Adobe Illustrator 19.0.0, SVG Export Plug-In . SVG Version: 6.00 Build 0)  -->
<svg version="1.1" id="Capa_1" xmlns="http://www.w3.org/2000/svg" xmlns:xlink="http://www.w3.org/1999/xlink" x="0px" y="0px"
	 viewBox="0 0 512 512" style="enable-background:new 0 0 512 512;" xml:space="preserve">
<path style="fill:#CFD8DD;" d="M256.002,504.466c0,0,65.688,1.775,97.645-53.261s42.608-136.703,42.608-234.348
	S339.444,78.38,256.002,78.38s-140.253,40.833-140.253,138.477s10.652,179.311,42.608,234.348S256.002,504.466,256.002,504.466z"/>
<path style="fill:#B7C0C4;" d="M195.168,451.205c-31.956-55.036-42.608-136.703-42.608-234.348
	c0-90.282,48.57-131.993,121.848-137.77c-5.976-0.471-12.113-0.708-18.405-0.708c-83.442,0-140.253,40.834-140.253,138.478
	s10.652,179.311,42.608,234.348s97.645,53.261,97.645,53.261s7.387,0.197,18.405-1.612
	C252.557,499.269,216.412,487.792,195.168,451.205z"/>
<path d="M362.485,105.437c-23.808-21.662-57.075-33.237-98.955-34.466V7.843c0-4.122-3.177-7.716-7.297-7.84
	c-4.263-0.127-7.758,3.29-7.758,7.524v63.443c-41.881,1.227-75.149,12.803-98.956,34.466
	c-27.402,24.933-41.295,62.42-41.295,111.422c0,90.218,8.923,155.758,28.016,205.211c1.532,3.966,6.027,5.892,9.948,4.247l0,0
	c3.734-1.568,5.585-5.817,4.13-9.597c-16.563-43.025-25.378-101.21-26.822-177.063c30.875-20.549,75.423-30.966,132.507-30.966
	c57.086,0,101.634,10.418,132.51,30.968c-1.771,96.017-15.039,162.414-41.375,207.763c-12.198,21.012-31.067,35.721-56.081,43.721
	c-19.059,6.095-34.713,5.801-34.851,5.798c-0.137-0.003-0.271-0.003-0.407,0c-0.615,0.016-61.561,1.067-90.93-49.516
	c-0.092-0.16-0.185-0.319-0.277-0.479c-2.019-3.504-6.432-4.799-10.015-2.925l0,0c-3.785,1.979-5.178,6.71-3.046,10.412
	c0.105,0.183,0.211,0.365,0.317,0.549c14.025,24.155,36.52,41.677,65.053,50.672c20.391,6.427,36.99,6.374,39.101,6.341
	c0.161,0.003,0.405,0.005,0.731,0.005c3.934,0,19.536-0.409,38.372-6.347c28.534-8.995,51.029-26.517,65.052-50.672
	c29.761-51.25,43.624-126.915,43.624-238.123C403.779,167.857,389.886,130.369,362.485,105.437z M123.277,216.858
	c0-44.584,12.238-78.326,36.372-100.286c10.546-9.597,23.334-16.959,38.262-22.062v103.219
	c-29.274,4.475-54.22,12.617-74.617,24.366C123.288,220.352,123.277,218.618,123.277,216.858z M314.163,197.739v-24.931
	c0-4.157-3.37-7.527-7.527-7.527l0,0c-4.157,0-7.527,3.37-7.527,7.527v22.989c-13.543-1.434-27.915-2.16-43.106-2.16
	c-15.165,0-29.511,0.723-43.035,2.153V90.288c13.013-2.912,27.374-4.377,43.034-4.377c15.69,0,30.075,1.471,43.107,4.394v47.375
	c0,4.157,3.37,7.527,7.527,7.527l0,0c4.157,0,7.527-3.37,7.527-7.527V94.533c14.897,5.103,27.66,12.457,38.189,22.038
	c24.135,21.96,36.372,55.702,36.372,100.286c0,1.762-0.013,3.49-0.02,5.233C368.325,210.354,343.404,202.216,314.163,197.739z"/>
<g>
</g>
<g>
</g>
<g>
</g>
<g>
</g>
<g>
</g>
<g>
</g>
<g>
</g>
<g>
</g>
<g>
</g>
<g>
</g>
<g>
</g>
<g>
</g>
<g>
</g>
<g>
</g>
<g>
</g>
</svg>
