<?xml version="1.0" encoding="iso-8859-1"?>
<!-- Generator: Adobe Illustrator 19.0.0, SVG Export Plug-In . SVG Version: 6.00 Build 0)  -->
<svg version="1.1" id="Capa_1" xmlns="http://www.w3.org/2000/svg" xmlns:xlink="http://www.w3.org/1999/xlink" x="0px" y="0px"
	 viewBox="0 0 512.001 512.001" style="enable-background:new 0 0 512.001 512.001;" xml:space="preserve">
<path style="fill:#656566;" d="M256.786,327.478c134.296,0,210.729-27.003,237.329-38.579c2.499-0.714,4.936-1.467,7.341-2.237
	l1.964-1.81l1.794-2.343l-0.284-1.71l-5.643-3.179c-17.586-1.479-55.587-10.458-124.247-51.362
	c-73.389-43.72-164.396-42.865-236.351,0c-69.568,41.446-107.662,50.117-124.934,51.418l-6.921,3.084l-0.183,1.101l6.484,5.076
	C21.295,289.507,97.018,327.478,256.786,327.478z"/>
<path style="fill:#4F4F51;" d="M168.868,316.285c-22.808-16.843-26.832-50.746-4.853-72.722
	c31.156-31.151,66.222-47.817,101.631-49.604c-44.027-1.655-88.249,9.239-126.957,32.299
	c-34.087,20.308-60.602,32.733-80.829,40.291c-17.05,6.371-29.631,9.283-38.478,10.513c-0.032,0.004-0.066,0.01-0.098,0.014
	c-0.613,0.084-1.202,0.158-1.779,0.227c-0.065,0.008-0.136,0.018-0.2,0.025c-0.537,0.063-1.05,0.116-1.556,0.167
	c-0.094,0.009-0.195,0.022-0.289,0.031c-0.589,0.057-1.157,0.106-1.704,0.147l-6.921,3.084l-0.183,1.101l6.484,5.076
	c0.121,0.038,0.263,0.086,0.413,0.14c0.048,0.017,0.101,0.037,0.152,0.055c0.113,0.041,0.233,0.085,0.362,0.134
	c0.062,0.023,0.125,0.047,0.191,0.073c0.137,0.053,0.284,0.11,0.436,0.169c0.065,0.025,0.125,0.049,0.192,0.075
	c0.212,0.084,0.438,0.174,0.678,0.271c0.129,0.052,0.271,0.109,0.408,0.165c0.113,0.046,0.225,0.091,0.344,0.139
	c1.281,0.521,2.886,1.18,4.808,1.953c0.015,0.006,0.029,0.012,0.043,0.017c0.444,0.178,0.905,0.363,1.384,0.552
	c0.017,0.007,0.034,0.014,0.051,0.02c0.992,0.394,2.056,0.812,3.196,1.251c0.008,0.003,0.015,0.006,0.023,0.009
	c0.534,0.206,1.086,0.418,1.652,0.633c0.074,0.028,0.148,0.056,0.223,0.085c0.542,0.205,1.097,0.416,1.669,0.629
	c0.052,0.02,0.103,0.039,0.156,0.058c1.258,0.471,2.588,0.959,3.99,1.465c0.088,0.032,0.178,0.064,0.268,0.096
	c0.601,0.216,1.215,0.435,1.843,0.657c0.131,0.046,0.262,0.092,0.393,0.139c0.653,0.23,1.319,0.463,2,0.699
	c0.076,0.026,0.149,0.052,0.226,0.078c1.524,0.527,3.118,1.067,4.781,1.618c0.178,0.059,0.36,0.119,0.54,0.178
	c0.653,0.215,1.317,0.432,1.991,0.651c0.209,0.068,0.419,0.135,0.63,0.204c0.747,0.241,1.508,0.484,2.281,0.728
	c0.115,0.036,0.226,0.072,0.343,0.109c0.897,0.283,1.811,0.567,2.74,0.854c0.181,0.056,0.369,0.112,0.551,0.168
	c0.726,0.222,1.462,0.446,2.209,0.67c0.312,0.093,0.625,0.187,0.94,0.282c0.658,0.196,1.326,0.394,2,0.591
	c0.327,0.096,0.65,0.191,0.981,0.288c0.796,0.231,1.602,0.463,2.419,0.695c0.203,0.058,0.401,0.115,0.605,0.173
	c0.984,0.279,1.987,0.559,3.002,0.84c0.373,0.103,0.752,0.206,1.13,0.31c0.672,0.184,1.35,0.369,2.036,0.553
	c0.456,0.122,0.916,0.245,1.378,0.369c4.903,1.304,10.084,2.594,14.575,3.65c0.001-0.001,0.003-0.002,0.003-0.002
	c25.055,5.888,57.019,11.518,96.362,14.878L168.868,316.285z"/>
<path style="fill:#EAE9E8;" d="M377.554,228.724c-74.949-44.649-167.89-43.776-241.374,0c-11.906,7.093-22.904,13.241-33.055,18.576
	c99.165,4.804,207.991,4.789,307.322-0.086C400.34,241.899,389.397,235.78,377.554,228.724z"/>
<path style="fill:#DBDBDB;" d="M250.405,195.662c-39.791,1.097-79.216,12.207-114.225,33.062
	c-11.906,7.093-22.904,13.241-33.055,18.576c18.033,0.874,36.389,1.586,54.947,2.14c1.954-1.912,3.934-3.867,5.945-5.877
	C190.692,216.892,220.235,200.849,250.405,195.662z"/>
<path style="fill:#ED694A;" d="M499.747,274.395c-60.785-32.262-94.338-92.685-128.484-136.635
	c-25.639-33-71.587-42.26-108.174-22.065c-0.1,0.025-6.852,4.132-14.337,0l-8.245-4.552c-30.548-16.863-70.021-10.035-92.69,19.745
	c-44.675,58.714-77.514,115.076-137.25,145.251c-1.993,0.954-3.267,2.693-3.732,4.619c12.432,0.516,50.76-3.261,131.856-51.573
	c71.954-42.865,162.961-43.72,236.351,0c77.212,45.999,115.654,51.626,129.89,51.614
	C504.262,278.137,502.497,275.736,499.747,274.395z"/>
<g>
	<path style="fill:#D8553A;" d="M504.049,278.546c0.264,0.725,0.485,1.477,0.66,2.251c0.073,0,0.149,0.001,0.221,0.001
		C504.734,280.017,504.433,279.263,504.049,278.546z"/>
	<path style="fill:#D8553A;" d="M375.041,205.949c-73.389-64.301-164.396-63.045-236.351,0
		c-54.859,48.067-90.142,66.157-111.081,72.598c20.94-4.38,56.222-16.679,111.081-49.361c71.954-42.865,162.961-43.72,236.351,0
		c54.861,32.683,90.145,44.982,111.083,49.361C465.185,272.106,429.902,254.018,375.041,205.949z"/>
	<path style="fill:#D8553A;" d="M7.804,278.546c-0.451,0.681-0.781,1.43-0.97,2.212c0.067,0.003,0.14,0.005,0.209,0.007
		C7.232,279.987,7.489,279.245,7.804,278.546z"/>
</g>
<path style="fill:#ED694A;" d="M505.214,282.509c-3.584,1.222-7.292,2.373-11.1,3.462c-121.458,52.86-363.72,50.592-479.763-1.574
	c-2.628-0.814-5.202-1.656-7.701-2.537c-0.266,3.44-0.604,4.269,27.88,31.129c33.985,32.059,64.132,56.859,93.638,75.921
	c36.864,23.815,83.211,27.552,123.357,9.818l0,0c2.802-1.237,5.994-1.253,8.808-0.043l0,0
	c41.249,17.746,88.739,14.279,126.581-9.894c34.59-22.095,70.581-52.855,111.872-95.001
	C502.456,290.041,505.578,287.677,505.214,282.509z"/>
<path style="fill:#D8553A;" d="M498.788,289.862c-41.291,28.27-77.281,48.902-111.872,63.723
	c-37.843,16.215-85.332,18.54-126.581,6.637l0,0c-2.814-0.812-6.006-0.802-8.808,0.029l0,0
	c-40.145,11.895-86.492,9.388-123.357-6.586c-29.506-12.786-59.653-29.42-93.638-50.925C9.383,286.835,6.703,284.538,6.602,282.63
	c-0.094,2.957,1.663,5.593,27.928,30.359c33.985,32.059,64.132,56.859,93.638,75.921c36.864,23.815,83.211,27.552,123.357,9.818l0,0
	c2.802-1.237,5.994-1.253,8.808-0.043l0,0c41.249,17.746,88.739,14.279,126.581-9.894c34.59-22.095,70.581-52.855,111.872-95.001
	c3.533-3.611,6.551-5.944,6.444-10.728C505.087,286.009,502.172,287.541,498.788,289.862z"/>
<path d="M414.542,185.055c-2.411-3.232-6.985-3.901-10.217-1.49c-3.233,2.409-3.9,6.984-1.491,10.216
	c19.006,25.498,42.142,53.472,72.75,74.683c-15.409-4.422-36.737-12.623-65.227-27.607c-0.004-0.002-0.007-0.005-0.011-0.007
	c-8.87-4.665-18.161-9.847-27.674-15.435c-1.359-0.799-2.73-1.609-4.115-2.435c-36.71-21.869-78.722-33.417-121.549-33.417
	c-0.205,0-0.417,0-0.621,0.001c-42.688,0.111-84.551,11.667-121.059,33.416c-0.924,0.551-1.844,1.092-2.764,1.635
	c-17.743,10.436-59.781,33.944-94.62,44.058c37.565-25.982,64.599-63.022,92.944-101.859c7.423-10.172,15.1-20.69,23.081-31.18
	l0.432-0.564c9.39-12.28,22.926-20.774,38.112-23.92c15.177-3.143,31.008-0.746,44.585,6.748l8.224,4.54
	c6.687,3.691,14.671,3.691,21.357,0c16.151-8.915,34.995-11.805,53.065-8.131c18.083,3.675,34.258,13.7,45.545,28.228
	c5.481,7.054,10.943,14.527,17.459,23.579c2.357,3.271,6.918,4.014,10.19,1.659c3.271-2.356,4.015-6.917,1.659-10.19
	c-6.609-9.182-12.163-16.778-17.779-24.007C363.39,116.295,344.153,104.37,322.65,100c-21.459-4.361-43.844-0.933-63.029,9.657
	c-2.268,1.251-4.976,1.252-7.244,0l-8.225-4.54c-16.625-9.178-36.017-12.114-54.601-8.262c-18.624,3.857-35.227,14.279-46.752,29.35
	l-0.442,0.578c-8.078,10.617-15.799,21.195-23.264,31.425C84.845,205.133,55.27,245.66,8.026,269.545
	c-4.631,2.253-7.563,6.727-7.955,11.774c-0.569,7.298,1.68,10.054,30.087,36.837c18.994,17.92,36.213,33.026,52.64,46.184
	c3.145,2.522,7.74,2.013,10.261-1.134c2.521-3.146,2.013-7.74-1.134-10.261c-16.114-12.908-33.042-27.762-51.749-45.41
	c-2.676-2.523-6.077-5.73-9.53-9.035c37.328,13.658,110.876,33.18,226.217,33.18c118.45,0,192.542-20.974,227.254-34.076
	c-37.688,37.657-70.114,64.729-101.38,84.702c-35.556,22.712-80.21,26.194-119.45,9.315c-4.654-2.003-9.983-1.977-14.618,0.071
	c-37.867,16.726-81.281,13.27-116.135-9.247c-4.327-2.797-8.747-5.779-13.51-9.118c-3.303-2.315-7.854-1.513-10.168,1.788
	c-2.315,3.301-1.513,7.854,1.788,10.168c4.915,3.445,9.482,6.528,13.966,9.424c38.999,25.194,87.581,29.059,129.958,10.339
	c0.936-0.413,2.011-0.418,2.951-0.014c18.309,7.876,37.678,11.767,56.925,11.767c26.681-0.001,53.125-7.481,76.153-22.191
	c34.668-22.144,70.535-52.587,112.881-95.809c4.451-4.554,9.063-8.528,8.475-16.871C510.357,259.244,482.882,276.74,414.542,185.055
	z M256.864,317.078c-114.824,0-187.913-20.213-221.934-32.619c4.487-1.095,9.446-2.488,14.946-4.277
	c17.39-5.656,36.991-14.176,58.526-25.401c26.268,1.253,53.509,2.177,81.017,2.741c0.05,0.001,0.101,0.002,0.152,0.002
	c3.962-0.001,7.215-3.171,7.295-7.151c0.083-4.031-3.118-7.366-7.149-7.449c-19.097-0.391-38.067-0.956-56.667-1.685
	c0.589-0.34,1.183-0.688,1.774-1.031c0.732-0.425,1.464-0.849,2.2-1.278c1.919-1.121,3.843-2.252,5.777-3.405
	c70.405-41.944,157.878-41.943,228.283,0c1.492,0.889,2.966,1.758,4.43,2.618c0.32,0.187,0.638,0.374,0.957,0.56
	c1.365,0.799,2.718,1.586,4.059,2.36c0.061,0.035,0.124,0.072,0.185,0.107c-40.439,1.612-82.274,2.428-124.716,2.428
	c-10.551,0-21.415-0.054-32.292-0.161c-0.025,0-0.049,0-0.074,0c-3.998,0-7.258,3.221-7.298,7.228
	c-0.039,4.032,3.196,7.332,7.228,7.372c10.925,0.108,21.84,0.162,32.437,0.162c51.093,0,101.304-1.181,149.299-3.503
	c32.151,16.781,55.853,25.359,72.8,29.575C444.181,296.98,372.274,317.078,256.864,317.078z"/>
<g>
</g>
<g>
</g>
<g>
</g>
<g>
</g>
<g>
</g>
<g>
</g>
<g>
</g>
<g>
</g>
<g>
</g>
<g>
</g>
<g>
</g>
<g>
</g>
<g>
</g>
<g>
</g>
<g>
</g>
</svg>
