<?xml version="1.0" encoding="iso-8859-1"?>
<!-- Generator: Adobe Illustrator 19.0.0, SVG Export Plug-In . SVG Version: 6.00 Build 0)  -->
<svg version="1.1" id="Layer_1" xmlns="http://www.w3.org/2000/svg" xmlns:xlink="http://www.w3.org/1999/xlink" x="0px" y="0px"
	 viewBox="0 0 512.001 512.001" style="enable-background:new 0 0 512.001 512.001;" xml:space="preserve">
<circle style="fill:#F7B239;" cx="256.005" cy="256.004" r="246.855"/>
<path style="fill:#E09B2D;" d="M126.308,385.694c-88.802-88.802-95.799-228.426-20.999-325.241
	c-8.286,6.401-16.258,13.399-23.858,20.999c-96.401,96.401-96.401,252.698,0,349.099s252.698,96.401,349.099,0
	c7.599-7.599,14.597-15.573,20.999-23.858C354.735,481.492,215.109,474.495,126.308,385.694z"/>
<path d="M256.001,0C114.842,0,0.001,114.841,0.001,256.001s114.841,256.001,256.001,256.001
	c141.158,0,255.999-114.841,255.999-256.001S397.159,0,256.001,0z M256.001,493.701c-131.069,0-237.702-106.631-237.702-237.7
	S124.932,18.299,256.001,18.299c131.068,0,237.7,106.632,237.7,237.702S387.069,493.701,256.001,493.701z"/>
<path d="M146.725,209.658c-18.666,0-33.852,15.186-33.852,33.852s15.186,33.852,33.852,33.852s33.852-15.186,33.852-33.852
	S165.391,209.658,146.725,209.658z"/>
<path d="M365.277,209.658c-18.666,0-33.852,15.186-33.852,33.852s15.186,33.852,33.852,33.852s33.852-15.186,33.852-33.852
	S383.942,209.658,365.277,209.658z"/>
<path d="M319.765,308.112c-2.623-4.317-8.25-5.693-12.57-3.069L256,336.143l-51.195-31.101c-4.319-2.623-9.946-1.249-12.57,3.069
	c-2.624,4.319-1.249,9.946,3.069,12.57l43.074,26.168l-43.074,26.168c-4.319,2.623-5.693,8.252-3.069,12.57
	c1.721,2.834,4.737,4.4,7.828,4.4c1.619,0,3.257-0.429,4.742-1.331L256,357.556l51.195,31.101c1.485,0.902,3.123,1.331,4.742,1.331
	c3.09,0,6.107-1.566,7.828-4.4c2.624-4.319,1.249-9.946-3.069-12.57l-43.074-26.168l43.074-26.168
	C321.014,318.058,322.389,312.43,319.765,308.112z"/>
<g>
	<circle style="fill:#FFFFFF;" cx="155.25" cy="235.997" r="9.15"/>
	<circle style="fill:#FFFFFF;" cx="373.619" cy="235.997" r="9.15"/>
</g>
<g>
</g>
<g>
</g>
<g>
</g>
<g>
</g>
<g>
</g>
<g>
</g>
<g>
</g>
<g>
</g>
<g>
</g>
<g>
</g>
<g>
</g>
<g>
</g>
<g>
</g>
<g>
</g>
<g>
</g>
</svg>
