<?xml version="1.0" encoding="iso-8859-1"?>
<!-- Generator: Adobe Illustrator 19.0.0, SVG Export Plug-In . SVG Version: 6.00 Build 0)  -->
<svg version="1.1" id="Capa_1" xmlns="http://www.w3.org/2000/svg" xmlns:xlink="http://www.w3.org/1999/xlink" x="0px" y="0px"
	 viewBox="0 0 512 512" style="enable-background:new 0 0 512 512;" xml:space="preserve">
<path style="fill:#ED5A81;" d="M446.989,80.57v72.743c0,8.086,6.553,14.639,14.639,14.639s14.639-6.554,14.639-14.639V88.918
	L446.989,80.57z"/>
<path style="fill:#F96989;" d="M451.046,161.355c-0.694,18.005-5.72,63.671-37.002,89.778c-3.787,3.161-3.684,9.026,0.124,12.162
	l15.905,13.102c6.02,4.959,15.103,3.074,18.602-3.896c8.699-17.324,21.798-54.554,22.487-110.151
	C465.257,167.431,456.446,167.011,451.046,161.355z"/>
<path style="fill:#F4D44E;" d="M247.224,226.545l-109.906,22.264L16.205,345.994c-9.938,7.974-15.72,20.027-15.72,32.769v89.838
	l235.457-188.937C252.141,266.665,256.41,244.311,247.224,226.545z"/>
<path style="fill:#E8C842;" d="M23.434,374.482L194.48,237.229l-57.161,11.58L16.205,345.994
	c-9.938,7.974-15.72,20.027-15.72,32.769v26.579C5.315,393.408,13.145,382.738,23.434,374.482z"/>
<path style="fill:#F4D44E;" d="M381.377,358.918l-104.082,10.695L100.453,511.515h138.824c12.564,0,24.751-4.285,34.55-12.149
	l95.78-76.857C389.006,406.945,393.582,379.758,381.377,358.918z"/>
<polygon style="fill:#E8C842;" points="323.094,364.907 277.295,369.612 100.453,511.515 140.387,511.515 "/>
<path style="fill:#F4D44E;" d="M348.09,258.947l-117.893,25.321L0.484,468.251v20.408c0,12.623,10.234,22.856,22.856,22.856h77.173
	l236.63-189.88C356.273,306.286,360.578,279.324,348.09,258.947z"/>
<path style="fill:#F96989;" d="M277.302,369.497c0,0-1.606,20.641,8.591,30.782c10.197,10.141,33.138,12.314,50.617,0
	c17.479-12.313,84.483-74.604,81.206-100.679c-4.783-38.058-93.251,32.26-93.251,32.26L277.302,369.497z"/>
<path style="fill:#ED5A81;" d="M417.715,299.6c-4.783-38.058-93.251,32.26-93.251,32.26l-47.163,37.637
	c0,0-1.298,16.738,5.89,27.474c23.516-18.724,100.738-85.529,130.436-80.841C416.709,309.822,418.288,304.156,417.715,299.6z"/>
<path style="fill:#F96989;" d="M511.515,13.497c0-7.156-5.855-13.013-13.013-13.013h-71.581c-7.156,0-13.013,5.855-13.013,13.013
	v48.987c0,6.947,4.607,13.052,11.289,14.957l68.994,19.673c8.684,2.476,17.324-4.045,17.324-13.075V13.497z"/>
<path style="fill:#ED5A81;" d="M440.182,8.761c0-3.137,1.125-6.023,2.991-8.277h-16.252c-7.156,0-13.013,5.855-13.013,13.013v48.987
	c0,6.947,4.607,13.052,11.288,14.957l15.232,4.343C439.954,79.194,440.285,83.037,440.182,8.761z"/>
<path style="fill:#E8C842;" d="M27.364,477.114l254.032-203.843l-51.199,10.997L0.484,468.251v20.408
	c0,5.42,1.89,10.397,5.043,14.314C11.003,493.143,18.37,484.33,27.364,477.114z"/>
<path style="fill:#F96989;" d="M137.318,248.809c0,0-1.53,19.774,8.184,29.488c9.715,9.715,31.571,11.796,48.224,0
	c16.653-11.796,80.488-71.468,77.366-96.447c-4.557-36.458-88.841,30.904-88.841,30.904L137.318,248.809z"/>
<path style="fill:#ED5A81;" d="M189.463,241.292c0,0,52.37-41.85,76.778-41.712c3.558-6.804,5.452-12.913,4.851-17.73
	c-4.557-36.458-88.841,30.904-88.841,30.904l-44.933,36.055c0,0-1.429,18.493,7.263,28.497L189.463,241.292z"/>
<path style="fill:#F96989;" d="M230.197,284.266c0,0-1.621,20.95,8.672,31.243c10.293,10.293,33.45,12.498,51.093,0
	c17.644-12.498,85.278-75.722,81.97-102.187c-4.828-38.628-94.128,32.743-94.128,32.743L230.197,284.266z"/>
<path style="fill:#ED5A81;" d="M282.517,272.344c0,0,62.818-50.201,85.925-43.596c2.685-5.859,4.026-11.129,3.489-15.426
	c-4.828-38.628-94.129,32.743-94.129,32.743l-47.606,38.201c0,0-1.175,15.269,4.885,26.141L282.517,272.344z"/>
<path d="M420.716,297.467c-1.249-9.935-6.814-14.182-11.265-15.995c-6.799-2.772-19.437-4.097-51.071,14.588
	c2.877-11.921,1.744-24.753-3.796-36.274c10.905-13.613,23.343-32.327,21.606-46.221c-1.257-10.055-6.873-14.341-11.365-16.166
	c-25.623-10.418-83.822,36.339-105.472,53.646c0.71-7.491-0.284-15.173-3.11-22.427c10.633-13.011,23.608-31.805,21.876-45.664
	c-1.275-10.202-7.43-14.149-10.986-15.595c-14.487-5.89-37.978,7.069-54.385,17.329c-24.73,15.463-24.09,16.119-194.655,152.984
	C6.595,346.9,0,360.649,0,375.392c0,16.181,0,90.44,0,106.878C0,498.663,13.337,512,29.73,512H45.8c4.143,0,7.5-3.357,7.5-7.5
	s-3.357-7.5-7.5-7.5H29.73c-8.121,0-14.729-6.607-14.729-14.729v-15.909l209.291-167.94c6.434,36.15,46.878,37.856,70.027,20.886
	c14.526-10.662,35.649-31.529,49.185-46.56c4.113,14.813-0.775,31.201-13.283,41.237c-0.135,0.108-31.247,25.072-228.135,183.015
	H80.802c-4.143,0-7.5,3.357-7.5,7.5s3.357,7.5,7.5,7.5c34.695,0,124.242,0,158.935,0c13.874,0,27.475-4.782,38.296-13.466
	l52.622-42.227c3.23-2.593,3.748-7.313,1.155-10.545c-2.593-3.23-7.313-3.747-10.545-1.155l-52.621,42.227
	c-8.169,6.555-18.436,10.165-28.908,10.165H126.115l144.038-115.58c1.319,7.159,3.735,12.569,6.439,16.408
	c11.281,16.056,37.696,18.112,56.731,7.888c11.49-6.178,33.133-27.11,42.176-36.269c4.228,15.312-0.861,32.335-13.706,42.642
	l-13.228,10.615c-3.23,2.593-3.747,7.313-1.155,10.545c2.592,3.229,7.312,3.746,10.545,1.155l13.227-10.615
	c19.881-15.953,26.176-43.668,15.816-66.464C396.07,347.347,423.224,317.417,420.716,297.467z M315.666,228.377
	c32.094-20.05,41.875-17.745,43.512-17.081c0.551,0.224,1.697,0.691,2.127,4.129c2.588,20.703-58.544,79.061-75.746,91.704
	c-15.235,11.226-36.826,9.193-43.142-1.497c-3.014-5.098-4.059-12.557-4.113-18.454
	C270.568,261.216,290.637,244.014,315.666,228.377z M220.806,197.342c30.11-18.81,39.17-16.701,40.679-16.085
	c0.411,0.167,1.373,0.558,1.748,3.559c2.397,19.155-56.869,76.662-73.057,87.372c-13.844,8.94-31.739,6.638-37.536-1.234
	c-4.228-5.737-4.303-14.226-4.658-18.274C179.583,227.373,197.139,212.126,220.806,197.342z M27.482,349.373l106.567-85.512
	c2.785,14.584,10.004,22.222,20.62,26.337c9.895,3.835,22.179,4.108,33.847-0.365c16.169-6.202,44.232-34.921,55.823-47.571
	c2.842,23.301-16.489,33.367-18.129,35.378c-12.562,10.062-199.256,159.592-211.21,169.166v-71.414
	C15.001,365.221,19.55,355.739,27.482,349.373z M328.907,390.906c-12.437,7.996-33.589,8.893-40.618-2.595
	c-3.201-5.275-4.071-13.095-4.156-18.111c40.472-32.333,52.695-43.183,76.603-58.033c31.782-19.74,41.441-17.464,43.056-16.805
	c0.527,0.215,1.626,0.663,2.042,3.975C408.427,319.991,344.715,380.666,328.907,390.906z"/>
<path d="M504.5,40.452c4.143,0,7.5-3.357,7.5-7.5V20.155C512,9.042,502.958,0,491.845,0h-69.616
	c-11.114,0-20.155,9.042-20.155,20.155v47.642c0,10.055,6.753,19.002,16.422,21.759l15.75,4.491v62.085
	c0,4.555,1.411,8.786,3.815,12.283c-1.027,17.601-6.457,54.804-33.161,77.093c-7.277,6.072-7.187,17.324,0.157,23.375
	c12.903,9.505,17.023,17.165,27.743,17.165c7.262,0,13.959-4.003,17.29-10.636c8.018-15.974,21.465-50.716,22.606-105.398
	c3.135-3.768,5.024-8.609,5.024-13.882v-49.688c3.483,0.252,14.746,7.381,26.041-1.142c5.236-3.951,8.239-9.981,8.239-16.541V67.954
	c0-4.142-3.357-7.5-7.5-7.5s-7.5,3.357-7.5,7.5v20.807c0,1.812-0.829,3.477-2.275,4.567c-3.813,2.881-6.491-0.14-22.447-4.036l0,0
	c-9.724-2.773-39.722-11.327-49.668-14.163c-3.259-0.929-5.534-3.944-5.534-7.332V20.155c0-2.794,2.36-5.154,5.154-5.154h69.616
	c2.794,0,5.154,2.36,5.154,5.154v12.797C496.999,37.095,500.356,40.452,504.5,40.452z M436.682,268.682
	c-1.239,2.465-4.467,3.139-6.62,1.364l-15.469-12.742c-0.141-0.116-0.091-0.275-0.083-0.28
	c23.219-19.379,34.56-49.391,37.835-79.454c1.672,0.279,3.442,0.362,5.094,0.251C455.312,224.853,443.734,254.635,436.682,268.682z
	 M462.718,156.132c0,2.028-0.905,3.846-2.328,5.081c-4.469,3.803-11.146,0.601-11.146-5.081V98.325l13.474,3.842V156.132z"/>
<g>
</g>
<g>
</g>
<g>
</g>
<g>
</g>
<g>
</g>
<g>
</g>
<g>
</g>
<g>
</g>
<g>
</g>
<g>
</g>
<g>
</g>
<g>
</g>
<g>
</g>
<g>
</g>
<g>
</g>
</svg>
