<?xml version="1.0" encoding="iso-8859-1"?>
<!-- Generator: Adobe Illustrator 19.0.0, SVG Export Plug-In . SVG Version: 6.00 Build 0)  -->
<svg version="1.1" id="Capa_1" xmlns="http://www.w3.org/2000/svg" xmlns:xlink="http://www.w3.org/1999/xlink" x="0px" y="0px"
	 viewBox="0 0 511.999 511.999" style="enable-background:new 0 0 511.999 511.999;" xml:space="preserve">
<path style="fill:#ED5A81;" d="M140.78,504.498h230.452c-43.725-33.559-82.502-66.626-115.226-96.311
	C223.282,437.871,184.503,470.937,140.78,504.498z"/>
<path style="fill:#DD4A78;" d="M274.939,425.127c-6.516-5.752-12.83-11.406-18.933-16.942
	c-32.724,29.686-71.503,62.752-115.226,96.311h39.773C215.672,476.94,247.345,449.943,274.939,425.127z"/>
<path style="fill:#CC9D72;" d="M204.586,374.274c15.23,0,87.421,0,102.84,0l0,0c0,0,0.054,0.01,0.15,0.029
	c0.009,0.002,0.017,0.003,0.027,0.005c0.051,0.01,0.113,0.022,0.187,0.037c0,0,0.002,0,0.004,0.001
	c0.069,0.014,0.147,0.029,0.235,0.047c0.019,0.004,0.036,0.007,0.056,0.011c0.2,0.04,0.442,0.089,0.729,0.148
	c0.067,0.014,0.141,0.029,0.213,0.044c0.075,0.016,0.149,0.031,0.229,0.047c0.094,0.02,0.194,0.04,0.295,0.062
	c0.062,0.013,0.125,0.026,0.189,0.04c0.119,0.025,0.24,0.05,0.367,0.077c0.052,0.011,0.107,0.023,0.161,0.034
	c0.145,0.031,0.291,0.062,0.446,0.095c0.012,0.003,0.025,0.006,0.038,0.008c0.572,0.122,1.214,0.262,1.92,0.417
	c0.001,0,0.002,0,0.002,0c0.219,0.048,0.444,0.098,0.673,0.149c0.043,0.01,0.086,0.019,0.129,0.029
	c0.231,0.052,0.467,0.104,0.709,0.159c0.018,0.004,0.036,0.008,0.054,0.012c12.973,2.922,42.637,10.343,72.774,23.031
	c28.337-62.367,45.598-137.328,45.598-191.511c0-115.975-79.069-200.272-176.605-200.272S79.4,91.27,79.4,207.245
	c0,54.183,17.261,129.144,45.598,191.511C165.749,381.601,205.493,374.095,204.586,374.274z"/>
<path style="fill:#C19067;" d="M125.103,398.714c0.899-0.378,1.797-0.75,2.695-1.119c0.204-0.084,0.407-0.168,0.61-0.251
	c0.887-0.362,1.772-0.72,2.656-1.073c0.21-0.084,0.419-0.167,0.629-0.25c0.904-0.359,1.808-0.715,2.708-1.065
	c0.104-0.04,0.208-0.08,0.311-0.12c0.833-0.323,1.663-0.64,2.492-0.955c0.211-0.08,0.422-0.161,0.632-0.24
	c0.859-0.324,1.715-0.644,2.569-0.959c0.235-0.087,0.469-0.173,0.703-0.259c0.861-0.316,1.719-0.63,2.574-0.937
	c0.158-0.057,0.315-0.113,0.473-0.169c0.763-0.273,1.522-0.543,2.28-0.81c0.216-0.076,0.432-0.153,0.648-0.228
	c0.82-0.287,1.635-0.569,2.447-0.848c0.254-0.087,0.507-0.174,0.76-0.26c0.804-0.275,1.606-0.546,2.402-0.813
	c0.216-0.072,0.429-0.143,0.644-0.214c0.673-0.224,1.342-0.445,2.008-0.664c0.233-0.077,0.468-0.154,0.7-0.23
	c0.758-0.247,1.51-0.49,2.259-0.73c0.282-0.09,0.563-0.18,0.843-0.269c0.734-0.234,1.465-0.465,2.189-0.692
	c0.261-0.082,0.52-0.161,0.779-0.242c0.581-0.181,1.158-0.359,1.731-0.535c0.245-0.075,0.492-0.151,0.735-0.226
	c0.699-0.213,1.391-0.422,2.079-0.628c0.292-0.088,0.583-0.175,0.873-0.261c0.664-0.198,1.323-0.393,1.974-0.584
	c0.29-0.085,0.576-0.168,0.863-0.252c0.484-0.141,0.964-0.28,1.44-0.417c0.36-0.104,0.718-0.206,1.073-0.308
	c0.523-0.149,1.041-0.296,1.554-0.441c0.305-0.086,0.609-0.172,0.911-0.256c0.585-0.163,1.164-0.325,1.736-0.482
	c0.306-0.084,0.608-0.167,0.91-0.25c0.393-0.108,0.782-0.214,1.169-0.318c0.81-0.22,1.612-0.434,2.427-0.651
	c0.725-0.192,1.428-0.378,2.381-0.625c0.388-0.101,1.128-0.292,1.885-0.485c0.765-0.195,1.531-0.389,2.099-0.531
	c9.647-2.418,16.075-3.683,15.975-3.662c1.431-0.287-0.859-0.031,17.741-0.129c-25.391-61.834-49.606-131.424-49.606-183.243
	c0-81.071,33.804-147.657,84.467-184.048c-0.178-0.001-0.354-0.007-0.531-0.007c-97.536,0-176.605,84.297-176.605,200.272
	c0,3.386,0.067,6.854,0.201,10.394c2,53.109,18.831,122.647,45.397,181.116C125.033,398.743,125.068,398.729,125.103,398.714z"/>
<path style="fill:#E8C842;" d="M204.586,347.71v53.086c0,4.581,1.453,9.033,4.13,12.75c5.879,8.159,17.88,22.991,35.012,35.228
	c7.326,5.232,17.23,5.232,24.555,0c17.135-12.239,29.136-27.072,35.014-35.231c2.676-3.714,4.128-8.164,4.128-12.742v-53.089
	C274.908,361.305,237.267,361.372,204.586,347.71z"/>
<path style="fill:#DBBC3B;" d="M256.006,408.185c-9.319,8.454-19.147,17.191-29.423,26.127c4.607,4.522,14.669,13.417,19.732,16.031
	c9.967-8.602,19.522-17.03,28.624-25.215C268.422,419.375,262.108,413.721,256.006,408.185z"/>
<path style="fill:#F4D44E;" d="M384.809,191.678c-0.001-5.84-3.961-10.939-9.62-12.381c-49.835-12.701-88.345-34.809-114.524-53.892
	c-23.715-16.225-38.812-33.803-38.482-33.447c-1.008-1.088-2.782-0.885-3.509,0.408c-6.498,11.557-35.065,56.685-89.102,65.179
	c-1.415,0.613-2.331,2.002-2.346,3.544c-0.011,1.095-0.017,2.167-0.017,3.279c-0.004,19.211-0.012,75.042-0.012,75.146
	c0,68.504,58.474,124.292,130.221,123.413c69.621-0.609,127.398-54.901,127.398-123.553
	C384.816,236.959,384.814,213.139,384.809,191.678z"/>
<g>
	<path style="fill:#E8C842;" d="M177.199,239.512c0-0.079,0.005-62.81,0.009-101.433c-12.84,8.976-28.661,16.482-47.635,19.464
		c-1.415,0.613-2.331,2.002-2.346,3.544c-0.011,1.095-0.017,2.167-0.017,3.279c-0.004,19.211-0.012,75.042-0.012,75.146
		c0,77.158,73.483,136.202,153.744,121.116C221.826,349.495,177.199,299.358,177.199,239.512z"/>
	<path style="fill:#E8C842;" d="M240.888,245.072v2.097c0,8.141,6.256,15.147,14.389,15.529c8.682,0.409,15.85-6.509,15.85-15.102
		v-2.732c0-3.272-2.653-5.925-5.925-5.925h-18.181C243.634,238.94,240.888,241.686,240.888,245.072z"/>
</g>
<path style="fill:#DBBC3B;" d="M256.007,247.171v-2.097c0-3.387,2.746-6.132,6.133-6.132h-15.12c-3.387,0-6.132,2.745-6.132,6.132
	v2.097c0,8.141,6.256,15.147,14.389,15.529c3.048,0.143,5.899-0.631,8.329-2.049C259.033,257.932,256.007,252.829,256.007,247.171z"
	/>
<circle style="fill:#656566;" cx="316.182" cy="225.456" r="16.559"/>
<path style="fill:#545456;" d="M316.185,225.459c-3.063-5.305-2.842-11.592,0.008-16.546c-2.817-0.004-5.672,0.696-8.287,2.205
	c-7.92,4.572-10.633,14.7-6.061,22.62s14.7,10.633,22.62,6.061c2.615-1.51,4.648-3.632,6.053-6.074
	C324.804,233.716,319.248,230.763,316.185,225.459z"/>
<circle style="fill:#656566;" cx="195.828" cy="225.456" r="16.559"/>
<path style="fill:#545456;" d="M195.829,225.459c-3.063-5.305-2.842-11.592,0.008-16.546c-2.817-0.004-5.672,0.696-8.287,2.205
	c-7.92,4.572-10.633,14.7-6.061,22.62c4.572,7.92,14.7,10.633,22.62,6.061c2.615-1.51,4.648-3.632,6.053-6.074
	C204.447,233.716,198.892,230.763,195.829,225.459z"/>
<path style="fill:#E8C842;" d="M74.189,201.93L74.189,201.93c6.154-5.182,14.59-5.086,19.724-1.187l71.651,57.697l-35.354,26.442
	L70.9,219.802C67.166,215.67,68.638,206.603,74.189,201.93z"/>
<path style="fill:#DBBC3B;" d="M153.298,267.611l-69.387-55.874c-3.81-2.893-9.438-3.686-14.603-1.788
	c-0.945,3.741-0.482,7.558,1.591,9.852l59.308,65.08L153.298,267.611z"/>
<path style="fill:#F4D44E;" d="M96.288,228.312c6.154-5.182,14.36-6.479,19.724-3.117l57.851,38.814l11.902,7.626l2.177,1.24
	c-3.718,9.51-12.516,28.993-34.075,37.825c-76.553-83.573-57.891-63.2-60.866-66.447C89.267,240.122,90.739,232.985,96.288,228.312z
	"/>
<path style="fill:#E8C842;" d="M437.823,201.93L437.823,201.93c-6.154-5.182-14.59-5.086-19.724-1.187l-71.651,57.697l35.354,26.442
	l59.308-65.08C444.845,215.67,443.373,206.603,437.823,201.93z"/>
<path style="fill:#DBBC3B;" d="M428.6,212.721c3.735-2.837,9.216-3.647,14.296-1.89c-0.634-3.291-2.364-6.62-5.073-8.901l0,0
	c-6.154-5.182-14.59-5.086-19.724-1.187l-71.651,57.697l13.156,9.84L428.6,212.721z"/>
<path style="fill:#F4D44E;" d="M415.723,228.312c-6.154-5.182-14.359-6.479-19.724-3.117l-57.851,38.814l-11.902,7.626l-2.177,1.24
	c3.718,9.51,12.516,28.993,34.075,37.825c76.553-83.573,57.891-63.2,60.866-66.447C422.745,240.122,421.272,232.985,415.723,228.312
	z"/>
<g>
	<path style="fill:#E8C842;" d="M340.676,292.546l63.857-53.648c4.168-3.286,10.288-4.022,16.328-2.328
		c-0.578-2.911-2.336-5.899-5.138-8.258c-6.154-5.182-14.359-6.479-19.724-3.117l-57.851,38.814l-11.902,7.626l-2.177,1.24
		c2.152,5.503,6.011,14.345,13.053,22.531L340.676,292.546z"/>
	<path style="fill:#E8C842;" d="M93.124,244.387c-0.01-0.011-0.02-0.021-0.029-0.031c0.056,0.061,0.121,0.132,0.173,0.189
		c-0.026-0.028-0.048-0.053-0.07-0.077C93.175,244.443,93.152,244.418,93.124,244.387z"/>
	<path style="fill:#E8C842;" d="M92.985,244.235C92.974,244.224,92.973,244.222,92.985,244.235L92.985,244.235z"/>
	<path style="fill:#E8C842;" d="M93.357,244.641c-0.004-0.004-0.011-0.012-0.019-0.02C93.347,244.63,93.353,244.637,93.357,244.641z
		"/>
	<path style="fill:#E8C842;" d="M93.095,244.355c-0.014-0.016-0.028-0.03-0.041-0.044C93.066,244.324,93.08,244.339,93.095,244.355z
		"/>
	<path style="fill:#E8C842;" d="M93,244.252c0.014,0.015,0.033,0.036,0.054,0.059c-0.02-0.022-0.036-0.039-0.048-0.052
		C93.004,244.257,93.003,244.255,93,244.252z"/>
	<path style="fill:#E8C842;" d="M92.985,244.235c0.004,0.005,0.009,0.01,0.015,0.017l0,0
		C92.994,244.246,92.988,244.239,92.985,244.235z"/>
	<path style="fill:#E8C842;" d="M104.88,241.156c-3.614-2.849-8.698-3.777-13.923-2.871c-0.08,2.233,0.57,4.336,2.045,5.968
		c0.002,0.002,0.004,0.004,0.007,0.007c0.043,0.047,0.082,0.09,0.117,0.127c0.022,0.024,0.047,0.051,0.074,0.081
		c0.047,0.052,0.083,0.09,0.108,0.118c-0.011-0.013-0.024-0.026-0.038-0.041c0.017,0.018,0.036,0.04,0.055,0.06
		c0.005,0.006,0.01,0.012,0.015,0.016c-0.001-0.001-0.002-0.002-0.003-0.004c0.008,0.009,0.015,0.016,0.023,0.025v-0.001
		c0,0.001,0,0,0.001,0.001c1.921,2.097,12.455,13.597,60.508,66.057c7.795-3.193,13.914-7.781,18.737-12.785l-3.867-3.111
		L104.88,241.156z"/>
</g>
<path style="fill:#F96989;" d="M185.765,271.634c102.565,58.064,201.567,125.093,240.296,151.87
	c10.747,7.43,17.114,19.404,17.114,32.164v29.083c0,10.904-9.158,19.745-20.456,19.745h-55.5
	c-112.294-86.188-190.797-169.018-215.315-195.924c-0.391-0.429,0.404,0.417,0,0C174.167,300.416,182.502,280.172,185.765,271.634z"
	/>
<path style="fill:#ED5A81;" d="M398.766,498.408c-100.146-77.776-178.958-152.711-227.79-202.275
	c-4.821,4.973-11.032,9.493-19.064,12.438c-0.1-0.106-0.204-0.213-0.007,0.003c24.518,26.905,103.02,109.736,215.315,195.924h43.273
	C406.276,503.2,402.296,501.149,398.766,498.408z"/>
<path style="fill:#F96989;" d="M326.246,271.634C223.682,329.698,124.679,396.728,85.95,423.505
	c-10.747,7.43-17.114,19.404-17.114,32.164v29.083c0,10.904,9.158,19.745,20.456,19.745h55.5
	c112.294-86.188,190.797-169.018,215.315-195.924c0.391-0.429-0.404,0.417,0,0C337.844,300.416,329.51,280.172,326.246,271.634z"/>
<path style="fill:#ED5A81;" d="M99.336,467.807c0-12.76,6.366-24.733,17.115-32.164c36.49-25.229,126.486-86.189,222.555-141.718
	c-7.184-8.258-10.845-17.287-12.758-22.292C223.683,329.697,124.68,396.727,85.951,423.504
	c-10.747,7.431-17.115,19.404-17.115,32.164v29.083c0,10.904,9.158,19.745,20.456,19.745h11.623
	C98.242,498.326,99.787,495.326,99.336,467.807z"/>
<path d="M256.038,270.752c12.473,0,22.62-10.146,22.62-22.619v-8.656c0-4.143-3.357-7.5-7.5-7.5c-4.143,0-7.5,3.357-7.5,7.5v8.656
	c0,4.2-3.418,7.618-7.619,7.618c-4.2,0-7.618-3.418-7.618-7.618v-8.656c0-4.143-3.357-7.5-7.5-7.5c-4.143,0-7.5,3.357-7.5,7.5v8.656
	C233.419,260.605,243.566,270.752,256.038,270.752z"/>
<path d="M316.216,201.935c-13.266,0-24.06,10.793-24.06,24.06c0,13.266,10.793,24.059,24.06,24.059
	c13.266,0,24.059-10.792,24.059-24.059C340.275,212.728,329.483,201.935,316.216,201.935z M316.216,235.052
	c-4.995,0-9.059-4.063-9.059-9.058c0-4.995,4.063-9.059,9.059-9.059c4.994,0,9.058,4.063,9.058,9.059
	C325.274,230.989,321.211,235.052,316.216,235.052z"/>
<path d="M195.86,201.935c-13.266,0-24.059,10.793-24.059,24.06c0,13.266,10.792,24.059,24.059,24.059
	c13.266,0,24.059-10.792,24.059-24.059C219.919,212.728,209.126,201.935,195.86,201.935z M195.86,235.052
	c-4.994,0-9.058-4.063-9.058-9.058c0-4.995,4.063-9.059,9.058-9.059c4.995,0,9.058,4.063,9.058,9.059
	C204.918,230.989,200.854,235.052,195.86,235.052z"/>
<path d="M295.728,199.118c11.849-9.917,29.141-9.906,40.975-0.001c3.174,2.66,7.906,2.239,10.564-0.938
	c2.659-3.176,2.239-7.906-0.938-10.564c-17.421-14.584-42.831-14.563-60.23-0.001c-3.177,2.659-3.597,7.389-0.938,10.565
	C287.831,201.365,292.56,201.768,295.728,199.118z"/>
<path d="M175.373,199.117c11.849-9.918,29.14-9.903,40.975,0.001c1.404,1.175,3.111,1.748,4.81,1.748
	c2.144,0,4.272-0.914,5.756-2.687c2.658-3.177,2.238-7.906-0.938-10.565c-17.422-14.581-42.833-14.563-60.23,0.001
	c-3.177,2.658-3.597,7.389-0.938,10.564C167.466,201.356,172.199,201.777,175.373,199.117z"/>
<path d="M430.502,417.337L430.502,417.337c-7.69-5.318-18.606-12.804-32.004-21.841c6.795-16.142,12.985-33.076,18.398-50.373
	c1.237-3.953-0.964-8.161-4.917-9.398c-3.959-1.232-8.162,0.965-9.397,4.918c-4.969,15.88-10.611,31.438-16.781,46.328
	c-16.051-10.73-34.763-23.066-55.237-36.242c19.687-19.975,73.094-78.28,91.772-98.806c-2.235,17.652-5.77,36.469-10.452,55.451
	c-0.991,4.021,1.465,8.086,5.486,9.078c4.037,0.993,8.089-1.478,9.078-5.486c6.689-27.125,11.118-53.996,12.844-77.838l7.559-8.295
	c2.887-3.194,4.289-7.701,3.949-12.688c-0.478-7.033-4.212-14.059-11.203-18.251c-3.434-53.614-23.517-102.484-56.784-137.944
	c-69.161-73.719-178.901-73.621-248.243-5.423c-2.953,2.905-2.993,7.653-0.089,10.606c2.906,2.954,7.654,2.992,10.606,0.089
	c30.298-29.798,69.699-46.208,110.948-46.208c85.293,0,159.603,69.818,168.277,175.543c-10.428,1.242-13.529,7.701-31.968,21.439
	l-0.004-20.633c1.248,0.243,8.085,1.587,9.33,1.587c3.59,0,6.763-2.585,7.385-6.242c0.695-4.084-2.052-7.957-6.135-8.652
	c-48.386-8.237-95.77-27.696-137.837-58.194c-36.726-26.778-36.221-36.62-45.615-35.503c-3.061,0.361-5.79,2.181-7.303,4.869
	c-6.986,12.425-33.67,53.577-83.729,61.445c-4.184,0.661-8.623,5.088-8.682,10.912c-0.034,4.542-0.013,24.036-0.027,50.181
	c-19.008-14.111-21.161-19.998-31.982-21.19c3.147-38.58,15.449-74.323,35.677-103.556c2.357-3.406,1.507-8.078-1.899-10.435
	c-3.406-2.358-8.079-1.507-10.435,1.899c-22.352,32.299-35.685,71.865-38.562,114.42c-0.014,0.207-0.013,0.411-0.01,0.614
	c-12.892,6.934-14.226,23.329-6.987,31.336l7.546,8.28c-1.237,5.862,6.262,81.124,40.559,162.514
	c-12.965,8.745-23.746,16.137-31.777,21.69c-12.742,8.809-20.35,23.139-20.35,38.332v29.084c0,15.023,12.541,27.245,27.956,27.245
	c4.391,0,110.82,0,117.662,0c4.143,0,7.5-3.357,7.5-7.5s-3.357-7.5-7.5-7.5h-40.305c22.217-17.504,42.958-34.72,62.084-51.246
	c8.818,7.192,15.604,12.413,27.128,12.413c11.589,0,18.425-5.297,27.317-12.566c20.487,17.718,41.278,34.9,62.21,51.399H242.13
	c-4.143,0-7.5,3.357-7.5,7.5s3.357,7.5,7.5,7.5c15.555,0,159.173,0,180.764,0c15.415,0,27.956-12.222,27.956-27.245v-29.083
	C450.851,440.474,443.245,426.145,430.502,417.337z M422.879,206.666c2.404-1.764,6.876-1.872,10.289,1
	c2.538,2.138,3.054,6.08,2.498,7.168l-10.951,12.018c-3.52-4.851-9.043-8.368-14.53-9.963L422.879,206.666z M400.231,231.505
	c4.469-2.654,13.977,2.848,13.507,7.39c-1.526,1.672,10.733-11.759-55.391,60.684c-11.92-5.942-18.511-16.095-22.582-25.024
	C413.294,222.782,398.263,232.819,400.231,231.505z M134.741,164.796c47.614-9.129,75.565-44.448,86.808-62.073
	c34.377,35.375,93.516,70.276,155.791,85.366l0.008,35.981l-35.175,28.325l-7.959,5.34l-11.673,7.479
	c-22.484,12.731-44.806,25.899-66.36,38.978c-22.934-13.914-45.24-27.022-66.351-38.976l-11.676-7.481l-7.959-5.34l-35.461-28.556
	C134.743,151.784,134.741,167.204,134.741,164.796z M241.757,312.997c-15.772,9.692-32.322,20.074-47.018,29.44
	c-12.581-12.698-22.725-23.364-30.27-31.48c13.517-8.052,21.005-20.036,25.1-28.629
	C206.354,291.915,223.841,302.191,241.757,312.997z M112.131,231.505c1.968,1.314-13.063-8.724,64.464,43.05
	c-4.072,8.928-10.661,19.082-22.581,25.024c-66.124-72.443-53.859-59.005-55.387-60.679
	C98.066,234.573,107.504,228.754,112.131,231.505z M76.644,214.776c-0.774-0.938-0.838-5.099,1.551-7.109
	c3.492-2.941,9.115-2.66,11.242-1.038l12.739,10.258c-5.491,1.597-11.012,5.118-14.53,9.964L76.644,214.776z M89.674,251.536
	c27.355,29.87,63.868,70.513,92.154,99.176c-20.569,13.236-39.328,25.599-55.497,36.409
	C108.073,343.11,95.068,294.836,89.674,251.536z M142.417,496.997h-52.95c-7.144,0-12.955-5.493-12.955-12.244v-29.084
	c0-10.269,5.188-19.986,13.879-25.994c71.51-49.442,156.281-103.871,232.401-147.347c4.094,8.593,11.579,20.576,25.097,28.627
	C319.317,341.645,244.716,418.228,142.417,496.997z M266.116,439.934c-6.029,4.308-14.131,4.307-20.16,0
	c-1.848-1.32-3.707-2.719-5.567-4.187c5.417-4.76,10.693-9.454,15.824-14.072c6.189,5.57,13.677,12.187,15.656,13.927
	C269.948,437.123,268.026,438.569,266.116,439.934z M435.85,484.753c0,6.751-5.812,12.244-12.955,12.244h-52.95
	c-34.534-26.59-68.92-55.231-102.564-85.456c19.966-18.273,37.496-35.147,52.358-49.939c46.116,29.621,83.623,55.206,102.232,68.072
	h0.001c8.689,6.008,13.878,15.727,13.878,25.995V484.753z"/>
<g>
</g>
<g>
</g>
<g>
</g>
<g>
</g>
<g>
</g>
<g>
</g>
<g>
</g>
<g>
</g>
<g>
</g>
<g>
</g>
<g>
</g>
<g>
</g>
<g>
</g>
<g>
</g>
<g>
</g>
</svg>
