<?xml version="1.0" encoding="iso-8859-1"?>
<!-- Generator: Adobe Illustrator 19.0.0, SVG Export Plug-In . SVG Version: 6.00 Build 0)  -->
<svg version="1.1" id="Capa_1" xmlns="http://www.w3.org/2000/svg" xmlns:xlink="http://www.w3.org/1999/xlink" x="0px" y="0px"
	 viewBox="0 0 512 512" style="enable-background:new 0 0 512 512;" xml:space="preserve">
<circle style="fill:#F4D44E;" cx="256.231" cy="256" r="248.417"/>
<g>
	<circle style="fill:#656566;" cx="326.863" cy="253.917" r="21.67"/>
	<circle style="fill:#656566;" cx="185.6" cy="253.917" r="21.67"/>
</g>
<g>
	<path style="fill:#4F4F51;" d="M326.867,253.916c-4.008-6.942-3.72-15.172,0.01-21.653c-3.686-0.005-7.423,0.911-10.845,2.887
		c-10.365,5.984-13.916,19.237-7.932,29.602c5.984,10.365,19.237,13.916,29.602,7.932c3.423-1.976,6.083-4.753,7.923-7.949
		C338.146,264.723,330.876,260.859,326.867,253.916z"/>
	<path style="fill:#4F4F51;" d="M185.602,253.916c-4.008-6.942-3.72-15.171,0.01-21.653c-3.686-0.005-7.423,0.911-10.845,2.886
		c-10.365,5.984-13.916,19.237-7.932,29.602c5.984,10.365,19.237,13.916,29.602,7.932c3.422-1.975,6.083-4.753,7.922-7.949
		C196.881,264.723,189.61,260.859,185.602,253.916z"/>
</g>
<path style="fill:#656566;" d="M301.145,380.825c10.46,0,14.809-13.297,6.434-19.563c-30.943-23.15-72.783-22.498-102.835,0.111
	c-8.282,6.232-3.781,19.451,6.583,19.451H301.145z"/>
<path style="fill:#4F4F51;" d="M228.822,361.373c10.222-9.916,22.201-15.607,34.455-16.919
	c-20.542-1.684-41.443,4.062-58.533,16.919c-8.282,6.232-3.781,19.451,6.583,19.451h22.6
	C225.889,380.825,222.399,367.604,228.822,361.373z"/>
<path style="fill:#E8C842;" d="M174.946,446.549C18.256,356.084,8.741,134.554,153.661,29.998
	C107.782,50.639,67.72,85.355,40.644,132.251c-68.598,118.815-27.889,270.744,90.926,339.342
	c87.437,50.482,192.806,41.762,269.701-13.717C330.913,489.532,246.866,488.072,174.946,446.549z"/>
<path style="fill:#9CD7F2;" d="M107.475,349.82L107.475,349.82c27.406,0,45.787-28.147,34.765-53.241l-27.908-53.556
	c-2.563-4.918-9.603-4.913-12.159,0.008L73.63,297.988C62.901,322.417,80.794,349.82,107.475,349.82z"/>
<path style="fill:#71C5DB;" d="M100.006,306.218l8.161-61.387c0.284-2.14,1.467-3.802,3.038-4.822
	c-3.13-1.479-7.213-0.48-9.033,3.022L73.63,297.988c-10.729,24.428,7.164,51.831,33.845,51.831l0,0
	c7.329,0,14.002-2.027,19.65-5.456C111.067,339.92,98.762,324.757,100.006,306.218z"/>
<path d="M326.639,283.099c16.091,0,29.183-13.092,29.183-29.183s-13.092-29.183-29.183-29.183s-29.183,13.092-29.183,29.183
	S310.549,283.099,326.639,283.099z M326.639,239.76c7.806,0,14.157,6.351,14.157,14.157s-6.351,14.157-14.157,14.157
	s-14.157-6.351-14.157-14.157C312.482,246.11,318.833,239.76,326.639,239.76z"/>
<path d="M185.374,224.734c-16.091,0-29.183,13.092-29.183,29.183s13.092,29.183,29.183,29.183s29.183-13.092,29.183-29.183
	S201.465,224.734,185.374,224.734z M185.374,268.073c-7.806,0-14.157-6.351-14.157-14.157c0-7.806,6.351-14.157,14.157-14.157
	s14.157,6.351,14.157,14.157C199.532,261.722,193.181,268.073,185.374,268.073z"/>
<path d="M402.945,187.584c-1.093-4.004-5.227-6.365-9.226-5.27c-17.139,4.676-34.516,2.74-48.927-5.452
	c-3.607-2.054-8.194-0.79-10.245,2.818c-2.052,3.607-0.789,8.193,2.818,10.245c11.558,6.573,24.588,9.919,38.029,9.919
	c7.363,0,14.848-1.005,22.28-3.032C401.678,195.717,404.038,191.587,402.945,187.584z"/>
<path d="M173.539,176.86c-14.411,8.195-31.789,10.129-48.928,5.452c-3.997-1.093-8.133,1.267-9.226,5.27
	c-1.093,4.003,1.267,8.133,5.27,9.226c21.432,5.849,42.798,3.072,60.311-6.887c3.607-2.051,4.868-6.637,2.818-10.245
	C181.732,176.07,177.143,174.808,173.539,176.86z"/>
<path d="M199.999,355.37c-14.05,10.571-6.477,32.968,11.099,32.968h89.819c17.694,0,25.086-22.504,10.934-33.091
	c-2.95-2.208-6.074-4.267-9.287-6.122C270.165,330.419,229.905,332.869,199.999,355.37z M302.85,367.278
	c2.602,1.946,1.323,6.033-1.933,6.033h-89.819c-3.164,0-4.605-4.024-2.067-5.935c24.941-18.763,58.698-21.013,86.019-5.239
	C297.75,363.696,300.373,365.425,302.85,367.278z"/>
<path d="M412.453,458.56c100.396-77.344,129.823-218.583,65.194-330.526C409.195,9.473,259.312-34.445,137.687,29.079
	c-3.677,1.92-5.102,6.459-3.18,10.137c1.92,3.677,6.457,5.102,10.137,3.18c112.761-58.898,254.64-20.038,319.99,93.15
	c60.836,105.371,33.134,238.317-61.352,311.109c-3.287,2.532-3.899,7.249-1.366,10.537
	C404.449,460.481,409.169,461.091,412.453,458.56z"/>
<path d="M106.868,48.007C0.763,123.905-31.912,269.166,34.367,383.964c70.401,121.937,225.712,164.029,347.997,94.578
	c3.608-2.05,4.871-6.635,2.822-10.244c-2.051-3.609-6.637-4.871-10.244-2.822c-115.109,65.375-261.299,25.747-327.564-89.025
	c-62.369-108.028-31.651-244.776,68.23-316.223c3.375-2.413,4.153-7.106,1.74-10.481C114.936,46.373,110.246,45.592,106.868,48.007z
	"/>
<path d="M109.118,247.618l8.77,17.545c1.856,3.711,6.368,5.215,10.08,3.361c3.711-1.856,5.216-6.368,3.361-10.08l-9.336-18.678
	c-5.187-10.379-19.953-10.645-25.488-0.412l-29.47,54.48c-14.044,26.133,5.679,63.498,40.233,63.498
	c34.683-0.002,54.929-37.146,41.733-63.537l-1.988-3.979c-1.857-3.712-6.37-5.218-10.08-3.361c-3.711,1.856-5.216,6.368-3.361,10.08
	c0.02,0.104,10.178,15.751-1.089,32.388c-5.656,8.35-15.173,13.557-25.738,13.378c-21.247-0.357-35.06-22.256-26.37-41.545
	L109.118,247.618z"/>
<g>
</g>
<g>
</g>
<g>
</g>
<g>
</g>
<g>
</g>
<g>
</g>
<g>
</g>
<g>
</g>
<g>
</g>
<g>
</g>
<g>
</g>
<g>
</g>
<g>
</g>
<g>
</g>
<g>
</g>
</svg>
