<?xml version="1.0" encoding="iso-8859-1"?>
<!-- Generator: Adobe Illustrator 19.0.0, SVG Export Plug-In . SVG Version: 6.00 Build 0)  -->
<svg version="1.1" id="Capa_1" xmlns="http://www.w3.org/2000/svg" xmlns:xlink="http://www.w3.org/1999/xlink" x="0px" y="0px"
	 viewBox="0 0 512.001 512.001" style="enable-background:new 0 0 512.001 512.001;" xml:space="preserve">
<circle style="fill:#F4D44E;" cx="255.958" cy="256.027" r="248.35"/>
<path style="fill:#E8C842;" d="M174.843,446.182C18.478,355.905,8.983,134.835,153.602,30.498
	C107.818,51.096,67.84,85.74,40.82,132.538c-68.455,118.568-27.831,270.18,90.737,338.636
	c87.255,50.377,192.404,41.675,269.14-13.688C330.484,489.076,246.612,487.618,174.843,446.182z"/>
<path d="M377.659,196.837c-1.091-3.996-5.218-6.352-9.207-5.259c-17.103,4.666-34.445,2.735-48.825-5.441
	c-3.599-2.049-8.177-0.789-10.223,2.812c-2.047,3.6-0.788,8.176,2.812,10.223c17.447,9.921,38.758,12.718,60.184,6.873
	C376.395,204.953,378.749,200.831,377.659,196.837z"/>
<path d="M199.707,199.171c3.6-2.047,4.858-6.624,2.812-10.223c-2.047-3.601-6.626-4.86-10.223-2.812
	c-14.381,8.177-31.722,10.108-48.825,5.441c-3.992-1.09-8.116,1.265-9.207,5.259c-1.091,3.995,1.265,8.116,5.259,9.207
	c7.418,2.024,14.887,3.026,22.234,3.026C175.168,209.069,188.174,205.728,199.707,199.171z"/>
<path d="M347.297,283.919c-26.456-17.865-31.187-19.531-31.187-21.822c0-2.169,4.692-4.039,17.767-13.166
	c3.44-2.305,4.358-6.962,2.053-10.401c-2.305-3.441-6.965-4.358-10.401-2.053l-15.586,10.447
	c-11.766,7.889-11.79,22.442,0.052,30.382c29.733,19.075,29.195,20.374,33.173,20.374
	C350.589,297.678,353.497,288.001,347.297,283.919z"/>
<path d="M162.521,296.334l27.656-19.252c11.725-7.909,11.677-22.44-0.06-30.307l-15.585-10.447
	c-3.44-2.306-8.097-1.386-10.401,2.053c-2.306,3.439-1.388,8.097,2.053,10.401c12.979,9.062,17.767,10.997,17.767,13.167
	c0,1.834-1.478,2.104-29.997,22.079c-3.398,2.365-4.234,7.038-1.869,10.436C154.455,297.873,159.132,298.693,162.521,296.334z"/>
<path d="M174.001,355.969c7.768,0,9.883,17.993,27.317,17.993c17.418,0,19.598-17.993,27.319-17.993
	c7.768,0,9.884,17.993,27.318,17.993c17.414,0,19.601-17.993,27.319-17.993c7.769,0,9.887,17.993,27.323,17.993
	c17.421,0,19.597-17.993,27.323-17.993c4.142,0,7.497-3.356,7.497-7.497s-3.356-7.497-7.497-7.497
	c-17.413,0-19.609,17.993-27.323,17.993c-7.769,0-9.887-17.993-27.323-17.993c-17.418,0-19.598,17.993-27.319,17.993
	c-7.768,0-9.884-17.993-27.318-17.993c-17.414,0-19.601,17.993-27.319,17.993c-7.723,0-9.883-17.993-27.317-17.993
	c-4.142,0-7.497,3.356-7.497,7.497S169.86,355.969,174.001,355.969z"/>
<path d="M69.05,430.818c1.476,1.581,3.477,2.381,5.482,2.381c6.503,0,9.954-7.818,5.478-12.613
	C25.338,362.021,0.854,277.503,23.312,193.691C67.11,30.245,262.221-38.664,399.033,62.217c3.334,2.459,8.027,1.749,10.483-1.584
	c2.457-3.333,1.748-8.026-1.584-10.483C262.714-56.934,55.377,16.09,8.828,189.81c-17.688,66.011-8.611,134.96,25.56,194.145
	C44.161,400.883,55.823,416.649,69.05,430.818z"/>
<path d="M434.819,73.008c-2.96-2.896-7.706-2.842-10.602,0.116c-2.895,2.96-2.844,7.706,0.116,10.602
	c59.869,58.574,87.76,147.003,64.278,234.641C443.267,487.592,239.219,551.79,104.876,443.674
	c-3.225-2.596-7.944-2.084-10.541,1.141c-2.596,3.226-2.085,7.945,1.141,10.541c46.934,37.771,103.862,56.569,160.854,56.569
	c197.466,0,318.927-214.56,221.205-383.819C465.821,107.815,451.449,89.279,434.819,73.008z"/>
<g>
</g>
<g>
</g>
<g>
</g>
<g>
</g>
<g>
</g>
<g>
</g>
<g>
</g>
<g>
</g>
<g>
</g>
<g>
</g>
<g>
</g>
<g>
</g>
<g>
</g>
<g>
</g>
<g>
</g>
</svg>
