<?xml version="1.0" encoding="iso-8859-1"?>
<!-- Generator: Adobe Illustrator 19.0.0, SVG Export Plug-In . SVG Version: 6.00 Build 0)  -->
<svg version="1.1" id="Capa_1" xmlns="http://www.w3.org/2000/svg" xmlns:xlink="http://www.w3.org/1999/xlink" x="0px" y="0px"
	 viewBox="0 0 512 512" style="enable-background:new 0 0 512 512;" xml:space="preserve">
<polyline style="fill:#F7C800;" points="200.904,348.81 200.904,429.842 176.725,409.081 152.557,429.842 152.557,197.982 "/>
<path style="fill:#EAEAF2;" d="M491.157,343.211L343.231,491.137L20.847,168.753c-15.331-15.331-16.513-41.288-5.771-68.469
	c6.835-17.269,18.461-35.028,34.325-50.892C90.253,8.54,143.7-4.247,168.773,20.827L491.157,343.211z"/>
<path style="fill:#CBCBD8;" d="M374.575,459.782l-31.344,31.355L20.847,168.753c-15.331-15.331-16.513-41.288-5.771-68.469
	L374.575,459.782z"/>
<path style="fill:#00AEDA;" d="M341.365,193.42c-18.753-18.753-53.377-16.322-86.735,3.199l65.535,65.535
	c33.358-19.521,67.982-21.953,86.735-3.199"/>
<path style="fill:#939AA0;" d="M496.299,413.181c-6.899,16.791-18.312,33.985-33.708,49.39
	c-40.852,40.852-94.288,53.638-119.361,28.565c-20.708-20.708-15.587-60.782,9.848-97.12c5.355-7.655,11.616-15.14,18.717-22.241
	c40.841-40.852,94.288-53.638,119.361-28.565C506.776,358.83,507.702,385.457,496.299,413.181z"/>
<path style="fill:#BABFC5;" d="M496.299,413.181c-6.899,16.791-18.312,33.985-33.708,49.39
	c-40.852,40.852-94.288,53.638-119.361,28.565c-20.708-20.708-15.587-60.782,9.848-97.12c40.756-33.282,95.704-35.699,127.559-3.854
	C487.388,396.913,492.594,404.706,496.299,413.181z"/>
<path style="fill:#939AA0;" d="M462.587,462.572c-40.852,40.852-94.288,53.638-119.361,28.565
	c-25.073-25.073-12.286-78.52,28.565-119.361l32.292,32.292c-26.329,26.319-34.57,60.75-18.408,76.912
	C401.826,497.131,436.269,488.891,462.587,462.572z"/>
<path style="fill:#F7C800;" d="M314.763,166.819c-25.073-25.073-78.514-12.284-119.362,28.564s-53.637,94.289-28.564,119.362
	l-27.427-27.427c-25.073-25.073-12.284-78.514,28.564-119.362s94.289-53.637,119.362-28.564L314.763,166.819z"/>
<path d="M496.803,337.566L496.803,337.566L174.42,15.181C160.565,1.326,139.065-3.207,114.554,2.301
	c-4.564,1.025-7.312,5.697-5.929,10.166l0,0c1.221,3.946,5.262,6.36,9.289,5.446c19.093-4.333,35.32-1.333,45.213,8.56l4.489,4.488
	c-17.731-0.621-38.126,5.015-58.494,16.882c-3.585,2.088-5.225,6.562-3.502,10.335c1.372,3.002,4.284,4.694,7.283,4.694
	c1.37,0,2.759-0.352,4.026-1.094c27.735-16.23,54.682-19.411,71.279-9.016c-17.436-0.318-37.356,5.34-57.247,16.929
	c-3.583,2.088-5.22,6.561-3.496,10.332c1.372,3.002,4.284,4.694,7.283,4.694c1.37,0,2.759-0.352,4.026-1.094
	c27.735-16.23,54.682-19.411,71.279-9.016c-17.436-0.318-37.356,5.34-57.247,16.929c-3.583,2.088-5.22,6.561-3.496,10.332
	c1.372,3.002,4.284,4.694,7.283,4.694c1.37,0,2.759-0.352,4.026-1.094c27.735-16.23,54.682-19.411,71.28-9.016
	c-17.436-0.318-37.356,5.34-57.248,16.929c-3.583,2.088-5.22,6.561-3.497,10.332c1.372,3.002,4.284,4.694,7.283,4.694
	c1.37,0,2.759-0.352,4.026-1.094c27.965-16.365,55.13-19.464,71.691-8.756c-7.056-0.12-14.575,0.746-22.441,2.628
	c-23.957,5.733-48.599,20.339-69.385,41.123c-20.786,20.786-35.391,45.427-41.124,69.385c-1.979,8.273-2.831,16.159-2.597,23.528
	l-92.115-92.115c-10.09-10.09-13.044-26.519-8.32-46.263c5.055-21.132,18.152-43.08,36.875-61.804
	c9.433-9.433,19.977-17.636,30.826-24.016c3.657-2.151,5.021-6.761,3.083-10.535l-0.006-0.013c-2.087-4.066-7.166-5.573-11.11-3.264
	c-12.087,7.077-23.524,15.978-34.084,26.537c-20.78,20.78-35.382,45.421-41.115,69.382c-6.064,25.348-1.603,47.109,12.56,61.271
	L144.572,303.77v125.789c0,2.662,1.18,5.256,3.355,6.79c1.411,0.995,3.027,1.477,4.628,1.477c1.874,0,3.727-0.659,5.205-1.928
	l18.966-16.293l18.804,16.146c1.9,1.632,4.443,2.425,6.899,1.932c3.847-0.772,6.459-4.102,6.459-7.842v-61.754l128.666,128.666
	c0.01,0.009,0.018,0.018,0.027,0.028c10.036,10.036,23.884,15.199,40.121,15.199c6.678,0,13.762-0.874,21.149-2.641
	c23.958-5.733,48.599-20.337,69.384-41.122c20.785-20.785,35.389-45.425,41.122-69.384
	C515.424,373.488,510.964,351.729,496.803,337.566z M335.732,199.078l39.151,39.151c-16.235-0.569-34.701,4.108-53.338,14.012
	l-53.664-53.664c27.849-13.519,53.799-13.55,67.837,0.489C335.723,199.071,335.728,199.074,335.732,199.078z M192.919,412.462
	l-10.992-9.438c-2.993-2.57-7.413-2.569-10.405,0.001l-10.98,9.432v-92.715l0.647,0.647c0.001,0.001,0.002,0.001,0.003,0.002
	l31.726,31.727V412.462z M172.477,309.09c-11.625-11.631-13.667-31.773-5.838-54.797c1.363-4.006-0.55-8.386-4.456-10.015l0,0
	c-4.236-1.767-9.13,0.38-10.609,4.724c-4.039,11.856-5.859,23.253-5.501,33.684l-1.021-1.02
	c-10.087-10.09-13.039-26.517-8.316-46.255c5.057-21.13,18.156-43.08,36.886-61.81c18.729-18.729,40.68-31.829,61.81-36.885
	c19.741-4.725,36.17-1.771,46.259,8.319l0.973,0.973c-7.37-0.235-15.255,0.626-23.523,2.605
	c-23.955,5.734-48.597,20.337-69.385,41.12c-7.625,7.625-14.437,15.784-20.321,24.331c-2.59,3.763-1.483,8.934,2.409,11.325
	l0.003,0.002c3.622,2.225,8.341,1.216,10.751-2.285c5.331-7.742,11.516-15.145,18.45-22.079
	c18.731-18.727,40.682-31.824,61.811-36.883c19.742-4.725,36.17-1.772,46.258,8.316c0.001,0.001,0.002,0.001,0.003,0.002
	l0.231,0.231c-17.759-0.622-38.189,5.033-58.589,16.937c-1.328,0.775-2.474,1.871-3.184,3.233c-1.684,3.229-1.001,6.991,1.41,9.4
	l65.535,65.535c1.538,1.538,3.583,2.339,5.649,2.339c1.382,0,2.773-0.358,4.031-1.093c27.735-16.23,54.683-19.411,71.28-9.016
	c-17.511-0.319-37.527,5.389-57.502,17.077c-3.806,2.227-5.086,7.118-2.859,10.925c1.486,2.538,4.155,3.953,6.899,3.953
	c1.37,0,2.759-0.352,4.026-1.095c27.735-16.23,54.682-19.41,71.28-9.016c-17.511-0.319-37.526,5.389-57.501,17.077
	c-3.806,2.227-5.086,7.118-2.859,10.925c1.486,2.538,4.155,3.953,6.899,3.953c1.37,0,2.759-0.352,4.026-1.095
	c31.232-18.277,61.479-20.021,77.056-4.445c0.003,0.003,0.007,0.006,0.012,0.011l14.105,14.106
	c-7.37-0.234-15.258,0.616-23.531,2.597c-23.958,5.733-48.6,20.337-69.384,41.122c-20.785,20.785-35.389,45.426-41.122,69.384
	c-1.98,8.274-2.831,16.161-2.597,23.529L172.477,309.09z M348.877,485.492L348.877,485.492l-0.015-0.016
	c-10.079-10.091-13.03-26.514-8.307-46.247c4.544-18.99,15.601-38.635,31.385-56.015l21.037,21.037
	c-25.349,28.932-31.262,64.053-12.943,82.372c3.478,3.478,7.567,6.074,12.098,7.838C373.732,498.197,358.448,495.06,348.877,485.492
	z M493.827,395.116c-5.057,21.131-18.155,43.081-36.884,61.809c-22.772,22.772-52.821,31.2-65.618,18.405
	c-12.796-12.796-4.367-42.846,18.405-65.618c3.118-3.118,3.118-8.175,0-11.292l-26.499-26.499
	c17.381-15.784,37.025-26.839,56.015-31.385c6.142-1.469,11.961-2.196,17.37-2.196c11.979,0,21.94,3.565,28.89,10.515
	C495.597,358.945,498.551,375.374,493.827,395.116z"/>
<path d="M84.224,65.687c-3.219,2.767-6.449,5.769-9.602,8.922c-23.321,23.321-38.916,51.747-42.787,77.989
	c-0.643,4.363,2.372,8.422,6.735,9.065c0.395,0.059,0.787,0.086,1.175,0.086c3.895,0,7.305-2.853,7.89-6.821
	c3.38-22.92,17.333-48.08,38.279-69.026c2.871-2.871,5.806-5.598,8.722-8.106c3.344-2.875,3.723-7.917,0.847-11.261
	C92.609,63.192,87.568,62.811,84.224,65.687z"/>
<path d="M106.069,87.532c-3.219,2.767-6.449,5.769-9.602,8.922c-23.321,23.32-38.915,51.746-42.786,77.989
	c-0.643,4.363,2.372,8.422,6.735,9.065c0.395,0.059,0.787,0.086,1.175,0.086c3.895,0,7.305-2.853,7.89-6.821
	c3.38-22.92,17.333-48.08,38.279-69.026c2.871-2.871,5.806-5.598,8.722-8.106c3.344-2.875,3.723-7.917,0.847-11.261
	C114.455,85.036,109.413,84.657,106.069,87.532z"/>
<path d="M127.914,109.377c-3.22,2.769-6.451,5.771-9.602,8.923c-23.321,23.32-38.915,51.745-42.786,77.988
	c-0.643,4.363,2.372,8.422,6.735,9.065c0.395,0.059,0.787,0.086,1.175,0.086c3.895,0,7.305-2.853,7.89-6.821
	c3.38-22.92,17.333-48.08,38.279-69.026c2.869-2.87,5.804-5.597,8.722-8.106c3.344-2.875,3.723-7.917,0.847-11.261
	C136.299,106.882,131.258,106.501,127.914,109.377z"/>
<path d="M104.105,227.198c0.395,0.059,0.787,0.086,1.175,0.086c3.895,0,7.305-2.853,7.89-6.821
	c3.38-22.92,17.333-48.08,38.279-69.026c2.874-2.874,5.808-5.601,8.722-8.106c3.344-2.875,3.723-7.917,0.847-11.261
	c-2.875-3.343-7.917-3.723-11.261-0.847c-3.216,2.765-6.447,5.767-9.602,8.923c-23.321,23.32-38.915,51.745-42.786,77.988
	C96.727,222.496,99.742,226.554,104.105,227.198z"/>
<path d="M301.906,285.066c3.344-2.876,3.723-7.917,0.847-11.261c-2.876-3.344-7.916-3.723-11.261-0.847
	c-3.216,2.766-6.448,5.767-9.602,8.923c-23.321,23.321-38.916,51.746-42.787,77.989c-0.643,4.363,2.372,8.422,6.735,9.065
	c0.395,0.059,0.787,0.086,1.175,0.086c3.895,0,7.305-2.853,7.89-6.821c3.38-22.92,17.333-48.08,38.279-69.026
	C296.057,290.299,298.991,287.572,301.906,285.066z"/>
<path d="M323.751,306.911c3.344-2.876,3.723-7.917,0.847-11.261c-2.877-3.345-7.917-3.723-11.261-0.847
	c-3.216,2.766-6.448,5.767-9.602,8.923c-23.321,23.321-38.916,51.746-42.787,77.989c-0.643,4.363,2.372,8.422,6.735,9.065
	c0.395,0.059,0.787,0.086,1.175,0.086c3.895,0,7.305-2.853,7.89-6.821c3.38-22.92,17.333-48.08,38.279-69.026
	C317.902,312.145,320.836,309.417,323.751,306.911z"/>
<path d="M345.598,328.755c3.343-2.876,3.723-7.917,0.846-11.261c-2.875-3.344-7.917-3.724-11.261-0.846
	c-3.22,2.769-6.45,5.771-9.601,8.922c-23.321,23.321-38.916,51.746-42.787,77.989c-0.643,4.363,2.372,8.422,6.735,9.065
	c0.395,0.059,0.787,0.086,1.175,0.086c3.895,0,7.305-2.853,7.89-6.821c3.38-22.92,17.333-48.08,38.279-69.026
	C339.745,333.992,342.679,331.265,345.598,328.755z"/>
<path d="M236.371,219.529c3.344-2.876,3.723-7.917,0.847-11.261c-2.876-3.345-7.917-3.724-11.261-0.847
	c-3.215,2.765-6.446,5.767-9.602,8.923c-23.321,23.32-38.915,51.747-42.786,77.989c-0.643,4.363,2.372,8.422,6.735,9.065
	c0.395,0.059,0.787,0.086,1.175,0.086c3.895,0,7.305-2.853,7.89-6.821c3.38-22.92,17.333-48.08,38.278-69.026
	C230.523,224.762,233.457,222.035,236.371,219.529z"/>
<path d="M258.216,241.374c3.344-2.876,3.723-7.917,0.848-11.261c-2.876-3.344-7.916-3.723-11.261-0.847
	c-3.216,2.766-6.448,5.767-9.602,8.923c-23.321,23.321-38.916,51.746-42.787,77.989c-0.643,4.363,2.372,8.422,6.735,9.065
	c0.395,0.059,0.787,0.086,1.175,0.086c3.895,0,7.305-2.853,7.89-6.821c3.38-22.92,17.333-48.08,38.279-69.026
	C252.367,246.608,255.301,243.881,258.216,241.374z"/>
<path d="M280.061,263.22c3.344-2.876,3.723-7.917,0.847-11.261c-2.876-3.345-7.917-3.723-11.261-0.847
	c-3.216,2.766-6.448,5.767-9.602,8.923c-23.321,23.321-38.916,51.747-42.787,77.989c-0.643,4.363,2.372,8.422,6.735,9.065
	c0.395,0.059,0.787,0.086,1.175,0.086c3.895,0,7.305-2.853,7.89-6.821c3.38-22.92,17.333-48.08,38.279-69.026
	C274.212,268.454,277.146,265.727,280.061,263.22z"/>
<g>
</g>
<g>
</g>
<g>
</g>
<g>
</g>
<g>
</g>
<g>
</g>
<g>
</g>
<g>
</g>
<g>
</g>
<g>
</g>
<g>
</g>
<g>
</g>
<g>
</g>
<g>
</g>
<g>
</g>
</svg>
