<?xml version="1.0" encoding="iso-8859-1"?>
<!-- Generator: Adobe Illustrator 19.0.0, SVG Export Plug-In . SVG Version: 6.00 Build 0)  -->
<svg version="1.1" id="Capa_1" xmlns="http://www.w3.org/2000/svg" xmlns:xlink="http://www.w3.org/1999/xlink" x="0px" y="0px"
	 viewBox="0 0 512 512" style="enable-background:new 0 0 512 512;" xml:space="preserve">
<path style="fill:#EAEAF2;" d="M128.831,218.472V7.604h366.66v440.631c0,31.017-25.145,56.161-56.162,56.161H128.831H72.67"/>
<path style="fill:#BABFC5;" d="M72.67,504.396L72.67,504.396c-31.017,0-56.162-25.145-56.162-56.161V218.472h112.323v229.762
	C128.831,479.252,103.687,504.396,72.67,504.396z"/>
<rect x="327.365" y="225.108" style="fill:#00AEDA;" width="128.193" height="111.2"/>
<rect x="168.767" y="373.375" style="fill:#EA6A63;" width="128.183" height="74.134"/>
<path d="M487.887,448.234c0,26.818-21.74,48.558-48.558,48.558H113.932c13.754-11.705,22.503-29.124,22.503-48.558V218.472v-99.438
	c0-4.199-3.405-7.604-7.604-7.604l0,0c-4.199,0-7.604,3.405-7.604,7.604v91.834H16.508c-4.199,0-7.604,3.405-7.604,7.604v229.762
	C8.904,483.452,37.453,512,72.67,512h366.66c35.216,0,63.766-28.548,63.766-63.766v-59.525c0-4.199-3.405-7.604-7.604-7.604l0,0
	c-4.199,0-7.604,3.405-7.604,7.604v59.525H487.887z M24.112,448.234V226.076h97.115v28.494H54.714c-4.199,0-7.604,3.405-7.604,7.604
	c0,4.199,3.405,7.604,7.604,7.604h66.513v21.859H54.714c-4.199,0-7.604,3.405-7.604,7.604s3.405,7.604,7.604,7.604h66.513v21.859
	H54.714c-4.199,0-7.604,3.405-7.604,7.604s3.405,7.604,7.604,7.604h66.513v21.859H54.714c-4.199,0-7.604,3.405-7.604,7.604
	c0,4.199,3.405,7.604,7.604,7.604h66.513v21.86H54.714c-4.199,0-7.604,3.405-7.604,7.604c0,4.199,3.405,7.604,7.604,7.604h66.513
	v21.859H54.714c-4.199,0-7.604,3.405-7.604,7.604s3.405,7.604,7.604,7.604h66.018c-3.352,23.529-23.622,41.68-48.061,41.68
	C45.895,496.792,24.112,475.009,24.112,448.234z"/>
<path d="M495.491,0h-366.66c-4.199,0-7.604,3.405-7.604,7.604v75.944c0,4.199,3.405,7.604,7.604,7.604l0,0
	c4.199,0,7.604-3.405,7.604-7.604v-68.34h351.452v338.016c0,4.199,3.405,7.604,7.604,7.604l0,0c4.199,0,7.604-3.405,7.604-7.604
	V7.604C503.095,3.405,499.69,0,495.491,0z"/>
<path d="M168.767,91.153h286.788c4.199,0,7.604-3.405,7.604-7.604c0-4.199-3.405-7.604-7.604-7.604H168.767
	c-4.199,0-7.604,3.405-7.604,7.604C161.163,87.749,164.567,91.153,168.767,91.153z"/>
<path d="M168.767,53.643h46.514c4.199,0,7.604-3.405,7.604-7.604s-3.405-7.604-7.604-7.604h-46.514
	c-4.199,0-7.604,3.405-7.604,7.604S164.567,53.643,168.767,53.643z"/>
<path d="M455.555,53.643c4.199,0,7.604-3.405,7.604-7.604s-3.405-7.604-7.604-7.604h-24.332c-4.199,0-7.604,3.405-7.604,7.604
	s3.405,7.604,7.604,7.604H455.555z"/>
<path d="M408.412,53.643c4.199,0,7.604-3.405,7.604-7.604s-3.405-7.604-7.604-7.604h-24.332c-4.199,0-7.604,3.405-7.604,7.604
	s3.405,7.604,7.604,7.604H408.412z"/>
<path d="M455.558,143.369H327.365c-4.199,0-7.604,3.405-7.604,7.604c0,4.199,3.405,7.604,7.604,7.604h128.193
	c4.199,0,7.604-3.405,7.604-7.604C463.162,146.774,459.757,143.369,455.558,143.369z"/>
<path d="M168.767,158.577h128.183c4.199,0,7.604-3.405,7.604-7.604c0-4.199-3.405-7.604-7.604-7.604H168.767
	c-4.199,0-7.604,3.405-7.604,7.604C161.163,155.173,164.567,158.577,168.767,158.577z"/>
<path d="M455.558,180.436H327.365c-4.199,0-7.604,3.405-7.604,7.604s3.405,7.604,7.604,7.604h128.193
	c4.199,0,7.604-3.405,7.604-7.604S459.757,180.436,455.558,180.436z"/>
<path d="M168.767,195.644h128.183c4.199,0,7.604-3.405,7.604-7.604s-3.405-7.604-7.604-7.604H168.767
	c-4.199,0-7.604,3.405-7.604,7.604S164.567,195.644,168.767,195.644z"/>
<path d="M168.767,232.711h128.183c4.199,0,7.604-3.405,7.604-7.604s-3.405-7.604-7.604-7.604H168.767
	c-4.199,0-7.604,3.405-7.604,7.604S164.567,232.711,168.767,232.711z"/>
<path d="M168.767,269.777h128.183c4.199,0,7.604-3.405,7.604-7.604s-3.405-7.604-7.604-7.604H168.767
	c-4.199,0-7.604,3.405-7.604,7.604S164.567,269.777,168.767,269.777z"/>
<path d="M168.767,306.844h128.183c4.199,0,7.604-3.405,7.604-7.604s-3.405-7.604-7.604-7.604H168.767
	c-4.199,0-7.604,3.405-7.604,7.604S164.567,306.844,168.767,306.844z"/>
<path d="M463.162,225.107c0-4.199-3.405-7.604-7.604-7.604H327.365c-4.199,0-7.604,3.405-7.604,7.604v111.2
	c0,4.199,3.405,7.604,7.604,7.604h128.193c4.199,0,7.604-3.405,7.604-7.604L463.162,225.107L463.162,225.107z M447.954,328.703
	H334.969v-95.992h112.985L447.954,328.703L447.954,328.703z"/>
<path d="M168.767,343.911h128.183c4.199,0,7.604-3.405,7.604-7.604s-3.405-7.604-7.604-7.604H168.767
	c-4.199,0-7.604,3.405-7.604,7.604S164.567,343.911,168.767,343.911z"/>
<path d="M455.558,365.771H327.365c-4.199,0-7.604,3.405-7.604,7.604c0,4.199,3.405,7.604,7.604,7.604h128.193
	c4.199,0,7.604-3.405,7.604-7.604C463.162,369.175,459.757,365.771,455.558,365.771z"/>
<path d="M455.558,402.838H327.365c-4.199,0-7.604,3.405-7.604,7.604c0,4.199,3.405,7.604,7.604,7.604h128.193
	c4.199,0,7.604-3.405,7.604-7.604C463.162,406.242,459.757,402.838,455.558,402.838z"/>
<path d="M455.558,439.904H327.365c-4.199,0-7.604,3.405-7.604,7.604c0,4.199,3.405,7.604,7.604,7.604h128.193
	c4.199,0,7.604-3.405,7.604-7.604C463.162,443.309,459.757,439.904,455.558,439.904z"/>
<path d="M161.163,447.508c0,4.199,3.405,7.604,7.604,7.604h128.183c4.199,0,7.604-3.405,7.604-7.604v-74.134
	c0-4.199-3.405-7.604-7.604-7.604H168.767c-4.199,0-7.604,3.405-7.604,7.604V447.508z M176.371,380.979h112.975v58.927H176.371
	V380.979z"/>
<g>
</g>
<g>
</g>
<g>
</g>
<g>
</g>
<g>
</g>
<g>
</g>
<g>
</g>
<g>
</g>
<g>
</g>
<g>
</g>
<g>
</g>
<g>
</g>
<g>
</g>
<g>
</g>
<g>
</g>
</svg>
