<?xml version="1.0" encoding="iso-8859-1"?>
<!-- Generator: Adobe Illustrator 19.0.0, SVG Export Plug-In . SVG Version: 6.00 Build 0)  -->
<svg version="1.1" id="Capa_1" xmlns="http://www.w3.org/2000/svg" xmlns:xlink="http://www.w3.org/1999/xlink" x="0px" y="0px"
	 viewBox="0 0 512.001 512.001" style="enable-background:new 0 0 512.001 512.001;" xml:space="preserve">
<path style="fill:#F4D44E;" d="M364.844,256.261L364.844,256.261c-8.572,0-15.759-6.477-16.648-15.003L329.618,62.958
	c-3.283-31.516-29.848-55.457-61.535-55.457h-12.082l0,0h-12.083c-31.687,0-58.251,23.94-61.535,55.457l-18.579,178.299
	c-0.889,8.526-8.075,15.003-16.648,15.003l0,0c-51.567,0-93.758,42.191-93.758,93.758l0,0c0,51.567,42.191,93.758,93.758,93.758
	c1.907,0.404,18.367-2.883,26.898,12.41c16.054,28.777,46.823,48.352,81.946,48.353l0,0l0,0l0,0l0,0
	c35.189,0,66.006-19.649,82.036-48.515c4.179-7.525,12.051-12.248,20.658-12.248h6.15c51.567,0,93.758-42.191,93.758-93.758l0,0
	C458.602,298.453,416.411,256.261,364.844,256.261z"/>
<g>
	<path style="fill:#E8C842;" d="M197.164,243.259c8.572,0,15.759-6.477,16.648-15.003L232.39,49.956
		c1.81-17.369,10.701-32.427,23.613-42.455H256l0,0h-12.083c-31.687,0-58.251,23.94-61.535,55.457l-18.578,178.299
		c-0.421,4.039-2.266,7.606-4.992,10.254C170.536,246.213,183.522,243.259,197.164,243.259z"/>
	<path style="fill:#E8C842;" d="M224.061,443.186c-8.547-15.322-24.907-11.989-26.898-12.41c-51.567,0-93.758-42.191-93.758-93.758
		l0,0c0-34.466,18.851-64.74,46.749-81.032c-0.975,0.177-1.975,0.275-2.997,0.275c-51.567,0-93.758,42.191-93.758,93.758l0,0
		c0,51.567,42.192,93.758,93.758,93.758c1.907,0.404,18.367-2.883,26.898,12.41c25.817,46.277,84.269,62.113,129.481,35.308
		C269.446,490.601,239.738,471.286,224.061,443.186z"/>
</g>
<path d="M65.998,397.41c3.728-1.808,5.283-6.295,3.475-10.022c-27.49-56.669,13.953-123.625,77.684-123.625
	c12.453,0,22.817-9.339,24.108-21.726l18.578-178.299c2.893-27.784,26.142-48.735,54.074-48.735h24.164
	c27.933,0,51.18,20.951,54.074,48.733l3.212,30.827c0.431,4.121,4.126,7.116,8.238,6.683c4.121-0.429,7.112-4.118,6.684-8.238
	l-3.212-30.827C333.384,26.732,303.723,0,268.082,0h-24.164c-35.641,0-65.302,26.732-68.996,62.18l-18.578,178.299
	c-0.491,4.721-4.441,8.28-9.187,8.28c-74.806,0-123.495,78.562-91.182,145.175C57.271,396.607,62.266,399.22,65.998,397.41z"/>
<path d="M335.679,121.141c-4.121,0.429-7.112,4.118-6.684,8.238l11.74,112.655c1.29,12.387,11.655,21.728,24.108,21.728
	c23.35,0,45.259,9.284,61.694,26.146c1.471,1.508,3.421,2.265,5.373,2.265c6.575,0,10.018-7.967,5.371-12.737
	c-19.282-19.781-45.007-30.675-72.438-30.675c-4.746,0-8.694-3.56-9.186-8.279l-11.739-112.656
	C343.488,123.704,339.789,120.708,335.679,121.141z"/>
<path d="M364.844,436.277h-10.837c2.121-8.148,3.252-16.691,3.252-25.495c0-4.144-3.357-7.501-7.501-7.501s-7.501,3.357-7.501,7.501
	c0,51.116-45.077,91.611-96.027,85.688c-42.686-4.839-76.489-41.476-76.489-85.688c0-4.144-3.357-7.501-7.501-7.501
	s-7.501,3.357-7.501,7.501c0,8.803,1.131,17.346,3.252,25.495c-4.976-0.76-38.815,5.104-69.176-22.881
	c-3.044-2.808-7.79-2.614-10.6,0.432c-2.808,3.046-2.614,7.791,0.432,10.6c36.418,33.569,76.928,25.747,84.552,26.853
	c35.592,81.245,150.254,80.676,185.597,0h16.044c72.3,0,121.307-74.021,93.378-140.321c-1.608-3.817-6.006-5.608-9.825-4.001
	c-3.818,1.608-5.608,6.008-4,9.825C468.146,373.162,426.497,436.277,364.844,436.277z"/>
<g>
</g>
<g>
</g>
<g>
</g>
<g>
</g>
<g>
</g>
<g>
</g>
<g>
</g>
<g>
</g>
<g>
</g>
<g>
</g>
<g>
</g>
<g>
</g>
<g>
</g>
<g>
</g>
<g>
</g>
</svg>
