<?xml version="1.0" encoding="iso-8859-1"?>
<!-- Generator: Adobe Illustrator 19.0.0, SVG Export Plug-In . SVG Version: 6.00 Build 0)  -->
<svg version="1.1" id="Capa_1" xmlns="http://www.w3.org/2000/svg" xmlns:xlink="http://www.w3.org/1999/xlink" x="0px" y="0px"
	 viewBox="0 0 512 512" style="enable-background:new 0 0 512 512;" xml:space="preserve">
<path style="fill:#D2D7DD;" d="M352.35,452.962H107.333c-14.203,0-25.717,11.514-25.717,25.717l0,0
	c0,14.203,11.514,25.717,25.717,25.717h302.02c11.615,0,21.031-9.416,21.031-21.031v-67.792"/>
<path style="fill:#00AEDA;" d="M430.381,28.63v403.304c0,11.609-9.419,21.027-21.027,21.027H107.334
	c-14.204,0-25.722,11.517-25.722,25.722V33.325c0-14.204,11.517-25.722,25.722-25.722h302.019
	C420.962,7.603,430.381,17.022,430.381,28.63z"/>
<path style="fill:#028BAA;" d="M118.115,7.599v445.359h-10.777c-14.204,0-25.722,11.517-25.722,25.722V33.321
	c0-14.204,11.517-25.722,25.722-25.722C107.338,7.599,118.115,7.599,118.115,7.599z"/>
<path style="fill:#FEFFFF;" d="M356.574,240.691H209.742c-11.945,0-21.629-9.683-21.629-21.629v-63.193
	c0-11.945,9.683-21.629,21.629-21.629h146.832c11.945,0,21.629,9.683,21.629,21.629v63.193
	C378.203,231.007,368.519,240.691,356.574,240.691z"/>
<polygon style="fill:#EA3223;" points="369.134,87.098 338.719,62.559 308.305,87.098 308.305,7.604 369.134,7.604 "/>
<path d="M409.354,0h-40.22h-60.829H107.332C88.959,0,74.012,14.947,74.012,33.321v445.358c0,18.373,14.947,33.322,33.321,33.322
	h302.02c15.79,0,28.636-12.846,28.636-28.634v-26.47v-24.964v-16.358v-26.475V28.634C437.988,12.846,425.142,0,409.354,0z
	 M361.53,15.208v55.984L343.493,56.64c-1.393-1.123-3.083-1.686-4.774-1.686c-1.691,0-3.381,0.562-4.774,1.686l-18.036,14.552
	V15.208H361.53z M107.332,15.208h35.158v430.15h-35.158c-6.676,0-12.894,1.981-18.113,5.374V33.321
	C89.22,23.333,97.345,15.208,107.332,15.208z M409.354,496.792H107.332c-9.465,0-17.245-7.301-18.035-16.565
	c5.331,3.445,11.541,5.3,18.039,5.3h40.69c4.199,0,7.604-3.405,7.604-7.604l0,0c0-4.199-3.405-7.604-7.604-7.604h-40.689
	c-4.623,0-8.97-1.736-12.334-4.872c3.237-3.018,7.564-4.881,12.33-4.881h216.123h28.894h57.003c4.843,0,9.407-1.213,13.41-3.345
	c-0.175,7.25-6.115,13.097-13.406,13.097H183.514c-4.199,0-7.604,3.405-7.604,7.604l0,0c0,4.199,3.405,7.604,7.604,7.604h225.843
	c4.848,0,9.417-1.216,13.423-3.352v1.19C422.78,490.781,416.769,496.792,409.354,496.792z M422.78,415.574v16.358
	c0,7.403-6.022,13.427-13.427,13.427H352.35h-28.894H157.699V15.208h143.002v71.89c0,2.929,1.682,5.598,4.324,6.861
	c2.643,1.263,5.776,0.897,8.054-0.943l25.64-20.686l25.641,20.686c1.378,1.112,3.069,1.686,4.775,1.686
	c1.114,0,2.235-0.244,3.279-0.743c2.641-1.263,4.324-3.932,4.324-6.861v-71.89h32.616c7.403,0,13.427,6.023,13.427,13.427v360.464
	V415.574z"/>
<path d="M356.574,126.636h-26.47c-4.199,0-7.604,3.405-7.604,7.604l0,0c0,4.199,3.405,7.604,7.604,7.604h26.47
	c7.746,0,14.025,6.279,14.025,14.025v63.193c0,7.745-6.279,14.025-14.025,14.025H209.742c-7.746,0-14.025-6.279-14.025-14.025
	v-63.193c0-7.746,6.279-14.025,14.025-14.025h84.876c4.199,0,7.604-3.405,7.604-7.604l0,0c0-4.199-3.405-7.604-7.604-7.604h-84.876
	c-16.145,0-29.233,13.088-29.233,29.233v63.193c0,16.145,13.088,29.233,29.233,29.233h146.834c16.145,0,29.233-13.088,29.233-29.233
	v-63.193C385.807,139.724,372.719,126.636,356.574,126.636z"/>
<g>
</g>
<g>
</g>
<g>
</g>
<g>
</g>
<g>
</g>
<g>
</g>
<g>
</g>
<g>
</g>
<g>
</g>
<g>
</g>
<g>
</g>
<g>
</g>
<g>
</g>
<g>
</g>
<g>
</g>
</svg>
