<?xml version="1.0" encoding="iso-8859-1"?>
<!-- Generator: Adobe Illustrator 19.0.0, SVG Export Plug-In . SVG Version: 6.00 Build 0)  -->
<svg version="1.1" id="Capa_1" xmlns="http://www.w3.org/2000/svg" xmlns:xlink="http://www.w3.org/1999/xlink" x="0px" y="0px"
	 viewBox="0 0 512 512" style="enable-background:new 0 0 512 512;" xml:space="preserve">
<path style="fill:#D2D7DD;" d="M352.349,452.962H107.332c-14.203,0-25.717,11.514-25.717,25.717l0,0
	c0,14.203,11.514,25.717,25.717,25.717h302.02c11.615,0,21.031-9.416,21.031-21.031v-67.792"/>
<path style="fill:#74B800;" d="M430.384,28.629v403.304c0,11.609-9.419,21.027-21.027,21.027H107.338
	c-14.204,0-25.722,11.517-25.722,25.722V33.324c0-14.204,11.517-25.722,25.722-25.722h302.019
	C420.965,7.602,430.384,17.021,430.384,28.629z"/>
<path style="fill:#639602;" d="M118.115,7.602v445.359h-10.777c-14.204,0-25.722,11.517-25.722,25.722V33.324
	c0-14.204,11.517-25.722,25.722-25.722C107.338,7.602,118.115,7.602,118.115,7.602z"/>
<polyline style="fill:#68615A;" points="117.68,452.962 117.68,87.608 117.68,67.33 117.68,7.604 145.025,7.604 145.025,67.33 
	145.025,87.608 145.025,452.962 "/>
<path style="fill:#FEFFFF;" d="M356.573,240.691H209.742c-11.945,0-21.629-9.683-21.629-21.629v-63.193
	c0-11.945,9.683-21.629,21.629-21.629h146.832c11.945,0,21.629,9.683,21.629,21.629v63.193
	C378.202,231.007,368.518,240.691,356.573,240.691z"/>
<path d="M422.78,389.099v26.475v16.358c0,7.415-6.011,13.427-13.427,13.427h-57.004h-28.893H152.629V15.208h41.019
	c4.199,0,7.604-3.405,7.604-7.604l0,0c0-4.199-3.405-7.604-7.604-7.604h-86.315C88.93,0,74.012,14.918,74.012,33.321v445.358
	c0,18.404,14.918,33.322,33.322,33.322h302.02c15.814,0,28.634-12.82,28.634-28.634v-26.47v-24.964v-16.358v-26.475v-56.279
	c0-4.199-3.405-7.604-7.604-7.604l0,0c-4.199,0-7.604,3.405-7.604,7.604V389.099z M352.349,460.566h57.004
	c4.843,0,9.407-1.213,13.41-3.345c-0.175,7.25-6.115,13.097-13.407,13.097H107.338c-4.624,0-8.972-1.736-12.334-4.872
	c3.237-3.018,7.564-4.881,12.329-4.881h216.124H352.349z M137.421,445.358h-12.138V15.208h12.138L137.421,445.358L137.421,445.358z
	 M107.332,15.208h2.743v430.15h-2.743c-6.676,0-12.894,1.981-18.113,5.374V33.321C89.22,23.333,97.346,15.208,107.332,15.208z
	 M409.354,496.792H107.332c-9.464,0-17.245-7.301-18.035-16.565c5.331,3.445,11.541,5.3,18.04,5.3h302.019
	c4.848,0,9.417-1.216,13.424-3.352v1.19C422.78,490.769,416.758,496.792,409.354,496.792z"/>
<path d="M409.354,0h-180.22c-4.199,0-7.604,3.405-7.604,7.604l0,0c0,4.199,3.405,7.604,7.604,7.604h180.22
	c7.415,0,13.427,6.011,13.427,13.427v268.698c0,4.199,3.405,7.604,7.604,7.604l0,0c4.199,0,7.604-3.405,7.604-7.604V28.634
	C437.988,12.82,425.168,0,409.354,0z"/>
<path d="M180.509,155.869v63.193c0,16.118,13.114,29.233,29.233,29.233h146.831c16.118,0,29.233-13.114,29.233-29.233v-63.193
	c0-16.118-13.114-29.233-29.233-29.233H209.742C193.623,126.636,180.509,139.751,180.509,155.869z M195.717,155.869
	c0-7.733,6.291-14.025,14.025-14.025h146.831c7.734,0,14.025,6.292,14.025,14.025v63.193c0,7.733-6.291,14.025-14.025,14.025
	H209.742c-7.734,0-14.025-6.292-14.025-14.025L195.717,155.869L195.717,155.869z"/>
<g>
</g>
<g>
</g>
<g>
</g>
<g>
</g>
<g>
</g>
<g>
</g>
<g>
</g>
<g>
</g>
<g>
</g>
<g>
</g>
<g>
</g>
<g>
</g>
<g>
</g>
<g>
</g>
<g>
</g>
</svg>
