<?xml version="1.0" encoding="iso-8859-1"?>
<!-- Generator: Adobe Illustrator 19.0.0, SVG Export Plug-In . SVG Version: 6.00 Build 0)  -->
<svg version="1.1" id="Capa_1" xmlns="http://www.w3.org/2000/svg" xmlns:xlink="http://www.w3.org/1999/xlink" x="0px" y="0px"
	 viewBox="0 0 512 512" style="enable-background:new 0 0 512 512;" xml:space="preserve">
<path style="fill:#E8C842;" d="M219.235,95.28l38.44,34.943l-0.071,0.595c25.518,17.044,55.878,60.452,61.662,72.527l0.201,0.419
	c-3.63-50.805-18.214-95.879-33.089-124.491c-42.929-36.925-22.398-19.266-28.184-24.243c-12.178-10.442-30.492-9.14-41.071,2.92
	l0,0C207.532,68.888,208.471,85.495,219.235,95.28z"/>
<path style="fill:#DBBC3B;" d="M273.557,108.628l-38.405-35.241c-6.538-5.943-9.444-14.402-8.575-22.578
	c-3.504,1.661-6.734,4.044-9.452,7.143l0,0c-9.593,10.936-8.654,27.543,2.111,37.328l38.44,34.943l-0.071,0.595
	c25.518,17.044,55.878,60.452,61.662,72.527l0.201,0.419c-1.487-20.806-4.812-40.649-9.241-58.795
	C299.04,131.007,285.752,116.774,273.557,108.628z"/>
<path style="fill:#F4D44E;" d="M404.529,215.195c0,0-14.85-123.546-83.576-197.45c-11.11-11.948-29.416-13.662-42.516-3.934l0,0
	c-12.701,9.431-15.938,27.083-7.39,40.395c16.639,25.912,40.672,73.029,46.757,135.798c0.278,6.505-2.98,1.31-2.98,1.31
	l-0.007,0.006c-27.811-43.112-59.404-65.225-79.167-73.429c-4.402-1.827-9.23-2.337-13.936-1.573
	c-16.719,2.713-62.83,10.662-86.171,34.002c-29.395,29.395-1.604,55.603,19.255,55.603c13.788,0,37.388-9.344,51.807-15.682
	c7.419-3.26,16.097-1.168,21.232,5.101l26.923,32.865c3.7,4.517,5.816,10.122,6.022,15.958l2.075,58.614
	c0.169,4.785-1.823,9.392-5.427,12.545l-20.963,18.344c-8.225,8.591-21.475,9.93-31.252,3.158
	c-4.248-3.718-16.161-7.879-18.881-22.079c-5.866-30.625-14.346-56.687-15.2-58.654c-9.691-22.324-28.524-36.711-52.055-27.99
	c-35.082,13-6.873,34.107-3.005,121.551c0.564,12.752,5.563,24.315,13.482,33.194c17.228,19.316,30.187,38.02,57.451,74.327
	c2.75,3.688,5.084,7.669,6.962,11.868l0,0c3.101,6.936,2.674,12.885,2.718,13.327c0,12.22,9.906,22.128,22.128,22.128h128.198
	c11.376,0,20.599-9.222,20.599-20.599c1.189-48.453-3.283-59.83,5.515-76.379c5.058-9.52,9.012-19.577,12.264-29.855
	c3.254-10.284,7.521-21.226,11.75-33.257C421.295,275.706,404.846,219.06,404.529,215.195z"/>
<g>
	<path style="fill:#E8C842;" d="M226.899,482.407c-0.046-0.46,0.4-6.673-2.838-13.917l0,0c-1.961-4.386-4.399-8.542-7.27-12.394
		c-28.471-37.914-42.006-57.448-59.996-77.62c-8.27-9.273-13.492-21.348-14.081-34.665c-3.302-74.639-23.577-102.993-10.871-118.275
		c-4.067,0.105-8.331,0.926-12.761,2.568c-35.082,13-6.873,34.107-3.005,121.552c0.564,12.752,5.563,24.315,13.482,33.194
		c17.228,19.316,30.187,38.02,57.451,74.327c2.75,3.688,5.084,7.669,6.962,11.868l0,0c3.101,6.936,2.674,12.885,2.718,13.327
		c0,12.22,9.906,22.128,22.128,22.128h24.4C233.769,501.599,226.899,492.807,226.899,482.407z"/>
	<path style="fill:#E8C842;" d="M293.832,233.649c-0.216-6.093-2.425-11.948-6.289-16.665l-28.116-34.321
		c-5.363-6.546-14.426-8.731-22.173-5.327c-15.058,6.617-39.704,16.376-54.102,16.376c-25.59,0-53.352-33.451-12.935-64.297
		c-12.958,5.026-25.554,11.786-34.673,20.905c-29.395,29.395-1.604,55.603,19.255,55.603c13.788,0,37.388-9.344,51.807-15.682
		c7.419-3.26,16.097-1.168,21.232,5.101l26.923,32.865c3.7,4.517,5.816,10.122,6.022,15.958c1.99,60.894,2.941,60.716,0.62,65.812
		c-1.972,4.294-3.269,4.686-22.995,21.994l0,0c-2.08,1.514-7.05,8.343-17.755,9.081l-0.001,0.017c0,0,21.433,4.299,41.785-9.346
		c2.668-1.478-0.151,0.835,27.895-23.764c3.763-3.293,5.844-8.104,5.667-13.102L293.832,233.649z"/>
	<path style="fill:#E8C842;" d="M351.483,161.606c-8.458-57.828-30.955-101.45-46.934-126.334
		c-5.443-8.477-6.302-18.638-3.142-27.511c-7.9-0.976-16.143,0.979-22.971,6.049l0,0c-12.701,9.431-15.938,27.083-7.39,40.395
		c24.659,38.402,41.902,85.717,46.757,135.798c0.076,1.784-0.115,2.685-0.43,3.057C355.784,193.061,351.483,161.606,351.483,161.606
		z"/>
</g>
<path d="M197.459,128.793c11.199-2.759,21.191-4.38,25.458-5.072c3.396-0.552,6.804-0.171,9.858,1.097
	c30.55,12.681,65.451,49.777,78.887,76.098c5.612,10.646,13.69,27.803,13.69,39.881c0,4.142,3.357,7.5,7.5,7.5s7.5-3.358,7.5-7.5
	c0-16.64-11.37-39.24-14.538-45.213c-5.027-65.585-29.072-115.242-48.458-145.432c-6.388-9.947-3.95-23.266,5.55-30.32
	c10.033-7.448,24.026-6.147,32.553,3.021c22.922,24.649,54.353,71.214,73.925,153.072c0.962,4.028,5.011,6.515,9.038,5.55
	c4.028-0.963,6.514-5.01,5.55-9.039c-20.329-85.029-53.381-133.831-77.529-159.799c-13.742-14.774-36.303-16.861-52.48-4.848
	c-12.391,9.2-17.559,24.807-14.096,39.098c-15.117-10.312-36.058-7.934-48.386,6.118c-12.206,13.918-10.993,35.371,2.705,47.824
	l8.577,7.797c-3.024,0.286-16.864,2.637-28.898,5.601c-4.021,0.991-6.479,5.054-5.488,9.076
	C189.372,127.326,193.434,129.786,197.459,128.793z M222.765,62.897c7.829-8.926,21.535-9.901,30.55-2.172l25.338,21.727
	c11.48,22.358,22.594,50.992,28.578,85.214c-12.829-16.418-28.09-31.645-44.913-43.361l-38.036-34.576
	C216.596,82.743,215.915,70.706,222.765,62.897z"/>
<path d="M402.399,201.093c-4.092,0.644-6.888,4.482-6.244,8.574c3.093,19.651,16.209,68.834-6.086,132.254
	c-18.078,51.418-16.058,47.125-24.3,63.509c-9.052,18.099-4.384,32.263-5.655,78.471c0,7.222-5.876,13.098-13.098,13.098h-81.974
	c-4.143,0-7.5,3.357-7.5,7.5s3.357,7.5,7.5,7.5h81.974c15.494,0,28.099-12.604,28.099-28.099c1.05-49.522-2.834-58.82,4.638-72.859
	c6.717-12.642,7.257-15.187,24.468-64.145c14.96-42.553,17.623-88.528,7.707-132.99c-0.11-0.864-0.412-3.127-0.953-6.57
	C410.33,203.246,406.499,200.445,402.399,201.093z"/>
<path d="M108.584,349.987c0.618,13.986,6.08,27.43,15.379,37.855c16.367,18.35,28.299,35.469,57.036,73.819
	c9.523,12.772,8.047,20.154,8.191,20.711c0,16.337,13.291,29.628,29.628,29.628h11.222c4.143,0,7.5-3.357,7.5-7.5
	s-3.357-7.5-7.5-7.5h-11.222c-8.065,0-14.628-6.562-14.628-14.628c-0.211-0.954,1.64-12.504-11.167-29.677
	c-27.472-36.657-40.728-55.622-57.866-74.838c-7.006-7.854-11.12-17.988-11.586-28.532c-1.511-34.15-9.457-71.612-10.366-75.809
	c-6.254-28.926-6.478-32.834,8.484-38.379c25.706-9.529,39.083,15.918,42.533,23.859c0.747,1.879,8.944,26.862,14.75,57.163
	c3.427,17.884,17.99,23.263,21.977,26.834c12.788,8.854,29.844,7.208,40.695-3.884l20.731-18.14
	c5.324-4.659,8.233-11.387,7.982-18.456l-2.076-58.613c-0.262-7.431-3.002-14.692-7.715-20.447l-26.923-32.865
	c-7.243-8.84-19.603-11.805-30.053-7.214c-21.76,9.563-39.542,15.048-48.789,15.048c-14.091,0-38.566-18.184-13.951-42.8
	c5.987-5.988,14.308-11.419,24.728-16.143c3.773-1.71,5.445-6.154,3.735-9.927c-1.711-3.773-6.157-5.446-9.927-3.735
	c-12.069,5.47-21.875,11.929-29.144,19.199c-33.559,33.558-3.977,68.407,24.559,68.407c14.63,0,37.889-8.872,54.824-16.315
	c4.313-1.895,9.419-0.667,12.413,2.987l26.922,32.865c2.645,3.228,4.182,7.301,4.329,11.471l2.076,58.615
	c0.09,2.541-0.956,4.959-2.871,6.634c-22.246,19.481-20.998,18.341-21.441,18.802c-5.708,5.964-14.779,6.878-21.564,2.18
	c-5.056-4.274-13.773-6.821-15.785-17.325c-5.984-31.232-14.585-57.69-15.687-60.229c-12.459-28.7-36.616-41.274-61.542-32.037
	c-8.849,3.279-19.318,8.711-21.739,21.714c-1.631,8.757,0.649,19.305,3.814,33.945C99.426,280.762,107.129,317.072,108.584,349.987z
	"/>
<g>
</g>
<g>
</g>
<g>
</g>
<g>
</g>
<g>
</g>
<g>
</g>
<g>
</g>
<g>
</g>
<g>
</g>
<g>
</g>
<g>
</g>
<g>
</g>
<g>
</g>
<g>
</g>
<g>
</g>
</svg>
