<?xml version="1.0" encoding="iso-8859-1"?>
<!-- Generator: Adobe Illustrator 19.0.0, SVG Export Plug-In . SVG Version: 6.00 Build 0)  -->
<svg version="1.1" id="Capa_1" xmlns="http://www.w3.org/2000/svg" xmlns:xlink="http://www.w3.org/1999/xlink" x="0px" y="0px"
	 viewBox="0 0 512.001 512.001" style="enable-background:new 0 0 512.001 512.001;" xml:space="preserve">
<path style="fill:#CC9D72;" d="M397.55,51.363c-96.161-66.93-227.052-55.94-312.047,23.153
	c-89.121,82.751-95.158,238.406,1.171,315.885l338.701-0.114C525.921,309.249,519.664,135.463,397.55,51.363z"/>
<path style="fill:#C19067;" d="M195.537,47.177c15.475-15.647,32.477-28.828,50.508-39.504
	c-58.39,2.476-115.819,25.226-160.542,66.843c-89.121,82.751-95.158,238.406,1.171,315.885l109.993-0.037
	C100.381,306.166,106.429,137.076,195.537,47.177z"/>
<path style="fill:#F4D44E;" d="M417.695,240.357c-23.298-39.984-54.529-69.584-100.418-87.636
	c-25.394-9.99-45.116-26.856-54.744-36.167c-2.823-2.73-6.341-2.535-6.241-2.515c-2.645,0-5.18,1.02-7.089,2.85
	c-9.779,9.375-29.38,25.96-54.471,35.831c-45.379,17.852-77.617,47.636-101.586,89.665c-20.343,35.701-16.973,45.636-16.973,89.808
	c0,93.068,76.575,167.649,170.609,172.096c2.406,0.114,4.824,0.182,7.253,0.203c0.658,0.008,1.313,0.003,1.97,0.004
	c0.657-0.001,1.312,0.004,1.97-0.004c2.429-0.021,4.847-0.089,7.253-0.203c93.782-4.436,170.609-78.707,170.609-172.291
	C435.825,288.245,439.448,277.7,417.695,240.357z"/>
<path style="fill:#E8C842;" d="M126.883,332.193c0-34.026-1.997-97.574,6.383-141.292c-15.57,14.441-28.773,31.588-40.12,51.485
	c-20.343,35.701-16.973,45.636-16.973,89.808c0,93.068,76.575,167.648,170.609,172.096c2.406,0.114,4.824,0.182,7.253,0.203
	c0.658,0.008,1.313,0.003,1.97,0.004c0.657-0.001,1.312,0.004,1.97-0.004c2.429-0.021,4.847-0.089,7.253-0.203
	c5.439-0.257,10.818-0.76,16.132-1.477C194.856,491.139,126.883,419.876,126.883,332.193z"/>
<g>
	<path style="fill:#656566;" d="M307.545,396.285c-23.686-1.033-34.95-4.62-51.03,1.845l-0.71,0.285
		c-1.063-0.339-11.981-5.759-29.3-3.64l-22.44,1.51c-2.286,0.154-2.953,3.199-0.94,4.294l29.714,16.164
		c5.238,2.529,17.173,3.676,22.966,1.675c5.792,2,17.727,0.854,22.966-1.675l29.714-16.164
		C310.497,399.484,309.831,396.438,307.545,396.285z"/>
	<path style="fill:#656566;" d="M192.015,286c-6.384-11.042-20.522-14.825-31.579-8.45c-11.057,6.375-14.845,20.494-8.462,31.536
		s20.522,14.825,31.579,8.45C194.61,311.161,198.399,297.042,192.015,286z"/>
</g>
<path style="fill:#4F4F51;" d="M171.994,297.543c-4.278-7.399-3.982-16.177,0.002-23.083c-3.93-0.004-7.913,0.987-11.56,3.09
	c-11.057,6.375-14.845,20.494-8.462,31.536c6.384,11.042,20.522,14.825,31.579,8.45c3.648-2.103,6.499-5.052,8.46-8.453
	C184.032,309.075,176.272,304.942,171.994,297.543z"/>
<path style="fill:#DBBC3B;" d="M270.154,313.629h-28.289c-3.83,0-6.963,3.129-6.963,6.954v5.288c0,8.992,5.701,17.146,14.292,19.84
	c14.552,4.563,27.924-6.165,27.924-20.013v-5.116C277.118,316.758,273.984,313.629,270.154,313.629z"/>
<path style="fill:#CCAF37;" d="M256.01,320.583c0-3.825,3.134-6.954,6.963-6.954h-21.108c-3.83,0-6.963,3.129-6.963,6.954v5.288
	c0,16.9,18.106,25.801,31.546,18.148C253.547,336.702,256.365,322.322,256.01,320.583z"/>
<path style="fill:#656566;" d="M360.045,286c-6.384-11.042-20.522-14.825-31.579-8.45s-14.845,20.494-8.462,31.536
	c6.384,11.042,20.522,14.825,31.579,8.45S366.429,297.042,360.045,286z"/>
<path style="fill:#4F4F51;" d="M340.027,274.46c-17.647-0.018-28.958,19.17-20.022,34.626c8.935,15.454,31.231,15.269,40.039-0.003
	C352.063,309.075,331.147,289.854,340.027,274.46z"/>
<path d="M234.932,306.095c-4.143,0-7.5,3.357-7.5,7.5v12.086c0,15.774,12.833,28.608,28.607,28.608s28.608-12.834,28.608-28.608
	v-12.086c0-4.143-3.357-7.5-7.5-7.5s-7.5,3.357-7.5,7.5v12.086c0,7.504-6.104,13.608-13.608,13.608
	c-7.503,0-13.607-6.104-13.607-13.608v-12.086C242.432,309.453,239.075,306.095,234.932,306.095z"/>
<path d="M309.438,297.478c0,16.883,13.734,30.617,30.617,30.617s30.617-13.734,30.617-30.617s-13.734-30.617-30.617-30.617
	S309.438,280.595,309.438,297.478z M355.673,297.478c0,8.611-7.006,15.617-15.617,15.617s-15.617-7.006-15.617-15.617
	s7.006-15.617,15.617-15.617S355.673,288.867,355.673,297.478z"/>
<path d="M202.642,297.478c0-16.883-13.734-30.617-30.617-30.617s-30.618,13.734-30.618,30.617s13.735,30.617,30.618,30.617
	S202.642,314.361,202.642,297.478z M172.025,313.095c-8.612,0-15.618-7.006-15.618-15.617s7.006-15.617,15.618-15.617
	c8.611,0,15.617,7.006,15.617,15.617S180.637,313.095,172.025,313.095z"/>
<path d="M382.298,259.446c1.599-3.821-0.202-8.215-4.023-9.814c-22.303-9.333-54.098-9.348-76.438,0
	c-3.821,1.6-5.622,5.993-4.023,9.814c1.6,3.82,5.992,5.621,9.814,4.023c18.557-7.767,46.265-7.781,64.855,0
	C376.304,265.066,380.698,263.268,382.298,259.446z"/>
<path d="M210.243,249.632c-22.298-9.333-54.099-9.35-76.437,0c-3.821,1.599-5.622,5.993-4.022,9.813
	c1.599,3.82,5.993,5.625,9.813,4.022c8.985-3.76,20.501-5.831,32.428-5.831c21.776,0,32.04,6.415,35.319,6.415
	c2.933,0,5.718-1.731,6.921-4.606C215.865,255.625,214.064,251.231,210.243,249.632z"/>
<path d="M191.042,391.924c-1.17,1.356-1.886,3.218-1.803,5.196c0.188,4.454,3.946,6.341,3.733,6.179
	c0.372,0.214,36.816,20.048,37.128,20.198c6.027,2.91,17.904,4.434,25.981,2.681c8.707,1.89,21.371-0.129,26.309-2.847
	c39.382-21.431,37.299-20.102,38.494-21.36c4.027-4.216,1.826-11.448-4.1-12.533c-0.1-0.018-34.565-2.899-44.09-2.469
	c-5.641,0.253-11.301,1.403-16.862,3.413c-9.83-3.519-20.706-4.192-29.973-3.079C193.355,389.532,193.554,389.008,191.042,391.924z
	 M252.57,405.183c2.478,0.957,3.807,1.062,6.779-0.096c12.963-5.211,23.968-2.64,29.827-2.524l-13.766,7.489
	c-3.839,1.763-13.346,2.493-16.874,1.275c-1.458-0.498-2.956-0.522-4.307-0.174c-6.052,1.546-14.284,0.361-17.472-1.101
	l-13.816-7.516C228.529,402.432,239.329,399.858,252.57,405.183z"/>
<path d="M83.797,292.761c0.637-16.354,7.026-28.833,8.121-31.813c15.751-32.941,37.834-61.278,68.21-81.675
	c3.439-2.309,4.354-6.969,2.046-10.407c-2.309-3.44-6.969-4.354-10.407-2.046c-29.644,19.904-51.48,46.241-68.139,77.334
	c-13.409,24.905-14.898,37.326-14.915,57.372c-0.004,30.934-0.555,41.025,2.154,58.087c0.515,3.23,0.899,5.151,1.219,6.748
	c-72.235-79.29-60.688-213.117,19.406-287.136c89.965-82.85,224.035-83.467,312.223-14.113c3.251,2.563,7.968,2.007,10.533-1.246
	c2.564-3.253,2.007-7.969-1.246-10.533c-89.161-70.43-228.747-76.628-331.664,14.854l0.001-0.001
	c-0.003,0.003-0.006,0.005-0.009,0.008c0.101-0.094-0.793,0.733-0.895,0.827c-91.057,84.548-99.107,244.353-0.023,325.904
	c4.82,12.43,11.094,24.359,18.699,35.522c2.343,3.44,7.015,4.298,10.421,1.976c3.423-2.332,4.308-6.997,1.976-10.421
	c-7.893-11.586-14.222-24.063-18.811-37.082c-6.919-19.638-8.518-34.779-8.989-52.916C83.73,288.704,83.698,295.69,83.797,292.761z"
	/>
<path d="M431.711,394.806c95.225-78.532,91.861-230.661,8.252-317.499c-2.871-2.982-7.618-3.074-10.604-0.2
	c-2.983,2.872-3.073,7.62-0.2,10.604c70.894,73.636,81.345,200.977,10.863,278.51c2.231-11.18,3.35-22.509,3.35-34.028
	c-0.004-7.489,0.009-35.304-0.022-37.323c-0.259-27.857-16.13-56.028-32.34-78.685c-23.333-32.522-53.984-55.902-90.952-70.445
	c-24.229-9.531-43.151-25.756-52.275-34.58c-6.695-6.472-17.196-5.952-23.733,0.314c-26.082,25.004-47.827,32.221-60.465,37.818
	c-3.787,1.678-5.497,6.108-3.819,9.896c1.677,3.786,6.108,5.497,9.896,3.819c10.618-4.706,35.709-12.846,64.77-40.705
	c0.773-0.742,2.162-1.098,2.926-0.358c9.926,9.6,30.558,27.27,57.211,37.755c78.443,30.859,101.676,96.137,106.028,102.133
	c5.099,10.789,7.66,22.493,7.755,33.171c-0.211,37.117,2.347,57.812-8.966,89.914c-40.86,115.906-195.989,150.554-286.229,62.82
	c-2.972-2.888-7.719-2.819-10.606,0.15c-2.887,2.97-2.82,7.718,0.149,10.605C218.042,551.184,383.612,519.319,431.711,394.806z"/>
<g>
</g>
<g>
</g>
<g>
</g>
<g>
</g>
<g>
</g>
<g>
</g>
<g>
</g>
<g>
</g>
<g>
</g>
<g>
</g>
<g>
</g>
<g>
</g>
<g>
</g>
<g>
</g>
<g>
</g>
</svg>
