<?xml version="1.0" encoding="iso-8859-1"?>
<!-- Generator: Adobe Illustrator 19.0.0, SVG Export Plug-In . SVG Version: 6.00 Build 0)  -->
<svg version="1.1" id="Capa_1" xmlns="http://www.w3.org/2000/svg" xmlns:xlink="http://www.w3.org/1999/xlink" x="0px" y="0px"
	 viewBox="0 0 512 512" style="enable-background:new 0 0 512 512;" xml:space="preserve">
<rect x="7.604" y="391.349" style="fill:#028BAA;" width="496.789" height="59.311"/>
<polyline style="fill:#00AEDA;" points="473.463,82.638 504.396,82.638 504.396,423.77 256.002,423.77 7.607,423.77 7.607,82.638 
	38.54,82.638 "/>
<g>
	<path style="fill:#ECF1F5;" d="M255.998,359.807V104.328c0-23.736,19.242-42.977,42.977-42.977h174.486v298.058"/>
	<path style="fill:#ECF1F5;" d="M255.998,359.807V104.328c0-23.736-19.242-42.977-42.977-42.977H38.536v298.058"/>
</g>
<g>
	<path style="fill:#9DA8AA;" d="M213.021,316.829H38.536v74.514h217.463v-31.537C255.998,336.071,236.757,316.829,213.021,316.829z"
		/>
	<path style="fill:#9DA8AA;" d="M298.977,316.829h174.486v74.514H255.998v-31.537C255.998,336.071,275.24,316.829,298.977,316.829z"
		/>
</g>
<path d="M512,82.638c0-4.199-3.405-7.604-7.604-7.604h-23.331V61.35c0-4.199-3.405-7.604-7.604-7.604H298.977
	c-18.125,0-34.045,9.588-42.978,23.951c-8.933-14.364-24.854-23.951-42.977-23.951H38.536c-4.199,0-7.604,3.405-7.604,7.604v13.683
	H7.607c-4.199,0-7.604,3.405-7.604,7.604v341.059c0,0.023-0.003,0.046-0.003,0.069v26.885c0,4.199,3.405,7.604,7.604,7.604h496.789
	c4.199,0,7.604-3.405,7.604-7.604v-26.812c0-0.023,0.003-0.046,0.003-0.069V82.638z M496.792,90.242v325.92h-233.19v-17.214h209.859
	c4.199,0,7.604-3.405,7.604-7.604v-74.514V90.242H496.792z M46.14,374.11h126.218c4.199,0,7.604-3.405,7.604-7.604
	c0-4.199-3.405-7.604-7.604-7.604H46.14v-10.139h79.077c4.199,0,7.604-3.405,7.604-7.604c0-4.199-3.405-7.604-7.604-7.604H46.14
	v-9.124h166.882c19.505,0,35.373,15.869,35.373,35.374v23.932H46.14V374.11z M298.977,68.954h166.882v240.271h-66.282
	c-4.199,0-7.604,3.405-7.604,7.604l0,0c0,4.199,3.405,7.604,7.604,7.604h66.282v9.124h-83.2c-4.164,0-7.794,3.208-7.919,7.37
	c-0.13,4.306,3.323,7.838,7.601,7.838h83.518v10.139H335.516c-4.164,0-7.795,3.208-7.919,7.37c-0.13,4.306,3.323,7.838,7.601,7.838
	h130.661v9.63H263.602v-23.932c0-19.537,15.837-35.374,35.374-35.374h65.113c4.199,0,7.604-3.405,7.604-7.604l0,0
	c0-4.199-3.405-7.604-7.604-7.604h-65.113c-13.759,0-26.246,5.53-35.374,14.473v-219.37
	C263.602,84.792,279.44,68.954,298.977,68.954z M30.932,90.242v62.351c0,4.199,3.405,7.604,7.604,7.604l0,0
	c4.199,0,7.604-3.405,7.604-7.604V68.954h166.882c19.536,0,35.373,15.837,35.373,35.373v219.371
	c-9.128-8.944-21.614-14.473-35.373-14.473H46.14V188.079c0-4.199-3.405-7.604-7.604-7.604l0,0c-4.199,0-7.604,3.405-7.604,7.604
	v128.75v74.514c0,4.199,3.405,7.604,7.604,7.604h209.859v17.214H15.211V90.242H30.932z M15.208,431.374h233.187v11.674H15.208
	V431.374z M263.602,443.047v-11.674h233.187v11.674H263.602z"/>
<path d="M325.951,114.575h83.639c4.199,0,7.604-3.405,7.604-7.604s-3.405-7.604-7.604-7.604h-83.639
	c-4.199,0-7.604,3.405-7.604,7.604S321.751,114.575,325.951,114.575z"/>
<path d="M325.951,252.959h83.639c4.199,0,7.604-3.405,7.604-7.604s-3.405-7.604-7.604-7.604h-83.639
	c-4.199,0-7.604,3.405-7.604,7.604S321.751,252.959,325.951,252.959z"/>
<path d="M325.951,218.364h83.639c4.199,0,7.604-3.405,7.604-7.604s-3.405-7.604-7.604-7.604h-83.639
	c-4.199,0-7.604,3.405-7.604,7.604S321.751,218.364,325.951,218.364z"/>
<path d="M325.951,183.768h83.639c4.199,0,7.604-3.405,7.604-7.604s-3.405-7.604-7.604-7.604h-83.639
	c-4.199,0-7.604,3.405-7.604,7.604S321.751,183.768,325.951,183.768z"/>
<path d="M325.951,149.172h83.639c4.199,0,7.604-3.405,7.604-7.604s-3.405-7.604-7.604-7.604h-83.639
	c-4.199,0-7.604,3.405-7.604,7.604S321.751,149.172,325.951,149.172z"/>
<path d="M102.408,114.575h83.639c4.199,0,7.604-3.405,7.604-7.604s-3.405-7.604-7.604-7.604h-83.639
	c-4.199,0-7.604,3.405-7.604,7.604S98.208,114.575,102.408,114.575z"/>
<path d="M102.408,252.959h83.639c4.199,0,7.604-3.405,7.604-7.604s-3.405-7.604-7.604-7.604h-83.639
	c-4.199,0-7.604,3.405-7.604,7.604S98.208,252.959,102.408,252.959z"/>
<path d="M102.408,218.364h83.639c4.199,0,7.604-3.405,7.604-7.604s-3.405-7.604-7.604-7.604h-83.639
	c-4.199,0-7.604,3.405-7.604,7.604S98.208,218.364,102.408,218.364z"/>
<path d="M102.408,183.768h83.639c4.199,0,7.604-3.405,7.604-7.604s-3.405-7.604-7.604-7.604h-83.639
	c-4.199,0-7.604,3.405-7.604,7.604S98.208,183.768,102.408,183.768z"/>
<path d="M102.408,149.172h83.639c4.199,0,7.604-3.405,7.604-7.604s-3.405-7.604-7.604-7.604h-83.639
	c-4.199,0-7.604,3.405-7.604,7.604S98.208,149.172,102.408,149.172z"/>
<g>
</g>
<g>
</g>
<g>
</g>
<g>
</g>
<g>
</g>
<g>
</g>
<g>
</g>
<g>
</g>
<g>
</g>
<g>
</g>
<g>
</g>
<g>
</g>
<g>
</g>
<g>
</g>
<g>
</g>
</svg>
