<?xml version="1.0" encoding="iso-8859-1"?>
<!-- Generator: Adobe Illustrator 19.0.0, SVG Export Plug-In . SVG Version: 6.00 Build 0)  -->
<svg version="1.1" id="Capa_1" xmlns="http://www.w3.org/2000/svg" xmlns:xlink="http://www.w3.org/1999/xlink" x="0px" y="0px"
	 viewBox="0 0 512 512" style="enable-background:new 0 0 512 512;" xml:space="preserve">
<polygon style="fill:#764F43;" points="504.399,327.527 504.399,491.448 7.607,491.448 7.607,327.527 63.471,274.208 
	448.525,274.208 "/>
<polygon style="fill:#5B392F;" points="504.399,327.527 504.399,473.878 448.525,473.878 448.525,274.208 "/>
<path style="fill:#CA936C;" d="M7.604,327.524h170.109v33.784c0,43.237,35.05,78.287,78.287,78.287l0,0
	c43.237,0,78.287-35.05,78.287-78.287v-33.784h170.109v163.925H7.604V327.524z"/>
<path style="fill:#E8181C;" d="M323.102,58.819c-0.001,0.001-163.637,144.559-57.237,311.132
	c-6.604-31.553-8.071-154.832,94.66-213.536l20.081,52.368l89.989-165.374L308.428,20.549L323.102,58.819z"/>
<path d="M509.644,322.031l0.004-0.005l-55.873-53.319c-1.414-1.35-3.294-2.103-5.25-2.103H282.113
	c11.487-35.704,33.652-72.91,74.564-98.986l16.829,43.887c1.063,2.77,3.638,4.669,6.598,4.866c2.954,0.191,5.763-1.347,7.181-3.953
	l89.989-165.375c1.565-2.875,1.147-6.517-1.281-8.997c-1.204-1.23-2.835-1.956-4.539-2.196L309.489,13.02
	c-3.234-0.456-6.457,1.2-7.934,4.265c-0.928,1.926-0.923,4.176-0.156,6.172l12.769,33.298
	c-11.108,10.692-43.338,44.088-66.556,92.115c-16.467,34.062-24.977,68.477-25.296,102.289c-0.049,5.164,0.098,10.311,0.433,15.443
	h-69.045c-4.199,0-7.604,3.405-7.604,7.604l0,0c0,4.199,3.405,7.604,7.604,7.604h70.605c4.426,31.637,16.187,62.547,35.149,92.232
	c1.433,2.243,3.878,3.511,6.411,3.511c1.392,0,2.813-0.384,4.101-1.201c2.698-1.713,3.946-5.013,3.301-8.142
	c-2.866-13.911-4.837-48.185,4.54-86.399h163.115v38.109H334.287c-4.199,0-7.604,3.405-7.604,7.604v32.883
	c0,38.914-31.073,71.203-69.986,71.581c-39.293,0.381-71.381-31.472-71.381-70.679v-33.784c0-4.199-3.405-7.604-7.604-7.604H71.075
	v-38.109h47.143c4.199,0,7.604-3.405,7.604-7.604l0,0c0-4.199-3.405-7.604-7.604-7.604H63.472c-1.955,0-3.835,0.753-5.25,2.103
	l-55.864,53.32l0.001,0.001C0.908,323.413,0,325.361,0,327.525V491.45c0,4.199,3.405,7.604,7.604,7.604h362.542
	c4.199,0,7.604-3.405,7.604-7.604l0,0c0-4.199-3.405-7.604-7.604-7.604H15.208V335.129h154.901v25.084
	c0,47.286,37.758,86.524,85.044,86.982c47.748,0.463,86.739-38.244,86.739-85.887v-26.18h154.901v148.717h-91.16
	c-4.199,0-7.604,3.405-7.604,7.604l0,0c0,4.199,3.405,7.604,7.604,7.604h98.764c4.199,0,7.604-3.405,7.604-7.604V327.525
	C512,325.363,511.093,323.415,509.644,322.031z M264.866,271.336c-6.534,23.615-8.845,46.057-9.101,64.195
	c-12.389-27.38-18.512-55.593-18.242-84.227c0.296-31.551,8.297-63.788,23.78-95.813c26.555-54.931,66.44-90.625,66.84-90.98
	c2.373-2.102,3.194-5.456,2.059-8.415l-10.052-26.214l138.526,19.526l-76.869,141.263l-14.18-36.981
	c-0.795-2.071-2.455-3.693-4.544-4.439c-2.092-0.746-4.403-0.541-6.328,0.56C311.48,175.682,279.705,217.705,264.866,271.336z
	 M55.867,319.921H26.59l29.277-27.943V319.921z M456.133,291.978l29.28,27.942h-29.28V291.978z"/>
<g>
</g>
<g>
</g>
<g>
</g>
<g>
</g>
<g>
</g>
<g>
</g>
<g>
</g>
<g>
</g>
<g>
</g>
<g>
</g>
<g>
</g>
<g>
</g>
<g>
</g>
<g>
</g>
<g>
</g>
</svg>
