<?xml version="1.0" encoding="iso-8859-1"?>
<!-- Generator: Adobe Illustrator 19.0.0, SVG Export Plug-In . SVG Version: 6.00 Build 0)  -->
<svg version="1.1" id="Capa_1" xmlns="http://www.w3.org/2000/svg" xmlns:xlink="http://www.w3.org/1999/xlink" x="0px" y="0px"
	 viewBox="0 0 512 512" style="enable-background:new 0 0 512 512;" xml:space="preserve">
<polyline style="fill:#E9BB91;" points="7.604,128.32 64.724,7.605 447.277,7.605 504.396,128.32 275.33,195.232 "/>
<rect x="7.604" y="128.324" style="fill:#CA936C;" width="496.791" height="376.081"/>
<g>
	<polygon style="fill:#764F43;" points="295.097,128.324 295.097,232.721 216.898,232.721 216.898,128.324 225.891,7.604 
		286.105,7.604 	"/>
	<rect x="216.895" y="399.998" style="fill:#764F43;" width="78.199" height="104.397"/>
</g>
<polyline style="fill:#8E6459;" points="216.901,128.32 225.891,7.605 286.109,7.605 295.099,128.32 "/>
<rect x="331.086" y="180.021" style="fill:#F5FFFF;" width="135.34" height="104.934"/>
<path d="M512,396.977V128.32c0-1.164-0.27-2.263-0.737-3.249l0.006-0.003L454.15,4.352c-1.257-2.657-3.934-4.351-6.873-4.351
	H286.126c-0.007,0-0.013-0.001-0.02-0.001h-60.214c-0.007,0-0.013,0.001-0.02,0.001H64.723c-2.939,0-5.616,1.694-6.873,4.351
	L0.732,125.069l0.006,0.003c-0.467,0.985-0.737,2.084-0.737,3.248v376.076c0,4.199,3.404,7.604,7.604,7.604h496.791
	c4.2,0,7.604-3.405,7.604-7.604v-87.14h-15.208v79.536h-194.09v-96.794c0-4.199-3.404-7.604-7.604-7.604h-78.199
	c-4.2,0-7.604,3.405-7.604,7.604v96.794H15.208V135.924h60.399v-15.208H19.615L69.537,15.209h148.162l-7.859,105.507H95.887v15.208
	h113.407v96.797c0,4.199,3.404,7.604,7.604,7.604h78.199c4.2,0,7.604-3.405,7.604-7.604v-96.797h194.09v261.053H512z
	 M224.502,407.602h62.991v89.189h-62.991L224.502,407.602L224.502,407.602z M492.386,120.716h-190.23l-7.859-105.507h148.165
	L492.386,120.716z M232.95,15.209h46.097l7.858,105.507H225.09L232.95,15.209z M287.493,225.117h-62.991v-89.193h62.991V225.117z"/>
<path d="M72.696,438.054c4.2,0,7.604-3.405,7.604-7.604v-60.18l12.601,12.601c1.485,1.485,3.431,2.227,5.378,2.227
	c1.946,0,3.892-0.742,5.378-2.227c2.97-2.97,2.97-7.784,0-10.753l-25.582-25.583c-1.426-1.427-3.36-2.227-5.378-2.227
	s-3.95,0.801-5.378,2.227l-25.583,25.583c-2.97,2.97-2.97,7.784,0,10.753c2.971,2.97,7.784,2.971,10.754,0l12.602-12.602v60.18
	C65.092,434.65,68.496,438.054,72.696,438.054z"/>
<path d="M179.691,372.119l-25.582-25.583c-1.426-1.427-3.36-2.227-5.378-2.227c-2.018,0-3.95,0.801-5.378,2.227l-25.582,25.583
	c-2.97,2.97-2.97,7.784,0,10.753c2.971,2.97,7.784,2.97,10.754,0l12.601-12.601v60.18c0,4.199,3.404,7.604,7.604,7.604
	s7.604-3.405,7.604-7.604v-60.18l12.601,12.601c1.485,1.485,3.431,2.227,5.378,2.227c1.946,0,3.892-0.742,5.378-2.227
	C182.66,379.902,182.66,375.087,179.691,372.119z"/>
<path d="M47.604,464.414h126.218c4.2,0,7.604-3.405,7.604-7.604s-3.404-7.604-7.604-7.604H47.604c-4.2,0-7.604,3.405-7.604,7.604
	S43.404,464.414,47.604,464.414z"/>
<path d="M331.089,172.421c-4.2,0-7.604,3.405-7.604,7.604v104.929c0,4.199,3.404,7.604,7.604,7.604h135.343
	c4.2,0,7.604-3.405,7.604-7.604V180.025c0-4.199-3.404-7.604-7.604-7.604H331.089z M458.829,277.35H338.693v-89.721h120.135
	L458.829,277.35L458.829,277.35z"/>
<path d="M360.49,221.875h77.556c4.2,0,7.604-3.405,7.604-7.604c0-4.199-3.404-7.604-7.604-7.604H360.49
	c-4.2,0-7.604,3.405-7.604,7.604C352.886,218.47,356.29,221.875,360.49,221.875z"/>
<path d="M360.49,258.312h77.556c4.2,0,7.604-3.405,7.604-7.604c0-4.199-3.404-7.604-7.604-7.604H360.49
	c-4.2,0-7.604,3.405-7.604,7.604C352.886,254.908,356.29,258.312,360.49,258.312z"/>
<g>
</g>
<g>
</g>
<g>
</g>
<g>
</g>
<g>
</g>
<g>
</g>
<g>
</g>
<g>
</g>
<g>
</g>
<g>
</g>
<g>
</g>
<g>
</g>
<g>
</g>
<g>
</g>
<g>
</g>
</svg>
