<?xml version="1.0" encoding="iso-8859-1"?>
<!-- Generator: Adobe Illustrator 19.0.0, SVG Export Plug-In . SVG Version: 6.00 Build 0)  -->
<svg version="1.1" id="Capa_1" xmlns="http://www.w3.org/2000/svg" xmlns:xlink="http://www.w3.org/1999/xlink" x="0px" y="0px"
	 viewBox="0 0 512 512" style="enable-background:new 0 0 512 512;" xml:space="preserve">
<path style="fill:#D3DAE0;" d="M342.243,231.112V150.97c0-79.179-64.186-143.365-143.355-143.365
	c-79.179,0-143.365,64.186-143.365,143.365v80.142 M107.221,231.112V150.97c0-50.552,41.125-91.667,91.667-91.667
	s91.657,41.115,91.657,91.667v80.142"/>
<g>
	<path style="fill:#899EA8;" d="M207.25,7.855c-2.767-0.159-5.554-0.249-8.362-0.249c-79.179,0-143.365,64.186-143.365,143.365
		v80.142h16.725V150.97C72.248,74.6,131.964,12.185,207.25,7.855z"/>
	<path style="fill:#899EA8;" d="M215.613,59.302c-2.819,0-5.608,0.135-8.363,0.385c46.636,4.238,83.294,43.549,83.294,91.282v80.142
		h16.725v-80.142C307.27,100.418,266.155,59.302,215.613,59.302z"/>
</g>
<rect x="8.069" y="231.109" style="fill:#F79F00;" width="381.631" height="273.288"/>
<rect x="8.069" y="231.109" style="fill:#E48900;" width="33.449" height="273.288"/>
<path style="fill:#D0D9E0;" d="M442.174,366.983c0-14.145-11.521-25.667-25.667-25.667c-14.259,0-25.667,11.521-25.667,25.667
	c0,9.81,5.589,18.366,13.69,22.587v114.647c-25.211-43.464-75.519-94.456-75.519-94.456l29.318-124.457h116.244l29.318,124.457
	c0,0-50.194,50.992-75.519,94.456V389.569C436.47,385.349,442.174,376.793,442.174,366.983z"/>
<path style="fill:#B2BBC1;" d="M390.84,366.983c0,9.81,5.589,18.366,13.69,22.587v114.647
	c-25.211-43.464-75.519-94.456-75.519-94.456l29.318-124.457h58.179v56.011C402.247,341.315,390.84,352.837,390.84,366.983z"/>
<rect x="341.712" y="7.605" style="fill:#473E51;" width="149.508" height="277.647"/>
<rect x="341.712" y="7.605" style="fill:#332A3C;" width="42.889" height="277.647"/>
<polyline style="fill:#D0D9E0;" points="491.225,172.822 341.713,172.822 341.713,210.093 491.225,210.093 "/>
<polyline style="fill:#B2BBC1;" points="384.604,172.822 341.713,172.822 341.713,210.093 384.604,210.093 "/>
<path d="M511.327,408.016l-27.169-115.164h7.066c4.199,0,7.603-3.404,7.603-7.603V7.605c0-4.199-3.404-7.603-7.603-7.603H341.713
	c-4.199,0-7.603,3.404-7.603,7.603v76.175c-8.109-16.304-19.189-31.158-32.877-43.788c-27.617-25.484-63.433-39.654-100.99-39.987
	C116.469-0.737,47.92,68.859,47.92,152.638v70.868H8.072c-4.199,0-7.603,3.404-7.603,7.603V429.79c0,4.199,3.404,7.603,7.603,7.603
	l0,0c4.199,0,7.603-3.404,7.603-7.603V238.711H334.11v46.538c0,4.199,3.404,7.603,7.603,7.603h7.065l-27.168,115.164
	c-0.6,2.545,0.149,5.22,1.986,7.083c0.403,0.409,33.1,33.71,58.504,68.762v12.934H15.675v-31.527c0-4.199-3.404-7.603-7.603-7.603
	l0,0c-4.199,0-7.603,3.404-7.603,7.603v39.129c0,4.199,3.404,7.603,7.603,7.603h381.63c2.976,0,5.546-1.712,6.793-4.203
	c0.653,0.011,0.771,0.013,1.425,0.024c1.888,3.442,6.124,4.928,9.812,3.266c2.771-1.248,4.456-4.118,4.456-7.157V389.492
	c0-2.82-1.636-5.325-4.127-6.649c-7.021-3.733-10.903-11.495-9.297-19.439c1.688-8.349,9.215-14.501,17.733-14.486
	c9.948,0.016,18.036,8.113,18.036,18.064c0,6.69-3.776,12.819-9.846,15.96c-2.463,1.275-3.939,3.891-3.939,6.664v114.361
	c0,2.854,1.487,5.572,4.011,6.903c1.16,0.611,2.388,0.899,3.591,0.899c2.656,0,5.182-1.397,6.568-3.775
	c24.533-42.089,73.926-92.393,74.421-92.897C511.178,413.237,511.927,410.561,511.327,408.016z M349.316,217.696h134.307v59.951
	H349.316V217.696z M483.622,15.208V165.22h-20.14c-4.199,0-7.603,3.404-7.603,7.603l0,0c0,4.199,3.404,7.603,7.603,7.603h20.14
	v22.066H349.316v-22.066h78.687c4.199,0,7.603-3.404,7.603-7.603l0,0c0-4.199-3.404-7.603-7.603-7.603h-78.687V15.208H483.622z
	 M282.942,223.505H114.823v-72.536c0-46.354,37.711-84.065,84.065-84.065c46.349,0,84.054,37.711,84.054,84.065V223.505z
	 M298.147,223.505v-72.536c0-54.738-44.528-99.27-99.26-99.27c-54.738,0-99.27,44.532-99.27,99.27v72.536H63.125v-72.539
	c0-74.858,60.903-135.761,135.763-135.761c34.218,0,66.903,12.772,92.034,35.962c24.914,22.989,40.242,54.151,43.188,87.774v84.565
	h-35.963V223.505z M469.886,435.699c-13.326,15.396-24.674,29.713-33.932,42.802v-84.685c8.603-6.211,13.785-16.12,13.785-26.834
	c0-18.345-14.925-33.269-33.27-33.269c-18.345,0-33.269,14.925-33.269,33.269c0,10.714,5.181,20.623,13.784,26.834v84.685
	c-9.258-13.089-20.605-27.405-33.932-42.802c-11.393-13.162-21.045-23.406-25.687-28.242l27.036-114.606h104.134l27.037,114.606
	C490.931,412.293,481.28,422.537,469.886,435.699z"/>
<g>
</g>
<g>
</g>
<g>
</g>
<g>
</g>
<g>
</g>
<g>
</g>
<g>
</g>
<g>
</g>
<g>
</g>
<g>
</g>
<g>
</g>
<g>
</g>
<g>
</g>
<g>
</g>
<g>
</g>
</svg>
