<?xml version="1.0" encoding="iso-8859-1"?>
<!-- Generator: Adobe Illustrator 19.0.0, SVG Export Plug-In . SVG Version: 6.00 Build 0)  -->
<svg version="1.1" id="Capa_1" xmlns="http://www.w3.org/2000/svg" xmlns:xlink="http://www.w3.org/1999/xlink" x="0px" y="0px"
	 viewBox="0 0 512 512" style="enable-background:new 0 0 512 512;" xml:space="preserve">
<path style="fill:#D3DAE0;" d="M321.142,233.641V161.64c0-71.135-57.666-128.802-128.793-128.802
	c-71.135,0-128.802,57.666-128.802,128.802v72.001 M109.994,233.641V161.64c0-45.417,36.947-82.355,82.355-82.355
	s82.346,36.938,82.346,82.355v72.001"/>
<g>
	<path style="fill:#899EA8;" d="M199.863,33.064c-2.487-0.143-4.99-0.224-7.513-0.224c-71.135,0-128.802,57.666-128.802,128.802
		v72.001h15.027v-72.001C78.575,93.028,132.226,36.955,199.863,33.064z"/>
	<path style="fill:#899EA8;" d="M207.376,79.285c-2.533,0-5.038,0.122-7.513,0.347c41.899,3.807,74.834,39.125,74.834,82.009v72.001
		h15.026V161.64C289.722,116.223,252.784,79.285,207.376,79.285z"/>
</g>
<rect x="20.915" y="233.636" style="fill:#F79F00;" width="342.86" height="245.528"/>
<rect x="20.915" y="233.636" style="fill:#E48900;" width="30.052" height="245.528"/>
<path style="fill:#F9C900;" d="M297.888,168.492c0,36.771,20.566,68.727,50.8,85.045v70.71l-15.045,24.065l15.045,24.065
	l-15.045,24.065l15.046,24.065l-15.045,24.065l64.651,34.59l41.987-15.045V253.517c30.249-16.323,50.8-48.263,50.8-85.025
	c0-53.331-43.265-96.537-96.596-96.537C341.094,71.956,297.888,115.161,297.888,168.492z M394.485,105.262
	c18.1,0,32.774,14.675,32.774,32.774s-14.675,32.774-32.774,32.774c-18.1,0-32.774-14.675-32.774-32.774
	C361.71,119.938,376.386,105.262,394.485,105.262z"/>
<path d="M402.328,53.924c-33.86,0-64.183,15.419-84.316,39.598c-10.569-21.794-26.427-40.53-46.461-54.682
	c-24.152-17.06-52.574-26.129-82.229-26.246c-79.353-0.31-144.276,65.884-144.276,145.239v66.937H7.604
	c-4.199,0-7.604,3.405-7.604,7.604v188.22c0,4.199,3.405,7.604,7.604,7.604l0,0c4.199,0,7.604-3.405,7.604-7.604V239.976h308.489
	c6.646,6.832,14.23,12.855,22.635,17.851v68.1l-14.739,23.582c-1.541,2.466-1.541,5.595,0,8.059l13.375,21.401l-13.374,21.398
	c-1.541,2.466-1.541,5.596,0,8.061l13.374,21.398l-13.374,21.396c-1.117,1.785-1.443,3.953-0.9,5.988s1.904,3.753,3.76,4.748
	l27.826,14.889v7.354H15.208v-29.154c0-4.199-3.405-7.604-7.604-7.604l0,0c-4.199,0-7.604,3.405-7.604,7.604v36.758
	c0,4.199,3.405,7.604,7.604,7.604h362.281c4.199,0,7.604-3.405,7.604-7.604v-6.821l25.279,13.525
	c1.115,0.596,2.348,0.899,3.587,0.899c0.866,0,1.733-0.148,2.564-0.445l44.365-15.894c3.022-1.083,5.04-3.948,5.04-7.159V294.307
	c0-4.199-3.405-7.604-7.604-7.604l0,0c-4.199,0-7.604,3.405-7.604,7.604v176.249l-29.157,10.447V252.909
	c0-4.164-3.209-7.795-7.371-7.919c-4.306-0.129-7.837,3.323-7.837,7.601v226.521l-49.949-26.725l11.582-18.527
	c1.542-2.467,1.542-5.596,0.001-8.061l-13.375-21.398l13.375-21.398c1.541-2.467,1.541-5.596,0-8.06l-13.375-21.401l13.375-21.4
	c0.754-1.208,1.156-2.605,1.156-4.03v-74.72c0-2.819-1.579-5.376-4.057-6.716c-30.608-16.553-49.618-48.404-49.618-83.138
	c0-52.054,42.376-94.402,94.463-94.402s94.464,42.349,94.464,94.402c0,34.749-19.037,66.612-49.685,83.154
	c-2.46,1.327-3.993,3.896-3.993,6.692v6.473c0,4.199,3.405,7.604,7.604,7.604l0,0c4.199,0,7.604-3.405,7.604-7.604v-2.044
	C491.549,238.064,512,202.354,512,163.539C512,103.095,462.802,53.924,402.328,53.924z M268.151,224.768H109.329v-68.472
	c0-43.789,35.626-79.415,79.416-79.415c43.785,0,79.405,35.626,79.405,79.415V224.768z M311.355,224.768h-27.996v-68.472
	c0-52.176-42.444-94.623-94.613-94.623c-52.176,0-94.624,42.448-94.624,94.623v68.472H60.253v-68.475
	c0-70.851,57.641-128.492,128.491-128.492c26.703,0,52.303,8.113,74.032,23.461c20.278,14.323,35.782,33.887,45.042,56.727
	c-9.627,16.299-15.16,35.288-15.16,55.546C292.657,185.772,299.378,206.985,311.355,224.768z"/>
<path d="M374.512,252.59v170.072c0,4.2,3.404,7.604,7.604,7.604c4.2,0,7.604-3.404,7.604-7.604V252.59
	c0-4.2-3.404-7.604-7.604-7.604C377.916,244.986,374.512,248.39,374.512,252.59z"/>
<path d="M444.565,131.356c0-23.29-18.947-42.237-42.237-42.237s-42.236,18.947-42.236,42.237s18.947,42.236,42.236,42.236
	C425.616,173.592,444.565,154.645,444.565,131.356z M375.3,131.356c0-14.904,12.125-27.029,27.028-27.029
	c14.904,0,27.029,12.125,27.029,27.029c0,14.903-12.125,27.028-27.029,27.028C387.425,158.384,375.3,146.259,375.3,131.356z"/>
<g>
</g>
<g>
</g>
<g>
</g>
<g>
</g>
<g>
</g>
<g>
</g>
<g>
</g>
<g>
</g>
<g>
</g>
<g>
</g>
<g>
</g>
<g>
</g>
<g>
</g>
<g>
</g>
<g>
</g>
</svg>
