<?xml version="1.0" encoding="iso-8859-1"?>
<!-- Generator: Adobe Illustrator 19.0.0, SVG Export Plug-In . SVG Version: 6.00 Build 0)  -->
<svg version="1.1" id="Capa_1" xmlns="http://www.w3.org/2000/svg" xmlns:xlink="http://www.w3.org/1999/xlink" x="0px" y="0px"
	 viewBox="0 0 511.999 511.999" style="enable-background:new 0 0 511.999 511.999;" xml:space="preserve">
<path style="fill:#30303A;" d="M446.379,443.615H65.621c-32.042,0-58.017-25.975-58.017-58.017V126.402
	c0-32.042,25.975-58.017,58.017-58.017h380.76c32.042,0,58.017,25.975,58.017,58.017v259.196
	C504.397,417.64,478.422,443.615,446.379,443.615z"/>
<path style="fill:#777E84;" d="M283.092,121.641l-23.101,17.84c-7.463,5.764-16.626,8.89-26.055,8.89H75.548
	c-12.908,0-23.373,10.464-23.373,23.373v204.133c0,12.908,10.464,23.373,23.373,23.373h360.905
	c12.908,0,23.373-10.464,23.373-23.373V136.123c0-12.908-10.464-23.373-23.373-23.373H309.147
	C299.718,112.751,290.555,115.878,283.092,121.641z"/>
<rect x="82.505" y="180.996" style="fill:#A1EA13;" width="346.978" height="117.721"/>
<polygon style="fill:#E4FC9A;" points="429.488,180.999 429.488,298.719 263.475,298.719 331.849,180.999 "/>
<path style="fill:#EC0829;" d="M123.457,326.965h-22.354c-10.267,0-18.59,8.323-18.59,18.59l0,0c0,10.267,8.323,18.59,18.59,18.59
	h22.354c10.267,0,18.59-8.323,18.59-18.59l0,0C142.047,335.288,133.724,326.965,123.457,326.965z"/>
<g>
	<path style="fill:#E4E7EC;" d="M315.084,326.965H292.73c-10.267,0-18.59,8.323-18.59,18.59l0,0c0,10.267,8.323,18.59,18.59,18.59
		h22.354c10.267,0,18.59-8.323,18.59-18.59l0,0C333.674,335.288,325.351,326.965,315.084,326.965z"/>
	<path style="fill:#E4E7EC;" d="M219.271,326.965h-22.354c-10.267,0-18.59,8.323-18.59,18.59l0,0c0,10.267,8.323,18.59,18.59,18.59
		h22.354c10.267,0,18.59-8.323,18.59-18.59l0,0C237.861,335.288,229.537,326.965,219.271,326.965z"/>
	<path style="fill:#E4E7EC;" d="M410.898,326.965h-22.354c-10.267,0-18.59,8.323-18.59,18.59l0,0c0,10.267,8.323,18.59,18.59,18.59
		h22.354c10.267,0,18.59-8.323,18.59-18.59l0,0C429.488,335.288,421.165,326.965,410.898,326.965z"/>
</g>
<path d="M437.091,181.001c0-4.199-3.403-7.603-7.603-7.603H82.512c-4.2,0-7.603,3.404-7.603,7.603v117.724
	c0,4.199,3.403,7.603,7.603,7.603h346.975c4.2,0,7.603-3.404,7.603-7.603V181.001H437.091z M421.885,291.122H90.115V188.603h331.77
	v102.518H421.885z"/>
<path d="M436.453,105.149H309.147c-11.111,0-21.909,3.684-30.703,10.476l-23.1,17.84c-6.132,4.736-13.661,7.305-21.409,7.305
	H122.742c-4.199,0-7.603,3.404-7.603,7.603l0,0c0,4.199,3.404,7.603,7.603,7.603h111.192c11.051,0,21.955-3.72,30.702-10.475
	l23.1-17.84c6.132-4.736,13.662-7.305,21.409-7.305h127.305c8.71,0,15.77,7.06,15.77,15.77v239.753
	c0,8.709-7.06,15.769-15.769,15.769h-78.531c-4.199,0-7.603,3.404-7.603,7.603l0,0c0,4.199,3.404,7.603,7.603,7.603h78.531
	c17.107,0,30.976-13.868,30.976-30.976V136.123C467.428,119.016,453.56,105.149,436.453,105.149z"/>
<path d="M59.778,375.877V171.744c0-8.71,7.06-15.77,15.77-15.77h11.715c4.199,0,7.603-3.404,7.603-7.603l0,0
	c0-4.199-3.404-7.603-7.603-7.603H75.547c-17.107,0-30.976,13.868-30.976,30.976v204.133c0,17.107,13.867,30.975,30.975,30.975
	h246.895c4.199,0,7.603-3.404,7.603-7.603l0,0c0-4.199-3.404-7.603-7.603-7.603H75.547
	C66.837,391.646,59.778,384.585,59.778,375.877z"/>
<path d="M446.38,60.782H65.62C29.437,60.782,0,90.219,0,126.402v259.195c0,36.183,29.437,65.62,65.62,65.62h380.76
	c36.183,0,65.62-29.437,65.62-65.62V126.402C512,90.219,482.563,60.782,446.38,60.782z M496.795,385.598
	c0,27.799-22.617,50.414-50.414,50.414H65.62c-27.798,0-50.414-22.616-50.414-50.414V126.402c0-27.799,22.617-50.414,50.414-50.414
	h380.76c27.799,0,50.414,22.617,50.414,50.414v259.196H496.795z"/>
<path d="M101.102,319.362c-14.443,0-26.193,11.75-26.193,26.193s11.75,26.193,26.193,26.193h22.355
	c14.443,0,26.193-11.75,26.193-26.193s-11.75-26.193-26.193-26.193H101.102z M134.445,345.555c0,6.059-4.929,10.987-10.987,10.987
	h-22.355c-6.059,0-10.987-4.929-10.987-10.987c0-6.059,4.929-10.987,10.987-10.987h22.355
	C129.516,334.568,134.445,339.496,134.445,345.555z"/>
<path d="M315.084,319.362h-22.355c-14.443,0-26.193,11.75-26.193,26.193s11.75,26.193,26.193,26.193h22.355
	c14.443,0,26.193-11.75,26.193-26.193S329.527,319.362,315.084,319.362z M315.084,356.543h-22.355
	c-6.059,0-10.987-4.929-10.987-10.987c0-6.059,4.929-10.987,10.987-10.987h22.355c6.059,0,10.987,4.929,10.987,10.987
	C326.072,351.614,321.143,356.543,315.084,356.543z"/>
<path d="M196.917,319.362c-14.443,0-26.193,11.75-26.193,26.193s11.75,26.193,26.193,26.193h22.354
	c14.443,0,26.193-11.75,26.193-26.193s-11.75-26.193-26.193-26.193H196.917z M230.257,345.555c0,6.059-4.929,10.987-10.987,10.987
	h-22.354c-6.059,0-10.987-4.929-10.987-10.987c0-6.059,4.929-10.987,10.987-10.987h22.354
	C225.329,334.568,230.257,339.496,230.257,345.555z"/>
<path d="M410.898,319.362h-22.355c-14.443,0-26.193,11.75-26.193,26.193s11.75,26.193,26.193,26.193h22.355
	c14.443,0,26.193-11.75,26.193-26.193S425.341,319.362,410.898,319.362z M410.898,356.543h-22.355
	c-6.059,0-10.987-4.929-10.987-10.987c0-6.059,4.929-10.987,10.987-10.987h22.355c6.059,0,10.987,4.929,10.987,10.987
	C421.885,351.614,416.956,356.543,410.898,356.543z"/>
<g>
</g>
<g>
</g>
<g>
</g>
<g>
</g>
<g>
</g>
<g>
</g>
<g>
</g>
<g>
</g>
<g>
</g>
<g>
</g>
<g>
</g>
<g>
</g>
<g>
</g>
<g>
</g>
<g>
</g>
</svg>
