<?xml version="1.0" encoding="iso-8859-1"?>
<!-- Generator: Adobe Illustrator 19.0.0, SVG Export Plug-In . SVG Version: 6.00 Build 0)  -->
<svg version="1.1" id="Capa_1" xmlns="http://www.w3.org/2000/svg" xmlns:xlink="http://www.w3.org/1999/xlink" x="0px" y="0px"
	 viewBox="0 0 512.004 512.004" style="enable-background:new 0 0 512.004 512.004;" xml:space="preserve">
<path style="fill:#7C5748;" d="M183.799,392.264l-63.23-63.23c0,0-57.809-14.542-94.281,50.299
	c-36.532,64.781,11.919,125.152,11.919,125.152c15.674-29.143,24.613-26.163,59.596-34.328
	C132.785,461.992,183.8,435.173,183.799,392.264z"/>
<path style="fill:#5F4C44;" d="M144.466,352.931l-23.899-23.899c0,0-57.809-14.542-94.281,50.299
	c-36.532,64.781,11.919,125.152,11.919,125.152C14.665,417.652,116.098,367.114,144.466,352.931z"/>
<path style="fill:#DB1F16;" d="M47.682,351.501c-7.509,7.032-14.781,16.09-21.395,27.831
	c-36.532,64.781,11.919,125.152,11.919,125.152c15.674-29.143,24.613-26.163,59.596-34.328c5.78-1.371,12.039-3.218,18.356-5.602
	c-1.61-5.781-1.431-13.111,3.158-21.991c0,0-25.268-7.39-42.432-24.554c-4.113-4.113-6.437-8.582-8.045-13.408
	C63.713,389.224,66.692,370.512,47.682,351.501z"/>
<path style="fill:#B22627;" d="M47.682,351.501c-7.509,7.032-14.781,16.09-21.395,27.831
	c-36.532,64.781,11.919,125.152,11.919,125.152c-11.324-41.718,6.198-74.972,30.633-99.883
	C63.713,389.224,66.692,370.512,47.682,351.501z"/>
<path style="fill:#C0C9D2;" d="M226.458,345.748l-65.206-65.206c-5.168-5.168-13.547-5.168-18.714,0l-25.873,25.873
	c-5.168,5.168-5.168,13.547,0,18.714l65.206,65.206c5.168,5.168,13.547,5.168,18.714,0l25.873-25.873
	C231.626,359.294,231.626,350.916,226.458,345.748z"/>
<path style="fill:#A6AEBA;" d="M142.973,332.458l25.607-25.607c5.241-5.241,13.739-5.241,18.981,0l-26.176-26.176
	c-5.241-5.241-13.739-5.241-18.981,0l-25.607,25.607c-5.241,5.241-5.241,13.739,0,18.981l26.176,26.176
	C137.732,346.198,137.732,337.699,142.973,332.458z"/>
<path style="fill:#F89E00;" d="M222.211,341.504c24.897-3.636,60.833-25.915,118.738-83.819
	C441.325,157.309,519.866,37.741,494.56,12.437c-25.305-25.305-144.871,53.235-245.248,153.611
	c-57.903,57.903-80.184,93.839-83.82,118.738"/>
<path style="fill:#D38302;" d="M272.24,188.976c-57.903,57.903-83.602,90.422-92.56,109.997l-14.187-14.187
	c3.636-24.898,25.915-60.833,83.82-118.738C349.689,65.673,469.255-12.867,494.561,12.438
	C481.915-0.207,372.616,88.6,272.24,188.976z"/>
<path d="M499.942,7.066c-10.949-10.951-31.39-9.187-62.492,5.393c-24.591,11.526-54.81,30.697-87.726,55.625
	c-3.366,2.55-4.008,7.363-1.43,10.707l0,0c2.551,3.308,7.296,3.929,10.626,1.405C439.178,19.36,480.742,9.375,489.187,17.82
	c6.59,6.59,2.498,32.805-30.719,85.005c-29.564,46.457-74.357,100.942-122.894,149.482c-48.822,48.823-85.135,75.367-110.811,80.991
	l-51.064-51.064c5.622-25.675,32.166-61.987,80.99-110.812c24.211-24.21,50.576-48.101,76.613-69.441
	c3.223-2.642,3.699-7.393,1.083-10.637l-0.001-0.001c-2.655-3.293-7.482-3.78-10.754-1.098
	c-26.41,21.647-53.147,45.875-77.696,70.422c-47,47.001-73.77,82.594-82.94,110.508c-7.767-3.764-17.395-2.449-23.834,3.989
	l-25.874,25.874c-5.14,5.14-7.016,12.317-5.654,18.956c-4.456,0.029-9.609,0.391-15.221,1.375c-4.409,0.773-7.208,5.166-6.036,9.486
	v0.001c1.036,3.82,4.821,6.164,8.72,5.485c11.095-1.931,19.976-0.943,23.688-0.338l59.305,59.303
	c-1.809,26.514-27.041,46.398-52.734,58.033c0.496-2.281,1.349-4.629,2.601-7.04c0.598-1.153,0.995-2.417,0.983-3.716
	c-0.031-3.527-2.342-6.394-5.479-7.312c-0.234-0.068-23.583-7.025-39.19-22.632c-6.069-6.068-7.366-13.573-9.008-23.071
	c-1.881-10.887-4.168-24.087-14.855-37.47c1.627-1.295,3.288-2.52,4.981-3.671c3.235-2.201,4.216-6.532,2.31-9.949l-0.003-0.005
	c-2.178-3.903-7.234-5.095-10.93-2.581c-13.777,9.371-25.568,22.665-35.123,39.624c-15.996,28.404-18.88,60.55-8.337,92.964
	c7.879,24.229,20.416,40.018,20.945,40.677c1.451,1.808,3.637,2.846,5.931,2.846c0.23,0,0.461-0.01,0.694-0.031
	c2.54-0.232,4.794-1.722,6.004-3.967c11.493-21.341,16.904-22.466,39.679-27.205c4.374-0.91,9.333-1.942,14.958-3.258
	c21.34-4.994,42.854-14.942,59.025-27.296c18.295-13.977,29.246-30.573,32.11-48.456c0.195,0.005,0.386,0.028,0.582,0.028
	c5.566,0,10.798-2.168,14.735-6.104l25.874-25.874c6.439-6.44,7.754-16.07,3.988-23.837c27.917-9.171,63.507-35.941,110.506-82.941
	c49.287-49.291,94.836-104.719,124.969-152.071C505.509,57.233,515.146,22.268,499.942,7.066z M96.046,462.731
	c-5.441,1.274-10.302,2.284-14.591,3.177c-20.577,4.282-31.611,6.577-43.632,24.295c-11.037-18.568-30.413-61.98-4.932-107.223
	c4.331-7.689,9.152-14.489,14.429-20.382c7.551,9.901,9.213,19.497,10.953,29.561c1.848,10.696,3.76,21.755,13.24,31.237
	c12.358,12.357,28.311,19.938,37.734,23.666c-1.278,4.181-1.805,8.319-1.585,12.39C103.647,460.768,99.742,461.866,96.046,462.731z
	 M221.08,359.084l-25.874,25.875c-1.064,1.064-2.476,1.649-3.98,1.649s-2.916-0.585-3.98-1.65l-65.207-65.205
	c-2.195-2.195-2.195-5.767,0-7.961l25.874-25.874c1.097-1.098,2.538-1.647,3.98-1.647c1.442,0,2.883,0.549,3.98,1.647l65.207,65.207
	C223.275,353.319,223.275,356.89,221.08,359.084z"/>
<g>
</g>
<g>
</g>
<g>
</g>
<g>
</g>
<g>
</g>
<g>
</g>
<g>
</g>
<g>
</g>
<g>
</g>
<g>
</g>
<g>
</g>
<g>
</g>
<g>
</g>
<g>
</g>
<g>
</g>
</svg>
