<?xml version="1.0" encoding="iso-8859-1"?>
<!-- Generator: Adobe Illustrator 19.0.0, SVG Export Plug-In . SVG Version: 6.00 Build 0)  -->
<svg version="1.1" id="Capa_1" xmlns="http://www.w3.org/2000/svg" xmlns:xlink="http://www.w3.org/1999/xlink" x="0px" y="0px"
	 viewBox="0 0 512 512" style="enable-background:new 0 0 512 512;" xml:space="preserve">
<path style="fill:#CFD0D3;" d="M460.525,467.718c-53.508,46.922-135.213,40.789-182.442-12.448L33.049,179.066
	C-3.406,137.973-0.59,74.791,40.293,38.101C81.344,1.261,144.702,4.913,181.259,46.119l174.356,196.536
	c25.353,28.577,23.57,72.534-4.761,98.163c-28.608,25.88-72.924,23.391-98.467-5.402l-152.14-171.493
	c-6.291-7.091-5.642-17.94,1.449-24.231l0,0c7.091-6.291,17.94-5.642,24.231,1.449l151.702,171
	c12.707,14.323,34.677,16.369,49.295,4.005c15.059-12.737,16.615-35.377,3.597-50.049L156.236,69.641
	c-23.752-26.773-64.833-30.254-91.965-6.914c-27.617,23.757-30.359,65.584-6.27,92.738l245.901,277.182
	c34.578,38.977,94.394,43.708,133.705,9.509c39.695-34.534,43.53-94.951,8.692-134.221L246.809,83.068
	c-6.291-7.091-5.642-17.94,1.449-24.231l0,0c7.091-6.291,17.94-5.642,24.231,1.449L471.98,285.153
	C519.339,338.539,514.253,420.603,460.525,467.718z"/>
<path d="M477.65,280.122l-4.405-4.965c-2.779-3.131-7.57-3.419-10.701-0.64l0,0c-3.131,2.779-3.419,7.57-0.64,10.701l4.405,4.965
	c21.568,24.313,32.324,55.619,30.285,88.152c-2.04,32.529-16.623,62.248-41.066,83.682
	c-50.032,43.874-127.087,38.588-171.773-11.779L106.509,250.447c-2.779-3.131-7.57-3.419-10.701-0.64l0,0
	c-3.132,2.779-3.419,7.57-0.64,10.701l177.245,199.792c27.349,30.829,65.501,46.608,103.677,46.605
	c31.898-0.002,63.816-11.023,89.435-33.488c27.499-24.116,43.907-57.546,46.201-94.133
	C514.018,342.693,501.917,307.477,477.65,280.122z"/>
<path d="M45.356,43.745c18.33-16.452,42.01-24.741,66.656-23.334c24.657,1.404,47.234,12.32,63.575,30.739l174.356,196.536
	c22.723,25.615,20.851,64.871-4.176,87.51c-12.313,11.138-28.254,16.765-44.859,15.855c-16.621-0.913-31.839-8.252-42.852-20.665
	L105.919,158.892c-1.699-1.914-2.55-4.376-2.398-6.931c0.153-2.555,1.291-4.898,3.206-6.596c3.953-3.506,10.021-3.143,13.529,0.81
	l151.703,171c15.481,17.452,42.336,19.586,59.862,4.762c8.838-7.476,14.163-17.96,14.991-29.519
	c0.828-11.565-2.942-22.698-10.618-31.349L161.907,64.611c-26.598-29.983-72.617-33.406-102.58-7.63
	c-14.889,12.808-23.818,30.671-25.143,50.298c-1.325,19.634,5.12,38.534,18.146,53.217l245.901,277.182
	c20.496,23.103,49.138,34.941,77.779,34.94c23.743-0.001,47.486-8.14,66.572-24.743c20.719-18.026,33.108-43.075,34.884-70.536
	c1.776-27.465-7.279-53.901-25.497-74.436L252.48,78.036c-1.699-1.914-2.549-4.377-2.398-6.931c0.153-2.555,1.292-4.897,3.207-6.596
	c3.95-3.506,10.021-3.146,13.529,0.809l172.005,193.886c2.779,3.131,7.57,3.419,10.701,0.64l0,0c3.132-2.779,3.419-7.57,0.64-10.701
	L278.16,55.255c-10.043-11.319-28.218-11.236-38.058,1.226c-2.166,2.744-3.721,5.951-4.516,9.355
	c-1.892,8.106,0.202,16.234,5.551,22.263l199.491,224.867c15.512,17.485,23.222,39.999,21.709,63.395
	c-1.512,23.392-12.062,44.727-29.705,60.076c-35.86,31.197-91.064,27.242-123.058-8.821L63.672,150.435
	c-10.309-11.621-15.409-26.585-14.36-42.134c1.049-15.543,8.117-29.687,19.902-39.826c23.721-20.406,60.214-17.627,81.35,6.197
	l174.287,196.457c4.944,5.572,7.372,12.746,6.837,20.203c-0.534,7.453-3.964,14.21-9.66,19.027
	c-11.292,9.551-28.665,8.095-38.727-3.248L131.597,136.111c-4.387-4.944-10.436-7.884-17.034-8.278
	c-7.678-0.456-15.012,2.588-20.196,8.503c-2.82,3.218-4.75,7.163-5.559,11.363c-1.497,7.769,0.641,15.477,5.768,21.256
	l152.139,171.492c13.718,15.463,32.669,24.606,53.361,25.742c20.692,1.129,40.527-5.878,55.863-19.75
	c31.167-28.193,33.565-77.008,5.346-108.816L186.929,41.088c-19.038-21.461-45.338-34.18-74.055-35.816
	C84.159,3.638,56.586,13.293,35.229,32.46c-43.708,39.226-47.231,107.25-7.851,151.637l44.709,50.397
	c2.779,3.131,7.57,3.419,10.701,0.64l0,0c3.132-2.779,3.419-7.57,0.64-10.701L38.72,174.036
	C4.858,135.865,7.835,77.417,45.356,43.745z"/>
<g>
</g>
<g>
</g>
<g>
</g>
<g>
</g>
<g>
</g>
<g>
</g>
<g>
</g>
<g>
</g>
<g>
</g>
<g>
</g>
<g>
</g>
<g>
</g>
<g>
</g>
<g>
</g>
<g>
</g>
</svg>
