<?xml version="1.0" encoding="iso-8859-1"?>
<!-- Generator: Adobe Illustrator 19.0.0, SVG Export Plug-In . SVG Version: 6.00 Build 0)  -->
<svg version="1.1" id="Capa_1" xmlns="http://www.w3.org/2000/svg" xmlns:xlink="http://www.w3.org/1999/xlink" x="0px" y="0px"
	 viewBox="0 0 512.001 512.001" style="enable-background:new 0 0 512.001 512.001;" xml:space="preserve">
<path style="fill:#BEC5CB;" d="M125.674,498.493c-10.288,0-20.743-1.493-31.085-4.632c-56.595-17.172-88.668-77.186-71.496-133.78
	l89.11-293.683c6.435-21.206,20.743-38.639,40.288-49.084s41.989-12.653,63.196-6.22c21.206,6.434,38.639,20.743,49.085,40.288
	c10.446,19.544,12.655,41.989,6.22,63.196l-63.19,208.259c-4.504,14.843-14.518,27.043-28.199,34.354
	c-13.682,7.31-29.388,8.858-44.232,4.352c-14.842-4.503-27.043-14.517-34.354-28.197s-8.858-29.388-4.353-44.232l54.725-180.362
	c2.398-7.903,10.749-12.366,18.652-9.968l0,0c7.902,2.398,12.366,10.749,9.968,18.651L125.283,297.8
	c-2.184,7.199-1.435,14.816,2.111,21.451c3.546,6.635,9.463,11.49,16.661,13.676c7.522,2.281,15.501,1.36,22.337-2.605
	c6.308-3.659,10.842-9.749,12.96-16.727l63.02-207.7c4.543-14.974,2.349-30.911-6.234-44.255c-5.938-9.231-14.69-16.42-24.9-20.45
	c-14.769-5.83-30.842-4.878-44.652,2.501c-12.5,6.68-21.651,17.83-25.765,31.392L51.712,368.765
	c-12.384,40.813,10.746,84.093,51.56,96.478c40.815,12.382,84.094-10.747,96.478-51.561l71.316-235.04
	c2.681-8.837,12.018-13.826,20.854-11.145l12.62,3.829l-76.171,251.039C214.336,468.618,171.686,498.493,125.674,498.493z"/>
<path style="fill:#D3D8DE;" d="M384.17,504.527c-13.459,0.001-26.793-3.31-39-9.834c-19.545-10.446-33.853-27.878-40.288-49.084
	l-89.11-293.683C198.6,95.331,230.674,35.318,287.267,18.146c27.415-8.32,56.429-5.462,81.698,8.04
	c25.268,13.504,43.764,36.039,52.083,63.454l71.828,236.73c2.398,7.902-2.065,16.254-9.968,18.651l0,0
	c-7.904,2.398-16.254-2.065-18.652-9.968L392.43,98.325c-5.998-19.772-19.338-36.023-37.561-45.761
	c-18.222-9.74-39.148-11.798-58.917-5.799c-40.814,12.385-63.945,55.664-51.561,96.478l89.11,293.683
	c4.355,14.356,14.353,26.009,27.995,32.519c11.701,5.584,25.166,6.649,37.612,3.022c13.822-4.029,25.191-13.26,31.965-25.937
	c6.68-12.5,8.093-26.854,3.978-40.416l-63.022-207.708c-2.105-6.938-6.601-12.999-12.858-16.662
	c-8.368-4.899-18.468-5.22-27.34-0.677c-3.463,1.774-6.522,4.295-8.924,7.355c-5.89,7.502-7.623,16.959-4.945,25.786l54.725,180.363
	c2.398,7.902-2.065,16.254-9.968,18.651l0,0c-7.904,2.398-16.254-2.065-18.652-9.968l-54.725-180.362
	c-4.504-14.843-2.958-30.551,4.354-44.232c7.311-13.681,19.512-23.695,34.354-28.197c30.642-9.299,63.132,8.067,72.429,38.707
	l63.19,208.259c6.435,21.206,4.226,43.651-6.22,63.196c-10.446,19.545-27.878,33.854-49.085,40.288
	C400.404,503.33,392.263,504.527,384.17,504.527z"/>
<path style="fill:#BEC5CB;" d="M269.201,61.117c-9.197,24.747-21.772,24.943-25.79,40.853c2.761-12.372,1.027-25.193-5.014-36.497
	c-1.695-3.16-3.669-6.111-5.902-8.823c0-16.644,10.228-21.334,21.115-21.334c4.287,4.835,8.035,10.218,11.165,16.06
	C266.469,54.548,267.944,57.807,269.201,61.117z"/>
<path d="M500.039,324.204l-57.364-189.047c-1.199-3.952-5.374-6.183-9.325-4.984l0,0c-3.952,1.199-6.183,5.374-4.984,9.325
	l57.364,189.044c0.894,2.952-0.07,6.171-2.756,8.281c-0.591,0.465-1.292,0.766-2.014,0.974c-0.156,0.045-0.311,0.093-0.464,0.145
	c-3.874,1.027-7.908-1.195-9.078-5.055L399.581,96.153c-6.571-21.678-21.197-39.499-41.185-50.183
	c-19.99-10.685-42.938-12.941-64.612-6.362c-7.682,2.33-14.878,5.696-21.511,10.009c-0.3-0.592-0.597-1.186-0.909-1.77
	c-2.056-3.836-4.372-7.507-6.919-10.982c7.71-4.966,16.083-8.854,24.998-11.56c25.491-7.742,52.483-5.087,75.998,7.474
	c23.511,12.571,40.718,33.536,48.45,59.032l4.377,14.418c1.199,3.951,5.375,6.182,9.326,4.983h0.001
	c3.952-1.199,6.182-5.375,4.983-9.326l-4.376-14.416c-8.891-29.316-28.676-53.422-55.711-67.878
	C345.45,5.148,314.414,2.096,285.1,10.997c-10.949,3.323-21.193,8.203-30.561,14.495c-10.255-9.938-22.81-17.339-36.682-21.553
	c-23.122-7.013-47.586-4.605-68.888,6.782c-21.312,11.389-36.909,30.393-43.916,53.51L15.939,357.912
	c-18.363,60.538,15.947,124.736,76.486,143.11c10.839,3.283,22.027,4.948,33.251,4.948c24.098,0,48.159-7.869,67.749-22.156
	c20.262-14.776,34.823-35.274,42.107-59.274l27.577-90.885l34.626,114.121c7.007,23.118,22.604,42.123,43.917,53.514
	c13.117,7.008,27.8,10.712,42.459,10.712c0.021,0,0.043,0,0.063,0c8.883,0,17.753-1.322,26.364-3.93
	c23.114-7.009,42.118-22.606,53.513-43.917c11.385-21.302,13.792-45.767,6.781-68.889l-63.194-208.264
	c-5.078-16.732-16.387-30.497-31.842-38.758c-15.456-8.26-33.181-10.015-49.911-4.935c-11.154,3.39-21.032,9.547-28.847,17.928
	l-2.948-0.894c-12.787-3.88-26.298,3.342-30.178,16.129l-0.809,2.664l-1.941-6.397l16.989-55.986
	c5.319-17.555,5.244-35.749-0.134-52.959c6.105-4.345,12.841-7.669,20.11-9.873c17.855-5.42,36.755-3.558,53.221,5.241
	c16.464,8.8,28.512,23.479,33.924,41.336l71.836,236.733c2.931,9.673,11.853,15.923,21.481,15.923c2.148,0,4.333-0.312,6.493-0.965
	c0.146-0.045,0.289-0.093,0.43-0.146c5.541-1.796,10.091-5.602,12.844-10.756C501.177,336.002,501.775,329.937,500.039,324.204z
	 M330.229,157.615c12.905-3.92,26.584-2.563,38.517,3.814c11.934,6.378,20.664,17.002,24.583,29.912l63.194,208.263
	c5.853,19.298,3.842,39.72-5.658,57.499c-9.51,17.788-25.373,30.804-44.661,36.655c-7.204,2.181-14.615,3.288-22.034,3.288
	c-0.018,0-0.034,0-0.052,0c-12.215,0-24.462-3.094-35.417-8.947c-17.789-9.507-30.805-25.367-36.654-44.665l-41.724-137.514
	c-0.019-0.066-0.038-0.133-0.058-0.198l-40.956-134.96c-0.019-0.067-0.038-0.136-0.058-0.201l-6.319-20.801
	c-8.076-26.638-4.466-55.609,9.511-79.486c4.598,9.288,5.917,19.857,3.697,29.945c-0.003,0.013-0.006,0.024-0.009,0.036
	c-0.086,0.328-0.163,0.649-0.241,0.979l0.003,0.001c-3.472,14.552-3.006,29.828,1.351,44.183l8.895,29.302
	c0.018,0.065,0.037,0.13,0.056,0.194l80.151,264.182c5.014,16.524,16.392,29.716,32.04,37.148
	c13.409,6.367,28.657,7.564,42.934,3.368c15.73-4.622,28.64-15.117,36.353-29.552c7.622-14.268,9.234-30.643,4.537-46.109
	l-63.194-208.263c-2.765-9.118-8.91-16.605-17.298-21.082c-8.395-4.487-18.036-5.438-27.149-2.675
	c-9.113,2.764-16.603,8.91-21.094,17.31c-4.478,8.389-5.424,18.029-2.662,27.146l54.724,180.356c0.58,1.911,0.381,3.934-0.561,5.695
	c-0.942,1.762-2.513,3.052-4.424,3.632c-1.912,0.579-3.934,0.382-5.695-0.561c-1.762-0.941-3.051-2.513-3.631-4.424l-54.723-180.356
	c-0.01-0.032-0.02-0.065-0.03-0.098c-0.031-0.099-0.059-0.198-0.086-0.299c-0.024-0.095-0.049-0.188-0.077-0.283
	c-3.687-12.718-2.271-26.161,3.993-37.865c1.443-2.706,3.149-5.308,5.069-7.73C311.726,166.447,320.322,160.626,330.229,157.615z
	 M120.802,322.763c4.477,8.4,11.965,14.55,21.087,17.316c9.11,2.763,18.752,1.814,27.145-2.673
	c8.385-4.475,14.532-11.96,17.311-21.083l35.753-117.834l7.812,25.74l-29.262,96.438c-3.916,12.929-12.638,23.557-24.558,29.925
	c-11.933,6.37-25.621,7.719-38.539,3.798c-12.939-3.928-23.568-12.653-29.933-24.575c-6.374-11.913-7.721-25.599-3.794-38.534
	l54.725-180.358c1.197-3.946,5.383-6.178,9.327-4.984c1.911,0.58,3.482,1.869,4.424,3.632c0.941,1.762,1.14,3.784,0.561,5.695
	l-54.728,180.365C115.368,304.749,116.318,314.388,120.802,322.763z M289.123,247.905l47.796,157.518
	c3.591,11.835,16.142,18.541,27.977,14.952c5.733-1.74,10.447-5.608,13.271-10.892s3.421-11.353,1.682-17.086l-54.723-180.353
	c-1.604-5.297-1.057-10.895,1.541-15.761c2.606-4.875,6.954-8.443,12.244-10.047c5.29-1.606,10.885-1.053,15.763,1.554
	c4.865,2.597,8.429,6.941,10.034,12.233l63.195,208.266c3.536,11.645,2.323,23.975-3.418,34.718
	c-5.806,10.867-15.53,18.77-27.38,22.251c-10.747,3.157-22.218,2.26-32.303-2.528c-11.794-5.602-20.37-15.539-24.145-27.981
	l-54.11-178.35L289.123,247.905z M278.22,180.812c1.263-4.161,5.214-6.771,9.375-6.534c-0.159,0.287-0.329,0.568-0.483,0.857
	c-7.748,14.477-9.751,31.026-5.75,46.85l-2.63,8.665l-7.818-25.766L278.22,180.812z M263.84,112.41l-10.492,34.578l-1.796-5.917
	c-3.589-11.827-3.973-24.412-1.099-36.438c0.051-0.22,0.103-0.434,0.162-0.653c0.005-0.017,0.006-0.035,0.01-0.052
	c0.009-0.035,0.018-0.069,0.026-0.104c0.019-0.075,0.037-0.15,0.054-0.226c3.142-14.078,1.112-28.87-5.722-41.659
	c-1.921-3.583-4.182-6.961-6.72-10.044c-7.558-9.172-17.617-15.859-29.089-19.337c-15.468-4.696-31.843-3.085-46.11,4.538
	c-14.269,7.622-24.708,20.344-29.392,35.816l-74.76,246.36c-1.199,3.952,1.032,8.127,4.984,9.326l0,0
	c3.952,1.199,8.127-1.032,9.325-4.984L147.982,77.25c3.527-11.649,11.385-21.224,22.128-26.963
	c10.743-5.741,23.073-6.956,34.722-3.417c6.829,2.07,12.97,5.662,18.054,10.469c-18.802,28.397-24.166,64.098-14.263,96.76
	l5.662,18.639l-42.249,139.237c-1.614,5.297-5.182,9.645-10.05,12.243c-4.875,2.603-10.471,3.155-15.759,1.553
	c-5.292-1.605-9.636-5.172-12.237-10.053c-2.604-4.864-3.154-10.455-1.55-15.743l54.725-180.366
	c2.121-6.989,0.769-14.476-3.858-20.435c-1.944-2.503-4.438-4.555-7.26-5.994c-12.826-6.542-27.828,0.275-31.811,13.401
	L89.511,286.939c-5.088,16.761-3.342,34.494,4.916,49.926c8.244,15.44,22.015,26.747,38.778,31.836
	c6.285,1.908,12.71,2.853,19.102,2.853c10.632,0,21.173-2.617,30.825-7.77c15.448-8.253,26.75-22.027,31.823-38.777l22.766-75.027
	l1.943,6.403l-47.066,155.13c-5.408,17.828-17.465,32.497-33.948,41.305c-16.482,8.808-35.379,10.68-53.208,5.272
	c-17.827-5.408-32.496-17.465-41.304-33.948c-8.808-16.483-10.68-35.378-5.272-53.208l4.25-14.01
	c1.198-3.952-1.033-8.127-4.985-9.325l0,0c-3.952-1.198-8.126,1.033-9.325,4.985l-4.25,14.01
	c-6.569,21.651-4.299,44.591,6.392,64.597s28.502,34.642,50.151,41.209c8.118,2.463,16.414,3.683,24.672,3.683
	c13.766,0,27.42-3.393,39.924-10.075c20.007-10.691,34.643-28.502,41.209-50.151l40.571-133.722l7.819,25.765l-34.074,112.298
	c-6.333,20.867-18.993,38.688-36.609,51.535c-17.051,12.435-37.983,19.284-58.938,19.284c-9.755,0-19.484-1.449-28.912-4.304
	c-52.647-15.977-82.485-71.81-66.515-124.459l89.114-293.682c5.849-19.294,18.866-35.156,36.654-44.662
	c17.779-9.503,38.202-11.511,57.496-5.661c13.404,4.073,25.335,11.692,34.502,22.032c3.907,4.407,7.329,9.329,10.166,14.626
	c1.519,2.843,2.875,5.826,4.033,8.878C268.18,79.421,268.741,96.237,263.84,112.41z"/>
<g>
</g>
<g>
</g>
<g>
</g>
<g>
</g>
<g>
</g>
<g>
</g>
<g>
</g>
<g>
</g>
<g>
</g>
<g>
</g>
<g>
</g>
<g>
</g>
<g>
</g>
<g>
</g>
<g>
</g>
</svg>
