<?xml version="1.0" encoding="iso-8859-1"?>
<!-- Generator: Adobe Illustrator 19.0.0, SVG Export Plug-In . SVG Version: 6.00 Build 0)  -->
<svg version="1.1" id="Capa_1" xmlns="http://www.w3.org/2000/svg" xmlns:xlink="http://www.w3.org/1999/xlink" x="0px" y="0px"
	 viewBox="0 0 512 512" style="enable-background:new 0 0 512 512;" xml:space="preserve">
<path style="fill:#D0D9E0;" d="M120.541,424.625c9.131-9.131,9.131-24.008,0-33.14c-9.206-9.206-24.008-9.131-33.14,0
	c-6.333,6.333-8.248,15.465-5.744,23.419L7.644,488.918c11.784-44.334,12.225-109.731,12.225-109.731l99.272-61.419l75.044,75.044
	l-61.419,99.272c0,0-65.322,0.515-109.731,12.225l74.013-74.013C105.002,432.8,114.207,430.959,120.541,424.625z"/>
<path style="fill:#B2BBC1;" d="M87.4,391.486c-6.333,6.333-8.248,15.465-5.744,23.419L7.644,488.918
	c11.784-44.334,12.225-109.731,12.225-109.731l99.272-61.419l37.558,37.558l-36.159,36.159
	C111.335,382.28,96.533,382.354,87.4,391.486z"/>
<rect x="238.092" y="-5.974" transform="matrix(0.7071 0.7071 -0.7071 0.7071 235.1319 -156.3873)" style="fill:#473E51;" width="136.499" height="423.219"/>
<rect x="252.349" y="-40.386" transform="matrix(0.7071 0.7071 -0.7071 0.7071 200.7196 -142.132)" style="fill:#332A3C;" width="39.158" height="423.219"/>
<polyline style="fill:#D0D9E0;" points="277.55,330.947 181.03,234.428 156.969,258.489 253.488,355.009 "/>
<polyline style="fill:#B2BBC1;" points="208.719,262.116 181.03,234.428 156.969,258.489 184.658,286.178 "/>
<polyline style="fill:#D0D9E0;" points="480.177,128.322 383.657,31.801 359.595,55.862 456.115,152.382 "/>
<polyline style="fill:#B2BBC1;" points="411.346,59.49 383.657,31.801 359.595,55.862 387.284,83.551 "/>
<path d="M509.709,98.79L413.185,2.266C411.734,0.815,409.766,0,407.714,0s-4.019,0.815-5.472,2.266L102.974,301.533
	c-3.022,3.023-3.022,7.921,0,10.943l3.852,3.852l-38.911,24.058c-3.635,2.247-4.759,7.015-2.512,10.65l0,0
	c2.247,3.635,7.015,4.759,10.65,2.512l42.016-25.978l66.337,66.338l-55.968,90.527c-12.228,0.252-48.005,1.445-81.585,6.97
	l52.63-52.622c9.688,1.43,19.508-1.712,26.508-8.711c12.147-12.16,12.145-31.938-0.003-44.087
	c-5.888-5.887-13.714-9.129-22.04-9.129s-16.153,3.243-22.04,9.129c-7.005,7.005-10.149,16.828-8.71,26.507l-52.626,52.626
	c5.528-33.579,6.716-69.346,6.967-81.572l17.887-11.057c3.635-2.247,4.76-7.015,2.513-10.65v-0.001
	c-2.247-3.635-7.015-4.76-10.65-2.513L15.8,372.61c-2.265,1.4-3.65,3.866-3.67,6.527c-0.004,0.643-0.586,64.652-11.831,107.555
	c-0.805,3.072,0.181,6.444,2.706,8.369c3.133,2.388,7.468,2.041,10.181-0.67l74.046-74.045c2.034-2.034,2.643-5.019,1.804-7.772
	c-1.703-5.597-0.246-11.584,3.815-15.644c4.095-4.096,10.054-5.648,15.961-3.869c0.701,0.211,1.382,0.487,2.033,0.822
	c10.094,5.199,11.492,17.951,4.201,25.25c-4.078,4.078-10.11,5.529-15.743,3.785c-2.743-0.849-5.729-0.109-7.758,1.92l-73.961,73.95
	c-2.472,2.472-2.981,6.295-1.239,9.326c1.404,2.443,3.988,3.884,6.709,3.884c0.654,0,1.315-0.084,1.972-0.256
	c42.906-11.3,107.18-11.894,107.824-11.898c2.662-0.02,5.127-1.405,6.526-3.67l56.275-91.024l3.72,3.72
	c0.762,0.762,1.646,1.412,2.646,1.816c3.006,1.212,6.281,0.457,8.425-1.688l210.933-210.933c3.022-3.022,3.022-7.921,0-10.942
	l-0.001-0.001c-3.022-3.022-7.921-3.022-10.942,0l-132.88,132.88l-85.581-85.58l167.62-167.622l85.581,85.58l-9.232,9.232
	c-3.022,3.022-3.022,7.921,0,10.942l0.001,0.001c3.022,3.022,7.921,3.022,10.942,0l62.825-62.826
	C512.73,106.711,512.73,101.813,509.709,98.79z M204.97,392.587l-85.581-85.581l37.578-37.578l85.581,85.581L204.97,392.587z
	 M266.607,330.948l-13.118,13.118l-85.581-85.58l13.118-13.119L266.607,330.948z M370.535,55.859l13.118-13.118l85.581,85.581
	l-13.118,13.118L370.535,55.859z M480.177,117.379l-85.581-85.581l13.118-13.118l85.58,85.581L480.177,117.379z"/>
<g>
</g>
<g>
</g>
<g>
</g>
<g>
</g>
<g>
</g>
<g>
</g>
<g>
</g>
<g>
</g>
<g>
</g>
<g>
</g>
<g>
</g>
<g>
</g>
<g>
</g>
<g>
</g>
<g>
</g>
</svg>
