<?xml version="1.0" encoding="iso-8859-1"?>
<!-- Generator: Adobe Illustrator 19.0.0, SVG Export Plug-In . SVG Version: 6.00 Build 0)  -->
<svg version="1.1" id="Capa_1" xmlns="http://www.w3.org/2000/svg" xmlns:xlink="http://www.w3.org/1999/xlink" x="0px" y="0px"
	 viewBox="0 0 511.999 511.999" style="enable-background:new 0 0 511.999 511.999;" xml:space="preserve">
<path style="fill:#2E2B3F;" d="M68.224,483.639c-1.503,4.045-3.876,7.836-7.128,11.088c-12.113,12.113-31.746,12.113-43.859,0
	s-12.113-31.746,0-43.859c3.252-3.252,7.05-5.633,11.095-7.135"/>
<path style="fill:#D0D9E0;" d="M458.748,159.919c13.307,8.869,41.793,33.041,31.438,72.292
	c-9.963,37.779-45.985,62.028-73.594,83.503l-0.008,0.008c6.673,4.639,11.805,11.574,14.031,20.042
	c4.993,18.908-6.295,38.272-25.212,43.258c-18.901,4.985-38.265-6.303-43.243-25.212c-15.388-58.368,50.978-64.524,76.961-109.107
	c8.915-15.31-0.077-28.663-6.017-35.113"/>
<path style="fill:#0066AD;" d="M316.261,68.21c-31.554,23.665-64.383,52.101-96.635,84.353
	C97.897,274.291,0.571,434.201,39.167,472.797c38.604,38.604,198.514-58.724,320.243-180.452
	c32.252-32.252,60.688-65.08,84.353-96.635l20.242-30.537c39.236-64.17,51.826-119.941,27.277-144.491
	C466.739-3.858,410.968,8.732,346.798,47.968"/>
<path style="fill:#035989;" d="M39.167,472.797C0.571,434.201,97.899,274.29,219.629,152.56
	c32.246-32.246,65.079-60.688,96.634-84.35l30.536-20.242c64.17-39.236,119.941-51.826,144.483-27.285
	c-11.636-11.635-56.057,12.306-113.678,58.091l-27.831,22.946c-29.481,25.735-61.157,55.333-93.405,87.579
	C134.639,311.029,20.859,454.49,39.167,472.797z"/>
<path style="fill:#D0D9E0;" d="M442.828,194.846L317.122,69.141c-5.182-5.182-5.182-13.582,0-18.762l6.664-6.664
	c5.182-5.182,13.582-5.182,18.762,0L468.254,169.42c5.182,5.182,5.182,13.582,0,18.762l-6.664,6.664
	C456.409,200.028,448.008,200.028,442.828,194.846z"/>
<path style="fill:#A5B0B7;" d="M357.573,90.829l6.664-6.664c5.182-5.182,13.582-5.182,18.762,0l-40.451-40.451
	c-5.182-5.182-13.582-5.182-18.762,0l-6.664,6.664c-5.182,5.182-5.182,13.582,0,18.762l40.451,40.451
	C352.392,104.411,352.392,96.01,357.573,90.829z"/>
<path d="M497.056,14.907c-19.076-19.074-53.976-19.791-98.8-2.208c-4.29,1.682-6.337,6.593-4.522,10.828v0.001
	c1.737,4.055,6.385,5.999,10.492,4.387c37.876-14.864,67.262-15.462,81.273-1.45c19.58,19.58,10.626,67.19-23.152,125.488
	L360.021,49.63c3.589-2.078,7.153-4.078,10.674-5.98c3.891-2.104,5.367-6.95,3.353-10.888l-0.001-0.002
	c-2.094-4.098-7.147-5.64-11.197-3.452c-4.87,2.631-9.814,5.437-14.794,8.384c-4.369-4.226-10.214-6.397-16.363-5.985
	c-5.313,0.355-10.269,2.814-14.034,6.579l-5.973,5.973c-3.005,3.005-5.228,6.758-6.128,10.912
	c-0.794,3.665-0.605,7.272,0.369,10.615c-31.082,23.729-62.031,50.95-92.081,80.999C153.53,207.099,98.258,277.437,62.201,339.764
	c-17.812,30.791-35.507,67.622-39.119,97.304c-4.321,1.939-8.224,4.624-11.623,8.021c-15.279,15.279-15.279,40.138,0,55.417
	c7.639,7.639,17.674,11.458,27.708,11.458s20.069-3.819,27.709-11.459c3.412-3.413,6.107-7.338,8.047-11.688
	c35.591-4.359,81.303-28.852,113.62-48.811c3.87-2.39,5.029-7.483,2.593-11.323l-0.002-0.002c-2.398-3.781-7.397-4.919-11.206-2.564
	c-32.48,20.073-61.859,34.428-85.325,41.663c-24.103,7.428-41.738,7.16-49.653-0.753c-8.887-8.888-6.568-27.44-3.058-41.436
	c5.236-20.878,17.151-47.724,34.457-77.639c35.374-61.147,89.703-130.257,149.055-189.609
	c29.419-29.419,59.693-56.063,90.074-79.287l117.44,117.44c-23.224,30.374-49.868,60.647-79.285,90.074
	c-43.757,43.757-94.042,85.784-142.343,119.023c-3.688,2.537-4.63,7.571-2.129,11.283l0,0c2.543,3.775,7.674,4.743,11.422,2.163
	c49.094-33.788,100.178-76.481,144.609-120.911c24.517-24.526,47.145-49.647,67.539-74.942c2.826,5.943,2.61,11.769-0.669,17.4
	c-8.951,15.36-23.666,26.09-37.898,36.468c-25.026,18.249-50.903,37.118-39.906,78.837c2.963,11.257,10.132,20.684,20.187,26.545
	c6.75,3.935,14.254,5.947,21.864,5.947c3.727,0,7.479-0.483,11.178-1.459c11.26-2.967,20.689-10.139,26.551-20.193
	c5.863-10.057,7.454-21.795,4.483-33.044c-1.703-6.477-4.879-12.437-9.217-17.44c0.21-0.16,0.422-0.323,0.633-0.484
	c27.4-20.955,58.458-44.705,68.152-81.466c9.062-34.347-8.033-58.321-22.917-71.88c17.768-30.271,29.628-58.751,34.404-82.746
	C515.249,51.167,510.92,28.772,497.056,14.907z M55.366,488.893c-0.017,0.017-0.032,0.037-0.049,0.054
	c-8.905,8.906-23.395,8.905-32.301,0.001c-8.905-8.906-8.905-23.397,0-32.302c0.01-0.01,0.022-0.019,0.032-0.028
	c1.277,8.666,4.541,16.161,10.345,21.964C39.192,484.382,46.69,487.632,55.366,488.893z M321.409,59.759
	c0-1.36,0.53-2.639,1.493-3.603l6.662-6.662c0.962-0.963,2.242-1.493,3.603-1.493c1.361,0,2.639,0.53,3.603,1.493l125.705,125.703
	c1.987,1.987,1.987,5.22,0.001,7.205l-6.665,6.664c-0.962,0.962-2.242,1.492-3.601,1.492c-1.361,0-2.64-0.53-3.603-1.493
	L322.902,63.361C321.94,62.4,321.409,61.12,321.409,59.759z M482.285,230.126c-8.266,31.346-36.96,53.29-62.276,72.65
	c-1.357,1.037-2.701,2.066-4.033,3.088c-5.636-2.842-11.817-4.433-18.166-4.639c-4.534-0.175-8.286,3.393-8.433,7.905
	c-0.146,4.511,3.393,8.286,7.904,8.432c5.216,0.168,10.255,1.837,14.581,4.821c0.021,0.015,0.039,0.033,0.06,0.047
	c5.319,3.697,9.151,9.17,10.795,15.418c1.857,7.032,0.863,14.366-2.798,20.648c-3.662,6.283-9.556,10.765-16.596,12.62
	c-7.03,1.854-14.361,0.858-20.641-2.803c-6.282-3.662-10.761-9.553-12.613-16.59c-8.153-30.925,9.415-43.735,33.729-61.465
	c14.865-10.839,31.714-23.127,42.39-41.447c7.34-12.606,6.308-26.639-2.652-39.317c0.889-1.152,1.779-2.303,2.659-3.453
	c1.931,0.562,3.95,0.862,6.016,0.862c5.726,0,11.111-2.231,15.16-6.28l6.665-6.664c1.222-1.222,2.242-2.564,3.107-3.976
	C486.184,205.56,484.772,220.695,482.285,230.126z"/>
<g>
</g>
<g>
</g>
<g>
</g>
<g>
</g>
<g>
</g>
<g>
</g>
<g>
</g>
<g>
</g>
<g>
</g>
<g>
</g>
<g>
</g>
<g>
</g>
<g>
</g>
<g>
</g>
<g>
</g>
</svg>
