<?xml version="1.0" encoding="iso-8859-1"?>
<!-- Generator: Adobe Illustrator 19.0.0, SVG Export Plug-In . SVG Version: 6.00 Build 0)  -->
<svg version="1.1" id="Capa_1" xmlns="http://www.w3.org/2000/svg" xmlns:xlink="http://www.w3.org/1999/xlink" x="0px" y="0px"
	 viewBox="0 0 512.001 512.001" style="enable-background:new 0 0 512.001 512.001;" xml:space="preserve">
<rect x="55.384" y="53.188" style="fill:#2E373D;" width="89.727" height="33.455"/>
<rect x="55.384" y="53.188" style="fill:#191F23;" width="37.046" height="33.455"/>
<path style="fill:#2E2C37;" d="M326.776,53.184H212.977c-9.769,0-17.687,7.919-17.687,17.687v15.768h149.172V70.87
	C344.462,61.102,336.544,53.184,326.776,53.184z"/>
<path style="fill:#2E373D;" d="M504.396,122.863v260.096c0,20.004-16.222,36.225-36.225,36.225H43.829
	c-20.014,0-36.225-16.222-36.225-36.225V122.863c0-20.003,16.212-36.225,36.225-36.225h424.342
	C488.174,86.638,504.396,102.86,504.396,122.863z"/>
<path style="fill:#191F23;" d="M48.663,382.959V122.863c0-20.003,16.212-36.225,36.225-36.225H43.829
	c-20.014,0-36.225,16.222-36.225,36.225v260.096c0,20.004,16.212,36.225,36.225,36.225h41.059
	C64.875,419.185,48.663,402.963,48.663,382.959z"/>
<path style="fill:#4D5F67;" d="M504.396,122.863v21.565H7.604v-21.565c0-20.003,16.212-36.225,36.225-36.225h424.342
	C488.174,86.638,504.396,102.86,504.396,122.863z"/>
<path style="fill:#2E373D;" d="M84.891,86.638c-20.014,0-36.225,16.222-36.225,36.225v21.565H7.604v-21.565
	c0-20.003,16.212-36.225,36.225-36.225H84.891z"/>
<circle style="fill:#4D5F67;" cx="292.611" cy="283.75" r="175.063"/>
<path style="fill:#2E2C37;" d="M292.611,141.975c78.311,0,141.789,63.478,141.789,141.788c0,46.263-22.163,87.354-56.452,113.228
	c-23.745,17.925-53.299,28.55-85.337,28.55c-78.301,0-141.778-63.478-141.778-141.778c0-10.017,1.034-19.791,3.011-29.219
	C167.307,190.255,224.327,141.975,292.611,141.975z"/>
<path style="fill:#5D5C66;" d="M205.074,246.909c88.105,0,160.971,65.262,172.874,150.082c-23.745,17.925-53.299,28.55-85.337,28.55
	c-78.301,0-141.778-63.478-141.778-141.778c0-10.017,1.034-19.791,3.011-29.219C170.045,249.586,187.25,246.909,205.074,246.909z"/>
<path style="fill:#181423;" d="M292.611,228.477c30.538,0,55.286,24.748,55.286,55.286c0,1.602-0.071,3.194-0.203,4.755
	c-1.582,18.523-12.288,34.441-27.607,43.221c-8.091,4.643-17.479,7.3-27.476,7.3c-30.527,0-55.276-24.748-55.276-55.276
	c0-3.812,0.385-7.543,1.125-11.132c3.204-15.715,13.079-28.996,26.533-36.773C273.124,231.164,282.553,228.477,292.611,228.477z"/>
<path style="fill:#2E2C37;" d="M238.46,272.631c31.856,12.825,59.818,33.285,81.626,59.108c-8.091,4.643-17.479,7.3-27.476,7.3
	c-30.527,0-55.276-24.748-55.276-55.276C237.335,279.951,237.72,276.22,238.46,272.631z"/>
<path style="fill:#4D5F67;" d="M85.803,226.439v102.096c0,21.007-16.425,38.182-37.138,39.368c-0.76,0.051-1.531,0.071-2.301,0.071
	H7.604V187.01h38.76c0.771,0,1.541,0.02,2.301,0.071C69.379,188.267,85.803,205.432,85.803,226.439z"/>
<path style="fill:#627177;" d="M48.665,187.081v180.822c-0.76,0.051-1.531,0.071-2.301,0.071H7.604V187.01h38.76
	C47.134,187.01,47.905,187.031,48.665,187.081z"/>
<circle style="fill:#2E2C37;" cx="309.339" cy="266.078" r="16.728"/>
<circle style="fill:#5D5C66;" cx="351.992" cy="205.186" r="24.266"/>
<path d="M468.171,79.034H409.6c-4.199,0-7.604,3.405-7.604,7.604l0,0c0,4.199,3.405,7.604,7.604,7.604h58.572
	c15.807,0,28.621,12.814,28.621,28.621v13.961h-95.778c-30.343-22.446-67.848-35.738-108.401-35.738s-78.059,13.292-108.401,35.738
	H15.208v-13.961c0-15.807,12.814-28.621,28.621-28.621h11.555h89.723h50.184h149.172h29.65c4.199,0,7.604-3.405,7.604-7.604l0,0
	c0-4.199-3.405-7.604-7.604-7.604h-22.046V70.87c0-13.968-11.324-25.292-25.292-25.292H212.977
	c-13.968,0-25.291,11.323-25.291,25.291v8.164H152.71v-25.85c0-4.199-3.405-7.604-7.604-7.604H55.384
	c-4.199,0-7.604,3.405-7.604,7.604v25.851h-3.951C19.623,79.034,0,98.657,0,122.863v64.143v180.965v14.988
	c0,24.206,19.623,43.829,43.829,43.829H179.13c31.188,24.797,70.634,39.634,113.483,39.634s82.293-14.837,113.483-39.634h62.077
	c24.206,0,43.829-19.623,43.829-43.829V122.863C512,98.657,492.377,79.034,468.171,79.034z M202.894,70.87
	c0-5.56,4.523-10.084,10.083-10.084h113.798c5.56,0,10.084,4.524,10.084,10.084v8.164H202.894V70.87z M62.988,60.787h74.515v18.247
	H62.988V60.787z M15.208,382.959v-7.384h31.159c25.977,0,47.036-21.059,47.036-47.036v-55.717c0-4.199-3.405-7.604-7.604-7.604l0,0
	c-4.199,0-7.604,3.405-7.604,7.604v55.717c0,17.578-14.25,31.828-31.828,31.828H15.208V194.61h31.159
	c17.578,0,31.828,14.25,31.828,31.828v10.899c0,4.199,3.405,7.604,7.604,7.604l0,0c4.199,0,7.604-3.405,7.604-7.604v-10.899
	c0-25.977-21.059-47.036-47.036-47.036H15.208v-27.37h150.98c-34.644,33.264-56.243,80.017-56.243,131.723
	c0,49.72,19.976,94.855,52.313,127.826H43.829C28.022,411.581,15.208,398.766,15.208,382.959z M125.153,283.755
	c0-92.337,75.122-167.46,167.46-167.46s167.459,75.122,167.459,167.46S384.95,451.214,292.613,451.214
	S125.153,376.092,125.153,283.755z M468.171,411.581h-45.204c32.337-32.971,52.313-78.106,52.313-127.826
	c0-51.706-21.599-98.459-56.243-131.723h77.755v230.927C496.792,398.741,483.953,411.581,468.171,411.581z"/>
<path d="M292.613,134.367c-82.373,0-149.388,67.015-149.388,149.388s67.015,149.388,149.388,149.388s149.388-67.015,149.388-149.388
	S374.985,134.367,292.613,134.367z M292.613,417.934c-73.988,0-134.181-60.193-134.181-134.18s60.193-134.18,134.181-134.18
	s134.181,60.193,134.181,134.18S366.599,417.934,292.613,417.934z"/>
<path d="M292.613,220.869c-34.675,0-62.886,28.211-62.886,62.886s28.211,62.886,62.886,62.886s62.886-28.211,62.886-62.886
	S327.288,220.869,292.613,220.869z M292.613,331.433c-26.289,0-47.678-21.388-47.678-47.678c0-26.289,21.388-47.678,47.678-47.678
	c26.289,0,47.678,21.388,47.678,47.678C340.29,310.044,318.902,331.433,292.613,331.433z"/>
<g>
</g>
<g>
</g>
<g>
</g>
<g>
</g>
<g>
</g>
<g>
</g>
<g>
</g>
<g>
</g>
<g>
</g>
<g>
</g>
<g>
</g>
<g>
</g>
<g>
</g>
<g>
</g>
<g>
</g>
</svg>
