<?xml version="1.0" encoding="iso-8859-1"?>
<!-- Generator: Adobe Illustrator 19.0.0, SVG Export Plug-In . SVG Version: 6.00 Build 0)  -->
<svg version="1.1" id="Capa_1" xmlns="http://www.w3.org/2000/svg" xmlns:xlink="http://www.w3.org/1999/xlink" x="0px" y="0px"
	 viewBox="0 0 512.001 512.001" style="enable-background:new 0 0 512.001 512.001;" xml:space="preserve">
<rect x="55.384" y="97.879" style="fill:#2E373D;" width="89.727" height="33.455"/>
<rect x="55.384" y="97.879" style="fill:#191F23;" width="37.046" height="33.455"/>
<path style="fill:#2E2C37;" d="M326.776,97.88H212.977c-9.769,0-17.687,7.919-17.687,17.687v15.768h149.172v-15.768
	C344.462,105.799,336.544,97.88,326.776,97.88z"/>
<path style="fill:#2E373D;" d="M504.396,167.559v260.096c0,20.003-16.222,36.225-36.225,36.225H43.829
	c-20.014,0-36.225-16.222-36.225-36.225V167.559c0-20.003,16.212-36.225,36.225-36.225h424.342
	C488.174,131.334,504.396,147.556,504.396,167.559z"/>
<path style="fill:#191F23;" d="M48.663,427.656V167.56c0-20.003,16.212-36.225,36.225-36.225H43.829
	c-20.014,0-36.225,16.222-36.225,36.225v260.096c0,20.004,16.212,36.225,36.225,36.225h41.059
	C64.875,463.881,48.663,447.659,48.663,427.656z"/>
<path style="fill:#4D5F67;" d="M504.396,167.559v21.565H7.604v-21.565c0-20.003,16.212-36.225,36.225-36.225h424.342
	C488.174,131.334,504.396,147.556,504.396,167.559z"/>
<path style="fill:#2E373D;" d="M84.891,131.334c-20.014,0-36.225,16.222-36.225,36.225v21.565H7.604v-21.565
	c0-20.003,16.212-36.225,36.225-36.225H84.891z"/>
<circle style="fill:#4D5F67;" cx="292.611" cy="328.451" r="175.063"/>
<path style="fill:#2E2C37;" d="M292.611,186.671c78.311,0,141.789,63.478,141.789,141.789c0,46.262-22.163,87.354-56.452,113.228
	c-23.745,17.925-53.299,28.55-85.337,28.55c-78.301,0-141.778-63.478-141.778-141.778c0-10.017,1.034-19.791,3.011-29.22
	C167.307,234.951,224.327,186.671,292.611,186.671z"/>
<path style="fill:#5D5C66;" d="M205.074,291.605c88.105,0,160.971,65.262,172.874,150.082c-23.745,17.925-53.299,28.55-85.337,28.55
	c-78.301,0-141.778-63.478-141.778-141.778c0-10.017,1.034-19.791,3.011-29.22C170.045,294.282,187.25,291.605,205.074,291.605z"/>
<path style="fill:#181423;" d="M292.611,273.173c30.538,0,55.286,24.748,55.286,55.286c0,1.602-0.071,3.194-0.203,4.755
	c-1.582,18.523-12.288,34.441-27.607,43.221c-8.091,4.643-17.479,7.3-27.476,7.3c-30.527,0-55.276-24.748-55.276-55.276
	c0-3.812,0.385-7.543,1.125-11.132c3.204-15.715,13.079-28.996,26.533-36.773C273.124,275.861,282.553,273.173,292.611,273.173z"/>
<path style="fill:#2E2C37;" d="M238.46,317.327c31.856,12.825,59.818,33.285,81.626,59.108c-8.091,4.643-17.479,7.3-27.476,7.3
	c-30.527,0-55.276-24.748-55.276-55.276C237.335,324.647,237.72,320.917,238.46,317.327z"/>
<path style="fill:#4D5F67;" d="M85.803,271.135v102.096c0,21.007-16.425,38.182-37.138,39.368c-0.76,0.051-1.531,0.071-2.301,0.071
	H7.604V231.706h38.76c0.771,0,1.541,0.02,2.301,0.071C69.379,232.964,85.803,250.128,85.803,271.135z"/>
<path style="fill:#627177;" d="M48.665,231.777V412.6c-0.76,0.051-1.531,0.071-2.301,0.071H7.604V231.706h38.76
	C47.134,231.706,47.905,231.728,48.665,231.777z"/>
<circle style="fill:#2E2C37;" cx="309.339" cy="310.779" r="16.728"/>
<circle style="fill:#5D5C66;" cx="351.992" cy="249.887" r="24.266"/>
<g>
	<path style="fill:#E7C600;" d="M292.616,111.699c6.797-21.866,10.71-46.534,10.71-72.744c0-5.291-0.159-10.52-0.47-15.675
		c-1.188-19.724-19.293-19.724-20.481,0c-0.31,5.155-0.47,10.384-0.47,15.675C281.905,65.164,285.819,89.833,292.616,111.699z"/>
	<path style="fill:#E7C600;" d="M353.099,131.541c21.866,6.797,46.534,10.71,72.744,10.71c5.291,0,10.52-0.159,15.675-0.47
		c19.724-1.188,19.724-19.293,0-20.481c-5.155-0.31-10.384-0.47-15.675-0.47C399.633,120.829,374.964,124.743,353.099,131.541z"/>
	<path style="fill:#E7C600;" d="M346.617,109.686c17.126-15.199,33.234-34.288,46.789-56.719c2.736-4.529,5.305-9.086,7.705-13.66
		c9.184-17.495-6.311-26.858-17.53-10.593c-2.932,4.252-5.773,8.644-8.509,13.173C361.518,64.32,352.109,87.456,346.617,109.686z"/>
	<path style="fill:#E7C600;" d="M232.133,131.541c-21.866,6.797-46.534,10.71-72.744,10.71c-5.291,0-10.52-0.159-15.675-0.47
		c-19.724-1.188-19.724-19.293,0-20.481c5.155-0.31,10.384-0.47,15.675-0.47C185.598,120.829,210.267,124.743,232.133,131.541z"/>
	<path style="fill:#E7C600;" d="M238.614,109.686c-17.126-15.199-33.234-34.288-46.789-56.719c-2.736-4.529-5.305-9.086-7.705-13.66
		c-9.184-17.495,6.311-26.858,17.53-10.593c2.932,4.252,5.773,8.644,8.509,13.173C223.714,64.32,233.122,87.456,238.614,109.686z"/>
</g>
<path d="M468.171,123.731h-6.398c-3.788-6.246-12.008-9.553-19.797-10.022c-5.33-0.32-10.757-0.484-16.133-0.484
	c-25.502,0-50.106,3.54-73.175,10.506h-0.603v-8.162c0-0.182-0.01-0.362-0.014-0.543c18.32-16.332,34.425-35.884,47.864-58.127
	c2.786-4.611,5.455-9.341,7.929-14.058c4.92-9.373,5.794-22.133-3.914-27.999c-9.703-5.866-20.597,0.84-26.607,9.555
	c-3.03,4.394-5.978,8.955-8.759,13.558c-11.264,18.641-19.978,38.058-26.004,57.873c-4.329-3.471-9.816-5.555-15.784-5.555h-20.87
	c3.334-16.541,5.024-33.716,5.024-51.319c0-5.361-0.162-10.79-0.485-16.134c-0.637-10.566-6.488-21.939-17.831-21.939
	s-17.194,11.372-17.831,21.939c-0.321,5.327-0.485,10.755-0.485,16.135c0,17.603,1.69,34.777,5.024,51.319h-38.41
	c-5.919-17.891-14.038-35.423-24.248-52.318c-2.778-4.597-5.724-9.158-8.759-13.558c-6.009-8.714-16.899-15.42-26.608-9.556
	c-9.709,5.867-8.835,18.627-3.915,27.999c2.479,4.724,5.147,9.453,7.929,14.058c7.268,12.028,15.321,23.262,24.076,33.634
	c-11.98,1.709-21.275,11.841-21.686,24.187c-9.292-0.991-18.741-1.494-28.318-1.494c-2.221,0-4.452,0.034-6.681,0.09V97.878
	c0-4.199-3.405-7.604-7.604-7.604H55.387c-4.199,0-7.604,3.405-7.604,7.604v25.853h-3.954C19.662,123.731,0,143.393,0,167.56v64.142
	v180.965v14.989c0,24.167,19.662,43.829,43.829,43.829h135.303c31.188,24.796,70.633,39.633,113.48,39.633
	c42.849,0,82.292-14.837,113.482-39.633h62.078c24.167,0,43.829-19.662,43.829-43.829V167.56
	C512,143.393,492.337,123.731,468.171,123.731z M381.58,45.82c2.624-4.342,5.404-8.645,8.261-12.789
	c2.795-4.052,5.351-5.138,6.189-5.138c0.004,0,0.009,0,0.013,0c0.393,0.724,0.635,3.499-1.666,7.881
	c-2.335,4.449-4.851,8.911-7.48,13.261c-6.961,11.519-14.67,22.263-23.057,32.151C368.692,69.162,374.62,57.339,381.58,45.82z
	 M425.843,128.433c5.072,0,10.192,0.153,15.218,0.456c4.94,0.297,7.19,1.94,7.606,2.65c-0.416,0.711-2.666,2.353-7.606,2.65
	c-5.024,0.303-10.144,0.456-15.218,0.456c-13.459,0-26.642-1.04-39.442-3.106C399.2,129.475,412.382,128.433,425.843,128.433z
	 M289.965,23.736c0.298-4.941,1.94-7.19,2.65-7.606c0.711,0.416,2.352,2.665,2.65,7.605c0.303,5.041,0.456,10.161,0.456,15.22
	c0,13.459-1.04,26.642-3.106,39.443c-2.066-12.8-3.106-25.983-3.106-39.443C289.509,33.881,289.662,28.76,289.965,23.736z
	 M190.852,35.773c-2.3-4.382-2.058-7.157-1.665-7.88c0.818-0.048,3.392,1.066,6.202,5.138c2.862,4.15,5.641,8.453,8.262,12.79
	c6.961,11.519,12.888,23.34,17.741,35.364c-8.389-9.887-16.097-20.632-23.058-32.151C195.708,44.689,193.191,40.227,190.852,35.773z
	 M202.894,115.57c0-5.562,4.525-10.088,10.088-10.088h10.111c3.406,3.416,6.896,6.717,10.474,9.891
	c1.428,1.267,3.232,1.917,5.049,1.917c1.354,0,2.714-0.361,3.931-1.096c2.85-1.723,4.248-5.099,3.449-8.332
	c-0.197-0.795-0.409-1.587-0.613-2.381h37.516c0.768,2.846,1.585,5.672,2.456,8.473c0.99,3.18,3.932,5.347,7.261,5.347
	s6.273-2.167,7.261-5.347c0.871-2.801,1.687-5.627,2.456-8.473h24.444c5.557,0,10.078,4.525,10.078,10.088v8.162h-104.29
	c-9.639-2.91-19.542-5.227-29.671-6.931V115.57z M198.831,131.54c-12.8,2.066-25.982,3.106-39.442,3.106
	c-5.074,0-10.195-0.153-15.218-0.456c-4.941-0.297-7.19-1.94-7.606-2.65c0.416-0.711,2.665-2.353,7.605-2.65
	c5.027-0.302,10.147-0.456,15.219-0.456C172.849,128.433,186.03,129.475,198.831,131.54z M62.991,105.482H137.5v9.093
	c-5.811,1.41-11.185,4.448-14.04,9.156H62.991V105.482z M15.208,239.306h31.159c17.55,0,31.828,14.278,31.828,31.828v102.102
	c0,17.55-14.278,31.828-31.828,31.828H15.208V239.306z M15.208,427.656v-7.385h31.159c25.977,0,47.036-21.059,47.036-47.036V271.134
	c0-25.977-21.059-47.036-47.036-47.036H15.208v-27.37h40.554c4.199,0,7.603-3.405,7.603-7.603v-0.001
	c0-4.199-3.405-7.603-7.603-7.603H15.208v-13.96c0-15.807,12.814-28.621,28.621-28.621h11.558h67.828
	c3.67,6.514,12.083,9.952,20.04,10.432c5.327,0.321,10.755,0.485,16.134,0.485c26.001,0,51.077-3.675,74.542-10.916h110.528h6.841
	c23.464,7.241,48.539,10.916,74.542,10.916c5.379,0,10.806-0.163,16.133-0.485c7.958-0.48,16.372-3.919,20.041-10.432h6.154
	c15.807,0,28.621,12.814,28.621,28.621v13.96h-95.777c-30.343-22.446-67.848-35.738-108.402-35.738s-78.058,13.292-108.401,35.738
	H91.248c-4.199,0-7.603,3.405-7.603,7.603v0.001c0,4.199,3.405,7.603,7.603,7.603h74.941
	c-34.644,33.264-56.243,80.016-56.243,131.722c0,49.721,19.977,94.857,52.314,127.828H43.829
	C28.022,456.278,15.208,443.464,15.208,427.656z M125.153,328.451c0-92.337,75.122-167.459,167.458-167.459
	c92.337,0,167.461,75.122,167.461,167.459s-75.123,167.46-167.461,167.46C200.275,495.911,125.153,420.788,125.153,328.451z
	 M468.171,456.278h-45.205c32.338-32.971,52.315-78.107,52.315-127.828c0-51.706-21.599-98.459-56.243-131.722h77.754v230.928
	C496.792,443.438,483.953,456.278,468.171,456.278z"/>
<path d="M291.449,179.071c-81.254,0.622-147.594,66.962-148.215,148.215c-0.635,82.906,66.621,150.554,149.378,150.554
	c33.081,0,65.168-10.982,91.219-31.075c3.458-2.667,3.975-7.691,1.125-11l0,0c-2.632-3.056-7.194-3.526-10.388-1.063
	c-23.401,18.059-52.231,27.929-81.958,27.929c-74.331,0-134.739-60.761-134.17-135.227c0.558-72.982,60.142-132.569,133.125-133.128
	c74.467-0.571,135.23,59.838,135.23,134.17c0,30.083-10.078,59.182-28.514,82.713c-2.487,3.174-2.047,7.739,0.99,10.392l0,0
	c3.289,2.874,8.317,2.391,11.01-1.049c20.51-26.195,31.723-58.579,31.723-92.056C442.003,245.693,374.354,178.437,291.449,179.071z"
	/>
<path d="M229.727,328.451c0,34.675,28.21,62.886,62.885,62.886s62.886-28.211,62.886-62.886s-28.211-62.885-62.886-62.885
	S229.727,293.776,229.727,328.451z M340.29,328.451c0,26.289-21.388,47.678-47.678,47.678c-26.289,0-47.677-21.388-47.677-47.678
	s21.388-47.677,47.677-47.677C318.902,280.773,340.29,302.162,340.29,328.451z"/>
<g>
</g>
<g>
</g>
<g>
</g>
<g>
</g>
<g>
</g>
<g>
</g>
<g>
</g>
<g>
</g>
<g>
</g>
<g>
</g>
<g>
</g>
<g>
</g>
<g>
</g>
<g>
</g>
<g>
</g>
</svg>
