<?xml version="1.0" encoding="iso-8859-1"?>
<!-- Generator: Adobe Illustrator 19.0.0, SVG Export Plug-In . SVG Version: 6.00 Build 0)  -->
<svg version="1.1" id="Capa_1" xmlns="http://www.w3.org/2000/svg" xmlns:xlink="http://www.w3.org/1999/xlink" x="0px" y="0px"
	 viewBox="0 0 512 512" style="enable-background:new 0 0 512 512;" xml:space="preserve">
<path style="fill:#B58058;" d="M144.549,91.075l355.358,355.358c6.006,6.006,6.006,15.687,0.001,21.693l-31.781,31.781
	c-5.948,5.948-15.687,6.005-21.693-0.001L91.077,144.547c-6.006-6.006-5.949-15.745-0.001-21.693l31.781-31.781
	C128.863,85.068,138.543,85.069,144.549,91.075z"/>
<path style="fill:#8E6047;" d="M108.278,105.652L485.33,482.703l-17.202,17.202c-5.948,5.948-15.687,6.005-21.693-0.001
	L91.077,144.547c-6.006-6.006-5.949-15.745-0.001-21.693L108.278,105.652z"/>
<path style="fill:#94A6AD;" d="M437.047,20.166c-65.719,16.503-143.449,60.061-217.331,124.731l14.403,14.403
	c7.347,7.347,7.347,19.127,0,26.474l-48.341,48.341c-7.289,7.289-19.127,7.347-26.474,0l-14.403-14.403
	C80.23,293.595,36.671,371.326,20.168,437.045c-5.597-11.779-9.272-24.9-11.138-38.895
	c-10.088-76.331,34.462-181.062,121.29-267.889C217.09,43.49,321.82-1.06,398.152,9.028
	C412.205,10.836,425.267,14.569,437.047,20.166z"/>
<path style="fill:#858C94;" d="M437.047,20.166c-65.719,16.503-143.449,60.061-217.331,124.731l14.403,14.403
	c7.347,7.347,7.347,19.127,0,26.474l-48.341,48.341c-7.289,7.289-19.127,7.347-26.474,0l-14.403-14.403
	C80.23,293.595,36.671,371.326,20.168,437.045c-5.597-11.779-9.272-24.9-11.138-38.895c18.719-73.765,71.2-161.235,149.572-239.607
	C236.917,80.228,324.386,27.747,398.152,9.028C412.205,10.836,425.267,14.569,437.047,20.166z"/>
<path d="M505.295,441.048l-95.221-95.212l-55.443-55.452c-2.972-2.973-7.792-2.973-10.764-0.001l-0.001,0.001
	c-2.973,2.972-2.973,7.792-0.001,10.764l42.758,42.768l107.904,107.892c3.012,3.018,3.014,7.922,0.005,10.93l-31.788,31.788
	c-3.009,3.01-7.915,3.008-10.924,0L193.975,236.684l42.712-42.712l82.072,82.071c2.973,2.973,7.792,2.973,10.764,0l0.002-0.002
	c2.973-2.973,2.973-7.792,0-10.764l-83.86-83.859c3.311-9.287,1.26-20.074-6.163-27.497l-8.621-8.62
	C300.66,85.485,374.277,43.778,438.901,27.549c3.453-0.867,5.89-4.031,5.753-7.687c-0.108-2.876-1.936-5.434-4.537-6.665
	c-12.407-5.871-26.196-9.812-40.966-11.712c-39.432-5.213-85.798,3.394-134.095,24.884c-36.607,16.288-72.883,39.398-106.651,67.794
	l-8.471-8.472c-8.95-8.948-23.508-8.948-32.458,0l-31.781,31.781c-8.948,8.949-8.948,23.509,0,32.458l8.474,8.474
	c-10.25,12.188-19.829,24.723-28.67,37.529c-2.418,3.502-1.494,8.306,2.046,10.666h0.001c3.456,2.303,8.115,1.411,10.474-2.007
	c16.664-24.143,36.044-47.312,57.686-68.952C218.127,53.216,320.753,6.485,397.182,16.581c5.206,0.67,10.263,1.618,15.151,2.838
	c-62.996,20.677-132.276,62.546-197.631,119.755c-1.585,1.387-2.523,3.37-2.594,5.476c-0.069,2.105,0.737,4.146,2.225,5.636
	l14.402,14.401c4.403,4.404,4.403,11.302,0,15.705l-48.343,48.342c-2.096,2.097-4.883,3.254-7.844,3.259c-0.006,0-0.012,0-0.018,0
	c-2.959,0-5.741-1.156-7.843-3.26l-14.411-14.402c-1.49-1.489-3.535-2.302-5.635-2.224c-2.105,0.07-4.087,1.01-5.475,2.595
	C81.974,280.044,40.119,349.299,19.437,412.283c-1.209-4.859-2.163-9.91-2.855-15.129c-6.226-47.124,8.934-104.806,42.743-163.093
	c2.083-3.59,0.906-8.187-2.647-10.33l0,0c-3.647-2.2-8.394-0.977-10.53,2.707C10.665,287.629-5.174,348.713,1.489,399.152
	c1.994,15.032,5.967,28.879,11.805,41.16c1.27,2.671,3.957,4.343,6.872,4.343c0.25,0,0.501-0.012,0.754-0.038
	c3.196-0.317,5.849-2.605,6.632-5.72c16.228-64.621,57.934-138.239,117.746-208.021l8.624,8.618
	c4.973,4.98,11.581,7.721,18.609,7.721c0.014,0,0.028,0,0.044,0c3.069-0.005,6.057-0.531,8.865-1.538l259.618,259.617
	c4.476,4.468,10.351,6.703,16.226,6.703c5.877,0,11.753-2.236,16.224-6.706l31.788-31.788
	C514.234,464.565,514.236,450.007,505.295,441.048z M124.938,124.874c-7.172,7.173-14.098,14.513-20.774,21.995l-7.704-7.704
	c-3.013-3.012-3.013-7.915,0-10.927l31.781-31.781c3.011-3.013,7.916-3.013,10.927,0l7.703,7.702
	C139.413,110.815,132.091,117.72,124.938,124.874z"/>
<g>
</g>
<g>
</g>
<g>
</g>
<g>
</g>
<g>
</g>
<g>
</g>
<g>
</g>
<g>
</g>
<g>
</g>
<g>
</g>
<g>
</g>
<g>
</g>
<g>
</g>
<g>
</g>
<g>
</g>
</svg>
