<?xml version="1.0" encoding="iso-8859-1"?>
<!-- Generator: Adobe Illustrator 19.0.0, SVG Export Plug-In . SVG Version: 6.00 Build 0)  -->
<svg version="1.1" id="Capa_1" xmlns="http://www.w3.org/2000/svg" xmlns:xlink="http://www.w3.org/1999/xlink" x="0px" y="0px"
	 viewBox="0 0 512 512" style="enable-background:new 0 0 512 512;" xml:space="preserve">
<path style="fill:#F8C800;" d="M471.404,471.406L471.404,471.406c-43.982,43.982-115.292,43.982-159.274,0L40.599,199.874
	c-43.982-43.982-43.982-115.291,0-159.274l0,0c43.982-43.982,115.291-43.982,159.274,0l271.531,271.531
	C515.386,356.113,515.386,427.423,471.404,471.406z"/>
<path style="fill:#F1A400;" d="M348.787,445.818L66.187,163.216c-36.62-36.62-40.369-93.546-11.455-134.449
	c-4.931,3.538-9.702,7.401-14.133,11.833c-43.982,43.982-43.982,115.292,0,159.275L312.13,471.406
	c43.982,43.982,115.292,43.982,159.275,0c4.432-4.432,8.294-9.202,11.833-14.133C442.334,486.187,385.408,482.437,348.787,445.818z"
	/>
<path style="fill:#EF111A;" d="M335.68,176.375L176.389,335.666L40.575,199.851c-43.987-43.987-43.987-115.244,0-159.231
	c1.364-1.364,2.786-2.668,4.209-3.972c0.949-0.83,1.838-1.6,2.786-2.43C68.496,16.492,94.344,7.599,120.19,7.599
	c28.811,0,57.681,10.967,79.674,32.961L335.68,176.375z"/>
<path style="fill:#CA0000;" d="M66.186,163.215l141.327,141.327l-31.123,31.122L40.575,199.851
	c-43.987-43.987-43.987-115.244,0-159.231c1.364-1.364,2.786-2.668,4.209-3.972c0.949-0.83,1.838-1.6,2.786-2.43
	c2.371-1.897,4.743-3.676,7.114-5.454C25.814,69.727,29.549,126.578,66.186,163.215z"/>
<ellipse style="fill:#FF6D58;" cx="117.557" cy="47.813" rx="33.539" ry="17.816"/>
<path d="M476.783,306.75l-29.815-29.815c-2.97-2.97-7.783-2.97-10.753,0l-0.002,0.002c-2.97,2.97-2.97,7.783,0,10.753l29.815,29.815
	c41.587,41.586,40.939,109.656-1.943,150.417c-18.717,17.791-43.493,28.109-69.306,28.827
	c-29.171,0.811-56.728-10.175-77.274-30.721L187.118,335.641l148.524-148.524l75.503,75.504c2.97,2.97,7.783,2.97,10.753,0
	l0.002-0.002c2.97-2.97,2.97-7.783,0-10.753L206.177,36.144C183.645,13.612,153.279,0.31,121.416,0.006
	C88.865-0.306,58.21,12.228,35.219,35.218C29.906,40.533,25.11,46.313,20.9,52.47c-2.496,3.651-1.409,8.648,2.404,10.888
	l0.004,0.002c3.457,2.031,7.877,1.013,10.14-2.297c3.68-5.384,7.875-10.44,12.525-15.091c19.838-19.838,46.212-30.764,74.261-30.764
	s54.424,10.925,74.262,30.765l130.391,130.391L176.364,324.886L45.973,194.496C18.89,167.412,8.82,127.458,19.372,90.965
	c1.116-3.862-0.899-7.931-4.675-9.31l0,0c-4.115-1.503-8.68,0.764-9.9,4.972c-12.13,41.803-0.607,87.593,30.424,118.623
	l27.738,27.728l243.793,243.803C329.461,499.492,359.655,512,391.768,512s62.306-12.508,85.016-35.217
	C523.66,429.903,523.66,353.628,476.783,306.75z"/>
<g>
</g>
<g>
</g>
<g>
</g>
<g>
</g>
<g>
</g>
<g>
</g>
<g>
</g>
<g>
</g>
<g>
</g>
<g>
</g>
<g>
</g>
<g>
</g>
<g>
</g>
<g>
</g>
<g>
</g>
</svg>
