<?xml version="1.0" encoding="iso-8859-1"?>
<!-- Generator: Adobe Illustrator 19.0.0, SVG Export Plug-In . SVG Version: 6.00 Build 0)  -->
<svg version="1.1" id="Capa_1" xmlns="http://www.w3.org/2000/svg" xmlns:xlink="http://www.w3.org/1999/xlink" x="0px" y="0px"
	 viewBox="0 0 512 512" style="enable-background:new 0 0 512 512;" xml:space="preserve">
<path style="fill:#E8C842;" d="M233.116,7.507L233.116,7.507c-14.015,0-26.142,9.751-29.149,23.44l-25.218,205.066L256,229.755
	V30.391C255.999,17.753,245.754,7.507,233.116,7.507z"/>
<path style="fill:#DBBC3B;" d="M229.468,30.948c1.96-8.921,7.795-16.168,15.501-20.135c-3.457-2.097-7.513-3.305-11.853-3.305l0,0
	c-14.015,0-26.142,9.751-29.149,23.44l-25.218,205.066l25.758-2.086L229.468,30.948z"/>
<path style="fill:#E8C842;" d="M308.033,30.948c-3.007-13.689-15.135-23.44-29.149-23.44c-12.639,0-22.884,10.245-22.884,22.884
	v199.364l77.252,6.258L308.033,30.948z"/>
<path style="fill:#DBBC3B;" d="M280.986,174.898V30.391c0-8.399,4.528-15.738,11.274-19.718c-17.939-9.004-36.26,2.312-36.26,19.718
	v144.507H280.986z"/>
<path style="fill:#F4D44E;" d="M208.116,423.693l29.6-41.518c11.896-16.853,18.283-36.975,18.283-57.603V105.206
	c0-12.639-10.245-22.884-22.884-22.884l0,0c-14.015,0-26.142,9.751-29.149,23.44l-29.443,152.071
	c-2.079,10.739-6.961,20.736-14.152,28.978l-43.418,49.625L208.116,423.693z"/>
<path style="fill:#E8C842;" d="M183.242,299.884c8.015-9.188,13.458-20.333,15.776-32.305L231.84,98.052
	c1.245-5.669,3.896-10.731,7.534-14.856c-13.665-3.879-31.554,5.024-35.409,22.567l-29.443,152.071
	c-2.079,10.739-6.961,20.736-14.152,28.978l-43.418,49.625l18.678,17.877L183.242,299.884z"/>
<path style="fill:#F4D44E;" d="M304.883,424.693l-30.6-42.518c-11.896-16.853-18.283-36.975-18.283-57.603V105.206
	c0-12.639,10.245-22.884,22.884-22.884l0,0c14.015,0,26.142,9.751,29.149,23.44l29.443,152.071
	c2.079,10.739,6.961,20.736,14.152,28.978l44.418,50.625L304.883,424.693z"/>
<path style="fill:#E8C842;" d="M301.698,372.561c-12.907-18.285-19.836-40.117-19.836-62.499V98.055
	c0-5.5,1.792-10.581,4.819-14.696c-17.052-4.613-30.681,7.185-30.681,21.847v219.365c0,20.628,6.386,40.751,18.283,57.603
	l30.6,42.518l20.33-19.459L301.698,372.561z"/>
<path style="fill:#57ADDD;" d="M293.9,431.744l107.149-102.557c3.709-3.55,9.623-3.314,13.038,0.521l83.969,94.322
	c4.148,4.66,6.44,10.681,6.44,16.921v48.84c0,8.122-6.585,14.708-14.708,14.708H355.927c-9.041,0-17.651-3.862-23.663-10.615
	l-39.093-43.913C288.469,444.689,288.791,436.633,293.9,431.744z"/>
<path style="fill:#42A2CC;" d="M403.13,491.817c-82.698-92.951-77.732-87.189-79.062-88.949L293.9,431.744
	c-5.108,4.889-5.43,12.945-0.729,18.227l39.093,43.913c6.011,6.752,14.622,10.615,23.663,10.615h62.794
	C412.939,501.166,407.662,496.907,403.13,491.817z"/>
<path style="fill:#70BBEF;" d="M314.84,474.311l123.093-117.818l-23.845-26.786c-3.414-3.835-9.328-4.071-13.038-0.521
	L293.9,431.744c-5.108,4.889-5.43,12.945-0.729,18.227L314.84,474.311z"/>
<g>
	<path style="fill:#57ADDD;" d="M354.097,436.736c-30.084-33.849-28.707-32.122-30.028-33.869
		c-32.62,31.347-33.161,30.307-34.072,36.427c-0.589,3.957,0.622,7.809,3.174,10.675l21.669,24.34L354.097,436.736z"/>
	<path style="fill:#57ADDD;" d="M218.1,431.744L110.951,329.187c-3.709-3.55-9.623-3.314-13.038,0.521l-83.969,94.322
		c-4.148,4.66-6.44,10.681-6.44,16.921v48.84c0,8.122,6.585,14.708,14.708,14.708h133.861c9.041,0,17.651-3.862,23.663-10.615
		l39.093-43.913C223.53,444.689,223.208,436.633,218.1,431.744z"/>
</g>
<path style="fill:#42A2CC;" d="M57.069,452.432c0-6.239,2.292-12.261,6.44-16.921l72.932-81.925l-25.491-24.398
	c-3.709-3.55-9.623-3.314-13.038,0.521l-83.969,94.322c-4.148,4.66-6.44,10.682-6.44,16.921v48.84
	c0,8.122,6.585,14.708,14.708,14.708h35.224C56.77,501.531,57.204,504.185,57.069,452.432z"/>
<path style="fill:#70BBEF;" d="M197.16,474.311L74.067,356.493l23.845-26.786c3.414-3.835,9.328-4.071,13.038-0.521L218.1,431.744
	c5.108,4.889,5.43,12.945,0.729,18.227L197.16,474.311z"/>
<path style="fill:#57ADDD;" d="M74.067,356.493l32.28,30.896l30.094-33.806l-25.491-24.398c-3.709-3.55-9.623-3.314-13.038,0.521
	L74.067,356.493z"/>
<path d="M503.658,419.042l-17.111-19.221c-2.753-3.092-7.493-3.37-10.59-0.614c-3.094,2.754-3.369,7.495-0.614,10.59l17.11,19.22
	c2.929,3.291,4.542,7.529,4.542,11.936v48.84c0,3.974-3.233,7.207-7.207,7.207H355.927c-6.894,0-13.477-2.953-18.061-8.103
	l-12.615-14.17L437.5,367.289l14.552,16.346c2.753,3.092,7.493,3.369,10.589,0.614c3.094-2.754,3.369-7.495,0.614-10.589
	l-43.566-48.939c-6.269-7.04-17.066-7.419-23.825-0.952l-1.114,1.066l-37.47-42.952c-13.985-16.034-12.562-31.378-16.615-47.036
	C322.684,88.689,315.477,29.872,315.359,29.339C309.283,1.687,274.022-10.205,256,10.437c-19.475-22.305-56.318-5.575-59.478,19.596
	l-25.187,204.814c-3.944,15.237-2.69,31.071-16.615,47.035l-37.47,42.953l-1.114-1.066c-6.763-6.477-17.57-6.077-23.825,0.952
	c-21.393,24.031-69.964,78.592-83.969,94.322c-5.378,6.04-8.339,13.821-8.339,21.908v48.84C0.003,502.037,9.966,512,22.211,512
	h25.309c4.143,0,7.5-3.357,7.5-7.5s-3.357-7.5-7.5-7.5H22.211c-3.974,0-7.207-3.233-7.207-7.207v-48.84
	c0-4.405,1.613-8.644,4.542-11.935L74.5,367.288l64.991,62.205c2.992,2.865,7.74,2.759,10.605-0.232
	c2.864-2.992,2.761-7.739-0.232-10.605l-65.382-62.58c19.636-21.67,18.774-21.848,20.141-21.905
	c1.402-0.072-3.276-3.431,108.293,102.991c2.203,2.107,2.34,5.542,0.313,7.819l-16.498,18.532l-21.56-20.635
	c-2.993-2.866-7.741-2.761-10.605,0.232c-2.864,2.992-2.761,7.739,0.232,10.604l21.951,21.01l-12.616,14.171
	c-4.583,5.148-11.166,8.102-18.06,8.102H82.521c-4.143,0-7.5,3.357-7.5,7.5s3.357,7.5,7.5,7.5h73.551
	c11.172,0,21.838-4.785,29.264-13.129c11.61-13.042,24.261-27.253,39.093-43.913c7.423-8.337,6.92-20.914-1.145-28.632l-4.507-4.314
	c21.401-31.439,29.791-39.207,37.223-57.978c7.43,18.767,15.819,26.534,37.222,57.978l-4.507,4.314
	c-8.063,7.718-8.566,20.295-1.145,28.633l39.093,43.912c7.427,8.344,18.094,13.13,29.265,13.13h133.86
	c12.246,0,22.208-9.962,22.208-22.208v-48.84C511.995,432.865,509.035,425.085,503.658,419.042z M248.499,324.571
	c0,19.184-5.847,37.607-16.909,53.277l-23.579,33.403l-79.696-76.282l37.71-43.228c8.05-9.229,13.536-20.461,15.863-32.482
	l29.423-151.972c2.266-10.125,11.422-17.466,21.805-17.466c8.482,0,15.384,6.9,15.384,15.384
	C248.499,114.37,248.499,318.833,248.499,324.571z M248.499,79.021c-14.288-8.425-33.239-3.586-44.028,9.274l6.893-56.056
	c2.354-10.004,11.448-17.231,21.751-17.231c8.482,0,15.384,6.9,15.384,15.384V79.021z M263.5,30.391
	c0-8.482,6.9-15.384,15.384-15.384c10.302,0,19.397,7.227,21.752,17.231l6.893,56.057c-10.789-12.86-29.74-17.702-44.029-9.275
	V30.391z M280.41,377.85c-11.063-15.672-16.91-34.096-16.91-53.277c0-5.732,0-210.209,0-219.365c0-8.482,6.9-15.384,15.384-15.384
	c10.382,0,19.538,7.338,21.805,17.464l29.424,151.974c2.328,12.022,7.813,23.254,15.863,32.482l37.71,43.228l-79.697,76.281
	L280.41,377.85z M298.773,444.985c-2.027-2.278-1.89-5.713,0.313-7.821c113.217-108.188,107.725-104.347,109.399-102.468
	l19.034,21.382L315.272,463.516L298.773,444.985z"/>
<g>
</g>
<g>
</g>
<g>
</g>
<g>
</g>
<g>
</g>
<g>
</g>
<g>
</g>
<g>
</g>
<g>
</g>
<g>
</g>
<g>
</g>
<g>
</g>
<g>
</g>
<g>
</g>
<g>
</g>
</svg>
