<?xml version="1.0" encoding="iso-8859-1"?>
<!-- Generator: Adobe Illustrator 19.0.0, SVG Export Plug-In . SVG Version: 6.00 Build 0)  -->
<svg version="1.1" id="Capa_1" xmlns="http://www.w3.org/2000/svg" xmlns:xlink="http://www.w3.org/1999/xlink" x="0px" y="0px"
	 viewBox="0 0 512 512" style="enable-background:new 0 0 512 512;" xml:space="preserve">
<path style="fill:#A9B1B5;" d="M7.573,503.398H40.79V213.786c0-41.211,33.529-74.738,74.738-74.738s74.738,33.527,74.738,74.738
	v181.657c0,59.527,48.426,107.955,107.955,107.955s107.955-48.428,107.955-107.955v-89.271h-33.217v89.271
	c0,41.211-33.529,74.738-74.738,74.738s-74.738-33.527-74.738-74.738V213.786c0-59.527-48.426-107.955-107.955-107.955
	S7.573,154.26,7.573,213.786V503.398z"/>
<g>
	<path style="fill:#969FA3;" d="M393.721,395.443v-89.271h12.457v89.271c0,59.527-48.426,107.955-107.955,107.955
		c-2.102,0-4.155-0.197-6.228-0.316C348.619,499.827,393.721,452.866,393.721,395.443z"/>
	<path style="fill:#969FA3;" d="M285.766,470.181c-41.209,0-74.738-33.527-74.738-74.738V213.786
		c0-57.425-45.102-104.385-101.727-107.639c2.073-0.119,4.126-0.316,6.228-0.316c59.529,0,107.955,48.428,107.955,107.955v181.657
		c0,39.109,30.211,71.241,68.51,74.422C289.935,470.036,287.868,470.181,285.766,470.181z"/>
	<path style="fill:#969FA3;" d="M103.072,139.047c2.102,0,4.169,0.144,6.228,0.316c-38.3,3.183-68.51,35.314-68.51,74.422v289.611
		H28.334V213.786C28.334,172.575,61.863,139.047,103.072,139.047z"/>
</g>
<g>
	<polyline style="fill:#2D3039;" points="294.745,156.694 294.745,237.661 341.508,277.107 341.508,306.171 389.57,306.171 
		437.632,306.171 437.632,277.107 484.396,237.661 484.396,156.694 	"/>
	<path style="fill:#2D3039;" d="M296.09,156.694h188.305c11.062,0,20.031-8.968,20.031-20.031v-16.957
		c0-7.09-5.748-12.837-12.837-12.837H288.896c-7.09,0-12.837,5.748-12.837,12.837v16.957
		C276.059,147.727,285.027,156.694,296.09,156.694z"/>
</g>
<g>
	<path style="fill:#191725;" d="M323.929,136.663v-16.957c0-7.09,5.748-12.837,12.837-12.837h-47.87
		c-7.09,0-12.837,5.748-12.837,12.837v16.957c0,11.063,8.968,20.031,20.031,20.031h47.87
		C332.897,156.694,323.929,147.727,323.929,136.663z"/>
	<rect x="294.747" y="156.698" style="fill:#191725;" width="189.648" height="17.992"/>
</g>
<path style="fill:#C2C1C9;" d="M442.145,8.602L442.145,8.602c8.79,0,15.916,7.126,15.916,15.916v82.35h-31.833v-82.35
	C426.228,15.728,433.354,8.602,442.145,8.602z"/>
<rect x="442.146" y="22.447" style="fill:#EAE8F5;" width="8.304" height="84.428"/>
<path style="fill:#C2C1C9;" d="M338.341,8.602L338.341,8.602c8.79,0,15.916,7.126,15.916,15.916v82.35h-31.833v-82.35
	C322.424,15.728,329.55,8.602,338.341,8.602z"/>
<rect x="338.34" y="22.447" style="fill:#EAE8F5;" width="8.304" height="84.428"/>
<path d="M491.589,99.295h-25.955V25.096c0-12.72-9.872-23.568-22.583-24.05c-13.364-0.506-24.398,10.219-24.398,23.473v74.778
	H361.83V25.094c0-12.72-9.873-23.568-22.584-24.049c-13.364-0.505-24.396,10.22-24.396,23.473v74.778h-25.954
	c-11.273,0-20.412,9.139-20.412,20.412v16.956c0,12.1,7.83,22.399,18.686,26.117v74.881c0,2.232,0.985,4.35,2.69,5.789
	l44.073,37.175v25.546c0,4.183,3.391,7.573,7.573,7.573h23.878v80.678c0,36.857-29.268,67.614-66.122,68.176
	c-37.511,0.573-68.208-29.775-68.208-67.157V215.057c0-63.75-51.104-116.432-114.853-116.798C52.194,97.89,0,149.858,0,213.786
	v289.611c0,4.183,3.391,7.573,7.573,7.573H40.79c4.183,0,7.573-3.391,7.573-7.573V307.266c0-4.183-3.391-7.573-7.573-7.573l0,0
	c-4.183,0-7.573,3.391-7.573,7.573v188.559h-18.07V215.066c0-55.265,44.13-101.121,99.391-101.657
	c55.803-0.541,101.373,44.696,101.373,100.377v180.607c0,45.317,36.186,82.919,81.501,83.357
	c45.758,0.443,83.123-36.651,83.123-82.308v-81.697h18.071v80.418c0,55.265-44.13,101.121-99.391,101.657
	c-55.803,0.541-101.373-44.696-101.373-100.377V214.836c0-45.316-36.186-82.918-81.5-83.357
	c-45.758-0.443-83.125,36.65-83.125,82.308v58.136c0,4.183,3.391,7.573,7.573,7.573l0,0c4.183,0,7.573-3.391,7.573-7.573v-57.115
	c0-36.858,29.269-67.614,66.122-68.177c37.511-0.573,68.208,29.775,68.208,67.157v180.385c0,63.751,51.105,116.433,114.855,116.798
	c64.012,0.367,116.202-51.6,116.202-115.527v-81.697h23.88c4.183,0,7.573-3.391,7.573-7.573v-25.546l44.073-37.175
	c1.706-1.439,2.69-3.556,2.69-5.788v-24.307c0-4.183-3.391-7.573-7.573-7.573l0,0c-4.183,0-7.573,3.391-7.573,7.573v20.786
	l-41.958,35.391h-90.588l-41.959-35.391V164.27h174.505v13.743c0,4.183,3.391,7.573,7.573,7.573l0,0
	c4.183,0,7.573-3.391,7.573-7.573v-14.809C503.518,159.904,512,149.259,512,136.665v-16.957
	C512,108.434,502.861,99.295,491.589,99.295z M406.178,298.598H372.96h-23.878V284.68h80.977v13.918H406.178z M433.802,24.518
	c0-4.601,3.742-8.343,8.343-8.343s8.344,3.743,8.344,8.343v74.778h-16.686V24.518H433.802z M329.998,24.518
	c0-4.601,3.743-8.343,8.344-8.343c4.601,0,8.343,3.743,8.343,8.343v74.778h-16.686V24.518H329.998z M496.853,136.663
	c0,6.869-5.588,12.457-12.458,12.457H296.09c-6.87,0-12.458-5.588-12.458-12.457v-16.957c0-2.903,2.362-5.264,5.265-5.264h33.527
	h31.833h71.971h31.833h33.528c2.902,0,5.264,2.361,5.264,5.264v16.957H496.853z"/>
<g>
</g>
<g>
</g>
<g>
</g>
<g>
</g>
<g>
</g>
<g>
</g>
<g>
</g>
<g>
</g>
<g>
</g>
<g>
</g>
<g>
</g>
<g>
</g>
<g>
</g>
<g>
</g>
<g>
</g>
</svg>
