<?xml version="1.0" encoding="iso-8859-1"?>
<!-- Generator: Adobe Illustrator 19.0.0, SVG Export Plug-In . SVG Version: 6.00 Build 0)  -->
<svg version="1.1" id="Capa_1" xmlns="http://www.w3.org/2000/svg" xmlns:xlink="http://www.w3.org/1999/xlink" x="0px" y="0px"
	 viewBox="0 0 512 512" style="enable-background:new 0 0 512 512;" xml:space="preserve">
<path style="fill:#F4D44E;" d="M363.794,255.046c-0.085-220.896-0.082-214.541-0.082-214.64c0-16.984-12.885-31.564-29.824-32.783
	C315.025,6.267,299.3,21.168,299.3,39.743v156.992c0-17.736-14.511-32.248-32.248-32.248l0,0c-17.737,0-32.248,14.512-32.248,32.248
	v3.108c0-17.736-14.512-32.248-32.248-32.248h-0.001c-17.736,0-32.248,14.512-32.248,32.248v1.254
	c-1.954-15.901-15.591-28.321-31.999-28.321l0,0c-17.737,0-32.248,14.512-32.248,32.248c0,45.868,0,101.392,0,147.132
	c0.627,4.282-4.621,42.624,23.875,80.684c7.479,9.988,11.324,22.232,11.324,34.71c0,0.23,0,10.089,0,9.551
	c0,15.132,12.267,27.4,27.4,27.4h151.386c15.02,0,27.196-12.176,27.196-27.196v-27.287c5.475-4.842,39.609-25.483,48.811-71.491
	c8.291-41.55,9.51-66.75,9.752-68.872C407.807,283.271,389.54,259.856,363.794,255.046z"/>
<path style="fill:#E8C842;" d="M171.527,477.1c0-0.407,0-9.332,0-9.551c0-12.478-3.845-24.722-11.324-34.71
	c-28.496-38.059-23.248-76.402-23.875-80.684c0-45.74,0-101.265,0-147.132c0-12.274,6.952-23,17.11-28.444
	c-4.518-2.422-9.667-3.804-15.128-3.804c-17.736,0-32.248,14.512-32.248,32.248c0,45.868,0,101.392,0,147.132
	c0.627,4.282-4.621,42.624,23.875,80.684c12.297,16.424,11.324,32.068,11.324,44.26c0,15.132,12.267,27.4,27.399,27.4h30.266
	C183.794,504.499,171.527,492.232,171.527,477.1z"/>
<g>
	<path style="fill:#F4D44E;" d="M202.557,167.594L202.557,167.594c-17.737,0-32.248,14.512-32.248,32.248v84.705
		c0,17.736,14.512,32.248,32.248,32.248h0.001c17.736,0,32.248-14.512,32.248-32.248v-84.705
		C234.804,182.106,220.293,167.594,202.557,167.594z"/>
	<path style="fill:#F4D44E;" d="M138.311,172.775L138.311,172.775c-17.737,0-32.248,14.512-32.248,32.248v79.525
		c0,17.736,14.511,32.248,32.248,32.248l0,0c17.737,0,32.248-14.512,32.248-32.248v-79.525
		C170.558,187.286,156.047,172.775,138.311,172.775z"/>
	<path style="fill:#F4D44E;" d="M273.369,300.08c-20.667-11.334-32.867-30.778-22.362-52.695
		c9.266-19.333,19.687-17.937,48.292-7.927v-42.723c0-17.736-14.511-32.248-32.248-32.248s-32.248,14.512-32.248,32.248v87.814
		c0,28.187,34.112,42.976,54.617,23.162C280.071,303.695,274.34,300.613,273.369,300.08z"/>
</g>
<g>
	<path style="fill:#DBBC3B;" d="M200.809,284.547v-84.705c0-12.229,6.9-22.923,16.998-28.387
		c-21.224-11.483-47.497,3.981-47.497,28.387v84.705c0,17.736,14.512,32.248,32.248,32.248c0.782-0.102,7.509,0.327,15.25-3.861
		C207.709,307.47,200.809,296.777,200.809,284.547z"/>
	<path style="fill:#DBBC3B;" d="M136.563,284.547v-79.525c0-12.229,6.9-22.923,16.998-28.387
		c-21.331-11.541-47.497,4.078-47.497,28.387v79.525c0,24.26,26.115,39.955,47.497,28.387
		C143.462,307.47,136.563,296.777,136.563,284.547z"/>
	<path style="fill:#DBBC3B;" d="M267.66,296.592c-17.092-11.606-26.148-29.395-16.653-49.207c4.064-8.48,8.352-12.97,14.297-14.496
		v-36.154c0-12.229,6.9-22.923,16.998-28.387c-21.334-11.543-47.497,4.082-47.497,28.387v87.814
		c0,24.258,26.112,39.956,47.488,28.382C275.712,309.365,270.496,303.577,267.66,296.592z"/>
	<path style="fill:#DBBC3B;" d="M331.585,40.405c0-11.949,6.383-22.701,16.064-28.455c-20.854-12.393-48.349,2.585-48.349,27.792
		v156.992c0-0.762-0.037-1.515-0.089-2.264v44.992c8.962,2.96,19.58,6.417,32.295,9.517
		C331.505,248.873,331.585,40.303,331.585,40.405z"/>
</g>
<path style="fill:#E8C842;" d="M296.809,284.008c-22.547-11.648-36.171-31.342-26.422-53.683c-7.736,0.917-13.58,5.43-18.879,15.845
	c-11.875,23.343,1.915,44.049,25.279,56.119c2.286,1.181,27.843,14.121,65.265,23.317l1.568-3.024
	c4.669-9.004,0.246-20.113-9.259-23.297C312.455,291.949,298.471,284.867,296.809,284.008z"/>
<path d="M320.039,497h-9.516c-4.143,0-7.5,3.357-7.5,7.5s3.357,7.5,7.5,7.5h9.516c19.131,0,34.695-15.564,34.695-34.695v-23.561
	c0.772-0.608,7.134-5.217,12.548-10.342c17.579-16.282,31.81-39.093,35.767-61.538c1.705-9.573,7.519-35.911,10.104-70.022
	l0.123-1.62c2.124-28.021-15.646-53.255-42.072-61.092V95.338c0-4.143-3.357-7.5-7.5-7.5c-4.143,0-7.5,3.357-7.5,7.5v150.957
	c-20.322-3.287-38.607-8.665-49.413-12.219c0-24.09,0-167.895,0-194.334c0-6.937,2.799-13.361,7.88-18.09
	c15.858-14.757,41.533-3.35,41.533,18.753v19.934c0,4.143,3.357,7.5,7.5,7.5c4.143,0,7.5-3.357,7.5-7.5V40.405
	c0-35.074-41.279-53.437-66.752-29.733c-8.047,7.488-12.661,18.084-12.661,29.07v125.909c-18.584-14.83-45.493-9.943-58.113,9.503
	c-17.563-22.099-51.067-19.022-65.122,4.107c-0.002,0.003-0.003,0.005-0.005,0.008c-23.809-27.923-69.996-11.238-69.996,25.755
	c0,3.447,0,121.529,0,125.311c0,4.143,3.358,7.5,7.5,7.5c4.142,0,7.5-3.357,7.5-7.5v-14.719c6.796,5.424,15.397,8.678,24.748,8.678
	c13.187,0,24.889-6.461,32.123-16.378c15.973,21.894,48.502,21.825,64.37-0.175c13.133,18.207,38.308,21.849,55.937,8.661
	c15.1,6.191,37.073,13.072,40.365,13.072c8.751,0,10.359-12.551,1.888-14.759c-32.72-8.535-55.082-20.699-56.02-21.214
	c-7.386-4.05-30.597-19.109-19.205-42.877c6.218-12.975,9.162-13.48,35.187-5.364c2.701,0.843,3.982,1.314,3.881,1.279
	c36.316,12.661,65.683,15.897,65.58,15.878c22.175,4.144,37.612,24.208,35.91,46.668c-0.225,2.053-1.365,26.559-9.629,67.973
	c-1.842,9.221-3.682,17.126-11.185,30.008c-5.466,9.383-12.396,17.948-20.672,25.57c-1.263,1.162-10.304,9.033-27.503,13.192
	c-4.026,0.974-6.501,5.027-5.527,9.053c0.969,4.006,5.001,6.504,9.053,5.527c2.424-0.586,4.711-1.24,6.877-1.935v18.832
	C339.734,488.164,330.899,497,320.039,497z M138.303,309.294c-13.646,0-24.748-11.102-24.748-24.748v-79.524
	c0-15.481,14.132-27.23,29.412-24.301c10.234,1.967,18.373,10.26,19.835,20.96c0.043,87.547-0.094,82.655,0.101,85.553
	C161.557,299.621,151.039,309.294,138.303,309.294z M227.295,284.547c0,13.646-11.102,24.748-24.748,24.748
	c-12.738,0-23.255-9.674-24.6-22.061c0.125-1.862,0.286-81.17-0.148-87.392c0-13.646,11.102-24.748,24.749-24.748
	c13.646,0,24.748,11.102,24.748,24.748L227.295,284.547L227.295,284.547z M273.271,308.494
	c-15.586,4.086-30.976-7.745-30.976-23.948v-7.155C246.533,288.795,255.965,299.752,273.271,308.494z M291.79,229.198
	c-6.094-1.847-13.357-3.913-19.674-4.28c-15.416-0.891-24.597,9.269-29.822,23.86c0-15.526,0-36.397,0-52.043
	c0-13.646,11.102-24.748,24.749-24.748c13.646,0,24.747,11.102,24.747,24.748V229.198z"/>
<path d="M168.652,512h106.872c4.143,0,7.5-3.357,7.5-7.5s-3.357-7.5-7.5-7.5H168.652c-10.973,0-19.899-8.928-19.899-19.9
	c-0.551-4.568,3.309-27.214-12.82-48.755c-13.768-18.389-21.477-40.269-22.294-63.276c-0.146-4.139-3.627-7.391-7.761-7.229
	c-4.14,0.146-7.376,3.622-7.229,7.762c0.926,26.079,9.667,50.884,25.277,71.733c12.716,16.982,9.281,34.862,9.828,39.765
	C133.754,496.343,149.409,512,168.652,512z"/>
<g>
</g>
<g>
</g>
<g>
</g>
<g>
</g>
<g>
</g>
<g>
</g>
<g>
</g>
<g>
</g>
<g>
</g>
<g>
</g>
<g>
</g>
<g>
</g>
<g>
</g>
<g>
</g>
<g>
</g>
</svg>
