<?xml version="1.0" encoding="iso-8859-1"?>
<!-- Generator: Adobe Illustrator 19.0.0, SVG Export Plug-In . SVG Version: 6.00 Build 0)  -->
<svg version="1.1" id="Capa_1" xmlns="http://www.w3.org/2000/svg" xmlns:xlink="http://www.w3.org/1999/xlink" x="0px" y="0px"
	 viewBox="0 0 512.003 512.003" style="enable-background:new 0 0 512.003 512.003;" xml:space="preserve">
<path style="fill:#F4D44E;" d="M210.19,420.788c-14.607,0-26.448-11.841-26.448-26.448l0,0c0-14.607,11.841-26.448,26.448-26.448
	h-10.774c-14.607,0-26.448-11.841-26.448-26.448l0,0c0-14.607,11.841-26.448,26.448-26.448h-10.774
	c-14.607,0-26.448-11.841-26.448-26.448l0,0c0-14.603,11.836-26.442,26.438-26.448H33.996c-15.253,0-27.49-12.913-26.376-28.404
	c1-13.911,12.974-24.492,26.921-24.492c32.944,0,156.141,0,204.54,0c-33.763-30.466-50.515-66.322-51.607-68.712
	c-8.041-17.607-6.526-36.396,11.15-45.667c16.241-8.519,21.544-1.192,34.812,17.196c0.704,0.975,29.065,44.908,62.585,63.915
	c16.217,9.196,23.386,4.426,44.173,16.437c20.816,12.028,30.045,27.613,32.473,30.356h109.519c12.334,0,22.333,9.999,22.333,22.333
	V369.38c0,12.427-10.074,22.5-22.5,22.5c-2.417,0-100.506,0-94.954,0c-10.459,0-20.589,3.453-29.001,9.669
	c-15.358,11.349-34.131,18.341-54.493,19.154C301.423,420.865,307.288,420.752,210.19,420.788z"/>
<g>
	<path style="fill:#E8C842;" d="M210.19,395.788c97.098-0.035,91.233,0.077,93.379-0.084c20.363-0.814,39.135-7.805,54.493-19.154
		c8.411-6.216,18.542-9.669,29.001-9.669c4.867,0,92.669,0,94.954,0c12.427,0,22.5-10.074,22.5-22.5v25
		c0,12.427-10.074,22.5-22.5,22.5c-2.285,0-90.087,0-94.954,0c-10.459,0-20.589,3.453-29.001,9.669
		c-15.358,11.349-34.131,18.341-54.493,19.154c-2.146,0.161,3.718,0.048-93.379,0.084c-20.19,0-32.63-21.604-23.31-38.948
		C191.341,390.142,200.106,395.788,210.19,395.788z"/>
	<path style="fill:#E8C842;" d="M34.541,236.037c1.679,0,198.729,0,191.547,0c7.176,0,12.993,5.817,12.993,12.993l0,0
		c0,7.184-5.824,13.007-13.007,13.007c-4.907,0-185.539,0-191.533,0c-20.687,0-33.641-21.957-23.499-39.418
		C15.732,230.696,24.635,236.037,34.541,236.037z"/>
	<path style="fill:#E8C842;" d="M165.113,276.474c4.651,7.565,12.987,12.622,22.519,12.626h38.219c7.307,0,13.23,5.923,13.23,13.23
		c0,7.053-5.717,12.77-12.77,12.77h-29.176c0.753-0.064,1.512-0.104,2.282-0.104h-10.774
		C168.761,314.996,156.145,293.913,165.113,276.474z"/>
	<path style="fill:#E8C842;" d="M196.175,341.944h30.297c6.964,0,12.609,5.645,12.609,12.609l0,0
		c0,7.396-5.995,13.391-13.391,13.391h-17.093c0.528-0.031,1.058-0.052,1.594-0.052h-10.774c-20.111,0-32.364-21.283-23.544-38.491
		C180.154,336.38,187.573,341.221,196.175,341.944z"/>
</g>
<path d="M482.17,215.232H376.377c-0.098-0.1-22.504-32.637-58.624-39.503c-6.998-1.33-12.902-3.396-18.049-6.313
	c-22.407-12.705-45.566-39.915-59.769-61.143c-0.235-0.352-0.383-0.566-0.434-0.637c-13.77-19.082-22.669-30.841-44.378-19.449
	c-19.506,10.229-25.192,31.985-14.488,55.424c1.575,3.449,14.445,30.673,40.111,58.097H87.107c-4.143,0-7.5,3.357-7.5,7.5
	s3.357,7.5,7.5,7.5h151.957c6.855,0,10.11-8.48,5.024-13.068c-32.873-29.662-49.133-64.779-49.809-66.259
	c-3.524-7.717-9.818-26.664,7.812-35.91c9.894-5.189,11.316-4.358,25.194,14.872c16.596,23.71,38.848,51.281,65.02,66.122
	c6.508,3.689,14.127,6.382,22.646,8.001c12.695,2.413,28.736,10.643,42.005,24.859c1.723,1.967,7.861,9.65,10.95,22.424
	c0.831,3.434,3.9,5.739,7.284,5.739c4.865,0,8.435-4.554,7.296-9.265c-0.333-1.377-0.698-2.704-1.084-3.991H482.17
	c8.179,0,14.832,6.654,14.832,14.833v21.178c0,4.143,3.357,7.5,7.5,7.5s7.5-3.357,7.5-7.5v-21.178
	C512.002,228.615,498.619,215.232,482.17,215.232z"/>
<path d="M504.502,293.743c-4.143,0-7.5,3.357-7.5,7.5v68.141c0,8.271-6.729,15-15,15h-94.954c-12.028,0-23.598,3.852-33.459,11.138
	c-28.311,20.924-53.783,17.751-88.481,17.77c-4.143,0-7.5,3.357-7.5,7.5s3.357,7.5,7.5,7.5h36.438
	c19.636,0,42.304-6.92,60.959-20.706c7.261-5.365,15.748-8.201,24.544-8.201h94.954c16.542,0,30-13.458,30-30v-68.141
	C512.002,297.1,508.644,293.743,504.502,293.743z"/>
<path d="M33.98,269.603h126.491c-11.421,16.913-5.432,40.38,13.382,49.51c-14.704,16.796-9.468,43.074,10.774,52.896
	c-19.04,21.749-3.672,56.281,25.547,56.281h19.933c4.143,0,7.5-3.357,7.5-7.5s-3.357-7.5-7.5-7.5h-19.933
	c-10.448,0-18.948-8.5-18.948-18.948c0-10.447,8.5-18.947,18.948-18.947c4.143,0,7.5-3.357,7.5-7.5s-3.357-7.5-7.5-7.5H199.4
	c-10.448,0-18.948-8.5-18.948-18.948s8.5-18.948,18.948-18.948c4.143,0,7.5-3.357,7.5-7.5s-3.357-7.5-7.5-7.5h-10.774
	c-10.448,0-18.948-8.5-18.948-18.948c0-10.443,8.497-18.943,18.94-18.947c4.142-0.002,7.498-3.36,7.497-7.502
	c-0.001-4.141-3.358-7.498-7.5-7.498H33.98c-10.83,0-19.703-9.134-18.896-20.365c0.708-9.83,9.247-17.53,19.441-17.53h17.582
	c4.143,0,7.5-3.357,7.5-7.5s-3.357-7.5-7.5-7.5H34.525c-29.907,0-45.695,35.265-25.398,57.072
	C15.528,265.658,24.588,269.603,33.98,269.603z"/>
<g>
</g>
<g>
</g>
<g>
</g>
<g>
</g>
<g>
</g>
<g>
</g>
<g>
</g>
<g>
</g>
<g>
</g>
<g>
</g>
<g>
</g>
<g>
</g>
<g>
</g>
<g>
</g>
<g>
</g>
</svg>
