<?xml version="1.0" encoding="iso-8859-1"?>
<!-- Generator: Adobe Illustrator 19.0.0, SVG Export Plug-In . SVG Version: 6.00 Build 0)  -->
<svg version="1.1" id="Capa_1" xmlns="http://www.w3.org/2000/svg" xmlns:xlink="http://www.w3.org/1999/xlink" x="0px" y="0px"
	 viewBox="0 0 512.003 512.003" style="enable-background:new 0 0 512.003 512.003;" xml:space="preserve">
<path style="fill:#E2A86A;" d="M459.353,164.976l-406.681,0.052c-1.735,20.225-1.305,23.427-1.392,102.312l409.415-0.92
	C460.705,193.056,461.135,185.768,459.353,164.976z"/>
<path style="fill:#C19067;" d="M126.784,164.976l-75.246,0.052c-0.321,20.225-0.241,23.427-0.258,102.312l75.752-0.92
	C127.034,193.056,127.113,185.768,126.784,164.976z"/>
<g>
	<path style="fill:#DBBC3B;" d="M467.623,273.381c0,15.606-15.662,28.254-32.251,28.254v-56.507
		C451.962,245.129,467.623,257.778,467.623,273.381z"/>
	<path style="fill:#DBBC3B;" d="M44.361,273.756c0,15.813,15.87,28.629,32.679,28.629v-57.257
		C60.23,245.129,44.361,257.946,44.361,273.756z"/>
</g>
<g>
	<path style="fill:#CCAF37;" d="M435.373,279.332v22.304c16.589,0,32.251-12.649,32.251-28.254c0-3.961-1.013-7.729-2.79-11.152
		C459.609,272.288,447.75,279.332,435.373,279.332z"/>
	<path style="fill:#CCAF37;" d="M47.107,262.605c-1.753,3.427-2.747,7.195-2.747,11.152c0,15.813,15.87,28.629,32.679,28.629
		v-22.304C64.436,280.082,52.361,272.876,47.107,262.605z"/>
</g>
<path style="fill:#F4D44E;" d="M435.743,245.02c-0.992-1.712-14.332-13.455-20.48-43.956l-318.366-0.903
	c-5.911,31.133-19.616,43.056-20.657,44.859c0,0.008-0.089-0.025-0.089,87.156c0,94.571,79.604,172.125,179.841,172.311
	c0.656-0.001,1.312,0.004,1.97-0.004c97.531-0.853,177.871-77.042,177.871-172.307c0-0.055,0-0.12,0-0.195
	C435.814,236.881,435.743,245.594,435.743,245.02z"/>
<path style="fill:#E8C842;" d="M127.042,332.176c0-56.441,0.037-104.82,0.063-131.929l-30.207-0.086
	c-5.912,31.133-19.616,43.056-20.657,44.859c0,0.008-0.089-0.025-0.089,87.156c0,94.571,79.604,172.125,179.841,172.311
	c0.656-0.001,1.312,0.004,1.97-0.004c8.022-0.07,15.926-0.66,23.681-1.719C193.608,490.89,127.042,418.653,127.042,332.176z"/>
<path style="fill:#607793;" d="M465.456,107.008C422.289,58.834,346.57,7.5,255.992,7.5S89.695,58.834,46.528,107.008
	c-43.166,48.174,21.167,85.591,21.167,85.591l0,0c1.549,0.681,3.154,1.345,4.787,2c1.699-0.682,3.458-1.345,5.245-2h356.53
	c1.786,0.655,3.545,1.318,5.245,2c1.633-0.656,3.238-1.319,4.788-2l0,0C444.294,192.597,508.62,155.181,465.456,107.008z"/>
<path style="fill:#526B84;" d="M140.03,192.045c0,0-64.4-52.263-21.322-119.714c8.641-13.531,18.596-27.238,29.713-40.512
	C106.11,51.236,71.06,79.63,46.527,107.008c-43.165,48.174,21.168,85.591,21.168,85.591c1.549,0.681,3.154,1.345,4.787,2
	c1.699-0.682,3.458-1.345,5.245-2h63.234C140.651,192.414,140.335,192.232,140.03,192.045z"/>
<path style="fill:#F4D44E;" d="M290.167,63.69c-11.497,5.161-25.359,0.641-31.41-10.892c-0.54-1.03-1.596-1.684-2.76-1.684l0,0
	c-1.171,0-2.233,0.658-2.777,1.695c-6.048,11.516-19.901,16.046-31.405,10.882c-1.807-0.811-3.848,0.479-3.848,2.459v11.318
	c0,23.247,15.858,42.969,37.289,48.887c5.173,1.429,38.758-13.843,38.758-48.887V66.149
	C294.015,64.168,291.974,62.879,290.167,63.69z"/>
<path style="fill:#E8C842;" d="M242.741,68.575v-5.413c-6.375,3.238-14.068,3.605-20.925,0.527
	c-1.807-0.811-3.848,0.479-3.848,2.459v11.318c0,23.247,15.858,42.969,37.289,48.887c2.525,0.698,11.821-2.597,20.676-10.217
	C256.609,108.967,242.741,90.314,242.741,68.575z"/>
<path style="fill:#656566;" d="M67.694,192.599c83.912,36.865,292.84,36.794,376.595,0
	C360.432,155.761,151.514,155.776,67.694,192.599z"/>
<path style="fill:#4F4F51;" d="M123.778,176.28C102,180.526,82.806,185.961,67.694,192.6
	c38.527,16.926,103.409,26.059,170.427,27.433C193.938,215.965,151.995,201.385,123.778,176.28z"/>
<path style="fill:#656566;" d="M203.014,403.934c21.938,42.162,81.873,43.262,105.662,2.834c2.797-4.753-0.62-10.744-6.14-10.744
	h-94.706C203.765,396.023,201.139,400.331,203.014,403.934z"/>
<path style="fill:#4F4F51;" d="M227.956,403.934c-1.436-3.603,0.574-7.91,3.69-7.91h-23.815c-4.066,0-6.691,4.306-4.816,7.91
	c11.835,22.744,36.323,34.904,60.751,32.066C250.04,433.92,235.782,423.56,227.956,403.934z"/>
<path style="fill:#656566;" d="M192.037,279.05c-6.384-11.043-20.523-14.826-31.581-8.45c-11.058,6.375-14.846,20.495-8.462,31.538
	c6.383,11.043,20.523,14.826,31.581,8.45C194.633,304.212,198.421,290.092,192.037,279.05z"/>
<path style="fill:#4F4F51;" d="M172.016,290.593c-4.278-7.399-3.982-16.178,0.002-23.084c-3.93-0.004-7.913,0.987-11.561,3.09
	c-11.058,6.375-14.846,20.495-8.462,31.538c6.384,11.043,20.523,14.826,31.581,8.45c3.648-2.103,6.499-5.052,8.46-8.453
	C184.055,302.126,176.294,297.993,172.016,290.593z"/>
<path style="fill:#DBBC3B;" d="M270.181,313.68h-28.29c-3.83,0-6.963,3.129-6.963,6.954v5.288c0,8.992,5.701,17.147,14.293,19.841
	c14.553,4.563,27.925-6.165,27.925-20.014v-5.116C277.144,316.809,274.011,313.68,270.181,313.68z"/>
<path style="fill:#CCAF37;" d="M256.035,320.635c0-3.825,3.134-6.954,6.963-6.954H241.89c-3.83,0-6.963,3.129-6.963,6.954v5.288
	c0,16.901,18.107,25.802,31.548,18.149C253.573,336.754,256.39,322.374,256.035,320.635z"/>
<path style="fill:#656566;" d="M360.076,279.05c-6.384-11.043-20.523-14.826-31.581-8.45c-11.058,6.375-14.846,20.495-8.462,31.538
	s20.523,14.826,31.581,8.45C362.671,304.212,366.46,290.092,360.076,279.05z"/>
<path style="fill:#4F4F51;" d="M340.056,267.509c-17.648-0.018-28.959,19.171-20.023,34.628c8.935,15.455,31.233,15.27,40.041-0.003
	C352.093,302.126,331.177,282.904,340.056,267.509z"/>
<path d="M196.315,407.413c24.397,46.963,91.672,49.315,118.785,3.179c5.738-9.767-1.289-22.058-12.608-22.058h-94.706
	C198.087,388.534,191.848,398.818,196.315,407.413z M301.843,403.535c-20.66,34.195-70.387,33.362-90.51,0H301.843z"/>
<path d="M234.883,306.078c-4.142,0-7.5,3.357-7.5,7.5v12.087c0,15.775,12.834,28.609,28.609,28.609S284.6,341.44,284.6,325.665
	v-12.087c0-4.143-3.357-7.5-7.5-7.5s-7.5,3.357-7.5,7.5v12.087c0,7.504-6.104,13.609-13.608,13.609
	c-7.503,0-13.609-6.104-13.609-13.609v-12.087C242.383,309.435,239.025,306.078,234.883,306.078z"/>
<path d="M340.011,259.84c-16.884,0-30.62,13.736-30.62,30.62s13.736,30.618,30.62,30.618s30.618-13.735,30.618-30.618
	S356.895,259.84,340.011,259.84z M340.011,306.078c-8.612,0-15.619-7.006-15.619-15.618c0-8.612,7.006-15.619,15.619-15.619
	c8.611,0,15.618,7.006,15.618,15.619C355.63,299.072,348.624,306.078,340.011,306.078z"/>
<path d="M171.973,259.84c-16.884,0-30.619,13.736-30.619,30.62s13.736,30.618,30.619,30.618c16.883,0,30.618-13.735,30.618-30.618
	S188.856,259.84,171.973,259.84z M171.973,306.078c-8.612,0-15.619-7.006-15.619-15.618c0-8.612,7.006-15.619,15.619-15.619
	c8.611,0,15.618,7.006,15.618,15.619C187.591,299.072,180.584,306.078,171.973,306.078z"/>
<path d="M380.15,250.19c-23.274-19.477-57.133-19.371-80.277,0.001c-3.177,2.658-3.597,7.389-0.938,10.565
	c2.658,3.177,7.39,3.597,10.565,0.938c17.65-14.772,43.395-14.752,61.023,0.001c1.404,1.175,3.111,1.748,4.81,1.748
	C382.342,263.443,385.482,254.653,380.15,250.19z"/>
<path d="M212.111,250.191c-23.222-19.437-57.088-19.41-80.277,0c-3.177,2.658-3.597,7.389-0.938,10.565
	c2.659,3.177,7.389,3.597,10.566,0.938c17.617-14.744,43.361-14.781,61.022,0c1.404,1.176,3.111,1.749,4.81,1.749
	c2.143,0,4.272-0.914,5.755-2.687C215.708,257.58,215.288,252.849,212.111,250.191z"/>
<path d="M301.515,77.467V66.149c0-7.415-7.65-12.34-14.419-9.302l-0.001,0.001c-8.053,3.613-17.585,0.307-21.699-7.539
	c-1.846-3.513-5.447-5.694-9.398-5.694c-3.959,0-7.567,2.187-9.417,5.707c-4.114,7.834-13.643,11.141-21.691,7.526
	c-6.779-3.045-14.421,1.896-14.421,9.301v11.318c0,26.083,17.597,49.159,42.793,56.118
	C265.124,136.857,301.515,115.463,301.515,77.467z M225.469,77.467v-4.776c11.298,2.265,23.066-1.831,30.522-10.647
	c7.456,8.816,19.223,12.917,30.523,10.647v4.776c0,28.799-25.576,40.364-30.13,41.408
	C238.135,113.424,225.469,96.526,225.469,77.467z"/>
<path d="M471.043,102.003C418.42,43.277,339.316,0,255.992,0c-40.474,0-80.724,9.851-119.631,29.278
	c-3.706,1.851-5.21,6.354-3.359,10.061c1.851,3.705,6.354,5.208,10.061,3.359c36.807-18.38,74.801-27.698,112.928-27.698
	c108.515,0,183.486,74.255,203.878,97.013c10.106,11.28,14.346,22.669,12.598,33.851c-2.938,18.786-21.506,33.205-28.91,38.278
	c-19.499-8.004-45.077-14.4-76.122-19.025c-4.095-0.604-7.913,2.216-8.523,6.313c-0.61,4.098,2.216,7.913,6.313,8.523
	c21.984,3.275,41.498,7.577,57.556,12.654c-40.104,12.718-100.378,20.106-166.729,20.114c-0.038,0-0.07,0-0.107,0
	c-66.343,0-126.621-7.388-166.736-20.112c56.731-17.911,153.46-24.973,241.638-16.773c4.122,0.374,7.779-2.648,8.162-6.773
	c0.384-4.124-2.649-7.778-6.773-8.162c-73.806-6.863-195.554-4.768-263.811,23.25c-12.81-8.745-26.456-22.785-28.897-38.234
	c-1.769-11.199,2.466-22.605,12.589-33.902c17.446-19.47,38.652-37.564,61.325-52.323c3.471-2.26,4.454-6.905,2.194-10.378
	c-2.259-3.471-6.906-4.451-10.378-2.193c-23.761,15.468-46,34.446-64.312,54.884c-24.568,27.418-21.306,56.962,3.889,82.035
	c-1.304,13.023-0.968,14.945-1.05,69.202c-16.566,21.639-1.485,49.609,24.874,54.408c1.713,11.504-11.006,79.898,46.129,142.712
	c1.48,1.627,3.512,2.453,5.551,2.453c6.439,0,9.947-7.708,5.546-12.548c-27.233-29.939-42.231-68.326-42.231-108.089
	c0.043-77.784-0.024-77.958,0.051-84.398c0.782-1.16,13.237-13.975,19.089-35.807c42.38,10.515,97.78,15.774,153.2,15.773
	c55.403-0.002,110.812-5.261,153.194-15.773c5.747,21.439,18.512,34.938,19.097,35.806c0.076,5.411,0.012,13.943,0.051,84.399
	c0,137.726-165.609,213.071-277.46,130.608c-3.334-2.457-8.029-1.749-10.488,1.587c-2.458,3.334-1.748,8.029,1.586,10.487
	c121.213,89.362,301.362,7.94,301.362-142.683l-0.005-24.528c26.643-4.85,41.309-32.953,24.866-54.417
	c-0.248-45.365,0.668-52.562-1.002-69.233c8.776-8.743,17.746-20.944,20.083-35.742
	C489.784,132.384,484.321,116.823,471.043,102.003z M68.651,292.207c-9.427-2.848-16.79-10.737-16.79-19.23
	c0-8.491,7.362-16.38,16.79-19.227V292.207z M72.495,237.795c-4.853,0.425-9.478,1.686-13.697,3.613
	c0.05-42.078-0.058-39.279,0.215-45.52c1.126,0.787,4.563,3.135,5.839,3.652c7.03,3.079,14.908,5.901,23.471,8.475
	C83.562,225.86,72.945,237.126,72.495,237.795z M439.49,237.795c-0.636-0.945-10.988-11.613-15.836-29.778
	c5.584-1.678,20.932-6.912,24.405-8.932c0.311-0.181,2.183-1.287,4.952-3.225c0.342,7.831,0.123,7.715,0.184,45.554
	C448.975,239.483,444.347,238.22,439.49,237.795z M443.333,292.207v-38.456c9.428,2.847,16.79,10.735,16.79,19.227
	C460.123,281.471,452.762,289.36,443.333,292.207z"/>
<g>
</g>
<g>
</g>
<g>
</g>
<g>
</g>
<g>
</g>
<g>
</g>
<g>
</g>
<g>
</g>
<g>
</g>
<g>
</g>
<g>
</g>
<g>
</g>
<g>
</g>
<g>
</g>
<g>
</g>
</svg>
