<?xml version="1.0" encoding="iso-8859-1"?>
<!-- Generator: Adobe Illustrator 19.0.0, SVG Export Plug-In . SVG Version: 6.00 Build 0)  -->
<svg version="1.1" id="Capa_1" xmlns="http://www.w3.org/2000/svg" xmlns:xlink="http://www.w3.org/1999/xlink" x="0px" y="0px"
	 viewBox="0 0 512.002 512.002" style="enable-background:new 0 0 512.002 512.002;" xml:space="preserve">
<polygon style="fill:#5085BA;" points="214.373,42.673 297.628,42.673 256.001,93.156 "/>
<polygon style="fill:#2B709E;" points="273.293,72.185 248.946,42.673 214.373,42.673 256.001,93.156 "/>
<path style="fill:#70BBEF;" d="M418.596,76.188c-6.441-7.37-14.503-13.147-23.552-16.876l-45.466-18.739
	c-18.869-25.338-19.801-26.196-26.892-29.703l0,0l0,0l-66.686,78.92l0,0l-66.686-78.92l0,0l0,0
	c-7.539,3.728-9.614,6.502-26.892,29.703l-45.466,18.739c-9.05,3.729-17.111,9.506-23.552,16.876
	c-78.936,90.379-74.284,84.843-75,85.983c-2.022,3.214-1.759,7.302,0.477,10.224c1.071,1.404,60.481,48.013,60.583,48.092
	c3.702,2.892,8.826,2.962,12.61,0.336c2.422-1.682,16.393-18.894,18.543-20.916c1.498-1.263,3.919-0.575,4.422,1.444
	c3.506,14.472,6.36,37.337,7.746,52.17c11.068,118.355-16.479,203.68-15.755,211.747c0.587,6.549,4.488,12.303,10.262,15.007
	c4.547,2.146,17.418,7.129,31.488,11.1l0,0l0,0c65.043,18.396,149.662,18.32,214.436,0l0,0l0,0
	c14.408-4.067,28.261-9.511,31.716-11.205c5.812-2.858,9.469-8.603,10.035-14.903c0.868-9.673-13.678-45.161-17.581-122.794
	c-2.15-42.77,0.512-102.85,9.573-141.124c0.528-2.118,3.242-2.869,4.797-1.068c24.942,28.932,12.593,14.607,16.163,18.748
	c1.887,2.189,4.728,3.619,7.844,3.693c5.94,0.143,8.244-3.995,16.025-9.523c51.572-40.626,52.782-40.123,53.146-45.667
	C495.003,166.529,495.931,165.605,418.596,76.188z"/>
<g>
	<path style="fill:#57ADDD;" d="M163.847,38.657c-0.464,0.626-0.936,1.261-1.424,1.917l-45.466,18.739
		c-9.05,3.729-17.111,9.506-23.552,16.876c-78.936,90.379-74.284,84.843-75,85.983c-2.022,3.214-1.759,7.302,0.477,10.224
		c0.369,0.483,7.648,6.321,17.041,13.774c-0.658-2.366-0.369-4.97,1.016-7.171c0.716-1.139-3.936,4.397,75-85.983
		c6.442-7.37,14.503-13.147,23.552-16.876l42.642-17.574L163.847,38.657z"/>
	<path style="fill:#57ADDD;" d="M132.395,475.133c-0.723-8.242,26.822-95.41,15.755-216.325c-1.387-15.154-4.24-38.512-7.746-53.298
		c-8.257-34.457-30.164-5.226-30.164-5.226l-0.003,0.008c0.148-0.156,0.282-0.293,0.382-0.387c1.498-1.263,3.919-0.575,4.422,1.444
		c1.888,7.791,3.583,18.014,4.966,28.108h0.001c17.822,130.032-13.756,227.112-12.975,235.81
		c0.587,6.549,4.488,12.303,10.262,15.007c3.533,1.668,12.098,5.047,22.339,8.333C135.545,485.481,132.873,480.576,132.395,475.133z
		"/>
</g>
<path style="fill:#656566;" d="M189.224,8.966l25.331,36.479h80.939l27.379-36.605c-2.332-1.167-5.125-2.035-8.314-2.035
	C194.501,7.714,197.447,4.852,189.224,8.966z"/>
<path style="fill:#545456;" d="M219.318,6.759c-24.275-0.218-25.265-0.207-30.093,2.206l25.331,36.479h36.677L219.318,6.759z"/>
<path style="fill:#656566;" d="M35.727,142.184l-16.473,18.848c-3.384,3.871-2.834,9.786,1.204,12.968l58.947,46.444
	c4.482,3.532,10.95,2.909,14.676-1.414l16.16-18.745L35.727,142.184L35.727,142.184z"/>
<path style="fill:#545456;" d="M55.494,157.597l-19.768-15.414c-16.985,19.449-18.261,20.027-18.645,23.845
	c-0.122,1.173,0.01,2.59,0.477,3.909c0.954,2.705,0.279,1.881,18.366,16.232c-0.658-2.366-0.369-4.97,1.016-7.171
	C37.402,178.263,35.638,180.295,55.494,157.597z"/>
<g>
	<path style="fill:#656566;" d="M476.276,142.184l16.473,18.848c3.384,3.871,2.834,9.786-1.204,12.968l-58.947,46.444
		c-4.483,3.532-10.95,2.909-14.676-1.414l-16.16-18.745L476.276,142.184L476.276,142.184z"/>
	<path style="fill:#656566;" d="M181.414,15.07L181.414,15.07l-18.992,25.504l50.133,69.856c3.14,4.379,8.475,5.262,12.64,2.135
		L256,89.791L189.315,8.919C184.362,11.368,181.414,15.07,181.414,15.07z"/>
	<path style="fill:#656566;" d="M330.587,15.07L330.587,15.07c0,0-2.86-3.829-7.797-6.275L256.001,89.79l32.125,23.906
		c3.517,2.606,7.825,1.66,10.445-1.764l51.008-71.358L330.587,15.07z"/>
</g>
<path d="M500.609,161.212c-1.529-3.866,0.828-0.474-45.478-53.507c-2.733-3.124-7.482-3.444-10.608-0.713
	c-3.126,2.733-3.446,7.482-0.713,10.608l20.945,23.964l-64.695,50.445c-4.912-0.377-9.513,2.766-10.755,7.751l-0.228,0.914
	l0.072,0.018c-3.19,12.037-6.424,38.024-7.754,52.173c-11.12,118.92,16.246,204.99,15.701,211.059
	c-0.327,3.642-2.358,7.028-5.78,8.753c-7.761,3.505-18.605,7.189-26.727,9.641c-3.981,1.179-6.252,5.362-5.072,9.344
	c1.174,3.959,5.337,6.255,9.344,5.072c9.078-2.744,23.651-7.845,29.037-10.538c10.969-5.391,16.435-17.897,13.49-29.732
	c-20.96-84.16-22.078-175.126-9.413-243.758c10.501,12.183,10.211,11.919,11.373,12.975c6.224,5.616,15.695,6.515,23.117,1.051
	c0.1-0.071,59.997-47.092,61.534-48.95C501.612,173.452,502.965,167.164,500.609,161.212z M486.211,168.406
	c-62.228,49.014-59.013,46.866-60.483,46.944c-2.696,0.165-2.722-1.879-13.494-13.769l62.43-48.678
	c12.653,14.477,12.034,13.586,12.088,14.253C486.736,167.535,486.606,168.094,486.211,168.406z"/>
<circle cx="256.121" cy="140.735" r="9.647"/>
<circle cx="256.121" cy="175.503" r="9.647"/>
<path d="M329.526,490.535c-42.077,7.517-71.939,5.954-91.362,5.927v0.002c-43.16-2.313-67.032-7.275-90.822-14.237
	c-25.838-7.68-31.5-10.451-32.201-18.306c-0.547-6.084,21.332-76.721,18.172-168.328c-0.098-4.129-3.504-7.373-7.648-7.338
	c-4.151,0.073-7.457,3.498-7.384,7.649l0.006,0.207c1.264,54.581-4.654,109.015-17.441,160.353
	c-2.812,11.305,1.739,24.912,16.006,30.837c38.344,15.634,79.315,22.495,120.534,24.177v-0.001
	c20.79,1.434,59.907,0.091,94.783-6.142c4.087-0.73,6.807-4.635,6.078-8.722C337.518,492.525,333.615,489.8,329.526,490.535z"/>
<path d="M420.724,91.184c2.734,3.126,7.484,3.445,10.608,0.713c3.126-2.732,3.446-7.482,0.713-10.608
	c-5.588-5.506-13.987-19.778-34.489-28.23l-43.389-17.881c-18.111-24.322-19.823-28.072-28.03-32.187
	c-12.25-4.665,3.822-1.876-105.933-2.868c-24.22-0.217-28.475-0.742-36.846,4.609c-8.219,5.251-9,9.427-23.726,28.346l-1.563,2.099
	L114.68,53.061c-10.041,4.138-19.124,10.647-26.268,18.822C8.945,162.859,8.7,159.687,10.726,170.328
	c0.663,3.672,2.613,7.112,5.993,9.888c63.405,49.955,60.166,48.083,64.895,49.448c14.687,4.302,20.68-8.706,28.645-16.957
	c2.845,15.424,4.919,32.483,6.222,48.591c0.319,3.932,3.608,6.911,7.485,6.91c4.415,0,7.854-3.762,7.501-8.125
	c-1.4-17.233-4.703-44.901-8.31-59.417c-0.137-0.27-0.787-6.17-7.013-8.186c-1.31-0.423-2.654-0.571-3.969-0.471l-64.696-50.445
	l52.253-59.787c13.557-15.514,27.833-16.469,60.485-31.222l46.492,64.784c2.728,3.802,6.634,6.266,10.998,6.937
	c10.089,1.537,12.754-4.627,38.394-22.53c26.368,18.577,28.208,23.467,36.346,23.467c4.971,0,9.578-2.657,12.211-6.387
	l47.367-66.266l39.799,16.401C408.395,73.792,415.042,85.511,420.724,91.184z M100,201.58
	c-11.712,13.584-12.023,15.325-15.361,13.008c-60.445-47.623-60.254-46.601-58.808-48.254l11.739-13.431L100,201.58z
	 M308.338,15.242l-19.322,23.432h-65.799l-19.459-23.598C216.602,14.98,242.338,15.689,308.338,15.242z M219.989,107.414
	c-0.986-0.152,1.386,2.324-47.821-65.995c6.299-8.41,15.109-20.457,16.058-21.418c67.269,81.424,55.703,67.424,57.048,69.053
	C219.486,108.061,220.615,107.506,219.989,107.414z M235.616,53.708h41.003L256.117,78.57L235.616,53.708z M292.439,108.044
	l-25.495-18.972c0.108-0.131,56.952-68.943,57.061-69.075c21.742,28.999,14.591,19.46,16.068,21.43
	C290.276,111.078,292.599,107.872,292.439,108.044z"/>
<g>
</g>
<g>
</g>
<g>
</g>
<g>
</g>
<g>
</g>
<g>
</g>
<g>
</g>
<g>
</g>
<g>
</g>
<g>
</g>
<g>
</g>
<g>
</g>
<g>
</g>
<g>
</g>
<g>
</g>
</svg>
