<?xml version="1.0" encoding="iso-8859-1"?>
<!-- Generator: Adobe Illustrator 19.0.0, SVG Export Plug-In . SVG Version: 6.00 Build 0)  -->
<svg version="1.1" id="Capa_1" xmlns="http://www.w3.org/2000/svg" xmlns:xlink="http://www.w3.org/1999/xlink" x="0px" y="0px"
	 viewBox="0 0 511.999 511.999" style="enable-background:new 0 0 511.999 511.999;" xml:space="preserve">
<path style="fill:#7C6359;" d="M453.947,382.94h-1.564c22.69-29.042,1.791-71.65-35.804-71.65h-2.405
	c-1.056,0,18.788-11.132,18.437-36.707c-0.335-24.39-20.733-43.756-45.126-43.756h-2.77l-7.013-11.758
	c22.562-29.481,0.594-71.302-36.086-71.302c-0.204,0-2.997,0-2.893,0c-0.11,0-13.818,0-12.996,0c-0.47,0-2.808,0-2.706,0
	c-0.101,0-1.111,0-1.01,0c-0.82,0-8.032,0-7.614,0c-0.016-0.021-0.023-0.03-0.038-0.052c20.595-70.845-44.957-106.305-77.132-119.12
	c-6.086-2.423-12.394,2.817-11.243,9.266c2.449,13.716-9.278,35.565-33.965,60.253c-10.519,10.51-11.996,26.194-5.049,38.273
	l6.545,11.38c-0.104,0-10.058,0-9.957,0c-0.192,0-2.706,0-2.57,0c-0.101,0-1.248,0-1.147,0c-0.1,0-0.523,0-0.423,0
	c-0.134,0-1.997,0-1.893,0c-0.102,0-7.151,0-6.951,0h-0.189c-36.683,0-58.647,41.824-36.086,71.302l-7.013,11.758h-2.77
	c-24.393,0-44.792,19.367-45.126,43.757c-0.206,15.088,7.125,28.465,18.461,36.635c0.192,0.141-0.545,0.034-2.428,0.072
	c-37.595,0-58.495,42.607-35.804,71.65h-1.564c-27.797,0-50.539,22.743-50.539,50.539l0,0c0,27.796,22.743,50.539,50.539,50.539
	h395.894c27.797,0,50.539-22.743,50.539-50.539l0,0C504.486,405.682,481.743,382.94,453.947,382.94z"/>
<path style="fill:#705850;" d="M277.059,50.123c-13.999-10.147-28.858-17.157-39.833-21.528c-6.086-2.423-12.394,2.817-11.243,9.266
	c2.449,13.716-9.278,35.565-33.965,60.253c-10.519,10.51-11.996,26.194-5.049,38.273l6.545,11.38c-0.104,0-10.058,0-9.957,0
	c-0.192,0-2.706,0-2.57,0c-0.101,0-1.248,0-1.147,0c-0.1,0-0.523,0-0.423,0c-0.134,0-1.996,0-1.893,0c-0.102,0-7.151,0-6.951,0
	h-0.189c-36.683,0-58.647,41.824-36.086,71.302l-7.013,11.758h-2.77c-24.394,0-44.794,19.368-45.126,43.758
	c-0.205,15.087,7.126,28.463,18.461,36.633c0.192,0.141-0.545,0.034-2.428,0.072c-37.595,0-58.495,42.608-35.804,71.65h-1.564
	c-27.796,0-50.539,22.743-50.539,50.539l0,0c0,27.797,22.743,50.539,50.539,50.539h52.03c-27.797,0-50.539-22.743-50.539-50.539l0,0
	c0-23.923,16.849-44.09,39.264-49.248c2.883-0.663,5.315-2.589,6.623-5.242l0,0c0.987-2.001,1-4.32,0.138-6.378
	c-10.098-24.117,3.726-52.472,29.279-59.617c2.269-0.634,4.193-2.142,5.235-4.255l0.086-0.174c1.238-2.511,0.993-5.491-0.625-7.775
	c-5.099-7.202-8.107-15.987-8.13-25.479c-0.059-24.469,20.661-44.485,45.13-44.485h2.77l7.013-11.758
	c-22.56-29.478-0.597-71.302,36.086-71.302h0.189c-0.2,0,6.849,0,6.951,0c-0.103,0,1.759,0,1.893,0c-0.1,0,0.323,0,0.423,0
	c-0.101,0,1.047,0,1.147,0c-0.136,0,2.377,0,2.57,0c4.426,0,7.203-4.788,4.997-8.625l-1.584-2.755
	c-6.947-12.079-5.47-27.762,5.049-38.273C262.315,79.846,273.477,63.138,277.059,50.123z"/>
<circle style="fill:#EAE9E8;" cx="177.196" cy="252.552" r="54.43"/>
<path style="fill:#DBDBDB;" d="M151.779,267.229c-12.872-22.294-8.167-49.899,9.796-66.813c-3.964,1.191-7.856,2.84-11.596,4.999
	c-26.035,15.031-34.954,48.321-19.924,74.356c15.031,26.035,48.321,34.954,74.356,19.924c3.74-2.159,7.114-4.706,10.128-7.543
	C190.909,299.251,164.651,289.523,151.779,267.229z"/>
<path style="fill:#EAE9E8;" d="M147.11,357.67c45.055,86.706,168.142,88.97,216.998,5.828c5.744-9.775-1.272-22.095-12.61-22.095
	H157.001C148.65,341.403,143.26,350.259,147.11,357.67z"/>
<path style="fill:#DBDBDB;" d="M196.915,357.67c-2.975-7.411,1.189-16.267,7.642-16.267h-47.555c-8.351,0-13.741,8.856-9.891,16.267
	c25.535,49.141,76.135,71.147,124.081,65.864C241.327,419.273,212.824,397.296,196.915,357.67z"/>
<circle style="fill:#EAE9E8;" cx="334.805" cy="252.552" r="54.43"/>
<path style="fill:#DBDBDB;" d="M309.391,267.229c-12.872-22.294-8.167-49.899,9.796-66.813c-3.964,1.191-7.856,2.84-11.596,4.999
	c-26.035,15.031-34.954,48.321-19.924,74.356c15.031,26.035,48.321,34.954,74.356,19.924c3.74-2.159,7.114-4.706,10.128-7.543
	C348.521,299.251,322.262,289.523,309.391,267.229z"/>
<g>
	<circle style="fill:#656566;" cx="319.768" cy="252.552" r="11.737"/>
	<circle style="fill:#656566;" cx="192.233" cy="252.552" r="11.737"/>
</g>
<path d="M319.767,233.304c-10.615,0-19.25,8.636-19.25,19.25c0,10.615,8.636,19.249,19.25,19.249s19.249-8.635,19.249-19.249
	S330.38,233.304,319.767,233.304z M319.767,256.777c-2.328,0-4.223-1.895-4.223-4.222c0-2.328,1.894-4.223,4.223-4.223
	c2.327,0,4.222,1.894,4.222,4.223C323.988,254.882,322.094,256.777,319.767,256.777z"/>
<path d="M192.234,271.804c10.615,0,19.25-8.635,19.25-19.249s-8.636-19.25-19.25-19.25c-10.615,0-19.25,8.636-19.25,19.25
	C172.984,263.169,181.62,271.804,192.234,271.804z M192.234,248.332c2.328,0,4.223,1.894,4.223,4.223
	c0,2.327-1.894,4.222-4.223,4.222c-2.328,0-4.223-1.895-4.223-4.222C188.012,250.227,189.906,248.332,192.234,248.332z"/>
<path d="M157.002,348.917h133.496c4.151,0,7.514-3.363,7.514-7.514s-3.363-7.514-7.514-7.514H157.002
	c-13.994,0-23.006,14.837-16.558,27.244c47.866,92.11,178.367,94.28,230.144,6.17c8.692-14.79-1.936-33.415-19.088-33.415h-25.937
	c-4.151,0-7.514,3.363-7.514,7.514s3.363,7.514,7.514,7.514h25.937c5.535,0,8.931,6.008,6.132,10.774
	c-45.743,77.84-161.402,76.215-203.854-5.486C152.504,351.752,154.328,348.917,157.002,348.917z"/>
<path d="M272.859,252.554L272.859,252.554c0,34.159,27.788,61.947,61.946,61.947c40.226,0,68.851-37.419,60.489-75.353
	c31.698,6.645,40.597,47.135,14.437,65.994c-5.887,4.28-2.857,13.662,4.442,13.662h2.405c31.29,0,48.759,35.345,29.883,59.51
	c-1.769,2.264-2.092,5.338-0.833,7.92c2.465,5.049,7.926,4.129,8.318,4.22c23.724,0,43.024,19.301,43.024,43.025
	c0,23.724-19.301,43.025-43.024,43.025H112.613c-4.151,0-7.514,3.363-7.514,7.514s3.363,7.514,7.514,7.514h341.334
	c32.01,0,58.052-26.043,58.052-58.054c0-28.247-20.281-51.847-47.045-57.005c12.824-29.139-3.756-62.646-34.66-70.902
	c24.323-33.705,0.864-80.693-40.872-82.209c-0.802-1.495-1.672-2.947-2.591-4.366c21.526-35.379-5.494-78.742-45.216-78.742H323.91
	c3.64-18.413,2.004-35.815-4.895-51.851c-1.64-3.812-6.059-5.571-9.872-3.933c-3.812,1.64-5.573,6.059-3.933,9.872
	c6.666,15.498,7.316,32.75,1.931,51.277c-1.37,4.713,2.158,9.664,7.253,9.664h27.22c25.782,0,45.506,26.219,34.743,51.331
	C337.364,171.173,272.859,198.295,272.859,252.554z M381.724,252.555c0,25.871-21.048,46.918-46.918,46.918
	s-46.918-21.048-46.918-46.918c0-29.346,26.832-51.683,55.862-46.053c15.203,2.917,28.098,13.396,34.199,27.624
	C378.084,234.444,381.724,246.293,381.724,252.555z"/>
<path d="M0,433.479c0,32.011,26.042,58.053,58.053,58.053h19.496c4.151,0,7.514-3.363,7.514-7.514s-3.363-7.514-7.514-7.514H58.053
	c-23.724,0-43.025-19.3-43.025-43.026c0-23.724,19.301-43.024,43.025-43.024h1.565c6.241,0,9.775-7.207,5.921-12.139
	c-18.886-24.173-1.398-59.51,29.883-59.51h2.404c7.316,0,10.338-9.43,4.417-13.68c-25.946-18.7-17.459-59.286,14.463-65.975
	c-13.383,60.713,60.965,100.495,104.271,57.189c38.75-38.75,11.476-105.727-43.781-105.727c-0.423,0.074-22.495-1.316-41.553,16.003
	c-10.756-25.1,8.944-51.331,34.742-51.331h23.13c5.756,0,9.399-6.239,6.514-11.26l-6.545-11.379
	c-5.434-9.448-3.933-21.379,3.631-28.994c0.981-1.254,41.304-38.883,36.269-67.105c-0.12-0.66,0.455-1.209,1.065-0.965
	c14.764,5.88,35.799,16.267,52.165,32.362c2.956,2.908,7.713,2.872,10.626-0.089c2.909-2.958,2.869-7.716-0.089-10.626
	c-18.151-17.851-41.094-29.217-57.142-35.608c-11.625-4.629-23.592,5.386-21.42,17.565c3.466,19.416-32.044,53.758-32.119,53.858
	c-12.341,12.427-14.813,31.792-6.013,47.096l0.069,0.119h-10.139c-39.819,0-66.698,43.431-45.215,78.743
	c-0.919,1.419-1.788,2.871-2.59,4.366c-41.573,1.511-65.305,48.36-40.872,82.209c-30.88,8.25-47.494,41.741-34.661,70.902
	C20.281,381.631,0,405.232,0,433.479z M168.256,206.501c45.847-8.899,74.321,46.991,42.098,79.214
	c-29.349,29.349-80.078,8.691-80.078-33.161C130.276,229.858,146.585,210.666,168.256,206.501z"/>
<g>
</g>
<g>
</g>
<g>
</g>
<g>
</g>
<g>
</g>
<g>
</g>
<g>
</g>
<g>
</g>
<g>
</g>
<g>
</g>
<g>
</g>
<g>
</g>
<g>
</g>
<g>
</g>
<g>
</g>
</svg>
