<?xml version="1.0" encoding="iso-8859-1"?>
<!-- Generator: Adobe Illustrator 19.0.0, SVG Export Plug-In . SVG Version: 6.00 Build 0)  -->
<svg version="1.1" id="Capa_1" xmlns="http://www.w3.org/2000/svg" xmlns:xlink="http://www.w3.org/1999/xlink" x="0px" y="0px"
	 viewBox="0 0 512 512" style="enable-background:new 0 0 512 512;" xml:space="preserve">
<rect x="7.604" y="70.128" style="fill:#ECF1ED;" width="496.789" height="298.672"/>
<rect x="259.081" y="70.128" style="fill:#C387F2;" width="245.312" height="298.672"/>
<rect x="7.604" y="368.8" style="fill:#D3D4D9;" width="496.789" height="73.069"/>
<rect x="204.464" y="70.128" style="fill:#7C9D4C;" width="103.069" height="371.74"/>
<rect x="204.464" y="368.8" style="fill:#5F7E4F;" width="103.069" height="73.069"/>
<circle style="fill:#C387F2;" cx="64.958" cy="323.389" r="24.343"/>
<g>
	<path style="fill:#8029BF;" d="M442.561,299.953c9.814,10.899,26.38,34.38,26.38,68.841h-76.688l15.705-59.077
		c-38.628,0-69.946-33.356-69.946-74.518c0-11.801,2.585-22.954,7.168-32.869c-4.583-3.842-7.168-8.172-7.168-12.744
		c0-15.958,31.318-28.895,69.946-28.895c38.618,0,69.936,12.937,69.936,28.895v45.613
		C477.894,262.937,463.659,287.118,442.561,299.953z"/>
	<rect x="409.729" y="98.516" style="fill:#8029BF;" width="67.34" height="32.982"/>
</g>
<path d="M511.997,368.735V70.127c0-4.199-3.404-7.604-7.604-7.604h-196.86H204.464H7.604c-4.2,0-7.604,3.405-7.604,7.604v298.67
	c0,0.02,0.003,0.04,0.003,0.059v73.017c0,4.199,3.404,7.604,7.604,7.604h496.789c4.2,0,7.604-3.405,7.604-7.604v-73.079
	C512,368.774,511.997,368.754,511.997,368.735z M212.068,376.401h87.861v57.865h-87.861L212.068,376.401L212.068,376.401z
	 M196.86,376.401v8.909H15.211v-8.909H196.86z M15.211,400.517H196.86v9.632H15.211V400.517z M315.137,400.517h181.656v9.632
	H315.137V400.517z M315.137,385.31v-8.909h181.656v8.909H315.137z M496.789,361.19h-20.505
	c-1.826-27.195-13.146-47.364-22.572-59.692c3.719-2.878,7.176-6.093,10.35-9.626c3.001-3.34,2.421-8.557-1.208-11.201l0,0
	c-3.115-2.269-7.479-1.89-10.052,0.978c-4.11,4.583-8.799,8.499-14,11.689c-1.194,0.732-2.244,1.711-2.909,2.944
	c-1.592,2.949-1.087,6.421,1.018,8.759c8.379,9.303,21.969,28.409,24.134,56.148h-58.902l13.164-49.52
	c0.806-3.029-0.318-6.327-3.036-8.222c-1.33-0.928-2.952-1.328-4.575-1.335c-34.256-0.152-62.079-30.112-62.079-66.913
	c0-10.408,2.176-20.394,6.467-29.679c1.44-3.117,0.612-6.811-2.017-9.016c-2.031-1.703-4.451-4.286-4.451-6.919
	c0-8.682,24.286-21.291,62.342-21.291c38.05,0,62.332,12.61,62.332,21.291v45.613c0,6.416-0.833,12.7-2.482,18.756
	c-1.02,3.747,1.018,7.65,4.648,9.029l0.003,0.001c4.225,1.606,8.881-0.814,10.061-5.177c1.978-7.313,2.977-14.886,2.977-22.61
	v-45.613c0-10.997-8.944-20.75-25.187-27.459c-14.11-5.83-32.702-9.04-52.353-9.04c-19.656,0-38.252,3.211-52.362,9.04
	c-16.243,6.71-25.189,16.462-25.189,27.459c0,3.763,1.105,9.034,5.766,14.511c-3.827,9.865-5.766,20.302-5.766,31.103
	c0,41.797,29.64,76.401,67.831,81.481l-11.833,44.511h-71.268V77.731h181.652V361.19z M196.86,77.731v27.705
	c0,4.198,3.404,7.602,7.602,7.602h0.004c4.198,0,7.602-3.404,7.602-7.602V77.731h87.861v283.462h-87.861V140.918
	c0-4.198-3.404-7.602-7.602-7.602h-0.004c-4.198,0-7.602,3.404-7.602,7.602V361.19H15.208V77.731H196.86z M15.211,425.358H196.86
	v8.911H15.211V425.358z M315.137,434.269v-8.911h181.656v8.911H315.137z"/>
<path d="M64.96,355.335c17.613,0,31.943-14.329,31.943-31.943c0-17.613-14.33-31.942-31.943-31.942s-31.943,14.329-31.943,31.942
	C33.017,341.006,47.347,355.335,64.96,355.335z M64.96,306.659c9.228,0,16.735,7.507,16.735,16.734
	c0,9.228-7.507,16.735-16.735,16.735s-16.735-7.507-16.735-16.735C48.225,314.165,55.733,306.659,64.96,306.659z"/>
<path d="M71.794,232.522h21.793c0.588,2.829,1.063,6.723,0.639,11.079c-1.101,11.291-7.653,20.614-19.472,27.706
	c-2.931,1.758-4.329,5.257-3.416,8.55c0.911,3.294,3.909,5.574,7.328,5.574h66.651c4.2,0,7.604-3.405,7.604-7.604
	c0-4.199-3.404-7.604-7.604-7.604h-46.2c7.24-9.079,9.72-18.528,10.32-25.969c0.354-4.387,0.093-8.37-0.399-11.731h30.096
	c4.2,0,7.604-3.405,7.604-7.604s-3.404-7.604-7.604-7.604h-26.111c-13.615,0-24.691-11.076-24.691-24.69
	c0-13.615,11.076-24.691,24.691-24.691s24.691,11.076,24.691,24.691c0,4.199,3.404,7.604,7.604,7.604s7.604-3.405,7.604-7.604
	c0-22.001-17.899-39.899-39.899-39.899s-39.899,17.899-39.899,39.899c0,9.317,3.219,17.893,8.592,24.69h-9.922
	c-4.2,0-7.604,3.405-7.604,7.604S67.595,232.522,71.794,232.522z"/>
<path d="M409.734,139.104h67.338c4.2,0,7.604-3.405,7.604-7.604V98.517c0-4.199-3.404-7.604-7.604-7.604h-67.338
	c-4.2,0-7.604,3.405-7.604,7.604v32.982C402.131,135.699,405.534,139.104,409.734,139.104z M417.338,106.121h52.13v17.774h-52.13
	V106.121z"/>
<g>
</g>
<g>
</g>
<g>
</g>
<g>
</g>
<g>
</g>
<g>
</g>
<g>
</g>
<g>
</g>
<g>
</g>
<g>
</g>
<g>
</g>
<g>
</g>
<g>
</g>
<g>
</g>
<g>
</g>
</svg>
