<?xml version="1.0" encoding="iso-8859-1"?>
<!-- Generator: Adobe Illustrator 19.0.0, SVG Export Plug-In . SVG Version: 6.00 Build 0)  -->
<svg version="1.1" id="Capa_1" xmlns="http://www.w3.org/2000/svg" xmlns:xlink="http://www.w3.org/1999/xlink" x="0px" y="0px"
	 viewBox="0 0 512.001 512.001" style="enable-background:new 0 0 512.001 512.001;" xml:space="preserve">
<polyline style="fill:#302C49;" points="368.985,87.242 402.097,87.242 402.097,179.352 368.985,179.352 143.005,179.352 
	109.892,179.352 109.892,87.242 143.005,87.242 "/>
<path style="fill:#92AAB0;" d="M323.03,438.067H201.373l-17.61,44.612c0,11.995,9.724,21.719,21.719,21.719h101.031
	c11.995,0,21.719-9.724,21.719-21.719L323.03,438.067z"/>
<rect x="143.005" y="7.604" style="fill:#F2F2F2;" width="225.969" height="171.748"/>
<rect x="143.005" y="158.497" style="fill:#CCCCCC;" width="225.969" height="37.265"/>
<polyline style="fill:#302C49;" points="395.254,447.702 482.588,447.702 482.588,415.573 382.276,415.573 129.713,415.573 
	29.412,415.573 29.412,447.702 116.746,447.702 "/>
<path style="fill:#92AAB0;" d="M129.713,415.573H29.412H7.604V232.944c0-29.595,23.988-53.593,53.593-53.593h389.607
	c29.595,0,53.593,23.998,53.593,53.593v182.629h-21.808H382.276"/>
<path style="fill:#81969B;" d="M103.777,179.352h-42.58c-29.605,0-53.593,23.998-53.593,53.593v182.629h21.808h20.772V232.944
	C50.184,203.35,74.172,179.352,103.777,179.352z"/>
<polygon style="fill:#F2F2F2;" points="409.377,482.679 102.623,482.679 138.443,393.966 147.446,371.671 364.544,371.671 
	373.547,393.966 "/>
<polygon style="fill:#CCCCCC;" points="373.547,393.966 138.443,393.966 147.446,371.671 364.544,371.671 "/>
<path style="fill:#D0D8DB;" d="M437.726,245.441H74.274c-7.139,0-12.926-5.787-12.926-12.926l0,0
	c0-7.139,5.787-12.926,12.926-12.926h363.451c7.139,0,12.926,5.787,12.926,12.926l0,0
	C450.651,239.654,444.864,245.441,437.726,245.441z"/>
<path style="fill:#FF4064;" d="M89.481,269.267H74.274c-7.139,0-12.926,5.787-12.926,12.926l0,0c0,7.139,5.787,12.926,12.926,12.926
	h15.207c7.139,0,12.926-5.787,12.926-12.926l0,0C102.408,275.054,96.62,269.267,89.481,269.267z"/>
<path style="fill:#FAD600;" d="M157.272,269.267h-15.207c-7.139,0-12.926,5.787-12.926,12.926l0,0
	c0,7.139,5.787,12.926,12.926,12.926h15.207c7.139,0,12.926-5.787,12.926-12.926l0,0
	C170.198,275.054,164.411,269.267,157.272,269.267z"/>
<path d="M450.803,171.748h-41.102V87.242c0-4.199-3.405-7.604-7.604-7.604h-25.51V7.604c0-4.199-3.405-7.604-7.604-7.604H143.009
	c-4.199,0-7.604,3.405-7.604,7.604v72.034h-25.513c-4.199,0-7.604,3.405-7.604,7.604v84.505H61.197
	C27.399,171.748,0,199.146,0,232.944v182.629c0,4.199,3.405,7.604,7.604,7.604h14.204v24.525c0,4.199,3.405,7.604,7.604,7.604
	h76.061l-9.825,24.333c-0.655,1.623-0.836,3.43-0.348,5.111c0.981,3.375,4.01,5.532,7.322,5.532h25.124
	c4.199,0,7.604-3.405,7.604-7.604l0,0c0-4.199-3.405-7.604-7.604-7.604h-13.855l38.685-95.803h206.839l38.685,95.803h-69.871
	H183.762h-20.53c-4.199,0-7.604,3.405-7.604,7.604l0,0c0,4.199,3.405,7.604,7.604,7.604h13.93
	c3.36,12.494,14.779,21.719,28.318,21.719h101.031c13.539,0,24.958-9.225,28.316-21.719h74.336c1.751,0,3.495-0.509,4.871-1.592
	c2.762-2.175,3.627-5.789,2.388-8.859l-9.902-24.524h76.068c4.199,0,7.604-3.405,7.604-7.604v-24.525h14.204
	c4.199,0,7.604-3.405,7.604-7.604V232.944C512,199.146,484.601,171.748,450.803,171.748z M306.513,496.793H205.481
	c-4.985,0-9.375-2.599-11.887-6.511h124.804C315.887,494.195,311.497,496.793,306.513,496.793z M394.493,94.846v76.901h-17.906
	V94.846H394.493z M361.38,15.208v156.539H150.613V15.208H361.38z M117.496,94.846h17.909v76.901h-17.909V94.846z M37.016,440.098
	v-16.921h81.431l-6.832,16.921H37.016z M474.984,440.098h-74.605l-6.832-16.921h81.437V440.098z M496.792,407.969h-14.204h-95.182
	l-11.588-28.698h9.79c4.199,0,7.604-3.405,7.604-7.604s-3.405-7.604-7.604-7.604h-21.061H147.447h-21.061
	c-4.199,0-7.604,3.405-7.604,7.604s3.405,7.604,7.604,7.604h9.79l-11.588,28.698H29.412H15.208V232.944
	c0-25.359,20.63-45.989,45.989-45.989h48.696h33.107c0.003,0,0.006,0,0.01,0h225.974c0.003,0,0.006,0,0.01,0h33.104h48.706
	c25.359,0,45.989,20.63,45.989,45.989V407.969z"/>
<path d="M437.222,211.985h-67.16c-4.199,0-7.604,3.405-7.604,7.604l0,0c0,4.199,3.405,7.604,7.604,7.604h67.428
	c2.778,0,5.263,2.026,5.533,4.79c0.309,3.172-2.186,5.854-5.295,5.854H74.512c-2.778,0-5.263-2.026-5.533-4.791
	c-0.309-3.172,2.186-5.854,5.295-5.854h260.3c4.199,0,7.604-3.405,7.604-7.604l0,0c0-4.199-3.405-7.604-7.604-7.604H74.778
	c-11.118,0-20.599,8.628-21.019,19.738c-0.442,11.68,8.931,21.323,20.514,21.323h363.451c11.583,0,20.957-9.643,20.514-21.323
	C457.82,220.613,448.339,211.985,437.222,211.985z"/>
<path d="M89.481,261.663H74.273c-11.321,0-20.53,9.21-20.53,20.53c0,11.32,9.209,20.531,20.53,20.531h15.208
	c11.321,0,20.531-9.21,20.531-20.531C110.012,270.872,100.802,261.663,89.481,261.663z M89.481,287.515H74.273
	c-2.935,0-5.322-2.388-5.322-5.323s2.387-5.322,5.322-5.322h15.208c2.935,0,5.323,2.388,5.323,5.322
	C94.804,285.127,92.417,287.515,89.481,287.515z"/>
<path d="M157.272,261.663h-15.208c-11.321,0-20.531,9.21-20.531,20.53c0,11.32,9.21,20.531,20.531,20.531h15.208
	c11.321,0,20.53-9.21,20.53-20.531C177.802,270.872,168.593,261.663,157.272,261.663z M157.272,287.515h-15.208
	c-2.935,0-5.323-2.388-5.323-5.323s2.388-5.322,5.323-5.322h15.208c2.935,0,5.322,2.388,5.322,5.322
	C162.594,285.127,160.207,287.515,157.272,287.515z"/>
<g>
</g>
<g>
</g>
<g>
</g>
<g>
</g>
<g>
</g>
<g>
</g>
<g>
</g>
<g>
</g>
<g>
</g>
<g>
</g>
<g>
</g>
<g>
</g>
<g>
</g>
<g>
</g>
<g>
</g>
</svg>
