<?xml version="1.0" encoding="iso-8859-1"?>
<!-- Generator: Adobe Illustrator 19.0.0, SVG Export Plug-In . SVG Version: 6.00 Build 0)  -->
<svg version="1.1" id="Capa_1" xmlns="http://www.w3.org/2000/svg" xmlns:xlink="http://www.w3.org/1999/xlink" x="0px" y="0px"
	 viewBox="0 0 512 512" style="enable-background:new 0 0 512 512;" xml:space="preserve">
<path style="fill:#CC9D72;" d="M470.864,276.712c0.003-11.966,0.004-20.238,0.004-21.88c0-75.601-42.521-142.347-107.639-178.37
	l-214.112-0.005C83.167,112.91,41.47,180.089,41.47,254.832c0.015,49.415,0.01,44.974,0,61.315
	c1.542,43.752,6.834,103.326,22.705,152.627c4.673,14.518,19.394,23.333,34.38,20.51c67.201-12.278,57.191-8.014,249.81-8.874
	c21.321,1.933,44.376,4.877,65.416,8.874c14.988,2.824,29.708-5.991,34.38-20.51c15.872-49.301,21.163-108.876,22.705-152.627
	c-0.006-12.019,0.01-1.07-0.01-14.509C470.861,289.949,470.863,278.613,470.864,276.712z"/>
<path style="fill:#C19067;" d="M163.703,468.774c-15.871-49.301-21.163-108.876-22.705-152.627c0.01-16.341,0.015-11.9,0-61.315
	c0-74.742,41.696-141.919,107.644-178.373l-99.523-0.002C83.167,112.91,41.47,180.089,41.47,254.832
	c0.015,49.415,0.01,44.974,0,61.315c1.542,43.752,6.834,103.326,22.705,152.627c4.673,14.518,19.394,23.333,34.38,20.51
	c31.462-5.748,46.002-7.87,72.334-8.59C167.691,477.421,165.188,473.387,163.703,468.774z"/>
<path style="fill:#F4D44E;" d="M420.916,272.487c-85.201-19.043-162.397-65.421-208.06-114.684
	c-1.291-1.393-3.558-1.133-4.489,0.522c-8.314,14.787-44.862,72.522-113.996,83.39c-3.478,1.506-3.024,4.846-3.024,8.729
	c-0.005,24.578-0.015,96.008-0.015,96.141c0,87.644,74.81,159.018,166.603,157.895c89.073-0.779,162.992-70.24,162.992-158.073
	C420.928,342.821,420.922,302.322,420.916,272.487z"/>
<path style="fill:#E8C842;" d="M141.335,346.584c0-0.13,0.009-93.464,0.015-121.051c-13.552,7.476-29.182,13.384-46.978,16.181
	c-3.478,1.506-3.023,4.846-3.023,8.729c-0.005,24.578-0.015,96.008-0.015,96.141c0,87.644,74.81,159.018,166.603,157.894
	c7.841-0.069,15.563-0.68,23.129-1.779C201.983,491.206,141.335,425.496,141.335,346.584z"/>
<path style="fill:#F4D44E;" d="M175.125,132.123h162.357c6.015,0,11.293-4.005,12.915-9.797c2.408-8.606,19.821-70.839,22.62-80.845
	c1.566-7.672-5.552-13.901-12.626-12.084c-2.773,0.711-0.756,0.107-42.94,26.091c-3.081,1.914-6.91,2.058-10.1,0.455
	c-2.941-1.477-1.139-0.623-43.67-45.223c-4.091-4.32-10.952-4.289-15.015,0c-42.755,44.836-40.677,43.72-43.67,45.223
	c-3.143,1.578-6.973,1.486-10.1-0.455c-43.18-26.598-41.659-26.945-46.653-26.33c-5.708,0.701-10.183,6.069-8.912,12.323
	c1.115,3.984,15.087,53.918,22.552,80.599C163.545,128.021,168.957,132.123,175.125,132.123z"/>
<path style="fill:#E8C842;" d="M187.355,122.081c-7.465-26.681-21.438-76.616-22.552-80.599c-0.333-1.636-0.264-3.208,0.11-4.656
	c-12.9-8.057-13.324-8.078-16.67-7.666c-5.708,0.701-10.183,6.069-8.912,12.323c1.115,3.984,15.087,53.918,22.552,80.599
	c1.662,5.939,7.074,10.042,13.243,10.042h25.472C194.429,132.123,189.017,128.021,187.355,122.081z"/>
<path style="fill:#656566;" d="M307.647,403.37c-29.225-2.09-25.981-1.827-26.214-1.837c-16.506-0.689-24.337,3.652-25.527,3.968
	c-1.488-0.394-8.786-4.667-25.527-3.968c-0.12,0.005-0.466-0.004-26.214,1.837c-2.286,0.154-2.953,3.199-0.94,4.294l29.715,16.165
	c5.238,2.529,17.174,3.676,22.967,1.675c5.792,2,17.728,0.854,22.967-1.675l29.715-16.165
	C310.6,406.568,309.933,403.523,307.647,403.37z"/>
<path style="fill:#4F4F51;" d="M308.587,405.057l-29.715,9.378c-5.239,1.467-17.175,2.133-22.967,0.972
	c-5.792,1.16-17.729,0.495-22.967-0.972l-29.715-9.378c-0.417-0.131-0.712-0.313-0.909-0.516c-0.554,1.024-0.336,2.446,0.909,3.123
	l29.715,16.165c5.238,2.529,17.174,3.676,22.967,1.675c5.792,2,17.728,0.854,22.967-1.675l29.715-16.165
	c1.245-0.677,1.462-2.099,0.909-3.123C309.299,404.744,309.004,404.926,308.587,405.057z"/>
<path style="fill:#656566;" d="M197.63,303.811c-5.896-10.198-18.956-13.694-29.168-7.805c-10.212,5.888-13.712,18.93-7.815,29.128
	c5.896,10.198,18.956,13.694,29.168,7.805C200.027,327.051,203.526,314.011,197.63,303.811z"/>
<path style="fill:#4F4F51;" d="M179.138,314.474c-3.951-6.834-3.678-14.942,0.002-21.321c-3.629-0.004-7.308,0.912-10.677,2.854
	c-10.212,5.888-13.712,18.93-7.815,29.128c5.896,10.199,18.956,13.694,29.168,7.805c3.369-1.943,6.002-4.666,7.814-7.807
	C190.257,325.125,183.089,321.308,179.138,314.474z"/>
<path style="fill:#DBBC3B;" d="M269.804,329.332h-26.129c-3.537,0-6.431,2.89-6.431,6.423v4.884c0,8.305,5.266,15.838,13.202,18.326
	c13.442,4.215,25.792-5.694,25.792-18.485v-4.725C276.235,332.222,273.341,329.332,269.804,329.332z"/>
<path style="fill:#CCAF37;" d="M256.74,335.755c0-3.532,2.894-6.423,6.431-6.423h-19.497c-3.537,0-6.431,2.89-6.431,6.423v4.884
	c0,15.61,16.724,23.831,29.137,16.763C254.465,350.643,257.067,337.361,256.74,335.755z"/>
<path style="fill:#656566;" d="M352.833,303.811c-5.896-10.198-18.956-13.694-29.168-7.805c-10.212,5.888-13.712,18.93-7.815,29.128
	c5.896,10.198,18.956,13.694,29.168,7.805C355.23,327.051,358.729,314.011,352.833,303.811z"/>
<path style="fill:#4F4F51;" d="M334.342,293.153c-16.3-0.017-26.747,17.707-18.494,31.982c8.252,14.275,28.846,14.104,36.983-0.003
	C345.458,325.125,326.141,307.372,334.342,293.153z"/>
<path d="M236.787,322.041c-4.143,0-7.5,3.357-7.5,7.5v11.076c0,14.802,12.042,26.843,26.843,26.843s26.844-12.042,26.844-26.843
	v-11.076c0-4.143-3.357-7.5-7.5-7.5c-4.143,0-7.5,3.357-7.5,7.5v11.076c0,6.529-5.313,11.843-11.844,11.843
	c-6.529,0-11.842-5.313-11.842-11.843v-11.076C244.287,325.399,240.93,322.041,236.787,322.041z"/>
<path d="M333.121,286.086c-15.817,0-28.685,12.869-28.685,28.686c0,15.818,12.868,28.685,28.685,28.685
	c15.818,0,28.686-12.868,28.686-28.685C361.807,298.954,348.939,286.086,333.121,286.086z M333.121,328.456
	c-7.545,0-13.685-6.139-13.685-13.685c0-7.546,6.139-13.686,13.685-13.686c7.546,0,13.686,6.139,13.686,13.686
	C346.806,322.317,340.667,328.456,333.121,328.456z"/>
<path d="M179.138,343.456c15.817,0,28.686-12.868,28.686-28.685c0-15.818-12.869-28.686-28.686-28.686s-28.685,12.869-28.685,28.686
	C150.453,330.589,163.321,343.456,179.138,343.456z M179.138,301.086c7.546,0,13.686,6.139,13.686,13.686
	c0,7.545-6.139,13.685-13.686,13.685c-7.545,0-13.685-6.139-13.685-13.685C165.454,307.226,171.593,301.086,179.138,301.086z"/>
<path d="M370.305,277.39c-21.471-17.972-52.845-18.016-74.368,0c-3.176,2.658-3.596,7.389-0.937,10.565
	c2.659,3.175,7.389,3.596,10.565,0.937c15.94-13.342,39.193-13.322,55.111,0c1.404,1.176,3.111,1.749,4.81,1.749
	C372.496,290.642,375.638,281.852,370.305,277.39z"/>
<path d="M206.694,288.893c3.169,2.653,7.902,2.246,10.564-0.938c2.659-3.176,2.239-7.906-0.938-10.564
	c-21.474-17.974-52.846-18.013-74.367,0c-3.177,2.658-3.597,7.389-0.938,10.564c2.658,3.177,7.388,3.597,10.564,0.938
	C167.495,275.577,190.745,275.545,206.694,288.893z"/>
<path d="M197.563,410.459l33.738,19.845c5.091,2.954,16.616,4.857,24.827,3c7.77,1.759,18.725,0.198,24.498-2.815
	c0.101-0.053,34.509-20.189,35.387-20.964c4.488-3.94,2.754-11.324-3.014-12.867c-1.326-0.355-32.859-2.606-33.133-2.618
	c-8.836-0.399-15.927,0.273-23.977,3.354c-14.699-5.569-25.482-3.273-55.137-0.981C193.112,397.028,191.149,406.892,197.563,410.459
	z M252.477,412.19l0.433,0.188c5.711,2.486,7.138-2.752,19.268-3.341c5.62-0.276,6.84,0.044,14.335,0.597l-12.963,7.624
	c-3.226,1.585-11.646,2.392-14.844,1.213c-1.655-0.605-3.43-0.605-5.061-0.029c-3.549,1.239-11.799,0.357-14.934-1.184l-13.008-7.65
	C229.49,409.723,240.038,406.781,252.477,412.19z"/>
<path d="M372.033,72.836c5.709-20.42,8.248-29.44,8.333-29.853c1.235-6.051-0.692-12.199-5.156-16.444
	c-4.504-4.284-10.743-5.933-16.726-4.393c-4.177,1.069-1.586,0.239-44.99,26.973c-0.831,0.518-1.896,0.567-2.777,0.123
	c-0.526-0.263-1.082-0.816-8.374-8.579c-2.836-3.018-7.582-3.168-10.602-0.332c-3.02,2.836-3.168,7.582-0.332,10.602
	c9.239,9.837,9.6,10.221,12.575,11.715c5.51,2.77,12.188,2.469,17.403-0.771c34.095-21.003,39.791-24.931,40.873-25.213
	c1.716-0.441,3.745,1.055,3.442,3.13l-22.527,80.514c-0.711,2.541-3.052,4.316-5.691,4.316H175.125
	c-2.792,0-5.268-1.876-6.019-4.563c-23.003-83.827-23.412-80.272-21.996-82.242c0.478-0.662,1.242-1.116,2.049-1.215
	c0.181-0.022,0.346-0.047,0.503-0.063c2.737,1.036,14.181,8.631,41.278,25.321c5.237,3.25,11.913,3.554,17.448,0.772
	c4.503-2.259,1.636-0.52,45.725-46.755c1.099-1.161,2.98-1.208,4.141,0.019c3.229,3.387,6.199,6.508,8.939,9.39
	c2.853,3.002,7.601,3.122,10.603,0.269c3.003-2.854,3.123-7.601,0.269-10.603c-2.744-2.888-5.72-6.015-8.938-9.389
	c-7.056-7.451-18.915-7.381-25.888-0.019c-32.13,33.693-39.611,42.141-41.327,43.555c-1.147,0.601-2.169,0.569-3.082,0.003
	c-44.281-27.274-43.343-28.394-51.501-27.389c-10.033,1.234-17.494,10.702-15.349,21.261c0.088,0.431,2.373,8.538,8.332,29.853
	c-11.905,7.008-22.852,14.926-32.377,23.146c-0.001,0-0.001,0.001-0.001,0.001C63.939,132.93,33.97,190.768,33.97,254.832
	c0.391,9.625-5.985,125.995,23.066,216.24c5.095,15.826,19.845,26.223,35.982,26.223c8.365,0,11.634-2.89,62.062-8.493
	c9.812-1.012,9.703-0.827,10.964-1.188c6.823,4.019,13.989,7.619,21.473,10.744c3.82,1.596,8.213-0.209,9.811-4.031
	c1.596-3.822-0.209-8.215-4.031-9.811c-57.384-23.961-94.464-78.102-94.464-137.931c0.001-3.737,0.012-96.461,0.02-98.02
	c63.304-11.393,99.5-59.494,112.803-81.058c44.246,46.382,120.809,91.59,201.762,110.946c0.005,24.387,0.008,42.922,0.011,68.132
	c0,94.749-90.39,165.839-187.726,147.602c-4.064-0.755-7.989,1.92-8.753,5.991c-0.763,4.071,1.92,7.99,5.991,8.753
	c39.874,7.467,84.522,1.66,123.346-21.32c1.186,0.341,30.112,2.54,62.945,8.456c2.027,0.37,3.263,0.605,3.162,0.586
	c18.663,3.52,37.095-7.517,42.91-25.582c11.881-36.907,19.397-83.472,22.338-138.398c0.222-4.137-2.952-7.669-7.088-7.891
	c-4.123-0.221-7.669,2.952-7.891,7.088c-2.832,52.883-10.314,99.428-21.639,134.605c-3.513,10.914-14.629,17.557-25.771,15.453
	c-11.913-2.127-25.29-4.607-49.952-7.352c39.129-30.868,63.128-76.752,63.128-127.992v-0.179c0-3.224-0.005-36.324-0.01-64.659
	c4.201,0.845,8.452,1.64,12.764,2.374c4.114,0.698,7.963-2.08,8.652-6.135c0.695-4.084-2.052-7.957-6.135-8.652
	c-96.981-16.509-181.029-68.906-225.343-116.629c-4.718-5.09-13.09-4.165-16.527,1.944c-21.173,37.654-60.241,72.05-108.622,79.655
	c-4.414,0.697-9.267,5.528-9.339,11.926c-0.033,4.61-0.036,100.238-0.036,100.355c0,50.376,23.784,97.054,63.126,128
	c-16.523,1.836-33.522,4.255-49.789,7.329c-11.223,2.116-22.339-4.522-25.853-15.438c-22.927-71.219-22.691-153.68-22.345-211.644
	c0-69.555,37.441-131.366,95.534-167.022l10.155,36.293c2.556,9.138,10.971,15.522,20.465,15.522h162.357
	c9.341,0,17.622-6.282,20.138-15.277l10.221-36.533c34.438,21.152,60.841,51.001,76.987,84.897
	c35.561,74.642,5.256,132.057,26.03,132.062h0.001c4.142,0,7.499-3.357,7.5-7.499l0.009-42.44
	C478.369,177.787,436.05,110.565,372.033,72.836z"/>
<g>
</g>
<g>
</g>
<g>
</g>
<g>
</g>
<g>
</g>
<g>
</g>
<g>
</g>
<g>
</g>
<g>
</g>
<g>
</g>
<g>
</g>
<g>
</g>
<g>
</g>
<g>
</g>
<g>
</g>
</svg>
