<?xml version="1.0" encoding="iso-8859-1"?>
<!-- Generator: Adobe Illustrator 19.0.0, SVG Export Plug-In . SVG Version: 6.00 Build 0)  -->
<svg version="1.1" id="Capa_1" xmlns="http://www.w3.org/2000/svg" xmlns:xlink="http://www.w3.org/1999/xlink" x="0px" y="0px"
	 viewBox="0 0 512 512" style="enable-background:new 0 0 512 512;" xml:space="preserve">
<path style="fill:#E8C842;" d="M501.102,323.961L448.81,144.005h-4.485l9.659,201.583c0,31.387-26.925,57.068-59.833,57.068
	c-32.907,0-57.832-27.679-57.833-59.065v1.588c0,34.682-30.566,64.859-64.778,63.044c-31.842-1.69-56.523-37.277-56.523-69.95
	v-0.683c0,16.847-7.231,40.04-18.658,50.51l0.003,1.123c-5.378,41.722,27.392,73.717,59.481,70.978l29.511-2.52l117.267-0.615
	c28.882-0.151,55.806-14.627,71.86-38.636l15.634-23.381C504.1,374.136,508.12,348.114,501.102,323.961z"/>
<path style="fill:#DBBC3B;" d="M474.484,390.875c-16.054,24.009-42.978,38.485-71.86,38.636l-117.267,0.615l-29.511,2.52
	c-25.256,2.156-50.919-17.211-58.088-45.894c-0.462,0.453-0.919,0.909-1.396,1.346l0.003,1.123
	c-5.378,41.722,27.392,73.717,59.481,70.978l29.511-2.52l117.267-0.615c28.882-0.151,55.806-14.627,71.86-38.636l15.634-23.381
	c12.072-18.055,16.711-39.919,13.236-61.104C498.999,360.508,485.214,372.913,474.484,390.875z"/>
<path style="fill:#F4D44E;" d="M447.675,120.881c-2.596-52.872-77.429-70.011-103.513-24.446c-2.446,4.273-9.008,3.542-10.502-1.336
	c-7.66-25.02-31.017-43.351-58.459-43.351c-24.332,0-45.45,14.413-55.266,35.12c-3.718,7.843-14.613,8.857-20.411,2.367
	c-31.751-35.538-89.905-18.709-98.592,27.42c-1.382,7.34-10.201,11.662-15.884,6.401c-14.47-13.395-31.429-12.344-31.329-12.324
	c-25.421,0-46.219,20.799-46.219,46.219v180.945c0,25.421,20.799,46.219,46.219,46.219l0,0c25.421,0,46.219-20.799,46.219-46.219
	v11.844c0,30.504,23.613,56.26,54.076,57.837c32.73,1.695,60.059-24.611,60.059-56.99v0.683c0,32.673,25.292,60.261,57.922,61.951
	c35.058,1.815,64.331-26.362,64.331-61.044v-1.588c0.001,31.386,27.592,57.065,61.314,57.065s61.314-25.681,61.314-57.068
	L447.675,120.881z"/>
<g>
	<path style="fill:#E8C842;" d="M66.243,112.468c-7.248-2.084-12.579-1.748-12.522-1.736c-25.421,0-46.219,20.799-46.219,46.219
		v180.945c0,30.37,29.242,52.819,58.72,44.476c-19.397-5.488-33.72-23.386-33.72-44.476V156.952
		C32.501,135.851,46.835,117.95,66.243,112.468z"/>
	<path style="fill:#E8C842;" d="M410.141,406.45c-26.962-5.251-47.564-27.118-48.755-53.453V161.202c0-6.904-5.596-12.5-12.5-12.5
		c-6.904,0-12.5,5.596-12.5,12.5V352.69c0.511,12.941,5.722,24.803,14.062,34.177c-0.006,0.009-0.011,0.017-0.017,0.026
		c2.898,3.255,6.861,6.82,10.956,9.63v-0.016C375.886,406.469,393.614,409.67,410.141,406.45z"/>
	<path style="fill:#E8C842;" d="M124.941,349.741v-11.844c0,0.217-0.017,0.43-0.02,0.647V182.202c0-6.904-5.596-12.5-12.5-12.5
		c-6.904,0-12.5,5.596-12.5,12.5v156.472c0.004-0.26,0.02-0.517,0.02-0.778v11.844c0,36.079,32.951,64.784,69.573,56.511
		C143.783,400.427,124.941,376.985,124.941,349.741z"/>
	<path style="fill:#E8C842;" d="M239.257,355.888V151.202c0-6.904-5.596-12.5-12.5-12.5s-12.5,5.596-12.5,12.5v204.614
		c0.842,11.641,4.887,22.488,11.283,31.554c-0.001,0.001-0.002,0.003-0.003,0.004c3.767,5.333,8.62,10.281,13.72,14.062v-0.019
		c14.452,10.725,32.078,14.024,48.444,10.588C261.163,406.419,241.278,383.376,239.257,355.888z"/>
	<path style="fill:#E8C842;" d="M108.585,96.88L108.585,96.88c-3.506,5.62-6.221,12.322-7.619,19.613h0.001
		c-1.063,5.537-5.821,9.004-10.37,8.866l0.004,0.014c0,0,12.643,8.886,27.685,0.209c6.527-4.075,7.854-10.575,8.059-10.902
		c5.178-23.218,23.073-38.64,43.459-43.165C146.647,66.274,121.5,76.173,108.585,96.88z"/>
	<path style="fill:#E8C842;" d="M227.797,74.431c-0.003-0.001-0.006-0.002-0.009-0.003c-2.579,3.172-5.118,7.025-7.091,10.902
		c0.006,0.005,0.011,0.011,0.017,0.016c-0.258,0.508-0.534,1.005-0.778,1.52c-1.99,4.199-6.04,6.42-10.261,6.601l0.017,0.033
		c0,0,12.978,6.076,25.421,1.174c7.606-3.52,11.132-10.393,11.132-10.393h0.012c8.413-15.764,23.52-27.471,41.47-31.235
		C265.607,48.393,242.481,56.363,227.797,74.431z"/>
	<path style="fill:#E8C842;" d="M362.004,77.947L362.004,77.947c-2.779,1.695-5.774,3.984-7.995,6.041
		c0.003,0.005,0.005,0.01,0.007,0.015c-10.696,9.9-8.98,15.736-15.244,15.206l0,0c0.104,0.014,10.565,8.224,22.6,2.348
		c7.73-3.774,10.917-10.081,11.842-11.181c7.875-10.257,18.618-16.417,30.152-18.926C389.372,68.517,374.361,70.41,362.004,77.947z"
		/>
</g>
<path d="M456.259,142.738l-1.092-22.248c-2.874-58.526-83.784-79.34-115.501-31.082c-9.817-26.781-35.814-45.184-64.464-45.184
	c-26.342,0-50.694,15.468-62.044,39.408c-1.363,2.875-5.723,3.174-8.041,0.583c-35.626-39.881-101.641-21.611-111.554,31.028
	c-0.299,1.583-2.303,3.322-3.419,2.286C55.933,85.861,0,110.123,0,156.929v20.656c0,4.142,3.357,7.5,7.5,7.5s7.5-3.358,7.5-7.5
	v-20.656c0-33.665,40.245-51.259,64.954-28.391c10.089,9.337,25.893,2.511,28.349-10.517c7.586-40.282,58.147-54.574,85.628-23.812
	c9.378,10.497,26.769,8.537,32.782-4.152c8.878-18.73,27.912-30.832,48.488-30.832c23.339,0,44.428,15.645,51.287,38.044
	c3.386,11.073,18.428,12.926,24.184,2.869c22.628-39.527,87.309-23.792,89.513,21.088l8.044,163.823
	c0.197,4.012,3.512,7.132,7.485,7.132c4.308,0,7.707-3.599,7.497-7.868l-3.775-76.884L493.9,326.032
	c6.416,22.081,2.766,45.708-10.016,64.823l-15.634,23.381c-14.689,21.969-39.237,35.166-65.664,35.305l-100.692,0.528
	c-4.143,0.021-7.482,3.397-7.461,7.539c0.021,4.129,3.375,7.461,7.499,7.461c1.801,0-14.765,0.078,100.732-0.528
	c31.414-0.165,60.594-15.853,78.055-41.967l15.634-23.381c15.251-22.809,19.607-50.999,11.951-77.347L456.259,142.738z"/>
<path d="M95.943,371.051c13.244,39.01,57.85,55.189,92.234,36.044c0.431,16.318,7.339,31.936,19.309,43.332
	c23.126,22.022,48.877,17.172,60.083,16.273c4.127-0.353,7.188-3.983,6.835-8.11c-0.353-4.127-3.991-7.191-8.11-6.835
	c-5.116-0.355-28.483,6.836-48.463-12.191c-19.674-18.733-13.849-41.606-13.978-44.681c3.769-3.988,7.004-8.415,9.629-13.163
	c25.33,52.694,99.137,51.56,123.721-0.305c11.683,20.072,34.396,33.719,60.44,33.719c40.304,0,70.345-32.608,68.806-64.936
	l-1.517-30.884c-0.203-4.137-3.697-7.306-7.859-7.123c-4.137,0.203-7.326,3.722-7.123,7.859l1.508,30.693
	c-0.106,27.249-24.206,49.389-53.815,49.389c-29.672,0-53.813-22.235-53.814-49.564c0-0.138-1.982-197.611-1.983-197.732
	c-0.041-4.117-3.391-7.425-7.498-7.425c-4.181,0-7.543,3.41-7.502,7.575l1.983,199.191c-0.012,30.305-25.58,55.158-56.443,53.533
	c-28.491-1.475-50.809-25.397-50.809-54.46c-0.007-1.722-0.015-1.566-3.118-207.38c-0.063-4.141-3.469-7.471-7.612-7.386
	c-4.142,0.063-7.448,3.471-7.386,7.612l3.116,206.488c-0.01,28.282-23.893,50.962-52.171,49.481
	c-26.335-1.363-46.963-23.479-46.963-50.346c-1.541-188.54-1.398-171.038-1.407-172.2c-0.037-4.24-3.579-7.524-7.565-7.434
	c-4.143,0.036-7.471,3.423-7.435,7.565L92.44,337.89c-0.009,21.343-17.376,38.703-38.718,38.703c-21.351,0-38.72-17.37-38.72-38.719
	v-125.29c0-4.142-3.357-7.5-7.5-7.5s-7.5,3.358-7.5,7.5v125.29C0,388.741,64.454,411.036,95.943,371.051z"/>
<g>
</g>
<g>
</g>
<g>
</g>
<g>
</g>
<g>
</g>
<g>
</g>
<g>
</g>
<g>
</g>
<g>
</g>
<g>
</g>
<g>
</g>
<g>
</g>
<g>
</g>
<g>
</g>
<g>
</g>
</svg>
