<?xml version="1.0" encoding="iso-8859-1"?>
<!-- Generator: Adobe Illustrator 19.0.0, SVG Export Plug-In . SVG Version: 6.00 Build 0)  -->
<svg version="1.1" id="Capa_1" xmlns="http://www.w3.org/2000/svg" xmlns:xlink="http://www.w3.org/1999/xlink" x="0px" y="0px"
	 viewBox="0 0 512.003 512.003" style="enable-background:new 0 0 512.003 512.003;" xml:space="preserve">
<path style="fill:#F96989;" d="M446.23,168.476c-3.667,1.185-7.812,0.804-11.331-1.407c-81.912-51.429-275.822-51.429-357.732,0
	c-3.233,2.03-7.256,2.698-11.316,1.389C15.755,232.963-12.934,378.066,25.15,436.068c59.82,91.107,401.861,91.236,461.766,0
	C524.996,378.07,496.315,232.99,446.23,168.476z"/>
<path style="fill:#ED5A81;" d="M78.351,457.993c-44-67.012-12.673-232.261,44.006-311.083c-17.186,5.493-32.529,12.21-45.19,20.16
	c-3.233,2.03-7.256,2.698-11.316,1.389C15.756,232.963-12.934,378.065,25.15,436.068c13.925,21.209,43.149,37.485,80.543,48.829
	C94.124,476.83,84.833,467.864,78.351,457.993z"/>
<path style="fill:#EAE9E8;" d="M449.251,146.207c-30.881-19.389-75.562-32.865-127.492-38.998
	c-6.091,8.078-18.385,6.843-22.827-2.186c-28.27-2.091-57.437-2.086-85.835,0.076c-4.485,8.975-16.638,10.111-22.712,2.215
	c-42.16,5.026-91.457,16.218-127.571,38.892c-6.312,3.964-8.218,12.295-4.254,18.607c3.975,6.331,12.313,8.207,18.606,4.254
	c81.91-51.429,275.82-51.429,357.732,0c6.312,3.965,14.643,2.059,18.606-4.254C457.469,158.502,455.565,150.171,449.251,146.207z"/>
<g>
	<path style="fill:#CECECE;" d="M297.522,58.227c0,22.478,0,24.288,0,46.77c0,7.512,6.042,13.6,13.496,13.6
		c7.454,0,13.496-6.088,13.496-13.6c0-22.482,0-24.293,0-46.784C315.827,62.991,305.664,62.689,297.522,58.227z"/>
	<path style="fill:#CECECE;" d="M187.551,58.232c0,10.711,0,36.478,0,46.765c0,7.512,6.042,13.6,13.496,13.6
		s13.496-6.088,13.496-13.6c0-10.715,0-36.489,0-46.779C205.855,62.995,195.693,62.693,187.551,58.232z"/>
</g>
<g>
	<circle style="fill:#EAE9E8;" cx="311.019" cy="35.65" r="28.032"/>
	<circle style="fill:#EAE9E8;" cx="201.049" cy="35.652" r="28.042"/>
</g>
<g>
	<path style="fill:#DBDBDB;" d="M320.338,46.455c-13.526-7.81-18.167-25.292-9.93-38.838c-9.463,0.215-18.589,5.218-23.668,14.014
		c-7.742,13.408-3.147,30.555,10.261,38.296c13.224,7.635,30.078,3.265,37.966-9.72C330.004,50.321,324.95,49.118,320.338,46.455z"
		/>
	<path style="fill:#DBDBDB;" d="M210.366,46.459c-13.407-7.74-18.236-25.156-9.93-38.842c-9.463,0.216-18.589,5.219-23.669,14.016
		c-7.742,13.41-3.147,30.557,10.262,38.3c13.225,7.636,30.079,3.265,37.968-9.72C220.035,50.326,214.979,49.122,210.366,46.459z"/>
	<path style="fill:#DBDBDB;" d="M114.66,126.186c0.93-1.611,2.084-3.008,3.395-4.19c-19.857,6.05-38.9,13.952-55.241,24.212
		c-6.312,3.964-8.218,12.295-4.254,18.607c3.975,6.331,12.312,8.206,18.606,4.254c12.212-7.667,26.927-14.182,43.374-19.564
		C112.63,144.613,109.977,134.296,114.66,126.186z"/>
</g>
<path d="M488.285,234.184c-1.439-3.884-5.753-5.867-9.636-4.427c-3.883,1.438-5.864,5.752-4.427,9.636
	c19.223,51.899,36.767,146.349,6.426,192.558c-9.986,15.211-30.117,28.9-58.215,39.591c-3.87,1.473-5.813,5.804-4.342,9.674
	c1.477,3.883,5.815,5.809,9.674,4.342c31.512-11.989,53.521-27.256,65.419-45.377C526.489,389.457,509.64,291.841,488.285,234.184z"
	/>
<path d="M69.092,178.614c8.982,0.377,11.504-3.527,23.28-9.533c76.71-39.126,227.331-41.272,312.483-6.727
	c26.863,10.898,27.066,16.762,38.118,16.262c6.164,8.436,12.103,18.306,17.688,29.405c1.861,3.699,6.368,5.192,10.067,3.327
	c3.699-1.86,5.189-6.368,3.327-10.067c-5.388-10.706-11.12-20.367-17.09-28.857c9.641-9.75,7.446-25.549-3.728-32.564
	c-29.826-18.725-71.629-32.111-121.325-38.91c0.187-2.036,0.058-0.118,0.098-36.634c14.442-10.562,18.924-30.59,9.778-46.431
	C331.992,0.915,310.216-4.918,293.25,4.877c-22.24,12.84-23.84,44.366-3.228,59.424v32.636c-23.008-1.315-45.404-1.286-67.982,0.053
	V64.319c14.24-10.387,19.089-30.311,9.78-46.436c-9.798-16.969-31.576-22.801-48.543-13.007
	c-22.255,12.85-23.826,44.385-3.227,59.454c0.038,36.101-0.085,34.796,0.105,36.743c-15.996,2.202-29.303,4.754-42.193,7.806
	c-4.029,0.954-6.522,4.994-5.568,9.024c0.954,4.03,4.997,6.524,9.024,5.568c13.695-3.243,28.488-6.022,46.197-8.263
	c8.6,7.244,22.129,6.526,29.715-2.9c25.973-1.805,52.18-1.76,77.344-0.07c7.527,9.447,21.19,10.313,29.896,2.866
	c49.94,6.271,91.614,19.195,120.692,37.451c5.663,3.556,2.055,12.509-4.606,10.907c-1.787-0.434-1.895-1.111-9.531-5.291
	c-85.753-46.934-264.559-46.868-350.189,0c-8.624,4.72-8.961,6.289-12.988,5.099c-4.722-1.703-5.348-8.078-1.15-10.715
	c11.751-7.376,25.765-13.947,41.655-19.53c3.907-1.373,5.961-5.652,4.589-9.559c-1.373-3.908-5.657-5.961-9.56-4.589
	c-16.938,5.952-31.964,13.011-44.657,20.978c-11.306,7.098-13.256,22.926-3.739,32.564c-45.1,64.17-77.219,205.297-36.207,267.76
	c47.715,72.671,251.673,87.543,374.5,56.139c4.012-1.026,6.432-5.11,5.407-9.123c-1.027-4.013-5.106-6.434-9.123-5.407
	c-60.617,15.5-139.358,19.418-210.636,10.481c-74.796-9.379-128.599-31.365-147.611-60.322
	C-4.015,377.988,22.624,242.197,69.092,178.614z M205.448,103.132c-3.7,4.096-10.398,1.365-10.398-4.133V70.693
	c4.083,0.704,8.257,0.645,11.997-0.004C206.819,100.413,207.86,100.457,205.448,103.132z M220.886,40.967
	c-4.703,17.555-28.464,20.818-37.627,4.954c-7.894-13.672,2.04-30.805,17.752-30.805C214.591,15.117,224.374,27.958,220.886,40.967z
	 M315.819,102.642c-3.602,4.762-10.799,2.071-10.799-3.643V70.689c3.972,0.683,8.025,0.683,11.997-0.004
	C316.603,99.179,317.946,99.749,315.819,102.642z M321.287,53.435c-9.541,5.514-22.256,2.525-28.054-7.518
	c-5.661-9.807-2.289-22.391,7.518-28.054c9.889-5.707,22.439-2.208,28.055,7.518C334.466,35.188,331.094,47.773,321.287,53.435z"/>
<g>
</g>
<g>
</g>
<g>
</g>
<g>
</g>
<g>
</g>
<g>
</g>
<g>
</g>
<g>
</g>
<g>
</g>
<g>
</g>
<g>
</g>
<g>
</g>
<g>
</g>
<g>
</g>
<g>
</g>
</svg>
