<?xml version="1.0" encoding="iso-8859-1"?>
<!-- Generator: Adobe Illustrator 19.0.0, SVG Export Plug-In . SVG Version: 6.00 Build 0)  -->
<svg version="1.1" id="Capa_1" xmlns="http://www.w3.org/2000/svg" xmlns:xlink="http://www.w3.org/1999/xlink" x="0px" y="0px"
	 viewBox="0 0 512 512" style="enable-background:new 0 0 512 512;" xml:space="preserve">
<g>
	<path style="fill:#F31117;" d="M334.883,421.314c7.873-64.661-12.808-132.132-62.439-181.763s-117.102-70.312-181.763-62.439
		L334.883,421.314z"/>
	<path style="fill:#F31117;" d="M504.393,186.287c-47.313,5.761-96.682-9.372-132.998-45.687S319.947,54.915,325.708,7.603
		L504.393,186.287z"/>
</g>
<path style="fill:#C1111A;" d="M361.444,43.339L325.708,7.603c-5.761,47.313,9.372,96.682,45.687,132.998
	c6.083,6.083,12.539,11.557,19.284,16.453C366.347,123.533,356.649,82.726,361.444,43.339z"/>
<polyline style="fill:#F0151C;" points="421.802,174.593 308.765,287.63 218.72,200.146 334.899,83.965 "/>
<g>
	<polyline style="fill:#C1111A;" points="363.596,116.386 250.559,229.424 218.72,200.146 334.899,83.965 	"/>
	<path style="fill:#C1111A;" d="M269.259,236.483c-49.301-47.438-115.249-67.053-178.577-59.37l38.998,38.998
		C183.578,199.697,235.383,205.401,269.259,236.483z"/>
</g>
<polyline style="fill:#C8D2DD;" points="183.679,270.11 7.604,504.392 241.885,328.316 "/>
<polyline style="fill:#8FADA9;" points="183.679,270.11 7.604,504.392 212.783,299.214 "/>
<path d="M509.772,180.911L331.08,2.23c-2.455-2.455-6.323-2.98-9.415-1.071c-1.99,1.23-3.249,3.376-3.53,5.7
	c-3.057,25.347-0.319,51.233,7.916,75.198L217.249,190.866c-8.386-4.095-17.044-7.682-25.869-10.712
	c-4.046-1.39-8.436,0.903-9.683,4.995v0.001c-1.2,3.94,0.965,8.085,4.86,9.427c9.467,3.259,18.73,7.206,27.636,11.77l88.617,86.103
	c18.612,33.857,27.598,73.007,25.856,111.892L107.634,183.311c15.286-0.713,30.563,0.221,45.645,2.79
	c4.062,0.691,7.951-1.912,8.783-5.948l0,0c0.864-4.191-1.894-8.303-6.113-9.024c-21.848-3.733-44.074-4.26-66.187-1.563
	c-3.474,0.423-6.291,3.189-6.654,6.838c-0.23,2.314,0.707,4.595,2.35,6.239l88.177,88.177L1.525,499.823
	c-2.275,3.026-1.976,7.267,0.701,9.946c1.474,1.473,3.422,2.226,5.38,2.226c1.599,0,3.206-0.503,4.566-1.526l229.005-172.109
	l88.326,88.327c1.451,1.45,3.394,2.226,5.378,2.226c0.829,0,1.668-0.136,2.478-0.416c2.75-0.948,4.716-3.381,5.069-6.269
	c5.572-45.73-3.032-92.817-24.236-133.272l69.713-69.714c2.969-2.969,2.97-7.781,0.001-10.751l-0.001-0.001
	c-2.969-2.971-7.784-2.972-10.754-0.001l-68.466,68.466l-79.132-76.888L334.786,94.828l76.38,79.65l-8.926,8.926
	c-2.97,2.97-2.97,7.784,0,10.753l0,0c2.97,2.969,7.783,2.969,10.753-0.001l10.556-10.557c19.492,7.596,40.286,11.483,61.237,11.483
	c6.776,0,13.572-0.407,20.339-1.223c2.323-0.28,4.472-1.533,5.708-3.519C512.756,187.252,512.233,183.371,509.772,180.911z
	 M45.89,466.106L184.495,281.68l45.82,45.82L45.89,466.106z M426.341,168.331l-84.978-88.617
	c-6.376-17.494-9.502-36.189-9.219-54.913l155.065,155.056C466.321,180.181,445.596,176.268,426.341,168.331z"/>
<g>
</g>
<g>
</g>
<g>
</g>
<g>
</g>
<g>
</g>
<g>
</g>
<g>
</g>
<g>
</g>
<g>
</g>
<g>
</g>
<g>
</g>
<g>
</g>
<g>
</g>
<g>
</g>
<g>
</g>
</svg>
