<?xml version="1.0" encoding="iso-8859-1"?>
<!-- Generator: Adobe Illustrator 19.0.0, SVG Export Plug-In . SVG Version: 6.00 Build 0)  -->
<svg version="1.1" id="Capa_1" xmlns="http://www.w3.org/2000/svg" xmlns:xlink="http://www.w3.org/1999/xlink" x="0px" y="0px"
	 viewBox="0 0 512 512" style="enable-background:new 0 0 512 512;" xml:space="preserve">
<g>
	<rect x="53.574" y="450.664" style="fill:#30303A;" width="71.383" height="44.945"/>
	<rect x="387.035" y="450.664" style="fill:#30303A;" width="71.383" height="44.945"/>
</g>
<path style="fill:#89CD16;" d="M423.12,133.389H88.879c-22.776,0-42.097,16.722-45.365,39.262L8.209,416.181
	c-4.008,27.645,17.431,52.416,45.365,52.416h404.852c27.934,0,49.373-24.771,45.365-52.416l-35.306-243.529
	C465.217,150.112,445.896,133.389,423.12,133.389z"/>
<path style="fill:#78B209;" d="M502.525,407.451c-5.41,18.998-22.873,33.307-44.099,33.307H53.574
	c-21.226,0-38.689-14.309-44.099-33.307l-1.265,8.729c-4.008,27.645,17.431,52.416,45.365,52.416h404.852
	c27.934,0,49.373-24.771,45.365-52.416L502.525,407.451z"/>
<g>
	<circle style="fill:#E8E8EA;" cx="114.133" cy="220.315" r="30.932"/>
	<circle style="fill:#E8E8EA;" cx="107.173" cy="316.981" r="37.891"/>
</g>
<path d="M511.444,415.071l-35.305-243.529c-3.794-26.159-26.587-45.886-53.019-45.886H137.546L450.127,23.744
	c4.06-1.324,6.279-5.689,4.955-9.749c-1.324-4.06-5.689-6.28-9.75-4.955L87.557,125.687c-25.865,0.646-47.967,20.134-51.695,45.855
	l-2.302,15.881c-0.612,4.226,2.317,8.15,6.543,8.762l0,0c4.226,0.612,8.15-2.317,8.763-6.543l2.712-18.707
	c2.639-18.203,18.943-31.24,37.282-29.812l0.02,0.001c0.008,0,0.018-0.002,0.026-0.002h334.216
	c18.933,0,34.996,13.901,37.712,32.639l35.305,243.529c1.95,13.448-3.383,27.09-14.458,35.666
	c-6.806,5.27-15.289,7.908-23.898,7.908H387.04H211.474c-4.271,0-7.733,3.462-7.733,7.733l0,0c0,4.271,3.462,7.733,7.733,7.733
	h167.833v19.281c0,4.271,3.462,7.733,7.733,7.733h71.385c4.271,0,7.733-3.462,7.733-7.733v-19.857
	c12.642-1.842,24.298-8.143,32.775-17.937C509.116,446.051,513.677,430.471,511.444,415.071z M450.692,487.877h-55.919V476.33
	h55.919V487.877z"/>
<path d="M385.867,199.953c4.272,0,7.733-3.462,7.733-7.733c0-4.271-3.461-7.733-7.733-7.733H246.586
	c-4.271,0-7.733,3.462-7.733,7.733c0,4.271,3.462,7.733,7.733,7.733H385.867z"/>
<path d="M246.586,402.039c-4.271,0-7.733,3.462-7.733,7.733s3.462,7.733,7.733,7.733h139.281c4.272,0,7.733-3.462,7.733-7.733
	s-3.461-7.733-7.733-7.733H246.586z"/>
<path d="M209.363,381.242H423.09c4.272,0,7.733-3.462,7.733-7.733s-3.461-7.733-7.733-7.733H209.363
	c-4.271,0-7.733,3.462-7.733,7.733S205.093,381.242,209.363,381.242z"/>
<path d="M447.93,337.255c0-4.271-3.461-7.733-7.733-7.733H192.257c-4.271,0-7.733,3.462-7.733,7.733
	c0,4.271,3.462,7.733,7.733,7.733h247.939C444.468,344.988,447.93,341.526,447.93,337.255z"/>
<path d="M179.358,300.991c0,4.271,3.462,7.733,7.733,7.733h258.27c4.272,0,7.733-3.462,7.733-7.733s-3.461-7.733-7.733-7.733
	h-258.27C182.821,293.258,179.358,296.72,179.358,300.991z"/>
<path d="M184.514,264.737c0,4.271,3.462,7.733,7.733,7.733h247.959c4.272,0,7.733-3.462,7.733-7.733
	c0-4.271-3.461-7.733-7.733-7.733H192.247C187.976,257.004,184.514,260.467,184.514,264.737z"/>
<path d="M201.63,228.474c0,4.271,3.462,7.733,7.733,7.733H423.09c4.272,0,7.733-3.462,7.733-7.733c0-4.271-3.461-7.733-7.733-7.733
	H209.363C205.093,220.74,201.63,224.203,201.63,228.474z"/>
<path d="M152.799,220.32c0-21.32-17.345-38.665-38.665-38.665s-38.665,17.345-38.665,38.665s17.345,38.665,38.665,38.665
	S152.799,241.64,152.799,220.32z M90.936,220.32c0-12.792,10.407-23.199,23.199-23.199s23.199,10.407,23.199,23.199
	c0,12.792-10.407,23.199-23.199,23.199S90.936,233.111,90.936,220.32z"/>
<path d="M61.551,316.98c0,25.158,20.467,45.625,45.624,45.625s45.624-20.467,45.624-45.625c0-25.157-20.467-45.624-45.624-45.624
	S61.551,291.823,61.551,316.98z M107.175,286.823c16.629,0,30.158,13.529,30.158,30.158c0,16.63-13.529,30.159-30.158,30.159
	S77.017,333.61,77.017,316.98C77.017,300.352,90.545,286.823,107.175,286.823z"/>
<path d="M54.213,460.863c-8.61,0-17.095-2.64-23.9-7.913c-11.07-8.578-16.4-22.215-14.451-35.66l27.895-192.42
	c0.612-4.226-2.317-8.15-6.543-8.762l0,0c-4.226-0.612-8.15,2.317-8.763,6.543L0.556,415.071
	c-2.233,15.4,2.327,30.979,12.509,42.745c8.477,9.794,20.132,16.095,32.776,17.937v19.857c0,4.271,3.462,7.733,7.733,7.733h71.386
	c4.271,0,7.733-3.462,7.733-7.733V476.33h42.691c4.271,0,7.733-3.462,7.733-7.733l0,0c0-4.271-3.462-7.733-7.733-7.733h-50.424
	L54.213,460.863L54.213,460.863z M117.227,487.877h-55.92V476.33h55.92V487.877z"/>
<g>
</g>
<g>
</g>
<g>
</g>
<g>
</g>
<g>
</g>
<g>
</g>
<g>
</g>
<g>
</g>
<g>
</g>
<g>
</g>
<g>
</g>
<g>
</g>
<g>
</g>
<g>
</g>
<g>
</g>
</svg>
