<?xml version="1.0" encoding="iso-8859-1"?>
<!-- Generator: Adobe Illustrator 19.0.0, SVG Export Plug-In . SVG Version: 6.00 Build 0)  -->
<svg version="1.1" id="Capa_1" xmlns="http://www.w3.org/2000/svg" xmlns:xlink="http://www.w3.org/1999/xlink" x="0px" y="0px"
	 viewBox="0 0 512 512" style="enable-background:new 0 0 512 512;" xml:space="preserve">
<g>
	<path style="fill:#F4D44E;" d="M243.261,281.629c-6.705-12.785-20.295-13.88-33.029-8.064c-1.603,0.732-24.01,11.2-44.827,32.181
		c-1.791,1.805-4.87,0.538-4.87-2.004c0-28.788,0-133.469,0-133.366c0-9.949-7.442-18.547-17.35-19.441
		c-11.364-1.026-20.907,7.896-20.907,19.048c0-0.41,0-17.119,0-16.358c0-10.373-8.065-19.206-18.431-19.575
		c-10.883-0.387-19.826,8.321-19.826,19.116c0,10.266,0,6.997,0,16.817c0-11.151-9.543-20.074-20.906-19.048
		c-9.909,0.895-17.35,9.493-17.35,19.441v31.064c0-11.151-9.542-20.073-20.906-19.048c-9.909,0.894-17.351,9.492-17.351,19.441
		c0,7.508,0,139.4,0,147.551c0.371,2.562-2.705,25.081,13.919,47.57c4.494,6.08,6.987,13.406,6.987,20.967
		c0,7.863,0,71.457,0,68.677c0,8.988,7.286,16.274,16.274,16.274h89.915c8.921,0,16.152-7.231,16.152-16.152v-75.563
		c0-2.258,1.032-4.392,2.814-5.779c6.514-5.071,22.307-18.877,25.926-38.98c0.912-5.066,2.624-9.971,5.171-14.443
		c13.783-24.192,45.456-44.64,46.16-45.148C244.123,297.21,249.422,293.375,243.261,281.629z"/>
	<path style="fill:#F4D44E;" d="M487.154,182.391c-11.364-1.025-20.906,7.897-20.906,19.048v-31.064
		c0-9.949-7.442-18.547-17.35-19.441c-11.364-1.026-20.907,7.896-20.907,19.047c0-5.99,0-10.798,0-16.817
		c0-10.797-8.945-19.503-19.826-19.116c-10.366,0.369-18.431,9.203-18.431,19.575c0,9.154,0,7.157,0,16.358
		c0-11.151-9.543-20.074-20.907-19.048c-9.909,0.895-17.35,9.487-17.35,19.435c0,41.476,0,99.37,0,140.52
		c-22.034-24.419-47.968-36.536-49.697-37.325c-12.735-5.815-26.324-4.72-33.03,8.064c-6.161,11.747-0.862,15.582,12.438,25.179
		c0.704,0.508,32.377,20.955,46.16,45.147c6.858,12.038,3.182,17.062,12.142,32.387c11.504,19.677,21.769,18.539,21.769,28.61
		v73.768c0,8.921,7.231,16.152,16.152,16.152h89.915c8.988,0,16.274-7.286,16.274-16.274c0-3.216,0-71.729,0-68.677
		c0-7.561,2.492-14.887,6.987-20.967c8.748-11.834,13.919-26.471,13.919-42.316c0-5.115,0-155.379,0-152.806
		C504.505,191.884,497.062,183.285,487.154,182.391z"/>
</g>
<g>
	<path style="fill:#EAE9E8;" d="M284.444,85.474V25.583c0-10.365,9.674-18.015,19.759-15.626l0,0
		c9.33,2.21,14.175,12.528,9.918,21.118l-27.246,54.968C286.273,87.259,284.444,86.83,284.444,85.474z"/>
	<path style="fill:#EAE9E8;" d="M332.757,104.344l38.735-46.113c6.557-7.806,18.684-7.448,24.768,0.732l0,0
		c5.823,7.829,2.845,19.041-6.095,22.948l-55.913,24.432C333.01,106.886,331.885,105.382,332.757,104.344z"/>
	<path style="fill:#EAE9E8;" d="M227.565,85.474V24.317c0-9.719-9.071-16.892-18.527-14.652l0,0
		c-9.96,2.359-15.132,13.374-10.587,22.544l26.684,53.834C225.736,87.259,227.565,86.83,227.565,85.474z"/>
	<path style="fill:#EAE9E8;" d="M179.253,104.344l-38.62-45.976c-6.616-7.876-18.851-7.515-24.992,0.739l0,0
		c-5.769,7.755-2.819,18.862,6.038,22.732l56.077,24.504C178.999,106.886,180.124,105.382,179.253,104.344z"/>
</g>
<g>
	<path style="fill:#E8C842;" d="M233.002,271.838c-6.575-2.605-13.407-1.889-20.03,0.592c-8.426,3.158-21.677,11.736-29.599,17.699
		v-0.002c-5.76,4.336-11.931,9.533-17.97,15.619c-1.791,1.805-4.87,0.538-4.87-2.004l0,0l0,0c0,9.588,11.745,14.214,18.284,7.203
		l0.05-0.054C197.152,290.629,222.306,275.301,233.002,271.838z"/>
	<path style="fill:#E8C842;" d="M140.83,150.877v-0.011c-10.297,0.305-18.551,8.743-18.552,19.112v92.563
		c0,5.444,4.413,9.858,9.858,9.858c4.802,0,8.695-3.892,8.695-8.695v-93.701c0-5.03,1.82-9.969,5.372-13.529
		c1.277-1.28,2.734-2.38,4.331-3.259l0,0c-0.55-0.306-1.116-0.586-1.697-0.837c-0.004-0.002-0.008-0.004-0.012-0.006
		c-0.545-0.236-1.105-0.441-1.676-0.625c-0.051-0.016-0.1-0.037-0.151-0.053c-0.522-0.163-1.058-0.295-1.599-0.412
		c-0.098-0.021-0.193-0.051-0.291-0.071c-0.629-0.125-1.27-0.221-1.922-0.279C142.389,150.862,141.605,150.853,140.83,150.877z"/>
	<path style="fill:#E8C842;" d="M46.746,486.598c0-2.444,0-61.142,0-68.677c0-7.561-2.492-14.887-6.987-20.967
		c-16.623-22.488-13.548-45.008-13.919-47.57c0-8.151,0-140.043,0-147.551c0-7.274,3.988-13.812,10.001-17.158
		c-12.71-6.994-28.335,2.259-28.335,17.158c0,7.508,0,139.399,0,147.551c0.371,2.562-2.705,25.081,13.919,47.57
		c4.495,6.08,6.987,13.406,6.987,20.967c0,7.534,0,66.233,0,68.677c0,8.988,7.285,16.274,16.274,16.274H63.02
		C54.032,502.872,46.746,495.585,46.746,486.598z"/>
	<path style="fill:#E8C842;" d="M93.116,266.263c5.102,0,9.239-4.136,9.239-9.239c0-21.113,0-79.466,0-103.86
		c0-7.217,4.008-13.485,9.91-16.742c-0.002-0.001-0.005-0.003-0.007-0.004c-0.561-0.314-1.142-0.596-1.736-0.853
		c-0.172-0.074-0.346-0.145-0.521-0.215c-0.353-0.141-0.712-0.27-1.075-0.389c-0.32-0.104-0.643-0.203-0.97-0.29
		c-0.191-0.051-0.382-0.102-0.576-0.147c-0.483-0.112-0.972-0.208-1.468-0.281c-0.123-0.018-0.247-0.032-0.37-0.048
		c-0.558-0.071-1.12-0.127-1.693-0.147l0,0c-10.882-0.387-19.826,8.32-19.826,19.115v104.003
		C84.02,262.191,88.092,266.263,93.116,266.263z"/>
	<path style="fill:#E8C842;" d="M54.933,272.4L54.933,272.4c5.061,0,9.164-4.103,9.164-9.164c0-9.233,0-83.63,0-92.861
		c0-7.274,3.988-13.812,10.002-17.159c-0.396-0.154-4.17-2.568-10.002-2.334v-0.011c-10.548,0.426-18.334,9.358-18.334,19.502l0,0
		c0,9.769,0,82.539,0,92.856C45.763,268.295,49.868,272.4,54.933,272.4z"/>
	<path style="fill:#E8C842;" d="M398.828,279.264c5.102,0,9.239-4.136,9.239-9.239c0-27.014,0-91.556,0-116.861
		c0-7.217,4.008-13.485,9.91-16.742c-0.19-0.098-1.024-0.582-2.264-1.072c-12.245-4.875-25.979,4.242-25.98,17.813v117.004
		C389.733,275.192,393.805,279.264,398.828,279.264z"/>
	<path style="fill:#E8C842;" d="M437.16,272.4L437.16,272.4c5.061,0,9.164-4.103,9.164-9.164c0-9.233,0-83.63,0-92.861
		c0-7.274,3.988-13.812,10.002-17.159c-0.396-0.154-4.17-2.568-10.002-2.334v-0.011c-10.548,0.426-18.334,9.358-18.334,19.502l0,0
		c0,11.51,0,78.728,0,92.856C427.99,268.295,432.096,272.4,437.16,272.4z"/>
	<path style="fill:#E8C842;" d="M476.185,279.264c4.642,0,8.406-3.764,8.406-8.407c0-33.365,0-65.433,0-69.025
		c0-7.274,3.988-13.812,10.001-17.158c-12.699-6.988-28.336,2.221-28.336,17.158v67.503
		C466.256,274.819,470.702,279.264,476.185,279.264L476.185,279.264z"/>
	<path style="fill:#E8C842;" d="M380.893,486.719c-0.037-78.324,0.085-73.79-0.093-75.14c-0.884-6.923-8.511-8.473-8.611-8.573
		l0.004-0.004c-20.176-4.19-32.707-18.661-32.707-18.661c11.504,19.677,21.769,18.539,21.769,28.61v73.768
		c0,8.921,7.231,16.152,16.152,16.152h19.636C388.125,502.872,380.893,495.639,380.893,486.719z"/>
	<path style="fill:#E8C842;" d="M351.475,170.377v102.024l0,0v38.49h3.289c9.028,0,16.347-7.318,16.347-16.347
		c0-44.126,0-79.892,0-124.174c0-7.011,3.705-13.335,9.356-16.779C367.761,145.928,351.475,155.13,351.475,170.377z"/>
</g>
<path d="M276.94,85.474c0,9.255,12.54,12.198,16.651,3.9l27.246-54.969c3.051-6.155,3.126-13.252,0.206-19.47
	c-10.357-22.057-44.104-14.01-44.104,10.647v59.893H276.94z M291.941,25.583c0-2.633,1.185-5.079,3.249-6.712
	c6.854-5.421,15.754,1.717,12.207,8.874l-15.456,31.184V25.583z"/>
<path d="M337.25,113.216l55.914-24.432c13.353-5.835,17.822-22.585,9.11-34.298c-9.003-12.102-26.887-12.558-36.53-1.079
	L327.01,99.518c-2.638,3.14-2.765,7.625-0.31,10.91C329.169,113.727,333.515,114.851,337.25,113.216z M377.232,63.055
	c1.587-1.891,3.889-2.96,6.346-2.96c8.658,0,11.33,11.556,3.58,14.943L355.572,88.84L377.232,63.055z"/>
<path d="M191.726,35.54l26.686,53.839c4.117,8.296,16.65,5.344,16.65-3.904V24.317c0-6.939-3.122-13.389-8.566-17.693
	C207.337-8.525,180.847,13.586,191.726,35.54z M220.06,58.928l-14.895-30.051c-1.145-2.31-1.173-4.973-0.077-7.307
	c3.66-7.792,14.972-5.515,14.972,2.746V58.928z"/>
<path d="M146.37,53.544c-4.638-5.521-11.449-8.545-18.639-8.353c-14.804,0.437-25.611,14.359-21.81,28.664
	c1.773,6.676,6.42,12.091,12.75,14.856c59.597,25.754,56.286,25.248,59.61,25.248c7.321,0,11.571-8.647,6.712-14.438
	c-0.001-0.001-0.002-0.002-0.002-0.003L146.37,53.544z M124.678,74.966c-2.113-0.924-3.666-2.732-4.258-4.962
	c-2.144-8.078,8.839-13.51,14.465-6.812L156.43,88.84L124.678,74.966z"/>
<path d="M7.5,325.11c4.143,0,7.5-3.357,7.5-7.5V201.832c0-6.18,4.623-11.439,10.525-11.971c6.974-0.627,12.731,4.813,12.731,11.578
	v70.96c0,4.143,3.357,7.5,7.5,7.5s7.5-3.357,7.5-7.5c0-33.97,0-67.948,0-102.025c0-6.18,4.623-11.439,10.524-11.972
	c6.934-0.625,12.732,4.776,12.732,11.578v96.282c0,4.143,3.357,7.5,7.5,7.5s7.5-3.357,7.5-7.5c0-23.324,0-87.56,0-113.099
	c0-6.467,5.309-11.838,12.061-11.621c6.174,0.22,11.197,5.638,11.197,12.079c0,34.642,0,85.234,0,118.777c0,4.143,3.357,7.5,7.5,7.5
	c4.143,0,7.5-3.357,7.5-7.5V169.982c0-3.306,1.346-6.355,3.788-8.589c7.56-6.909,19.467-1.341,19.467,8.982v140.515
	c0,6.849,8.474,10.115,13.069,5.024c21.188-23.479,46.19-35.045,47.246-35.526c5.042-2.304,17.404-6.454,23.271,4.725
	c3.258,6.213,2.736,6.123-10.269,15.664c-8.021,5.366-35.206,24.649-48.204,47.463c-2.928,5.138-4.956,10.786-6.029,16.786
	c-1.598,8.935-7.421,20.295-17.52,29.692c-1.411,1.221-6.559,5.253-15.195,7.341c-4.025,0.974-6.5,5.027-5.526,9.055
	c0.907,3.749,4.662,6.609,9.377,5.441v70.164c0,4.771-3.881,8.652-8.652,8.652h-4.432c-4.143,0-7.5,3.357-7.5,7.5
	c0,4.143,3.357,7.5,7.5,7.5h4.432c13.042,0,23.652-10.611,23.652-23.652v-75.484c8.583-6.528,15.72-14.516,20.744-23.107
	c9.483-16.221,6.221-22,12.184-32.46c9.905-17.384,28.665-31.765,44.031-42.777c13.341-9.626,23.878-17.23,14.691-34.745
	c-7.954-15.163-24.747-19.641-42.785-11.403c-2.381,1.086-20.223,9.511-39.084,26.205V170.376c0-19.914-21.035-33.535-39.174-23.875
	c-7.113-26.96-44.807-26.02-51.498-0.039c-18.017-9.526-39.1,3.93-39.1,23.914v7.115C20.191,168.747,0,182.36,0,201.832v115.777
	C0,321.753,3.357,325.11,7.5,325.11z"/>
<path d="M20.906,417.921v68.677c0,13.109,10.665,23.773,23.773,23.773h50.482c4.143,0,7.5-3.357,7.5-7.5c0-4.143-3.357-7.5-7.5-7.5
	H44.681c-4.837,0-8.773-3.936-8.773-8.773v-68.677c0-9.149-2.924-17.94-8.457-25.426c-14.129-19.113-12.281-38.742-12.451-39.883
	c0-4.143-3.357-7.5-7.5-7.5s-7.5,3.357-7.5,7.5c0.228,1.511-2.034,25.23,15.388,48.8C18.998,406.297,20.906,412.005,20.906,417.921z
	"/>
<path d="M473.744,177.491v-7.115c0-19.913-21.005-33.479-39.101-23.914c-2.975-11.55-13.746-20.38-26.751-19.907
	c-11.972,0.425-21.784,8.725-24.746,19.946c-18.145-9.665-39.175,3.97-39.175,23.875v122.571
	c-18.855-16.689-36.699-25.118-39.08-26.205c-18.034-8.235-34.834-3.762-42.788,11.402c-8.518,16.238-0.474,24.608,15.208,35.099
	c16.871,11.284,44.127,33.848,47.812,54.423c2.598,14.53,12.327,31.164,28.631,43.568v75.484c0,13.042,10.611,23.652,23.652,23.652
	h89.914c13.109,0,23.774-10.665,23.774-23.773V417.92c0-5.916,1.908-11.625,5.518-16.509C506.679,387.793,512,371.619,512,354.637
	v-81.075c0-4.143-3.357-7.5-7.5-7.5s-7.5,3.357-7.5,7.5v81.075c0,13.748-4.305,26.839-12.45,37.856
	c-5.531,7.483-8.455,16.275-8.455,25.426v68.677c0,4.837-3.936,8.773-8.774,8.773h-89.914c-4.771,0-8.652-3.881-8.652-8.652v-70.164
	c4.637,1.151,8.451-1.623,9.376-5.441c0.974-4.026-1.501-8.08-5.526-9.055c-8.652-2.092-13.917-6.246-15.289-7.432
	c-10.057-9.397-15.836-20.714-17.425-29.603c-1.075-6-3.104-11.647-6.029-16.783c-13.003-22.821-40.187-42.102-48.209-47.467
	c-13.038-9.568-13.506-9.48-10.264-15.66c5.865-11.181,18.228-7.027,23.273-4.726c1.054,0.481,26.065,12.058,47.242,35.526
	c4.589,5.083,13.069,1.833,13.069-5.024V170.376c0-10.327,11.907-15.89,19.468-8.982c2.442,2.232,3.788,5.282,3.788,8.589v102.418
	c0,4.143,3.357,7.5,7.5,7.5c4.143,0,7.5-3.357,7.5-7.5c0-33.543,0-84.134,0-118.777c0-6.44,5.022-11.859,11.197-12.079
	c6.726-0.221,12.06,5.123,12.06,11.621c0,25.639,0,89.899,0,113.099c0,4.143,3.357,7.5,7.5,7.5s7.5-3.357,7.5-7.5v-96.282
	c0-3.306,1.346-6.354,3.788-8.588c7.554-6.907,19.469-1.35,19.469,8.981c0,11.859-0.001,90.917-0.001,102.025
	c0,4.143,3.357,7.5,7.5,7.5s7.5-3.357,7.5-7.5c0-2.196,0.001-75.643,0.001-70.96c0-6.798,5.795-12.208,12.731-11.578
	c5.901,0.532,10.524,5.79,10.524,11.971v36.729c0,4.143,3.357,7.5,7.5,7.5s7.5-3.357,7.5-7.5v-36.73
	C512,182.398,491.852,168.726,473.744,177.491z"/>
<g>
</g>
<g>
</g>
<g>
</g>
<g>
</g>
<g>
</g>
<g>
</g>
<g>
</g>
<g>
</g>
<g>
</g>
<g>
</g>
<g>
</g>
<g>
</g>
<g>
</g>
<g>
</g>
<g>
</g>
</svg>
