<?xml version="1.0" encoding="iso-8859-1"?>
<!-- Generator: Adobe Illustrator 19.0.0, SVG Export Plug-In . SVG Version: 6.00 Build 0)  -->
<svg version="1.1" id="Capa_1" xmlns="http://www.w3.org/2000/svg" xmlns:xlink="http://www.w3.org/1999/xlink" x="0px" y="0px"
	 viewBox="0 0 511.999 511.999" style="enable-background:new 0 0 511.999 511.999;" xml:space="preserve">
<path style="fill:#E6EEF0;" d="M392.017,504.396H119.982c-14.55,0-26.345-11.795-26.345-26.345V33.949
	c0-14.55,11.795-26.345,26.345-26.345h272.035c14.55,0,26.345,11.795,26.345,26.345v444.103
	C418.362,492.601,406.567,504.396,392.017,504.396z"/>
<g>
	<path style="fill:#30303A;" d="M222.745,145.762V59.553c0-9.034,7.32-16.364,16.364-16.364h33.782
		c9.044,0,16.364,7.33,16.364,16.364v86.209"/>
	<path style="fill:#30303A;" d="M289.254,228.898v223.546c0,9.034-7.32,16.364-16.364,16.364h-33.782
		c-9.044,0-16.364-7.33-16.364-16.364V228.898"/>
</g>
<path style="fill:#7E868E;" d="M376.647,170.906v32.849c0,13.89-11.254,25.144-25.144,25.144H160.492
	c-13.88,0-25.144-11.254-25.144-25.144v-32.849c0-13.89,11.264-25.144,25.144-25.144h191.011
	C365.393,145.762,376.647,157.016,376.647,170.906z"/>
<path style="fill:#9DA4AE;" d="M376.647,170.906v2.433c0,13.89-11.254,25.144-25.144,25.144H160.492
	c-13.88,0-25.144-11.254-25.144-25.144v-2.433c0-13.89,11.264-25.144,25.144-25.144h191.011
	C365.393,145.762,376.647,157.016,376.647,170.906z"/>
<path d="M425.966,388.582V33.949C425.966,15.2,410.766,0,392.017,0H119.982c-18.749,0-33.949,15.199-33.949,33.948v444.103
	c0,18.749,15.199,33.948,33.948,33.948h272.035c18.749,0,33.948-15.199,33.948-33.948v-53.983c0-4.199-3.405-7.604-7.604-7.604l0,0
	c-4.199,0-7.604,3.405-7.604,7.604v53.983c0,10.35-8.391,18.74-18.74,18.74H119.982c-10.351,0-18.74-8.391-18.74-18.74V33.949
	c0-10.351,8.391-18.741,18.741-18.741h272.035c10.35,0,18.74,8.391,18.74,18.74v354.634c0,4.199,3.405,7.604,7.604,7.604l0,0
	C422.562,396.186,425.966,392.781,425.966,388.582z"/>
<path d="M384.253,203.754v-32.847c0-18.086-14.662-32.749-32.749-32.749h-54.646V59.553c0-13.237-10.731-23.968-23.968-23.968
	h-33.782c-13.237,0-23.968,10.731-23.968,23.968v78.605h-9.998c-4.199,0-7.604,3.405-7.604,7.604l0,0
	c0,4.199,3.405,7.604,7.604,7.604h146.361c9.687,0,17.541,7.853,17.541,17.541v32.847c0,9.687-7.853,17.541-17.541,17.541H160.495
	c-9.687,0-17.541-7.853-17.541-17.541v-32.847c0-9.687,7.853-17.541,17.541-17.541h9.162c4.199,0,7.604-3.405,7.604-7.604l0,0
	c0-4.199-3.405-7.604-7.604-7.604h-9.162c-18.086,0-32.749,14.662-32.749,32.749v32.847c0,18.086,14.662,32.749,32.749,32.749
	h54.646v215.942c0,13.237,10.731,23.968,23.968,23.968h33.782c13.237,0,23.968-10.731,23.968-23.968V236.502h54.646
	C369.591,236.502,384.253,221.84,384.253,203.754z M281.65,138.158h-51.301V59.553c0-4.83,3.93-8.76,8.76-8.76h33.782
	c4.83,0,8.76,3.93,8.76,8.76V138.158z M281.65,452.445c0,4.83-3.93,8.76-8.76,8.76h-33.782c-4.83,0-8.76-3.93-8.76-8.76V236.502
	h51.301L281.65,452.445L281.65,452.445z"/>
<path d="M146.846,50.794h32.444c4.2,0,7.604-3.405,7.604-7.604s-3.404-7.604-7.604-7.604h-32.444c-4.2,0-7.604,3.405-7.604,7.604
	S142.646,50.794,146.846,50.794z"/>
<path d="M146.846,86.262h32.444c4.2,0,7.604-3.405,7.604-7.604c0-4.199-3.404-7.604-7.604-7.604h-32.444
	c-4.2,0-7.604,3.405-7.604,7.604C139.242,82.858,142.646,86.262,146.846,86.262z"/>
<path d="M146.846,121.731h32.444c4.2,0,7.604-3.405,7.604-7.604c0-4.199-3.404-7.604-7.604-7.604h-32.444
	c-4.2,0-7.604,3.405-7.604,7.604C139.242,118.327,142.646,121.731,146.846,121.731z"/>
<path d="M179.29,248.396h-32.444c-4.2,0-7.604,3.405-7.604,7.604c0,4.199,3.404,7.604,7.604,7.604h32.444
	c4.2,0,7.604-3.405,7.604-7.604C186.894,251.801,183.489,248.396,179.29,248.396z"/>
<path d="M179.29,283.864h-32.444c-4.2,0-7.604,3.405-7.604,7.604s3.404,7.604,7.604,7.604h32.444c4.2,0,7.604-3.405,7.604-7.604
	S183.489,283.864,179.29,283.864z"/>
<path d="M179.29,319.333h-32.444c-4.2,0-7.604,3.405-7.604,7.604s3.404,7.604,7.604,7.604h32.444c4.2,0,7.604-3.405,7.604-7.604
	S183.489,319.333,179.29,319.333z"/>
<path d="M179.29,354.801h-32.444c-4.2,0-7.604,3.405-7.604,7.604c0,4.199,3.404,7.604,7.604,7.604h32.444
	c4.2,0,7.604-3.405,7.604-7.604C186.894,358.205,183.489,354.801,179.29,354.801z"/>
<path d="M179.29,390.27h-32.444c-4.2,0-7.604,3.405-7.604,7.604c0,4.199,3.404,7.604,7.604,7.604h32.444
	c4.2,0,7.604-3.405,7.604-7.604C186.894,393.674,183.489,390.27,179.29,390.27z"/>
<path d="M179.29,425.738h-32.444c-4.2,0-7.604,3.405-7.604,7.604c0,4.199,3.404,7.604,7.604,7.604h32.444
	c4.2,0,7.604-3.405,7.604-7.604C186.894,429.142,183.489,425.738,179.29,425.738z"/>
<path d="M179.29,461.206h-32.444c-4.2,0-7.604,3.405-7.604,7.604s3.404,7.604,7.604,7.604h32.444c4.2,0,7.604-3.405,7.604-7.604
	S183.489,461.206,179.29,461.206z"/>
<path d="M330.355,50.794h32.444c4.2,0,7.604-3.405,7.604-7.604s-3.404-7.604-7.604-7.604h-32.444c-4.2,0-7.604,3.405-7.604,7.604
	S326.155,50.794,330.355,50.794z"/>
<path d="M330.355,86.262h32.444c4.2,0,7.604-3.405,7.604-7.604c0-4.199-3.404-7.604-7.604-7.604h-32.444
	c-4.2,0-7.604,3.405-7.604,7.604C322.751,82.858,326.155,86.262,330.355,86.262z"/>
<path d="M330.355,121.731h32.444c4.2,0,7.604-3.405,7.604-7.604c0-4.199-3.404-7.604-7.604-7.604h-32.444
	c-4.2,0-7.604,3.405-7.604,7.604C322.751,118.327,326.155,121.731,330.355,121.731z"/>
<path d="M362.799,248.396h-32.444c-4.2,0-7.604,3.405-7.604,7.604c0,4.199,3.404,7.604,7.604,7.604h32.444
	c4.2,0,7.604-3.405,7.604-7.604C370.403,251.801,366.998,248.396,362.799,248.396z"/>
<path d="M362.799,283.864h-32.444c-4.2,0-7.604,3.405-7.604,7.604s3.404,7.604,7.604,7.604h32.444c4.2,0,7.604-3.405,7.604-7.604
	S366.998,283.864,362.799,283.864z"/>
<path d="M362.799,319.333h-32.444c-4.2,0-7.604,3.405-7.604,7.604s3.404,7.604,7.604,7.604h32.444c4.2,0,7.604-3.405,7.604-7.604
	S366.998,319.333,362.799,319.333z"/>
<path d="M362.799,354.801h-32.444c-4.2,0-7.604,3.405-7.604,7.604c0,4.199,3.404,7.604,7.604,7.604h32.444
	c4.2,0,7.604-3.405,7.604-7.604C370.403,358.205,366.998,354.801,362.799,354.801z"/>
<path d="M362.799,390.27h-32.444c-4.2,0-7.604,3.405-7.604,7.604c0,4.199,3.404,7.604,7.604,7.604h32.444
	c4.2,0,7.604-3.405,7.604-7.604C370.403,393.674,366.998,390.27,362.799,390.27z"/>
<path d="M362.799,425.738h-32.444c-4.2,0-7.604,3.405-7.604,7.604c0,4.199,3.404,7.604,7.604,7.604h32.444
	c4.2,0,7.604-3.405,7.604-7.604C370.403,429.142,366.998,425.738,362.799,425.738z"/>
<path d="M362.799,461.206h-32.444c-4.2,0-7.604,3.405-7.604,7.604s3.404,7.604,7.604,7.604h32.444c4.2,0,7.604-3.405,7.604-7.604
	S366.998,461.206,362.799,461.206z"/>
<g>
</g>
<g>
</g>
<g>
</g>
<g>
</g>
<g>
</g>
<g>
</g>
<g>
</g>
<g>
</g>
<g>
</g>
<g>
</g>
<g>
</g>
<g>
</g>
<g>
</g>
<g>
</g>
<g>
</g>
</svg>
