<?xml version="1.0" encoding="iso-8859-1"?>
<!-- Generator: Adobe Illustrator 19.0.0, SVG Export Plug-In . SVG Version: 6.00 Build 0)  -->
<svg version="1.1" id="Capa_1" xmlns="http://www.w3.org/2000/svg" xmlns:xlink="http://www.w3.org/1999/xlink" x="0px" y="0px"
	 viewBox="0 0 512 512" style="enable-background:new 0 0 512 512;" xml:space="preserve">
<path style="fill:#E7ECF0;" d="M449.649,504.396H62.35c-30.235,0-54.746-24.511-54.746-54.746V62.35
	c0-30.235,24.511-54.746,54.746-54.746h387.298c30.235,0,54.746,24.511,54.746,54.746v387.298
	C504.396,479.885,479.885,504.396,449.649,504.396z"/>
<path style="fill:#CED4D8;" d="M467.897,486.148H80.599c-30.236,0-54.746-24.511-54.746-54.747V44.102
	c0-10.442,2.925-20.198,7.997-28.501C18.111,25.218,7.604,42.557,7.604,62.351V449.65c0,30.236,24.511,54.747,54.746,54.747h387.298
	c19.795,0,37.133-10.507,46.749-26.246C488.095,483.222,478.339,486.148,467.897,486.148z"/>
<g>
	<circle style="fill:#777E84;" cx="137.398" cy="157.29" r="72.994"/>
	<circle style="fill:#777E84;" cx="374.602" cy="157.29" r="72.994"/>
	<circle style="fill:#777E84;" cx="137.398" cy="379.549" r="72.994"/>
	<circle style="fill:#777E84;" cx="374.602" cy="379.549" r="72.994"/>
</g>
<g>
	<path style="fill:#626A70;" d="M392.802,423.654c-34.409,0-62.305-27.894-62.305-62.305c0-22.719,12.163-42.59,30.329-53.475
		c-33.726,6.442-59.223,36.075-59.223,71.679c0,40.313,32.681,72.994,72.994,72.994c35.604,0,65.237-25.496,71.679-59.223
		C435.393,411.491,415.521,423.654,392.802,423.654z"/>
	<path style="fill:#626A70;" d="M156.75,423.737c-34.409,0-62.305-27.894-62.305-62.305c0-22.719,12.163-42.59,30.329-53.475
		c-33.726,6.442-59.223,36.075-59.223,71.679c0,40.313,32.681,72.994,72.994,72.994c35.604,0,65.237-25.496,71.679-59.223
		C199.34,411.574,179.469,423.737,156.75,423.737z"/>
	<path style="fill:#626A70;" d="M156.75,201.39c-34.409,0-62.305-27.894-62.305-62.305c0-22.719,12.163-42.59,30.329-53.475
		c-33.726,6.442-59.223,36.075-59.223,71.679c0,40.313,32.681,72.994,72.994,72.994c35.604,0,65.237-25.496,71.679-59.223
		C199.34,189.227,179.469,201.39,156.75,201.39z"/>
	<path style="fill:#626A70;" d="M392.802,201.39c-34.409,0-62.305-27.894-62.305-62.305c0-22.719,12.163-42.59,30.329-53.475
		c-33.726,6.442-59.223,36.075-59.223,71.679c0,40.313,32.681,72.994,72.994,72.994c35.604,0,65.237-25.496,71.679-59.223
		C435.393,189.227,415.521,201.39,392.802,201.39z"/>
</g>
<path d="M449.649,0H62.351C27.916,0,0,27.916,0,62.351v256.273c0,4.199,3.405,7.604,7.604,7.604l0,0
	c4.199,0,7.604-3.405,7.604-7.604V62.35c0-26.036,21.107-47.143,47.143-47.143h387.298c26.037,0,47.144,21.107,47.144,47.144V449.65
	c0,26.036-21.107,47.144-47.144,47.144H62.35c-26.036-0.001-47.143-21.108-47.143-47.144V354.11c0-4.199-3.405-7.604-7.604-7.604
	l0,0c-4.199,0-7.604,3.405-7.604,7.604v95.539C0,484.084,27.916,512,62.35,512h387.298C484.084,512,512,484.084,512,449.649V62.351
	C512,27.916,484.084,0,449.649,0z"/>
<path d="M137.401,237.888c44.442,0,80.598-36.156,80.598-80.599s-36.156-80.599-80.598-80.599s-80.599,36.156-80.599,80.599
	S92.959,237.888,137.401,237.888z M129.797,92.356v64.934c0,4.199,3.405,7.604,7.604,7.604s7.604-3.405,7.604-7.604V92.356
	c32.485,3.782,57.786,31.451,57.786,64.934c0,36.056-29.334,65.391-65.39,65.391S72.01,193.346,72.01,157.289
	C72.011,123.807,97.311,96.137,129.797,92.356z"/>
<path d="M131.075,63.669c1.837,2.689,5.197,3.972,8.355,3.105c3.067-0.843,5.31-3.595,5.552-6.763
	c0.524-6.849-8.083-10.813-12.954-5.932C129.512,56.599,129.07,60.699,131.075,63.669z"/>
<path d="M97.618,69.57c1.748,2.652,5.095,3.924,8.17,3.154c3.073-0.769,5.412-3.466,5.714-6.628
	c0.63-6.593-7.262-10.843-12.384-6.621C96.152,61.922,95.458,66.369,97.618,69.57z"/>
<path d="M71.602,89.361c6.48,2.741,12.865-4.472,9.616-10.6c-1.519-2.866-4.823-4.459-8.012-3.901
	c-3.277,0.573-5.819,3.259-6.237,6.554C66.548,84.73,68.478,88.113,71.602,89.361z"/>
<path d="M217.912,212.535c2.821,1.902,6.739,1.621,9.269-0.646c2.245-2.011,3.099-5.202,2.164-8.066
	c-1.003-3.072-3.98-5.219-7.214-5.218c-3.183,0-6.078,2.06-7.154,5.041C213.797,206.916,215.063,210.589,217.912,212.535z"/>
<path d="M59.689,105.461c-1.149-2.878-4.123-4.768-7.203-4.689c-3.095,0.079-5.885,2.079-6.946,4.984
	c-1.078,2.951-0.202,6.348,2.191,8.395c2.501,2.14,6.222,2.403,9.003,0.645C59.82,112.845,61.086,108.836,59.689,105.461z"/>
<path d="M241.211,172.791c-0.7-3.373-3.627-5.939-7.084-6.106c-3.181-0.154-6.174,1.751-7.393,4.687
	c-2.634,6.347,4.208,12.738,10.358,9.738C240.181,179.601,241.829,176.147,241.211,172.791z"/>
<path d="M39.564,132.845c-2.96,0.617-5.323,2.927-5.957,5.893c-0.712,3.326,0.993,6.829,4.027,8.35
	c2.843,1.425,6.38,0.906,8.681-1.298c2.402-2.302,3.013-6.013,1.496-8.964C46.283,133.854,42.847,132.186,39.564,132.845z"/>
<path d="M241.211,138.817c-0.646-3.111-3.181-5.568-6.341-6.035c-2.983-0.441-6.026,0.979-7.598,3.55
	c-1.645,2.693-1.435,6.195,0.508,8.678c2.065,2.64,5.789,3.602,8.878,2.315C239.989,145.934,241.875,142.349,241.211,138.817z"/>
<path d="M35.671,179.655c4.69,4.69,12.991,1.253,12.988-5.373c-0.004-7.178-9.453-10.283-13.716-4.534
	C32.718,172.747,33.05,177.015,35.671,179.655z"/>
<path d="M229.156,105.461c-1.257-2.98-4.339-4.92-7.584-4.671c-3.176,0.244-5.915,2.484-6.764,5.554
	c-0.809,2.922,0.238,6.117,2.618,7.996c2.633,2.081,6.456,2.155,9.169,0.181C229.425,112.464,230.448,108.695,229.156,105.461z"/>
<path d="M45.647,209.118c1.261,2.988,4.331,4.92,7.584,4.671c3.183-0.244,5.9-2.483,6.76-5.552c0.842-3.003-0.312-6.355-2.854-8.176
	c-2.703-1.937-6.393-1.909-9.058,0.089C45.366,202.186,44.324,205.985,45.647,209.118z"/>
<path d="M193.965,86.562c1.675,2.456,4.676,3.798,7.623,3.268c3.149-0.567,5.622-3.04,6.189-6.189
	c0.599-3.326-1.2-6.727-4.237-8.171c-2.659-1.264-5.918-0.833-8.166,1.07C192.458,79.009,191.871,83.382,193.965,86.562z"/>
<path d="M164.543,69.57c1.748,2.652,5.098,3.923,8.17,3.154c3.278-0.819,5.662-3.808,5.747-7.186
	c0.163-6.572-7.911-10.218-12.748-5.776C162.996,62.255,162.477,66.508,164.543,69.57z"/>
<path d="M317.61,214.281c11.706,11.711,26.48,19.438,42.725,22.345c4.767,0.853,9.561,1.276,14.332,1.276
	c8.426,0,16.787-1.321,24.82-3.932c4.136-1.344,6.218-5.958,4.468-9.94l-0.215-0.489c-1.534-3.489-5.466-5.16-9.091-3.983
	c-23.27,7.553-48.673,1.589-66.284-16.031c-23.676-23.676-25.351-61.13-5.057-86.774l45.913,45.913
	c1.484,1.484,3.431,2.227,5.377,2.227s3.892-0.742,5.377-2.227c2.97-2.97,2.97-7.784,0-10.753l-45.914-45.914
	c27.498-21.766,68.579-18.266,91.685,10.535c8.139,10.146,13.047,22.591,14.043,35.559c1.487,19.381-5.385,37.863-18.957,51.434
	c-0.014,0.014-0.029,0.029-0.044,0.044c-2.438,2.435-2.674,6.303-0.479,8.961l1.246,1.509c2.47,2.991,6.99,3.253,9.746,0.523
	c0.095-0.094,0.191-0.19,0.285-0.284c15.225-15.224,23.61-35.465,23.61-56.992s-8.386-41.768-23.61-56.992
	c-31.401-31.401-82.483-31.421-113.91-0.061c-0.022,0.021-0.047,0.041-0.069,0.063c-0.024,0.024-0.045,0.052-0.069,0.076
	C286.189,131.807,286.211,182.881,317.61,214.281z"/>
<path d="M368.278,63.669c3.75,5.696,12.82,3.596,13.845-3.099c1.053-6.881-7.41-11.399-12.574-6.799
	C366.76,56.255,366.179,60.561,368.278,63.669z"/>
<path d="M334.81,69.57c1.796,2.629,5.06,3.93,8.17,3.154c2.906-0.725,5.155-3.165,5.654-6.116c1.17-6.916-7.308-11.601-12.549-6.937
	C333.304,62.148,332.718,66.468,334.81,69.57z"/>
<path d="M305.388,86.562c1.779,2.702,5.241,3.971,8.348,3.1c3.049-0.855,5.331-3.581,5.551-6.76
	c0.474-6.858-8.048-10.819-12.957-5.942C303.785,79.49,303.428,83.585,305.388,86.562z"/>
<path d="M453.006,210.426c3.753,5.701,12.819,3.596,13.844-3.099c1.044-6.816-7.256-11.353-12.461-6.898
	C451.515,202.888,450.88,207.278,453.006,210.426z"/>
<path d="M296.892,105.461c-1.288-3.044-4.457-4.996-7.77-4.657c-3.179,0.326-5.835,2.629-6.625,5.721
	c-0.733,2.872,0.342,5.982,2.663,7.816c2.636,2.082,6.461,2.153,9.178,0.181C297.13,112.497,298.24,108.651,296.892,105.461z"/>
<path d="M478.404,172.791c-1.377-6.602-10.468-8.341-13.976-2.42c-1.723,2.908-1.317,6.691,1.013,9.148
	c2.139,2.255,5.552,2.97,8.417,1.782C477.154,179.936,479.12,176.301,478.404,172.791z"/>
<path d="M272.874,134.924c-2.393,2.393-2.893,6.171-1.242,9.121c1.484,2.651,4.55,4.178,7.56,3.797
	c3.08-0.389,5.674-2.676,6.427-5.691c0.792-3.167-0.582-6.575-3.35-8.3C279.311,132.004,275.337,132.442,272.874,134.924z"/>
<path d="M478.404,138.817c-1.397-6.701-10.691-8.338-14.088-2.228c-1.526,2.746-1.191,6.221,0.826,8.627
	c2.139,2.55,5.827,3.368,8.86,2.043C477.214,145.855,479.122,142.265,478.404,138.817z"/>
<path d="M272.874,179.655c4.733,4.768,13.146,1.141,12.973-5.56c-0.18-6.983-9.247-9.973-13.57-4.526
	C269.917,172.543,270.183,176.984,272.874,179.655z"/>
<path d="M466.349,105.461c-1.208-2.863-4.086-4.769-7.208-4.689c-3.107,0.079-5.92,2.111-6.97,5.037
	c-2.375,6.617,5.142,12.708,11.127,9.049C466.435,112.939,467.783,108.857,466.349,105.461z"/>
<path d="M285.648,212.535c2.76,1.817,6.486,1.658,9.046-0.451c2.55-2.101,3.471-5.729,2.199-8.785
	c-1.245-2.989-4.346-4.919-7.584-4.671c-3.109,0.239-5.802,2.391-6.71,5.373C281.624,207.199,282.905,210.661,285.648,212.535z"/>
<path d="M433.267,88.661c5.746,3.783,13.414-1.686,11.546-8.348c-0.912-3.256-3.939-5.574-7.327-5.574
	c-3.254,0-6.185,2.142-7.211,5.218C429.208,83.154,430.444,86.803,433.267,88.661z"/>
<path d="M401.736,69.57c1.803,2.635,5.057,3.923,8.172,3.154c3.217-0.794,5.575-3.699,5.75-7c0.353-6.664-7.867-10.433-12.752-5.962
	C400.196,62.241,399.679,66.521,401.736,69.57z"/>
<path d="M116.492,457.392c6.959,1.87,14.023,2.794,21.04,2.794c13.948,0,27.716-3.654,40.125-10.808
	c18.651-10.752,31.998-28.125,37.583-48.916c5.585-20.791,2.739-42.514-8.014-61.165c-10.753-18.651-28.125-31.999-48.916-37.584
	c-20.792-5.585-42.514-2.739-61.165,8.014c-38.502,22.198-51.767,71.58-29.57,110.081C78.328,438.46,95.7,451.807,116.492,457.392z
	 M104.742,322.903c15.132-8.723,32.756-11.032,49.623-6.502c16.869,4.531,30.962,15.36,39.687,30.493
	c8.723,15.132,11.033,32.755,6.502,49.623c-4.531,16.869-15.36,30.962-30.492,39.687c-15.132,8.724-32.756,11.032-49.623,6.502
	c-14.395-3.867-26.756-12.332-35.496-24.13l56.258-32.433c3.638-2.098,4.887-6.747,2.789-10.386
	c-2.098-3.638-6.747-4.887-10.386-2.789l-56.255,32.431C64.399,375.366,75.733,339.626,104.742,322.903z"/>
<path d="M131.075,285.938c1.829,2.677,5.213,3.98,8.355,3.1c3.006-0.841,5.219-3.475,5.538-6.578
	c0.317-3.096-1.382-6.137-4.15-7.531c-2.992-1.507-6.72-0.837-8.998,1.623C129.459,279.104,129.166,283.042,131.075,285.938z"/>
<path d="M97.618,291.839c1.815,2.753,5.381,4.016,8.528,3.051c3.044-0.934,5.224-3.722,5.383-6.904
	c0.331-6.637-7.785-10.439-12.696-6.002C96.065,284.484,95.576,288.739,97.618,291.839z"/>
<path d="M68.185,308.831c1.825,2.676,5.215,3.979,8.354,3.1c2.931-0.821,5.133-3.362,5.515-6.383
	c0.873-6.887-7.609-11.22-12.705-6.527C66.63,301.528,66.159,305.753,68.185,308.831z"/>
<path d="M217.912,434.793c2.832,1.91,6.724,1.627,9.269-0.64c2.223-1.981,3.096-5.166,2.185-7.999
	c-0.957-2.976-3.726-5.129-6.861-5.274c-3.294-0.153-6.369,1.888-7.509,4.978C213.801,429.099,215.018,432.886,217.912,434.793z"/>
<path d="M47.29,336.013c2.432,2.36,6.156,2.908,9.125,1.232c2.644-1.492,4.187-4.523,3.802-7.541
	c-0.395-3.092-2.672-5.678-5.699-6.443c-3.232-0.817-6.724,0.656-8.404,3.531C44.388,329.744,44.882,333.588,47.29,336.013z"/>
<path d="M232.269,403.992c6.884,1.436,11.751-6.901,7.362-12.274c-4.416-5.408-13.485-2.138-13.485,4.823
	C226.145,400.098,228.755,403.334,232.269,403.992z"/>
<path d="M35.671,367.939c2.313,2.313,5.951,2.87,8.855,1.383c2.802-1.437,4.469-4.574,4.073-7.701
	c-0.859-6.78-9.971-9.011-13.825-3.341C32.738,361.274,33.118,365.367,35.671,367.939z"/>
<path d="M241.211,361.076c-0.7-3.372-3.627-5.939-7.084-6.106c-3.18-0.154-6.175,1.753-7.393,4.687
	c-2.635,6.348,4.208,12.738,10.358,9.738C240.181,367.886,241.829,364.431,241.211,361.076z"/>
<path d="M35.671,401.914c4.954,4.954,13.672,0.802,12.944-6.158c-0.726-6.941-10.11-9.245-13.93-3.366
	C32.748,395.37,33.152,399.394,35.671,401.914z"/>
<path d="M216.756,336.013c2.496,2.496,6.458,2.908,9.435,1.042c2.511-1.574,3.893-4.592,3.459-7.522
	c-0.446-3.01-2.711-5.529-5.667-6.272c-3.276-0.823-6.795,0.689-8.461,3.621C213.852,329.821,214.363,333.62,216.756,336.013z"/>
<path d="M47.29,423.093c-4.702,4.837-1.129,13.331,5.756,12.978c6.787-0.349,9.718-9.173,4.45-13.476
	C54.479,420.132,50.06,420.4,47.29,423.093z"/>
<path d="M193.965,308.831c1.679,2.461,4.676,3.771,7.623,3.265c3.275-0.563,5.828-3.275,6.245-6.561
	c0.859-6.75-7.314-11.065-12.457-6.726C192.455,301.273,191.871,305.651,193.965,308.831z"/>
<path d="M172.349,295.073c3.071-0.641,5.484-3.104,6.008-6.206c0.556-3.289-1.179-6.636-4.178-8.087
	c-2.726-1.32-6.078-0.87-8.352,1.139c-2.447,2.162-3.235,5.763-1.923,8.749C165.31,293.869,168.899,295.789,172.349,295.073z"/>
<path d="M374.598,460.151c44.442,0,80.599-36.156,80.599-80.598s-36.156-80.599-80.599-80.599s-80.598,36.156-80.598,80.599
	S330.157,460.151,374.598,460.151z M374.598,314.163c33.483,0,61.153,25.302,64.934,57.787h-64.934
	c-4.199,0-7.604,3.405-7.604,7.604c0,4.199,3.405,7.604,7.604,7.604h64.934c-3.782,32.485-31.451,57.786-64.934,57.786
	c-36.056,0-65.39-29.334-65.39-65.39S338.543,314.163,374.598,314.163z"/>
<path d="M368.278,285.938c1.74,2.643,5.111,3.93,8.17,3.15c3.082-0.786,5.4-3.463,5.723-6.629c0.322-3.16-1.466-6.261-4.326-7.613
	c-2.927-1.384-6.518-0.72-8.751,1.626C366.661,279.029,366.342,283,368.278,285.938z"/>
<path d="M334.81,291.839c1.788,2.619,5.072,3.93,8.17,3.15c3.094-0.779,5.4-3.461,5.722-6.63c0.315-3.098-1.378-6.134-4.15-7.529
	c-2.942-1.481-6.609-0.863-8.894,1.515C333.212,284.894,332.87,288.892,334.81,291.839z"/>
<path d="M305.388,308.821c3.698,5.751,12.866,3.563,13.843-3.1c1.001-6.821-7.223-11.347-12.46-6.897
	C303.888,301.273,303.27,305.681,305.388,308.821z"/>
<path d="M452.307,431.377c1.187,2.868,4.101,4.779,7.211,4.699c3.111-0.08,5.916-2.123,6.967-5.046
	c1.097-3.051,0.076-6.56-2.48-8.551c-2.477-1.93-5.967-2.12-8.647-0.489C452.222,423.898,450.875,427.984,452.307,431.377z"/>
<path d="M282.414,332.12c0.625,2.993,2.967,5.356,5.972,5.972c3.179,0.651,6.54-0.911,8.116-3.743
	c1.505-2.705,1.207-6.139-0.753-8.537c-2.135-2.612-5.883-3.493-8.961-2.121C283.599,325.11,281.695,328.676,282.414,332.12z"/>
<path d="M469.461,404.003c6.64,1.218,11.627-6.364,7.637-11.926c-1.9-2.649-5.448-3.773-8.535-2.746
	c-3.19,1.061-5.344,4.159-5.209,7.526C463.494,400.337,466.069,403.295,469.461,404.003z"/>
<path d="M272.874,367.939c4.881,4.916,13.533,0.883,12.951-6.005c-0.27-3.196-2.601-5.943-5.706-6.736
	c-3.061-0.782-6.365,0.48-8.146,3.082C269.937,361.252,270.313,365.397,272.874,367.939z"/>
<path d="M476.325,357.182c-2.44-2.436-6.328-2.893-9.284-1.141c-2.618,1.551-4.048,4.636-3.612,7.637
	c0.979,6.738,10.097,8.758,13.839,3.104C479.248,363.792,478.867,359.724,476.325,357.182z"/>
<path d="M270.795,398.031c1.225,6.54,10.132,8.202,13.778,2.737c1.924-2.883,1.611-6.848-0.745-9.389
	c-2.026-2.186-5.23-2.998-8.049-2.027C272.237,390.573,270.041,394.342,270.795,398.031z"/>
<path d="M451.871,332.12c0.664,3.185,3.292,5.647,6.526,6.062c3.186,0.409,6.372-1.348,7.765-4.232
	c1.343-2.781,0.869-6.192-1.238-8.466c-2.221-2.397-5.808-3.111-8.778-1.751C452.969,325.189,451.229,328.708,451.871,332.12z"/>
<path d="M284.493,423.093c-4.68,4.68-1.265,12.988,5.373,12.988c3.178,0,6.089-2.068,7.161-5.05c1.095-3.047,0.07-6.565-2.48-8.551
	C291.562,420.155,287.172,420.414,284.493,423.093z"/>
<path d="M433.267,310.93c2.806,1.847,6.599,1.647,9.161-0.545c2.266-1.94,3.199-5.128,2.335-7.983
	c-0.959-3.169-3.965-5.396-7.276-5.402c-3.176-0.006-6.085,2.067-7.153,5.046C429.16,305.318,430.411,308.981,433.267,310.93z"/>
<path d="M409.542,295.073c3.128-0.652,5.572-3.194,6.041-6.362c0.462-3.129-1.15-6.312-3.939-7.798
	c-2.976-1.584-6.768-0.993-9.092,1.459c-2.164,2.281-2.693,5.754-1.32,8.578C402.71,293.991,406.213,295.765,409.542,295.073z"/>
<g>
</g>
<g>
</g>
<g>
</g>
<g>
</g>
<g>
</g>
<g>
</g>
<g>
</g>
<g>
</g>
<g>
</g>
<g>
</g>
<g>
</g>
<g>
</g>
<g>
</g>
<g>
</g>
<g>
</g>
</svg>
