<?xml version="1.0" encoding="iso-8859-1"?>
<!-- Generator: Adobe Illustrator 19.0.0, SVG Export Plug-In . SVG Version: 6.00 Build 0)  -->
<svg version="1.1" id="Capa_1" xmlns="http://www.w3.org/2000/svg" xmlns:xlink="http://www.w3.org/1999/xlink" x="0px" y="0px"
	 viewBox="0 0 512 512" style="enable-background:new 0 0 512 512;" xml:space="preserve">
<path style="fill:#F96989;" d="M447.109,67.164c-42.408,0-117.644,38.456-155.123,75.901c7.149,7.12,11.592,16.959,11.592,27.785
	c-0.413,50.017,0.973,51.94-1.348,60.549c99.136,28.631,123.907,99.65,172.746,39.311C530.708,201.851,499.53,67.164,447.109,67.164
	z"/>
<path style="fill:#ED5A81;" d="M209.228,230.543c-12.358,3.593-23.558,7.85-33.797,12.427
	c-21.958,23.472-60.859,70.563-102.501,145.527c-3.318,5.973,1.761,13.131,8.492,11.949l47.922-8.419
	c6.951-1.221,13.911,2.108,17.323,8.287l21.584,39.086c3.776,6.839,13.983,5.475,15.827-2.117
	c9.36-38.535,30.822-121.742,56.834-177.853C225.575,256.806,213.21,245.378,209.228,230.543z"/>
<path style="fill:#DD4A78;" d="M104.015,392.724c38.277-81.163,75.626-133.251,97.18-159.695c-9.23,3.013-17.793,6.377-25.765,9.941
	c-21.958,23.472-60.859,70.563-102.501,145.527c-3.318,5.973,1.761,13.131,8.492,11.949l21.769-3.824
	C103.157,395.346,103.403,394.023,104.015,392.724z"/>
<path style="fill:#F96989;" d="M336.94,243.426c-10.563-4.86-21.927-9.303-34.221-12.883c-3.982,14.835-16.348,26.265-31.686,28.886
	c26.012,56.111,47.474,139.319,56.834,177.853c1.844,7.592,12.051,8.957,15.827,2.117l21.584-39.086
	c3.411-6.178,10.372-9.508,17.323-8.287l47.922,8.419c6.73,1.182,11.81-5.976,8.492-11.949
	C397.641,314.012,358.973,267.047,336.94,243.426z"/>
<path style="fill:#ED5A81;" d="M297.418,242.194c-5.947,8.939-15.393,15.356-26.386,17.234
	c26.012,56.111,47.474,139.319,56.834,177.853c1.844,7.592,12.051,8.957,15.827,2.117l21.584-39.086
	c1.724-3.122,4.355-5.512,7.431-6.959C354.944,351.121,326.539,287.884,297.418,242.194z"/>
<path style="fill:#DD4A78;" d="M285.157,254.058c-4.245,2.632-9.014,4.496-14.124,5.37c26.012,56.111,47.474,139.319,56.834,177.853
	c1.844,7.592,12.051,8.957,15.827,2.117l11.173-20.231C341.364,380.368,314.405,306.843,285.157,254.058z"/>
<path style="fill:#F96989;" d="M214.527,242.194c5.947,8.939,15.393,15.356,26.386,17.234
	c-26.012,56.111-47.474,139.319-56.834,177.853c-1.844,7.592-12.051,8.957-15.827,2.117l-21.584-39.086
	c-1.724-3.122-4.355-5.512-7.431-6.959C157.001,351.121,185.405,287.884,214.527,242.194z"/>
<path style="fill:#ED5A81;" d="M303.578,213.253c-0.18,5.678,0.623,10.836-1.348,18.146
	c100.33,28.973,138.807,115.594,185.674,18.638c2.086-4.315,3.948-8.799,5.497-13.091
	C509.031,170.624,314.049,211.037,303.578,213.253z"/>
<path style="fill:#F96989;" d="M208.368,170.85c0-10.827,4.442-20.664,11.592-27.785C182.48,105.62,107.244,67.164,64.836,67.164
	c-52.421,0-83.599,134.688-27.867,203.545c48.838,60.34,73.609-10.68,172.745-39.311
	C207.387,222.765,208.777,220.306,208.368,170.85z"/>
<g>
	<path style="fill:#ED5A81;" d="M86.974,270.71C37.808,209.966,56.283,98.014,97.305,72.467
		c-11.931-3.383-23.017-5.302-32.469-5.302c-52.421,0-83.599,134.687-27.867,203.545c23.585,29.138,41.557,27.641,65,15.081
		C97.166,282.126,92.209,277.178,86.974,270.71z"/>
	<path style="fill:#ED5A81;" d="M208.368,213.253c-10.475-2.216-205.452-42.629-189.823,23.693
		c3.285,9.102,7.698,18.393,13.156,26.572c8.083,12.126,21.152,26.428,35.457,29.879c33.396,8.068,65.699-39.816,142.558-61.997
		C208.841,228.156,208.559,219.257,208.368,213.253z"/>
</g>
<path style="fill:#DD4A78;" d="M107.66,270.895c-14.305-3.451-27.375-17.752-35.457-29.879c-5.458-8.179-9.871-17.47-13.156-26.572
	c-1.224-5.194-1.156-9.735,0.015-13.689c-27.275,3.69-45.764,13.926-40.518,36.19c3.285,9.102,7.698,18.393,13.156,26.572
	c8.083,12.126,21.152,26.427,35.457,29.879c18.498,4.469,36.665-8.231,62.25-24.218C121.91,271.779,114.81,272.622,107.66,270.895z"
	/>
<path style="fill:#ED5A81;" d="M264.316,130.588H247.63c-22.2,0-40.263,18.061-40.263,40.262v50.395
	c0,22.2,18.062,40.263,40.263,40.263h16.686c22.2,0,40.263-18.062,40.263-40.263v-50.395
	C304.579,148.649,286.517,130.588,264.316,130.588z"/>
<path style="fill:#DD4A78;" d="M255.973,221.244v-50.395c0-16.533,10.02-30.764,24.303-36.955
	c-11.455-4.965-19.636-2.751-32.646-3.306c-22.2,0-40.263,18.061-40.263,40.262v50.395c0,22.2,18.062,40.263,40.263,40.263h16.686
	c5.668,0,11.063-1.183,15.96-3.306C265.992,252.008,255.973,237.778,255.973,221.244z"/>
<path d="M447.109,59.664c-25.372,0-63.096,12.852-100.911,34.377c-3.6,2.049-4.857,6.628-2.808,10.229
	c2.048,3.6,6.629,4.858,10.229,2.808c35.123-19.992,70.947-32.412,93.491-32.412c32.728,0,59.001,70.714,46.818,135.01
	c-3.336-3.6-7.708-6.692-13.084-9.189c-3.76-1.749-8.218-0.114-9.962,3.643c-1.745,3.757-0.114,8.218,3.643,9.962
	c10.317,4.792,13.826,11.008,11.67,20.73c-5.732,15.692-11.78,24.659-17.05,31.17c-15.84,19.571-26.77,21.43-34.549,20.702
	c-29.009-5.054-62.002-40.849-123.293-60.372c0.37-3.447,0.253-5.76,0.276-7.038c37.789-7.429,92.962-15.094,131.324-12.043
	c4.145,0.309,7.743-2.755,8.071-6.883c0.328-4.13-2.754-7.743-6.883-8.071c-45.856-3.639-108.163,7.027-132.513,11.713v-33.148
	c0-10.295-3.318-19.824-8.929-27.595c6.387-5.846,13.77-11.785,22.041-17.716c3.366-2.413,4.139-7.099,1.725-10.466
	c-2.414-3.367-7.101-4.138-10.466-1.725c-8.953,6.418-16.949,12.88-23.89,19.274c-17.381-12.65-33.551-8.038-44.432-9.035
	c-10.363,0-19.951,3.361-27.75,9.039C184.263,99.806,111.597,59.664,64.836,59.664c-66.026,0-95.839,166.576-20.206,229.814
	c0,0,0.005,0.004,0.007,0.006c33.518,28.019,60.947,2.581,99.23-20.38c-21.114,26.29-48.647,64.818-77.495,116.752
	c-6.38,11.489,3.4,25.249,16.347,22.979c49.57-8.128,50.603-10.865,55.683-6.084c3.186,3.008,22.17,41.17,26.187,45.071
	c8.777,8.531,23.814,4.436,26.779-7.769c4.063-16.727,8.283-33.1,12.542-48.666c1.093-3.995-1.26-8.121-5.255-9.215
	c-3.997-1.091-8.121,1.262-9.215,5.255c-13.708,50.111-11.816,50.245-13.926,49.877c-0.977-0.171-20.984-37.793-23.273-41.254
	c-1.048-1.59-2.321-3.09-3.725-4.391c17.275-40.688,41.823-94.393,66.97-135.807c5.145,4.786,9.219,6.729,15.015,9.431
	c-10.296,23.525-20.832,53.177-31.377,88.315c-1.19,3.967,1.061,8.149,5.028,9.34c3.966,1.189,8.149-1.061,9.34-5.028
	c10.809-36.018,21.565-66.072,32.011-89.454c2.237,0.1,19.397,0.069,20.938,0c12.966,29.041,32.262,81.537,54.135,171.598
	c1.576,6.485,6.867,11.249,13.481,12.134c1.251,0.167,2.279,0.146,2.178,0.146c0.1-0.026,9.233,0.358,14.022-8.308
	c23.171-41.875,21.768-39.884,23.32-41.314c2.015-1.881,4.862-2.8,7.723-2.297l47.922,8.419
	c12.936,2.285,22.73-11.489,16.347-22.978c-28.585-51.462-55.893-89.767-76.889-115.993c45.246,26.836,84.437,60.803,121.576-7.952
	C535.754,186.548,504.298,59.664,447.109,59.664z M55.663,279.131c-11.093-8.806-22.373-23.645-29.91-44.31
	c-10.122-45.727,128.787-24.531,174.614-15.537c0.022,1.204-0.102,3.509,0.276,7.036C116.162,253.312,90.058,305.964,55.663,279.131
	z M134.862,385.439c-2.233-0.249-4.522-0.202-6.815,0.202c-47.157,8.285-49.553,9.298-48.559,7.497
	c41.659-74.996,80.372-121.377,100.377-142.925c8.439-3.724,16.654-6.81,24.747-9.415c0.22,0.482,0.761,1.591,1.122,2.283
	C179.118,285.786,153.027,342.681,134.862,385.439z M200.367,170.849v33.155c-42.447-8.137-152.842-26.143-182.357,5.626
	C5.753,144.856,32.374,74.665,64.836,74.665c42.048,0,111.122,38.039,144.459,68.589
	C203.685,151.025,200.367,160.555,200.367,170.849z M269.739,253.042c-4.551,0.774-6.276,0.337-22.109,0.465
	c-13.508,0-25.889-8.643-30.438-21.59c0.13-1.869-1.454-6.068-1.326-23.112c0.06-7.939,0.151-19.935,0.002-37.982
	c0.014-15.038,9.494-21.713,10.838-24.497c5.638-4.817,12.945-7.736,20.924-7.736c11.271,1.029,24.546-3.428,37.612,7.736
	c1.333,2.761,10.836,9.499,10.836,24.464c-0.139,16.801-0.018,46.102-0.006,46.953c0.152,11.104-1.542,10.951-1.318,14.175
	C290.842,243.045,280.919,251.177,269.739,253.042z M337.127,436.772c-0.488,0.886-1.744,0.685-1.973-0.263
	c-12.284-50.579-31.335-120.144-53.71-171.228c5.655-2.308,10.407-5.148,15.014-9.431c25.151,41.417,49.697,95.122,66.969,135.807
	C357.501,397.099,354.216,407.449,337.127,436.772z M432.459,393.14c0.262,0.471-0.118,1.008-0.638,0.919
	c-49.167-8.303-48.626-9.299-54.737-8.616c-18.164-42.756-44.253-99.65-70.873-142.36c0.266-0.509,0.855-1.698,1.112-2.26
	c8.68,2.825,17.025,6.122,25.14,9.805C352.388,272.146,390.976,318.461,432.459,393.14z"/>
<g>
</g>
<g>
</g>
<g>
</g>
<g>
</g>
<g>
</g>
<g>
</g>
<g>
</g>
<g>
</g>
<g>
</g>
<g>
</g>
<g>
</g>
<g>
</g>
<g>
</g>
<g>
</g>
<g>
</g>
</svg>
