<?xml version="1.0" encoding="iso-8859-1"?>
<!-- Generator: Adobe Illustrator 19.0.0, SVG Export Plug-In . SVG Version: 6.00 Build 0)  -->
<svg version="1.1" id="Capa_1" xmlns="http://www.w3.org/2000/svg" xmlns:xlink="http://www.w3.org/1999/xlink" x="0px" y="0px"
	 viewBox="0 0 512 512" style="enable-background:new 0 0 512 512;" xml:space="preserve">
<path style="fill:#F89E00;" d="M497.058,438.696l-29.241,29.251l-29.068,29.068c-9.835,9.835-25.915,9.835-35.75,0L14.983,108.999
	c-9.835-9.835-9.835-25.925,0-35.76l29.068-29.068l29.18-29.18c9.845-9.835,25.925-9.835,35.76,0l388.016,388.006
	C506.822,412.822,506.842,428.861,497.058,438.696z"/>
<path style="fill:#FCBA4F;" d="M497.058,438.696l-29.241,29.251L44.052,44.171l29.18-29.18c9.845-9.835,25.925-9.835,35.76,0
	l388.016,388.006C506.822,412.822,506.842,428.861,497.058,438.696z"/>
<path d="M501.912,397.155L114.39,9.634C101.555-3.2,80.669-3.2,67.834,9.634L9.627,67.842c-12.836,12.836-12.836,33.721,0,46.557
	l44.078,44.078c2.97,2.97,7.785,2.97,10.754,0l0,0c2.97-2.97,2.97-7.785,0-10.754l-44.078-44.078
	c-6.906-6.906-6.906-18.143,0-25.047L78.59,20.389c6.907-6.908,18.143-6.908,25.048,0l1.309,1.309l-42.352,42.35
	c-2.97,2.971-2.97,7.785,0,10.754c1.484,1.484,3.431,2.227,5.377,2.227s3.892-0.742,5.377-2.227l42.351-42.352l14.194,14.194
	l-18.981,18.981c-3.031,3.031-3.199,8.159-0.095,11.115c1.467,1.397,3.355,2.096,5.243,2.096c1.946,0,3.892-0.742,5.377-2.227
	l19.211-19.21l14.194,14.194l-19.21,19.21c-2.97,2.971-2.97,7.785,0,10.754c1.484,1.484,3.431,2.227,5.377,2.227
	c1.946,0,3.892-0.742,5.377-2.227l19.211-19.21l14.194,14.194l-19.21,19.211c-2.97,2.97-2.97,7.785,0,10.753
	c1.484,1.484,3.431,2.227,5.377,2.227s3.892-0.742,5.377-2.228l19.21-19.21l14.195,14.195l-42.351,42.351
	c-2.97,2.971-2.97,7.785,0,10.754c1.484,1.484,3.431,2.227,5.377,2.227c1.946,0,3.892-0.742,5.377-2.227l42.352-42.351
	l14.194,14.194l-18.981,18.981c-3.031,3.031-3.199,8.159-0.094,11.115c1.467,1.397,3.355,2.096,5.243,2.096
	c1.946,0,3.892-0.742,5.377-2.227l19.21-19.211l14.194,14.194l-18.981,18.981c-3.031,3.031-3.199,8.159-0.095,11.115
	c1.467,1.397,3.355,2.096,5.243,2.096c1.946,0,3.892-0.742,5.377-2.227l19.21-19.21l14.194,14.194l-19.21,19.21
	c-2.97,2.971-2.97,7.785,0,10.754c1.485,1.484,3.432,2.227,5.378,2.227c1.946,0,3.892-0.742,5.378-2.227l19.21-19.21l14.194,14.194
	l-42.351,42.351c-2.97,2.971-2.97,7.785,0,10.754c1.485,1.484,3.432,2.227,5.378,2.227c1.946,0,3.892-0.742,5.378-2.227
	l42.351-42.351l14.194,14.194l-19.21,19.21c-2.97,2.971-2.97,7.785,0,10.754c1.485,1.484,3.432,2.227,5.378,2.227
	c1.946,0,3.892-0.742,5.378-2.227l19.21-19.21l14.193,14.194l-19.21,19.21c-2.97,2.971-2.97,7.785,0,10.754
	c1.485,1.484,3.432,2.227,5.378,2.227c1.946,0,3.892-0.742,5.378-2.227l19.21-19.21l14.194,14.194l-19.21,19.21
	c-2.97,2.971-2.97,7.785,0,10.754c1.485,1.484,3.432,2.227,5.378,2.227c1.946,0,3.892-0.742,5.378-2.227l19.21-19.21l14.194,14.194
	l-42.351,42.351c-2.97,2.971-2.97,7.785,0,10.754c1.485,1.484,3.432,2.227,5.378,2.227c1.946,0,3.892-0.742,5.378-2.227
	l42.351-42.351l14.194,14.194l-19.21,19.21c-2.97,2.971-2.97,7.785,0,10.754c1.485,1.484,3.432,2.227,5.378,2.227
	c1.946,0,3.892-0.742,5.378-2.227l19.21-19.21l14.194,14.194l-19.21,19.21c-2.97,2.971-2.97,7.785,0,10.754
	c1.485,1.484,3.432,2.227,5.378,2.227c1.946,0,3.892-0.742,5.378-2.227l19.21-19.21l14.194,14.194l-19.21,19.21
	c-2.97,2.971-2.97,7.785,0,10.754c1.485,1.484,3.432,2.227,5.378,2.227c1.946,0,3.892-0.742,5.378-2.227l19.21-19.21l1.386,1.386
	c3.14,3.14,5.175,7.282,5.441,11.714c0.307,5.135-1.553,10.016-5.156,13.618l-58.209,58.209c-6.906,6.908-18.142,6.908-25.046,0
	L89.552,172.815c-2.97-2.97-7.785-2.97-10.754,0l0,0c-2.97,2.97-2.97,7.785,0,10.754l318.796,318.796
	c6.418,6.417,14.848,9.626,23.278,9.626c8.43,0,16.86-3.209,23.278-9.626l58.209-58.209c6.349-6.35,9.786-14.838,9.637-23.839
	C511.851,411.596,508.08,403.324,501.912,397.155z"/>
<g>
</g>
<g>
</g>
<g>
</g>
<g>
</g>
<g>
</g>
<g>
</g>
<g>
</g>
<g>
</g>
<g>
</g>
<g>
</g>
<g>
</g>
<g>
</g>
<g>
</g>
<g>
</g>
<g>
</g>
</svg>
