<?xml version="1.0" encoding="iso-8859-1"?>
<!-- Generator: Adobe Illustrator 19.0.0, SVG Export Plug-In . SVG Version: 6.00 Build 0)  -->
<svg version="1.1" id="Capa_1" xmlns="http://www.w3.org/2000/svg" xmlns:xlink="http://www.w3.org/1999/xlink" x="0px" y="0px"
	 viewBox="0 0 512.002 512.002" style="enable-background:new 0 0 512.002 512.002;" xml:space="preserve">
<path style="fill:#F4D44E;" d="M165.003,189.385c17.971,0.353,30.138-18.655,30.145-18.666c0.564-1.718,1.329-3.398,2.315-5.001
	c1.06-1.723,2.304-3.267,3.686-4.631l-2.161-3.005c-10.004-16.438-8.934-34.03-8.934-34.03l-0.227-3.215l-15.469-15.317
	l-1.638-10.744c-1.047-6.869-7.777-11.346-14.516-9.658l-10.234,2.563c0,0-36.564,0.443-58.813-10.395l0.046,3.205
	c-1.426,15.106,3.008,32.091,3.008,32.091l-2.866,18.083c-0.474,2.99,1.771,5.725,4.796,5.84c3.101,0.558,11.23-1.764,14.574,5.582
	c3.68,8.085,12.403,22.424,27.521,20.89c20.932-2.124,27.767,25.41,27.767,25.41l1,2.66v-1.662H165.003z"/>
<path style="fill:#E8C842;" d="M167.155,189.324c0.355-0.023,0.709-0.046,1.059-0.084c0.21-0.023,0.416-0.056,0.625-0.084
	c0.311-0.041,0.623-0.081,0.929-0.133c0.22-0.037,0.437-0.084,0.655-0.127c0.289-0.056,0.577-0.112,0.862-0.177
	c0.224-0.051,0.445-0.11,0.666-0.167c0.273-0.07,0.547-0.14,0.816-0.218c0.223-0.065,0.443-0.135,0.664-0.205
	c0.261-0.083,0.522-0.166,0.78-0.255c0.221-0.077,0.439-0.158,0.657-0.239c0.25-0.094,0.5-0.189,0.747-0.288
	c0.219-0.088,0.435-0.18,0.651-0.273c0.239-0.103,0.476-0.208,0.711-0.316c0.216-0.099,0.431-0.201,0.644-0.304
	c0.228-0.111,0.453-0.224,0.677-0.339c0.213-0.109,0.425-0.22,0.635-0.333c0.216-0.117,0.43-0.236,0.643-0.357
	c0.21-0.119,0.42-0.239,0.627-0.362c0.203-0.121,0.403-0.244,0.603-0.368c0.208-0.129,0.417-0.258,0.622-0.39
	c0.189-0.122,0.375-0.247,0.56-0.371c0.208-0.139,0.416-0.278,0.62-0.42c0.173-0.121,0.342-0.244,0.511-0.366
	c0.207-0.149,0.416-0.298,0.619-0.45c0.154-0.115,0.303-0.232,0.455-0.349c0.212-0.163,0.426-0.325,0.632-0.49
	c0.117-0.093,0.229-0.187,0.344-0.281c0.233-0.189,0.467-0.379,0.693-0.57l0,0l-0.249-0.663c0,0-7.35-29.605-29.855-27.32
	c-3.979,0.404-7.548-0.216-10.724-1.509h-0.001c-0.016-0.007-0.032-0.013-0.047-0.019c-27.645-10.683-32.473-53.666-33.31-67.193
	c-7.879-1.537-15.843-3.768-22.52-7.021l0.046,3.205c-1.426,15.106,3.008,32.091,3.008,32.091l-2.866,18.083
	c-0.474,2.99,1.771,5.725,4.796,5.84c3.101,0.558,11.23-1.764,14.574,5.582c3.68,8.085,12.403,22.424,27.521,20.89
	c20.932-2.124,27.767,25.41,27.767,25.41l1,2.66v-1.661c0.546,0.011,1.087,0.002,1.622-0.022
	C166.804,189.355,166.978,189.336,167.155,189.324z"/>
<path style="fill:#F4D44E;" d="M165.761,211.011l-22.608,35.827c-3.026,4.876-7.444,8.737-12.681,11.084L91.03,275.591l-2.318,0.787
	c-11.327,3.845-20.513,12.279-25.31,23.236c-1.533,3.503-1.372,7.516,0.437,10.885l1.12,2.085c2.456,4.571,8.179,6.249,12.713,3.725
	c27.721-15.255,3.165-3.7,76.135-32.131c10.026-3.837,12.114-11.278,24.788-26.783C170.264,237.691,167.017,221.348,165.761,211.011
	z"/>
<path style="fill:#E8C842;" d="M170.087,232.806l-17.378,27.54c-3.026,4.877-7.444,8.737-12.681,11.084l-39.441,17.668l-2.318,0.787
	c-15.748,5.347-25.886,19.943-26.326,27.506c1.911,0.253,3.915-0.074,5.731-1.084c27.721-15.255,3.165-3.7,76.135-32.131
	c10.026-3.837,12.114-11.278,24.788-26.783C174.797,248.412,172.065,240.141,170.087,232.806z"/>
<path style="fill:#ED694A;" d="M249.001,214.094l-17.482-8.292c-1.269,2.062-3.969,2.706-6.033,1.437l-19.269-11.854
	c-8.711-5.359-12.743-15.539-10.79-25.044l-1.28-0.623c0,0-12.169,19.019-30.145,18.666v11.608c0,0-1.088,49.54,41.84,106.776
	l67.461-37.342C272.154,266.81,279.453,283.428,249.001,214.094z"/>
<path style="fill:#DB4E33;" d="M200.511,190.456c-4.662-5.56-6.54-13.024-5.082-20.114l-1.28-0.623c0,0-12.169,19.019-30.145,18.666
	v11.608c0,0-1.088,49.54,41.84,106.776l34.461-19.076C208.633,244.458,201.92,205.971,200.511,190.456z"/>
<path style="fill:#5085BA;" d="M387.452,360.153l-61.687,2.743c-6.479,0.286-12.481-3.392-15.166-9.296l-20.285-44.032
	c-0.323,3.058-1.049,6.167-2.316,9.291c-4.737,11.684-21.608,26.503-39.05,39.46l-1.26,2.649l33.95,46.452
	c6.067,8.301,16.254,12.528,26.416,10.961l90.863-14.22L387.452,360.153z"/>
<path style="fill:#3A77AA;" d="M321.803,393.425c-10.162,1.567-20.35-2.659-26.416-10.961l-28.285-38.701
	c-5.612,4.938-11.844,9.869-18.154,14.556l-1.261,2.649l33.95,46.452c6.067,8.301,16.254,12.528,26.416,10.961l90.863-14.22
	l-5.707-21.911L321.803,393.425z"/>
<path style="fill:#656566;" d="M448.948,402.768l-34.741-47.671c-3.204-3.682-8.472-4.773-12.875-2.667l-16.416,7.853l10.471,44.627
	c15.52,13.068,36.798,18.893,49.521,14.661C452.071,417.188,454.263,408.131,448.948,402.768z"/>
<path style="fill:#545456;" d="M448.948,402.768l-6.665-9.146c-14.676,5.974-37.71-1.708-52.079-10.799l5.182,22.087
	c15.52,13.068,36.798,18.893,49.52,14.661C452.072,417.188,454.263,408.131,448.948,402.768z"/>
<path style="fill:#F4D44E;" d="M346.698,284.382c-14.206-19.398-6.76-7.208-40.478-72.044
	c-5.334-10.295-12.231-10.262-57.578-38.199l-20.088,32.653l41.76,20.326c5.186,2.459,9.518,6.415,12.438,11.356l21.986,37.207
	c0.567,0.773,6.435,18.399,26.974,24.756c7.134,2.208,11.822-2.597,12.713-3.004C348.69,294.479,349.714,288.605,346.698,284.382z"
	/>
<path style="fill:#E8C842;" d="M324.925,285.178l-23.93-50.349c-3.178-6.687-8.285-12.27-14.661-16.031l-47.521-28.68
	l-10.258,16.675l41.76,20.326c5.186,2.459,9.518,6.415,12.438,11.356l21.986,37.207c0.567,0.773,6.435,18.399,26.974,24.756
	c0.257,0.079,0.503,0.131,0.754,0.193C327.001,292.684,325.266,285.745,324.925,285.178z"/>
<path style="fill:#5085BA;" d="M272.477,267.553c0,0,27.306,25.668,16.509,52.294c-8.329,20.539-54.149,50.777-74.664,63.53
	c-6.648,4.132-12.255,9.727-16.407,16.362l-46.374,74.107l-42.778-28.294c67.881-105.882,44.872-73.117,96.373-139.747
	L272.477,267.553z"/>
<path style="fill:#3A77AA;" d="M285.771,285.547c-5.604-10.765-13.294-17.994-13.294-17.994l-67.339,38.253
	c-51.502,66.631-28.493,33.866-96.373,139.747l19.964,13.205c53.184-83.33,43.936-70.476,81.959-119.319
	C233.715,309.857,258.356,302.738,285.771,285.547z"/>
<path style="fill:#656566;" d="M110.206,443.346c-18.733-7.543-36.515-4.431-46.53,2.911c-5.641,4.135-4.39,12.937,2.342,16.324
	l59.06,40.94c4.219,2.447,7.451,0.083,10.388-4.111l16.753-26.639L110.206,443.346z"/>
<path style="fill:#545456;" d="M129.699,456.999l-19.494-13.653c-18.733-7.543-36.515-4.431-46.53,2.911
	c-5.641,4.135-4.39,12.937,2.342,16.324l18.571,12.873C90.375,467.529,109.781,456.055,129.699,456.999z"/>
<path style="fill:#ED694A;" d="M196.464,164.718L196.464,164.718c-6.839,11.116-3.339,25.807,7.778,32.646l19.269,11.854
	c2.062,1.269,4.763,0.625,6.033-1.437l20.088-32.653c1.695-2.755,0.835-6.363-1.919-8.057l-17.062-10.497
	C219.007,149.413,203.625,153.078,196.464,164.718z"/>
<path style="fill:#DB4E33;" d="M235.902,189.074l-19.269-11.854c-7.975-4.905-12.625-12.881-12.617-20.25
	c-15.094,9.83-14.402,31.395,0.225,40.393l19.269,11.854c2.062,1.269,4.763,0.625,6.033-1.437l11.915-19.369
	C240.451,190.046,237.964,190.343,235.902,189.074z"/>
<path style="fill:#CC9D72;" d="M161.95,12.889c0,0-54.28-23.339-84.684,27.111C46.584,90.911,146.97,89.68,146.97,89.68
	l10.234-2.563c6.74-1.688,13.47,2.789,14.516,9.658c0.86,3.529,0.192,9.313,5.32,14.391l13.013,12.886
	C241.548,31.172,161.95,12.889,161.95,12.889z"/>
<path style="fill:#C19067;" d="M101.903,47.788c20.733-34.327,52.531-34.453,70.688-31.051c-6.153-2.813-10.64-3.847-10.64-3.847
	s-54.28-23.339-84.684,27.111c-17.996,29.861,9.096,41.78,34.577,46.534C97.814,79.383,89.993,67.508,101.903,47.788z"/>
<path d="M421.206,348.905c-5.426-6.235-14.425-8.098-21.879-4.531l-15.176,7.26l-58.126,2.568c-3.527,0.133-6.689-1.804-8.137-4.986
	l-18.657-41.014c1.644-22.847-15.579-42.133-20.326-46.983l-13.459-30.517l1.772,0.84c3.892,1.846,7.108,4.782,9.3,8.491
	l21.994,37.221c0.524,0.706,7.69,21.211,31.623,28.618c11.044,3.414,18.611-3.659,19.308-4.028
	c7.752-5.368,9.607-16.016,4.127-23.689c-15.172-21.925-7.753-9.241-16.63-26.134c-1.905-3.678-6.433-5.113-10.11-3.209
	c-3.678,1.906-5.114,6.433-3.209,10.11l4.703,9.077c1.97,3.804,3.359,5.16,13.039,18.876c0.611,0.856,0.402,2.038-0.458,2.635
	c-1.182,0.608-3.121,3.026-6.335,2.031c-17.198-5.321-22.097-20.257-22.636-20.996c-0.281-0.597,1.05,1.735-22.501-38.144
	c-3.72-6.296-9.18-11.279-15.786-14.413l-33.561-15.917l12.042-19.573c40.476,24.445,44.059,23.487,47.857,30.813l7.53,14.533
	c1.906,3.679,6.436,5.114,10.11,3.209c3.678-1.905,5.114-6.433,3.209-10.11c-6.232-10.438-7.949-20.448-19.643-27.252
	l-43.273-25.178c-0.237-4.239-2.468-8.303-6.351-10.692l-17.207-10.586c-10.821-6.658-24.04-6.2-34.181,0.05
	c-3.814-9.231-4.342-17.875-4.385-21.276c17.963-33.081,22.035-61.168,12.078-83.498c-12.087-27.11-40.497-35.518-45.319-36.768
	c-3.057-1.217-16.633-6.157-33.481-5.713C111.354,0.51,86.567,7.164,69.11,36.13c-7.955,13.198-9.082,24.962-3.352,34.962
	c3.095,5.401,8.034,9.686,13.975,13.088c-0.393,12.268,2.11,24.431,3.103,28.709l-2.632,16.6c-0.562,3.541,0.422,7.162,2.698,9.933
	c6.373,7.759,15.843,2.677,17.253,5.771c7.966,17.498,20.764,26.689,35.105,25.245c11.547-1.171,18.184,11.647,20.461,17.078
	c-0.061,12.073-0.036,14.762,0.514,20.284c-19.808,30.075-19.959,36.733-29.896,41.185l-9.59,4.295
	c-3.78,1.693-5.473,6.131-3.779,9.911c1.693,3.782,6.136,5.472,9.911,3.779c5.808-3.232,17.589-5.312,25.687-18.363l11.588-18.676
	c1.86,7.495,4.489,16.021,8.208,25.323c-9.645,12.024-10.981,17.322-18.107,20.047c-60.849,23.421-58.207,21.984-62.13,24.167
	c-19.886,10.65-16.097,10.736-19.314,5.832c-0.739-1.376-0.804-2.987-0.178-4.418c3.984-9.098,11.663-16.147,21.066-19.34
	c3.922-1.331,6.023-5.591,4.69-9.514c-1.332-3.923-5.593-6.023-9.514-4.69c-13.385,4.544-24.314,14.577-29.986,27.527
	c-4.541,10.381,1.635,18.989,1.836,19.638c4.42,8.23,14.763,11.386,23.075,6.762c24.966-13.774,2.264-3.497,75.815-31.953
	c5.587-2.139,10.429-5.807,13.997-10.606l5.77-7.759c5.173,10.44,11.703,21.557,19.941,33.059
	c-48.454,62.796-26.407,31.381-89.499,129.808c-17.512-5.246-35.902-3.133-48.222,5.898c-9.974,7.313-8.538,22.744,2.904,28.94
	c63.185,43.789,59.208,41.069,59.691,41.347c7.92,4.597,15.973,0.799,20.589-6.642c71.63-114.322,62.112-99.132,62.988-100.53
	c7.93-12.674,13.948-12.699,42.171-32.644l29.847,40.837c7.814,10.691,20.784,16.053,33.84,14.04l5.716-0.882
	c4.094-0.632,6.901-4.462,6.27-8.557c-0.631-4.093-4.451-6.897-8.557-6.27c-1.964-0.1-16.109,5.2-25.158-7.186L258.05,361.32
	c11.287-8.603,26.065-20.844,34.015-32.642l12.167,26.748c3.999,8.787,12.823,14.177,22.454,13.762l53.439-2.36
	c0.231,0.987,7.208,30.722,7.287,31.06l-39.343,6.07c-4.094,0.632-6.901,4.462-6.27,8.557c0.628,4.072,4.437,6.902,8.557,6.27
	l44.095-6.803c14.954,11.467,37.722,19.546,54.424,13.988c12.3-4.09,16.183-19.452,7.481-28.879
	C429.556,360.326,421.546,349.295,421.206,348.905z M244.715,220.867l18.304,41.501l-56.196,31.923
	c-20.503-28.966-36.762-66.673-36.1-101.842c6.211-1.333,11.601-4.284,16.004-7.597c2.31,6.55,6.783,12.381,13.145,16.294
	c18.841,10.985,22.201,16.121,30.244,12.796L244.715,220.867z M226.503,160.01l15.849,9.751l-17.811,28.949l-16.809-10.341
	c-7.717-4.747-10.133-14.888-5.386-22.605C207.42,157.521,218.256,154.937,226.503,160.01z M81.959,43.873
	c26.531-44.029,73.195-24.981,75.305-24.089c1.064,0.456,26.988,6.396,36.964,28.957c7.208,16.303,4.562,37.409-7.851,62.829
	l-7.712-7.636c-1.25-4.488,0.095-14.963-9.648-21.444c-10.433-6.941-20.858-0.301-25.549-0.301c-21.602,0-56.875-4.91-64.695-18.557
	C77.722,61.798,74.522,56.213,81.959,43.873z M133.748,155.513c-10.315,1.046-16.921-9.911-19.938-16.535
	c-5.216-11.458-17.535-9.695-18.352-9.907l2.429-15.314c0.561-3.523-2.406-8.541-3.106-23.213
	c20.301,6.331,48.763,7.293,52.278,6.414l10.235-2.563c2.436-0.612,4.894,1.002,5.277,3.512c1.789,9.395,0.928,12.124,3.774,14.943
	l14.464,14.323c0.169,6.042,1.415,18.825,8.233,31.635c-0.866,1.517-1.597,3.077-2.185,4.668
	c-1.847,2.576-9.157,11.961-18.915,14.229c-0.133-0.108-0.271-0.209-0.411-0.307C160.484,163.702,149.015,153.971,133.748,155.513z
	 M127.115,496.569c-62.194-43.081-58.449-40.596-59.339-41.044c-1.573-0.792-2.473-2.85-1.299-3.713
	c10.527-7.716,26.778-6.976,38.916-2.33l35.795,25.069C128.541,494.46,128.532,495.033,127.115,496.569z M282.316,315.462
	c-3.621,8.931-17.452,22.362-38.658,37.927c-0.157,0.098-0.315,0.195-0.467,0.306c-0.147,0.107-0.282,0.224-0.419,0.34
	c-31.878,23.263-40.945,23.637-51.707,40.837l-41.893,66.953l-30.007-21.015c61.524-96.023,40.441-66.148,90.564-130.917
	c14.935-8.484,50.306-28.577,61.432-34.897C277.444,282.422,288.95,299.1,282.316,315.462z M444.141,411.732
	c-11.239,3.737-29.363-3.08-40.861-11.895l-8.591-36.616l11.112-5.315c1.322-0.633,2.905-0.352,3.931,0.677
	c36.897,50.578,34.773,47.844,35.524,48.601C446.19,408.125,446.115,411.076,444.141,411.732z"/>
<g>
</g>
<g>
</g>
<g>
</g>
<g>
</g>
<g>
</g>
<g>
</g>
<g>
</g>
<g>
</g>
<g>
</g>
<g>
</g>
<g>
</g>
<g>
</g>
<g>
</g>
<g>
</g>
<g>
</g>
</svg>
