<?xml version="1.0" encoding="iso-8859-1"?>
<!-- Generator: Adobe Illustrator 19.0.0, SVG Export Plug-In . SVG Version: 6.00 Build 0)  -->
<svg version="1.1" id="Capa_1" xmlns="http://www.w3.org/2000/svg" xmlns:xlink="http://www.w3.org/1999/xlink" x="0px" y="0px"
	 viewBox="0 0 512 512" style="enable-background:new 0 0 512 512;" xml:space="preserve">
<path style="fill:#F4D44E;" d="M355.123,28.105C188.895-43.894,7.594,80.38,7.682,255.845
	C7.386,430.852,186.148,551.839,348.919,486.505C553.882,403.723,556.166,115.685,355.123,28.105z"/>
<path style="fill:#E8C842;" d="M175.015,446.234C18.589,355.92,9.09,134.762,153.766,30.383
	C107.964,50.991,67.969,85.648,40.939,132.464c-68.483,118.615-27.842,270.288,90.773,338.771
	c87.29,50.397,192.481,41.691,269.247-13.694C330.718,489.145,246.813,487.686,175.015,446.234z"/>
<path style="fill:#9CD7F2;" d="M91.996,171.116L91.996,171.116c40.584,0,67.802-41.682,51.481-78.84L102.15,12.97
	c-3.795-7.283-14.22-7.276-18.005,0.012L41.879,94.363C25.99,130.537,52.487,171.116,91.996,171.116z"/>
<path style="fill:#71C5DB;" d="M79.588,108.542l15.339-90.41c0.597-3.521,2.812-6.112,5.604-7.445
	c-4.568-4.888-13.05-4.125-16.386,2.296l-42.267,81.38c-15.889,36.174,10.608,76.753,50.119,76.753l0,0
	c8.677,0,16.741-1.91,23.901-5.27C93.285,157.833,76.835,135.211,79.588,108.542z"/>
<path d="M317.706,252.346c16.015-4.178,33.268-1.557,48.589,7.383c1.189,0.694,2.489,1.023,3.773,1.023
	c7.633,0,10.38-10.132,3.787-13.98c-18.772-10.953-40.056-14.131-59.937-8.941c-4.008,1.046-6.409,5.143-5.363,9.15
	C309.6,250.991,313.699,253.395,317.706,252.346z"/>
<path d="M203.4,246.983c1.046-4.008-1.355-8.104-5.363-9.15c-19.878-5.188-41.164-2.013-59.938,8.941
	c-6.593,3.846-3.846,13.98,3.787,13.98c1.284,0,2.584-0.33,3.773-1.023c15.321-8.939,32.576-11.561,48.59-7.383
	C198.257,253.395,202.354,250.991,203.4,246.983z"/>
<path d="M205.079,385.305c2.851,0,5.576-1.634,6.833-4.398c17.345-38.189,71.233-37.352,88.125-0.013
	c1.706,3.774,6.148,5.452,9.924,3.742c3.774-1.707,5.45-6.15,3.742-9.924c-22.105-48.863-92.69-50.081-115.448-0.013
	C195.994,379.672,199.656,385.305,205.079,385.305z"/>
<path d="M133.347,163.254c3.136-2.707,3.482-7.443,0.775-10.578c-2.708-3.136-7.444-3.481-10.578-0.775
	c-8.876,7.664-19.849,11.715-31.732,11.715c-33.973,0-56.86-34.835-43.346-66.021c44.218-83.181,41.162-82.582,44.499-82.582
	c2.644,0.288-1.606-6.167,43.559,80.501c4.223,9.739,5.187,20.253,2.786,30.42c-0.952,4.031,1.544,8.071,5.575,9.022
	c4.028,0.957,8.071-1.544,9.022-5.575c3.566-15.099,0.946-31.068-3.962-40.57L130.03,50.596
	c84.093-51.599,188.154-45.639,265.008,8.582c1.313,0.928,2.822,1.373,4.316,1.373c7.302,0,10.296-9.421,4.33-13.63
	c-81.665-57.617-191.779-63.681-280.6-9.655L108.617,9.504c-3.052-5.856-9.047-9.492-15.65-9.492
	c-0.104,0.03-10.553-0.32-15.663,9.514c-44.354,85.407-42.293,81.395-42.48,81.821c-5.812,13.232-6.785,27.761-3.115,41.28
	C-26.496,238.671-2.096,368.051,84.627,446.203c1.434,1.292,3.229,1.929,5.018,1.929c6.848,0,10.109-8.488,5.023-13.072
	c-18.731-16.881-34.665-36.59-47.362-58.579C7.152,306.93,4.269,222.424,39.528,150.137
	C60.059,182.095,104.483,188.179,133.347,163.254z"/>
<path d="M113.083,468.405c80.197,53.87,185.098,58.782,270.87,9.261C531.2,392.652,557.321,188.382,431.608,69.754
	c-3.014-2.843-7.76-2.706-10.603,0.308c-2.843,3.013-2.705,7.76,0.308,10.603c117.174,110.569,95.018,303.252-44.859,384.01
	c-81.334,46.958-180.076,41.61-255.006-8.722c-3.436-2.309-8.097-1.395-10.407,2.044
	C108.729,461.436,109.644,466.096,113.083,468.405z"/>
<g>
</g>
<g>
</g>
<g>
</g>
<g>
</g>
<g>
</g>
<g>
</g>
<g>
</g>
<g>
</g>
<g>
</g>
<g>
</g>
<g>
</g>
<g>
</g>
<g>
</g>
<g>
</g>
<g>
</g>
</svg>
