<?xml version="1.0" encoding="iso-8859-1"?>
<!-- Generator: Adobe Illustrator 19.0.0, SVG Export Plug-In . SVG Version: 6.00 Build 0)  -->
<svg version="1.1" id="Capa_1" xmlns="http://www.w3.org/2000/svg" xmlns:xlink="http://www.w3.org/1999/xlink" x="0px" y="0px"
	 viewBox="0 0 511.999 511.999" style="enable-background:new 0 0 511.999 511.999;" xml:space="preserve">
<circle style="fill:#F4D44E;" cx="255.773" cy="256.023" r="248.294"/>
<path style="fill:#E8C842;" d="M174.981,446.023C18.369,355.602,8.858,134.182,153.705,29.678
	c-45.856,20.631-85.898,55.33-112.96,102.202C-27.819,250.637,12.87,402.49,131.626,471.053
	c87.394,50.457,192.71,41.741,269.567-13.71C330.869,488.984,246.864,487.525,174.981,446.023z"/>
<circle style="fill:#656566;" cx="326.37" cy="258.676" r="21.66"/>
<path style="fill:#4F4F51;" d="M326.37,258.673c-4.006-6.938-3.719-15.165,0.01-21.642c-3.685-0.005-7.419,0.91-10.839,2.886
	c-10.36,5.981-13.909,19.228-7.928,29.587c5.981,10.36,19.228,13.909,29.587,7.928c3.421-1.975,6.08-4.751,7.919-7.945
	C337.644,269.476,330.377,265.613,326.37,258.673z"/>
<circle style="fill:#656566;" cx="185.177" cy="258.676" r="21.66"/>
<path style="fill:#4F4F51;" d="M185.175,258.673c-4.006-6.938-3.719-15.165,0.01-21.642c-3.684-0.005-7.419,0.91-10.839,2.886
	c-10.36,5.981-13.909,19.228-7.928,29.587c5.981,10.36,19.228,13.909,29.587,7.928c3.421-1.975,6.08-4.751,7.919-7.945
	C196.449,269.476,189.181,265.613,185.175,258.673z"/>
<path d="M197.982,374.859c-1.716,3.776-0.046,8.227,3.73,9.944c3.776,1.714,8.227,0.048,9.944-3.73
	c17.296-38.082,71.232-37.58,88.23-0.013c1.708,3.779,6.156,5.458,9.936,3.747c3.779-1.709,5.457-6.158,3.747-9.936
	C291.464,326.007,220.79,324.68,197.982,374.859z"/>
<path d="M297.201,258.663c0,16.083,13.085,29.169,29.169,29.169c16.084,0,29.17-13.085,29.17-29.169s-13.085-29.169-29.17-29.169
	C310.286,229.495,297.201,242.58,297.201,258.663z M326.37,244.513c7.803,0,14.151,6.348,14.151,14.15
	c0,7.803-6.349,14.15-14.151,14.15c-7.803,0-14.15-6.348-14.15-14.15C312.219,250.861,318.567,244.513,326.37,244.513z"/>
<path d="M185.175,229.495c-16.084,0-29.17,13.085-29.17,29.169c0,16.084,13.085,29.169,29.17,29.169
	c16.083,0,29.169-13.085,29.169-29.169S201.259,229.495,185.175,229.495z M185.175,272.814c-7.803,0-14.151-6.348-14.151-14.15
	s6.349-14.15,14.151-14.15c7.803,0,14.15,6.348,14.15,14.15S192.977,272.814,185.175,272.814z"/>
<path d="M369.717,194.88c2.996,2.865,7.749,2.763,10.617-0.236c2.867-2.997,2.76-7.751-0.236-10.617
	c-15.7-15.014-35.625-23.074-56.184-22.635c-4.146,0.084-7.439,3.514-7.354,7.66c0.083,4.094,3.428,7.356,7.504,7.356
	C342.108,176.409,357.34,183.044,369.717,194.88z"/>
<path d="M187.633,161.392c-20.528-0.45-40.485,7.619-56.184,22.635c-2.997,2.866-3.104,7.619-0.236,10.617
	c2.863,2.996,7.617,3.105,10.617,0.236c12.571-12.023,27.813-18.472,45.654-18.472c4.076,0,7.421-3.262,7.504-7.356
	C195.071,164.906,191.778,161.476,187.633,161.392z"/>
<path d="M409.698,51.644c-82.166-61.826-192.79-68.558-281.826-17.15c-150.629,86.964-171.707,294.61-44.419,410.651
	c1.44,1.313,3.251,1.959,5.057,1.959c6.811,0,10.136-8.43,5.061-13.059C-26.708,324.402-5.887,129.061,135.381,47.501
	C219.192-0.888,323.324,5.448,400.668,63.646c3.315,2.494,8.023,1.825,10.516-1.485C413.677,58.846,413.012,54.137,409.698,51.644z"
	/>
<path d="M376.164,464.549c-81.657,47.144-180.85,41.525-255.817-9.372c-3.434-2.33-8.102-1.438-10.431,1.994
	c-2.329,3.431-1.437,8.102,1.994,10.431c42.488,28.845,92.694,44.263,144.078,44.263c193.679,0,320.829-211.376,221.313-383.741
	c-11.141-19.297-24.718-37.042-40.353-52.743c-2.928-2.94-7.682-2.949-10.619-0.022c-2.94,2.927-2.949,7.681-0.022,10.619
	c14.717,14.779,27.499,31.485,37.989,49.655C530.835,250.88,491.422,398.003,376.164,464.549z"/>
<g>
</g>
<g>
</g>
<g>
</g>
<g>
</g>
<g>
</g>
<g>
</g>
<g>
</g>
<g>
</g>
<g>
</g>
<g>
</g>
<g>
</g>
<g>
</g>
<g>
</g>
<g>
</g>
<g>
</g>
</svg>
