<?xml version="1.0" encoding="iso-8859-1"?>
<!-- Generator: Adobe Illustrator 19.0.0, SVG Export Plug-In . SVG Version: 6.00 Build 0)  -->
<svg version="1.1" id="Capa_1" xmlns="http://www.w3.org/2000/svg" xmlns:xlink="http://www.w3.org/1999/xlink" x="0px" y="0px"
	 viewBox="0 0 511.999 511.999" style="enable-background:new 0 0 511.999 511.999;" xml:space="preserve">
<circle style="fill:#F4D44E;" cx="256.007" cy="255.497" r="248.437"/>
<path style="fill:#E8C842;" d="M174.858,445.718C18.439,355.41,8.941,134.263,153.609,29.889
	C107.81,50.494,67.817,85.15,40.788,131.965c-68.479,118.61-27.841,270.275,90.769,338.754
	c87.286,50.394,192.472,41.69,269.234-13.693C330.554,488.626,246.653,487.168,174.858,445.718z"/>
<path d="M377.745,196.773c-1.092-3.997-5.219-6.353-9.21-5.261c-17.109,4.669-34.458,2.736-48.843-5.443
	c-3.6-2.05-8.18-0.789-10.227,2.813c-2.048,3.601-0.788,8.18,2.813,10.227c17.454,9.925,38.772,12.723,60.206,6.875
	C376.481,204.892,378.836,200.769,377.745,196.773z"/>
<path d="M199.731,199.108c3.601-2.048,4.859-6.626,2.812-10.227c-2.048-3.601-6.626-4.862-10.227-2.813
	c-14.385,8.181-31.731,10.112-48.842,5.443c-3.998-1.091-8.119,1.265-9.21,5.261c-1.09,3.996,1.265,8.119,5.261,9.21
	c7.421,2.025,14.892,3.027,22.242,3.027C175.184,209.011,188.195,205.669,199.731,199.108z"/>
<path d="M202.01,384.606c3.771,1.712,8.217,0.047,9.931-3.725c0.658-1.446,1.386-2.864,2.167-4.216
	c19.737-34.184,69.875-31.34,85.956,4.203c1.253,2.771,3.981,4.411,6.838,4.411c1.033,0,2.083-0.215,3.086-0.669
	c3.774-1.707,5.45-6.15,3.742-9.924c-20.968-46.35-86.588-50.597-112.612-5.521c-1.021,1.769-1.974,3.622-2.832,5.509
	C196.572,378.445,198.24,382.891,202.01,384.606z"/>
<path d="M349.512,294.275c2.278-3.459,1.321-8.11-2.139-10.389c-26.475-17.877-31.198-19.54-31.198-21.829
	c0-2.17,4.717-4.056,17.774-13.172c3.44-2.307,4.359-6.965,2.053-10.406c-2.308-3.44-6.966-4.359-10.406-2.053l-15.59,10.452
	c-11.774,7.892-11.792,22.453,0.051,30.392l29.066,19.144C342.59,298.698,347.239,297.727,349.512,294.275z"/>
<path d="M158.253,297.651c1.479,0,2.972-0.437,4.278-1.346l27.667-19.258c11.707-7.897,11.702-22.434-0.059-30.317l-15.591-10.452
	c-3.44-2.306-8.099-1.388-10.406,2.054c-2.307,3.44-1.387,8.099,2.053,10.405l15.591,10.452c2.858,1.917,2.868,3.515,0,5.439
	c-0.036,0.024-0.073,0.049-0.108,0.074l-27.716,19.293c-3.4,2.366-4.237,7.04-1.871,10.44
	C153.548,296.529,155.881,297.651,158.253,297.651z"/>
<path d="M443.263,81.439c-2.822-3.032-7.566-3.204-10.601-0.381c-3.032,2.821-3.203,7.566-0.381,10.6
	c105.776,113.682,78.096,295.68-55.806,372.99c-92.31,53.293-206.256,39.011-282.496-30.268c-3.066-2.785-7.81-2.559-10.595,0.507
	c-2.786,3.065-2.559,7.809,0.507,10.595c80.257,72.927,201.202,89.244,300.082,32.156
	C525.732,395.794,556.028,202.636,443.263,81.439z"/>
<path d="M417.952,67.366c2.602-3.224,2.098-7.945-1.125-10.547C335.813-8.568,221.246-19.48,128.034,34.337
	C-9.094,113.509-42.373,296.898,58.992,419.395c2.648,3.2,7.378,3.63,10.56,0.997c3.191-2.641,3.638-7.368,0.997-10.56
	C-24.905,294.482,6.502,121.826,135.534,47.327C223.183-3.275,331.047,6.862,407.405,68.491
	C410.63,71.094,415.352,70.586,417.952,67.366z"/>
<g>
</g>
<g>
</g>
<g>
</g>
<g>
</g>
<g>
</g>
<g>
</g>
<g>
</g>
<g>
</g>
<g>
</g>
<g>
</g>
<g>
</g>
<g>
</g>
<g>
</g>
<g>
</g>
<g>
</g>
</svg>
