<?xml version="1.0" encoding="iso-8859-1"?>
<!-- Generator: Adobe Illustrator 19.0.0, SVG Export Plug-In . SVG Version: 6.00 Build 0)  -->
<svg version="1.1" id="Capa_1" xmlns="http://www.w3.org/2000/svg" xmlns:xlink="http://www.w3.org/1999/xlink" x="0px" y="0px"
	 viewBox="0 0 512.001 512.001" style="enable-background:new 0 0 512.001 512.001;" xml:space="preserve">
<circle style="fill:#F4D44E;" cx="255.764" cy="255.994" r="248.22"/>
<path style="fill:#E8C842;" d="M174.689,446.043C18.405,355.813,8.916,134.86,153.458,30.576
	c-45.76,20.589-85.717,55.213-112.722,101.987c-68.419,118.506-27.816,270.039,90.69,338.458
	c87.21,50.35,192.304,41.652,268.999-13.681C330.248,488.915,246.42,487.459,174.689,446.043z"/>
<path id="SVGCleanerId_0" style="fill:#ED694A;" d="M324.959,348.179c-43.353-10.332-95.096-10.316-138.389,0
	c-9.163,11.031-16.177,24.26-20.306,38.887c-1.113,3.946,2.218,7.8,5.938,6.657c50.467-15.509,116.564-15.538,167.125,0
	c3.167,0.973,6.126-1.697,6.153-5.045C345.482,388.208,339.055,365.149,324.959,348.179z"/>
<g>
	<path id="SVGCleanerId_0_1_" style="fill:#ED694A;" d="M324.959,348.179c-43.353-10.332-95.096-10.316-138.389,0
		c-9.163,11.031-16.177,24.26-20.306,38.887c-1.113,3.946,2.218,7.8,5.938,6.657c50.467-15.509,116.564-15.538,167.125,0
		c3.167,0.973,6.126-1.697,6.153-5.045C345.482,388.208,339.055,365.149,324.959,348.179z"/>
</g>
<path style="fill:#D8553A;" d="M191.242,387.067c4.129-14.628,11.142-27.856,20.306-38.887c0.013-0.003,0.026-0.006,0.038-0.009
	c1.526-1.837,3.117-3.608,4.758-5.32c-10.216,1.273-20.202,3.048-29.774,5.329c-9.163,11.031-16.177,24.26-20.306,38.887
	c-1.113,3.945,2.218,7.8,5.938,6.657c6.069-1.865,12.369-3.501,18.835-4.918C191.019,388.239,191.076,387.655,191.242,387.067z"/>
<path style="fill:#656566;" d="M326.919,350.644c-5.945-7.626-12.872-14.299-20.586-19.751l0.011-0.001
	c-0.102-0.072-0.71-0.496-0.812-0.566c-0.006,0.001-0.013,0.001-0.019,0.002c-30.362-20.972-69.127-20.979-99.499,0
	c0,0-0.013-0.001-0.019-0.002c-0.104,0.072-0.71,0.495-0.812,0.566l0.011,0.001c-7.713,5.451-14.641,12.124-20.586,19.752
	C228.942,339.697,282.524,339.68,326.919,350.644z"/>
<path style="fill:#4F4F51;" d="M230.174,330.892l-0.011-0.001c0.101-0.071,0.707-0.494,0.812-0.566
	c0.006,0.001,0.019,0.002,0.019,0.002c11.518-7.956,24.244-12.887,37.259-14.807c-21.302-3.143-43.386,1.785-62.237,14.807
	c0,0-0.013-0.001-0.019-0.002c-0.104,0.072-0.71,0.495-0.812,0.566l0.011,0.001c-7.713,5.451-14.641,12.124-20.586,19.752
	c9.506-2.347,19.438-4.188,29.612-5.53C219.04,339.762,224.386,334.983,230.174,330.892z"/>
<path d="M301.694,235.4c-3.432,2.312-4.339,6.97-2.026,10.402c9.386,13.928,29.241,20.75,45.203,15.538
	c3.935-1.285,6.082-5.516,4.798-9.45c-1.284-3.933-5.511-6.08-9.45-4.798c-9.435,3.081-22.577-1.437-28.122-9.666
	C309.785,233.996,305.127,233.086,301.694,235.4z"/>
<path d="M209.836,235.4c-3.429-2.311-8.089-1.406-10.402,2.026c-5.546,8.23-18.685,12.75-28.122,9.666
	c-3.936-1.282-8.166,0.863-9.45,4.798c-1.284,3.935,0.863,8.165,4.798,9.45c15.995,5.221,35.836-1.639,45.203-15.538
	C214.174,242.37,213.266,237.713,209.836,235.4z"/>
<path d="M364.618,216.307c0.308,0.037,0.612,0.056,0.915,0.056c3.734,0,6.966-2.789,7.429-6.589c0.5-4.107-2.425-7.844-6.533-8.345
	c-17.591-2.142-32.908-10.48-43.125-23.479c-2.558-3.255-7.269-3.817-10.522-1.261c-3.254,2.558-3.818,7.268-1.261,10.522
	C324.205,203.349,343.062,213.682,364.618,216.307z"/>
<path d="M198.747,176.689c-3.254-2.558-7.966-1.994-10.522,1.261c-10.217,12.999-25.532,21.337-43.124,23.479
	c-4.108,0.501-7.033,4.236-6.533,8.345c0.499,4.087,4.209,7.032,8.345,6.533c21.556-2.625,40.412-12.958,53.096-29.095
	C202.565,183.957,202.001,179.247,198.747,176.689z"/>
<path d="M448.873,88.318c-2.71-3.128-7.442-3.466-10.57-0.757c-3.128,2.711-3.467,7.442-0.757,10.571
	c99.591,114.942,69.17,290.945-61.417,366.337c-89.074,51.426-201,40.613-278.511-26.907c-3.123-2.718-7.854-2.393-10.573,0.728
	c-2.719,3.121-2.393,7.854,0.728,10.573c47.678,41.531,107.597,62.864,167.977,62.864
	C472.043,511.726,593.913,255.727,448.873,88.318z"/>
<path d="M62.35,423.309c2.696,3.123,7.425,3.488,10.57,0.776c3.132-2.705,3.479-7.436,0.775-10.569
	C-25.242,298.906,4.558,123.052,135.4,47.512C224.297-3.814,336.09,6.884,413.576,74.134c3.125,2.712,7.858,2.379,10.571-0.747
	c2.713-3.126,2.378-7.858-0.747-10.571c-82.314-71.437-201.062-82.8-295.494-28.282C-11.369,114.944-42.541,301.798,62.35,423.309z"
	/>
<path d="M186.288,337.299c-16.053,16.59-27.351,42.169-27.715,50.715c-0.451,8.561,7.539,15.426,15.83,12.873
	c28.193-8.663,62.429-12.551,96.401-10.952c4.137,0.215,7.642-2.998,7.837-7.133c0.195-4.133-2.998-7.642-7.133-7.837
	c-33.814-1.594-67.979,2.028-96.841,10.218c3.312-10.151,8.167-19.562,14.28-27.867c42.055-9.91,91.579-9.911,133.633-0.001
	c6.117,8.308,10.971,17.719,14.281,27.868c-9.346-2.652-19.318-4.847-29.716-6.536c-4.094-0.65-7.934,2.11-8.598,6.195
	c-0.663,4.085,2.11,7.934,6.195,8.598c11.476,1.864,22.372,4.37,32.385,7.446c8.357,2.578,16.304-4.432,15.833-12.806
	c-0.593-14.522-21.658-50.722-43.539-64.161C274.838,300.252,221.615,300.839,186.288,337.299z M303.993,338.48
	c-31.342-4.76-65.116-4.76-96.461,0.002C236.375,316.837,274.918,316.662,303.993,338.48z"/>
<g>
</g>
<g>
</g>
<g>
</g>
<g>
</g>
<g>
</g>
<g>
</g>
<g>
</g>
<g>
</g>
<g>
</g>
<g>
</g>
<g>
</g>
<g>
</g>
<g>
</g>
<g>
</g>
<g>
</g>
</svg>
