<?xml version="1.0" encoding="iso-8859-1"?>
<!-- Generator: Adobe Illustrator 19.0.0, SVG Export Plug-In . SVG Version: 6.00 Build 0)  -->
<svg version="1.1" id="Capa_1" xmlns="http://www.w3.org/2000/svg" xmlns:xlink="http://www.w3.org/1999/xlink" x="0px" y="0px"
	 viewBox="0 0 512 512" style="enable-background:new 0 0 512 512;" xml:space="preserve">
<circle style="fill:#F4D44E;" cx="256.041" cy="255.981" r="248.408"/>
<path style="fill:#E8C842;" d="M80.866,350.028C20.11,239.015,53.45,101.586,153.64,29.44c-6.224,2.803-12.234,5.797-18.048,8.952
	C60.226,81.505,8.707,162.996,7.606,252.652c-0.001,0.109-0.003,0.217-0.004,0.327c-0.01,0.901-0.006,1.803-0.005,2.706
	c0.002,0.974,0.004,1.947,0.018,2.921c0.003,0.222,0.008,0.445,0.011,0.667c0.023,1.386,0.054,2.773,0.1,4.159
	c0.003,0.095,0.007,0.19,0.01,0.285c0.044,1.318,0.101,2.635,0.166,3.953c0.033,0.661,0.07,1.321,0.109,1.983
	c0.034,0.604,0.07,1.209,0.108,1.813c2.024,30.367,9.91,61.414,24.665,92.004c42.579,88.679,130.913,140.338,222.852,140.963
	c50.824-0.054,101.831-15.664,145.178-46.874C284.045,510.15,143.6,465.09,80.866,350.028z"/>
<path style="fill:#656566;" d="M301.023,380.805c10.46,0,14.809-13.296,6.434-19.562c-30.942-23.149-72.781-22.497-102.831,0.111
	c-8.282,6.232-3.781,19.451,6.583,19.451H301.023z"/>
<path style="fill:#4F4F51;" d="M228.703,361.353c10.221-9.916,22.2-15.606,34.454-16.919c-20.542-1.684-41.442,4.062-58.531,16.919
	c-8.282,6.232-3.781,19.451,6.583,19.451h22.599C225.77,380.805,222.28,367.585,228.703,361.353z"/>
<circle style="fill:#656566;" cx="326.73" cy="258.625" r="21.669"/>
<path style="fill:#4F4F51;" d="M326.726,258.625c-4.008-6.942-3.72-15.172,0.01-21.652c-3.686-0.005-7.423,0.911-10.844,2.887
	c-10.364,5.984-13.915,19.236-7.931,29.601s19.236,13.915,29.601,7.931c3.423-1.976,6.083-4.753,7.922-7.948
	C338.004,269.432,330.734,265.567,326.726,258.625z"/>
<circle style="fill:#656566;" cx="185.462" cy="258.625" r="21.669"/>
<path style="fill:#4F4F51;" d="M185.465,258.625c-4.008-6.942-3.72-15.172,0.01-21.652c-3.686-0.005-7.423,0.911-10.844,2.887
	c-10.364,5.984-13.915,19.236-7.931,29.601s19.236,13.915,29.601,7.931c3.423-1.976,6.083-4.753,7.922-7.948
	C196.744,269.432,189.474,265.567,185.465,258.625z"/>
<path d="M355.855,258.624c0-16.09-13.091-29.182-29.182-29.182c-16.091,0-29.182,13.091-29.182,29.182s13.091,29.182,29.182,29.182
	C342.764,287.806,355.855,274.715,355.855,258.624z M312.517,258.624c0-7.806,6.351-14.157,14.157-14.157
	c7.806,0,14.157,6.351,14.157,14.157c0,7.806-6.351,14.157-14.157,14.157C318.868,272.781,312.517,266.43,312.517,258.624z"/>
<path d="M214.595,258.624c0-16.09-13.091-29.182-29.182-29.182s-29.182,13.091-29.182,29.182s13.091,29.182,29.182,29.182
	S214.595,274.715,214.595,258.624z M185.413,272.781c-7.806,0-14.157-6.351-14.157-14.157c0-7.806,6.351-14.157,14.157-14.157
	c7.806,0,14.157,6.351,14.157,14.157C199.57,266.43,193.219,272.781,185.413,272.781z"/>
<path d="M211.155,388.318h89.815c17.694,0,25.085-22.503,10.933-33.09c-33.155-24.812-78.61-24.885-111.847,0.122
	c-6.38,4.8-8.864,12.807-6.327,20.397C196.282,383.383,203.122,388.318,211.155,388.318z M209.09,367.356
	c27.805-20.918,65.921-20.973,93.814-0.098c2.602,1.946,1.323,6.033-1.933,6.033h-89.815c-2.17,0-2.943-1.613-3.174-2.307
	C207.703,370.152,207.475,368.571,209.09,367.356z"/>
<path d="M477.675,128.025C398.186-9.655,213.393-42.709,90.959,60.376c-3.173,2.672-3.58,7.411-0.908,10.586
	c2.672,3.173,7.41,3.582,10.586,0.908C215.927-25.22,389.865,5.984,464.662,135.538c54.561,94.502,38.715,214.205-38.532,291.096
	c-2.941,2.927-2.951,7.684-0.024,10.624c2.925,2.938,7.683,2.954,10.624,0.024C518.801,355.591,535.638,228.419,477.675,128.025z"/>
<path d="M76.215,95.621c2.763-3.096,2.491-7.845-0.605-10.607c-3.095-2.764-7.844-2.49-10.607,0.605
	C-61.544,227.476,5.748,453.864,189.807,503.183c76.117,20.393,156.04,5.026,219.341-42.124c3.328-2.478,4.017-7.185,1.539-10.512
	c-2.479-3.329-7.187-4.016-10.513-1.538c-59.627,44.403-134.825,58.86-206.478,39.66C20.646,442.3-43.068,229.339,76.215,95.621z"/>
<g>
</g>
<g>
</g>
<g>
</g>
<g>
</g>
<g>
</g>
<g>
</g>
<g>
</g>
<g>
</g>
<g>
</g>
<g>
</g>
<g>
</g>
<g>
</g>
<g>
</g>
<g>
</g>
<g>
</g>
</svg>
