<?xml version="1.0" encoding="iso-8859-1"?>
<!-- Generator: Adobe Illustrator 19.0.0, SVG Export Plug-In . SVG Version: 6.00 Build 0)  -->
<svg version="1.1" id="Capa_1" xmlns="http://www.w3.org/2000/svg" xmlns:xlink="http://www.w3.org/1999/xlink" x="0px" y="0px"
	 viewBox="0 0 512.002 512.002" style="enable-background:new 0 0 512.002 512.002;" xml:space="preserve">
<circle style="fill:#F4D44E;" cx="255.942" cy="256.001" r="248.457"/>
<path style="fill:#E8C842;" d="M175.1,446.123C18.385,355.643,8.869,134.078,153.811,29.506
	C107.925,50.15,67.857,84.872,40.777,131.775c-68.609,118.834-27.893,270.787,90.941,339.396
	c87.451,50.49,192.836,41.768,269.744-13.719C331.09,489.113,247.031,487.652,175.1,446.123z"/>
<path style="fill:#656566;" d="M300.88,380.845c10.462,0,14.812-13.299,6.435-19.566c-30.948-23.154-72.795-22.501-102.851,0.111
	c-8.284,6.233-3.782,19.455,6.584,19.455H300.88z"/>
<path style="fill:#4F4F51;" d="M228.547,361.39c10.223-9.918,22.205-15.609,34.461-16.922c-20.546-1.684-41.45,4.063-58.542,16.922
	c-8.284,6.233-3.782,19.455,6.584,19.455h22.603C225.613,380.845,222.122,367.623,228.547,361.39z"/>
<circle style="fill:#656566;" cx="326.585" cy="258.636" r="21.674"/>
<path style="fill:#4F4F51;" d="M326.589,258.641c-4.009-6.943-3.721-15.175,0.01-21.657c-3.687-0.005-7.424,0.911-10.846,2.887
	c-10.366,5.985-13.918,19.24-7.933,29.607c5.985,10.366,19.24,13.918,29.607,7.933c3.423-1.977,6.084-4.754,7.924-7.95
	C337.869,269.451,330.597,265.584,326.589,258.641z"/>
<circle style="fill:#656566;" cx="185.299" cy="258.636" r="21.674"/>
<path style="fill:#4F4F51;" d="M185.3,258.641c-4.009-6.943-3.721-15.175,0.01-21.657c-3.687-0.005-7.424,0.911-10.846,2.887
	c-10.366,5.985-13.918,19.24-7.933,29.607s19.24,13.918,29.607,7.933c3.423-1.977,6.084-4.754,7.924-7.95
	C196.581,269.451,189.31,265.584,185.3,258.641z"/>
<path d="M297.401,258.641c0,16.093,13.094,29.188,29.188,29.188c16.094,0,29.188-13.094,29.188-29.188s-13.094-29.188-29.188-29.188
	C310.495,229.453,297.401,242.547,297.401,258.641z M326.589,244.482c7.808,0,14.16,6.352,14.16,14.16
	c0,7.808-6.352,14.16-14.16,14.16c-7.808,0-14.16-6.352-14.16-14.16C312.429,250.834,318.781,244.482,326.589,244.482z"/>
<path d="M185.301,229.453c-16.093,0-29.188,13.094-29.188,29.188s13.094,29.188,29.188,29.188s29.188-13.094,29.188-29.188
	S201.395,229.453,185.301,229.453z M185.301,272.801c-7.808,0-14.16-6.352-14.16-14.16c0-7.808,6.352-14.16,14.16-14.16
	c7.808,0,14.16,6.352,14.16,14.16C199.46,266.449,193.109,272.801,185.301,272.801z"/>
<path d="M324.437,176.331c16.505-0.307,32.709,6.229,45.527,18.486c1.456,1.393,3.325,2.084,5.193,2.084
	c6.706,0,10.117-8.236,5.195-12.944c-15.711-15.024-35.646-23.089-56.221-22.65c-4.149,0.084-7.444,3.517-7.359,7.665
	c0.083,4.097,3.43,7.361,7.509,7.361C324.331,176.333,324.384,176.332,324.437,176.331z"/>
<path d="M187.76,161.306c-20.549-0.45-40.511,7.624-56.221,22.65c-2.999,2.867-3.106,7.624-0.236,10.624
	c2.864,2.998,7.622,3.107,10.624,0.236c12.817-12.257,29.016-18.81,45.527-18.486c4.187,0.085,7.581-3.209,7.665-7.359
	C195.203,164.822,191.908,161.391,187.76,161.306z"/>
<path d="M199.948,355.385c-14.052,10.573-6.478,32.974,11.101,32.974h89.833c17.697,0,25.09-22.507,10.936-33.096
	C278.655,330.446,233.19,330.374,199.948,355.385z M302.815,367.296c2.603,1.947,1.323,6.034-1.934,6.034h-89.833
	c-3.164,0-4.606-4.026-2.067-5.937c24.896-18.729,58.653-21.047,86.033-5.239C297.714,363.714,300.337,365.442,302.815,367.296z"/>
<path d="M396.542,42.056C317.045-10.1,213.343-14.97,127.96,34.325c-151.91,87.704-172.146,298.399-41.308,413.748
	c3.12,2.75,7.868,2.439,10.606-0.667c2.744-3.113,2.445-7.862-0.667-10.606c-19.562-17.246-36.151-37.545-49.307-60.33
	c-66.579-115.321-27.146-262.54,88.19-329.13C215.973,0.865,313.58,5.601,388.299,54.621c3.469,2.276,8.127,1.309,10.405-2.16
	C400.979,48.99,400.012,44.333,396.542,42.056z"/>
<path d="M376.414,464.661c-80.32,46.373-177.906,41.84-252.765-7.243c-3.469-2.274-8.127-1.307-10.405,2.164
	c-2.275,3.471-1.306,8.128,2.164,10.405c79.971,52.431,183.646,56.692,268.52,7.689c150.349-86.805,173.647-297.012,41.365-413.697
	c-3.111-2.745-7.861-2.448-10.605,0.664c-2.745,3.111-2.448,7.861,0.664,10.605C538.904,184.24,518.922,382.385,376.414,464.661z"/>
<g>
</g>
<g>
</g>
<g>
</g>
<g>
</g>
<g>
</g>
<g>
</g>
<g>
</g>
<g>
</g>
<g>
</g>
<g>
</g>
<g>
</g>
<g>
</g>
<g>
</g>
<g>
</g>
<g>
</g>
</svg>
