<?xml version="1.0" encoding="iso-8859-1"?>
<!-- Generator: Adobe Illustrator 19.0.0, SVG Export Plug-In . SVG Version: 6.00 Build 0)  -->
<svg version="1.1" id="Capa_1" xmlns="http://www.w3.org/2000/svg" xmlns:xlink="http://www.w3.org/1999/xlink" x="0px" y="0px"
	 viewBox="0 0 511.999 511.999" style="enable-background:new 0 0 511.999 511.999;" xml:space="preserve">
<circle style="fill:#F4D44E;" cx="255.955" cy="255.986" r="248.407"/>
<path style="fill:#E8C842;" d="M174.815,446.177C18.416,355.88,8.918,134.76,153.569,30.398
	C107.775,51.002,67.787,85.652,40.762,132.462c-68.471,118.595-27.837,270.242,90.758,338.712
	c87.275,50.389,192.448,41.685,269.201-13.691C330.491,489.081,246.601,487.623,174.815,446.177z"/>
<ellipse style="fill:#656566;" cx="177.306" cy="265.594" rx="22.66" ry="28.891"/>
<path style="fill:#4F4F51;" d="M194.636,282.54c-12.514,0-22.66-12.935-22.66-28.891c0-6.316,1.595-12.154,4.291-16.909
	c-12.032,0.692-21.622,13.345-21.622,28.858c0,15.956,10.145,28.891,22.66,28.891c7.561,0,14.252-4.726,18.369-11.982
	C195.33,282.526,194.984,282.54,194.636,282.54z"/>
<path style="fill:#9CD7F2;" d="M136.477,428.16L136.477,428.16c27.355,0,45.702-28.095,34.7-53.142l-27.856-53.457
	c-2.559-4.909-9.585-4.904-12.136,0.008l-28.49,54.855C91.985,400.807,109.846,428.16,136.477,428.16z"/>
<path style="fill:#71C5DB;" d="M129.022,384.639l8.146-61.273c0.284-2.136,1.464-3.795,3.033-4.813
	c-3.125-1.476-7.2-0.479-9.016,3.017l-28.49,54.855c-10.71,24.383,7.151,51.735,33.783,51.735l0,0
	c7.315,0,13.976-2.024,19.613-5.446C140.064,418.278,127.78,403.143,129.022,384.639z"/>
<ellipse style="fill:#656566;" cx="334.595" cy="265.594" rx="22.66" ry="28.891"/>
<path style="fill:#4F4F51;" d="M351.93,282.54c-12.514,0-22.66-12.935-22.66-28.891c0-6.316,1.595-12.154,4.291-16.909
	c-12.032,0.692-21.622,13.345-21.622,28.858c0,15.956,10.145,28.891,22.66,28.891c7.561,0,14.252-4.726,18.369-11.982
	C352.624,282.526,352.278,282.54,351.93,282.54z"/>
<path d="M177.303,229.206c-16.63,0-30.159,16.325-30.159,36.39s13.529,36.391,30.159,36.391s30.159-16.325,30.159-36.391
	S193.933,229.206,177.303,229.206z M177.303,286.99c-8.218,0-15.161-9.797-15.161-21.393c0-11.596,6.943-21.392,15.161-21.392
	s15.161,9.797,15.161,21.392C192.464,277.194,185.521,286.99,177.303,286.99z"/>
<path d="M304.437,265.597c0,20.065,13.529,36.391,30.159,36.391c16.63,0,30.159-16.325,30.159-36.391s-13.529-36.39-30.159-36.39
	C317.966,229.207,304.437,245.532,304.437,265.597z M334.596,244.204c8.218,0,15.161,9.797,15.161,21.392
	c0,11.596-6.943,21.393-15.161,21.393c-8.218,0-15.161-9.797-15.161-21.393C319.435,254.001,326.379,244.204,334.596,244.204z"/>
<path d="M198.237,374.654c-1.714,3.77-0.046,8.216,3.725,9.931c3.771,1.712,8.216,0.047,9.931-3.724
	c17.27-38.049,71.181-37.434,88.11-0.013c1.253,2.771,3.98,4.41,6.837,4.41c5.382,0,9.091-5.591,6.827-10.592
	C291.351,325.337,220.818,324.977,198.237,374.654z"/>
<path d="M323.997,180.476c-4.14,0.084-7.429,3.51-7.344,7.65c0.084,4.14,3.473,7.425,7.65,7.344
	c17.1-0.33,33.076,6.628,45.435,18.448c1.453,1.39,3.319,2.08,5.182,2.08c6.692,0,10.097-8.22,5.184-12.918
	C364.426,188.084,344.538,180.053,323.997,180.476z"/>
<path d="M187.901,180.476c-20.54-0.438-40.431,7.61-56.108,22.603c-2.993,2.862-3.1,7.609-0.236,10.603
	c1.473,1.541,3.445,2.316,5.42,2.316c1.863,0,3.729-0.69,5.182-2.08c12.477-11.933,28.139-18.46,44.223-18.46
	c0.404,0,0.809,0.004,1.212,0.012c0.053,0.001,0.104,0.002,0.156,0.002c4.07,0,7.411-3.258,7.494-7.346
	C195.33,183.985,192.042,180.56,187.901,180.476z"/>
<path d="M125.751,317.9c-31.151,57.598-29.439,54.394-29.634,54.816c-13.498,29.38,7.963,62.942,40.38,62.942
	c34.786-0.002,54.831-37.405,41.653-63.419l-3.233-6.467c-1.852-3.704-6.356-5.208-10.061-3.354
	c-3.704,1.852-5.206,6.355-3.354,10.061l3.115,6.231c8.254,20.115-6.686,42.27-28.645,41.944
	c-21.205-0.356-34.998-22.215-26.322-41.467l28.691-53.041l7.433,14.871c1.853,3.703,6.353,5.205,10.062,3.355
	c3.705-1.853,5.206-6.356,3.355-10.062l-7.999-16.001c-2.4-4.803-7.228-7.841-12.596-7.927c-0.079-0.002-0.157-0.002-0.235-0.002
	C133.084,310.383,128.268,313.247,125.751,317.9z"/>
<path d="M110.785,45.223c-3.414,2.346-4.279,7.014-1.935,10.428c2.345,3.414,7.014,4.279,10.428,1.935
	c116.356-79.948,275.126-43.615,345.308,77.942c58.01,100.477,35.508,226.323-48.96,300.906c-3.105,2.741-3.399,7.48-0.658,10.585
	c2.733,3.095,7.47,3.408,10.585,0.658c89.693-79.194,113.679-212.853,52.021-319.648C402.935-1.251,234.229-39.596,110.785,45.223z"
	/>
<path d="M388.618,457.06c-4.136,2.725-8.245,5.266-12.212,7.557c-55.827,32.231-120.748,40.694-182.808,24.067
	C9.865,439.452-46.184,206.425,92.723,78.743c3.05-2.803,3.25-7.546,0.446-10.596c-2.803-3.05-7.546-3.249-10.596-0.446
	C-65.018,203.365-5.428,450.885,189.716,503.17c71.186,19.076,145.586,6.952,207.148-33.583c3.46-2.278,4.417-6.929,2.141-10.388
	C396.727,455.74,392.077,454.783,388.618,457.06z"/>
<g>
</g>
<g>
</g>
<g>
</g>
<g>
</g>
<g>
</g>
<g>
</g>
<g>
</g>
<g>
</g>
<g>
</g>
<g>
</g>
<g>
</g>
<g>
</g>
<g>
</g>
<g>
</g>
<g>
</g>
</svg>
