<?xml version="1.0" encoding="iso-8859-1"?>
<!-- Generator: Adobe Illustrator 19.0.0, SVG Export Plug-In . SVG Version: 6.00 Build 0)  -->
<svg version="1.1" id="Capa_1" xmlns="http://www.w3.org/2000/svg" xmlns:xlink="http://www.w3.org/1999/xlink" x="0px" y="0px"
	 viewBox="0 0 512.001 512.001" style="enable-background:new 0 0 512.001 512.001;" xml:space="preserve">
<circle style="fill:#F4D44E;" cx="256.083" cy="255.993" r="248.452"/>
<path style="fill:#E8C842;" d="M174.929,446.227C18.5,355.912,9.002,134.753,153.679,30.372
	C107.877,50.979,67.882,85.636,40.852,132.454c-68.483,118.617-27.842,270.291,90.774,338.775
	c87.291,50.397,192.483,41.692,269.25-13.694C330.634,489.138,246.728,487.68,174.929,446.227z"/>
<path id="SVGCleanerId_0" style="fill:#ED694A;" d="M325.339,347.914c-43.393-10.342-95.185-10.326-138.518,0
	c-9.171,11.042-16.192,24.282-20.325,38.923c-1.114,3.949,2.22,7.807,5.943,6.663c50.514-15.524,116.673-15.553,167.281,0
	c3.17,0.974,6.131-1.698,6.158-5.049C345.882,387.98,339.449,364.9,325.339,347.914z"/>
<g>
	<path id="SVGCleanerId_0_1_" style="fill:#ED694A;" d="M325.339,347.914c-43.393-10.342-95.185-10.326-138.518,0
		c-9.171,11.042-16.192,24.282-20.325,38.923c-1.114,3.949,2.22,7.807,5.943,6.663c50.514-15.524,116.673-15.553,167.281,0
		c3.17,0.974,6.131-1.698,6.158-5.049C345.882,387.98,339.449,364.9,325.339,347.914z"/>
</g>
<path style="fill:#D8553A;" d="M191.498,386.838c4.133-14.642,11.153-27.882,20.325-38.923c0.013-0.003,0.026-0.006,0.038-0.009
	c1.527-1.839,3.12-3.611,4.762-5.325c-10.226,1.274-20.221,3.051-29.801,5.334c-9.171,11.042-16.192,24.282-20.325,38.923
	c-1.114,3.948,2.22,7.807,5.943,6.663c6.074-1.867,12.381-3.504,18.853-4.922C191.275,388.01,191.332,387.426,191.498,386.838z"/>
<path style="fill:#656566;" d="M327.302,350.381c-5.95-7.633-12.884-14.313-20.605-19.769l0.011-0.001
	c-0.102-0.072-0.711-0.496-0.813-0.566c-0.006,0.001-0.013,0.001-0.019,0.002c-30.391-20.992-69.191-20.999-99.592,0
	c0,0-0.013-0.001-0.019-0.002c-0.104,0.072-0.711,0.495-0.813,0.567l0.011,0.001c-7.72,5.456-14.655,12.136-20.605,19.77
	C229.233,339.423,282.865,339.406,327.302,350.381z"/>
<path style="fill:#4F4F51;" d="M230.466,330.611l-0.011-0.001c0.101-0.071,0.708-0.494,0.813-0.567
	c0.006,0.001,0.019,0.002,0.019,0.002c11.529-7.963,24.266-12.899,37.294-14.821c-21.322-3.146-43.426,1.787-62.295,14.821
	c0,0-0.013-0.001-0.019-0.002c-0.104,0.072-0.711,0.495-0.813,0.567l0.011,0.001c-7.72,5.456-14.655,12.136-20.605,19.77
	c9.514-2.349,19.456-4.192,29.639-5.535C219.322,339.488,224.672,334.705,230.466,330.611z"/>
<path d="M373.387,209.735c0.5-4.111-2.427-7.851-6.539-8.352c-17.607-2.144-32.938-10.49-43.164-23.501
	c-2.56-3.258-7.275-3.82-10.532-1.262c-3.257,2.56-3.821,7.274-1.262,10.532c12.697,16.153,31.571,26.495,53.146,29.122
	C369.184,216.776,372.889,213.816,373.387,209.735z"/>
<path d="M200.272,187.152c2.56-3.257,1.995-7.972-1.262-10.532c-3.257-2.559-7.972-1.996-10.532,1.262
	c-10.227,13.012-25.556,21.357-43.165,23.501c-4.112,0.501-7.04,4.24-6.539,8.352c0.498,4.091,4.213,7.038,8.351,6.539
	C168.703,213.647,187.577,203.306,200.272,187.152z"/>
<path d="M352.713,283.897c-26.467-17.872-31.2-19.539-31.2-21.831c0-2.17,4.694-4.04,17.774-13.172
	c3.441-2.306,4.36-6.965,2.054-10.406c-2.306-3.442-6.968-4.36-10.406-2.054l-15.593,10.452
	c-11.771,7.892-11.795,22.451,0.052,30.394c29.745,19.083,29.207,20.382,33.187,20.382
	C356.005,297.663,358.914,287.981,352.713,283.897z"/>
<path d="M167.859,296.317l27.668-19.259c11.708-7.897,11.704-22.435-0.059-30.32l-15.592-10.452
	c-3.44-2.306-8.099-1.387-10.407,2.054c-2.306,3.44-1.387,8.1,2.054,10.406l15.592,10.452c2.857,1.917,2.869,3.516,0,5.44
	c-2.67,1.78,9.728-6.773-27.826,19.368c-3.4,2.366-4.237,7.04-1.871,10.441C159.797,297.864,164.475,298.674,167.859,296.317z"/>
<path d="M306.646,385.762c-0.779,4.068,1.888,7.998,5.955,8.777c20.825,3.988,24.126,6.663,28.444,6.663
	c2.39,0,4.746-0.721,6.781-2.117c3.947-2.71,6.02-7.511,5.462-12.191c-0.075-0.696-0.219-1.43-0.406-2.095
	c-4.05-14.348-10.813-27.678-19.666-39.029c-2.82-3.62-5.898-7.101-9.381-10.53c-2.015-1.986-4.072-3.851-5.931-5.419
	c-2.297-1.939-4.606-3.718-6.848-5.323c-0.571-0.401-0.993-0.699-1.271-0.867c-38.257-26.181-87.296-20.932-120.184,10.361
	c-18.311,17.447-30.427,44.805-30.807,53.831c-0.397,8.659,7.618,15.374,15.847,12.848c30.477-9.365,67.358-13.105,103.839-10.53
	c4.116,0.285,7.718-2.821,8.01-6.953c0.292-4.132-2.821-7.718-6.953-8.01c-36.449-2.569-73.385,0.896-104.63,9.773
	c3.315-10.16,8.173-19.58,14.294-27.893c42.096-9.919,91.667-9.918,133.758,0c6.12,8.314,10.98,17.735,14.295,27.894
	c-6.946-1.971-14.269-3.697-21.83-5.146C311.346,379.032,307.425,381.694,306.646,385.762z M207.806,338.207
	c28.973-21.741,67.519-21.784,96.549-0.001C272.983,333.439,239.178,333.44,207.806,338.207z"/>
<path d="M417.53,57.321c-3.215-2.613-7.939-2.122-10.551,1.093c-2.611,3.215-2.122,7.938,1.093,10.551
	c130.09,105.674,115.543,310.802-31.515,395.705c-83.458,48.186-187.327,42.094-264.617-15.522c-3.32-2.477-8.02-1.791-10.497,1.53
	c-2.476,3.321-1.79,8.02,1.531,10.496c82.176,61.261,192.51,67.623,281.082,16.487C540.56,387.302,555.511,169.398,417.53,57.321z"
	/>
<path d="M390.504,46.87c2.131-3.553,0.978-8.159-2.574-10.29C242.633-50.554,53.025,24.877,8.847,189.75
	c-24.737,92.321,4.172,185.553,66.805,247.851c1.463,1.456,3.376,2.183,5.289,2.183c6.617,0,10.063-8.071,5.289-12.818
	c-58.903-58.59-86.213-146.304-62.894-233.333C64.951,38.323,243.493-32.547,380.214,49.444
	C383.766,51.575,388.374,50.425,390.504,46.87z"/>
<g>
</g>
<g>
</g>
<g>
</g>
<g>
</g>
<g>
</g>
<g>
</g>
<g>
</g>
<g>
</g>
<g>
</g>
<g>
</g>
<g>
</g>
<g>
</g>
<g>
</g>
<g>
</g>
<g>
</g>
</svg>
