<?xml version="1.0" encoding="iso-8859-1"?>
<!-- Generator: Adobe Illustrator 19.0.0, SVG Export Plug-In . SVG Version: 6.00 Build 0)  -->
<svg version="1.1" id="Capa_1" xmlns="http://www.w3.org/2000/svg" xmlns:xlink="http://www.w3.org/1999/xlink" x="0px" y="0px"
	 viewBox="0 0 512 512" style="enable-background:new 0 0 512 512;" xml:space="preserve">
<circle style="fill:#F4D44E;" cx="256.071" cy="255.981" r="248.408"/>
<path style="fill:#E8C842;" d="M175.242,446.063C18.558,355.602,9.042,134.079,153.956,29.527
	C108.079,50.168,68.018,84.882,40.944,131.776c-68.595,118.811-27.888,270.734,90.923,339.328
	c87.434,50.481,192.799,41.76,269.691-13.716C331.201,489.045,247.158,487.584,175.242,446.063z"/>
<ellipse style="fill:#656566;" cx="177.278" cy="207.289" rx="22.701" ry="28.944"/>
<path style="fill:#4F4F51;" d="M194.642,224.257c-12.537,0-22.701-12.959-22.701-28.944c0-6.328,1.598-12.177,4.299-16.94
	c-12.054,0.693-21.661,13.37-21.661,28.911c0,15.985,10.163,28.944,22.701,28.944c7.575,0,14.278-4.735,18.402-12.004
	C195.338,224.244,194.991,224.257,194.642,224.257z"/>
<ellipse style="fill:#656566;" cx="334.863" cy="207.289" rx="22.701" ry="28.944"/>
<path style="fill:#4F4F51;" d="M352.223,224.257c-12.537,0-22.701-12.959-22.701-28.944c0-6.328,1.598-12.177,4.299-16.94
	c-12.054,0.693-21.661,13.37-21.661,28.911c0,15.985,10.163,28.944,22.701,28.944c7.575,0,14.278-4.735,18.402-12.004
	C352.917,224.244,352.571,224.257,352.223,224.257z"/>
<path d="M147.066,207.284c0,20.102,13.554,36.456,30.214,36.456s30.214-16.354,30.214-36.456s-13.554-36.457-30.214-36.457
	S147.066,187.181,147.066,207.284z M192.469,207.284c0,11.617-6.956,21.431-15.189,21.431c-8.233,0-15.189-9.815-15.189-21.431
	c0-11.618,6.956-21.432,15.189-21.432C185.513,185.852,192.469,195.667,192.469,207.284z"/>
<path d="M365.074,207.284c0-20.102-13.554-36.457-30.214-36.457c-16.66,0-30.214,16.355-30.214,36.457s13.554,36.456,30.214,36.456
	C351.521,243.741,365.074,227.386,365.074,207.284z M319.671,207.284c0-11.618,6.956-21.432,15.189-21.432
	c8.233,0,15.189,9.815,15.189,21.432c0,11.617-6.956,21.431-15.189,21.431C326.627,228.715,319.671,218.9,319.671,207.284z"/>
<path d="M260.995,323.002c-17.366,3.872-33.067,11.458-43.077,20.814c-4.951,4.627-1.67,13.001,5.132,13.001
	c1.837,0,3.679-0.67,5.128-2.024c23.035-21.528,74.074-25.249,86.196-11.033c2.693,3.157,7.434,3.534,10.591,0.842
	C336.332,334.91,309.077,312.284,260.995,323.002z"/>
<path d="M414.553,54.965c-3.258-2.567-7.981-2.007-10.55,1.251c-2.567,3.258-2.008,7.982,1.251,10.55
	c133.547,105.233,118.782,312.66-28.736,397.83c-77.815,44.928-173.383,42.968-249.404-5.112c-3.506-2.217-8.146-1.173-10.365,2.334
	c-2.218,3.507-1.173,8.148,2.334,10.365c79.319,50.163,180.834,53.989,264.948,5.424C540.7,387.156,556.488,166.805,414.553,54.965z
	"/>
<path d="M89.994,450.755c1.414,1.206,3.147,1.796,4.87,1.796c6.971,0,10.167-8.719,4.878-13.229
	C-26.638,331.565-8.566,130.603,135.623,47.357C210.726,3.997,302.6,4.451,377.124,47.66c3.587,2.081,8.188,0.859,10.267-2.732
	c2.081-3.589,0.858-8.186-2.732-10.267C239.462-49.526,52.647,26.364,8.872,189.74C-17.699,288.905,17.67,389.089,89.994,450.755z"
	/>
<g>
</g>
<g>
</g>
<g>
</g>
<g>
</g>
<g>
</g>
<g>
</g>
<g>
</g>
<g>
</g>
<g>
</g>
<g>
</g>
<g>
</g>
<g>
</g>
<g>
</g>
<g>
</g>
<g>
</g>
</svg>
