<?xml version="1.0" encoding="iso-8859-1"?>
<!-- Generator: Adobe Illustrator 19.0.0, SVG Export Plug-In . SVG Version: 6.00 Build 0)  -->
<svg version="1.1" id="Capa_1" xmlns="http://www.w3.org/2000/svg" xmlns:xlink="http://www.w3.org/1999/xlink" x="0px" y="0px"
	 viewBox="0 0 512.001 512.001" style="enable-background:new 0 0 512.001 512.001;" xml:space="preserve">
<circle style="fill:#F4D44E;" cx="256" cy="255.99" r="248.407"/>
<g>
	<circle style="fill:#656566;" cx="326.629" cy="253.907" r="21.669"/>
	<circle style="fill:#656566;" cx="185.372" cy="253.907" r="21.669"/>
</g>
<g>
	<path style="fill:#4F4F51;" d="M326.631,253.907c-4.008-6.942-3.72-15.171,0.01-21.652c-3.686-0.005-7.422,0.911-10.844,2.887
		c-10.364,5.984-13.915,19.236-7.931,29.601c5.984,10.364,19.236,13.915,29.601,7.931c3.423-1.976,6.083-4.753,7.922-7.948
		C337.91,264.714,330.64,260.85,326.631,253.907z"/>
	<path style="fill:#4F4F51;" d="M185.372,253.907c-4.008-6.942-3.72-15.17,0.01-21.652c-3.686-0.005-7.422,0.911-10.844,2.886
		c-10.364,5.984-13.915,19.236-7.931,29.601c5.984,10.364,19.236,13.915,29.601,7.931c3.422-1.975,6.083-4.753,7.921-7.948
		C196.649,264.714,189.379,260.85,185.372,253.907z"/>
</g>
<path style="fill:#E8C842;" d="M80.872,350.475C20.116,239.463,53.457,102.034,153.646,29.888
	C-64.115,127.944-30.782,449.133,203.149,499.33c67.007,14.472,139.288,0.709,197.67-41.326
	C284.051,510.596,143.606,465.536,80.872,350.475z"/>
<path style="fill:#9CD7F2;" d="M107.248,349.807L107.248,349.807c27.405,0,45.785-28.146,34.763-53.238l-27.907-53.553
	c-2.563-4.918-9.602-4.913-12.158,0.008l-28.542,54.954C62.675,322.405,80.567,349.807,107.248,349.807z"/>
<path style="fill:#71C5DB;" d="M99.779,306.207l8.161-61.384c0.284-2.14,1.466-3.801,3.038-4.822
	c-3.13-1.478-7.213-0.48-9.032,3.022l-28.542,54.954c-10.729,24.427,7.164,51.829,33.844,51.829l0,0
	c7.328,0,14.002-2.027,19.649-5.456C110.84,339.907,98.535,324.745,99.779,306.207z"/>
<path d="M355.813,253.907c0-16.09-13.091-29.182-29.182-29.182s-29.182,13.091-29.182,29.182s13.091,29.182,29.182,29.182
	S355.813,269.998,355.813,253.907z M312.475,253.907c0-7.806,6.351-14.157,14.157-14.157c7.806,0,14.157,6.351,14.157,14.157
	c0,7.806-6.351,14.157-14.157,14.157C318.826,268.064,312.475,261.713,312.475,253.907z"/>
<path d="M214.554,253.907c0-16.09-13.091-29.182-29.182-29.182s-29.182,13.091-29.182,29.182s13.091,29.182,29.182,29.182
	S214.554,269.998,214.554,253.907z M185.372,268.064c-7.806,0-14.157-6.351-14.157-14.157s6.351-14.157,14.157-14.157
	c7.806,0,14.157,6.351,14.157,14.157S193.178,268.064,185.372,268.064z"/>
<path d="M205.019,385.502c2.856,0,5.585-1.637,6.844-4.405c17.377-38.26,71.353-37.407,88.27-0.013
	c1.71,3.78,6.157,5.461,9.941,3.748c3.78-1.71,5.459-6.16,3.748-9.941c-22.123-48.903-92.808-50.24-115.638-0.013
	C195.919,379.861,199.587,385.502,205.019,385.502z"/>
<path d="M397.664,196.803c4.003-1.093,6.363-5.223,5.27-9.225c-1.093-4.004-5.226-6.365-9.225-5.27
	c-17.139,4.676-34.515,2.74-48.925-5.452c-3.607-2.053-8.194-0.79-10.244,2.818c-2.051,3.607-0.789,8.193,2.818,10.244
	C354.839,199.858,376.194,202.661,397.664,196.803z"/>
<path d="M115.386,187.578c-1.093,4.003,1.267,8.133,5.27,9.225c21.431,5.849,42.796,3.072,60.308-6.887
	c3.607-2.05,4.868-6.637,2.818-10.244c-2.051-3.608-6.639-4.87-10.244-2.818c-14.41,8.195-31.787,10.129-48.926,5.452
	C120.616,181.215,116.479,183.575,115.386,187.578z"/>
<path d="M412.441,458.544c48.679-37.501,82.216-91.491,94.436-152.021c26.116-129.357-50.793-259.049-179.701-296.347
	C263.561-8.228,196.265-1.516,137.686,29.08c-3.677,1.92-5.102,6.459-3.18,10.137c1.92,3.678,6.459,5.101,10.137,3.18
	C199.774,13.601,263.116,7.284,323,24.61c121.246,35.08,193.748,157.094,169.149,278.94
	c-11.503,56.983-43.067,107.799-88.878,143.092c-3.287,2.532-3.899,7.249-1.366,10.537
	C404.436,460.465,409.157,461.075,412.441,458.544z"/>
<path d="M106.87,48.006c-106.1,75.894-138.775,221.15-72.5,335.943c70.241,121.658,225.389,164.202,347.983,94.574
	c3.608-2.049,4.871-6.635,2.822-10.243c-2.049-3.609-6.633-4.871-10.243-2.822c-115.103,65.372-261.288,25.748-327.55-89.022
	c-62.242-107.806-31.844-244.629,68.229-316.209c3.375-2.414,4.153-7.107,1.74-10.482C114.936,46.371,110.244,45.595,106.87,48.006z
	"/>
<path d="M109.118,247.609l8.77,17.545c1.856,3.711,6.367,5.216,10.08,3.361c3.711-1.856,5.216-6.368,3.361-10.08l-9.337-18.677
	c-5.192-10.383-19.957-10.637-25.487-0.411c-31.207,57.703-29.493,54.493-29.688,54.915c-13.518,29.422,7.956,63.056,40.452,63.056
	c32.527-0.002,54.488-33.155,41.937-63.08c-0.17-0.41-0.174-0.375-2.194-4.431c-1.856-3.712-6.365-5.217-10.079-3.364
	c-3.711,1.855-5.218,6.366-3.364,10.079c0.02,0.104,10.179,15.751-1.09,32.389c-5.789,8.55-15.392,13.555-25.736,13.376
	c-21.245-0.357-35.059-22.254-26.369-41.543L109.118,247.609z"/>
<g>
</g>
<g>
</g>
<g>
</g>
<g>
</g>
<g>
</g>
<g>
</g>
<g>
</g>
<g>
</g>
<g>
</g>
<g>
</g>
<g>
</g>
<g>
</g>
<g>
</g>
<g>
</g>
<g>
</g>
</svg>
