<?xml version="1.0" encoding="iso-8859-1"?>
<!-- Generator: Adobe Illustrator 19.0.0, SVG Export Plug-In . SVG Version: 6.00 Build 0)  -->
<svg version="1.1" id="Capa_1" xmlns="http://www.w3.org/2000/svg" xmlns:xlink="http://www.w3.org/1999/xlink" x="0px" y="0px"
	 viewBox="0 0 512 512" style="enable-background:new 0 0 512 512;" xml:space="preserve">
<circle style="fill:#F4D44E;" cx="256.072" cy="256.032" r="248.361"/>
<path style="fill:#656566;" d="M300.996,380.825c10.458,0,14.806-13.294,6.433-19.558c-30.936-23.145-72.767-22.493-102.811,0.111
	c-8.28,6.23-3.781,19.447,6.582,19.447H300.996z"/>
<path style="fill:#4F4F51;" d="M228.69,361.378c10.219-9.914,22.196-15.603,34.447-16.915c-20.538-1.684-41.435,4.061-58.52,16.915
	c-8.281,6.23-3.781,19.447,6.582,19.447h22.595C225.758,380.825,222.268,367.607,228.69,361.378z"/>
<path style="fill:#E8C842;" d="M175.265,446.077C18.611,355.633,9.097,134.153,153.983,29.622
	c-45.867,20.637-85.921,55.345-112.99,102.23c-68.582,118.788-27.883,270.682,90.906,339.263
	c87.417,50.471,192.762,41.752,269.639-13.713C331.194,489.052,247.167,487.59,175.265,446.077z"/>
<ellipse style="fill:#656566;" cx="182.312" cy="258.666" rx="22.697" ry="28.938"/>
<path style="fill:#4F4F51;" d="M199.669,275.638c-12.535,0-22.697-12.956-22.697-28.938c0-6.326,1.597-12.174,4.298-16.936
	c-12.052,0.693-21.657,13.367-21.657,28.905c0,15.982,10.161,28.938,22.697,28.938c7.573,0,14.275-4.734,18.398-12.002
	C200.364,275.625,200.019,275.638,199.669,275.638z"/>
<ellipse style="fill:#656566;" cx="329.842" cy="258.666" rx="22.697" ry="28.938"/>
<path style="fill:#4F4F51;" d="M347.204,275.638c-12.535,0-22.697-12.956-22.697-28.938c0-6.326,1.597-12.174,4.298-16.936
	c-12.052,0.693-21.657,13.367-21.657,28.905c0,15.982,10.161,28.938,22.697,28.938c7.573,0,14.275-4.734,18.398-12.002
	C347.898,275.625,347.553,275.638,347.204,275.638z"/>
<path d="M380.672,194.631c2.867-2.997,2.761-7.753-0.236-10.62c-16.353-15.64-36.565-23.055-56.199-22.641
	c-4.147,0.084-7.441,3.515-7.356,7.662c0.083,4.095,3.429,7.358,7.506,7.358c17.793,0,33.073,6.435,45.666,18.477
	C371.507,196.26,377.804,197.632,380.672,194.631z"/>
<path d="M195.274,169.033c0.085-4.148-3.209-7.578-7.356-7.662c-20.557-0.439-40.495,7.622-56.199,22.641
	c-2.997,2.866-3.105,7.621-0.236,10.62c2.863,2.996,7.619,3.106,10.62,0.236c12.813-12.253,28.973-18.818,45.509-18.479
	C191.8,176.504,195.19,173.18,195.274,169.033z"/>
<path d="M211.199,388.336h89.797c17.69,0,25.081-22.499,10.932-33.083c-33.148-24.806-78.596-24.876-111.828,0.122
	C186.056,365.944,193.626,388.336,211.199,388.336z M209.132,367.379c27.797-20.911,65.908-20.97,93.797-0.098
	c2.594,1.94,1.337,6.032-1.934,6.032h-89.797C208.029,373.314,206.601,369.284,209.132,367.379z"/>
<path d="M182.31,295.118c16.657,0,30.208-16.351,30.208-36.45s-13.551-36.45-30.208-36.45s-30.208,16.351-30.208,36.45
	S165.653,295.118,182.31,295.118z M182.31,237.241c8.231,0,15.186,9.813,15.186,21.428c0,11.615-6.954,21.428-15.186,21.428
	s-15.186-9.813-15.186-21.428C167.124,247.053,174.079,237.241,182.31,237.241z"/>
<path d="M360.053,258.668c0-20.098-13.551-36.45-30.208-36.45c-16.657,0-30.208,16.351-30.208,36.45s13.551,36.45,30.208,36.45
	C346.502,295.118,360.053,278.767,360.053,258.668z M314.659,258.668c0-11.615,6.954-21.428,15.186-21.428
	c8.231,0,15.186,9.813,15.186,21.428c0,11.615-6.954,21.428-15.186,21.428C321.613,280.096,314.659,270.283,314.659,258.668z"/>
<path d="M376.501,464.608c-77.769,44.9-173.29,42.958-249.283-5.066c-3.509-2.217-8.147-1.171-10.362,2.337
	c-2.216,3.507-1.17,8.146,2.336,10.362c80.783,51.05,182.257,53.043,264.82,5.376c155.6-89.837,171.355-305.961,35.389-418.626
	c-3.193-2.647-7.928-2.204-10.577,0.99c-2.647,3.194-2.202,7.929,0.991,10.576C537.976,176.764,522.749,380.171,376.501,464.608z"/>
<path d="M382.146,50.757c3.535,2.165,8.16,1.059,10.328-2.48c2.167-3.536,1.059-8.161-2.48-10.328
	C243.557-51.804,53.042,25.168,8.926,189.805c-26.564,99.14,8.792,199.341,81.162,261.012c1.414,1.205,3.146,1.794,4.867,1.794
	c6.971,0,10.166-8.72,4.875-13.228C32.094,381.659-1.691,287.474,23.437,193.692C64.952,38.752,244.269-33.748,382.146,50.757z"/>
<g>
</g>
<g>
</g>
<g>
</g>
<g>
</g>
<g>
</g>
<g>
</g>
<g>
</g>
<g>
</g>
<g>
</g>
<g>
</g>
<g>
</g>
<g>
</g>
<g>
</g>
<g>
</g>
<g>
</g>
</svg>
