<?xml version="1.0" encoding="iso-8859-1"?>
<!-- Generator: Adobe Illustrator 19.0.0, SVG Export Plug-In . SVG Version: 6.00 Build 0)  -->
<svg version="1.1" id="Capa_1" xmlns="http://www.w3.org/2000/svg" xmlns:xlink="http://www.w3.org/1999/xlink" x="0px" y="0px"
	 viewBox="0 0 512.001 512.001" style="enable-background:new 0 0 512.001 512.001;" xml:space="preserve">
<path style="fill:#F4D44E;" d="M475.762,237.417c-11.319-21.578-34.255-23.427-55.749-13.612
	c-34.015,15.528-66.74,45.596-64.63,43.673c-10.353,7.73-24.639-1.971-21.272-14.445c23.797-88.154,43.208-160.829,43.181-160.729
	c4.492-16.764-4.663-34.483-21.2-39.749c-15.932-5.074-32.759,2.952-39.303,17.616l5.902-22.026
	c4.595-17.153-5.678-34.947-22.83-39.543l0,0c-17.153-4.596-34.947,5.677-39.543,22.83l-51.802,200.7
	c-1.622,6.161-10.315,6.308-12.145,0.206l-54.81-179.32c-5.1-17.009-23.19-26.753-40.199-21.653l0,0
	c-17.009,5.1-26.753,23.19-21.652,40.199l21.231,70.804l-5.834-19.456c-5.1-17.009-23.189-26.753-40.199-21.653l0,0
	c-17.009,5.1-26.753,23.19-21.652,40.199l39.178,132.288c15.687,52.965-11.678,104.133,29.34,158.917
	c12.2,16.295,11.352,31.666,11.352,44.371c0,15.17,12.298,27.467,27.467,27.467h151.764c15.057,0,27.263-12.207,27.263-27.263
	v-20.801c0-4.071,1.895-7.903,5.112-10.398c11.225-8.701,37.466-31.751,43.452-65.87c1.226-6.987,3.286-13.816,6.538-20.121
	c21.929-42.525,78.818-79.247,80.044-80.132C477.217,263.717,486.161,257.243,475.762,237.417z"/>
<g>
	<path style="fill:#E8C842;" d="M88.486,100.832L88.486,100.832l12.456,41.537l28.428,98.619
		c2.535,8.794,11.741,13.848,20.521,11.266l0,0c8.041-2.365,12.629-10.816,10.232-18.848l-27.178-91.037l-15.737-52.483l0,0
		l-5.493-18.321c-4.378-14.6,2.186-29.987,14.888-37.281c-7.415-4.223-16.468-5.547-25.237-2.918l0,0
		c-17.009,5.1-26.752,23.19-21.652,40.199L88.486,100.832z"/>
	<path style="fill:#E8C842;" d="M145.128,477.034c0-12.706,0.848-28.076-11.352-44.371c-41.018-54.784-13.654-105.952-29.34-158.917
		L65.257,141.461c-4.378-14.6,2.186-29.987,14.889-37.281c-7.416-4.223-16.468-5.547-25.237-2.918l0,0
		c-17.009,5.1-26.753,23.19-21.652,40.199l39.178,132.286c15.687,52.965-11.678,104.133,29.34,158.917
		c12.2,16.295,11.352,31.666,11.352,44.371c0,15.17,12.298,27.467,27.467,27.467h32.002
		C157.426,504.501,145.128,492.203,145.128,477.034z"/>
	<path style="fill:#E8C842;" d="M299.86,8.604L299.86,8.604c-17.153-4.596-34.947,5.677-39.543,22.83l-42.739,165.588l0,0
		l-9.062,35.111c-0.87,3.305-3.773,4.862-6.562,4.67l-0.001,0.015c0,0,32.327,19.486,39.017-6.434l51.35-198.95
		c2.315-8.638,7.979-15.529,15.221-19.657C305.178,10.42,302.609,9.341,299.86,8.604z"/>
	<path style="fill:#E8C842;" d="M362.301,55.306c-2.758-1.594-5.586-2.692-8.614-3.407l0,0
		c-15.191-3.585-30.683,4.345-36.898,18.273l0,0l0,0L270.948,232.4c-2.225,7.874,2.127,16.108,9.886,18.704l0,0
		c7.98,2.67,16.577-1.851,18.898-9.941L348.79,70.172C351.645,63.775,356.459,58.64,362.301,55.306z"/>
	<path style="fill:#E8C842;" d="M420.013,223.806c-13.73,6.267-27.232,14.898-38.334,22.842l-0.001-0.004
		c-5.406,3.869-10.668,7.877-15.912,12.093l0,0c-7.13,5.743-11.169,9.456-10.384,8.741c-4.76,3.554-10.35,3.417-14.675,1.025
		c0,0,13.439,24.639,46.676-1.025c-3.036,2.767,39.668-35.739,71.53-46.393C447.524,216.086,433.486,217.653,420.013,223.806z"/>
</g>
<path d="M26.064,143.592l39.179,132.284c3.409,11.509,5.026,24.601,5.092,41.201c0.017,4.133,3.371,7.471,7.499,7.471
	c0.01,0,0.021,0,0.03,0c4.143-0.017,7.487-3.388,7.471-7.529c-0.071-18.064-1.885-32.491-5.709-45.402L40.44,139.307
	c-1.891-6.308-1.197-13.004,1.954-18.855c10.404-19.315,39.07-16.563,45.494,4.502c5.93,19.775,34.801,116.05,39.944,133.204
	c0.974,3.249,3.954,5.348,7.181,5.348c5.006,0,8.634-4.833,7.187-9.657c-2.857-9.529-53.013-176.788-55.307-184.439
	c-1.891-6.307-1.197-13.003,1.954-18.854c10.586-19.65,39.307-16.14,45.54,4.654l54.799,179.281
	c1.831,6.105,7.381,9.986,13.463,9.842c6.254-0.106,11.527-4.241,13.129-10.327L251.96,93.824c1.035-4.011-1.377-8.101-5.388-9.136
	c-4.01-1.036-8.101,1.376-9.136,5.388l-35.118,136.06L148.746,50.865c-9.995-33.343-56.111-38.97-73.105-7.421
	c-5.052,9.378-6.158,20.131-3.115,30.276l6.463,21.558C47.917,82.774,16.619,112.097,26.064,143.592z"/>
<path d="M292.357,497.001c-4.143,0-7.5,3.357-7.5,7.5s3.357,7.5,7.5,7.5c19.169,0,34.764-15.595,34.764-34.764v-23.628
	c1.48-1.345,21.652-14.497,36.275-40.006c14.419-25.155,10.064-34.5,17.722-49.587c18.874-37.183,67.71-71.102,77.309-77.523
	c0.404-0.271,0.65-0.439,0.73-0.497c22.942-16.556,36.573-26.659,23.246-52.064c-12.048-22.968-37.759-29.623-65.506-16.95
	c-33.606,15.346-65.496,44.109-66.002,44.485c-4.63,3.455-11.061-0.861-9.542-6.48c0.046-0.17,43.14-160.581,43.183-160.741
	c8.815-32.892-23.625-60.416-53.849-47.542c3.559-20.087-8.821-39.97-28.885-45.345c-21.118-5.663-43.037,6.889-48.746,28.2
	l-6.871,26.625c-1.035,4.011,1.377,8.101,5.388,9.136c4.009,1.034,8.101-1.377,9.136-5.388l6.854-26.556
	c3.533-13.186,17.222-21.05,30.357-17.527c13.201,3.537,21.064,17.155,17.527,30.356c-59.259,224.262-54.687,206.962-54.932,207.887
	c-1.057,4.005,1.334,8.108,5.339,9.165c4.038,1.063,8.116-1.364,9.165-5.339L323.85,72.805c5.283-11.26,18.065-16.894,29.965-13.102
	c12.631,4.021,19.761,17.49,16.231,30.661c-0.043,0.16-43.131,160.546-43.177,160.715c-5.447,20.179,18.732,35.27,34.511,21.248
	c30.773-27.4,60.498-41.127,61.749-41.698c30.39-13.881,42.885,4.353,45.99,10.273c6.826,13.015,5.434,15.484-18.675,32.884
	l-0.359,0.241c-14.249,9.533-62.297,43.707-82.343,83.199c-3.222,6.346-5.497,13.451-6.956,21.719
	c-2.86,16.207-13.404,36.831-31.528,53.527c-1.269,1.167-10.335,9.059-27.579,13.229c-8.584,2.076-7.072,14.793,1.757,14.793
	c1.779,0,6.994-1.616,8.685-2.159v18.904C312.12,488.135,303.255,497.001,292.357,497.001z"/>
<path d="M140.594,512.001h115.394c4.143,0,7.5-3.357,7.5-7.5s-3.357-7.5-7.5-7.5H140.594c-11.01,0-19.967-8.957-19.967-19.968
	c-0.553-4.578,3.316-27.276-12.849-48.865c-26.902-35.932-21.833-71.708-22.439-76.118c0-4.143-3.357-7.5-7.5-7.5
	s-7.5,3.357-7.5,7.5c0.611,4.367-4.764,44.778,25.431,85.108c12.753,17.03,9.307,34.957,9.856,39.875
	C105.627,496.316,121.313,512.001,140.594,512.001z"/>
<g>
</g>
<g>
</g>
<g>
</g>
<g>
</g>
<g>
</g>
<g>
</g>
<g>
</g>
<g>
</g>
<g>
</g>
<g>
</g>
<g>
</g>
<g>
</g>
<g>
</g>
<g>
</g>
<g>
</g>
</svg>
