<?xml version="1.0" encoding="iso-8859-1"?>
<!-- Generator: Adobe Illustrator 19.0.0, SVG Export Plug-In . SVG Version: 6.00 Build 0)  -->
<svg version="1.1" id="Capa_1" xmlns="http://www.w3.org/2000/svg" xmlns:xlink="http://www.w3.org/1999/xlink" x="0px" y="0px"
	 viewBox="0 0 511.999 511.999" style="enable-background:new 0 0 511.999 511.999;" xml:space="preserve">
<path style="fill:#F2C29E;" d="M380.147,349.714l27.545-79.089c4.308-12.521-1.047-26.678-11.959-31.62l-99.766-38.828
	c-11.191-5.069-23.845,1.232-28.263,14.073l-30.527,91.477C280.731,338.416,326.27,356.19,380.147,349.714z"/>
<path style="fill:#E5AE89;" d="M246.196,278.701l-9.019,27.026c43.554,32.689,89.093,50.463,142.969,43.987l9.268-26.61
	C335.619,328.955,289.903,311.182,246.196,278.701z"/>
<path style="fill:#F9D4BB;" d="M263.985,323.707c25.949,15.282,53.53,25.064,83.468,26.978l40.399-114.748l-82.806-32.229
	L263.985,323.707z"/>
<path style="fill:#F2C29E;" d="M356.934,323.76c-29.846-2.099-57.332-11.739-83.689-27.108l-9.253,27.041
	c26.214,15.41,53.482,25.046,83.468,26.977L356.934,323.76z"/>
<path style="fill:#CC9D72;" d="M156.788,269.375C80.651,191.029,27.635,156.643,7.501,147.993l0,0l0,0v222.623
	c0,10.546,7.451,16.096,16.643,16.096h43.662c9.58,0,17.347-5.911,17.347-16.904V306.87c0-16.679,15.167-29.219,30.196-20.516
	c53.9,31.134,85.292,43.345,144.62,68.302l-3.345-3.858C217.407,328.758,183.69,297.057,156.788,269.375z"/>
<path style="fill:#C19067;" d="M57.502,370.617V179.77c-23.403-17.719-40.425-27.662-50.001-31.776v222.623
	c0,10.546,7.451,16.096,16.643,16.096h43.662c1.085,0,2.143-0.086,3.173-0.237C63.304,385.329,57.502,379.92,57.502,370.617z"/>
<path style="fill:#F2C29E;" d="M503.081,317.851c-3.293-7.636-11.358-10.759-18.013-6.987
	c-129.576,73.553-212.181,38.533-310.326-62.459C106.177,177.851,60.449,141.579,29.35,126.702
	c-10.41-4.98-21.848,3.795-21.848,15.935v7.356c20.134,8.65,73.149,43.036,149.286,121.383
	c102.849,105.832,196.943,148.465,340.203,67.144C503.647,334.741,506.373,325.488,503.081,317.851z"/>
<path style="fill:#E5AE89;" d="M57.502,176.138c0-12.14,11.438-20.915,21.848-15.935c0.566,0.271,1.148,0.564,1.724,0.85
	c-20.709-16.575-37.709-27.645-51.725-34.351c-10.41-4.98-21.848,3.795-21.848,15.935v7.356
	c9.577,4.114,26.597,14.057,50.001,31.776V176.138z"/>
<path d="M481.366,304.342c-32.451,18.419-61.925,29.892-90.037,35.074l23.456-67.349c5.985-17.397-3.218-36.007-16.331-41.051
	c-0.105-0.041-7.982-3.107-7.88-3.067c-15.982-6.22-80.36-31.275-91.71-35.693c-15.344-6.806-32.473,1.759-38.272,18.62
	l-27.179,81.446c-11.093-8.833-22.57-18.976-34.623-30.555c-2.988-2.87-7.736-2.773-10.604,0.212
	c-2.87,2.987-2.774,7.735,0.212,10.604c93.55,89.877,177.616,114.487,300.371,44.807c2.988-1.694,6.058,0.253,7.428,3.433
	c1.759,4.077,0.4,9.3-2.904,11.176C357.39,409.143,266.589,373.602,162.17,266.15C94.886,196.916,42.103,158.476,15.001,145.196
	c0-0.154,0-2.72,0-2.56c0-6.503,5.671-11.769,11.112-9.169c31.795,15.211,78.012,53.613,137.367,114.141
	c2.9,2.96,7.65,3.003,10.605,0.104c2.958-2.899,3.004-7.648,0.104-10.605c-61.435-62.651-107.754-100.978-141.602-117.17
	c-10.408-4.977-22.549-1.08-28.87,9.272c-4.295,7.037-3.651,14.316-3.716,14.86c0,7.663,0,53.999,0,65.678
	c0,4.143,3.357,7.5,7.5,7.5s7.5-3.357,7.5-7.5v-47.709c41.955,22.97,104.13,81.349,136.407,114.563
	c13.577,13.971,28.878,28.949,45.748,43.249c-41.565-18.483-72.116-36.775-78.829-40.437c-18.486-10.578-40.675,4.227-40.675,27.456
	v62.939c0,3.512-1.279,9.404-9.847,9.404H24.144c-3.414,0-9.143-1.117-9.143-8.597V244.748c0-4.143-3.357-7.5-7.5-7.5
	s-7.5,3.357-7.5,7.5v125.868c0,13.894,9.928,23.597,24.143,23.597h43.662c14.629,0,24.847-10.035,24.847-24.404V306.87
	c0-6.215,2.869-11.738,7.486-14.417c6.21-3.6,11.206,0.353,11.458,0.395c54.347,31.395,86.821,44.051,145.27,68.64
	c66.663,36.056,143.219,40.665,243.827-16.445c10.035-5.697,14.108-18.945,9.273-30.16
	C504.94,303.221,491.986,298.319,481.366,304.342z M246.023,301.912l28.773-86.221c1.571-4.566,4.664-8.13,8.484-9.777
	c5.346-2.301,8.595-0.05,12.339,1.177l-35.694,104.313C255.341,308.47,250.711,305.308,246.023,301.912z M374.625,341.765
	c-5.612,0.53-11.055,0.779-16.701,0.763l16.068-45.64c1.376-3.906-0.677-8.189-4.584-9.564c-3.904-1.374-8.189,0.677-9.564,4.584
	l-17.545,49.832c-24.683-2.456-47.684-10.55-69.21-22.471l36.523-106.734l68.755,26.759l-6.899,19.599
	c-1.376,3.906,0.677,8.189,4.584,9.564c3.905,1.376,8.189-0.677,9.564-4.584l6.737-19.136l0.448,0.175
	c7.23,3.401,10.8,13.549,7.808,22.246L374.625,341.765z"/>
<g>
</g>
<g>
</g>
<g>
</g>
<g>
</g>
<g>
</g>
<g>
</g>
<g>
</g>
<g>
</g>
<g>
</g>
<g>
</g>
<g>
</g>
<g>
</g>
<g>
</g>
<g>
</g>
<g>
</g>
</svg>
