<?xml version="1.0" encoding="iso-8859-1"?>
<!-- Generator: Adobe Illustrator 19.0.0, SVG Export Plug-In . SVG Version: 6.00 Build 0)  -->
<svg version="1.1" id="Layer_1" xmlns="http://www.w3.org/2000/svg" xmlns:xlink="http://www.w3.org/1999/xlink" x="0px" y="0px"
	 viewBox="0 0 512.001 512.001" style="enable-background:new 0 0 512.001 512.001;" xml:space="preserve">
<circle style="fill:#F7B239;" cx="256.004" cy="256.004" r="246.855"/>
<path style="fill:#E09B2D;" d="M126.306,385.694c-88.801-88.802-95.798-228.426-20.998-325.241
	c-8.286,6.401-16.258,13.399-23.858,20.999c-96.401,96.401-96.401,252.698,0,349.099s252.698,96.401,349.099,0
	c7.599-7.599,14.597-15.573,20.999-23.858C354.733,481.492,215.108,474.495,126.306,385.694z"/>
<path d="M256.001,0C114.841,0,0,114.841,0,256.001s114.841,256.001,256.001,256.001S512.001,397.16,512.001,256.001
	S397.16,0,256.001,0z M256.001,493.701c-131.069,0-237.702-106.631-237.702-237.7S124.932,18.299,256.001,18.299
	s237.702,106.632,237.702,237.702S387.068,493.701,256.001,493.701z"/>
<path d="M146.723,238.971c18.666,0,33.852-15.186,33.852-33.852s-15.186-33.852-33.852-33.852s-33.852,15.186-33.852,33.852
	S128.058,238.971,146.723,238.971z"/>
<path d="M365.277,238.971c18.666,0,33.852-15.186,33.852-33.852s-15.186-33.852-33.852-33.852s-33.852,15.186-33.852,33.852
	S346.61,238.971,365.277,238.971z"/>
<path d="M412.157,338.187c-8.593,0-12.443-3.803-18.272-9.559c-6.693-6.611-15.024-14.839-31.133-14.839
	s-24.438,8.228-31.133,14.839c-5.828,5.757-9.679,9.559-18.272,9.559c-8.596,0-12.446-3.803-18.273-9.559
	c-6.694-6.611-15.025-14.839-31.134-14.839c-16.109,0-24.438,8.228-31.133,14.839c-5.828,5.757-9.679,9.559-18.273,9.559
	c-8.597,0-12.447-3.804-18.277-9.559c-6.694-6.611-15.025-14.839-31.134-14.839s-24.44,8.228-31.134,14.839
	c-5.83,5.757-9.681,9.559-18.277,9.559c-5.054,0-9.15,4.097-9.15,9.15c0,5.053,4.095,9.15,9.15,9.15
	c16.109,0,24.44-8.228,31.134-14.839c5.83-5.757,9.681-9.559,18.277-9.559c8.596,0,12.447,3.804,18.277,9.559
	c6.694,6.611,15.025,14.839,31.134,14.839c16.108,0,24.438-8.228,31.133-14.839c5.828-5.757,9.679-9.559,18.273-9.559
	c8.596,0,12.446,3.803,18.273,9.559c6.694,6.611,15.025,14.839,31.134,14.839c16.107,0,24.438-8.228,31.132-14.839
	c5.828-5.757,9.679-9.559,18.273-9.559s12.445,3.803,18.273,9.559c6.693,6.611,15.024,14.839,31.132,14.839
	c5.054,0,9.15-4.097,9.15-9.15C421.306,342.283,417.21,338.187,412.157,338.187z"/>
<g>
	<circle style="fill:#FFFFFF;" cx="158.007" cy="199.399" r="9.15"/>
	<circle style="fill:#FFFFFF;" cx="376.376" cy="199.399" r="9.15"/>
</g>
<g>
</g>
<g>
</g>
<g>
</g>
<g>
</g>
<g>
</g>
<g>
</g>
<g>
</g>
<g>
</g>
<g>
</g>
<g>
</g>
<g>
</g>
<g>
</g>
<g>
</g>
<g>
</g>
<g>
</g>
</svg>
