<?xml version="1.0" encoding="iso-8859-1"?>
<!-- Generator: Adobe Illustrator 19.0.0, SVG Export Plug-In . SVG Version: 6.00 Build 0)  -->
<svg version="1.1" id="Capa_1" xmlns="http://www.w3.org/2000/svg" xmlns:xlink="http://www.w3.org/1999/xlink" x="0px" y="0px"
	 viewBox="0 0 512.002 512.002" style="enable-background:new 0 0 512.002 512.002;" xml:space="preserve">
<path style="fill:#F4D44E;" d="M49.054,118.485c0.008,0.012,0.014,0.025,0.021,0.037C7.046,181.892-3.127,258.807,18.611,329.272
	c-0.029-0.01-0.058-0.019-0.088-0.03c10.888,35.33,29.982,68.5,55.286,95.757c0.006-0.03,0.013-0.06,0.018-0.091
	c50.099,53.995,121.768,83.71,197.748,78.992c0.007,0.013,0.015,0.025,0.021,0.037c182.929-11.723,289.739-210.063,201.316-368.964
	C382.756-26.277,152.395-36.707,49.054,118.485z"/>
<path style="fill:#E8C842;" d="M314.971,478.895c-0.007-0.013-0.015-0.025-0.021-0.037c-75.98,4.718-147.65-24.997-197.748-78.992
	c-0.006,0.03-0.013,0.06-0.018,0.091c-25.303-27.257-44.397-60.426-55.286-95.757c0.029,0.01,0.058,0.019,0.088,0.03
	C40.249,233.765,50.421,156.85,92.451,93.48c-0.008-0.012-0.014-0.025-0.021-0.037c17.28-25.95,38.115-47.263,61.249-64.02
	c-40.523,18.113-77.085,47.706-104.625,89.062c0.008,0.012,0.014,0.025,0.021,0.037C7.046,181.892-3.127,258.807,18.611,329.272
	c-0.029-0.01-0.058-0.019-0.088-0.03c10.889,35.33,29.982,68.5,55.286,95.757c0.006-0.03,0.013-0.06,0.018-0.091
	c50.099,53.995,121.768,83.71,197.748,78.992c0.007,0.013,0.015,0.025,0.021,0.037c49.548-3.175,93.508-20.047,129.52-46.113
	C374.992,469.504,346.084,476.902,314.971,478.895z"/>
<path style="fill:#656566;" d="M243.727,339.927c7.86,3.187,16.609,3.186,24.47-0.001c8.273-3.355,17.11-5.603,26.33-6.572v-2.409
	c0-21.301-17.269-38.569-38.569-38.569s-38.568,17.268-38.568,38.569v2.408C226.611,334.323,235.452,336.572,243.727,339.927z"/>
<path style="fill:#4F4F51;" d="M242.432,330.983v-0.038c0-16.916,10.895-31.279,26.047-36.478
	c-3.928-1.348-8.137-2.091-12.521-2.091c-21.3,0-38.568,17.268-38.568,38.569v2.408c8.745,0.92,17.14,3.002,25.043,6.074
	L242.432,330.983L242.432,330.983z"/>
<path style="fill:#E8C842;" d="M392.975,504.464h39.661c20.223,0,36.066-16.529,35.265-36.736
	c-1.166-29.419-0.508-70.267,32.594-126.083c14.843-25.03-15.64-52.263-38.819-34.67c-45.93,34.861-86.082,88.475-95.134,167.71
	C364.73,490.536,377.021,504.464,392.975,504.464z"/>
<path style="fill:#DBBC3B;" d="M419.38,504.018c-7.456-79.401,20.798-140.134,58.564-183.704c5.747-6.629,12.98-9.403,20.027-9.296
	c-8.375-9.774-23.456-13.79-36.298-4.043c-45.93,34.861-86.082,88.475-95.135,167.71c-1.811,15.85,10.481,29.779,26.434,29.779
	h26.46C419.418,504.315,419.395,504.169,419.38,504.018z"/>
<path style="fill:#E8C842;" d="M118.94,504.464H79.279c-20.223,0-36.066-16.529-35.265-36.736
	c1.166-29.419,0.508-70.267-32.594-126.083c-14.843-25.03,15.64-52.263,38.819-34.67c45.93,34.861,86.082,88.475,95.134,167.71
	C147.186,490.536,134.894,504.464,118.94,504.464z"/>
<path style="fill:#DBBC3B;" d="M88.997,468.883c-2.963-31.887-9.534-75.833-53.23-131.263c-9.633-12.221-7.527-26.583,0.371-36.174
	C16.837,300-0.507,321.531,11.421,341.646c33.101,55.815,33.76,96.663,32.594,126.083c-0.801,20.208,15.042,36.736,35.264,36.736
	h39.661c2.159,0,4.246-0.262,6.245-0.743C106.41,502.813,90.808,488.37,88.997,468.883z"/>
<path style="fill:#EAE9E8;" d="M379.714,249.536c-17.657,14.023-43.339,11.077-57.362-6.579l-13.226-16.652
	c-14.023-17.657-11.077-43.339,6.579-57.362c17.656-14.023,43.339-11.078,57.362,6.579l13.226,16.652
	C400.318,209.831,397.372,235.513,379.714,249.536z"/>
<path style="fill:#DBDBDB;" d="M354.323,217.565l-13.226-16.652c-9.71-12.225-12.057-27.677-7.39-40.155
	c-6.378,1.168-12.57,3.87-18.002,8.184c-17.656,14.023-20.602,39.705-6.579,57.362l13.226,16.652
	c14.023,17.657,39.705,20.603,57.362,6.579c5.431-4.313,9.465-9.734,12.047-15.681C378.551,235.576,364.033,229.79,354.323,217.565z
	"/>
<path style="fill:#EAE9E8;" d="M132.201,249.536c17.657,14.023,43.339,11.077,57.362-6.579l13.226-16.652
	c14.023-17.657,11.077-43.339-6.579-57.362c-17.656-14.023-43.339-11.078-57.362,6.579l-13.226,16.652
	C111.598,209.831,114.544,235.513,132.201,249.536z"/>
<path style="fill:#DBDBDB;" d="M196.208,168.942c-5.594-4.443-11.995-7.176-18.574-8.285c4.969,12.824,2.926,28.323-6.654,40.386
	l-13.226,16.652c-9.58,12.063-24.214,17.561-37.831,15.626c2.568,6.158,6.681,11.772,12.275,16.215
	c17.656,14.023,43.339,11.077,57.362-6.579l13.226-16.652C216.812,208.647,213.866,182.965,196.208,168.942z"/>
<path style="fill:#ED694A;" d="M294.527,393.981v-62.997c-9.702,0.585-18.974,2.749-27.572,6.235
	c-7.063,2.864-14.924,2.864-21.986,0.001c-8.6-3.487-17.876-5.652-27.579-6.236v62.998c0,21.3,17.268,38.569,38.569,38.569
	S294.527,415.283,294.527,393.981z"/>
<path style="fill:#D8553A;" d="M242.432,393.981v-57.732c-7.879-2.913-16.284-4.738-25.043-5.265v62.998
	c0,21.3,17.268,38.569,38.568,38.569c4.385,0,8.594-0.742,12.521-2.091C253.327,425.26,242.432,410.897,242.432,393.981z"/>
<path d="M316.511,247.629c9.531,12.001,23.652,18.257,37.904,18.257c10.535,0,21.141-3.42,30.013-10.466c0,0,0,0,0.001,0
	c20.872-16.577,24.367-47.045,7.789-67.918l-13.226-16.652c-26.615-33.512-80.985-18.114-85.878,24.555
	c-1.471,12.829,2.141,25.462,10.17,35.572L316.511,247.629z M320.421,174.825c14.352-11.398,35.355-9.048,46.807,5.368
	l13.226,16.652c11.424,14.385,9.015,35.383-5.369,46.808h0.001c-14.385,11.423-35.382,9.015-46.807-5.368l-13.226-16.654
	C303.602,207.214,306.001,186.277,320.421,174.825z"/>
<path d="M133.006,170.849l-13.226,16.652c-16.577,20.873-13.082,51.341,7.789,67.918c0.001,0,0.001,0,0.001,0
	c20.823,16.538,51.302,13.13,67.917-7.79l13.226-16.653c8.031-10.11,11.642-22.743,10.17-35.572
	C213.987,152.706,159.595,137.366,133.006,170.849z M196.948,221.631l-13.226,16.654c-11.426,14.383-32.422,16.793-46.807,5.368
	h0.001c-14.385-11.425-16.794-32.422-5.369-46.808l13.226-16.652c11.422-14.384,32.418-16.794,46.807-5.368
	C205.997,186.275,208.399,207.213,196.948,221.631z"/>
<path d="M256,284.863c-25.409,0-46.082,20.672-46.082,46.082v33.291c0,4.15,3.363,7.513,7.513,7.513s7.513-3.363,7.513-7.513
	v-24.859c5.907,0.953,11.684,2.549,17.244,4.803c8.908,3.612,18.72,3.612,27.632,0c5.558-2.254,11.33-3.866,17.236-4.819v54.618
	c0,17.141-13.949,31.056-31.056,31.056c-15.426,0-28.648-11.507-30.753-26.768c-0.568-4.111-4.364-6.989-8.469-6.415
	c-4.11,0.567-6.983,4.359-6.415,8.469c4.223,30.615,37.429,48.781,65.598,35.188c15.442-7.452,26.121-23.268,26.121-41.53
	c0-22.192,0-41.013,0-63.037C302.082,305.536,281.409,284.863,256,284.863z M247.833,330.257c-7.132-2.892-14.558-4.893-22.16-5.98
	c3.061-13.929,15.493-24.387,30.327-24.387s27.267,10.459,30.328,24.388C263.956,327.478,260.672,335.462,247.833,330.257z"/>
<path d="M477.638,128.047C408.843,8.891,258.3-34.461,136.852,29.53c-3.671,1.935-5.079,6.479-3.145,10.149
	c1.935,3.671,6.478,5.081,10.149,3.144C257.969-17.3,399.75,23.193,464.626,135.561c28.469,49.31,38.473,106.477,28.613,162.225
	c-11.864-6.219-25.209-5.035-36.064,3.206c-56.43,42.829-89.923,101.929-98.043,172.717c-62.287,29.557-137.812,32.34-206.263,0.019
	c-8.125-70.866-41.635-129.922-98.045-172.735c-11.188-8.492-24.575-9.26-36.132-3.17C2.93,208.552,38.924,115.481,114.93,60.718
	c3.367-2.425,4.13-7.12,1.704-10.487c-2.425-3.367-7.119-4.13-10.487-1.704C23.352,108.178-15.393,211.227,5.69,309.579
	c-6.34,9.564-8.466,22.784-0.689,35.899c34.103,57.504,32.443,99.429,31.549,121.953c-0.963,24.301,18.089,44.547,42.771,44.547
	h39.661c14.301,0,27.153-8.929,32.073-22.574c67.091,30.057,143.048,30.073,209.888-0.007c4.919,13.652,17.779,22.579,32.075,22.579
	h39.661c24.246,0,43.752-19.803,42.771-44.546c-0.21-5.31-0.423-12.397-0.188-20.13c0.129-4.237-3.271-7.74-7.513-7.74
	c-4.044,0-7.383,3.215-7.505,7.285c-0.248,8.198-0.027,15.625,0.192,21.179c0.634,15.991-11.821,28.926-27.757,28.926h-39.661
	c-11.608,0-20.259-10.152-18.97-21.413c7.378-64.568,37.265-120.873,92.213-162.579c16.55-12.555,38.525,6.795,27.816,24.855
	c-14.756,24.883-24.421,48.724-29.545,72.886c-0.86,4.059,1.732,8.047,5.791,8.908c4.055,0.863,8.048-1.732,8.908-5.791
	c4.779-22.533,13.863-44.887,27.771-68.338c7.803-13.158,5.636-26.424-0.754-35.996
	C519.532,247.412,509.432,183.117,477.638,128.047z M118.982,496.952H79.321c-15.937,0-28.391-12.939-27.757-28.927
	c1.418-35.778-1.676-76.317-33.639-130.213c-10.573-17.829,11.049-37.578,27.816-24.854c52.737,40.029,84.515,95.206,92.213,162.579
	C139.237,486.787,130.604,496.952,118.982,496.952z"/>
<g>
</g>
<g>
</g>
<g>
</g>
<g>
</g>
<g>
</g>
<g>
</g>
<g>
</g>
<g>
</g>
<g>
</g>
<g>
</g>
<g>
</g>
<g>
</g>
<g>
</g>
<g>
</g>
<g>
</g>
</svg>
