<?xml version="1.0" encoding="iso-8859-1"?>
<!-- Generator: Adobe Illustrator 19.0.0, SVG Export Plug-In . SVG Version: 6.00 Build 0)  -->
<svg version="1.1" id="Capa_1" xmlns="http://www.w3.org/2000/svg" xmlns:xlink="http://www.w3.org/1999/xlink" x="0px" y="0px"
	 viewBox="0 0 512 512" style="enable-background:new 0 0 512 512;" xml:space="preserve">
<rect x="84.261" y="69.743" style="fill:#FFF2E6;" width="343.485" height="372.514"/>
<rect x="84.261" y="69.743" style="fill:#E8DBD1;" width="343.485" height="51.818"/>
<polyline style="fill:#B07A55;" points="66.857,30.851 7.847,30.851 7.847,75.508 66.857,75.508 445.143,75.508 504.153,75.508 
	504.153,30.851 445.143,30.851 "/>
<polyline style="fill:#966747;" points="66.857,53.183 7.847,53.183 7.847,75.508 66.857,75.508 445.143,75.508 504.153,75.508 
	504.153,53.183 445.143,53.183 "/>
<rect x="66.849" y="7.597" style="fill:#FFE8D0;" width="378.287" height="91.168"/>
<rect x="66.849" y="65.35" style="fill:#E5CCB5;" width="378.287" height="33.423"/>
<polyline style="fill:#B07A55;" points="66.857,436.485 7.847,436.485 7.847,481.143 66.857,481.143 445.143,481.143 
	504.153,481.143 504.153,436.485 445.143,436.485 "/>
<polyline style="fill:#966747;" points="66.857,458.817 7.847,458.817 7.847,481.143 66.857,481.143 445.143,481.143 
	504.153,481.143 504.153,458.817 445.143,458.817 "/>
<rect x="66.849" y="413.231" style="fill:#FFE8D0;" width="378.287" height="91.168"/>
<rect x="66.849" y="470.985" style="fill:#E5CCB5;" width="378.287" height="33.423"/>
<path d="M435.341,161.057v-54.692h9.801c4.195,0,7.597-3.401,7.597-7.597V83.105h51.415c4.195,0,7.597-3.401,7.597-7.597V30.851
	c0-4.195-3.401-7.597-7.597-7.597h-51.415V7.597c0-4.195-3.401-7.597-7.597-7.597H66.853c-4.195,0-7.597,3.401-7.597,7.597v15.658
	H7.847c-4.195,0-7.597,3.401-7.597,7.597v44.657c0,4.195,3.401,7.597,7.597,7.597h51.409v15.664c0,4.195,3.401,7.597,7.597,7.597
	h9.807v299.269h-9.807c-4.195,0-7.597,3.401-7.597,7.597v15.658H7.847c-4.195,0-7.597,3.401-7.597,7.597v44.657
	c0,4.195,3.401,7.597,7.597,7.597h51.409v15.664c0,4.195,3.401,7.597,7.597,7.597h68.737c4.195,0,7.597-3.401,7.597-7.597l0,0
	c0-4.195-3.401-7.597-7.597-7.597H74.449v-75.979h9.807h343.489h9.801v75.979H171.042c-4.195,0-7.597,3.401-7.597,7.597l0,0
	c0,4.195,3.401,7.597,7.597,7.597h274.099c4.195,0,7.597-3.401,7.597-7.597v-15.664h51.415c4.195,0,7.597-3.401,7.597-7.597v-44.657
	c0-4.195-3.401-7.597-7.597-7.597h-51.415v-15.658c0-4.195-3.401-7.597-7.597-7.597h-9.801V196.508c0-4.195-3.401-7.597-7.597-7.597
	l0,0c-4.195,0-7.597,3.401-7.597,7.597v209.126H91.852V106.366h328.296v54.692c0,4.195,3.401,7.597,7.597,7.597l0,0
	C431.94,168.653,435.341,165.252,435.341,161.057z M496.557,38.448v29.464h-43.819V38.448
	C452.738,38.448,496.557,38.448,496.557,38.448z M15.443,473.546v-29.464h43.813v29.464H15.443z M496.557,444.082v29.464h-43.819
	v-29.464H496.557z M15.443,67.912V38.448h43.813v29.464H15.443z M84.256,91.173h-9.807V15.193h363.095v75.979h-9.801H84.256z"/>
<path d="M386.653,132.191H125.347c-4.195,0-7.597,3.401-7.597,7.597s3.401,7.597,7.597,7.597h261.306
	c4.195,0,7.597-3.401,7.597-7.597S390.85,132.191,386.653,132.191z"/>
<path d="M386.653,224.56H125.347c-4.195,0-7.597,3.401-7.597,7.597c0,4.195,3.401,7.597,7.597,7.597h261.306
	c4.195,0,7.597-3.401,7.597-7.597C394.25,227.962,390.85,224.56,386.653,224.56z"/>
<path d="M386.653,363.114H125.347c-4.195,0-7.597,3.401-7.597,7.597c0,4.195,3.401,7.597,7.597,7.597h261.306
	c4.195,0,7.597-3.401,7.597-7.597C394.25,366.515,390.85,363.114,386.653,363.114z"/>
<path d="M386.653,316.929H125.347c-4.195,0-7.597,3.401-7.597,7.597s3.401,7.597,7.597,7.597h261.306
	c4.195,0,7.597-3.401,7.597-7.597S390.85,316.929,386.653,316.929z"/>
<path d="M386.653,178.376H125.347c-4.195,0-7.597,3.401-7.597,7.597c0,4.195,3.401,7.597,7.597,7.597h261.306
	c4.195,0,7.597-3.401,7.597-7.597C394.25,181.777,390.85,178.376,386.653,178.376z"/>
<path d="M386.653,270.745H125.347c-4.195,0-7.597,3.401-7.597,7.597s3.401,7.597,7.597,7.597h261.306
	c4.195,0,7.597-3.401,7.597-7.597S390.85,270.745,386.653,270.745z"/>
<g>
</g>
<g>
</g>
<g>
</g>
<g>
</g>
<g>
</g>
<g>
</g>
<g>
</g>
<g>
</g>
<g>
</g>
<g>
</g>
<g>
</g>
<g>
</g>
<g>
</g>
<g>
</g>
<g>
</g>
</svg>
