<?xml version="1.0" encoding="iso-8859-1"?>
<!-- Generator: Adobe Illustrator 19.0.0, SVG Export Plug-In . SVG Version: 6.00 Build 0)  -->
<svg version="1.1" id="Layer_1" xmlns="http://www.w3.org/2000/svg" xmlns:xlink="http://www.w3.org/1999/xlink" x="0px" y="0px"
	 viewBox="0 0 512.001 512.001" style="enable-background:new 0 0 512.001 512.001;" xml:space="preserve">
<circle style="fill:#F7B239;" cx="256.004" cy="256.005" r="246.855"/>
<path style="fill:#E09B2D;" d="M126.306,385.694c-88.801-88.802-95.798-228.426-20.998-325.241
	c-8.286,6.401-16.258,13.399-23.858,20.999c-96.401,96.401-96.401,252.698,0,349.099s252.698,96.401,349.099,0
	c7.599-7.599,14.597-15.573,20.999-23.858C354.733,481.492,215.108,474.496,126.306,385.694z"/>
<path d="M256.001,512.001C114.841,512.001,0,397.16,0,256.001S114.841,0.001,256.001,0.001s256.001,114.841,256.001,256.001
	C512,397.16,397.16,512.001,256.001,512.001z M256.001,18.3c-131.069,0-237.702,106.632-237.702,237.702
	s106.632,237.7,237.702,237.7s237.702-106.632,237.702-237.7C493.701,124.932,387.068,18.3,256.001,18.3z"/>
<path d="M199.273,244.74H90.093c-5.054,0-9.15-4.097-9.15-9.15c0-5.053,4.095-9.15,9.15-9.15h109.181c5.054,0,9.15,4.097,9.15,9.15
	C208.423,240.643,204.326,244.74,199.273,244.74z"/>
<path d="M421.909,244.74H312.728c-5.054,0-9.15-4.097-9.15-9.15c0-5.053,4.095-9.15,9.15-9.15h109.181c5.054,0,9.15,4.097,9.15,9.15
	C431.058,240.643,426.962,244.74,421.909,244.74z"/>
<g>
	<path style="fill:#E09B2D;" d="M199.273,277.678h-64.448c-5.054,0-9.15-4.097-9.15-9.15s4.095-9.15,9.15-9.15h64.448
		c5.054,0,9.15,4.097,9.15,9.15S204.326,277.678,199.273,277.678z"/>
	<path style="fill:#E09B2D;" d="M377.176,277.678h-64.448c-5.054,0-9.15-4.097-9.15-9.15s4.095-9.15,9.15-9.15h64.448
		c5.054,0,9.15,4.097,9.15,9.15S382.229,277.678,377.176,277.678z"/>
</g>
<path d="M372.505,348.435H139.496c-5.054,0-9.15-4.097-9.15-9.15c0-5.053,4.095-9.15,9.15-9.15h233.008
	c5.054,0,9.15,4.097,9.15,9.15C381.654,344.338,377.558,348.435,372.505,348.435z"/>
<path style="fill:#E09B2D;" d="M298.702,382.593h-85.403c-5.054,0-9.15-4.097-9.15-9.15c0-5.053,4.095-9.15,9.15-9.15h85.403
	c5.054,0,9.15,4.097,9.15,9.15C307.852,378.497,303.755,382.593,298.702,382.593z"/>
<g>
</g>
<g>
</g>
<g>
</g>
<g>
</g>
<g>
</g>
<g>
</g>
<g>
</g>
<g>
</g>
<g>
</g>
<g>
</g>
<g>
</g>
<g>
</g>
<g>
</g>
<g>
</g>
<g>
</g>
</svg>
