<?xml version="1.0" encoding="iso-8859-1"?>
<!-- Generator: Adobe Illustrator 19.0.0, SVG Export Plug-In . SVG Version: 6.00 Build 0)  -->
<svg version="1.1" id="Capa_1" xmlns="http://www.w3.org/2000/svg" xmlns:xlink="http://www.w3.org/1999/xlink" x="0px" y="0px"
	 viewBox="0 0 512 512" style="enable-background:new 0 0 512 512;" xml:space="preserve">
<path style="fill:#F7C800;" d="M7.604,7.604v496.792h496.792L7.604,7.604z M229.009,404.202H121.673
	c-7.663,0-13.875-6.212-13.875-13.875V282.989c0-12.362,14.945-18.553,23.687-9.811l107.336,107.337
	C247.562,389.257,241.371,404.202,229.009,404.202z"/>
<path d="M509.773,499.02L12.98,2.227c-2.591-2.593-6.743-3.018-9.867-0.764C1.097,2.918,0,5.337,0,7.824v238.524
	c0,4.199,3.405,7.604,7.604,7.604l0,0c4.199,0,7.604-3.405,7.604-7.604V25.962L47.196,57.95L31.581,73.565
	c-3.03,3.03-3.199,8.159-0.095,11.115c1.467,1.397,3.355,2.096,5.243,2.096c1.946,0,3.892-0.742,5.377-2.226l15.845-15.845
	l55.926,55.926l-15.613,15.612c-3.031,3.031-3.2,8.162-0.094,11.118c1.466,1.396,3.353,2.095,5.24,2.095
	c1.946,0,3.892-0.742,5.377-2.226l15.845-15.844l55.926,55.926l-15.615,15.615c-3.03,3.03-3.199,8.159-0.094,11.115
	c1.467,1.397,3.355,2.096,5.243,2.096c1.946,0,3.892-0.742,5.376-2.226l15.845-15.845l55.926,55.926l-15.614,15.614
	c-3.03,3.03-3.199,8.159-0.095,11.115c1.467,1.397,3.355,2.096,5.243,2.096c1.946,0,3.892-0.742,5.376-2.226l15.845-15.845
	l55.926,55.926l-15.616,15.615c-3.03,3.03-3.199,8.159-0.094,11.115c1.467,1.397,3.355,2.096,5.243,2.096
	c1.946,0,3.892-0.742,5.377-2.226l15.845-15.845l55.926,55.926l-15.616,15.615c-3.03,3.03-3.199,8.159-0.095,11.115
	c1.467,1.397,3.355,2.096,5.243,2.096c1.946,0,3.892-0.742,5.377-2.226l15.845-15.845l55.926,55.926l-15.613,15.612
	c-3.031,3.031-3.2,8.162-0.094,11.118c1.466,1.396,3.353,2.095,5.24,2.095c1.946,0,3.892-0.742,5.377-2.226l15.845-15.844
	l28.015,28.005H15.208V281.835c0-4.199-3.405-7.604-7.604-7.604l0,0c-4.199,0-7.604,3.405-7.604,7.604v222.561
	C0,508.596,3.405,512,7.604,512h496.575c2.488,0,4.907-1.098,6.361-3.117C512.792,505.76,512.365,501.612,509.773,499.02z"/>
<path d="M229.009,396.598h-42.455c-4.199,0-7.604,3.405-7.604,7.604l0,0c0,4.199,3.405,7.604,7.604,7.604h41.957
	c8.937,0,17.185-5.282,20.477-13.591c3.204-8.089,1.385-16.9-4.79-23.077L136.861,267.802c-6.259-6.261-15.229-8.044-23.407-4.658
	c-8.179,3.388-13.26,10.992-13.26,19.844v107.337c0,11.862,9.616,21.48,21.48,21.48h29.395c4.199,0,7.604-3.405,7.604-7.604l0,0
	c0-4.199-3.405-7.604-7.604-7.604h-29.395c-3.463,0-6.272-2.807-6.272-6.272V282.989c0-3.888,2.964-5.418,3.872-5.794
	c0.907-0.376,4.084-1.391,6.834,1.361l107.337,107.337c2.749,2.749,1.735,5.926,1.36,6.833
	C234.427,393.635,232.897,396.598,229.009,396.598z"/>
<g>
</g>
<g>
</g>
<g>
</g>
<g>
</g>
<g>
</g>
<g>
</g>
<g>
</g>
<g>
</g>
<g>
</g>
<g>
</g>
<g>
</g>
<g>
</g>
<g>
</g>
<g>
</g>
<g>
</g>
</svg>
