<?xml version="1.0" encoding="iso-8859-1"?>
<!-- Generator: Adobe Illustrator 19.0.0, SVG Export Plug-In . SVG Version: 6.00 Build 0)  -->
<svg version="1.1" id="Capa_1" xmlns="http://www.w3.org/2000/svg" xmlns:xlink="http://www.w3.org/1999/xlink" x="0px" y="0px"
	 viewBox="0 0 511.999 511.999" style="enable-background:new 0 0 511.999 511.999;" xml:space="preserve">
<path style="fill:#BABECB;" d="M256,7.604c65.763,0,131.526,6.703,196.258,20.109C501.483,433.274,324.04,436.358,256,504.397
	c-68.04-68.04-245.483-71.123-196.258-476.684C124.473,14.307,190.236,7.604,256,7.604z"/>
<path style="fill:#9EA3B2;" d="M255.994,504.396c-68.04-68.04-245.485-71.122-196.252-476.684
	c19.598-4.055,39.297-7.503,59.067-10.331C86.974,430.476,209.002,434.126,255.994,504.396z"/>
<path style="fill:#E6EBF1;" d="M420.913,223.305c-4.765,44.295-14.853,82.102-29.97,112.376
	c-26.969,54.028-66.103,78.189-103.94,101.558c-10.737,6.631-21.169,13.079-31.004,20.014c-9.834-6.935-20.267-13.383-31.004-20.014
	c-23.704-14.64-47.915-29.594-69.327-52.001c-12.775-13.363-24.535-29.371-34.613-49.557c-15.117-30.274-25.204-68.08-29.97-112.376
	c-5.029-46.637-4.36-101.994,1.957-164.833c7.726-1.369,15.471-2.646,23.238-3.822C162.502,47.644,209.312,44.106,256,44.106
	c54.525,0,109.223,4.826,162.957,14.366C425.273,121.311,425.942,176.667,420.913,223.305z"/>
<path style="fill:#C8CFD6;" d="M155.669,385.238c-12.775-13.363-24.535-29.371-34.613-49.557
	c-15.117-30.274-25.204-68.08-29.97-112.376c-5.029-46.637-4.36-101.994,1.957-164.833c7.726-1.369,15.471-2.646,23.238-3.822
	C105.98,232.319,126.419,327.296,155.669,385.238z"/>
<g>
	<path style="fill:#EC1422;" d="M256,197.786v259.466c-9.834-6.935-20.267-13.383-31.004-20.014
		c-23.704-14.64-47.915-29.594-69.327-52.001c-12.775-13.363-24.535-29.371-34.613-49.557
		c-15.117-30.274-25.204-68.08-29.97-112.376c-0.416-3.883-0.801-7.827-1.136-11.832c8.486-1.409,17.002-2.707,25.529-3.903
		C162.005,201.061,209.058,197.786,256,197.786z"/>
	<path style="fill:#EC1422;" d="M418.956,58.471c5.789,57.607,6.833,108.929,3.092,153.001
		c-54.789-9.094-110.5-13.687-166.049-13.687V44.105C310.524,44.105,365.221,48.931,418.956,58.471z"/>
</g>
<path style="fill:#C60C1E;" d="M155.669,385.238c-12.775-13.363-24.535-29.371-34.613-49.557
	c-15.117-30.274-25.204-68.08-29.97-112.376c-0.416-3.883-0.801-7.827-1.136-11.832c8.486-1.409,17.002-2.707,25.529-3.903
	C120.721,292.004,136.253,346.782,155.669,385.238z"/>
<path d="M459.806,26.796c-0.393-3.24-2.81-5.868-6.007-6.529C388.861,6.819,322.313,0,255.999,0
	C189.687,0,123.137,6.819,58.2,20.266c-3.196,0.661-5.614,3.289-6.006,6.529c-17.719,145.987-8.103,253.468,29.4,328.581
	c32.581,65.257,81.179,95.271,120.228,119.388c18.55,11.457,36.071,22.277,48.802,35.008c1.485,1.484,3.432,2.226,5.377,2.226
	s3.892-0.742,5.377-2.226c12.731-12.732,30.252-23.552,48.802-35.008c39.05-24.117,87.647-54.131,120.228-119.388
	C467.908,280.264,477.524,172.783,459.806,26.796z M416.8,348.584c-30.648,61.385-75.256,88.934-114.613,113.241
	c-16.935,10.459-33.05,20.412-46.188,32.126c-13.138-11.714-29.252-21.666-46.188-32.126
	c-39.357-24.306-83.964-51.856-114.612-113.241C59.529,277.14,50.176,174.227,66.641,34.065
	c62.226-12.515,125.9-18.857,189.358-18.857s127.132,6.342,189.359,18.857C461.823,174.227,452.47,277.14,416.8,348.584z"/>
<path d="M420.284,50.985c-22.853-4.057-46.14-7.303-69.33-9.662c-4.19-0.427-7.918,2.666-8.311,6.861v0.001
	c-0.389,4.169,2.665,7.85,6.83,8.275c20.881,2.126,41.838,4.98,62.477,8.51c4.909,51.284,5.949,97.457,3.138,137.684
	c-49.997-7.878-100.878-12.052-151.487-12.432V51.741c16.866,0.141,33.881,0.75,50.765,1.819c4.177,0.265,7.794-2.865,8.093-7.04
	v-0.002c0.303-4.225-2.905-7.868-7.131-8.135c-19.741-1.251-39.662-1.884-59.328-1.884c-54.877,0-110.15,4.875-164.284,14.486
	c-3.35,0.595-5.896,3.342-6.236,6.727c-6.368,63.332-7.026,119.321-1.955,166.408c4.868,45.195,15.205,83.871,30.724,114.955
	c27.942,55.964,68.006,80.707,106.752,104.636c10.784,6.66,20.97,12.951,30.617,19.754c1.314,0.927,2.848,1.39,4.382,1.39
	c1.534,0,3.068-0.463,4.382-1.39c9.662-6.813,19.841-13.099,30.619-19.755c38.746-23.929,78.808-48.672,106.75-104.635
	c15.519-31.084,25.856-69.76,30.724-114.955c5.071-47.091,4.414-103.079-1.955-166.408C426.18,54.326,423.634,51.58,420.284,50.985z
	 M100.048,64.97c48.942-8.374,98.778-12.81,148.347-13.223v138.474c-50.61,0.38-101.49,4.555-151.487,12.433
	C94.097,162.428,95.139,116.257,100.048,64.97z M384.145,332.28c-26.008,52.092-64.2,75.68-101.136,98.492
	c-6.675,4.121-13.117,8.11-19.406,12.19V337.516c0-4.199-3.405-7.604-7.604-7.604l0,0c-4.199,0-7.604,3.405-7.604,7.604v105.445
	c-6.285-4.078-12.728-8.067-19.405-12.191c-36.936-22.811-75.128-46.398-101.136-98.491
	c-14.709-29.461-24.536-66.398-29.209-109.788c-0.164-1.529-0.308-3.092-0.46-4.64c49.567-7.865,100.023-12.04,150.211-12.422
	v96.601c0,4.199,3.405,7.604,7.604,7.604l0,0c4.199,0,7.604-3.405,7.604-7.604v-96.601c50.188,0.382,100.644,4.556,150.211,12.422
	c-0.152,1.548-0.296,3.112-0.46,4.64C408.68,265.882,398.854,302.82,384.145,332.28z"/>
<g>
</g>
<g>
</g>
<g>
</g>
<g>
</g>
<g>
</g>
<g>
</g>
<g>
</g>
<g>
</g>
<g>
</g>
<g>
</g>
<g>
</g>
<g>
</g>
<g>
</g>
<g>
</g>
<g>
</g>
</svg>
