<?xml version="1.0" encoding="iso-8859-1"?>
<!-- Generator: Adobe Illustrator 19.0.0, SVG Export Plug-In . SVG Version: 6.00 Build 0)  -->
<svg version="1.1" id="Capa_1" xmlns="http://www.w3.org/2000/svg" xmlns:xlink="http://www.w3.org/1999/xlink" x="0px" y="0px"
	 viewBox="0 0 511.999 511.999" style="enable-background:new 0 0 511.999 511.999;" xml:space="preserve">
<g>
	<path style="fill:#70BBEF;" d="M437.403,439.871c-10.424-28.881-15.524-58.021-17.36-85.348l0.114,0.148
		c-2.983-44.125,1.777-92.439,16.13-141.636c2.166-7.418-0.42-15.409-6.538-20.131c-8.399-6.48-19.778-18.63-26.796-39.906
		c-52.08,130.615-174.456,286.414-238.252,316.573l-23.735,11.22l9.079,3.463c78.186,29.487,206.499,28.334,281.754-26.172
		C437.523,453.936,439.802,446.518,437.403,439.871z"/>
	<path style="fill:#70BBEF;" d="M120.447,292.475l0.009-0.013c1.972,20.57,2.404,42.256,0.989,63.208l0.065-0.084l0.049-0.064l0,0
		l0,0c-0.007,0.104-0.044,0.57-0.06,0.808v0.001c-2.029,29.214-7.815,60.467-19.84,91.248c0.963,7.475,3.265,12.303,6.439,14.401
		c8.865,5.857,34.707-2.615,72.467-34.745c81.575-69.417,174.822-208.995,207.555-310.67c15.153-47.068,12.993-74.047,4.129-79.904
		c-6.247-4.126-18.118-0.227-27.397,4.072c-55.431,68.495-135.046,66.629-189.052-2.437l1.21,1.565
		c-1.09-1.357-2.059-2.608-2.896-3.72c-2.543-3.38-6.904-4.836-10.967-3.659l-18.294,5.299c-5.561,1.61-8.848,7.309-7.509,12.941
		c21.917,92.233-8.146,129.797-25.492,143.183c-6.118,4.721-8.704,12.712-6.539,20.131
		C113.05,240.553,117.994,266.87,120.447,292.475z"/>
</g>
<g>
	<path style="fill:#57ADDD;" d="M128.762,455.657c12.511-32.026,18.531-64.543,20.642-94.939v-0.001
		c0.017-0.247,0.056-0.732,0.063-0.84l-0.051,0.066l-0.067,0.087c1.473-21.799,1.023-44.364-1.029-65.765l-0.009,0.013
		c-2.552-26.642-7.696-54.022-15.745-81.613c-2.253-7.719,0.438-16.032,6.803-20.944c18.048-13.927,49.327-53.012,26.524-148.975
		c-0.905-3.807,0.231-7.636,2.718-10.316c-1.754-0.469-3.637-0.476-5.463,0.053l-18.295,5.299c-5.561,1.61-8.848,7.309-7.509,12.941
		c21.917,92.233-8.146,129.797-25.492,143.183c-6.118,4.721-8.704,12.712-6.539,20.131c7.738,26.519,12.682,52.835,15.133,78.441
		l0.009-0.013c1.972,20.57,2.404,42.256,0.989,63.208l0.065-0.084l0.049-0.064c-0.007,0.104-0.044,0.57-0.06,0.808v0.001
		c-2.029,29.214-7.815,60.467-19.84,91.248c0.963,7.475,3.265,12.303,6.439,14.401c3.952,2.612,11.287,2.364,21.54-1.548
		C129.281,458.974,128.986,457.388,128.762,455.657z"/>
	<path style="fill:#57ADDD;" d="M272.403,141.033c51.353,0,93.948-45.051,101.956-104.073c-3.255,1.047-6.517,2.388-9.508,3.773
		c-55.431,68.495-135.046,66.629-189.052-2.437l1.21,1.565c-3.124-3.89-3.906-5.64-7.062-6.976
		C176.503,93.897,219.874,141.033,272.403,141.033z"/>
</g>
<path style="fill:#399DC9;" d="M222.769,78.752c-16.821-8.812-32.78-22.31-46.969-40.456l1.21,1.565
	c-3.124-3.89-3.906-5.64-7.062-6.976c6.557,61.012,49.928,108.147,102.457,108.147c6.106,0,12.087-0.644,17.902-1.866
	C261.413,132.727,236.903,110.04,222.769,78.752z"/>
<path style="fill:#5085BA;" d="M407.523,13.796C386.064-0.384,352.83,9.74,311.049,42.983h-0.022
	c-25.565,20.346-43.488,40.28-50.597,47.499c14.525,1.618,29.19,0.023,43.492-4.843c16.214-15.27,36.383-32.108,55.761-42.353
	c9.496-4.982,25.077-11.574,32.566-6.626c8.864,5.857,11.023,32.835-4.129,79.904c-32.734,101.674-125.98,241.253-207.555,310.67
	c-37.76,32.132-63.602,40.602-72.467,34.745c-7.443-4.918-7.324-21.768-6.626-30.738h-0.007
	c2.012-26.773,12.166-53.199,20.033-74.911c0.019-0.269,0.042-0.54,0.06-0.808l-0.114,0.148c1.375-20.343,1.091-41.519-0.989-63.208
	l-1.316,1.898c-18.997,37.874-42.714,93.651-45.273,136.881h-0.012c-0.072,1.212-0.197,4.863-0.2,5.026h0.011
	c-1.024,58.258,42.951,81.51,124.843,11.824C329.773,336.395,480.76,62.192,407.523,13.796z"/>
<path style="fill:#3A77AA;" d="M407.523,13.796c-1.854-1.226-3.802-2.257-5.83-3.119c58.347,59.641-87.581,321.01-214.946,429.39
	c-45.279,38.531-78.96,48.638-99.858,40.135c18.621,19.585,56.545,14.758,111.621-32.11
	C329.773,336.395,480.76,62.191,407.523,13.796z"/>
<path d="M428.401,301.644c0.307-4.13-2.793-7.728-6.923-8.034c-4.145-0.303-7.728,2.793-8.034,6.923
	c-3.619,48.712,1.045,97.551,17.403,142.877c1.258,3.483,0.044,7.433-2.951,9.601c-69.274,50.174-186.616,53.527-262.528,29.444
	l5.315-4.538c90.827-57.948,189.943-205.978,232.883-304.65c7.034,13.044,15.45,21.441,22.1,26.574
	c3.694,2.852,5.233,7.598,3.92,12.094c-5.062,17.351-9.082,35.172-11.948,52.968c-0.659,4.088,2.122,7.937,6.211,8.596
	c4.089,0.656,7.937-2.122,8.596-6.211c2.769-17.185,6.65-34.394,11.539-51.15c3.055-10.463-0.539-21.519-9.154-28.168
	c-7.18-5.54-16.9-15.857-23.366-33.793c17.536-44.75,39.853-120.097-0.308-146.634C366.002-22.307,294.102,43.46,256.979,82.531
	c-27.687-4.281-54.196-21.261-75.772-48.854c-2.59-3.303-4.359-5.804-8.841-7.698c-3.487-1.473-7.789-1.862-11.806-0.7
	l-18.294,5.299c-9.4,2.723-14.987,12.332-12.719,21.877c11.005,46.307,14.11,107.052-22.777,135.512
	c-8.615,6.647-12.209,17.704-9.155,28.167c7.144,24.483,12.046,49.499,14.598,74.4c-0.092,0.154-0.194,0.302-0.274,0.463
	C21.741,470.823,80.047,518.94,145.94,491.152c0.589,0.46,1.242,0.846,1.961,1.117c81.261,30.648,212.028,28.483,288.795-27.111
	c8.376-6.068,11.772-17.104,8.26-26.839C429.239,394.775,424.971,347.802,428.401,301.644z M114.157,321.123
	c0.3,11.107,0.007,24.023-0.681,33.827c-8.4,22.09-18.083,50.38-19.988,75.73c-5.517,72.417,57.793,35.347,110.038-14.561
	c2.994-2.861,3.103-7.607,0.242-10.602c-2.862-2.996-7.609-3.103-10.602-0.242c-9.458,9.035-19.328,17.751-29.547,25.666
	c-33.482,25.914-49.541,26.324-51.886,24.782c-1.465-0.97-2.549-5.543-2.86-7.307c18.037-47.175,19.675-92.49,19.667-92.391
	c2.808-46.329-2.137-94.766-16.527-144.092c-1.313-4.496,0.227-9.243,3.92-12.094c42.488-32.785,40.683-98.35,28.207-150.854
	c-0.417-1.752,0.594-3.51,2.3-4.004l16.402-4.751c5.611,37.387,24.329,69.762,51.997,89.535c3.367,2.409,8.052,1.63,10.46-1.741
	c2.409-3.368,1.629-8.053-1.741-10.46c-19.121-13.666-33.728-35.141-41.41-59.999c54.078,55.655,127.068,54.702,180.548-3.436
	c-14.502,52.202-59.608,89.528-109.946,77.059c-4.013-0.999-8.086,1.454-9.081,5.475c-0.997,4.02,1.455,8.086,5.475,9.081
	c60.741,15.061,119.331-31.727,131.376-102.805c5.823-1.224,7.194,0.04,7.094-0.026c2.616,1.729,5.962,14.081,0.972,40.336
	c-15.67,82.456-93.581,213.272-171.241,297.367c-2.811,3.042-2.622,7.787,0.421,10.597c3.044,2.811,7.788,2.622,10.597-0.421
	C334.958,275.373,425.062,94.213,403.064,39.824C388.759,4.46,327.35,52.998,299.556,78.984c-7.272,2.366-14.79,3.881-22.511,4.403
	C416.55-57.102,478.86,30.524,344.213,254.937c-37.493,62.755-91.308,135.125-146.729,183.696
	C94.158,529.112,41.889,480.069,114.157,321.123z"/>
<g>
</g>
<g>
</g>
<g>
</g>
<g>
</g>
<g>
</g>
<g>
</g>
<g>
</g>
<g>
</g>
<g>
</g>
<g>
</g>
<g>
</g>
<g>
</g>
<g>
</g>
<g>
</g>
<g>
</g>
</svg>
