<?xml version="1.0" encoding="iso-8859-1"?>
<!-- Generator: Adobe Illustrator 19.0.0, SVG Export Plug-In . SVG Version: 6.00 Build 0)  -->
<svg version="1.1" id="Capa_1" xmlns="http://www.w3.org/2000/svg" xmlns:xlink="http://www.w3.org/1999/xlink" x="0px" y="0px"
	 viewBox="0 0 511.996 511.996" style="enable-background:new 0 0 511.996 511.996;" xml:space="preserve">
<path style="fill:#F96989;" d="M466.33,98.159c-2.723-7.502,1.753-1.91-117.065-61.302l-186.521-0.008l-0.007,0.008
	C43.794,96.312,46.853,90.827,45.104,100.266c-0.605,3.281,0.05,6.473,1.624,9.125c0.06,0.101,33.999,57.352,34.539,58.034
	c2.373,3,6.594,3.815,9.909,1.947c0.397-0.223,0.668-0.43,1.082-0.653c0.1-0.054,0.874-0.471,0.774-0.417
	c18.33-9.885,18.57-10.818,21.519-9.451c2.094,0.963,2.404,1.188,10.364,23.947l-0.001,0.001
	c27.251,85.897,5.926,192.411-21.415,278.641c-2.017,6.085,1.24,14.938,9.197,18.322c77.004,32.172,203.787,32.983,283.105,1.433
	c4.099-1.634,7.302-2.743,10.237-6.832c2.951-4.107,3.628-9.412,2.466-12.923c-27.816-84.478-48.197-194.221-21.415-278.641
	l-0.001-0.001c7.79-21.668,7.923-23.134,10.835-24.135c1.565-0.47,2.937-0.291,4.19,0.546l0,0c0.11,0.052,17.741,9.569,17.632,9.51
	c0.41,0.222,0.69,0.432,1.082,0.653c3.308,1.865,7.532,1.058,9.909-1.947c0.62-0.783,0.244-0.32,9.081-15.158
	c26.349-45.262,27.307-43.661,27.307-49.604C467.12,101.153,466.842,99.574,466.33,98.159z"/>
<polygon style="fill:#ED5A81;" points="249.767,36.853 215.547,36.851 256.001,79.502 273.043,61.534 "/>
<path style="fill:#DD4A78;" d="M189.228,9.101l25.501,31.93h82.545l25.63-32.067c-2.862-1.162-5.418-1.35-6.433-1.37
	c-124.4,0.647-120.558-1.406-127.356,1.554l0.005,0.006C189.157,9.137,189.19,9.118,189.228,9.101z"/>
<path style="fill:#D34477;" d="M222.164,7.583c-28.699-0.179-28.858-0.261-33.051,1.565l0.005,0.006
	c0.039-0.017,0.071-0.036,0.11-0.052l25.501,31.93h38.98L222.164,7.583z"/>
<path style="fill:#ED5A81;" d="M126.706,473.94c28.605-86.231,50.915-215.742,22.405-301.639l0.001-0.001
	c-8.202-22.387-8.589-22.956-10.843-23.947c-3.085-1.367-3.336-0.435-22.514,9.451c0.068-0.035-0.771,0.375-1.605,0.873
	c2.584,1.07,2.658,0.99,10.763,24.122l-0.001,0.001c27.25,85.897,5.926,192.411-21.415,278.641
	c-2.017,6.085,1.24,14.938,9.197,18.322c5.191,2.169,10.587,4.17,15.79,5.926C126.124,481.908,125.485,477.462,126.706,473.94z"/>
<g>
	<path style="fill:#DD4A78;" d="M466.674,99.256c-2.444-8.019-7.779-7.826-21.191-15.069l-43.234,75.105
		c0.561,0.302,17.602,9.485,17.495,9.427c0.1,0.054,0.47,0.254,0.37,0.2c3.451,2.461,8.17,1.668,10.671-1.567
		c0.498-0.643-1.835,3.217,34.491-57.964C467.025,106.437,467.573,103.009,466.674,99.256z"/>
	<path style="fill:#DD4A78;" d="M181.724,14.689L181.724,14.689L181.724,14.689l-18.987,22.168l45.103,67.293
		c2.614,3.901,8.654,4.788,12.598,1.85l35.563-26.497L189.228,9.101C184.812,10.99,182.671,13.726,181.724,14.689z"/>
	<path style="fill:#DD4A78;" d="M322.906,8.962l-66.905,70.542l36.879,27.477c3.258,2.428,8.249,1.694,10.41-1.529l45.975-68.594
		C330.283,15.703,329.506,11.642,322.906,8.962z"/>
</g>
<path style="fill:#ED5A81;" d="M162.737,36.857C43.794,96.312,46.853,90.827,45.104,100.266c-0.604,3.281,0.05,6.473,1.624,9.125
	c0.022,0.038,4.837,8.158,10.864,18.312c0.754-10.174,11.781-12.218,121.376-66.63L162.737,36.857z"/>
<path style="fill:#DD4A78;" d="M46.729,109.391c36.762,61.912,34.196,58.141,36.067,59.493c1.534,1.112,3.575,1.71,5.701,1.395
	c1.7-0.248,1.116-0.035,21.257-10.986L66.519,84.187l-14.586,7.175C45.819,94.37,42.676,101.71,46.729,109.391z"/>
<path style="fill:#D34477;" d="M66.519,84.187c-13.977,7.215-20.587,8.497-21.541,17.002c-0.613,5.977,1.984,8.577,12.614,26.514
	c0.035-0.478,0.089-0.957,0.178-1.44c0.839-4.527,5.457-8.054,23.151-17.058L66.519,84.187z"/>
<path d="M256.002,133.829c9.994,0,10.009-15.496,0-15.496c-4.141,0-7.497,3.357-7.497,7.498v0.5
	C248.504,130.472,251.861,133.829,256.002,133.829z"/>
<path d="M256.002,424.175c4.141,0,7.498-3.357,7.498-7.498v-1.024c0-4.142-3.357-7.498-7.498-7.498
	C245.994,408.155,245.98,424.175,256.002,424.175z"/>
<path d="M248.504,375.237c0,4.142,3.357,7.498,7.497,7.498c4.141,0,7.498-3.357,7.498-7.498v-1.025c0-4.142-3.357-7.498-7.498-7.498
	c-4.141,0-7.497,3.357-7.497,7.498V375.237z"/>
<path d="M248.504,333.797c0,4.142,3.357,7.498,7.497,7.498c4.141,0,7.498-3.357,7.498-7.498v-1.025c0-4.142-3.357-7.498-7.498-7.498
	c-4.141,0-7.497,3.357-7.497,7.498V333.797z"/>
<path d="M248.504,292.355c0,4.142,3.357,7.498,7.497,7.498c4.141,0,7.498-3.357,7.498-7.498v-1.024c0-4.142-3.357-7.498-7.498-7.498
	c-4.141,0-7.497,3.357-7.497,7.498V292.355z"/>
<path d="M248.504,250.915c0,4.142,3.357,7.498,7.497,7.498c4.141,0,7.498-3.357,7.498-7.498v-1.025c0-4.142-3.357-7.498-7.498-7.498
	c-4.141,0-7.497,3.357-7.497,7.498V250.915z"/>
<path d="M248.504,209.474c0,4.142,3.357,7.498,7.497,7.498c10.021,0,10.009-16.021,0-16.021c-4.141,0-7.497,3.357-7.497,7.498
	V209.474z"/>
<path d="M248.504,168.034c0,4.142,3.357,7.498,7.497,7.498c4.141,0,7.498-3.357,7.498-7.498v-1.025c0-4.142-3.357-7.498-7.498-7.498
	c-4.141,0-7.497,3.357-7.497,7.498V168.034z"/>
<path d="M473.851,97.079L473.851,97.079c-1.355-4.728-4.145-8.291-7.664-10.777c-2.635-1.861,2.159,0.922-112.301-55.528
	C335.664,10.36,334.21,5.319,325.638,1.985c-7.792-3.13-2.967-1.256-106.9-1.922c-26.634-0.167-27.145-0.173-32.616,2.211
	c-9.277,4.04-11.995,10.697-28.077,28.537l-27.731,13.641c-3.717,1.828-5.248,6.322-3.419,10.039
	c1.821,3.705,6.314,5.254,10.039,3.419l23.227-11.425l41.451,61.844c4.994,7.448,15.916,9.194,23.309,3.688l31.081-23.158
	l32.398,24.139c6.686,4.981,16.567,3.425,21.12-3.368l42.322-63.144l83.148,40.9l-36.595,63.573
	c-9.066,0.813-11.042,9.018-13.343,15.395c-4.074,10.63-5.509,15.131-7.256,21.397c-1.112,3.989,1.22,8.125,5.21,9.238
	c4.015,1.117,8.132-1.242,9.238-5.21c2.235-8.009,6.111-18.519,8.58-24.735c0.103,0.056,15.722,8.505,15.618,8.44
	c6.97,4.457,16.386,2.504,20.983-4.543c0.421-0.639,33.958-57.133,34.33-57.776C474.663,108.258,475.395,102.119,473.851,97.079z
	 M306.634,15.141l-17.566,18.391h-66.13L205.23,14.996C217.732,15.007,247.215,15.395,306.634,15.141z M215.959,99.986
	c-0.579,0.429-1.656,0.243-1.888-0.011l-41.934-62.564c14.429-16.791,14.691-17.24,15.984-18.578l56.626,59.703L215.959,99.986z
	 M236.961,48.531h38.08l-19.04,20.074L236.961,48.531z M297.301,100.918c-0.002-0.001-0.004-0.001-0.004-0.001l-30.041-22.382
	l56.668-59.748c2.614,2.826,7.294,8.93,15.885,18.712L297.301,100.918z M424.621,162.866l-0.003-0.001
	C424.619,162.865,424.621,162.866,424.621,162.866L424.621,162.866z M424.735,162.842l0.001,0.003l-0.006,0.003l-0.002,0.001
	l-0.015,0.008h-0.001l0.015-0.008l-0.006,0.001L424.735,162.842c-0.076,0.021-0.045,0.011-0.1,0.021
	c-0.173-0.024,1.208,0.625-12.039-6.515l35.881-62.331c7.62,3.847,10.34,4.181,11.043,7.594c0.013,0.101,0.094,0.713,0.081,0.612
	C459.827,104.955,460.369,102.967,424.735,162.842z"/>
<path d="M385.427,225.285c0.57-4.103-2.294-7.89-6.395-8.46c-4.079-0.569-7.89,2.293-8.46,6.395
	c-15.222,109.514,25.714,220.711,30.781,240.476c0.006,0.018,0.066,0.206,0.067,0.187c0.32,2.036-0.137,4.114-1.274,5.832
	c-4.929,7.392-97.204,40.47-215.31,21.798l-1.863-0.305c-4.095-0.662-7.94,2.111-8.605,6.197c-0.665,4.089,2.11,7.94,6.197,8.605
	c1.698,0.272,1.15,0.201,3.621,0.575c2.339,0.113,92.059,16.94,187.339-9.335c7.076-1.995,26.037-8.016,32.514-11.444
	c8.689-4.592,13.77-14.267,12.201-24.241C415.187,454.781,369.927,336.798,385.427,225.285z"/>
<path d="M149.453,484.154c-0.1-0.032-26.434-7.354-34.479-11.605c-3.576-1.891-5.176-6.288-4.336-8.81
	c30.974-93.533,51.707-213.592,13.544-304.53c-1.548-4.544-5.662-7.813-10.573-8.253L77.013,87.383l28.505-14.022
	c3.717-1.828,5.248-6.322,3.419-10.039c-1.828-3.717-6.321-5.249-10.039-3.419c-4.572,2.249-44.723,22-50.271,24.729l0,0
	c-6.656,3.661-10.48,8.853-11.176,16.414c-0.573,9.073,0.489,8.224,31.487,60.436l5.288,8.905c2.915,4.92,8.566,8.036,14.814,7.385
	c4.557-0.49,6.989-2.502,22.142-10.73c35.087,88.301,15.054,201.822-14.783,291.989c-3.274,10.287,2.114,22.87,13.406,27.65
	c11.857,4.957,23.409,8.671,35.785,11.966c4.053,1.076,8.124-1.358,9.179-5.314C155.834,489.331,153.455,485.221,149.453,484.154z
	 M87.37,162.863c-0.005-0.001-0.073-0.012-0.086-0.014c-0.069-0.038-0.11-0.027-0.219-0.214
	c-36.894-62.138-34.882-57.786-34.649-60.536c0.45-4.111,3.676-4.02,11.11-8.081l35.881,62.332
	C99.124,156.502,101.556,155.185,87.37,162.863z"/>
<g>
</g>
<g>
</g>
<g>
</g>
<g>
</g>
<g>
</g>
<g>
</g>
<g>
</g>
<g>
</g>
<g>
</g>
<g>
</g>
<g>
</g>
<g>
</g>
<g>
</g>
<g>
</g>
<g>
</g>
</svg>
