<?xml version="1.0" encoding="iso-8859-1"?>
<!-- Generator: Adobe Illustrator 19.0.0, SVG Export Plug-In . SVG Version: 6.00 Build 0)  -->
<svg version="1.1" id="Capa_1" xmlns="http://www.w3.org/2000/svg" xmlns:xlink="http://www.w3.org/1999/xlink" x="0px" y="0px"
	 viewBox="0 0 512 512" style="enable-background:new 0 0 512 512;" xml:space="preserve">
<path style="fill:#57ADDD;" d="M88.853,67.94c-22.695,0-38.825,0-44.766,0c-20.089,0-36.525,16.436-36.525,36.526
	c0,15.754,0,329.963,0,363.509c0,20.089,16.437,36.525,36.525,36.525h423.828c20.089,0,36.525-16.436,36.525-36.525
	c0-15.754,0-329.963,0-363.509c0-20.089-16.436-36.526-36.525-36.526c-3.608,0-20.146,0-44.767,0"/>
<g>
	<polygon style="fill:#399DC9;" points="248.812,155.85 285.068,155.85 213.153,67.94 176.764,67.94 	"/>
	<path style="fill:#399DC9;" d="M32.747,467.975c0-33.546,0-347.755,0-363.509c0-20.089,16.436-36.526,36.525-36.526
		c-12.36,0-21.14,0-25.186,0c-20.089,0-36.525,16.436-36.525,36.526c0,15.754,0,329.963,0,363.509
		c0,20.089,16.437,36.525,36.525,36.525h25.186C49.184,504.5,32.747,488.064,32.747,467.975z"/>
</g>
<path style="fill:#F2C29E;" d="M282.059,236.171h-52.119L185.922,504.5c20.295,0,119.813,0,140.153,0L282.059,236.171z"/>
<path style="fill:#E5AE89;" d="M229.941,236.171L185.922,504.5c5.014,0,14.866,0,27.162,0l44.019-268.33L229.941,236.171
	L229.941,236.171z"/>
<path style="fill:#CC9D72;" d="M256,155.85l-46.863,40.16l20.803,40.16c16.559,0,35.56,0,52.119,0l20.803-40.16L256,155.85z"/>
<path style="fill:#C19067;" d="M272.436,169.936L256,155.851l-46.863,40.16l20.803,40.16h27.205l-15.027-27.439
	c-2.783-5.083-1.627-11.421,2.774-15.191L272.436,169.936z"/>
<g>
	<path style="fill:#5085BA;" d="M88.853,67.94l80.834,138.717c4.685,8.041,15.511,9.869,22.577,3.813l63.737-54.62L136.874,11.384
		C123.611,18.262,120.748,25.492,88.853,67.94z"/>
	<path style="fill:#5085BA;" d="M376.053,10.262L256,155.85l66.094,56.641c5.839,5.004,14.784,3.492,18.657-3.151l82.397-141.4
		C391.678,27.467,387.806,16.414,376.053,10.262z"/>
</g>
<g>
	<path style="fill:#3A77AA;" d="M136.853,11.395c-0.283,0.146-0.563,0.295-0.84,0.447C136.291,11.693,136.567,11.543,136.853,11.395
		z"/>
	<path style="fill:#3A77AA;" d="M382.592,14.881l0.005-0.005C382.368,14.67,382.334,14.644,382.592,14.881z"/>
	<path style="fill:#3A77AA;" d="M183.509,67.941h144.982l47.559-57.676c-8.839-4.633,7.447-1.776-224.67-2.644
		c-5.382,0-10.279,1.57-14.507,3.763L183.509,67.941z"/>
</g>
<path style="fill:#2B709E;" d="M163.845,7.665c-4.076-0.013-8.224-0.028-12.464-0.044c-5.382,0-10.279,1.57-14.507,3.763
	L183.51,67.94h29.644L163.845,7.665z"/>
<path d="M467.914,60.441h-41.09c-29.474-38.186-34.286-50.354-47.415-56.878c-11.591-6.016,3.188-2.337-228.028-3.441
	c-10.321,0-17.844,4.559-17.961,4.604c-14.733,7.641-18.544,15.939-48.318,55.715H44.087c-24.276,0-44.025,19.749-44.025,44.025
	v302.299c0,4.142,3.356,7.499,7.499,7.499s7.499-3.356,7.499-7.499V104.466c0-16.006,13.022-29.028,29.028-29.028h5.663v421.563
	h-5.663c-16.006,0-29.028-13.021-29.028-29.026v-26.217c0-4.142-3.356-7.499-7.499-7.499s-7.499,3.356-7.499,7.499v26.217
	c0,24.275,19.749,44.023,44.025,44.023c10.428,0.001,416.792,0.002,423.827,0c24.275,0,44.024-19.748,44.024-44.023V173.347
	c0-4.142-3.356-7.499-7.499-7.499s-7.499,3.356-7.499,7.499v294.629c0,16.005-13.021,29.026-29.027,29.026h-5.663V75.439h5.663
	c16.006,0,29.027,13.022,29.027,29.028v33.887c0,4.142,3.356,7.499,7.499,7.499s7.499-3.356,7.499-7.499v-33.887
	C511.938,80.191,492.189,60.441,467.914,60.441z M362.329,15.119l-37.373,45.322h-30.854c-4.142,0-7.499,3.356-7.499,7.499
	c0,4.142,3.356,7.499,7.499,7.499h18.489l-56.589,68.625l-56.589-68.625h59.695c4.142,0,7.499-3.356,7.499-7.499
	s-3.356-7.499-7.499-7.499h-72.062c-5.311-6.441-32.03-38.844-37.316-45.254C151.29,15.058,137.104,15.143,362.329,15.119z
	 M289.862,237.409l7.328-14.146v58.818C296.818,279.7,290.274,239.921,289.862,237.409z M278.54,261.038l4.568,27.846
	l-64.854,64.854l6.361-38.775L278.54,261.038z M228.777,289.59l7.534-45.921h38.388L228.777,289.59z M213.812,288.172v-66.836
	l8.327,16.075L213.812,288.172z M214.092,379.112l72.006-72.006l4.568,27.846l-82.934,82.934L214.092,379.112z M277.499,228.672
	h-37.273l41.177-41.177l12.069,10.342L277.499,228.672z M229.217,218.47l-10.687-20.631l37.471-32.112
	c1.367,1.171,12.267,10.512,13.979,11.98L229.217,218.47z M99.438,497.002H64.747V75.439h19.795l14.912,25.589
	C99.429,101.636,99.438,490.501,99.438,497.002z M149.125,188.57v308.432h-34.69V126.737l34.937,59.953
	C149.217,187.292,149.125,187.919,149.125,188.57z M97.835,68.46c23.126-30.929,29.838-41.682,37.388-47.292l110.311,133.776
	c-10.736,9.2-46.866,40.163-58.149,49.832c-2.291,1.964-4.774,1.898-6.053,1.68c-1.277-0.216-3.646-0.967-5.166-3.573L97.835,68.46z
	 M179.553,497.002h-15.43V211.861c3.425,4.978,8.697,8.367,14.711,9.382c1.252,0.211,2.507,0.315,3.753,0.315
	c9.715,0,15.563-6.411,16.226-6.826v164.859L179.553,497.002z M203.568,443.26l90.086-90.086l4.567,27.847L197.207,482.036
	L203.568,443.26z M203.452,497.002l97.758-97.758l4.567,27.847l-69.911,69.911H203.452z M257.077,497.002l51.69-51.69l4.354,26.545
	l-25.144,25.144L257.077,497.002L257.077,497.002z M309.188,497.002l6.923-6.923l1.135,6.923H309.188z M347.878,497.002h-15.434
	l-20.256-123.49V213.877c3.132,2.153,7.955,9.08,17.902,9.08c12.84,0,17.533-10.691,17.788-10.952v284.997H347.878z
	 M397.566,497.002h-34.691c-0.095-322.441,0.224-308.488-0.247-310.31l34.938-59.955V497.002z M330.912,207.89
	c-0.829,0.138-2.446,0.186-3.937-1.093c-11.907-10.204-48.679-41.716-60.508-51.854L377.458,20.345
	c6.75,6.133,14.506,19.398,36.666,48.185C329.989,210.713,335.541,207.106,330.912,207.89z M447.254,497.002h-34.691
	c0-6.57,0.009-395.363-0.016-395.975l14.911-25.588h19.796v421.563H447.254z"/>
<g>
</g>
<g>
</g>
<g>
</g>
<g>
</g>
<g>
</g>
<g>
</g>
<g>
</g>
<g>
</g>
<g>
</g>
<g>
</g>
<g>
</g>
<g>
</g>
<g>
</g>
<g>
</g>
<g>
</g>
</svg>
