<?xml version="1.0" encoding="iso-8859-1"?>
<!-- Generator: Adobe Illustrator 19.0.0, SVG Export Plug-In . SVG Version: 6.00 Build 0)  -->
<svg version="1.1" id="Layer_1" xmlns="http://www.w3.org/2000/svg" xmlns:xlink="http://www.w3.org/1999/xlink" x="0px" y="0px"
	 viewBox="0 0 512.001 512.001" style="enable-background:new 0 0 512.001 512.001;" xml:space="preserve">
<circle style="fill:#2BA5F7;" cx="256.004" cy="256.004" r="246.855"/>
<path style="fill:#2197D8;" d="M126.306,385.694c-88.801-88.802-95.798-228.426-20.998-325.241
	c-8.286,6.401-16.258,13.399-23.858,20.999c-96.401,96.401-96.401,252.698,0,349.099s252.698,96.401,349.099,0
	c7.599-7.599,14.597-15.573,20.999-23.858C354.733,481.492,215.108,474.495,126.306,385.694z"/>
<path style="fill:#A81004;" d="M351.314,383.11c0,17.457-8.161,23.447-21.739,24.655c-0.232-0.622-0.464-1.244-0.708-1.842
	c-8.71-22.032-24.716-36.781-43.027-36.781c-11.187,0-21.508,5.514-29.84,14.822c-8.332-9.308-18.665-14.822-29.852-14.822
	c-18.299,0-34.317,14.749-43.015,36.781c-0.244,0.598-0.476,1.22-0.708,1.842c-13.578-1.208-21.739-7.198-21.739-24.655
	c0-39.916,42.673-72.281,95.314-72.281S351.314,343.193,351.314,383.11z"/>
<path style="fill:#F95428;" d="M328.868,405.923c0.244,0.598,0.476,1.22,0.708,1.842c-17.482,1.562-43.954-4.782-73.575-4.782
	c-29.62,0-56.093,6.344-73.575,4.782c0.232-0.622,0.464-1.244,0.708-1.842c8.698-22.032,24.716-36.781,43.015-36.781
	c11.187,0,21.52,5.514,29.852,14.822c8.332-9.308,18.653-14.822,29.84-14.822C304.152,369.141,320.157,383.891,328.868,405.923z"/>
<path d="M256.001,0C114.841,0,0,114.841,0,256.001s114.841,256.001,256.001,256.001S512.001,397.16,512.001,256.001
	S397.16,0,256.001,0z M256.001,493.701c-131.069,0-237.702-106.631-237.702-237.7S124.932,18.299,256.001,18.299
	s237.702,106.632,237.702,237.702S387.068,493.701,256.001,493.701z"/>
<path d="M256.001,301.679c-57.602,0-104.463,36.53-104.463,81.431c0,20.633,10.119,31.994,30.074,33.768
	c9.786,0.874,21.307-0.406,34.645-1.89c12.032-1.338,25.671-2.856,39.743-2.856s27.711,1.518,39.743,2.856
	c10.323,1.148,19.554,2.175,27.74,2.175c2.39,0,4.692-0.088,6.904-0.285c19.957-1.776,30.075-13.138,30.075-33.768
	C360.464,338.209,313.601,301.679,256.001,301.679z M256.001,393.833c-15.087,0-29.26,1.576-41.766,2.968
	c-6.24,0.694-12.046,1.338-17.295,1.716c7.678-12.702,18.28-20.227,29.21-20.227c10.327,0,18.225,6.403,23.035,11.775
	c1.736,1.94,4.215,3.047,6.817,3.047c2.602,0,5.081-1.108,6.817-3.047c4.809-5.371,12.707-11.775,23.023-11.775
	c10.912,0,21.501,7.505,29.204,20.227c-5.245-0.379-11.045-1.024-17.278-1.716C285.261,395.41,271.088,393.833,256.001,393.833z
	 M335.176,397.45c-10.822-23.245-29.353-37.459-49.336-37.459c-10.7,0-20.873,3.872-29.84,11.286
	c-8.969-7.414-19.144-11.286-29.852-11.286c-20.008,0-38.555,14.242-49.332,37.456c-4.774-1.68-6.98-5.393-6.98-14.338
	c0-34.811,38.654-63.132,86.164-63.132s86.164,28.321,86.164,63.132C342.165,392.059,339.956,395.772,335.176,397.45z"/>
<path d="M173.569,257.87c1.787,1.787,4.128,2.68,6.471,2.68c2.341,0,4.683-0.893,6.471-2.68c3.573-3.573,3.573-9.367,0-12.939
	l-27.517-27.517l27.517-27.518c3.573-3.573,3.573-9.367,0-12.939c-3.574-3.573-9.367-3.573-12.94,0l-27.517,27.517l-27.517-27.517
	c-3.573-3.573-9.365-3.573-12.94,0c-3.573,3.573-3.573,9.367,0,12.939l27.517,27.518l-27.517,27.517
	c-3.573,3.573-3.573,9.367,0,12.939c1.787,1.786,4.13,2.68,6.471,2.68c2.341,0,4.683-0.893,6.471-2.68l27.517-27.517L173.569,257.87
	z"/>
<path d="M406.405,176.956c-3.574-3.573-9.367-3.573-12.94,0l-27.517,27.517l-27.517-27.517c-3.573-3.573-9.365-3.573-12.94,0
	c-3.573,3.573-3.573,9.367,0,12.939l27.517,27.518l-27.517,27.517c-3.573,3.573-3.573,9.367,0,12.939
	c1.787,1.786,4.13,2.68,6.471,2.68s4.683-0.893,6.471-2.68l27.517-27.517l27.517,27.517c1.787,1.787,4.128,2.68,6.471,2.68
	c2.341,0,4.683-0.893,6.471-2.68c3.573-3.573,3.573-9.367,0-12.939l-27.517-27.517l27.517-27.518
	C409.976,186.323,409.976,180.529,406.405,176.956z"/>
<g>
</g>
<g>
</g>
<g>
</g>
<g>
</g>
<g>
</g>
<g>
</g>
<g>
</g>
<g>
</g>
<g>
</g>
<g>
</g>
<g>
</g>
<g>
</g>
<g>
</g>
<g>
</g>
<g>
</g>
</svg>
