<?xml version="1.0" encoding="iso-8859-1"?>
<!-- Generator: Adobe Illustrator 19.0.0, SVG Export Plug-In . SVG Version: 6.00 Build 0)  -->
<svg version="1.1" id="Capa_1" xmlns="http://www.w3.org/2000/svg" xmlns:xlink="http://www.w3.org/1999/xlink" x="0px" y="0px"
	 viewBox="0 0 512 512" style="enable-background:new 0 0 512 512;" xml:space="preserve">
<path style="fill:#967D74;" d="M124.488,214.855c20.57,19.564,41.095,20.463,57.195,26.259c16.99,4.937,31.395,16.249,40.288,31.542
	c18.899,32.494,56.349,90.599,98.973,122.695c54.044,40.695,119.78,81.064,180.175,47.493c9.962-26.754,0.339-57.631-23.812-74.781
	c-30.372-21.569-80.728-60.641-80.728-82.619c0-26.659-6.342-116.8-27.819-163.258c-5.271-11.402-19.22-15.882-30.234-9.841
	c-24.915,13.663-72.253,33.877-109.084,15.463c-35.268-17.635-62.232-60.693-76.107-86.996
	c-5.379-10.198-19.218-12.015-27.005-3.513l-87.778,95.825L124.488,214.855z"/>
<path style="fill:#7C6359;" d="M153.339,40.81c-5.379-10.198-19.218-12.015-27.005-3.513l-87.778,95.825l18.918,17.993
	l84.232-91.953c5.352-5.842,13.56-6.812,19.918-3.537C158.495,50.337,155.72,45.324,153.339,40.81z"/>
<path style="fill:#656566;" d="M323.653,391.4c-41.989-31.618-78.883-88.859-97.5-120.869
	c-8.762-15.066-22.953-26.209-39.689-31.073c-15.431-5.555-36.144-6.655-56.345-25.869l-88.081-83.776l-0.433-0.02l-27.238,29.735
	c-9.069,9.901-8.66,25.209,0.926,34.61l84.466,82.841c7.289,7.149,18.075,9.402,27.616,5.766l17.433-6.64
	c9.096-3.465,19.391-1.957,26.988,4.128c8.669,6.944,19.95,18.567,29.833,37.064c17.228,32.244,39.884,61.271,67.671,85.026
	c42.49,36.324,103.689,77.78,161.692,77.78c47.745,0,66.046-20.68,71.927-42.91C442.939,472.059,377.422,431.887,323.653,391.4z"/>
<path style="fill:#545456;" d="M42.039,129.813l-0.433-0.02l-27.239,29.735c-9.069,9.901-8.66,25.209,0.926,34.61l8.255,8.096
	c-1.186-7.282,0.839-15.002,6.189-20.842c5.333-5.822,26.527-28.958,30.977-33.816L42.039,129.813z"/>
<path style="fill:#A58F88;" d="M229.446,127.807c-35.268-17.635-62.232-60.693-76.107-86.996
	c-5.379-10.198-19.218-12.015-27.005-3.513l-9.397,10.259c0.006,0.014,51.694,121.301,157.059,87.005l0.001-0.003
	C258.831,136.206,243.386,134.777,229.446,127.807z"/>
<path style="fill:#967D74;" d="M153.339,40.81c-5.379-10.198-19.218-12.015-27.005-3.513l-9.397,10.259
	c0.002,0.004,4.413,10.352,13.28,24.147l11.487-12.541c5.352-5.842,13.56-6.812,19.918-3.537
	C158.495,50.337,155.72,45.324,153.339,40.81z"/>
<path style="fill:#A58F88;" d="M221.973,272.656c18.899,32.494,56.349,90.599,98.973,122.695
	c54.044,40.695,119.78,81.064,180.175,47.493c3.671-9.858,4.761-20.592,3.163-31.17c-25.704,11.728-57.184,7.036-57.184,7.036
	c-94.114-12.761-161.733-115.197-191.379-169.565c-10.526-19.304-27.919-33.805-48.649-41.132
	C133.17,181.891,67.124,101.947,67.119,101.941l-28.562,31.18l85.932,81.733c20.57,19.564,41.095,20.463,57.195,26.259
	C198.673,246.051,213.078,257.362,221.973,272.656z"/>
<path style="fill:#967D74;" d="M84.749,121.34c-11.157-11.562-17.63-19.397-17.631-19.398l-28.562,31.18l18.918,17.993
	L84.749,121.34z"/>
<path d="M481.186,361.899c-8.851-6.285-17.248-12.529-24.955-18.559c-3.263-2.554-7.976-1.977-10.528,1.286
	c-2.552,3.263-1.976,7.977,1.287,10.528c7.889,6.171,16.472,12.554,25.511,18.975c11.459,8.138,19.329,19.934,22.683,32.858
	c-22.158,7.793-47.177,4.272-47.53,4.222c-81.348-11.032-146.593-93.888-185.728-165.657c-11.309-20.741-30.03-36.579-52.715-44.597
	c-60.594-21.419-116.773-81.24-132.354-98.816l37.876-41.349c3.236,6.06,8.045,14.309,14.464,23.353
	c1.462,2.061,3.774,3.16,6.123,3.16c5.999,0,9.663-6.836,6.11-11.842c-7.9-11.132-13.214-21.062-15.891-26.468l5.998-6.547
	c4.276-4.667,11.865-3.679,14.831,1.945c6.518,12.356,17.148,30.695,30.774,47.89c14.077,17.764,28.701,31.034,43.539,39.556
	c-20.271-3.51-39.355-13.701-57.08-30.551c-3.002-2.854-7.749-2.732-10.603,0.268c-2.854,3.003-2.734,7.75,0.268,10.604
	c35.401,33.654,77.534,44.027,122.022,29.778c25.846-3.005,50.515-14.229,66.436-22.961c7.254-3.974,16.376-1.016,19.809,6.407
	c3.612,7.815,6.789,16.959,9.573,26.867l-64.295,13.384c-4.055,0.845-6.658,4.816-5.814,8.871c0.846,4.063,4.824,6.658,8.871,5.814
	l64.937-13.518c1.453,6.307,2.772,12.793,3.965,19.345l-61.666,12.837c-4.056,0.845-6.658,4.816-5.814,8.871
	c0.737,3.54,3.856,5.974,7.335,5.974c1.462,0-1.888,0.496,62.624-12.876c1.015,6.607,1.911,13.184,2.695,19.61L327.4,232.332
	c-4.055,0.845-6.658,4.816-5.814,8.871c0.737,3.54,3.856,5.974,7.335,5.974c1.434,0-1.654,0.448,56.689-11.641
	c0.703,6.99,1.271,13.657,1.717,19.813l-49.634,10.333c-4.055,0.845-6.658,4.816-5.814,8.871c0.846,4.063,4.824,6.658,8.871,5.814
	l47.488-9.886c0.282,6.016,0.412,11.1,0.412,14.947c0,12.117,9.888,26.963,31.12,46.718c3.032,2.822,7.778,2.65,10.6-0.381
	c2.822-3.033,2.651-7.778-0.382-10.6c-23.771-22.119-26.337-32.36-26.337-35.736c0-20.772-5.071-115.661-28.5-166.343
	c-7.093-15.343-25.843-21.378-40.636-13.266c-55.079,30.202-87.598,22.565-102.08,15.325
	c-33.821-16.911-60.126-59.732-72.795-83.753c-7.803-14.795-27.899-17.372-39.159-5.08l-84.699,92.461l0,0
	C7.705,155.556,8.193,154.586,6.007,157.657c-9.161,12.855-7.792,30.538,3.751,41.855l84.432,82.809
	c9.455,9.274,23.491,12.003,35.526,7.418c4.427-1.686,13.275-5.056,17.427-6.637c6.468-2.468,14.05-1.489,19.617,2.97
	c22.833,18.291,26.998,36.993,46.425,65.214c14.671,21.313,31.694,40.293,50.857,56.675c42.45,36.289,105.796,79.548,166.503,79.548
	c37.191,0,69.643-12.51,79.15-48.476C517.229,410.551,505.931,379.471,481.186,361.899z M207.886,313.734
	c-10.758-20.138-23.203-32.524-31.748-39.369c-9.583-7.676-22.74-9.698-34.336-5.281l-17.426,6.638
	c-6.779,2.581-14.504,0.969-19.684-4.109l-84.432-82.809c-6.754-6.624-6.996-17.243-0.647-24.175l22.258-24.298l82.75,78.706
	c35.482,33.749,71.326,15.678,94.483,54.935c2.104,3.569,6.703,4.753,10.271,2.649c3.568-2.104,4.754-6.703,2.649-10.271
	c-20.417-34.61-54.226-35.449-66.733-40.75c-11.31-3.287-21.799-9.315-30.333-17.433l-82.953-78.899l14.64-15.983
	c17.685,19.936,74.228,79.427,137.566,101.815c19.189,6.782,35.008,20.149,44.543,37.636
	c41.92,76.877,110.349,161.607,196.784,173.325c13.657,2.032,34.626,1.347,51.458-3.877c-0.061,3.337-0.432,6.683-1.11,10.002
	c-55.628,29.961-117.513-8.722-168.128-46.836c-30.963-23.315-59.249-61.53-77.525-89.483c-2.267-3.466-6.915-4.442-10.381-2.173
	c-3.467,2.267-4.44,6.915-2.173,10.382c18.932,28.955,48.361,68.638,81.056,93.257c49.11,36.98,109.75,74.885,167.82,55.245
	c-12.913,15.902-35.428,19.931-56.012,19.931c-56.13,0-116.226-41.301-156.755-75.949
	C247.343,373.95,225.17,346.084,207.886,313.734z"/>
<g>
</g>
<g>
</g>
<g>
</g>
<g>
</g>
<g>
</g>
<g>
</g>
<g>
</g>
<g>
</g>
<g>
</g>
<g>
</g>
<g>
</g>
<g>
</g>
<g>
</g>
<g>
</g>
<g>
</g>
</svg>
