<?xml version="1.0" encoding="iso-8859-1"?>
<!-- Generator: Adobe Illustrator 19.0.0, SVG Export Plug-In . SVG Version: 6.00 Build 0)  -->
<svg version="1.1" id="Capa_1" xmlns="http://www.w3.org/2000/svg" xmlns:xlink="http://www.w3.org/1999/xlink" x="0px" y="0px"
	 viewBox="0 0 511.999 511.999" style="enable-background:new 0 0 511.999 511.999;" xml:space="preserve">
<path style="fill:#F4D44E;" d="M349.291,156.868C216.472,24.049,60.16-32.764,14.123,38.641c-1.45,2.249,1.45,4.99,3.773,2.669
	C66.52-7.314,196.414,43.744,308.023,155.353c58.351,58.351,135.061,161.517,132.303,241.827
	c-10.293,71.987-143.634-9.845-194.051-43.851l-15.624,15.229c-1.811,1.765-2.637,4.307-2.21,6.799l9.36,54.573
	c98.437,69.105,198.255,95.562,239.985,53.833C532.574,428.978,475.044,282.621,349.291,156.868z"/>
<path style="fill:#E8C842;" d="M423.961,464.095c-70.27,12.527-190.036-78.59-194.346-81.889l8.186,47.726
	c98.437,69.105,198.255,95.562,239.985,53.833c30.617-30.616,26.147-89.832-5.692-158.065
	C482.044,384.064,480.87,453.949,423.961,464.095z"/>
<path style="fill:#F4A32C;" d="M173.849,233.443l30.753,62.314c1.119,2.268,3.282,3.839,5.784,4.202l68.767,9.993
	c6.3,0.916,8.817,8.659,4.257,13.102l-49.76,48.504c-1.811,1.765-2.637,4.307-2.21,6.799l11.747,68.489
	c1.076,6.275-5.51,11.061-11.146,8.098l-61.507-32.336c-2.238-1.177-4.911-1.177-7.149,0l-61.507,32.336
	c-5.635,2.963-12.223-1.823-11.146-8.098l11.747-68.489c0.427-2.492-0.399-5.034-2.209-6.799l-49.76-48.504
	c-4.559-4.444-2.044-12.188,4.257-13.102l68.767-9.993c2.502-0.364,4.664-1.935,5.784-4.202l30.753-62.314
	C162.889,227.734,171.031,227.734,173.849,233.443z"/>
<path style="fill:#E89528;" d="M147.472,363.766c0.427-2.492-0.399-5.034-2.209-6.799c-50.854-50.313-51.14-48.091-51.953-52.617
	l-38.541,5.601c-6.301,0.916-8.817,8.659-4.257,13.102l49.76,48.504c1.811,1.765,2.637,4.307,2.209,6.799l-11.748,68.489
	c-1.076,6.275,5.51,11.061,11.146,8.098l34.465-18.12C134.386,432.701,135.927,434.136,147.472,363.766z"/>
<path d="M337.015,478.124c-28.976-11.829-59.024-28.492-89.352-49.548l-4.554-26.555c47.393,36.76,111.502,69.859,171.207,69.859
	c30.334,0,56.607-15.851,61.856-45.975c0.712-4.079-2.019-7.965-6.099-8.677c-4.083-0.718-7.965,2.019-8.677,6.099
	c-3.973,22.725-23.842,33.556-47.07,33.556c-60.549,0-130.961-38.921-175.084-77.41c-0.391-2.449-0.482-2.424-0.356-2.544
	l11.273-10.989c39.345,26.084,132.487,83.326,175.651,64.162c12.317-5.466,19.699-16.186,21.94-31.861
	c0.038-0.267,0.062-0.535,0.07-0.804C452.706,255.194,218.822,17.84,71.857,15.403c47.105-3.608,114.867,22.725,184.409,72.2
	c3.377,2.402,8.057,1.612,10.458-1.764c2.401-3.375,1.611-8.057-1.764-10.458C165.964,4.95,50.226-31.195,7.821,34.577
	c-6.294,9.756,6.717,20.693,15.378,12.036c26.827-26.829,78.003-15.302,113.397-1.39
	c151.039,59.371,299.391,248.703,296.248,351.288c-1.534,10.141-5.828,16.647-13.119,19.884
	c-28.968,12.857-99.463-22.28-158.576-61.168l27.496-26.803c9.008-8.778,4.032-24.086-8.413-25.893l-68.767-9.993
	c-0.18-0.027,1.309,2.758-30.891-62.413c-4.477-9.077-13.998-8.576-13.612-8.463c-5.82,0-11.037,3.243-13.613,8.462
	c-32.09,64.953-30.7,62.386-30.892,62.414l-12.913,1.877c-4.099,0.596-6.937,4.4-6.342,8.5c0.595,4.099,4.395,6.943,8.5,6.342
	l12.911-1.877c4.946-0.718,9.22-3.822,11.433-8.305c1.154-2.338-6.883,13.945,30.798-62.393c0.049-0.029,0.188-0.029,0.229-0.006
	l30.807,62.399c2.213,4.481,6.485,7.587,11.431,8.305c2.58,0.375-15.389-2.238,68.857,10.012c0.043,0.038,0.085,0.169,0.076,0.216
	l-49.825,48.581c-3.58,3.489-5.211,8.512-4.365,13.436c0.44,2.569-2.628-15.327,11.757,68.581
	c-0.212,0.497,3.521,1.905-61.784-32.236c-4.423-2.321-9.702-2.322-14.127,0.001c-2.307,1.213,13.764-7.235-61.592,32.375
	c-0.057-0.006-0.168-0.086-0.188-0.13l11.756-68.593c0.844-4.925-0.789-9.948-4.366-13.434l-49.822-48.573
	c-0.013-0.057,0.03-0.187,0.065-0.22c32.245-4.7,17.029-2.483,21.272-3.102c4.099-0.596,6.937-4.4,6.342-8.5
	c-0.595-4.1-4.397-6.945-8.5-6.342l-21.174,3.078c-12.445,1.81-17.42,17.117-8.413,25.893
	c51.959,50.692,49.844,48.483,49.813,48.667l-11.747,68.489c-2.129,12.398,10.898,21.855,22.025,16.003
	c64.14-33.685,61.51-32.428,61.678-32.336l61.507,32.336c9.955,5.234,21.805-1.802,22.238-12.791
	c36.836,24.293,78.192,43.778,83.388,43.778C342.375,492.567,344.598,481.218,337.015,478.124z"/>
<path d="M293.335,96.774c-3.24-2.58-7.958-2.044-10.538,1.195c-2.58,3.241-2.045,7.958,1.195,10.538
	c157.057,125.041,248.932,309.514,188.493,369.954c-20.095,20.093-56.738,23.95-103.19,10.863c-3.986-1.121-8.129,1.198-9.252,5.184
	c-1.124,3.987,1.198,8.129,5.184,9.252c118.953,33.52,170.658-38.316,122.994-159.575
	C451.935,251.874,371.95,159.368,293.335,96.774z"/>
<g>
</g>
<g>
</g>
<g>
</g>
<g>
</g>
<g>
</g>
<g>
</g>
<g>
</g>
<g>
</g>
<g>
</g>
<g>
</g>
<g>
</g>
<g>
</g>
<g>
</g>
<g>
</g>
<g>
</g>
</svg>
