<?xml version="1.0" encoding="iso-8859-1"?>
<!-- Generator: Adobe Illustrator 19.0.0, SVG Export Plug-In . SVG Version: 6.00 Build 0)  -->
<svg version="1.1" id="Capa_1" xmlns="http://www.w3.org/2000/svg" xmlns:xlink="http://www.w3.org/1999/xlink" x="0px" y="0px"
	 viewBox="0 0 512.001 512.001" style="enable-background:new 0 0 512.001 512.001;" xml:space="preserve">
<path style="fill:#C0C5CB;" d="M354.825,406.592H67.902c-8.399,0-15.208-6.809-15.208-15.208l0,0
	c0-8.399,6.809-15.208,15.208-15.208h286.795l60.727-347.505c2.047-11.712,12.216-20.259,24.106-20.259h49.659
	c8.399,0,15.208,6.809,15.208,15.208l0,0c0,8.399-6.809,15.208-15.208,15.208h-44.665l-59.889,342.711
	C382.105,396.023,369.529,406.592,354.825,406.592z"/>
<g>
	<polygon style="fill:#EE0300;" points="110.819,340.745 75.161,340.745 41.106,145.86 35.519,113.915 81.072,113.915 
		85.259,145.86 	"/>
	<polygon style="fill:#EE0300;" points="182.952,113.918 190.566,340.75 146.524,340.75 126.693,113.918 	"/>
	<polygon style="fill:#EE0300;" points="253.071,113.918 309.34,113.918 289.509,340.75 245.457,340.75 	"/>
	<polygon style="fill:#EE0300;" points="400.53,113.915 394.943,145.86 360.888,340.745 325.22,340.745 350.78,145.86 
		354.967,113.915 	"/>
	<polygon style="fill:#EE0300;" points="182.952,113.918 190.566,340.75 146.524,340.75 126.693,113.918 	"/>
	<polygon style="fill:#EE0300;" points="309.34,113.918 289.509,340.75 245.457,340.75 253.071,113.918 	"/>
	<polygon style="fill:#EE0300;" points="190.569,340.745 146.527,340.745 129.484,145.86 126.696,113.915 182.955,113.915 
		184.03,145.86 	"/>
	<polygon style="fill:#EE0300;" points="309.343,113.915 306.555,145.86 289.512,340.745 245.46,340.745 251.999,145.86 
		253.074,113.915 	"/>
</g>
<path style="fill:#E9E7EC;" d="M150.714,461.419c0,23.289-18.88,42.17-42.17,42.17s-42.17-18.88-42.17-42.17l38.057-20.56
	L150.714,461.419z"/>
<path style="fill:#EE0300;" d="M163.371,461.419c0-30.28-24.547-54.827-54.827-54.827s-54.827,24.547-54.827,54.827H163.371z"/>
<path style="fill:#FF5767;" d="M117.455,407.379c-2.907-0.475-5.868-0.787-8.909-0.787c-30.28,0-54.827,24.547-54.827,54.827h17.819
	C71.537,434.179,91.422,411.643,117.455,407.379z"/>
<path style="fill:#E9E7EC;" d="M384.704,461.419c0,23.289-18.88,42.17-42.17,42.17c-23.289,0-42.17-18.88-42.17-42.17l38.057-20.56
	L384.704,461.419z"/>
<path style="fill:#EE0300;" d="M397.363,461.419c0-30.28-24.547-54.827-54.827-54.827c-30.28,0-54.827,24.547-54.827,54.827H397.363
	z"/>
<path style="fill:#FF5767;" d="M351.445,407.379c-2.907-0.475-5.868-0.787-8.909-0.787c-30.28,0-54.827,24.547-54.827,54.827h17.819
	C305.527,434.179,325.412,411.643,351.445,407.379z"/>
<g>
	<polygon style="fill:#C10202;" points="81.072,113.915 85.259,145.86 41.106,145.86 35.519,113.915 	"/>
	<polygon style="fill:#C10202;" points="182.955,113.915 184.03,145.86 129.484,145.86 126.696,113.915 	"/>
	<polygon style="fill:#C10202;" points="253.074,113.915 309.343,113.915 306.555,145.86 251.999,145.86 	"/>
	<polygon style="fill:#C10202;" points="400.53,113.915 394.943,145.86 350.78,145.86 354.967,113.915 	"/>
</g>
<path style="fill:#EE0300;" d="M26.609,75.911h380.559l-6.642,38.007H26.609c-10.495,0-19.003-8.508-19.003-19.003l0,0
	C7.605,84.419,16.113,75.911,26.609,75.911z"/>
<path d="M489.189,0.808h-49.66c-15.584,0-28.913,11.202-31.596,26.553l-7.155,40.946h-43.893c-4.199,0-7.604,3.405-7.604,7.604l0,0
	c0,4.199,3.405,7.604,7.604,7.604h41.236l-3.984,22.799H26.944c-5.932,0-11.126-4.394-11.683-10.3
	c-0.639-6.778,4.699-12.499,11.347-12.499h294.79c4.199,0,7.604-3.405,7.604-7.604l0,0c0-4.199-3.405-7.604-7.604-7.604H27.173
	c-14.478,0-26.731,11.33-27.161,25.801c-0.447,15.038,11.656,27.414,26.596,27.414h2.518l38.54,220.539
	c0.636,3.64,3.796,6.295,7.49,6.295h276.681l-3.532,20.214h-214.47c-4.199,0-7.604,3.405-7.604,7.604l0,0
	c0,4.199,3.405,7.604,7.604,7.604h220.862c3.695,0,6.855-2.655,7.49-6.295L422.914,29.98c1.41-8.072,8.42-13.963,16.615-13.963
	h49.395c3.865,0,7.313,2.771,7.805,6.603c0.595,4.637-3.018,8.605-7.54,8.605h-44.665c-3.695,0-6.855,2.655-7.49,6.295
	L377.145,380.23c-1.899,10.87-11.286,18.758-22.321,18.758H68.167c-3.864,0-7.312-2.771-7.804-6.603
	c-0.595-4.637,3.017-8.605,7.54-8.605H98.35c4.199,0,7.604-3.405,7.604-7.604l0,0c0-4.199-3.405-7.604-7.604-7.604H68.459
	c-12.337,0-22.863,9.562-23.351,21.889c-0.514,12.956,9.844,23.665,22.673,23.731c-13.27,11.47-21.686,28.411-21.667,47.291
	c0.004,4.173,3.431,7.539,7.604,7.539h5.634c3.671,23.849,24.333,42.171,49.193,42.171c24.861,0,45.521-18.32,49.194-42.171h5.634
	c4.173,0,7.6-3.366,7.604-7.539c0.019-18.879-8.396-35.819-21.664-47.288h152.456c-13.268,11.47-21.683,28.409-21.664,47.288
	c0.004,4.173,3.431,7.539,7.604,7.539h5.634c3.671,23.849,24.333,42.171,49.194,42.171c24.86,0,45.521-18.32,49.193-42.171h5.634
	c4.184,0,7.602-3.385,7.604-7.569c0.012-22.463-11.905-42.188-29.746-53.197c8.695-5.554,15.017-14.598,16.906-25.408l58.79-336.415
	h37.714c12.353,0,22.888-9.587,23.355-21.931C512.476,11.524,502.061,0.808,489.189,0.808z M197.925,333.148l-7.105-211.625h54.396
	l-7.105,211.625H197.925z M44.566,121.523h29.836l27.75,211.626H81.548L44.566,121.523z M89.741,121.523h29.985l18.506,211.626
	h-20.741L89.741,121.523z M134.991,121.523h40.612l7.105,211.626h-29.211L134.991,121.523z M253.327,333.149l7.105-211.626h40.617
	l-18.506,211.626H253.327z M297.808,333.149l18.506-211.626h29.987l-27.75,211.626H297.808z M333.89,333.149l27.75-211.626h29.837
	l-36.983,211.626H333.89z M108.545,495.984c-16.447,0-30.237-11.55-33.712-26.963h67.425
	C138.783,484.435,124.992,495.984,108.545,495.984z M155.156,453.815H61.934c3.646-22.438,23.16-39.619,46.611-39.619
	S151.51,431.377,155.156,453.815z M342.536,495.984c-16.447,0-30.238-11.55-33.713-26.963h67.425
	C372.773,484.435,358.982,495.984,342.536,495.984z M389.146,453.815h-93.223c3.647-22.438,23.16-39.619,46.611-39.619
	C365.987,414.196,385.5,431.377,389.146,453.815z"/>
<g>
</g>
<g>
</g>
<g>
</g>
<g>
</g>
<g>
</g>
<g>
</g>
<g>
</g>
<g>
</g>
<g>
</g>
<g>
</g>
<g>
</g>
<g>
</g>
<g>
</g>
<g>
</g>
<g>
</g>
</svg>
