<?xml version="1.0" encoding="iso-8859-1"?>
<!-- Generator: Adobe Illustrator 19.0.0, SVG Export Plug-In . SVG Version: 6.00 Build 0)  -->
<svg version="1.1" id="Capa_1" xmlns="http://www.w3.org/2000/svg" xmlns:xlink="http://www.w3.org/1999/xlink" x="0px" y="0px"
	 viewBox="0 0 512.001 512.001" style="enable-background:new 0 0 512.001 512.001;" xml:space="preserve">
<rect x="49.485" y="130.734" style="fill:#CDD8DE;" width="413.03" height="53.21"/>
<rect x="49.485" y="130.734" style="fill:#A7B2B7;" width="94.784" height="53.21"/>
<path style="fill:#CDD8DE;" d="M432.838,130.738H79.164v-29.266c0-13.221,10.718-23.94,23.94-23.94h305.792
	c13.221,0,23.94,10.718,23.94,23.94L432.838,130.738L432.838,130.738z"/>
<path style="fill:#A7B2B7;" d="M194.317,77.532h-91.212c-13.222,0-23.94,10.718-23.94,23.94v29.266h91.213v-29.266
	C170.377,88.25,181.094,77.532,194.317,77.532z"/>
<polyline style="fill:#CDD8DE;" points="221.036,7.602 221.036,77.532 290.965,77.532 290.965,7.602 "/>
<polyline style="fill:#A7B2B7;" points="221.036,7.602 221.036,77.532 256.001,77.532 256.001,7.602 "/>
<path d="M369.731,183.945L369.731,183.945c0,4.198,3.403,7.601,7.601,7.601h85.185c4.198,0,7.601-3.403,7.601-7.601v-53.207
	c0-4.198-3.403-7.601-7.601-7.601h-22.079v-21.665c0-17.42-14.121-31.542-31.542-31.542H298.567V7.92
	c0-4.163-3.208-7.792-7.368-7.917c-4.304-0.129-7.835,3.322-7.835,7.598V69.93h-54.726V7.92c0-4.163-3.208-7.792-7.368-7.917
	c-4.304-0.129-7.835,3.322-7.835,7.598V69.93h-49.953c-4.198,0-7.601,3.403-7.601,7.601l0,0c0,4.198,3.403,7.601,7.601,7.601h57.555
	h69.929h117.931c9.023,0,16.339,7.316,16.339,16.339v21.665H86.765v-21.665c0-9.023,7.316-16.339,16.339-16.339h24.901
	c4.198,0,7.601-3.403,7.601-7.601l0,0c0-4.198-3.403-7.601-7.601-7.601h-24.901c-17.42,0-31.542,14.121-31.542,31.542v21.665H49.484
	c-4.198,0-7.601,3.403-7.601,7.601v53.207c0,4.198,3.403,7.601,7.601,7.601h292.374c4.198,0,7.601-3.403,7.601-7.601l0,0
	c0-4.198-3.403-7.601-7.601-7.601H57.085V138.34h22.079h353.673h22.079v38.004h-77.584
	C373.134,176.344,369.731,179.747,369.731,183.945z"/>
<path d="M80.195,205.343c-4.145-0.723-8.071,2.054-8.787,6.192L20.889,503.101c-0.717,4.136,2.055,8.071,6.192,8.787
	c0.439,0.076,0.876,0.112,1.306,0.112c3.628,0,6.84-2.607,7.481-6.305l50.518-291.566C87.103,209.993,84.331,206.059,80.195,205.343
	z"/>
<path d="M130.193,205.262c-4.172-0.379-7.88,2.692-8.265,6.874L95.113,503.702c-0.384,4.18,2.693,7.88,6.874,8.265
	c0.236,0.021,0.471,0.031,0.704,0.031c3.884,0,7.198-2.962,7.561-6.905l26.816-291.566
	C137.451,209.348,134.374,205.647,130.193,205.262z"/>
<path d="M180.518,205.242c-4.16-0.238-7.777,2.979-8.008,7.171l-16.07,291.566c-0.232,4.192,2.979,7.778,7.171,8.008
	c0.143,0.008,0.284,0.012,0.426,0.012c4.006,0,7.36-3.134,7.582-7.183l16.07-291.566
	C187.921,209.059,184.71,205.472,180.518,205.242z"/>
<path d="M230.7,205.23c-4.199,0-7.601,3.402-7.601,7.601v291.566c0,4.199,3.402,7.601,7.601,7.601s7.601-3.402,7.601-7.601V212.832
	C238.302,208.634,234.899,205.23,230.7,205.23z"/>
<path d="M281.301,205.23c-4.199,0-7.601,3.402-7.601,7.601v291.566c0,4.199,3.402,7.601,7.601,7.601
	c4.199,0,7.601-3.402,7.601-7.601V212.832C288.903,208.634,285.499,205.23,281.301,205.23z"/>
<path d="M339.493,212.413c-0.231-4.192-3.81-7.417-8.008-7.171c-4.192,0.231-7.403,3.817-7.171,8.008l16.069,291.566
	c0.223,4.049,3.576,7.183,7.582,7.183c0.141,0,0.283-0.004,0.426-0.012c4.192-0.231,7.403-3.817,7.171-8.008L339.493,212.413z"/>
<path d="M491.112,503.101l-50.518-291.566c-0.717-4.136-4.655-6.906-8.787-6.192c-4.136,0.717-6.908,4.651-6.192,8.787
	l50.518,291.566c0.641,3.697,3.851,6.305,7.481,6.305c0.431,0,0.868-0.037,1.306-0.113
	C489.056,511.171,491.829,507.237,491.112,503.101z"/>
<path d="M390.073,212.136c-0.385-4.18-4.087-7.261-8.265-6.874c-4.181,0.385-7.258,4.085-6.874,8.265l26.816,291.566
	c0.363,3.945,3.677,6.905,7.561,6.905c0.232,0,0.468-0.01,0.704-0.031c4.181-0.385,7.258-4.086,6.874-8.265L390.073,212.136z"/>
<g>
</g>
<g>
</g>
<g>
</g>
<g>
</g>
<g>
</g>
<g>
</g>
<g>
</g>
<g>
</g>
<g>
</g>
<g>
</g>
<g>
</g>
<g>
</g>
<g>
</g>
<g>
</g>
<g>
</g>
</svg>
