<?xml version="1.0" encoding="iso-8859-1"?>
<!-- Generator: Adobe Illustrator 19.0.0, SVG Export Plug-In . SVG Version: 6.00 Build 0)  -->
<svg version="1.1" id="Capa_1" xmlns="http://www.w3.org/2000/svg" xmlns:xlink="http://www.w3.org/1999/xlink" x="0px" y="0px"
	 viewBox="0 0 512.001 512.001" style="enable-background:new 0 0 512.001 512.001;" xml:space="preserve">
<circle style="fill:#F4D44E;" cx="256.454" cy="255.214" r="248.424"/>
<path style="fill:#E8C842;" d="M175.535,445.354C18.801,354.864,9.339,133.291,154.285,28.757
	c-45.863,20.645-85.91,55.355-112.979,102.238c-68.602,118.82-27.89,270.757,90.931,339.357
	c87.428,50.477,192.782,41.766,269.678-13.69C331.542,488.341,247.473,486.888,175.535,445.354z"/>
<g>
	<circle style="fill:#ED694A;" cx="399.995" cy="318.68" r="18.801"/>
	<circle style="fill:#ED694A;" cx="112.914" cy="318.68" r="18.801"/>
</g>
<g>
	<path style="fill:#D8553A;" d="M400,299.895c-14.336-0.02-23.569,15.58-16.291,28.187c7.282,12.611,25.408,12.406,32.557-0.015
		C409.777,328.058,392.772,312.454,400,299.895z"/>
	<path style="fill:#D8553A;" d="M112.918,299.895c-14.336-0.02-23.569,15.58-16.291,28.187c7.282,12.611,25.408,12.406,32.557-0.015
		C114.723,328.046,105.691,312.454,112.918,299.895z"/>
</g>
<circle style="fill:#EAE9E8;" cx="343.409" cy="235.985" r="44.818"/>
<path style="fill:#DBDBDB;" d="M326.243,245.899c-10.206-17.678-6.991-39.41,6.47-53.433c-29.048,7.151-43.006,40.146-28.119,65.932
	c14.871,25.757,50.414,30.221,71.157,8.613C356.879,271.659,336.449,263.577,326.243,245.899z"/>
<circle style="fill:#EAE9E8;" cx="170.17" cy="235.985" r="44.818"/>
<path style="fill:#DBDBDB;" d="M153.006,245.899c-10.206-17.678-6.991-39.41,6.47-53.433c-29.048,7.151-43.006,40.146-28.119,65.932
	c14.871,25.757,50.414,30.221,71.157,8.613C183.642,271.659,163.212,263.577,153.006,245.899z"/>
<path d="M399.554,345.778c14.502,0,26.301-11.798,26.301-26.3c0-14.502-11.799-26.3-26.301-26.3s-26.3,11.798-26.3,26.3
	C373.254,333.98,385.052,345.778,399.554,345.778z M399.554,308.175c6.232,0,11.302,5.07,11.302,11.301
	c0,6.232-5.07,11.301-11.302,11.301c-6.231,0-11.301-5.07-11.301-11.301C388.253,313.245,393.323,308.175,399.554,308.175z"/>
<path d="M112.473,293.176c-14.502,0-26.301,11.798-26.301,26.3c0,14.502,11.799,26.3,26.301,26.3s26.3-11.798,26.3-26.3
	C138.773,304.975,126.975,293.176,112.473,293.176z M112.473,330.779c-6.232,0-11.302-5.07-11.302-11.301
	c0-6.232,5.07-11.301,11.302-11.301c6.231,0,11.301,5.07,11.301,11.301C123.774,325.709,118.704,330.779,112.473,330.779z"/>
<path d="M317.735,143.44c16.012-4.178,33.267-1.556,48.585,7.384c3.577,2.085,8.169,0.882,10.257-2.698
	c2.088-3.577,0.88-8.169-2.697-10.257c-18.77-10.953-40.056-14.128-59.932-8.941c-4.008,1.045-6.409,5.143-5.363,9.149
	S313.728,144.488,317.735,143.44z"/>
<path d="M145.707,150.824c15.319-8.939,32.573-11.56,48.585-7.384c4.004,1.047,8.103-1.355,9.149-5.363
	c1.046-4.008-1.355-8.104-5.363-9.149c-19.876-5.188-41.161-2.012-59.932,8.941c-3.577,2.088-4.785,6.681-2.697,10.257
	C137.547,151.72,142.147,152.9,145.707,150.824z"/>
<circle cx="342.289" cy="236.785" r="9.663"/>
<path d="M222.051,236.786c0-28.848-23.47-52.318-52.318-52.318s-52.318,23.469-52.318,52.318c0,28.848,23.47,52.318,52.318,52.318
	S222.051,265.634,222.051,236.786z M132.415,236.786c0-20.578,16.741-37.319,37.319-37.319s37.319,16.741,37.319,37.319
	s-16.741,37.319-37.319,37.319S132.415,257.364,132.415,236.786z"/>
<circle cx="169.73" cy="236.785" r="9.663"/>
<path d="M214.552,368.884h82.923c4.143,0,7.5-3.358,7.5-7.5s-3.357-7.5-7.5-7.5h-82.923c-4.143,0-7.5,3.358-7.5,7.5
	S210.41,368.884,214.552,368.884z"/>
<path d="M342.293,289.104c34.821,0,60.194-33.669,50.12-67.332c-1.188-3.968-5.368-6.225-9.335-5.035
	c-3.968,1.188-6.223,5.367-5.035,9.334c7.179,23.986-10.883,48.032-35.75,48.032c-20.578,0-37.319-16.741-37.319-37.319
	c0-27.947,29.68-45.852,54.309-33.222c3.681,1.888,8.204,0.435,10.095-3.252c1.89-3.686,0.434-8.205-3.252-10.095
	c-34.531-17.705-76.152,7.376-76.152,46.569C289.975,265.634,313.446,289.104,342.293,289.104z"/>
<path d="M129.206,33.718c-3.598,2.053-4.851,6.633-2.797,10.23c2.052,3.598,6.632,4.85,10.229,2.797
	c115.174-65.718,261.663-26.142,328.024,88.796c54.643,94.646,38.705,214.458-38.762,291.362c-2.939,2.918-2.957,7.667-0.038,10.606
	s7.667,2.956,10.605,0.039c82.293-81.697,99.228-208.97,41.183-309.506C407.226,6.058,251.655-36.151,129.206,33.718z"/>
<path d="M408.997,461.18c3.324-2.472,4.015-7.17,1.543-10.493c-2.474-3.324-7.17-4.016-10.493-1.542
	c-116.238,86.442-280.733,51.948-352.683-72.675c-60.754-105.228-33.223-238.008,61.022-310.88c3.276-2.534,3.879-7.244,1.346-10.52
	c-2.536-3.277-7.246-3.878-10.52-1.345C-0.899,131.131-30.174,272.168,34.375,383.968
	C110.715,516.192,285.415,553.084,408.997,461.18z"/>
<g>
</g>
<g>
</g>
<g>
</g>
<g>
</g>
<g>
</g>
<g>
</g>
<g>
</g>
<g>
</g>
<g>
</g>
<g>
</g>
<g>
</g>
<g>
</g>
<g>
</g>
<g>
</g>
<g>
</g>
</svg>
