<?xml version="1.0" encoding="iso-8859-1"?>
<!-- Generator: Adobe Illustrator 19.0.0, SVG Export Plug-In . SVG Version: 6.00 Build 0)  -->
<svg version="1.1" id="Layer_1" xmlns="http://www.w3.org/2000/svg" xmlns:xlink="http://www.w3.org/1999/xlink" x="0px" y="0px"
	 viewBox="0 0 512.001 512.001" style="enable-background:new 0 0 512.001 512.001;" xml:space="preserve">
<circle style="fill:#9AD14B;" cx="256.005" cy="256.004" r="246.855"/>
<g>
	<path style="fill:#90BC42;" d="M126.308,385.694c-88.802-88.802-95.799-228.426-20.999-325.241
		c-8.286,6.401-16.258,13.399-23.858,20.999c-96.401,96.401-96.401,252.698,0,349.099s252.698,96.401,349.099,0
		c7.599-7.599,14.597-15.573,20.999-23.858C354.735,481.492,215.109,474.495,126.308,385.694z"/>
	<path style="fill:#90BC42;" d="M286.187,393.239c-1.028,0-2.075-0.174-3.099-0.543c-17.468-6.289-36.707-6.289-54.174,0
		c-4.754,1.712-9.996-0.755-11.708-5.509c-1.712-4.754,0.755-9.996,5.509-11.708c21.465-7.728,45.107-7.728,66.571,0
		c4.754,1.712,7.221,6.954,5.509,11.708C293.453,390.916,289.936,393.239,286.187,393.239z"/>
</g>
<path d="M256.001,0C114.842,0,0.001,114.841,0.001,256.001s114.841,256.001,256.001,256.001
	c141.158,0,255.999-114.841,255.999-256.001S397.159,0,256.001,0z M256.001,493.701c-131.069,0-237.702-106.631-237.702-237.7
	S124.932,18.299,256.001,18.299c131.068,0,237.7,106.632,237.7,237.702S387.069,493.701,256.001,493.701z"/>
<path d="M367.204,309.676c5.053,0,9.15-4.097,9.15-9.15c0-5.053-4.097-9.15-9.15-9.15c-27.151,0-49.748,19.818-54.118,45.745
	H198.917c-4.37-25.927-26.967-45.745-54.118-45.745c-5.053,0-9.15,4.097-9.15,9.15c0,5.053,4.097,9.15,9.15,9.15
	c20.179,0,36.596,16.417,36.596,36.596s-16.417,36.596-36.596,36.596c-5.053,0-9.15,4.097-9.15,9.15s4.097,9.15,9.15,9.15
	c27.151,0,49.748-19.818,54.118-45.745h114.169c4.37,25.927,26.967,45.745,54.118,45.745c5.053,0,9.15-4.097,9.15-9.15
	s-4.097-9.15-9.15-9.15c-20.179,0-36.596-16.417-36.596-36.596C330.608,326.092,347.025,309.676,367.204,309.676z"/>
<path d="M180.577,237.442c0-18.666-15.186-33.852-33.852-33.852s-33.852,15.186-33.852,33.852s15.186,33.852,33.852,33.852
	S180.577,256.108,180.577,237.442z"/>
<path d="M365.277,203.59c-18.666,0-33.852,15.186-33.852,33.852s15.186,33.852,33.852,33.852s33.852-15.186,33.852-33.852
	S383.942,203.59,365.277,203.59z"/>
<path d="M119.786,183.424c4.089,1.031,8.208,1.535,12.281,1.535c12.923,0,25.375-5.077,34.834-14.537
	c12.441-12.441,17.301-30.054,13.002-47.115c-1.235-4.9-6.208-7.872-11.108-6.636c-4.9,1.235-7.871,6.207-6.636,11.108
	c2.711,10.756-0.354,21.86-8.198,29.704c-7.843,7.844-18.947,10.906-29.704,8.198c-4.902-1.238-9.873,1.736-11.108,6.636
	C111.915,177.217,114.887,182.189,119.786,183.424z"/>
<path d="M379.934,184.959c4.072,0,8.193-0.504,12.281-1.535c4.901-1.235,7.871-6.207,6.636-11.108
	c-1.235-4.9-6.206-7.871-11.108-6.636c-10.756,2.709-21.86-0.354-29.704-8.198c-7.844-7.843-10.907-18.947-8.198-29.704
	c1.235-4.9-1.736-9.873-6.636-11.108c-4.899-1.237-9.873,1.736-11.108,6.636c-4.299,17.061,0.561,34.673,13.002,47.115
	C354.56,179.882,367.01,184.96,379.934,184.959z"/>
<g>
	<path style="fill:#FFFFFF;" d="M373.44,238.887c-2.415,0-4.77-0.976-6.479-2.684c-0.415-0.427-0.804-0.891-1.135-1.391
		c-0.329-0.5-0.61-1.025-0.842-1.586c-0.231-0.549-0.401-1.122-0.525-1.708c-0.11-0.586-0.171-1.183-0.171-1.781
		s0.061-1.196,0.171-1.793c0.123-0.586,0.293-1.159,0.525-1.708c0.232-0.549,0.514-1.086,0.842-1.586
		c0.331-0.5,0.72-0.964,1.135-1.391c2.123-2.123,5.282-3.099,8.26-2.501c0.584,0.122,1.159,0.293,1.707,0.525
		c0.561,0.232,1.087,0.512,1.587,0.842c0.499,0.329,0.964,0.72,1.391,1.135c0.427,0.427,0.805,0.891,1.135,1.391
		c0.331,0.5,0.61,1.037,0.842,1.586c0.231,0.549,0.403,1.122,0.525,1.708c0.123,0.598,0.183,1.196,0.183,1.793
		c0,0.598-0.061,1.196-0.183,1.781c-0.122,0.586-0.293,1.159-0.525,1.708c-0.232,0.561-0.512,1.086-0.842,1.586
		c-0.329,0.5-0.708,0.964-1.135,1.391c-0.427,0.427-0.891,0.805-1.391,1.135c-0.5,0.329-1.026,0.61-1.587,0.842
		c-0.548,0.232-1.122,0.403-1.707,0.525C374.635,238.826,374.025,238.887,373.44,238.887z"/>
	<path style="fill:#FFFFFF;" d="M158.731,238.887c-0.598,0-1.196-0.061-1.793-0.183c-0.586-0.122-1.159-0.293-1.708-0.525
		c-0.549-0.232-1.086-0.512-1.586-0.842c-0.5-0.329-0.964-0.708-1.391-1.135c-1.696-1.696-2.672-4.062-2.672-6.466
		c0-0.598,0.061-1.208,0.171-1.793c0.122-0.586,0.293-1.159,0.525-1.708c0.232-0.549,0.512-1.086,0.842-1.586
		c0.329-0.5,0.72-0.964,1.135-1.391c0.427-0.415,0.891-0.805,1.391-1.135c0.5-0.329,1.037-0.61,1.586-0.842
		c0.549-0.232,1.122-0.403,1.708-0.525c2.977-0.598,6.136,0.378,8.259,2.501c0.427,0.427,0.805,0.891,1.135,1.391
		c0.329,0.5,0.622,1.037,0.842,1.586c0.232,0.549,0.403,1.122,0.525,1.708c0.122,0.586,0.183,1.196,0.183,1.793
		c0,2.403-0.976,4.77-2.684,6.466C163.488,237.911,161.134,238.887,158.731,238.887z"/>
</g>
<g>
</g>
<g>
</g>
<g>
</g>
<g>
</g>
<g>
</g>
<g>
</g>
<g>
</g>
<g>
</g>
<g>
</g>
<g>
</g>
<g>
</g>
<g>
</g>
<g>
</g>
<g>
</g>
<g>
</g>
</svg>
