<?xml version="1.0" encoding="iso-8859-1"?>
<!-- Generator: Adobe Illustrator 19.0.0, SVG Export Plug-In . SVG Version: 6.00 Build 0)  -->
<svg version="1.1" id="Capa_1" xmlns="http://www.w3.org/2000/svg" xmlns:xlink="http://www.w3.org/1999/xlink" x="0px" y="0px"
	 viewBox="0 0 512 512" style="enable-background:new 0 0 512 512;" xml:space="preserve">
<path style="fill:#DBDBDB;" d="M467.228,284.541c-8.288-16.534-6.528-4.382-6.529-72.354c0-53.735-21.051-102.884-55.118-139.366
	C283.573-58.077,68.082,19.875,52.066,194.363c-1.598,17.537-0.371,58.711-0.793,70.735c0,16.194-14.558,22.368-12.892,51.284
	c0.959,16.289,7.986,31.548,18.627,42.475c8.467,8.633,9.99,8.604,59.587,37.902c12.376,7.313,21.229,19.363,24.507,33.361
	c3.918,16.736,5.284,33.745,4.895,50.907c0,0.104,0,7.79,0,7.668c0.106,2.129,0.056,1.438,0.195,2.362
	c0.296,1.971,0.937,3.905,2.115,5.842c1.449,2.381,3.287,3.862,3.186,3.768c2.269,2.109,6.118,3.824,10.26,3.824l0,0l0,0l0,0l0,0
	c0.107-0.031,8.988,0.147,13.634-7.891c1.03-1.782,3.352-1.533,4.289,0.07c2.734,4.677,7.794,7.821,13.593,7.821l0,0l0,0l0,0l0,0
	c0.107-0.031,8.925,0.156,13.59-7.828c1.068-1.829,3.387-1.631,4.322-0.025c5.238,9.006,17.423,10.487,24.674,3.295l0,0l0,0
	c2.885-2.849,2.504-4.572,4.262-4.572c1.273,0,1.877,1.183,1.877,1.183l0.003-0.003c6.033,10.542,21.767,10.619,27.905,0.139v0.001
	c0.385-0.712,1.011-1.32,1.823-1.32c1.191,0,1.923,1.393,1.923,1.393l0.002-0.005c0.748,1.26,1.612,2.336,2.47,3.183l0,0l0,0
	c4.948,4.908,10.968,4.518,11.068,4.559c0.108-0.031,9.013,0.14,13.648-7.927c0.731-1.273,2.185-1.23,2.084-1.203
	c0.893,0,1.715,0.476,2.163,1.248c4.801,8.293,13.522,7.853,13.622,7.882c0.108-0.032,9.071,0.142,13.691-8.004
	c0.675-1.191,2.051-1.153,1.951-1.126c0.949,0,1.819,0.508,2.299,1.326c7.907,13.481,28.506,8.359,29.291-7.177
	c0.063-1.206,0.041-8.591,0.041-8.485c0-0.168,0-8.701,0-8.535c0-14.266,1.642-28.482,4.895-42.373
	c3.277-13.998,12.129-26.048,24.507-33.361c50.772-29.988,47.311-27.876,49.91-29.672
	C472.411,348.228,480.976,312.121,467.228,284.541z"/>
<path style="fill:#C1BEBC;" d="M196,487.166c0,0.133,0-8.297,0-8.412c0.39-18.825-0.976-37.482-4.895-55.839
	c-3.277-15.354-12.129-28.572-24.507-36.593c-49.596-32.138-51.12-32.107-59.587-41.576c-10.642-11.985-17.668-28.723-18.627-46.59
	c-1.666-31.719,12.892-38.49,12.892-56.253c0.422-13.19-0.805-58.354,0.793-77.59c4.253-50.827,22.574-94.186,49.475-127.77
	c-53.126,31.408-92.94,86.562-99.48,157.822c-1.598,17.537-0.371,58.711-0.793,70.735c0,16.194-14.558,22.368-12.892,51.284
	c0.959,16.289,7.986,31.548,18.627,42.475c8.467,8.633,9.99,8.605,59.587,37.902c12.376,7.313,21.229,19.363,24.507,33.361
	c3.918,16.736,5.284,33.745,4.895,50.907c0,0.104,0,7.79,0,7.668c0.106,2.129,0.056,1.438,0.195,2.362
	c0.296,1.971,0.937,3.905,2.115,5.842c1.449,2.38,3.287,3.862,3.186,3.768c2.269,2.109,6.117,3.824,10.26,3.824l0,0l0,0l0,0l0,0
	c0.107-0.031,8.988,0.147,13.634-7.891c1.03-1.782,3.353-1.533,4.289,0.07c2.734,4.677,7.794,7.821,13.593,7.821l0,0l0,0l0,0l0,0
	c0.079-0.023,4.977,0.068,9.4-3.164C198.748,498.245,196.294,493.626,196,487.166z"/>
<path style="fill:#656566;" d="M238.739,353.73l-11.222,16.372c-6.311,9.206,2.963,21.071,13.423,17.178
	c12.922-4.811,14.501-5.572,18.391-4.158l11.468,4.169c10.505,3.819,19.729-8.083,13.41-17.303l-11.144-16.259
	C264.799,341.673,247.004,341.673,238.739,353.73z"/>
<path style="fill:#4F4F51;" d="M280.602,364.727c-2.729,1.656-6.19,2.201-9.802,0.888l-11.468-4.169
	c-3.89-1.414-5.47-0.653-18.391,4.158c-3.593,1.338-7.047,0.815-9.777-0.82l-3.646,5.32c-6.311,9.206,2.963,21.071,13.423,17.177
	c12.922-4.811,14.501-5.572,18.391-4.158l11.468,4.169c10.505,3.819,19.729-8.083,13.41-17.303L280.602,364.727z"/>
<path style="fill:#656566;" d="M379.929,268.866c0-26.582-23.069-48.132-51.524-48.132c-3.822,0-3.844-0.042-6.323,0l0,0
	c-41.124,1.776-44.494,60.593-5.843,88.229c29.889,21.37,63.316,6.975,63.685-26.951h0.004V268.866z"/>
<path style="fill:#4F4F51;" d="M341.242,302.964c-31.69-22.658-35.125-66.268-12.673-82.224c-4.86-0.022-4.692-0.034-6.487-0.004
	l0,0c-41.124,1.775-44.494,60.593-5.843,88.229c17.657,12.624,36.544,12.76,49.126,3.769
	C357.54,311.837,349.266,308.701,341.242,302.964z"/>
<path style="fill:#656566;" d="M132.047,268.866c0-26.582,23.069-48.132,51.524-48.132c2.623-0.002,4.862-0.025,6.323,0l0,0
	c41.124,1.776,44.494,60.593,5.843,88.229c-29.889,21.37-63.316,6.975-63.685-26.951h-0.004V268.866z"/>
<path style="fill:#4F4F51;" d="M157.282,268.039h-0.004c0.981-7.01-4.471-27.511,13.741-45.858
	c-22.389,5.237-38.973,24.149-38.973,46.686v13.146h0.004c0.399,36.728,39.218,50.036,69.993,21.831
	C178.518,309.447,157.574,294.853,157.282,268.039z"/>
<path d="M236.772,395.548c5.715,0,6.427-1.674,19.382-5.564c16.537,5.972,10.833,3.912,12.066,4.358
	c17.34,6.306,32.613-13.344,22.16-28.593l-11.145-16.259c-11.236-16.393-35.466-16.388-46.697-0.001l-11.224,16.372
	C212.377,378.898,222.334,395.548,236.772,395.548z M233.688,374.343l11.223-16.371h0.001c5.272-7.692,16.639-7.749,21.95,0
	l11.146,16.26c2.19,3.195-0.977,7.353-4.66,6.012l-11.469-4.17c-6.267-2.278-9.792-0.962-21.475,3.396
	c-0.798,0.026-4.129,2.644-6.569-0.485C233.301,378.302,232.221,376.484,233.688,374.343z"/>
<path d="M186.702,213.235h-3.146c-32.547,0-59.026,24.957-59.026,55.632c0.003,14.451-0.004,13.206,0.008,13.492
	c0.617,40.159,41.006,57.401,75.545,32.707C246.168,282.119,237.731,211.649,186.702,213.235z M159.289,310.565
	c-7.5-1.971-13.252-6.85-16.634-14.108c-4.387-9.417-2.769-17.647-3.123-27.59c0-21.652,18.411-41.979,49.999-40.638
	c11.009,0.612,18.657,6.12,22.806,15.022C226.896,274.495,190.531,318.776,159.289,310.565z"/>
<path d="M335.753,310.219c-4.003-1.08-8.117,1.289-9.194,5.29c-1.078,4,1.29,8.117,5.29,9.194
	c29.323,7.902,55.067-10.966,55.558-42.342c0.012-0.288,0.005,1.078,0.008-13.495c0-30.676-26.479-55.632-59.026-55.632h-3.146
	c-43.921-1.335-58.172,52.064-26.737,89.443c2.666,3.17,7.398,3.579,10.568,0.913s3.579-7.398,0.913-10.568
	c-21.819-25.944-16.527-63.45,12.299-64.787c31.892-1.449,50.127,19.211,50.127,40.633v12.904
	C371.544,305.241,354.933,315.386,335.753,310.219z"/>
<path d="M470.789,275.408c-11.554-19.734,19.542-104.812-45.698-191.028c-2.502-3.3-7.208-3.952-10.509-1.449
	c-3.302,2.502-3.95,7.207-1.449,10.509c25.257,33.299,38.656,72.516,39.946,112.587c0.222,6.864,0.034,16.08,0.107,59.075
	c0,17.729,9.783,18.804,12.69,41.517c1.497,14.881-3.235,26.099-3.073,25.549c-7.94,22.508-26.628,31.865-24.469,30.496
	c-4.968,2.962,17.635-10.423-46.785,27.639c-14.066,8.311-24.27,22.201-27.993,38.108c-6.815,29.103-4.7,49.753-5.092,60.22
	l-0.047,0.864c-0.106,0.547-0.321,1.663-0.302,1.563c-0.56,0.891-0.177,1.762-2.764,4.125l-0.001,0.001
	c-5.556,4.333-13.379,0.345-13.401-6.462v-28.863c0-4.143-3.357-7.501-7.501-7.501c-4.143,0-7.501,3.357-7.501,7.501
	c0,0.117-0.001,28.954-0.001,28.846c-0.004,4.57-3.708,8.287-8.258,8.287c-4.074,0-7.463-2.986-8.13-6.895v-30.238
	c0-4.143-3.357-7.501-7.501-7.501s-7.501,3.357-7.501,7.501c-0.057,21.581,0.124,26.759-0.171,29.701
	c-0.789,7.724-10.793,10.212-15.145,3.626c-1.579-2.478-1.005-1.462-1.073-33.328c0-4.143-3.357-7.501-7.501-7.501
	c-4.143,0-7.501,3.357-7.501,7.501v31.293c-2.433,7.895-14.018,7.699-16.389,0.003v-31.296c0-4.143-3.357-7.501-7.501-7.501
	s-7.501,3.357-7.501,7.501c-0.076,32.646,0.554,31.297-1.499,33.923c-4.326,5.948-14.764,3.154-14.764-5.076
	c0-0.458-0.047-0.904-0.126-1.339v-27.508c0-4.143-3.357-7.501-7.501-7.501c-4.143,0-7.501,3.357-7.501,7.501v30.23
	c-0.663,3.911-4.053,6.903-8.133,6.903c-4.549,0-8.252-3.718-8.257-8.288v-28.845c0-4.143-3.357-7.501-7.501-7.501
	c-4.143,0-7.501,3.357-7.501,7.501v28.845c-0.008,7.241-8.667,10.952-13.82,6.103c-1.501-1.295-2.179-3.362-2.32-3.646l-0.325-1.606
	c-0.451-11.969,1.643-32.162-5.141-61.143c-7.595-32.435-35.503-41.3-41.481-46.076c-3.564-2.107-8.166-0.923-10.273,2.642
	c-2.107,3.566-0.924,8.167,2.642,10.273c6.616,5.141,28.607,11.386,34.505,36.581c10.501,44.858-1.895,58.845,10.954,72.74
	c0.774,0.882,2.446,2.407,3.984,3.433c8.843,5.993,20.764,5.215,28.774-2.19c8.911,8.235,22.58,8.237,31.491,0.025
	c9.368,8.647,22.982,7.676,31.203,0.285c8.683,7.76,22.73,7.896,31.565,0c8.206,7.386,21.839,8.365,31.207-0.283
	c8.922,8.22,22.591,8.197,31.488-0.027c13.604,12.575,35.998,4.936,38.757-13.755c1.357-7.999-2.305-29.217,4.957-60.229
	c2.796-11.944,10.456-22.374,21.018-28.613c49.068-28.984,53.594-30.19,64.115-42.392c11.951-14.342,15.032-25.909,17.49-40.603
	h-0.001l0.008-0.08h0.001c0.582-5.607,0.357-8.7,0.283-11.549C480.741,302.61,476.934,286.037,470.789,275.408z"/>
<path d="M76.501,364.367c-7.079-4.188-9.07-6.078-8.97-6c-1.553-1.26-4.245-3.801-4.145-3.709
	c-6.31-6.223-9.793-12.763-9.735-12.663c-7.619-13.596-7.206-23.279-7.63-23.23l0.079,0.051l-0.028-0.198l0.012,0.111
	c-1.123-12.352,0.806-23.091,7.794-35.349c5.795-9.638,4.881-20.024,4.881-19.281c0.604-38.628-1.581-54.529,2.225-81.435
	c12.66-83.321,74.343-126.188,71.263-123.734c73.253-59.38,180.168-59.891,254.887,6.326c-0.13-0.15,3.268,2.985,3.37,3.078
	c3.605,3.357,9.638,2.481,11.972-2.412c1.39-2.912,0.575-6.41-1.79-8.605l-0.043-0.04c-1.195-1.111-1.16-1.222-3.037-2.771
	l0.082,0.066c-2.746-2.492-3.453-3.057-3.567-3.141l-0.033-0.025c-72.191-62.934-182.252-70.252-263.866-9.881l-0.003,0.002
	c-5.969,4.341-12.393,9.906-12.371,9.887c-2.384,1.938-1.583,1.381-3.222,2.824v0.001c-43.523,37.075-70.866,96.191-70.866,157.95
	c-0.814,62.724,2.233,54.118-4.382,66.365c-8.855,16.41-10.151,32.577-6.995,49.348c0.008,0.04,0.047,0.067,0.087,0.058l0.023,0.109
	l0,0c-0.04,0.009-0.064,0.049-0.055,0.089c5.177,21.324,15.866,37.044,36.697,49.285c3.855,2.281,8.888,0.708,10.714-3.495
	C81.376,370.43,79.799,366.32,76.501,364.367z"/>
<g>
</g>
<g>
</g>
<g>
</g>
<g>
</g>
<g>
</g>
<g>
</g>
<g>
</g>
<g>
</g>
<g>
</g>
<g>
</g>
<g>
</g>
<g>
</g>
<g>
</g>
<g>
</g>
<g>
</g>
</svg>
