<?xml version="1.0" encoding="iso-8859-1"?>
<!-- Generator: Adobe Illustrator 19.0.0, SVG Export Plug-In . SVG Version: 6.00 Build 0)  -->
<svg version="1.1" id="Layer_1" xmlns="http://www.w3.org/2000/svg" xmlns:xlink="http://www.w3.org/1999/xlink" x="0px" y="0px"
	 viewBox="0 0 512.001 512.001" style="enable-background:new 0 0 512.001 512.001;" xml:space="preserve">
<circle style="fill:#F7B239;" cx="256.004" cy="256.005" r="246.855"/>
<path style="fill:#E09B2D;" d="M126.306,385.694c-88.801-88.802-95.798-228.426-20.998-325.241
	c-8.286,6.401-16.258,13.399-23.858,20.999c-96.401,96.401-96.401,252.698,0,349.099s252.698,96.401,349.099,0
	c7.599-7.599,14.597-15.573,20.999-23.858C354.733,481.492,215.108,474.496,126.306,385.694z"/>
<path d="M256.001,512.001C114.841,512.001,0,397.16,0,256.001S114.841,0.001,256.001,0.001s256.001,114.841,256.001,256.001
	S397.16,512.001,256.001,512.001z M256.001,18.3c-131.069,0-237.702,106.632-237.702,237.702s106.632,237.702,237.702,237.702
	S493.702,387.07,493.702,256.001S387.068,18.3,256.001,18.3z"/>
<path d="M360.142,296.421C360.14,296.421,360.142,296.421,360.142,296.421c-22.618,0-43.046-11.592-54.646-31.007
	c-2.591-4.338-1.176-9.956,3.162-12.547c4.338-2.59,9.956-1.175,12.547,3.162c8.265,13.834,22.82,22.093,38.936,22.094
	c16.117,0,30.673-8.26,38.938-22.094c2.592-4.339,8.214-5.752,12.547-3.162c4.338,2.592,5.753,8.209,3.162,12.547
	C403.188,284.828,382.757,296.421,360.142,296.421z"/>
<path d="M151.859,296.421c-22.618,0-43.046-11.592-54.647-31.007c-2.591-4.338-1.176-9.956,3.162-12.547
	c4.341-2.59,9.957-1.175,12.547,3.162c8.265,13.834,22.821,22.094,38.938,22.094c16.115,0,30.671-8.26,38.936-22.094
	c2.592-4.337,8.209-5.753,12.547-3.162c4.338,2.592,5.753,8.209,3.162,12.547C194.905,284.83,174.477,296.42,151.859,296.421z"/>
<path style="fill:#A81004;" d="M374.392,378.59c-0.124,0.382-0.257,0.773-0.392,1.155c-0.095,0.267-0.192,0.534-0.287,0.803
	c-4.011,11.153-12.328,19.68-22.488,24.197l-0.067-0.143c-0.411-0.764-0.85-1.519-1.289-2.263
	c-11.22-18.907-31.837-31.568-55.432-31.568c-14.41,0-27.701,4.727-38.434,12.729c-10.733-8.002-24.044-12.729-38.463-12.729
	c-23.567,0-44.202,12.662-55.413,31.568c-0.439,0.745-0.878,1.499-1.289,2.263l-0.067,0.143
	c-10.16-4.516-18.477-13.044-22.488-24.197c-0.095-0.267-0.192-0.534-0.287-0.803c-0.134-0.382-0.267-0.764-0.392-1.146
	c4.402-13.435,15.479-24.427,30.47-27.873c57.857-13.283,117.988-13.283,175.844,0C358.904,354.173,369.989,365.155,374.392,378.59z
	"/>
<path style="fill:#FFFFFF;" d="M343.92,324.524c24.15,5.539,38.157,30.69,30.47,54.066c-4.402-13.435-15.488-24.417-30.47-27.863
	c-57.857-13.283-117.988-13.283-175.844,0c-14.992,3.448-26.069,14.438-30.47,27.873c-7.677-23.385,6.312-48.528,30.47-54.076
	C225.934,311.241,286.064,311.241,343.92,324.524z"/>
<path style="fill:#F95428;" d="M349.87,402.339c0.439,0.745,0.878,1.499,1.289,2.263l0.067,0.143v0.01
	c-8.031,3.571-17.227,4.65-26.365,2.559c-45.31-10.389-92.406-10.389-137.725,0c-9.139,2.091-18.334,1.013-26.365-2.559v-0.01
	l0.067-0.143c0.411-0.764,0.85-1.519,1.289-2.263c11.21-18.907,31.845-31.568,55.413-31.568c14.418,0,27.73,4.727,38.463,12.729
	c10.733-8.002,24.025-12.729,38.434-12.729C318.033,370.769,338.65,383.432,349.87,402.339z"/>
<path d="M379.018,340.29c-7.046-12.486-19.093-21.483-33.051-24.684c-58.857-13.511-121.079-13.512-179.939,0
	c-13.954,3.205-25.998,12.198-33.042,24.676c-7.068,12.52-8.554,27.527-4.084,41.141c0.134,0.415,0.279,0.83,0.425,1.244
	c0.006,0.017,0.045,0.132,0.052,0.149l0.294,0.827c4.654,12.941,14.473,23.59,26.981,29.282c0.131,0.066,0.264,0.128,0.399,0.189
	c10.167,4.521,21.276,5.6,32.127,3.117c43.715-10.023,89.924-10.023,133.639,0c3.803,0.87,7.637,1.303,11.453,1.303
	c7.067,0,14.067-1.485,20.669-4.421c0.134-0.06,0.268-0.123,0.399-0.189c12.508-5.692,22.33-16.342,26.989-29.302l0.307-0.861
	c0.155-0.442,0.309-0.894,0.451-1.336C387.565,367.8,386.083,352.807,379.018,340.29z M354.245,392.345
	c-13.723-19.092-36.089-30.725-59.806-30.725c-13.738,0-26.898,3.726-38.434,10.829c-11.539-7.105-24.71-10.829-38.463-10.829
	c-23.706,0-46.06,11.625-59.787,30.725c-4.581-3.548-8.197-8.274-10.388-13.679c4.123-9.629,12.436-16.65,22.758-19.023
	c56.181-12.898,115.57-12.898,171.745-0.001c10.328,2.376,18.643,9.396,22.764,19.019
	C362.439,384.074,358.823,388.799,354.245,392.345z M170.123,333.442c56.183-12.897,115.571-12.897,171.752,0
	c9.041,2.074,16.54,7.656,21.135,15.725c-5.087-3.401-10.825-5.926-17.041-7.357c-58.861-13.513-121.081-13.513-179.942,0
	c-6.214,1.429-11.949,3.954-17.036,7.355C153.584,341.101,161.082,335.518,170.123,333.442z M185.097,398.395
	c-3.125,0.715-6.283,0.947-9.406,0.747c10.399-12.027,25.699-19.223,41.849-19.223c11.818,0,23.05,3.662,32.531,10.583
	C228.197,390.906,206.365,393.519,185.097,398.395z M326.906,398.396c-21.271-4.877-43.093-7.489-64.968-7.894
	c9.48-6.921,20.704-10.583,32.5-10.583c16.157,0,31.468,7.2,41.867,19.223C333.184,399.342,330.028,399.111,326.906,398.396z"/>
<g>
	<path style="fill:#E54728;" d="M357.941,195.65h-51.13c-3.551,0-6.783-2.056-8.287-5.273c-1.505-3.217-1.013-7.015,1.263-9.74
		l38.599-46.241h-31.574c-5.054,0-9.15-4.097-9.15-9.15c0-5.053,4.095-9.15,9.15-9.15h51.13c3.551,0,6.783,2.056,8.287,5.273
		c1.505,3.217,1.013,7.015-1.263,9.74l-38.599,46.241h31.574c5.054,0,9.15,4.097,9.15,9.15
		C367.091,191.553,362.995,195.65,357.941,195.65z"/>
	<path style="fill:#E54728;" d="M498.172,158.906H387.835c-3.551,0-6.783-2.056-8.287-5.273c-1.505-3.217-1.013-7.015,1.263-9.74
		l97.806-117.169h-90.782c-5.054,0-9.15-4.097-9.15-9.15s4.095-9.15,9.15-9.15h110.337c3.551,0,6.783,2.056,8.287,5.273
		c1.505,3.217,1.013,7.015-1.263,9.74L407.39,140.607h90.782c5.054,0,9.15,4.097,9.15,9.15S503.226,158.906,498.172,158.906z"/>
</g>
<g>
</g>
<g>
</g>
<g>
</g>
<g>
</g>
<g>
</g>
<g>
</g>
<g>
</g>
<g>
</g>
<g>
</g>
<g>
</g>
<g>
</g>
<g>
</g>
<g>
</g>
<g>
</g>
<g>
</g>
</svg>
