<?xml version="1.0" encoding="iso-8859-1"?>
<!-- Generator: Adobe Illustrator 19.0.0, SVG Export Plug-In . SVG Version: 6.00 Build 0)  -->
<svg version="1.1" id="Capa_1" xmlns="http://www.w3.org/2000/svg" xmlns:xlink="http://www.w3.org/1999/xlink" x="0px" y="0px"
	 viewBox="0 0 512 512" style="enable-background:new 0 0 512 512;" xml:space="preserve">
<path style="fill:#F4D44E;" d="M264.051,48.941c0,0.016-0.001,0.031-0.001,0.047C76.467,26.23-55.591,227.902,38.295,390.124
	c93.13,161.697,334.266,148.8,408.31-24.941c0.014,0.008,0.028,0.015,0.041,0.022C506.114,225.365,414.309,67.289,264.051,48.941z"
	/>
<path style="fill:#E8C842;" d="M81.595,365.125c-62.728-108.387-24.59-234.377,63.578-299.28
	C27.561,117.2-33.929,265.331,38.295,390.124c71.712,124.51,231.179,145.49,334.542,69.232
	C272.402,503.317,143.89,473.283,81.595,365.125z"/>
<path style="fill:#ED694A;" d="M236.212,399.822c-13.337,0-24.149-10.812-24.149-24.149v-5.856
	c0-13.337,10.812-24.149,24.149-24.149s24.149,10.812,24.149,24.149v5.856C260.359,389.01,249.548,399.822,236.212,399.822z"/>
<path style="fill:#D8553A;" d="M236.212,375.675v-5.856c0-8.937,4.858-16.734,12.075-20.91c-3.553-2.056-7.674-3.239-12.075-3.239
	c-13.336,0-24.148,10.812-24.148,24.148v5.856c0,13.337,10.812,24.149,24.148,24.149c4.4,0,8.521-1.183,12.075-3.239
	C241.07,392.407,236.212,384.611,236.212,375.675z"/>
<g>
	<path style="fill:#70BBEF;" d="M249.813,149.833h-44.75c-11.039,0-16.613-13.398-8.79-21.222l23.529-23.529h-14.739
		c-6.865,0-12.432-5.566-12.432-12.431c0-6.865,5.566-12.431,12.432-12.431h44.75c11.039,0,16.613,13.399,8.79,21.222
		l-23.529,23.529h14.739c6.865,0,12.432,5.566,12.432,12.432C262.244,144.267,256.678,149.833,249.813,149.833z"/>
	<path style="fill:#70BBEF;" d="M362.927,99.607h-67.245c-11.04,0-16.613-13.398-8.79-21.222l46.023-46.023h-37.234
		c-6.866,0-12.432-5.566-12.432-12.431S288.816,7.5,295.682,7.5h67.245c11.039,0,16.613,13.398,8.79,21.222l-46.023,46.023h37.234
		c6.865,0,12.431,5.566,12.431,12.431C375.359,94.042,369.793,99.607,362.927,99.607z"/>
	<path style="fill:#70BBEF;" d="M492.191,163.903h-95.162c-11.039,0-16.613-13.399-8.79-21.222l73.94-73.94h-65.15
		c-6.866,0-12.431-5.565-12.431-12.431s5.565-12.431,12.431-12.431h95.162c11.039,0,16.613,13.398,8.79,21.222l-73.94,73.94h65.15
		c6.866,0,12.431,5.566,12.431,12.432C504.621,158.337,499.057,163.903,492.191,163.903z"/>
</g>
<g>
	<path style="fill:#5DB4DB;" d="M295.683,32.363h17.124c-6.866,0-12.432-5.566-12.432-12.432c0-6.865,5.566-12.431,12.432-12.431
		h-17.124c-6.866,0-12.432,5.566-12.432,12.431C283.251,26.797,288.817,32.363,295.683,32.363z"/>
	<path style="fill:#5DB4DB;" d="M397.028,68.741h17.124c-6.866,0-12.432-5.565-12.432-12.431s5.565-12.431,12.432-12.431h-17.124
		c-6.866,0-12.432,5.565-12.432,12.431S390.162,68.741,397.028,68.741z"/>
	<path style="fill:#5DB4DB;" d="M405.362,142.681l64.761-64.76l0,0c6.715-6.715,2.583-8.683-1.839-9.18h-6.105l-73.94,73.94
		c-7.822,7.823-2.249,21.222,8.791,21.222h17.124C403.113,163.903,397.54,150.504,405.362,142.681z"/>
	<path style="fill:#5DB4DB;" d="M304.016,78.386l35.911-35.911c0,0,0,0,0.001-0.001c7.845-7.845,2.208-9.731-2.484-10.112h-4.527
		l-46.023,46.023c-7.822,7.823-2.249,21.222,8.791,21.222h17.124C301.767,99.607,296.194,86.209,304.016,78.386z"/>
	<path style="fill:#5DB4DB;" d="M213.396,128.612l14.836-14.836c6.969-6.969,1.192-8.437-2.882-8.694h-3.163
		c-6.866,0-12.432-5.566-12.432-12.431c0-6.865,5.566-12.432,12.432-12.432h-17.124c-6.866,0-12.432,5.566-12.432,12.432
		c0,6.865,5.566,12.431,12.432,12.431h14.739l-23.529,23.529c-7.822,7.823-2.249,21.222,8.791,21.222h17.124
		C211.147,149.833,205.574,136.435,213.396,128.612z"/>
</g>
<path d="M236.042,338.17c-17.451,0-31.648,14.198-31.648,31.649v5.855c0,17.451,14.197,31.648,31.648,31.648
	s31.648-14.197,31.648-31.648v-5.855C267.689,352.368,253.492,338.17,236.042,338.17z M252.689,375.675
	c0,9.18-7.469,16.648-16.648,16.648s-16.648-7.469-16.648-16.648v-5.855c0-9.181,7.469-16.649,16.648-16.649
	s16.648,7.469,16.648,16.649V375.675z"/>
<path d="M337.774,280.06c2.307-3.44,1.388-8.099-2.054-10.405c-3.44-2.307-8.1-1.388-10.405,2.054
	c-3.725,5.555-8.402,8.614-13.172,8.614c-4.77,0-9.447-3.06-13.172-8.614c-2.308-3.442-6.967-4.361-10.405-2.054
	c-3.441,2.307-4.36,6.965-2.054,10.405C300.101,300.331,324.094,300.471,337.774,280.06z"/>
<path d="M183.515,269.805c-3.44-2.307-8.1-1.388-10.405,2.054c-7.661,11.426-18.612,11.531-26.344,0
	c-2.307-3.442-6.967-4.361-10.405-2.054c-3.441,2.307-4.36,6.965-2.054,10.405c13.588,20.271,37.58,20.411,51.261,0
	C187.876,276.769,186.957,272.111,183.515,269.805z"/>
<path d="M204.892,157.333h44.75c10.99,0,19.932-8.941,19.932-19.932c0-9.928-7.297-18.184-16.809-19.688l10.971-10.97
	c12.684-12.687,3.418-34.025-14.094-34.025h-44.75c-10.99,0-19.932,8.941-19.932,19.932c0,9.928,7.297,18.184,16.809,19.688
	l-10.972,10.971C178.116,135.99,187.376,157.333,204.892,157.333z M201.404,133.915l23.53-23.529
	c4.717-4.717,1.363-12.804-5.303-12.804h-14.739c-2.72,0-4.932-2.212-4.932-4.932s2.212-4.932,4.932-4.932h44.75
	c4.378,0,6.592,5.314,3.486,8.418L229.6,119.666c-4.707,4.709-1.373,12.804,5.304,12.804h14.739c2.72,0,4.932,2.212,4.932,4.932
	s-2.212,4.932-4.932,4.932h-44.75c-2.958,0-4.162-2.136-4.543-3.054C199.97,138.362,199.313,136.006,201.404,133.915z"/>
<path d="M492.02,36.379h-19.746c-4.143,0-7.5,3.357-7.5,7.5s3.357,7.5,7.5,7.5h19.746c4.394,0,6.577,5.33,3.487,8.418l-73.941,73.94
	c-4.707,4.709-1.373,12.804,5.304,12.804h65.15c2.72,0,4.932,2.212,4.932,4.932s-2.212,4.932-4.932,4.932
	c-20.036,0-80.331-0.001-95.162-0.001c-4.449,0-6.546-5.358-3.486-8.418l73.94-73.939c4.707-4.709,1.373-12.804-5.304-12.804h-65.15
	c-2.72,0-4.932-2.212-4.932-4.932c0-2.72,2.212-4.932,4.932-4.932h40.417c4.143,0,7.5-3.357,7.5-7.5s-3.357-7.5-7.5-7.5h-40.417
	c-10.99,0-19.932,8.941-19.932,19.932s8.941,19.932,19.932,19.932h47.044l-36.876,36.875c-7.668-8.064-15.919-15.606-24.656-22.505
	c2.175-12.44-7.48-23.367-19.613-23.367H343.63l33.222-33.221C389.513,21.363,380.305,0,362.758,0h-67.245
	c-10.99,0-19.932,8.94-19.932,19.931s8.941,19.932,19.932,19.932h19.127l-10.151,10.151
	c-64.013-19.371-134.778-10.987-193.616,25.77c-3.513,2.195-4.582,6.822-2.388,10.335c2.195,3.514,6.823,4.581,10.335,2.388
	c53.615-33.505,116.729-41.291,173.53-26.354l-10.933,10.933c-12.681,12.681-3.421,34.024,14.095,34.024
	c71.582-0.077,68.894,0.469,73.34-0.961c1.973-0.637,3.972-1.681,5.487-2.763c7.812,6.262,15.209,13.069,22.091,20.331
	l-13.665,13.664c-8.351,8.352-7.423,21.124,0.4,28.558c3.623,3.443,8.476,5.468,13.694,5.468h33.954
	c49.021,91.174,26.771,199.81-43.401,265.615c-3.021,2.833-3.174,7.58-0.34,10.602c2.837,3.025,7.585,3.169,10.602,0.34
	c73.057-68.513,97.593-180.624,50.007-276.557h44.34c10.99,0,19.932-8.941,19.932-19.932s-8.941-19.932-19.932-19.932h-47.044
	l61.139-61.138c5.8-5.801,7.45-14.12,4.306-21.711C507.321,41.212,500.099,36.379,492.02,36.379z M363.624,92.02
	c-0.951,0.17,3.687,0.048-68.112,0.088c-4.381,0-6.59-5.317-3.487-8.418c6.544-6.544,39.506-39.506,46.023-46.023
	c4.707-4.709,1.373-12.804-5.304-12.804h-37.233c-2.72,0-4.932-2.212-4.932-4.932c0-2.719,2.212-4.931,4.932-4.931h67.245
	c4.381,0,6.588,5.318,3.486,8.418L320.22,69.44c-4.707,4.709-1.373,12.804,5.304,12.804h37.234c2.719,0,4.931,2.212,4.931,4.932
	C367.688,89.467,366.025,91.584,363.624,92.02z"/>
<path d="M369.474,470.602c3.419-2.338,4.296-7.005,1.958-10.425c-2.339-3.418-7.004-4.295-10.425-1.958
	c-53.621,36.664-119.329,48.012-182.176,31.174C7.285,443.428-42.021,223.665,91.552,108.576c3.138-2.703,3.49-7.439,0.786-10.577
	c-2.705-3.139-7.441-3.488-10.577-0.786C-3.922,171.038-25.007,295.815,31.625,393.904
	C100.178,512.642,255.347,548.627,369.474,470.602z"/>
<g>
</g>
<g>
</g>
<g>
</g>
<g>
</g>
<g>
</g>
<g>
</g>
<g>
</g>
<g>
</g>
<g>
</g>
<g>
</g>
<g>
</g>
<g>
</g>
<g>
</g>
<g>
</g>
<g>
</g>
</svg>
