<?xml version="1.0" encoding="iso-8859-1"?>
<!-- Generator: Adobe Illustrator 19.0.0, SVG Export Plug-In . SVG Version: 6.00 Build 0)  -->
<svg version="1.1" id="Capa_1" xmlns="http://www.w3.org/2000/svg" xmlns:xlink="http://www.w3.org/1999/xlink" x="0px" y="0px"
	 viewBox="0 0 512.001 512.001" style="enable-background:new 0 0 512.001 512.001;" xml:space="preserve">
<path style="fill:#302C49;" d="M473.368,504.396h-230.85c-17.134,0-31.025-13.89-31.025-31.025V38.632
	c0-17.134,13.89-31.025,31.025-31.025h230.851c17.134,0,31.025,13.89,31.025,31.025v434.74
	C504.393,490.506,490.502,504.396,473.368,504.396z"/>
<path style="fill:#999999;" d="M389.066,457.163H326.82c-2.743,0-4.967,2.223-4.967,4.967v19.357c0,2.743,2.223,4.967,4.967,4.967
	h62.246c2.743,0,4.967-2.223,4.967-4.967v-19.357C394.033,459.386,391.808,457.163,389.066,457.163z"/>
<rect x="233.947" y="71.062" style="fill:#F2F2F2;" width="249.043" height="367.431"/>
<path style="fill:#4AD13F;" d="M299.145,147.852h-27.728c-6.05,0-10.954-4.904-10.954-10.954V109.17
	c0-6.05,4.904-10.954,10.954-10.954h27.728c6.05,0,10.954,4.904,10.954,10.954v27.728
	C310.099,142.948,305.195,147.852,299.145,147.852z"/>
<path style="fill:#FF4064;" d="M372.33,147.852h-27.728c-6.05,0-10.954-4.904-10.954-10.954V109.17
	c0-6.05,4.904-10.954,10.954-10.954h27.728c6.05,0,10.954,4.904,10.954,10.954v27.728
	C383.284,142.948,378.379,147.852,372.33,147.852z"/>
<g>
	<path style="fill:#FAD600;" d="M445.514,147.852h-27.728c-6.05,0-10.954-4.904-10.954-10.954V109.17
		c0-6.05,4.904-10.954,10.954-10.954h27.728c6.05,0,10.954,4.904,10.954,10.954v27.728
		C456.468,142.948,451.564,147.852,445.514,147.852z"/>
	<path style="fill:#FAD600;" d="M299.145,220.452h-27.728c-6.05,0-10.954-4.904-10.954-10.954V181.77
		c0-6.05,4.904-10.954,10.954-10.954h27.728c6.05,0,10.954,4.904,10.954,10.954v27.728
		C310.099,215.548,305.195,220.452,299.145,220.452z"/>
</g>
<path style="fill:#00B6DB;" d="M372.33,220.452h-27.728c-6.05,0-10.954-4.904-10.954-10.954V181.77
	c0-6.05,4.904-10.954,10.954-10.954h27.728c6.05,0,10.954,4.904,10.954,10.954v27.728
	C383.284,215.548,378.379,220.452,372.33,220.452z"/>
<path style="fill:#4AD13F;" d="M445.514,220.452h-27.728c-6.05,0-10.954-4.904-10.954-10.954V181.77
	c0-6.05,4.904-10.954,10.954-10.954h27.728c6.05,0,10.954,4.904,10.954,10.954v27.728
	C456.468,215.548,451.564,220.452,445.514,220.452z"/>
<path style="fill:#FF4064;" d="M299.145,411.733h-27.728c-6.05,0-10.954-4.904-10.954-10.954v-27.728
	c0-6.05,4.904-10.954,10.954-10.954h27.728c6.05,0,10.954,4.904,10.954,10.954v27.728
	C310.099,406.829,305.195,411.733,299.145,411.733z"/>
<path style="fill:#FAD600;" d="M372.33,411.733h-27.728c-6.05,0-10.954-4.904-10.954-10.954v-27.728
	c0-6.05,4.904-10.954,10.954-10.954h27.728c6.05,0,10.954,4.904,10.954,10.954v27.728
	C383.284,406.829,378.379,411.733,372.33,411.733z"/>
<path style="fill:#00B6DB;" d="M445.514,411.733h-27.728c-6.05,0-10.954-4.904-10.954-10.954v-27.728
	c0-6.05,4.904-10.954,10.954-10.954h27.728c6.05,0,10.954,4.904,10.954,10.954v27.728
	C456.468,406.829,451.564,411.733,445.514,411.733z"/>
<polygon style="fill:#4AD13F;" points="7.604,256.626 7.604,185.455 129.813,185.455 129.813,129.34 259.046,256.626 
	129.813,383.913 129.813,327.797 7.604,327.797 "/>
<path d="M473.372,0.002H242.517c-21.334,0-38.628,17.294-38.628,38.628v152.996l-68.74-67.704c-2.606-2.567-6.745-2.967-9.85-0.706
	c-2.002,1.459-3.089,3.869-3.089,6.347v48.288H85.168c-4.199,0-7.604,3.405-7.604,7.604l0,0c0,4.199,3.405,7.604,7.604,7.604h44.646
	c4.199,0,7.604-3.405,7.604-7.604v-37.954l110.793,109.124L137.418,365.75v-37.954c0-4.199-3.405-7.604-7.604-7.604H15.208V193.058
	h34.474c4.199,0,7.604-3.405,7.604-7.604l0,0c0-4.199-3.405-7.604-7.604-7.604H7.604c-4.199,0-7.604,3.405-7.604,7.604v142.342
	c0,4.199,3.405,7.604,7.604,7.604H122.21v48.276c0,2.544,1.145,5.015,3.235,6.463c1.342,0.931,2.863,1.377,4.368,1.377
	c1.959,0,3.886-0.757,5.337-2.187l68.74-67.704v151.746c0,21.334,17.294,38.628,38.628,38.628h230.855
	c21.334,0,38.628-17.294,38.628-38.628V38.63C512,17.296,494.706,0.002,473.372,0.002z M496.792,473.371
	c0,12.935-10.485,23.42-23.42,23.42H242.517c-12.935,0-23.42-10.485-23.42-23.42V306.647l7.239-7.13v138.978
	c0,4.199,3.405,7.604,7.604,7.604h176.674c4.199,0,7.604-3.405,7.604-7.604l0,0c0-4.199-3.405-7.604-7.604-7.604H241.544V284.538
	l22.715-22.374c0.762-0.751,1.412-1.626,1.816-2.618c1.21-2.98,0.45-6.228-1.692-8.338l-22.838-22.494V78.668h233.836v352.224
	h-29.279c-4.199,0-7.604,3.405-7.604,7.604l0,0c0,4.199,3.405,7.604,7.604,7.604h36.883c4.199,0,7.604-3.405,7.604-7.604V71.064
	c0-4.199-3.405-7.604-7.604-7.604H233.941c-4.199,0-7.604,3.405-7.604,7.604v142.672l-7.239-7.13V38.631
	c0-12.935,10.485-23.42,23.42-23.42h230.855c12.935,0,23.42,10.485,23.42,23.42v434.74H496.792z"/>
<path d="M389.066,449.559H326.82c-6.932,0-12.571,5.639-12.571,12.571v19.357c0,6.932,5.64,12.571,12.571,12.571h62.246
	c6.932,0,12.57-5.639,12.57-12.571v-19.357C401.636,455.198,395.998,449.559,389.066,449.559z M386.428,478.849h-56.971v-14.082
	h56.971L386.428,478.849L386.428,478.849z"/>
<path d="M299.145,90.613h-27.728c-10.233,0-18.558,8.325-18.558,18.558v27.727c0,10.233,8.325,18.558,18.558,18.558h27.728
	c10.233,0,18.558-8.325,18.558-18.558v-27.727C317.702,98.938,309.377,90.613,299.145,90.613z M302.494,136.898
	c0,1.847-1.503,3.35-3.35,3.35h-27.728c-1.846,0-3.35-1.503-3.35-3.35v-27.727c0-1.847,1.503-3.35,3.35-3.35h27.728
	c1.846,0,3.35,1.503,3.35,3.35V136.898z"/>
<path d="M372.329,90.613h-27.728c-10.233,0-18.558,8.325-18.558,18.558v27.727c0,10.233,8.325,18.558,18.558,18.558h27.728
	c10.233,0,18.559-8.325,18.559-18.558v-27.727C390.888,98.938,382.562,90.613,372.329,90.613z M375.68,136.898
	c0,1.847-1.503,3.35-3.351,3.35h-27.728c-1.846,0-3.35-1.503-3.35-3.35v-27.727c0-1.847,1.503-3.35,3.35-3.35h27.728
	c1.847,0,3.351,1.503,3.351,3.35V136.898z"/>
<path d="M417.787,155.455h27.728c10.233,0,18.558-8.325,18.558-18.558v-27.727c0-10.233-8.325-18.558-18.558-18.558h-27.728
	c-10.233,0-18.559,8.325-18.559,18.558v27.727C399.229,147.131,407.555,155.455,417.787,155.455z M414.437,109.17
	c0-1.847,1.503-3.35,3.351-3.35h27.728c1.846,0,3.35,1.503,3.35,3.35v27.727c0,1.847-1.503,3.35-3.35,3.35h-27.728
	c-1.847,0-3.351-1.503-3.351-3.35V109.17z"/>
<path d="M299.145,163.213h-27.728c-10.233,0-18.558,8.325-18.558,18.558v27.727c0,10.233,8.325,18.558,18.558,18.558h27.728
	c10.233,0,18.558-8.325,18.558-18.558v-27.727C317.702,171.538,309.377,163.213,299.145,163.213z M302.494,209.498
	c0,1.847-1.503,3.35-3.35,3.35h-27.728c-1.846,0-3.35-1.503-3.35-3.35v-27.727c0-1.847,1.503-3.35,3.35-3.35h27.728
	c1.846,0,3.35,1.503,3.35,3.35V209.498z"/>
<path d="M372.329,163.213h-27.728c-10.233,0-18.558,8.325-18.558,18.558v27.727c0,10.233,8.325,18.558,18.558,18.558h27.728
	c10.233,0,18.559-8.325,18.559-18.558v-27.727C390.888,171.538,382.562,163.213,372.329,163.213z M375.68,209.498
	c0,1.847-1.503,3.35-3.351,3.35h-27.728c-1.846,0-3.35-1.503-3.35-3.35v-27.727c0-1.847,1.503-3.35,3.35-3.35h27.728
	c1.847,0,3.351,1.503,3.351,3.35V209.498z"/>
<path d="M417.787,228.056h27.728c10.233,0,18.558-8.325,18.558-18.558v-27.727c0-10.233-8.325-18.558-18.558-18.558h-27.728
	c-10.233,0-18.559,8.325-18.559,18.558v27.727C399.229,219.731,407.555,228.056,417.787,228.056z M414.437,181.771
	c0-1.847,1.503-3.35,3.351-3.35h27.728c1.846,0,3.35,1.503,3.35,3.35v27.727c0,1.847-1.503,3.35-3.35,3.35h-27.728
	c-1.847,0-3.351-1.503-3.351-3.35V181.771z"/>
<path d="M299.145,354.493h-27.728c-10.233,0-18.558,8.325-18.558,18.558v27.727c0,10.233,8.325,18.558,18.558,18.558h27.728
	c10.233,0,18.558-8.325,18.558-18.558v-27.727C317.702,362.819,309.377,354.493,299.145,354.493z M302.494,400.779
	c0,1.847-1.503,3.35-3.35,3.35h-27.728c-1.846,0-3.35-1.503-3.35-3.35v-27.727c0-1.847,1.503-3.35,3.35-3.35h27.728
	c1.846,0,3.35,1.503,3.35,3.35V400.779z"/>
<path d="M372.329,354.493h-27.728c-10.233,0-18.558,8.325-18.558,18.558v27.727c0,10.233,8.325,18.558,18.558,18.558h27.728
	c10.233,0,18.559-8.325,18.559-18.558v-27.727C390.888,362.819,382.562,354.493,372.329,354.493z M375.68,400.779
	c0,1.847-1.503,3.35-3.351,3.35h-27.728c-1.846,0-3.35-1.503-3.35-3.35v-27.727c0-1.847,1.503-3.35,3.35-3.35h27.728
	c1.847,0,3.351,1.503,3.351,3.35V400.779z"/>
<path d="M464.072,400.779v-27.727c0-10.233-8.325-18.558-18.558-18.558h-27.728c-10.233,0-18.559,8.325-18.559,18.558v27.727
	c0,10.233,8.326,18.558,18.559,18.558h27.728C455.748,419.337,464.072,411.012,464.072,400.779z M414.437,400.779v-27.727
	c0-1.847,1.503-3.35,3.351-3.35h27.728c1.846,0,3.35,1.503,3.35,3.35v27.727c0,1.847-1.503,3.35-3.35,3.35h-27.728
	C415.94,404.129,414.437,402.626,414.437,400.779z"/>
<path d="M377.545,30.354h-39.203c-4.2,0-7.604,3.405-7.604,7.604s3.404,7.604,7.604,7.604h39.203c4.2,0,7.604-3.405,7.604-7.604
	S381.744,30.354,377.545,30.354z"/>
<g>
</g>
<g>
</g>
<g>
</g>
<g>
</g>
<g>
</g>
<g>
</g>
<g>
</g>
<g>
</g>
<g>
</g>
<g>
</g>
<g>
</g>
<g>
</g>
<g>
</g>
<g>
</g>
<g>
</g>
</svg>
