<?xml version="1.0" encoding="iso-8859-1"?>
<!-- Generator: Adobe Illustrator 19.0.0, SVG Export Plug-In . SVG Version: 6.00 Build 0)  -->
<svg version="1.1" id="Capa_1" xmlns="http://www.w3.org/2000/svg" xmlns:xlink="http://www.w3.org/1999/xlink" x="0px" y="0px"
	 viewBox="0 0 512 512" style="enable-background:new 0 0 512 512;" xml:space="preserve">
<path style="fill:#302C49;" d="M371.426,504.396H140.574c-17.134,0-31.025-13.89-31.025-31.025V38.629
	c0-17.134,13.89-31.025,31.025-31.025h230.852c17.134,0,31.025,13.89,31.025,31.025v434.743
	C402.45,490.506,388.56,504.396,371.426,504.396z"/>
<path style="fill:#999999;" d="M287.122,457.162h-62.246c-2.743,0-4.967,2.223-4.967,4.967v19.357c0,2.743,2.223,4.967,4.967,4.967
	h62.246c2.743,0,4.967-2.223,4.967-4.967v-19.358C292.089,459.386,289.866,457.162,287.122,457.162z"/>
<rect x="131.995" y="71.062" style="fill:#F2F2F2;" width="249.045" height="367.434"/>
<path style="fill:#4AD13F;" d="M197.201,147.848h-27.728c-6.05,0-10.954-4.904-10.954-10.954v-27.728
	c0-6.05,4.904-10.954,10.954-10.954h27.728c6.05,0,10.954,4.904,10.954,10.954v27.728
	C208.155,142.944,203.251,147.848,197.201,147.848z"/>
<path style="fill:#FF4064;" d="M270.387,147.848h-27.728c-6.05,0-10.954-4.904-10.954-10.954v-27.728
	c0-6.05,4.904-10.954,10.954-10.954h27.728c6.05,0,10.954,4.904,10.954,10.954v27.728
	C281.34,142.944,276.436,147.848,270.387,147.848z"/>
<g>
	<path style="fill:#FAD600;" d="M343.572,147.848h-27.728c-6.05,0-10.954-4.904-10.954-10.954v-27.728
		c0-6.05,4.904-10.954,10.954-10.954h27.728c6.05,0,10.954,4.904,10.954,10.954v27.728
		C354.526,142.944,349.622,147.848,343.572,147.848z"/>
	<path style="fill:#FAD600;" d="M197.201,220.45h-27.728c-6.05,0-10.954-4.904-10.954-10.954v-27.728
		c0-6.05,4.904-10.954,10.954-10.954h27.728c6.05,0,10.954,4.904,10.954,10.954v27.728
		C208.155,215.546,203.251,220.45,197.201,220.45z"/>
</g>
<path style="fill:#00B6DB;" d="M270.387,220.45h-27.728c-6.05,0-10.954-4.904-10.954-10.954v-27.728
	c0-6.05,4.904-10.954,10.954-10.954h27.728c6.05,0,10.954,4.904,10.954,10.954v27.728C281.34,215.546,276.436,220.45,270.387,220.45
	z"/>
<path style="fill:#4AD13F;" d="M343.572,220.45h-27.728c-6.05,0-10.954-4.904-10.954-10.954v-27.728
	c0-6.05,4.904-10.954,10.954-10.954h27.728c6.05,0,10.954,4.904,10.954,10.954v27.728
	C354.526,215.546,349.622,220.45,343.572,220.45z"/>
<path style="fill:#FF4064;" d="M197.201,411.731h-27.728c-6.05,0-10.954-4.904-10.954-10.954V373.05
	c0-6.05,4.904-10.954,10.954-10.954h27.728c6.05,0,10.954,4.904,10.954,10.954v27.728
	C208.155,406.827,203.251,411.731,197.201,411.731z"/>
<path style="fill:#FAD600;" d="M270.387,411.731h-27.728c-6.05,0-10.954-4.904-10.954-10.954V373.05
	c0-6.05,4.904-10.954,10.954-10.954h27.728c6.05,0,10.954,4.904,10.954,10.954v27.728
	C281.34,406.827,276.436,411.731,270.387,411.731z"/>
<path style="fill:#00B6DB;" d="M343.572,411.731h-27.728c-6.05,0-10.954-4.904-10.954-10.954V373.05
	c0-6.05,4.904-10.954,10.954-10.954h27.728c6.05,0,10.954,4.904,10.954,10.954v27.728
	C354.526,406.827,349.622,411.731,343.572,411.731z"/>
<path d="M371.426,512H140.574c-21.334,0-38.629-17.294-38.629-38.629V38.629C101.946,17.294,119.24,0,140.574,0h49.021
	c4.199,0,7.604,3.405,7.604,7.604l0,0c0,4.199-3.405,7.604-7.604,7.604h-49.021c-12.935,0-23.421,10.485-23.421,23.421v434.743
	c0,12.935,10.485,23.421,23.421,23.421h230.852c12.935,0,23.421-10.485,23.421-23.421V38.629c0-12.935-10.485-23.421-23.421-23.421
	H225.081c-4.199,0-7.604-3.405-7.604-7.604l0,0c0-4.199,3.405-7.604,7.604-7.604h146.345c21.334,0,38.629,17.294,38.629,38.629
	v434.743C410.054,494.706,392.76,512,371.426,512z"/>
<path d="M381.047,446.097H132c-4.199,0-7.604-3.405-7.604-7.604V71.059c0-4.199,3.405-7.604,7.604-7.604h249.047
	c4.199,0,7.604,3.405,7.604,7.604v246.461c0,4.199-3.405,7.604-7.604,7.604l0,0c-4.199,0-7.604-3.405-7.604-7.604V78.662H139.604
	v352.227h233.839v-77.883c0-4.199,3.405-7.604,7.604-7.604l0,0c4.199,0,7.604,3.405,7.604,7.604v85.488
	C388.651,442.692,385.246,446.097,381.047,446.097z"/>
<path d="M287.124,494.056h-62.246c-6.932,0-12.571-5.639-12.571-12.571v-19.357c0-6.932,5.639-12.571,12.571-12.571h62.246
	c6.932,0,12.571,5.639,12.571,12.571v19.357C299.693,488.417,294.054,494.056,287.124,494.056z M227.515,478.848h56.972v-14.083
	h-56.972L227.515,478.848L227.515,478.848z"/>
<path d="M197.201,155.452h-27.727c-10.233,0-18.558-8.325-18.558-18.558v-27.727c0-10.233,8.325-18.558,18.558-18.558h27.727
	c10.233,0,18.558,8.325,18.558,18.558v27.727C215.759,147.128,207.434,155.452,197.201,155.452z M169.474,105.818
	c-1.847,0-3.35,1.503-3.35,3.35v27.727c0,1.847,1.503,3.35,3.35,3.35h27.727c1.847,0,3.35-1.503,3.35-3.35v-27.727
	c0-1.847-1.503-3.35-3.35-3.35C197.201,105.818,169.474,105.818,169.474,105.818z"/>
<path d="M270.387,155.452h-27.728c-10.233,0-18.558-8.325-18.558-18.558v-27.727c0-10.233,8.325-18.558,18.558-18.558h27.728
	c10.233,0,18.558,8.325,18.558,18.558v27.727C288.944,147.128,280.62,155.452,270.387,155.452z M242.66,105.818
	c-1.847,0-3.35,1.503-3.35,3.35v27.727c0,1.847,1.503,3.35,3.35,3.35h27.728c1.847,0,3.35-1.503,3.35-3.35v-27.727
	c0-1.847-1.503-3.35-3.35-3.35C270.388,105.818,242.66,105.818,242.66,105.818z"/>
<path d="M343.572,155.452h-27.727c-10.233,0-18.558-8.325-18.558-18.558v-27.727c0-10.233,8.325-18.558,18.558-18.558h27.727
	c10.233,0,18.558,8.325,18.558,18.558v27.727C362.13,147.128,353.805,155.452,343.572,155.452z M315.845,105.818
	c-1.847,0-3.35,1.503-3.35,3.35v27.727c0,1.847,1.503,3.35,3.35,3.35h27.727c1.847,0,3.35-1.503,3.35-3.35v-27.727
	c0-1.847-1.503-3.35-3.35-3.35C343.572,105.818,315.845,105.818,315.845,105.818z"/>
<path d="M197.201,228.054h-27.727c-10.233,0-18.558-8.325-18.558-18.558v-27.727c0-10.233,8.325-18.558,18.558-18.558h27.727
	c10.233,0,18.558,8.325,18.558,18.558v27.727C215.759,219.729,207.434,228.054,197.201,228.054z M169.474,178.418
	c-1.847,0-3.35,1.503-3.35,3.35v27.727c0,1.847,1.503,3.35,3.35,3.35h27.727c1.847,0,3.35-1.503,3.35-3.35v-27.727
	c0-1.847-1.503-3.35-3.35-3.35L169.474,178.418L169.474,178.418z"/>
<path d="M270.387,228.054h-27.728c-10.233,0-18.558-8.325-18.558-18.558v-27.727c0-10.233,8.325-18.558,18.558-18.558h27.728
	c10.233,0,18.558,8.325,18.558,18.558v27.727C288.944,219.729,280.62,228.054,270.387,228.054z M242.66,178.418
	c-1.847,0-3.35,1.503-3.35,3.35v27.727c0,1.847,1.503,3.35,3.35,3.35h27.728c1.847,0,3.35-1.503,3.35-3.35v-27.727
	c0-1.847-1.503-3.35-3.35-3.35L242.66,178.418L242.66,178.418z"/>
<path d="M343.572,228.054h-27.727c-10.233,0-18.558-8.325-18.558-18.558v-27.727c0-10.233,8.325-18.558,18.558-18.558h27.727
	c10.233,0,18.558,8.325,18.558,18.558v27.727C362.13,219.729,353.805,228.054,343.572,228.054z M315.845,178.418
	c-1.847,0-3.35,1.503-3.35,3.35v27.727c0,1.847,1.503,3.35,3.35,3.35h27.727c1.847,0,3.35-1.503,3.35-3.35v-27.727
	c0-1.847-1.503-3.35-3.35-3.35L315.845,178.418L315.845,178.418z"/>
<path d="M197.201,419.335h-27.727c-10.233,0-18.558-8.325-18.558-18.558V373.05c0-10.233,8.325-18.558,18.558-18.558h27.727
	c10.233,0,18.558,8.325,18.558,18.558v27.727C215.759,411.01,207.434,419.335,197.201,419.335z M169.474,369.701
	c-1.847,0-3.35,1.503-3.35,3.35v27.727c0,1.847,1.503,3.35,3.35,3.35h27.727c1.847,0,3.35-1.503,3.35-3.35V373.05
	c0-1.847-1.503-3.35-3.35-3.35L169.474,369.701L169.474,369.701z"/>
<path d="M270.387,419.335h-27.728c-10.233,0-18.558-8.325-18.558-18.558V373.05c0-10.233,8.325-18.558,18.558-18.558h27.728
	c10.233,0,18.558,8.325,18.558,18.558v27.727C288.944,411.01,280.62,419.335,270.387,419.335z M242.66,369.701
	c-1.847,0-3.35,1.503-3.35,3.35v27.727c0,1.847,1.503,3.35,3.35,3.35h27.728c1.847,0,3.35-1.503,3.35-3.35V373.05
	c0-1.847-1.503-3.35-3.35-3.35L242.66,369.701L242.66,369.701z"/>
<path d="M343.572,419.335h-27.727c-10.233,0-18.558-8.325-18.558-18.558V373.05c0-10.233,8.325-18.558,18.558-18.558h27.727
	c10.233,0,18.558,8.325,18.558,18.558v27.727C362.13,411.01,353.805,419.335,343.572,419.335z M315.845,369.701
	c-1.847,0-3.35,1.503-3.35,3.35v27.727c0,1.847,1.503,3.35,3.35,3.35h27.727c1.847,0,3.35-1.503,3.35-3.35V373.05
	c0-1.847-1.503-3.35-3.35-3.35L315.845,369.701L315.845,369.701z"/>
<path d="M275.601,45.559h-39.203c-4.199,0-7.604-3.405-7.604-7.604s3.405-7.604,7.604-7.604h39.203c4.199,0,7.604,3.405,7.604,7.604
	S279.8,45.559,275.601,45.559z"/>
<g>
</g>
<g>
</g>
<g>
</g>
<g>
</g>
<g>
</g>
<g>
</g>
<g>
</g>
<g>
</g>
<g>
</g>
<g>
</g>
<g>
</g>
<g>
</g>
<g>
</g>
<g>
</g>
<g>
</g>
</svg>
