<?xml version="1.0" encoding="iso-8859-1"?>
<!-- Generator: Adobe Illustrator 19.0.0, SVG Export Plug-In . SVG Version: 6.00 Build 0)  -->
<svg version="1.1" id="Layer_1" xmlns="http://www.w3.org/2000/svg" xmlns:xlink="http://www.w3.org/1999/xlink" x="0px" y="0px"
	 viewBox="0 0 512.001 512.001" style="enable-background:new 0 0 512.001 512.001;" xml:space="preserve">
<circle style="fill:#F7B239;" cx="256.004" cy="256.005" r="246.855"/>
<path style="fill:#E09B2D;" d="M126.306,385.694c-88.801-88.802-95.798-228.426-20.998-325.241
	c-8.286,6.401-16.258,13.399-23.858,20.999c-96.401,96.401-96.401,252.698,0,349.099s252.698,96.401,349.099,0
	c7.599-7.599,14.597-15.573,20.999-23.858C354.733,481.492,215.108,474.496,126.306,385.694z"/>
<path style="fill:#FFFFFF;" d="M332.852,355.558H179.148c-31.833,0-57.64-25.805-57.64-57.64l0,0c0-31.833,25.805-57.64,57.64-57.64
	h153.705c31.833,0,57.64,25.805,57.64,57.64l0,0C390.492,329.751,364.686,355.558,332.852,355.558z"/>
<path style="fill:#CCCCCC;" d="M332.852,240.28H179.148c-31.833,0-57.64,25.805-57.64,57.64l0,0c0,5.392,0.756,10.604,2.141,15.553
	c6.79-24.274,29.057-42.085,55.499-42.085h153.705c26.442,0,48.709,17.811,55.499,42.085c1.385-4.949,2.141-10.162,2.141-15.553l0,0
	C390.492,266.085,364.686,240.28,332.852,240.28z"/>
<path d="M256.001,0.001C114.841,0.001,0,114.842,0,256.001s114.841,255.999,256.001,255.999s256.001-114.841,256.001-255.999
	C512,114.842,397.16,0.001,256.001,0.001z M256.001,493.702c-131.069,0-237.702-106.631-237.702-237.7S124.932,18.3,256.001,18.3
	s237.702,106.632,237.702,237.702C493.701,387.07,387.068,493.702,256.001,493.702z"/>
<path d="M332.853,231.13H179.148c-36.828,0-66.788,29.962-66.788,66.789s29.962,66.789,66.788,66.789h153.705
	c36.828,0,66.788-29.962,66.788-66.789S369.679,231.13,332.853,231.13z M380.464,288.769h-20.837l0.134-31.165
	C370.341,264.688,377.981,275.822,380.464,288.769z M341.494,250.215l-0.166,38.554h-23.739l0.17-39.341h15.094
	C335.803,249.429,338.688,249.709,341.494,250.215z M246.89,307.068l0.17,39.341h-33.603l-0.17-39.341H246.89L246.89,307.068z
	 M213.209,288.769l-0.17-39.341h33.603l0.17,39.341H213.209z M265.189,307.068h34.022l-0.17,39.341H265.36L265.189,307.068z
	 M265.11,288.769l-0.17-39.341h34.518l-0.17,39.341H265.11z M194.739,249.429l0.17,39.341H171.17l-0.166-38.643
	c2.65-0.45,5.368-0.698,8.144-0.698H194.739z M152.735,257.286l0.135,31.483h-21.334
	C134.058,275.623,141.902,264.352,152.735,257.286z M131.536,307.068h21.414l0.137,31.709
	C142.072,331.727,134.085,320.357,131.536,307.068z M171.415,345.785l-0.167-38.717h23.739l0.17,39.341h-16.008
	C176.515,346.408,173.935,346.19,171.415,345.785z M317.34,346.408l0.17-39.341h23.739l-0.167,38.628
	c-2.677,0.46-5.424,0.712-8.23,0.712H317.34z M359.412,338.457l0.135-31.389h20.916C377.954,320.155,370.17,331.385,359.412,338.457
	z"/>
<path d="M122.107,190.089c5.054,0,9.15-4.097,9.15-9.15c0-15.812,12.864-28.676,28.676-28.676c15.813,0,28.677,12.864,28.677,28.676
	c0,5.053,4.095,9.15,9.15,9.15s9.15-4.097,9.15-9.15c0-25.902-21.073-46.975-46.976-46.975s-46.975,21.073-46.975,46.975
	C112.958,185.993,117.053,190.089,122.107,190.089z"/>
<path d="M314.242,190.089c5.054,0,9.15-4.097,9.15-9.15c0-15.812,12.864-28.676,28.677-28.676c15.812,0,28.676,12.864,28.676,28.676
	c0,5.053,4.095,9.15,9.15,9.15c5.054,0,9.15-4.097,9.15-9.15c0-25.902-21.072-46.975-46.975-46.975
	c-25.903,0-46.976,21.073-46.976,46.975C305.092,185.993,309.188,190.089,314.242,190.089z"/>
<g>
</g>
<g>
</g>
<g>
</g>
<g>
</g>
<g>
</g>
<g>
</g>
<g>
</g>
<g>
</g>
<g>
</g>
<g>
</g>
<g>
</g>
<g>
</g>
<g>
</g>
<g>
</g>
<g>
</g>
</svg>
