<?xml version="1.0" encoding="iso-8859-1"?>
<!-- Generator: Adobe Illustrator 19.0.0, SVG Export Plug-In . SVG Version: 6.00 Build 0)  -->
<svg version="1.1" id="Capa_1" xmlns="http://www.w3.org/2000/svg" xmlns:xlink="http://www.w3.org/1999/xlink" x="0px" y="0px"
	 viewBox="0 0 512 512" style="enable-background:new 0 0 512 512;" xml:space="preserve">
<circle style="fill:#F4D44E;" cx="256.39" cy="255.291" r="248.344"/>
<path style="fill:#E8C842;" d="M175.503,445.379C18.82,354.917,9.361,133.415,154.26,28.916
	C108.412,49.554,68.377,84.253,41.318,131.121c-68.579,118.782-27.881,270.669,90.901,339.247
	c87.4,50.46,192.719,41.753,269.59-13.686C331.46,488.35,247.417,486.898,175.503,445.379z"/>
<path d="M349.628,246.054c2.306-3.44,1.386-8.097-2.053-10.402c-3.44-2.305-8.098-1.386-10.401,2.053
	c-7.65,11.412-18.6,11.536-26.333,0c-2.305-3.44-6.962-4.359-10.401-2.053s-4.358,6.962-2.053,10.402
	C311.968,266.316,335.953,266.456,349.628,246.054z"/>
<path d="M211.377,246.203c2.306-3.439,1.387-8.097-2.052-10.402c-3.44-2.306-8.099-1.386-10.402,2.052
	c-7.651,11.412-18.599,11.537-26.334,0c-2.307-3.44-6.963-4.357-10.402-2.052c-3.439,2.305-4.357,6.962-2.052,10.402
	C173.719,266.469,197.702,266.602,211.377,246.203z"/>
<path d="M377.65,196.899c-1.091-3.995-5.219-6.348-9.206-5.259c-17.105,4.668-34.445,2.736-48.823-5.441
	c-3.602-2.047-8.178-0.789-10.224,2.811c-2.047,3.6-0.789,8.176,2.811,10.223c17.495,9.949,38.818,12.703,60.184,6.872
	C376.386,205.014,378.741,200.893,377.65,196.899z"/>
<path d="M199.703,199.233c3.6-2.047,4.857-6.623,2.811-10.223c-2.047-3.601-6.624-4.858-10.224-2.811
	c-14.377,8.177-31.717,10.109-48.823,5.441c-3.986-1.09-8.116,1.264-9.206,5.259c-1.091,3.994,1.265,8.117,5.259,9.206
	c7.418,2.024,14.887,3.026,22.233,3.026C175.165,209.131,188.171,205.791,199.703,199.233z"/>
<path d="M313.657,348.126c1.707-3.773,0.032-8.214-3.741-9.921c-3.772-1.706-8.215-0.031-9.92,3.741
	c-16.84,37.227-70.721,38.239-88.088-0.012c-1.713-3.769-6.154-5.438-9.928-3.723c-3.77,1.713-5.436,6.158-3.724,9.927
	C220.949,398.059,291.5,397.107,313.657,348.126z"/>
<path d="M355.825,491.65c3.811-1.62,5.585-6.024,3.964-9.833c-1.621-3.811-6.031-5.586-9.833-3.963
	c-112.018,47.651-241.966,3.651-302.582-101.338c-59.726-103.448-34.549-235.506,59.27-309.428
	c3.253-2.562,3.812-7.276,1.249-10.529c-2.562-3.253-7.276-3.812-10.528-1.25C-2.05,133.641-29.21,273.857,34.388,384.012
	C98.938,495.816,237.098,542.157,355.825,491.65z"/>
<path d="M127.455,34.867l-0.302,0.18c-3.575,2.088-4.78,6.68-2.691,10.255c2.089,3.576,6.68,4.78,10.255,2.692l0.814-0.485
	c115.274-66.553,262.44-27.138,329.006,88.157c65.491,113.435,28.438,258.684-84.072,326.578c-3.546,2.139-4.685,6.747-2.546,10.292
	c2.134,3.536,6.739,4.69,10.293,2.545c118.67-71.611,159.374-225.562,89.31-346.913C404.368,1.463,242.531-34.646,127.455,34.867z"
	/>
<g>
</g>
<g>
</g>
<g>
</g>
<g>
</g>
<g>
</g>
<g>
</g>
<g>
</g>
<g>
</g>
<g>
</g>
<g>
</g>
<g>
</g>
<g>
</g>
<g>
</g>
<g>
</g>
<g>
</g>
</svg>
