<?xml version="1.0" encoding="iso-8859-1"?>
<!-- Generator: Adobe Illustrator 19.0.0, SVG Export Plug-In . SVG Version: 6.00 Build 0)  -->
<svg version="1.1" id="Capa_1" xmlns="http://www.w3.org/2000/svg" xmlns:xlink="http://www.w3.org/1999/xlink" x="0px" y="0px"
	 viewBox="0 0 512 512" style="enable-background:new 0 0 512 512;" xml:space="preserve">
<circle style="fill:#F4D44E;" cx="256.459" cy="255.219" r="248.371"/>
<path style="fill:#E8C842;" d="M175.56,445.326C18.859,354.854,9.399,133.328,154.314,28.817
	C108.461,49.457,68.422,84.16,41.359,131.033c-68.587,118.795-27.884,270.699,90.911,339.285
	c87.41,50.466,192.741,41.757,269.62-13.687C331.534,488.302,247.482,486.85,175.56,445.326z"/>
<path style="fill:#EAE9E8;" d="M320.821,344.895H192.044c-16.736,0-30.304-13.567-30.304-30.304l0,0
	c0-16.736,13.567-30.304,30.304-30.304h128.777c16.736,0,30.304,13.567,30.304,30.304l0,0
	C351.124,331.328,337.557,344.895,320.821,344.895z"/>
<g>
	<path style="fill:#DBDBDB;" d="M187.299,314.592L187.299,314.592c0-16.736,13.567-30.304,30.304-30.304h-25.558
		c-16.736,0-30.304,13.567-30.304,30.304l0,0c0,16.736,13.567,30.304,30.304,30.304h25.558
		C200.866,344.895,187.299,331.328,187.299,314.592z"/>
	<path style="fill:#DBDBDB;" d="M192.044,344.895h128.777c16.736,0,30.304-13.567,30.304-30.304l0,0H161.74l0,0
		C161.74,331.328,175.307,344.895,192.044,344.895z"/>
</g>
<path style="fill:#C9C6C5;" d="M187.299,314.592L187.299,314.592H161.74l0,0c0,16.871,13.715,30.304,30.304,30.304h25.558
	C200.866,344.895,187.299,331.328,187.299,314.592z"/>
<path d="M311.961,222.945l10.448-15.586c0.89-1.327,1.956-2.183,2.72-2.183c0.763,0,1.831,0.857,2.719,2.182l10.449,15.587
	c1.447,2.158,3.818,3.324,6.234,3.324c1.436,0,2.887-0.412,4.169-1.271c3.439-2.305,4.358-6.963,2.052-10.403l-10.449-15.587
	c-3.761-5.609-9.291-8.828-15.174-8.829h-0.001c-5.883,0-11.414,3.218-15.176,8.829l-10.448,15.587
	c-2.306,3.439-1.387,8.097,2.053,10.403C304.999,227.305,309.656,226.385,311.961,222.945z"/>
<path d="M173.694,222.797l10.449-15.588c0.89-1.326,1.956-2.182,2.719-2.182c0.763,0,1.829,0.856,2.719,2.182l10.449,15.587
	c1.447,2.158,3.818,3.324,6.234,3.324c1.436,0,2.887-0.412,4.169-1.271c3.439-2.305,4.358-6.963,2.052-10.403l-10.449-15.587
	c-3.761-5.61-9.291-8.829-15.175-8.829s-11.414,3.218-15.175,8.829l-10.449,15.587c-2.306,3.439-1.388,8.098,2.052,10.403
	C166.733,227.156,171.389,226.235,173.694,222.797z"/>
<path d="M322.533,338.088c-4.124,0.384-7.154,4.038-6.77,8.162c0.384,4.123,4.032,7.157,8.161,6.77
	c19.533-1.819,34.262-17.998,34.262-37.633c0-20.843-16.957-37.802-37.802-37.802H191.607c-20.844,0-37.802,16.957-37.802,37.802
	c0,20.844,16.957,37.802,37.802,37.802h96.631c4.142,0,7.498-3.357,7.498-7.498s-3.356-7.498-7.498-7.498h-96.631
	c-9.948,0-18.424-6.406-21.533-15.308H341.92C339.083,331.128,331.695,337.234,322.533,338.088z M170.075,307.889
	c2.647-7.647,9.461-13.678,17.947-15.023c1.198-0.19,2.586-0.284,3.586-0.284c137.554,0.028,128.653-0.062,130.427,0.066
	c0.705,0.05,1.35,0.125,1.936,0.218c0.37,0.059,1.057,0.19,1.64,0.327c0.525,0.124,1.017,0.248,1.779,0.494
	c0.49,0.159,1.137,0.393,1.668,0.613c0.462,0.19,0.871,0.369,1.541,0.706c0.53,0.267,1.13,0.594,1.65,0.912
	c4.363,2.672,7.909,6.88,9.671,11.973L170.075,307.889L170.075,307.889z"/>
<path d="M403.999,464.755c3.381-2.391,4.185-7.07,1.793-10.451c-2.39-3.38-7.07-4.185-10.45-1.793
	c-116,82.027-276.872,47.009-347.925-76.057C-12.487,272.697,13.577,142.61,103.884,69.239c3.214-2.611,3.702-7.333,1.092-10.547
	c-2.61-3.212-7.332-3.704-10.548-1.091c-96.091,78.07-123.533,216.307-59.998,326.351
	C109.288,513.61,279.819,552.575,403.999,464.755z"/>
<path d="M322.245,8.863C208.939-21.497,126.961,35.792,123.93,36.894c-3.549,2.134-4.694,6.742-2.56,10.29
	c2.133,3.548,6.74,4.693,10.29,2.56c1.323-0.797,2.658-1.602,3.923-2.331c55.722-32.171,120.634-40.716,182.781-24.063
	c180.469,48.357,240.804,277.63,103.301,407.605c-3.009,2.844-3.143,7.59-0.298,10.599c2.835,3,7.58,3.152,10.6,0.298
	C576.817,304.929,515.511,60.649,322.245,8.863z"/>
<g>
</g>
<g>
</g>
<g>
</g>
<g>
</g>
<g>
</g>
<g>
</g>
<g>
</g>
<g>
</g>
<g>
</g>
<g>
</g>
<g>
</g>
<g>
</g>
<g>
</g>
<g>
</g>
<g>
</g>
</svg>
