<?xml version="1.0" encoding="iso-8859-1"?>
<!-- Generator: Adobe Illustrator 19.0.0, SVG Export Plug-In . SVG Version: 6.00 Build 0)  -->
<svg version="1.1" id="Capa_1" xmlns="http://www.w3.org/2000/svg" xmlns:xlink="http://www.w3.org/1999/xlink" x="0px" y="0px"
	 viewBox="0 0 512 512" style="enable-background:new 0 0 512 512;" xml:space="preserve">
<path style="fill:#EAE9E8;" d="M476.751,367.903c-31.067-22.062-82.576-62.029-82.576-84.51c0-27.27-6.487-119.474-28.455-166.997
	c-5.391-11.663-19.66-16.245-30.926-10.067c-25.486,13.976-73.908,34.653-111.581,15.817
	c-36.076-18.038-63.656-62.083-77.849-88.988c-5.502-10.432-19.657-12.291-27.624-3.594L14.776,141.967
	c-7.72,8.428-9.903,20.532-5.624,31.13c30.446,75.395,114.355,70.822,198.65,196.328c54.664,81.389,217.218,169.385,286.047,82.89
	C512.007,429.215,507.132,389.478,476.751,367.903z"/>
<path style="fill:#DBDBDB;" d="M27.958,167.471L136.952,48.486c3.713-4.053,8.695-5.938,13.606-5.838
	c-1.886-3.331-3.626-6.518-5.193-9.489c-5.502-10.432-19.657-12.291-27.624-3.594L14.776,141.967
	c-7.72,8.428-9.903,20.532-5.624,31.13c3.128,7.746,6.829,14.637,11.027,20.923C18.542,184.564,21.309,174.728,27.958,167.471z"/>
<path style="fill:#656566;" d="M503.647,428.667c-4.708,0.986-10.988,6.12-26.877,8.524
	c-78.82,11.926-184.586-56.877-224.728-116.646c-48.669-72.463-90.952-100.192-156.75-144.95
	c-31.506-21.43-48.762-51.192-50.688-61.209c-0.248-1.291-0.681-2.5-1.252-3.614l-20.505,22.384
	c37.719,80.755,121.436,75.416,206.761,202.456c47.383,70.548,165.516,143.405,253.753,127.863
	C487.133,460.051,501.156,444.033,503.647,428.667z"/>
<path style="fill:#545456;" d="M37.209,157.371l18.837-20.565c-11.929-17.183-10.61-21.968-12.695-26.035l-20.505,22.384
	C27.076,142.209,31.887,150.174,37.209,157.371z"/>
<path d="M220.196,129.079c40.691,20.347,91.69-1.252,118.468-15.939c7.495-4.113,16.937-1.052,20.489,6.63
	c3.719,8.045,6.986,17.465,9.846,27.673l-65.923,13.723c-4.056,0.845-6.66,4.817-5.815,8.873c0.737,3.541,3.857,5.975,7.337,5.975
	c1.463,0-2.305,0.583,68.101-14.016c1.512,6.555,2.884,13.3,4.122,20.112l-63.219,13.161c-4.056,0.845-6.66,4.817-5.815,8.873
	c0.737,3.541,3.857,5.975,7.337,5.975c1.464,0-2,0.52,64.178-13.2c1.057,6.87,1.988,13.709,2.802,20.387l-57.975,12.07
	c-4.056,0.845-6.66,4.817-5.815,8.873c0.737,3.541,3.857,5.975,7.337,5.975c1.436,0-1.661,0.449,58.119-11.94
	c0.733,7.274,1.323,14.206,1.785,20.598l-50.9,10.596c-4.056,0.845-6.659,4.817-5.815,8.873c0.845,4.057,4.818,6.66,8.874,5.815
	l48.754-10.149c0.295,6.24,0.431,11.513,0.431,15.49c0,12.658,10.64,28.303,33.487,49.237c3.062,2.805,7.806,2.587,10.599-0.463
	c2.799-3.055,2.592-7.8-0.463-10.598c-25.831-23.668-28.62-34.582-28.62-38.176c0-41.434-9.061-126.623-29.129-170.033
	c-7.213-15.602-26.281-21.737-41.322-13.49c-56.388,30.925-89.703,23.096-104.545,15.675c-12.613-6.307-25.343-16.739-37.837-31.006
	c-2.73-3.116-7.469-3.431-10.585-0.702c-3.117,2.73-3.431,7.469-0.702,10.585C191.564,110.277,205.834,121.897,220.196,129.079z"/>
<path d="M481.263,361.846c-8.529-6.057-16.66-12.088-24.166-17.924c-3.27-2.543-7.983-1.952-10.526,1.317
	c-2.543,3.271-1.953,7.983,1.317,10.526c25.289,19.663,33.957,22.338,42.824,38.842c4.804,8.944,6.879,18.939,6.17,28.621
	c-67.969,32.784-193.338-39.841-238.294-106.776c-22.18-33.025-46.422-60.892-74.108-85.193
	c-29.486-25.882-57.461-43.258-84.545-61.68c-28.706-19.525-45.397-46.454-47.599-56.779l71.344-77.885
	c2.114-2.31,5.102-3.409,8.208-3.004c7.975,1.025,5.688,5.67,24.196,33.841c2.275,3.462,6.927,4.423,10.389,2.148
	s4.425-6.927,2.149-10.389c-5.684-8.649-11.147-17.926-16.234-27.572c-7.93-15.035-28.344-17.635-39.772-5.159
	C90.266,49.182,31.634,113.19,9.722,137.11c-9.644,10.527-12.354,25.839-7.045,38.986c31.755,78.635,115.491,72.868,199.246,197.57
	c58.753,87.477,222.489,170.6,295.198,86.623C521.254,432.535,516.075,386.568,481.263,361.846z M214.378,365.3
	C130.155,239.902,45.5,242.072,16.589,170.477c-5.746-14.23,4.962-24.013,5.024-24.135c28.677,50.146,68.987,63.184,120.737,104.432
	c3.24,2.583,7.96,2.049,10.541-1.19c2.583-3.24,2.049-7.96-1.19-10.542c-53.964-43.013-93.416-54.719-119.381-104.39l8.702-9.5
	c34.893,73.565,118.589,70.843,205.11,199.666c46.981,69.947,169.828,141.109,245.827,116.521
	c-2.875,5.749-7.245,10.677-11.911,15.119c-83.88,12.709-197.45-55.818-243.88-124.95c-17.707-26.362-36.493-48.905-57.433-68.915
	c-2.996-2.863-7.744-2.757-10.606,0.24c-2.863,2.996-2.755,7.744,0.241,10.606c20.147,19.252,38.25,40.983,55.344,66.434
	c42.386,63.111,144.299,131.955,231.384,133.204C382.337,504.66,259.002,431.741,214.378,365.3z"/>
<g>
</g>
<g>
</g>
<g>
</g>
<g>
</g>
<g>
</g>
<g>
</g>
<g>
</g>
<g>
</g>
<g>
</g>
<g>
</g>
<g>
</g>
<g>
</g>
<g>
</g>
<g>
</g>
<g>
</g>
</svg>
