<?xml version="1.0" encoding="iso-8859-1"?>
<!-- Generator: Adobe Illustrator 19.0.0, SVG Export Plug-In . SVG Version: 6.00 Build 0)  -->
<svg version="1.1" id="Capa_1" xmlns="http://www.w3.org/2000/svg" xmlns:xlink="http://www.w3.org/1999/xlink" x="0px" y="0px"
	 viewBox="0 0 512 512" style="enable-background:new 0 0 512 512;" xml:space="preserve">
<path style="fill:#F4A32C;" d="M267.939,33.404l53.29,107.978c1.939,3.928,5.687,6.651,10.022,7.281l119.16,17.315
	c10.918,1.586,15.278,15.004,7.377,22.705l-86.225,84.049c-3.137,3.058-4.569,7.464-3.828,11.783l20.355,118.678
	c1.865,10.874-9.548,19.167-19.314,14.033l-106.58-56.033c-3.878-2.039-8.51-2.039-12.389,0l-106.58,56.033
	c-9.765,5.134-21.179-3.158-19.314-14.033l20.355-118.678c0.741-4.318-0.691-8.724-3.828-11.783l-86.225-84.049
	c-7.9-7.701-3.541-21.118,7.377-22.705l119.16-17.315c4.335-0.63,8.083-3.353,10.022-7.281l53.29-107.978
	C248.948,23.511,263.055,23.511,267.939,33.404z"/>
<path style="fill:#E89528;" d="M179.184,386.933l20.355-118.678c0.741-4.318-0.691-8.724-3.828-11.783l-86.225-84.049
	c-3.73-3.636-4.725-8.545-3.588-12.884l-44.304,6.438c-10.917,1.586-15.278,15.004-7.377,22.705l86.225,84.049
	c3.137,3.058,4.568,7.464,3.828,11.783l-20.355,118.678c-1.865,10.874,9.548,19.167,19.314,14.033l38.342-20.158
	C179.543,394.34,178.52,390.802,179.184,386.933z"/>
<path style="fill:#F4D44E;" d="M265.488,416.636c-2.532-8.063-13.896-8.194-16.614-0.192c-0.589,1.733-26.242,77.271-25.982,76.505
	c-1.925,5.668,2.289,11.55,8.275,11.55h50.007c5.901,0,10.106-5.728,8.338-11.358L265.488,416.636z"/>
<path style="fill:#E8C842;" d="M255.447,498.626c-0.005,0.808,0.557-78.965,0.57-80.796c0.021-3.071,1.469-5.478,3.535-6.974
	c-4.13-1.139-9.017,0.697-10.677,5.587c-0.588,1.733-26.242,77.271-25.982,76.505c-1.925,5.668,2.289,11.55,8.275,11.55h26.498
	C256.288,502.961,255.431,500.923,255.447,498.626z"/>
<path style="fill:#F4D44E;" d="M358.343,88c-2.77,7.854,6.112,14.675,12.986,9.971c1.63-1.115,66.687-45.631,65.71-44.963
	c4.868-3.331,5.022-10.459,0.303-13.999L397.913,9.45c-4.653-3.488-11.355-1.458-13.289,4.026L358.343,88z"/>
<path style="fill:#E8C842;" d="M365.246,89.505c50.146-65.488,47.133-64.291,51.53-65.912L397.913,9.45
	c-4.653-3.488-11.355-1.458-13.289,4.026L358.343,88c-1.927,5.462,1.784,10.42,6.535,11.355
	C363.065,96.546,362.811,92.727,365.246,89.505z"/>
<path style="fill:#F4D44E;" d="M154.438,88.836c2.806,7.957-6.192,14.868-13.156,10.102c-1.651-1.13-67.56-46.229-66.571-45.552
	c-4.932-3.375-5.088-10.596-0.307-14.182l39.945-29.947c4.713-3.534,11.503-1.477,13.463,4.079L154.438,88.836z"/>
<path style="fill:#E8C842;" d="M148.037,93.741c-1.267-1.548-51.86-63.34-51.101-62.414c-1.883-2.299-2.362-5.18-1.683-7.753
	L74.404,39.204c-4.781,3.584-4.625,10.806,0.307,14.182c-0.989-0.676,64.92,44.423,66.571,45.553
	c4.328,2.961,9.44,1.411,12.019-2.097C151.376,96.524,149.508,95.537,148.037,93.741z"/>
<path d="M272.643,414.389c-4.694-14.949-25.808-15.262-30.87-0.357c-0.096,0.283-26.071,76.765-25.982,76.506
	C212.218,501.056,220.056,512,231.168,512h50.007c10.975,0,18.783-10.633,15.493-21.105L272.643,414.389z M281.175,496.999h-50.007
	c-0.855,0-1.449-0.826-1.174-1.637l-0.003-0.001c0,0,0-0.002,0.001-0.002l0.003,0.001c0.012-0.037,0.024-0.073,0.036-0.109
	c16.817-48.209,25.205-77.328,27.133-77.235c1.386,0.017-0.921-5.783,25.192,77.374
	C282.609,496.191,282.019,496.999,281.175,496.999z"/>
<path d="M161.512,86.341l-26.626-75.499c-3.645-10.34-16.26-14.166-25.034-7.586L69.906,33.203
	c-8.488,6.364-9.135,19.732,0.915,26.608c1.297,0.888,65.296,44.68,66.226,45.316C142.923,109.15,166.722,101.122,161.512,86.341z
	 M78.946,47.195c-0.695-0.475-0.722-1.48-0.042-1.989c39.64-29.516,40.936-31.92,41.834-29.375
	c28.934,82.044,27.313,76.037,26.217,76.879c-1.023,0.781,3.504,3.419-49.907-33.128C95.463,58.497,103.052,63.69,78.946,47.195z"/>
<path d="M432.004,99.158l-48.186,15.595c-8.072,2.613-6.215,14.639,2.308,14.639c2.146,0,0.058,0.227,50.497-15.961
	c3.94-1.275,6.102-5.504,4.826-9.445C440.173,100.044,435.943,97.885,432.004,99.158z"/>
<path d="M82.114,99.158c-3.941-1.274-8.17,0.886-9.445,4.826c-1.275,3.941,0.886,8.17,4.826,9.445l48.186,15.595
	c3.941,1.274,8.169-0.884,9.445-4.826c1.275-3.941-0.886-8.17-4.826-9.445L82.114,99.158z"/>
<path d="M180.433,28.232c-4.143,0.024-7.48,3.402-7.456,7.544l0.297,50.646c0.024,4.127,3.377,7.456,7.499,7.456
	c4.157,0,7.526-3.381,7.501-7.544l-0.297-50.646C187.953,31.635,184.691,28.232,180.433,28.232z"/>
<path d="M323.445,35.688l-0.298,50.646c-0.024,4.142,3.313,7.52,7.456,7.544c4.251,0,7.52-3.397,7.544-7.456l0.298-50.646
	c0.024-4.142-3.313-7.52-7.456-7.544C326.738,28.232,323.469,31.629,323.445,35.688z"/>
<path d="M228.266,404.788c-3.164-2.675-7.896-2.278-10.569,0.884l-32.702,38.675c-2.675,3.163-2.279,7.896,0.884,10.569
	c3.162,2.673,7.893,2.28,10.569-0.884l32.702-38.675C231.824,412.194,231.429,407.462,228.266,404.788z"/>
<path d="M296.648,405.672c-2.675-3.161-7.404-3.558-10.57-0.885c-3.163,2.675-3.559,7.407-0.885,10.57l32.701,38.675
	c2.683,3.171,7.413,3.552,10.57,0.885c3.163-2.675,3.559-7.407,0.885-10.57L296.648,405.672z"/>
<path d="M441.84,33.009l-39.429-29.56c-8.712-6.532-21.238-2.738-24.861,7.533l-26.281,74.524
	c-5.185,14.708,11.449,27.449,24.298,18.654l25.522-17.465c3.419-2.339,4.293-7.007,1.954-10.425
	c-2.339-3.418-7.006-4.295-10.425-1.954l-25.524,17.466c-0.906,0.616-2.043-0.25-1.678-1.287
	c28.088-79.163,25.982-74.907,27.008-75.218c1.02-0.307-1.359-1.386,40.418,29.733c0.304,0.229,0.453,0.536,0.445,0.915
	c-0.023,0.995-0.184,0.536-10.077,7.458c-3.419,2.339-4.293,7.007-1.954,10.425c2.339,3.419,7.006,4.292,10.425,1.954
	c0.1-0.068,9.411-6.441,9.575-6.552l-0.017-0.024c0.005-0.004,0.011-0.009,0.016-0.013l0.018,0.025
	C450.37,52.977,450.661,39.623,441.84,33.009z"/>
<path d="M391.181,243.135l-24.853,24.226c-4.906,4.782-7.144,11.67-5.984,18.421l20.355,118.678
	c0.815,4.757-4.159,8.371-8.431,6.126l-106.58-56.033c-6.064-3.188-13.306-3.188-19.37,0l-106.58,56.033
	c-4.28,2.249-9.244-1.379-8.431-6.126l7.819-45.594c0.7-4.082-2.041-7.96-6.124-8.659c-4.08-0.708-7.96,2.042-8.659,6.124
	l-7.819,45.594c-1.35,7.864,1.822,15.665,8.278,20.355c3.647,2.65,7.916,3.997,12.213,3.996c9.128,0,4.151-0.436,116.284-58.445
	c1.693-0.891,3.715-0.891,5.408,0l106.58,56.033c15.265,8.025,33.111-4.951,30.195-21.939l-20.354-118.681
	c-0.323-1.884,0.302-3.807,1.672-5.142l24.853-24.225c2.966-2.892,3.026-7.64,0.136-10.606
	C398.897,240.307,394.148,240.244,391.181,243.135z"/>
<path d="M451.489,158.557L332.33,141.242c-1.893-0.275-3.528-1.464-4.375-3.179l-53.29-107.978
	c-7.632-15.465-29.695-15.457-37.324,0l-53.29,107.978c-0.847,1.715-2.482,2.903-4.375,3.179l-119.16,17.315
	c-17.066,2.478-23.878,23.466-11.535,35.498l86.225,84.048c1.37,1.336,1.995,3.259,1.672,5.145l-6.611,38.554
	c-0.7,4.082,2.041,7.96,6.124,8.659c4.047,0.701,7.955-2.014,8.659-6.124l6.611-38.552c1.159-6.753-1.078-13.641-5.984-18.424
	L59.45,183.312c-3.455-3.368-1.554-9.216,3.221-9.91l119.159-17.315c6.78-0.984,12.639-5.24,15.671-11.385l53.29-107.979
	c2.131-4.319,8.281-4.334,10.42,0l53.29,107.978c3.032,6.144,8.89,10.399,15.671,11.385L449.333,173.4
	c4.776,0.694,6.675,6.543,3.22,9.911l-36.262,35.348c-2.966,2.891-3.026,7.64-0.135,10.605c2.891,2.966,7.64,3.028,10.605,0.135
	l36.261-35.347c5.715-5.569,7.732-13.745,5.267-21.334C465.825,165.13,459.386,159.703,451.489,158.557z"/>
<g>
</g>
<g>
</g>
<g>
</g>
<g>
</g>
<g>
</g>
<g>
</g>
<g>
</g>
<g>
</g>
<g>
</g>
<g>
</g>
<g>
</g>
<g>
</g>
<g>
</g>
<g>
</g>
<g>
</g>
</svg>
