<?xml version="1.0" encoding="iso-8859-1"?>
<!-- Generator: Adobe Illustrator 19.0.0, SVG Export Plug-In . SVG Version: 6.00 Build 0)  -->
<svg version="1.1" id="Capa_1" xmlns="http://www.w3.org/2000/svg" xmlns:xlink="http://www.w3.org/1999/xlink" x="0px" y="0px"
	 viewBox="0 0 512 512" style="enable-background:new 0 0 512 512;" xml:space="preserve">
<path style="fill:#BDC4CE;" d="M256,7.604C118.814,7.604,7.604,118.814,7.604,256v248.396h496.792V256
	C504.396,118.815,393.186,7.604,256,7.604z"/>
<path style="fill:#9A9FA5;" d="M478.51,255.973c0,27.802-5.114,54.396-14.412,78.85C432.297,418.788,351.122,478.484,256,478.484
	c-122.925,0-222.51-99.586-222.51-222.51c0-102.654,69.645-189.223,164.302-214.794c18.504-5.021,38.031-7.718,58.208-7.718
	C378.925,33.462,478.51,133.141,478.51,255.973z"/>
<path style="fill:#FFFFFF;" d="M452.439,255.969c0,24.546-4.522,48.027-12.724,69.612c-4.542,12.004-10.23,23.44-16.932,34.187
	c-34.674,55.631-96.408,92.637-166.78,92.637c-108.524,0-196.436-87.912-196.436-196.436c0-70.321,37.026-132.096,92.657-166.77
	c16.06-10.037,33.67-17.793,52.386-22.852c16.333-4.431,33.579-6.813,51.393-6.813C364.517,59.533,452.439,147.536,452.439,255.969z
	"/>
<path style="fill:#E7ECF2;" d="M452.439,255.969c0,24.546-4.522,48.027-12.724,69.612c-4.542,12.004-10.23,23.44-16.932,34.187
	c-30.112,18.756-65.668,29.605-103.748,29.605c-108.514,0-196.436-87.922-196.436-196.436c0-38.06,10.848-73.627,29.625-103.738
	c16.06-10.037,33.67-17.793,52.386-22.852c16.333-4.431,33.579-6.813,51.393-6.813C364.517,59.533,452.439,147.536,452.439,255.969z
	"/>
<g>
	<polygon style="fill:#DF1B17;" points="352.453,159.547 281.216,178.635 333.365,230.784 	"/>
	<polygon style="fill:#DF1B17;" points="310.94,208.363 303.641,201.065 209.175,250.682 261.323,302.83 	"/>
</g>
<path d="M256,51.967C143.496,51.967,51.967,143.496,51.967,256S143.496,460.033,256,460.033S460.033,368.504,460.033,256
	S368.504,51.967,256,51.967z M256,444.825c-104.118,0-188.825-84.706-188.825-188.825c0-104.117,84.706-188.825,188.825-188.825
	c104.117,0,188.825,84.706,188.825,188.825C444.825,360.118,360.117,444.825,256,444.825z"/>
<path d="M15.208,257.846c0-63.83,24.523-125.495,69.353-170.931C130.172,40.688,191.128,15.208,256,15.208
	c55.499,0,109.203,19.151,152.056,54.075c3.193,2.603,7.865,2.224,10.564-0.886l0.005-0.005c2.826-3.257,2.363-8.187-0.979-10.911
	C372.085,20.356,314.997,0,256,0C187.03,0,122.225,27.089,73.734,76.236C26.071,124.542,0,190.102,0,257.963v147.855
	c0,4.199,3.405,7.604,7.604,7.604l0,0c4.199,0,7.604-3.405,7.604-7.604V257.846z"/>
<path d="M431.023,79.906L431.023,79.906c-2.91,2.927-2.932,7.622-0.094,10.618c42.531,44.89,65.863,103.36,65.863,165.475v240.792
	H15.208v-55.489c0-4.199-3.405-7.604-7.604-7.604l0,0c-4.199,0-7.604,3.405-7.604,7.604v63.093C0,508.595,3.405,512,7.604,512
	h496.792c4.199,0,7.604-3.405,7.604-7.604V256c0-66.07-24.829-128.263-70.089-175.996C438.971,76.903,434.034,76.876,431.023,79.906
	z"/>
<path d="M251.775,94.288c0.416,0.274,0.862,0.507,1.318,0.689c0.456,0.193,0.933,0.345,1.419,0.436
	c0.497,0.101,0.994,0.152,1.49,0.152c1.997,0,3.953-0.811,5.373-2.23c1.419-1.409,2.23-3.376,2.23-5.373
	c0-0.497-0.051-0.994-0.152-1.49c-0.101-0.477-0.243-0.963-0.436-1.419c-0.193-0.456-0.426-0.902-0.7-1.308
	c-0.274-0.416-0.588-0.811-0.943-1.156c-1.764-1.774-4.39-2.585-6.864-2.078c-0.487,0.091-0.963,0.243-1.419,0.426
	c-0.456,0.193-0.902,0.426-1.318,0.7c-0.416,0.284-0.801,0.598-1.156,0.953c-1.409,1.409-2.22,3.376-2.22,5.373
	c0,1.997,0.811,3.964,2.22,5.373C250.974,93.69,251.36,94.004,251.775,94.288z"/>
<path d="M263.019,421.127c-0.193-0.456-0.426-0.892-0.7-1.308c-0.274-0.416-0.588-0.801-0.943-1.156
	c-1.764-1.764-4.39-2.575-6.864-2.078c-0.487,0.101-0.963,0.243-1.419,0.436c-0.456,0.193-0.902,0.426-1.318,0.7
	c-0.416,0.274-0.801,0.588-1.156,0.943c-0.345,0.355-0.669,0.74-0.943,1.156c-0.274,0.416-0.507,0.852-0.7,1.308
	c-0.193,0.466-0.335,0.943-0.436,1.43c-0.091,0.487-0.142,0.983-0.142,1.48c0,0.497,0.051,1.004,0.142,1.49
	c0.101,0.487,0.243,0.963,0.436,1.419c0.193,0.456,0.426,0.902,0.7,1.318c0.274,0.416,0.598,0.801,0.943,1.156
	c0.355,0.345,0.74,0.669,1.156,0.943c0.416,0.274,0.862,0.507,1.318,0.7c0.456,0.193,0.933,0.335,1.419,0.436
	c0.497,0.091,0.994,0.142,1.49,0.142c1.997,0,3.964-0.811,5.373-2.22c0.355-0.355,0.669-0.74,0.943-1.156
	c0.275-0.416,0.507-0.862,0.7-1.318c0.192-0.456,0.335-0.933,0.436-1.419c0.102-0.487,0.152-0.994,0.152-1.49
	c0-0.497-0.051-0.994-0.152-1.48S263.211,421.593,263.019,421.127z"/>
<path d="M191.501,101c0.193,0.466,0.426,0.902,0.7,1.318c0.284,0.416,0.598,0.801,0.953,1.156c0.345,0.345,0.74,0.669,1.156,0.943
	c0.406,0.274,0.852,0.507,1.308,0.7c0.456,0.193,0.943,0.335,1.419,0.436c0.497,0.101,0.994,0.152,1.49,0.152
	s0.994-0.051,1.49-0.152c0.477-0.101,0.963-0.243,1.419-0.436c0.456-0.193,0.902-0.426,1.308-0.7
	c0.416-0.274,0.811-0.598,1.156-0.943c0.355-0.355,0.669-0.74,0.953-1.156c0.274-0.416,0.507-0.852,0.7-1.318
	c0.182-0.456,0.335-0.933,0.426-1.419c0.101-0.487,0.152-0.994,0.152-1.48c0-0.497-0.051-1.004-0.152-1.49
	c-0.091-0.487-0.243-0.963-0.426-1.419c-0.193-0.466-0.426-0.902-0.7-1.318c-0.284-0.416-0.598-0.801-0.953-1.156
	c-0.345-0.345-0.74-0.669-1.156-0.943c-0.406-0.274-0.852-0.507-1.308-0.7s-0.943-0.335-1.419-0.436
	c-0.983-0.193-1.997-0.193-2.981,0c-0.477,0.101-0.963,0.243-1.419,0.436c-0.456,0.193-0.902,0.426-1.308,0.7
	c-0.416,0.274-0.811,0.598-1.156,0.943c-0.355,0.355-0.669,0.74-0.953,1.156c-0.274,0.416-0.507,0.852-0.7,1.318
	c-0.182,0.456-0.335,0.933-0.426,1.419c-0.101,0.487-0.152,0.994-0.152,1.49c0,0.487,0.051,0.994,0.152,1.48
	C191.167,100.067,191.319,100.544,191.501,101z"/>
<path d="M320.494,410.998c-0.192-0.456-0.426-0.902-0.699-1.318c-0.275-0.416-0.598-0.801-0.943-1.156
	c-0.356-0.345-0.74-0.659-1.157-0.943c-0.416-0.274-0.852-0.507-1.318-0.7c-0.456-0.182-0.933-0.335-1.419-0.426
	c-0.983-0.203-1.987-0.203-2.971,0c-0.486,0.091-0.963,0.243-1.43,0.426c-0.456,0.193-0.892,0.426-1.308,0.7
	c-0.416,0.284-0.801,0.598-1.156,0.943c-0.355,0.355-0.669,0.74-0.943,1.156c-0.275,0.416-0.507,0.862-0.7,1.318
	c-0.193,0.456-0.335,0.933-0.436,1.419c-0.102,0.497-0.152,0.994-0.152,1.49c0,0.497,0.051,0.994,0.152,1.48
	c0.101,0.487,0.242,0.963,0.436,1.43c0.193,0.456,0.426,0.892,0.7,1.308c0.274,0.416,0.588,0.811,0.943,1.156
	c0.355,0.355,0.739,0.669,1.156,0.943c0.417,0.274,0.852,0.517,1.308,0.7c0.466,0.193,0.944,0.335,1.43,0.436
	c0.487,0.101,0.983,0.152,1.48,0.152c0.497,0,0.994-0.051,1.49-0.152c0.487-0.101,0.963-0.243,1.419-0.436
	c0.466-0.182,0.902-0.426,1.318-0.7s0.801-0.588,1.157-0.943c0.345-0.345,0.668-0.74,0.943-1.156
	c0.274-0.416,0.507-0.852,0.699-1.308c0.184-0.466,0.335-0.943,0.427-1.43c0.101-0.487,0.151-0.983,0.151-1.48
	c0-0.497-0.051-0.994-0.151-1.49C320.828,411.931,320.677,411.454,320.494,410.998z"/>
<path d="M155.002,124.369c-0.182-0.466-0.416-0.902-0.689-1.318c-0.284-0.416-0.598-0.801-0.953-1.156
	c-0.345-0.345-0.74-0.669-1.156-0.943c-0.406-0.274-0.852-0.507-1.308-0.7s-0.943-0.335-1.419-0.436
	c-0.983-0.193-1.997-0.193-2.971,0c-0.487,0.101-0.973,0.243-1.43,0.436s-0.902,0.426-1.308,0.7
	c-0.416,0.274-0.811,0.598-1.156,0.943c-0.355,0.355-0.669,0.74-0.953,1.156c-0.274,0.416-0.507,0.852-0.7,1.318
	c-0.182,0.456-0.335,0.933-0.426,1.419c-0.101,0.487-0.152,0.994-0.152,1.49c0,0.487,0.051,0.994,0.152,1.48
	c0.091,0.487,0.243,0.963,0.426,1.419c0.193,0.466,0.426,0.902,0.7,1.318c0.284,0.416,0.598,0.801,0.953,1.156
	c0.345,0.345,0.74,0.669,1.156,0.943c0.406,0.274,0.852,0.507,1.308,0.7c0.456,0.193,0.943,0.335,1.43,0.436
	c0.487,0.101,0.983,0.152,1.48,0.152s0.994-0.051,1.49-0.152c0.477-0.101,0.963-0.243,1.419-0.436
	c0.456-0.193,0.902-0.426,1.308-0.7c0.416-0.274,0.811-0.598,1.156-0.943c0.355-0.355,0.669-0.74,0.953-1.156
	c0.274-0.416,0.507-0.852,0.689-1.318c0.193-0.456,0.345-0.933,0.436-1.419c0.101-0.487,0.152-0.994,0.152-1.48
	c0-0.497-0.051-1.004-0.152-1.49C155.347,125.302,155.195,124.826,155.002,124.369z"/>
<path d="M371.036,381.819c-0.193-0.456-0.426-0.902-0.7-1.318c-0.274-0.416-0.598-0.801-0.943-1.156
	c-0.355-0.345-0.74-0.669-1.156-0.943c-0.416-0.274-0.863-0.507-1.319-0.7c-0.455-0.193-0.933-0.335-1.418-0.436
	c-0.983-0.193-1.997-0.193-2.972,0c-0.486,0.101-0.962,0.243-1.429,0.436c-0.456,0.193-0.892,0.426-1.308,0.7
	c-0.416,0.274-0.801,0.598-1.157,0.943c-0.355,0.355-0.669,0.74-0.943,1.156c-0.274,0.416-0.517,0.862-0.7,1.318
	c-0.192,0.456-0.334,0.933-0.436,1.419c-0.101,0.487-0.151,0.994-0.151,1.49c0,1.997,0.811,3.954,2.229,5.373
	c0.356,0.355,0.74,0.669,1.157,0.943c0.417,0.274,0.852,0.517,1.308,0.7c0.466,0.193,0.943,0.335,1.429,0.436
	c0.487,0.101,0.984,0.152,1.481,0.152c0.496,0,0.993-0.051,1.49-0.152c0.486-0.101,0.963-0.243,1.418-0.436
	c0.456-0.182,0.903-0.426,1.319-0.7c0.415-0.274,0.801-0.588,1.156-0.943c0.345-0.355,0.669-0.74,0.943-1.156
	c0.275-0.416,0.507-0.852,0.7-1.308c0.192-0.466,0.335-0.943,0.436-1.43c0.091-0.487,0.143-0.983,0.143-1.48
	s-0.052-1.004-0.143-1.49C371.37,382.752,371.227,382.275,371.036,381.819z"/>
<path d="M117.499,169.071c-0.193-0.456-0.426-0.902-0.7-1.308c-0.284-0.416-0.598-0.811-0.953-1.156
	c-0.345-0.355-0.74-0.669-1.156-0.953c-0.406-0.274-0.852-0.507-1.308-0.689c-0.456-0.193-0.943-0.345-1.419-0.436
	c-0.983-0.203-1.997-0.203-2.971,0c-0.487,0.091-0.973,0.243-1.43,0.436c-0.456,0.182-0.902,0.416-1.308,0.689
	c-0.416,0.284-0.811,0.598-1.156,0.953c-0.355,0.345-0.669,0.74-0.953,1.156c-0.274,0.406-0.507,0.852-0.689,1.308
	c-0.193,0.456-0.345,0.943-0.436,1.419c-0.101,0.497-0.152,0.994-0.152,1.49s0.051,0.994,0.152,1.49
	c0.091,0.477,0.243,0.963,0.436,1.419c0.182,0.456,0.416,0.902,0.689,1.308c0.284,0.416,0.598,0.811,0.953,1.156
	c0.345,0.355,0.74,0.669,1.156,0.953c0.406,0.274,0.852,0.507,1.308,0.7c0.456,0.182,0.943,0.335,1.43,0.426
	c0.487,0.101,0.983,0.152,1.48,0.152c0.497,0,0.994-0.051,1.49-0.152c0.477-0.091,0.963-0.243,1.419-0.426
	c0.456-0.193,0.902-0.426,1.308-0.7c0.416-0.284,0.811-0.598,1.156-0.953c0.355-0.345,0.669-0.74,0.953-1.156
	c0.274-0.406,0.507-0.852,0.7-1.308c0.183-0.456,0.335-0.943,0.426-1.419c0.101-0.497,0.152-0.994,0.152-1.49
	s-0.051-0.994-0.152-1.49C117.834,170.013,117.682,169.527,117.499,169.071z"/>
<path d="M401.523,347.622c2.006,0,3.963-0.811,5.384-2.22c1.409-1.419,2.22-3.376,2.22-5.384c0-0.497-0.052-0.994-0.143-1.48
	c-0.101-0.487-0.243-0.963-0.436-1.43c-0.193-0.456-0.426-0.892-0.7-1.308c-0.274-0.416-0.598-0.811-0.943-1.156
	c-1.419-1.419-3.376-2.23-5.384-2.23c-1.998,0-3.964,0.811-5.374,2.23c-0.355,0.345-0.669,0.74-0.943,1.156s-0.517,0.852-0.7,1.308
	c-0.192,0.466-0.345,0.943-0.436,1.43c-0.101,0.487-0.151,0.983-0.151,1.48c0,2.007,0.811,3.964,2.229,5.384
	C397.558,346.811,399.525,347.622,401.523,347.622z"/>
<path d="M97.537,223.91c-0.193-0.456-0.426-0.902-0.7-1.308c-0.274-0.416-0.598-0.811-0.943-1.156
	c-0.355-0.355-0.74-0.669-1.156-0.943c-0.416-0.274-0.852-0.517-1.318-0.7c-0.456-0.193-0.933-0.345-1.419-0.436
	c-0.983-0.203-1.987-0.203-2.971,0c-0.487,0.091-0.963,0.243-1.419,0.436c-0.466,0.182-0.902,0.426-1.318,0.7
	c-0.416,0.274-0.811,0.588-1.156,0.943c-1.419,1.409-2.23,3.376-2.23,5.373c0,2.007,0.811,3.964,2.23,5.373
	c0.345,0.355,0.74,0.669,1.156,0.953c0.416,0.274,0.852,0.507,1.318,0.7c0.456,0.182,0.933,0.335,1.419,0.426
	c0.487,0.101,0.994,0.152,1.48,0.152c0.497,0,1.004-0.051,1.49-0.152c0.487-0.091,0.963-0.243,1.419-0.426
	c0.466-0.193,0.902-0.426,1.318-0.7c0.416-0.284,0.801-0.598,1.156-0.953c0.345-0.345,0.669-0.74,0.943-1.156
	c0.274-0.406,0.507-0.852,0.7-1.308c0.193-0.456,0.335-0.943,0.436-1.419c0.091-0.497,0.142-0.994,0.142-1.49
	s-0.051-0.994-0.142-1.48C97.871,224.853,97.729,224.377,97.537,223.91z"/>
<path d="M414.459,288.088c0.192,0.456,0.426,0.902,0.699,1.308c0.284,0.426,0.598,0.811,0.953,1.166
	c0.345,0.345,0.739,0.659,1.156,0.943c0.406,0.274,0.852,0.507,1.308,0.7c0.456,0.182,0.944,0.335,1.43,0.426
	c0.487,0.101,0.983,0.152,1.48,0.152c2.007,0,3.964-0.811,5.373-2.22c0.356-0.355,0.669-0.74,0.953-1.166
	c0.274-0.406,0.507-0.852,0.699-1.308c0.184-0.456,0.335-0.933,0.426-1.419c0.102-0.497,0.152-0.994,0.152-1.49
	s-0.051-0.994-0.152-1.48c-0.091-0.487-0.242-0.963-0.426-1.43c-0.192-0.456-0.426-0.902-0.699-1.308
	c-0.284-0.416-0.598-0.811-0.953-1.156c-1.763-1.764-4.39-2.575-6.854-2.078c-0.486,0.101-0.973,0.243-1.43,0.436
	c-0.456,0.182-0.902,0.426-1.308,0.7c-0.416,0.274-0.811,0.588-1.156,0.943c-0.356,0.345-0.669,0.74-0.953,1.156
	c-0.274,0.406-0.507,0.852-0.699,1.308c-0.184,0.466-0.335,0.943-0.426,1.43c-0.102,0.487-0.152,0.983-0.152,1.48
	s0.051,0.994,0.152,1.49C414.125,287.155,414.276,287.631,414.459,288.088z"/>
<path d="M97.537,282.268c-0.193-0.456-0.426-0.902-0.7-1.308c-0.274-0.416-0.598-0.811-0.943-1.156
	c-0.355-0.355-0.74-0.669-1.156-0.943c-0.416-0.274-0.852-0.517-1.318-0.7c-0.456-0.193-0.933-0.335-1.419-0.436
	c-0.983-0.203-1.987-0.203-2.971,0c-0.487,0.101-0.963,0.243-1.419,0.436c-0.466,0.182-0.902,0.426-1.318,0.7
	c-0.416,0.274-0.811,0.588-1.156,0.943c-1.419,1.409-2.23,3.376-2.23,5.373c0,2.007,0.811,3.964,2.23,5.373
	c0.355,0.355,0.74,0.669,1.156,0.953c0.416,0.274,0.852,0.507,1.318,0.7c0.456,0.182,0.933,0.335,1.419,0.436
	c0.487,0.091,0.994,0.142,1.48,0.142c2.007,0,3.964-0.811,5.384-2.231c0.345-0.345,0.669-0.73,0.943-1.156
	c0.274-0.406,0.507-0.852,0.7-1.308c0.193-0.456,0.335-0.933,0.436-1.419c0.091-0.497,0.142-0.994,0.142-1.49
	s-0.051-0.994-0.142-1.48C97.871,283.211,97.729,282.734,97.537,282.268z"/>
<path d="M414.459,229.73c0.192,0.456,0.426,0.902,0.699,1.308c0.284,0.426,0.598,0.811,0.953,1.156
	c0.345,0.355,0.739,0.669,1.156,0.953c0.406,0.274,0.852,0.507,1.308,0.7c0.456,0.182,0.944,0.335,1.43,0.426
	c0.487,0.101,0.983,0.152,1.48,0.152c2.007,0,3.964-0.811,5.373-2.23c0.356-0.345,0.669-0.73,0.953-1.156
	c0.274-0.406,0.507-0.852,0.699-1.308c0.184-0.456,0.335-0.943,0.426-1.419c0.102-0.497,0.152-0.994,0.152-1.49
	s-0.051-0.994-0.152-1.48c-0.091-0.487-0.242-0.963-0.426-1.43c-0.192-0.456-0.426-0.902-0.699-1.308
	c-0.284-0.416-0.598-0.811-0.953-1.156c-1.763-1.764-4.39-2.575-6.854-2.078c-0.486,0.091-0.973,0.243-1.43,0.436
	c-0.456,0.182-0.902,0.426-1.308,0.7c-0.416,0.274-0.811,0.588-1.156,0.943c-0.356,0.345-0.669,0.74-0.953,1.156
	c-0.274,0.406-0.507,0.852-0.699,1.308c-0.184,0.466-0.335,0.943-0.426,1.43c-0.102,0.487-0.152,0.983-0.152,1.48
	s0.051,0.994,0.152,1.49C414.125,228.787,414.276,229.274,414.459,229.73z"/>
<path d="M117.499,337.108c-0.193-0.456-0.426-0.892-0.7-1.308c-0.284-0.416-0.598-0.811-0.953-1.156
	c-0.345-0.355-0.74-0.669-1.156-0.943c-0.406-0.274-0.852-0.517-1.308-0.7c-0.456-0.193-0.943-0.335-1.419-0.436
	c-0.983-0.193-1.997-0.193-2.971,0c-0.487,0.101-0.973,0.243-1.43,0.436c-0.456,0.182-0.902,0.426-1.308,0.7
	c-0.416,0.274-0.811,0.588-1.156,0.943c-0.355,0.345-0.669,0.74-0.953,1.156c-0.274,0.416-0.507,0.852-0.689,1.308
	c-0.193,0.466-0.345,0.943-0.436,1.43c-0.101,0.487-0.152,0.983-0.152,1.48c0,0.497,0.051,0.994,0.152,1.49
	c0.091,0.487,0.243,0.963,0.436,1.419c0.182,0.456,0.416,0.902,0.689,1.318c0.284,0.416,0.598,0.801,0.953,1.156
	c0.345,0.345,0.74,0.659,1.156,0.943c0.406,0.274,0.852,0.507,1.308,0.7c0.456,0.182,0.943,0.335,1.43,0.436
	c0.487,0.091,0.983,0.142,1.48,0.142c0.497,0,0.994-0.051,1.49-0.142c0.477-0.101,0.963-0.253,1.419-0.436
	c0.456-0.193,0.902-0.426,1.308-0.7c0.416-0.284,0.811-0.598,1.156-0.943c0.355-0.355,0.669-0.74,0.953-1.156
	c0.274-0.416,0.507-0.862,0.7-1.318c0.183-0.456,0.335-0.933,0.426-1.419c0.101-0.497,0.152-0.994,0.152-1.49
	c0-0.497-0.051-0.994-0.152-1.48C117.834,338.051,117.682,337.574,117.499,337.108z"/>
<path d="M397.305,178.307c0.416,0.274,0.852,0.507,1.308,0.7c0.466,0.182,0.943,0.335,1.429,0.426
	c0.487,0.101,0.984,0.152,1.481,0.152c0.496,0,0.993-0.051,1.49-0.152c0.486-0.091,0.963-0.243,1.418-0.426
	c0.456-0.193,0.903-0.426,1.319-0.7c0.415-0.284,0.801-0.598,1.156-0.953c1.409-1.409,2.22-3.366,2.22-5.373
	c0-1.997-0.812-3.964-2.22-5.373c-0.355-0.355-0.74-0.669-1.156-0.953c-0.416-0.274-0.863-0.507-1.319-0.7
	c-0.455-0.182-0.933-0.335-1.418-0.426c-0.983-0.203-1.987-0.203-2.972,0c-0.486,0.091-0.962,0.243-1.429,0.426
	c-0.456,0.193-0.892,0.426-1.308,0.7c-0.416,0.284-0.812,0.598-1.157,0.953c-1.418,1.409-2.229,3.376-2.229,5.373
	c0,2.007,0.811,3.964,2.229,5.373C396.493,177.709,396.889,178.023,397.305,178.307z"/>
<path d="M152.204,378.402c-0.406-0.274-0.852-0.507-1.308-0.7c-0.456-0.193-0.943-0.335-1.419-0.436
	c-0.983-0.193-1.997-0.193-2.971,0c-0.487,0.101-0.973,0.243-1.43,0.436c-0.456,0.193-0.902,0.426-1.308,0.7
	c-0.416,0.274-0.811,0.598-1.156,0.943c-1.419,1.419-2.23,3.376-2.23,5.384c0,0.497,0.051,0.994,0.152,1.48
	c0.091,0.487,0.243,0.963,0.426,1.43c0.193,0.456,0.426,0.892,0.7,1.308c0.284,0.416,0.598,0.801,0.953,1.156
	c0.345,0.355,0.74,0.669,1.156,0.943c0.406,0.274,0.852,0.507,1.308,0.7s0.943,0.335,1.43,0.436c0.487,0.101,0.983,0.152,1.48,0.152
	s0.994-0.051,1.49-0.152c0.477-0.101,0.963-0.243,1.419-0.436s0.902-0.426,1.308-0.7c0.416-0.274,0.811-0.588,1.156-0.943
	c0.355-0.355,0.669-0.74,0.953-1.156c0.274-0.416,0.507-0.852,0.689-1.308c0.193-0.466,0.345-0.943,0.436-1.43
	c0.101-0.487,0.152-0.983,0.152-1.48c0-2.007-0.811-3.964-2.23-5.384C153.015,379.001,152.62,378.676,152.204,378.402z"/>
<path d="M371.036,124.369c-0.193-0.466-0.426-0.902-0.7-1.318c-0.274-0.416-0.598-0.801-0.943-1.156
	c-0.355-0.345-0.74-0.669-1.156-0.943c-0.416-0.274-0.863-0.507-1.319-0.7c-0.455-0.193-0.933-0.335-1.418-0.436
	c-0.983-0.193-1.997-0.193-2.972,0c-0.486,0.101-0.962,0.243-1.429,0.436c-0.456,0.193-0.892,0.426-1.308,0.7
	c-0.416,0.274-0.801,0.598-1.157,0.943c-0.355,0.355-0.669,0.74-0.943,1.156c-0.274,0.416-0.517,0.852-0.7,1.318
	c-0.192,0.456-0.334,0.933-0.436,1.419c-0.101,0.487-0.151,0.994-0.151,1.49s0.051,0.994,0.151,1.48
	c0.102,0.487,0.243,0.963,0.436,1.419c0.184,0.466,0.427,0.902,0.7,1.318c0.274,0.416,0.588,0.801,0.943,1.156
	c0.356,0.345,0.74,0.669,1.157,0.943c0.417,0.274,0.852,0.507,1.308,0.7c0.466,0.193,0.943,0.335,1.429,0.436
	c0.487,0.101,0.984,0.152,1.481,0.152c0.496,0,0.993-0.051,1.49-0.152c0.486-0.101,0.963-0.243,1.418-0.436
	c0.456-0.193,0.903-0.426,1.319-0.7c0.415-0.274,0.801-0.598,1.156-0.943c0.345-0.355,0.669-0.74,0.943-1.156
	c0.275-0.416,0.507-0.852,0.7-1.318c0.192-0.456,0.335-0.933,0.436-1.419c0.091-0.487,0.143-0.983,0.143-1.48
	s-0.052-1.004-0.143-1.49C371.37,125.302,371.227,124.826,371.036,124.369z"/>
<path d="M202.745,407.581c-0.406-0.274-0.852-0.507-1.308-0.7c-0.456-0.193-0.943-0.335-1.419-0.436
	c-0.983-0.193-1.997-0.193-2.981,0c-0.477,0.101-0.963,0.243-1.419,0.436c-0.456,0.193-0.902,0.426-1.308,0.7
	c-0.416,0.284-0.811,0.598-1.156,0.943c-1.419,1.419-2.23,3.376-2.23,5.384c0,0.497,0.051,0.994,0.152,1.48
	c0.091,0.487,0.243,0.963,0.426,1.43c0.193,0.456,0.426,0.892,0.7,1.308c0.284,0.416,0.598,0.811,0.953,1.156
	c0.345,0.355,0.74,0.669,1.156,0.943c0.406,0.274,0.852,0.517,1.308,0.7c0.456,0.193,0.943,0.335,1.419,0.436
	c0.497,0.101,0.994,0.152,1.49,0.152s0.994-0.051,1.49-0.152c0.477-0.101,0.963-0.243,1.419-0.436
	c0.456-0.182,0.902-0.426,1.308-0.7c0.416-0.274,0.811-0.588,1.156-0.943c0.355-0.345,0.669-0.74,0.953-1.156
	c0.274-0.416,0.507-0.852,0.7-1.308c0.182-0.466,0.335-0.943,0.426-1.43c0.101-0.487,0.152-0.983,0.152-1.48
	c0-2.007-0.811-3.964-2.23-5.384C203.556,408.18,203.161,407.865,202.745,407.581z"/>
<path d="M306.453,101c0.193,0.466,0.426,0.902,0.7,1.318c0.274,0.416,0.588,0.801,0.943,1.156c0.355,0.345,0.739,0.669,1.156,0.943
	c0.417,0.274,0.852,0.507,1.308,0.7c0.466,0.193,0.944,0.335,1.43,0.436c0.487,0.101,0.983,0.142,1.48,0.142
	c0.497,0,0.994-0.041,1.49-0.142c0.487-0.101,0.963-0.243,1.419-0.436c0.466-0.193,0.902-0.426,1.318-0.7
	c0.416-0.274,0.801-0.598,1.157-0.943c0.345-0.355,0.668-0.74,0.943-1.156c0.274-0.416,0.507-0.852,0.699-1.318
	c0.184-0.456,0.335-0.933,0.427-1.419c0.101-0.487,0.151-0.994,0.151-1.48c0-2.007-0.811-3.964-2.219-5.384
	c-0.356-0.345-0.74-0.669-1.157-0.943c-0.417-0.274-0.852-0.507-1.318-0.7c-0.456-0.193-0.933-0.335-1.419-0.436
	c-0.983-0.193-1.987-0.193-2.971,0c-0.486,0.101-0.963,0.243-1.43,0.436c-0.456,0.193-0.892,0.426-1.308,0.7
	c-0.416,0.274-0.801,0.598-1.156,0.943c-1.419,1.419-2.23,3.376-2.23,5.384c0,0.487,0.051,0.994,0.152,1.48
	C306.118,100.067,306.259,100.544,306.453,101z"/>
<path d="M357.83,154.171c-1.922-1.921-4.723-2.672-7.345-1.968l-71.237,19.088c-2.624,0.704-4.673,2.753-5.376,5.376
	c-0.703,2.624,0.047,5.424,1.967,7.345l15.124,15.124l-85.324,44.815c-2.14,1.123-3.618,3.199-3.981,5.588
	c-0.364,2.39,0.431,4.811,2.14,6.52l52.149,52.148c1.437,1.437,3.376,2.227,5.377,2.227c0.379,0,0.761-0.028,1.143-0.086
	c2.39-0.363,4.465-1.841,5.589-3.981l44.815-85.324l15.119,15.119c1.446,1.445,3.387,2.227,5.378,2.227
	c0.656,0,1.318-0.084,1.968-0.259c2.624-0.704,4.673-2.753,5.376-5.376l19.088-71.237C360.5,158.891,359.75,156.092,357.83,154.171z
	 M259.395,290.149l-37.539-37.538l79.067-41.528L259.395,290.149z M329.429,216.094l-33.522-33.523L341.7,170.3L329.429,216.094z"/>
<g>
</g>
<g>
</g>
<g>
</g>
<g>
</g>
<g>
</g>
<g>
</g>
<g>
</g>
<g>
</g>
<g>
</g>
<g>
</g>
<g>
</g>
<g>
</g>
<g>
</g>
<g>
</g>
<g>
</g>
</svg>
