<?xml version="1.0" encoding="iso-8859-1"?>
<!-- Generator: Adobe Illustrator 19.0.0, SVG Export Plug-In . SVG Version: 6.00 Build 0)  -->
<svg version="1.1" id="Capa_1" xmlns="http://www.w3.org/2000/svg" xmlns:xlink="http://www.w3.org/1999/xlink" x="0px" y="0px"
	 viewBox="0 0 512 512" style="enable-background:new 0 0 512 512;" xml:space="preserve">
<g>
	<polygon style="fill:#BDC4CE;" points="191.741,156.246 174.928,124.85 169.104,113.977 138.064,130.602 143.881,141.462 
		160.701,172.869 	"/>
	<polygon style="fill:#BDC4CE;" points="273.604,144.539 273.604,108.925 273.604,58.763 238.392,58.763 238.392,108.911 
		238.392,144.539 	"/>
	<circle style="fill:#BDC4CE;" cx="256" cy="313.516" r="190.88"/>
</g>
<path style="fill:#E6E6E6;" d="M424.973,313.515c0,46.648-18.919,88.895-49.497,119.473v0.01
	c-30.578,30.588-72.816,49.497-119.473,49.497c-93.326,0-168.98-75.654-168.98-168.98s75.654-168.98,168.98-168.98
	C349.319,144.536,424.973,220.19,424.973,313.515z"/>
<path style="fill:#FFFFFF;" d="M306.948,431.552c-93.326,0-168.98-75.654-168.98-168.98c0-33.626,9.823-64.956,26.755-91.281
	c-46.739,30.059-77.698,82.525-77.698,142.225c0,93.326,75.654,168.98,168.98,168.98c46.658,0,88.895-18.909,119.473-49.497v-0.01
	c8.536-8.536,16.16-17.982,22.721-28.178C371.878,421.736,340.561,431.552,306.948,431.552z"/>
<path style="fill:#EF332D;" d="M424.973,313.515c0,33.63-9.834,64.968-26.776,91.298c-6.56,10.199-14.184,19.638-22.721,28.175
	L256.003,313.515V144.536C349.319,144.536,424.973,220.19,424.973,313.515z"/>
<circle style="fill:#3F3E46;" cx="256" cy="313.516" r="26.072"/>
<path style="fill:#FF3D40;" d="M398.197,404.814c-6.56,10.199-14.184,19.638-22.721,28.175l-11.355-11.355
	C376.176,417.304,387.592,411.637,398.197,404.814z"/>
<path d="M281.208,116.625v-15.222c18.64-9.854,29.985-29.727,28.49-51.376c-1.894-27.422-24.621-49.204-52.096-50.004
	c-30.412-0.885-55.434,23.597-55.434,53.813c0,20.153,11.08,38.296,28.621,47.559v15.231c-15.825,2.016-31.068,5.914-45.512,11.44
	l-9.468-17.68c-1.982-3.703-6.591-5.096-10.293-3.113l-30.69,16.436c-0.137,0.064-0.273,0.134-0.408,0.207
	c-3.666,2-5.034,6.583-3.062,10.265l9.505,17.749c-50.416,36.029-83.344,95.032-83.344,161.585c0,6.024,0.273,12.077,0.814,18.075
	c0.389,4.321,4.265,7.468,8.567,6.905l0,0c4.027-0.526,6.955-4.126,6.588-8.172c-0.506-5.576-0.761-11.205-0.761-16.809
	c0-101.213,82.469-183.527,183.74-183.275c100.485,0.249,182.56,82.325,182.811,182.809
	C439.529,414.322,357.214,496.792,256,496.792c-80.642,0-151.658-52.781-175.181-129.231c-1.194-3.881-5.27-6.101-9.195-5.061
	h-0.001c-4.194,1.111-6.585,5.495-5.307,9.642C91.825,454.884,168.708,512,256,512c109.444,0,198.484-89.039,198.484-198.484
	C454.484,212.61,378.794,129.049,281.208,116.625z M217.375,53.836c0-21.299,17.329-38.628,38.628-38.628
	c21.294,0,38.618,17.329,38.618,38.628c0,11.49-5.035,22.061-13.413,29.263V58.763c0-4.199-3.405-7.604-7.604-7.604h-35.211
	c-4.199,0-7.604,3.405-7.604,7.604v24.332C222.41,75.899,217.375,65.329,217.375,53.836z M148.357,133.714l17.634-9.444l5.248,9.798
	c-6.047,2.867-11.928,6.026-17.621,9.468L148.357,133.714z M245.996,115.284V66.367H266v48.917c-3.313-0.165-6.646-0.251-10-0.251
	C252.645,115.033,249.311,115.119,245.996,115.284z"/>
<path d="M248.396,413.838v39.1c0,4.199,3.405,7.604,7.604,7.604s7.604-3.405,7.604-7.604v-39.1c0-4.199-3.405-7.604-7.604-7.604
	S248.396,409.638,248.396,413.838z"/>
<path d="M263.604,213.195v-39.1c0-4.199-3.405-7.604-7.604-7.604s-7.604,3.405-7.604,7.604v39.1c0,4.199,3.405,7.604,7.604,7.604
	S263.604,217.394,263.604,213.195z"/>
<path d="M312.648,411.634c-3.637,2.1-4.883,6.75-2.783,10.387l9.261,16.039c1.408,2.439,3.964,3.803,6.592,3.803
	c1.29,0,2.598-0.328,3.795-1.02c3.637-2.1,4.883-6.75,2.783-10.387l-9.261-16.039C320.935,410.78,316.285,409.534,312.648,411.634z"
	/>
<path d="M202.135,205.011l-9.261-16.039c-2.1-3.638-6.75-4.883-10.387-2.783c-3.637,2.1-4.883,6.75-2.783,10.387l9.261,16.039
	c1.408,2.439,3.964,3.803,6.592,3.803c1.29,0,2.598-0.329,3.795-1.02C202.989,213.299,204.235,208.649,202.135,205.011z"/>
<path d="M364.505,367.382c-3.637-2.101-8.287-0.854-10.387,2.783c-2.1,3.637-0.854,8.287,2.783,10.387l16.039,9.261
	c1.197,0.691,2.505,1.02,3.795,1.02c2.628,0,5.184-1.365,6.592-3.803c2.1-3.637,0.854-8.287-2.783-10.387L364.505,367.382z"/>
<path d="M147.494,259.651c1.197,0.691,2.505,1.02,3.795,1.02c2.628,0,5.184-1.365,6.592-3.803c2.1-3.637,0.854-8.287-2.783-10.387
	l-16.039-9.261c-3.637-2.101-8.287-0.854-10.387,2.783c-2.1,3.637-0.854,8.287,2.783,10.387L147.494,259.651z"/>
<path d="M372.941,237.22l-16.039,9.261c-3.637,2.1-4.883,6.75-2.783,10.387c1.408,2.439,3.964,3.803,6.592,3.803
	c1.29,0,2.598-0.328,3.795-1.02l16.039-9.261c3.637-2.1,4.883-6.75,2.783-10.387C381.228,236.367,376.577,235.119,372.941,237.22z"
	/>
<path d="M147.494,367.382l-16.039,9.261c-3.637,2.1-4.883,6.75-2.783,10.387c1.408,2.439,3.964,3.803,6.592,3.803
	c1.29,0,2.598-0.328,3.795-1.02l16.039-9.261c3.637-2.1,4.883-6.75,2.783-10.387C155.782,366.527,151.132,365.281,147.494,367.382z"
	/>
<path d="M316.443,216.419c2.628,0,5.184-1.365,6.592-3.803l9.261-16.039c2.1-3.637,0.854-8.287-2.783-10.387
	c-3.637-2.101-8.287-0.855-10.387,2.783l-9.261,16.039c-2.1,3.637-0.854,8.287,2.783,10.387
	C313.846,216.09,315.153,216.419,316.443,216.419z"/>
<path d="M199.351,411.634c-3.638-2.101-8.288-0.854-10.387,2.783l-9.261,16.039c-2.1,3.637-0.854,8.287,2.783,10.387
	c1.197,0.691,2.505,1.02,3.795,1.02c2.628,0,5.184-1.365,6.592-3.803l9.261-16.039C204.235,418.384,202.989,413.733,199.351,411.634
	z"/>
<path d="M163.282,313.516c0-4.199-3.405-7.604-7.604-7.604h-39.1c-4.199,0-7.604,3.405-7.604,7.604s3.405,7.604,7.604,7.604h39.1
	C159.878,321.12,163.282,317.716,163.282,313.516z"/>
<path d="M403.025,313.516c0-4.199-3.405-7.604-7.604-7.604h-39.1c-4.199,0-7.604,3.405-7.604,7.604s3.405,7.604,7.604,7.604h39.1
	C399.621,321.12,403.025,317.716,403.025,313.516z"/>
<path d="M340.7,394.948c2.894-3.044,2.772-7.856-0.272-10.75l-55.765-53.015c7.998-12.976,6.387-30.241-4.85-41.479
	c-13.13-13.131-34.495-13.131-47.625,0c-13.131,13.13-13.131,34.495,0,47.625c6.36,6.361,14.818,9.864,23.813,9.864
	c6.461,0,12.641-1.817,17.969-5.193l55.981,53.22c1.471,1.399,3.356,2.093,5.239,2.093
	C337.198,397.312,339.206,396.52,340.7,394.948z M242.94,326.575c-7.2-7.201-7.2-18.918,0-26.118c3.6-3.6,8.33-5.401,13.059-5.401
	c4.729,0,9.458,1.8,13.059,5.401c7.2,7.2,7.2,18.917,0,26.118c-3.488,3.488-8.126,5.409-13.059,5.409
	S246.429,330.063,242.94,326.575z"/>
<path d="M79.419,313.515c0,97.76,78.82,176.581,176.579,176.582c97.367,0.001,176.582-79.213,176.582-176.581
	c0-40.391-13.792-79.388-38.991-110.687c-2.728-3.388-7.724-3.839-10.985-0.961l0,0c-3.037,2.68-3.454,7.282-0.912,10.435
	c23.059,28.611,35.68,64.274,35.68,101.214c0,89.401-73.076,162.056-162.634,161.368C166.964,474.21,95.302,402.548,94.63,314.773
	c-0.686-89.556,71.968-162.631,161.368-162.631c37.812,0,74.128,13.155,103.055,37.186c3.114,2.586,7.721,2.23,10.443-0.764l0,0
	c2.928-3.221,2.544-8.221-0.806-11.001c-31.642-26.257-71.35-40.628-112.692-40.628C158.633,136.935,79.42,216.148,79.419,313.515z"
	/>
<g>
</g>
<g>
</g>
<g>
</g>
<g>
</g>
<g>
</g>
<g>
</g>
<g>
</g>
<g>
</g>
<g>
</g>
<g>
</g>
<g>
</g>
<g>
</g>
<g>
</g>
<g>
</g>
<g>
</g>
</svg>
