<?xml version="1.0" encoding="iso-8859-1"?>
<!-- Generator: Adobe Illustrator 19.0.0, SVG Export Plug-In . SVG Version: 6.00 Build 0)  -->
<svg version="1.1" id="Capa_1" xmlns="http://www.w3.org/2000/svg" xmlns:xlink="http://www.w3.org/1999/xlink" x="0px" y="0px"
	 viewBox="0 0 512 512" style="enable-background:new 0 0 512 512;" xml:space="preserve">
<circle style="fill:#F4D44E;" cx="256.035" cy="255.965" r="248.436"/>
<path style="fill:#E8C842;" d="M174.885,446.189C18.467,355.881,8.969,134.735,153.636,30.361
	c-45.799,20.607-85.791,55.261-112.82,102.075c-68.479,118.609-27.841,270.273,90.768,338.752
	c87.285,50.394,192.471,41.688,269.232-13.693C330.579,489.097,246.679,487.639,174.885,446.189z"/>
<path d="M160.72,349.975h190.623c4.143,0,7.5-3.357,7.5-7.5c0-4.143-3.357-7.5-7.5-7.5H160.72c-4.143,0-7.5,3.357-7.5,7.5
	C153.22,346.618,156.578,349.975,160.72,349.975z"/>
<path d="M206.208,220.047c0-4.143-3.357-7.5-7.5-7.5h-44.619c-4.143,0-7.5,3.357-7.5,7.5s3.357,7.5,7.5,7.5h44.619
	C202.851,227.547,206.208,224.19,206.208,220.047z"/>
<path d="M365.473,220.047c0-4.143-3.357-7.5-7.5-7.5h-44.619c-4.143,0-7.5,3.357-7.5,7.5s3.357,7.5,7.5,7.5h44.619
	C362.117,227.547,365.473,224.19,365.473,220.047z"/>
<path d="M442.57,80.664c-2.834-3.02-7.581-3.171-10.602-0.338c-3.021,2.834-3.172,7.58-0.338,10.602
	c106.038,113.027,79.825,295.788-55.13,373.702c-86.763,50.091-193.404,40.686-269.68-19.412c-3.252-2.563-7.969-2.004-10.532,1.249
	c-2.563,3.254-2.005,7.969,1.249,10.532C178.498,520.792,291.772,530.868,384,477.62C527.44,394.805,555.141,200.654,442.57,80.664z
	"/>
<path d="M70.83,432.675c1.475,1.548,3.451,2.327,5.432,2.327c6.531,0,9.992-7.883,5.43-12.673
	C25.729,363.585,0.644,278.175,23.302,193.611C68.386,25.368,271.47-40.361,406.68,67.864c3.234,2.59,7.954,2.064,10.542-1.169
	c2.588-3.233,2.065-7.953-1.169-10.542C272.857-58.466,56.796,10.66,8.814,189.73C-15.19,279.311,11.261,370.143,70.83,432.675z"/>
<g>
</g>
<g>
</g>
<g>
</g>
<g>
</g>
<g>
</g>
<g>
</g>
<g>
</g>
<g>
</g>
<g>
</g>
<g>
</g>
<g>
</g>
<g>
</g>
<g>
</g>
<g>
</g>
<g>
</g>
</svg>
