<?xml version="1.0" encoding="iso-8859-1"?>
<!-- Generator: Adobe Illustrator 19.0.0, SVG Export Plug-In . SVG Version: 6.00 Build 0)  -->
<svg version="1.1" id="Capa_1" xmlns="http://www.w3.org/2000/svg" xmlns:xlink="http://www.w3.org/1999/xlink" x="0px" y="0px"
	 viewBox="0 0 512 512" style="enable-background:new 0 0 512 512;" xml:space="preserve">
<circle style="fill:#F4D44E;" cx="256.022" cy="256.012" r="248.413"/>
<path style="fill:#E8C842;" d="M174.881,446.211C18.478,355.912,8.979,134.786,153.633,30.421
	c-45.795,20.604-85.784,55.256-112.81,102.066c-68.473,118.598-27.838,270.248,90.76,338.72
	c87.277,50.39,192.453,41.685,269.208-13.691C330.561,489.115,246.668,487.657,174.881,446.211z"/>
<ellipse style="fill:#656566;" cx="177.37" cy="220.926" rx="22.661" ry="28.892"/>
<path style="fill:#4F4F51;" d="M194.703,237.873c-12.515,0-22.661-12.936-22.661-28.892c0-6.316,1.595-12.155,4.292-16.909
	c-12.033,0.692-21.623,13.346-21.623,28.859c0,15.956,10.145,28.892,22.661,28.892c7.561,0,14.252-4.726,18.369-11.983
	C195.395,237.859,195.051,237.873,194.703,237.873z"/>
<ellipse style="fill:#656566;" cx="334.663" cy="220.926" rx="22.661" ry="28.892"/>
<path style="fill:#4F4F51;" d="M351.999,237.873c-12.515,0-22.661-12.936-22.661-28.892c0-6.316,1.595-12.155,4.292-16.909
	c-12.033,0.692-21.623,13.346-21.623,28.859c0,15.956,10.145,28.892,22.661,28.892c7.561,0,14.252-4.726,18.369-11.983
	C352.693,237.859,352.347,237.873,351.999,237.873z"/>
<path d="M177.226,184.486c-16.652,0-30.201,16.349-30.201,36.444s13.549,36.444,30.201,36.444c16.653,0,30.202-16.349,30.202-36.444
	S193.88,184.486,177.226,184.486z M177.226,242.376c-8.24,0-15.202-9.821-15.202-21.446s6.962-21.446,15.202-21.446
	c8.241,0,15.203,9.821,15.203,21.446S185.468,242.376,177.226,242.376z"/>
<path d="M365.013,220.93c0-20.096-13.548-36.444-30.201-36.444c-16.653,0-30.202,16.349-30.202,36.444s13.548,36.444,30.202,36.444
	C351.465,257.375,365.013,241.025,365.013,220.93z M319.609,220.93c0-11.625,6.962-21.446,15.203-21.446
	c8.24,0,15.202,9.821,15.202,21.446s-6.962,21.446-15.202,21.446C326.571,242.376,319.609,232.554,319.609,220.93z"/>
<path d="M153.218,342.506c0,4.143,3.357,7.499,7.499,7.499h190.604c4.143,0,7.499-3.357,7.499-7.499
	c0-4.143-3.357-7.499-7.499-7.499H160.717C156.575,335.007,153.218,338.365,153.218,342.506z"/>
<path d="M140.77,27.522c-3.696,1.868-5.178,6.379-3.31,10.075c1.868,3.697,6.379,5.18,10.076,3.311
	c113.935-57.589,253.23-16.017,317.123,94.646c64.837,112.3,28.826,254.066-78.012,322.886c-3.482,2.242-4.485,6.883-2.244,10.365
	c2.242,3.478,6.879,4.488,10.366,2.244c113.549-73.144,151.722-223.751,82.879-342.993C409.78,10.501,261.805-33.659,140.77,27.522z
	"/>
<path d="M256.196,511.967c36.652-0.001,73.119-7.903,106.965-23.552c3.76-1.738,5.397-6.194,3.66-9.954
	c-1.738-3.759-6.193-5.395-9.954-3.66c-54.319,25.114-115.804,29.028-173.13,11.02C64.307,448.305-6.663,325.291,21.034,202.913
	C34.37,143.984,68.937,92.624,118.37,58.293c3.402-2.362,4.244-7.035,1.882-10.437c-2.362-3.4-7.032-4.246-10.437-1.882
	C57.296,82.449,20.571,137.009,6.405,199.602C-29.812,359.634,92.158,511.967,256.196,511.967z"/>
<g>
</g>
<g>
</g>
<g>
</g>
<g>
</g>
<g>
</g>
<g>
</g>
<g>
</g>
<g>
</g>
<g>
</g>
<g>
</g>
<g>
</g>
<g>
</g>
<g>
</g>
<g>
</g>
<g>
</g>
</svg>
