<?xml version="1.0" encoding="iso-8859-1"?>
<!-- Generator: Adobe Illustrator 19.0.0, SVG Export Plug-In . SVG Version: 6.00 Build 0)  -->
<svg version="1.1" id="Capa_1" xmlns="http://www.w3.org/2000/svg" xmlns:xlink="http://www.w3.org/1999/xlink" x="0px" y="0px"
	 viewBox="0 0 511.996 511.996" style="enable-background:new 0 0 511.996 511.996;" xml:space="preserve">
<path style="fill:#F4D44E;" d="M466.173,265.764c-32.581-2.459-64.481,8.316-88.862,30.094
	c-70.349-14.345-147.759-1.458-202.785,46.095c8.808-57.931,6.8-155.847,6.8-155.847c0.633-10.204,6.397-19.561,15.593-25.005
	c33.044-19.56,36.379-33.402,57.486-40.385c22.368-7.399,42.208-14.607,45.174-23.327c3.553-10.443-0.214-21.767-11.795-23.4
	c-6.48-0.67-14.36-0.266-22.761,0.833l1.081-2.28c9.393-18.611,17.219-25.738,17.219-40.337l0,0
	c0-30.58-48.768-24.142-116.357-24.142c-53.909,0-55.569,77.302-54.032,108.595c0.361,7.359-1.584,14.665-5.661,20.956
	c-13.168,20.328-3.076,36.097-19.358,64.278C9.167,338.203,32.557,420.577,47.2,450.908c5.159,10.687,13.98,19.537,25.182,24.71
	c39.576,18.275,77.93,8.757,78.195,8.612c0.277,1.234,121.845,40.236,312.566,6.426c1.011-0.304,16.424-5.212,16.424-21.911
	c0-17.903,0-169.783,0-188.421C479.568,272.726,473.749,266.336,466.173,265.764z"/>
<path style="fill:#E8C842;" d="M122.861,475.618c-11.202-5.173-20.023-14.022-25.182-24.71
	c-14.643-30.332-38.033-112.706,40.715-249.014c16.282-28.181,6.19-43.95,19.358-64.278c4.077-6.291,6.022-13.598,5.661-20.956
	c-1.537-31.293,0.123-108.595,54.032-108.595c7.749,0,15.247-0.085,22.458-0.189c-19.522-0.944-44.57,0.189-72.936,0.189
	c-53.909,0-55.569,77.302-54.032,108.595c0.361,7.359-1.584,14.665-5.661,20.956c-13.168,20.328-3.076,36.097-19.358,64.278
	C9.167,338.203,32.557,420.577,47.2,450.908c5.159,10.687,13.98,19.537,25.182,24.71c37.047,17.107,73.018,9.862,77.682,8.746
	C141.381,482.656,132.159,479.911,122.861,475.618z"/>
<path style="fill:#DBBC3B;" d="M191.487,57.178l-0.41,1.257c-7.573,23.243,20.42,39.68,46.761,28.236l27.317-11.866
	c-0.044,0.006-0.087,0.01-0.132,0.016l1.081-2.28c4.049-8.022,7.805-13.909,10.771-19.183L231.863,72.91
	c-6.593,2.862-14.029,3.37-21.061,0.61c-4.478-1.763-6.824-6.251-5.459-10.44l0.409-1.257c2.232-6.853,11.149-5.859,29.845-8.224
	c4.117-0.464,7.078-4.178,6.615-8.294c-0.464-4.117-4.179-7.089-8.293-6.614l-20.124,2.267
	C202.772,42.077,194.433,48.14,191.487,57.178z"/>
<path d="M375.149,287.804c-38.234-6.834-79.932-6.741-118.485,3.346c-4.008,1.049-6.407,5.148-5.358,9.155
	c1.048,4.008,5.142,6.403,9.155,5.358c37.499-9.813,80.516-9.562,115.349-2.456c2.319,0.474,4.73-0.177,6.496-1.755
	c22.453-20.056,52.328-30.544,83.299-28.208c3.622,0.273,6.459,3.384,6.459,7.08v27.746c0,4.144,3.358,7.501,7.501,7.501
	c4.144,0,7.501-3.358,7.501-7.501v-27.746c0-11.498-8.93-21.178-20.332-22.04c-3.199-0.241-6.443-0.363-9.642-0.363
	C427.027,257.921,398.075,268.506,375.149,287.804z"/>
<path d="M150.046,492.037c45.881,14.657,111.52,19.959,160.514,19.959c75.197-0.002,149.314-12.518,154.742-14.156
	c8.084-2.429,21.766-11.291,21.766-29.096V343.076c0-4.144-3.358-7.501-7.501-7.501c-4.144,0-7.501,3.358-7.501,7.501v125.668
	c0,10.289-8.644,13.894-10.734,14.614c-99.351,17.558-177.805,14.983-226.15,9.722c-36.496-3.972-74.145-12.386-81.536-15.694
	c-1.65-0.74-3.492-0.852-5.192-0.35c-1.684,0.408-36.769,8.468-72.926-8.229c-9.425-4.352-17.087-11.866-21.572-21.158
	c-4.321-8.953-10.033-24.026-12.705-44.99c-0.524-4.11-4.281-7.019-8.389-6.492c-4.109,0.523-7.017,4.279-6.492,8.389
	c2.926,22.968,9.27,39.657,14.076,49.615c5.993,12.416,16.22,22.452,28.793,28.257C96.295,494.922,128.226,496.679,150.046,492.037z
	"/>
<path d="M32.434,376.101c3.998,0,7.32-3.155,7.488-7.189c2.056-49.31,20.388-104.241,54.488-163.267
	c16.974-29.379,7.57-46.063,19.158-63.95c4.93-7.606,7.301-16.392,6.858-25.404c-2.073-42.203,4.33-100.727,46.539-100.727
	c65.96,0,108.856-5.059,108.856,16.642c0,11.884-6.759,18.103-15.935,36.023c-27.675,4.677-36.107,10.406-49.088,5.294
	c-4.478-1.763-6.823-6.251-5.458-10.442c0.336-0.307,0.393-6.223,10.046-7.203l20.207-2.275c4.117-0.464,7.078-4.178,6.615-8.293
	c-0.464-4.118-4.187-7.077-8.293-6.615l-20.124,2.267c-32.396,3.281-33.629,49.605,7.744,49.605c14.86,0,43.01-11.371,65.325-9.128
	c6.614,1.003,7.581,7.756,5.614,13.536c-2.117,6.249-34.17,16.552-40.427,18.622c-23.095,7.64-26.587,21.892-58.951,41.051
	c-12.628,7.475-19.542,21.362-19.271,31.664c0.025,0.937,2.42,93.095-5.979,149.75l-8.741,10.044
	c-2.655,3.05-2.414,7.656,0.545,10.414c2.96,2.756,7.57,2.67,10.427-0.194c11.107-11.145,30.201-27.025,58.085-39.389
	c3.788-1.68,5.496-6.111,3.817-9.898c-1.68-3.788-6.111-5.494-9.898-3.817c-14.795,6.561-27.306,14.057-37.629,21.417
	c6.339-56.166,4.556-131.609,4.38-138.373c0.579-7.65,5.012-14.625,11.906-18.707c34.014-20.134,36.792-33.355,56.022-39.719
	c26.644-8.814,45.82-15.984,49.919-28.031c2.794-8.214,2.122-16.626-1.846-23.077c-6.141-9.986-15.773-10.834-26.75-10.523
	c6.885-11.937,12.74-20.144,12.74-33.999c0-7.878-2.574-14.406-7.652-19.406C266.102-4,224.165,0.566,166.963,0.566
	c-53.085,0-64.118,63.644-61.525,116.465c0.287,5.851-1.256,11.56-4.465,16.511c-14.629,22.586-4.091,37.833-19.558,64.603
	c-35.321,61.142-54.325,118.388-56.482,170.143C24.756,372.551,28.161,376.101,32.434,376.101z"/>
<g>
</g>
<g>
</g>
<g>
</g>
<g>
</g>
<g>
</g>
<g>
</g>
<g>
</g>
<g>
</g>
<g>
</g>
<g>
</g>
<g>
</g>
<g>
</g>
<g>
</g>
<g>
</g>
<g>
</g>
</svg>
