<?xml version="1.0" encoding="iso-8859-1"?>
<!-- Generator: Adobe Illustrator 19.0.0, SVG Export Plug-In . SVG Version: 6.00 Build 0)  -->
<svg version="1.1" id="Capa_1" xmlns="http://www.w3.org/2000/svg" xmlns:xlink="http://www.w3.org/1999/xlink" x="0px" y="0px"
	 viewBox="0 0 512 512" style="enable-background:new 0 0 512 512;" xml:space="preserve">
<g>
	<path style="fill:#656566;" d="M69.494,244.665c105.736-136.861,98.23-130.861,100.442-130.339
		c1.596,0.371,1.869,1.606,1.958,2.014c2.782,15.511,8.356,18.169,5.963,38.893c-0.924,8.005,4.621,15.222,12.386,16.119
		c7.765,0.896,14.809-4.867,15.734-12.872c3.122-27.047-3.9-33.955-6.467-48.793c-5.717-25.918-37.986-33.404-54.24-12.57
		L26.031,254.162C38.017,255.046,38.976,249.994,69.494,244.665z"/>
	<path style="fill:#656566;" d="M321.83,171.352c7.765-0.896,13.31-8.113,12.386-16.119c-2.393-20.724,3.181-23.382,5.963-38.893
		c0.09-0.407,0.363-1.643,1.958-2.014c2.212-0.521-5.293-6.522,100.442,130.339c30.114,5.258,31.624,10.369,43.463,9.497
		L366.802,97.117c-16.253-20.835-48.523-13.348-54.24,12.57c-2.566,14.837-9.59,21.745-6.466,48.793
		C307.02,166.485,314.063,172.248,321.83,171.352z"/>
</g>
<g>
	<path style="fill:#545456;" d="M465.433,227.019c-10.511-0.233-15.074-5.383-44.774-10.786c6.708,8.72,13.99,18.166,21.921,28.432
		c30.113,5.258,31.624,10.369,43.463,9.497L465.433,227.019z"/>
	<path style="fill:#545456;" d="M46.64,227.019c10.511-0.233,15.074-5.383,44.774-10.786c-6.708,8.72-13.99,18.166-21.921,28.432
		c-30.113,5.258-31.624,10.369-43.463,9.497L46.64,227.019z"/>
</g>
<path style="fill:#71C5DB;" d="M304.905,289.977c-7.62,9.478-12.821,20.668-16.546,31.926v9.208
	c0,53.076,43.341,96.497,97.041,95.794c52.296-0.718,94.47-43.327,94.47-95.794v-54.085
	C429.786,257.204,339.289,249.548,304.905,289.977z"/>
<g>
	<path style="fill:#9CD7F2;" d="M354.913,289.977c-5.124,6.373-9.154,13.521-12.378,20.943
		c-14.211,32.724,7.507,96.74,66.563,112.688c40.771-11.008,70.771-48.247,70.771-92.498v-54.085
		c-17.456-6.908-39.82-12.335-63.007-14.767C391.36,265.349,368.654,273.821,354.913,289.977z"/>
	<path style="fill:#9CD7F2;" d="M212.897,298.103c-30.768-49.718-128.43-42.376-180.426-21.195v54.204
		c0,52.466,42.174,95.076,94.47,95.794c53.35,0.699,97.041-42.374,97.041-95.794v-8.303
		C223.231,320.799,219.817,309.209,212.897,298.103z"/>
</g>
<path style="fill:#71C5DB;" d="M82.478,319.161v-55.546c-18.525,2.848-35.94,7.562-50.008,13.293v54.204
	c0,52.466,42.174,95.076,94.47,95.794c10.952,0.144,21.495-1.561,31.339-4.818C114.372,408.47,82.478,367.547,82.478,319.161z"/>
<path style="fill:#545456;" d="M16.582,279.27l14.866,3.052c51.73-21.498,150.479-29.262,181.448,20.781
	c4.595,7.374,8.249,15.967,10.928,24.129c0.445,2.722,3.655,2.506,5.269,0.208c3.604-5.132,6-10.496,7.567-16.544
	c0.55-2.123,2.593-3.647,4.989-3.647h29.655c5.987,0,2.245,6.758,11.676,20.19c1.614,2.299,4.824,2.514,5.268-0.208
	c3.732-11.369,8.962-22.686,16.657-32.255c8.892-10.456,23.964-18.849,37.324-22.629c69.156-19.486,138.056,9.926,138.396,9.975
	l14.866-3.052c4.996-1.025,8.628-5.003,9.024-9.723c-0.019-1.341-0.022-5.239,0.002-6.54c-0.369-7.915-7.439-13.802-15.137-12.278
	c-5.515,1.092-11.232,0.437-16.534-1.469c-30.114-10.825-122.049-27.1-197.923,20.876h-37.774
	c-75.873-47.978-167.808-31.702-197.922-20.877c-5.302,1.906-11.02,2.561-16.534,1.469c-7.907-1.565-15.18,4.679-15.18,12.919
	c0,0.071,0,2.779,0,5.044C7.512,273.782,11.287,278.183,16.582,279.27z"/>
<path style="fill:#656566;" d="M22.693,264.732c5.515,1.092,11.232,0.437,16.534-1.469c30.114-10.825,122.049-27.1,197.923,20.876
	h37.774c75.873-47.976,167.808-31.7,197.923-20.876c5.302,1.906,11.02,2.561,16.534,1.469c6.275-1.242,12.129,2.44,14.281,8.131
	c1.211-2.725,0.739-3.624,0.856-9.855c-0.369-7.915-7.439-13.802-15.137-12.278c-5.515,1.092-11.232,0.437-16.534-1.469
	c-30.114-10.825-122.049-27.1-197.923,20.876h-37.774c-75.873-47.978-167.808-31.702-197.922-20.877
	c-5.302,1.906-11.02,2.561-16.534,1.469c-7.907-1.565-15.18,4.679-15.18,12.918c0,5.056-0.241,6.642,0.892,9.198
	C10.568,267.167,16.424,263.491,22.693,264.732z"/>
<path d="M512,262.658c-0.561-11.995-10.984-20.965-22.684-19.507L408.16,138.307c-2.535-3.275-7.246-3.877-10.523-1.34
	c-3.276,2.535-3.876,7.247-1.34,10.523l71.381,92.218c-6.003-1.767-13.063-3.471-20.96-4.942
	c-77.19-99.919-93.108-120.972-97.528-125.312c-4.012-3.94-7.823-3.064-9.814-2.134c-3.64,1.247-5.991,4.303-6.594,7.695
	c-2.614,14.562-8.63,18.575-6.031,41.077c0.448,3.886-2.151,7.388-5.794,7.809c-3.652,0.408-6.974-2.397-7.422-6.282
	c-2.916-25.262,3.61-30.751,6.374-46.469c4.453-19.65,28.642-25.219,40.949-9.441l13.991,18.076
	c2.535,3.276,7.247,3.876,10.523,1.34s3.876-7.247,1.34-10.523l-14.009-18.099c-20.987-26.905-62.204-14.809-67.546,15.905
	c-2.378,13.754-9.833,22.299-6.525,50.931c1.396,12.102,12.187,20.825,24.045,19.465c11.86-1.369,20.373-12.329,18.977-24.432
	c-1.611-13.957,0.669-17.933,3.378-26.555c9.996,12.622,33.242,42.873,80.345,103.863c-52.734-5.536-107.665,3.24-152.613,30.954
	h-33.475c-27.026-16.68-58.215-27.069-92.744-30.895c-4.131-0.457-7.825,2.512-8.281,6.629c-0.456,4.118,2.512,7.825,6.629,8.281
	c33.04,3.66,62.728,13.694,88.239,29.825c1.199,0.759,2.589,1.161,4.009,1.161c38.885-0.385,38.561,0.877,41.783-1.161
	c54.284-34.324,133.632-39.995,190.126-20.595c6.788,2.336,13.543,3.841,21.777,2.207c3.143-0.615,5.924,1.847,6.176,5.077
	c-0.02,1.247-0.012,5.125-0.004,5.998c-0.233,1.318-1.441,2.434-3.026,2.759l-12.693,2.607
	c-43.143-16.57-95.875-22.139-141.102-9.398c-28.958,8.193-45.51,25.83-55.478,50.006c-0.886-2.133-1.613-4.384-2.207-6.806
	c-1.239-5.053-5.844-8.581-11.197-8.581h-29.657c-5.8,0-10.837,3.811-12.249,9.265c-0.563,2.173-1.237,4.206-2.041,6.142
	c-1.894-4.589-4.149-9.292-6.62-13.551c-32.064-55.374-132.472-50.055-190.011-27.087L18.08,271.92
	c-1.782-0.366-3.076-1.725-3.076-3.23c0.304-3.402-0.986-7.027,2.072-9.54c4.109-3.382,7.573,2.968,26.254-3.384
	c15.165-5.176,40.028-9.994,67.546-10.59c4.142-0.09,7.426-3.521,7.336-7.661c-0.088-4.077-3.435-7.411-7.662-7.337
	c-8.323,0.18-16.334,0.727-23.898,1.529c48.426-62.705,70.473-91.399,80.367-103.893c2.773,8.851,4.984,12.644,3.377,26.556
	c-1.396,12.101,7.116,23.061,18.977,24.43c11.945,1.366,22.652-7.374,24.046-19.463c3.066-26.557-2.88-34.34-6.593-51.269
	c-7.086-32.124-47.33-41.399-67.496-15.545L22.736,243.15C10.701,241.639,0,251.184,0,263.648v5.044
	c0,8.595,6.335,16.135,15.062,17.926l9.897,2.032v42.461c0,27.343,10.579,53.117,29.788,72.574
	c63.168,63.981,173.103,21.779,176.637-68.44c5.49-3.128,10.2-14.409,11.984-20.492h25.318c1.803,6.146,6.591,17.618,12.255,20.647
	c3.319,81.622,97.082,127.527,163.558,79.495c3.358-2.426,4.113-7.115,1.687-10.474c-2.425-3.359-7.115-4.114-10.474-1.687
	c-34.272,24.762-82.955,22.261-114.402-9.591c-28.25-28.613-25.239-63.788-25.461-64.976c3.42-10.063,8.063-19.901,14.681-28.218
	c5.702-7.142,19-16.215,33.722-20.381c41.256-11.624,88.735-6.468,128.106,7.656v43.886c0,17.225-4.965,33.916-14.357,48.272
	c-2.268,3.467-1.296,8.115,2.17,10.385c3.467,2.266,8.114,1.295,10.385-2.17c10.994-16.804,16.806-36.336,16.806-56.486v-42.516
	l9.628-1.977c8.283-1.7,14.308-8.308,14.991-16.442C511.992,270.026,512.003,262.724,512,262.658z M151.174,101.731
	c12.311-15.781,36.5-10.301,40.966,9.42c2.748,15.618,9.292,21.192,6.375,46.469c-0.223,1.924-1.146,3.639-2.6,4.828
	c-4.674,3.825-11.332-0.16-10.617-6.355c2.454-21.247-2.573-24.799-6.089-41.37c-0.787-3.567-3.206-6.273-6.544-7.408
	c-6.975-3.255-11.493,3.767-16.535,10.096c-9.845,12.355-33.211,42.816-90.82,117.385c-7.959,1.484-15.333,3.277-20.945,4.921
	L151.174,101.731z M216.47,331.112c0,78.472-95.72,118.072-151.047,62.032c-16.419-16.63-25.461-38.66-25.461-62.032v-44.075
	c48.048-17.961,142.718-26.774,169.789,25.768c2.678,5.193,4.884,10.624,6.719,16.119V331.112z"/>
<g>
</g>
<g>
</g>
<g>
</g>
<g>
</g>
<g>
</g>
<g>
</g>
<g>
</g>
<g>
</g>
<g>
</g>
<g>
</g>
<g>
</g>
<g>
</g>
<g>
</g>
<g>
</g>
<g>
</g>
</svg>
