<?xml version="1.0" encoding="iso-8859-1"?>
<!-- Generator: Adobe Illustrator 19.0.0, SVG Export Plug-In . SVG Version: 6.00 Build 0)  -->
<svg version="1.1" id="Layer_1" xmlns="http://www.w3.org/2000/svg" xmlns:xlink="http://www.w3.org/1999/xlink" x="0px" y="0px"
	 viewBox="0 0 512.001 512.001" style="enable-background:new 0 0 512.001 512.001;" xml:space="preserve">
<circle style="fill:#F7B239;" cx="256.005" cy="256.004" r="246.855"/>
<path style="fill:#E09B2D;" d="M126.308,385.694c-88.802-88.802-95.799-228.426-20.999-325.241
	c-8.286,6.401-16.258,13.399-23.858,20.999c-96.401,96.401-96.401,252.698,0,349.099s252.698,96.401,349.099,0
	c7.599-7.599,14.597-15.573,20.999-23.858C354.735,481.492,215.109,474.495,126.308,385.694z"/>
<path style="fill:#A81004;" d="M351.319,387.387c0,17.457-8.161,23.447-21.739,24.655c-0.232-0.622-0.464-1.244-0.708-1.842
	c-8.71-22.032-24.716-36.781-43.027-36.781c-11.187,0-21.508,5.514-29.84,14.822c-8.332-9.308-18.665-14.822-29.852-14.822
	c-18.299,0-34.317,14.749-43.015,36.781c-0.244,0.598-0.476,1.22-0.708,1.842c-13.578-1.208-21.739-7.198-21.739-24.655
	c0-39.916,42.673-72.281,95.314-72.281S351.319,347.47,351.319,387.387z"/>
<path style="fill:#F95428;" d="M328.872,410.2c0.244,0.598,0.476,1.22,0.708,1.842c-17.482,1.562-43.954-4.782-73.575-4.782
	s-56.093,6.344-73.575,4.782c0.232-0.622,0.464-1.244,0.708-1.842c8.698-22.032,24.716-36.781,43.015-36.781
	c11.187,0,21.52,5.514,29.852,14.822c8.332-9.308,18.653-14.822,29.84-14.822C304.156,373.419,320.161,388.168,328.872,410.2z"/>
<path d="M256.001,0C114.842,0,0.001,114.841,0.001,256.001s114.841,256.001,256.001,256.001
	c141.158,0,255.999-114.841,255.999-256.001S397.159,0,256.001,0z M256.001,493.701c-131.069,0-237.702-106.631-237.702-237.7
	S124.932,18.299,256.001,18.299c131.068,0,237.7,106.632,237.7,237.702S387.069,493.701,256.001,493.701z"/>
<path d="M180.577,255.222c0-18.666-15.186-33.852-33.852-33.852s-33.852,15.186-33.852,33.852s15.186,33.852,33.852,33.852
	S180.577,273.889,180.577,255.222z"/>
<path d="M365.277,221.37c-18.666,0-33.852,15.186-33.852,33.852s15.186,33.852,33.852,33.852s33.852-15.186,33.852-33.852
	C399.129,236.556,383.942,221.37,365.277,221.37z"/>
<path d="M365.277,148.592c-22.618,0-43.046,11.592-54.646,31.007c-2.592,4.338-1.176,9.956,3.162,12.547
	c4.341,2.592,9.956,1.176,12.547-3.162c8.265-13.834,22.821-22.094,38.937-22.094s30.672,8.26,38.937,22.094
	c1.713,2.868,4.749,4.458,7.864,4.458c1.597,0,3.213-0.418,4.683-1.297c4.338-2.592,5.753-8.209,3.162-12.547
	C408.323,160.184,387.894,148.592,365.277,148.592z"/>
<path d="M146.725,166.891c16.115,0,30.672,8.26,38.937,22.094c1.713,2.868,4.749,4.458,7.864,4.458c1.597,0,3.213-0.418,4.683-1.297
	c4.338-2.592,5.753-8.209,3.162-12.547c-11.6-19.417-32.028-31.007-54.646-31.007s-43.046,11.592-54.646,31.007
	c-2.592,4.338-1.176,9.956,3.162,12.547c4.342,2.592,9.957,1.176,12.547-3.162C116.053,175.15,130.61,166.891,146.725,166.891z"/>
<path d="M256.005,305.956c-57.602,0-104.463,36.53-104.463,81.431c0,20.633,10.119,31.994,30.075,33.768
	c9.791,0.876,21.309-0.406,34.645-1.89c12.032-1.338,25.67-2.856,39.743-2.856c14.072,0,27.71,1.518,39.743,2.856
	c10.323,1.148,19.556,2.175,27.741,2.175c2.389,0,4.689-0.088,6.9-0.284c19.958-1.775,30.079-13.136,30.079-33.769
	C360.468,342.486,313.606,305.956,256.005,305.956z M256.005,398.11c-15.087,0-29.26,1.576-41.766,2.968
	c-6.968,0.775-13.373,1.477-19.086,1.827c7.77-14.606,19.193-23.386,31.001-23.386c10.327,0,18.226,6.403,23.035,11.775
	c1.736,1.94,4.215,3.047,6.817,3.047c2.602,0,5.082-1.109,6.817-3.047c4.808-5.371,12.706-11.775,23.023-11.775
	c11.788,0,23.2,8.757,31,23.386c-5.709-0.35-12.11-1.052-19.074-1.826C285.265,399.686,271.092,398.11,256.005,398.11z
	 M336.337,401.256c-10.624-24.77-29.78-40.037-50.492-40.037c-10.7,0-20.874,3.872-29.84,11.286
	c-8.968-7.414-19.144-11.286-29.852-11.286c-20.743,0-39.918,15.304-50.484,40.035c-3.977-1.875-5.829-5.675-5.829-13.867
	c0-34.811,38.654-63.132,86.164-63.132s86.164,28.321,86.164,63.132C342.169,395.581,340.315,399.381,336.337,401.256z"/>
<g>
	<circle style="fill:#FFFFFF;" cx="156.372" cy="249.014" r="9.15"/>
	<circle style="fill:#FFFFFF;" cx="374.742" cy="249.014" r="9.15"/>
</g>
<g>
</g>
<g>
</g>
<g>
</g>
<g>
</g>
<g>
</g>
<g>
</g>
<g>
</g>
<g>
</g>
<g>
</g>
<g>
</g>
<g>
</g>
<g>
</g>
<g>
</g>
<g>
</g>
<g>
</g>
</svg>
