<?xml version="1.0" encoding="iso-8859-1"?>
<!-- Generator: Adobe Illustrator 19.0.0, SVG Export Plug-In . SVG Version: 6.00 Build 0)  -->
<svg version="1.1" id="Layer_1" xmlns="http://www.w3.org/2000/svg" xmlns:xlink="http://www.w3.org/1999/xlink" x="0px" y="0px"
	 viewBox="0 0 512.001 512.001" style="enable-background:new 0 0 512.001 512.001;" xml:space="preserve">
<circle style="fill:#F7B239;" cx="256.005" cy="256.004" r="246.855"/>
<path style="fill:#E09B2D;" d="M126.307,385.694c-88.801-88.802-95.798-228.426-20.998-325.241
	c-8.286,6.401-16.258,13.399-23.858,20.999c-96.401,96.401-96.401,252.698,0,349.099s252.698,96.401,349.099,0
	c7.599-7.599,14.597-15.573,20.999-23.858C354.733,481.492,215.109,474.495,126.307,385.694z"/>
<path style="fill:#A81004;" d="M386.575,355.449h-56.703c-0.317-0.598-0.659-1.183-1-1.757
	c-8.71-14.676-24.716-24.509-43.027-24.509c-11.187,0-21.508,3.672-29.84,9.882c-8.332-6.209-18.665-9.882-29.852-9.882
	c-18.299,0-34.317,9.833-43.015,24.509c-0.342,0.573-0.683,1.159-1,1.757h-56.703C197.545,283.338,314.464,283.338,386.575,355.449z
	"/>
<path style="fill:#F95428;" d="M329.872,355.449H182.138c0.317-0.598,0.659-1.183,1-1.757c8.698-14.676,24.716-24.509,43.015-24.509
	c11.187,0,21.52,3.672,29.852,9.882c8.332-6.209,18.653-9.882,29.84-9.882c18.311,0,34.317,9.833,43.027,24.509
	C329.213,354.266,329.555,354.851,329.872,355.449z"/>
<path style="fill:#E09B2D;" d="M287.72,401.502h-63.437c-5.053,0-9.15-4.097-9.15-9.15c0-5.053,4.097-9.15,9.15-9.15h63.437
	c5.054,0,9.15,4.097,9.15,9.15C296.869,397.405,292.773,401.502,287.72,401.502z"/>
<path d="M256,0C114.842,0,0.001,114.841,0.001,256.001S114.842,512.001,256,512.001c141.159,0,256.001-114.841,256.001-256.001
	S397.16,0,256,0z M256,493.701c-131.068,0-237.7-106.631-237.7-237.7S124.932,18.299,256,18.299
	c131.069,0,237.702,106.632,237.702,237.702S387.069,493.701,256,493.701z"/>
<path d="M151.859,120.531c16.115,0,30.672,8.26,38.937,22.094c1.713,2.868,4.749,4.458,7.864,4.458c1.597,0,3.213-0.418,4.683-1.297
	c4.338-2.592,5.753-8.209,3.162-12.547c-11.6-19.417-32.028-31.007-54.646-31.007s-43.046,11.592-54.646,31.007
	c-2.592,4.338-1.176,9.956,3.162,12.547c4.341,2.594,9.957,1.176,12.547-3.162C121.187,128.791,135.743,120.531,151.859,120.531z"/>
<path d="M360.143,102.232C360.141,102.232,360.144,102.232,360.143,102.232c-22.616,0-43.047,11.593-54.647,31.007
	c-2.591,4.338-1.176,9.956,3.162,12.547c1.47,0.878,3.086,1.297,4.685,1.297c3.113,0,6.15-1.591,7.863-4.458
	c8.265-13.834,22.821-22.094,38.938-22.094c16.115,0,30.671,8.26,38.936,22.094c2.592,4.338,8.21,5.753,12.547,3.162
	c4.338-2.592,5.753-8.209,3.162-12.547C403.187,113.825,382.759,102.233,360.143,102.232z"/>
<path d="M146.724,268.222c18.666,0,33.852-15.186,33.852-33.852s-15.186-33.852-33.852-33.852s-33.852,15.186-33.852,33.852
	S128.059,268.222,146.724,268.222z"/>
<path d="M365.276,200.518c-18.666,0-33.852,15.186-33.852,33.852s15.186,33.852,33.852,33.852s33.852-15.186,33.852-33.852
	S383.942,200.518,365.276,200.518z"/>
<path d="M118.965,348.979c-2.617,2.617-3.4,6.552-1.984,9.971c1.416,3.419,4.753,5.648,8.453,5.648h261.14
	c3.7,0,7.038-2.229,8.453-5.648c1.416-3.419,0.634-7.354-1.982-9.971C317.48,273.415,194.528,273.415,118.965,348.979z
	 M201.979,346.299c6.919-5.074,15.376-7.966,24.174-7.966c8.809,0,17.183,2.757,24.235,7.966H201.979z M261.62,346.299
	c7.052-5.208,15.422-7.966,24.224-7.966c8.795,0,17.251,2.891,24.176,7.966H261.62z M334.998,346.299
	c-10.917-16.272-29.455-26.265-49.155-26.265c-10.623,0-20.818,2.772-29.84,8.066c-9.021-5.296-19.221-8.066-29.852-8.066
	c-19.711,0-38.249,10-49.145,26.265h-27.234c62.523-47.608,149.938-47.608,212.462,0H334.998z"/>
<g>
	<circle style="fill:#FFFFFF;" cx="155.47" cy="229.141" r="9.15"/>
	<circle style="fill:#FFFFFF;" cx="373.839" cy="229.141" r="9.15"/>
</g>
<g>
</g>
<g>
</g>
<g>
</g>
<g>
</g>
<g>
</g>
<g>
</g>
<g>
</g>
<g>
</g>
<g>
</g>
<g>
</g>
<g>
</g>
<g>
</g>
<g>
</g>
<g>
</g>
<g>
</g>
</svg>
