<?xml version="1.0" encoding="iso-8859-1"?>
<!-- Generator: Adobe Illustrator 19.0.0, SVG Export Plug-In . SVG Version: 6.00 Build 0)  -->
<svg version="1.1" id="Layer_1" xmlns="http://www.w3.org/2000/svg" xmlns:xlink="http://www.w3.org/1999/xlink" x="0px" y="0px"
	 viewBox="0 0 512.001 512.001" style="enable-background:new 0 0 512.001 512.001;" xml:space="preserve">
<circle style="fill:#F7B239;" cx="256.005" cy="256.004" r="246.855"/>
<path style="fill:#E09B2D;" d="M126.308,385.694c-88.802-88.802-95.799-228.426-20.999-325.241
	c-8.286,6.401-16.258,13.399-23.858,20.999c-96.401,96.401-96.401,252.698,0,349.099s252.698,96.401,349.099,0
	c7.599-7.599,14.597-15.573,20.999-23.858C354.735,481.492,215.109,474.495,126.308,385.694z"/>
<g>
	<circle style="fill:#F95428;" cx="100.572" cy="334.556" r="24.119"/>
	<circle style="fill:#F95428;" cx="411.425" cy="334.556" r="24.119"/>
</g>
<g>
	<circle style="fill:#FFFFFF;" cx="131.571" cy="236.815" r="58.555"/>
	<circle style="fill:#FFFFFF;" cx="380.426" cy="236.815" r="58.555"/>
</g>
<path style="fill:#E09B2D;" d="M284.205,384.697h-56.409c-5.053,0-9.15-4.097-9.15-9.15c0-5.053,4.097-9.15,9.15-9.15h56.409
	c5.053,0,9.15,4.097,9.15,9.15C293.355,380.6,289.258,384.697,284.205,384.697z"/>
<path d="M256,0C114.842,0,0.001,114.841,0.001,256.001S114.842,512.001,256,512.001c141.159,0,256.001-114.841,256.001-256.001
	S397.159,0,256,0z M256,493.701c-131.068,0-237.7-106.631-237.7-237.7S124.932,18.299,256,18.299
	c131.069,0,237.702,106.632,237.702,237.702S387.069,493.701,256,493.701z"/>
<path d="M131.574,169.109c-37.333,0-67.704,30.372-67.704,67.704s30.372,67.704,67.704,67.704s67.704-30.372,67.704-67.704
	S168.905,169.109,131.574,169.109z M131.574,286.217c-27.242,0-49.405-22.163-49.405-49.405s22.163-49.405,49.405-49.405
	s49.405,22.163,49.405,49.405S158.815,286.217,131.574,286.217z"/>
<path d="M380.429,169.109c-37.333,0-67.704,30.372-67.704,67.704s30.372,67.704,67.704,67.704s67.704-30.372,67.704-67.704
	S417.76,169.109,380.429,169.109z M380.429,286.217c-27.242,0-49.405-22.163-49.405-49.405s22.163-49.405,49.405-49.405
	s49.405,22.163,49.405,49.405S407.67,286.217,380.429,286.217z"/>
<path d="M318.214,331.632H193.787c-5.053,0-9.15,4.097-9.15,9.15c0,5.053,4.097,9.15,9.15,9.15h124.428
	c5.053,0,9.15-4.097,9.15-9.15C327.364,335.729,323.267,331.632,318.214,331.632z"/>
<circle cx="131.571" cy="236.815" r="20.034"/>
<circle cx="380.426" cy="236.815" r="20.034"/>
<g>
</g>
<g>
</g>
<g>
</g>
<g>
</g>
<g>
</g>
<g>
</g>
<g>
</g>
<g>
</g>
<g>
</g>
<g>
</g>
<g>
</g>
<g>
</g>
<g>
</g>
<g>
</g>
<g>
</g>
</svg>
