<?xml version="1.0" encoding="iso-8859-1"?>
<!-- Generator: Adobe Illustrator 19.0.0, SVG Export Plug-In . SVG Version: 6.00 Build 0)  -->
<svg version="1.1" id="Capa_1" xmlns="http://www.w3.org/2000/svg" xmlns:xlink="http://www.w3.org/1999/xlink" x="0px" y="0px"
	 viewBox="0 0 511.999 511.999" style="enable-background:new 0 0 511.999 511.999;" xml:space="preserve">
<path style="fill:#CC9D72;" d="M201.73,375.392c0.057-0.012,0.114-0.024,0.17-0.036c0.122-0.026,0.238-0.05,0.352-0.074
	c0.068-0.014,0.135-0.028,0.2-0.042c0.108-0.023,0.212-0.044,0.312-0.065c0.046-0.01,0.089-0.018,0.133-0.027
	c0.181-0.037,0.348-0.072,0.5-0.103c0.201-0.041,0.379-0.077,0.53-0.107c0.005-0.001,0.008-0.002,0.013-0.003
	c0.102-0.02,0.19-0.038,0.268-0.053c0.003-0.001,0.006-0.001,0.01-0.002c0.233-0.046,0.36-0.071,0.36-0.071l0,0H307.42l0,0
	c0,0,0.054,0.01,0.15,0.029c0.009,0.002,0.017,0.003,0.027,0.005c0.051,0.01,0.113,0.022,0.187,0.037c0.001,0,0.002,0,0.004,0.001
	c0.069,0.014,0.147,0.029,0.235,0.047c0.019,0.004,0.036,0.007,0.056,0.011c0.2,0.04,0.442,0.089,0.729,0.148
	c0.067,0.014,0.141,0.029,0.213,0.044c0.075,0.016,0.149,0.031,0.229,0.047c0.094,0.02,0.194,0.04,0.295,0.062
	c0.062,0.013,0.125,0.026,0.189,0.04c0.119,0.025,0.24,0.05,0.367,0.077c0.052,0.011,0.107,0.023,0.161,0.034
	c0.145,0.031,0.291,0.062,0.446,0.095c0.012,0.003,0.025,0.006,0.038,0.008c0.572,0.122,1.214,0.262,1.92,0.417
	c0.001,0,0.002,0,0.004,0.001c0.218,0.048,0.442,0.098,0.672,0.149c0.043,0.01,0.086,0.019,0.129,0.029
	c0.231,0.052,0.467,0.104,0.709,0.159c0.018,0.004,0.036,0.008,0.054,0.012c12.974,2.922,42.638,10.344,72.775,23.031
	c28.338-62.369,45.599-137.331,45.599-191.516C432.608,91.8,353.537,7.5,255.998,7.5S79.389,91.8,79.389,207.778
	c0,54.184,17.261,129.147,45.599,191.516C158.797,385.058,192.009,377.453,201.73,375.392z"/>
<path style="fill:#C19067;" d="M125.092,399.249c0.899-0.378,1.797-0.75,2.695-1.119c0.204-0.084,0.407-0.168,0.61-0.251
	c0.887-0.362,1.772-0.72,2.656-1.073c0.21-0.084,0.419-0.167,0.629-0.25c0.904-0.359,1.808-0.715,2.708-1.065
	c0.104-0.04,0.208-0.08,0.311-0.12c0.833-0.323,1.663-0.64,2.492-0.955c0.211-0.08,0.422-0.161,0.632-0.24
	c0.859-0.324,1.715-0.644,2.569-0.959c0.235-0.087,0.469-0.173,0.703-0.259c0.861-0.316,1.719-0.63,2.574-0.937
	c0.158-0.057,0.315-0.113,0.473-0.169c0.763-0.273,1.522-0.543,2.28-0.81c0.216-0.076,0.432-0.153,0.648-0.228
	c0.82-0.287,1.635-0.569,2.447-0.848c0.254-0.087,0.507-0.174,0.76-0.26c0.804-0.275,1.606-0.546,2.402-0.813
	c0.216-0.072,0.429-0.143,0.644-0.214c0.673-0.224,1.342-0.445,2.008-0.664c0.233-0.077,0.468-0.154,0.7-0.23
	c0.758-0.247,1.51-0.49,2.259-0.73c0.282-0.09,0.563-0.18,0.843-0.269c0.734-0.234,1.465-0.465,2.189-0.692
	c0.261-0.082,0.52-0.161,0.779-0.242c0.581-0.181,1.158-0.359,1.731-0.535c0.245-0.075,0.492-0.151,0.735-0.226
	c0.699-0.213,1.391-0.422,2.079-0.628c0.292-0.088,0.583-0.175,0.873-0.261c0.664-0.198,1.323-0.393,1.974-0.584
	c0.29-0.085,0.576-0.168,0.863-0.252c0.484-0.141,0.964-0.28,1.44-0.417c0.36-0.104,0.718-0.206,1.073-0.308
	c0.523-0.149,1.041-0.296,1.554-0.441c0.305-0.086,0.609-0.172,0.911-0.256c0.585-0.163,1.164-0.325,1.736-0.482
	c0.306-0.084,0.608-0.167,0.91-0.25c0.393-0.108,0.782-0.214,1.169-0.318c0.418-0.113,0.832-0.225,1.241-0.335
	c0.399-0.107,0.794-0.213,1.186-0.316c0.295-0.078,0.59-0.156,0.881-0.233c0.506-0.133,1.007-0.264,1.5-0.392
	c0.294-0.077,0.584-0.151,0.873-0.226c0.341-0.088,0.678-0.174,1.012-0.26c0.406-0.104,0.806-0.205,1.201-0.305
	c0.302-0.076,0.602-0.152,0.898-0.226c0.29-0.073,0.579-0.145,0.863-0.215c0.417-0.104,0.828-0.205,1.232-0.304
	c0.279-0.068,0.552-0.135,0.823-0.201c0.268-0.065,0.532-0.129,0.793-0.192c0.374-0.09,0.741-0.178,1.101-0.264
	c0.249-0.059,0.496-0.118,0.738-0.176c0.234-0.055,0.467-0.111,0.694-0.164c0.363-0.085,0.717-0.168,1.063-0.248
	c0.218-0.051,0.431-0.1,0.642-0.149c0.263-0.061,0.52-0.12,0.773-0.177c0.241-0.055,0.477-0.109,0.709-0.161
	c0.241-0.054,0.476-0.108,0.706-0.159c0.16-0.036,0.321-0.072,0.475-0.106c0.302-0.067,0.591-0.131,0.873-0.193
	c0.146-0.032,0.288-0.063,0.429-0.094c0.264-0.058,0.521-0.114,0.764-0.166c0.109-0.024,0.212-0.046,0.317-0.068
	c0.229-0.049,0.448-0.096,0.657-0.141c0.039-0.008,0.085-0.018,0.124-0.026c0.057-0.012,0.114-0.024,0.17-0.036
	c0.122-0.026,0.238-0.05,0.352-0.074c0.013-0.003,0.026-0.005,0.039-0.008c0.07-0.015,0.135-0.028,0.201-0.042
	c0.094-0.02,0.186-0.039,0.273-0.057c0.046-0.01,0.089-0.018,0.133-0.027c0.03-0.006,0.054-0.011,0.083-0.017
	c0.125-0.026,0.243-0.05,0.354-0.073c0.02-0.004,0.044-0.009,0.063-0.013c0.017-0.003,0.028-0.006,0.045-0.009
	c0.178-0.036,0.339-0.069,0.476-0.097c0.002-0.001,0.006-0.001,0.009-0.002c0.005-0.001,0.008-0.002,0.013-0.003
	c0.052-0.01,0.091-0.018,0.136-0.027c0.038-0.008,0.073-0.015,0.107-0.021c0.007-0.001,0.018-0.004,0.025-0.005
	c0.003-0.001,0.006-0.001,0.01-0.002c0.024-0.005,0.034-0.007,0.056-0.011c0.088-0.017,0.157-0.031,0.207-0.041
	c0.034-0.007,0.039-0.008,0.055-0.011c0.026-0.005,0.043-0.008,0.043-0.008h17.091c-25.392-61.836-49.607-131.427-49.607-183.248
	c0-81.073,33.805-147.661,84.469-184.053c-0.178-0.001-0.354-0.007-0.532-0.007c-97.539,0-176.61,84.299-176.61,200.277
	c0,3.386,0.067,6.854,0.201,10.395c2,53.11,18.831,122.65,45.398,181.121C125.022,399.278,125.057,399.264,125.092,399.249z"/>
<path style="fill:#F96989;" d="M448.189,482.879l-11.695-42.344c-3.816-13.817-13.205-25.393-25.87-32.109
	c-46.744-24.79-103.205-35.619-103.205-35.619H204.577c-0.006,0.001-56.463,10.83-103.205,35.619
	c-12.664,6.715-22.053,18.292-25.87,32.109l-11.695,42.344c-3.003,10.874,5.177,21.619,16.457,21.619c9.918,0,341.561,0,351.466,0
	C443.013,504.5,451.193,493.753,448.189,482.879z"/>
<path style="fill:#ED5A81;" d="M88.744,482.879l11.695-54.344c3.593-13.011,12.131-24.03,23.688-30.88
	c-7.653,3.247-15.327,6.832-22.755,10.772c-12.664,6.715-22.053,18.292-25.87,32.109l-11.695,42.344
	c-3.003,10.874,5.177,21.619,16.457,21.619c1.521,0,10.612,0,24.937,0C93.921,504.5,85.741,493.753,88.744,482.879z"/>
<path style="fill:#E8C842;" d="M204.577,348.244v40.086c0,4.581,1.453,9.034,4.13,12.751c5.879,8.159,17.88,22.991,35.013,35.229
	c7.326,5.232,17.23,5.232,24.555,0c17.135-12.24,29.137-27.073,35.015-35.232c2.676-3.714,4.128-8.164,4.128-12.743v-40.089
	C274.9,361.839,237.259,361.906,204.577,348.244z"/>
<path style="fill:#DBBC3B;" d="M233.644,401.08c-2.677-3.716-4.13-8.169-4.13-12.751v-32.484
	c-8.512-1.702-16.876-4.233-24.937-7.602v40.086c0,4.581,1.453,9.034,4.13,12.751c5.879,8.159,17.88,22.991,35.013,35.229
	c7.326,5.232,17.23,5.232,24.555,0c0.065-0.046,0.126-0.094,0.19-0.14C251.438,423.959,239.501,409.21,233.644,401.08z"/>
<path style="fill:#F4D44E;" d="M384.805,192.208c-0.001-5.84-3.961-10.94-9.621-12.382c-49.836-12.702-88.347-34.81-114.527-53.893
	c-23.715-16.225-38.813-33.804-38.483-33.448c-1.008-1.088-2.782-0.885-3.509,0.408c-6.498,11.558-35.066,56.686-89.104,65.181
	c-1.415,0.613-2.331,2.002-2.346,3.544c-0.011,1.095-0.017,2.167-0.017,3.279c-0.004,19.211-0.012,75.044-0.012,75.148
	c0,68.506,58.476,124.296,130.224,123.416c69.623-0.609,127.402-54.902,127.402-123.556
	C384.812,237.49,384.809,213.67,384.805,192.208z"/>
<g>
	<path style="fill:#E8C842;" d="M177.189,240.044c0-0.079,0.005-62.812,0.009-101.435c-12.841,8.977-28.662,16.482-47.636,19.464
		c-1.415,0.613-2.331,2.002-2.346,3.544c-0.011,1.095-0.017,2.167-0.017,3.279c-0.004,19.211-0.012,75.044-0.012,75.148
		c0,68.506,58.476,124.296,130.224,123.416c8.022-0.07,15.886-0.862,23.523-2.297C221.817,350.028,177.189,299.89,177.189,240.044z"
		/>
	<path style="fill:#E8C842;" d="M240.88,245.604v2.097c0,8.141,6.256,15.147,14.389,15.529c8.683,0.409,15.85-6.509,15.85-15.102
		v-2.732c0-3.272-2.653-5.925-5.925-5.925h-18.181C243.625,239.471,240.88,242.217,240.88,245.604z"/>
</g>
<path style="fill:#DBBC3B;" d="M255.999,247.701v-2.097c0-3.387,2.746-6.132,6.133-6.132h-15.12c-3.387,0-6.132,2.745-6.132,6.132
	v2.097c0,8.141,6.256,15.147,14.389,15.529c3.048,0.143,5.899-0.631,8.329-2.049C259.025,258.463,255.999,253.359,255.999,247.701z"
	/>
<circle style="fill:#656566;" cx="316.178" cy="225.984" r="16.559"/>
<path style="fill:#545456;" d="M316.179,225.989c-3.063-5.305-2.842-11.593,0.008-16.546c-2.817-0.004-5.672,0.696-8.288,2.205
	c-7.92,4.572-10.634,14.7-6.061,22.62c4.572,7.92,14.7,10.634,22.62,6.061c2.615-1.51,4.648-3.632,6.053-6.074
	C324.798,234.247,319.242,231.294,316.179,225.989z"/>
<path style="fill:#656566;" d="M256.499,320.264c-6.201,0-11.228-5.027-11.228-11.228v-7.887c0-6.201,5.027-11.228,11.228-11.228
	c6.2,0,11.228,5.027,11.228,11.228v7.887C267.728,315.237,262.701,320.264,256.499,320.264z"/>
<path style="fill:#545456;" d="M256.499,309.037v-7.887c0-4.153,2.261-7.771,5.614-9.714c-1.653-0.957-3.566-1.514-5.614-1.514
	c-6.201,0-11.229,5.027-11.229,11.229v7.887c0,6.201,5.027,11.228,11.229,11.228c2.047,0,3.961-0.557,5.614-1.514
	C258.76,316.808,256.499,313.19,256.499,309.037z"/>
<circle style="fill:#656566;" cx="195.821" cy="225.984" r="16.559"/>
<path style="fill:#545456;" d="M195.82,225.989c-3.063-5.305-2.842-11.593,0.008-16.546c-2.817-0.004-5.672,0.696-8.288,2.205
	c-7.92,4.572-10.634,14.7-6.061,22.62c4.572,7.92,14.7,10.634,22.62,6.061c2.615-1.51,4.648-3.632,6.053-6.074
	C204.438,234.247,198.883,231.294,195.82,225.989z"/>
<path d="M255.999,270.747c12.473,0,22.619-10.147,22.619-22.619v-8.657c0-4.143-3.357-7.5-7.5-7.5s-7.5,3.357-7.5,7.5v8.657
	c0,4.2-3.418,7.618-7.618,7.618s-7.618-3.418-7.618-7.618v-8.657c0-4.143-3.357-7.5-7.5-7.5c-4.143,0-7.5,3.357-7.5,7.5v8.657
	C233.38,260.601,243.527,270.747,255.999,270.747z"/>
<path d="M316.179,201.929c-13.267,0-24.059,10.794-24.059,24.06c0,13.267,10.793,24.059,24.059,24.059
	c13.267,0,24.06-10.793,24.06-24.059C340.239,212.723,329.446,201.929,316.179,201.929z M316.179,235.047
	c-4.994,0-9.059-4.063-9.059-9.059s4.063-9.06,9.059-9.06c4.995,0,9.06,4.063,9.06,9.06
	C325.238,230.984,321.174,235.047,316.179,235.047z"/>
<path d="M219.879,225.99c0-13.267-10.793-24.06-24.059-24.06c-13.267,0-24.06,10.794-24.06,24.06
	c0,13.267,10.794,24.059,24.06,24.059C209.086,250.049,219.879,239.255,219.879,225.99z M186.761,225.99
	c0-4.995,4.063-9.06,9.06-9.06c4.994,0,9.059,4.063,9.059,9.06c0,4.994-4.063,9.059-9.059,9.059
	C190.824,235.047,186.761,230.984,186.761,225.99z"/>
<path d="M295.692,199.111c11.847-9.917,29.14-9.906,40.976,0.001c3.169,2.651,7.901,2.246,10.566-0.938
	c2.658-3.177,2.238-7.906-0.938-10.566c-17.422-14.581-42.834-14.563-60.232,0.001c-3.177,2.658-3.597,7.389-0.938,10.565
	C287.785,201.35,292.516,201.771,295.692,199.111z"/>
<path d="M216.308,199.111c3.174,2.66,7.906,2.239,10.565-0.938c2.659-3.176,2.239-7.906-0.938-10.565
	c-17.421-14.584-42.832-14.563-60.232-0.001c-5.332,4.463-2.191,13.253,4.817,13.253c1.698,0,3.405-0.573,4.81-1.748
	C187.181,189.194,204.473,189.204,216.308,199.111z"/>
<path d="M256.499,282.42c-10.327,0-18.729,8.402-18.729,18.729v7.887c0,10.327,8.402,18.729,18.729,18.729
	c10.328,0,18.729-8.401,18.729-18.729v-7.887C275.228,290.823,266.826,282.42,256.499,282.42z M260.228,309.037
	c0,2.056-1.672,3.728-3.728,3.728s-3.728-1.672-3.728-3.728v-7.887c0-2.056,1.672-3.728,3.728-3.728s3.728,1.672,3.728,3.728
	V309.037z"/>
<path d="M455.418,480.882l-11.695-42.342c-4.328-15.673-15.111-29.064-29.585-36.739c-5.392-2.86-11.176-5.661-17.209-8.365
	c26.721-61.25,43.179-131.716,43.179-185.658C440.109,86.073,356.281,0,255.998,0c-46.865,0-91.174,18.85-124.763,53.078
	c-2.9,2.956-2.856,7.705,0.101,10.607c2.955,2.9,7.704,2.857,10.607-0.101c64.398-65.626,169.21-65.824,233.358,5.575
	c32.118,35.747,49.807,84.976,49.807,138.616c0,52.059-16.005,120.328-41.991,179.821c-4.225-1.679-8.582-3.32-13.02-4.907
	c-3.895-1.396-8.193,0.635-9.588,4.536c-1.396,3.9,0.636,8.193,4.536,9.588c15.763,5.638,18.455,7.45,20.586,7.849
	c1.741,1.244,8.178,3.336,21.477,10.39c10.844,5.751,18.918,15.767,22.152,27.481l11.695,42.343
	c1.684,6.097-2.894,12.123-9.228,12.123h-39.417v-36.734c0-4.143-3.357-7.5-7.5-7.5s-7.5,3.357-7.5,7.5v36.734h-180.55
	c-4.143,0-7.5,3.357-7.5,7.5s3.357,7.5,7.5,7.5h234.97C447.971,512,459.747,496.547,455.418,480.882z"/>
<path d="M161.76,496.999h-27.072v-36.734c0-4.143-3.357-7.5-7.5-7.5s-7.5,3.357-7.5,7.5v36.734H80.266
	c-3.015,0-5.791-1.376-7.616-3.774c-1.826-2.399-2.413-5.441-1.61-8.349l11.694-42.343c3.235-11.714,11.311-21.729,22.153-27.481
	c34.371-18.229,74.65-28.849,92.192-32.932c0.381,3.641-1.76,13.206,5.545,23.344c5.935,8.236,18.6,23.989,36.738,36.947
	c9.951,7.105,23.322,7.109,33.275,0c17.092-12.21,32.996-30.636,38.02-38.88c4.325-7.099,4.418-13.228,4.264-21.419
	c4.46,1.034,10.383,2.488,17.272,4.376c3.994,1.091,8.121-1.256,9.216-5.252c1.095-3.994-1.257-8.12-5.252-9.216
	c-6.958-1.907-14.3-3.754-21.234-5.295v-8.534c45.285-20.889,77.393-65.49,77.393-118.149l-0.007-48.689
	c1.248,0.244,8.085,1.587,9.332,1.587c3.589,0,6.763-2.585,7.385-6.242c0.695-4.084-2.052-7.957-6.135-8.653
	c-5.655-0.963-11.178-2.061-16.579-3.271c-63.995-14.331-122.069-49.086-158.631-87.388c-4.44-4.793-12.314-3.921-15.549,1.828
	c-6.986,12.426-33.671,53.578-83.731,61.447c-0.625,0.099-1.235,0.275-1.816,0.526c-7.21,3.123-6.839,10.608-6.869,10.708
	c-0.025,2.77-0.008-0.504-0.025,78.148c0,52.603,32.091,97.249,77.391,118.149v8.53c-11.909,2.637-39.223,9.34-68.201,20.867
	c-25.985-59.492-41.987-127.757-41.987-179.813c0-43.717,11.609-84.375,33.572-117.581c2.285-3.455,1.336-8.108-2.118-10.395
	c-3.455-2.284-8.107-1.336-10.395,2.118C84.36,117.587,71.89,161.109,71.89,207.777c0,53.938,16.455,124.399,43.173,185.646
	c-5.79,2.596-11.561,5.385-17.203,8.378c-14.474,7.675-25.257,21.066-29.586,36.738L56.58,480.881
	c-4.324,15.654,7.434,31.118,23.687,31.118h81.494c4.143,0,7.5-3.357,7.5-7.5S165.902,496.999,161.76,496.999z M134.688,240.044
	c0.001-9.418,0.01-65.83,0.012-75.255c47.615-9.13,75.567-44.449,86.81-62.075c34.463,35.463,93.535,70.281,155.794,85.368
	l0.008,51.961c0,60.964-49.855,115.797-124.063,115.887v0.001c-0.052-0.001-0.104-0.002-0.156-0.003v-0.001
	C188.645,354.574,134.688,304.224,134.688,240.044z M299.919,364.072c0,30.882,1.803,27.437-7.885,39.371
	c-6.279,7.734-15.821,17.981-28.117,26.763c-4.736,3.382-11.101,3.383-15.837,0.001c-12.795-9.142-24.483-21.291-33.286-33.509
	c-3.42-4.749-2.716-6.298-2.716-32.626C240.25,373.258,271.71,373.267,299.919,364.072z"/>
<g>
</g>
<g>
</g>
<g>
</g>
<g>
</g>
<g>
</g>
<g>
</g>
<g>
</g>
<g>
</g>
<g>
</g>
<g>
</g>
<g>
</g>
<g>
</g>
<g>
</g>
<g>
</g>
<g>
</g>
</svg>
