<?xml version="1.0" encoding="iso-8859-1"?>
<!-- Generator: Adobe Illustrator 19.0.0, SVG Export Plug-In . SVG Version: 6.00 Build 0)  -->
<svg version="1.1" id="Layer_1" xmlns="http://www.w3.org/2000/svg" xmlns:xlink="http://www.w3.org/1999/xlink" x="0px" y="0px"
	 viewBox="0 0 512.001 512.001" style="enable-background:new 0 0 512.001 512.001;" xml:space="preserve">
<circle style="fill:#F7B239;" cx="263.97" cy="252.612" r="239.161"/>
<path style="fill:#E09B2D;" d="M138.322,378.259C52.289,292.225,45.51,156.952,117.979,63.154
	c-8.028,6.202-15.751,12.981-23.115,20.344c-93.396,93.396-93.396,244.823,0,338.219s244.823,93.396,338.219,0
	c7.362-7.362,14.142-15.087,20.344-23.115C359.629,471.072,224.356,464.294,138.322,378.259z"/>
<circle style="fill:#A6DAF7;" cx="158.105" cy="235.19" r="91.433"/>
<path style="fill:#B27214;" d="M210.508,135.408c55.018,28.886,76.281,97.166,47.383,152.184
	c-19.537,37.207-57.808,60.325-99.86,60.325c-18.119,0-36.214-4.479-52.335-12.942c-26.652-13.994-46.26-37.538-55.207-66.282
	s-6.17-59.261,7.836-85.914c19.537-37.207,57.796-60.313,99.86-60.313C176.291,122.466,194.386,126.934,210.508,135.408z
	 M229.04,272.463c20.577-39.204,5.496-87.663-33.696-108.24c-39.204-20.589-87.663-5.508-108.24,33.696
	c-20.589,39.192-5.508,87.651,33.697,108.24C159.993,326.737,208.451,311.656,229.04,272.463z"/>
<path style="fill:#F95428;" d="M83.835,376.608L83.835,376.608c-11.268-5.918-25.201-1.58-31.119,9.688l-41.213,78.476
	c-5.918,11.268-1.58,25.201,9.688,31.119l0,0c11.268,5.918,25.201,1.58,31.119-9.688l41.213-78.476
	C99.441,396.459,95.103,382.526,83.835,376.608z"/>
<path style="fill:#E09B2D;" d="M297.768,413.309H230.18c-4.896,0-8.864-3.969-8.864-8.864s3.969-8.864,8.864-8.864h67.588
	c4.897,0,8.864,3.969,8.864,8.864S302.664,413.309,297.768,413.309z"/>
<path d="M263.974,4.588c-136.762,0-248.026,111.263-248.026,248.026c0,43.554,11.381,86.123,32.966,123.599
	c-1.549,1.81-2.912,3.801-4.047,5.962L3.654,460.65c-8.18,15.578-2.163,34.908,13.416,43.089c4.643,2.438,9.699,3.675,14.799,3.675
	c3.188,0,6.393-0.483,9.524-1.458c8.139-2.534,14.802-8.086,18.765-15.631l31.27-59.542c21.039,20.409,45.239,36.749,72.091,48.657
	c31.704,14.059,65.502,21.187,100.456,21.187c136.762,0,248.026-111.259,248.026-248.014C512,115.851,400.736,4.588,263.974,4.588z
	 M44.461,482.081c-1.761,3.353-4.723,5.821-8.34,6.946c-3.617,1.126-7.457,0.777-10.81-0.985
	c-6.922-3.636-9.598-12.227-5.962-19.149l41.213-78.476c1.761-3.353,4.723-5.821,8.34-6.946c1.391-0.433,2.815-0.648,4.232-0.648
	c2.266,0,4.513,0.55,6.576,1.633l0,0c3.353,1.761,5.821,4.723,6.946,8.34c1.125,3.617,0.777,7.456-0.985,10.81L44.461,482.081z
	 M263.974,482.898c-32.463,0-63.842-6.616-93.27-19.666c-26.526-11.764-50.266-28.191-70.655-48.87l1.32-2.514
	c3.963-7.547,4.75-16.184,2.216-24.323c-1.629-5.234-4.511-9.851-8.364-13.539l14.358-27.343
	c15.277,6.644,31.855,10.137,48.45,10.137c45.362,0,86.635-24.933,107.708-65.067c15.078-28.705,18.057-61.609,8.394-92.649
	c-9.666-31.04-30.797-56.434-59.499-71.504c-17.374-9.133-36.894-13.961-56.448-13.961c-45.366,0-86.637,24.928-107.707,65.055
	c-15.105,28.744-18.107,61.656-8.453,92.672c8.769,28.171,27.026,51.703,51.85,67.093l-14.347,27.324
	c-5.176-1.068-10.562-0.832-15.75,0.759c-19.714-34.576-30.099-73.781-30.099-113.889c0-126.987,103.31-230.297,230.297-230.297
	c126.985,0,230.297,103.31,230.297,230.297C494.271,379.593,390.961,482.898,263.974,482.898z M109.815,327.127
	c-24.556-12.894-42.62-34.581-50.864-61.069c-8.246-26.494-5.683-54.605,7.22-79.158c17.999-34.277,53.256-55.57,92.012-55.57
	c16.692,0,33.358,4.124,48.203,11.927c24.513,12.87,42.56,34.562,50.817,61.079c8.257,26.519,5.715,54.622-7.161,79.135
	c-18.002,34.284-53.26,55.581-92.012,55.581C141.35,339.053,124.678,334.929,109.815,327.127z"/>
<path d="M236.887,276.586l0.001-0.001c22.817-43.47,6.028-97.395-37.423-120.209c-21.058-11.058-45.158-13.256-67.862-6.19
	c-22.705,7.068-41.296,22.557-52.348,43.612c-11.059,21.052-13.258,45.149-6.191,67.853c7.067,22.705,22.556,41.299,43.614,52.358
	c13.172,6.915,27.3,10.192,41.237,10.192C189.963,324.2,220.98,306.867,236.887,276.586z M124.922,298.312
	c-16.865-8.856-29.269-23.748-34.928-41.931c-5.66-18.181-3.899-37.48,4.959-54.342c8.851-16.864,23.739-29.267,41.921-34.927
	c6.993-2.177,14.15-3.255,21.272-3.255c11.395,0,22.699,2.763,33.077,8.214c34.797,18.27,48.241,61.457,29.969,96.27
	C202.912,303.139,159.724,316.584,124.922,298.312z"/>
<path style="fill:#666666;" d="M158.104,202.391c-18.085,0-32.797,14.713-32.797,32.797s14.713,32.797,32.797,32.797
	s32.797-14.713,32.797-32.797S176.188,202.391,158.104,202.391z"/>
<path d="M416.445,198.802h-93.203c-4.897,0-8.864,3.969-8.864,8.864c0,4.895,3.968,8.864,8.864,8.864h19.651
	c-3.681,5.301-5.846,11.729-5.846,18.658c0,5.431,1.334,10.553,3.682,15.068h-2.09c-4.897,0-8.864,3.969-8.864,8.864
	s3.968,8.864,8.864,8.864h62.41c4.897,0,8.864-3.969,8.864-8.864s-3.968-8.864-8.864-8.864h-2.088
	c2.346-4.515,3.682-9.637,3.682-15.068c0-6.928-2.165-13.357-5.846-18.658h19.651c4.897,0,8.864-3.969,8.864-8.864
	C425.312,202.77,421.342,198.802,416.445,198.802z"/>
<path d="M333.113,367.215H194.834c-4.896,0-8.864,3.969-8.864,8.864s3.969,8.864,8.864,8.864h138.277
	c4.897,0,8.864-3.969,8.864-8.864S338.008,367.215,333.113,367.215z"/>
<g>
	<circle style="fill:#FFFFFF;" cx="170.988" cy="231.881" r="8.864"/>
	<circle style="fill:#FFFFFF;" cx="382.551" cy="231.881" r="8.864"/>
</g>
<g>
</g>
<g>
</g>
<g>
</g>
<g>
</g>
<g>
</g>
<g>
</g>
<g>
</g>
<g>
</g>
<g>
</g>
<g>
</g>
<g>
</g>
<g>
</g>
<g>
</g>
<g>
</g>
<g>
</g>
</svg>
