<?xml version="1.0" encoding="iso-8859-1"?>
<!-- Generator: Adobe Illustrator 19.0.0, SVG Export Plug-In . SVG Version: 6.00 Build 0)  -->
<svg version="1.1" id="Capa_1" xmlns="http://www.w3.org/2000/svg" xmlns:xlink="http://www.w3.org/1999/xlink" x="0px" y="0px"
	 viewBox="0 0 511.999 511.999" style="enable-background:new 0 0 511.999 511.999;" xml:space="preserve">
<path style="fill:#2F2E3C;" d="M167.054,387.81c-14.29-14.29-28.58-28.58-42.87-42.87c-36.647,24.072-67.973,55.398-92.045,92.045
	c14.29,14.29,28.58,28.58,42.87,42.87C111.656,455.782,142.983,424.456,167.054,387.81z"/>
<path style="fill:#F9A000;" d="M57.1,500.385l-45.491-45.491c-5.308-5.308-5.308-13.912,0-19.22l0,0
	c5.308-5.308,13.912-5.308,19.22,0l45.491,45.491c5.308,5.308,5.308,13.912,0,19.22l0,0C71.013,505.693,62.408,505.693,57.1,500.385
	z"/>
<polyline style="fill:#B1B4BB;" points="190.354,359.413 462.662,111.968 504.357,7.636 400.025,49.332 152.58,321.639 "/>
<polyline style="fill:#C6CDD3;" points="190.354,359.413 462.662,111.968 504.357,7.636 431.343,80.65 171.469,340.524 "/>
<path style="fill:#F9A000;" d="M197.467,366.522l-51.994-51.994c-14.277-14.277-37.424-14.277-51.701,0l0,0l103.694,103.694l0,0
	C211.744,403.945,211.744,380.798,197.467,366.522z"/>
<path style="fill:#EA8100;" d="M127.121,347.876L127.121,347.876c14.277-14.277,37.423-14.277,51.7,0l-33.348-33.348
	c-14.277-14.277-37.424-14.277-51.701,0l0,0L127.121,347.876z"/>
<path d="M509.758,2.235c-2.158-2.158-5.395-2.822-8.231-1.691L397.187,42.24c-1.075,0.431-2.038,1.098-2.818,1.955l-69.227,76.183
	c-2.836,3.121-2.605,7.949,0.516,10.785l0,0c3.121,2.836,7.949,2.605,10.785-0.516l68.043-74.881l68.194-27.252L171.469,329.726
	l-8.342-8.342l149.367-164.381c2.836-3.121,2.605-7.949-0.516-10.785l0,0c-3.121-2.836-7.949-2.605-10.785,0.516l-148.875,163.84
	l-1.447-1.445c-17.203-17.202-45.178-17.23-62.415-0.082c-0.749,0.745-1.374,1.625-1.764,2.607
	c-1.173,2.956-0.426,6.166,1.682,8.273l23.882,23.882c-32.149,22.428-59.674,50.053-81.988,82.302
	c-7.873-3.705-17.561-2.333-24.058,4.165c-8.274,8.275-8.274,21.74,0,30.016l45.491,45.491c5,5,12.058,7.199,19.265,5.804
	c2.465-0.477,4.835-1.419,6.954-2.767c9.675-6.157,12.303-17.872,7.962-27.096c32.25-22.313,59.876-49.839,82.303-81.988
	l23.758,23.758c0.752,0.752,1.624,1.393,2.61,1.791c2.965,1.195,6.196,0.451,8.312-1.666c8.369-8.368,12.968-19.502,12.943-31.341
	c-0.024-11.918-5.066-23.279-13.493-31.707l-0.896-0.896l29.441-26.753c3.121-2.836,3.352-7.664,0.516-10.785l0,0
	c-2.836-3.121-7.664-3.352-10.785-0.516l-29.982,27.243l-8.343-8.343L483.478,39.313l-27.25,68.183l-209.28,190.177
	c-3.121,2.836-3.351,7.664-0.516,10.785l0,0c2.836,3.121,7.664,3.352,10.785,0.516l210.582-191.36
	c0.857-0.779,1.526-1.742,1.954-2.818l41.695-104.33C512.583,7.632,511.917,4.394,509.758,2.235z M85.226,385.413
	c4.714-4.45,9.564-8.763,14.56-12.919l39.715,39.715c-4.156,4.996-8.469,9.846-12.92,14.56L85.226,385.413z M74.379,396.161
	l41.454,41.454c-4.678,4.49-9.508,8.827-14.468,13.024l-40.009-40.009C65.552,405.668,69.89,400.84,74.379,396.161z M51.725,422.592
	l37.677,37.677c-4.383,3.353-8.853,6.612-13.432,9.748l-3.429-3.429l-30.564-30.565C45.113,431.445,48.371,426.975,51.725,422.592z
	 M70.921,494.987c-1.124,1.124-2.62,1.744-4.21,1.744c-1.591,0-3.086-0.619-4.211-1.745l-45.491-45.49
	c-2.322-2.322-2.322-6.102,0-8.423c1.161-1.162,2.686-1.742,4.211-1.742c1.525,0,3.051,0.58,4.211,1.742l43.58,43.581l0.6,0.6l0,0
	l1.31,1.31C73.244,488.886,73.244,492.664,70.921,494.987z M157.218,388.771c-2.648,3.864-5.377,7.656-8.178,11.382l-37.197-37.197
	c3.726-2.802,7.518-5.532,11.383-8.179l16.997,16.997L157.218,388.771z M196.751,406.709l-91.459-91.46
	c11.039-6.29,25.372-4.734,34.782,4.676l51.994,51.995c5.463,5.462,8.471,12.725,8.471,20.452
	C200.54,397.482,199.223,402.391,196.751,406.709z"/>
<g>
</g>
<g>
</g>
<g>
</g>
<g>
</g>
<g>
</g>
<g>
</g>
<g>
</g>
<g>
</g>
<g>
</g>
<g>
</g>
<g>
</g>
<g>
</g>
<g>
</g>
<g>
</g>
<g>
</g>
</svg>
