<?xml version="1.0" encoding="iso-8859-1"?>
<!-- Generator: Adobe Illustrator 19.0.0, SVG Export Plug-In . SVG Version: 6.00 Build 0)  -->
<svg version="1.1" id="Capa_1" xmlns="http://www.w3.org/2000/svg" xmlns:xlink="http://www.w3.org/1999/xlink" x="0px" y="0px"
	 viewBox="0 0 512 512" style="enable-background:new 0 0 512 512;" xml:space="preserve">
<path style="fill:#C5D2D8;" d="M361.218,174.671l26.239-26.239c6.597-6.597,6.597-17.293,0-23.89l0,0
	c-6.597-6.597-17.293-6.597-23.89,0l-26.238,26.239"/>
<rect x="39.62" y="398.043" transform="matrix(-0.7071 0.7071 -0.7071 -0.7071 451.6794 657.594)" style="fill:#747B81;" width="100.054" height="48.599"/>
<rect x="48.21" y="418.792" transform="matrix(-0.7071 0.7071 -0.7071 -0.7071 472.4223 666.1988)" style="fill:#495259;" width="100.054" height="24.299"/>
<polyline style="fill:#97ABB1;" points="401.016,188.89 175.12,414.786 97.193,336.859 323.089,110.963 "/>
<polyline style="fill:#C5D2D8;" points="219.377,277.155 221.996,290.003 136.166,375.833 97.193,336.859 183.022,251.03 
	195.848,253.672 "/>
<rect x="192.968" y="164.898" transform="matrix(-0.7071 0.7071 -0.7071 -0.7071 654.0792 169.0682)" style="fill:#E2181B;" width="198.113" height="110.2"/>
<polygon style="fill:#B81328;" points="401.036,188.909 266.104,323.841 243.849,301.586 378.78,166.654 323.11,110.984 "/>
<rect x="109.785" y="284.038" transform="matrix(-0.7071 0.7071 -0.7071 -0.7071 487.0872 572.1429)" style="fill:#B0BDC3;" width="30.528" height="205.826"/>
<rect x="152.066" y="386.116" transform="matrix(-0.7071 0.7071 -0.7071 -0.7071 589.1665 614.4321)" style="fill:#8D9BA0;" width="30.528" height="86.241"/>
<rect x="121.487" y="316.175" transform="matrix(-0.7071 0.7071 -0.7071 -0.7071 533.544 459.9468)" style="fill:#495259;" width="100.054" height="48.599"/>
<g>
	
		<rect x="112.9" y="319.739" transform="matrix(-0.7071 0.7071 -0.7071 -0.7071 512.8154 451.3626)" style="fill:#747B81;" width="100.054" height="24.299"/>
	
		<rect x="161.919" y="280.691" transform="matrix(0.7071 0.7071 -0.7071 0.7071 272.169 -67.0482)" style="fill:#747B81;" width="110.2" height="28.644"/>
</g>
<polygon style="fill:#495259;" points="243.849,301.586 224.079,322.285 245.85,344.056 266.065,323.841 "/>
<rect x="39.141" y="408.183" transform="matrix(-0.7071 0.7071 -0.7071 -0.7071 415.8417 744.1421)" style="fill:#828385;" width="29.325" height="100.023"/>
<path d="M509.716,2.283c-3.045-3.044-7.982-3.044-11.025,0L386.566,114.406c-3.775-1.894-8.011-2.803-12.388-2.572
	c-6.243,0.33-12.093,3.168-16.514,7.59l-7.546,7.546l-21.515-21.515c-3.045-3.044-7.982-3.044-11.025,0l-22.991,22.991
	c-3.045,3.045-3.045,7.981,0,11.025l0,0c3.045,3.045,7.982,3.045,11.026,0l17.478-17.479l66.898,66.898L266.065,312.816l-66.9-66.9
	l80.744-80.739c3.045-3.045,3.045-7.982,0-11.026l0,0c-3.045-3.044-7.981-3.044-11.025,0L97.168,325.855l-28.283-28.283
	c-3.045-3.044-7.981-3.047-11.024-0.001l-22.391,22.38c-0.768,0.767-1.422,1.657-1.829,2.664c-1.22,3.028-0.459,6.327,1.702,8.489
	l50.082,50.082l-37.832,37.832l-12.541-12.541c-0.768-0.768-1.658-1.423-2.666-1.83c-3.029-1.221-6.329-0.461-8.489,1.701
	L2.284,427.963c-3.045,3.046-3.045,7.982,0,11.026l70.597,70.598c0.768,0.768,1.658,1.423,2.666,1.83
	c3.029,1.221,6.329,0.461,8.489-1.701l21.615-21.615c3.045-3.046,3.045-7.982,0-11.026L92.986,464.41l37.832-37.833l13.496,13.496
	c3.045,3.045,7.982,3.045,11.026,0l0,0c3.045-3.045,3.045-7.982,0-11.026L51.884,325.591l11.488-11.482l134.52,134.519
	l-11.488,11.482l-5.337-5.337c-3.045-3.045-7.982-3.045-11.026,0l0,0c-3.045,3.045-3.045,7.982,0,11.026l10.85,10.849
	c1.523,1.522,3.518,2.283,5.513,2.283c1.994,0,3.99-0.76,5.512-2.282l22.391-22.38c0.768-0.767,1.422-1.657,1.829-2.664
	c1.22-3.028,0.459-6.327-1.702-8.489l-28.309-28.308l220.403-220.403c3.045-3.046,3.045-7.982,0-11.026l-21.493-21.493l7.55-7.55
	c4.426-4.426,7.264-10.284,7.589-16.535c0.227-4.374-0.683-8.603-2.575-12.37l112.119-112.12
	C512.761,10.264,512.761,5.329,509.716,2.283z M78.523,493.178l-59.7-59.702l10.59-10.59l59.7,59.702L78.523,493.178z
	 M81.96,453.384l-23.341-23.341l37.832-37.833l23.341,23.341L81.96,453.384z M255.038,323.841l-9.188,9.188l-66.9-66.899
	l9.189-9.189L255.038,323.841z M130.01,358.65l59.704-59.704l23.339,23.339l-59.703,59.702L130.01,358.65z M224.079,333.311
	l10.745,10.745l-59.7,59.7l-10.746-10.744L224.079,333.311z M167.922,277.156l10.765,10.764l-59.705,59.705l-10.768-10.766
	L167.922,277.156z M361.145,137.996l7.938-7.938c1.718-1.719,4.003-2.665,6.432-2.665c2.428,0,4.712,0.947,6.436,2.67
	c1.717,1.714,2.663,3.996,2.663,6.423c0,2.429-0.947,4.714-2.666,6.434l-7.939,7.939L361.145,137.996z"/>
<g>
</g>
<g>
</g>
<g>
</g>
<g>
</g>
<g>
</g>
<g>
</g>
<g>
</g>
<g>
</g>
<g>
</g>
<g>
</g>
<g>
</g>
<g>
</g>
<g>
</g>
<g>
</g>
<g>
</g>
</svg>
