<?xml version="1.0" encoding="iso-8859-1"?>
<!-- Generator: Adobe Illustrator 19.0.0, SVG Export Plug-In . SVG Version: 6.00 Build 0)  -->
<svg version="1.1" id="Capa_1" xmlns="http://www.w3.org/2000/svg" xmlns:xlink="http://www.w3.org/1999/xlink" x="0px" y="0px"
	 viewBox="0 0 511.999 511.999" style="enable-background:new 0 0 511.999 511.999;" xml:space="preserve">
<path style="fill:#FFC100;" d="M263.361,41.925L20.714,284.572c-10.881,10.881-10.881,28.524,0,39.406L192.99,496.254
	c10.881,10.881,28.524,10.881,39.406,0l242.647-242.647c10.881-10.881,10.881-28.524,0-39.406L302.767,41.925
	C291.885,31.044,274.243,31.044,263.361,41.925z M294.012,222.957c-21.779-21.779-21.779-57.093-0.008-78.863
	c21.779-21.779,57.093-21.779,78.87,0c21.779,21.779,21.779,57.093,0,78.87C351.104,244.736,315.79,244.736,294.012,222.957z"/>
<g>
	<path style="fill:#F0151C;" d="M345.742,80.418c-20.358,15.203-28.87,39.117-25.587,61.632c0.818,5.611,5.768,9.725,11.438,9.725
		l0,0c7.179,0,12.272-6.45,11.285-13.561c-2.176-15.666,4.421-32.273,20.072-41.783c13.036-7.92,30.036-7.851,43.015,0.16
		c24.096,14.872,26.78,47.026,8.059,65.747c-9.666,9.666-22.872,13.524-35.45,11.724c-7.036-1.008-13.384,4.173-13.384,11.281v0.007
		c0,5.744,4.228,10.675,9.914,11.486c19.543,2.791,40.117-3.297,55.12-18.299c27.112-27.112,25.179-72.438-5.8-96.954
		C401.813,63.69,368.846,63.165,345.742,80.418z"/>
	<path style="fill:#F0151C;" d="M434.26,10.506c4.12,3.662,5.003,9.71,2.209,14.462c-10.115,17.205-15.849,38.997-21.072,58.814
		c-1.221,4.578-2.396,9.075-3.605,13.415c-1.932,6.939-9.753,10.352-16.172,7.075c-4.814-2.453-7.255-7.945-5.832-13.155
		c1.142-4.205,2.283-8.6,3.492-13.075c5.653-21.469,11.822-45.019,23.512-64.837C420.449,7.007,428.882,5.726,434.26,10.506
		L434.26,10.506z"/>
	<path style="fill:#F0151C;" d="M498.265,30.601c2.652,5.391,0.686,11.902-4.501,14.934c-5.257,3.072-10.797,6.712-16.594,11.024
		c-22.783,16.975-33.644,35.193-43.272,51.217c-1.3,2.193-2.905,5.345-4.611,8.77c-3.979,7.956-15.223,8.227-19.562,0.475
		c-1.684-2.995-1.876-6.588-0.531-9.753c1.774-4.137,3.911-9.493,4.972-11.223c10.183-17.008,22.862-38.153,49.319-57.863
		c6.484-4.831,12.756-8.943,18.772-12.44C487.988,22.413,495.339,24.653,498.265,30.601L498.265,30.601z"/>
</g>
<path d="M505.088,27.244L505.088,27.244c-2.326-4.727-6.551-8.311-11.592-9.835c-5.032-1.521-10.52-0.88-15.06,1.76
	c-6.513,3.784-13.072,8.13-19.495,12.916c-11.961,8.911-21.193,18.048-28.67,26.964c3.437-10.799,7.508-21.304,12.753-30.226
	c4.632-7.878,3.071-17.971-3.712-23.999l0,0c-4.282-3.805-9.982-5.478-15.648-4.59c-5.638,0.885-10.53,4.205-13.422,9.11
	c-9.343,15.84-15.287,33.866-20.106,51.108c-16.385-1.308-32.756,2.893-46.173,11.923l-35.819-35.828
	c-13.837-13.824-36.339-13.819-50.163,0.002L56.637,237.895c-2.97,2.97-2.97,7.785,0,10.753l0,0c2.97,2.97,7.785,2.97,10.753,0
	L268.737,47.301c7.897-7.896,20.754-7.896,28.657,0l34.884,34.893c-10.999,11.403-17.93,26.006-19.854,41.553
	c-8.903,3.128-17.045,8.235-23.782,14.971c-24.709,24.71-24.713,64.911-0.008,89.617c12.357,12.356,28.582,18.532,44.812,18.532
	c16.226,0,32.459-6.179,44.811-18.532c6.732-6.731,11.837-14.863,14.967-23.752c15.516-1.859,30.024-8.702,41.559-19.882
	l6.803,6.803c2.97,2.97,7.784,2.97,10.753,0l0,0c2.97-2.97,2.97-7.785,0-10.754l-7.779-7.78
	c6.432-9.633,10.542-20.754,11.814-32.357c1.584-14.441-1.243-29.121-7.96-41.864c7.755-11.886,17.567-24.376,33.292-36.092
	c5.295-3.939,10.641-7.492,15.892-10.561C506.188,47.081,509.477,36.163,505.088,27.244z M394.213,165.522
	c-2.968-10.084-8.399-19.243-15.962-26.805c-7.557-7.557-16.714-12.986-26.798-15.956c1.479-5.047,4.123-9.692,7.784-13.613
	l48.588,48.588C403.888,161.422,399.24,164.055,394.213,165.522z M381.026,98.301l1.734,1.734c1.533,4.645,4.821,8.678,9.402,11.011
	c0.891,0.455,1.81,0.828,2.744,1.136l7.769,7.77c0.132,0.264,0.267,0.526,0.413,0.785c1.874,3.346,4.672,5.958,7.971,7.598
	l7.47,7.47c-0.286,3.101-0.987,6.142-2.085,9.045l-44.434-44.435C374.882,99.302,377.921,98.594,381.026,98.301z M400.634,79.979
	l0.081-0.308c5.668-21.526,11.528-43.786,22.626-62.602c0.787-1.333,2.017-1.707,2.681-1.812c0.171-0.026,0.382-0.048,0.622-0.048
	c0.711,0,1.672,0.189,2.564,0.981c1.392,1.238,1.682,3.263,0.705,4.925c-10.629,18.081-16.588,40.692-21.864,60.709l-0.887,3.339
	c-0.902,3.399-1.79,6.741-2.695,9.994c-0.417,1.497-1.507,2.171-2.119,2.439c-0.106,0.047-0.237,0.094-0.377,0.139l-4.797-4.797
	c0.586-2.163,1.172-4.373,1.768-6.62C399.491,84.247,400.049,82.145,400.634,79.979z M350.298,86.513
	c10.192-7.612,22.894-11.47,35.802-11.063c-0.03,0.116-0.062,0.233-0.092,0.348l-0.068,0.262c-0.579,2.142-1.143,4.266-1.698,6.36
	c-0.047,0.174-0.092,0.346-0.138,0.52c-8.878,0.034-17.596,2.431-25.099,6.985c-17.348,10.541-26.414,29.442-23.661,49.325
	c0.034,0.249,0.053,0.494,0.053,0.725c0,2.03-1.331,4.188-3.801,4.188c-1.963,0-3.643-1.379-3.909-3.216
	C324.634,120.059,333.298,99.201,350.298,86.513z M333.447,231.687c-12.865,0-24.961-5.01-34.058-14.106
	c-9.097-9.096-14.104-21.19-14.102-34.053c0.002-12.863,5.013-24.958,14.11-34.056c3.781-3.781,8.142-6.884,12.883-9.207
	c0.101,0.957,0.216,1.914,0.356,2.872c1.34,9.256,9.491,16.236,18.959,16.236c10.66,0,19.01-8.52,19.01-19.397
	c0-0.492-0.021-0.99-0.058-1.487c6.317,2.39,12.072,6.104,16.951,10.984c4.883,4.884,8.598,10.64,10.989,16.954
	c-5.252-0.433-10.447,1.209-14.403,4.645c-4.129,3.586-6.497,8.786-6.497,14.281c0,9.499,7.069,17.674,16.445,19.017
	c0.895,0.128,1.791,0.238,2.684,0.334c-2.325,4.738-5.428,9.098-9.209,12.88C358.408,226.677,346.312,231.687,333.447,231.687z
	 M376.183,189.312c-1.931-0.277-3.389-1.98-3.389-3.974c0-1.396,0.686-2.284,1.261-2.785c0.917-0.796,2.175-1.15,3.433-0.97
	c15.585,2.241,30.862-2.816,41.92-13.873c11.429-11.429,16.461-27.716,13.747-43.496c1.154-1.263,2.147-2.696,2.938-4.276
	c0.904-1.815,1.824-3.64,2.671-5.249c6.725,20.215,1.731,42.834-13.911,58.476C411.998,186.006,394.26,191.892,376.183,189.312z
	 M489.927,38.968c-5.734,3.351-11.553,7.217-17.3,11.492c-19.627,14.624-30.734,29.928-39.6,44.122l-0.001,0.001
	c-1.9,3.042-3.699,6.035-5.455,8.956l-0.215,0.358c-1.376,2.322-2.944,5.38-4.872,9.248c-0.848,1.695-2.403,1.912-3.032,1.927
	c-0.046,0.001-0.1-0.002-0.15-0.003l-3.384-3.384c-0.011-0.482,0.069-0.965,0.262-1.419c0.453-1.056,0.93-2.192,1.407-3.328
	c1.007-2.398,2.528-6.023,3.102-6.987c9.825-16.41,22.052-36.833,47.338-55.671c5.962-4.443,12.034-8.467,18.049-11.962
	c0.68-0.395,1.34-0.517,1.897-0.517c0.462,0,0.853,0.084,1.121,0.166c0.599,0.18,1.701,0.68,2.345,1.99
	C492.326,35.755,491.661,37.956,489.927,38.968z"/>
<path d="M466.667,205.831L466.667,205.831c-2.97,2.97-2.969,7.785,0,10.753l2.998,2.998c7.897,7.898,7.897,20.748,0,28.646
	L227.019,490.875c-7.897,7.896-20.754,7.895-28.657,0L26.094,318.606c-7.898-7.905-7.899-20.762-0.002-28.659l16.341-16.341
	c2.97-2.97,2.97-7.785,0-10.753l0,0c-2.97-2.97-7.785-2.97-10.753,0l-16.341,16.341c-13.825,13.824-13.826,36.327,0,50.165
	l172.273,172.274c6.918,6.911,16,10.367,25.084,10.366s18.166-3.456,25.078-10.369l242.648-242.647
	c13.827-13.828,13.827-36.326-0.001-50.155l-2.998-2.998C474.452,202.861,469.637,202.861,466.667,205.831z"/>
<g>
</g>
<g>
</g>
<g>
</g>
<g>
</g>
<g>
</g>
<g>
</g>
<g>
</g>
<g>
</g>
<g>
</g>
<g>
</g>
<g>
</g>
<g>
</g>
<g>
</g>
<g>
</g>
<g>
</g>
</svg>
