<?xml version="1.0" encoding="iso-8859-1"?>
<!-- Generator: Adobe Illustrator 19.0.0, SVG Export Plug-In . SVG Version: 6.00 Build 0)  -->
<svg version="1.1" id="Capa_1" xmlns="http://www.w3.org/2000/svg" xmlns:xlink="http://www.w3.org/1999/xlink" x="0px" y="0px"
	 viewBox="0 0 511.998 511.998" style="enable-background:new 0 0 511.998 511.998;" xml:space="preserve">
<path style="fill:#0089D0;" d="M322.981,76.807c-4.141-3.606-9.55-5.543-15.092-5.61l-103.715,0.067
	c-5.543-0.067-10.886,1.936-15.092,5.61l-53.694,46.48c-5.142,4.341-8.08,10.752-8.08,17.43l0.067,341.863
	c0,12.689,10.352,23.04,23.04,23.04l211.236-0.067c12.755,0.067,23.107-10.285,23.04-23.04V140.786
	c0-6.678-2.871-13.023-7.948-17.43L322.981,76.807z M285.583,130.235c0,16.295-13.223,29.519-29.519,29.519
	c-16.295,0-29.519-13.223-29.519-29.519c0-16.295,13.223-29.519,29.519-29.519S285.583,113.939,285.583,130.235z"/>
<path d="M376.419,481.448c0.021,4.092-1.559,7.937-4.45,10.828c-2.893,2.892-6.736,4.455-10.87,4.45l-210.139,0.066
	c-8.445,0-15.316-6.871-15.316-15.319l-0.009-30.264c-0.001-4.199-3.407-7.603-7.606-7.602l0,0
	c-4.199,0.001-7.603,3.407-7.602,7.606l0.009,30.261c0,16.832,13.693,30.524,30.526,30.524l210.1-0.066
	c8.169,0.005,15.875-3.12,21.66-8.904c5.784-5.785,8.946-13.477,8.904-21.622V225.293c0-4.199-3.405-7.604-7.604-7.604l0,0
	c-4.199,0-7.604,3.405-7.604,7.604L376.419,481.448L376.419,481.448z"/>
<path d="M381.095,118.294L327.63,72.003c-4.892-4.262-11.144-6.827-17.861-7.348c5.097-12.703,4.482-27.137-2.118-39.586
	C299.379,9.466,282.863,0,265.204,0h-19.058c-17.611,0-33.624,9.694-41.79,25.298c-6.492,12.407-7.064,26.753-1.987,39.379
	c-6.571,0.397-12.884,2.982-17.918,7.377l-53.343,46.178c-6.823,5.761-10.738,14.199-10.738,23.153l0.053,274.448
	c0.001,4.199,3.406,7.603,7.605,7.603l0,0c4.199-0.001,7.603-3.406,7.603-7.605l-0.053-274.446c0-4.463,1.947-8.665,5.412-11.591
	l53.44-46.261c2.787-2.433,6.322-3.753,10.019-3.705l6.959-0.004l17.8,25.676c-7.639,8.07-11.252,18.998-9.788,30.335
	c0.839,6.496,3.45,12.686,7.51,17.827c8.065,10.213,20.402,15.375,33.327,13.964c6.728-0.735,13.165-3.362,18.493-7.534
	c19.396-15.19,19.017-44.628-1.138-59.261c-4.613-3.35-9.992-5.572-15.626-6.446c-7.097-1.101-14.058-0.199-20.295,2.431
	l-11.786-17.002l77.624-0.051c3.826,0.046,7.417,1.364,10.128,3.726l53.474,46.299c3.36,2.919,5.288,7.147,5.288,11.6v48.529
	c0,4.199,3.405,7.604,7.604,7.604l0,0c4.199,0,7.604-3.405,7.604-7.604v-48.533C391.627,132.524,387.791,124.111,381.095,118.294z
	 M271.452,146.273c-4.107,4.108-9.572,6.37-15.387,6.37s-11.28-2.262-15.388-6.37c-4.108-4.108-6.369-9.572-6.369-15.387
	c0-4.507,1.373-8.794,3.896-12.411l11.608,16.744c1.42,2.049,3.756,3.272,6.249,3.272c2.493,0,4.829-1.223,6.248-3.272
	l11.609-16.744C279.816,126.955,279.007,138.719,271.452,146.273z M256.064,109.128c1.832,0,3.622,0.249,5.353,0.685l-5.357,7.727
	l-5.355-7.725C252.439,109.378,254.23,109.128,256.064,109.128z M217.832,32.348c5.616-10.733,16.202-17.14,28.315-17.14h19.838
	c12.11,0,22.692,6.406,28.308,17.134c5.468,10.445,4.868,22.414-1.532,32.218l-73.359,0.048
	C212.969,54.797,212.358,42.808,217.832,32.348z"/>
<path d="M186.341,274.42h139.314c4.2,0,7.604-3.405,7.604-7.604c0-4.199-3.404-7.604-7.604-7.604H186.341
	c-4.2,0-7.604,3.405-7.604,7.604C178.737,271.015,182.141,274.42,186.341,274.42z"/>
<path d="M186.341,322.497h139.314c4.2,0,7.604-3.405,7.604-7.604c0-4.199-3.404-7.604-7.604-7.604H186.341
	c-4.2,0-7.604,3.405-7.604,7.604C178.737,319.093,182.141,322.497,186.341,322.497z"/>
<path d="M186.341,370.574h139.314c4.2,0,7.604-3.405,7.604-7.604s-3.404-7.604-7.604-7.604H186.341c-4.2,0-7.604,3.405-7.604,7.604
	S182.141,370.574,186.341,370.574z"/>
<path d="M186.341,418.652h139.314c4.2,0,7.604-3.405,7.604-7.604c0-4.199-3.404-7.604-7.604-7.604H186.341
	c-4.2,0-7.604,3.405-7.604,7.604C178.737,415.247,182.141,418.652,186.341,418.652z"/>
<g>
</g>
<g>
</g>
<g>
</g>
<g>
</g>
<g>
</g>
<g>
</g>
<g>
</g>
<g>
</g>
<g>
</g>
<g>
</g>
<g>
</g>
<g>
</g>
<g>
</g>
<g>
</g>
<g>
</g>
</svg>
