<?xml version="1.0" encoding="iso-8859-1"?>
<!-- Generator: Adobe Illustrator 19.0.0, SVG Export Plug-In . SVG Version: 6.00 Build 0)  -->
<svg version="1.1" id="Capa_1" xmlns="http://www.w3.org/2000/svg" xmlns:xlink="http://www.w3.org/1999/xlink" x="0px" y="0px"
	 viewBox="0 0 512.001 512.001" style="enable-background:new 0 0 512.001 512.001;" xml:space="preserve">
<path style="fill:#F4D44E;" d="M91.228,301.828c0,14.607,11.841,26.448,26.448,26.448l0,0c14.607,0,26.448-11.841,26.448-26.448
	v10.774c0,14.607,11.841,26.448,26.448,26.448l0,0c14.607,0,26.448-11.841,26.448-26.448v10.774
	c0,14.607,11.841,26.448,26.448,26.448l0,0c14.603,0,26.442-11.836,26.448-26.438v154.635c0,15.253,12.913,27.49,28.403,26.376
	c13.911-1,24.492-12.974,24.492-26.921c0-32.944,0-156.141,0-204.54c30.466,33.763,66.322,50.515,68.712,51.607
	c17.607,8.041,36.396,6.526,45.667-11.15c8.519-16.241,1.192-21.544-17.196-34.812c-0.975-0.704-44.908-29.065-63.915-62.585
	c-9.196-16.217-4.426-23.386-16.437-44.173c-12.028-20.816-27.613-30.045-30.356-32.473V29.833c0-12.334-9.999-22.333-22.333-22.333
	H142.635c-12.427,0-22.5,10.074-22.5,22.5c0,2.417,0,100.506,0,94.954c0,10.459-3.453,20.589-9.669,29.001
	c-11.349,15.358-18.341,34.131-19.154,54.493C91.15,210.595,91.263,204.73,91.228,301.828z"/>
<g>
	<path style="fill:#E8C842;" d="M116.228,301.828c0.035-97.098-0.077-91.233,0.084-93.379c0.814-20.363,7.805-39.135,19.154-54.493
		c6.216-8.411,9.669-18.542,9.669-29.001c0-4.867,0-92.669,0-94.954c0-12.427,10.074-22.5,22.5-22.5h-25
		c-12.427,0-22.5,10.074-22.5,22.5c0,2.285,0,90.087,0,94.954c0,10.459-3.453,20.589-9.669,29.001
		c-11.349,15.358-18.341,34.131-19.154,54.493c-0.161,2.146-0.048-3.718-0.084,93.379c0,20.19,21.604,32.63,38.948,23.31
		C121.873,320.677,116.228,311.912,116.228,301.828z"/>
	<path style="fill:#E8C842;" d="M275.979,477.477c0-1.679,0-198.729,0-191.547c0-7.176-5.817-12.993-12.993-12.993l0,0
		c-7.184,0-13.007,5.824-13.007,13.007v24.558v166.975c0,13.505,9.923,25.152,23.173,26.79c0.083,0.01,0.167,0.019,0.25,0.028
		c0.33,0.038,0.662,0.069,0.997,0.094c0.105,0.008,0.211,0.013,0.317,0.019c0.532,0.034,1.061,0.048,1.587,0.051
		c0.133,0,0.265,0.005,0.398,0.003c0.575-0.006,1.145-0.031,1.711-0.073c0.182-0.014,0.363-0.035,0.544-0.053
		c0.373-0.036,0.744-0.08,1.113-0.131c0.245-0.034,0.491-0.067,0.735-0.109c0.263-0.044,0.521-0.1,0.782-0.151
		c2.799-0.566,5.424-1.582,7.812-2.968C281.32,496.286,275.979,487.383,275.979,477.477z"/>
	<path style="fill:#E8C842;" d="M235.541,346.905c-7.565-4.651-12.622-12.987-12.626-22.519v-38.219
		c0-7.307-5.923-13.23-13.23-13.23c-7.053,0-12.77,5.717-12.77,12.77v29.176c0.064-0.753,0.104-1.512,0.104-2.282v10.774
		C197.02,343.257,218.102,355.873,235.541,346.905z"/>
	<path style="fill:#E8C842;" d="M170.071,315.843v-30.297c0-6.964-5.645-12.609-12.609-12.609l0,0
		c-7.396,0-13.391,5.995-13.391,13.391v17.093c0.031-0.528,0.052-1.058,0.052-1.594v10.774c0,14.607,11.841,26.448,26.448,26.448
		c0.629-0.078,5.889,0.251,12.043-2.903C175.635,331.864,170.795,324.445,170.071,315.843z"/>
</g>
<path d="M266.951,0h-10.979c-4.143,0-7.5,3.357-7.5,7.5s3.357,7.5,7.5,7.5h10.979c8.179,0,14.832,6.654,14.832,14.833v100.766
	c-1.287-0.386-2.614-0.751-3.991-1.084c-4.02-0.975-8.079,1.501-9.053,5.527s1.501,8.079,5.527,9.053
	c12.784,3.092,20.524,9.29,22.479,11.003c6.571,6.143,12.076,12.995,16.4,20.479c11.688,20.228,6.126,25.993,16.406,44.12
	c14.772,26.053,42.17,48.255,66.121,65.02c19.232,13.879,20.062,15.303,14.873,25.195c-9.249,17.629-28.194,11.335-35.911,7.811
	c-1.479-0.676-36.596-16.936-66.259-49.809c-4.59-5.084-13.068-1.832-13.068,5.024v147.795c0,4.143,3.357,7.5,7.5,7.5
	s7.5-3.357,7.5-7.5V291.255c27.424,25.666,54.647,38.536,58.097,40.111c23.438,10.704,45.194,5.016,55.425-14.488
	c10.684-20.369,1.402-30.426-20.087-44.812c-21.228-14.202-48.437-37.361-61.143-59.77c-8.287-14.615-3.912-22.498-16.466-44.225
	c-11.678-20.211-28.69-31.85-29.351-32.447V29.833C296.783,13.383,283.4,0,266.951,0z"/>
<path d="M83.725,301.827c0,29.228,34.538,44.583,56.282,25.547c9.818,20.232,36.089,25.487,52.896,10.774
	c9.124,18.801,32.587,24.809,49.51,13.382v126.491c0,9.393,3.945,18.452,10.823,24.854c21.799,20.285,57.072,4.531,57.072-25.397
	v-21.745c0-4.143-3.357-7.5-7.5-7.5s-7.5,3.357-7.5,7.5v21.745c0,10.193-7.7,18.732-17.53,19.44
	c-11.24,0.803-20.365-8.071-20.365-18.896V323.387c0-4.142-3.357-7.499-7.498-7.5c0,0-0.001,0-0.002,0
	c-4.141,0-7.498,3.356-7.5,7.497c-0.004,10.443-8.504,18.94-18.947,18.94c-10.448,0-18.948-8.5-18.948-18.948v-10.774
	c0-4.143-3.357-7.5-7.5-7.5s-7.5,3.357-7.5,7.5c0,10.448-8.5,18.948-18.948,18.948c-10.447,0-18.947-8.5-18.947-18.948v-10.774
	c0-4.143-3.357-7.5-7.5-7.5s-7.5,3.357-7.5,7.5c0,10.448-8.5,18.948-18.948,18.948s-18.948-8.5-18.948-18.948v-48.399
	c0-4.143-3.357-7.5-7.5-7.5s-7.5,3.357-7.5,7.5v48.398H83.725z"/>
<path d="M91.225,225.928c4.143,0,7.5-3.357,7.5-7.5c0.139-59.993,28.907-55.937,28.907-93.474V30c0-8.271,6.729-15,15-15h78.341
	c4.143,0,7.5-3.357,7.5-7.5s-3.357-7.5-7.5-7.5h-78.341c-16.542,0-30,13.458-30,30v94.954c0,8.797-2.836,17.284-8.2,24.543
	C91.82,166.563,84.694,186.798,83.82,208.02c-0.157,2.187-0.069,2.468-0.095,10.407C83.725,222.57,87.082,225.928,91.225,225.928z"
	/>
<g>
</g>
<g>
</g>
<g>
</g>
<g>
</g>
<g>
</g>
<g>
</g>
<g>
</g>
<g>
</g>
<g>
</g>
<g>
</g>
<g>
</g>
<g>
</g>
<g>
</g>
<g>
</g>
<g>
</g>
</svg>
