<?xml version="1.0" encoding="iso-8859-1"?>
<!-- Generator: Adobe Illustrator 19.0.0, SVG Export Plug-In . SVG Version: 6.00 Build 0)  -->
<svg version="1.1" id="Capa_1" xmlns="http://www.w3.org/2000/svg" xmlns:xlink="http://www.w3.org/1999/xlink" x="0px" y="0px"
	 viewBox="0 0 512 512" style="enable-background:new 0 0 512 512;" xml:space="preserve">
<path style="fill:#F4D44E;" d="M420.766,210.155c0-14.608-11.842-26.449-26.449-26.449l0,0c-14.608,0-26.449,11.842-26.449,26.449
	v-10.775c0-14.608-11.842-26.449-26.449-26.449l0,0c-14.608,0-26.449,11.842-26.449,26.449v-10.775
	c0-14.608-11.842-26.449-26.449-26.449l0,0c-14.604,0-26.443,11.837-26.449,26.439V33.952c0-15.254-12.914-27.492-28.406-26.377
	c-13.912,1-24.493,12.975-24.493,26.922c0,32.946,0,156.15,0,204.551c-30.468-33.765-66.326-50.518-68.716-51.61
	c-17.608-8.041-36.398-6.526-45.67,11.151c-8.519,16.242-1.192,21.545,17.197,34.814c0.975,0.704,44.91,29.067,63.919,62.588
	c9.197,16.218,4.426,23.387,16.438,44.175c12.029,20.817,27.615,30.047,30.358,32.475v109.525c0,12.335,10,22.334,22.334,22.334
	h124.326c12.428,0,22.501-10.075,22.501-22.501c0-2.417,0-100.512,0-94.959c0-10.46,3.453-20.59,9.67-29.003
	c11.35-15.359,18.342-34.133,19.155-54.496C420.843,301.393,420.73,307.259,420.766,210.155z"/>
<g>
	<path style="fill:#E8C842;" d="M248.697,482.165c0-94.249,0-100.315-0.001-100.474c-0.05-8.028-5.865-14.855-13.698-16.619
		c-26.728-6.023-42.661-24.906-42.661-24.906c12.029,20.817,27.615,30.047,30.358,32.475v109.525c0,12.335,10,22.334,22.334,22.334
		h26.001C258.697,504.499,248.697,494.5,248.697,482.165z"/>
	<path style="fill:#E8C842;" d="M209.171,34.496V201.48l0,0v37.568h7.442c10.251,0,18.559-8.309,18.559-18.559v-19.008
		c0-57.353,0-140.76,0-166.984c0-9.938,5.374-18.869,13.495-23.548C231.065,0.943,209.171,13.783,209.171,34.496z"/>
	<path style="fill:#E8C842;" d="M288.07,162.167v0.427h-4.326c-12.324,2.248-21.67,13.03-21.675,26.001v37.681
		c0,7.053,5.717,12.771,12.771,12.771l0,0c7.307,0,13.231-5.923,13.231-13.231v-37.221c0.004-9.877,5.424-18.481,13.449-23.021
		C297.478,163.288,292.912,162.087,288.07,162.167z"/>
	<path style="fill:#E8C842;" d="M407.317,187.124c-2.981-1.686-6.246-2.786-9.771-3.215c-15.391-1.885-28.737,9.676-29.628,24.652
		v17.049c0,7.421,6.016,13.437,13.437,13.437l0,0c6.939,0,12.565-5.625,12.565-12.565v-17.847
		C394.444,199.398,399.704,191.43,407.317,187.124z"/>
	<path style="fill:#E8C842;" d="M315.072,197.099v28.558c0,7.396,5.995,13.392,13.392,13.392l0,0c6.964,0,12.61-5.645,12.61-12.61
		V197.14c0.751-8.929,5.931-16.596,13.345-20.79C338.015,167.07,316.735,177.657,315.072,197.099z"/>
</g>
<path d="M371.984,184.608c-9.825-20.246-36.104-25.476-52.899-10.776c-9.126-18.803-32.59-24.808-49.513-13.382v-65.65
	c0-4.143-3.357-7.5-7.5-7.5c-4.143,0-7.5,3.357-7.5,7.5v93.794c0,4.142,3.357,7.499,7.498,7.5h0.002c4.141,0,7.498-3.355,7.5-7.497
	c0-0.001,0-0.002,0-0.003v-0.028c0.021-10.431,8.514-18.91,18.948-18.91c10.449,0,18.949,8.5,18.949,18.948v10.775
	c0,4.143,3.357,7.5,7.5,7.5c4.143,0,7.5-3.357,7.5-7.5c0-10.448,8.5-18.948,18.949-18.948c10.449,0,18.949,8.5,18.949,18.948v10.776
	c0,4.143,3.357,7.5,7.5,7.5s7.5-3.357,7.5-7.5c0-10.449,8.5-18.949,18.949-18.949c10.448,0,18.948,8.5,18.948,18.949v25.787
	c0,4.143,3.357,7.5,7.5,7.5c4.143,0,7.5-3.357,7.5-7.5v-25.787C428.269,180.927,393.73,165.571,371.984,184.608z"/>
<path d="M369.358,512c16.544,0,30.003-13.459,30.003-30.003v-94.958c0-8.798,2.835-17.286,8.2-24.545
	c13.705-18.545,20.707-41.182,20.707-60.963v-30.585c0-4.143-3.357-7.5-7.5-7.5c-4.143,0-7.5,3.357-7.5,7.5
	c-0.03,15.527,0.064,29.002-0.078,32.295c-0.729,18.256-6.847,35.662-17.692,50.339c-7.286,9.859-11.138,21.429-11.138,33.46v94.958
	c0,8.271-6.729,15.002-15.002,15.002h-77.673c-4.143,0-7.5,3.357-7.5,7.5c0,4.143,3.357,7.5,7.5,7.5H369.358z"/>
<path d="M233.129,0.093c-17.639,1.268-31.456,16.38-31.456,34.403v186.258c-28.22-26.326-56.722-39.51-58.1-40.139
	c-23.437-10.705-45.196-5.018-55.427,14.489c-3.675,7.006-7.138,16.284-1.25,25.917c4.13,6.756,14.752,14.488,21.337,18.897
	c21.229,14.203,48.44,37.362,61.146,59.773c8.339,14.704,3.854,22.396,16.468,44.227c8.66,14.99,17.727,23.211,29.352,32.449
	v105.798c0,16.451,13.384,29.835,29.835,29.835h11.65c4.143,0,7.5-3.357,7.5-7.5c0-4.143-3.357-7.5-7.5-7.5h-11.65
	c-8.179,0-14.834-6.654-14.834-14.834V381.393c3.256,0.977,4.664,1.296,5.76,1.296c8.815,0,10.355-12.714,1.757-14.793
	c-12.756-3.083-20.489-9.261-22.466-10.99c-14.153-13.229-22.401-29.242-24.82-41.966c-1.618-8.519-4.311-16.14-8.002-22.648
	c-14.772-26.052-42.166-48.254-66.125-65.024c-19.232-13.88-20.062-15.304-14.873-25.196c3.081-5.872,12.749-18.39,35.914-7.81
	c1.479,0.675,36.573,16.911,66.261,49.811c4.6,5.094,13.069,1.818,13.069-5.024V34.496c0-10.195,7.7-18.734,17.531-19.441
	c11.289-0.802,20.366,8.114,20.366,18.897v25.847c0,4.143,3.357,7.5,7.5,7.5c4.143,0,7.5-3.357,7.5-7.5V33.952
	C269.572,14.674,253.276-1.37,233.129,0.093z"/>
<g>
</g>
<g>
</g>
<g>
</g>
<g>
</g>
<g>
</g>
<g>
</g>
<g>
</g>
<g>
</g>
<g>
</g>
<g>
</g>
<g>
</g>
<g>
</g>
<g>
</g>
<g>
</g>
<g>
</g>
</svg>
