<?xml version="1.0" encoding="iso-8859-1"?>
<!-- Generator: Adobe Illustrator 19.0.0, SVG Export Plug-In . SVG Version: 6.00 Build 0)  -->
<svg version="1.1" id="Capa_1" xmlns="http://www.w3.org/2000/svg" xmlns:xlink="http://www.w3.org/1999/xlink" x="0px" y="0px"
	 viewBox="0 0 512.001 512.001" style="enable-background:new 0 0 512.001 512.001;" xml:space="preserve">
<path style="fill:#4B606C;" d="M484.483,465.682l-94.015,38.715l-41.85-24.635C228.076,408.86,103.117,283.922,32.213,163.379
	l-24.613-41.85l38.715-94.014L88.34,7.603l84.069,126.092l-29.249,41.153l-19.739,27.747c19.13,33.711,48.77,70.642,82.045,103.916
	c33.275,33.297,70.228,62.938,103.938,82.066l27.747-19.739l41.153-29.249l126.092,84.047L484.483,465.682z"/>
<g>
	<polygon style="fill:#647A84;" points="504.394,423.633 484.485,465.681 337.763,369.684 337.154,368.832 378.3,339.587 	"/>
	<polygon style="fill:#647A84;" points="88.342,7.601 172.408,133.695 143.163,174.841 142.311,174.233 46.314,27.51 	"/>
</g>
<path d="M508.613,417.31L382.52,333.264c-2.623-1.747-6.05-1.697-8.622,0.129l-41.16,29.249l-23.761,16.912
	c-31.051-18.295-65.715-45.977-98.134-78.416c-32.471-32.471-60.146-67.129-78.396-98.115l46.161-64.919
	c1.827-2.57,1.878-6,0.13-8.624L94.66,3.386c-2.093-3.139-6.171-4.267-9.581-2.653L43.061,20.642
	c-1.709,0.81-3.054,2.227-3.775,3.976L0.573,118.638c-0.906,2.2-0.73,4.697,0.476,6.749l24.613,41.847
	c63.549,108.038,170.462,220.269,280.275,294.514c3.512,2.374,8.282,1.448,10.623-2.087l0,0c2.295-3.467,1.388-8.147-2.057-10.476
	C206.44,376.138,101.254,265.752,38.77,159.524l-22.698-38.589l31.783-77.188l7.573,11.573c2.299,3.513,7.011,4.498,10.524,2.199
	l0.001-0.001c3.513-2.299,4.498-7.011,2.199-10.524L57.456,30.647l28.199-13.361l77.527,116.271l-19.995,28.121L87.577,76.676
	c-2.299-3.513-7.011-4.499-10.524-2.2h-0.001c-3.513,2.299-4.499,7.011-2.2,10.524l58.871,89.987l-16.499,23.205
	c-1.713,2.41-1.874,5.59-0.415,8.161c18.831,33.18,48.408,70.66,83.281,105.533c34.818,34.839,72.306,64.425,105.557,83.306
	c2.572,1.46,5.755,1.297,8.162-0.418l23.187-16.502l131.25,85.871l-77.179,31.784l-38.587-22.715
	c-2.957-1.742-5.771-3.425-8.491-5.081c-3.55-2.16-8.177-1.057-10.383,2.465v0.001c-2.251,3.595-1.125,8.331,2.499,10.535
	c2.777,1.69,5.647,3.407,8.661,5.182l41.845,24.633c1.184,0.697,2.517,1.051,3.857,1.051c0.981,0,1.965-0.19,2.894-0.573
	l94.009-38.713c1.75-0.72,3.167-2.066,3.977-3.775l19.919-42.048C512.883,423.481,511.754,419.402,508.613,417.31z M481.343,454.543
	l-131.036-85.732l28.134-19.992l116.272,77.499L481.343,454.543z"/>
<g>
</g>
<g>
</g>
<g>
</g>
<g>
</g>
<g>
</g>
<g>
</g>
<g>
</g>
<g>
</g>
<g>
</g>
<g>
</g>
<g>
</g>
<g>
</g>
<g>
</g>
<g>
</g>
<g>
</g>
</svg>
