<?xml version="1.0" encoding="iso-8859-1"?>
<!-- Generator: Adobe Illustrator 19.0.0, SVG Export Plug-In . SVG Version: 6.00 Build 0)  -->
<svg version="1.1" id="Capa_1" xmlns="http://www.w3.org/2000/svg" xmlns:xlink="http://www.w3.org/1999/xlink" x="0px" y="0px"
	 viewBox="0 0 512 512" style="enable-background:new 0 0 512 512;" xml:space="preserve">
<polygon style="fill:#CED5D8;" points="69.167,193.981 14.972,206.455 11.788,192.626 8.422,177.988 62.606,165.514 65.982,180.151 
	"/>
<rect x="12.668" y="186.206" transform="matrix(-0.9745 0.2243 -0.2243 -0.9745 123.2712 372.6008)" style="fill:#B6BDBF;" width="55.609" height="14.193"/>
<polygon style="fill:#C3C4C6;" points="393.413,504.418 364.603,504.418 354.079,467.844 301.179,283.951 292.121,252.451 
	283.063,283.951 230.163,467.844 219.639,504.418 190.829,504.418 198.33,467.844 239.291,268.15 248.218,224.631 336.024,224.631 
	344.951,268.14 385.912,467.844 "/>
<path style="fill:#A3A6AA;" d="M344.951,268.14c-12.707,8.653-27.638,14.274-43.772,15.811l-9.058-31.5l-9.058,31.5
	c-16.124-1.537-31.065-7.146-43.772-15.8l8.926-43.519h87.807L344.951,268.14z"/>
<g>
	<polygon style="fill:#515F68;" points="198.33,467.844 230.163,467.844 219.639,504.418 190.829,504.418 	"/>
	<polygon style="fill:#515F68;" points="393.413,504.418 364.603,504.418 354.079,467.844 385.912,467.844 	"/>
</g>
<g>
	<path style="fill:#CED5D8;" d="M340.674,203.898c0,1.749-0.091,3.478-0.283,5.186c-2.578,24.372-23.2,43.367-48.271,43.367
		c-17.347,0-32.571-9.098-41.154-22.775c-4.408-7.026-7.066-15.254-7.369-24.08l92.922-21.391
		C339.188,190.22,340.674,196.892,340.674,203.898z"/>
	
		<rect x="421.252" y="12.982" transform="matrix(0.9745 -0.2244 0.2244 0.9745 -8.7995 104.2171)" style="fill:#CED5D8;" width="65.706" height="155.679"/>
</g>
<rect x="433.997" y="125.218" transform="matrix(0.9745 -0.2244 0.2244 0.9745 -20.9058 108.4899)" style="fill:#B6BDBF;" width="65.706" height="42.005"/>
<rect x="202.127" y="58.56" transform="matrix(0.9745 -0.2244 0.2244 0.9745 -19.6484 73.4962)" style="fill:#CED5D8;" width="222.793" height="129.264"/>
<g>
	<path style="fill:#B6BDBF;" d="M340.674,203.898c0,1.749-0.091,3.478-0.283,5.186l-89.424,20.592
		c-4.408-7.026-7.066-15.254-7.369-24.08l92.922-21.391C339.188,190.22,340.674,196.892,340.674,203.898z"/>
	
		<rect x="211.866" y="144.26" transform="matrix(0.9745 -0.2244 0.2244 0.9745 -28.8904 76.7601)" style="fill:#B6BDBF;" width="222.793" height="42.447"/>
</g>
<rect x="64.158" y="122.818" transform="matrix(0.9745 -0.2244 0.2244 0.9745 -33.3846 34.5865)" style="fill:#CED5D8;" width="142.628" height="82.702"/>
<rect x="70.433" y="178.067" transform="matrix(0.9745 -0.2244 0.2244 0.9745 -39.3442 36.6902)" style="fill:#B6BDBF;" width="142.628" height="26.746"/>
<rect x="65.529" y="134.89" transform="matrix(0.9745 -0.2244 0.2244 0.9745 -37.4312 23.1239)" style="fill:#515F68;" width="34.978" height="82.702"/>
<rect x="71.802" y="190.139" transform="matrix(0.9745 -0.2244 0.2244 0.9745 -43.3909 25.227)" style="fill:#262939;" width="34.978" height="26.746"/>
<path d="M510.967,157.59L476.038,5.88c-0.158-0.686-0.392-1.361-0.742-1.973c-1.768-3.099-5.191-4.44-8.348-3.714l-64.03,14.742
	c-4.081,0.939-6.627,5.009-5.687,9.089l1.262,5.479l-12.951,2.984c-4.08,0.94-6.626,5.01-5.685,9.09v0.001
	c0.94,4.08,5.01,6.625,9.09,5.685l12.949-2.983l25.601,111.199l-202.342,46.577l-3.506-15.228c-0.005-0.022-0.007-0.045-0.012-0.068
	l-18.555-80.596c-0.006-0.026-0.016-0.052-0.022-0.078l-3.505-15.222l154.944-35.68c4.08-0.939,6.626-5.009,5.687-9.09l0,0
	c-0.94-4.08-5.009-6.626-9.09-5.687L188.763,77.79c-4.08,0.94-6.626,5.009-5.686,9.089l3.523,15.301L55.168,132.438
	c-1.029,0.237-2.027,0.634-2.88,1.256c-2.566,1.868-3.637,4.978-2.971,7.872l4.204,18.26L6.72,170.6
	c-4.08,0.939-6.626,5.008-5.687,9.088l6.512,28.298c0.228,0.995,0.607,1.961,1.195,2.795c1.501,2.127,3.844,3.255,6.232,3.255
	c0.568,0,1.138-0.064,1.7-0.193l46.804-10.773l4.395,19.091c0.808,3.509,3.928,5.882,7.382,5.882c0.564,0,1.136-0.064,1.707-0.195
	l131.596-30.297l3.522,15.296c0.808,3.509,3.928,5.882,7.382,5.882c0.563,0,1.136-0.064,1.707-0.195l15.89-3.657
	c0.727,3.715,1.816,7.291,3.227,10.693l-26.762,130.474c-0.841,4.102,1.801,8.109,5.904,8.951l0,0
	c4.102,0.841,8.108-1.801,8.951-5.904l23.734-115.709c7.997,8.102,18.452,13.744,30.188,15.788l-57.847,201.091h-16.826
	l13.641-66.503c0.841-4.102-1.801-8.109-5.904-8.951l0,0c-4.102-0.841-8.108,1.801-8.951,5.904l-22.968,111.971
	c-0.311,1.516-0.243,3.109,0.338,4.543c1.198,2.959,4.015,4.772,7.046,4.772h28.811c3.38,0,6.352-2.237,7.287-5.486l65.195-226.637
	l65.196,226.637c0.934,3.249,3.906,5.486,7.287,5.486h28.617c1.409,0,2.821-0.314,4.031-1.036c2.887-1.723,4.224-4.98,3.59-8.069
	l-56.904-277.42c2.779-6.647,4.32-13.935,4.32-21.579c0-4.846-0.613-9.594-1.814-14.198l84.456-19.441l1.226,5.327
	c0.228,0.992,0.606,1.954,1.194,2.784c1.501,2.12,3.843,3.247,6.229,3.247c0.568,0,1.138-0.064,1.701-0.193l64.03-14.742
	C509.359,165.741,511.906,161.67,510.967,157.59z M20.661,197.366l-3.15-13.69l39.412-9.075l3.152,13.692L20.661,197.366z
	 M65.794,145.551l19.31-4.445l15.153,65.819l-19.31,4.445L65.794,145.551z M115.033,203.523L99.88,137.705l90.121-20.748
	l15.154,65.819L115.033,203.523z M213.932,496.836h-13.808l4.391-21.411h15.575L213.932,496.836z M370.31,496.836l-6.159-21.411
	h15.576l4.391,21.411H370.31z M376.617,460.262H359.79l-57.852-201.108c11.7-2.073,22.16-7.772,30.165-15.904L376.617,460.262z
	 M333.093,203.896c0,22.593-18.38,40.972-40.972,40.972c-20.107,0-36.753-14.242-40.28-33.394l79.817-18.373
	C332.608,196.594,333.093,200.205,333.093,203.896z M445.235,164.943L413.71,28.01l49.253-11.34l31.526,136.934L445.235,164.943z"/>
<path d="M137.16,150.987c-1.239-6.612-10.289-8.175-13.836-2.572c-3.731,5.895,2.19,13.446,8.787,11.247
	C135.678,158.473,137.932,154.697,137.16,150.987z"/>
<g>
</g>
<g>
</g>
<g>
</g>
<g>
</g>
<g>
</g>
<g>
</g>
<g>
</g>
<g>
</g>
<g>
</g>
<g>
</g>
<g>
</g>
<g>
</g>
<g>
</g>
<g>
</g>
<g>
</g>
</svg>
