<?xml version="1.0" encoding="iso-8859-1"?>
<!-- Generator: Adobe Illustrator 19.0.0, SVG Export Plug-In . SVG Version: 6.00 Build 0)  -->
<svg version="1.1" id="Capa_1" xmlns="http://www.w3.org/2000/svg" xmlns:xlink="http://www.w3.org/1999/xlink" x="0px" y="0px"
	 viewBox="0 0 511.999 511.999" style="enable-background:new 0 0 511.999 511.999;" xml:space="preserve">
<path style="fill:#AA5D29;" d="M475.687,404.826H36.307c-9.711,0-17.583-7.873-17.583-17.583v-269.9
	c0-9.711,7.873-17.583,17.583-17.583h439.38c9.711,0,17.583,7.873,17.583,17.583v269.9
	C493.271,396.954,485.399,404.826,475.687,404.826z"/>
<path style="fill:#3DA1B8;" d="M331.739,133.705H104.223c-30.836,0-55.832,24.997-55.832,55.832v125.609
	c0,30.836,24.997,55.832,55.832,55.832h227.516c30.836,0,55.832-24.997,55.832-55.832V189.537
	C387.572,158.702,362.575,133.705,331.739,133.705z"/>
<path style="fill:#5CC5D6;" d="M314.484,133.705L48.398,315.218v-125.67c0-30.846,24.999-55.844,55.844-55.844h210.241V133.705z"/>
<path style="fill:#75D4FE;" d="M370.581,189.548v125.586c0,21.439-17.371,38.896-38.812,38.896H104.243
	c-21.44,0-38.896-17.457-38.896-38.896V189.548c0-21.44,17.457-38.896,38.896-38.896h227.528
	C353.21,150.653,370.581,168.109,370.581,189.548z"/>
<path style="fill:#AEE8FC;" d="M289.654,150.653L65.346,303.694V189.548c0-21.44,17.457-38.896,38.896-38.896H289.654z"/>
<polygon style="fill:#575C62;" points="119.485,504.396 134.315,404.826 206.344,404.826 156.559,504.396 "/>
<g>
	<polygon style="fill:#2A292F;" points="171.388,404.826 140.671,504.396 156.559,504.396 206.344,404.826 	"/>
	<polygon style="fill:#2A292F;" points="392.51,504.396 377.68,404.826 305.651,404.826 355.435,504.396 	"/>
</g>
<polygon style="fill:#575C62;" points="340.607,404.826 371.325,504.396 355.435,504.396 305.651,404.826 "/>
<circle style="fill:#E8E8EA;" cx="441.026" cy="199.497" r="31.43"/>
<path d="M475.688,92.156H289.599l62.426-79.869c2.586-3.309,2-8.088-1.309-10.674c-3.309-2.586-8.089-1.999-10.674,1.309
	l-69.746,89.234h-26.48L174.07,2.922c-2.585-3.309-7.365-3.895-10.674-1.309c-3.309,2.586-3.894,7.365-1.309,10.674l62.426,79.869
	h-91.696c-4.199,0-7.604,3.405-7.604,7.604l0,0c0,4.199,3.405,7.604,7.604,7.604h342.869c5.511,0,9.979,4.468,9.979,9.979v269.898
	c0,5.511-4.468,9.979-9.979,9.979H36.308c-5.511,0-9.979-4.468-9.979-9.979V117.343c0-5.511,4.468-9.979,9.979-9.979h61.025
	c4.199,0,7.604-3.405,7.604-7.604l0,0c0-4.199-3.405-7.604-7.604-7.604H36.309c-13.911,0-25.187,11.277-25.187,25.187v269.898
	c0,13.911,11.277,25.187,25.187,25.187h89.187l-13.53,90.846c-0.454,3.045,0.969,6.154,3.815,7.766
	c1.184,0.671,2.549,0.958,3.91,0.958h36.87c2.88,0,5.513-1.627,6.801-4.203l47.683-95.367h89.908l47.683,95.367
	c1.288,2.576,3.921,4.203,6.801,4.203h36.87c1.361,0,2.726-0.287,3.91-0.958c2.845-1.612,4.269-4.722,3.815-7.766l-13.53-90.846
	h89.187c13.911,0,25.187-11.277,25.187-25.187V117.343C500.875,103.433,489.598,92.156,475.688,92.156z M151.859,496.792h-23.554
	l12.565-84.362h53.17L151.859,496.792z M383.69,496.792h-23.554l-42.181-84.362h53.171L383.69,496.792z"/>
<path d="M331.77,363.375h-45.86c-4.199,0-7.604,3.405-7.604,7.604l0,0c0,4.199,3.405,7.604,7.604,7.604h45.86
	c34.994,0,63.364-28.369,63.364-63.364v-125.67c0-34.985-28.425-63.448-63.364-63.448H104.243
	c-35.042,0-63.448,28.406-63.448,63.448v125.669c0,34.939,28.463,63.364,63.448,63.364h146.181c4.199,0,7.604-3.405,7.604-7.604l0,0
	c0-4.199-3.405-7.604-7.604-7.604H104.243c-26.6,0-48.24-21.602-48.24-48.156V189.548c0-26.642,21.598-48.24,48.24-48.24h227.528
	c26.553,0,48.156,21.641,48.156,48.24v125.67C379.926,341.814,358.365,363.375,331.77,363.375z"/>
<path d="M460.8,298.856h-39.541c-4.199,0-7.604,3.405-7.604,7.604s3.405,7.604,7.604,7.604H460.8c4.199,0,7.604-3.405,7.604-7.604
	S464.999,298.856,460.8,298.856z"/>
<path d="M460.8,266.919h-39.541c-4.199,0-7.604,3.405-7.604,7.604s3.405,7.604,7.604,7.604H460.8c4.199,0,7.604-3.405,7.604-7.604
	S464.999,266.919,460.8,266.919z"/>
<path d="M460.8,330.792h-39.541c-4.199,0-7.604,3.405-7.604,7.604S417.06,346,421.259,346H460.8c4.199,0,7.604-3.405,7.604-7.604
	S464.999,330.792,460.8,330.792z"/>
<path d="M480.064,199.496c0-10.427-4.061-20.229-11.433-27.6c-7.372-7.373-17.174-11.433-27.6-11.433
	c-10.427,0-20.229,4.061-27.601,11.433c-7.373,7.372-11.432,17.174-11.432,27.6c0,10.427,4.059,20.229,11.432,27.601
	c7.372,7.373,17.174,11.432,27.601,11.432c10.427,0,20.229-4.059,27.6-11.432C476.004,219.725,480.064,209.924,480.064,199.496z
	 M457.877,216.345c-4.499,4.5-10.483,6.978-16.847,6.978c-6.364,0-12.348-2.478-16.847-6.978c-4.5-4.501-6.978-10.483-6.978-16.847
	c0-6.364,2.478-12.347,6.978-16.847s10.483-6.978,16.847-6.978c3.738,0,7.341,0.862,10.593,2.479l-6.651,6.651
	c-2.97,2.97-2.97,7.783,0,10.753c1.484,1.485,3.431,2.227,5.376,2.227c1.946,0,3.892-0.742,5.376-2.227l6.651-6.651
	c1.618,3.252,2.479,6.856,2.479,10.594C464.856,205.861,462.377,211.844,457.877,216.345z"/>
<g>
</g>
<g>
</g>
<g>
</g>
<g>
</g>
<g>
</g>
<g>
</g>
<g>
</g>
<g>
</g>
<g>
</g>
<g>
</g>
<g>
</g>
<g>
</g>
<g>
</g>
<g>
</g>
<g>
</g>
</svg>
