<?xml version="1.0" encoding="iso-8859-1"?>
<!-- Generator: Adobe Illustrator 19.0.0, SVG Export Plug-In . SVG Version: 6.00 Build 0)  -->
<svg version="1.1" id="Capa_1" xmlns="http://www.w3.org/2000/svg" xmlns:xlink="http://www.w3.org/1999/xlink" x="0px" y="0px"
	 viewBox="0 0 512.002 512.002" style="enable-background:new 0 0 512.002 512.002;" xml:space="preserve">
<path style="fill:#ED694A;" d="M454.14,257.61L454.14,257.61c-13.676-16.82-33.366-11.433-33.467-11.439
	c-43.159,9.332-66.302,1.148-78.484-8.447l0,0c-7.387-7.344-12.3-16.599-14.381-26.518h-2.772v-32.788
	c-64.276,1.965-116.154-66.701-141.663-64.876c-7.581,0.542-14.926-3.387-17.881-10.389c-5.077-12.03,3.089-24.203,14.857-25.16
	c48.339-3.934,95.385,71.988,149.323,64.3c2.061-0.301,4.083-0.213,6.017,0.173c3.317-29.541,3.487-68.478-4.578-97.32
	c-4.637-12.773-16.399-15.182-22.923-15.487c-1.838,0.056-2.86,0.072-4.529,0.105l-0.002-0.004
	c-44.236,0.613-91.254-9.301-115.588-16.99C119.637-8.852,51.654,40.146,48.758,112.805
	c-5.48,137.471,15.402,329.484,174.259,383.439c18.905,6.421,40.754,9.395,62.454,7.631c3.735-0.332,30.846-3.748,36.717-33.386
	c3.687-22.64-5.158-37.54-7.158-88.748c0,0-3.67-56.554,26.26-55.62l74.178,2.314c18.06,0,32.395-6.303,41.612-20.268
	C467.345,292.608,465.899,272.073,454.14,257.61z"/>
<path style="fill:#D8553A;" d="M274.466,496.243c-158.858-53.955-179.738-245.968-174.26-383.439
	c2.046-51.338,36.589-90.858,80.822-102.007C115.049-5.455,51.554,42.639,48.758,112.805
	c-5.48,137.471,15.402,329.484,174.259,383.439c18.905,6.421,40.755,9.395,62.454,7.631c1.243-0.111,5.076-0.57,9.848-2.213
	C288.097,500.313,281.097,498.495,274.466,496.243z"/>
<path style="fill:#656566;" d="M195.678,303.656c-45.1-11.761-109.672-37.194-145.198-90.252
	c3.974,48.728,13.253,98.524,31.496,143.095c25.503-11.716,64.724-26.863,113.125-36.274
	C203.994,318.497,204.444,305.943,195.678,303.656z"/>
<path style="fill:#4F4F51;" d="M126.68,338.616c-7.932-22.803-13.771-46.689-17.956-70.895
	c-22.219-13.722-42.931-31.449-58.243-54.317c0.001,0.007,0.001,0.015,0.002,0.022c0.736,9.029,1.657,18.094,2.782,27.156
	c0.025,0.206,0.052,0.412,0.077,0.617c1.124,8.985,2.45,17.967,4.001,26.904c0.038,0.218,0.077,0.437,0.116,0.655
	c0.474,2.709,0.97,5.413,1.485,8.112c0.063,0.33,0.125,0.66,0.189,0.989c1.689,8.748,3.606,17.44,5.768,26.04
	c0.108,0.427,0.216,0.854,0.326,1.281c0.641,2.517,1.303,5.027,1.987,7.527c0.09,0.33,0.178,0.66,0.268,0.989
	c1.567,5.675,3.248,11.304,5.048,16.874c0.114,0.351,0.231,0.701,0.346,1.052c0.777,2.382,1.577,4.752,2.398,7.111
	c0.173,0.497,0.346,0.994,0.521,1.49c0.88,2.495,1.784,4.978,2.716,7.445c0.067,0.179,0.132,0.359,0.2,0.539
	c1.056,2.781,2.142,5.543,3.265,8.286c0,0,0.001,0.003,0.002,0.005C93.991,350.98,109.052,344.7,126.68,338.616z"/>
<path style="fill:#EAE9E8;" d="M329.735,178.16c-25.43,2.147-49.004-7.093-69.886-19.208c-31.849,14.275-27.65,57.925,8.031,73.517
	c23.568,10.298,49.808,2.322,58.609-17.817c0.496-1.136,0.926-2.288,1.32-3.447C324.837,197.037,328.539,187.898,329.735,178.16z"/>
<path style="fill:#DBDBDB;" d="M293.301,232.469c-30.719-13.423-38.078-47.628-19.214-65.996c-4.871-2.306-9.62-4.843-14.237-7.521
	c-31.849,14.275-27.65,57.925,8.031,73.517c11.351,4.96,23.316,5.669,33.66,2.835C298.778,234.593,296.022,233.658,293.301,232.469z
	"/>
<path style="fill:#656566;" d="M183.242,113.551c-9.82,0.799-18.428-6.513-19.227-16.333c-0.799-9.82,6.513-18.428,16.333-19.227
	c48.339-3.934,95.385,71.988,149.323,64.301c9.744-1.422,18.787,5.39,20.176,15.144c1.39,9.754-5.391,18.787-15.144,20.176
	C265.863,187.426,209.967,111.376,183.242,113.551z"/>
<path style="fill:#4F4F51;" d="M342.408,162.381c-68.841,9.815-124.737-66.236-151.461-64.06
	c-9.82,0.799-18.428-6.513-19.227-16.333c-0.024-0.304-0.018-0.602-0.027-0.904c-5.082,3.504-8.213,9.539-7.677,16.133
	c0.799,9.82,9.408,17.132,19.227,16.333c26.726-2.175,82.62,73.875,151.461,64.06c9.096-1.296,15.6-9.241,15.309-18.218
	C347.809,160.915,345.239,161.978,342.408,162.381z"/>
<circle cx="297.198" cy="202.277" r="10.224"/>
<path d="M345.435,101.749c-0.025-4.19-3.43-7.569-7.614-7.569c-4.221,0-7.641,3.434-7.616,7.66
	c0.077,12.845-0.609,24.232-1.389,32.882c-26.384,3.566-51.635-15.159-74.846-31.777c-20.75-14.855-53.148-38.594-78.774-31.752
	c-23.494,6.298-25.504,39.333-2.923,48.188c6.028,2.436,10.27,1.662,12.47,1.746c11.345,0.418,35.831,22.094,61.866,38.666
	c-35.346,27.76-7.826,84.764,40.998,84.764c15.13,0,29.173-6.12,37.938-17.015c3.843,7.618,9.559,14.298,11.932,16.16
	c30.807,24.266,83.991,9.794,85.366,9.787c26-5.601,42.704,28.019,27.88,50.48c-7.464,11.31-18.959,16.82-35.139,16.848
	l-74.056-2.31c-26.167-0.863-34.051,29.365-34.28,55.819c-41.387,2.069-68.452,19.957-69.65,20.763
	c-3.483,2.345-4.404,7.061-2.068,10.551c2.344,3.501,7.072,4.415,10.557,2.095c0.259-0.173,24.814-16.254,61.719-18.187
	c3.073,49.927,10.017,60.073,6.889,79.587c-4.776,23.745-25.736,26.784-29.839,27.148c-30.61,2.491-58.624-4.643-86.684-18.567
	c-3.768-1.871-8.337-0.33-10.206,3.436c-1.87,3.767-0.331,8.337,3.436,10.206c30.313,15.045,61.022,22.842,94.742,20.101
	c20.832-1.845,39.891-17.205,43.56-39.746c3.773-23.168-3.224-27.879-7.076-90.465c-0.539-8.309,0.037-34.211,9.433-43.93
	c2.477-2.561,5.351-3.68,8.99-3.588c74.627,2.327,74.209,2.318,74.416,2.318c51.702,0,70.487-51.38,44.581-83.243
	c-16.86-20.737-40.883-14.073-40.984-14.079c-40.593,8.777-61.434,1.27-71.818-6.717c-20.021-20.296-10.758-44.641-10.975-46.942
	c24.188-3.926,29.248-36.485,7.599-47.74C344.731,128.148,345.518,115.782,345.435,101.749z M319.301,205.595
	c-4.084,21.628-28.694,28.948-49.144,20.014c-27.77-12.136-32.963-45.173-8.913-57.137c18.304,9.957,38.392,17.231,59.4,17.597
	C320.642,186.07,318.38,195.002,319.301,205.595z M333.629,170.073c-62.445,8.894-114.298-59.31-145.742-63.918
	c-4.964-0.72-6.755,0.474-10.127-0.985c-3.682-1.45-6.705-5.686-6.111-10.661c0.585-4.716,4.459-8.536,9.317-8.928
	c40.293-3.316,82.563,58.254,132.838,64.384c11.415,1.389,16.831-0.673,20.556-0.01
	C345.426,152.348,344.896,168.468,333.629,170.073z"/>
<path d="M338.267,42.545c-4.483-12.351-15.317-19.822-29.725-20.497c-0.105-0.005-58.126,2.43-118.181-16.543
	C117.132-17.63,44.245,34.842,41.149,112.502c-5.157,129.431,13.907,283.965,118.728,359.821c1.348,0.977,2.91,1.447,4.458,1.447
	c7.366-0.003,10.439-9.466,4.469-13.785c-32.507-23.523-58.236-56.907-76.885-99.603c24.405-10.728,60.674-24.133,104.636-32.68
	c16.845-3.277,17.649-27.083,1.044-31.412c-14.597-3.807-28.726-8.419-41.995-13.706c-3.904-1.555-8.336,0.347-9.892,4.254
	c-1.557,3.907,0.348,8.336,4.254,9.892c13.853,5.521,28.585,10.331,43.79,14.295c0.342,0.09,0.666,0.175,0.645,0.853
	c-0.022,0.733-0.427,0.811-0.752,0.874c-45.086,8.767-82.342,22.498-107.504,33.532c-13.142-34.307-21.034-71.594-25.463-107.775
	c15.015,16.216,33.808,30.526,56.138,42.719c3.693,2.015,8.317,0.657,10.334-3.034c2.014-3.692,0.656-8.317-3.034-10.334
	c-28.621-15.627-50.874-34.842-66.212-57.113c-2.395-30.479-2.918-63.085-1.541-97.639c2.682-67.298,65.378-113.314,129.406-93.08
	c31.36,9.907,81.203,18.444,122.334,17.249c8.054,0.448,13.351,3.882,15.753,10.214c1.789,6.464,3.061,13.088,4.01,19.831
	c0.586,4.166,4.449,7.067,8.603,6.479c4.165-0.586,7.064-4.438,6.479-8.603C341.605,55.641,339.233,45.208,338.267,42.545z"/>
<g>
</g>
<g>
</g>
<g>
</g>
<g>
</g>
<g>
</g>
<g>
</g>
<g>
</g>
<g>
</g>
<g>
</g>
<g>
</g>
<g>
</g>
<g>
</g>
<g>
</g>
<g>
</g>
<g>
</g>
</svg>
