<?xml version="1.0" encoding="iso-8859-1"?>
<!-- Generator: Adobe Illustrator 19.0.0, SVG Export Plug-In . SVG Version: 6.00 Build 0)  -->
<svg version="1.1" id="Capa_1" xmlns="http://www.w3.org/2000/svg" xmlns:xlink="http://www.w3.org/1999/xlink" x="0px" y="0px"
	 viewBox="0 0 512.002 512.002" style="enable-background:new 0 0 512.002 512.002;" xml:space="preserve">
<path style="fill:#EAE9E8;" d="M504.5,234.761c0-34.915-25.356-63.898-58.657-69.564c-3.065-0.522-5.477-2.903-6.046-5.96
	c-7.19-38.617-44.802-64.07-83.507-56.147c-2.885,0.59-5.862-0.573-7.544-2.99c-32.676-46.957-102.121-47.168-134.991-0.137
	c-1.656,2.37-4.571,3.553-7.408,3c-38.877-7.581-75.818,18.229-82.902,56.274c-0.569,3.056-2.981,5.438-6.046,5.96
	c-33.301,5.666-58.657,34.65-58.657,69.565s25.356,63.899,58.657,69.565c3.065,0.522,5.477,2.903,6.046,5.96
	c7.079,38.021,43.998,63.862,82.902,56.274c2.837-0.553,5.752,0.63,7.408,3c14.865,21.268,39.527,35.184,67.445,35.184
	c27.979,0,52.691-13.974,67.546-35.321c1.682-2.417,4.659-3.58,7.544-2.99c38.639,7.908,76.305-17.467,83.507-56.147
	c0.569-3.056,2.981-5.438,6.046-5.96C479.144,298.659,504.5,269.676,504.5,234.761z"/>
<path style="fill:#DBDBDB;" d="M331.202,373.076c-27.918,0-52.58-13.916-67.445-35.184c-1.656-2.37-4.571-3.553-7.408-3
	c-38.903,7.587-75.823-18.253-82.902-56.274c-0.569-3.056-2.981-5.438-6.046-5.959c-33.3-5.667-58.656-34.65-58.656-69.565
	c0-14.633,4.466-28.215,12.092-39.483c-0.973,0.797-2.141,1.367-3.438,1.587c-33.3,5.666-58.656,34.65-58.656,69.565
	c0,34.916,25.356,63.899,58.656,69.565c3.065,0.521,5.478,2.903,6.046,5.959c7.079,38.021,43.999,63.862,82.902,56.274
	c2.837-0.554,5.752,0.63,7.408,3c14.865,21.269,39.527,35.184,67.445,35.184c27.059,0,51.062-13.071,66.048-33.241
	C342.057,372.53,336.693,373.076,331.202,373.076z"/>
<circle style="fill:#EAE9E8;" cx="113.427" cy="410.205" r="36.981"/>
<g>
	<path style="fill:#DBDBDB;" d="M113.43,410.205c-6.843-11.853-6.37-25.913,0.003-36.976c-6.286-0.006-12.658,1.581-18.493,4.95
		c-17.688,10.212-23.748,32.829-13.536,50.517c10.213,17.688,32.829,23.747,50.517,13.536c5.835-3.369,10.396-8.093,13.533-13.541
		C132.686,428.677,120.273,422.057,113.43,410.205z"/>
	<circle style="fill:#DBDBDB;" cx="25.991" cy="411.525" r="18.49"/>
</g>
<path d="M25.991,385.531C11.66,385.531,0,397.19,0,411.521c0,14.331,11.66,25.991,25.991,25.991s25.991-11.66,25.991-25.991
	C51.981,397.19,40.322,385.531,25.991,385.531z M25.991,422.511c-6.06,0-10.99-4.93-10.99-10.99s4.93-10.99,10.99-10.99
	s10.99,4.93,10.99,10.99S32.051,422.511,25.991,422.511z"/>
<path d="M447.17,157.862c-2.997-16.097-10.877-30.63-22.784-42.03c-2.993-2.864-7.74-2.762-10.605,0.231
	c-2.864,2.992-2.761,7.74,0.231,10.605c9.626,9.215,15.992,20.95,18.411,33.94c1.141,6.123,6.027,10.939,12.162,11.981
	c30.371,5.169,52.414,31.315,52.414,62.171s-22.043,57.002-52.413,62.172c-6.135,1.043-11.023,5.857-12.163,11.98
	c-6.453,34.656-40.161,57.227-74.631,50.173c-5.847-1.198-11.814,1.183-15.204,6.054c-16.704,24.005-45.961,36.22-75.044,30.857
	c-4.071-0.757-7.985,1.939-8.737,6.014c-0.752,4.073,1.94,7.985,6.014,8.737c5.381,0.993,10.892,1.497,16.377,1.497
	c29.325,0,56.846-14.372,73.643-38.451c42.455,8.655,84.316-19.058,92.261-62.073c37.604-6.399,64.898-38.766,64.898-76.96
	C512,196.567,484.706,164.201,447.17,157.862z"/>
<path d="M237.781,383.329c-6.973-4.989-12.989-11.067-17.88-18.065c-3.359-4.807-9.244-7.191-14.992-6.064
	c-3.971,0.774-8.04,1.167-12.092,1.167c-30.374,0-56.449-21.639-62.001-51.453c-1.14-6.122-6.027-10.937-12.162-11.98
	c-30.371-5.169-52.414-31.315-52.414-62.172s22.043-57.002,52.414-62.171c6.134-1.044,11.022-5.858,12.163-11.981
	c6.423-34.494,39.813-56.977,74.091-50.285c5.744,1.123,11.634-1.259,14.993-6.064c13.996-20.025,36.911-31.981,61.297-31.981
	c24.451,0,47.401,12.002,61.392,32.107c3.393,4.872,9.362,7.247,15.204,6.051c9.544-1.953,19.517-1.65,28.888,0.845
	c4.003,1.067,8.112-1.316,9.178-5.318c1.066-4.003-1.314-8.111-5.317-9.179c-11.586-3.083-23.91-3.459-35.699-1.056
	c-35.641-51.097-111.34-51.292-147.175-0.151c-42.507-8.226-83.683,19.736-91.529,62.225c-37.605,6.398-64.899,38.764-64.899,76.959
	c0,38.193,27.294,70.56,64.83,76.899c7.894,42.399,48.919,70.536,91.598,62.286c5.858,8.36,13.053,15.622,21.385,21.584
	c1.322,0.946,2.847,1.401,4.358,1.401C240.665,396.927,243.716,387.575,237.781,383.329z"/>
<path d="M148.595,396.512c-4.083,0.701-6.823,4.579-6.122,8.663c3.125,18.185-10.935,34.511-29.044,34.511
	c-16.255,0-29.481-13.225-29.481-29.481c0-21.187,21.817-35.481,41.219-27.046c3.798,1.653,8.217-0.09,9.87-3.888
	c1.652-3.798-0.089-8.217-3.887-9.869c-29.329-12.755-62.203,8.877-62.203,40.802c0,24.526,19.954,44.482,44.482,44.482
	c27.355,0,48.532-24.681,43.828-52.053C156.556,398.552,152.682,395.81,148.595,396.512z"/>
<g>
</g>
<g>
</g>
<g>
</g>
<g>
</g>
<g>
</g>
<g>
</g>
<g>
</g>
<g>
</g>
<g>
</g>
<g>
</g>
<g>
</g>
<g>
</g>
<g>
</g>
<g>
</g>
<g>
</g>
</svg>
