<?xml version="1.0" encoding="iso-8859-1"?>
<!-- Generator: Adobe Illustrator 19.0.0, SVG Export Plug-In . SVG Version: 6.00 Build 0)  -->
<svg version="1.1" id="Capa_1" xmlns="http://www.w3.org/2000/svg" xmlns:xlink="http://www.w3.org/1999/xlink" x="0px" y="0px"
	 viewBox="0 0 512 512" style="enable-background:new 0 0 512 512;" xml:space="preserve">
<path style="fill:#F80C06;" d="M167.953,276.719V22.494c0-4.119,1.668-7.837,4.365-10.535c2.698-2.688,6.415-4.356,10.525-4.356
	c8.23,0,14.89,6.66,14.89,14.89v233.461"/>
<rect x="88.805" y="40.436" style="fill:#DADCE5;" width="43.159" height="24.114"/>
<path style="fill:#C0C2D0;" d="M94.317,298.842c0,38.823,29.456,65.602,48.201,84.346c18.744,18.745,41.501,41.501,41.501,62.924
	c0,21.423-10.711,33.468-10.711,33.468H388.74c-12.957-3.699-22.296-26.18-22.296-44.239c0-8.062,1.854-15.232,6.091-19.47
	c0.598-0.392,1.196-0.794,1.795-1.207c43.551-29.494,69.967-78.333,69.967-115.823L94.317,298.842L94.317,298.842z"/>
<path style="fill:#DADCE5;" d="M183.617,298.842c0,7.484,0.795,15.007,2.325,22.452c11.299,54.674,62.757,104.955,134.705,104.955
	c0.971,0,1.943-0.009,2.913-0.029c30.771-0.686,59.677-14.585,80.481-37.274c19.029-20.746,32.036-45.052,37.441-67.652
	c1.854-7.759,2.815-15.312,2.815-22.452H183.617z"/>
<path style="fill:#CBCCD3;" d="M183.617,298.842c0,7.484,0.795,15.007,2.325,22.452h255.541c1.854-7.759,2.815-15.312,2.815-22.452
	H183.617z"/>
<path style="fill:#F80C06;" d="M444.297,298.843H200.084v-29.784h244.213c8.224,0,14.893,6.667,14.893,14.893l0,0
	C459.19,292.176,452.522,298.843,444.297,298.843z"/>
<path id="SVGCleanerId_0" style="fill:#D60909;" d="M312.052,283.951c0,4.11-1.668,7.828-4.365,10.525
	c-2.688,2.698-6.415,4.365-10.525,4.365h-97.078v-29.78h97.078C305.383,269.062,312.052,275.722,312.052,283.951z"/>
<g>
	<path id="SVGCleanerId_0_1_" style="fill:#D60909;" d="M312.052,283.951c0,4.11-1.668,7.828-4.365,10.525
		c-2.688,2.698-6.415,4.365-10.525,4.365h-97.078v-29.78h97.078C305.383,269.062,312.052,275.722,312.052,283.951z"/>
</g>
<path style="fill:#BFC3D0;" d="M150.569,64.551H70.198c-9.6,0-17.384,7.783-17.384,17.384v171.838
	c0,24.891,20.179,45.07,45.07,45.07h70.068V81.934C167.953,72.333,160.169,64.551,150.569,64.551z"/>
<circle style="fill:#515F68;" cx="190.079" cy="276.723" r="22.123"/>
<path style="fill:#DADCE5;" d="M404.15,504.396H158.594v-10.788c0-7.748,6.281-14.029,14.029-14.029h217.5
	c7.748,0,14.029,6.281,14.029,14.029v10.788H404.15z"/>
<path style="fill:#BFC3D0;" d="M232.981,479.58h-60.815c-7.495,0-13.573,6.077-13.573,13.573v11.244h60.815v-11.244
	C219.408,485.657,225.485,479.58,232.981,479.58z"/>
<path d="M378.594,420.959c41.041-27.794,70.292-74.557,73.07-115.771c3.177-1.1,6.1-2.893,8.555-5.345
	c4.231-4.246,6.564-9.88,6.571-15.863c0.016-12.391-10.692-22.524-23.084-22.524h-21.9c-4.199,0-7.604,3.405-7.604,7.604l0,0
	c0,4.199,3.405,7.604,7.604,7.604h22.232c3.835,0,7.208,2.854,7.519,6.676c0.209,2.571-0.912,5.015-3.025,6.544
	c-1.274,0.924-2.844,1.352-4.418,1.352H216.001c2.416-4.297,3.8-9.247,3.8-14.517c0-0.018-0.001-0.037-0.001-0.055h166.519
	c4.199,0,7.604-3.405,7.604-7.604l0,0c0-4.199-3.405-7.604-7.604-7.604H215.574c-2.519-4.194-6.044-7.716-10.237-10.237V23.084
	c0-12.399-10.139-23.107-22.537-23.084c-5.978,0.011-11.605,2.344-15.859,6.582c-4.25,4.251-6.591,9.902-6.591,15.911v36.448
	c-3.005-1.284-6.31-1.995-9.78-1.995h-11.002V40.437c0-4.199-3.405-7.604-7.604-7.604h-43.16c-4.199,0-7.604,3.405-7.604,7.604
	v16.51H70.198c-13.801,0-24.988,11.187-24.988,24.988v48.752c0,4.199,3.405,7.604,7.604,7.604l0,0c4.199,0,7.604-3.405,7.604-7.604
	v-17.907h99.93v163.94v14.518H97.885c-20.692,0-37.466-16.774-37.466-37.466v-87.6c0-4.199-3.405-7.604-7.604-7.604l0,0
	c-4.199,0-7.604,3.405-7.604,7.604v87.6c0,25.306,17.94,46.495,41.769,51.532c2.843,36.302,29.068,62.331,46.762,79.879
	c1.165,1.156,2.301,2.282,3.403,3.384c17.496,17.497,39.271,39.272,39.271,57.545c0,13.286-4.614,22.227-7.158,26.153
	c-10.331,1.625-18.267,10.562-18.267,21.344v10.788c0,4.199,3.405,7.604,7.604,7.604h245.556c4.199,0,7.604-3.405,7.604-7.604
	v-10.788c0-11.947-9.685-21.633-21.633-21.633h-0.122c-8.036-3.317-15.951-21.244-15.951-36.635c0-6.114,1.246-11.023,3.439-13.628
	C377.868,421.456,378.241,421.203,378.594,420.959z M175.557,22.494c0-1.948,0.759-3.78,2.127-5.147
	c1.384-1.378,3.216-2.137,5.159-2.137c4.018,0,7.287,3.269,7.287,7.286v224.501c-0.017,0-0.034-0.001-0.053-0.001
	c-5.271,0-10.222,1.385-14.52,3.801V81.933V22.494z M96.408,48.041h27.951v8.906H96.408V48.041z M60.419,97.571V81.933
	c0-5.392,4.387-9.78,9.78-9.78h18.606h43.159h18.606c5.393,0,9.78,4.387,9.78,9.78v15.638H60.419z M190.076,262.201
	c8.005,0,14.518,6.513,14.518,14.519c0,7.999-6.503,14.507-14.499,14.517h-0.024v0.001c-8.003-0.003-14.514-6.515-14.514-14.518
	C175.557,268.714,182.07,262.201,190.076,262.201z M396.546,496.792H166.198v-3.185c0-3.542,2.881-6.425,6.424-6.425h0.685h215.432
	h1.381c3.542,0,6.425,2.882,6.425,6.425v3.185H396.546z M370.01,408.406c-0.546,0.377-1.093,0.743-1.639,1.102
	c-0.438,0.286-0.845,0.616-1.214,0.988c-5.44,5.443-8.317,14.035-8.317,24.846c0,10.138,2.559,21.35,7.022,30.763
	c0.993,2.092,2.06,4.052,3.195,5.872H186.483c2.721-6.409,5.14-15.126,5.14-25.864c0-24.571-24.244-48.816-43.728-68.302
	c-1.113-1.113-2.264-2.255-3.444-3.425c-16.554-16.418-38.736-38.439-42.083-67.939h65.586c2.995,0,5.578-1.737,6.818-4.253
	c4.474,2.698,9.711,4.253,15.305,4.253c0.013,0,0.026-0.001,0.04-0.001h246.187c-1.508,15.558-7.48,32.827-17.218,49.463
	C406.863,376.787,389.912,394.926,370.01,408.406z"/>
<g>
</g>
<g>
</g>
<g>
</g>
<g>
</g>
<g>
</g>
<g>
</g>
<g>
</g>
<g>
</g>
<g>
</g>
<g>
</g>
<g>
</g>
<g>
</g>
<g>
</g>
<g>
</g>
<g>
</g>
</svg>
