<?xml version="1.0" encoding="iso-8859-1"?>
<!-- Generator: Adobe Illustrator 19.0.0, SVG Export Plug-In . SVG Version: 6.00 Build 0)  -->
<svg version="1.1" id="Layer_1" xmlns="http://www.w3.org/2000/svg" xmlns:xlink="http://www.w3.org/1999/xlink" x="0px" y="0px"
	 viewBox="0 0 512.001 512.001" style="enable-background:new 0 0 512.001 512.001;" xml:space="preserve">
<circle style="fill:#F7B239;" cx="256.004" cy="256.004" r="246.855"/>
<path style="fill:#E09B2D;" d="M126.306,385.694c-88.801-88.802-95.798-228.426-20.998-325.241
	c-8.286,6.401-16.258,13.399-23.858,20.999c-96.401,96.401-96.401,252.698,0,349.099s252.698,96.401,349.099,0
	c7.599-7.599,14.597-15.573,20.999-23.858C354.733,481.492,215.108,474.495,126.306,385.694z"/>
<path style="fill:#F95428;" d="M417.596,401.667c-16.835,15.298-42.869,14.042-58.167-2.781l-12.151-13.371l-19.299-21.251
	c24.448-11.187,46.687-28.4,64.34-51.628l18.592,20.458l9.467,10.418C435.664,360.349,434.419,386.383,417.596,401.667z"/>
<path style="fill:#E54728;" d="M410.911,333.095c-13.114,13.798-39.209,39.441-63.632,52.421l-19.299-21.251
	c24.448-11.187,46.687-28.4,64.34-51.628L410.911,333.095z"/>
<path d="M256.001,0C114.841,0,0,114.841,0,256.001s114.841,256.001,256.001,256.001S512.001,397.16,512.001,256.001
	S397.16,0,256.001,0z M256.001,493.701c-131.069,0-237.702-106.631-237.702-237.7S124.932,18.299,256.001,18.299
	s237.702,106.632,237.702,237.702S387.068,493.701,256.001,493.701z"/>
<path d="M105.348,241.167c0-19.848,16.147-35.996,35.996-35.996s35.996,16.147,35.996,35.996c0,5.053,4.095,9.15,9.15,9.15
	s9.15-4.097,9.15-9.15c0-29.939-24.356-54.295-54.295-54.295s-54.295,24.356-54.295,54.295c0,5.053,4.095,9.15,9.15,9.15
	S105.348,246.22,105.348,241.167z"/>
<path d="M325.512,250.317c5.054,0,9.15-4.097,9.15-9.15c0-19.848,16.147-35.996,35.996-35.996s35.996,16.147,35.996,35.996
	c0,5.053,4.095,9.15,9.15,9.15c5.054,0,9.15-4.097,9.15-9.15c0-29.939-24.356-54.295-54.295-54.295
	c-29.939,0-54.295,24.356-54.295,54.295C316.362,246.22,320.459,250.317,325.512,250.317z"/>
<path d="M427.15,337.361l-23.064-25.381c2.457-3.526,4.813-7.132,7.017-10.801c0.947-1.442,1.499-3.168,1.499-5.022
	c0-5.053-4.101-9.15-9.156-9.15c-3.219,0-6.201,1.692-7.854,4.454c-3.222,5.388-6.776,10.652-10.557,15.64
	c-16.231,21.357-36.708,37.791-60.865,48.846c-35.577,16.296-76.023,19.285-113.885,8.409
	c-39.387-11.311-72.823-37.198-94.15-72.891c-2.591-4.338-8.209-5.752-12.547-3.162c-4.338,2.592-5.753,8.209-3.162,12.547
	c23.718,39.696,60.94,68.496,104.807,81.095c16.624,4.775,33.693,7.143,50.708,7.142c23.807-0.001,47.495-4.653,69.665-13.826
	l27.055,29.782c9.921,10.909,23.572,16.451,37.272,16.451c12.08,0,24.196-4.311,33.818-13.053
	C444.276,389.789,445.802,357.903,427.15,337.361z M411.443,394.897c-13.062,11.872-33.36,10.904-45.24-2.162l-23.344-25.697
	c7.322-3.977,14.306-8.429,20.935-13.35l21.617,22.899c1.801,1.907,4.225,2.869,6.655,2.869c2.254,0,4.511-0.827,6.279-2.496
	c3.674-3.47,3.84-9.259,0.373-12.935l-20.789-22.024c5.197-4.777,10.135-9.879,14.795-15.314l20.879,22.975
	C425.475,362.737,424.505,383.028,411.443,394.897z"/>
<g>
</g>
<g>
</g>
<g>
</g>
<g>
</g>
<g>
</g>
<g>
</g>
<g>
</g>
<g>
</g>
<g>
</g>
<g>
</g>
<g>
</g>
<g>
</g>
<g>
</g>
<g>
</g>
<g>
</g>
</svg>
