<?xml version="1.0" encoding="iso-8859-1"?>
<!-- Generator: Adobe Illustrator 19.0.0, SVG Export Plug-In . SVG Version: 6.00 Build 0)  -->
<svg version="1.1" id="Capa_1" xmlns="http://www.w3.org/2000/svg" xmlns:xlink="http://www.w3.org/1999/xlink" x="0px" y="0px"
	 viewBox="0 0 512.001 512.001" style="enable-background:new 0 0 512.001 512.001;" xml:space="preserve">
<path style="fill:#F4D44E;" d="M341.882,22.833c-0.022,0.003-0.045,0.005-0.067,0.008C314.53,12.68,285.071,7.236,254.573,7.469
	C68.755,9.3-46.878,211.867,45.924,372.606c59.344,102.787,184.217,147.944,295.89,106.355c0.022,0.003,0.045,0.005,0.067,0.008
	C549.588,401.152,555.437,102.841,341.882,22.833z"/>
<path style="fill:#E8C842;" d="M390.27,454.416c-2.105-0.105-4.895-0.518-8.599,0.799c-64.87,23.059-139.048,18.638-203.344-18.482
	C24.768,348.075,15.559,131.339,157.092,28.812c-190.394,85.43-191.695,356.444-1.88,443.345
	c57.057,26.311,124.545,29.913,186.602,6.803c0.022,0.003,0.045,0.005,0.067,0.008C359.608,472.327,375.466,464.111,390.27,454.416z
	"/>
<path style="fill:#FC8B75;" d="M268.222,353.26c-18.246,7.399-23.913-7.354-55.249-5.891c-6.857,0.32-13.491,1.507-19.807,3.435
	v87.46c0,36.151,29.306,65.457,65.457,65.457s65.457-29.306,65.457-65.457v-87.033C305.869,345.32,285.981,346.059,268.222,353.26z"
	/>
<path style="fill:#EA7363;" d="M218.159,436.087v-88.794c-8.53-0.13-16.815,1.015-24.993,3.511v87.46
	c0,41.54,38.199,72.579,78.918,64.065C241.304,495.992,218.159,468.743,218.159,436.087z"/>
<path style="fill:#656566;" d="M373.824,300.122H137.807c-10.134,0-16.674,10.747-12.003,19.739
	c14.412,27.735,37.37,51.08,67.361,65.695v-34.753c6.317-1.928,12.951-3.115,19.807-3.435c31.196-1.456,37.064,13.265,55.249,5.891
	c17.743-7.194,37.63-7.945,55.857-2.03v35.211c27.282-12.977,49.84-33.631,65.047-59.508
	C396.097,315.072,387.582,300.122,373.824,300.122z"/>
<path style="fill:#4F4F51;" d="M150.804,319.861c-4.673-8.993,1.868-19.739,12.003-19.739h-24.999
	c-10.134,0-16.674,10.747-12.003,19.739c14.411,27.735,37.37,51.08,67.361,65.695v-15.382
	C175.843,357.033,161.32,340.1,150.804,319.861z"/>
<g>
	<path style="fill:#ED694A;" d="M205.659,348.05c0.374-0.052,0.75-0.096,1.125-0.142
		C206.409,347.954,206.033,347.998,205.659,348.05z"/>
	<path style="fill:#ED694A;" d="M201.433,348.757c0.621-0.12,1.243-0.237,1.868-0.343
		C202.675,348.519,202.053,348.637,201.433,348.757z"/>
	<path style="fill:#ED694A;" d="M198.312,349.42c0.592-0.139,1.186-0.272,1.783-0.398
		C199.498,349.147,198.904,349.282,198.312,349.42z"/>
	<path style="fill:#ED694A;" d="M208.882,347.674c0.333-0.033,0.665-0.066,0.998-0.094
		C209.546,347.608,209.214,347.642,208.882,347.674z"/>
	<path style="fill:#ED694A;" d="M193.167,350.804c1.413-0.431,2.845-0.82,4.289-1.175c-12.552,3.081-23.987,9.067-33.552,17.199
		c9.059,7.405,18.895,13.654,29.263,18.706V350.804z"/>
</g>
<path style="fill:#D8553A;" d="M163.909,366.823c8.64,7.062,18.458,13.45,29.256,18.712v-15.361
	c-5.263-3.992-10.29-8.355-15.038-13.076C173.046,359.845,168.281,363.107,163.909,366.823z"/>
<g>
	<path style="fill:#ED694A;" d="M307.191,347.694c-0.355-0.036-0.71-0.074-1.067-0.104
		C306.48,347.62,306.835,347.658,307.191,347.694z"/>
	<path style="fill:#ED694A;" d="M321.357,350.402c-0.658-0.188-1.319-0.366-1.984-0.538
		C320.038,350.036,320.699,350.214,321.357,350.402z"/>
	<path style="fill:#ED694A;" d="M318.32,349.601c-0.608-0.148-1.216-0.297-1.829-0.431
		C317.103,349.305,317.712,349.452,318.32,349.601z"/>
	<path style="fill:#ED694A;" d="M314.681,348.801c-0.694-0.136-1.391-0.263-2.091-0.381
		C313.29,348.538,313.987,348.665,314.681,348.801z"/>
	<path style="fill:#ED694A;" d="M310.574,348.101c-0.412-0.059-0.827-0.111-1.241-0.164
		C309.748,347.989,310.162,348.042,310.574,348.101z"/>
	<path style="fill:#ED694A;" d="M321.981,350.587c0.703,0.207,1.404,0.418,2.099,0.643v35.21
		c10.082-4.795,19.793-10.736,29.345-18.356C344.467,360.106,333.766,354.055,321.981,350.587z"/>
</g>
<circle style="fill:#EAE9E8;" cx="320.209" cy="208.613" r="44.82"/>
<path style="fill:#DBDBDB;" d="M303.047,218.522c-10.207-17.678-6.991-39.412,6.47-53.434c-4.013,0.988-7.957,2.539-11.715,4.709
	c-21.437,12.377-28.782,39.788-16.405,61.225c12.377,21.437,39.788,28.782,61.225,16.405c3.759-2.17,7.073-4.81,9.935-7.791
	C333.684,244.282,313.254,236.2,303.047,218.522z"/>
<path d="M369.387,209.407c0-28.849-23.471-52.319-52.319-52.319c-28.848,0-52.319,23.47-52.319,52.319s23.471,52.319,52.319,52.319
	C345.915,261.726,369.387,238.256,369.387,209.407z M279.748,209.407c0-20.578,16.741-37.32,37.32-37.32
	c20.578,0,37.32,16.741,37.32,37.32s-16.741,37.32-37.32,37.32C296.489,246.727,279.748,229.985,279.748,209.407z"/>
<circle cx="317.069" cy="209.403" r="9.664"/>
<path d="M168.009,220.479c1.981-7.492,8.787-12.725,16.548-12.725c7.761,0,14.566,5.233,16.547,12.725
	c0.89,3.361,3.926,5.583,7.246,5.583c4.934,0,8.511-4.674,7.256-9.42c-3.722-14.065-16.489-23.887-31.049-23.887
	c-14.561,0-27.328,9.823-31.05,23.887c-1.059,4.004,1.328,8.109,5.333,9.169C162.848,226.87,166.949,224.483,168.009,220.479z"/>
<path d="M297.737,498.534c36.118-6.067,70.35-19.95,100.823-40.92c3.413-2.348,4.275-7.018,1.928-10.43
	c-2.348-3.413-7.02-4.277-10.43-1.928c-23.226,15.978-48.163,27.173-73.685,33.917c7.614-11.519,12.062-25.304,12.062-40.116
	v-47.172c26.247-13.442,48.801-34.475,64.014-60.359c9.911-16.868-2.206-38.11-21.769-38.11h-34.344c-4.143,0-7.5,3.358-7.5,7.5
	c0,4.142,3.357,7.5,7.5,7.5h34.344c8.066,0,12.829,8.715,8.837,15.511c-7.781,13.24-17.699,25.13-29.267,35.205
	c-12.337-9.47-27.275-15.825-43.117-17.841v0.002c-2.27-0.29-4.794-0.518-7.039-0.623l0,0c-32.179-1.484-38.481,12.223-52.758,6.435
	c-28.485-11.553-60.966-7.781-86.358,10.829c-12.964-11.546-23.625-25.26-31.662-40.738c-1.404-2.701-0.329-5.013,0.198-5.882
	c0.529-0.872,2.091-2.899,5.148-2.899h166.675c4.143,0,7.5-3.358,7.5-7.5c0-4.142-3.357-7.5-7.5-7.5H134.662
	c-15.796,0-25.907,16.745-18.657,30.696c14.965,28.811,38.195,51.966,66.518,66.834v48.111c0,14.596,4.325,28.192,11.737,39.608
	c-59.976-16.249-111.097-55.303-142.482-109.663C-6.077,268.798,17.788,142.798,104.424,70.28c3.176-2.659,3.596-7.389,0.937-10.565
	c-2.658-3.177-7.389-3.596-10.565-0.937C2.643,135.916-22.748,269.923,38.787,376.504
	c37.226,64.478,100.541,108.737,173.923,121.652C237.97,516.466,272.312,516.637,297.737,498.534z M328.435,363.151
	c3.293,1.618,6.475,3.481,9.504,5.565c-2.876,2.002-6.241,4.184-9.504,6.09V363.151z M182.522,373.753
	c-3.277-1.959-6.348-3.973-9.315-6.079c2.981-1.945,6.097-3.676,9.315-5.176V373.753z M197.521,357.371
	c25.407-5.743,43.937,4.073,49.773,5.369v68.412c0,4.142,3.357,7.5,7.5,7.5c4.143,0,7.5-3.358,7.5-7.5v-68.41
	c7.443-1.652,23.521-11.464,51.141-5.052c0,24.398,0,57.54,0,81.37c0,39.339-38.505,67.315-76.003,55.065
	c-23.438-7.697-39.911-29.679-39.911-55.065C197.521,422.841,197.521,373.978,197.521,357.371z"/>
<path d="M416.599,424.027c-3.039,2.814-3.222,7.56-0.407,10.599c2.811,3.034,7.554,3.225,10.599,0.407
	C570.063,302.355,512.669,60,321.046,8.656C254.224-9.249,183.824,0.719,124.054,37.671c-3.524,2.177-4.615,6.799-2.438,10.323
	c2.177,3.524,6.803,4.614,10.322,2.437c54.708-33.793,120.636-44.593,185.226-27.286C497.704,71.521,551.05,299.517,416.599,424.027
	z"/>
<g>
</g>
<g>
</g>
<g>
</g>
<g>
</g>
<g>
</g>
<g>
</g>
<g>
</g>
<g>
</g>
<g>
</g>
<g>
</g>
<g>
</g>
<g>
</g>
<g>
</g>
<g>
</g>
<g>
</g>
</svg>
