<?xml version="1.0" encoding="iso-8859-1"?>
<!-- Generator: Adobe Illustrator 19.0.0, SVG Export Plug-In . SVG Version: 6.00 Build 0)  -->
<svg version="1.1" id="Capa_1" xmlns="http://www.w3.org/2000/svg" xmlns:xlink="http://www.w3.org/1999/xlink" x="0px" y="0px"
	 viewBox="0 0 512 512" style="enable-background:new 0 0 512 512;" xml:space="preserve">
<path style="fill:#F4D44E;" d="M341.46,22.835c-0.022,0.003-0.045,0.005-0.067,0.008c-88.383-32.916-187.356-11.776-254.3,53.002
	C-36.085,194.954-0.347,401.112,155.027,472.264c56.851,25.955,123.571,30.082,186.367,6.697c0.022,0.003,0.045,0.005,0.067,0.008
	c60.856-22.799,110.917-68.592,138.541-131.987C534.97,218.753,471.56,71.577,341.46,22.835z"/>
<path style="fill:#E8C842;" d="M389.848,454.416c-2.106-0.105-4.895-0.518-8.599,0.799c-64.87,23.059-139.048,18.638-203.342-18.482
	C24.349,348.076,15.138,131.341,156.672,28.815c-188.904,84.742-192.082,356.24-1.645,443.45
	c99.939,45.627,186.251,6.716,186.367,6.697c0.059,0.006,0.048,0.005,0.067,0.008C359.186,472.327,375.045,464.112,389.848,454.416z
	"/>
<g>
	<circle style="fill:#656566;" cx="186.883" cy="220.662" r="20.524"/>
	<circle style="fill:#656566;" cx="328.158" cy="220.662" r="20.524"/>
</g>
<g>
	<path style="fill:#4F4F51;" d="M186.881,220.659c-3.796-6.575-3.523-14.369,0.009-20.508c-15.649-0.023-25.73,17.007-17.783,30.77
		c7.949,13.768,27.738,13.544,35.54-0.016C197.563,230.894,190.677,227.234,186.881,220.659z"/>
	<path style="fill:#4F4F51;" d="M328.166,200.15c-3.492-0.005-7.03,0.862-10.272,2.734c-9.817,5.668-13.18,18.22-7.513,28.037
		c7.949,13.768,27.737,13.544,35.54-0.016C338.839,230.894,320.277,213.861,328.166,200.15z"/>
</g>
<path style="fill:#FC8B75;" d="M302.47,347.369c-31.165-1.446-37.047,13.265-55.228,5.893c-16.778-6.804-36.115-8.068-54.497-2.457
	v87.46c0,36.151,29.306,65.457,65.457,65.457s65.457-29.306,65.457-65.457v-87.033C316.931,349.048,309.828,347.711,302.47,347.369z
	"/>
<path style="fill:#EA7363;" d="M217.739,436.089v-88.794c-8.53-0.13-16.815,1.015-24.993,3.511v87.46
	c0,41.539,38.199,72.578,78.918,64.065C240.883,495.992,217.739,468.745,217.739,436.089z"/>
<path style="fill:#656566;" d="M373.403,300.124H137.387c-10.134,0-16.674,10.747-12.003,19.739
	c14.411,27.735,37.37,51.08,67.36,65.695v-34.753c17.322-5.288,36.686-4.766,54.497,2.457c18.238,7.396,23.91-7.346,55.228-5.893
	c7.359,0.342,14.46,1.679,21.189,3.863v35.211c27.282-12.977,49.84-33.631,65.047-59.508
	C395.675,315.073,387.161,300.124,373.403,300.124z"/>
<path style="fill:#4F4F51;" d="M150.384,319.862c-4.673-8.993,1.868-19.739,12.003-19.739h-24.999
	c-10.134,0-16.674,10.747-12.003,19.739c14.41,27.735,37.37,51.08,67.36,65.695v-15.382
	C175.423,357.035,160.9,340.1,150.384,319.862z"/>
<g>
	<path style="fill:#ED694A;" d="M205.239,348.051c0.374-0.052,0.75-0.096,1.125-0.142
		C205.989,347.955,205.613,347.999,205.239,348.051z"/>
	<path style="fill:#ED694A;" d="M201.012,348.758c0.621-0.12,1.243-0.237,1.868-0.343
		C202.255,348.521,201.633,348.639,201.012,348.758z"/>
	<path style="fill:#ED694A;" d="M197.891,349.421c0.592-0.139,1.186-0.272,1.783-0.398
		C199.077,349.149,198.484,349.283,197.891,349.421z"/>
	<path style="fill:#ED694A;" d="M208.461,347.675c0.333-0.033,0.665-0.066,0.998-0.094
		C209.126,347.609,208.794,347.643,208.461,347.675z"/>
	<path style="fill:#ED694A;" d="M192.745,350.805c1.413-0.431,2.845-0.82,4.289-1.175c-12.552,3.081-23.987,9.067-33.552,17.199
		c9.059,7.405,18.895,13.654,29.263,18.706L192.745,350.805L192.745,350.805z"/>
</g>
<path style="fill:#D8553A;" d="M163.49,366.823c8.869,7.25,18.708,13.571,29.256,18.712v-15.361
	c-5.263-3.992-10.29-8.355-15.038-13.076C172.626,359.846,167.86,363.107,163.49,366.823z"/>
<g>
	<path style="fill:#ED694A;" d="M306.769,347.695c-0.355-0.036-0.71-0.074-1.067-0.104
		C306.059,347.622,306.414,347.66,306.769,347.695z"/>
	<path style="fill:#ED694A;" d="M320.937,350.403c-0.658-0.188-1.319-0.366-1.984-0.538
		C319.617,350.038,320.279,350.215,320.937,350.403z"/>
	<path style="fill:#ED694A;" d="M317.899,349.603c-0.608-0.148-1.216-0.297-1.829-0.431
		C316.683,349.306,317.292,349.454,317.899,349.603z"/>
	<path style="fill:#ED694A;" d="M314.261,348.803c-0.694-0.136-1.391-0.263-2.091-0.381
		C312.87,348.54,313.567,348.666,314.261,348.803z"/>
	<path style="fill:#ED694A;" d="M310.153,348.102c-0.412-0.059-0.827-0.111-1.241-0.164
		C309.327,347.991,309.741,348.043,310.153,348.102z"/>
	<path style="fill:#ED694A;" d="M321.561,350.588c0.703,0.207,1.404,0.418,2.099,0.643v35.21
		c10.082-4.795,19.793-10.736,29.345-18.356C344.047,360.107,333.345,354.057,321.561,350.588z"/>
</g>
<path d="M212.076,221.455c0-15.452-12.571-28.024-28.023-28.024s-28.024,12.572-28.024,28.024s12.572,28.024,28.024,28.024
	S212.076,236.907,212.076,221.455z M171.027,221.455c0-7.182,5.843-13.025,13.025-13.025c7.182,0,13.024,5.843,13.024,13.025
	s-5.843,13.025-13.024,13.025C176.87,234.479,171.027,228.636,171.027,221.455z"/>
<path d="M353.352,221.455c0-15.452-12.571-28.024-28.023-28.024s-28.024,12.572-28.024,28.024s12.572,28.024,28.024,28.024
	S353.352,236.907,353.352,221.455z M312.303,221.455c0-7.182,5.843-13.025,13.025-13.025s13.023,5.843,13.023,13.025
	s-5.843,13.025-13.023,13.025C318.146,234.479,312.303,228.636,312.303,221.455z"/>
<path d="M426.828,432.038c1.898,0,3.798-0.716,5.259-2.152C570.241,294.041,508.049,58.793,320.941,8.659
	C256.202-8.689,188.577,0.214,130.55,33.715l-0.237,0.141c-3.594,2.06-4.837,6.643-2.777,10.236
	c2.061,3.594,6.643,4.836,10.236,2.777l0.258-0.152c54.577-31.511,118.158-39.881,179.029-23.57
	C493.011,70.293,551.431,291.5,421.569,419.191C416.792,423.888,420.154,432.038,426.828,432.038z"/>
<path d="M297.632,498.535c37.347-6.273,74.003-21.16,106.833-45.194c3.342-2.447,4.067-7.14,1.621-10.482
	c-2.447-3.343-7.141-4.067-10.482-1.622c-24.015,17.581-50.846,30.409-79.335,37.938c7.614-11.519,12.062-25.304,12.062-40.115
	v-47.172c25.638-13.131,48.452-33.881,64.014-60.359c9.911-16.868-2.207-38.11-21.769-38.11H134.558
	c-15.796,0-25.907,16.745-18.657,30.696c15.101,29.076,38.494,52.131,66.518,66.834v17.846c0,4.142,3.357,7.5,7.5,7.5
	s7.5-3.358,7.5-7.5c0-22.579,0-28.241,0-51.423c25.645-5.797,44.073,4.103,49.773,5.369v68.411c0,4.142,3.357,7.5,7.5,7.5
	s7.5-3.358,7.5-7.5v-68.409c8.402-1.865,23.657-11.432,51.141-5.052c0,25.565,0,56.753,0,81.37
	c0,26.029-17.498,49.218-43.097,56.018c-35.756,9.407-70.114-16.421-72.647-51.819c-0.295-4.132-3.898-7.246-8.016-6.946
	c-4.132,0.296-7.241,3.885-6.945,8.016c0.904,12.63,5.059,24.338,11.586,34.355C74.332,446.238,0.71,326.597,24.47,205.67
	c10.883-55.383,41.157-105.019,85.25-139.765c3.253-2.563,3.812-7.279,1.248-10.533c-2.564-3.254-7.279-3.813-10.533-1.249
	c-46.904,36.964-79.11,89.757-90.683,148.654c-26.801,136.404,62.931,270.753,202.852,295.378
	C237.768,516.395,272.112,516.704,297.632,498.535z M328.33,374.807v-11.655c3.293,1.618,6.475,3.481,9.504,5.565
	C334.902,370.753,331.6,372.896,328.33,374.807z M182.418,373.753c-3.052-1.824-6.118-3.811-9.315-6.079
	c2.981-1.945,6.097-3.675,9.315-5.176V373.753z M307.028,341.294v0.002c-10.804-1.378-22.043-0.792-32.868,1.908
	c-11.577,2.879-12.803,5.332-19.47,5.332c-2.694,0-5.081-0.463-7.459-1.427c-28.262-11.462-60.833-7.877-86.358,10.829
	c-12.965-11.546-23.625-25.261-31.662-40.736c-2.08-4.001,0.84-8.781,5.347-8.781h236.016c8.062,0,12.832,8.712,8.837,15.511
	c-7.781,13.239-17.698,25.13-29.267,35.205C337.503,349.432,322.678,343.281,307.028,341.294z"/>
<g>
</g>
<g>
</g>
<g>
</g>
<g>
</g>
<g>
</g>
<g>
</g>
<g>
</g>
<g>
</g>
<g>
</g>
<g>
</g>
<g>
</g>
<g>
</g>
<g>
</g>
<g>
</g>
<g>
</g>
</svg>
