<?xml version="1.0" encoding="iso-8859-1"?>
<!-- Generator: Adobe Illustrator 19.0.0, SVG Export Plug-In . SVG Version: 6.00 Build 0)  -->
<svg version="1.1" id="Capa_1" xmlns="http://www.w3.org/2000/svg" xmlns:xlink="http://www.w3.org/1999/xlink" x="0px" y="0px"
	 viewBox="0 0 512.001 512.001" style="enable-background:new 0 0 512.001 512.001;" xml:space="preserve">
<path style="fill:#F4D44E;" d="M341.54,22.833c-0.022,0.003-0.045,0.005-0.067,0.008c-88.384-32.916-187.356-11.776-254.3,53.003
	C-35.838,194.789-0.599,400.956,155.106,472.261c56.851,25.955,123.571,30.082,186.367,6.697c0.022,0.003,0.045,0.005,0.067,0.008
	c52.505-19.671,96.958-56.59,125.68-106.339C542.202,242.759,483.192,75.902,341.54,22.833z"/>
<path style="fill:#E8C842;" d="M389.928,454.413c-2.106-0.105-4.895-0.518-8.599,0.799
	c-64.869,23.059-139.048,18.638-203.342-18.482C24.43,348.073,15.219,131.339,156.751,28.812
	C43.555,79.592-13.392,207.427,24.747,325.691C67.551,458.494,212.372,527.035,341.465,478.96c0.003-0.001,0.005-0.002,0.007-0.003
	c0.059,0.006,0.048,0.005,0.067,0.008C359.265,472.325,375.125,464.108,389.928,454.413z"/>
<path style="fill:#FC8B75;" d="M302.55,347.366c-31.165-1.446-37.047,13.264-55.228,5.893c-16.778-6.804-36.115-8.068-54.497-2.457
	v87.46c0,36.151,29.306,65.456,65.456,65.456s65.456-29.306,65.456-65.456v-87.033C317.01,349.045,309.908,347.707,302.55,347.366z"
	/>
<path style="fill:#EA7363;" d="M217.818,436.085v-88.794c-8.53-0.13-16.815,1.015-24.993,3.511v87.46
	c0,41.539,38.199,72.578,78.918,64.065C240.963,495.99,217.818,468.741,217.818,436.085z"/>
<path style="fill:#656566;" d="M373.483,300.12H137.467c-10.134,0-16.674,10.747-12.003,19.739
	c14.411,27.735,37.37,51.08,67.36,65.694v-34.753c17.322-5.288,36.686-4.766,54.497,2.457c18.238,7.396,23.91-7.346,55.228-5.893
	c7.359,0.342,14.46,1.679,21.189,3.863v35.211c27.282-12.976,49.84-33.631,65.046-59.508
	C395.755,315.07,387.24,300.12,373.483,300.12z"/>
<path style="fill:#4F4F51;" d="M150.464,319.86c-4.673-8.993,1.868-19.739,12.003-19.739h-24.999
	c-10.134,0-16.674,10.747-12.003,19.739c14.41,27.735,37.37,51.08,67.36,65.694v-15.382
	C175.503,357.031,160.979,340.098,150.464,319.86z"/>
<g>
	<path style="fill:#ED694A;" d="M205.319,348.048c0.374-0.052,0.75-0.096,1.125-0.142
		C206.068,347.952,205.692,347.996,205.319,348.048z"/>
	<path style="fill:#ED694A;" d="M201.093,348.755c0.621-0.12,1.243-0.237,1.868-0.343
		C202.335,348.517,201.713,348.635,201.093,348.755z"/>
	<path style="fill:#ED694A;" d="M197.972,349.418c0.592-0.139,1.186-0.272,1.783-0.398
		C199.158,349.145,198.564,349.279,197.972,349.418z"/>
	<path style="fill:#ED694A;" d="M208.541,347.672c0.333-0.033,0.665-0.066,0.998-0.094
		C209.205,347.606,208.873,347.639,208.541,347.672z"/>
	<path style="fill:#ED694A;" d="M192.826,350.801c1.413-0.431,2.845-0.82,4.289-1.175c-12.552,3.081-23.987,9.067-33.552,17.199
		c9.059,7.405,18.895,13.653,29.263,18.706L192.826,350.801L192.826,350.801z"/>
</g>
<path style="fill:#D8553A;" d="M163.569,366.821c8.64,7.062,18.458,13.449,29.256,18.712v-15.361
	c-5.263-3.992-10.29-8.355-15.038-13.075C172.706,359.843,167.941,363.105,163.569,366.821z"/>
<g>
	<path style="fill:#ED694A;" d="M306.85,347.692c-0.355-0.036-0.71-0.074-1.067-0.104
		C306.139,347.618,306.494,347.656,306.85,347.692z"/>
	<path style="fill:#ED694A;" d="M321.016,350.4c-0.658-0.188-1.319-0.366-1.984-0.538
		C319.697,350.034,320.358,350.212,321.016,350.4z"/>
	<path style="fill:#ED694A;" d="M317.979,349.599c-0.608-0.148-1.216-0.297-1.829-0.431
		C316.762,349.303,317.371,349.45,317.979,349.599z"/>
	<path style="fill:#ED694A;" d="M314.34,348.799c-0.694-0.136-1.391-0.263-2.091-0.381
		C312.949,348.536,313.646,348.663,314.34,348.799z"/>
	<path style="fill:#ED694A;" d="M310.232,348.099c-0.412-0.059-0.827-0.111-1.241-0.164
		C309.406,347.987,309.82,348.039,310.232,348.099z"/>
	<path style="fill:#ED694A;" d="M321.64,350.585c0.703,0.207,1.404,0.418,2.099,0.643v35.21
		c10.082-4.795,19.793-10.736,29.345-18.356C344.126,360.104,333.424,354.053,321.64,350.585z"/>
</g>
<path d="M338.56,191.802c3.441-2.306,4.36-6.965,2.054-10.406c-2.308-3.441-6.967-4.361-10.405-2.053l-15.59,10.452
	c-11.782,7.898-11.766,22.471-0.001,30.357c15.239,9.75,15.866,11.724,19.76,11.724c7.392,0,10.325-9.613,4.184-13.729
	c-12.984-9.065-17.773-11.001-17.773-13.171C320.787,202.801,325.478,200.935,338.56,191.802z"/>
<path d="M170.812,217.995c-6.14,4.115-3.212,13.729,4.183,13.729c3.905,0,4.824-2.168,19.759-11.723
	c11.782-7.898,11.766-22.471,0.001-30.357l-15.59-10.452c-3.44-2.308-8.099-1.387-10.406,2.053
	c-2.307,3.44-1.388,8.099,2.053,10.406l15.591,10.453c1.326,0.889,2.183,1.956,2.183,2.719
	C188.584,206.995,183.893,208.862,170.812,217.995z"/>
<path d="M320.937,8.656c-69.667-18.667-142.487-6.862-202.8,32.718c-3.463,2.272-4.428,6.922-2.155,10.385
	c2.273,3.464,6.924,4.427,10.386,2.156c56.593-37.14,125.031-48.362,190.688-30.77c119.995,32.154,191.634,149.89,171.516,267.515
	c-9.126,53.36-36.447,102.271-76.931,137.724c-3.116,2.729-3.43,7.467-0.701,10.583c2.725,3.111,7.463,3.434,10.584,0.701
	c43.066-37.714,72.129-89.734,81.833-146.479C524.751,168.089,448.595,42.861,320.937,8.656z"/>
<path d="M99.384,74.517c3.102-2.746,3.39-7.486,0.644-10.587c-2.743-3.101-7.483-3.39-10.587-0.645
	C1.505,141.134-21.602,272.093,38.679,376.502C75.905,440.98,139.22,485.239,212.601,498.154
	c25.068,18.171,59.399,18.624,85.027,0.379c34.758-5.839,66.801-18.732,95.102-37.091c3.475-2.254,4.464-6.898,2.21-10.374
	c-2.255-3.476-6.896-4.463-10.374-2.21c-20.981,13.613-43.928,23.874-68.302,30.315c7.614-11.519,12.062-25.304,12.062-40.114
	v-47.172c26.26-13.451,48.802-34.476,64.013-60.359c9.911-16.868-2.206-38.109-21.769-38.109H207.412c-4.143,0-7.5,3.358-7.5,7.5
	s3.357,7.5,7.5,7.5H370.57c8.066,0,12.828,8.715,8.837,15.511c-7.781,13.239-17.699,25.129-29.267,35.205
	c-12.603-9.673-27.4-15.841-43.116-17.841v0.002c-2.272-0.29-4.793-0.518-7.039-0.623l0,0c-32.498-1.501-38.326,12.286-52.758,6.435
	c-27.796-11.273-60.412-8.187-86.358,10.829c-12.964-11.546-23.625-25.261-31.662-40.737c-2.08-4.001,0.84-8.781,5.347-8.781h37.86
	c4.143,0,7.5-3.358,7.5-7.5s-3.357-7.5-7.5-7.5h-37.86c-15.796,0-25.907,16.745-18.657,30.696
	c14.95,28.785,38.19,51.966,66.517,66.833v48.111c0,14.595,4.325,28.192,11.737,39.607C12.247,429.383-39.533,197.496,99.384,74.517
	z M328.326,363.149c3.293,1.618,6.475,3.481,9.504,5.565c-3.292,2.291-6.615,4.401-9.504,6.09V363.149z M197.413,357.369
	c25.775-5.827,42.955,3.855,49.773,5.369v68.411c0,4.142,3.357,7.5,7.5,7.5c4.143,0,7.5-3.358,7.5-7.5V362.74
	c7.741-1.718,23.695-11.423,51.141-5.052c0,13.493,0,59.847,0,81.37c0,42.21-44.258,70.851-82.954,52.282
	c-19.813-9.476-32.96-29.656-32.96-52.282C197.413,424.14,197.413,373.465,197.413,357.369z M182.413,373.75
	c-3.261-1.949-6.335-3.964-9.315-6.079c2.981-1.945,6.097-3.676,9.315-5.176V373.75z"/>
<g>
</g>
<g>
</g>
<g>
</g>
<g>
</g>
<g>
</g>
<g>
</g>
<g>
</g>
<g>
</g>
<g>
</g>
<g>
</g>
<g>
</g>
<g>
</g>
<g>
</g>
<g>
</g>
<g>
</g>
</svg>
