<?xml version="1.0" encoding="iso-8859-1"?>
<!-- Generator: Adobe Illustrator 19.0.0, SVG Export Plug-In . SVG Version: 6.00 Build 0)  -->
<svg version="1.1" id="Capa_1" xmlns="http://www.w3.org/2000/svg" xmlns:xlink="http://www.w3.org/1999/xlink" x="0px" y="0px"
	 viewBox="0 0 512 512" style="enable-background:new 0 0 512 512;" xml:space="preserve">
<path style="fill:#656566;" d="M256,41.674c-97.604,0-176.727,16.959-176.727,37.879c0,0.109,15.062,219.089,15.072,219.24
	c56.921,31.623,266.392,31.621,323.307,0c0.007-0.1,15.072-219.139,15.072-219.24C432.726,58.633,353.603,41.674,256,41.674z"/>
<path style="fill:#545456;" d="M109.718,69.747c0-5.171,4.142-10.135,11.729-14.75C95.153,61.61,79.273,70.183,79.273,79.553
	c0,0.109,15.062,219.089,15.072,219.24c7.94,4.411,18.853,8.205,31.901,11.385C122.356,253.595,109.718,69.856,109.718,69.747z"/>
<path style="fill:#656566;" d="M413.404,360.598H98.596C42.854,371.976,7.27,389.269,7.27,408.636
	c0,34.265,111.36,62.042,248.73,62.042s248.731-27.777,248.731-62.042C504.73,389.269,469.146,371.976,413.404,360.598z"/>
<path style="fill:#545456;" d="M67,422.941c0-16.013,24.343-30.605,64.275-41.61v-20.732H98.596
	c-129.129,26.357-119.522,76.023,17.413,99.324C85.222,449.595,67,436.799,67,422.941z"/>
<path style="fill:#F4A32C;" d="M94.203,296.715l4.541,66.051c0,18.615,70.406,33.706,157.256,33.706
	c86.85,0,157.255-15.09,157.255-33.706l4.541-66.051C361.096,328.425,150.951,328.451,94.203,296.715z"/>
<path style="fill:#ED9015;" d="M127.37,326.504c-0.05-0.733-0.515-7.484-1.262-18.355c-13.066-3.192-23.983-7.003-31.904-11.433
	l4.541,66.051c0,7.725,12.135,14.842,32.531,20.527L127.37,326.504z"/>
<path d="M421.189,354.422c0.489-7.114,13.238-192.56,14.036-204.18c0.285-4.133-2.837-7.713-6.969-7.998
	c-4.153-0.268-7.712,2.837-7.998,6.969l-9.806,142.646c-26.646,12.671-87.562,21.055-154.454,21.055
	c-26.117,0-51.21-1.23-74.582-3.658c-4.12-0.433-7.807,2.567-8.235,6.686c-0.428,4.119,2.566,7.807,6.686,8.235
	c72.725,7.554,177.466,4.056,229.434-15.582c-1.406,20.503-3.692,53.565-3.692,53.974c-0.222,1.76-7.912,9.769-41.481,16.783
	c-60.014,12.54-156.208,12.548-216.259,0c-33.568-7.014-41.258-15.022-41.479-16.772c0-0.495,0.204,2.805-3.694-53.994
	c10.846,4.091,24.955,7.723,41.632,10.687c4.081,0.713,7.973-1.995,8.698-6.073c0.724-4.08-1.994-7.974-6.073-8.698
	c-19.697-3.499-35.253-7.845-45.408-12.654C86.377,71.281,87.007,80.196,86.952,79.748c-0.006-0.043-0.012-0.086-0.013-0.119
	c0-2.031,7.771-11.278,45.785-19.426c67.962-14.566,178.57-14.571,246.554,0c38.014,8.148,45.785,17.396,45.785,19.41
	c-0.039,0.894-0.001,0.519,0.024,0.223c-0.091,1.191-0.567,7.66-2.42,34.375c-0.284,4.133,2.837,7.713,6.969,7.998
	c4.153,0.29,7.713-2.835,7.998-6.968l2.328-33.845c7.096-62.779-374.985-62.975-367.921-0.002
	c0.842,12.243,18.149,263.984,18.772,273.027C15.97,370.706,0,392.656,0,408.407c0,60.568,228.433,82.963,380.409,61.246
	c4.1-0.586,6.95-4.386,6.363-8.487c-0.586-4.101-4.387-6.944-8.487-6.363c-123.167,17.604-289.482,5.456-347.448-28.728
	C20.624,420.05,15,413.776,15,408.407c0-10.297,20.589-26.456,77.935-39.095c22.146,46.094,304.038,45.856,326.127,0
	c57.346,12.639,77.935,28.797,77.935,39.095c0,10.652-22.103,27.644-84.397,40.475c-4.058,0.836-6.669,4.801-5.833,8.859
	c0.835,4.059,4.811,6.675,8.859,5.833C495.28,447.167,512,424.519,512,408.407C512,392.656,496.03,370.706,421.189,354.422z"/>
<g>
</g>
<g>
</g>
<g>
</g>
<g>
</g>
<g>
</g>
<g>
</g>
<g>
</g>
<g>
</g>
<g>
</g>
<g>
</g>
<g>
</g>
<g>
</g>
<g>
</g>
<g>
</g>
<g>
</g>
</svg>
