<?xml version="1.0" encoding="iso-8859-1"?>
<!-- Generator: Adobe Illustrator 19.0.0, SVG Export Plug-In . SVG Version: 6.00 Build 0)  -->
<svg version="1.1" id="Capa_1" xmlns="http://www.w3.org/2000/svg" xmlns:xlink="http://www.w3.org/1999/xlink" x="0px" y="0px"
	 viewBox="0 0 511.999 511.999" style="enable-background:new 0 0 511.999 511.999;" xml:space="preserve">
<path style="fill:#859093;" d="M388.887,504.396H123.116c-9.337,0-16.905-7.568-16.905-16.905v-17.172h299.581v17.172
	C405.792,496.828,398.224,504.396,388.887,504.396z"/>
<path style="fill:#9EA9AD;" d="M405.435,470.319H106.57c-8.548,0-15.643-6.606-16.25-15.133L62.562,65.809h386.879l-27.757,389.378
	C421.076,463.712,413.982,470.319,405.435,470.319z"/>
<path style="fill:#859093;" d="M165.54,470.319h-58.976c-8.547,0-15.644-6.61-16.252-15.137L62.562,65.809h76.344l16.8,389.373
	C156.07,463.709,160.369,470.319,165.54,470.319z"/>
<g>
	<polygon style="fill:#2A343E;" points="166.19,193.4 136.252,228.077 106.19,193.026 136.003,158.349 	"/>
	<polygon style="fill:#2A343E;" points="196.002,228.077 166.065,262.755 196.252,297.807 226.064,263.005 	"/>
	<polygon style="fill:#2A343E;" points="286.064,332.734 256.251,367.411 226.064,332.485 255.877,297.682 	"/>
	<polyline style="fill:#2A343E;" points="68.504,149.209 76.382,158.344 106.189,123.67 76.128,88.621 65.098,101.395 	"/>
	<polyline style="fill:#2A343E;" points="78.896,294.891 106.189,263.126 76.128,228.077 74.283,230.216 	"/>
	<polygon style="fill:#2A343E;" points="136.003,297.807 106.19,332.485 136.252,367.411 166.19,332.734 	"/>
	<polygon style="fill:#2A343E;" points="316.126,297.807 345.938,263.129 315.876,228.077 286.064,262.755 	"/>
	<polygon style="fill:#2A343E;" points="196.252,158.349 226.064,123.671 196.002,88.62 166.19,123.297 	"/>
	<polygon style="fill:#2A343E;" points="226.064,193.026 255.877,158.349 286.064,193.4 256.251,228.077 	"/>
	<polygon style="fill:#2A343E;" points="376.001,367.411 405.938,332.734 375.876,297.807 345.938,332.485 	"/>
	<polygon style="fill:#2A343E;" points="376.126,228.077 405.938,193.4 375.876,158.349 345.938,193.026 	"/>
	<polygon style="fill:#2A343E;" points="286.064,123.297 315.876,88.62 345.938,123.671 316.126,158.349 	"/>
	<polyline style="fill:#2A343E;" points="433.15,294.363 405.937,262.751 435.755,228.077 437.712,230.348 	"/>
	<polyline style="fill:#2A343E;" points="446.887,101.608 435.755,88.621 405.937,123.295 435.998,158.344 443.46,149.665 	"/>
</g>
<path style="fill:#6D8188;" d="M457.256,65.809H54.747c-8.112,0-14.688-6.576-14.688-14.688V22.292
	c0-8.112,6.576-14.688,14.688-14.688h402.509c8.112,0,14.688,6.576,14.688,14.688v28.83
	C471.943,59.233,465.368,65.809,457.256,65.809z"/>
<path style="fill:#5A6B70;" d="M141.948,51.121V22.292c0-8.112,6.576-14.688,14.688-14.688H54.747
	c-8.112,0-14.688,6.576-14.688,14.688v28.83c0,8.111,6.576,14.687,14.688,14.687h101.888
	C148.523,65.809,141.948,59.233,141.948,51.121z"/>
<path d="M136.003,150.745c-0.001,0-0.002,0-0.003,0c-2.215,0.001-4.319,0.967-5.764,2.647l-29.813,34.677
	c-2.447,2.848-2.451,7.056-0.006,9.906l30.061,35.052c1.443,1.681,3.545,2.65,5.76,2.654c0.005,0,0.009,0,0.013,0
	c2.21,0,4.311-0.962,5.756-2.635l29.937-34.678c2.463-2.852,2.466-7.076,0.006-9.931l-30.186-35.051
	C140.32,151.709,138.217,150.745,136.003,150.745z M136.271,216.419l-20.057-23.388l19.795-23.025l20.14,23.387L136.271,216.419z"/>
<path d="M231.828,258.044l-30.062-34.926c-1.444-1.677-3.545-2.642-5.758-2.643c-0.002,0-0.004,0-0.006,0
	c-2.21,0-4.311,0.962-5.756,2.635l-29.937,34.677c-2.463,2.852-2.465,7.077-0.006,9.931l30.187,35.052
	c1.445,1.678,3.547,2.642,5.762,2.642c0.003,0,0.007,0,0.01,0c2.217-0.003,4.323-0.973,5.766-2.657l29.813-34.803
	C234.283,265.099,234.278,260.891,231.828,258.044z M196.235,286.137l-20.13-23.376l19.888-23.037l20.048,23.292L196.235,286.137z"
	/>
<path d="M250.498,372.383c1.445,1.671,3.544,2.632,5.754,2.632c0.003,0,0.007,0,0.01,0c2.213-0.003,4.314-0.969,5.757-2.647
	l29.812-34.678c2.452-2.852,2.451-7.069-0.005-9.919L261.64,292.72c-1.445-1.678-3.547-2.642-5.762-2.642c-0.003,0-0.007,0-0.01,0
	c-2.217,0.003-4.323,0.973-5.766,2.657l-29.813,34.802c-2.446,2.857-2.437,7.074,0.021,9.92L250.498,372.383z M255.892,309.352
	l20.139,23.386l-19.796,23.027l-20.139-23.303L255.892,309.352z"/>
<path d="M100.427,337.444l30.061,34.928c1.444,1.677,3.545,2.642,5.758,2.643c0.002,0,0.004,0,0.006,0
	c2.21,0,4.311-0.962,5.756-2.635l29.937-34.678c2.466-2.855,2.465-7.087-0.002-9.941l-30.186-34.927
	c-1.445-1.671-3.544-2.632-5.754-2.632c-0.003,0-0.007,0-0.01,0c-2.213,0.003-4.314,0.969-5.757,2.647l-29.813,34.677
	C97.972,330.379,97.973,334.595,100.427,337.444z M136.018,309.454l20.124,23.283l-19.881,23.028l-20.041-23.283L136.018,309.454z"
	/>
<path d="M316.12,305.411c0.002,0,0.003,0,0.005,0c2.216,0,4.322-0.966,5.767-2.647l29.813-34.678
	c2.448-2.848,2.451-7.056,0.006-9.907l-30.062-35.051c-1.444-1.683-3.551-2.652-5.767-2.653c-0.002,0-0.003,0-0.005,0
	c-2.216,0-4.322,0.967-5.767,2.647l-29.813,34.677c-2.448,2.848-2.451,7.056-0.006,9.907l30.062,35.052
	C311.797,304.44,313.904,305.41,316.12,305.411z M315.869,239.75l20.046,23.374l-19.783,23.012l-20.046-23.374L315.869,239.75z"/>
<path d="M201.774,83.669c-1.444-1.683-3.551-2.652-5.767-2.653c-0.002,0-0.003,0-0.005,0c-2.216,0-4.322,0.966-5.767,2.647
	l-29.813,34.678c-2.448,2.848-2.451,7.056-0.006,9.907l30.062,35.051c1.444,1.683,3.551,2.652,5.767,2.653c0.002,0,0.003,0,0.005,0
	c2.216,0,4.322-0.966,5.767-2.647l29.813-34.678c2.448-2.848,2.451-7.056,0.006-9.907L201.774,83.669z M196.259,146.676
	l-20.046-23.374l19.783-23.012l20.046,23.374L196.259,146.676z"/>
<path d="M255.877,150.745c-0.001,0-0.002,0-0.003,0c-2.215,0.001-4.319,0.967-5.764,2.647l-29.813,34.677
	c-2.452,2.852-2.451,7.069,0.005,9.919l30.187,35.052c1.445,1.678,3.548,2.642,5.762,2.642c0.001,0,0.002,0,0.003,0
	c2.215-0.001,4.32-0.967,5.764-2.647l29.812-34.678c2.452-2.852,2.451-7.069-0.005-9.919l-30.186-35.051
	C260.194,151.709,258.091,150.745,255.877,150.745z M256.247,216.419l-20.15-23.398l19.787-23.015l20.149,23.398L256.247,216.419z"
	/>
<path d="M370.237,372.372c1.444,1.677,3.545,2.642,5.758,2.643c0.002,0,0.004,0,0.006,0c2.21,0,4.312-0.962,5.756-2.635
	l29.936-34.678c2.462-2.851,2.466-7.075,0.008-9.929l-30.061-34.927c-1.444-1.677-3.545-2.642-5.758-2.643c-0.002,0-0.004,0-0.006,0
	c-2.21,0-4.311,0.962-5.756,2.635l-29.937,34.677c-2.462,2.852-2.466,7.075-0.008,9.93L370.237,372.372z M375.867,309.453
	l20.032,23.273l-19.889,23.039l-20.032-23.273L375.867,309.453z"/>
<path d="M411.71,188.45l-30.061-35.051c-1.443-1.681-3.545-2.65-5.76-2.654c-0.005,0-0.009,0-0.013,0
	c-2.21,0-4.311,0.962-5.756,2.635l-29.937,34.677c-2.463,2.852-2.465,7.077-0.006,9.931l30.187,35.052
	c1.445,1.678,3.547,2.642,5.762,2.642c0.001,0,0.002,0,0.003,0c2.215-0.001,4.32-0.967,5.764-2.647l29.812-34.678
	C414.152,195.509,414.155,191.3,411.71,188.45z M376.121,216.419l-20.141-23.388l19.878-23.025l20.057,23.388L376.121,216.419z"/>
<path d="M321.649,83.669c-1.444-1.683-3.551-2.652-5.767-2.653c-0.002,0-0.003,0-0.005,0c-2.216,0-4.322,0.966-5.767,2.647
	l-29.813,34.678c-2.448,2.848-2.451,7.056-0.006,9.907l30.062,35.051c1.444,1.683,3.551,2.652,5.767,2.653c0.002,0,0.003,0,0.005,0
	c2.216,0,4.322-0.966,5.767-2.647l29.813-34.678c2.448-2.848,2.451-7.056,0.006-9.907L321.649,83.669z M316.133,146.676
	l-20.046-23.374l19.783-23.012l20.046,23.374L316.133,146.676z"/>
<path d="M457.255,0h-61.911c-4.199,0-7.604,3.405-7.604,7.604l0,0c0,4.199,3.405,7.604,7.604,7.604h61.911
	c3.913,0,7.084,3.171,7.084,7.084v28.829c0,3.911-3.171,7.083-7.083,7.083H54.748c-3.912,0-7.084-3.171-7.084-7.084V22.292
	c0-3.912,3.171-7.084,7.084-7.084h305.11c4.199,0,7.604-3.405,7.604-7.604l0,0c0-4.199-3.405-7.604-7.604-7.604H54.748
	C42.436,0,32.455,9.98,32.455,22.292v28.829c0,12.311,9.98,22.291,22.291,22.291h0.734l23.249,326.03
	c0.299,4.189,3.937,7.342,8.126,7.044h0.001c4.189-0.299,7.342-3.937,7.043-8.125L86.705,297.47l25.251-29.388
	c2.447-2.848,2.449-7.055,0.005-9.906l-30.06-35.049c-0.169-0.198-0.35-0.383-0.537-0.562l-4.042-56.681
	c1.863-0.232,3.588-1.144,4.827-2.583l29.807-34.674c2.448-2.848,2.451-7.056,0.006-9.907L81.901,83.67
	c-1.443-1.681-3.544-2.649-5.76-2.653c-0.004,0-0.009,0-0.013,0c-1.738,0-3.403,0.602-4.74,1.669l-0.661-9.273h370.549l-0.668,9.369
	c-1.353-1.124-3.062-1.763-4.848-1.765h-0.006c-2.215,0-4.321,0.966-5.766,2.646l-29.818,34.674
	c-2.449,2.848-2.452,7.056-0.007,9.908l30.06,35.049c1.156,1.347,2.74,2.227,4.463,2.53l-4.037,56.623
	c-0.232,0.211-0.455,0.432-0.662,0.672l-29.819,34.675c-2.453,2.852-2.452,7.068,0.002,9.919l25.167,29.236l-11.242,157.692
	c-0.323,4.524-4.126,8.068-8.658,8.074H106.551c-4.527-0.005-8.324-3.55-8.646-8.073l-1.497-21.006
	c-0.299-4.189-3.937-7.342-8.125-7.044h-0.001c-4.189,0.299-7.342,3.937-7.044,8.125l1.497,21.005
	c0.689,9.67,7.169,17.69,15.869,20.798v10.97c0,13.536,10.973,24.509,24.509,24.509h265.772c13.536,0,24.509-10.973,24.509-24.509
	v-10.972c8.701-3.109,15.182-11.127,15.872-20.796l27.256-382.31h0.731c12.311,0,22.292-9.98,22.292-22.292V22.292
	C479.548,9.98,469.567,0,457.255,0z M388.887,496.792H123.116c-5.129,0-9.301-4.172-9.301-9.301v-9.568h284.373v9.568
	C398.189,492.62,394.015,496.792,388.887,496.792z M96.167,263.121l-10.998,12.801l-1.993-27.948L96.167,263.121z M76.109,100.278
	l20.057,23.387l-19.793,23.026l-0.458-0.531l-3.007-42.174L76.109,100.278z M436.005,146.672l-20.045-23.372l19.786-23.007
	l3.338,3.894l-3.024,42.421L436.005,146.672z M415.969,262.749l12.878-14.976l-1.971,27.647L415.969,262.749z"/>
<g>
</g>
<g>
</g>
<g>
</g>
<g>
</g>
<g>
</g>
<g>
</g>
<g>
</g>
<g>
</g>
<g>
</g>
<g>
</g>
<g>
</g>
<g>
</g>
<g>
</g>
<g>
</g>
<g>
</g>
</svg>
