<?xml version="1.0" encoding="iso-8859-1"?>
<!-- Generator: Adobe Illustrator 19.0.0, SVG Export Plug-In . SVG Version: 6.00 Build 0)  -->
<svg version="1.1" id="Capa_1" xmlns="http://www.w3.org/2000/svg" xmlns:xlink="http://www.w3.org/1999/xlink" x="0px" y="0px"
	 viewBox="0 0 511.997 511.997" style="enable-background:new 0 0 511.997 511.997;" xml:space="preserve">
<path style="fill:#656566;" d="M65.092,27.303c-25.791,25.791-25.79,67.756,0,93.548l57.256,58.257
	c9.257-4.68,17.554-12.697,22.52-22.52L87.613,98.331c-13.373-13.373-13.373-35.134,0-48.509
	c13.989-13.989,36.752-13.988,50.741,0.001c6.219,6.219,16.302,6.219,22.52,0s6.219-16.302,0-22.52
	C134.466,0.895,91.499,0.895,65.092,27.303z"/>
<path style="fill:#545456;" d="M76.76,110.85c-25.208-25.208-25.763-65.859-1.694-91.767c-3.516,2.378-6.864,5.108-9.974,8.219
	c-25.791,25.791-25.79,67.756,0,93.548l57.256,58.257c4.504-2.278,8.774-5.356,12.549-9.038
	C65.56,99.441,78.34,112.459,76.76,110.85z"/>
<path style="fill:#F96989;" d="M206.087,83.829c-4.633,0.355-8.474,3.62-9.64,8.119c-5.01,19.33-21.898,33.692-42.321,35.09
	c-3.22,0.22-5.781,2.786-5.914,6.012c-1.06,25.828-22.049,47.3-48.362,48.401c-3.247,0.136-5.83,2.712-6.055,5.956
	c-1.486,21.441-17.261,38.987-38.101,42.957c-2.934,0.559-5.013,3.183-5,6.171c0.04,9.278-4.04,20.625-9.06,29.771
	c-2.087,3.803-0.571,8.584,3.291,10.56L401.88,459.488l0.481,0.481c1.944-3.391,3.491-4.12,11.75-12.619
	c8.546-8.304,9.226-9.805,12.619-11.75l-0.481-0.481L243.609,78.132c-1.966-3.844-6.726-5.355-10.51-3.276
	C224.846,79.39,214.794,83.161,206.087,83.829z"/>
<g>
	<path style="fill:#ED5A81;" d="M82.461,214.901c-6.775,7.841-16.104,13.43-26.765,15.46c-2.934,0.559-5.013,3.183-5,6.171
		c0.04,9.278-4.04,20.625-9.06,29.771c-2.087,3.803-0.571,8.584,3.291,10.56l356.953,182.623l0.481,0.481
		c0.948-1.653,1.806-2.677,3.388-4.273L82.461,214.901z"/>
	<path style="fill:#ED5A81;" d="M110.206,179.917c-9.508,2.428-11.362,0.469-14.329,3.179l313.729,268.668l8.919-8.919
		L149.846,129.102c-3.049,3.338-0.278,8.456-5.29,20.782C138.87,163.868,126.402,175.775,110.206,179.917z"/>
	<path style="fill:#ED5A81;" d="M425.626,433.898l-42.925-83.9L243.609,78.131c-1.967-3.843-6.725-5.355-10.509-3.275
		c-21.192,11.604-27.484,6.574-33.247,11.584L425.626,433.898z"/>
</g>
<path style="fill:#DD4A78;" d="M401.879,459.487L52.191,232.433c-2.522,2.989-0.582,4.442-2.642,13.587
	c-1.557,6.918-4.597,14.291-7.914,20.284c-2.087,3.803-0.571,8.583,3.29,10.559l109.798,56.174L401.879,459.487z"/>
<path style="fill:#656566;" d="M426.317,477.251c-1.008,1.008-2.128,1.834-3.31,2.514l21.082,20.082
	c6.219,6.219,16.302,6.219,22.52,0c6.219-6.219,6.219-16.302,0-22.52l-21.085-20.085
	C443.632,460.54,442.969,460.332,426.317,477.251z"/>
<path style="fill:#545456;" d="M453.59,487.846l-19.42-18.499c-8.356,8.325-8.507,8.892-11.163,10.418l21.082,20.082
	c9.198,9.198,24.815,4.012,26.947-8.593C465.244,493.694,458.307,492.564,453.59,487.846z"/>
<path style="fill:#656566;" d="M444.582,438.632l0.277,0.277c6.27,6.27,6.27,16.53,0,22.8l-16.402,16.402
	c-6.27,6.27-16.53,6.27-22.8,0l-0.277-0.277c-6.27-6.27-6.27-16.53,0-22.8l16.402-16.402
	C428.053,432.363,438.313,432.363,444.582,438.632z"/>
<path style="fill:#545456;" d="M424.01,459.481L424.01,459.481c-5.971-5.97-6.321-15.512-1.057-21.906
	c-1.143,0.939-0.104,0.033-17.573,17.46c-6.27,6.271-6.27,16.53,0,22.8l0.277,0.277c6.27,6.27,16.53,6.27,22.799,0
	c17.365-17.407,16.515-16.422,17.459-17.573C439.523,465.801,429.981,465.451,424.01,459.481z"/>
<path d="M457.938,456.445c2.094-7.807,0.153-16.517-6.032-22.699l-0.001-0.001c-5.249-5.25-12.476-7.592-19.719-6.628
	L285.96,141.306c-1.887-3.688-6.405-5.148-10.094-3.261c-3.688,1.887-5.147,6.406-3.261,10.094l81.883,160.046L213.133,90.644
	c8.594-1.497,17.624-5.045,25.307-9.281l18.183,35.537c1.887,3.688,6.406,5.147,10.094,3.261c3.688-1.886,5.147-6.406,3.261-10.094
	l-21.877-42.757c-2.062-4.032-7.209-5.33-10.937-2.758c-8.878,6.126-25.619,13.695-36.086,11.481c-4.465-0.996-8.808,2.251-9.11,6.8
	c-1.51,21.691-20.202,38.012-41.82,36.747c-4.612-0.266-8.262,3.646-7.918,8.068c0.322,4.155,0.023,8.279-0.829,12.26L94.52,93.026
	c-5.051-5.051-7.833-11.781-7.833-18.95c0-24.152,30.236-36.681,47.967-18.949c14.694,14.69,39.989,4.227,39.989-16.565
	c0-6.258-2.437-12.14-6.861-16.565c-29.331-29.331-77.057-29.332-106.39,0c-28.715,28.716-28.715,75.44,0.001,104.156l3.461,3.461
	c2.93,2.928,7.679,2.928,10.608,0c2.929-2.93,2.929-7.679,0-10.608L72,115.546C49.133,92.68,49.133,55.473,71.998,32.606
	c23.483-23.482,61.692-23.482,85.175,0.001c1.591,1.591,2.467,3.705,2.467,5.956c0,7.544-9.131,11.207-14.379,5.956
	c-16.913-16.913-44.434-16.914-61.349-0.001c-16.316,16.314-16.318,42.8-0.001,59.117l51.158,51.158
	c-3.17,4.711-7.463,8.912-11.912,11.912l-22.889-22.89c-2.93-2.928-7.679-2.928-10.608,0c-2.929,2.93-2.929,7.679,0,10.608
	l18.614,18.614c-11.041,2.362-14.028-1.034-18.095,2.951c-1.479,1.451-2.362,3.599-2.234,5.794
	c1.192,20.299-13.236,39.71-36.89,41.838c-4.504,0.399-7.644,4.653-6.649,9.13c2.079,9.128-4.208,25.497-11.487,36.049
	c-1.228,1.777-1.628,3.998-1.1,6.094c1.585,6.284-17.083-6.967,363.668,188.929c-2.266,16.722,13.126,30.124,29.32,25.746
	l15.581,15.581c4.566,4.565,10.565,6.85,16.565,6.85c20.718,0,31.348-25.192,16.565-39.978L457.938,456.445z M49.728,270.075
	c4.236-7.686,7.786-16.717,9.283-25.313l218.332,141.766L49.728,270.075z M290.988,338.935c-3.147-2.694-7.881-2.326-10.575,0.818
	c-2.694,3.146-2.328,7.881,0.818,10.575l100.635,86.181L70.226,234.16c16.146-7.026,27.508-21.132,31.357-37.675L253.999,327.01
	c3.148,2.696,7.883,2.328,10.575-0.818c2.694-3.146,2.328-7.881-0.818-10.575l-149.991-128.45
	c19.988-5.154,36.443-21.138,41.768-41.767l249.021,290.789L290.988,338.935z M164.85,133.218
	c16.584-3.858,30.67-15.254,37.677-31.364l202.988,312.394L164.85,133.218z M422.879,474.258
	c-8.643,4.934-17.032-6.367-10.174-13.223l16.682-16.683c3.26-3.259,8.639-3.272,11.911,0l0.001,0.001
	c3.317,3.317,3.209,8.701-0.001,11.911C423.59,473.83,424.643,473.244,422.879,474.258z M462.908,494.543
	c-3.282,3.285-8.628,3.285-11.912,0l-13.379-13.378l11.912-11.913l13.38,13.379C466.192,485.915,466.192,491.258,462.908,494.543z"
	/>
<g>
</g>
<g>
</g>
<g>
</g>
<g>
</g>
<g>
</g>
<g>
</g>
<g>
</g>
<g>
</g>
<g>
</g>
<g>
</g>
<g>
</g>
<g>
</g>
<g>
</g>
<g>
</g>
<g>
</g>
</svg>
