<?xml version="1.0" encoding="iso-8859-1"?>
<!-- Generator: Adobe Illustrator 19.0.0, SVG Export Plug-In . SVG Version: 6.00 Build 0)  -->
<svg version="1.1" id="Capa_1" xmlns="http://www.w3.org/2000/svg" xmlns:xlink="http://www.w3.org/1999/xlink" x="0px" y="0px"
	 viewBox="0 0 511.999 511.999" style="enable-background:new 0 0 511.999 511.999;" xml:space="preserve">
<path style="fill:#768FA8;" d="M434.636,470.116l-21.213-106.541c-4.677-23.43-21.731-33.031-31.48-36.668
	c-0.401-0.147-61.466-18.149-61.876-18.27l-19.14-12.944V283.54c28.664-15.081,49.32-44.089,51.527-80.34
	c0.219-3.597,2.5-6.796,5.907-7.97c19.948-6.877,28.656-28.414,16.487-44.864c0.042-0.575,0.027-23.551,0.027-24.128
	C374.876,60.766,321.611,7.5,256.14,7.5c-65.472,0-118.738,53.265-118.738,118.737c0,0.578-0.015,23.555,0.027,24.129
	c-11.61,15.696-4.217,36.034,13.834,43.835c4.951,2.14,8.314,6.901,8.813,12.272c3.184,34.337,23.082,62.122,51.017,76.929v12.465
	L192.411,308.5c-0.454,0.134-61.89,18.242-62.335,18.406c-9.75,3.636-26.803,13.236-31.482,36.672L77.381,470.116
	c-2.308,11.622,1.114,34.383,29.448,34.383c38.218,0,265.062,0,298.359,0c10.406,0,18.339-3.062,23.583-9.101
	C434.602,488.684,436.241,478.141,434.636,470.116z"/>
<g>
	<path style="fill:#6A859B;" d="M127.384,470.116l21.213-124.539c2.912-14.586,10.618-23.81,18.372-29.575
		c-17.127,5.052-36.644,10.813-36.893,10.905c-9.75,3.636-26.803,13.236-31.482,36.671L77.381,470.116
		c-2.308,11.622,1.115,34.383,29.448,34.383c8.588,0,26.703,0,50.003,0C128.499,504.499,125.077,481.737,127.384,470.116z"/>
	<path style="fill:#6A859B;" d="M189.38,185.75c-8.74-9.734-10.502-23.818-1.947-35.382c-0.042-0.574-0.027-23.551-0.027-24.129
		c0-56.896,40.229-104.567,93.735-116.08c-8.063-1.735-16.426-2.657-25.001-2.657c-65.472,0-118.738,53.265-118.738,118.737
		c0,0.578-0.015,23.555,0.027,24.129c-11.61,15.696-4.217,36.034,13.834,43.835c4.951,2.14,8.314,6.901,8.813,12.272
		c3.184,34.337,23.082,62.123,51.017,76.929c-14.019-29.117-14.838-55.152-13.199-71.472
		C198.85,202.389,195.786,192.884,189.38,185.75z"/>
</g>
<path d="M256.14,0c-36.325,0-70.936,15.727-94.958,43.148c-2.729,3.116-2.416,7.854,0.699,10.585
	c3.117,2.73,7.855,2.416,10.585-0.699c21.173-24.17,51.671-38.032,83.674-38.032c61.336,0,111.236,49.9,111.236,111.237v0.526
	c0.014,25.792-0.539,25.382,1.444,28.064c9.229,12.473,2.06,28.153-12.901,33.311c-6.243,2.152-10.541,7.886-10.95,14.606
	c-1.937,31.793-19.706,59.516-47.533,74.157c-2.465,1.297-4.008,3.853-4.008,6.638v12.152c0,2.49,1.235,4.817,3.299,6.213
	c20.09,13.446,19.256,13.344,21.217,13.925c0.138,0.041,57.553,16.967,61.577,18.178c28.348,10.731,26.784,37.822,28.565,41.167
	c0.711,3.568,3.843,6.036,7.348,6.036c4.75,0,8.285-4.34,7.363-8.967c-1.682-2.999-0.937-38.448-38.267-52.38
	c-0.337-0.124-0.599-0.22-61.226-18.094l-14.877-10.062v-3.753c30.199-17.593,49.35-48.776,51.514-84.302
	c0.038-0.623,0.394-1.173,0.865-1.335c23.648-8.154,34.605-33.763,21.56-54.25c0.02-5.189,0.009-17.883,0.009-21.832
	C382.376,56.63,325.747,0,256.14,0z"/>
<path d="M429.635,406.587c-0.809-4.063-4.758-6.702-8.821-5.891c-4.063,0.809-6.699,4.758-5.891,8.821l12.359,62.069
	c1.138,5.69,0.07,14.008-4.172,18.893c-3.756,4.326-9.786,6.52-17.92,6.52H172.17c-4.143,0-7.5,3.357-7.5,7.5
	c0,4.143,3.357,7.5,7.5,7.5h233.02c12.674,0,22.514-3.931,29.247-11.686c8.331-9.595,9.277-23.057,7.556-31.664L429.635,406.587z"/>
<path d="M137.168,496.999h-30.339c-8.337,0-14.442-2.286-18.145-6.796c-4.252-5.18-5.046-13.088-3.947-18.622l21.213-106.534
	c3.939-19.732,18.259-27.908,26.551-31.039c45.591-13.766,61.935-17.819,64.112-19.294l18.68-12.633
	c2.063-1.396,3.299-3.723,3.299-6.213v-12.465c0-2.776-1.534-5.326-3.987-6.627c-26.656-14.129-44.249-40.668-47.061-70.993
	c-0.757-8.17-5.855-15.245-13.307-18.465c-13.509-5.838-19.548-20.635-10.778-32.489c5.459-7.378-5.628-36.7,11.159-74.037
	c1.699-3.777,0.014-8.217-3.765-9.916c-3.773-1.7-8.217-0.014-9.917,3.765c-12.28,27.314-11.126,46.798-11.026,73.426
	c-12.412,19.398-3.195,43.7,18.376,53.022c2.377,1.027,4.073,3.413,4.32,6.079c3.138,33.847,22.082,63.664,50.983,80.637v4.081
	l-14.417,9.751c-25.528,7.534-60.849,17.923-61.719,18.243c-11.211,4.181-30.824,15.228-36.216,42.233L70.025,468.655
	c-1.736,8.742-0.791,21.495,7.066,31.066c4.598,5.602,13.49,12.279,29.738,12.279h30.339c4.143,0,7.5-3.357,7.5-7.5
	C144.668,500.355,141.311,496.999,137.168,496.999z"/>
<g>
</g>
<g>
</g>
<g>
</g>
<g>
</g>
<g>
</g>
<g>
</g>
<g>
</g>
<g>
</g>
<g>
</g>
<g>
</g>
<g>
</g>
<g>
</g>
<g>
</g>
<g>
</g>
<g>
</g>
</svg>
