<?xml version="1.0" encoding="iso-8859-1"?>
<!-- Generator: Adobe Illustrator 19.0.0, SVG Export Plug-In . SVG Version: 6.00 Build 0)  -->
<svg version="1.1" id="Capa_1" xmlns="http://www.w3.org/2000/svg" xmlns:xlink="http://www.w3.org/1999/xlink" x="0px" y="0px"
	 viewBox="0 0 512.002 512.002" style="enable-background:new 0 0 512.002 512.002;" xml:space="preserve">
<path style="fill:#607793;" d="M431.501,335.411v-9.841c23.21-12.212,39.937-35.7,41.725-65.054c0.181-2.97,2.149-5.531,4.956-6.518
	c16.031-5.633,22.997-22.996,13.178-36.27c0.034-0.466,0.022-19.072,0.022-19.539c0-53.018-43.133-96.152-96.151-96.152
	s-96.152,43.134-96.152,96.152c0,0.468-0.012,19.075,0.022,19.54c-9.402,12.71-3.415,29.181,11.203,35.497
	c4.052,1.751,6.734,5.684,7.149,10.08c2.62,27.741,18.717,50.185,41.299,62.154v10.094l-15.127,10.23
	c-0.245,0.072-25.381,6.597-40.255,10.989c2.085,6.138,0.637,1.697,23.038,113.345c1.605,8.025-0.034,18.568-5.863,25.283
	c-5.244,6.039-13.178,9.102-23.583,9.102c7.265,0,188.232,0,182.71,0c13.712,0,24.826-11.116,24.826-24.826V371.401
	c0-4.734-2.896-9.028-7.328-10.689c-0.322-0.121-33.156-9.803-45.526-13.45C444.44,345.138,441.295,341.692,431.501,335.411z"/>
<path style="fill:#526B84;" d="M373.549,495.399c5.829-6.714,7.468-17.257,5.863-25.283l-21.213-106.542
	c-1.777-8.903-5.343-15.804-9.615-21.145c-11.979,6.706-4.178,2.225-45.214,14.342c2.085,6.138,0.637,1.697,23.038,113.346
	c1.605,8.025-0.034,18.568-5.863,25.283c-5.244,6.039-13.178,9.102-23.583,9.102c18.513,0,36.349,0,53.003,0
	C360.371,504.5,368.305,501.437,373.549,495.399z"/>
<path style="fill:#768FA8;" d="M323.546,495.398c5.829-6.714,7.468-17.257,5.863-25.283l-21.213-106.542
	c-4.677-23.43-21.731-33.03-31.48-36.668c-0.401-0.147-61.466-18.149-61.876-18.27l-19.14-12.944v-12.153
	c28.663-15.081,49.32-44.089,51.527-80.339c0.219-3.597,2.501-6.796,5.907-7.97c19.948-6.877,28.656-28.415,16.486-44.864
	c0.042-0.576,0.027-23.551,0.027-24.128C269.649,60.767,216.385,7.501,150.913,7.501S32.176,60.767,32.176,126.238
	c0,0.578-0.015,23.555,0.027,24.129c-11.61,15.695-4.217,36.034,13.834,43.835c4.951,2.14,8.314,6.901,8.813,12.272
	c3.184,34.337,23.082,62.122,51.017,76.929v12.465L87.186,308.5c-66.194,19.568-61.469,18.032-63.751,18.958
	c-9.65,3.914-15.933,13.337-15.933,23.75v128.62c0,13.626,11.046,24.671,24.671,24.671c80.5,0,187.688,0,267.79,0
	C310.368,504.5,318.302,501.437,323.546,495.398z"/>
<g>
	<path style="fill:#6A859B;" d="M58.693,479.828v-144.62c0-9.046,4.745-17.34,12.317-21.928
		c-49.218,14.531-45.5,13.337-47.577,14.179c-9.65,3.914-15.933,13.337-15.933,23.75v128.62c0,13.626,11.046,24.671,24.671,24.671
		c16.133,0,33.349,0,51.193,0C69.739,504.5,58.693,493.454,58.693,479.828z"/>
	<path style="fill:#6A859B;" d="M84.153,185.751c-8.74-9.734-10.502-23.818-1.947-35.382c-0.042-0.574-0.027-23.551-0.027-24.129
		c0-56.896,40.229-104.567,93.735-116.08c-8.063-1.735-16.426-2.657-25.001-2.657C85.441,7.501,32.176,60.767,32.176,126.238
		c0,0.578-0.015,23.555,0.027,24.129c-11.61,15.696-4.217,36.034,13.834,43.835c4.951,2.14,8.314,6.901,8.813,12.272
		c3.184,34.337,23.082,62.123,51.017,76.929c-14.019-29.117-14.838-55.152-13.199-71.472
		C93.623,202.39,90.559,192.885,84.153,185.751z"/>
</g>
<path d="M499.693,353.647c-0.674-0.247-42.063-12.442-49.456-14.62l-11.235-7.598v-1.466c24.435-14.542,39.914-39.967,41.706-68.901
	c19.571-6.9,28.899-28.238,18.169-45.601c0.067-21.424,1.142-38.916-10.482-62.678c-1.82-3.72-6.309-5.259-10.034-3.441
	c-3.721,1.82-5.262,6.313-3.441,10.034c14.789,30.231,5.693,56.436,10.412,62.815c6.93,9.367,1.352,20.873-9.636,24.732
	c-5.683,1.996-9.592,7.151-9.956,13.136c-1.538,25.243-15.644,47.253-37.731,58.873c-2.465,1.297-4.008,3.853-4.008,6.638
	c0.581,6.884-1.76,12.632,3.299,16.055c16.059,10.723,15.629,10.89,17.584,11.464c0.451,0.133,46.072,13.583,49.772,14.693
	c1.406,0.584,2.343,2.022,2.343,3.619v108.272c0,9.555-7.772,17.327-17.326,17.327h-80.133c-4.143,0-7.5,3.357-7.5,7.5
	c0,4.143,3.357,7.5,7.5,7.5h80.133c17.825,0,32.327-14.502,32.327-32.328V371.401C511.999,363.653,507.22,356.469,499.693,353.647z"
	/>
<path d="M364.537,497H331.71c5.318-8.125,6.871-19.273,5.055-28.349c-13.359-67.09-21.234-106.645-21.256-106.757
	c4.327-1.277,13.368-3.944,30.246-8.921c1.942-0.574,1.54-0.754,17.2-11.208c5.075-3.431,2.709-9.194,3.299-16.308
	c0-2.776-1.534-5.326-3.987-6.627c-21.432-11.359-35.043-31.855-37.345-56.233c-0.684-7.221-5.145-13.451-11.642-16.257
	c-10.136-4.379-14.687-15.313-8.147-24.151c1.961-2.651,1.453-2.878,1.448-23.999c0-77.415,92.79-117.39,149.117-64.76
	c3.024,2.826,7.771,2.666,10.602-0.36c2.827-3.026,2.667-7.772-0.36-10.602c-19.275-18.011-44.387-27.931-70.706-27.931
	c-57.154,0-103.652,46.498-103.652,103.652c0,3.483-0.008,13.065,0.007,17.265c-10.188,16.38-2.412,36.811,15.744,44.657
	c1.448,0.626,2.491,2.157,2.656,3.898c2.599,27.525,17.912,51.809,41.266,65.825v1.735l-10.865,7.347
	c-9.568,2.82-20.229,5.964-29.652,8.745c-8.148-16.717-22.453-24.445-31.429-27.794c-0.763-0.281-38.834-11.488-61.23-18.097
	l-14.877-10.062v-3.753c30.199-17.592,49.35-48.775,51.513-84.301c0.038-0.623,0.395-1.173,0.866-1.335
	c23.649-8.154,34.603-33.765,21.558-54.251c0.022-5.303,0.011-18.025,0.011-21.832C277.149,56.63,220.52,0.001,150.914,0.001
	c-69.609,0-126.239,56.629-126.239,126.236v0.491c-0.007,12.551-0.001,18.477,0.01,21.338
	c-12.385,19.351-3.258,43.672,18.376,53.021c2.377,1.026,4.072,3.413,4.319,6.079c3.139,33.847,22.083,63.664,50.984,80.637v4.081
	l-14.417,9.75c-66.713,19.657-61.393,18.084-63.334,18.873C8.091,325.588,0,337.639,0,351.209v128.621
	c0,17.739,14.433,32.172,32.172,32.172H64.46c4.143,0,7.5-3.357,7.5-7.5c0-4.143-3.357-7.5-7.5-7.5H32.172
	c-9.469,0-17.171-7.702-17.171-17.171v-128.62c0-7.334,4.169-14.124,12.272-17.2c60.17-18.171,61.707-17.667,64.112-19.294
	l18.681-12.633c2.063-1.395,3.299-3.723,3.299-6.213v-12.465c0-2.776-1.534-5.326-3.987-6.627
	c-26.656-14.129-44.249-40.668-47.062-70.993c-0.758-8.17-5.855-15.246-13.306-18.465c-13.504-5.836-19.551-20.629-10.779-32.489
	c1.018-1.375,1.532-3.054,1.465-4.757c-0.035-1.842-0.021-23.385-0.021-23.833c0-61.337,49.902-111.237,111.239-111.237
	c61.336,0,111.236,49.9,111.236,111.236c-0.014,25.558-0.57,25.87,1.443,28.591c9.229,12.474,2.062,28.153-12.9,33.311
	c-6.243,2.153-10.542,7.887-10.951,14.606c-1.936,31.794-19.704,59.516-47.532,74.156c-2.465,1.297-4.008,3.853-4.008,6.638v12.153
	c0,2.49,1.236,4.818,3.299,6.213c24.856,16.636,17.894,12.684,23.371,14.559c47.849,14.108,57.986,17.111,59.422,17.544
	c14.002,5.298,23.582,16.212,26.547,31.03l21.214,106.549c1.139,5.689,0.071,14.006-4.172,18.893
	c-3.756,4.325-9.786,6.519-17.92,6.519H99.463c-4.143,0-7.5,3.357-7.5,7.5c0,4.143,3.357,7.5,7.5,7.5c23.446,0,230.611,0,265.076,0
	c4.143,0,7.5-3.357,7.5-7.5C372.039,500.357,368.681,497,364.537,497z"/>
<g>
</g>
<g>
</g>
<g>
</g>
<g>
</g>
<g>
</g>
<g>
</g>
<g>
</g>
<g>
</g>
<g>
</g>
<g>
</g>
<g>
</g>
<g>
</g>
<g>
</g>
<g>
</g>
<g>
</g>
</svg>
