<?xml version="1.0" encoding="iso-8859-1"?>
<!-- Generator: Adobe Illustrator 19.0.0, SVG Export Plug-In . SVG Version: 6.00 Build 0)  -->
<svg version="1.1" id="Capa_1" xmlns="http://www.w3.org/2000/svg" xmlns:xlink="http://www.w3.org/1999/xlink" x="0px" y="0px"
	 viewBox="0 0 511.999 511.999" style="enable-background:new 0 0 511.999 511.999;" xml:space="preserve">
<path style="fill:#C25500;" d="M316.479,7.604h-120.96c-22.341,0-41.759,15.343-46.926,37.079l-1.482,6.235
	c-2.448,10.303,5.364,20.19,15.953,20.19h185.868c10.59,0,18.403-9.887,15.953-20.19l-1.482-6.235
	C358.238,22.947,338.82,7.604,316.479,7.604z"/>
<path style="fill:#9B4104;" d="M186.652,50.917l1.482-6.235c5.167-21.735,24.584-37.078,46.926-37.078h-39.541
	c-22.341,0-41.759,15.343-46.926,37.079l-1.482,6.235c-2.448,10.303,5.364,20.19,15.953,20.19h39.541
	C192.016,71.107,184.203,61.22,186.652,50.917z"/>
<path style="fill:#C25500;" d="M314.744,504.396h-117.49c-6.427,0-11.636-5.209-11.636-11.636v-1.681
	c0-6.427,5.209-11.636,11.636-11.636h117.491c6.427,0,11.636,5.209,11.636,11.636v1.681
	C326.38,499.186,321.171,504.396,314.744,504.396z"/>
<path style="fill:#9B4104;" d="M217.047,492.759v-1.68c0-6.426,5.209-11.636,11.636-11.636h-31.43
	c-6.427,0-11.636,5.21-11.636,11.636v1.68c0,6.427,5.209,11.636,11.636,11.636h31.43
	C222.257,504.396,217.047,499.186,217.047,492.759z"/>
<path style="fill:#F9A000;" d="M163.764,71.107c0,0-65.753,28.311-65.753,121.956c0,89.458,45.766,181.896,94.55,262.128
	c4.47,7.352,6.866,15.701,6.866,24.252l0,0H312.57l0,0c0-8.551,2.396-16.9,6.866-24.252c48.784-80.232,94.55-172.671,94.55-262.128
	c0-93.645-65.753-121.956-65.753-121.956S163.764,71.107,163.764,71.107z"/>
<path style="fill:#EA8100;" d="M223.228,479.438h-24.505c0-8.547-2.393-16.891-6.864-24.252
	c-48.787-80.227-94.553-172.661-94.553-262.124c0-93.64,65.759-121.957,65.759-121.957h39.946c0,0-37.28,28.317-37.28,121.957
	c0,89.463,25.945,181.897,53.603,262.124C221.869,462.547,223.228,470.891,223.228,479.438z"/>
<ellipse transform="matrix(-0.4006 -0.9163 0.9163 -0.4006 363.7361 521.6299)" style="fill:#FFC100;" cx="352.493" cy="141.837" rx="32.952" ry="24.841"/>
<path d="M392.076,330.385c19.86-50.185,29.515-95.104,29.515-137.321c0-50.736-18.901-82.985-34.758-101.103
	c-7.678-8.774-15.375-15.164-21.642-19.596c0.92-0.85,1.783-1.772,2.575-2.774c4.581-5.797,6.227-13.244,4.519-20.431l-1.481-6.234
	C364.794,17.65,342.456,0,316.479,0h-120.96c-25.978,0-48.316,17.65-54.323,42.924l-1.482,6.234
	c-1.708,7.188-0.062,14.635,4.519,20.431c0.792,1.002,1.656,1.924,2.575,2.774c-6.266,4.432-13.963,10.822-21.642,19.596
	c-15.857,18.119-34.758,50.368-34.758,101.103c0,42.218,9.654,87.136,29.515,137.321c15.448,39.036,36.465,79.949,66.141,128.756
	c2.586,4.253,4.313,8.898,5.155,13.682c-7.66,2.539-13.206,9.756-13.206,18.256v1.68c0,10.609,8.631,19.241,19.24,19.241h117.49
	c10.609,0,19.24-8.632,19.24-19.241v-1.68c0-8.5-5.547-15.717-13.206-18.256c0.842-4.783,2.569-9.428,5.155-13.682
	C355.611,410.335,376.628,369.421,392.076,330.385z M195.519,15.208h120.96c11.421,0,21.871,4.694,29.321,12.463H232.844
	c-4.199,0-7.604,3.405-7.604,7.604l0,0c0,4.199,3.405,7.604,7.604,7.604h122.142c0.389,1.162,0.732,2.349,1.02,3.562l1.421,5.983
	c0.565,2.374,0.254,4.918-1.055,6.977c-1.648,2.591-4.424,4.102-7.44,4.102h-0.7H163.765h-0.439c-2.44,0-4.843-0.889-6.544-2.639
	c-2.14-2.202-2.97-5.254-2.272-8.189l1.482-6.234c0.288-1.213,0.632-2.399,1.02-3.562h40.346c4.199,0,7.604-3.405,7.604-7.604l0,0
	c0-4.199-3.405-7.604-7.604-7.604h-31.16C173.648,19.902,184.098,15.208,195.519,15.208z M106.714,217.263h233.598
	c4.199,0,7.604-3.405,7.604-7.604l0,0c0-4.199-3.405-7.604-7.604-7.604H105.775c-0.102-3.013-0.159-6.011-0.159-8.992
	c0-36.62,10.259-67.071,30.491-90.508c12.589-14.582,25.364-21.793,29.391-23.845H346.51c8.818,4.474,59.872,33.888,59.872,114.352
	c0,2.981-0.058,5.979-0.159,8.992h-30.425c-4.199,0-7.604,3.405-7.604,7.604l0,0c0,4.199,3.405,7.604,7.604,7.604h29.486
	c-2.583,28.998-9.767,59.614-21.731,92.687H128.445C116.48,276.877,109.297,246.262,106.714,217.263z M134.212,325.159h243.574
	c-15.111,38.106-35.721,78.182-64.847,126.082c-3.869,6.364-6.384,13.374-7.427,20.599h-99.028
	c-1.041-7.226-3.558-14.236-7.427-20.599C169.933,403.34,149.323,363.265,134.212,325.159z M318.776,492.759
	c0,2.223-1.809,4.033-4.032,4.033h-117.49c-2.223,0-4.032-1.809-4.032-4.033v-1.68c0-2.222,1.809-4.032,4.032-4.032h2.174h113.144
	h2.174c2.223,0,4.032,1.809,4.032,4.032v1.68H318.776z"/>
<path d="M227.465,290.237h57.069c12.579,0,22.812-10.234,22.812-22.812v-2.196c0-12.578-10.233-22.812-22.812-22.812h-57.069
	c-12.579,0-22.812,10.234-22.812,22.812v2.196C204.653,280.003,214.886,290.237,227.465,290.237z M219.861,265.229
	c0-4.193,3.411-7.604,7.604-7.604h57.069c4.193,0,7.604,3.411,7.604,7.604v2.196c0,4.193-3.411,7.604-7.604,7.604h-57.069
	c-4.193,0-7.604-3.411-7.604-7.604L219.861,265.229L219.861,265.229z"/>
<path d="M146.441,290.237h23.441c12.579,0,22.812-10.234,22.812-22.812v-2.196c0-12.578-10.233-22.812-22.812-22.812h-23.441
	c-12.579,0-22.812,10.234-22.812,22.812v2.196C123.629,280.003,133.862,290.237,146.441,290.237z M138.837,265.229
	c0-4.193,3.411-7.604,7.604-7.604h23.441c4.193,0,7.604,3.411,7.604,7.604v2.196c0,4.193-3.411,7.604-7.604,7.604h-23.441
	c-4.193,0-7.604-3.411-7.604-7.604V265.229z"/>
<path d="M342.116,290.237h23.441c12.579,0,22.812-10.234,22.812-22.812v-2.196c0-12.578-10.233-22.812-22.812-22.812h-23.441
	c-12.579,0-22.812,10.234-22.812,22.812v2.196C319.305,280.003,329.537,290.237,342.116,290.237z M334.512,265.229
	c0-4.193,3.411-7.604,7.604-7.604h23.441c4.193,0,7.604,3.411,7.604,7.604v2.196c0,4.193-3.411,7.604-7.604,7.604h-23.441
	c-4.193,0-7.604-3.411-7.604-7.604V265.229z"/>
<g>
</g>
<g>
</g>
<g>
</g>
<g>
</g>
<g>
</g>
<g>
</g>
<g>
</g>
<g>
</g>
<g>
</g>
<g>
</g>
<g>
</g>
<g>
</g>
<g>
</g>
<g>
</g>
<g>
</g>
</svg>
