<?xml version="1.0" encoding="iso-8859-1"?>
<!-- Generator: Adobe Illustrator 19.0.0, SVG Export Plug-In . SVG Version: 6.00 Build 0)  -->
<svg version="1.1" id="Capa_1" xmlns="http://www.w3.org/2000/svg" xmlns:xlink="http://www.w3.org/1999/xlink" x="0px" y="0px"
	 viewBox="0 0 512.001 512.001" style="enable-background:new 0 0 512.001 512.001;" xml:space="preserve">
<rect x="162.418" y="7.791" style="fill:#D77A00;" width="187.93" height="24.037"/>
<rect x="162.418" y="7.791" style="fill:#BC6702;" width="57.65" height="24.037"/>
<rect x="178.612" y="31.827" style="fill:#D77A00;" width="155.552" height="117.129"/>
<g>
	<rect x="178.612" y="31.827" style="fill:#BC6702;" width="155.552" height="17.412"/>
	<rect x="178.612" y="31.827" style="fill:#BC6702;" width="27.766" height="98.712"/>
</g>
<path style="fill:#C25500;" d="M93.984,226.19c-22.302-34.123-60.86-106.409-19.643-147.626
	c37.021-36.896,74.042-32.575,103.5-21.263c0.26,0.093,0.509,0.187,0.769,0.291l-0.769,36.211
	c-20.92-9.453-44.178-11.655-65.836,1.174c-22.291,13.265-27.672,42.256-3.594,90.952H403.59
	c24.078-48.696,18.697-77.688-3.594-90.952c-21.658-12.828-44.915-10.626-65.836-1.174l-0.769-36.211
	c0.26-0.104,0.509-0.197,0.769-0.291c29.459-11.312,66.48-15.633,103.5,21.263c41.217,41.217,2.659,113.504-19.643,147.626"/>
<path style="fill:#D77A00;" d="M334.163,130.539c0,0,72.486,33.332,83.596,94.178c12.637,69.206-11.64,124.865-56.084,169.309
	s-48.677,56.084-48.677,77.247H199.773c0-21.163-4.233-32.803-48.677-77.247S82.376,293.924,95.014,224.717
	c11.11-60.845,83.596-94.178,83.596-94.178"/>
<path style="fill:#BC6702;" d="M219.983,471.271H199.78c0-21.159-4.238-32.804-48.676-77.241
	c-44.448-44.448-68.723-100.104-56.092-169.315c11.115-60.839,83.598-94.173,83.598-94.173h27.766c0,0-46.608,33.333-53.755,94.173
	c-8.123,69.212,7.489,124.867,36.065,169.315C217.262,438.467,219.983,450.112,219.983,471.271z"/>
<rect x="180.274" y="471.268" style="fill:#4A4D60;" width="152.218" height="32.936"/>
<rect x="180.274" y="471.268" style="fill:#393B51;" width="52.259" height="32.936"/>
<path d="M443.159,73.046c-29.475-29.376-62.675-38.129-101.207-26.623v-6.805h8.396c4.302,0,7.791-3.488,7.791-7.791V7.791
	c0-4.302-3.488-7.791-7.791-7.791H162.423c-4.302,0-7.791,3.488-7.791,7.791v24.038c0,4.302,3.488,7.791,7.791,7.791h8.396v7.039
	c-38.86-11.856-72.308-3.182-101.987,26.398c-20.067,20.066-25.458,48.321-16.021,83.976c7.28,27.507,22.07,53.942,33.603,71.798
	c-9.115,58.135,6.499,110.917,46.469,157.075c2.851,3.293,7.883,3.532,11.084,0.578l0.095-0.087
	c3.071-2.833,3.294-7.576,0.563-10.737c-4.87-5.637-9.341-11.38-13.428-17.224h250.357c-7.236,10.35-15.687,20.387-25.388,30.089
	c-39.405,39.395-49.034,54.696-50.674,74.96h-98.206c-1.444-18.024-9.124-31.896-37.861-61.895
	c-2.983-3.114-7.944-3.193-11.026-0.177l-0.051,0.05c-3.036,2.971-3.114,7.837-0.177,10.907c26.68,27.883,32.351,39.2,33.518,51.117
	h-11.414c-4.302,0-7.791,3.488-7.791,7.791v32.936c0,4.302,3.488,7.791,7.791,7.791h152.221c4.302,0,7.791-3.488,7.791-7.791
	v-32.936c0-4.302-3.488-7.791-7.791-7.791h-11.416c1.325-13.635,8.511-26.36,46.104-63.944
	c49.562-49.563,69.388-107.293,59.007-171.648c11.441-17.837,25.845-43.834,32.999-70.86
	C468.625,121.376,463.235,93.121,443.159,73.046z M324.706,496.419H188.067v-17.355h136.639V496.419z M376.719,148.78
	c-14.382-11.75-27.955-19.485-34.766-23.052V98.983c19.798-7.732,37.969-6.842,54.058,2.688c23.073,13.73,16.628,44.628,5.031,71.26
	C394.202,164.51,386.071,156.42,376.719,148.78z M170.214,15.581h172.345v8.456h-8.396H178.611h-8.396v-8.456H170.214z
	 M326.372,39.619v83.13h-14.368c-4.302,0-7.791,3.488-7.791,7.791l0,0c0,4.302,3.488,7.791,7.791,7.791h20.357
	c9.99,4.991,68.303,36.169,77.732,87.785c0.736,4.034,1.336,8.039,1.816,12.017H100.863c0.48-3.979,1.074-7.984,1.811-12.017
	c9.406-51.485,67.761-82.783,77.738-87.785h95.236c4.302,0,7.791-3.488,7.791-7.791l0,0c0-4.302-3.488-7.791-7.791-7.791h-89.246
	v-83.13H326.372z M406.007,308.988h-24.372v-55.275h31.506C413.835,272.836,411.445,291.277,406.007,308.988z M170.82,125.712
	c-10.881,5.661-38.742,21.765-59.635,47.737c-11.739-26.748-18.419-57.958,4.792-71.77c16.309-9.662,34.744-10.459,54.844-2.398
	V125.712z M79.841,84.082c16.925-16.867,44.601-37.077,90.978-21.047V82.7c-22.448-7.437-43.974-5.57-62.797,5.581
	c-13.765,8.192-21.709,21.437-22.971,38.303c-1.259,16.826,4.069,37.555,15.806,61.611c-3.623,6.041-6.766,12.498-9.238,19.356
	c-9.064-15.545-18.54-34.838-23.746-54.506C59.96,123.139,63.989,99.933,79.841,84.082z M101.732,287.576h29.427v55.275h-9.785
	C111.453,325.259,104.897,306.812,101.732,287.576z M349.89,342.851v-63.108c0-4.304-3.488-7.791-7.791-7.791h-37.036
	c-4.302,0-7.791,3.487-7.791,7.791c0,4.303,3.488,7.791,7.791,7.791h29.246v55.317h-86.004v-63.108c0-4.304-3.488-7.791-7.791-7.791
	h-37.036c-4.302,0-7.791,3.487-7.791,7.791c0,4.303,3.488,7.791,7.791,7.791h29.246v55.317H146.74v-63.065
	c0-4.304-3.488-7.791-7.791-7.791H99.925c-0.414-6.023-0.515-12.117-0.292-18.282h63.249v63.065c0,4.304,3.488,7.791,7.791,7.791
	h37.036c4.302,0,7.791-3.487,7.791-7.791c0-4.303-3.488-7.791-7.791-7.791h-29.246v-55.275h86.004v63.065
	c0,4.304,3.488,7.791,7.791,7.791h37.036c4.302,0,7.791-3.487,7.791-7.791c0-4.303-3.488-7.791-7.791-7.791h-29.246v-55.275h86.005
	v63.065c0,4.304,3.488,7.791,7.791,7.791h26.509c-2.599,6.19-5.577,12.286-8.959,18.282L349.89,342.851L349.89,342.851z
	 M444.127,153.044c-5.121,19.348-14.373,38.32-23.3,53.732c-2.428-6.503-5.568-12.911-9.393-19.181
	c11.532-23.801,16.764-44.325,15.516-61.011c-1.262-16.866-9.205-30.111-22.984-38.311c-18.595-11.015-39.843-12.961-62.012-5.821
	V62.749c23.307-8.037,56.309-12.451,90.198,21.324C448.012,99.933,452.041,123.139,444.127,153.044z"/>
<g>
</g>
<g>
</g>
<g>
</g>
<g>
</g>
<g>
</g>
<g>
</g>
<g>
</g>
<g>
</g>
<g>
</g>
<g>
</g>
<g>
</g>
<g>
</g>
<g>
</g>
<g>
</g>
<g>
</g>
</svg>
