<?xml version="1.0" encoding="iso-8859-1"?>
<!-- Generator: Adobe Illustrator 19.0.0, SVG Export Plug-In . SVG Version: 6.00 Build 0)  -->
<svg version="1.1" id="Capa_1" xmlns="http://www.w3.org/2000/svg" xmlns:xlink="http://www.w3.org/1999/xlink" x="0px" y="0px"
	 viewBox="0 0 512 512" style="enable-background:new 0 0 512 512;" xml:space="preserve">
<polygon style="fill:#515E64;" points="504.396,405.555 7.604,405.555 7.604,106.445 256,106.445 504.396,106.445 "/>
<polygon style="fill:#181423;" points="7.604,181.998 34.992,181.998 34.992,139.91 256,139.91 477.007,139.91 477.007,181.998 
	504.396,181.998 504.396,106.445 7.604,106.445 "/>
<path style="fill:#E8EBF2;" d="M56.579,338.396c-17.328-43.09-17.328-85.362,0-128.452h398.838
	c17.328,43.092,17.328,85.36,0,128.452H56.579z"/>
<g>
	<path style="fill:#2F2B39;" d="M277.205,338.396V209.992h104.654c24.369,11.059,41.301,35.624,41.301,64.202
		c0,28.479-16.931,53.143-41.301,64.202"/>
	<path style="fill:#2F2B39;" d="M90.113,338.396c-15.659-16.833-25.25-39.441-25.25-64.202c0-24.859,9.591-47.369,25.25-64.202
		h211.558v128.404"/>
</g>
<g>
	<path style="fill:#EDF0F7;" d="M352.545,320.604c25.646,0,46.435-20.789,46.435-46.435s-20.789-46.435-46.435-46.435"/>
	<path style="fill:#EDF0F7;" d="M159.455,227.735c-25.646,0-46.435,20.789-46.435,46.435s20.789,46.435,46.435,46.435"/>
</g>
<rect x="159.46" y="209.94" style="fill:#96A0A9;" width="193.09" height="128.456"/>
<rect x="187.848" y="238.328" style="fill:#75D4FE;" width="136.314" height="71.68"/>
<path d="M187.843,317.611h136.313c4.199,0,7.604-3.405,7.604-7.604v-71.676c0-4.199-3.405-7.604-7.604-7.604H187.843
	c-4.199,0-7.604,3.405-7.604,7.604v71.676C180.239,314.207,183.644,317.611,187.843,317.611z M195.447,245.935h121.105v56.468
	H195.447V245.935z"/>
<path d="M496.792,397.951H105.444c-4.199,0-7.604,3.405-7.604,7.604l0,0c0,4.199,3.405,7.604,7.604,7.604h398.952
	c4.199,0,7.604-3.405,7.604-7.604V254.661c0-4.199-3.405-7.604-7.604-7.604l0,0c-4.199,0-7.604,3.405-7.604,7.604V397.951z"/>
<path d="M504.396,98.841H7.604c-4.199,0-7.604,3.405-7.604,7.604v299.109c0,4.199,3.405,7.604,7.604,7.604h62.353
	c4.199,0,7.604-3.405,7.604-7.604l0,0c0-4.199-3.405-7.604-7.604-7.604h-54.75V189.602h19.784c4.199,0,7.604-3.405,7.604-7.604
	v-34.486h426.806v34.486c0,4.199,3.405,7.604,7.604,7.604h19.785v29.572c0,4.199,3.405,7.604,7.604,7.604l0,0
	c4.199,0,7.604-3.405,7.604-7.604V106.445C512,102.245,508.595,98.841,504.396,98.841z M484.611,174.394v-34.485
	c0-4.199-3.405-7.604-7.604-7.604H34.992c-4.199,0-7.604,3.405-7.604,7.604v34.485H15.208v-60.345h481.584v60.346h-12.182V174.394z"
	/>
<path d="M352.545,345.999h102.871c3.104,0,5.897-1.887,7.054-4.767c18.145-45.126,18.145-88.999,0-134.126
	c-1.158-2.88-3.95-4.767-7.054-4.767H352.545h-193.09H56.58c-3.104,0-5.897,1.887-7.054,4.767c-18.147,45.127-18.147,89,0,134.126
	c1.159,2.879,3.951,4.767,7.054,4.767h102.877H352.545z M151.851,312.248c-17.782-3.545-31.227-19.269-31.227-38.079
	s13.444-34.533,31.227-38.079V312.248z M151.851,220.676c-26.208,3.709-46.435,26.278-46.435,53.493s20.227,49.785,46.435,53.493
	v3.129H93.529c-13.597-15.746-21.061-35.711-21.061-56.598c0-20.908,7.48-40.893,21.105-56.646h58.279V220.676z M360.149,236.091
	c17.783,3.545,31.227,19.269,31.227,38.079s-13.445,34.533-31.227,38.079V236.091z M360.149,327.663
	c26.208-3.709,46.435-26.278,46.435-53.493s-20.228-49.785-46.435-53.493v-3.129h19.893c21.62,10.431,35.515,32.499,35.515,56.646
	c0,24.11-13.849,46.146-35.411,56.598H360.15v-3.129H360.149z M421.876,238.056c-3.976-7.618-9.186-14.558-15.434-20.508h19.089
	L421.876,238.056z M450.206,330.792h-43.715c15.03-14.338,24.051-34.406,24.258-55.848l10.229-57.397h9.228
	C464.357,255.595,464.357,292.742,450.206,330.792z M344.941,217.547v113.244H167.059V217.547H344.941z M61.789,217.547h12.697
	c-11.178,16.666-17.227,36.281-17.227,56.646c0,20.346,6.038,39.943,17.194,56.598H61.789
	C47.638,292.743,47.638,255.595,61.789,217.547z"/>
<g>
</g>
<g>
</g>
<g>
</g>
<g>
</g>
<g>
</g>
<g>
</g>
<g>
</g>
<g>
</g>
<g>
</g>
<g>
</g>
<g>
</g>
<g>
</g>
<g>
</g>
<g>
</g>
<g>
</g>
</svg>
