<?xml version="1.0" encoding="iso-8859-1"?>
<!-- Generator: Adobe Illustrator 19.0.0, SVG Export Plug-In . SVG Version: 6.00 Build 0)  -->
<svg version="1.1" id="Capa_1" xmlns="http://www.w3.org/2000/svg" xmlns:xlink="http://www.w3.org/1999/xlink" x="0px" y="0px"
	 viewBox="0 0 512.002 512.002" style="enable-background:new 0 0 512.002 512.002;" xml:space="preserve">
<path style="fill:#F4D44E;" d="M384.526,8.129c-18.589-3.605-35.655,8.235-39.784,26.715l-43.77,177.496L257.201,34.844
	c-4.128-18.48-21.195-30.32-39.784-26.715c-16.458,3.191-28.218,19.133-24.998,35.584l26.835,121.517
	c-23.109-18.94-57.588,0.476-53.187,30.116l0.187,1.261c-4.337-15.694-19.901-26.146-36.395-23.697
	c-16.423,2.438-27.962,16.923-27.962,31.794c0,4.991,0,92.822,0,87.928c0,9.976,0,55.979,0,66.022
	c0,27.364,9.013,52.621,24.232,72.968c7.617,10.183,11.541,22.658,11.541,35.374c0,0.173,0,10.026,0,9.488
	c0,15.471,12.542,28.014,28.014,28.014h153.529c15.356,0,27.806-12.449,27.806-27.806c0.026-29.378-0.06-27.522,0.065-27.617
	c2.934-2.941,39.897-24.442,49.545-72.61c8.41-42.146,9.695-68.103,9.911-69.998c2.033-26.815-16.532-50.612-42.698-55.501h-0.084
	l45.767-207.254C412.743,27.263,400.983,11.321,384.526,8.129z"/>
<path style="fill:#E8C842;" d="M173.011,476.487c0-12.604,0.936-28.181-11.541-44.862c-15.219-20.346-24.232-45.604-24.232-72.968
	c0-6.485,0-27.949,0-45.035c-10.381-4.243-18.359-13.691-20.117-25.529l-11.869-79.949c-1.815-12.23,3.459-23.953,12.706-30.966
	c-9.824,5.884-16.063,16.598-16.063,27.528c0,4.723,0,83.632,0,87.928c0,0.101,0,0.176,0,0.192c0,10.331,0,55.844,0,65.829
	c0,27.364,9.013,52.621,24.232,72.968c12.46,16.658,11.541,32.476,11.541,44.862c0,15.471,12.542,28.014,28.014,28.014h35.341
	C185.552,504.499,173.011,491.958,173.011,476.487z"/>
<path style="fill:#DBBC3B;" d="M246.493,243.636c5.3-10.239,11.145-14.675,18.881-15.577c-0.021,0.048-0.039,0.096-0.06,0.144
	c0.049-0.008,0.096-0.021,0.146-0.029L224.186,38.868c0,0-5.717-21.648,8.433-30.267c-23.301-6.19-44.413,13.584-40.201,35.112
	l26.835,121.517l23.572,102.509l0.107-0.503C241.274,259.894,242.197,251.937,246.493,243.636z"/>
<path style="fill:#E8C842;" d="M291.799,280.835c-22.549-11.451-36.174-30.811-26.425-52.776
	c-7.737,0.902-13.581,5.339-18.881,15.577c-11.876,22.947,1.915,43.304,25.281,55.17c2.286,1.161,27.846,13.882,65.272,22.922
	l1.568-2.973c4.669-8.852,0.246-19.773-9.26-22.902C307.446,288.642,293.461,281.68,291.799,280.835z"/>
<path style="fill:#F4D44E;" d="M193.673,158.115L193.673,158.115c-17.831,2.647-30.254,19.402-27.607,37.233l12.642,85.157
	c2.647,17.831,19.402,30.254,37.233,27.607h0.001c17.831-2.647,30.254-19.402,27.607-37.233l-12.642-85.157
	C228.258,167.89,211.503,155.468,193.673,158.115z"/>
<g>
	<path style="fill:#DBBC3B;" d="M211.127,275.691l-12.642-85.157c-1.829-12.319,2.773-24.008,11.027-30.836
		c-23.08-8.331-47.079,11.18-43.446,35.649l12.642,85.157c2.647,17.831,19.402,30.254,37.233,27.607
		c0.765-0.218,7.553-0.784,14.697-6.117C220.755,297.857,212.956,288.011,211.127,275.691z"/>
	<path style="fill:#DBBC3B;" d="M349.828,22.768L349.828,22.768L349.828,22.768c-6.065,9.233-1.823,1.502-48.857,189.572
		c0,0,32.331,13.415,40.216-20.086l0,0l37.085-157.555l0,0c0,0,0.001-0.008,0.002-0.009c4.337-13.775,14.489-16.564,27.611-11.452
		C401.115,15.15,367.783-4.56,349.828,22.768z"/>
	<path style="fill:#DBBC3B;" d="M146.538,285.279l-11.869-79.949c-1.773-11.947,3.199-23.401,12.013-30.456
		c-23.484-9.341-48.102,10.552-44.432,35.269l11.869,79.949c3.667,24.706,32.997,36.607,52.762,20.84
		C156.398,306.741,148.312,297.226,146.538,285.279z"/>
</g>
<path d="M385.949,0.765c-22.159-4.293-43.452,9.914-48.514,32.359l-36.469,147.887L264.497,33.124
	c-5.06-22.447-26.357-36.656-48.514-32.359c-21.157,4.103-35.153,24.909-30.895,44.567l3.424,15.508
	c0.894,4.045,4.898,6.601,8.942,5.707c4.045-0.893,6.601-4.896,5.708-8.941l-3.403-15.413c-2.356-12.301,6.681-24.294,19.081-26.699
	c13.287-2.578,27.059,4.788,31.074,21.148l43.769,177.496c1.87,7.581,12.697,7.578,14.565,0
	C353.356,31.22,352.017,36.663,352.057,36.481c3.297-14.756,16.636-23.779,31.036-20.986c12.393,2.401,21.439,14.39,19.08,26.7
	l-28.002,126.801c-0.894,4.045,1.661,8.049,5.707,8.941c4.049,0.901,8.049-1.662,8.941-5.707l28.024-126.899
	C421.193,26.686,407.762,4.996,385.949,0.765z"/>
<path d="M414.012,307.036c2.12-27.958-15.285-53.18-41.367-61.563l8.614-39.008c0.894-4.045-1.661-8.049-5.707-8.941
	c-4.052-0.898-8.049,1.662-8.941,5.707l-8.669,39.253c-46.285-7.158-73.902-23.642-92.158-21.955
	c-10.018,0.925-16.047,6.941-20.132,13.493l-7.334-49.403c-1.344-9.052-5.656-17.202-12.273-23.39l-15.334-69.443
	c-0.894-4.045-4.896-6.597-8.942-5.707c-4.045,0.893-6.601,4.896-5.708,8.941l12.482,56.52c-19.45-5.062-39.594,5.143-47.267,23.586
	c-24.05-21.157-62.515-7.236-66.582,25.301c-0.67,5.449-0.147,0.14-0.306,158.228c0,28.175,8.897,54.96,25.727,77.46
	c12.982,17.355,9.503,35.539,10.046,40.369c0,19.583,15.932,35.514,35.513,35.514h13.632c4.142,0,7.501-3.357,7.501-7.501
	S183.451,497,179.308,497h-13.631c-11.311,0-20.512-9.202-20.512-20.513c-0.546-4.499,3.33-27.479-13.035-49.355
	c-14.876-19.887-22.738-43.565-22.738-68.476v-57.796c13.112,31.266,57.069,33.388,72.89,2.918
	c7.418,7.597,17.737,12.191,28.817,12.19c1.959,0,3.944-0.144,5.94-0.439c15.516-2.304,27.656-13.226,32.303-27.182
	c4.87,5.635,11.228,10.712,18.98,14.963c2.552,1.401,25.924,13.944,60.396,22.935c0.635,0.166,1.271,0.245,1.897,0.245
	c3.331,0,6.373-2.235,7.253-5.61c1.046-4.008-1.356-8.105-5.365-9.15c-33.281-8.681-56.01-21.048-56.964-21.571
	c-29.782-16.332-22.508-37.608-19.57-43.738c6.208-12.949,8.16-14.248,38.17-4.806c9.501,2.643,16.987,7.976,68.418,16.743
	c22.547,4.264,38.233,24.685,36.499,47.546l-0.124,1.642c-2.517,33.193-8.392,60.087-10.081,69.681
	c-2.943,16.676-13.807,37.719-32.395,54.685c-2.196,1.92-11.265,9.123-27.608,13.075c-4.026,0.974-6.502,5.027-5.528,9.054
	c0.969,4.006,5.001,6.505,9.054,5.528c2.52-0.61,4.894-1.291,7.141-2.016v19.141c0,11.196-9.108,20.306-20.305,20.306H214.313
	c-4.142,0-7.501,3.357-7.501,7.501s3.358,7.501,7.501,7.501h104.895c19.468,0,35.306-15.839,35.306-35.307v-23.841
	c0.588-0.654,41.064-27.442,49.109-73.025c1.216-6.939,7.61-36.11,10.266-71.151L414.012,307.036z M150.245,310.279
	c-13.74,2.047-26.671-7.543-28.712-21.288c-12.63-85.773-12.209-80.438-12.128-84.165c0.438-21.191,25.488-32.583,41.723-18.653
	c3.716,3.189,6.396,7.319,7.788,12.128c13.1,87.951,12.245,83.131,12.87,85.996C172.291,297.014,163.116,308.368,150.245,310.279z
	 M214.834,300.691c-12.874,1.912-24.95-6.29-28.162-18.606c-0.16-1.998-12.081-83.283-13.074-87.049
	c0.016-0.403-2.385-10.092,4.612-19.531c13.576-18.309,42.027-10.524,45.27,11.318l12.642,85.156
	C238.169,285.764,228.619,298.645,214.834,300.691z"/>
<g>
</g>
<g>
</g>
<g>
</g>
<g>
</g>
<g>
</g>
<g>
</g>
<g>
</g>
<g>
</g>
<g>
</g>
<g>
</g>
<g>
</g>
<g>
</g>
<g>
</g>
<g>
</g>
<g>
</g>
</svg>
