<?xml version="1.0" encoding="iso-8859-1"?>
<!-- Generator: Adobe Illustrator 19.0.0, SVG Export Plug-In . SVG Version: 6.00 Build 0)  -->
<svg version="1.1" id="Capa_1" xmlns="http://www.w3.org/2000/svg" xmlns:xlink="http://www.w3.org/1999/xlink" x="0px" y="0px"
	 viewBox="0 0 512 512" style="enable-background:new 0 0 512 512;" xml:space="preserve">
<rect x="7.62" y="129.574" style="fill:#505962;" width="59.743" height="201.453"/>
<path style="fill:#BFC3CE;" d="M428.379,119.414v271.818c0,14.772-11.978,26.75-26.75,26.75H80.162
	c-14.772,0-26.75-11.978-26.75-26.75V131.564c0-6.705,5.445-12.151,12.151-12.151C65.562,119.413,428.379,119.413,428.379,119.414z"
	/>
<g>
	<path style="fill:#ABB0BA;" d="M401.629,377.873H80.162c-14.772,0-26.75-11.978-26.75-26.75v40.109
		c0,14.772,11.978,26.75,26.75,26.75h321.467c14.772,0,26.75-11.978,26.75-26.75v-40.109
		C428.379,365.895,416.401,377.873,401.629,377.873z"/>
	<path style="fill:#ABB0BA;" d="M428.379,137.701v97.521h-94.575c-26.933,0-48.766-21.833-48.766-48.756
		c0-13.461,5.456-25.653,14.284-34.481c8.818-8.829,21.01-14.284,34.481-14.284L428.379,137.701L428.379,137.701z"/>
</g>
<rect x="7.62" y="285.228" style="fill:#3D474F;" width="45.799" height="45.799"/>
<rect x="7.62" y="181.885" style="fill:#6A757B;" width="45.799" height="45.799"/>
<path style="fill:#E4E7EC;" d="M466.379,216.939H333.804c-26.931,0-48.764-21.832-48.764-48.764l0,0
	c0-26.931,21.832-48.764,48.764-48.764H466.38v97.527H466.379z"/>
<path style="fill:#C8CBCE;" d="M286.498,156.323c-0.948,3.796-1.458,7.764-1.458,11.853l0,0c0,26.931,21.832,48.764,48.764,48.764
	H466.38v-23.706H333.804C310.961,193.234,291.795,177.525,286.498,156.323z"/>
<polygon style="fill:#505962;" points="504.38,242.34 466.379,216.939 466.379,119.412 504.38,94.013 "/>
<polygon style="fill:#394249;" points="504.38,242.34 466.379,216.939 466.379,175.356 504.38,177.388 "/>
<path style="fill:#C8CBCE;" d="M312.469,258.436v101.392c0,12.821-10.393,23.215-23.215,23.215H110.153
	c-12.821,0-23.214-10.393-23.214-23.215V258.436c0-12.821,10.393-23.215,23.214-23.215h179.102
	C302.076,235.222,312.469,245.615,312.469,258.436z"/>
<path style="fill:#E4E7EC;" d="M312.469,258.436v81.581c0,12.821-10.393,23.214-23.215,23.214H110.153
	c-12.821,0-23.214-10.393-23.214-23.214v-81.581c0-12.821,10.393-23.215,23.214-23.215h179.102
	C302.076,235.222,312.469,245.615,312.469,258.436z"/>
<path style="fill:#EC0829;" d="M119.702,204.748h-18.286c-7.996,0-14.476-6.482-14.476-14.476l0,0
	c0-7.996,6.482-14.476,14.476-14.476h18.286c7.996,0,14.476,6.482,14.476,14.476l0,0
	C134.18,198.267,127.698,204.748,119.702,204.748z"/>
<path style="fill:#A1EA13;" d="M190.053,204.748h-18.286c-7.996,0-14.476-6.482-14.476-14.476l0,0
	c0-7.996,6.482-14.476,14.476-14.476h18.286c7.996,0,14.476,6.482,14.476,14.476l0,0
	C204.53,198.267,198.049,204.748,190.053,204.748z"/>
<path d="M420.759,391.231c0,10.566-8.565,19.13-19.13,19.13H80.162c-10.549,0-19.13-8.582-19.13-19.13l0.004-259.704
	c0.021-2.482,2.043-4.495,4.529-4.495h39.081c4.208,0,7.62-3.412,7.62-7.62l0,0c0-4.208-3.412-7.62-7.62-7.62H65.564
	c-7.413,0-13.879,4.106-17.263,10.16H7.62c-4.208,0-7.62,3.412-7.62,7.62v201.452c0,4.208,3.412,7.62,7.62,7.62h38.172v52.588
	c0,18.982,15.388,34.37,34.37,34.37h321.467c18.982,0,34.37-15.388,34.37-34.37v-81.694c0-4.208-3.412-7.62-7.62-7.62l0,0
	c-4.208,0-7.62,3.412-7.62,7.62V391.231z M15.239,323.405V137.193h30.553v186.213H15.239z"/>
<path d="M506.332,86.644c-2.172-0.586-4.498-0.094-6.368,1.155l-35.897,23.994H333.804c-0.013,0-0.026,0.001-0.04,0.001h-193.56
	c-4.208,0-7.62,3.412-7.62,7.62l0,0c0,4.208,3.412,7.62,7.62,7.62H295.31c-11.226,10.511-18.174,25.538-17.879,42.16
	c0.548,30.881,26.342,55.365,57.227,55.365h86.103v49.42c0,4.208,3.412,7.62,7.62,7.62l0,0c4.208,0,7.62-3.412,7.62-7.62v-49.42
	h28.068l36.078,24.116c1.277,0.853,2.753,1.285,4.236,1.285c1.368,0,2.743-0.369,3.966-1.113c2.34-1.425,3.652-4.075,3.652-6.815
	V94.013C512,90.623,509.75,87.566,506.332,86.644z M292.66,168.176c0-22.674,18.435-41.122,41.103-41.143l124.996-0.001v82.287
	H333.804C311.117,209.319,292.66,190.862,292.66,168.176z M496.761,228.082l-22.761-15.214v-89.382l22.761-15.214V228.082z"/>
<path d="M79.32,258.437v101.39c0,17,13.831,30.831,30.832,30.831h179.106c17,0,30.832-13.831,30.832-30.831v-101.39
	c0-17.001-13.831-30.832-30.832-30.832H110.153C93.152,227.605,79.32,241.436,79.32,258.437z M304.85,258.437v101.39
	c0,8.597-6.995,15.592-15.593,15.592H110.153c-8.598,0-15.593-6.995-15.593-15.592v-101.39c0-8.598,6.995-15.593,15.593-15.593
	h179.106C297.857,242.845,304.85,249.839,304.85,258.437z"/>
<path d="M119.702,168.175h-18.286c-12.183,0-22.096,9.913-22.096,22.097c0,12.184,9.913,22.096,22.096,22.096h18.286
	c12.183,0,22.096-9.912,22.096-22.096C141.798,178.088,131.886,168.175,119.702,168.175z M119.702,197.129h-18.286
	c-3.781,0-6.857-3.076-6.857-6.857c0-3.781,3.075-6.858,6.857-6.858h18.286c3.781,0,6.857,3.076,6.857,6.858
	C126.559,194.052,123.484,197.129,119.702,197.129z"/>
<path d="M190.053,212.368c12.183,0,22.096-9.912,22.096-22.096c0-12.184-9.913-22.097-22.096-22.097h-18.286
	c-12.183,0-22.096,9.913-22.096,22.097c0,12.184,9.913,22.096,22.096,22.096H190.053z M164.91,190.272
	c0-3.781,3.075-6.858,6.857-6.858h18.286c3.781,0,6.857,3.076,6.857,6.858c0,3.78-3.075,6.857-6.857,6.857h-18.286
	C167.987,197.129,164.91,194.052,164.91,190.272z"/>
<g>
</g>
<g>
</g>
<g>
</g>
<g>
</g>
<g>
</g>
<g>
</g>
<g>
</g>
<g>
</g>
<g>
</g>
<g>
</g>
<g>
</g>
<g>
</g>
<g>
</g>
<g>
</g>
<g>
</g>
</svg>
