<?xml version="1.0" encoding="iso-8859-1"?>
<!-- Generator: Adobe Illustrator 19.0.0, SVG Export Plug-In . SVG Version: 6.00 Build 0)  -->
<svg version="1.1" id="Capa_1" xmlns="http://www.w3.org/2000/svg" xmlns:xlink="http://www.w3.org/1999/xlink" x="0px" y="0px"
	 viewBox="0 0 512.003 512.003" style="enable-background:new 0 0 512.003 512.003;" xml:space="preserve">
<polyline style="fill:#C3C5D3;" points="477.724,285.915 502.07,301.566 502.07,225.919 477.724,241.57 "/>
<rect x="40.553" y="249.621" style="fill:#2A292F;" width="79.257" height="106.636"/>
<rect x="40.553" y="249.621" style="fill:#3D3C42;" width="79.257" height="62.827"/>
<polygon style="fill:#2A292F;" points="64.253,356.254 7.583,396.961 7.583,208.914 64.253,249.621 "/>
<polygon style="fill:#3D3C42;" points="64.253,249.621 7.583,208.914 7.583,312.453 64.253,312.453 "/>
<g>
	<circle style="fill:#292830;" cx="372.098" cy="116.405" r="107.677"/>
	<circle style="fill:#292830;" cx="156.754" cy="116.405" r="107.677"/>
</g>
<polyline style="fill:#575C62;" points="294.675,392.963 440.59,392.963 440.59,212.915 96.104,212.915 96.104,392.963 
	242.019,392.963 "/>
<path style="fill:#292830;" d="M308.762,285.915h168.962V241.57H308.762c-6.891,0-12.478,5.587-12.478,12.478v19.387
	C296.282,280.328,301.87,285.915,308.762,285.915z"/>
<g>
	<circle style="fill:#BFC8D1;" cx="372.098" cy="116.405" r="33.203"/>
	<circle style="fill:#BFC8D1;" cx="156.754" cy="116.405" r="33.203"/>
</g>
<g>
	<circle style="fill:#292830;" cx="268.344" cy="416.405" r="35.259"/>
	<circle style="fill:#292830;" cx="486.792" cy="416.405" r="17.629"/>
</g>
<circle style="fill:#C3C5D3;" cx="156.754" cy="283.4" r="28.814"/>
<path d="M372.102,157.196c22.489,0,40.786-18.297,40.786-40.786s-18.297-40.786-40.786-40.786s-40.786,18.296-40.786,40.786
	S349.613,157.196,372.102,157.196z M372.102,90.788c14.127,0,25.62,11.493,25.62,25.62c0,14.127-11.493,25.62-25.62,25.62
	c-14.127,0-25.62-11.494-25.62-25.62S357.976,90.788,372.102,90.788z"/>
<path d="M156.759,157.196c22.489,0,40.786-18.297,40.786-40.786s-18.297-40.786-40.786-40.786s-40.786,18.296-40.786,40.786
	S134.27,157.196,156.759,157.196z M156.759,90.788c14.127,0,25.62,11.493,25.62,25.62c0,14.127-11.493,25.62-25.62,25.62
	s-25.62-11.494-25.62-25.62S142.631,90.788,156.759,90.788z"/>
<path d="M489.063,391.297c-12.232-1.078-22.878,6.641-26.32,17.529H310.499c-0.515-2.868-1.314-5.638-2.371-8.28H440.59
	c4.188,0,7.583-3.395,7.583-7.583v-99.466h27.324l22.474,14.447c1.246,0.801,2.672,1.204,4.101,1.204
	c1.783,0,3.57-0.627,5.017-1.895c1.693-1.483,2.566-3.694,2.566-5.945v-75.163c0-2.215-0.856-4.392-2.509-5.867
	c-2.611-2.328-6.352-2.551-9.173-0.74l-22.474,14.447h-27.324v-21.072c0-2.861-1.585-5.35-3.925-6.642
	c9.88-7.935,18.446-17.471,25.296-28.287c11.656-18.404,17.818-39.697,17.818-61.576c0-63.555-51.706-115.26-115.26-115.26
	c-49.076,0-91.078,30.838-107.668,74.154C247.843,31.988,205.837,1.148,156.758,1.148c-63.549,0-115.25,51.705-115.25,115.26
	c0,21.881,6.159,43.174,17.812,61.576c7.89,12.461,18.049,23.232,29.884,31.8c-0.434,0.955-0.681,2.012-0.681,3.13v29.124H66.694
	l-54.687-39.284c-2.774-1.993-6.608-1.921-9.34,0.381C0.919,204.61,0,206.848,0,209.133V396.66c0,2.74,1.325,5.386,3.673,6.797
	c1.21,0.728,2.563,1.086,3.909,1.086c1.56,0,3.111-0.48,4.425-1.425l54.687-39.284h21.827v29.127c0,4.188,3.395,7.583,7.583,7.583
	h18.147c4.188,0,7.583-3.395,7.583-7.583l0,0c0-4.188-3.395-7.583-7.583-7.583h-10.565V220.497h329.321v13.489H308.762
	c-11.08,0-20.062,8.982-20.062,20.062v19.387c0,11.08,8.982,20.061,20.061,20.061h57.244c4.188,0,7.583-3.395,7.583-7.583l0,0
	c0-4.188-3.395-7.583-7.583-7.583h-57.243c-2.705,0-4.897-2.192-4.897-4.897v-19.387c0-2.704,2.192-4.896,4.896-4.896h161.38v29.179
	h-68.749c-4.188,0-7.583,3.395-7.583,7.583l0,0c0,4.188,3.395,7.583,7.583,7.583h31.615v91.883h-135.17
	c-7.688-7.311-18.073-11.813-29.493-11.813c-11.422,0-21.805,4.502-29.493,11.813h-89.21c-4.188,0-7.583,3.395-7.583,7.583l0,0
	c0,4.188,3.395,7.583,7.583,7.583h78.921c-1.964,4.91-3.056,10.259-3.056,15.862c0,10.543,3.836,20.204,10.176,27.676h-3.732
	c-4.152,0-7.773,3.199-7.897,7.349c-0.129,4.294,3.313,7.816,7.58,7.816h23.602l-23.153,40.239
	c-2.088,3.63-0.839,8.266,2.792,10.354c3.629,2.089,8.265,0.84,10.354-2.791l23.12-40.181l23.121,40.181
	c1.403,2.438,3.955,3.803,6.58,3.803c1.283,0,2.583-0.327,3.774-1.012c3.631-2.089,4.879-6.725,2.792-10.354l-23.154-40.239h23.285
	c4.152,0,7.773-3.199,7.897-7.349c0.129-4.294-3.313-7.816-7.58-7.816h-4.05c4.783-5.638,8.132-12.522,9.491-20.093h152.245
	c3.226,10.208,12.785,17.629,24.045,17.629c14.44,0,26.083-12.201,25.161-26.835C511.174,402.486,501.338,392.379,489.063,391.297z
	 M15.166,223.698l41.504,29.813v98.853l-41.504,29.814V223.698z M88.516,348.67h-16.68v-91.466h16.68
	C88.516,257.204,88.516,348.67,88.516,348.67z M372.101,16.315c55.192,0,100.094,44.902,100.094,100.094
	c0,37.739-20.715,71.645-54.165,88.922h-91.858c-33.445-17.274-54.155-51.181-54.155-88.922
	C272.017,61.217,316.915,16.315,372.101,16.315z M298.797,205.332h-68.725c9.391-7.745,17.554-16.954,24.134-27.346
	c4.107-6.486,7.516-13.336,10.229-20.439c2.713,7.103,6.122,13.954,10.229,20.439C281.243,188.377,289.406,197.587,298.797,205.332z
	 M56.673,116.41c0-55.192,44.898-100.094,100.084-100.094c55.192,0,100.094,44.902,100.094,100.094
	c0,37.742-20.71,71.648-54.155,88.922h-91.868C77.383,188.058,56.673,154.151,56.673,116.41z M494.487,287.676l-9.18-5.902V245.71
	l9.18-5.902V287.676z M240.668,416.409c0-15.261,12.415-27.676,27.675-27.676c15.261,0,27.676,12.415,27.676,27.676
	c0,15.26-12.415,27.676-27.676,27.676C253.083,444.084,240.668,431.668,240.668,416.409z M486.788,426.454
	c-5.54,0-10.047-4.507-10.047-10.046c0-5.54,4.506-10.047,10.047-10.047s10.047,4.507,10.047,10.047
	C496.834,421.947,492.328,426.454,486.788,426.454z"/>
<path d="M156.759,319.793c20.069,0,36.397-16.328,36.397-36.397s-16.328-36.397-36.397-36.397s-36.396,16.328-36.396,36.397
	S136.69,319.793,156.759,319.793z M156.759,262.166c11.707,0,21.231,9.524,21.231,21.231c0,11.707-9.524,21.231-21.231,21.231
	c-11.706,0-21.23-9.524-21.23-21.231C135.529,271.69,145.053,262.166,156.759,262.166z"/>
<path d="M239.667,347.84c0-4.188-3.394-7.583-7.583-7.583H127.946c-4.189,0-7.583,3.395-7.583,7.583
	c0,4.188,3.394,7.583,7.583,7.583h104.139C236.272,355.423,239.667,352.028,239.667,347.84z"/>
<g>
</g>
<g>
</g>
<g>
</g>
<g>
</g>
<g>
</g>
<g>
</g>
<g>
</g>
<g>
</g>
<g>
</g>
<g>
</g>
<g>
</g>
<g>
</g>
<g>
</g>
<g>
</g>
<g>
</g>
</svg>
