<?xml version="1.0" encoding="iso-8859-1"?>
<!-- Generator: Adobe Illustrator 19.0.0, SVG Export Plug-In . SVG Version: 6.00 Build 0)  -->
<svg version="1.1" id="Capa_1" xmlns="http://www.w3.org/2000/svg" xmlns:xlink="http://www.w3.org/1999/xlink" x="0px" y="0px"
	 viewBox="0 0 511.999 511.999" style="enable-background:new 0 0 511.999 511.999;" xml:space="preserve">
<rect x="163.649" y="430.672" style="fill:#3D3C42;" width="229.091" height="73.725"/>
<rect x="163.649" y="430.672" style="fill:#2A292F;" width="229.091" height="48.657"/>
<path style="fill:#292830;" d="M158.315,7.603c-74.313,0-134.556,60.253-134.556,134.566c0,69.579,52.813,126.831,120.547,133.826
	l118.742-49.336c4.491-5.555,8.545-11.475,12.113-17.709l9.853-112.194C266.393,44.784,216.703,7.603,158.315,7.603z M76.572,80.243
	l47.906,47.906H56.724C59.157,110.309,66.182,93.927,76.572,80.243z M56.725,156.188h67.754l-47.906,47.906
	C66.182,190.399,59.157,174.028,56.725,156.188z M144.306,243.769c-17.841-2.443-34.222-9.468-47.917-19.848l47.917-47.917V243.769z
	 M144.306,108.332L96.389,60.415c13.695-10.39,30.076-17.405,47.917-19.848V108.332z M172.334,40.567
	c17.841,2.443,34.222,9.458,47.917,19.848l-47.917,47.917V40.567z M216.459,226.659h-44.125v-50.654l47.917,47.917
	C219.014,224.864,217.747,225.777,216.459,226.659z M240.069,204.094l-47.906-47.906h67.754
	C257.483,174.028,250.459,190.399,240.069,204.094z M192.162,128.149l47.906-47.906c10.39,13.685,17.415,30.066,19.848,47.906
	H192.162z"/>
<path style="fill:#45454C;" d="M380.138,46.487c-39.523,0-74.394,19.919-95.124,50.268c-12.62,18.469-20,40.801-20,64.855
	c0,16.868,3.629,32.894,10.147,47.339c2.818,6.214,6.163,12.134,9.995,17.709l106.974,49.447
	c57.942-6.001,103.122-54.972,103.122-114.495C495.251,98.033,443.716,46.487,380.138,46.487z M310.194,108.626l40.993,40.993
	h-57.972C295.303,134.353,301.314,120.344,310.194,108.626z M293.215,173.603h57.972l-40.993,40.983
	C301.314,202.878,295.303,188.858,293.215,173.603z M368.146,226.659h-36.107l36.107-36.097V226.659z M368.146,132.66
	l-40.993-40.993c11.718-8.89,25.727-14.891,40.993-16.979V132.66z M467.061,149.619h-57.972l40.983-40.993
	C458.962,120.344,464.973,134.353,467.061,149.619z M392.13,74.688c15.266,2.088,29.275,8.089,40.983,16.979L392.13,132.66V74.688z
	 M392.13,248.534v-57.972l40.983,40.983C421.405,240.434,407.396,246.446,392.13,248.534z M450.072,214.586l-40.983-40.983h57.972
	C464.973,188.858,458.962,202.878,450.072,214.586z"/>
<rect x="49.803" y="316.379" style="fill:#2A292F;" width="79.462" height="106.913"/>
<rect x="49.803" y="316.379" style="fill:#3D3C42;" width="79.462" height="62.99"/>
<polygon style="fill:#2A292F;" points="73.566,423.29 16.75,464.103 16.75,275.569 73.566,316.381 "/>
<polygon style="fill:#3D3C42;" points="73.566,316.381 16.75,275.569 16.75,379.375 73.566,379.375 "/>
<polyline style="fill:#575C62;" points="304.587,460.095 450.881,460.095 450.881,279.579 105.5,279.579 105.5,460.095 
	251.794,460.095 "/>
<polyline style="fill:#3D3C42;" points="144.304,279.581 144.304,226.657 392.129,226.657 392.129,253.772 392.129,279.581 "/>
<circle style="fill:#C3C5D3;" cx="166.315" cy="350.246" r="28.889"/>
<circle style="fill:#515B64;" cx="158.317" cy="142.168" r="34.157"/>
<circle style="fill:#292830;" cx="380.14" cy="161.611" r="29.222"/>
<rect x="260.85" y="313.5" style="fill:#C3C5D3;" width="156.107" height="51.698"/>
<path d="M166.313,386.736c20.122,0,36.491-16.37,36.491-36.491s-16.37-36.491-36.491-36.491s-36.491,16.37-36.491,36.491
	S146.192,386.736,166.313,386.736z M166.313,328.959c11.737,0,21.286,9.549,21.286,21.286s-9.549,21.286-21.286,21.286
	s-21.286-9.549-21.286-21.286S154.576,328.959,166.313,328.959z"/>
<path d="M249.436,414.854c0-4.199-3.404-7.603-7.603-7.603H137.425c-4.199,0-7.603,3.404-7.603,7.603
	c0,4.199,3.404,7.603,7.603,7.603h104.409C246.033,422.457,249.436,419.053,249.436,414.854z"/>
<path d="M380.139,38.885c-36.033,0-69.952,15.806-93.146,42.838C263.775,32.346,213.655,0,158.315,0
	C79.929,0,16.157,63.777,16.157,142.168c0,35.39,13.086,69.302,36.845,95.491c13.831,15.245,30.603,27.147,49.12,35.117
	c-2.502,1.245-4.224,3.82-4.224,6.803v29.199H76.013l-54.829-39.385c-2.784-2-6.63-1.925-9.369,0.387
	c-1.75,1.478-2.669,3.721-2.669,6.012v188.01c0,2.747,1.329,5.4,3.683,6.815c1.213,0.73,2.57,1.089,3.919,1.089
	c1.563,0,3.119-0.482,4.436-1.428l54.829-39.385h21.884v29.202c0,4.199,3.404,7.603,7.603,7.603h9.48
	c4.199,0,7.603-3.404,7.603-7.603l0,0c0-4.199-3.404-7.603-7.603-7.603h-1.877V287.18h197.516c4.199,0,7.603-3.404,7.603-7.603l0,0
	c0-4.199-3.404-7.603-7.603-7.603H151.906v-37.717h232.62v37.717H346.1c-4.199,0-7.603,3.404-7.603,7.603l0,0
	c0,4.199,3.404,7.603,7.603,7.603h97.178v165.311H150.459c-4.199,0-7.603,3.404-7.603,7.603l0,0c0,4.199,3.404,7.603,7.603,7.603
	h5.582v36.7c0,4.199,3.404,7.603,7.603,7.603h229.091c4.199,0,7.603-3.404,7.603-7.603v-36.7h50.542
	c4.199,0,7.603-3.404,7.603-7.603V279.578c0-4.199-3.404-7.603-7.603-7.603h-17.047c13.933-6.787,26.583-16.219,37.216-27.94
	c20.51-22.606,31.804-51.879,31.804-82.426C502.855,93.94,447.804,38.885,380.139,38.885z M24.352,290.391l41.612,29.89v99.109
	l-41.612,29.89C24.352,449.281,24.352,290.391,24.352,290.391z M97.892,415.687H81.169v-91.703h16.725v91.703H97.892z
	 M385.134,496.795H171.247v-29.098h213.886V496.795z M64.263,227.442c-21.216-23.385-32.901-53.669-32.901-85.274
	c0-70.008,56.952-126.963,126.953-126.963c52.227,0,99.253,32.252,118.214,80.626c-4.353,6.837-7.989,14.037-10.881,21.508
	c-3.481-15.06-10.132-29.318-19.521-41.696c-1.328-1.75-3.347-2.84-5.539-2.989c-2.196-0.149-4.341,0.656-5.894,2.209
	l-42.677,42.677c-2.541-3.468-5.603-6.53-9.071-9.071l42.677-42.677c1.553-1.553,2.359-3.702,2.209-5.894
	c-0.149-2.192-1.24-4.211-2.989-5.539c-15.029-11.403-32.829-18.776-51.476-21.326c-2.175-0.298-4.373,0.36-6.028,1.804
	c-1.654,1.443-2.604,3.532-2.604,5.728V100.9c-2.091-0.323-4.233-0.494-6.415-0.494s-4.322,0.169-6.415,0.494V40.567
	c0-2.197-0.95-4.285-2.604-5.728s-3.854-2.1-6.028-1.804c-18.648,2.548-36.447,9.923-51.476,21.326
	c-1.751,1.328-2.84,3.347-2.989,5.539c-0.15,2.192,0.656,4.341,2.209,5.894l42.676,42.677c-3.468,2.541-6.53,5.604-9.071,9.071
	L81.945,74.864c-1.553-1.553-3.705-2.36-5.894-2.209c-2.192,0.149-4.211,1.24-5.539,2.989
	c-11.403,15.03-18.777,32.829-21.326,51.476c-0.297,2.175,0.36,4.373,1.804,6.028s3.532,2.604,5.728,2.604h60.333
	c-0.323,2.091-0.494,4.233-0.494,6.415c0,2.181,0.169,4.322,0.494,6.415H56.719c-2.197,0-4.285,0.95-5.728,2.604
	s-2.101,3.853-1.804,6.028c2.548,18.647,9.923,36.447,21.327,51.477c1.328,1.751,3.347,2.84,5.539,2.989
	c0.173,0.012,0.346,0.018,0.518,0.018c2.009,0,3.945-0.797,5.376-2.227l42.677-42.677c2.541,3.468,5.603,6.53,9.071,9.071
	l-42.677,42.677c-1.553,1.553-2.359,3.702-2.209,5.894c0.149,2.192,1.24,4.211,2.989,5.539
	c13.253,10.055,28.661,16.972,44.903,20.216v17.089C108.896,262.51,83.424,248.562,64.263,227.442z M136.701,226.657v7.983
	c-10.055-2.348-19.691-6.342-28.476-11.802l28.476-28.476V226.657z M131.766,142.167c0-14.643,11.912-26.554,26.554-26.554
	s26.554,11.912,26.554,26.554s-11.912,26.554-26.554,26.554S131.766,156.809,131.766,142.167z M136.701,89.973l-28.476-28.477
	c8.786-5.461,18.422-9.454,28.476-11.802V89.973z M259.921,135.753c0.081,0,0.161-0.01,0.242-0.013
	c-0.907,4.229-1.598,8.513-2.055,12.841h-58.522c0.323-2.091,0.494-4.233,0.494-6.415s-0.169-4.322-0.494-6.415h60.334V135.753z
	 M210.514,120.548l28.477-28.476c5.461,8.786,9.454,18.422,11.802,28.476C250.794,120.548,210.514,120.548,210.514,120.548z
	 M250.793,163.786c-2.349,10.055-6.342,19.691-11.803,28.477l-28.477-28.477H250.793z M225.627,218.546l-42.681-42.681
	c3.468-2.541,6.53-5.603,9.071-9.071l42.677,42.677c1.43,1.43,3.366,2.227,5.376,2.227c0.172,0,0.345-0.006,0.518-0.018
	c2.192-0.149,4.211-1.24,5.539-2.989c5.488-7.233,10.031-15.112,13.565-23.413c1.541,7.89,3.86,15.607,6.953,23.101
	c-2.251,3.676-4.698,7.245-7.316,10.677h-33.245C225.938,218.88,225.789,218.707,225.627,218.546z M204.632,219.054h-24.695v-24.695
	L204.632,219.054z M179.94,89.973V49.695c10.055,2.348,19.691,6.342,28.476,11.802L179.94,89.973z M106.127,120.548H65.848
	c2.348-10.055,6.342-19.691,11.802-28.476L106.127,120.548z M106.127,163.786L77.65,192.263
	c-5.461-8.787-9.455-18.423-11.803-28.477H106.127z M151.906,183.433c2.091,0.323,4.233,0.494,6.415,0.494
	c2.18,0,4.321-0.169,6.412-0.493v35.621h-12.826V183.433z M351.198,184.339c1.816,2.307,3.902,4.392,6.209,6.209l-28.514,28.506
	h-12.409L351.198,184.339z M311.333,202.702c-4.002-6.695-7.009-13.949-8.911-21.5h30.411L311.333,202.702z M360.543,114.302
	l-21.499-21.5c6.695-4.002,13.949-7.009,21.499-8.911V114.302z M399.732,226.657v-17.743l21.499,21.499
	c-6.695,4.002-13.949,7.009-21.499,8.911L399.732,226.657L399.732,226.657z M401.757,161.608c0,11.921-9.699,21.62-21.62,21.62
	s-21.62-9.699-21.62-21.62c0-11.921,9.699-21.62,21.62-21.62S401.757,149.687,401.757,161.608z M360.544,219.054h-10.145
	l10.145-10.142V219.054z M375.749,219.054v-20.892c1.439,0.171,2.902,0.271,4.387,0.271c1.486,0,2.949-0.098,4.389-0.271v20.892
	H375.749z M459.789,233.821c-15.929,17.558-37.013,29.247-60.057,33.495v-12.399c13.732-2.88,26.751-8.794,37.98-17.313
	c1.751-1.328,2.84-3.347,2.989-5.539c0.15-2.192-0.656-4.341-2.209-5.894l-35.625-35.625c2.307-1.817,4.391-3.901,6.208-6.208
	l35.624,35.625c1.43,1.43,3.366,2.227,5.376,2.227c0.172,0,0.346-0.006,0.518-0.018c2.192-0.149,4.211-1.24,5.539-2.989
	c9.869-13.009,16.252-28.415,18.458-44.554c0.297-2.175-0.36-4.373-1.804-6.028c-1.444-1.655-3.533-2.604-5.728-2.604h-50.368
	c0.172-1.44,0.271-2.903,0.271-4.389c0-1.486-0.098-2.949-0.271-4.389h50.368c2.197,0,4.285-0.95,5.728-2.604
	c1.443-1.654,2.101-3.853,1.804-6.028c-2.206-16.139-8.589-31.546-18.458-44.554c-1.328-1.751-3.347-2.84-5.539-2.989
	c-2.196-0.149-4.341,0.656-5.894,2.209l-35.624,35.624c-1.816-2.307-3.901-4.391-6.208-6.208l35.624-35.625
	c1.553-1.553,2.359-3.702,2.209-5.894c-0.149-2.192-1.24-4.211-2.989-5.539c-13.009-9.869-28.415-16.252-44.554-18.457
	c-2.175-0.299-4.373,0.36-6.028,1.804c-1.654,1.443-2.604,3.533-2.604,5.728v50.368c-1.44-0.172-2.903-0.271-4.389-0.271
	c-1.486,0-2.949,0.098-4.389,0.271V74.686c0-2.196-0.95-4.285-2.604-5.728c-1.654-1.444-3.854-2.101-6.028-1.804
	c-16.139,2.206-31.546,8.588-44.554,18.457c-1.75,1.328-2.84,3.347-2.989,5.539c-0.15,2.192,0.656,4.341,2.209,5.894l35.624,35.625
	c-2.307,1.817-4.391,3.901-6.208,6.208l-35.624-35.624c-1.553-1.553-3.702-2.36-5.894-2.209c-2.192,0.149-4.211,1.24-5.539,2.989
	c-9.869,13.009-16.252,28.415-18.458,44.554c-0.297,2.175,0.36,4.373,1.804,6.028c1.444,1.655,3.533,2.604,5.728,2.604h50.368
	c-0.172,1.44-0.271,2.903-0.271,4.389c0,1.486,0.098,2.949,0.271,4.389h-50.368c-2.196,0-4.285,0.95-5.728,2.604
	c-1.444,1.654-2.101,3.853-1.804,6.028c2.199,16.086,8.548,31.443,18.363,44.425h-14.784c-2.688-4.238-5.102-8.671-7.17-13.232
	c-6.287-13.932-9.475-28.807-9.475-44.212c0-21.743,6.458-42.687,18.676-60.567c20.082-29.401,53.295-46.954,88.845-46.954
	c59.282,0,107.511,48.234,107.511,107.521C487.65,188.373,477.755,214.017,459.789,233.821z M427.441,181.202h30.411
	c-1.903,7.551-4.909,14.805-8.911,21.5L427.441,181.202z M427.441,142.013l21.499-21.499c4.002,6.695,7.009,13.949,8.911,21.499
	H427.441z M399.732,114.302v-30.41c7.551,1.903,14.804,4.909,21.499,8.911L399.732,114.302z M332.832,142.013h-30.41
	c1.903-7.551,4.909-14.804,8.911-21.499L332.832,142.013z"/>
<path d="M416.962,372.799c4.199,0,7.603-3.404,7.603-7.603v-51.698c0-4.199-3.404-7.603-7.603-7.603H260.856
	c-4.199,0-7.603,3.404-7.603,7.603v51.698c0,4.199,3.404,7.603,7.603,7.603H416.962z M268.458,321.101h140.901v36.492H268.458
	V321.101z"/>
<g>
</g>
<g>
</g>
<g>
</g>
<g>
</g>
<g>
</g>
<g>
</g>
<g>
</g>
<g>
</g>
<g>
</g>
<g>
</g>
<g>
</g>
<g>
</g>
<g>
</g>
<g>
</g>
<g>
</g>
</svg>
