<?xml version="1.0" encoding="iso-8859-1"?>
<!-- Generator: Adobe Illustrator 19.0.0, SVG Export Plug-In . SVG Version: 6.00 Build 0)  -->
<svg version="1.1" id="Capa_1" xmlns="http://www.w3.org/2000/svg" xmlns:xlink="http://www.w3.org/1999/xlink" x="0px" y="0px"
	 viewBox="0 0 511.999 511.999" style="enable-background:new 0 0 511.999 511.999;" xml:space="preserve">
<g>
	<path style="fill:#3A3A49;" d="M266.786,469.788c0,12.059-7.26,22.423-17.655,26.957c-3.594,1.572-7.566,2.44-11.742,2.44
		c-16.235,0-29.387-13.162-29.387-29.397s13.152-29.397,29.387-29.397c4.176,0,8.148,0.868,11.742,2.44
		C259.526,447.365,266.786,457.729,266.786,469.788z"/>
	<path style="fill:#3A3A49;" d="M100.227,469.788c0,12.059-7.26,22.423-17.655,26.957c-3.594,1.572-7.566,2.44-11.742,2.44
		c-16.235,0-29.397-13.162-29.397-29.397s13.162-29.397,29.397-29.397c4.176,0,8.148,0.868,11.742,2.44
		C92.967,447.365,100.227,457.729,100.227,469.788z"/>
</g>
<g>
	<path style="fill:#525263;" d="M266.786,469.788c0,12.059-7.26,22.423-17.655,26.957c-10.384-4.534-17.644-14.898-17.644-26.957
		c0-12.059,7.26-22.423,17.644-26.957C259.526,447.365,266.786,457.729,266.786,469.788z"/>
	<path style="fill:#525263;" d="M100.227,469.788c0,12.059-7.26,22.423-17.655,26.957c-10.395-4.534-17.655-14.898-17.655-26.957
		c0-12.059,7.26-22.423,17.655-26.957C92.967,447.365,100.227,457.729,100.227,469.788z"/>
	<rect x="138.919" y="345.33" style="fill:#525263;" width="30.379" height="106.591"/>
</g>
<rect x="138.919" y="345.33" style="fill:#3A3A49;" width="15.19" height="106.591"/>
<path style="fill:#CAD3D8;" d="M180.473,167.883l-18.994-6.575l0,0l3.347,1.159c15.537,5.378,31.742-6.161,31.742-22.603
	c0-10.194-6.461-19.268-16.094-22.603l-37.078-12.835c-15.537-5.378-31.742,6.161-31.742,22.603l0,0
	c0,10.194,6.461,19.268,16.094,22.603l13.309,4.607v0.138c-14.782-3.527-29.403,7.657-29.403,23.274
	c0,10.194,6.461,19.268,16.094,22.603l13.309,4.607v0.138c-14.782-3.527-29.403,7.656-29.403,23.274
	c0,10.194,6.461,19.268,16.094,22.603l13.309,4.607v0.139c-14.782-3.527-29.403,7.656-29.403,23.274l0,0
	c0,10.194,6.461,19.268,16.094,22.603l37.078,12.834c15.537,5.378,31.742-6.161,31.742-22.603c0-10.194-6.461-19.268-16.094-22.603
	l-18.994-6.575l0,0l3.347,1.159c15.537,5.378,31.742-6.161,31.742-22.603l0,0c0-10.194-6.461-19.268-16.094-22.603l-15.646-5.416
	c15.537,5.377,31.741-6.162,31.741-22.603l0,0C196.568,180.291,190.106,171.217,180.473,167.883z"/>
<g>
	<path style="fill:#A5B1B7;" d="M153.246,158.458c-9.633-3.335-16.094-12.408-16.094-22.603l0,0
		c0-16.441,16.206-27.981,31.742-22.603l-25.498-8.826c-15.537-5.378-31.742,6.161-31.742,22.603l0,0
		c0,10.194,6.461,19.268,16.094,22.603L153.246,158.458z"/>
	<path style="fill:#A5B1B7;" d="M153.246,209.08c-9.633-3.335-16.094-12.408-16.094-22.603l0,0
		c0-16.441,16.206-27.981,31.742-22.603l-25.498-8.826c-15.537-5.378-31.742,6.161-31.742,22.603l0,0
		c0,10.194,6.461,19.268,16.094,22.603L153.246,209.08z"/>
	<path style="fill:#A5B1B7;" d="M153.246,259.702c-9.633-3.335-16.094-12.408-16.094-22.603l0,0
		c0-16.441,16.206-27.981,31.742-22.603l-25.498-8.826c-15.537-5.378-31.742,6.161-31.742,22.603l0,0
		c0,10.194,6.461,19.268,16.094,22.603L153.246,259.702z"/>
	<path style="fill:#A5B1B7;" d="M153.246,310.324c-9.633-3.335-16.094-12.408-16.094-22.603l0,0
		c0-16.441,16.206-27.981,31.742-22.603l-25.498-8.826c-15.537-5.378-31.742,6.161-31.742,22.603l0,0
		c0,10.194,6.461,19.268,16.094,22.603L153.246,310.324z"/>
</g>
<polygon style="fill:#525263;" points="443.346,55.374 359.979,55.374 332.76,103.091 470.565,103.091 "/>
<polygon style="fill:#3A3A49;" points="382.33,55.374 359.979,55.374 332.757,103.089 377.46,103.089 "/>
<path style="fill:#738287;" d="M225.337,7.658L225.337,7.658c0,26.353-21.363,47.716-47.716,47.716h-40.826
	c-13.886,0-25.142,11.256-25.142,25.142v22.574h149.609l0,0c0-26.353,21.363-47.716,47.716-47.716h134.366V7.658H225.337z"/>
<polygon style="fill:#525263;" points="470.563,315.665 443.341,363.381 359.98,363.381 332.758,315.665 "/>
<polygon style="fill:#3A3A49;" points="382.331,363.381 359.98,363.381 332.758,315.665 377.461,315.665 "/>
<g>
	<path style="fill:#738287;" d="M225.337,411.101L225.337,411.101c0-26.353-21.363-47.716-47.716-47.716h-40.826
		c-13.886,0-25.142-11.256-25.142-25.142v-22.575h149.609l0,0c0,26.353,21.363,47.716,47.716,47.716h134.366V411.1H225.337V411.101z
		"/>
	<rect x="125.839" y="433.858" style="fill:#738287;" width="56.537" height="70.475"/>
</g>
<rect x="125.839" y="433.858" style="fill:#546266;" width="20.663" height="70.475"/>
<path d="M470.565,308.009H332.981c-2.169,0-4.303,0.812-5.786,2.393c-2.361,2.518-2.725,6.185-1.086,9.059l20.686,36.264H308.98
	c-22.05,0-39.996-17.908-40.058-39.943c-0.012-4.275-3.384-7.773-7.658-7.773h-16.225c-4.229,0-7.658,3.429-7.658,7.658l0,0
	c0,4.229,3.429,7.658,7.658,7.658h9.094c3.741,26.923,26.912,47.716,54.847,47.716h51h75.709v32.4H232.468
	c-3.741-26.923-26.911-47.716-54.846-47.716h-8.321h-30.379h-2.126c-9.656,0-17.484-7.828-17.484-17.484v-14.916h89.987
	c4.229,0,7.658-3.429,7.658-7.658l0,0c0-4.229-3.429-7.658-7.658-7.658h-9.549c2.904-4.817,4.475-10.389,4.475-16.28
	c0-10.149-4.866-19.462-12.714-25.315c8.083-6.013,12.714-15.192,12.714-25.308c0-10.149-4.866-19.462-12.714-25.315
	c8.083-6.013,12.714-15.192,12.714-25.308c0-10.149-4.866-19.462-12.714-25.315c8.083-6.013,12.714-15.192,12.714-25.308
	c0-12.781-7.719-24.231-19.392-29.114h76.43c4.275,0,7.646-3.499,7.658-7.773c0.062-22.035,18.009-39.943,40.058-39.943h37.815
	l-20.576,36.071c-1.075,1.884-1.427,4.139-0.789,6.212c1.016,3.299,4.022,5.433,7.33,5.433h137.584c2.169,0,4.303-0.812,5.786-2.393
	c2.362-2.518,2.726-6.186,1.087-9.059l-26.213-45.953V7.658c0-4.229-3.429-7.658-7.658-7.658h-68.631
	c-4.229,0-7.658,3.429-7.658,7.658l0,0c0,4.229,3.429,7.658,7.658,7.658h60.973v32.4h-75.709h-51
	c-27.936,0-51.106,20.794-54.847,47.716H119.311V80.516c0-9.656,7.828-17.484,17.484-17.484h40.826
	c27.936,0,51.106-20.794,54.846-47.716h106.507c4.229,0,7.658-3.429,7.658-7.658l0,0c0-4.229-3.429-7.658-7.658-7.658L225.337,0
	c-4.275,0-7.646,3.499-7.658,7.773c-0.062,22.035-18.009,39.943-40.058,39.943h-40.826c-18.115,0-32.8,14.685-32.8,32.8v22.574
	c0,3.228,1.999,5.983,4.824,7.11c-3.122,4.941-4.824,10.711-4.824,16.827c0,10.149,4.866,19.462,12.713,25.315
	c-8.083,6.013-12.713,15.192-12.713,25.308c0,10.149,4.866,19.462,12.713,25.315c-8.083,6.013-12.713,15.192-12.713,25.308
	c0,10.149,4.866,19.462,12.713,25.315c-8.083,6.013-12.713,15.192-12.713,25.308c0,12.781,7.719,24.231,19.392,29.114h-11.734
	c-4.229,0-7.658,3.429-7.658,7.658v22.574c0,16.201,11.808,29.686,27.268,32.324v55.639h-5.423c-4.229,0-7.658,3.429-7.658,7.658
	v28.267h-11.102c-3.73-17.671-20.088-30.742-39.155-29.281c-18.146,1.391-32.784,16.136-34.054,34.29
	c-1.512,21.623,15.651,39.701,36.958,39.701c17.806,0,32.713-12.626,36.251-29.394h11.101v26.896c0,4.229,3.429,7.658,7.658,7.658
	h56.541c4.229,0,7.658-3.429,7.658-7.658v-26.896h11.101c3.729,17.672,20.088,30.744,39.156,29.283
	c18.146-1.391,32.784-16.136,34.054-34.29c1.512-21.622-15.652-39.702-36.959-39.702c-17.805,0-32.712,12.626-36.25,29.393h-11.102
	v-28.267c0-4.229-3.429-7.658-7.658-7.658h-5.423v-55.163h0.663c22.049,0,39.996,17.908,40.058,39.943
	c0.012,4.275,3.384,7.773,7.658,7.773h218.008c4.229,0,7.658-3.429,7.658-7.658v-45.684l26.103-45.759
	c1.075-1.885,1.427-4.14,0.789-6.213C476.879,310.143,473.873,308.009,470.565,308.009z M438.898,63.032l18.483,32.4H345.945
	l18.483-32.4C364.428,63.032,438.898,63.032,438.898,63.032z M130.253,243.638c-6.544-2.265-10.941-8.44-10.941-15.365
	c0-5.327,2.489-10.156,6.829-13.245c4.341-3.09,9.719-3.863,14.751-2.121l37.078,12.835c6.544,2.265,10.941,8.44,10.941,15.365
	c0,5.328-2.489,10.156-6.829,13.245c-4.339,3.089-9.712,3.864-14.747,2.121l-0.002-0.001l0,0L130.253,243.638z M135.518,161.372
	c1.792,0,3.602,0.301,5.37,0.913l21.431,7.418l0,0l15.648,5.417c6.544,2.265,10.941,8.44,10.941,15.366
	c0,5.328-2.489,10.156-6.829,13.245c-4.34,3.091-9.716,3.863-14.75,2.12l0,0l-13.789-4.774l-7.64-2.645
	c-0.001,0-0.002-0.001-0.003-0.001l-15.645-5.416c-6.544-2.265-10.941-8.44-10.941-15.366c0-5.327,2.489-10.155,6.829-13.245
	C128.956,162.401,132.207,161.372,135.518,161.372z M182.081,153.109c-4.34,3.091-9.715,3.864-14.751,2.121l-21.429-7.418
	c-0.001,0-0.002-0.001-0.003-0.001l-15.645-5.416c-6.544-2.266-10.941-8.44-10.941-15.366c0-5.328,2.489-10.156,6.829-13.245
	c4.341-3.09,9.717-3.863,14.752-2.121l37.078,12.835c6.544,2.266,10.941,8.44,10.941,15.366
	C188.91,145.191,186.42,150.018,182.081,153.109z M126.14,265.65c4.34-3.091,9.717-3.863,14.751-2.12l1.459,0.505l19.969,6.913l0,0
	l0,0l15.648,5.417c6.544,2.265,10.941,8.44,10.941,15.366c0,5.327-2.489,10.155-6.829,13.245c-4.34,3.091-9.716,3.864-14.751,2.121
	l-37.078-12.834c-6.544-2.265-10.941-8.44-10.941-15.366C119.311,273.567,121.8,268.74,126.14,265.65z M70.829,491.523
	c-11.984,0-21.735-9.75-21.735-21.735s9.75-21.736,21.735-21.736s21.736,9.75,21.736,21.736
	C92.565,481.774,82.813,491.523,70.829,491.523z M237.392,448.053c11.984,0,21.736,9.75,21.736,21.736
	c0,11.985-9.75,21.735-21.736,21.735c-11.985,0-21.736-9.75-21.736-21.735S225.407,448.053,237.392,448.053z M174.723,496.684
	h-41.225v-55.162h5.423H169.3h5.423V496.684z M161.642,426.205h-15.063v-55.163h15.063V426.205z M438.898,355.726h-74.472
	l-18.483-32.4H457.38L438.898,355.726z"/>
<g>
</g>
<g>
</g>
<g>
</g>
<g>
</g>
<g>
</g>
<g>
</g>
<g>
</g>
<g>
</g>
<g>
</g>
<g>
</g>
<g>
</g>
<g>
</g>
<g>
</g>
<g>
</g>
<g>
</g>
</svg>
