<?xml version="1.0" encoding="iso-8859-1"?>
<!-- Generator: Adobe Illustrator 19.0.0, SVG Export Plug-In . SVG Version: 6.00 Build 0)  -->
<svg version="1.1" id="Capa_1" xmlns="http://www.w3.org/2000/svg" xmlns:xlink="http://www.w3.org/1999/xlink" x="0px" y="0px"
	 viewBox="0 0 512 512" style="enable-background:new 0 0 512 512;" xml:space="preserve">
<path style="fill:#999999;" d="M389.82,85.235h2.889c14.346,0,25.975,11.629,25.975,25.985v38.354v212.85v17.773v20.592
	c0,14.356-11.629,25.985-25.975,25.985h-2.889H122.18h-2.89c-14.346,0-25.975-11.629-25.975-25.985v-20.592v-17.773v-212.85v-38.354
	c0-14.356,11.629-25.985,25.975-25.985h2.89"/>
<path style="fill:#525263;" d="M122.18,396.977v81.433c0,14.356,11.629,25.985,25.975,25.985h215.689
	c14.346,0,25.975-11.629,25.975-25.985v-81.433V115.023V33.589c0-14.356-11.629-25.985-25.975-25.985H148.156
	c-14.346,0-25.975,11.629-25.975,25.985v81.433"/>
<g>
	<path style="fill:#33333F;" d="M363.844,7.604H148.156c-14.346,0-25.975,11.629-25.975,25.985v27.373
		c0-14.356,11.629-25.985,25.975-25.985h215.689c14.346,0,25.975,11.629,25.975,25.985V33.589
		C389.82,19.233,378.191,7.604,363.844,7.604z"/>
	<path style="fill:#33333F;" d="M148.156,504.396h215.689c14.346,0,25.975-11.629,25.975-25.985v-27.373
		c0,14.356-11.629,25.985-25.975,25.985H148.156c-14.346,0-25.975-11.629-25.975-25.985v27.373
		C122.18,492.767,133.809,504.396,148.156,504.396z"/>
</g>
<circle style="fill:#C1E0E8;" cx="256" cy="256" r="194.388"/>
<circle style="fill:#F2F2F2;" cx="256" cy="256" r="150.548"/>
<path style="fill:#FFFFFF;" d="M140.428,256.001c0-77.229,58.155-140.864,133.06-149.531c-5.738-0.664-11.572-1.017-17.488-1.017
	c-83.146,0-150.548,67.403-150.548,150.548S172.854,406.549,256,406.549c5.917,0,11.75-0.353,17.488-1.017
	C198.583,396.865,140.428,333.23,140.428,256.001z"/>
<circle style="fill:#1C182D;" cx="256" cy="256" r="26.212"/>
<path d="M457.993,256.001c0-39.918-11.642-77.167-31.704-108.535v-36.246c0-16.92-12.574-30.951-28.865-33.252v-44.38
	C397.424,15.039,382.385,0,363.834,0H218.162c-4.199,0-7.604,3.405-7.604,7.604l0,0c0,4.199,3.405,7.604,7.604,7.604h145.673
	c10.152,0,18.381,8.23,18.381,18.381v64.832C347.614,70.651,303.717,54.008,256,54.008s-91.614,16.643-126.216,44.413V33.589
	c0-10.152,8.23-18.381,18.381-18.381h34.51c4.199,0,7.604-3.405,7.604-7.604l0,0c0-4.199-3.405-7.604-7.604-7.604h-34.51
	c-18.551,0-33.589,15.039-33.589,33.589v44.38c-16.291,2.3-28.865,16.331-28.865,33.252v36.248
	c-20.062,31.368-31.704,68.616-31.704,108.533s11.642,77.166,31.704,108.533v36.256c0,16.92,12.574,30.951,28.865,33.252v44.37
	c0,18.551,15.039,33.589,33.589,33.589h215.679c18.546,0,33.579-15.034,33.579-33.579v-44.38
	c16.291-2.3,28.865-16.331,28.865-33.252v-36.254C446.35,333.168,457.993,295.919,457.993,256.001z M397.424,93.476
	c7.848,2.091,13.657,9.242,13.657,17.745v15.505c-4.306-5.157-8.866-10.094-13.657-14.797V93.476z M100.92,111.221
	c0-8.502,5.807-15.654,13.657-17.745v18.453c-4.79,4.703-9.351,9.641-13.657,14.798V111.221z M256,69.216
	c102.993,0,186.785,83.792,186.785,186.785S358.993,442.786,256,442.786S69.215,358.994,69.215,256.001S153.007,69.216,256,69.216z
	 M100.92,400.79v-15.515c4.306,5.158,8.866,10.094,13.657,14.798v18.461C106.727,416.444,100.92,409.292,100.92,400.79z
	 M363.844,496.792H148.156c-10.131,0-18.371-8.246-18.371-18.381v-64.83c34.602,27.771,78.498,44.413,126.216,44.413
	s91.614-16.643,126.216-44.413v64.83C382.216,488.546,373.974,496.792,363.844,496.792z M411.079,400.79
	c0,8.502-5.807,15.654-13.657,17.745v-18.461c4.79-4.703,9.351-9.64,13.657-14.797V400.79z"/>
<path d="M256.002,414.153c25.939,0,51.406-6.351,74.143-18.43c3.836-2.038,5.17-6.889,2.939-10.617l0,0
	c-2.07-3.46-6.49-4.718-10.05-2.826c-20.55,10.922-43.575,16.665-67.031,16.665c-79.192,0-143.549-64.73-142.94-144.06
	c0.596-77.75,64.075-141.229,141.825-141.825c79.33-0.608,144.06,63.749,144.06,142.94c0,41.329-17.531,79.993-48.343,107.17
	c-3.025,2.668-3.395,7.255-0.879,10.407l0,0c2.707,3.391,7.709,3.847,10.963,0.976c34.078-30.065,53.467-72.835,53.467-118.554
	c0-87.617-71.617-158.82-159.386-158.147c-86.022,0.66-156.254,70.891-156.913,156.913
	C97.181,342.536,168.385,414.153,256.002,414.153z"/>
<path d="M256,139.527c-4.199,0-7.604,3.405-7.604,7.604v75.927c-14.995,3.46-26.212,16.912-26.212,32.943
	c0,18.647,15.17,33.816,33.816,33.816c16.031,0,29.483-11.217,32.943-26.212h36.831c4.199,0,7.604-3.405,7.604-7.604
	c0-4.199-3.405-7.604-7.604-7.604h-36.831c-2.896-12.55-12.79-22.444-25.339-25.339v-75.927
	C263.604,142.931,260.199,139.527,256,139.527z M274.608,256.001c0,10.261-8.347,18.608-18.608,18.608
	c-10.261,0-18.608-8.348-18.608-18.608c0-10.26,8.348-18.608,18.608-18.608C266.26,237.393,274.608,245.74,274.608,256.001z"/>
<g>
</g>
<g>
</g>
<g>
</g>
<g>
</g>
<g>
</g>
<g>
</g>
<g>
</g>
<g>
</g>
<g>
</g>
<g>
</g>
<g>
</g>
<g>
</g>
<g>
</g>
<g>
</g>
<g>
</g>
</svg>
