<?xml version="1.0" encoding="iso-8859-1"?>
<!-- Generator: Adobe Illustrator 19.0.0, SVG Export Plug-In . SVG Version: 6.00 Build 0)  -->
<svg version="1.1" id="Layer_1" xmlns="http://www.w3.org/2000/svg" xmlns:xlink="http://www.w3.org/1999/xlink" x="0px" y="0px"
	 viewBox="0 0 512.001 512.001" style="enable-background:new 0 0 512.001 512.001;" xml:space="preserve">
<circle style="fill:#F7B239;" cx="256.005" cy="256.004" r="246.855"/>
<path style="fill:#E09B2D;" d="M126.308,385.694c-88.802-88.802-95.799-228.426-20.999-325.242
	C97.024,66.853,89.051,73.85,81.451,81.45c-96.401,96.401-96.401,252.698,0,349.099s252.698,96.401,349.099,0
	c7.599-7.599,14.597-15.573,20.999-23.858C354.735,481.492,215.109,474.494,126.308,385.694z"/>
<path style="fill:#FFFFFF;" d="M131.567,268.875h248.868c0,13.968-2.306,27.4-6.551,39.941H138.118
	C133.873,296.274,131.567,282.843,131.567,268.875z"/>
<path style="fill:#A81004;" d="M138.118,308.815h235.765c-8.369,24.716-24.289,45.931-45.016,60.924
	c-8.71-14.676-24.716-24.509-43.027-24.509c-11.187,0-21.508,3.672-29.84,9.882c-8.332-6.21-18.665-9.882-29.852-9.882
	c-18.299,0-34.317,9.833-43.015,24.509C162.407,354.746,146.487,333.531,138.118,308.815z"/>
<path style="fill:#F95428;" d="M329.869,371.496c-0.317-0.598-0.659-1.183-1-1.757c-8.71-14.676-24.716-24.509-43.027-24.509
	c-11.187,0-21.508,3.672-29.84,9.882c-8.332-6.21-18.665-9.882-29.852-9.882c-18.299,0-34.317,9.833-43.015,24.509
	c-0.342,0.573-0.683,1.159-1,1.757v6.185c0,40.796,33.071,73.867,73.867,73.867l0,0c40.796,0,73.867-33.071,73.867-73.867
	L329.869,371.496L329.869,371.496z"/>
<path style="fill:#E54728;" d="M328.868,369.739c-8.71-14.676-24.716-24.509-43.027-24.509c-11.187,0-21.508,3.672-29.84,9.882
	c-8.332-6.21-18.665-9.882-29.852-9.882c-18.299,0-34.317,9.833-43.015,24.509c-0.342,0.573-0.683,1.159-1,1.757v6.185
	c0,6.882,0.961,13.535,2.722,19.854c8.995-13.168,24.141-21.806,41.294-21.806c11.187,0,21.52,3.672,29.852,9.882
	c8.332-6.21,18.653-9.882,29.84-9.882c17.165,0,32.303,8.64,41.306,21.809c1.76-6.321,2.722-12.974,2.722-19.857v-6.185
	C329.551,370.898,329.21,370.313,328.868,369.739z"/>
<path d="M256.001,0C114.842,0,0.001,114.841,0.001,256.001s114.841,256.001,256.001,256.001
	c141.158,0,255.999-114.841,255.999-256.001S397.159,0,256.001,0z M256.001,493.701c-131.069,0-237.702-106.631-237.702-237.7
	S124.932,18.299,256.001,18.299c131.068,0,237.7,106.632,237.7,237.702S387.069,493.701,256.001,493.701z"/>
<path d="M380.439,259.72H131.571c-5.053,0-9.15,4.097-9.15,9.15c0,14.661,2.367,29.087,7.034,42.876
	c8.291,24.485,23.287,45.716,43.529,61.758v4.18c0,45.776,37.241,83.017,83.017,83.017s83.017-37.241,83.017-83.017v-4.172
	c20.245-16.042,35.244-37.276,43.536-61.764c4.667-13.788,7.034-28.214,7.034-42.875C389.588,263.816,385.492,259.72,380.439,259.72
	z M370.93,278.019c-0.576,7.342-1.855,14.578-3.81,21.648H144.889c-1.954-7.07-3.234-14.306-3.81-21.648H370.93z M320.719,377.681
	c0,35.686-29.032,64.718-64.718,64.718s-64.718-29.032-64.718-64.718v-3.739c7.381-12.08,20.689-19.562,34.866-19.562
	c7.384,0,14.451,1.96,20.702,5.653v33.275c0,5.053,4.097,9.15,9.15,9.15s9.15-4.097,9.15-9.15v-33.276
	c6.25-3.693,13.313-5.653,20.69-5.653c14.17,0,27.479,7.478,34.878,19.562V377.681z M330.677,356.701
	c-11.137-12.9-27.534-20.619-44.836-20.619c-10.624,0-20.819,2.77-29.84,8.066c-9.021-5.296-19.221-8.066-29.852-8.066
	c-17.307,0-33.701,7.72-44.825,20.612c-12.621-10.709-22.679-23.852-29.663-38.728H360.35
	C353.363,332.845,343.303,345.992,330.677,356.701z"/>
<path d="M362.841,169.827c-18.666,0-33.852,15.186-33.852,33.852s15.186,33.852,33.852,33.852s33.852-15.186,33.852-33.852
	S381.506,169.827,362.841,169.827z"/>
<path d="M132.313,219.622c6.751-11.299,18.639-18.045,31.801-18.045s25.05,6.745,31.801,18.045c1.714,2.868,4.749,4.459,7.864,4.458
	c1.596,0,3.213-0.418,4.683-1.297c4.338-2.592,5.753-8.209,3.162-12.547c-10.085-16.88-27.846-26.958-47.511-26.958
	s-37.425,10.078-47.511,26.958c-2.592,4.338-1.176,9.956,3.162,12.547C124.105,225.376,129.722,223.96,132.313,219.622z"/>
<circle style="fill:#FFFFFF;" cx="368.849" cy="200.216" r="9.15"/>
<g>
</g>
<g>
</g>
<g>
</g>
<g>
</g>
<g>
</g>
<g>
</g>
<g>
</g>
<g>
</g>
<g>
</g>
<g>
</g>
<g>
</g>
<g>
</g>
<g>
</g>
<g>
</g>
<g>
</g>
</svg>
