<?xml version="1.0" encoding="iso-8859-1"?>
<!-- Generator: Adobe Illustrator 19.0.0, SVG Export Plug-In . SVG Version: 6.00 Build 0)  -->
<svg version="1.1" id="Layer_1" xmlns="http://www.w3.org/2000/svg" xmlns:xlink="http://www.w3.org/1999/xlink" x="0px" y="0px"
	 viewBox="0 0 512.001 512.001" style="enable-background:new 0 0 512.001 512.001;" xml:space="preserve">
<circle style="fill:#F7B239;" cx="256.004" cy="256.004" r="246.855"/>
<g>
	<path style="fill:#E09B2D;" d="M126.306,385.694c-88.801-88.802-95.798-228.426-20.998-325.241
		c-8.286,6.401-16.258,13.399-23.858,20.999c-96.401,96.401-96.401,252.698,0,349.099s252.698,96.401,349.099,0
		c7.599-7.599,14.597-15.573,20.999-23.858C354.733,481.492,215.108,474.495,126.306,385.694z"/>
	<path style="fill:#E09B2D;" d="M256.001,374.077c-9.217,0-18.431-1.257-27.391-3.768c-4.865-1.365-7.704-6.414-6.34-11.281
		c1.364-4.865,6.413-7.705,11.28-6.34c14.689,4.119,30.215,4.119,44.905,0c4.869-1.363,9.916,1.475,11.28,6.34
		c1.364,4.865-1.475,9.916-6.34,11.281C274.431,372.821,265.216,374.077,256.001,374.077z"/>
</g>
<path d="M256.001,0C114.841,0,0,114.841,0,256.001s114.841,256.001,256.001,256.001S512.001,397.16,512.001,256.001
	S397.16,0,256.001,0z M256.001,493.701c-131.069,0-237.702-106.631-237.702-237.7S124.932,18.299,256.001,18.299
	s237.702,106.632,237.702,237.702S387.068,493.701,256.001,493.701z"/>
<path d="M354.301,169.827c-18.666,0-33.852,15.186-33.852,33.852s15.186,33.852,33.852,33.852s33.852-15.186,33.852-33.852
	S372.967,169.827,354.301,169.827z"/>
<path d="M187.375,219.622c1.713,2.868,4.749,4.459,7.863,4.458c1.597,0,3.215-0.418,4.685-1.297
	c4.338-2.592,5.753-8.209,3.162-12.547c-10.086-16.88-27.846-26.958-47.509-26.958c-19.664,0-37.425,10.078-47.511,26.958
	c-2.591,4.338-1.176,9.956,3.162,12.547c4.339,2.592,9.956,1.176,12.547-3.162c6.75-11.299,18.638-18.045,31.801-18.045
	C168.736,201.577,180.625,208.323,187.375,219.622z"/>
<path d="M342.565,276.267c-4.334-2.59-9.955-1.177-12.547,3.162c-15.713,26.298-43.383,41.999-74.017,41.999
	s-58.305-15.701-74.017-41.999c-2.591-4.337-8.208-5.752-12.547-3.162c-4.338,2.592-5.753,8.209-3.162,12.547
	c19.047,31.879,52.589,50.913,89.727,50.913c37.137,0,70.68-19.034,89.727-50.913C348.318,284.476,346.902,278.859,342.565,276.267z
	"/>
<circle style="fill:#FFFFFF;" cx="363.969" cy="200.216" r="9.15"/>
<g>
</g>
<g>
</g>
<g>
</g>
<g>
</g>
<g>
</g>
<g>
</g>
<g>
</g>
<g>
</g>
<g>
</g>
<g>
</g>
<g>
</g>
<g>
</g>
<g>
</g>
<g>
</g>
<g>
</g>
</svg>
