<?xml version="1.0" encoding="iso-8859-1"?>
<!-- Generator: Adobe Illustrator 19.0.0, SVG Export Plug-In . SVG Version: 6.00 Build 0)  -->
<svg version="1.1" id="Capa_1" xmlns="http://www.w3.org/2000/svg" xmlns:xlink="http://www.w3.org/1999/xlink" x="0px" y="0px"
	 viewBox="0 0 512 512" style="enable-background:new 0 0 512 512;" xml:space="preserve">
<path style="fill:#CC9D72;" d="M146.535,375.404c0.057-0.012,0.114-0.024,0.17-0.036c0.122-0.026,0.238-0.05,0.352-0.074
	c0.068-0.014,0.135-0.028,0.2-0.042c0.108-0.023,0.212-0.044,0.312-0.065c0.046-0.01,0.089-0.018,0.133-0.027
	c0.181-0.037,0.348-0.072,0.5-0.103c0.201-0.041,0.379-0.077,0.53-0.107c0.005-0.001,0.008-0.002,0.013-0.003
	c0.102-0.02,0.19-0.038,0.268-0.053c0.003-0.001,0.006-0.001,0.01-0.002c0.233-0.046,0.36-0.071,0.36-0.071l0,0h102.834l0,0
	c0,0,0.054,0.01,0.15,0.029c0.009,0.002,0.017,0.003,0.027,0.005c0.051,0.01,0.113,0.022,0.187,0.037c0.001,0,0.002,0,0.002,0
	c0.07,0.014,0.148,0.03,0.236,0.047c0.019,0.004,0.036,0.007,0.056,0.011c0.2,0.04,0.442,0.089,0.729,0.148
	c0.067,0.014,0.141,0.029,0.213,0.044c0.075,0.016,0.149,0.031,0.229,0.047c0.094,0.02,0.194,0.04,0.295,0.062
	c0.062,0.013,0.125,0.026,0.189,0.04c0.119,0.025,0.24,0.05,0.367,0.077c0.052,0.011,0.107,0.023,0.161,0.034
	c0.145,0.031,0.291,0.062,0.446,0.095c0.012,0.003,0.025,0.006,0.038,0.008c0.572,0.122,1.214,0.262,1.92,0.417l0.004,0.001
	c0.218,0.048,0.442,0.098,0.672,0.149c0.043,0.01,0.086,0.019,0.129,0.029c0.231,0.052,0.467,0.104,0.709,0.159
	c0.018,0.004,0.036,0.008,0.054,0.012c12.973,2.922,42.634,10.343,72.769,23.029c28.335-62.364,45.595-137.32,45.595-191.5
	c0-115.968-79.064-200.26-176.595-200.26S24.204,91.834,24.204,207.802c0,54.18,17.26,129.136,45.595,191.5
	C103.606,385.069,136.816,377.464,146.535,375.404z"/>
<path style="fill:#C19067;" d="M69.904,399.258c0.899-0.378,1.797-0.75,2.695-1.119c0.204-0.084,0.407-0.168,0.61-0.251
	c0.887-0.362,1.772-0.72,2.656-1.073c0.21-0.084,0.419-0.167,0.629-0.25c0.904-0.359,1.808-0.715,2.708-1.065
	c0.104-0.04,0.208-0.08,0.311-0.12c0.833-0.323,1.663-0.64,2.492-0.955c0.211-0.08,0.422-0.161,0.632-0.24
	c0.859-0.324,1.715-0.644,2.569-0.959c0.235-0.087,0.469-0.173,0.703-0.259c0.861-0.316,1.719-0.63,2.574-0.937
	c0.158-0.057,0.315-0.113,0.473-0.169c0.763-0.273,1.522-0.543,2.28-0.81c0.216-0.076,0.432-0.153,0.648-0.228
	c0.82-0.287,1.635-0.569,2.447-0.848c0.254-0.087,0.507-0.174,0.76-0.26c0.804-0.275,1.606-0.546,2.402-0.813
	c0.216-0.072,0.429-0.143,0.644-0.214c0.673-0.224,1.342-0.445,2.008-0.664c0.233-0.077,0.468-0.154,0.7-0.23
	c0.758-0.247,1.51-0.49,2.259-0.73c0.282-0.09,0.563-0.18,0.843-0.269c0.734-0.234,1.465-0.465,2.189-0.692
	c0.261-0.082,0.52-0.161,0.779-0.242c0.581-0.181,1.158-0.359,1.731-0.535c0.245-0.075,0.492-0.151,0.735-0.226
	c0.699-0.213,1.391-0.422,2.079-0.628c0.292-0.088,0.583-0.175,0.873-0.261c0.664-0.198,1.323-0.393,1.974-0.584
	c0.29-0.085,0.576-0.168,0.863-0.252c0.484-0.141,0.964-0.28,1.44-0.417c0.36-0.104,0.718-0.206,1.073-0.308
	c0.523-0.149,1.041-0.296,1.554-0.441c0.305-0.086,0.609-0.172,0.911-0.256c0.585-0.163,1.164-0.325,1.736-0.482
	c0.306-0.084,0.608-0.167,0.91-0.25c0.393-0.108,0.782-0.214,1.169-0.318c0.418-0.113,0.832-0.225,1.241-0.335
	c0.399-0.107,0.794-0.213,1.186-0.316c0.295-0.078,0.59-0.156,0.881-0.233c0.506-0.133,1.007-0.264,1.5-0.392
	c0.294-0.077,0.584-0.151,0.873-0.226c0.341-0.088,0.678-0.174,1.012-0.26c0.406-0.104,0.806-0.205,1.201-0.305
	c0.302-0.076,0.602-0.152,0.898-0.226c0.29-0.073,0.579-0.145,0.863-0.215c0.417-0.104,0.828-0.205,1.232-0.304
	c0.279-0.068,0.552-0.135,0.823-0.201c0.268-0.065,0.532-0.129,0.793-0.192c0.374-0.09,0.741-0.178,1.101-0.264
	c0.249-0.059,0.496-0.118,0.738-0.176c0.234-0.055,0.467-0.111,0.694-0.164c0.363-0.085,0.717-0.168,1.063-0.248
	c0.218-0.051,0.431-0.1,0.642-0.149c0.263-0.061,0.52-0.12,0.773-0.177c0.241-0.055,0.477-0.109,0.709-0.161
	c0.241-0.054,0.476-0.108,0.706-0.159c0.16-0.036,0.321-0.072,0.475-0.106c0.302-0.067,0.591-0.131,0.873-0.193
	c0.146-0.032,0.288-0.063,0.429-0.094c0.264-0.058,0.521-0.114,0.764-0.166c0.109-0.024,0.212-0.046,0.317-0.068
	c0.229-0.049,0.448-0.096,0.657-0.141c0.039-0.008,0.085-0.018,0.124-0.026c0.057-0.012,0.114-0.024,0.17-0.036
	c0.122-0.026,0.238-0.05,0.352-0.074c0.013-0.003,0.026-0.005,0.039-0.008c0.07-0.015,0.135-0.028,0.201-0.042
	c0.094-0.02,0.186-0.039,0.273-0.057c0.046-0.01,0.089-0.018,0.133-0.027c0.03-0.006,0.054-0.011,0.083-0.017
	c0.125-0.026,0.243-0.05,0.354-0.073c0.02-0.004,0.044-0.009,0.063-0.013c0.017-0.003,0.028-0.006,0.045-0.009
	c0.178-0.036,0.339-0.069,0.476-0.097c0.002-0.001,0.006-0.001,0.006-0.001c0.007-0.001,0.011-0.002,0.015-0.003
	c0.052-0.01,0.091-0.018,0.136-0.027c0.038-0.008,0.073-0.015,0.107-0.021c0.007-0.001,0.018-0.004,0.025-0.005
	c0.003-0.001,0.006-0.001,0.01-0.002c0.024-0.005,0.034-0.007,0.056-0.011c0.088-0.017,0.157-0.031,0.207-0.041
	c0.034-0.007,0.039-0.008,0.055-0.011c0.026-0.005,0.043-0.008,0.043-0.008h17.09c-25.389-61.831-49.603-131.416-49.603-183.233
	c0-81.066,33.802-147.649,84.462-184.038c-0.178-0.001-0.354-0.007-0.531-0.007c-97.531,0-176.595,84.292-176.595,200.26
	c0,3.386,0.067,6.854,0.201,10.394c2,53.106,18.83,122.64,45.394,181.106C69.834,399.287,69.869,399.273,69.904,399.258z"/>
<path style="fill:#F96989;" d="M392.974,482.882l-11.694-42.34c-3.816-13.816-13.204-25.39-25.867-32.106
	c-46.74-24.788-103.197-35.616-103.197-35.616H149.382c-0.006,0.001-56.459,10.829-103.197,35.616
	c-12.663,6.715-22.051,18.291-25.867,32.106l-11.694,42.34c-3.003,10.873,5.177,21.618,16.456,21.618c9.917,0,341.532,0,351.437,0
	C387.797,504.5,395.978,493.755,392.974,482.882z"/>
<path style="fill:#ED5A81;" d="M33.559,482.882l11.694-54.34c3.593-13.01,12.13-24.028,23.686-30.877
	c-7.653,3.247-15.326,6.832-22.753,10.771c-12.663,6.715-22.051,18.291-25.867,32.106l-11.694,42.34
	c-3.003,10.873,5.177,21.618,16.456,21.618c1.521,0,10.611,0,24.934,0C38.736,504.5,30.556,493.755,33.559,482.882z"/>
<path style="fill:#E8C842;" d="M149.382,348.258v40.083c0,4.581,1.453,9.033,4.13,12.75c5.879,8.159,17.879,22.989,35.01,35.226
	c7.326,5.232,17.229,5.232,24.553,0c17.134-12.239,29.134-27.07,35.012-35.229c2.676-3.714,4.128-8.164,4.128-12.742V348.26
	C219.7,361.851,182.062,361.918,149.382,348.258z"/>
<path style="fill:#DBBC3B;" d="M178.447,401.09c-2.677-3.716-4.13-8.169-4.13-12.75v-32.481c-8.512-1.702-16.875-4.233-24.934-7.602
	v40.083c0,4.581,1.453,9.033,4.13,12.75c5.879,8.159,17.879,22.989,35.01,35.226c7.326,5.232,17.229,5.232,24.553,0
	c0.065-0.046,0.126-0.094,0.19-0.14C196.238,423.966,184.304,409.218,178.447,401.09z"/>
<path style="fill:#F4D44E;" d="M329.595,192.234c-0.001-5.84-3.961-10.939-9.62-12.381c-49.832-12.701-88.34-34.807-114.517-53.889
	c-23.713-16.224-38.81-33.801-38.48-33.445c-1.008-1.088-2.782-0.885-3.509,0.408c-6.498,11.557-35.063,56.682-89.097,65.175
	c-1.415,0.613-2.331,2.002-2.346,3.544c-0.011,1.095-0.017,2.167-0.017,3.279c-0.003,19.209-0.011,75.035-0.011,75.14
	c0,68.5,58.471,124.284,130.213,123.406c69.617-0.609,127.391-54.898,127.391-123.546
	C329.602,237.513,329.599,213.695,329.595,192.234z"/>
<g>
	<path style="fill:#E8C842;" d="M121.997,240.066c0-0.079,0.005-62.807,0.009-101.427c-12.84,8.976-28.659,16.481-47.632,19.463
		c-1.415,0.613-2.331,2.002-2.346,3.544c-0.011,1.095-0.017,2.167-0.017,3.279c-0.005,19.21-0.013,75.037-0.013,75.141
		c0,68.5,58.471,124.285,130.213,123.406c8.022-0.07,15.885-0.862,23.521-2.297C166.621,350.043,121.997,299.908,121.997,240.066z"
		/>
	<path style="fill:#E8C842;" d="M185.683,245.626v2.097c0,8.141,6.256,15.146,14.388,15.528c8.682,0.409,15.849-6.509,15.849-15.101
		v-2.732c0-3.272-2.653-5.925-5.925-5.925h-18.18C188.428,239.494,185.683,242.239,185.683,245.626z"/>
</g>
<path style="fill:#DBBC3B;" d="M200.8,247.723v-2.097c0-3.387,2.746-6.132,6.133-6.132h-15.119c-3.387,0-6.132,2.745-6.132,6.132
	v2.097c0,8.141,6.256,15.146,14.388,15.528c3.048,0.143,5.899-0.631,8.329-2.049C203.826,258.484,200.8,253.381,200.8,247.723z"/>
<circle style="fill:#656566;" cx="260.974" cy="226.015" r="16.558"/>
<path style="fill:#545456;" d="M260.975,226.014c-3.063-5.305-2.842-11.592,0.008-16.545c-2.817-0.004-5.672,0.696-8.287,2.205
	c-7.92,4.572-10.633,14.699-6.061,22.618c4.572,7.92,14.699,10.633,22.618,6.061c2.615-1.51,4.648-3.632,6.053-6.074
	C269.593,234.27,264.038,231.317,260.975,226.014z"/>
<circle style="fill:#656566;" cx="140.627" cy="226.015" r="16.558"/>
<path style="fill:#545456;" d="M140.626,226.014c-3.063-5.305-2.842-11.592,0.008-16.545c-2.817-0.004-5.672,0.696-8.287,2.205
	c-7.92,4.572-10.633,14.699-6.061,22.618c4.572,7.92,14.699,10.633,22.618,6.061c2.615-1.51,4.648-3.632,6.053-6.074
	C149.243,234.27,143.689,231.317,140.626,226.014z"/>
<path style="fill:#F96989;" d="M418.161,278.887c-0.083-0.61-0.154-1.207-0.215-1.79c-0.063-0.598-0.092-1.194-0.115-1.789
	c-35.307,2.746-50.587-2.968-56.368-6.375L350.772,504.5h51.601c13.909,0,25.051-11.514,24.585-25.414
	C425.07,422.665,420.659,297.354,418.161,278.887z"/>
<path style="fill:#ED5A81;" d="M361.463,268.934L350.772,504.5h23.622l10.404-229.229
	C371.971,273.908,364.967,270.999,361.463,268.934z"/>
<path style="fill:#E8C842;" d="M503.165,190.377c-1.956-5.711-7.439-7.332-12.185-3.602l-27.34,21.488
	c-2.386,1.875-5.411,2.744-8.428,2.42l-12.582,0.042c-3.818-0.41-6.057-4.501-4.345-7.938l2.358-4.732
	c6.664-12.005,7.943-23.885,8.021-24.675c0.575-5.816-2.447-12.074-9.023-13.409c-5.427-1.101-9.968,1.286-11.959,7.836
	c-0.109,0.359-7.489,17.835-14.151,27.419c-3.978,5.025-9.476,8.628-15.671,10.271c-39.831,6.97-35.712,48.291-35.712,48.291
	l-0.776,17.094c5.721,3.405,21.007,9.204,56.595,6.417c-0.007-0.066-0.017-0.136-0.024-0.201
	c-1.222-11.679,5.246-22.805,15.978-27.571l31.177-8.998c4.903-1.416,9.326-4.146,12.787-7.896l21.218-22.99
	C503.38,205.009,505.207,196.34,503.165,190.377z"/>
<path style="fill:#DBBC3B;" d="M384.925,277.284l0.527-19.085c0.062-2.24,0.052-14.48,0.01-16.721
	c-0.123-6.463,0.861-25.021,14.929-36.784c-0.829,0.301-1.67,0.575-2.528,0.802c-39.831,6.97-35.712,48.291-35.712,48.291
	l-0.776,17.094C364.86,272.956,371.909,275.916,384.925,277.284z"/>
<path style="fill:#656566;" d="M171.452,298.49c12.363,23.791,46.137,24.412,59.544,1.599c1.576-2.682-0.349-6.063-3.46-6.063
	h-53.369C171.875,294.027,170.396,296.457,171.452,298.49z"/>
<path style="fill:#545456;" d="M196.386,298.49c-1.057-2.033,0.422-4.464,2.714-4.464h-24.934c-2.292,0-3.771,2.43-2.714,4.464
	c8.576,16.505,27.451,21.848,42.688,15.964C206.892,311.661,200.469,306.347,196.386,298.49z"/>
<path d="M200.799,270.77c12.472,0,22.617-10.146,22.617-22.618v-8.657c0-4.143-3.357-7.5-7.5-7.5c-4.143,0-7.5,3.357-7.5,7.5v8.656
	c0,4.201-3.418,7.619-7.618,7.619c-4.2,0-7.618-3.418-7.618-7.619v-8.656c0-4.143-3.357-7.5-7.5-7.5c-4.143,0-7.5,3.357-7.5,7.5
	v8.656C178.182,260.623,188.327,270.77,200.799,270.77z"/>
<path d="M260.974,201.955c-13.266,0-24.057,10.793-24.057,24.058c0,13.266,10.792,24.057,24.057,24.057s24.058-10.792,24.058-24.057
	C285.032,212.748,274.238,201.955,260.974,201.955z M260.974,235.07c-4.994,0-9.058-4.063-9.058-9.058
	c0-4.995,4.063-9.059,9.058-9.059c4.995,0,9.059,4.063,9.059,9.059C270.032,231.007,265.969,235.07,260.974,235.07z"/>
<path d="M164.682,226.014c0-13.266-10.792-24.058-24.057-24.058c-13.266,0-24.058,10.793-24.058,24.058
	c0,13.266,10.793,24.057,24.058,24.057S164.682,239.278,164.682,226.014z M131.567,226.014c0-4.995,4.063-9.059,9.059-9.059
	c4.994,0,9.058,4.063,9.058,9.059c0,4.994-4.063,9.058-9.058,9.058C135.63,235.07,131.567,231.007,131.567,226.014z"/>
<path d="M240.487,199.138c11.852-9.919,29.135-9.904,40.974,0c3.175,2.657,7.905,2.239,10.564-0.939
	c2.658-3.176,2.237-7.906-0.938-10.564c-17.423-14.578-42.826-14.563-60.227,0c-3.177,2.658-3.597,7.389-0.938,10.565
	C232.584,201.38,237.315,201.792,240.487,199.138z"/>
<path d="M161.111,199.138c3.169,2.651,7.901,2.246,10.565-0.938c2.658-3.177,2.238-7.907-0.938-10.565
	c-17.422-14.581-42.826-14.561-60.227,0c-3.177,2.658-3.597,7.389-0.938,10.565c2.659,3.177,7.389,3.596,10.565,0.938
	C131.967,189.238,149.253,189.214,161.111,199.138z"/>
<path d="M164.264,301.925c14.861,28.606,56.119,30.099,72.664,1.942c4.502-7.662-1.022-17.363-9.926-17.363h-53.369
	C165.709,286.504,160.615,294.904,164.264,301.925z M219.95,301.504c-10.499,10.537-27.409,10.18-37.62,0H219.95z M177.574,295.009
	c0.001,0.003,0.003,0.006,0.004,0.009c-0.001-0.003-0.002-0.005-0.004-0.007C177.574,295.01,177.574,295.01,177.574,295.009z"/>
<path d="M510.262,187.948c-3.629-10.607-15.114-13.986-23.915-7.069c-28.628,21.982-27.343,22.654-30.332,22.347
	c-0.746-0.08,0.304-0.03-9.561-0.014c0.334-0.97,8.151-13.729,9.676-29.096c2.261-22.898-28.438-31.044-35.522-8.809
	c-1.044,2.55-7.567,17.397-13.094,25.438c-2.884,3.565-6.877,6.19-11.293,7.425c-4.226,0.763-8.011,1.872-11.417,3.24
	c-1.315-52.429-18.785-101.089-49.545-137.612c-2.668-3.169-7.4-3.572-10.567-0.905c-3.169,2.668-3.574,7.399-0.905,10.567
	c31.867,37.838,46.844,88.013,46.082,137.486c-11.33,10.896-16.295,27.769-15.231,42.965l-3.083,67.919
	c-6.589,22.813-14.531,44.899-23.643,65.762c-29.061-11.571-56.371-18.251-68.197-20.864v-8.525
	c13.771-6.352,26.472-14.981,37.586-25.676c25.665-24.699,39.8-57.538,39.8-92.464l-0.007-48.685
	c1.248,0.244,8.085,1.587,9.331,1.587c3.589,0,6.763-2.585,7.385-6.242c0.695-4.084-2.052-7.957-6.135-8.652
	c-68.857-11.722-133.503-46.974-175.194-90.651c-4.441-4.794-12.313-3.921-15.548,1.828c-6.986,12.425-33.668,53.574-83.725,61.442
	c-0.626,0.099-1.237,0.276-1.819,0.528c-7.208,3.127-6.835,10.605-6.865,10.705c-0.022,2.419-0.025,75.335-0.025,78.141
	c0,52.599,32.088,97.242,77.384,118.139v8.529c-11.908,2.637-39.22,9.339-68.195,20.866
	c-25.982-59.487-41.983-127.746-41.983-179.798c0-53.637,17.688-102.861,49.803-138.605c59.823-66.587,154.296-70.381,218.265-19.2
	c3.232,2.587,7.953,2.063,10.542-1.171c2.588-3.234,2.063-7.954-1.171-10.542C238.417-18.302,135.042-12.832,70.347,59.172
	c-34.593,38.503-53.645,91.287-53.645,148.631c0,53.934,16.454,124.388,43.169,185.631c-5.79,2.596-11.56,5.385-17.202,8.377
	c-14.473,7.675-25.254,21.065-29.583,36.735l-11.693,42.34C-2.928,496.539,8.827,512,25.08,512h81.487c4.143,0,7.5-3.357,7.5-7.5
	s-3.357-7.5-7.5-7.5H79.498v-36.731c0-4.143-3.357-7.5-7.5-7.5c-4.143,0-7.5,3.357-7.5,7.5V497H25.079
	c-6.326,0-10.914-6.019-9.228-12.121l11.694-42.34c3.235-11.713,11.31-21.728,22.151-27.478
	c34.368-18.228,74.643-28.846,92.184-32.929c0,0.102,0,6.343,0,6.209c0,8.959,3.37,14.403,8.301,20.836
	c6.682,8.717,18.275,22.024,33.979,33.242c9.841,7.029,23.215,7.182,33.271,0c15.608-11.149,32.182-29.299,38.018-38.877
	c4.32-7.09,4.419-13.208,4.264-21.409c16.79,3.909,54.402,13.808,87.715,30.618c-0.645,14.223-2.84,62.572-3.823,84.248H141.567
	c-4.143,0-7.5,3.357-7.5,7.5s3.357,7.5,7.5,7.5c6.811,0,258.147,0,260.808,0c18.165,0,32.69-15.008,32.081-33.166
	c-0.431-12.887-0.996-29.371-1.637-47.353c-0.145-4.048-3.472-7.232-7.49-7.232c-0.09,0-0.181,0.002-0.272,0.005
	c-4.139,0.147-7.375,3.623-7.228,7.763c0.641,17.968,1.204,34.44,1.635,47.319c0.325,9.669-7.408,17.665-17.09,17.665h-43.754
	c1.611-35.506,8.629-190.108,9.794-215.789c12.804,4.491,29.231,4.792,42.847,3.939c0.983,11.809,2.622,41.47,5.284,111.883
	c0.157,4.14,3.674,7.336,7.778,7.212c4.14-0.157,7.368-3.64,7.212-7.778c-2.601-68.767-4.599-108.664-5.941-118.59
	c-1.358-9.962,3.408-17.736,10.943-21.299c25.152-8.351,36.318-7.436,46.862-18.859l21.219-22.991
	C510.779,208.051,513.205,196.538,510.262,187.948z M79.497,239.927c0-10.677,0.01-65.241,0.012-75.108
	c47.611-9.129,75.559-44.444,86.803-62.07c33.79,34.777,92.506,70.028,155.781,85.361l0.008,51.957
	c0,66.272-57.505,117.531-123.936,115.879c-0.009,0-0.105-0.002-0.115-0.002v0.001c-0.052-0.001-0.104-0.002-0.156-0.003v-0.001
	c-30.312-0.636-60.19-12.08-83.193-34.217C76.483,284.945,79.659,240.7,79.497,239.927z M244.715,364.084
	c0,29.262,1.318,27.421-5.02,35.728c-8.511,11.157-19.336,22.084-30.979,30.4c-4.737,3.382-11.099,3.382-15.836,0.001
	c-18.3-13.074-32.972-32.02-34.791-36.155c-0.791-1.797-1.208-3.731-1.208-5.718c0-8.475,0-15.934,0-24.255
	C185.037,373.264,216.495,373.283,244.715,364.084z M341.715,393.428c2.56-5.867,5.027-11.826,7.403-17.867l-0.946,20.851
	C346.025,395.39,343.871,394.396,341.715,393.428z M493.595,204.554c-19.735,20.28-21.545,26.161-30.572,28.768
	c-32.835,9.502-31.256,8.957-32.144,9.35c-11.36,5.047-18.92,15.57-20.335,27.492c-25.66,1.641-37.146-2.633-41.402-4.99
	c0.492-11.442,0.564-11.123,0.475-12.101c-0.803-8.693,1.97-20.975,8.294-28.716c4.42-5.284,11.117-9.699,21.245-11.471
	c6.152-1.077,15.896-6.7,20.535-13.378c7.083-10.19,14.772-28.218,15.168-29.517c0.955-3.144,1.986-2.936,3.292-2.668
	c2.773,0.563,3.208,3.727,3.051,5.319c-2.079,21.167-15.679,27.369-9.395,38.852c2.034,3.716,5.863,6.46,10.851,6.732
	c11.602-0.563,18.096,1.849,25.618-4.065c28.959-22.75,27.347-21.518,27.651-21.708C497.27,195.336,496.203,201.728,493.595,204.554
	z"/>
<g>
</g>
<g>
</g>
<g>
</g>
<g>
</g>
<g>
</g>
<g>
</g>
<g>
</g>
<g>
</g>
<g>
</g>
<g>
</g>
<g>
</g>
<g>
</g>
<g>
</g>
<g>
</g>
<g>
</g>
</svg>
