<?xml version="1.0" encoding="iso-8859-1"?>
<!-- Generator: Adobe Illustrator 19.0.0, SVG Export Plug-In . SVG Version: 6.00 Build 0)  -->
<svg version="1.1" id="Capa_1" xmlns="http://www.w3.org/2000/svg" xmlns:xlink="http://www.w3.org/1999/xlink" x="0px" y="0px"
	 viewBox="0 0 512 512" style="enable-background:new 0 0 512 512;" xml:space="preserve">
<path style="fill:#CC9D72;" d="M109.711,351.085l47.446-15.675c18.13,19.056,40.751,31.557,64.777,37.528
	c14.562,1.639,28.437,2.475,40.157,1.938c8.844-0.316,18.353-1.118,28.113-2.245c23.719-6.118,46.002-18.611,63.856-37.478
	l48.202,15.925c2.2-0.557,3.406-0.875,3.406-0.875c17.06-49.738,26.927-101.436,26.927-142.401
	C432.596,91.833,353.531,7.541,256,7.541S79.405,91.833,79.405,207.802c0,40.964,9.867,92.663,26.927,142.401
	C106.34,350.204,107.533,350.523,109.711,351.085z"/>
<path style="fill:#C19067;" d="M127.498,251.614c0-0.171,0.002-79.455,0.03-81.939c0.032-0.102,0.031-2.651,2.423-3.687
	c15.921-2.503,29.692-8.091,41.411-15.07c7.394-59.675,32.29-109.477,67.602-142.5C140.916,18.466,79.403,108.968,79.403,207.801
	c0,40.964,9.867,92.663,26.927,142.401c0,0,0.031,0.008,0.077,0.02c0.044,0.011,0.113,0.03,0.193,0.051
	c0.055,0.015,0.119,0.031,0.191,0.05c0.014,0.004,0.029,0.008,0.044,0.012c0.101,0.027,0.219,0.058,0.349,0.092
	c0.015,0.004,0.032,0.009,0.048,0.013c0.571,0.15,1.404,0.368,2.479,0.645l47.446-15.675c14.031,14.747,30.757,25.551,48.737,32.457
	C159.688,347.89,127.498,303.256,127.498,251.614z"/>
<path style="fill:#F96989;" d="M457.887,464.809l-25.691-87.081c-3.845-13.032-12.436-22.869-23.027-26.367l-55.11-18.207
	c-52.691,55.686-143.95,55.914-196.902,0.258l-54.328,17.949c-10.592,3.499-19.182,13.336-23.027,26.367l-25.694,87.081
	c-6.406,18.741,4.392,39.69,20.457,39.69c15.514,0,347.352,0,362.865,0C453.495,504.499,464.293,483.55,457.887,464.809z"/>
<path style="fill:#ED5A81;" d="M79.109,464.809l25.692-97.081c2.726-9.239,7.844-16.857,14.362-21.765l-16.335,5.397
	c-10.592,3.499-19.182,13.336-23.027,26.367l-25.692,87.081c-6.406,18.741,4.392,39.69,20.457,39.69c2.262,0,11.254,0,25,0
	C83.501,504.499,72.704,483.55,79.109,464.809z"/>
<path style="fill:#F4D44E;" d="M388.458,192.121c0-2.521-1.745-4.685-4.198-5.266c-107.105-25.349-167.385-94.486-163.698-91.579
	c-1.041-1.123-2.872-0.914-3.622,0.421c-6.709,11.932-36.201,58.522-91.989,67.292c-2.86,1.238-2.44,3.95-2.44,7.044
	c-0.003,16.235-0.012,77.319-0.012,78.581c0,70.725,60.369,128.32,134.441,127.414c71.878-0.629,131.527-56.681,131.527-127.557
	C388.467,245.746,388.462,215.719,388.458,192.121z"/>
<g>
	<path style="fill:#E8C842;" d="M172.497,248.614c0-0.935,0.005-64.92,0.009-104.604c-12.961,8.769-28.759,16.024-47.555,18.979
		c-2.859,1.238-2.44,3.949-2.44,7.044c-0.003,16.235-0.012,77.319-0.012,78.581c0,70.725,60.369,128.32,134.441,127.414
		c8.005-0.07,15.857-0.832,23.493-2.22C218.989,362.627,172.497,310.679,172.497,248.614z"/>
	<path style="fill:#E8C842;" d="M239.874,247.918v2.44c0,8.405,6.459,15.637,14.855,16.032c8.964,0.422,16.364-6.721,16.364-15.592
		v-3.316c0-3.105-2.517-5.622-5.622-5.622h-19.541C242.584,241.861,239.874,244.573,239.874,247.918z"/>
</g>
<path style="fill:#DBBC3B;" d="M255.482,250.358v-2.44c0-3.345,2.712-6.057,6.057-6.057H245.93c-3.345,0-6.057,2.712-6.057,6.057
	v2.44c0,8.405,6.459,15.637,14.855,16.032c3.147,0.148,6.091-0.651,8.6-2.115C258.606,261.468,255.482,256.199,255.482,250.358z"/>
<circle style="fill:#656566;" cx="193.356" cy="227.946" r="17.1"/>
<path style="fill:#545456;" d="M193.353,227.943c-3.162-5.477-2.935-11.969,0.008-17.082c-2.908-0.004-5.856,0.718-8.556,2.277
	c-8.177,4.721-10.978,15.176-6.257,23.353c4.721,8.177,15.176,10.978,23.353,6.257c2.7-1.559,4.799-3.75,6.25-6.271
	C202.251,236.469,196.515,233.42,193.353,227.943z"/>
<circle style="fill:#656566;" cx="317.614" cy="227.946" r="17.1"/>
<path style="fill:#545456;" d="M317.611,227.943c-3.162-5.477-2.935-11.969,0.008-17.082c-2.908-0.004-5.856,0.718-8.556,2.277
	c-8.177,4.721-10.978,15.176-6.257,23.353c4.721,8.177,15.176,10.978,23.353,6.257c2.7-1.559,4.799-3.75,6.25-6.271
	C326.509,236.469,320.773,233.42,317.611,227.943z"/>
<path d="M255.482,273.908c12.742,0,23.109-10.367,23.109-23.109v-8.938c0-4.143-3.357-7.5-7.5-7.5s-7.5,3.357-7.5,7.5v8.938
	c0,4.472-3.638,8.109-8.109,8.109c-4.471,0-8.109-3.638-8.109-8.109v-8.938c0-4.143-3.357-7.5-7.5-7.5c-4.143,0-7.5,3.357-7.5,7.5
	v8.938C232.374,263.541,242.74,273.908,255.482,273.908z"/>
<path d="M317.61,203.348c-13.562,0-24.595,11.033-24.595,24.596c0,13.563,11.033,24.596,24.595,24.596
	c13.563,0,24.596-11.033,24.596-24.596C342.206,214.381,331.173,203.348,317.61,203.348z M317.61,237.538
	c-5.291,0-9.595-4.305-9.595-9.596s4.304-9.596,9.595-9.596s9.596,4.305,9.596,9.596S322.901,237.538,317.61,237.538z"/>
<path d="M193.354,203.348c-13.563,0-24.596,11.033-24.596,24.596c0,13.563,11.033,24.596,24.596,24.596
	c13.563,0,24.596-11.033,24.596-24.596C217.95,214.381,206.916,203.348,193.354,203.348z M193.354,237.538
	c-5.291,0-9.596-4.305-9.596-9.596s4.305-9.596,9.596-9.596c5.291,0,9.596,4.305,9.596,9.596S198.645,237.538,193.354,237.538z"/>
<path d="M296.303,205.17c12.326-10.316,30.307-10.301,42.615,0c1.403,1.176,3.111,1.749,4.81,1.749
	c7.007,0,10.149-8.79,4.817-13.251c-17.895-14.981-43.999-14.96-61.869,0c-3.177,2.658-3.597,7.389-0.938,10.564
	C288.397,207.409,293.128,207.829,296.303,205.17z"/>
<path d="M172.046,205.17c12.326-10.316,30.307-10.301,42.615,0c1.403,1.176,3.111,1.749,4.81,1.749
	c7.007,0,10.149-8.79,4.817-13.251c-17.895-14.981-43.999-14.96-61.869,0c-3.177,2.658-3.597,7.389-0.938,10.564
	C164.14,207.409,168.871,207.829,172.046,205.17z"/>
<path d="M283.29,303.269c1.518-3.854-0.377-8.209-4.23-9.727c-3.856-1.521-8.21,0.377-9.727,4.23
	c-0.98,2.491-5.916,5.999-13.818,5.999s-12.839-3.508-13.819-5.999c-1.518-3.854-5.871-5.75-9.727-4.23
	c-3.854,1.518-5.748,5.872-4.23,9.727C235.861,323.894,275.16,323.914,283.29,303.269z"/>
<path d="M465.037,462.543l-8.855-30.019c-1.172-3.973-5.341-6.245-9.315-5.071c-3.973,1.172-6.243,5.343-5.071,9.315
	c9.128,30.932,8.893,30.168,8.995,30.467c5.141,15.037-3.576,29.765-13.36,29.765h-50.95v-55.731c0-4.143-3.357-7.5-7.5-7.5
	c-4.143,0-7.5,3.357-7.5,7.5V497H193.758c-4.143,0-7.5,3.357-7.5,7.5s3.357,7.5,7.5,7.5h243.672c8.725,0,16.952-4.509,22.572-12.37
	C467.363,489.336,469.287,475.138,465.037,462.543z"/>
<path d="M158.759,497h-19.274V441.27c0-4.143-3.357-7.5-7.5-7.5c-4.143,0-7.5,3.357-7.5,7.5V497H74.567
	c-9.652,0-18.52-14.672-13.36-29.765c0.102-0.299-0.522,1.783,25.788-87.386c3.145-10.657,9.942-18.646,18.186-21.369l49.905-16.487
	c55.406,54.289,145.898,54.026,201.057-0.254l50.674,16.741c8.243,2.724,15.041,10.712,18.186,21.369l6.888,23.344
	c1.171,3.973,5.341,6.241,9.315,5.071c3.974-1.172,6.243-5.343,5.071-9.315l-6.888-23.344
	c-4.108-13.925-13.049-24.836-24.292-29.943c31.087-94.666,41.618-196.595-19.638-275.692c-2.538-3.277-7.248-3.875-10.521-1.338
	c-3.275,2.536-3.874,7.247-1.338,10.521c57.655,74.449,46.83,171.638,17.331,261.586l-33.818-11.173
	c18.712-23.411,28.853-51.931,28.853-81.952l-0.007-50.56c2.84,0.557,5.707,1.088,8.609,1.582c4.114,0.698,7.963-2.08,8.652-6.135
	c0.695-4.084-2.052-7.957-6.135-8.652c-71.203-12.121-137.611-48.82-178.643-91.163c-0.058-0.06-0.121-0.111-0.181-0.169
	c-2.791-2.97-5.253-6.014-10.506-5.4c-3.083,0.364-5.832,2.198-7.353,4.904c-7.228,12.853-34.832,55.418-86.617,63.559
	c-4.311,0.682-8.758,5.284-8.758,11.055c-0.033,4.323-0.015,39.391-0.03,80.979c0,30.136,10.219,58.762,29.068,82.222l-33,10.903
	c-15.396-46.942-24.164-95.021-24.164-132.937c0-171.921,168.99-244.077,273.274-153.482c3.127,2.717,7.863,2.384,10.581-0.743
	c2.717-3.127,2.384-7.864-0.743-10.581C255.991-56.055,71.902,23.126,71.902,207.802c0,39.504,9.076,89.377,24.998,137.86
	c-11.242,5.107-20.183,16.019-24.292,29.943l-25.648,86.936C39.094,485.86,53.011,512,74.566,512h84.192c4.143,0,7.5-3.357,7.5-7.5
	S162.901,497,158.759,497z M130.011,169.723c49.421-9.393,78.329-46.173,89.824-64.275c33.671,34.742,93.735,72.041,161.124,88.331
	l0.008,53.836c0,31.935-13.054,63.43-39.374,87.227c-79.322,71.415-211.595,18.276-211.595-87.228
	C130.012,159.994,130.011,171.237,130.011,169.723z"/>
<g>
</g>
<g>
</g>
<g>
</g>
<g>
</g>
<g>
</g>
<g>
</g>
<g>
</g>
<g>
</g>
<g>
</g>
<g>
</g>
<g>
</g>
<g>
</g>
<g>
</g>
<g>
</g>
<g>
</g>
</svg>
