<?xml version="1.0" encoding="iso-8859-1"?>
<!-- Generator: Adobe Illustrator 19.0.0, SVG Export Plug-In . SVG Version: 6.00 Build 0)  -->
<svg version="1.1" id="Capa_1" xmlns="http://www.w3.org/2000/svg" xmlns:xlink="http://www.w3.org/1999/xlink" x="0px" y="0px"
	 viewBox="0 0 512 512" style="enable-background:new 0 0 512 512;" xml:space="preserve">
<path style="fill:#D5DEE3;" d="M383.824,309.861L202.137,128.174c7.259-31.898-1.43-66.689-26.271-91.529
	c-24.232-24.232-57.948-33.156-89.198-26.84l70.025,70.025l-18.127,58.732l-58.732,18.127L9.808,86.665
	c-6.316,31.25,2.607,64.965,26.84,89.198c24.84,24.84,59.632,33.529,91.529,26.271l181.687,181.687
	c-7.259,31.898,1.43,66.689,26.271,91.529c24.233,24.233,57.948,33.156,89.198,26.84l-70.025-70.025l18.127-58.732l58.732-18.127
	l70.025,70.025c6.316-31.25-2.607-64.965-26.84-89.198C450.513,311.291,415.721,302.602,383.824,309.861z"/>
<path style="fill:#C7CED1;" d="M229.43,206.224l91.103,91.103c6.407,6.407,6.407,16.795,0,23.203l0,0
	c-6.407,6.407-16.795,6.407-23.203,0L191.467,214.667c-6.407-6.407-6.407-16.795,0-23.203l0,0c6.407-6.407,16.795-6.407,23.203,0
	l2.746,2.746L229.43,206.224z"/>
<path d="M480.891,330.589c-12.134-12.134-26.916-21.079-43.135-26.166c-4.37-1.37-8.984,1.273-9.999,5.738l0,0
	c-0.912,4.009,1.446,7.996,5.368,9.229c13.79,4.337,26.362,11.952,36.688,22.278c17.814,17.812,27.208,41.927,26.48,66.678
	l-58.59-58.581c-2.052-2.052-5.073-2.799-7.848-1.946l-58.731,18.123c-2.475,0.764-4.413,2.702-5.176,5.176l-18.122,58.742
	c-0.856,2.774-0.107,5.795,1.946,7.848l58.584,58.583c-24.787,0.73-48.862-8.662-66.682-26.482
	c-22.109-22.108-31.143-53.604-24.169-84.251c0.596-2.626-0.196-5.374-2.099-7.278L133.715,196.593
	c-1.904-1.903-4.654-2.693-7.278-2.099c-30.651,6.978-62.145-2.062-84.25-24.17c-17.814-17.813-27.208-41.928-26.48-66.679
	l58.59,58.581c2.053,2.053,5.074,2.8,7.848,1.946l58.731-18.122c2.475-0.764,4.413-2.701,5.176-5.176l18.122-58.731
	c0.855-2.774,0.108-5.796-1.946-7.849l-58.583-58.583c24.755-0.728,48.867,8.658,66.682,26.472
	c22.109,22.11,31.143,53.605,24.169,84.251c-0.596,2.626,0.196,5.374,2.099,7.278l181.688,181.688
	c1.905,1.904,4.655,2.697,7.282,2.098c4.647-1.06,9.385-1.751,14.156-2.067c4.092-0.272,7.303-3.604,7.357-7.704v-0.01
	c0.062-4.59-3.819-8.227-8.4-7.923c-4.132,0.275-8.238,0.792-12.302,1.543L210.661,125.617c6.42-34.558-4.347-69.607-29.254-94.514
	C156.216,5.913,120.295-4.92,85.29,2.096c-2.256,0.452-4.281,1.81-5.418,3.81c-1.791,3.15-1.198,6.989,1.255,9.443l66.685,66.683
	l-15.51,50.266l-50.266,15.51L15.343,81.123c-2.452-2.451-6.289-3.047-9.439-1.257c-2.002,1.137-3.361,3.165-3.813,5.422
	c-7.007,35.011,3.833,70.928,29.018,96.112c24.906,24.908,59.949,35.674,94.514,29.256l175.716,175.715
	c-6.42,34.559,4.347,69.609,29.255,94.515c20.146,20.146,47.145,31.113,75.051,31.112c6.993,0,14.047-0.689,21.061-2.095
	c2.256-0.452,4.283-1.81,5.421-3.81c1.791-3.15,1.198-6.989-1.255-9.443l-66.685-66.684l15.51-50.275l50.266-15.511l66.694,66.685
	c2.46,2.461,6.315,3.052,9.464,1.24c1.995-1.149,3.344-3.181,3.796-5.439C516.909,391.666,506.068,355.765,480.891,330.589z"/>
<path d="M308.934,317.504c-2.292,0-4.445-0.892-6.064-2.51l-68.443-68.452c-3.058-3.059-8.017-3.059-11.077-0.001l-0.001,0.001
	c-3.059,3.058-3.059,8.017-0.001,11.077l68.443,68.452c4.577,4.579,10.665,7.1,17.143,7.1c6.477,0,12.565-2.521,17.148-7.105
	c9.435-9.451,9.435-24.827-0.005-34.282l-105.86-105.848c-4.569-4.585-10.656-7.11-17.142-7.11c-6.477,0-12.565,2.521-17.139,7.095
	c-4.584,4.577-7.109,10.665-7.109,17.142c0,6.478,2.525,12.566,7.105,17.139l11.601,11.6c3.059,3.059,8.019,3.058,11.077-0.001
	l0.001-0.001c3.058-3.059,3.058-8.017-0.001-11.077l-11.606-11.605c-1.619-1.617-2.51-3.766-2.51-6.056
	c0-2.287,0.892-4.438,2.515-6.059c1.619-1.62,3.773-2.511,6.065-2.511c2.291,0,4.437,0.889,6.054,2.511l105.865,105.853
	c3.341,3.347,3.341,8.792,0.004,12.134C313.38,316.614,311.226,317.504,308.934,317.504z"/>
<g>
</g>
<g>
</g>
<g>
</g>
<g>
</g>
<g>
</g>
<g>
</g>
<g>
</g>
<g>
</g>
<g>
</g>
<g>
</g>
<g>
</g>
<g>
</g>
<g>
</g>
<g>
</g>
<g>
</g>
</svg>
