<?xml version="1.0" encoding="iso-8859-1"?>
<!-- Generator: Adobe Illustrator 19.0.0, SVG Export Plug-In . SVG Version: 6.00 Build 0)  -->
<svg version="1.1" id="Capa_1" xmlns="http://www.w3.org/2000/svg" xmlns:xlink="http://www.w3.org/1999/xlink" x="0px" y="0px"
	 viewBox="0 0 512 512" style="enable-background:new 0 0 512 512;" xml:space="preserve">
<rect x="7.604" y="70.128" style="fill:#FFC8A0;" width="496.789" height="298.672"/>
<rect x="7.604" y="368.8" style="fill:#D7A278;" width="496.789" height="73.069"/>
<path style="fill:#D6A57A;" d="M204.424,288.385c-17.316-16.574-28.282-41.393-28.282-69.097c0-27.622,10.967-52.441,28.282-69.014"
	/>
<rect x="204.464" y="70.128" style="fill:#E3EBEE;" width="103.069" height="371.74"/>
<rect x="204.464" y="368.8" style="fill:#9DA4AE;" width="103.069" height="73.069"/>
<circle style="fill:#F29D89;" cx="144.069" cy="315.806" r="23.572"/>
<path style="fill:#D6A57A;" d="M410.058,147.514c-31.581,0-51.782,23.335-51.782,65.304c0,41.886,25.561,58.378,25.561,78.332
	c0,0-17.851,9.12-32.161,21.609H468.4c-14.29-12.501-32.121-21.609-32.121-21.609c0-19.955,25.478-36.445,25.478-78.332
	C461.756,170.849,441.637,147.514,410.058,147.514z"/>
<path d="M511.997,368.735V70.127c0-4.199-3.404-7.604-7.604-7.604h-196.86H204.464H7.604C3.405,62.523,0,65.928,0,70.127v298.67
	c0,0.023,0.003,0.046,0.003,0.069v73.007c0,4.199,3.405,7.604,7.604,7.604h496.789c4.2,0,7.604-3.405,7.604-7.604v-73.079
	C512,368.775,511.998,368.755,511.997,368.735z M196.86,266.899c-8.455-13.791-13.115-30.337-13.115-47.612
	c0-17.239,4.661-33.758,13.115-47.537V266.899z M212.068,376.402h87.861v57.865h-87.861L212.068,376.402L212.068,376.402z
	 M15.211,400.518h40.147c4.199,0,7.604-3.405,7.604-7.604l0,0c0-4.199-3.405-7.604-7.604-7.604H15.211v-8.909H196.86v8.909H90.844
	c-4.199,0-7.604,3.405-7.604,7.604l0,0c0,4.199,3.405,7.604,7.604,7.604H196.86v9.632H15.211V400.518z M315.138,400.518h181.656
	v9.632H315.138V400.518z M315.138,385.311v-8.909h181.656v8.909H315.138z M299.93,77.731v55.584c0,4.199,3.405,7.604,7.604,7.604
	l0,0c4.199,0,7.604-3.405,7.604-7.604V77.731h181.651V361.19H315.137V168.802c0-4.199-3.405-7.604-7.604-7.604l0,0
	c-4.199,0-7.604,3.405-7.604,7.604v192.392h-87.861V77.731H299.93z M196.86,77.731v69.344
	c-18.035,18.528-28.323,44.648-28.323,72.212c0,27.614,10.289,53.765,28.323,72.294v69.608H15.208V77.731H196.86z M15.211,425.358
	H196.86v8.911H15.211V425.358z M315.138,434.269v-8.911h181.656v8.911H315.138z"/>
<path d="M145.311,152.61c-2.97-2.97-7.784-2.97-10.753,0l-40.066,40.067L54.426,152.61c-2.97-2.97-7.784-2.97-10.753,0
	c-2.97,2.97-2.97,7.784,0,10.753l40.02,40.02H68.725c-4.199,0-7.604,3.405-7.604,7.604s3.405,7.604,7.604,7.604h18.163v21.897
	H68.725c-4.199,0-7.604,3.405-7.604,7.604c0,4.199,3.405,7.604,7.604,7.604h18.163v27.439c0,4.199,3.405,7.604,7.604,7.604
	s7.604-3.405,7.604-7.604v-27.439h18.163c4.199,0,7.604-3.405,7.604-7.604c0-4.199-3.405-7.604-7.604-7.604h-18.163V218.59h18.163
	c4.199,0,7.604-3.405,7.604-7.604s-3.405-7.604-7.604-7.604h-14.968l40.02-40.02C148.28,160.394,148.28,155.579,145.311,152.61z"/>
<path d="M112.894,315.801c0,17.19,13.985,31.175,31.175,31.175s31.175-13.985,31.175-31.175c0-17.19-13.985-31.175-31.175-31.175
	S112.894,298.611,112.894,315.801z M160.035,315.801c0,8.804-7.163,15.967-15.967,15.967s-15.967-7.163-15.967-15.967
	c0-8.804,7.163-15.967,15.967-15.967S160.035,306.996,160.035,315.801z"/>
<path d="M351.677,320.363h116.722c3.168,0,6.004-1.965,7.118-4.929c1.115-2.966,0.274-6.311-2.111-8.398
	c-10.452-9.143-22.518-16.46-28.997-20.12c1.173-4.956,4.182-10.318,7.776-16.724c7.653-13.635,17.175-30.606,17.175-57.375
	c0-22.11-5.429-40.498-15.703-53.178c-10.458-12.907-25.535-19.731-43.6-19.731c-36.631,0-59.386,27.937-59.386,72.908
	c0,26.776,9.556,43.747,17.232,57.385c3.605,6.401,6.623,11.763,7.8,16.714c-6.485,3.66-18.563,10.979-29.028,20.113
	c-2.388,2.084-3.232,5.431-2.12,8.399C345.67,318.397,348.508,320.363,351.677,320.363z M387.296,297.921
	c2.544-1.3,4.145-3.914,4.145-6.772c0-10.142-4.995-19.015-10.285-28.409c-7.161-12.719-15.277-27.135-15.277-49.923
	c0-36.669,16.102-57.701,44.178-57.701c28.023,0,44.095,21.031,44.095,57.701c0,22.795-8.091,37.213-15.229,49.932
	c-5.27,9.392-10.248,18.264-10.248,28.399c0,2.854,1.601,5.47,4.142,6.771c0.095,0.049,5.42,2.791,12.432,7.235H374.86
	C381.876,300.714,387.204,297.969,387.296,297.921z"/>
<path d="M421.342,108.984h45.62v52.209c0,4.199,3.404,7.604,7.604,7.604s7.604-3.405,7.604-7.604V101.38
	c0-4.199-3.404-7.604-7.604-7.604h-53.224c-4.2,0-7.604,3.405-7.604,7.604S417.143,108.984,421.342,108.984z"/>
<path d="M33.057,108.984h118.615c4.199,0,7.604-3.405,7.604-7.604s-3.405-7.604-7.604-7.604H33.057
	c-4.199,0-7.604,3.405-7.604,7.604S28.857,108.984,33.057,108.984z"/>
<path d="M96.927,333.034H49.784v-41.565c0-4.199-3.405-7.604-7.604-7.604s-7.604,3.405-7.604,7.604v49.169
	c0,4.199,3.405,7.604,7.604,7.604h54.745c4.199,0,7.604-3.405,7.604-7.604C104.529,336.439,101.126,333.034,96.927,333.034z"/>
<g>
</g>
<g>
</g>
<g>
</g>
<g>
</g>
<g>
</g>
<g>
</g>
<g>
</g>
<g>
</g>
<g>
</g>
<g>
</g>
<g>
</g>
<g>
</g>
<g>
</g>
<g>
</g>
<g>
</g>
</svg>
