<?xml version="1.0" encoding="iso-8859-1"?>
<!-- Generator: Adobe Illustrator 19.0.0, SVG Export Plug-In . SVG Version: 6.00 Build 0)  -->
<svg version="1.1" id="Capa_1" xmlns="http://www.w3.org/2000/svg" xmlns:xlink="http://www.w3.org/1999/xlink" x="0px" y="0px"
	 viewBox="0 0 512.001 512.001" style="enable-background:new 0 0 512.001 512.001;" xml:space="preserve">
<g>
	<path style="fill:#70BBEF;" d="M98.625,417.136H27.352c-17.582,0-26.458-21.339-14-33.799l37.474-37.474H27.352
		c-10.934,0-19.799-8.865-19.799-19.799s8.865-19.799,19.799-19.799h71.273c17.582,0,26.458,21.339,14,33.799l-37.474,37.474h23.475
		c10.934,0,19.799,8.865,19.799,19.799S109.559,417.136,98.625,417.136z"/>
	<path style="fill:#70BBEF;" d="M275.773,354.172H168.674c-17.582,0-26.458-21.339-14-33.799l73.3-73.3h-59.3
		c-10.934,0-19.799-8.864-19.799-19.799c0-10.934,8.865-19.799,19.799-19.799h107.099c17.582,0,26.458,21.339,14,33.799l-73.3,73.3
		h59.3c10.934,0,19.799,8.865,19.799,19.799C295.572,345.308,286.707,354.172,275.773,354.172z"/>
	<path style="fill:#70BBEF;" d="M484.649,286.025H333.088c-17.582,0-26.458-21.339-14-33.799l117.762-117.761H333.088
		c-10.935,0-19.799-8.864-19.799-19.799s8.864-19.799,19.799-19.799h151.561c17.582,0,26.458,21.339,14,33.799L380.887,246.427
		h103.763c10.935,0,19.799,8.864,19.799,19.799C504.448,277.161,495.585,286.025,484.649,286.025z"/>
</g>
<g>
	<path style="fill:#5DB4DB;" d="M40.572,383.337l21.211-21.211c6.002-6.002,1.751-16.263-6.736-16.263l0,0
		c-10.735,0-19.879-8.348-20.261-19.076c-0.401-11.264,8.612-20.522,19.786-20.522H27.827c-10.735,0-19.879,8.347-20.261,19.076
		c-0.402,11.264,8.611,20.522,19.786,20.522h23.474l-37.474,37.474c-12.458,12.46-3.582,33.799,14,33.799h27.22
		C36.99,417.135,28.114,395.797,40.572,383.337z"/>
	<path style="fill:#5DB4DB;" d="M181.894,320.373l56.281-56.281c6.28-6.28,1.832-17.019-7.049-17.019h-3.152l-73.3,73.3
		c-12.458,12.46-3.582,33.799,14,33.799h27.22C178.312,354.172,169.435,332.833,181.894,320.373z"/>
	<path style="fill:#5DB4DB;" d="M168.674,247.074h27.22c-10.934,0-19.799-8.865-19.799-19.799s8.865-19.799,19.799-19.799h-27.22
		c-10.934,0-19.799,8.865-19.799,19.799C148.875,238.21,157.74,247.074,168.674,247.074z"/>
	<path style="fill:#5DB4DB;" d="M333.088,134.464h27.22c-10.935,0-19.799-8.864-19.799-19.799s8.864-19.799,19.799-19.799h-27.22
		c-10.935,0-19.799,8.864-19.799,19.799C313.289,125.601,322.154,134.464,333.088,134.464z"/>
	<path style="fill:#5DB4DB;" d="M346.308,252.226l98.514-98.514c7.103-7.103,2.073-19.248-7.972-19.248l0,0L319.088,252.226
		c-12.458,12.46-3.582,33.799,14,33.799h27.22C342.727,286.025,333.85,264.686,346.308,252.226z"/>
</g>
<path d="M98.625,298.751H27.352c-15.06,0-27.312,12.252-27.312,27.312s12.252,27.313,27.312,27.313h5.335L8.039,378.024
	c-17.179,17.181-5.002,46.624,19.312,46.624h71.274c15.06,0,27.312-12.252,27.312-27.312c0-15.061-12.252-27.313-27.312-27.313
	H93.29l24.648-24.648C135.117,328.194,122.94,298.751,98.625,298.751z M107.311,334.751l-37.473,37.473
	c-4.715,4.717-1.375,12.827,5.313,12.827h23.474c6.775,0,12.286,5.512,12.286,12.287s-5.511,12.286-12.286,12.286H27.352
	c-10.929,0-16.438-13.223-8.686-20.973l37.473-37.473c4.715-4.717,1.375-12.827-5.313-12.827H27.352
	c-6.775,0-12.286-5.512-12.286-12.287s5.511-12.286,12.286-12.286h71.273C109.553,313.778,115.064,327,107.311,334.751z"/>
<path d="M484.649,87.353h-93.251c-4.15,0-7.513,3.363-7.513,7.513c0,4.15,3.363,7.513,7.513,7.513h93.251
	c10.929,0,16.44,13.223,8.687,20.974l-117.762,117.76c-4.715,4.717-1.375,12.827,5.313,12.827h103.762
	c6.774,0,12.286,5.512,12.286,12.286c0,6.775-5.512,12.286-12.286,12.286h-9.102c-4.15,0-7.513,3.363-7.513,7.513
	c0,4.15,3.363,7.513,7.513,7.513h9.102c15.06,0,27.312-12.252,27.312-27.312c0-15.061-12.252-27.312-27.312-27.312h-85.624
	l104.937-104.936C521.141,116.798,508.966,87.353,484.649,87.353z"/>
<path d="M440.485,278.511H333.088c-10.927,0-16.439-13.221-8.686-20.972l117.762-117.761c4.715-4.717,1.375-12.827-5.313-12.827
	H333.088c-6.775,0-12.286-5.511-12.286-12.286c0-6.775,5.511-12.287,12.286-12.287h23.248c4.15,0,7.513-3.363,7.513-7.513
	s-3.363-7.513-7.513-7.513h-23.248c-15.06,0-27.312,12.252-27.312,27.313c0,15.06,12.252,27.312,27.312,27.312h85.625
	L313.776,246.914c-17.176,17.178-5.004,46.623,19.312,46.623h107.397c4.15,0,7.513-3.363,7.513-7.513
	C447.998,281.874,444.635,278.511,440.485,278.511z"/>
<path d="M275.773,199.962H168.674c-15.06,0-27.312,12.252-27.312,27.312s12.252,27.313,27.312,27.313h41.162l-60.475,60.474
	c-17.176,17.178-5.003,46.625,19.313,46.625h18.487c4.15,0,7.513-3.363,7.513-7.513s-3.363-7.513-7.513-7.513h-18.487
	c-10.929,0-16.44-13.222-8.687-20.973l73.301-73.3c4.715-4.717,1.375-12.827-5.313-12.827h-59.3
	c-6.774,0-12.286-5.512-12.286-12.287s5.512-12.286,12.286-12.286h107.099c10.927,0,16.438,13.221,8.687,20.973l-73.301,73.301
	c-4.715,4.717-1.375,12.827,5.313,12.827h59.3c6.775,0,12.286,5.512,12.286,12.286c0,6.775-5.511,12.286-12.286,12.286h-53.55
	c-4.15,0-7.513,3.363-7.513,7.513s3.363,7.513,7.513,7.513h53.55c15.06,0,27.312-12.252,27.312-27.312s-12.252-27.312-27.312-27.312
	h-41.162l60.475-60.475C312.262,229.408,300.089,199.962,275.773,199.962z"/>
<g>
</g>
<g>
</g>
<g>
</g>
<g>
</g>
<g>
</g>
<g>
</g>
<g>
</g>
<g>
</g>
<g>
</g>
<g>
</g>
<g>
</g>
<g>
</g>
<g>
</g>
<g>
</g>
<g>
</g>
</svg>
