<?xml version="1.0" encoding="iso-8859-1"?>
<!-- Generator: Adobe Illustrator 19.0.0, SVG Export Plug-In . SVG Version: 6.00 Build 0)  -->
<svg version="1.1" id="Layer_1" xmlns="http://www.w3.org/2000/svg" xmlns:xlink="http://www.w3.org/1999/xlink" x="0px" y="0px"
	 viewBox="0 0 512 512" style="enable-background:new 0 0 512 512;" xml:space="preserve">
<path style="fill:#0084FF;" d="M486.305,321.422l-36.052-29.691c2.119-11.59,3.233-23.53,3.233-35.731
	c0-12.202-1.114-24.142-3.233-35.733l36.052-29.692c6.053-4.985,7.611-13.591,3.693-20.37l-42.704-73.963
	c-3.908-6.791-12.149-9.748-19.483-6.983l-43.773,16.397c-18.097-15.427-39.01-27.64-61.864-35.766l-7.679-46.053
	c-1.281-7.728-7.965-13.387-15.791-13.387h-85.408c-7.825,0-14.508,5.659-15.789,13.388l-7.678,46.05
	c-22.856,8.127-43.771,20.342-61.867,35.768L84.19,89.26c-7.312-2.775-15.566,0.192-19.484,6.982l-42.704,73.964
	c-3.918,6.779-2.36,15.385,3.693,20.37l36.052,29.691c-2.118,11.59-3.232,23.53-3.232,35.732c0,12.202,1.114,24.142,3.233,35.732
	l-36.052,29.692c-6.053,4.985-7.611,13.591-3.693,20.37l42.704,73.964c3.918,6.79,12.181,9.768,19.484,6.982l43.772-16.397
	c18.097,15.427,39.011,27.641,61.865,35.767l7.679,46.052c1.278,7.731,7.984,13.388,15.79,13.388h85.408
	c7.819,0,14.504-5.653,15.789-13.388l7.678-46.051c22.856-8.127,43.771-20.341,61.867-35.768l43.772,16.397
	c7.324,2.775,15.565-0.193,19.483-6.982l42.704-73.964C493.916,335.012,492.358,326.408,486.305,321.422z"/>
<path style="fill:#FFAF00;" d="M310.022,320.056v176.806c-2.915,2.915-6.94,4.686-11.317,4.686h-85.408
	c-3.769,0-7.27-1.313-10.036-3.544V320.056H310.022z"/>
<path style="fill:#FFD41D;" d="M310.022,151.555v94.927l-53.381,32.027l-53.381-32.027v-94.927
	c-39.228,19.986-64.055,59.844-64.056,104.442c-0.001,66.879,54.481,117.408,117.375,117.439
	c64.782,0.033,117.497-52.662,117.497-117.438C374.078,211.401,349.249,171.541,310.022,151.555z"/>
<path d="M235.082,418.321c-5.771,0-10.449-4.678-10.449-10.449v-4.678c0-5.771,4.678-10.449,10.449-10.449
	s10.449,4.678,10.449,10.449v4.678C245.531,413.643,240.852,418.321,235.082,418.321z"/>
<path d="M492.948,313.357l-31.393-25.855c1.58-10.4,2.38-20.968,2.38-31.502c0-10.534-0.8-21.104-2.381-31.504l31.394-25.856
	c10.032-8.262,12.595-22.42,6.099-33.66L456.35,91.029c-4.704-8.173-13.479-13.25-22.903-13.25c-3.19,0-6.326,0.573-9.302,1.695
	l-38.108,14.274c-16.546-13.286-34.848-23.869-54.55-31.54l-6.683-40.082C322.676,9.306,311.701,0,298.704,0h-85.408
	C200.3,0,189.324,9.307,187.2,22.119l-6.684,40.088c-19.703,7.673-38.007,18.255-54.553,31.542L87.898,79.492
	c-2.999-1.138-6.14-1.715-9.338-1.715c-9.413,0-18.191,5.074-22.903,13.241l-42.702,73.96c-6.499,11.244-3.935,25.403,6.097,33.665
	l31.394,25.855c-1.58,10.4-2.38,20.969-2.38,31.503c0,10.534,0.8,21.103,2.38,31.503l-31.394,25.856
	c-10.032,8.262-12.595,22.42-6.099,33.66l42.703,73.963c4.716,8.171,13.492,13.247,22.904,13.247c3.205,0,6.352-0.581,9.294-1.703
	l38.107-14.275c16.547,13.287,34.85,23.87,54.551,31.541l6.682,40.075C189.316,502.692,200.293,512,213.297,512h85.408
	c12.991,0,23.967-9.304,26.096-22.118l6.683-40.089c19.705-7.673,38.008-18.255,54.554-31.542l38.07,14.261
	c2.999,1.137,6.141,1.713,9.336,1.713c9.411,0,18.185-5.074,22.9-13.241l42.703-73.962
	C505.543,335.776,502.979,321.619,492.948,313.357z M299.573,491.025c-0.284,0.044-0.573,0.077-0.868,0.077H245.53v-49.427
	c0-5.771-4.678-10.449-10.449-10.449c-5.771,0-10.449,4.678-10.449,10.449v49.427h-10.922V376.504
	c13.606,4.844,28.061,7.375,42.865,7.382c0.003,0,0.066,0,0.07,0c14.852,0,29.325-2.528,42.928-7.376v114.515H299.573z
	 M256.642,362.988h-0.057c-58.964-0.029-106.933-48.026-106.932-106.99c0.001-34.314,16.175-65.814,43.158-85.745v76.229
	c0,3.671,1.926,7.072,5.073,8.96l53.381,32.027c3.309,1.984,7.443,1.984,10.752,0l53.381-32.027c3.147-1.889,5.073-5.29,5.073-8.96
	v-76.229c26.983,19.931,43.158,51.432,43.157,85.747c0,28.528-11.143,55.382-31.374,75.614
	C312.022,351.846,285.169,362.988,256.642,362.988z M480.949,336.57l-42.705,73.965c-1.326,2.296-4.122,3.423-6.769,2.42
	l-43.772-16.397c-3.557-1.331-7.555-0.63-10.444,1.834c-16.925,14.428-36.026,25.589-56.79,33.212v-64.78
	c9.585-5.551,18.513-12.386,26.56-20.434c24.179-24.18,37.495-56.281,37.495-90.391c0.001-48.242-26.73-91.831-69.761-113.754
	c-3.239-1.651-7.103-1.498-10.203,0.401c-3.099,1.9-4.989,5.274-4.989,8.909v89.011l-42.932,25.759l-42.932-25.759v-89.011
	c0-3.635-1.89-7.009-4.989-8.909c-3.099-1.899-6.963-2.05-10.203-0.401c-43.03,21.922-69.761,65.51-69.762,113.752
	c-0.001,34.743,13.583,67.154,38.247,91.26c7.858,7.68,16.53,14.23,25.809,19.585v65.235c-21.258-7.63-40.795-18.958-58.071-33.684
	c-1.922-1.638-4.333-2.497-6.78-2.497c-1.232,0-2.473,0.217-3.663,0.664l-43.83,16.419c-0.613,0.234-1.255,0.353-1.905,0.353
	c-1.969,0-3.81-1.071-4.805-2.796l-42.706-73.968c-1.365-2.361-0.822-5.337,1.288-7.076L68.389,299.8
	c2.926-2.411,4.318-6.216,3.635-9.944c-2.03-11.12-3.061-22.509-3.061-33.856c0-11.346,1.03-22.736,3.063-33.854
	c0.681-3.729-0.709-7.535-3.636-9.944l-36.051-29.691c-2.112-1.74-2.654-4.716-1.287-7.08l42.705-73.966
	c1.323-2.294,4.109-3.429,6.769-2.419l43.772,16.395c3.555,1.33,7.554,0.63,10.444-1.833c17.417-14.847,37.129-26.244,58.59-33.876
	c3.576-1.272,6.182-4.382,6.805-8.126l7.679-46.059c0.446-2.694,2.752-4.649,5.482-4.649h85.408c2.73,0,5.036,1.955,5.485,4.656
	l7.679,46.053c0.624,3.744,3.23,6.856,6.806,8.126c21.459,7.631,41.17,19.027,58.586,33.873c2.89,2.463,6.888,3.165,10.444,1.833
	l43.794-16.405c0.631-0.238,1.287-0.358,1.95-0.358c1.97,0,3.806,1.064,4.798,2.789l42.706,73.967
	c1.365,2.361,0.822,5.337-1.288,7.076l-36.052,29.692c-2.926,2.411-4.318,6.215-3.635,9.944c2.03,11.118,3.061,22.509,3.061,33.855
	s-1.03,22.735-3.063,33.853c-0.681,3.728,0.709,7.535,3.636,9.944l36.051,29.691C481.774,331.227,482.316,334.205,480.949,336.57z"
	/>
<g>
</g>
<g>
</g>
<g>
</g>
<g>
</g>
<g>
</g>
<g>
</g>
<g>
</g>
<g>
</g>
<g>
</g>
<g>
</g>
<g>
</g>
<g>
</g>
<g>
</g>
<g>
</g>
<g>
</g>
</svg>
